<?xml version="1.0" encoding="UTF-8" standalone="no"?>
<!DOCTYPE svg PUBLIC "-//W3C//DTD SVG 1.1//EN"
 "http://www.w3.org/Graphics/SVG/1.1/DTD/svg11.dtd">
<!-- Generated by graphviz version 14.1.1 (20251213.1925)
 -->
<!-- Title: Flow Pages: 1 -->
<svg width="728pt" height="799pt"
 viewBox="0.00 0.00 728.00 799.00" xmlns="http://www.w3.org/2000/svg" xmlns:xlink="http://www.w3.org/1999/xlink">
<g id="graph0" class="graph" transform="scale(1 1) rotate(0) translate(4 795.36)">
<title>Flow</title>
<polygon fill="white" stroke="none" points="-4,4 -4,-795.36 724.41,-795.36 724.41,4 -4,4"/>
<!-- RFC0020 -->
<g id="node1" class="node">
<title>RFC0020</title>
<g id="a_node1"><a xlink:title="None">
<ellipse fill="green" stroke="black" stroke-width="3" cx="360.21" cy="-395.68" rx="208.6" ry="50.2"/>
<text xml:space="preserve" text-anchor="middle" x="360.21" y="-410.08" font-family="Times,serif" font-size="18.00">RFC0020</text>
<text xml:space="preserve" text-anchor="middle" x="360.21" y="-389.08" font-family="Times,serif" font-size="18.00">ASCII format for network interchange</text>
<text xml:space="preserve" text-anchor="middle" x="360.21" y="-368.08" font-family="Times,serif" font-size="18.00">1969</text>
</a>
</g>
</g>
<!-- obs -->
<g id="node3" class="node">
<title>obs</title>
<polygon fill="lightblue" stroke="black" points="720.41,-602.52 654.16,-602.52 654.16,-566.52 720.41,-566.52 720.41,-602.52"/>
<text xml:space="preserve" text-anchor="middle" x="687.29" y="-579.47" font-family="Times,serif" font-size="14.00">obsoletes</text>
</g>
<!-- RFC0020&#45;&gt;obs -->
<g id="edge2" class="edge">
<title>RFC0020&#45;&gt;obs</title>
<path fill="none" stroke="black" d="M442.32,-443.09C507.08,-480.48 594.7,-531.06 645.69,-560.51"/>
<polygon fill="black" stroke="black" points="643.67,-563.38 654.08,-565.35 647.17,-557.32 643.67,-563.38"/>
</g>
<!-- updates -->
<g id="node4" class="node">
<title>updates</title>
<polygon fill="lightyellow" stroke="black" points="388.83,-791.36 331.58,-791.36 331.58,-755.36 388.83,-755.36 388.83,-791.36"/>
<text xml:space="preserve" text-anchor="middle" x="360.21" y="-768.31" font-family="Times,serif" font-size="14.00">updates</text>
</g>
<!-- RFC0020&#45;&gt;updates -->
<g id="edge3" class="edge">
<title>RFC0020&#45;&gt;updates</title>
<path fill="none" stroke="black" d="M360.21,-447.01C360.21,-527.16 360.21,-679.49 360.21,-743.67"/>
<polygon fill="black" stroke="black" points="356.71,-743.43 360.21,-753.43 363.71,-743.43 356.71,-743.43"/>
</g>
<!-- cites -->
<g id="node6" class="node">
<title>cites</title>
<polygon fill="lightblue" stroke="black" points="60.13,-602.52 6.13,-602.52 6.13,-566.52 60.13,-566.52 60.13,-602.52"/>
<text xml:space="preserve" text-anchor="middle" x="33.13" y="-579.47" font-family="Times,serif" font-size="14.00">cites</text>
</g>
<!-- RFC0020&#45;&gt;cites -->
<g id="edge5" class="edge">
<title>RFC0020&#45;&gt;cites</title>
<path fill="none" stroke="black" d="M278.09,-443.09C211.35,-481.63 120.31,-534.18 70.13,-563.16"/>
<polygon fill="black" stroke="black" points="68.58,-560.01 61.67,-568.04 72.08,-566.08 68.58,-560.01"/>
</g>
<!-- obs_by -->
<g id="node2" class="node">
<title>obs_by</title>
<polygon fill="lightblue" stroke="black" points="66.25,-224.84 0,-224.84 0,-188.84 66.25,-188.84 66.25,-224.84"/>
<text xml:space="preserve" text-anchor="middle" x="33.13" y="-201.79" font-family="Times,serif" font-size="14.00">obsoletes</text>
</g>
<!-- obs_by&#45;&gt;RFC0020 -->
<g id="edge1" class="edge">
<title>obs_by&#45;&gt;RFC0020</title>
<path fill="none" stroke="black" d="M65.08,-225.29C111.66,-252.18 200.04,-303.21 267.99,-342.44"/>
<polygon fill="black" stroke="black" points="266.13,-345.41 276.54,-347.38 269.63,-339.35 266.13,-345.41"/>
</g>
<!-- updated_by -->
<g id="node5" class="node">
<title>updated_by</title>
<polygon fill="lightyellow" stroke="black" points="388.83,-36 331.58,-36 331.58,0 388.83,0 388.83,-36"/>
<text xml:space="preserve" text-anchor="middle" x="360.21" y="-12.95" font-family="Times,serif" font-size="14.00">updates</text>
</g>
<!-- updated_by&#45;&gt;RFC0020 -->
<g id="edge4" class="edge">
<title>updated_by&#45;&gt;RFC0020</title>
<path fill="none" stroke="black" d="M360.21,-36.47C360.21,-89.62 360.21,-244.75 360.21,-332.78"/>
<polygon fill="black" stroke="black" points="356.71,-332.71 360.21,-342.71 363.71,-332.71 356.71,-332.71"/>
</g>
<!-- rev_cites -->
<g id="node7" class="node">
<title>rev_cites</title>
<polygon fill="lightblue" stroke="black" points="714.29,-224.84 660.29,-224.84 660.29,-188.84 714.29,-188.84 714.29,-224.84"/>
<text xml:space="preserve" text-anchor="middle" x="687.29" y="-201.79" font-family="Times,serif" font-size="14.00">cites</text>
</g>
<!-- rev_cites&#45;&gt;RFC0020 -->
<g id="edge6" class="edge">
<title>rev_cites&#45;&gt;RFC0020</title>
<path fill="none" stroke="black" d="M659.97,-222.62C614.8,-248.69 522.58,-301.93 452.29,-342.52"/>
<polygon fill="black" stroke="black" points="450.75,-339.37 443.84,-347.4 454.25,-345.43 450.75,-339.37"/>
</g>
</g>
</svg>
