<?xml version="1.0" encoding="UTF-8" standalone="no"?>
<!DOCTYPE svg PUBLIC "-//W3C//DTD SVG 1.1//EN"
 "http://www.w3.org/Graphics/SVG/1.1/DTD/svg11.dtd">
<!-- Generated by graphviz version 14.1.1 (20251213.1925)
 -->
<!-- Title: Flow Pages: 1 -->
<svg width="770pt" height="152pt"
 viewBox="0.00 0.00 770.00 152.00" xmlns="http://www.w3.org/2000/svg" xmlns:xlink="http://www.w3.org/1999/xlink">
<g id="graph0" class="graph" transform="scale(1 1) rotate(0) translate(4 148)">
<title>Flow</title>
<polygon fill="white" stroke="none" points="-4,4 -4,-148 765.87,-148 765.87,4 -4,4"/>
<!-- RFC0405 -->
<g id="node1" class="node">
<title>RFC0405</title>
<g id="a_node1"><a xlink:title="None">
<ellipse fill="none" stroke="black" cx="191.13" cy="-72" rx="99.88" ry="40.66"/>
<text xml:space="preserve" text-anchor="middle" x="191.13" y="-83.45" font-family="Times,serif" font-size="14.00">RFC0405</text>
<text xml:space="preserve" text-anchor="middle" x="191.13" y="-66.95" font-family="Times,serif" font-size="14.00">Correction to RFC 404</text>
<text xml:space="preserve" text-anchor="middle" x="191.13" y="-50.45" font-family="Times,serif" font-size="14.00">1972</text>
</a>
</g>
</g>
<!-- obs -->
<g id="node3" class="node">
<title>obs</title>
<polygon fill="none" stroke="black" points="382.26,-144 316.01,-144 316.01,-108 382.26,-108 382.26,-144"/>
<text xml:space="preserve" text-anchor="middle" x="349.13" y="-120.95" font-family="Times,serif" font-size="14.00">obsoletes</text>
</g>
<!-- RFC0405&#45;&gt;obs -->
<g id="edge2" class="edge">
<title>RFC0405&#45;&gt;obs</title>
<path fill="none" stroke="black" d="M267.85,-98.21C280.67,-102.65 293.58,-107.12 305.18,-111.13"/>
<polygon fill="black" stroke="black" points="303.83,-114.37 314.43,-114.33 306.12,-107.75 303.83,-114.37"/>
</g>
<!-- updates -->
<g id="node4" class="node">
<title>updates</title>
<polygon fill="none" stroke="black" points="377.76,-90 320.51,-90 320.51,-54 377.76,-54 377.76,-90"/>
<text xml:space="preserve" text-anchor="middle" x="349.13" y="-66.95" font-family="Times,serif" font-size="14.00">updates</text>
</g>
<!-- RFC0405&#45;&gt;updates -->
<g id="edge3" class="edge">
<title>RFC0405&#45;&gt;updates</title>
<path fill="none" stroke="black" d="M291.37,-72C297.42,-72 303.28,-72 308.79,-72"/>
<polygon fill="black" stroke="black" points="308.74,-75.5 318.74,-72 308.74,-68.5 308.74,-75.5"/>
</g>
<!-- cites -->
<g id="node7" class="node">
<title>cites</title>
<polygon fill="none" stroke="black" points="376.13,-36 322.13,-36 322.13,0 376.13,0 376.13,-36"/>
<text xml:space="preserve" text-anchor="middle" x="349.13" y="-12.95" font-family="Times,serif" font-size="14.00">cites</text>
</g>
<!-- RFC0405&#45;&gt;cites -->
<g id="edge6" class="edge">
<title>RFC0405&#45;&gt;cites</title>
<path fill="none" stroke="black" d="M267.85,-45.79C282.86,-40.59 297.98,-35.36 310.99,-30.86"/>
<polygon fill="black" stroke="black" points="312.09,-34.18 320.39,-27.6 309.8,-27.57 312.09,-34.18"/>
</g>
<!-- obs_by -->
<g id="node2" class="node">
<title>obs_by</title>
<polygon fill="none" stroke="black" points="66.25,-144 0,-144 0,-108 66.25,-108 66.25,-144"/>
<text xml:space="preserve" text-anchor="middle" x="33.12" y="-120.95" font-family="Times,serif" font-size="14.00">obsoletes</text>
</g>
<!-- obs_by&#45;&gt;RFC0405 -->
<g id="edge1" class="edge">
<title>obs_by&#45;&gt;RFC0405</title>
<path fill="none" stroke="black" d="M66.45,-114.81C77.43,-111.01 90.29,-106.56 103.47,-102"/>
<polygon fill="black" stroke="black" points="104.36,-105.39 112.66,-98.82 102.07,-98.78 104.36,-105.39"/>
</g>
<!-- RFC0404 -->
<g id="node5" class="node">
<title>RFC0404</title>
<g id="a_node5"><a xlink:href="RFC0404.html" xlink:title="None" target="_top">
<ellipse fill="none" stroke="black" cx="584.56" cy="-72" rx="177.31" ry="52.33"/>
<text xml:space="preserve" text-anchor="middle" x="584.56" y="-91.7" font-family="Times,serif" font-size="14.00">RFC0404</text>
<text xml:space="preserve" text-anchor="middle" x="584.56" y="-75.2" font-family="Times,serif" font-size="14.00">Host Address Changes Involving Rand and</text>
<text xml:space="preserve" text-anchor="middle" x="584.56" y="-58.7" font-family="Times,serif" font-size="14.00">ISI</text>
<text xml:space="preserve" text-anchor="middle" x="584.56" y="-42.2" font-family="Times,serif" font-size="14.00">1972</text>
</a>
</g>
</g>
<!-- updates&#45;&gt;RFC0404 -->
<g id="edge4" class="edge">
<title>updates&#45;&gt;RFC0404</title>
<path fill="none" stroke="black" d="M377.83,-72C383.24,-72 389.29,-72 395.81,-72"/>
<polygon fill="black" stroke="black" points="395.7,-75.5 405.7,-72 395.7,-68.5 395.7,-75.5"/>
</g>
<!-- updated_by -->
<g id="node6" class="node">
<title>updated_by</title>
<polygon fill="none" stroke="black" points="61.75,-90 4.5,-90 4.5,-54 61.75,-54 61.75,-90"/>
<text xml:space="preserve" text-anchor="middle" x="33.12" y="-66.95" font-family="Times,serif" font-size="14.00">updates</text>
</g>
<!-- updated_by&#45;&gt;RFC0405 -->
<g id="edge5" class="edge">
<title>updated_by&#45;&gt;RFC0405</title>
<path fill="none" stroke="black" d="M62.02,-72C67.33,-72 73.18,-72 79.37,-72"/>
<polygon fill="black" stroke="black" points="79.31,-75.5 89.31,-72 79.31,-68.5 79.31,-75.5"/>
</g>
<!-- rev_cites -->
<g id="node8" class="node">
<title>rev_cites</title>
<polygon fill="none" stroke="black" points="60.12,-36 6.12,-36 6.12,0 60.12,0 60.12,-36"/>
<text xml:space="preserve" text-anchor="middle" x="33.12" y="-12.95" font-family="Times,serif" font-size="14.00">cites</text>
</g>
<!-- rev_cites&#45;&gt;RFC0405 -->
<g id="edge7" class="edge">
<title>rev_cites&#45;&gt;RFC0405</title>
<path fill="none" stroke="black" d="M60.59,-27.16C72.67,-31.34 87.73,-36.55 103.27,-41.93"/>
<polygon fill="black" stroke="black" points="102.04,-45.21 112.64,-45.18 104.33,-38.6 102.04,-45.21"/>
</g>
</g>
</svg>
