<?xml version="1.0" encoding="UTF-8" standalone="no"?>
<!DOCTYPE svg PUBLIC "-//W3C//DTD SVG 1.1//EN"
 "http://www.w3.org/Graphics/SVG/1.1/DTD/svg11.dtd">
<!-- Generated by graphviz version 14.1.1 (20251213.1925)
 -->
<!-- Title: Flow Pages: 1 -->
<svg width="626pt" height="681pt"
 viewBox="0.00 0.00 626.00 681.00" xmlns="http://www.w3.org/2000/svg" xmlns:xlink="http://www.w3.org/1999/xlink">
<g id="graph0" class="graph" transform="scale(1 1) rotate(0) translate(4 676.58)">
<title>Flow</title>
<polygon fill="white" stroke="none" points="-4,4 -4,-676.58 621.55,-676.58 621.55,4 -4,4"/>
<!-- RFC0752 -->
<g id="node1" class="node">
<title>RFC0752</title>
<g id="a_node1"><a xlink:title="None">
<ellipse fill="green" stroke="black" stroke-width="3" cx="308.77" cy="-336.29" rx="114.2" ry="50.2"/>
<text xml:space="preserve" text-anchor="middle" x="308.77" y="-350.69" font-family="Times,serif" font-size="18.00">RFC0752</text>
<text xml:space="preserve" text-anchor="middle" x="308.77" y="-329.69" font-family="Times,serif" font-size="18.00">Universal host table</text>
<text xml:space="preserve" text-anchor="middle" x="308.77" y="-308.69" font-family="Times,serif" font-size="18.00">1979</text>
</a>
</g>
</g>
<!-- obs -->
<g id="node3" class="node">
<title>obs</title>
<polygon fill="lightblue" stroke="black" points="617.55,-513.44 551.3,-513.44 551.3,-477.44 617.55,-477.44 617.55,-513.44"/>
<text xml:space="preserve" text-anchor="middle" x="584.42" y="-490.39" font-family="Times,serif" font-size="14.00">obsoletes</text>
</g>
<!-- RFC0752&#45;&gt;obs -->
<g id="edge2" class="edge">
<title>RFC0752&#45;&gt;obs</title>
<path fill="none" stroke="black" d="M379.4,-377.07C431.09,-406.91 499.47,-446.39 542.71,-471.35"/>
<polygon fill="black" stroke="black" points="540.88,-474.34 551.29,-476.31 544.38,-468.28 540.88,-474.34"/>
</g>
<!-- updates -->
<g id="node4" class="node">
<title>updates</title>
<polygon fill="lightyellow" stroke="black" points="337.4,-672.58 280.15,-672.58 280.15,-636.58 337.4,-636.58 337.4,-672.58"/>
<text xml:space="preserve" text-anchor="middle" x="308.77" y="-649.53" font-family="Times,serif" font-size="14.00">updates</text>
</g>
<!-- RFC0752&#45;&gt;updates -->
<g id="edge3" class="edge">
<title>RFC0752&#45;&gt;updates</title>
<path fill="none" stroke="black" d="M308.77,-387.78C308.77,-455.03 308.77,-570.57 308.77,-624.81"/>
<polygon fill="black" stroke="black" points="305.27,-624.81 308.77,-634.81 312.27,-624.81 305.27,-624.81"/>
</g>
<!-- cites -->
<g id="node6" class="node">
<title>cites</title>
<polygon fill="lightblue" stroke="black" points="60.13,-513.44 6.13,-513.44 6.13,-477.44 60.13,-477.44 60.13,-513.44"/>
<text xml:space="preserve" text-anchor="middle" x="33.13" y="-490.39" font-family="Times,serif" font-size="14.00">cites</text>
</g>
<!-- RFC0752&#45;&gt;cites -->
<g id="edge5" class="edge">
<title>RFC0752&#45;&gt;cites</title>
<path fill="none" stroke="black" d="M238.14,-377.07C184.54,-408.02 112.98,-449.33 70.13,-474.07"/>
<polygon fill="black" stroke="black" points="68.62,-470.9 61.71,-478.93 72.12,-476.96 68.62,-470.9"/>
</g>
<!-- obs_by -->
<g id="node2" class="node">
<title>obs_by</title>
<polygon fill="lightblue" stroke="black" points="66.25,-195.15 0,-195.15 0,-159.15 66.25,-159.15 66.25,-195.15"/>
<text xml:space="preserve" text-anchor="middle" x="33.13" y="-172.1" font-family="Times,serif" font-size="14.00">obsoletes</text>
</g>
<!-- obs_by&#45;&gt;RFC0752 -->
<g id="edge1" class="edge">
<title>obs_by&#45;&gt;RFC0752</title>
<path fill="none" stroke="black" d="M65.01,-195.56C104.72,-218.48 173.96,-258.46 228.53,-289.96"/>
<polygon fill="black" stroke="black" points="226.47,-292.81 236.88,-294.78 229.97,-286.75 226.47,-292.81"/>
</g>
<!-- updated_by -->
<g id="node5" class="node">
<title>updated_by</title>
<polygon fill="lightyellow" stroke="black" points="337.4,-36 280.15,-36 280.15,0 337.4,0 337.4,-36"/>
<text xml:space="preserve" text-anchor="middle" x="308.77" y="-12.95" font-family="Times,serif" font-size="14.00">updates</text>
</g>
<!-- updated_by&#45;&gt;RFC0752 -->
<g id="edge4" class="edge">
<title>updated_by&#45;&gt;RFC0752</title>
<path fill="none" stroke="black" d="M308.77,-36.49C308.77,-81.7 308.77,-199.54 308.77,-273.29"/>
<polygon fill="black" stroke="black" points="305.27,-273.22 308.77,-283.22 312.27,-273.22 305.27,-273.22"/>
</g>
<!-- rev_cites -->
<g id="node7" class="node">
<title>rev_cites</title>
<polygon fill="lightblue" stroke="black" points="611.42,-195.15 557.42,-195.15 557.42,-159.15 611.42,-159.15 611.42,-195.15"/>
<text xml:space="preserve" text-anchor="middle" x="584.42" y="-172.1" font-family="Times,serif" font-size="14.00">cites</text>
</g>
<!-- rev_cites&#45;&gt;RFC0752 -->
<g id="edge6" class="edge">
<title>rev_cites&#45;&gt;RFC0752</title>
<path fill="none" stroke="black" d="M556.98,-192.99C518.17,-215.39 445.66,-257.26 388.99,-289.98"/>
<polygon fill="black" stroke="black" points="387.54,-286.77 380.63,-294.8 391.04,-292.83 387.54,-286.77"/>
</g>
</g>
</svg>
