<?xml version="1.0" encoding="UTF-8" standalone="no"?>
<!DOCTYPE svg PUBLIC "-//W3C//DTD SVG 1.1//EN"
 "http://www.w3.org/Graphics/SVG/1.1/DTD/svg11.dtd">
<!-- Generated by graphviz version 14.1.1 (20251213.1925)
 -->
<!-- Title: Flow Pages: 1 -->
<svg width="836pt" height="381pt"
 viewBox="0.00 0.00 836.00 381.00" xmlns="http://www.w3.org/2000/svg" xmlns:xlink="http://www.w3.org/1999/xlink">
<g id="graph0" class="graph" transform="scale(1 1) rotate(0) translate(4 376.65)">
<title>Flow</title>
<polygon fill="white" stroke="none" points="-4,4 -4,-376.65 831.63,-376.65 831.63,4 -4,4"/>
<!-- RFC0217 -->
<g id="node1" class="node">
<title>RFC0217</title>
<g id="a_node1"><a xlink:title="None">
<ellipse fill="none" stroke="black" cx="227.19" cy="-186.33" rx="135.94" ry="52.33"/>
<text xml:space="preserve" text-anchor="middle" x="227.19" y="-206.03" font-family="Times,serif" font-size="14.00">RFC0217</text>
<text xml:space="preserve" text-anchor="middle" x="227.19" y="-189.53" font-family="Times,serif" font-size="14.00">Specifications changes for OLS,</text>
<text xml:space="preserve" text-anchor="middle" x="227.19" y="-173.03" font-family="Times,serif" font-size="14.00">RJE/RJOR, and SMFS</text>
<text xml:space="preserve" text-anchor="middle" x="227.19" y="-156.53" font-family="Times,serif" font-size="14.00">1971</text>
</a>
</g>
</g>
<!-- obs -->
<g id="node3" class="node">
<title>obs</title>
<polygon fill="none" stroke="black" points="454.38,-258.33 388.13,-258.33 388.13,-222.33 454.38,-222.33 454.38,-258.33"/>
<text xml:space="preserve" text-anchor="middle" x="421.26" y="-235.28" font-family="Times,serif" font-size="14.00">obsoletes</text>
</g>
<!-- RFC0217&#45;&gt;obs -->
<g id="edge2" class="edge">
<title>RFC0217&#45;&gt;obs</title>
<path fill="none" stroke="black" d="M337.69,-217.11C351.61,-221.02 365.14,-224.83 377.09,-228.19"/>
<polygon fill="black" stroke="black" points="375.98,-231.51 386.56,-230.85 377.88,-224.78 375.98,-231.51"/>
</g>
<!-- updates -->
<g id="node4" class="node">
<title>updates</title>
<polygon fill="none" stroke="black" points="449.88,-204.33 392.63,-204.33 392.63,-168.33 449.88,-168.33 449.88,-204.33"/>
<text xml:space="preserve" text-anchor="middle" x="421.26" y="-181.28" font-family="Times,serif" font-size="14.00">updates</text>
</g>
<!-- RFC0217&#45;&gt;updates -->
<g id="edge3" class="edge">
<title>RFC0217&#45;&gt;updates</title>
<path fill="none" stroke="black" d="M363.41,-186.33C369.54,-186.33 375.4,-186.33 380.89,-186.33"/>
<polygon fill="black" stroke="black" points="380.72,-189.83 390.72,-186.33 380.72,-182.83 380.72,-189.83"/>
</g>
<!-- cites -->
<g id="node9" class="node">
<title>cites</title>
<polygon fill="none" stroke="black" points="448.26,-150.33 394.26,-150.33 394.26,-114.33 448.26,-114.33 448.26,-150.33"/>
<text xml:space="preserve" text-anchor="middle" x="421.26" y="-127.28" font-family="Times,serif" font-size="14.00">cites</text>
</g>
<!-- RFC0217&#45;&gt;cites -->
<g id="edge8" class="edge">
<title>RFC0217&#45;&gt;cites</title>
<path fill="none" stroke="black" d="M337.69,-155.54C353.98,-150.96 369.74,-146.53 383.05,-142.79"/>
<polygon fill="black" stroke="black" points="383.93,-146.18 392.61,-140.1 382.04,-139.44 383.93,-146.18"/>
</g>
<!-- obs_by -->
<g id="node2" class="node">
<title>obs_by</title>
<polygon fill="none" stroke="black" points="66.25,-258.33 0,-258.33 0,-222.33 66.25,-222.33 66.25,-258.33"/>
<text xml:space="preserve" text-anchor="middle" x="33.12" y="-235.28" font-family="Times,serif" font-size="14.00">obsoletes</text>
</g>
<!-- obs_by&#45;&gt;RFC0217 -->
<g id="edge1" class="edge">
<title>obs_by&#45;&gt;RFC0217</title>
<path fill="none" stroke="black" d="M66.71,-231.17C78.05,-227.98 91.53,-224.19 105.78,-220.18"/>
<polygon fill="black" stroke="black" points="106.66,-223.57 115.34,-217.49 104.77,-216.83 106.66,-223.57"/>
</g>
<!-- RFC0074 -->
<g id="node5" class="node">
<title>RFC0074</title>
<g id="a_node5"><a xlink:href="RFC0074.html" xlink:title="None" target="_top">
<ellipse fill="none" stroke="black" cx="653.51" cy="-320.33" rx="157.68" ry="52.33"/>
<text xml:space="preserve" text-anchor="middle" x="653.51" y="-340.03" font-family="Times,serif" font-size="14.00">RFC0074</text>
<text xml:space="preserve" text-anchor="middle" x="653.51" y="-323.53" font-family="Times,serif" font-size="14.00">Specifications for Network Use of the</text>
<text xml:space="preserve" text-anchor="middle" x="653.51" y="-307.03" font-family="Times,serif" font-size="14.00">UCSB On&#45;Line System</text>
<text xml:space="preserve" text-anchor="middle" x="653.51" y="-290.53" font-family="Times,serif" font-size="14.00">1970</text>
</a>
</g>
</g>
<!-- updates&#45;&gt;RFC0074 -->
<g id="edge4" class="edge">
<title>updates&#45;&gt;RFC0074</title>
<path fill="none" stroke="black" d="M446.05,-204.54C449.03,-207.32 451.89,-210.28 454.38,-213.33 469.1,-231.35 461.67,-244.23 479.38,-259.33 490.7,-268.97 503.65,-277.13 517.25,-284.02"/>
<polygon fill="black" stroke="black" points="515.36,-287 525.89,-288.16 518.39,-280.69 515.36,-287"/>
</g>
<!-- RFC0105 -->
<g id="node6" class="node">
<title>RFC0105</title>
<g id="a_node6"><a xlink:href="RFC0105.html" xlink:title="None" target="_top">
<ellipse fill="none" stroke="black" cx="653.51" cy="-186.33" rx="174.13" ry="63.99"/>
<text xml:space="preserve" text-anchor="middle" x="653.51" y="-214.28" font-family="Times,serif" font-size="14.00">RFC0105</text>
<text xml:space="preserve" text-anchor="middle" x="653.51" y="-197.78" font-family="Times,serif" font-size="14.00">Network Specifications for Remote Job</text>
<text xml:space="preserve" text-anchor="middle" x="653.51" y="-181.28" font-family="Times,serif" font-size="14.00">Entry and Remote Job Output Retrieval at</text>
<text xml:space="preserve" text-anchor="middle" x="653.51" y="-164.78" font-family="Times,serif" font-size="14.00">UCSB</text>
<text xml:space="preserve" text-anchor="middle" x="653.51" y="-148.28" font-family="Times,serif" font-size="14.00">1971</text>
</a>
</g>
</g>
<!-- updates&#45;&gt;RFC0105 -->
<g id="edge5" class="edge">
<title>updates&#45;&gt;RFC0105</title>
<path fill="none" stroke="black" d="M450.03,-186.33C455.39,-186.33 461.37,-186.33 467.81,-186.33"/>
<polygon fill="black" stroke="black" points="467.56,-189.83 477.56,-186.33 467.56,-182.83 467.56,-189.83"/>
</g>
<!-- RFC0122 -->
<g id="node7" class="node">
<title>RFC0122</title>
<g id="a_node7"><a xlink:href="RFC0122.html" xlink:title="None" target="_top">
<ellipse fill="none" stroke="black" cx="653.51" cy="-52.33" rx="146.55" ry="52.33"/>
<text xml:space="preserve" text-anchor="middle" x="653.51" y="-72.03" font-family="Times,serif" font-size="14.00">RFC0122</text>
<text xml:space="preserve" text-anchor="middle" x="653.51" y="-55.53" font-family="Times,serif" font-size="14.00">Network specifications for UCSB&#39;s</text>
<text xml:space="preserve" text-anchor="middle" x="653.51" y="-39.03" font-family="Times,serif" font-size="14.00">Simple&#45;Minded File System</text>
<text xml:space="preserve" text-anchor="middle" x="653.51" y="-22.53" font-family="Times,serif" font-size="14.00">1971</text>
</a>
</g>
</g>
<!-- updates&#45;&gt;RFC0122 -->
<g id="edge6" class="edge">
<title>updates&#45;&gt;RFC0122</title>
<path fill="none" stroke="black" d="M446.05,-168.11C449.03,-165.34 451.89,-162.37 454.38,-159.33 469.1,-141.3 461.67,-128.42 479.38,-113.33 491.92,-102.64 506.44,-93.79 521.65,-86.46"/>
<polygon fill="black" stroke="black" points="522.71,-89.82 530.35,-82.48 519.8,-83.45 522.71,-89.82"/>
</g>
<!-- updated_by -->
<g id="node8" class="node">
<title>updated_by</title>
<polygon fill="none" stroke="black" points="61.75,-204.33 4.5,-204.33 4.5,-168.33 61.75,-168.33 61.75,-204.33"/>
<text xml:space="preserve" text-anchor="middle" x="33.12" y="-181.28" font-family="Times,serif" font-size="14.00">updates</text>
</g>
<!-- updated_by&#45;&gt;RFC0217 -->
<g id="edge7" class="edge">
<title>updated_by&#45;&gt;RFC0217</title>
<path fill="none" stroke="black" d="M62.05,-186.33C67.45,-186.33 73.44,-186.33 79.85,-186.33"/>
<polygon fill="black" stroke="black" points="79.48,-189.83 89.48,-186.33 79.48,-182.83 79.48,-189.83"/>
</g>
<!-- rev_cites -->
<g id="node10" class="node">
<title>rev_cites</title>
<polygon fill="none" stroke="black" points="60.12,-150.33 6.12,-150.33 6.12,-114.33 60.12,-114.33 60.12,-150.33"/>
<text xml:space="preserve" text-anchor="middle" x="33.12" y="-127.28" font-family="Times,serif" font-size="14.00">cites</text>
</g>
<!-- rev_cites&#45;&gt;RFC0217 -->
<g id="edge9" class="edge">
<title>rev_cites&#45;&gt;RFC0217</title>
<path fill="none" stroke="black" d="M60.43,-139.72C72.94,-143.24 88.87,-147.72 105.88,-152.5"/>
<polygon fill="black" stroke="black" points="104.57,-155.77 115.14,-155.1 106.46,-149.03 104.57,-155.77"/>
</g>
</g>
</svg>
