<?xml version="1.0" encoding="UTF-8" standalone="no"?>
<!DOCTYPE svg PUBLIC "-//W3C//DTD SVG 1.1//EN"
 "http://www.w3.org/Graphics/SVG/1.1/DTD/svg11.dtd">
<!-- Generated by graphviz version 14.1.1 (20251213.1925)
 -->
<!-- Title: Flow Pages: 1 -->
<svg width="908pt" height="198pt"
 viewBox="0.00 0.00 908.00 198.00" xmlns="http://www.w3.org/2000/svg" xmlns:xlink="http://www.w3.org/1999/xlink">
<g id="graph0" class="graph" transform="scale(1 1) rotate(0) translate(4 193.99)">
<title>Flow</title>
<polygon fill="white" stroke="none" points="-4,4 -4,-193.99 903.76,-193.99 903.76,4 -4,4"/>
<!-- RFC0721 -->
<g id="node1" class="node">
<title>RFC0721</title>
<g id="a_node1"><a xlink:title="None">
<ellipse fill="green" stroke="black" cx="644.99" cy="-72" rx="163.52" ry="52.33"/>
<text xml:space="preserve" text-anchor="middle" x="644.99" y="-91.7" font-family="Times,serif" font-size="14.00">RFC0721</text>
<text xml:space="preserve" text-anchor="middle" x="644.99" y="-75.2" font-family="Times,serif" font-size="14.00">Out&#45;of&#45;Band Control Signals in a Host&#45;</text>
<text xml:space="preserve" text-anchor="middle" x="644.99" y="-58.7" font-family="Times,serif" font-size="14.00">to&#45;Host Protocol</text>
<text xml:space="preserve" text-anchor="middle" x="644.99" y="-42.2" font-family="Times,serif" font-size="14.00">1976</text>
</a>
</g>
</g>
<!-- obs -->
<g id="node4" class="node">
<title>obs</title>
<polygon fill="lightblue" stroke="black" points="899.76,-144 833.51,-144 833.51,-108 899.76,-108 899.76,-144"/>
<text xml:space="preserve" text-anchor="middle" x="866.63" y="-120.95" font-family="Times,serif" font-size="14.00">obsoletes</text>
</g>
<!-- RFC0721&#45;&gt;obs -->
<g id="edge3" class="edge">
<title>RFC0721&#45;&gt;obs</title>
<path fill="none" stroke="black" d="M775.66,-103.88C792.35,-107.98 808.41,-111.93 822.22,-115.33"/>
<polygon fill="black" stroke="black" points="821.24,-118.69 831.79,-117.68 822.91,-111.89 821.24,-118.69"/>
</g>
<!-- updates -->
<g id="node5" class="node">
<title>updates</title>
<polygon fill="lightyellow" stroke="black" points="895.26,-90 838.01,-90 838.01,-54 895.26,-54 895.26,-90"/>
<text xml:space="preserve" text-anchor="middle" x="866.63" y="-66.95" font-family="Times,serif" font-size="14.00">updates</text>
</g>
<!-- RFC0721&#45;&gt;updates -->
<g id="edge4" class="edge">
<title>RFC0721&#45;&gt;updates</title>
<path fill="none" stroke="black" d="M808.78,-72C814.95,-72 820.82,-72 826.29,-72"/>
<polygon fill="black" stroke="black" points="826.05,-75.5 836.05,-72 826.05,-68.5 826.05,-75.5"/>
</g>
<!-- cites -->
<g id="node7" class="node">
<title>cites</title>
<polygon fill="lightblue" stroke="black" points="893.63,-36 839.63,-36 839.63,0 893.63,0 893.63,-36"/>
<text xml:space="preserve" text-anchor="middle" x="866.63" y="-12.95" font-family="Times,serif" font-size="14.00">cites</text>
</g>
<!-- RFC0721&#45;&gt;cites -->
<g id="edge6" class="edge">
<title>RFC0721&#45;&gt;cites</title>
<path fill="none" stroke="black" d="M775.66,-40.12C794.9,-35.39 813.31,-30.86 828.4,-27.15"/>
<polygon fill="black" stroke="black" points="828.91,-30.63 837.78,-24.85 827.23,-23.84 828.91,-30.63"/>
</g>
<!-- obs_by -->
<g id="node2" class="node">
<title>obs_by</title>
<polygon fill="lightblue" stroke="black" points="456.47,-144 390.22,-144 390.22,-108 456.47,-108 456.47,-144"/>
<text xml:space="preserve" text-anchor="middle" x="423.35" y="-120.95" font-family="Times,serif" font-size="14.00">obsoletes</text>
</g>
<!-- obs_by&#45;&gt;RFC0721 -->
<g id="edge1" class="edge">
<title>obs_by&#45;&gt;RFC0721</title>
<path fill="none" stroke="black" d="M456.75,-118.03C470,-114.78 486.29,-110.77 503.7,-106.49"/>
<polygon fill="black" stroke="black" points="504.32,-109.94 513.19,-104.16 502.65,-103.15 504.32,-109.94"/>
</g>
<!-- RFC7805 -->
<g id="node3" class="node">
<title>RFC7805</title>
<g id="a_node3"><a xlink:href="RFC7805.html" xlink:title="This document reclassifies several TCP extensions and TCP&#45;related documents that either have been superseded, have never seen widespread use, or are no longer recommended for use to Historic status. &#160;The affected documents are RFCs 675, 721, 761, 813, 816, 879, 896, 1078, and 6013. &#160;Additionally, this document reclassifies RFCs 700, 794, 814, 817, 872, 889, 964, and 1071 to Informational status." target="_top">
<ellipse fill="none" stroke="black" cx="182.61" cy="-126" rx="182.61" ry="63.99"/>
<text xml:space="preserve" text-anchor="middle" x="182.61" y="-153.95" font-family="Times,serif" font-size="14.00">RFC7805</text>
<text xml:space="preserve" text-anchor="middle" x="182.61" y="-137.45" font-family="Times,serif" font-size="14.00">Moving Outdated TCP Extensions and TCP&#45;</text>
<text xml:space="preserve" text-anchor="middle" x="182.61" y="-120.95" font-family="Times,serif" font-size="14.00">Related Documents to Historic or</text>
<text xml:space="preserve" text-anchor="middle" x="182.61" y="-104.45" font-family="Times,serif" font-size="14.00">Informational Status</text>
<text xml:space="preserve" text-anchor="middle" x="182.61" y="-87.95" font-family="Times,serif" font-size="14.00">2016</text>
</a>
</g>
</g>
<!-- RFC7805&#45;&gt;obs_by -->
<g id="edge2" class="edge">
<title>RFC7805&#45;&gt;obs_by</title>
<path fill="none" stroke="black" d="M365.47,-126C370.03,-126 374.42,-126 378.6,-126"/>
<polygon fill="black" stroke="black" points="378.29,-129.5 388.29,-126 378.29,-122.5 378.29,-129.5"/>
</g>
<!-- updated_by -->
<g id="node6" class="node">
<title>updated_by</title>
<polygon fill="lightyellow" stroke="black" points="451.97,-90 394.72,-90 394.72,-54 451.97,-54 451.97,-90"/>
<text xml:space="preserve" text-anchor="middle" x="423.35" y="-66.95" font-family="Times,serif" font-size="14.00">updates</text>
</g>
<!-- updated_by&#45;&gt;RFC0721 -->
<g id="edge5" class="edge">
<title>updated_by&#45;&gt;RFC0721</title>
<path fill="none" stroke="black" d="M452.16,-72C457.56,-72 463.57,-72 470.04,-72"/>
<polygon fill="black" stroke="black" points="469.82,-75.5 479.82,-72 469.82,-68.5 469.82,-75.5"/>
</g>
<!-- rev_cites -->
<g id="node8" class="node">
<title>rev_cites</title>
<polygon fill="lightblue" stroke="black" points="450.35,-36 396.35,-36 396.35,0 450.35,0 450.35,-36"/>
<text xml:space="preserve" text-anchor="middle" x="423.35" y="-12.95" font-family="Times,serif" font-size="14.00">cites</text>
</g>
<!-- rev_cites&#45;&gt;RFC0721 -->
<g id="edge7" class="edge">
<title>rev_cites&#45;&gt;RFC0721</title>
<path fill="none" stroke="black" d="M450.84,-24.51C464.96,-27.99 483.54,-32.55 503.6,-37.48"/>
<polygon fill="black" stroke="black" points="502.52,-40.82 513.07,-39.81 504.19,-34.03 502.52,-40.82"/>
</g>
</g>
</svg>
