<?xml version="1.0" encoding="UTF-8" standalone="no"?>
<!DOCTYPE svg PUBLIC "-//W3C//DTD SVG 1.1//EN"
 "http://www.w3.org/Graphics/SVG/1.1/DTD/svg11.dtd">
<!-- Generated by graphviz version 14.1.1 (20251213.1925)
 -->
<!-- Title: Flow Pages: 1 -->
<svg width="531pt" height="152pt"
 viewBox="0.00 0.00 531.00 152.00" xmlns="http://www.w3.org/2000/svg" xmlns:xlink="http://www.w3.org/1999/xlink">
<g id="graph0" class="graph" transform="scale(1 1) rotate(0) translate(4 148)">
<title>Flow</title>
<polygon fill="white" stroke="none" points="-4,4 -4,-148 527.33,-148 527.33,4 -4,4"/>
<!-- RFC0463 -->
<g id="node1" class="node">
<title>RFC0463</title>
<g id="a_node1"><a xlink:title="None">
<ellipse fill="green" stroke="black" cx="261.66" cy="-72" rx="170.41" ry="40.66"/>
<text xml:space="preserve" text-anchor="middle" x="261.66" y="-83.45" font-family="Times,serif" font-size="14.00">RFC0463</text>
<text xml:space="preserve" text-anchor="middle" x="261.66" y="-66.95" font-family="Times,serif" font-size="14.00">FTP comments and response to RFC 430</text>
<text xml:space="preserve" text-anchor="middle" x="261.66" y="-50.45" font-family="Times,serif" font-size="14.00">1973</text>
</a>
</g>
</g>
<!-- obs -->
<g id="node3" class="node">
<title>obs</title>
<polygon fill="lightblue" stroke="black" points="523.33,-144 457.08,-144 457.08,-108 523.33,-108 523.33,-144"/>
<text xml:space="preserve" text-anchor="middle" x="490.2" y="-120.95" font-family="Times,serif" font-size="14.00">obsoletes</text>
</g>
<!-- RFC0463&#45;&gt;obs -->
<g id="edge2" class="edge">
<title>RFC0463&#45;&gt;obs</title>
<path fill="none" stroke="black" d="M383.56,-100.82C405.8,-106.12 427.66,-111.33 445.66,-115.62"/>
<polygon fill="black" stroke="black" points="444.61,-118.97 455.15,-117.88 446.23,-112.16 444.61,-118.97"/>
</g>
<!-- updates -->
<g id="node4" class="node">
<title>updates</title>
<polygon fill="lightyellow" stroke="black" points="518.83,-90 461.58,-90 461.58,-54 518.83,-54 518.83,-90"/>
<text xml:space="preserve" text-anchor="middle" x="490.2" y="-66.95" font-family="Times,serif" font-size="14.00">updates</text>
</g>
<!-- RFC0463&#45;&gt;updates -->
<g id="edge3" class="edge">
<title>RFC0463&#45;&gt;updates</title>
<path fill="none" stroke="black" d="M432.33,-72C438.52,-72 444.4,-72 449.88,-72"/>
<polygon fill="black" stroke="black" points="449.66,-75.5 459.66,-72 449.66,-68.5 449.66,-75.5"/>
</g>
<!-- cites -->
<g id="node6" class="node">
<title>cites</title>
<polygon fill="lightblue" stroke="black" points="517.2,-36 463.2,-36 463.2,0 517.2,0 517.2,-36"/>
<text xml:space="preserve" text-anchor="middle" x="490.2" y="-12.95" font-family="Times,serif" font-size="14.00">cites</text>
</g>
<!-- RFC0463&#45;&gt;cites -->
<g id="edge5" class="edge">
<title>RFC0463&#45;&gt;cites</title>
<path fill="none" stroke="black" d="M383.56,-43.18C408.36,-37.27 432.66,-31.48 451.7,-26.94"/>
<polygon fill="black" stroke="black" points="452.44,-30.36 461.35,-24.64 450.81,-23.55 452.44,-30.36"/>
</g>
<!-- obs_by -->
<g id="node2" class="node">
<title>obs_by</title>
<polygon fill="lightblue" stroke="black" points="66.25,-144 0,-144 0,-108 66.25,-108 66.25,-144"/>
<text xml:space="preserve" text-anchor="middle" x="33.12" y="-120.95" font-family="Times,serif" font-size="14.00">obsoletes</text>
</g>
<!-- obs_by&#45;&gt;RFC0463 -->
<g id="edge1" class="edge">
<title>obs_by&#45;&gt;RFC0463</title>
<path fill="none" stroke="black" d="M66.58,-118.26C83.59,-114.21 105.66,-108.95 128.8,-103.43"/>
<polygon fill="black" stroke="black" points="129.47,-106.87 138.38,-101.15 127.85,-100.06 129.47,-106.87"/>
</g>
<!-- updated_by -->
<g id="node5" class="node">
<title>updated_by</title>
<polygon fill="lightyellow" stroke="black" points="61.75,-90 4.5,-90 4.5,-54 61.75,-54 61.75,-90"/>
<text xml:space="preserve" text-anchor="middle" x="33.12" y="-66.95" font-family="Times,serif" font-size="14.00">updates</text>
</g>
<!-- updated_by&#45;&gt;RFC0463 -->
<g id="edge4" class="edge">
<title>updated_by&#45;&gt;RFC0463</title>
<path fill="none" stroke="black" d="M61.9,-72C67.28,-72 73.26,-72 79.71,-72"/>
<polygon fill="black" stroke="black" points="79.47,-75.5 89.47,-72 79.47,-68.5 79.47,-75.5"/>
</g>
<!-- rev_cites -->
<g id="node7" class="node">
<title>rev_cites</title>
<polygon fill="lightblue" stroke="black" points="60.12,-36 6.12,-36 6.12,0 60.12,0 60.12,-36"/>
<text xml:space="preserve" text-anchor="middle" x="33.12" y="-12.95" font-family="Times,serif" font-size="14.00">cites</text>
</g>
<!-- rev_cites&#45;&gt;RFC0463 -->
<g id="edge6" class="edge">
<title>rev_cites&#45;&gt;RFC0463</title>
<path fill="none" stroke="black" d="M60.56,-24.3C78.17,-28.5 102.79,-34.37 128.76,-40.56"/>
<polygon fill="black" stroke="black" points="127.94,-43.96 138.48,-42.87 129.56,-37.15 127.94,-43.96"/>
</g>
</g>
</svg>
