<?xml version="1.0" encoding="UTF-8" standalone="no"?>
<!DOCTYPE svg PUBLIC "-//W3C//DTD SVG 1.1//EN"
 "http://www.w3.org/Graphics/SVG/1.1/DTD/svg11.dtd">
<!-- Generated by graphviz version 14.1.1 (20251213.1925)
 -->
<!-- Title: Flow Pages: 1 -->
<svg width="763pt" height="839pt"
 viewBox="0.00 0.00 763.00 839.00" xmlns="http://www.w3.org/2000/svg" xmlns:xlink="http://www.w3.org/1999/xlink">
<g id="graph0" class="graph" transform="scale(1 1) rotate(0) translate(4 834.74)">
<title>Flow</title>
<polygon fill="white" stroke="none" points="-4,4 -4,-834.74 758.51,-834.74 758.51,4 -4,4"/>
<!-- RFC0096 -->
<g id="node1" class="node">
<title>RFC0096</title>
<g id="a_node1"><a xlink:title="None">
<ellipse fill="green" stroke="black" stroke-width="3" cx="377.26" cy="-415.37" rx="210.19" ry="79.9"/>
<text xml:space="preserve" text-anchor="middle" x="377.26" y="-450.77" font-family="Times,serif" font-size="18.00">RFC0096</text>
<text xml:space="preserve" text-anchor="middle" x="377.26" y="-429.77" font-family="Times,serif" font-size="18.00">An Interactive Network Experiment to</text>
<text xml:space="preserve" text-anchor="middle" x="377.26" y="-408.77" font-family="Times,serif" font-size="18.00">Study Modes of Access the Network</text>
<text xml:space="preserve" text-anchor="middle" x="377.26" y="-387.77" font-family="Times,serif" font-size="18.00">Information Center</text>
<text xml:space="preserve" text-anchor="middle" x="377.26" y="-366.77" font-family="Times,serif" font-size="18.00">1971</text>
</a>
</g>
</g>
<!-- obs -->
<g id="node3" class="node">
<title>obs</title>
<polygon fill="lightblue" stroke="black" points="754.51,-632.05 688.26,-632.05 688.26,-596.05 754.51,-596.05 754.51,-632.05"/>
<text xml:space="preserve" text-anchor="middle" x="721.39" y="-609" font-family="Times,serif" font-size="14.00">obsoletes</text>
</g>
<!-- RFC0096&#45;&gt;obs -->
<g id="edge2" class="edge">
<title>RFC0096&#45;&gt;obs</title>
<path fill="none" stroke="black" d="M494.24,-482.91C558.37,-519.93 633.91,-563.55 679.69,-589.98"/>
<polygon fill="black" stroke="black" points="677.83,-592.95 688.24,-594.91 681.33,-586.88 677.83,-592.95"/>
</g>
<!-- updates -->
<g id="node4" class="node">
<title>updates</title>
<polygon fill="lightyellow" stroke="black" points="405.88,-830.74 348.63,-830.74 348.63,-794.74 405.88,-794.74 405.88,-830.74"/>
<text xml:space="preserve" text-anchor="middle" x="377.26" y="-807.69" font-family="Times,serif" font-size="14.00">updates</text>
</g>
<!-- RFC0096&#45;&gt;updates -->
<g id="edge3" class="edge">
<title>RFC0096&#45;&gt;updates</title>
<path fill="none" stroke="black" d="M377.26,-496.74C377.26,-585.53 377.26,-723.03 377.26,-783.03"/>
<polygon fill="black" stroke="black" points="373.76,-782.78 377.26,-792.78 380.76,-782.78 373.76,-782.78"/>
</g>
<!-- cites -->
<g id="node6" class="node">
<title>cites</title>
<polygon fill="lightblue" stroke="black" points="60.13,-632.05 6.13,-632.05 6.13,-596.05 60.13,-596.05 60.13,-632.05"/>
<text xml:space="preserve" text-anchor="middle" x="33.13" y="-609" font-family="Times,serif" font-size="14.00">cites</text>
</g>
<!-- RFC0096&#45;&gt;cites -->
<g id="edge5" class="edge">
<title>RFC0096&#45;&gt;cites</title>
<path fill="none" stroke="black" d="M260.27,-482.91C194.11,-521.11 115.8,-566.32 70.55,-592.44"/>
<polygon fill="black" stroke="black" points="68.83,-589.4 61.92,-597.43 72.33,-595.46 68.83,-589.4"/>
</g>
<!-- obs_by -->
<g id="node2" class="node">
<title>obs_by</title>
<polygon fill="lightblue" stroke="black" points="66.25,-234.68 0,-234.68 0,-198.68 66.25,-198.68 66.25,-234.68"/>
<text xml:space="preserve" text-anchor="middle" x="33.13" y="-211.63" font-family="Times,serif" font-size="14.00">obsoletes</text>
</g>
<!-- obs_by&#45;&gt;RFC0096 -->
<g id="edge1" class="edge">
<title>obs_by&#45;&gt;RFC0096</title>
<path fill="none" stroke="black" d="M64.88,-235.02C106.91,-259.28 183.49,-303.5 250.31,-342.07"/>
<polygon fill="black" stroke="black" points="248.37,-345 258.78,-346.96 251.87,-338.93 248.37,-345"/>
</g>
<!-- updated_by -->
<g id="node5" class="node">
<title>updated_by</title>
<polygon fill="lightyellow" stroke="black" points="405.88,-36 348.63,-36 348.63,0 405.88,0 405.88,-36"/>
<text xml:space="preserve" text-anchor="middle" x="377.26" y="-12.95" font-family="Times,serif" font-size="14.00">updates</text>
</g>
<!-- updated_by&#45;&gt;RFC0096 -->
<g id="edge4" class="edge">
<title>updated_by&#45;&gt;RFC0096</title>
<path fill="none" stroke="black" d="M377.26,-36.37C377.26,-86.39 377.26,-227.62 377.26,-322.82"/>
<polygon fill="black" stroke="black" points="373.76,-322.68 377.26,-332.68 380.76,-322.68 373.76,-322.68"/>
</g>
<!-- rev_cites -->
<g id="node7" class="node">
<title>rev_cites</title>
<polygon fill="lightblue" stroke="black" points="748.39,-234.68 694.39,-234.68 694.39,-198.68 748.39,-198.68 748.39,-234.68"/>
<text xml:space="preserve" text-anchor="middle" x="721.39" y="-211.63" font-family="Times,serif" font-size="14.00">cites</text>
</g>
<!-- rev_cites&#45;&gt;RFC0096 -->
<g id="edge6" class="edge">
<title>rev_cites&#45;&gt;RFC0096</title>
<path fill="none" stroke="black" d="M694.1,-232.44C653.18,-256.06 573.33,-302.17 504.03,-342.18"/>
<polygon fill="black" stroke="black" points="502.54,-338.99 495.63,-347.02 506.04,-345.05 502.54,-338.99"/>
</g>
</g>
</svg>
