<?xml version="1.0" encoding="UTF-8" standalone="no"?>
<!DOCTYPE svg PUBLIC "-//W3C//DTD SVG 1.1//EN"
 "http://www.w3.org/Graphics/SVG/1.1/DTD/svg11.dtd">
<!-- Generated by graphviz version 14.1.1 (20251213.1925)
 -->
<!-- Title: Flow Pages: 1 -->
<svg width="583pt" height="631pt"
 viewBox="0.00 0.00 583.00 631.00" xmlns="http://www.w3.org/2000/svg" xmlns:xlink="http://www.w3.org/1999/xlink">
<g id="graph0" class="graph" transform="scale(1 1) rotate(0) translate(4 627.2)">
<title>Flow</title>
<polygon fill="white" stroke="none" points="-4,4 -4,-627.2 578.78,-627.2 578.78,4 -4,4"/>
<!-- RFC0866 -->
<g id="node1" class="node">
<title>RFC0866</title>
<g id="a_node1"><a xlink:title="This RFC specifies a standard for the ARPA Internet community. &#160;Hosts on the ARPA Internet that choose to implement an Active Users Protocol are expected to adopt and implement this standard. &#160;The Active Users service simply sends a list of the currently active users on the host without regard to the input.">
<ellipse fill="green" stroke="black" stroke-width="3" cx="287.39" cy="-311.6" rx="74.95" ry="50.2"/>
<text xml:space="preserve" text-anchor="middle" x="287.39" y="-326" font-family="Times,serif" font-size="18.00">RFC0866</text>
<text xml:space="preserve" text-anchor="middle" x="287.39" y="-305" font-family="Times,serif" font-size="18.00">Active users</text>
<text xml:space="preserve" text-anchor="middle" x="287.39" y="-284" font-family="Times,serif" font-size="18.00">1983</text>
</a>
</g>
</g>
<!-- obs -->
<g id="node3" class="node">
<title>obs</title>
<polygon fill="lightblue" stroke="black" points="574.78,-476.4 508.53,-476.4 508.53,-440.4 574.78,-440.4 574.78,-476.4"/>
<text xml:space="preserve" text-anchor="middle" x="541.66" y="-453.35" font-family="Times,serif" font-size="14.00">obsoletes</text>
</g>
<!-- RFC0866&#45;&gt;obs -->
<g id="edge2" class="edge">
<title>RFC0866&#45;&gt;obs</title>
<path fill="none" stroke="black" d="M345.4,-345.09C392.53,-372.3 457.85,-410.01 499.93,-434.31"/>
<polygon fill="black" stroke="black" points="498.13,-437.31 508.54,-439.28 501.63,-431.25 498.13,-437.31"/>
</g>
<!-- updates -->
<g id="node4" class="node">
<title>updates</title>
<polygon fill="lightyellow" stroke="black" points="316.02,-623.2 258.77,-623.2 258.77,-587.2 316.02,-587.2 316.02,-623.2"/>
<text xml:space="preserve" text-anchor="middle" x="287.39" y="-600.15" font-family="Times,serif" font-size="14.00">updates</text>
</g>
<!-- RFC0866&#45;&gt;updates -->
<g id="edge3" class="edge">
<title>RFC0866&#45;&gt;updates</title>
<path fill="none" stroke="black" d="M287.39,-363.08C287.39,-424.76 287.39,-526.01 287.39,-575.75"/>
<polygon fill="black" stroke="black" points="283.89,-575.44 287.39,-585.44 290.89,-575.44 283.89,-575.44"/>
</g>
<!-- cites -->
<g id="node6" class="node">
<title>cites</title>
<polygon fill="lightblue" stroke="black" points="60.13,-476.4 6.13,-476.4 6.13,-440.4 60.13,-440.4 60.13,-476.4"/>
<text xml:space="preserve" text-anchor="middle" x="33.13" y="-453.35" font-family="Times,serif" font-size="14.00">cites</text>
</g>
<!-- RFC0866&#45;&gt;cites -->
<g id="edge5" class="edge">
<title>RFC0866&#45;&gt;cites</title>
<path fill="none" stroke="black" d="M229.38,-345.09C180.49,-373.32 112.03,-412.85 70.23,-436.98"/>
<polygon fill="black" stroke="black" points="68.68,-433.83 61.77,-441.86 72.18,-439.89 68.68,-433.83"/>
</g>
<!-- obs_by -->
<g id="node2" class="node">
<title>obs_by</title>
<polygon fill="lightblue" stroke="black" points="66.25,-182.8 0,-182.8 0,-146.8 66.25,-146.8 66.25,-182.8"/>
<text xml:space="preserve" text-anchor="middle" x="33.13" y="-159.75" font-family="Times,serif" font-size="14.00">obsoletes</text>
</g>
<!-- obs_by&#45;&gt;RFC0866 -->
<g id="edge1" class="edge">
<title>obs_by&#45;&gt;RFC0866</title>
<path fill="none" stroke="black" d="M65.07,-183.24C103.71,-205.55 169.79,-243.71 219.9,-272.63"/>
<polygon fill="black" stroke="black" points="217.97,-275.56 228.38,-277.53 221.47,-269.5 217.97,-275.56"/>
</g>
<!-- updated_by -->
<g id="node5" class="node">
<title>updated_by</title>
<polygon fill="lightyellow" stroke="black" points="316.02,-36 258.77,-36 258.77,0 316.02,0 316.02,-36"/>
<text xml:space="preserve" text-anchor="middle" x="287.39" y="-12.95" font-family="Times,serif" font-size="14.00">updates</text>
</g>
<!-- updated_by&#45;&gt;RFC0866 -->
<g id="edge4" class="edge">
<title>updated_by&#45;&gt;RFC0866</title>
<path fill="none" stroke="black" d="M287.39,-36.37C287.39,-78.02 287.39,-181.28 287.39,-248.8"/>
<polygon fill="black" stroke="black" points="283.89,-248.63 287.39,-258.63 290.89,-248.63 283.89,-248.63"/>
</g>
<!-- rev_cites -->
<g id="node7" class="node">
<title>rev_cites</title>
<polygon fill="lightblue" stroke="black" points="568.66,-182.8 514.66,-182.8 514.66,-146.8 568.66,-146.8 568.66,-182.8"/>
<text xml:space="preserve" text-anchor="middle" x="541.66" y="-159.75" font-family="Times,serif" font-size="14.00">cites</text>
</g>
<!-- rev_cites&#45;&gt;RFC0866 -->
<g id="edge6" class="edge">
<title>rev_cites&#45;&gt;RFC0866</title>
<path fill="none" stroke="black" d="M514.44,-180.51C476.77,-202.26 407.48,-242.27 355.31,-272.38"/>
<polygon fill="black" stroke="black" points="353.68,-269.29 346.77,-277.32 357.18,-275.35 353.68,-269.29"/>
</g>
</g>
</svg>
