<?xml version="1.0" encoding="UTF-8" standalone="no"?>
<!DOCTYPE svg PUBLIC "-//W3C//DTD SVG 1.1//EN"
 "http://www.w3.org/Graphics/SVG/1.1/DTD/svg11.dtd">
<!-- Generated by graphviz version 14.1.1 (20251213.1925)
 -->
<!-- Title: Flow Pages: 1 -->
<svg width="803pt" height="152pt"
 viewBox="0.00 0.00 803.00 152.00" xmlns="http://www.w3.org/2000/svg" xmlns:xlink="http://www.w3.org/1999/xlink">
<g id="graph0" class="graph" transform="scale(1 1) rotate(0) translate(4 148)">
<title>Flow</title>
<polygon fill="white" stroke="none" points="-4,4 -4,-148 798.75,-148 798.75,4 -4,4"/>
<!-- RFC0110 -->
<g id="node1" class="node">
<title>RFC0110</title>
<g id="a_node1"><a xlink:title="None">
<ellipse fill="green" stroke="black" cx="531.5" cy="-72" rx="172" ry="63.99"/>
<text xml:space="preserve" text-anchor="middle" x="531.5" y="-99.95" font-family="Times,serif" font-size="14.00">RFC0110</text>
<text xml:space="preserve" text-anchor="middle" x="531.5" y="-83.45" font-family="Times,serif" font-size="14.00">Conventions for Using an IBM 2741</text>
<text xml:space="preserve" text-anchor="middle" x="531.5" y="-66.95" font-family="Times,serif" font-size="14.00">Terminal as a User Console for Access to</text>
<text xml:space="preserve" text-anchor="middle" x="531.5" y="-50.45" font-family="Times,serif" font-size="14.00">Network Server Hosts</text>
<text xml:space="preserve" text-anchor="middle" x="531.5" y="-33.95" font-family="Times,serif" font-size="14.00">1971</text>
</a>
</g>
</g>
<!-- obs -->
<g id="node3" class="node">
<title>obs</title>
<polygon fill="lightblue" stroke="black" points="794.75,-144 728.5,-144 728.5,-108 794.75,-108 794.75,-144"/>
<text xml:space="preserve" text-anchor="middle" x="761.63" y="-120.95" font-family="Times,serif" font-size="14.00">obsoletes</text>
</g>
<!-- RFC0110&#45;&gt;obs -->
<g id="edge2" class="edge">
<title>RFC0110&#45;&gt;obs</title>
<path fill="none" stroke="black" d="M677.3,-106.28C691.73,-109.69 705.45,-112.94 717.44,-115.78"/>
<polygon fill="black" stroke="black" points="716.36,-119.12 726.9,-118.02 717.97,-112.31 716.36,-119.12"/>
</g>
<!-- updates -->
<g id="node4" class="node">
<title>updates</title>
<polygon fill="lightyellow" stroke="black" points="790.25,-90 733,-90 733,-54 790.25,-54 790.25,-90"/>
<text xml:space="preserve" text-anchor="middle" x="761.63" y="-66.95" font-family="Times,serif" font-size="14.00">updates</text>
</g>
<!-- RFC0110&#45;&gt;updates -->
<g id="edge3" class="edge">
<title>RFC0110&#45;&gt;updates</title>
<path fill="none" stroke="black" d="M703.94,-72C710.12,-72 715.99,-72 721.45,-72"/>
<polygon fill="black" stroke="black" points="721.2,-75.5 731.2,-72 721.2,-68.5 721.2,-75.5"/>
</g>
<!-- cites -->
<g id="node7" class="node">
<title>cites</title>
<polygon fill="lightblue" stroke="black" points="788.63,-36 734.63,-36 734.63,0 788.63,0 788.63,-36"/>
<text xml:space="preserve" text-anchor="middle" x="761.63" y="-12.95" font-family="Times,serif" font-size="14.00">cites</text>
</g>
<!-- RFC0110&#45;&gt;cites -->
<g id="edge6" class="edge">
<title>RFC0110&#45;&gt;cites</title>
<path fill="none" stroke="black" d="M677.3,-37.72C694.21,-33.72 710.14,-29.95 723.46,-26.8"/>
<polygon fill="black" stroke="black" points="724.05,-30.25 732.97,-24.55 722.44,-23.44 724.05,-30.25"/>
</g>
<!-- obs_by -->
<g id="node2" class="node">
<title>obs_by</title>
<polygon fill="lightblue" stroke="black" points="334.49,-144 268.24,-144 268.24,-108 334.49,-108 334.49,-144"/>
<text xml:space="preserve" text-anchor="middle" x="301.37" y="-120.95" font-family="Times,serif" font-size="14.00">obsoletes</text>
</g>
<!-- obs_by&#45;&gt;RFC0110 -->
<g id="edge1" class="edge">
<title>obs_by&#45;&gt;RFC0110</title>
<path fill="none" stroke="black" d="M334.57,-118.38C346.04,-115.66 359.83,-112.4 374.73,-108.87"/>
<polygon fill="black" stroke="black" points="375.36,-112.32 384.28,-106.61 373.74,-105.51 375.36,-112.32"/>
</g>
<!-- updated_by -->
<g id="node5" class="node">
<title>updated_by</title>
<polygon fill="lightyellow" stroke="black" points="329.99,-90 272.74,-90 272.74,-54 329.99,-54 329.99,-90"/>
<text xml:space="preserve" text-anchor="middle" x="301.37" y="-66.95" font-family="Times,serif" font-size="14.00">updates</text>
</g>
<!-- updated_by&#45;&gt;RFC0110 -->
<g id="edge4" class="edge">
<title>updated_by&#45;&gt;RFC0110</title>
<path fill="none" stroke="black" d="M330.34,-72C335.68,-72 341.61,-72 348.01,-72"/>
<polygon fill="black" stroke="black" points="347.65,-75.5 357.65,-72 347.65,-68.5 347.65,-75.5"/>
</g>
<!-- RFC0135 -->
<g id="node6" class="node">
<title>RFC0135</title>
<g id="a_node6"><a xlink:href="RFC0135.html" xlink:title="None" target="_top">
<ellipse fill="none" stroke="black" cx="121.62" cy="-72" rx="121.62" ry="40.66"/>
<text xml:space="preserve" text-anchor="middle" x="121.62" y="-83.45" font-family="Times,serif" font-size="14.00">RFC0135</text>
<text xml:space="preserve" text-anchor="middle" x="121.62" y="-66.95" font-family="Times,serif" font-size="14.00">Response to NWG/RFC 110</text>
<text xml:space="preserve" text-anchor="middle" x="121.62" y="-50.45" font-family="Times,serif" font-size="14.00">1971</text>
</a>
</g>
</g>
<!-- RFC0135&#45;&gt;updated_by -->
<g id="edge5" class="edge">
<title>RFC0135&#45;&gt;updated_by</title>
<path fill="none" stroke="black" d="M243.64,-72C249.75,-72 255.63,-72 261.13,-72"/>
<polygon fill="black" stroke="black" points="261.02,-75.5 271.02,-72 261.02,-68.5 261.02,-75.5"/>
</g>
<!-- rev_cites -->
<g id="node8" class="node">
<title>rev_cites</title>
<polygon fill="lightblue" stroke="black" points="328.37,-36 274.37,-36 274.37,0 328.37,0 328.37,-36"/>
<text xml:space="preserve" text-anchor="middle" x="301.37" y="-12.95" font-family="Times,serif" font-size="14.00">cites</text>
</g>
<!-- rev_cites&#45;&gt;RFC0110 -->
<g id="edge7" class="edge">
<title>rev_cites&#45;&gt;RFC0110</title>
<path fill="none" stroke="black" d="M328.54,-24.19C340.99,-27.14 356.99,-30.93 374.53,-35.08"/>
<polygon fill="black" stroke="black" points="373.62,-38.46 384.16,-37.36 375.23,-31.65 373.62,-38.46"/>
</g>
</g>
</svg>
