<?xml version="1.0" encoding="UTF-8" standalone="no"?>
<!DOCTYPE svg PUBLIC "-//W3C//DTD SVG 1.1//EN"
 "http://www.w3.org/Graphics/SVG/1.1/DTD/svg11.dtd">
<!-- Generated by graphviz version 14.1.1 (20251213.1925)
 -->
<!-- Title: Flow Pages: 1 -->
<svg width="701pt" height="768pt"
 viewBox="0.00 0.00 701.00 768.00" xmlns="http://www.w3.org/2000/svg" xmlns:xlink="http://www.w3.org/1999/xlink">
<g id="graph0" class="graph" transform="scale(1 1) rotate(0) translate(4 764)">
<title>Flow</title>
<polygon fill="white" stroke="none" points="-4,4 -4,-764 697.25,-764 697.25,4 -4,4"/>
<!-- RFC0085 -->
<g id="node1" class="node">
<title>RFC0085</title>
<g id="a_node1"><a xlink:title="None">
<ellipse fill="green" stroke="black" stroke-width="3" cx="346.63" cy="-380" rx="183.67" ry="50.2"/>
<text xml:space="preserve" text-anchor="middle" x="346.63" y="-394.4" font-family="Times,serif" font-size="18.00">RFC0085</text>
<text xml:space="preserve" text-anchor="middle" x="346.63" y="-373.4" font-family="Times,serif" font-size="18.00">Network Working Group meeting</text>
<text xml:space="preserve" text-anchor="middle" x="346.63" y="-352.4" font-family="Times,serif" font-size="18.00">1970</text>
</a>
</g>
</g>
<!-- obs -->
<g id="node3" class="node">
<title>obs</title>
<polygon fill="lightblue" stroke="black" points="693.25,-579 627,-579 627,-543 693.25,-543 693.25,-579"/>
<text xml:space="preserve" text-anchor="middle" x="660.13" y="-555.95" font-family="Times,serif" font-size="14.00">obsoletes</text>
</g>
<!-- RFC0085&#45;&gt;obs -->
<g id="edge2" class="edge">
<title>RFC0085&#45;&gt;obs</title>
<path fill="none" stroke="black" d="M426.95,-426.38C488.1,-461.68 569.78,-508.84 618.47,-536.95"/>
<polygon fill="black" stroke="black" points="616.61,-539.92 627.03,-541.89 620.11,-533.86 616.61,-539.92"/>
</g>
<!-- updates -->
<g id="node4" class="node">
<title>updates</title>
<polygon fill="lightyellow" stroke="black" points="375.25,-760 318,-760 318,-724 375.25,-724 375.25,-760"/>
<text xml:space="preserve" text-anchor="middle" x="346.63" y="-736.95" font-family="Times,serif" font-size="14.00">updates</text>
</g>
<!-- RFC0085&#45;&gt;updates -->
<g id="edge3" class="edge">
<title>RFC0085&#45;&gt;updates</title>
<path fill="none" stroke="black" d="M346.63,-431.48C346.63,-508.52 346.63,-651.31 346.63,-712.7"/>
<polygon fill="black" stroke="black" points="343.13,-712.33 346.63,-722.33 350.13,-712.33 343.13,-712.33"/>
</g>
<!-- cites -->
<g id="node6" class="node">
<title>cites</title>
<polygon fill="lightblue" stroke="black" points="60.13,-579 6.13,-579 6.13,-543 60.13,-543 60.13,-579"/>
<text xml:space="preserve" text-anchor="middle" x="33.13" y="-555.95" font-family="Times,serif" font-size="14.00">cites</text>
</g>
<!-- RFC0085&#45;&gt;cites -->
<g id="edge5" class="edge">
<title>RFC0085&#45;&gt;cites</title>
<path fill="none" stroke="black" d="M266.3,-426.38C203.26,-462.78 118.38,-511.78 70.34,-539.51"/>
<polygon fill="black" stroke="black" points="68.61,-536.47 61.7,-544.5 72.11,-542.53 68.61,-536.47"/>
</g>
<!-- obs_by -->
<g id="node2" class="node">
<title>obs_by</title>
<polygon fill="lightblue" stroke="black" points="66.25,-217 0,-217 0,-181 66.25,-181 66.25,-217"/>
<text xml:space="preserve" text-anchor="middle" x="33.13" y="-193.95" font-family="Times,serif" font-size="14.00">obsoletes</text>
</g>
<!-- obs_by&#45;&gt;RFC0085 -->
<g id="edge1" class="edge">
<title>obs_by&#45;&gt;RFC0085</title>
<path fill="none" stroke="black" d="M64.91,-217.35C109.4,-243.04 192.02,-290.74 256.32,-327.86"/>
<polygon fill="black" stroke="black" points="254.35,-330.77 264.76,-332.74 257.85,-324.7 254.35,-330.77"/>
</g>
<!-- updated_by -->
<g id="node5" class="node">
<title>updated_by</title>
<polygon fill="lightyellow" stroke="black" points="375.25,-36 318,-36 318,0 375.25,0 375.25,-36"/>
<text xml:space="preserve" text-anchor="middle" x="346.63" y="-12.95" font-family="Times,serif" font-size="14.00">updates</text>
</g>
<!-- updated_by&#45;&gt;RFC0085 -->
<g id="edge4" class="edge">
<title>updated_by&#45;&gt;RFC0085</title>
<path fill="none" stroke="black" d="M346.63,-36.45C346.63,-87.5 346.63,-232.43 346.63,-316.85"/>
<polygon fill="black" stroke="black" points="343.13,-316.83 346.63,-326.83 350.13,-316.83 343.13,-316.83"/>
</g>
<!-- rev_cites -->
<g id="node7" class="node">
<title>rev_cites</title>
<polygon fill="lightblue" stroke="black" points="687.13,-217 633.13,-217 633.13,-181 687.13,-181 687.13,-217"/>
<text xml:space="preserve" text-anchor="middle" x="660.13" y="-193.95" font-family="Times,serif" font-size="14.00">cites</text>
</g>
<!-- rev_cites&#45;&gt;RFC0085 -->
<g id="edge6" class="edge">
<title>rev_cites&#45;&gt;RFC0085</title>
<path fill="none" stroke="black" d="M632.85,-214.75C589.62,-239.71 503.43,-289.47 436.88,-327.89"/>
<polygon fill="black" stroke="black" points="435.43,-324.69 428.52,-332.72 438.93,-330.75 435.43,-324.69"/>
</g>
</g>
</svg>
