<?xml version="1.0" encoding="UTF-8" standalone="no"?>
<!DOCTYPE svg PUBLIC "-//W3C//DTD SVG 1.1//EN"
 "http://www.w3.org/Graphics/SVG/1.1/DTD/svg11.dtd">
<!-- Generated by graphviz version 14.1.1 (20251213.1925)
 -->
<!-- Title: Flow Pages: 1 -->
<svg width="704pt" height="152pt"
 viewBox="0.00 0.00 704.00 152.00" xmlns="http://www.w3.org/2000/svg" xmlns:xlink="http://www.w3.org/1999/xlink">
<g id="graph0" class="graph" transform="scale(1 1) rotate(0) translate(4 148)">
<title>Flow</title>
<polygon fill="white" stroke="none" points="-4,4 -4,-148 700.11,-148 700.11,4 -4,4"/>
<!-- RFC0204 -->
<g id="node1" class="node">
<title>RFC0204</title>
<g id="a_node1"><a xlink:title="None">
<ellipse fill="green" stroke="black" cx="538.39" cy="-72" rx="66.47" ry="40.66"/>
<text xml:space="preserve" text-anchor="middle" x="538.39" y="-83.45" font-family="Times,serif" font-size="14.00">RFC0204</text>
<text xml:space="preserve" text-anchor="middle" x="538.39" y="-66.95" font-family="Times,serif" font-size="14.00">Sockets in use</text>
<text xml:space="preserve" text-anchor="middle" x="538.39" y="-50.45" font-family="Times,serif" font-size="14.00">1971</text>
</a>
</g>
</g>
<!-- obs -->
<g id="node3" class="node">
<title>obs</title>
<polygon fill="lightblue" stroke="black" points="696.11,-144 629.86,-144 629.86,-108 696.11,-108 696.11,-144"/>
<text xml:space="preserve" text-anchor="middle" x="662.99" y="-120.95" font-family="Times,serif" font-size="14.00">obsoletes</text>
</g>
<!-- RFC0204&#45;&gt;obs -->
<g id="edge2" class="edge">
<title>RFC0204&#45;&gt;obs</title>
<path fill="none" stroke="black" d="M592.81,-95.53C601.61,-99.4 610.63,-103.38 619.13,-107.12"/>
<polygon fill="black" stroke="black" points="617.62,-110.28 628.18,-111.11 620.44,-103.87 617.62,-110.28"/>
</g>
<!-- updates -->
<g id="node4" class="node">
<title>updates</title>
<polygon fill="lightyellow" stroke="black" points="691.61,-90 634.36,-90 634.36,-54 691.61,-54 691.61,-90"/>
<text xml:space="preserve" text-anchor="middle" x="662.99" y="-66.95" font-family="Times,serif" font-size="14.00">updates</text>
</g>
<!-- RFC0204&#45;&gt;updates -->
<g id="edge3" class="edge">
<title>RFC0204&#45;&gt;updates</title>
<path fill="none" stroke="black" d="M605.35,-72C611.34,-72 617.27,-72 622.91,-72"/>
<polygon fill="black" stroke="black" points="622.49,-75.5 632.49,-72 622.49,-68.5 622.49,-75.5"/>
</g>
<!-- cites -->
<g id="node7" class="node">
<title>cites</title>
<polygon fill="lightblue" stroke="black" points="689.99,-36 635.99,-36 635.99,0 689.99,0 689.99,-36"/>
<text xml:space="preserve" text-anchor="middle" x="662.99" y="-12.95" font-family="Times,serif" font-size="14.00">cites</text>
</g>
<!-- RFC0204&#45;&gt;cites -->
<g id="edge6" class="edge">
<title>RFC0204&#45;&gt;cites</title>
<path fill="none" stroke="black" d="M592.81,-48.47C603.82,-43.62 615.18,-38.62 625.43,-34.1"/>
<polygon fill="black" stroke="black" points="626.53,-37.44 634.27,-30.21 623.7,-31.04 626.53,-37.44"/>
</g>
<!-- obs_by -->
<g id="node2" class="node">
<title>obs_by</title>
<polygon fill="lightblue" stroke="black" points="446.92,-144 380.67,-144 380.67,-108 446.92,-108 446.92,-144"/>
<text xml:space="preserve" text-anchor="middle" x="413.8" y="-120.95" font-family="Times,serif" font-size="14.00">obsoletes</text>
</g>
<!-- obs_by&#45;&gt;RFC0204 -->
<g id="edge1" class="edge">
<title>obs_by&#45;&gt;RFC0204</title>
<path fill="none" stroke="black" d="M447.33,-111.67C455.47,-108.08 464.49,-104.11 473.59,-100.11"/>
<polygon fill="black" stroke="black" points="474.71,-103.43 482.46,-96.2 471.89,-97.03 474.71,-103.43"/>
</g>
<!-- updated_by -->
<g id="node5" class="node">
<title>updated_by</title>
<polygon fill="lightyellow" stroke="black" points="442.42,-90 385.17,-90 385.17,-54 442.42,-54 442.42,-90"/>
<text xml:space="preserve" text-anchor="middle" x="413.8" y="-66.95" font-family="Times,serif" font-size="14.00">updates</text>
</g>
<!-- updated_by&#45;&gt;RFC0204 -->
<g id="edge4" class="edge">
<title>updated_by&#45;&gt;RFC0204</title>
<path fill="none" stroke="black" d="M442.62,-72C448.09,-72 454.08,-72 460.3,-72"/>
<polygon fill="black" stroke="black" points="460.18,-75.5 470.18,-72 460.18,-68.5 460.18,-75.5"/>
</g>
<!-- RFC0234 -->
<g id="node6" class="node">
<title>RFC0234</title>
<g id="a_node6"><a xlink:href="RFC0234.html" xlink:title="None" target="_top">
<ellipse fill="none" stroke="black" cx="177.84" cy="-72" rx="177.84" ry="40.66"/>
<text xml:space="preserve" text-anchor="middle" x="177.84" y="-83.45" font-family="Times,serif" font-size="14.00">RFC0234</text>
<text xml:space="preserve" text-anchor="middle" x="177.84" y="-66.95" font-family="Times,serif" font-size="14.00">Network Working Group meeting schedule</text>
<text xml:space="preserve" text-anchor="middle" x="177.84" y="-50.45" font-family="Times,serif" font-size="14.00">1971</text>
</a>
</g>
</g>
<!-- RFC0234&#45;&gt;updated_by -->
<g id="edge5" class="edge">
<title>RFC0234&#45;&gt;updated_by</title>
<path fill="none" stroke="black" d="M356.16,-72C362.35,-72 368.23,-72 373.7,-72"/>
<polygon fill="black" stroke="black" points="373.44,-75.5 383.44,-72 373.44,-68.5 373.44,-75.5"/>
</g>
<!-- rev_cites -->
<g id="node8" class="node">
<title>rev_cites</title>
<polygon fill="lightblue" stroke="black" points="440.8,-36 386.8,-36 386.8,0 440.8,0 440.8,-36"/>
<text xml:space="preserve" text-anchor="middle" x="413.8" y="-12.95" font-family="Times,serif" font-size="14.00">cites</text>
</g>
<!-- rev_cites&#45;&gt;RFC0204 -->
<g id="edge7" class="edge">
<title>rev_cites&#45;&gt;RFC0204</title>
<path fill="none" stroke="black" d="M441.1,-29.58C450.69,-33.81 461.99,-38.79 473.42,-43.82"/>
<polygon fill="black" stroke="black" points="471.96,-47 482.52,-47.83 474.78,-40.6 471.96,-47"/>
</g>
</g>
</svg>
