<?xml version="1.0" encoding="UTF-8" standalone="no"?>
<!DOCTYPE svg PUBLIC "-//W3C//DTD SVG 1.1//EN"
 "http://www.w3.org/Graphics/SVG/1.1/DTD/svg11.dtd">
<!-- Generated by graphviz version 14.1.1 (20251213.1925)
 -->
<!-- Title: Flow Pages: 1 -->
<svg width="754pt" height="829pt"
 viewBox="0.00 0.00 754.00 829.00" xmlns="http://www.w3.org/2000/svg" xmlns:xlink="http://www.w3.org/1999/xlink">
<g id="graph0" class="graph" transform="scale(1 1) rotate(0) translate(4 825.39)">
<title>Flow</title>
<polygon fill="white" stroke="none" points="-4,4 -4,-825.39 750.42,-825.39 750.42,4 -4,4"/>
<!-- RFC0803 -->
<g id="node1" class="node">
<title>RFC0803</title>
<g id="a_node1"><a xlink:title="The first part of this RFC describes in detail the Dacom 450 data compression algorithms and is an update and correction to an earlier memorandum. &#160;The second part of this RFC describes briefly the Dacom 500 data compression algorithm as used by the INTELPOST electronic&#45;mail network under development by the US Postal Service and several foreign administrators.">
<ellipse fill="green" stroke="black" stroke-width="3" cx="373.21" cy="-410.7" rx="232.46" ry="50.2"/>
<text xml:space="preserve" text-anchor="middle" x="373.21" y="-425.1" font-family="Times,serif" font-size="18.00">RFC0803</text>
<text xml:space="preserve" text-anchor="middle" x="373.21" y="-404.1" font-family="Times,serif" font-size="18.00">Dacom 450/500 facsimile data transcoding</text>
<text xml:space="preserve" text-anchor="middle" x="373.21" y="-383.1" font-family="Times,serif" font-size="18.00">1981</text>
</a>
</g>
</g>
<!-- obs -->
<g id="node3" class="node">
<title>obs</title>
<polygon fill="lightblue" stroke="black" points="746.42,-625.05 680.17,-625.05 680.17,-589.05 746.42,-589.05 746.42,-625.05"/>
<text xml:space="preserve" text-anchor="middle" x="713.3" y="-602" font-family="Times,serif" font-size="14.00">obsoletes</text>
</g>
<!-- RFC0803&#45;&gt;obs -->
<g id="edge2" class="edge">
<title>RFC0803&#45;&gt;obs</title>
<path fill="none" stroke="black" d="M456.84,-458.98C525.02,-498.34 618.44,-552.28 671.67,-583.01"/>
<polygon fill="black" stroke="black" points="669.72,-585.93 680.13,-587.9 673.22,-579.86 669.72,-585.93"/>
</g>
<!-- updates -->
<g id="node4" class="node">
<title>updates</title>
<polygon fill="lightyellow" stroke="black" points="401.84,-821.39 344.59,-821.39 344.59,-785.39 401.84,-785.39 401.84,-821.39"/>
<text xml:space="preserve" text-anchor="middle" x="373.21" y="-798.34" font-family="Times,serif" font-size="14.00">updates</text>
</g>
<!-- RFC0803&#45;&gt;updates -->
<g id="edge3" class="edge">
<title>RFC0803&#45;&gt;updates</title>
<path fill="none" stroke="black" d="M373.21,-462.04C373.21,-545.41 373.21,-707.61 373.21,-773.99"/>
<polygon fill="black" stroke="black" points="369.71,-773.72 373.21,-783.72 376.71,-773.72 369.71,-773.72"/>
</g>
<!-- cites -->
<g id="node6" class="node">
<title>cites</title>
<polygon fill="lightblue" stroke="black" points="60.13,-625.05 6.13,-625.05 6.13,-589.05 60.13,-589.05 60.13,-625.05"/>
<text xml:space="preserve" text-anchor="middle" x="33.13" y="-602" font-family="Times,serif" font-size="14.00">cites</text>
</g>
<!-- RFC0803&#45;&gt;cites -->
<g id="edge5" class="edge">
<title>RFC0803&#45;&gt;cites</title>
<path fill="none" stroke="black" d="M289.58,-458.98C219.52,-499.43 122.79,-555.28 70.43,-585.51"/>
<polygon fill="black" stroke="black" points="68.79,-582.41 61.88,-590.44 72.29,-588.47 68.79,-582.41"/>
</g>
<!-- obs_by -->
<g id="node2" class="node">
<title>obs_by</title>
<polygon fill="lightblue" stroke="black" points="66.25,-232.35 0,-232.35 0,-196.35 66.25,-196.35 66.25,-232.35"/>
<text xml:space="preserve" text-anchor="middle" x="33.12" y="-209.3" font-family="Times,serif" font-size="14.00">obsoletes</text>
</g>
<!-- obs_by&#45;&gt;RFC0803 -->
<g id="edge1" class="edge">
<title>obs_by&#45;&gt;RFC0803</title>
<path fill="none" stroke="black" d="M65.12,-232.82C113.76,-260.9 208.21,-315.43 279.77,-356.75"/>
<polygon fill="black" stroke="black" points="277.99,-359.76 288.4,-361.73 281.49,-353.7 277.99,-359.76"/>
</g>
<!-- updated_by -->
<g id="node5" class="node">
<title>updated_by</title>
<polygon fill="lightyellow" stroke="black" points="401.84,-36 344.59,-36 344.59,0 401.84,0 401.84,-36"/>
<text xml:space="preserve" text-anchor="middle" x="373.21" y="-12.95" font-family="Times,serif" font-size="14.00">updates</text>
</g>
<!-- updated_by&#45;&gt;RFC0803 -->
<g id="edge4" class="edge">
<title>updated_by&#45;&gt;RFC0803</title>
<path fill="none" stroke="black" d="M373.21,-36.41C373.21,-91.45 373.21,-256.57 373.21,-348.02"/>
<polygon fill="black" stroke="black" points="369.71,-347.82 373.21,-357.82 376.71,-347.82 369.71,-347.82"/>
</g>
<!-- rev_cites -->
<g id="node7" class="node">
<title>rev_cites</title>
<polygon fill="lightblue" stroke="black" points="740.3,-232.35 686.3,-232.35 686.3,-196.35 740.3,-196.35 740.3,-232.35"/>
<text xml:space="preserve" text-anchor="middle" x="713.3" y="-209.3" font-family="Times,serif" font-size="14.00">cites</text>
</g>
<!-- rev_cites&#45;&gt;RFC0803 -->
<g id="edge6" class="edge">
<title>rev_cites&#45;&gt;RFC0803</title>
<path fill="none" stroke="black" d="M686.04,-230.08C638.98,-257.26 540.41,-314.16 466.42,-356.88"/>
<polygon fill="black" stroke="black" points="464.83,-353.76 457.92,-361.79 468.33,-359.82 464.83,-353.76"/>
</g>
</g>
</svg>
