<?xml version="1.0" encoding="UTF-8" standalone="no"?>
<!DOCTYPE svg PUBLIC "-//W3C//DTD SVG 1.1//EN"
 "http://www.w3.org/Graphics/SVG/1.1/DTD/svg11.dtd">
<!-- Generated by graphviz version 14.1.1 (20251213.1925)
 -->
<!-- Title: Flow Pages: 1 -->
<svg width="593pt" height="643pt"
 viewBox="0.00 0.00 593.00 643.00" xmlns="http://www.w3.org/2000/svg" xmlns:xlink="http://www.w3.org/1999/xlink">
<g id="graph0" class="graph" transform="scale(1 1) rotate(0) translate(4 639.21)">
<title>Flow</title>
<polygon fill="white" stroke="none" points="-4,4 -4,-639.21 589.18,-639.21 589.18,4 -4,4"/>
<!-- RFC0001 -->
<g id="node1" class="node">
<title>RFC0001</title>
<g id="a_node1"><a xlink:title="None">
<ellipse fill="green" stroke="black" stroke-width="3" cx="292.59" cy="-317.61" rx="84.5" ry="50.2"/>
<text xml:space="preserve" text-anchor="middle" x="292.59" y="-332.01" font-family="Times,serif" font-size="18.00">RFC0001</text>
<text xml:space="preserve" text-anchor="middle" x="292.59" y="-311.01" font-family="Times,serif" font-size="18.00">Host Software</text>
<text xml:space="preserve" text-anchor="middle" x="292.59" y="-290.01" font-family="Times,serif" font-size="18.00">1969</text>
</a>
</g>
</g>
<!-- obs -->
<g id="node3" class="node">
<title>obs</title>
<polygon fill="lightblue" stroke="black" points="585.18,-485.41 518.93,-485.41 518.93,-449.41 585.18,-449.41 585.18,-485.41"/>
<text xml:space="preserve" text-anchor="middle" x="552.06" y="-462.36" font-family="Times,serif" font-size="14.00">obsoletes</text>
</g>
<!-- RFC0001&#45;&gt;obs -->
<g id="edge2" class="edge">
<title>RFC0001&#45;&gt;obs</title>
<path fill="none" stroke="black" d="M354.41,-353.3C402.6,-381.12 468.2,-418.99 510.34,-443.33"/>
<polygon fill="black" stroke="black" points="508.55,-446.33 518.96,-448.3 512.05,-440.27 508.55,-446.33"/>
</g>
<!-- updates -->
<g id="node4" class="node">
<title>updates</title>
<polygon fill="lightyellow" stroke="black" points="321.22,-635.21 263.97,-635.21 263.97,-599.21 321.22,-599.21 321.22,-635.21"/>
<text xml:space="preserve" text-anchor="middle" x="292.59" y="-612.16" font-family="Times,serif" font-size="14.00">updates</text>
</g>
<!-- RFC0001&#45;&gt;updates -->
<g id="edge3" class="edge">
<title>RFC0001&#45;&gt;updates</title>
<path fill="none" stroke="black" d="M292.59,-369.11C292.59,-432.02 292.59,-536.33 292.59,-587.31"/>
<polygon fill="black" stroke="black" points="289.09,-587.27 292.59,-597.27 296.09,-587.27 289.09,-587.27"/>
</g>
<!-- cites -->
<g id="node6" class="node">
<title>cites</title>
<polygon fill="lightblue" stroke="black" points="60.13,-485.41 6.13,-485.41 6.13,-449.41 60.13,-449.41 60.13,-485.41"/>
<text xml:space="preserve" text-anchor="middle" x="33.13" y="-462.36" font-family="Times,serif" font-size="14.00">cites</text>
</g>
<!-- RFC0001&#45;&gt;cites -->
<g id="edge5" class="edge">
<title>RFC0001&#45;&gt;cites</title>
<path fill="none" stroke="black" d="M230.77,-353.3C180.78,-382.16 112.06,-421.84 70.22,-445.99"/>
<polygon fill="black" stroke="black" points="68.66,-442.85 61.75,-450.88 72.16,-448.91 68.66,-442.85"/>
</g>
<!-- obs_by -->
<g id="node2" class="node">
<title>obs_by</title>
<polygon fill="lightblue" stroke="black" points="66.25,-185.8 0,-185.8 0,-149.8 66.25,-149.8 66.25,-185.8"/>
<text xml:space="preserve" text-anchor="middle" x="33.12" y="-162.75" font-family="Times,serif" font-size="14.00">obsoletes</text>
</g>
<!-- obs_by&#45;&gt;RFC0001 -->
<g id="edge1" class="edge">
<title>obs_by&#45;&gt;RFC0001</title>
<path fill="none" stroke="black" d="M64.94,-186.17C103.59,-208.48 169.95,-246.8 221.09,-276.32"/>
<polygon fill="black" stroke="black" points="219.05,-279.19 229.46,-281.16 222.55,-273.13 219.05,-279.19"/>
</g>
<!-- updated_by -->
<g id="node5" class="node">
<title>updated_by</title>
<polygon fill="lightyellow" stroke="black" points="321.22,-36 263.97,-36 263.97,0 321.22,0 321.22,-36"/>
<text xml:space="preserve" text-anchor="middle" x="292.59" y="-12.95" font-family="Times,serif" font-size="14.00">updates</text>
</g>
<!-- updated_by&#45;&gt;RFC0001 -->
<g id="edge4" class="edge">
<title>updated_by&#45;&gt;RFC0001</title>
<path fill="none" stroke="black" d="M292.59,-36.29C292.59,-78.77 292.59,-185.76 292.59,-254.87"/>
<polygon fill="black" stroke="black" points="289.09,-254.53 292.59,-264.53 296.09,-254.53 289.09,-254.53"/>
</g>
<!-- rev_cites -->
<g id="node7" class="node">
<title>rev_cites</title>
<polygon fill="lightblue" stroke="black" points="579.06,-185.8 525.06,-185.8 525.06,-149.8 579.06,-149.8 579.06,-185.8"/>
<text xml:space="preserve" text-anchor="middle" x="552.06" y="-162.75" font-family="Times,serif" font-size="14.00">cites</text>
</g>
<!-- rev_cites&#45;&gt;RFC0001 -->
<g id="edge6" class="edge">
<title>rev_cites&#45;&gt;RFC0001</title>
<path fill="none" stroke="black" d="M524.78,-183.55C486.99,-205.37 417.37,-245.57 364.18,-276.27"/>
<polygon fill="black" stroke="black" points="362.67,-273.1 355.76,-281.13 366.17,-279.17 362.67,-273.1"/>
</g>
</g>
</svg>
