<?xml version="1.0" encoding="UTF-8" standalone="no"?>
<!DOCTYPE svg PUBLIC "-//W3C//DTD SVG 1.1//EN"
 "http://www.w3.org/Graphics/SVG/1.1/DTD/svg11.dtd">
<!-- Generated by graphviz version 14.1.1 (20251213.1925)
 -->
<!-- Title: Flow Pages: 1 -->
<svg width="538pt" height="152pt"
 viewBox="0.00 0.00 538.00 152.00" xmlns="http://www.w3.org/2000/svg" xmlns:xlink="http://www.w3.org/1999/xlink">
<g id="graph0" class="graph" transform="scale(1 1) rotate(0) translate(4 148)">
<title>Flow</title>
<polygon fill="white" stroke="none" points="-4,4 -4,-148 533.69,-148 533.69,4 -4,4"/>
<!-- RFC0939 -->
<g id="node1" class="node">
<title>RFC0939</title>
<g id="a_node1"><a xlink:title="This RFC reproduces the material from the front pages of the National Research Council report resulting from a study of the DOD Internet Protocol (IP) and Transmission Control Protocol (TCP) in comparison with the ISO Internet Protocol (ISO&#45;IP) and Transport Protocol level 4 (TP&#45;4). &#160;The point of this RFC is to make the text of the Executive Summary widely available in a timely way. &#160;The order of presentation has been altered, and the pagination changed. &#160;This RFC is distributed for information only. &#160;This RFC does not establish any policy for the DARPA research community or the DDN operational community.">
<ellipse fill="green" stroke="black" cx="264.84" cy="-72" rx="173.59" ry="63.99"/>
<text xml:space="preserve" text-anchor="middle" x="264.84" y="-99.95" font-family="Times,serif" font-size="14.00">RFC0939</text>
<text xml:space="preserve" text-anchor="middle" x="264.84" y="-83.45" font-family="Times,serif" font-size="14.00">Executive summary of the NRC report on</text>
<text xml:space="preserve" text-anchor="middle" x="264.84" y="-66.95" font-family="Times,serif" font-size="14.00">transport protocols for Department of</text>
<text xml:space="preserve" text-anchor="middle" x="264.84" y="-50.45" font-family="Times,serif" font-size="14.00">Defense data networks</text>
<text xml:space="preserve" text-anchor="middle" x="264.84" y="-33.95" font-family="Times,serif" font-size="14.00">1985</text>
</a>
</g>
</g>
<!-- obs -->
<g id="node3" class="node">
<title>obs</title>
<polygon fill="lightblue" stroke="black" points="529.69,-144 463.44,-144 463.44,-108 529.69,-108 529.69,-144"/>
<text xml:space="preserve" text-anchor="middle" x="496.56" y="-120.95" font-family="Times,serif" font-size="14.00">obsoletes</text>
</g>
<!-- RFC0939&#45;&gt;obs -->
<g id="edge2" class="edge">
<title>RFC0939&#45;&gt;obs</title>
<path fill="none" stroke="black" d="M411.98,-106.35C426.46,-109.76 440.23,-112.99 452.26,-115.82"/>
<polygon fill="black" stroke="black" points="451.21,-119.17 461.75,-118.05 452.81,-112.36 451.21,-119.17"/>
</g>
<!-- updates -->
<g id="node4" class="node">
<title>updates</title>
<polygon fill="lightyellow" stroke="black" points="525.19,-90 467.94,-90 467.94,-54 525.19,-54 525.19,-90"/>
<text xml:space="preserve" text-anchor="middle" x="496.56" y="-66.95" font-family="Times,serif" font-size="14.00">updates</text>
</g>
<!-- RFC0939&#45;&gt;updates -->
<g id="edge3" class="edge">
<title>RFC0939&#45;&gt;updates</title>
<path fill="none" stroke="black" d="M438.78,-72C444.97,-72 450.86,-72 456.33,-72"/>
<polygon fill="black" stroke="black" points="456.1,-75.5 466.1,-72 456.1,-68.5 456.1,-75.5"/>
</g>
<!-- cites -->
<g id="node6" class="node">
<title>cites</title>
<polygon fill="lightblue" stroke="black" points="523.56,-36 469.56,-36 469.56,0 523.56,0 523.56,-36"/>
<text xml:space="preserve" text-anchor="middle" x="496.56" y="-12.95" font-family="Times,serif" font-size="14.00">cites</text>
</g>
<!-- RFC0939&#45;&gt;cites -->
<g id="edge5" class="edge">
<title>RFC0939&#45;&gt;cites</title>
<path fill="none" stroke="black" d="M411.98,-37.65C428.95,-33.66 444.94,-29.9 458.3,-26.76"/>
<polygon fill="black" stroke="black" points="458.91,-30.21 467.84,-24.52 457.31,-23.4 458.91,-30.21"/>
</g>
<!-- obs_by -->
<g id="node2" class="node">
<title>obs_by</title>
<polygon fill="lightblue" stroke="black" points="66.25,-144 0,-144 0,-108 66.25,-108 66.25,-144"/>
<text xml:space="preserve" text-anchor="middle" x="33.12" y="-120.95" font-family="Times,serif" font-size="14.00">obsoletes</text>
</g>
<!-- obs_by&#45;&gt;RFC0939 -->
<g id="edge1" class="edge">
<title>obs_by&#45;&gt;RFC0939</title>
<path fill="none" stroke="black" d="M66.55,-118.38C78,-115.69 91.75,-112.45 106.6,-108.96"/>
<polygon fill="black" stroke="black" points="107.19,-112.42 116.12,-106.73 105.58,-105.61 107.19,-112.42"/>
</g>
<!-- updated_by -->
<g id="node5" class="node">
<title>updated_by</title>
<polygon fill="lightyellow" stroke="black" points="61.75,-90 4.5,-90 4.5,-54 61.75,-54 61.75,-90"/>
<text xml:space="preserve" text-anchor="middle" x="33.12" y="-66.95" font-family="Times,serif" font-size="14.00">updates</text>
</g>
<!-- updated_by&#45;&gt;RFC0939 -->
<g id="edge4" class="edge">
<title>updated_by&#45;&gt;RFC0939</title>
<path fill="none" stroke="black" d="M61.83,-72C67.19,-72 73.15,-72 79.58,-72"/>
<polygon fill="black" stroke="black" points="79.29,-75.5 89.29,-72 79.29,-68.5 79.29,-75.5"/>
</g>
<!-- rev_cites -->
<g id="node7" class="node">
<title>rev_cites</title>
<polygon fill="lightblue" stroke="black" points="60.12,-36 6.12,-36 6.12,0 60.12,0 60.12,-36"/>
<text xml:space="preserve" text-anchor="middle" x="33.12" y="-12.95" font-family="Times,serif" font-size="14.00">cites</text>
</g>
<!-- rev_cites&#45;&gt;RFC0939 -->
<g id="edge6" class="edge">
<title>rev_cites&#45;&gt;RFC0939</title>
<path fill="none" stroke="black" d="M60.48,-24.19C72.97,-27.13 89.01,-30.9 106.58,-35.03"/>
<polygon fill="black" stroke="black" points="105.7,-38.42 116.24,-37.3 107.3,-31.61 105.7,-38.42"/>
</g>
</g>
</svg>
