<?xml version="1.0" encoding="UTF-8" standalone="no"?>
<!DOCTYPE svg PUBLIC "-//W3C//DTD SVG 1.1//EN"
 "http://www.w3.org/Graphics/SVG/1.1/DTD/svg11.dtd">
<!-- Generated by graphviz version 14.1.1 (20251213.1925)
 -->
<!-- Title: Flow Pages: 1 -->
<svg width="1422pt" height="803pt"
 viewBox="0.00 0.00 1422.00 803.00" xmlns="http://www.w3.org/2000/svg" xmlns:xlink="http://www.w3.org/1999/xlink">
<g id="graph0" class="graph" transform="scale(1 1) rotate(0) translate(4 798.51)">
<title>Flow</title>
<polygon fill="white" stroke="none" points="-4,4 -4,-798.51 1418.37,-798.51 1418.37,4 -4,4"/>
<!-- RFC0344 -->
<g id="node1" class="node">
<title>RFC0344</title>
<g id="a_node1"><a xlink:title="None">
<ellipse fill="green" stroke="black" stroke-width="3" cx="705.33" cy="-397.26" rx="117.38" ry="50.2"/>
<text xml:space="preserve" text-anchor="middle" x="705.33" y="-411.66" font-family="Times,serif" font-size="18.00">RFC0344</text>
<text xml:space="preserve" text-anchor="middle" x="705.33" y="-390.66" font-family="Times,serif" font-size="18.00">Network Host Status</text>
<text xml:space="preserve" text-anchor="middle" x="705.33" y="-369.66" font-family="Times,serif" font-size="18.00">1972</text>
</a>
</g>
</g>
<!-- obs -->
<g id="node4" class="node">
<title>obs</title>
<polygon fill="lightblue" stroke="black" points="1047.28,-593.56 981.03,-593.56 981.03,-557.56 1047.28,-557.56 1047.28,-593.56"/>
<text xml:space="preserve" text-anchor="middle" x="1014.15" y="-570.51" font-family="Times,serif" font-size="14.00">obsoletes</text>
</g>
<!-- RFC0344&#45;&gt;obs -->
<g id="edge3" class="edge">
<title>RFC0344&#45;&gt;obs</title>
<path fill="none" stroke="black" d="M776.57,-438.39C837.23,-473.41 922.3,-522.52 972.47,-551.49"/>
<polygon fill="black" stroke="black" points="970.61,-554.46 981.02,-556.43 974.11,-548.39 970.61,-554.46"/>
</g>
<!-- updates -->
<g id="node6" class="node">
<title>updates</title>
<polygon fill="lightyellow" stroke="black" points="733.95,-771.86 676.7,-771.86 676.7,-735.86 733.95,-735.86 733.95,-771.86"/>
<text xml:space="preserve" text-anchor="middle" x="705.33" y="-748.81" font-family="Times,serif" font-size="14.00">updates</text>
</g>
<!-- RFC0344&#45;&gt;updates -->
<g id="edge5" class="edge">
<title>RFC0344&#45;&gt;updates</title>
<path fill="none" stroke="black" d="M705.33,-448.73C705.33,-524.52 705.33,-663.69 705.33,-724.32"/>
<polygon fill="black" stroke="black" points="701.83,-724.17 705.33,-734.17 708.83,-724.17 701.83,-724.17"/>
</g>
<!-- cites -->
<g id="node8" class="node">
<title>cites</title>
<polygon fill="lightblue" stroke="black" points="423.5,-593.56 369.5,-593.56 369.5,-557.56 423.5,-557.56 423.5,-593.56"/>
<text xml:space="preserve" text-anchor="middle" x="396.5" y="-570.51" font-family="Times,serif" font-size="14.00">cites</text>
</g>
<!-- RFC0344&#45;&gt;cites -->
<g id="edge7" class="edge">
<title>RFC0344&#45;&gt;cites</title>
<path fill="none" stroke="black" d="M634.09,-438.39C571.56,-474.49 483.09,-525.56 433.65,-554.11"/>
<polygon fill="black" stroke="black" points="431.93,-551.06 425.02,-559.09 435.43,-557.12 431.93,-551.06"/>
</g>
<!-- obs_by -->
<g id="node2" class="node">
<title>obs_by</title>
<polygon fill="lightblue" stroke="black" points="429.63,-236.96 363.38,-236.96 363.38,-200.96 429.63,-200.96 429.63,-236.96"/>
<text xml:space="preserve" text-anchor="middle" x="396.5" y="-213.91" font-family="Times,serif" font-size="14.00">obsoletes</text>
</g>
<!-- obs_by&#45;&gt;RFC0344 -->
<g id="edge1" class="edge">
<title>obs_by&#45;&gt;RFC0344</title>
<path fill="none" stroke="black" d="M428.39,-237.37C474.2,-263.81 560.16,-313.44 624.21,-350.42"/>
<polygon fill="black" stroke="black" points="622.17,-353.29 632.58,-355.26 625.67,-347.23 622.17,-353.29"/>
</g>
<!-- RFC0353 -->
<g id="node3" class="node">
<title>RFC0353</title>
<g id="a_node3"><a xlink:href="RFC0353.html" xlink:title="None" target="_top">
<ellipse fill="none" stroke="black" cx="87.68" cy="-40.66" rx="87.68" ry="40.66"/>
<text xml:space="preserve" text-anchor="middle" x="87.68" y="-52.11" font-family="Times,serif" font-size="14.00">RFC0353</text>
<text xml:space="preserve" text-anchor="middle" x="87.68" y="-35.61" font-family="Times,serif" font-size="14.00">Network host status</text>
<text xml:space="preserve" text-anchor="middle" x="87.68" y="-19.11" font-family="Times,serif" font-size="14.00">1972</text>
</a>
</g>
</g>
<!-- RFC0353&#45;&gt;obs_by -->
<g id="edge2" class="edge">
<title>RFC0353&#45;&gt;obs_by</title>
<path fill="none" stroke="black" d="M142.89,-72.53C203.65,-107.61 299.94,-163.21 354.73,-194.84"/>
<polygon fill="black" stroke="black" points="352.74,-197.73 363.15,-199.7 356.24,-191.67 352.74,-197.73"/>
</g>
<!-- RFC0342 -->
<g id="node5" class="node">
<title>RFC0342</title>
<g id="a_node5"><a xlink:href="RFC0342.html" xlink:title="None" target="_top">
<ellipse fill="none" stroke="black" cx="1322.98" cy="-753.86" rx="91.39" ry="40.66"/>
<text xml:space="preserve" text-anchor="middle" x="1322.98" y="-765.31" font-family="Times,serif" font-size="14.00">RFC0342</text>
<text xml:space="preserve" text-anchor="middle" x="1322.98" y="-748.81" font-family="Times,serif" font-size="14.00">Network Host Status</text>
<text xml:space="preserve" text-anchor="middle" x="1322.98" y="-732.31" font-family="Times,serif" font-size="14.00">1972</text>
</a>
</g>
</g>
<!-- obs&#45;&gt;RFC0342 -->
<g id="edge4" class="edge">
<title>obs&#45;&gt;RFC0342</title>
<path fill="none" stroke="black" d="M1046.04,-593.97C1095.58,-622.57 1192.1,-678.3 1257.06,-715.8"/>
<polygon fill="black" stroke="black" points="1255.09,-718.7 1265.5,-720.67 1258.59,-712.64 1255.09,-718.7"/>
</g>
<!-- updated_by -->
<g id="node7" class="node">
<title>updated_by</title>
<polygon fill="lightyellow" stroke="black" points="733.95,-58.66 676.7,-58.66 676.7,-22.66 733.95,-22.66 733.95,-58.66"/>
<text xml:space="preserve" text-anchor="middle" x="705.33" y="-35.61" font-family="Times,serif" font-size="14.00">updates</text>
</g>
<!-- updated_by&#45;&gt;RFC0344 -->
<g id="edge6" class="edge">
<title>updated_by&#45;&gt;RFC0344</title>
<path fill="none" stroke="black" d="M705.33,-58.83C705.33,-108.99 705.33,-251.12 705.33,-334.38"/>
<polygon fill="black" stroke="black" points="701.83,-334.21 705.33,-344.21 708.83,-334.21 701.83,-334.21"/>
</g>
<!-- rev_cites -->
<g id="node9" class="node">
<title>rev_cites</title>
<polygon fill="lightblue" stroke="black" points="1041.15,-236.96 987.15,-236.96 987.15,-200.96 1041.15,-200.96 1041.15,-236.96"/>
<text xml:space="preserve" text-anchor="middle" x="1014.15" y="-213.91" font-family="Times,serif" font-size="14.00">cites</text>
</g>
<!-- rev_cites&#45;&gt;RFC0344 -->
<g id="edge8" class="edge">
<title>rev_cites&#45;&gt;RFC0344</title>
<path fill="none" stroke="black" d="M986.75,-234.78C942.21,-260.49 852.47,-312.31 786.24,-350.54"/>
<polygon fill="black" stroke="black" points="784.87,-347.29 777.96,-355.32 788.37,-353.35 784.87,-347.29"/>
</g>
</g>
</svg>
