<?xml version="1.0" encoding="UTF-8" standalone="no"?>
<!DOCTYPE svg PUBLIC "-//W3C//DTD SVG 1.1//EN"
 "http://www.w3.org/Graphics/SVG/1.1/DTD/svg11.dtd">
<!-- Generated by graphviz version 14.1.1 (20251213.1925)
 -->
<!-- Title: Flow Pages: 1 -->
<svg width="632pt" height="688pt"
 viewBox="0.00 0.00 632.00 688.00" xmlns="http://www.w3.org/2000/svg" xmlns:xlink="http://www.w3.org/1999/xlink">
<g id="graph0" class="graph" transform="scale(1 1) rotate(0) translate(4 683.92)">
<title>Flow</title>
<polygon fill="white" stroke="none" points="-4,4 -4,-683.92 627.9,-683.92 627.9,4 -4,4"/>
<!-- RFC0678 -->
<g id="node1" class="node">
<title>RFC0678</title>
<g id="a_node1"><a xlink:title="For transmission of documents across different environments.">
<ellipse fill="green" stroke="black" stroke-width="3" cx="311.95" cy="-339.96" rx="120.03" ry="50.2"/>
<text xml:space="preserve" text-anchor="middle" x="311.95" y="-354.36" font-family="Times,serif" font-size="18.00">RFC0678</text>
<text xml:space="preserve" text-anchor="middle" x="311.95" y="-333.36" font-family="Times,serif" font-size="18.00">Standard file formats</text>
<text xml:space="preserve" text-anchor="middle" x="311.95" y="-312.36" font-family="Times,serif" font-size="18.00">1974</text>
</a>
</g>
</g>
<!-- obs -->
<g id="node3" class="node">
<title>obs</title>
<polygon fill="lightblue" stroke="black" points="623.9,-518.94 557.65,-518.94 557.65,-482.94 623.9,-482.94 623.9,-518.94"/>
<text xml:space="preserve" text-anchor="middle" x="590.78" y="-495.89" font-family="Times,serif" font-size="14.00">obsoletes</text>
</g>
<!-- RFC0678&#45;&gt;obs -->
<g id="edge2" class="edge">
<title>RFC0678&#45;&gt;obs</title>
<path fill="none" stroke="black" d="M383.76,-381.42C436.3,-411.75 505.75,-451.85 549.34,-477.02"/>
<polygon fill="black" stroke="black" points="547.32,-479.89 557.73,-481.86 550.82,-473.83 547.32,-479.89"/>
</g>
<!-- updates -->
<g id="node4" class="node">
<title>updates</title>
<polygon fill="lightyellow" stroke="black" points="340.58,-679.92 283.33,-679.92 283.33,-643.92 340.58,-643.92 340.58,-679.92"/>
<text xml:space="preserve" text-anchor="middle" x="311.95" y="-656.87" font-family="Times,serif" font-size="14.00">updates</text>
</g>
<!-- RFC0678&#45;&gt;updates -->
<g id="edge3" class="edge">
<title>RFC0678&#45;&gt;updates</title>
<path fill="none" stroke="black" d="M311.95,-391.33C311.95,-459.5 311.95,-577.6 311.95,-632.41"/>
<polygon fill="black" stroke="black" points="308.45,-632.19 311.95,-642.19 315.45,-632.19 308.45,-632.19"/>
</g>
<!-- cites -->
<g id="node6" class="node">
<title>cites</title>
<polygon fill="lightblue" stroke="black" points="60.13,-518.94 6.13,-518.94 6.13,-482.94 60.13,-482.94 60.13,-518.94"/>
<text xml:space="preserve" text-anchor="middle" x="33.13" y="-495.89" font-family="Times,serif" font-size="14.00">cites</text>
</g>
<!-- RFC0678&#45;&gt;cites -->
<g id="edge5" class="edge">
<title>RFC0678&#45;&gt;cites</title>
<path fill="none" stroke="black" d="M240.15,-381.42C185.77,-412.81 113.29,-454.66 70.1,-479.6"/>
<polygon fill="black" stroke="black" points="68.52,-476.47 61.61,-484.5 72.02,-482.53 68.52,-476.47"/>
</g>
<!-- obs_by -->
<g id="node2" class="node">
<title>obs_by</title>
<polygon fill="lightblue" stroke="black" points="66.25,-196.98 0,-196.98 0,-160.98 66.25,-160.98 66.25,-196.98"/>
<text xml:space="preserve" text-anchor="middle" x="33.13" y="-173.93" font-family="Times,serif" font-size="14.00">obsoletes</text>
</g>
<!-- obs_by&#45;&gt;RFC0678 -->
<g id="edge1" class="edge">
<title>obs_by&#45;&gt;RFC0678</title>
<path fill="none" stroke="black" d="M65.11,-197.45C105.12,-220.55 175.08,-260.94 230.33,-292.84"/>
<polygon fill="black" stroke="black" points="228.39,-295.76 238.8,-297.73 231.89,-289.7 228.39,-295.76"/>
</g>
<!-- updated_by -->
<g id="node5" class="node">
<title>updated_by</title>
<polygon fill="lightyellow" stroke="black" points="340.58,-36 283.33,-36 283.33,0 340.58,0 340.58,-36"/>
<text xml:space="preserve" text-anchor="middle" x="311.95" y="-12.95" font-family="Times,serif" font-size="14.00">updates</text>
</g>
<!-- updated_by&#45;&gt;RFC0678 -->
<g id="edge4" class="edge">
<title>updated_by&#45;&gt;RFC0678</title>
<path fill="none" stroke="black" d="M311.95,-36.23C311.95,-81.85 311.95,-202.59 311.95,-277.38"/>
<polygon fill="black" stroke="black" points="308.45,-277 311.95,-287 315.45,-277 308.45,-277"/>
</g>
<!-- rev_cites -->
<g id="node7" class="node">
<title>rev_cites</title>
<polygon fill="lightblue" stroke="black" points="617.78,-196.98 563.78,-196.98 563.78,-160.98 617.78,-160.98 617.78,-196.98"/>
<text xml:space="preserve" text-anchor="middle" x="590.78" y="-173.93" font-family="Times,serif" font-size="14.00">cites</text>
</g>
<!-- rev_cites&#45;&gt;RFC0678 -->
<g id="edge6" class="edge">
<title>rev_cites&#45;&gt;RFC0678</title>
<path fill="none" stroke="black" d="M563.28,-194.86C524.25,-217.39 451.17,-259.59 393.83,-292.69"/>
<polygon fill="black" stroke="black" points="392.27,-289.55 385.36,-297.58 395.77,-295.61 392.27,-289.55"/>
</g>
</g>
</svg>
