<?xml version="1.0" encoding="UTF-8" standalone="no"?>
<!DOCTYPE svg PUBLIC "-//W3C//DTD SVG 1.1//EN"
 "http://www.w3.org/Graphics/SVG/1.1/DTD/svg11.dtd">
<!-- Generated by graphviz version 14.1.1 (20251213.1925)
 -->
<!-- Title: Flow Pages: 1 -->
<svg width="679pt" height="742pt"
 viewBox="0.00 0.00 679.00 742.00" xmlns="http://www.w3.org/2000/svg" xmlns:xlink="http://www.w3.org/1999/xlink">
<g id="graph0" class="graph" transform="scale(1 1) rotate(0) translate(4 737.97)">
<title>Flow</title>
<polygon fill="white" stroke="none" points="-4,4 -4,-737.97 674.71,-737.97 674.71,4 -4,4"/>
<!-- RFC0477 -->
<g id="node1" class="node">
<title>RFC0477</title>
<g id="a_node1"><a xlink:title="None">
<ellipse fill="green" stroke="black" stroke-width="3" cx="335.36" cy="-366.99" rx="162.99" ry="50.2"/>
<text xml:space="preserve" text-anchor="middle" x="335.36" y="-381.39" font-family="Times,serif" font-size="18.00">RFC0477</text>
<text xml:space="preserve" text-anchor="middle" x="335.36" y="-360.39" font-family="Times,serif" font-size="18.00">Remote Job Service at UCSB</text>
<text xml:space="preserve" text-anchor="middle" x="335.36" y="-339.39" font-family="Times,serif" font-size="18.00">1973</text>
</a>
</g>
</g>
<!-- obs -->
<g id="node3" class="node">
<title>obs</title>
<polygon fill="lightblue" stroke="black" points="670.71,-559.48 604.46,-559.48 604.46,-523.48 670.71,-523.48 670.71,-559.48"/>
<text xml:space="preserve" text-anchor="middle" x="637.59" y="-536.43" font-family="Times,serif" font-size="14.00">obsoletes</text>
</g>
<!-- RFC0477&#45;&gt;obs -->
<g id="edge2" class="edge">
<title>RFC0477&#45;&gt;obs</title>
<path fill="none" stroke="black" d="M413.98,-412.38C472.15,-445.96 549.1,-490.39 595.89,-517.41"/>
<polygon fill="black" stroke="black" points="593.96,-520.33 604.37,-522.3 597.46,-514.27 593.96,-520.33"/>
</g>
<!-- updates -->
<g id="node4" class="node">
<title>updates</title>
<polygon fill="lightyellow" stroke="black" points="363.98,-733.97 306.73,-733.97 306.73,-697.97 363.98,-697.97 363.98,-733.97"/>
<text xml:space="preserve" text-anchor="middle" x="335.36" y="-710.92" font-family="Times,serif" font-size="14.00">updates</text>
</g>
<!-- RFC0477&#45;&gt;updates -->
<g id="edge3" class="edge">
<title>RFC0477&#45;&gt;updates</title>
<path fill="none" stroke="black" d="M335.36,-418.48C335.36,-492.63 335.36,-627.06 335.36,-686.43"/>
<polygon fill="black" stroke="black" points="331.86,-686.07 335.36,-696.07 338.86,-686.08 331.86,-686.07"/>
</g>
<!-- cites -->
<g id="node6" class="node">
<title>cites</title>
<polygon fill="lightblue" stroke="black" points="60.13,-559.48 6.13,-559.48 6.13,-523.48 60.13,-523.48 60.13,-559.48"/>
<text xml:space="preserve" text-anchor="middle" x="33.13" y="-536.43" font-family="Times,serif" font-size="14.00">cites</text>
</g>
<!-- RFC0477&#45;&gt;cites -->
<g id="edge5" class="edge">
<title>RFC0477&#45;&gt;cites</title>
<path fill="none" stroke="black" d="M256.74,-412.38C196.74,-447.02 116.75,-493.2 70.5,-519.9"/>
<polygon fill="black" stroke="black" points="68.83,-516.83 61.92,-524.86 72.33,-522.89 68.83,-516.83"/>
</g>
<!-- obs_by -->
<g id="node2" class="node">
<title>obs_by</title>
<polygon fill="lightblue" stroke="black" points="66.25,-210.49 0,-210.49 0,-174.49 66.25,-174.49 66.25,-210.49"/>
<text xml:space="preserve" text-anchor="middle" x="33.13" y="-187.44" font-family="Times,serif" font-size="14.00">obsoletes</text>
</g>
<!-- obs_by&#45;&gt;RFC0477 -->
<g id="edge1" class="edge">
<title>obs_by&#45;&gt;RFC0477</title>
<path fill="none" stroke="black" d="M64.9,-210.84C107.77,-235.59 185.82,-280.65 247.1,-316.03"/>
<polygon fill="black" stroke="black" points="245.06,-318.89 255.47,-320.86 248.56,-312.83 245.06,-318.89"/>
</g>
<!-- updated_by -->
<g id="node5" class="node">
<title>updated_by</title>
<polygon fill="lightyellow" stroke="black" points="363.98,-36 306.73,-36 306.73,0 363.98,0 363.98,-36"/>
<text xml:space="preserve" text-anchor="middle" x="335.36" y="-12.95" font-family="Times,serif" font-size="14.00">updates</text>
</g>
<!-- updated_by&#45;&gt;RFC0477 -->
<g id="edge4" class="edge">
<title>updated_by&#45;&gt;RFC0477</title>
<path fill="none" stroke="black" d="M335.36,-36.27C335.36,-85.56 335.36,-223.03 335.36,-304.38"/>
<polygon fill="black" stroke="black" points="331.86,-303.96 335.36,-313.96 338.86,-303.96 331.86,-303.96"/>
</g>
<!-- rev_cites -->
<g id="node7" class="node">
<title>rev_cites</title>
<polygon fill="lightblue" stroke="black" points="664.59,-210.49 610.59,-210.49 610.59,-174.49 664.59,-174.49 664.59,-210.49"/>
<text xml:space="preserve" text-anchor="middle" x="637.59" y="-187.44" font-family="Times,serif" font-size="14.00">cites</text>
</g>
<!-- rev_cites&#45;&gt;RFC0477 -->
<g id="edge6" class="edge">
<title>rev_cites&#45;&gt;RFC0477</title>
<path fill="none" stroke="black" d="M610.23,-208.29C568.49,-232.39 487.07,-279.4 423.62,-316.03"/>
<polygon fill="black" stroke="black" points="422.22,-312.79 415.31,-320.82 425.72,-318.86 422.22,-312.79"/>
</g>
</g>
</svg>
