<?xml version="1.0" encoding="UTF-8" standalone="no"?>
<!DOCTYPE svg PUBLIC "-//W3C//DTD SVG 1.1//EN"
 "http://www.w3.org/Graphics/SVG/1.1/DTD/svg11.dtd">
<!-- Generated by graphviz version 14.1.1 (20251213.1925)
 -->
<!-- Title: Flow Pages: 1 -->
<svg width="757pt" height="832pt"
 viewBox="0.00 0.00 757.00 832.00" xmlns="http://www.w3.org/2000/svg" xmlns:xlink="http://www.w3.org/1999/xlink">
<g id="graph0" class="graph" transform="scale(1 1) rotate(0) translate(4 828.06)">
<title>Flow</title>
<polygon fill="white" stroke="none" points="-4,4 -4,-828.06 752.73,-828.06 752.73,4 -4,4"/>
<!-- RFC0995 -->
<g id="node1" class="node">
<title>RFC0995</title>
<g id="a_node1"><a xlink:title="This Protocol is one of a set of International Standards produced to facilitate the interconnection of open systems. &#160;The set of standards covers the services and protocols required to achieve such interconnection. &#160;This Protocol is positioned with respect to other related standards by the layers defined in the Reference Model for Open Systems Interconnection (ISO 7498) and by the structure defined in the Internal Organization of the Network Layer (DIS 8648). &#160;In particular, it is a protocol of the Network Layer. &#160;This Protocol permits End Systems and Intermediate Systems to exchange configuration and routing information to facilitate the operation of the routing and relaying functions of the Network Layer.">
<ellipse fill="green" stroke="black" stroke-width="3" cx="374.37" cy="-412.03" rx="204.88" ry="79.9"/>
<text xml:space="preserve" text-anchor="middle" x="374.37" y="-447.43" font-family="Times,serif" font-size="18.00">RFC0995</text>
<text xml:space="preserve" text-anchor="middle" x="374.37" y="-426.43" font-family="Times,serif" font-size="18.00">End System to Intermediate System</text>
<text xml:space="preserve" text-anchor="middle" x="374.37" y="-405.43" font-family="Times,serif" font-size="18.00">Routing Exchange Protocol for use in</text>
<text xml:space="preserve" text-anchor="middle" x="374.37" y="-384.43" font-family="Times,serif" font-size="18.00">conjunction with ISO 8473</text>
<text xml:space="preserve" text-anchor="middle" x="374.37" y="-363.43" font-family="Times,serif" font-size="18.00">1986</text>
</a>
</g>
</g>
<!-- obs -->
<g id="node3" class="node">
<title>obs</title>
<polygon fill="lightblue" stroke="black" points="748.73,-627.05 682.48,-627.05 682.48,-591.05 748.73,-591.05 748.73,-627.05"/>
<text xml:space="preserve" text-anchor="middle" x="715.61" y="-604" font-family="Times,serif" font-size="14.00">obsoletes</text>
</g>
<!-- RFC0995&#45;&gt;obs -->
<g id="edge2" class="edge">
<title>RFC0995&#45;&gt;obs</title>
<path fill="none" stroke="black" d="M490.37,-479.01C553.78,-515.62 628.44,-558.72 673.88,-584.95"/>
<polygon fill="black" stroke="black" points="671.95,-587.88 682.36,-589.85 675.45,-581.82 671.95,-587.88"/>
</g>
<!-- updates -->
<g id="node4" class="node">
<title>updates</title>
<polygon fill="lightyellow" stroke="black" points="402.99,-824.06 345.74,-824.06 345.74,-788.06 402.99,-788.06 402.99,-824.06"/>
<text xml:space="preserve" text-anchor="middle" x="374.37" y="-801.01" font-family="Times,serif" font-size="14.00">updates</text>
</g>
<!-- RFC0995&#45;&gt;updates -->
<g id="edge3" class="edge">
<title>RFC0995&#45;&gt;updates</title>
<path fill="none" stroke="black" d="M374.37,-493.2C374.37,-581.11 374.37,-716.77 374.37,-776.31"/>
<polygon fill="black" stroke="black" points="370.87,-776.31 374.37,-786.31 377.87,-776.31 370.87,-776.31"/>
</g>
<!-- cites -->
<g id="node6" class="node">
<title>cites</title>
<polygon fill="lightblue" stroke="black" points="60.13,-627.05 6.13,-627.05 6.13,-591.05 60.13,-591.05 60.13,-627.05"/>
<text xml:space="preserve" text-anchor="middle" x="33.13" y="-604" font-family="Times,serif" font-size="14.00">cites</text>
</g>
<!-- RFC0995&#45;&gt;cites -->
<g id="edge5" class="edge">
<title>RFC0995&#45;&gt;cites</title>
<path fill="none" stroke="black" d="M258.36,-479.01C192.75,-516.88 115.1,-561.72 70.24,-587.62"/>
<polygon fill="black" stroke="black" points="68.59,-584.53 61.68,-592.56 72.09,-590.59 68.59,-584.53"/>
</g>
<!-- obs_by -->
<g id="node2" class="node">
<title>obs_by</title>
<polygon fill="lightblue" stroke="black" points="66.25,-233.02 0,-233.02 0,-197.02 66.25,-197.02 66.25,-233.02"/>
<text xml:space="preserve" text-anchor="middle" x="33.13" y="-209.97" font-family="Times,serif" font-size="14.00">obsoletes</text>
</g>
<!-- obs_by&#45;&gt;RFC0995 -->
<g id="edge1" class="edge">
<title>obs_by&#45;&gt;RFC0995</title>
<path fill="none" stroke="black" d="M64.92,-233.37C106.63,-257.46 182.29,-301.14 248.35,-339.28"/>
<polygon fill="black" stroke="black" points="246.3,-342.14 256.72,-344.11 249.8,-336.07 246.3,-342.14"/>
</g>
<!-- updated_by -->
<g id="node5" class="node">
<title>updated_by</title>
<polygon fill="lightyellow" stroke="black" points="402.99,-36 345.74,-36 345.74,0 402.99,0 402.99,-36"/>
<text xml:space="preserve" text-anchor="middle" x="374.37" y="-12.95" font-family="Times,serif" font-size="14.00">updates</text>
</g>
<!-- updated_by&#45;&gt;RFC0995 -->
<g id="edge4" class="edge">
<title>updated_by&#45;&gt;RFC0995</title>
<path fill="none" stroke="black" d="M374.37,-36.48C374.37,-86.19 374.37,-225.38 374.37,-319.61"/>
<polygon fill="black" stroke="black" points="370.87,-319.36 374.37,-329.36 377.87,-319.36 370.87,-319.36"/>
</g>
<!-- rev_cites -->
<g id="node7" class="node">
<title>rev_cites</title>
<polygon fill="lightblue" stroke="black" points="742.61,-233.02 688.61,-233.02 688.61,-197.02 742.61,-197.02 742.61,-233.02"/>
<text xml:space="preserve" text-anchor="middle" x="715.61" y="-209.97" font-family="Times,serif" font-size="14.00">cites</text>
</g>
<!-- rev_cites&#45;&gt;RFC0995 -->
<g id="edge6" class="edge">
<title>rev_cites&#45;&gt;RFC0995</title>
<path fill="none" stroke="black" d="M688.26,-230.81C647.63,-254.26 568.74,-299.81 500.21,-339.37"/>
<polygon fill="black" stroke="black" points="498.84,-336.13 491.93,-344.16 502.34,-342.19 498.84,-336.13"/>
</g>
</g>
</svg>
