<?xml version="1.0" encoding="UTF-8" standalone="no"?>
<!DOCTYPE svg PUBLIC "-//W3C//DTD SVG 1.1//EN"
 "http://www.w3.org/Graphics/SVG/1.1/DTD/svg11.dtd">
<!-- Generated by graphviz version 14.1.1 (20251213.1925)
 -->
<!-- Title: Flow Pages: 1 -->
<svg width="820pt" height="175pt"
 viewBox="0.00 0.00 820.00 175.00" xmlns="http://www.w3.org/2000/svg" xmlns:xlink="http://www.w3.org/1999/xlink">
<g id="graph0" class="graph" transform="scale(1 1) rotate(0) translate(4 170.66)">
<title>Flow</title>
<polygon fill="white" stroke="none" points="-4,4 -4,-170.66 815.62,-170.66 815.62,4 -4,4"/>
<!-- RFC0931 -->
<g id="node1" class="node">
<title>RFC0931</title>
<g id="a_node1"><a xlink:title="This RFC suggests a proposed protocol for the ARPA&#45;Internet community, and requests discussion and suggestions for improvements. &#160;This is the second draft of this proposal (superseding RFC&#45;912) and incorporates a more formal description of the syntax for the request and response dialog, as well as a change to specify the type of user identification returned.">
<ellipse fill="green" stroke="black" cx="405.81" cy="-72" rx="94.05" ry="40.66"/>
<text xml:space="preserve" text-anchor="middle" x="405.81" y="-83.45" font-family="Times,serif" font-size="14.00">RFC0931</text>
<text xml:space="preserve" text-anchor="middle" x="405.81" y="-66.95" font-family="Times,serif" font-size="14.00">Authentication server</text>
<text xml:space="preserve" text-anchor="middle" x="405.81" y="-50.45" font-family="Times,serif" font-size="14.00">1985</text>
</a>
</g>
</g>
<!-- obs -->
<g id="node4" class="node">
<title>obs</title>
<polygon fill="lightblue" stroke="black" points="591.11,-144 524.86,-144 524.86,-108 591.11,-108 591.11,-144"/>
<text xml:space="preserve" text-anchor="middle" x="557.98" y="-120.95" font-family="Times,serif" font-size="14.00">obsoletes</text>
</g>
<!-- RFC0931&#45;&gt;obs -->
<g id="edge3" class="edge">
<title>RFC0931&#45;&gt;obs</title>
<path fill="none" stroke="black" d="M478.82,-97.89C490.78,-102.2 502.86,-106.54 513.82,-110.48"/>
<polygon fill="black" stroke="black" points="512.34,-113.67 522.93,-113.76 514.71,-107.08 512.34,-113.67"/>
</g>
<!-- updates -->
<g id="node6" class="node">
<title>updates</title>
<polygon fill="lightyellow" stroke="black" points="586.61,-90 529.36,-90 529.36,-54 586.61,-54 586.61,-90"/>
<text xml:space="preserve" text-anchor="middle" x="557.98" y="-66.95" font-family="Times,serif" font-size="14.00">updates</text>
</g>
<!-- RFC0931&#45;&gt;updates -->
<g id="edge5" class="edge">
<title>RFC0931&#45;&gt;updates</title>
<path fill="none" stroke="black" d="M500.21,-72C506.21,-72 512.04,-72 517.54,-72"/>
<polygon fill="black" stroke="black" points="517.48,-75.5 527.48,-72 517.48,-68.5 517.48,-75.5"/>
</g>
<!-- cites -->
<g id="node8" class="node">
<title>cites</title>
<polygon fill="lightblue" stroke="black" points="584.98,-36 530.98,-36 530.98,0 584.98,0 584.98,-36"/>
<text xml:space="preserve" text-anchor="middle" x="557.98" y="-12.95" font-family="Times,serif" font-size="14.00">cites</text>
</g>
<!-- RFC0931&#45;&gt;cites -->
<g id="edge7" class="edge">
<title>RFC0931&#45;&gt;cites</title>
<path fill="none" stroke="black" d="M478.82,-46.11C493.14,-40.96 507.61,-35.75 520.14,-31.25"/>
<polygon fill="black" stroke="black" points="520.95,-34.67 529.18,-28 518.59,-28.09 520.95,-34.67"/>
</g>
<!-- obs_by -->
<g id="node2" class="node">
<title>obs_by</title>
<polygon fill="lightblue" stroke="black" points="286.77,-144 220.52,-144 220.52,-108 286.77,-108 286.77,-144"/>
<text xml:space="preserve" text-anchor="middle" x="253.64" y="-120.95" font-family="Times,serif" font-size="14.00">obsoletes</text>
</g>
<!-- obs_by&#45;&gt;RFC0931 -->
<g id="edge1" class="edge">
<title>obs_by&#45;&gt;RFC0931</title>
<path fill="none" stroke="black" d="M287.22,-114.28C297.57,-110.56 309.51,-106.27 321.74,-101.87"/>
<polygon fill="black" stroke="black" points="322.88,-105.18 331.11,-98.5 320.51,-98.59 322.88,-105.18"/>
</g>
<!-- RFC1413 -->
<g id="node3" class="node">
<title>RFC1413</title>
<g id="a_node3"><a xlink:href="RFC1413.html" xlink:title="The Identification Protocol was formerly called the Authentication Server Protocol. &#160;It has been renamed to better reflect its function. [STANDARDS&#45;TRACK]" target="_top">
<ellipse fill="none" stroke="black" cx="97.76" cy="-126" rx="97.76" ry="40.66"/>
<text xml:space="preserve" text-anchor="middle" x="97.76" y="-137.45" font-family="Times,serif" font-size="14.00">RFC1413</text>
<text xml:space="preserve" text-anchor="middle" x="97.76" y="-120.95" font-family="Times,serif" font-size="14.00">Identification Protocol</text>
<text xml:space="preserve" text-anchor="middle" x="97.76" y="-104.45" font-family="Times,serif" font-size="14.00">1993</text>
</a>
</g>
</g>
<!-- RFC1413&#45;&gt;obs_by -->
<g id="edge2" class="edge">
<title>RFC1413&#45;&gt;obs_by</title>
<path fill="none" stroke="black" d="M195.78,-126C200.23,-126 204.59,-126 208.79,-126"/>
<polygon fill="black" stroke="black" points="208.62,-129.5 218.62,-126 208.62,-122.5 208.62,-129.5"/>
</g>
<!-- RFC0912 -->
<g id="node5" class="node">
<title>RFC0912</title>
<g id="a_node5"><a xlink:href="RFC0912.html" xlink:title="This memo describes a proposed authentication protocol for verifying the identity of a user of a TCP connection. &#160;Given a TCP port number pair, it returns a character string which identifies the owner of that connection on the server&#39;s system. &#160;Suggested uses include automatic identification and verification of a user during an FTP session, additional verification of a TAC dial up user, and access verification for a generalized network file server." target="_top">
<ellipse fill="none" stroke="black" cx="713.86" cy="-126" rx="97.76" ry="40.66"/>
<text xml:space="preserve" text-anchor="middle" x="713.86" y="-137.45" font-family="Times,serif" font-size="14.00">RFC0912</text>
<text xml:space="preserve" text-anchor="middle" x="713.86" y="-120.95" font-family="Times,serif" font-size="14.00">Authentication service</text>
<text xml:space="preserve" text-anchor="middle" x="713.86" y="-104.45" font-family="Times,serif" font-size="14.00">1984</text>
</a>
</g>
</g>
<!-- obs&#45;&gt;RFC0912 -->
<g id="edge4" class="edge">
<title>obs&#45;&gt;RFC0912</title>
<path fill="none" stroke="black" d="M591.24,-126C595.45,-126 599.94,-126 604.61,-126"/>
<polygon fill="black" stroke="black" points="604.3,-129.5 614.3,-126 604.3,-122.5 604.3,-129.5"/>
</g>
<!-- updated_by -->
<g id="node7" class="node">
<title>updated_by</title>
<polygon fill="lightyellow" stroke="black" points="282.27,-90 225.02,-90 225.02,-54 282.27,-54 282.27,-90"/>
<text xml:space="preserve" text-anchor="middle" x="253.64" y="-66.95" font-family="Times,serif" font-size="14.00">updates</text>
</g>
<!-- updated_by&#45;&gt;RFC0931 -->
<g id="edge6" class="edge">
<title>updated_by&#45;&gt;RFC0931</title>
<path fill="none" stroke="black" d="M282.53,-72C287.89,-72 293.78,-72 300,-72"/>
<polygon fill="black" stroke="black" points="299.98,-75.5 309.98,-72 299.98,-68.5 299.98,-75.5"/>
</g>
<!-- rev_cites -->
<g id="node9" class="node">
<title>rev_cites</title>
<polygon fill="lightblue" stroke="black" points="280.64,-36 226.64,-36 226.64,0 280.64,0 280.64,-36"/>
<text xml:space="preserve" text-anchor="middle" x="253.64" y="-12.95" font-family="Times,serif" font-size="14.00">cites</text>
</g>
<!-- rev_cites&#45;&gt;RFC0931 -->
<g id="edge8" class="edge">
<title>rev_cites&#45;&gt;RFC0931</title>
<path fill="none" stroke="black" d="M280.8,-27.41C292.61,-31.65 307.28,-36.93 322.36,-42.35"/>
<polygon fill="black" stroke="black" points="320.81,-45.51 331.4,-45.6 323.17,-38.93 320.81,-45.51"/>
</g>
</g>
</svg>
