<?xml version="1.0" encoding="UTF-8" standalone="no"?>
<!DOCTYPE svg PUBLIC "-//W3C//DTD SVG 1.1//EN"
 "http://www.w3.org/Graphics/SVG/1.1/DTD/svg11.dtd">
<!-- Generated by graphviz version 14.1.1 (20251213.1925)
 -->
<!-- Title: Flow Pages: 1 -->
<svg width="398pt" height="152pt"
 viewBox="0.00 0.00 398.00 152.00" xmlns="http://www.w3.org/2000/svg" xmlns:xlink="http://www.w3.org/1999/xlink">
<g id="graph0" class="graph" transform="scale(1 1) rotate(0) translate(4 148)">
<title>Flow</title>
<polygon fill="white" stroke="none" points="-4,4 -4,-148 393.68,-148 393.68,4 -4,4"/>
<!-- RFC0797 -->
<g id="node1" class="node">
<title>RFC0797</title>
<g id="a_node1"><a xlink:title="None">
<ellipse fill="none" stroke="black" cx="194.84" cy="-72" rx="103.59" ry="40.66"/>
<text xml:space="preserve" text-anchor="middle" x="194.84" y="-83.45" font-family="Times,serif" font-size="14.00">RFC0797</text>
<text xml:space="preserve" text-anchor="middle" x="194.84" y="-66.95" font-family="Times,serif" font-size="14.00">Format for Bitmap files</text>
<text xml:space="preserve" text-anchor="middle" x="194.84" y="-50.45" font-family="Times,serif" font-size="14.00">1981</text>
</a>
</g>
</g>
<!-- obs -->
<g id="node3" class="node">
<title>obs</title>
<polygon fill="none" stroke="black" points="389.68,-144 323.43,-144 323.43,-108 389.68,-108 389.68,-144"/>
<text xml:space="preserve" text-anchor="middle" x="356.56" y="-120.95" font-family="Times,serif" font-size="14.00">obsoletes</text>
</g>
<!-- RFC0797&#45;&gt;obs -->
<g id="edge2" class="edge">
<title>RFC0797&#45;&gt;obs</title>
<path fill="none" stroke="black" d="M274.3,-98.53C287.33,-102.93 300.41,-107.36 312.15,-111.33"/>
<polygon fill="black" stroke="black" points="310.93,-114.61 321.52,-114.49 313.17,-107.97 310.93,-114.61"/>
</g>
<!-- updates -->
<g id="node4" class="node">
<title>updates</title>
<polygon fill="none" stroke="black" points="385.18,-90 327.93,-90 327.93,-54 385.18,-54 385.18,-90"/>
<text xml:space="preserve" text-anchor="middle" x="356.56" y="-66.95" font-family="Times,serif" font-size="14.00">updates</text>
</g>
<!-- RFC0797&#45;&gt;updates -->
<g id="edge3" class="edge">
<title>RFC0797&#45;&gt;updates</title>
<path fill="none" stroke="black" d="M298.8,-72C304.8,-72 310.61,-72 316.08,-72"/>
<polygon fill="black" stroke="black" points="315.93,-75.5 325.93,-72 315.93,-68.5 315.93,-75.5"/>
</g>
<!-- cites -->
<g id="node6" class="node">
<title>cites</title>
<polygon fill="none" stroke="black" points="383.56,-36 329.56,-36 329.56,0 383.56,0 383.56,-36"/>
<text xml:space="preserve" text-anchor="middle" x="356.56" y="-12.95" font-family="Times,serif" font-size="14.00">cites</text>
</g>
<!-- RFC0797&#45;&gt;cites -->
<g id="edge5" class="edge">
<title>RFC0797&#45;&gt;cites</title>
<path fill="none" stroke="black" d="M274.3,-45.47C289.83,-40.22 305.43,-34.95 318.75,-30.44"/>
<polygon fill="black" stroke="black" points="319.57,-33.86 327.92,-27.34 317.33,-27.23 319.57,-33.86"/>
</g>
<!-- obs_by -->
<g id="node2" class="node">
<title>obs_by</title>
<polygon fill="none" stroke="black" points="66.25,-144 0,-144 0,-108 66.25,-108 66.25,-144"/>
<text xml:space="preserve" text-anchor="middle" x="33.12" y="-120.95" font-family="Times,serif" font-size="14.00">obsoletes</text>
</g>
<!-- obs_by&#45;&gt;RFC0797 -->
<g id="edge1" class="edge">
<title>obs_by&#45;&gt;RFC0797</title>
<path fill="none" stroke="black" d="M66.45,-115.07C77.78,-111.24 91.12,-106.73 104.82,-102.1"/>
<polygon fill="black" stroke="black" points="105.56,-105.54 113.91,-99.03 103.31,-98.91 105.56,-105.54"/>
</g>
<!-- updated_by -->
<g id="node5" class="node">
<title>updated_by</title>
<polygon fill="none" stroke="black" points="61.75,-90 4.5,-90 4.5,-54 61.75,-54 61.75,-90"/>
<text xml:space="preserve" text-anchor="middle" x="33.12" y="-66.95" font-family="Times,serif" font-size="14.00">updates</text>
</g>
<!-- updated_by&#45;&gt;RFC0797 -->
<g id="edge4" class="edge">
<title>updated_by&#45;&gt;RFC0797</title>
<path fill="none" stroke="black" d="M61.95,-72C67.25,-72 73.1,-72 79.3,-72"/>
<polygon fill="black" stroke="black" points="79.27,-75.5 89.27,-72 79.27,-68.5 79.27,-75.5"/>
</g>
<!-- rev_cites -->
<g id="node7" class="node">
<title>rev_cites</title>
<polygon fill="none" stroke="black" points="60.12,-36 6.12,-36 6.12,0 60.12,0 60.12,-36"/>
<text xml:space="preserve" text-anchor="middle" x="33.12" y="-12.95" font-family="Times,serif" font-size="14.00">cites</text>
</g>
<!-- rev_cites&#45;&gt;RFC0797 -->
<g id="edge6" class="edge">
<title>rev_cites&#45;&gt;RFC0797</title>
<path fill="none" stroke="black" d="M60.5,-26.92C72.93,-31.12 88.55,-36.4 104.69,-41.86"/>
<polygon fill="black" stroke="black" points="103.32,-45.09 113.91,-44.98 105.56,-38.46 103.32,-45.09"/>
</g>
</g>
</svg>
