<?xml version="1.0" encoding="UTF-8" standalone="no"?>
<!DOCTYPE svg PUBLIC "-//W3C//DTD SVG 1.1//EN"
 "http://www.w3.org/Graphics/SVG/1.1/DTD/svg11.dtd">
<!-- Generated by graphviz version 14.1.1 (20251213.1925)
 -->
<!-- Title: Flow Pages: 1 -->
<svg width="450pt" height="152pt"
 viewBox="0.00 0.00 450.00 152.00" xmlns="http://www.w3.org/2000/svg" xmlns:xlink="http://www.w3.org/1999/xlink">
<g id="graph0" class="graph" transform="scale(1 1) rotate(0) translate(4 148)">
<title>Flow</title>
<polygon fill="white" stroke="none" points="-4,4 -4,-148 445.65,-148 445.65,4 -4,4"/>
<!-- RFC0902 -->
<g id="node1" class="node">
<title>RFC0902</title>
<g id="a_node1"><a xlink:title="The purpose of this memo is to explain how protocol standards are adopted for the ARPA&#45;Internet and the DARPA research community. &#160;There are three important aspects to be discussed: the process, the authority, and the complex relationship between the DARPA community and the DDN community. &#160;This memo is a policy statement on how protocols become official standards for the ARPA&#45;Internet and the DARPA research community. &#160;This is an official policy statement of the ICCB and the DARPA.">
<ellipse fill="none" stroke="black" cx="220.83" cy="-72" rx="129.58" ry="40.66"/>
<text xml:space="preserve" text-anchor="middle" x="220.83" y="-83.45" font-family="Times,serif" font-size="14.00">RFC0902</text>
<text xml:space="preserve" text-anchor="middle" x="220.83" y="-66.95" font-family="Times,serif" font-size="14.00">ARPA Internet Protocol policy</text>
<text xml:space="preserve" text-anchor="middle" x="220.83" y="-50.45" font-family="Times,serif" font-size="14.00">1984</text>
</a>
</g>
</g>
<!-- obs -->
<g id="node3" class="node">
<title>obs</title>
<polygon fill="none" stroke="black" points="441.65,-144 375.4,-144 375.4,-108 441.65,-108 441.65,-144"/>
<text xml:space="preserve" text-anchor="middle" x="408.53" y="-120.95" font-family="Times,serif" font-size="14.00">obsoletes</text>
</g>
<!-- RFC0902&#45;&gt;obs -->
<g id="edge2" class="edge">
<title>RFC0902&#45;&gt;obs</title>
<path fill="none" stroke="black" d="M316.85,-99.63C333.47,-104.46 350,-109.27 364.3,-113.43"/>
<polygon fill="black" stroke="black" points="363.22,-116.76 373.8,-116.19 365.17,-110.04 363.22,-116.76"/>
</g>
<!-- updates -->
<g id="node4" class="node">
<title>updates</title>
<polygon fill="none" stroke="black" points="437.15,-90 379.9,-90 379.9,-54 437.15,-54 437.15,-90"/>
<text xml:space="preserve" text-anchor="middle" x="408.53" y="-66.95" font-family="Times,serif" font-size="14.00">updates</text>
</g>
<!-- RFC0902&#45;&gt;updates -->
<g id="edge3" class="edge">
<title>RFC0902&#45;&gt;updates</title>
<path fill="none" stroke="black" d="M350.8,-72C356.89,-72 362.72,-72 368.19,-72"/>
<polygon fill="black" stroke="black" points="367.98,-75.5 377.98,-72 367.98,-68.5 367.98,-75.5"/>
</g>
<!-- cites -->
<g id="node6" class="node">
<title>cites</title>
<polygon fill="none" stroke="black" points="435.53,-36 381.53,-36 381.53,0 435.53,0 435.53,-36"/>
<text xml:space="preserve" text-anchor="middle" x="408.53" y="-12.95" font-family="Times,serif" font-size="14.00">cites</text>
</g>
<!-- RFC0902&#45;&gt;cites -->
<g id="edge5" class="edge">
<title>RFC0902&#45;&gt;cites</title>
<path fill="none" stroke="black" d="M316.85,-44.37C335.96,-38.81 354.93,-33.29 370.55,-28.75"/>
<polygon fill="black" stroke="black" points="371.21,-32.21 379.83,-26.05 369.25,-25.49 371.21,-32.21"/>
</g>
<!-- obs_by -->
<g id="node2" class="node">
<title>obs_by</title>
<polygon fill="none" stroke="black" points="66.25,-144 0,-144 0,-108 66.25,-108 66.25,-144"/>
<text xml:space="preserve" text-anchor="middle" x="33.12" y="-120.95" font-family="Times,serif" font-size="14.00">obsoletes</text>
</g>
<!-- obs_by&#45;&gt;RFC0902 -->
<g id="edge1" class="edge">
<title>obs_by&#45;&gt;RFC0902</title>
<path fill="none" stroke="black" d="M66.47,-116.59C80.07,-112.64 96.73,-107.79 114,-102.77"/>
<polygon fill="black" stroke="black" points="114.74,-106.2 123.36,-100.05 112.78,-99.48 114.74,-106.2"/>
</g>
<!-- updated_by -->
<g id="node5" class="node">
<title>updated_by</title>
<polygon fill="none" stroke="black" points="61.75,-90 4.5,-90 4.5,-54 61.75,-54 61.75,-90"/>
<text xml:space="preserve" text-anchor="middle" x="33.12" y="-66.95" font-family="Times,serif" font-size="14.00">updates</text>
</g>
<!-- updated_by&#45;&gt;RFC0902 -->
<g id="edge4" class="edge">
<title>updated_by&#45;&gt;RFC0902</title>
<path fill="none" stroke="black" d="M61.93,-72C67.37,-72 73.42,-72 79.87,-72"/>
<polygon fill="black" stroke="black" points="79.59,-75.5 89.59,-72 79.59,-68.5 79.59,-75.5"/>
</g>
<!-- rev_cites -->
<g id="node7" class="node">
<title>rev_cites</title>
<polygon fill="none" stroke="black" points="60.12,-36 6.12,-36 6.12,0 60.12,0 60.12,-36"/>
<text xml:space="preserve" text-anchor="middle" x="33.12" y="-12.95" font-family="Times,serif" font-size="14.00">cites</text>
</g>
<!-- rev_cites&#45;&gt;RFC0902 -->
<g id="edge6" class="edge">
<title>rev_cites&#45;&gt;RFC0902</title>
<path fill="none" stroke="black" d="M60.34,-25.62C74.91,-29.86 94.12,-35.45 114.14,-41.27"/>
<polygon fill="black" stroke="black" points="112.96,-44.57 123.54,-44 114.91,-37.85 112.96,-44.57"/>
</g>
</g>
</svg>
