<?xml version="1.0" encoding="UTF-8" standalone="no"?>
<!DOCTYPE svg PUBLIC "-//W3C//DTD SVG 1.1//EN"
 "http://www.w3.org/Graphics/SVG/1.1/DTD/svg11.dtd">
<!-- Generated by graphviz version 14.1.1 (20251213.1925)
 -->
<!-- Title: Flow Pages: 1 -->
<svg width="1375pt" height="782pt"
 viewBox="0.00 0.00 1375.00 782.00" xmlns="http://www.w3.org/2000/svg" xmlns:xlink="http://www.w3.org/1999/xlink">
<g id="graph0" class="graph" transform="scale(1 1) rotate(0) translate(4 777.81)">
<title>Flow</title>
<polygon fill="white" stroke="none" points="-4,4 -4,-777.81 1371.37,-777.81 1371.37,4 -4,4"/>
<!-- RFC0923 -->
<g id="node1" class="node">
<title>RFC0923</title>
<g id="a_node1"><a xlink:title="This RFC documents the currently assigned values from several series of numbers used in network protocol implementations. &#160;This edition of Assigned Numbers obsoletes RFC&#45;900 and earlier editions. &#160;This memo is an official status report on the numbers used in protocols in the ARPA&#45;Internet community. &#160;See RFC&#45;990, and 997.">
<ellipse fill="green" stroke="black" stroke-width="3" cx="682.62" cy="-386.9" rx="105.71" ry="50.2"/>
<text xml:space="preserve" text-anchor="middle" x="682.62" y="-401.3" font-family="Times,serif" font-size="18.00">RFC0923</text>
<text xml:space="preserve" text-anchor="middle" x="682.62" y="-380.3" font-family="Times,serif" font-size="18.00">Assigned numbers</text>
<text xml:space="preserve" text-anchor="middle" x="682.62" y="-359.3" font-family="Times,serif" font-size="18.00">1984</text>
</a>
</g>
</g>
<!-- obs -->
<g id="node4" class="node">
<title>obs</title>
<polygon fill="lightblue" stroke="black" points="1015.61,-578.03 949.36,-578.03 949.36,-542.03 1015.61,-542.03 1015.61,-578.03"/>
<text xml:space="preserve" text-anchor="middle" x="982.48" y="-554.98" font-family="Times,serif" font-size="14.00">obsoletes</text>
</g>
<!-- RFC0923&#45;&gt;obs -->
<g id="edge3" class="edge">
<title>RFC0923&#45;&gt;obs</title>
<path fill="none" stroke="black" d="M751.04,-426.41C809.46,-460.13 891.6,-507.55 940.69,-535.9"/>
<polygon fill="black" stroke="black" points="938.92,-538.92 949.33,-540.89 942.42,-532.85 938.92,-538.92"/>
</g>
<!-- updates -->
<g id="node6" class="node">
<title>updates</title>
<polygon fill="lightyellow" stroke="black" points="711.25,-751.15 654,-751.15 654,-715.15 711.25,-715.15 711.25,-751.15"/>
<text xml:space="preserve" text-anchor="middle" x="682.62" y="-728.1" font-family="Times,serif" font-size="14.00">updates</text>
</g>
<!-- RFC0923&#45;&gt;updates -->
<g id="edge5" class="edge">
<title>RFC0923&#45;&gt;updates</title>
<path fill="none" stroke="black" d="M682.62,-438.37C682.62,-511.88 682.62,-644.58 682.62,-703.54"/>
<polygon fill="black" stroke="black" points="679.12,-703.44 682.62,-713.44 686.12,-703.44 679.12,-703.44"/>
</g>
<!-- cites -->
<g id="node8" class="node">
<title>cites</title>
<polygon fill="lightblue" stroke="black" points="409.77,-578.03 355.77,-578.03 355.77,-542.03 409.77,-542.03 409.77,-578.03"/>
<text xml:space="preserve" text-anchor="middle" x="382.77" y="-554.98" font-family="Times,serif" font-size="14.00">cites</text>
</g>
<!-- RFC0923&#45;&gt;cites -->
<g id="edge7" class="edge">
<title>RFC0923&#45;&gt;cites</title>
<path fill="none" stroke="black" d="M614.21,-426.41C553.85,-461.25 468.18,-510.71 419.79,-538.65"/>
<polygon fill="black" stroke="black" points="418.27,-535.48 411.36,-543.52 421.77,-541.55 418.27,-535.48"/>
</g>
<!-- obs_by -->
<g id="node2" class="node">
<title>obs_by</title>
<polygon fill="lightblue" stroke="black" points="415.89,-231.78 349.64,-231.78 349.64,-195.78 415.89,-195.78 415.89,-231.78"/>
<text xml:space="preserve" text-anchor="middle" x="382.77" y="-208.73" font-family="Times,serif" font-size="14.00">obsoletes</text>
</g>
<!-- obs_by&#45;&gt;RFC0923 -->
<g id="edge1" class="edge">
<title>obs_by&#45;&gt;RFC0923</title>
<path fill="none" stroke="black" d="M414.57,-232.14C459.35,-258 542.42,-305.96 604.27,-341.67"/>
<polygon fill="black" stroke="black" points="602.28,-344.56 612.69,-346.53 605.78,-338.5 602.28,-344.56"/>
</g>
<!-- RFC0943 -->
<g id="node3" class="node">
<title>RFC0943</title>
<g id="a_node3"><a xlink:href="RFC0943.html" xlink:title="This Network Working Group Request for Comments documents the currently assigned values from several series of numbers used in network protocol implementations. &#160;This RFC will be updated periodically, and in any case current information can be obtained from Joyce Reynolds. &#160;The assignment of numbers is also handled by Joyce. &#160;If you are developing a protocol or application that will require the use of a link, socket, port, protocol, network number, etc., please contact Joyce to receive a number assignment. &#160;This memo is an official status report on the numbers used in protocols in the ARPA&#45;Internet community. &#160;See RFC&#45;990 and 997." target="_top">
<ellipse fill="none" stroke="black" cx="82.91" cy="-40.66" rx="82.91" ry="40.66"/>
<text xml:space="preserve" text-anchor="middle" x="82.91" y="-52.11" font-family="Times,serif" font-size="14.00">RFC0943</text>
<text xml:space="preserve" text-anchor="middle" x="82.91" y="-35.61" font-family="Times,serif" font-size="14.00">Assigned numbers</text>
<text xml:space="preserve" text-anchor="middle" x="82.91" y="-19.11" font-family="Times,serif" font-size="14.00">1985</text>
</a>
</g>
</g>
<!-- RFC0943&#45;&gt;obs_by -->
<g id="edge2" class="edge">
<title>RFC0943&#45;&gt;obs_by</title>
<path fill="none" stroke="black" d="M136.86,-71.81C195.47,-105.65 287.84,-158.98 341.12,-189.73"/>
<polygon fill="black" stroke="black" points="339.19,-192.66 349.6,-194.63 342.69,-186.6 339.19,-192.66"/>
</g>
<!-- RFC0900 -->
<g id="node5" class="node">
<title>RFC0900</title>
<g id="a_node5"><a xlink:href="RFC0900.html" xlink:title="This RFC specifies parameter values use in the Internet family of protocols, such as network numbers, well known ports, protocol types, and version numbers. &#160;This memo is an official status report on the protocol parameters used in the Internet protocol system. &#160;See RFC&#45;990 and 997." target="_top">
<ellipse fill="none" stroke="black" cx="1282.34" cy="-733.15" rx="85.03" ry="40.66"/>
<text xml:space="preserve" text-anchor="middle" x="1282.34" y="-744.6" font-family="Times,serif" font-size="14.00">RFC0900</text>
<text xml:space="preserve" text-anchor="middle" x="1282.34" y="-728.1" font-family="Times,serif" font-size="14.00">Assigned Numbers</text>
<text xml:space="preserve" text-anchor="middle" x="1282.34" y="-711.6" font-family="Times,serif" font-size="14.00">1984</text>
</a>
</g>
</g>
<!-- obs&#45;&gt;RFC0900 -->
<g id="edge4" class="edge">
<title>obs&#45;&gt;RFC0900</title>
<path fill="none" stroke="black" d="M1014.29,-578.39C1062.5,-606.23 1155.1,-659.69 1217.81,-695.89"/>
<polygon fill="black" stroke="black" points="1215.88,-698.82 1226.29,-700.79 1219.38,-692.76 1215.88,-698.82"/>
</g>
<!-- updated_by -->
<g id="node7" class="node">
<title>updated_by</title>
<polygon fill="lightyellow" stroke="black" points="711.25,-58.66 654,-58.66 654,-22.66 711.25,-22.66 711.25,-58.66"/>
<text xml:space="preserve" text-anchor="middle" x="682.62" y="-35.61" font-family="Times,serif" font-size="14.00">updates</text>
</g>
<!-- updated_by&#45;&gt;RFC0923 -->
<g id="edge6" class="edge">
<title>updated_by&#45;&gt;RFC0923</title>
<path fill="none" stroke="black" d="M682.62,-58.79C682.62,-107.53 682.62,-243.15 682.62,-323.96"/>
<polygon fill="black" stroke="black" points="679.12,-323.96 682.62,-333.96 686.12,-323.96 679.12,-323.96"/>
</g>
<!-- rev_cites -->
<g id="node9" class="node">
<title>rev_cites</title>
<polygon fill="lightblue" stroke="black" points="1009.48,-231.78 955.48,-231.78 955.48,-195.78 1009.48,-195.78 1009.48,-231.78"/>
<text xml:space="preserve" text-anchor="middle" x="982.48" y="-208.73" font-family="Times,serif" font-size="14.00">cites</text>
</g>
<!-- rev_cites&#45;&gt;RFC0923 -->
<g id="edge8" class="edge">
<title>rev_cites&#45;&gt;RFC0923</title>
<path fill="none" stroke="black" d="M955.08,-229.6C911.48,-254.77 824.74,-304.85 760.8,-341.77"/>
<polygon fill="black" stroke="black" points="759.36,-338.56 752.45,-346.59 762.86,-344.62 759.36,-338.56"/>
</g>
</g>
</svg>
