<?xml version="1.0" encoding="UTF-8" standalone="no"?>
<!DOCTYPE svg PUBLIC "-//W3C//DTD SVG 1.1//EN"
 "http://www.w3.org/Graphics/SVG/1.1/DTD/svg11.dtd">
<!-- Generated by graphviz version 14.1.1 (20251213.1925)
 -->
<!-- Title: Flow Pages: 1 -->
<svg width="684pt" height="175pt"
 viewBox="0.00 0.00 684.00 175.00" xmlns="http://www.w3.org/2000/svg" xmlns:xlink="http://www.w3.org/1999/xlink">
<g id="graph0" class="graph" transform="scale(1 1) rotate(0) translate(4 170.66)">
<title>Flow</title>
<polygon fill="white" stroke="none" points="-4,4 -4,-170.66 679.96,-170.66 679.96,4 -4,4"/>
<!-- RFC0349 -->
<g id="node1" class="node">
<title>RFC0349</title>
<g id="a_node1"><a xlink:title="None">
<ellipse fill="none" stroke="black" cx="434.45" cy="-72" rx="150.26" ry="40.66"/>
<text xml:space="preserve" text-anchor="middle" x="434.45" y="-83.45" font-family="Times,serif" font-size="14.00">RFC0349</text>
<text xml:space="preserve" text-anchor="middle" x="434.45" y="-66.95" font-family="Times,serif" font-size="14.00">Proposed Standard Socket Numbers</text>
<text xml:space="preserve" text-anchor="middle" x="434.45" y="-50.45" font-family="Times,serif" font-size="14.00">1972</text>
</a>
</g>
</g>
<!-- obs -->
<g id="node4" class="node">
<title>obs</title>
<polygon fill="none" stroke="black" points="675.96,-144 609.71,-144 609.71,-108 675.96,-108 675.96,-144"/>
<text xml:space="preserve" text-anchor="middle" x="642.83" y="-120.95" font-family="Times,serif" font-size="14.00">obsoletes</text>
</g>
<!-- RFC0349&#45;&gt;obs -->
<g id="edge3" class="edge">
<title>RFC0349&#45;&gt;obs</title>
<path fill="none" stroke="black" d="M543.48,-100.27C563.13,-105.41 582.55,-110.49 598.87,-114.76"/>
<polygon fill="black" stroke="black" points="597.62,-118.05 608.18,-117.19 599.39,-111.28 597.62,-118.05"/>
</g>
<!-- updates -->
<g id="node5" class="node">
<title>updates</title>
<polygon fill="none" stroke="black" points="671.46,-90 614.21,-90 614.21,-54 671.46,-54 671.46,-90"/>
<text xml:space="preserve" text-anchor="middle" x="642.83" y="-66.95" font-family="Times,serif" font-size="14.00">updates</text>
</g>
<!-- RFC0349&#45;&gt;updates -->
<g id="edge4" class="edge">
<title>RFC0349&#45;&gt;updates</title>
<path fill="none" stroke="black" d="M585.16,-72C591.26,-72 597.09,-72 602.52,-72"/>
<polygon fill="black" stroke="black" points="602.23,-75.5 612.23,-72 602.23,-68.5 602.23,-75.5"/>
</g>
<!-- cites -->
<g id="node7" class="node">
<title>cites</title>
<polygon fill="none" stroke="black" points="669.83,-36 615.83,-36 615.83,0 669.83,0 669.83,-36"/>
<text xml:space="preserve" text-anchor="middle" x="642.83" y="-12.95" font-family="Times,serif" font-size="14.00">cites</text>
</g>
<!-- RFC0349&#45;&gt;cites -->
<g id="edge6" class="edge">
<title>RFC0349&#45;&gt;cites</title>
<path fill="none" stroke="black" d="M543.48,-43.73C565.56,-37.96 587.34,-32.26 604.78,-27.7"/>
<polygon fill="black" stroke="black" points="605.31,-31.17 614.1,-25.26 603.54,-24.4 605.31,-31.17"/>
</g>
<!-- obs_by -->
<g id="node2" class="node">
<title>obs_by</title>
<polygon fill="none" stroke="black" points="259.19,-144 192.94,-144 192.94,-108 259.19,-108 259.19,-144"/>
<text xml:space="preserve" text-anchor="middle" x="226.06" y="-120.95" font-family="Times,serif" font-size="14.00">obsoletes</text>
</g>
<!-- obs_by&#45;&gt;RFC0349 -->
<g id="edge1" class="edge">
<title>obs_by&#45;&gt;RFC0349</title>
<path fill="none" stroke="black" d="M259.31,-117.56C274.69,-113.54 294.14,-108.45 314.42,-103.14"/>
<polygon fill="black" stroke="black" points="315.17,-106.57 323.96,-100.65 313.4,-99.79 315.17,-106.57"/>
</g>
<!-- RFC0433 -->
<g id="node3" class="node">
<title>RFC0433</title>
<g id="a_node3"><a xlink:href="RFC0433.html" xlink:title="None" target="_top">
<ellipse fill="none" stroke="black" cx="83.97" cy="-126" rx="83.97" ry="40.66"/>
<text xml:space="preserve" text-anchor="middle" x="83.97" y="-137.45" font-family="Times,serif" font-size="14.00">RFC0433</text>
<text xml:space="preserve" text-anchor="middle" x="83.97" y="-120.95" font-family="Times,serif" font-size="14.00">Socket number list</text>
<text xml:space="preserve" text-anchor="middle" x="83.97" y="-104.45" font-family="Times,serif" font-size="14.00">1972</text>
</a>
</g>
</g>
<!-- RFC0433&#45;&gt;obs_by -->
<g id="edge2" class="edge">
<title>RFC0433&#45;&gt;obs_by</title>
<path fill="none" stroke="black" d="M168.08,-126C172.52,-126 176.88,-126 181.1,-126"/>
<polygon fill="black" stroke="black" points="181.01,-129.5 191.01,-126 181.01,-122.5 181.01,-129.5"/>
</g>
<!-- updated_by -->
<g id="node6" class="node">
<title>updated_by</title>
<polygon fill="none" stroke="black" points="254.69,-90 197.44,-90 197.44,-54 254.69,-54 254.69,-90"/>
<text xml:space="preserve" text-anchor="middle" x="226.06" y="-66.95" font-family="Times,serif" font-size="14.00">updates</text>
</g>
<!-- updated_by&#45;&gt;RFC0349 -->
<g id="edge5" class="edge">
<title>updated_by&#45;&gt;RFC0349</title>
<path fill="none" stroke="black" d="M254.9,-72C260.25,-72 266.21,-72 272.59,-72"/>
<polygon fill="black" stroke="black" points="272.21,-75.5 282.21,-72 272.21,-68.5 272.21,-75.5"/>
</g>
<!-- rev_cites -->
<g id="node8" class="node">
<title>rev_cites</title>
<polygon fill="none" stroke="black" points="253.06,-36 199.06,-36 199.06,0 253.06,0 253.06,-36"/>
<text xml:space="preserve" text-anchor="middle" x="226.06" y="-12.95" font-family="Times,serif" font-size="14.00">cites</text>
</g>
<!-- rev_cites&#45;&gt;RFC0349 -->
<g id="edge7" class="edge">
<title>rev_cites&#45;&gt;RFC0349</title>
<path fill="none" stroke="black" d="M253.2,-24.84C269.31,-29.05 291.23,-34.79 314.24,-40.81"/>
<polygon fill="black" stroke="black" points="313.22,-44.16 323.78,-43.3 314.99,-37.39 313.22,-44.16"/>
</g>
</g>
</svg>
