<?xml version="1.0" encoding="UTF-8" standalone="no"?>
<!DOCTYPE svg PUBLIC "-//W3C//DTD SVG 1.1//EN"
 "http://www.w3.org/Graphics/SVG/1.1/DTD/svg11.dtd">
<!-- Generated by graphviz version 14.1.1 (20251213.1925)
 -->
<!-- Title: Flow Pages: 1 -->
<svg width="408pt" height="152pt"
 viewBox="0.00 0.00 408.00 152.00" xmlns="http://www.w3.org/2000/svg" xmlns:xlink="http://www.w3.org/1999/xlink">
<g id="graph0" class="graph" transform="scale(1 1) rotate(0) translate(4 148)">
<title>Flow</title>
<polygon fill="white" stroke="none" points="-4,4 -4,-148 404.29,-148 404.29,4 -4,4"/>
<!-- RFC0691 -->
<g id="node1" class="node">
<title>RFC0691</title>
<g id="a_node1"><a xlink:title="Slight revision of RFC 686, on the subject of print files; see also RFCs 640, 630, 542, 454, 448, 414, 385 and 354.">
<ellipse fill="green" stroke="black" cx="200.14" cy="-72" rx="108.89" ry="40.66"/>
<text xml:space="preserve" text-anchor="middle" x="200.14" y="-83.45" font-family="Times,serif" font-size="14.00">RFC0691</text>
<text xml:space="preserve" text-anchor="middle" x="200.14" y="-66.95" font-family="Times,serif" font-size="14.00">One more try on the FTP</text>
<text xml:space="preserve" text-anchor="middle" x="200.14" y="-50.45" font-family="Times,serif" font-size="14.00">1975</text>
</a>
</g>
</g>
<!-- obs -->
<g id="node3" class="node">
<title>obs</title>
<polygon fill="lightblue" stroke="black" points="400.29,-144 334.04,-144 334.04,-108 400.29,-108 400.29,-144"/>
<text xml:space="preserve" text-anchor="middle" x="367.16" y="-120.95" font-family="Times,serif" font-size="14.00">obsoletes</text>
</g>
<!-- RFC0691&#45;&gt;obs -->
<g id="edge2" class="edge">
<title>RFC0691&#45;&gt;obs</title>
<path fill="none" stroke="black" d="M282.69,-98.68C296.61,-103.24 310.58,-107.81 322.99,-111.87"/>
<polygon fill="black" stroke="black" points="321.87,-115.19 332.47,-114.97 324.05,-108.54 321.87,-115.19"/>
</g>
<!-- updates -->
<g id="node4" class="node">
<title>updates</title>
<polygon fill="lightyellow" stroke="black" points="395.79,-90 338.54,-90 338.54,-54 395.79,-54 395.79,-90"/>
<text xml:space="preserve" text-anchor="middle" x="367.16" y="-66.95" font-family="Times,serif" font-size="14.00">updates</text>
</g>
<!-- RFC0691&#45;&gt;updates -->
<g id="edge3" class="edge">
<title>RFC0691&#45;&gt;updates</title>
<path fill="none" stroke="black" d="M309.37,-72C315.41,-72 321.25,-72 326.73,-72"/>
<polygon fill="black" stroke="black" points="326.6,-75.5 336.6,-72 326.6,-68.5 326.6,-75.5"/>
</g>
<!-- cites -->
<g id="node6" class="node">
<title>cites</title>
<polygon fill="lightblue" stroke="black" points="394.16,-36 340.16,-36 340.16,0 394.16,0 394.16,-36"/>
<text xml:space="preserve" text-anchor="middle" x="367.16" y="-12.95" font-family="Times,serif" font-size="14.00">cites</text>
</g>
<!-- RFC0691&#45;&gt;cites -->
<g id="edge5" class="edge">
<title>RFC0691&#45;&gt;cites</title>
<path fill="none" stroke="black" d="M282.69,-45.32C299.09,-39.95 315.54,-34.56 329.45,-30.01"/>
<polygon fill="black" stroke="black" points="330.16,-33.46 338.58,-27.03 327.98,-26.81 330.16,-33.46"/>
</g>
<!-- obs_by -->
<g id="node2" class="node">
<title>obs_by</title>
<polygon fill="lightblue" stroke="black" points="66.25,-144 0,-144 0,-108 66.25,-108 66.25,-144"/>
<text xml:space="preserve" text-anchor="middle" x="33.12" y="-120.95" font-family="Times,serif" font-size="14.00">obsoletes</text>
</g>
<!-- obs_by&#45;&gt;RFC0691 -->
<g id="edge1" class="edge">
<title>obs_by&#45;&gt;RFC0691</title>
<path fill="none" stroke="black" d="M66.73,-115.33C78.4,-111.51 92.22,-106.99 106.44,-102.34"/>
<polygon fill="black" stroke="black" points="107.51,-105.67 115.93,-99.23 105.34,-99.01 107.51,-105.67"/>
</g>
<!-- updated_by -->
<g id="node5" class="node">
<title>updated_by</title>
<polygon fill="lightyellow" stroke="black" points="61.75,-90 4.5,-90 4.5,-54 61.75,-54 61.75,-90"/>
<text xml:space="preserve" text-anchor="middle" x="33.12" y="-66.95" font-family="Times,serif" font-size="14.00">updates</text>
</g>
<!-- updated_by&#45;&gt;RFC0691 -->
<g id="edge4" class="edge">
<title>updated_by&#45;&gt;RFC0691</title>
<path fill="none" stroke="black" d="M62.12,-72C67.41,-72 73.23,-72 79.41,-72"/>
<polygon fill="black" stroke="black" points="79.37,-75.5 89.37,-72 79.37,-68.5 79.37,-75.5"/>
</g>
<!-- rev_cites -->
<g id="node7" class="node">
<title>rev_cites</title>
<polygon fill="lightblue" stroke="black" points="60.12,-36 6.12,-36 6.12,0 60.12,0 60.12,-36"/>
<text xml:space="preserve" text-anchor="middle" x="33.12" y="-12.95" font-family="Times,serif" font-size="14.00">cites</text>
</g>
<!-- rev_cites&#45;&gt;RFC0691 -->
<g id="edge6" class="edge">
<title>rev_cites&#45;&gt;RFC0691</title>
<path fill="none" stroke="black" d="M60.27,-26.56C73.22,-30.79 89.71,-36.19 106.77,-41.77"/>
<polygon fill="black" stroke="black" points="105.41,-45.01 116,-44.79 107.59,-38.36 105.41,-45.01"/>
</g>
</g>
</svg>
