<?xml version="1.0" encoding="UTF-8" standalone="no"?>
<!DOCTYPE svg PUBLIC "-//W3C//DTD SVG 1.1//EN"
 "http://www.w3.org/Graphics/SVG/1.1/DTD/svg11.dtd">
<!-- Generated by graphviz version 14.1.1 (20251213.1925)
 -->
<!-- Title: Flow Pages: 1 -->
<svg width="710pt" height="779pt"
 viewBox="0.00 0.00 710.00 779.00" xmlns="http://www.w3.org/2000/svg" xmlns:xlink="http://www.w3.org/1999/xlink">
<g id="graph0" class="graph" transform="scale(1 1) rotate(0) translate(4 774.68)">
<title>Flow</title>
<polygon fill="white" stroke="none" points="-4,4 -4,-774.68 706.5,-774.68 706.5,4 -4,4"/>
<!-- RFC0547 -->
<g id="node1" class="node">
<title>RFC0547</title>
<g id="a_node1"><a xlink:title="None">
<ellipse fill="green" stroke="black" stroke-width="3" cx="351.25" cy="-385.34" rx="177.31" ry="65.05"/>
<text xml:space="preserve" text-anchor="middle" x="351.25" y="-410.24" font-family="Times,serif" font-size="18.00">RFC0547</text>
<text xml:space="preserve" text-anchor="middle" x="351.25" y="-389.24" font-family="Times,serif" font-size="18.00">Change to the Very Distant Host</text>
<text xml:space="preserve" text-anchor="middle" x="351.25" y="-368.24" font-family="Times,serif" font-size="18.00">specification</text>
<text xml:space="preserve" text-anchor="middle" x="351.25" y="-347.24" font-family="Times,serif" font-size="18.00">1973</text>
</a>
</g>
</g>
<!-- obs -->
<g id="node3" class="node">
<title>obs</title>
<polygon fill="lightblue" stroke="black" points="702.5,-587.01 636.25,-587.01 636.25,-551.01 702.5,-551.01 702.5,-587.01"/>
<text xml:space="preserve" text-anchor="middle" x="669.37" y="-563.96" font-family="Times,serif" font-size="14.00">obsoletes</text>
</g>
<!-- RFC0547&#45;&gt;obs -->
<g id="edge2" class="edge">
<title>RFC0547&#45;&gt;obs</title>
<path fill="none" stroke="black" d="M447.99,-441.19C508.15,-475.93 582.44,-518.82 627.84,-545.03"/>
<polygon fill="black" stroke="black" points="625.91,-547.95 636.32,-549.92 629.41,-541.89 625.91,-547.95"/>
</g>
<!-- updates -->
<g id="node4" class="node">
<title>updates</title>
<polygon fill="lightyellow" stroke="black" points="379.87,-770.68 322.62,-770.68 322.62,-734.68 379.87,-734.68 379.87,-770.68"/>
<text xml:space="preserve" text-anchor="middle" x="351.25" y="-747.63" font-family="Times,serif" font-size="14.00">updates</text>
</g>
<!-- RFC0547&#45;&gt;updates -->
<g id="edge3" class="edge">
<title>RFC0547&#45;&gt;updates</title>
<path fill="none" stroke="black" d="M351.25,-451.86C351.25,-532.35 351.25,-664.36 351.25,-723"/>
<polygon fill="black" stroke="black" points="347.75,-722.84 351.25,-732.84 354.75,-722.84 347.75,-722.84"/>
</g>
<!-- cites -->
<g id="node6" class="node">
<title>cites</title>
<polygon fill="lightblue" stroke="black" points="60.13,-587.01 6.13,-587.01 6.13,-551.01 60.13,-551.01 60.13,-587.01"/>
<text xml:space="preserve" text-anchor="middle" x="33.13" y="-563.96" font-family="Times,serif" font-size="14.00">cites</text>
</g>
<!-- RFC0547&#45;&gt;cites -->
<g id="edge5" class="edge">
<title>RFC0547&#45;&gt;cites</title>
<path fill="none" stroke="black" d="M254.51,-441.19C192.44,-477.03 115.33,-521.55 70.43,-547.47"/>
<polygon fill="black" stroke="black" points="68.76,-544.39 61.85,-552.42 72.26,-550.45 68.76,-544.39"/>
</g>
<!-- obs_by -->
<g id="node2" class="node">
<title>obs_by</title>
<polygon fill="lightblue" stroke="black" points="66.25,-219.67 0,-219.67 0,-183.67 66.25,-183.67 66.25,-219.67"/>
<text xml:space="preserve" text-anchor="middle" x="33.13" y="-196.62" font-family="Times,serif" font-size="14.00">obsoletes</text>
</g>
<!-- obs_by&#45;&gt;RFC0547 -->
<g id="edge1" class="edge">
<title>obs_by&#45;&gt;RFC0547</title>
<path fill="none" stroke="black" d="M65.08,-220.12C106.81,-244.21 181.94,-287.59 244.74,-323.85"/>
<polygon fill="black" stroke="black" points="242.99,-326.88 253.4,-328.84 246.49,-320.81 242.99,-326.88"/>
</g>
<!-- updated_by -->
<g id="node5" class="node">
<title>updated_by</title>
<polygon fill="lightyellow" stroke="black" points="379.87,-36 322.62,-36 322.62,0 379.87,0 379.87,-36"/>
<text xml:space="preserve" text-anchor="middle" x="351.25" y="-12.95" font-family="Times,serif" font-size="14.00">updates</text>
</g>
<!-- updated_by&#45;&gt;RFC0547 -->
<g id="edge4" class="edge">
<title>updated_by&#45;&gt;RFC0547</title>
<path fill="none" stroke="black" d="M351.25,-36.47C351.25,-85.41 351.25,-220.64 351.25,-307.65"/>
<polygon fill="black" stroke="black" points="347.75,-307.55 351.25,-317.55 354.75,-307.55 347.75,-307.55"/>
</g>
<!-- rev_cites -->
<g id="node7" class="node">
<title>rev_cites</title>
<polygon fill="lightblue" stroke="black" points="696.37,-219.67 642.37,-219.67 642.37,-183.67 696.37,-183.67 696.37,-219.67"/>
<text xml:space="preserve" text-anchor="middle" x="669.37" y="-196.62" font-family="Times,serif" font-size="14.00">cites</text>
</g>
<!-- rev_cites&#45;&gt;RFC0547 -->
<g id="edge6" class="edge">
<title>rev_cites&#45;&gt;RFC0547</title>
<path fill="none" stroke="black" d="M641.98,-217.49C601.41,-240.91 523.14,-286.1 458.02,-323.69"/>
<polygon fill="black" stroke="black" points="456.32,-320.63 449.41,-328.66 459.83,-326.69 456.32,-320.63"/>
</g>
</g>
</svg>
