<?xml version="1.0" encoding="UTF-8" standalone="no"?>
<!DOCTYPE svg PUBLIC "-//W3C//DTD SVG 1.1//EN"
 "http://www.w3.org/Graphics/SVG/1.1/DTD/svg11.dtd">
<!-- Generated by graphviz version 14.1.1 (20251213.1925)
 -->
<!-- Title: Flow Pages: 1 -->
<svg width="1021pt" height="751pt"
 viewBox="0.00 0.00 1021.00 751.00" xmlns="http://www.w3.org/2000/svg" xmlns:xlink="http://www.w3.org/1999/xlink">
<g id="graph0" class="graph" transform="scale(1 1) rotate(0) translate(4 746.92)">
<title>Flow</title>
<polygon fill="white" stroke="none" points="-4,4 -4,-746.92 1017.4,-746.92 1017.4,4 -4,4"/>
<!-- RFC0229 -->
<g id="node1" class="node">
<title>RFC0229</title>
<g id="a_node1"><a xlink:title="None">
<ellipse fill="green" stroke="black" stroke-width="3" cx="683.98" cy="-382.79" rx="117.38" ry="50.2"/>
<text xml:space="preserve" text-anchor="middle" x="683.98" y="-397.19" font-family="Times,serif" font-size="18.00">RFC0229</text>
<text xml:space="preserve" text-anchor="middle" x="683.98" y="-376.19" font-family="Times,serif" font-size="18.00">Standard host names</text>
<text xml:space="preserve" text-anchor="middle" x="683.98" y="-355.19" font-family="Times,serif" font-size="18.00">1971</text>
</a>
</g>
</g>
<!-- obs -->
<g id="node4" class="node">
<title>obs</title>
<polygon fill="lightblue" stroke="black" points="1013.4,-571.86 947.15,-571.86 947.15,-535.86 1013.4,-535.86 1013.4,-571.86"/>
<text xml:space="preserve" text-anchor="middle" x="980.28" y="-548.81" font-family="Times,serif" font-size="14.00">obsoletes</text>
</g>
<!-- RFC0229&#45;&gt;obs -->
<g id="edge3" class="edge">
<title>RFC0229&#45;&gt;obs</title>
<path fill="none" stroke="black" d="M755.33,-423.98C812.6,-457.05 891.04,-502.34 938.55,-529.77"/>
<polygon fill="black" stroke="black" points="936.77,-532.78 947.18,-534.75 940.27,-526.72 936.77,-532.78"/>
</g>
<!-- updates -->
<g id="node5" class="node">
<title>updates</title>
<polygon fill="lightyellow" stroke="black" points="712.61,-742.92 655.36,-742.92 655.36,-706.92 712.61,-706.92 712.61,-742.92"/>
<text xml:space="preserve" text-anchor="middle" x="683.98" y="-719.87" font-family="Times,serif" font-size="14.00">updates</text>
</g>
<!-- RFC0229&#45;&gt;updates -->
<g id="edge4" class="edge">
<title>RFC0229&#45;&gt;updates</title>
<path fill="none" stroke="black" d="M683.98,-434.38C683.98,-507.06 683.98,-637.19 683.98,-695.39"/>
<polygon fill="black" stroke="black" points="680.48,-695.15 683.98,-705.15 687.48,-695.15 680.48,-695.15"/>
</g>
<!-- cites -->
<g id="node7" class="node">
<title>cites</title>
<polygon fill="lightblue" stroke="black" points="414.69,-571.86 360.69,-571.86 360.69,-535.86 414.69,-535.86 414.69,-571.86"/>
<text xml:space="preserve" text-anchor="middle" x="387.69" y="-548.81" font-family="Times,serif" font-size="14.00">cites</text>
</g>
<!-- RFC0229&#45;&gt;cites -->
<g id="edge6" class="edge">
<title>RFC0229&#45;&gt;cites</title>
<path fill="none" stroke="black" d="M612.64,-423.98C553.45,-458.15 471.66,-505.38 424.76,-532.46"/>
<polygon fill="black" stroke="black" points="423.24,-529.29 416.33,-537.32 426.74,-535.35 423.24,-529.29"/>
</g>
<!-- obs_by -->
<g id="node2" class="node">
<title>obs_by</title>
<polygon fill="lightblue" stroke="black" points="420.81,-229.72 354.56,-229.72 354.56,-193.72 420.81,-193.72 420.81,-229.72"/>
<text xml:space="preserve" text-anchor="middle" x="387.69" y="-206.67" font-family="Times,serif" font-size="14.00">obsoletes</text>
</g>
<!-- obs_by&#45;&gt;RFC0229 -->
<g id="edge1" class="edge">
<title>obs_by&#45;&gt;RFC0229</title>
<path fill="none" stroke="black" d="M419.68,-230.19C463.13,-255.28 542.29,-300.98 602.69,-335.86"/>
<polygon fill="black" stroke="black" points="600.87,-338.85 611.28,-340.82 604.37,-332.79 600.87,-338.85"/>
</g>
<!-- RFC0236 -->
<g id="node3" class="node">
<title>RFC0236</title>
<g id="a_node3"><a xlink:href="RFC0236.html" xlink:title="None" target="_top">
<ellipse fill="none" stroke="black" cx="91.39" cy="-40.66" rx="91.39" ry="40.66"/>
<text xml:space="preserve" text-anchor="middle" x="91.39" y="-52.11" font-family="Times,serif" font-size="14.00">RFC0236</text>
<text xml:space="preserve" text-anchor="middle" x="91.39" y="-35.61" font-family="Times,serif" font-size="14.00">Standard host names</text>
<text xml:space="preserve" text-anchor="middle" x="91.39" y="-19.11" font-family="Times,serif" font-size="14.00">1971</text>
</a>
</g>
</g>
<!-- RFC0236&#45;&gt;obs_by -->
<g id="edge2" class="edge">
<title>RFC0236&#45;&gt;obs_by</title>
<path fill="none" stroke="black" d="M147.47,-73.04C205.35,-106.45 294.3,-157.81 346.17,-187.75"/>
<polygon fill="black" stroke="black" points="344.3,-190.72 354.71,-192.69 347.8,-184.66 344.3,-190.72"/>
</g>
<!-- updated_by -->
<g id="node6" class="node">
<title>updated_by</title>
<polygon fill="lightyellow" stroke="black" points="712.61,-58.66 655.36,-58.66 655.36,-22.66 712.61,-22.66 712.61,-58.66"/>
<text xml:space="preserve" text-anchor="middle" x="683.98" y="-35.61" font-family="Times,serif" font-size="14.00">updates</text>
</g>
<!-- updated_by&#45;&gt;RFC0229 -->
<g id="edge5" class="edge">
<title>updated_by&#45;&gt;RFC0229</title>
<path fill="none" stroke="black" d="M683.98,-59.05C683.98,-107.47 683.98,-240.2 683.98,-319.87"/>
<polygon fill="black" stroke="black" points="680.48,-319.71 683.98,-329.71 687.48,-319.71 680.48,-319.71"/>
</g>
<!-- rev_cites -->
<g id="node8" class="node">
<title>rev_cites</title>
<polygon fill="lightblue" stroke="black" points="1007.28,-229.72 953.28,-229.72 953.28,-193.72 1007.28,-193.72 1007.28,-229.72"/>
<text xml:space="preserve" text-anchor="middle" x="980.28" y="-206.67" font-family="Times,serif" font-size="14.00">cites</text>
</g>
<!-- rev_cites&#45;&gt;RFC0229 -->
<g id="edge7" class="edge">
<title>rev_cites&#45;&gt;RFC0229</title>
<path fill="none" stroke="black" d="M952.94,-227.51C910.71,-251.89 827.98,-299.66 765.36,-335.81"/>
<polygon fill="black" stroke="black" points="763.72,-332.72 756.81,-340.75 767.22,-338.78 763.72,-332.72"/>
</g>
</g>
</svg>
