<?xml version="1.0" encoding="UTF-8" standalone="no"?>
<!DOCTYPE svg PUBLIC "-//W3C//DTD SVG 1.1//EN"
 "http://www.w3.org/Graphics/SVG/1.1/DTD/svg11.dtd">
<!-- Generated by graphviz version 14.1.1 (20251213.1925)
 -->
<!-- Title: Flow Pages: 1 -->
<svg width="522pt" height="152pt"
 viewBox="0.00 0.00 522.00 152.00" xmlns="http://www.w3.org/2000/svg" xmlns:xlink="http://www.w3.org/1999/xlink">
<g id="graph0" class="graph" transform="scale(1 1) rotate(0) translate(4 148)">
<title>Flow</title>
<polygon fill="white" stroke="none" points="-4,4 -4,-148 517.78,-148 517.78,4 -4,4"/>
<!-- RFC0364 -->
<g id="node1" class="node">
<title>RFC0364</title>
<g id="a_node1"><a xlink:title="None">
<ellipse fill="none" stroke="black" cx="256.89" cy="-72" rx="165.64" ry="40.66"/>
<text xml:space="preserve" text-anchor="middle" x="256.89" y="-83.45" font-family="Times,serif" font-size="14.00">RFC0364</text>
<text xml:space="preserve" text-anchor="middle" x="256.89" y="-66.95" font-family="Times,serif" font-size="14.00">Serving remote users on the ARPANET</text>
<text xml:space="preserve" text-anchor="middle" x="256.89" y="-50.45" font-family="Times,serif" font-size="14.00">1972</text>
</a>
</g>
</g>
<!-- obs -->
<g id="node3" class="node">
<title>obs</title>
<polygon fill="none" stroke="black" points="513.78,-144 447.53,-144 447.53,-108 513.78,-108 513.78,-144"/>
<text xml:space="preserve" text-anchor="middle" x="480.65" y="-120.95" font-family="Times,serif" font-size="14.00">obsoletes</text>
</g>
<!-- RFC0364&#45;&gt;obs -->
<g id="edge2" class="edge">
<title>RFC0364&#45;&gt;obs</title>
<path fill="none" stroke="black" d="M375.59,-100.66C397.19,-105.92 418.44,-111.1 436.06,-115.38"/>
<polygon fill="black" stroke="black" points="435.06,-118.74 445.6,-117.71 436.71,-111.94 435.06,-118.74"/>
</g>
<!-- updates -->
<g id="node4" class="node">
<title>updates</title>
<polygon fill="none" stroke="black" points="509.28,-90 452.03,-90 452.03,-54 509.28,-54 509.28,-90"/>
<text xml:space="preserve" text-anchor="middle" x="480.65" y="-66.95" font-family="Times,serif" font-size="14.00">updates</text>
</g>
<!-- RFC0364&#45;&gt;updates -->
<g id="edge3" class="edge">
<title>RFC0364&#45;&gt;updates</title>
<path fill="none" stroke="black" d="M422.83,-72C429,-72 434.87,-72 440.34,-72"/>
<polygon fill="black" stroke="black" points="440.11,-75.5 450.11,-72 440.11,-68.5 440.11,-75.5"/>
</g>
<!-- cites -->
<g id="node6" class="node">
<title>cites</title>
<polygon fill="none" stroke="black" points="507.65,-36 453.65,-36 453.65,0 507.65,0 507.65,-36"/>
<text xml:space="preserve" text-anchor="middle" x="480.65" y="-12.95" font-family="Times,serif" font-size="14.00">cites</text>
</g>
<!-- RFC0364&#45;&gt;cites -->
<g id="edge5" class="edge">
<title>RFC0364&#45;&gt;cites</title>
<path fill="none" stroke="black" d="M375.59,-43.34C399.8,-37.44 423.57,-31.66 442.27,-27.1"/>
<polygon fill="black" stroke="black" points="442.86,-30.56 451.75,-24.79 441.21,-23.76 442.86,-30.56"/>
</g>
<!-- obs_by -->
<g id="node2" class="node">
<title>obs_by</title>
<polygon fill="none" stroke="black" points="66.25,-144 0,-144 0,-108 66.25,-108 66.25,-144"/>
<text xml:space="preserve" text-anchor="middle" x="33.12" y="-120.95" font-family="Times,serif" font-size="14.00">obsoletes</text>
</g>
<!-- obs_by&#45;&gt;RFC0364 -->
<g id="edge1" class="edge">
<title>obs_by&#45;&gt;RFC0364</title>
<path fill="none" stroke="black" d="M66.37,-118.15C82.99,-114.1 104.47,-108.87 126.97,-103.39"/>
<polygon fill="black" stroke="black" points="127.72,-106.81 136.6,-101.05 126.06,-100.01 127.72,-106.81"/>
</g>
<!-- updated_by -->
<g id="node5" class="node">
<title>updated_by</title>
<polygon fill="none" stroke="black" points="61.75,-90 4.5,-90 4.5,-54 61.75,-54 61.75,-90"/>
<text xml:space="preserve" text-anchor="middle" x="33.12" y="-66.95" font-family="Times,serif" font-size="14.00">updates</text>
</g>
<!-- updated_by&#45;&gt;RFC0364 -->
<g id="edge4" class="edge">
<title>updated_by&#45;&gt;RFC0364</title>
<path fill="none" stroke="black" d="M62.21,-72C67.38,-72 73.11,-72 79.27,-72"/>
<polygon fill="black" stroke="black" points="79.26,-75.5 89.26,-72 79.26,-68.5 79.26,-75.5"/>
</g>
<!-- rev_cites -->
<g id="node7" class="node">
<title>rev_cites</title>
<polygon fill="none" stroke="black" points="60.12,-36 6.12,-36 6.12,0 60.12,0 60.12,-36"/>
<text xml:space="preserve" text-anchor="middle" x="33.12" y="-12.95" font-family="Times,serif" font-size="14.00">cites</text>
</g>
<!-- rev_cites&#45;&gt;RFC0364 -->
<g id="edge6" class="edge">
<title>rev_cites&#45;&gt;RFC0364</title>
<path fill="none" stroke="black" d="M60.44,-24.41C77.75,-28.62 101.85,-34.49 127.22,-40.67"/>
<polygon fill="black" stroke="black" points="126.14,-44.01 136.68,-42.97 127.79,-37.21 126.14,-44.01"/>
</g>
</g>
</svg>
