<?xml version="1.0" encoding="UTF-8" standalone="no"?>
<!DOCTYPE svg PUBLIC "-//W3C//DTD SVG 1.1//EN"
 "http://www.w3.org/Graphics/SVG/1.1/DTD/svg11.dtd">
<!-- Generated by graphviz version 14.1.1 (20251213.1925)
 -->
<!-- Title: Flow Pages: 1 -->
<svg width="1047pt" height="228pt"
 viewBox="0.00 0.00 1047.00 228.00" xmlns="http://www.w3.org/2000/svg" xmlns:xlink="http://www.w3.org/1999/xlink">
<g id="graph0" class="graph" transform="scale(1 1) rotate(0) translate(4 224.33)">
<title>Flow</title>
<polygon fill="white" stroke="none" points="-4,4 -4,-224.33 1042.6,-224.33 1042.6,4 -4,4"/>
<!-- RFC0145 -->
<g id="node1" class="node">
<title>RFC0145</title>
<g id="a_node1"><a xlink:title="None">
<ellipse fill="green" stroke="black" cx="567.56" cy="-72" rx="147.61" ry="52.33"/>
<text xml:space="preserve" text-anchor="middle" x="567.56" y="-91.7" font-family="Times,serif" font-size="14.00">RFC0145</text>
<text xml:space="preserve" text-anchor="middle" x="567.56" y="-75.2" font-family="Times,serif" font-size="14.00">Initial Connection Protocol Control</text>
<text xml:space="preserve" text-anchor="middle" x="567.56" y="-58.7" font-family="Times,serif" font-size="14.00">Commands</text>
<text xml:space="preserve" text-anchor="middle" x="567.56" y="-42.2" font-family="Times,serif" font-size="14.00">1971</text>
</a>
</g>
</g>
<!-- obs -->
<g id="node4" class="node">
<title>obs</title>
<polygon fill="lightblue" stroke="black" points="806.42,-144 740.17,-144 740.17,-108 806.42,-108 806.42,-144"/>
<text xml:space="preserve" text-anchor="middle" x="773.29" y="-120.95" font-family="Times,serif" font-size="14.00">obsoletes</text>
</g>
<!-- RFC0145&#45;&gt;obs -->
<g id="edge3" class="edge">
<title>RFC0145&#45;&gt;obs</title>
<path fill="none" stroke="black" d="M686.78,-103.33C701.7,-107.29 716.13,-111.11 728.77,-114.46"/>
<polygon fill="black" stroke="black" points="727.8,-117.83 738.36,-117.01 729.59,-111.06 727.8,-117.83"/>
</g>
<!-- updates -->
<g id="node6" class="node">
<title>updates</title>
<polygon fill="lightyellow" stroke="black" points="801.92,-90 744.67,-90 744.67,-54 801.92,-54 801.92,-90"/>
<text xml:space="preserve" text-anchor="middle" x="773.29" y="-66.95" font-family="Times,serif" font-size="14.00">updates</text>
</g>
<!-- RFC0145&#45;&gt;updates -->
<g id="edge5" class="edge">
<title>RFC0145&#45;&gt;updates</title>
<path fill="none" stroke="black" d="M715.54,-72C721.71,-72 727.6,-72 733.09,-72"/>
<polygon fill="black" stroke="black" points="732.92,-75.5 742.92,-72 732.92,-68.5 732.92,-75.5"/>
</g>
<!-- cites -->
<g id="node9" class="node">
<title>cites</title>
<polygon fill="lightblue" stroke="black" points="800.29,-36 746.29,-36 746.29,0 800.29,0 800.29,-36"/>
<text xml:space="preserve" text-anchor="middle" x="773.29" y="-12.95" font-family="Times,serif" font-size="14.00">cites</text>
</g>
<!-- RFC0145&#45;&gt;cites -->
<g id="edge8" class="edge">
<title>RFC0145&#45;&gt;cites</title>
<path fill="none" stroke="black" d="M686.78,-40.67C704.2,-36.05 720.96,-31.61 734.96,-27.9"/>
<polygon fill="black" stroke="black" points="735.79,-31.3 744.55,-25.35 733.99,-24.53 735.79,-31.3"/>
</g>
<!-- obs_by -->
<g id="node2" class="node">
<title>obs_by</title>
<polygon fill="lightblue" stroke="black" points="394.95,-172 328.7,-172 328.7,-136 394.95,-136 394.95,-172"/>
<text xml:space="preserve" text-anchor="middle" x="361.83" y="-148.95" font-family="Times,serif" font-size="14.00">obsoletes</text>
</g>
<!-- obs_by&#45;&gt;RFC0145 -->
<g id="edge1" class="edge">
<title>obs_by&#45;&gt;RFC0145</title>
<path fill="none" stroke="black" d="M395.11,-141.01C412.53,-134 435.14,-124.89 458.2,-115.61"/>
<polygon fill="black" stroke="black" points="459.44,-118.89 467.41,-111.91 456.82,-112.39 459.44,-118.89"/>
</g>
<!-- RFC0165 -->
<g id="node3" class="node">
<title>RFC0165</title>
<g id="a_node3"><a xlink:href="RFC0165.html" xlink:title="None" target="_top">
<ellipse fill="none" stroke="black" cx="151.85" cy="-168" rx="151.85" ry="52.33"/>
<text xml:space="preserve" text-anchor="middle" x="151.85" y="-187.7" font-family="Times,serif" font-size="14.00">RFC0165</text>
<text xml:space="preserve" text-anchor="middle" x="151.85" y="-171.2" font-family="Times,serif" font-size="14.00">Proffered Official Initial Connection</text>
<text xml:space="preserve" text-anchor="middle" x="151.85" y="-154.7" font-family="Times,serif" font-size="14.00">Protocol</text>
<text xml:space="preserve" text-anchor="middle" x="151.85" y="-138.2" font-family="Times,serif" font-size="14.00">1971</text>
</a>
</g>
</g>
<!-- RFC0165&#45;&gt;obs_by -->
<g id="edge2" class="edge">
<title>RFC0165&#45;&gt;obs_by</title>
<path fill="none" stroke="black" d="M301.23,-158.01C306.77,-157.64 312.1,-157.28 317.14,-156.94"/>
<polygon fill="black" stroke="black" points="317.09,-160.45 326.83,-156.29 316.62,-153.47 317.09,-160.45"/>
</g>
<!-- RFC0127 -->
<g id="node5" class="node">
<title>RFC0127</title>
<g id="a_node5"><a xlink:href="RFC0127.html" xlink:title="None" target="_top">
<ellipse fill="none" stroke="black" cx="935.01" cy="-126" rx="103.59" ry="40.66"/>
<text xml:space="preserve" text-anchor="middle" x="935.01" y="-137.45" font-family="Times,serif" font-size="14.00">RFC0127</text>
<text xml:space="preserve" text-anchor="middle" x="935.01" y="-120.95" font-family="Times,serif" font-size="14.00">Comments on RFC 123</text>
<text xml:space="preserve" text-anchor="middle" x="935.01" y="-104.45" font-family="Times,serif" font-size="14.00">1971</text>
</a>
</g>
</g>
<!-- obs&#45;&gt;RFC0127 -->
<g id="edge4" class="edge">
<title>obs&#45;&gt;RFC0127</title>
<path fill="none" stroke="black" d="M806.62,-126C810.82,-126 815.3,-126 819.97,-126"/>
<polygon fill="black" stroke="black" points="819.67,-129.5 829.67,-126 819.67,-122.5 819.67,-129.5"/>
</g>
<!-- updated_by -->
<g id="node7" class="node">
<title>updated_by</title>
<polygon fill="lightyellow" stroke="black" points="390.45,-90 333.2,-90 333.2,-54 390.45,-54 390.45,-90"/>
<text xml:space="preserve" text-anchor="middle" x="361.83" y="-66.95" font-family="Times,serif" font-size="14.00">updates</text>
</g>
<!-- updated_by&#45;&gt;RFC0145 -->
<g id="edge6" class="edge">
<title>updated_by&#45;&gt;RFC0145</title>
<path fill="none" stroke="black" d="M390.73,-72C396.1,-72 402.08,-72 408.48,-72"/>
<polygon fill="black" stroke="black" points="408.12,-75.5 418.12,-72 408.12,-68.5 408.12,-75.5"/>
</g>
<!-- RFC0143 -->
<g id="node8" class="node">
<title>RFC0143</title>
<g id="a_node8"><a xlink:href="RFC0143.html" xlink:title="None" target="_top">
<ellipse fill="none" stroke="black" cx="151.85" cy="-57" rx="137" ry="40.66"/>
<text xml:space="preserve" text-anchor="middle" x="151.85" y="-68.45" font-family="Times,serif" font-size="14.00">RFC0143</text>
<text xml:space="preserve" text-anchor="middle" x="151.85" y="-51.95" font-family="Times,serif" font-size="14.00">Regarding proffered official ICP</text>
<text xml:space="preserve" text-anchor="middle" x="151.85" y="-35.45" font-family="Times,serif" font-size="14.00">1971</text>
</a>
</g>
</g>
<!-- RFC0143&#45;&gt;updated_by -->
<g id="edge7" class="edge">
<title>RFC0143&#45;&gt;updated_by</title>
<path fill="none" stroke="black" d="M285.45,-66.56C298.33,-67.49 310.58,-68.38 321.31,-69.15"/>
<polygon fill="black" stroke="black" points="321,-72.64 331.23,-69.87 321.51,-65.65 321,-72.64"/>
</g>
<!-- rev_cites -->
<g id="node10" class="node">
<title>rev_cites</title>
<polygon fill="lightblue" stroke="black" points="388.83,-36 334.83,-36 334.83,0 388.83,0 388.83,-36"/>
<text xml:space="preserve" text-anchor="middle" x="361.83" y="-12.95" font-family="Times,serif" font-size="14.00">cites</text>
</g>
<!-- rev_cites&#45;&gt;RFC0145 -->
<g id="edge9" class="edge">
<title>rev_cites&#45;&gt;RFC0145</title>
<path fill="none" stroke="black" d="M389.04,-24.95C402.25,-28.45 419.34,-32.98 437.7,-37.84"/>
<polygon fill="black" stroke="black" points="436.6,-41.17 447.16,-40.35 438.4,-34.41 436.6,-41.17"/>
</g>
</g>
</svg>
