<?xml version="1.0" encoding="UTF-8" standalone="no"?>
<!DOCTYPE svg PUBLIC "-//W3C//DTD SVG 1.1//EN"
 "http://www.w3.org/Graphics/SVG/1.1/DTD/svg11.dtd">
<!-- Generated by graphviz version 14.1.1 (20251213.1925)
 -->
<!-- Title: Flow Pages: 1 -->
<svg width="505pt" height="152pt"
 viewBox="0.00 0.00 505.00 152.00" xmlns="http://www.w3.org/2000/svg" xmlns:xlink="http://www.w3.org/1999/xlink">
<g id="graph0" class="graph" transform="scale(1 1) rotate(0) translate(4 148)">
<title>Flow</title>
<polygon fill="white" stroke="none" points="-4,4 -4,-148 500.81,-148 500.81,4 -4,4"/>
<!-- RFC0505 -->
<g id="node1" class="node">
<title>RFC0505</title>
<g id="a_node1"><a xlink:title="None">
<ellipse fill="none" stroke="black" cx="248.4" cy="-72" rx="157.15" ry="52.33"/>
<text xml:space="preserve" text-anchor="middle" x="248.4" y="-91.7" font-family="Times,serif" font-size="14.00">RFC0505</text>
<text xml:space="preserve" text-anchor="middle" x="248.4" y="-75.2" font-family="Times,serif" font-size="14.00">Two solutions to a file transfer access</text>
<text xml:space="preserve" text-anchor="middle" x="248.4" y="-58.7" font-family="Times,serif" font-size="14.00">problem</text>
<text xml:space="preserve" text-anchor="middle" x="248.4" y="-42.2" font-family="Times,serif" font-size="14.00">1973</text>
</a>
</g>
</g>
<!-- obs -->
<g id="node3" class="node">
<title>obs</title>
<polygon fill="none" stroke="black" points="496.81,-144 430.56,-144 430.56,-108 496.81,-108 496.81,-144"/>
<text xml:space="preserve" text-anchor="middle" x="463.68" y="-120.95" font-family="Times,serif" font-size="14.00">obsoletes</text>
</g>
<!-- RFC0505&#45;&gt;obs -->
<g id="edge2" class="edge">
<title>RFC0505&#45;&gt;obs</title>
<path fill="none" stroke="black" d="M374.4,-103.65C390.59,-107.75 406.2,-111.7 419.68,-115.11"/>
<polygon fill="black" stroke="black" points="418.44,-118.41 428.99,-117.47 420.16,-111.62 418.44,-118.41"/>
</g>
<!-- updates -->
<g id="node4" class="node">
<title>updates</title>
<polygon fill="none" stroke="black" points="492.31,-90 435.06,-90 435.06,-54 492.31,-54 492.31,-90"/>
<text xml:space="preserve" text-anchor="middle" x="463.68" y="-66.95" font-family="Times,serif" font-size="14.00">updates</text>
</g>
<!-- RFC0505&#45;&gt;updates -->
<g id="edge3" class="edge">
<title>RFC0505&#45;&gt;updates</title>
<path fill="none" stroke="black" d="M405.81,-72C412.03,-72 417.95,-72 423.47,-72"/>
<polygon fill="black" stroke="black" points="423.33,-75.5 433.33,-72 423.33,-68.5 423.33,-75.5"/>
</g>
<!-- cites -->
<g id="node6" class="node">
<title>cites</title>
<polygon fill="none" stroke="black" points="490.68,-36 436.68,-36 436.68,0 490.68,0 490.68,-36"/>
<text xml:space="preserve" text-anchor="middle" x="463.68" y="-12.95" font-family="Times,serif" font-size="14.00">cites</text>
</g>
<!-- RFC0505&#45;&gt;cites -->
<g id="edge5" class="edge">
<title>RFC0505&#45;&gt;cites</title>
<path fill="none" stroke="black" d="M374.4,-40.35C392.9,-35.67 410.65,-31.17 425.32,-27.46"/>
<polygon fill="black" stroke="black" points="426.07,-30.88 434.91,-25.03 424.36,-24.09 426.07,-30.88"/>
</g>
<!-- obs_by -->
<g id="node2" class="node">
<title>obs_by</title>
<polygon fill="none" stroke="black" points="66.25,-144 0,-144 0,-108 66.25,-108 66.25,-144"/>
<text xml:space="preserve" text-anchor="middle" x="33.12" y="-120.95" font-family="Times,serif" font-size="14.00">obsoletes</text>
</g>
<!-- obs_by&#45;&gt;RFC0505 -->
<g id="edge1" class="edge">
<title>obs_by&#45;&gt;RFC0505</title>
<path fill="none" stroke="black" d="M66.52,-117.8C79.23,-114.58 94.74,-110.65 111.28,-106.47"/>
<polygon fill="black" stroke="black" points="111.97,-109.9 120.8,-104.05 110.25,-103.12 111.97,-109.9"/>
</g>
<!-- updated_by -->
<g id="node5" class="node">
<title>updated_by</title>
<polygon fill="none" stroke="black" points="61.75,-90 4.5,-90 4.5,-54 61.75,-54 61.75,-90"/>
<text xml:space="preserve" text-anchor="middle" x="33.12" y="-66.95" font-family="Times,serif" font-size="14.00">updates</text>
</g>
<!-- updated_by&#45;&gt;RFC0505 -->
<g id="edge4" class="edge">
<title>updated_by&#45;&gt;RFC0505</title>
<path fill="none" stroke="black" d="M62.01,-72C67.36,-72 73.31,-72 79.7,-72"/>
<polygon fill="black" stroke="black" points="79.34,-75.5 89.34,-72 79.34,-68.5 79.34,-75.5"/>
</g>
<!-- rev_cites -->
<g id="node7" class="node">
<title>rev_cites</title>
<polygon fill="none" stroke="black" points="60.12,-36 6.12,-36 6.12,0 60.12,0 60.12,-36"/>
<text xml:space="preserve" text-anchor="middle" x="33.12" y="-12.95" font-family="Times,serif" font-size="14.00">cites</text>
</g>
<!-- rev_cites&#45;&gt;RFC0505 -->
<g id="edge6" class="edge">
<title>rev_cites&#45;&gt;RFC0505</title>
<path fill="none" stroke="black" d="M60.28,-24.62C74.07,-28.11 92.17,-32.7 111.67,-37.63"/>
<polygon fill="black" stroke="black" points="110.61,-40.97 121.16,-40.04 112.32,-34.19 110.61,-40.97"/>
</g>
</g>
</svg>
