<?xml version="1.0" encoding="UTF-8" standalone="no"?>
<!DOCTYPE svg PUBLIC "-//W3C//DTD SVG 1.1//EN"
 "http://www.w3.org/Graphics/SVG/1.1/DTD/svg11.dtd">
<!-- Generated by graphviz version 14.1.1 (20251213.1925)
 -->
<!-- Title: Flow Pages: 1 -->
<svg width="979pt" height="175pt"
 viewBox="0.00 0.00 979.00 175.00" xmlns="http://www.w3.org/2000/svg" xmlns:xlink="http://www.w3.org/1999/xlink">
<g id="graph0" class="graph" transform="scale(1 1) rotate(0) translate(4 170.66)">
<title>Flow</title>
<polygon fill="white" stroke="none" points="-4,4 -4,-170.66 974.72,-170.66 974.72,4 -4,4"/>
<!-- RFC0198 -->
<g id="node1" class="node">
<title>RFC0198</title>
<g id="a_node1"><a xlink:title="None">
<ellipse fill="none" stroke="black" cx="460.43" cy="-72" rx="165.64" ry="40.66"/>
<text xml:space="preserve" text-anchor="middle" x="460.43" y="-83.45" font-family="Times,serif" font-size="14.00">RFC0198</text>
<text xml:space="preserve" text-anchor="middle" x="460.43" y="-66.95" font-family="Times,serif" font-size="14.00">Site Certification &#45; Lincoln Labs 360/67</text>
<text xml:space="preserve" text-anchor="middle" x="460.43" y="-50.45" font-family="Times,serif" font-size="14.00">1971</text>
</a>
</g>
</g>
<!-- obs -->
<g id="node4" class="node">
<title>obs</title>
<polygon fill="none" stroke="black" points="717.32,-144 651.07,-144 651.07,-108 717.32,-108 717.32,-144"/>
<text xml:space="preserve" text-anchor="middle" x="684.2" y="-120.95" font-family="Times,serif" font-size="14.00">obsoletes</text>
</g>
<!-- RFC0198&#45;&gt;obs -->
<g id="edge3" class="edge">
<title>RFC0198&#45;&gt;obs</title>
<path fill="none" stroke="black" d="M579.13,-100.66C600.73,-105.92 621.99,-111.1 639.6,-115.38"/>
<polygon fill="black" stroke="black" points="638.6,-118.74 649.14,-117.71 640.26,-111.94 638.6,-118.74"/>
</g>
<!-- updates -->
<g id="node5" class="node">
<title>updates</title>
<polygon fill="none" stroke="black" points="712.82,-90 655.57,-90 655.57,-54 712.82,-54 712.82,-90"/>
<text xml:space="preserve" text-anchor="middle" x="684.2" y="-66.95" font-family="Times,serif" font-size="14.00">updates</text>
</g>
<!-- RFC0198&#45;&gt;updates -->
<g id="edge4" class="edge">
<title>RFC0198&#45;&gt;updates</title>
<path fill="none" stroke="black" d="M626.38,-72C632.55,-72 638.42,-72 643.89,-72"/>
<polygon fill="black" stroke="black" points="643.65,-75.5 653.65,-72 643.65,-68.5 643.65,-75.5"/>
</g>
<!-- cites -->
<g id="node8" class="node">
<title>cites</title>
<polygon fill="none" stroke="black" points="711.2,-36 657.2,-36 657.2,0 711.2,0 711.2,-36"/>
<text xml:space="preserve" text-anchor="middle" x="684.2" y="-12.95" font-family="Times,serif" font-size="14.00">cites</text>
</g>
<!-- RFC0198&#45;&gt;cites -->
<g id="edge7" class="edge">
<title>RFC0198&#45;&gt;cites</title>
<path fill="none" stroke="black" d="M579.13,-43.34C603.34,-37.44 627.12,-31.66 645.82,-27.1"/>
<polygon fill="black" stroke="black" points="646.41,-30.56 655.29,-24.79 644.75,-23.76 646.41,-30.56"/>
</g>
<!-- obs_by -->
<g id="node2" class="node">
<title>obs_by</title>
<polygon fill="none" stroke="black" points="269.79,-144 203.54,-144 203.54,-108 269.79,-108 269.79,-144"/>
<text xml:space="preserve" text-anchor="middle" x="236.67" y="-120.95" font-family="Times,serif" font-size="14.00">obsoletes</text>
</g>
<!-- obs_by&#45;&gt;RFC0198 -->
<g id="edge1" class="edge">
<title>obs_by&#45;&gt;RFC0198</title>
<path fill="none" stroke="black" d="M269.92,-118.15C286.54,-114.1 308.01,-108.87 330.51,-103.39"/>
<polygon fill="black" stroke="black" points="331.26,-106.81 340.15,-101.05 329.6,-100.01 331.26,-106.81"/>
</g>
<!-- RFC0214 -->
<g id="node3" class="node">
<title>RFC0214</title>
<g id="a_node3"><a xlink:href="RFC0214.html" xlink:title="None" target="_top">
<ellipse fill="none" stroke="black" cx="89.27" cy="-126" rx="89.27" ry="40.66"/>
<text xml:space="preserve" text-anchor="middle" x="89.27" y="-137.45" font-family="Times,serif" font-size="14.00">RFC0214</text>
<text xml:space="preserve" text-anchor="middle" x="89.27" y="-120.95" font-family="Times,serif" font-size="14.00">Network checkpoint</text>
<text xml:space="preserve" text-anchor="middle" x="89.27" y="-104.45" font-family="Times,serif" font-size="14.00">1971</text>
</a>
</g>
</g>
<!-- RFC0214&#45;&gt;obs_by -->
<g id="edge2" class="edge">
<title>RFC0214&#45;&gt;obs_by</title>
<path fill="none" stroke="black" d="M179.04,-126C183.43,-126 187.74,-126 191.89,-126"/>
<polygon fill="black" stroke="black" points="191.64,-129.5 201.64,-126 191.64,-122.5 191.64,-129.5"/>
</g>
<!-- RFC0193 -->
<g id="node6" class="node">
<title>RFC0193</title>
<g id="a_node6"><a xlink:href="RFC0193.html" xlink:title="None" target="_top">
<ellipse fill="none" stroke="black" cx="856.52" cy="-72" rx="114.2" ry="40.66"/>
<text xml:space="preserve" text-anchor="middle" x="856.52" y="-83.45" font-family="Times,serif" font-size="14.00">RFC0193</text>
<text xml:space="preserve" text-anchor="middle" x="856.52" y="-66.95" font-family="Times,serif" font-size="14.00">NETWORK CHECKOUT</text>
<text xml:space="preserve" text-anchor="middle" x="856.52" y="-50.45" font-family="Times,serif" font-size="14.00">1971</text>
</a>
</g>
</g>
<!-- updates&#45;&gt;RFC0193 -->
<g id="edge5" class="edge">
<title>updates&#45;&gt;RFC0193</title>
<path fill="none" stroke="black" d="M712.94,-72C718.38,-72 724.4,-72 730.8,-72"/>
<polygon fill="black" stroke="black" points="730.39,-75.5 740.39,-72 730.39,-68.5 730.39,-75.5"/>
</g>
<!-- updated_by -->
<g id="node7" class="node">
<title>updated_by</title>
<polygon fill="none" stroke="black" points="265.29,-90 208.04,-90 208.04,-54 265.29,-54 265.29,-90"/>
<text xml:space="preserve" text-anchor="middle" x="236.67" y="-66.95" font-family="Times,serif" font-size="14.00">updates</text>
</g>
<!-- updated_by&#45;&gt;RFC0198 -->
<g id="edge6" class="edge">
<title>updated_by&#45;&gt;RFC0198</title>
<path fill="none" stroke="black" d="M265.76,-72C270.93,-72 276.66,-72 282.81,-72"/>
<polygon fill="black" stroke="black" points="282.8,-75.5 292.8,-72 282.8,-68.5 282.8,-75.5"/>
</g>
<!-- rev_cites -->
<g id="node9" class="node">
<title>rev_cites</title>
<polygon fill="none" stroke="black" points="263.67,-36 209.67,-36 209.67,0 263.67,0 263.67,-36"/>
<text xml:space="preserve" text-anchor="middle" x="236.67" y="-12.95" font-family="Times,serif" font-size="14.00">cites</text>
</g>
<!-- rev_cites&#45;&gt;RFC0198 -->
<g id="edge8" class="edge">
<title>rev_cites&#45;&gt;RFC0198</title>
<path fill="none" stroke="black" d="M263.98,-24.41C281.3,-28.62 305.39,-34.49 330.76,-40.67"/>
<polygon fill="black" stroke="black" points="329.68,-44.01 340.22,-42.97 331.34,-37.21 329.68,-44.01"/>
</g>
</g>
</svg>
