<?xml version="1.0" encoding="UTF-8" standalone="no"?>
<!DOCTYPE svg PUBLIC "-//W3C//DTD SVG 1.1//EN"
 "http://www.w3.org/Graphics/SVG/1.1/DTD/svg11.dtd">
<!-- Generated by graphviz version 14.1.1 (20251213.1925)
 -->
<!-- Title: Flow Pages: 1 -->
<svg width="925pt" height="198pt"
 viewBox="0.00 0.00 925.00 198.00" xmlns="http://www.w3.org/2000/svg" xmlns:xlink="http://www.w3.org/1999/xlink">
<g id="graph0" class="graph" transform="scale(1 1) rotate(0) translate(4 193.99)">
<title>Flow</title>
<polygon fill="white" stroke="none" points="-4,4 -4,-193.99 920.73,-193.99 920.73,4 -4,4"/>
<!-- RFC0986 -->
<g id="node1" class="node">
<title>RFC0986</title>
<g id="a_node1"><a xlink:title="This RFC suggests a method to allow the existing IP addressing, including the IP protocol field, to be used for the ISO Connectionless Network Protocol (CLNP). &#160;This is a draft solution to one of the problems inherent in the use of ISO&#45;grams in the DOD Internet. &#160;Related issues will be discussed in subsequent RFCs. &#160;This RFC suggests a proposed protocol for the ARPA&#45;Internet community, and requests discussion and suggestions for improvements.">
<ellipse fill="none" stroke="black" cx="648.17" cy="-72" rx="177.31" ry="63.99"/>
<text xml:space="preserve" text-anchor="middle" x="648.17" y="-99.95" font-family="Times,serif" font-size="14.00">RFC0986</text>
<text xml:space="preserve" text-anchor="middle" x="648.17" y="-83.45" font-family="Times,serif" font-size="14.00">Guidelines for the use of Internet&#45;IP</text>
<text xml:space="preserve" text-anchor="middle" x="648.17" y="-66.95" font-family="Times,serif" font-size="14.00">addresses in the ISO Connectionless&#45;Mode</text>
<text xml:space="preserve" text-anchor="middle" x="648.17" y="-50.45" font-family="Times,serif" font-size="14.00">Network Protocol</text>
<text xml:space="preserve" text-anchor="middle" x="648.17" y="-33.95" font-family="Times,serif" font-size="14.00">1986</text>
</a>
</g>
</g>
<!-- obs -->
<g id="node4" class="node">
<title>obs</title>
<polygon fill="none" stroke="black" points="916.73,-144 850.48,-144 850.48,-108 916.73,-108 916.73,-144"/>
<text xml:space="preserve" text-anchor="middle" x="883.6" y="-120.95" font-family="Times,serif" font-size="14.00">obsoletes</text>
</g>
<!-- RFC0986&#45;&gt;obs -->
<g id="edge3" class="edge">
<title>RFC0986&#45;&gt;obs</title>
<path fill="none" stroke="black" d="M798.33,-106.5C812.95,-109.89 826.84,-113.1 838.97,-115.91"/>
<polygon fill="black" stroke="black" points="838.02,-119.28 848.55,-118.12 839.59,-112.46 838.02,-119.28"/>
</g>
<!-- updates -->
<g id="node5" class="node">
<title>updates</title>
<polygon fill="none" stroke="black" points="912.23,-90 854.98,-90 854.98,-54 912.23,-54 912.23,-90"/>
<text xml:space="preserve" text-anchor="middle" x="883.6" y="-66.95" font-family="Times,serif" font-size="14.00">updates</text>
</g>
<!-- RFC0986&#45;&gt;updates -->
<g id="edge4" class="edge">
<title>RFC0986&#45;&gt;updates</title>
<path fill="none" stroke="black" d="M825.8,-72C832,-72 837.9,-72 843.38,-72"/>
<polygon fill="black" stroke="black" points="843.15,-75.5 853.15,-72 843.15,-68.5 843.15,-75.5"/>
</g>
<!-- cites -->
<g id="node7" class="node">
<title>cites</title>
<polygon fill="none" stroke="black" points="910.6,-36 856.6,-36 856.6,0 910.6,0 910.6,-36"/>
<text xml:space="preserve" text-anchor="middle" x="883.6" y="-12.95" font-family="Times,serif" font-size="14.00">cites</text>
</g>
<!-- RFC0986&#45;&gt;cites -->
<g id="edge6" class="edge">
<title>RFC0986&#45;&gt;cites</title>
<path fill="none" stroke="black" d="M798.33,-37.5C815.47,-33.53 831.59,-29.8 845.06,-26.69"/>
<polygon fill="black" stroke="black" points="845.74,-30.12 854.69,-24.46 844.16,-23.3 845.74,-30.12"/>
</g>
<!-- obs_by -->
<g id="node2" class="node">
<title>obs_by</title>
<polygon fill="none" stroke="black" points="445.86,-144 379.61,-144 379.61,-108 445.86,-108 445.86,-144"/>
<text xml:space="preserve" text-anchor="middle" x="412.74" y="-120.95" font-family="Times,serif" font-size="14.00">obsoletes</text>
</g>
<!-- obs_by&#45;&gt;RFC0986 -->
<g id="edge1" class="edge">
<title>obs_by&#45;&gt;RFC0986</title>
<path fill="none" stroke="black" d="M446.2,-118.49C457.79,-115.81 471.76,-112.58 486.86,-109.08"/>
<polygon fill="black" stroke="black" points="487.62,-112.5 496.57,-106.84 486.04,-105.68 487.62,-112.5"/>
</g>
<!-- RFC1069 -->
<g id="node3" class="node">
<title>RFC1069</title>
<g id="a_node3"><a xlink:href="RFC1069.html" xlink:title="This RFC suggests an addressing scheme for use with the ISO Connectionless Network Protocol (CLNP) in the Internet. &#160;This is a solution to one of the problems inherent in the use of ISO&#45;grams in the Internet. &#160;This memo is a revision of RFC 986. &#160;This RFC suggests a proposed protocol for the Internet community, and requests discussion and suggestions for improvements." target="_top">
<ellipse fill="none" stroke="black" cx="177.31" cy="-126" rx="177.31" ry="63.99"/>
<text xml:space="preserve" text-anchor="middle" x="177.31" y="-153.95" font-family="Times,serif" font-size="14.00">RFC1069</text>
<text xml:space="preserve" text-anchor="middle" x="177.31" y="-137.45" font-family="Times,serif" font-size="14.00">Guidelines for the use of Internet&#45;IP</text>
<text xml:space="preserve" text-anchor="middle" x="177.31" y="-120.95" font-family="Times,serif" font-size="14.00">addresses in the ISO Connectionless&#45;Mode</text>
<text xml:space="preserve" text-anchor="middle" x="177.31" y="-104.45" font-family="Times,serif" font-size="14.00">Network Protocol</text>
<text xml:space="preserve" text-anchor="middle" x="177.31" y="-87.95" font-family="Times,serif" font-size="14.00">1989</text>
</a>
</g>
</g>
<!-- RFC1069&#45;&gt;obs_by -->
<g id="edge2" class="edge">
<title>RFC1069&#45;&gt;obs_by</title>
<path fill="none" stroke="black" d="M354.93,-126C359.48,-126 363.86,-126 368.03,-126"/>
<polygon fill="black" stroke="black" points="367.69,-129.5 377.69,-126 367.69,-122.5 367.69,-129.5"/>
</g>
<!-- updated_by -->
<g id="node6" class="node">
<title>updated_by</title>
<polygon fill="none" stroke="black" points="441.36,-90 384.11,-90 384.11,-54 441.36,-54 441.36,-90"/>
<text xml:space="preserve" text-anchor="middle" x="412.74" y="-66.95" font-family="Times,serif" font-size="14.00">updates</text>
</g>
<!-- updated_by&#45;&gt;RFC0986 -->
<g id="edge5" class="edge">
<title>updated_by&#45;&gt;RFC0986</title>
<path fill="none" stroke="black" d="M441.43,-72C446.85,-72 452.89,-72 459.42,-72"/>
<polygon fill="black" stroke="black" points="459.31,-75.5 469.31,-72 459.31,-68.5 459.31,-75.5"/>
</g>
<!-- rev_cites -->
<g id="node8" class="node">
<title>rev_cites</title>
<polygon fill="none" stroke="black" points="439.74,-36 385.74,-36 385.74,0 439.74,0 439.74,-36"/>
<text xml:space="preserve" text-anchor="middle" x="412.74" y="-12.95" font-family="Times,serif" font-size="14.00">cites</text>
</g>
<!-- rev_cites&#45;&gt;RFC0986 -->
<g id="edge7" class="edge">
<title>rev_cites&#45;&gt;RFC0986</title>
<path fill="none" stroke="black" d="M440.06,-24.09C452.76,-27.03 469.14,-30.82 487.11,-34.97"/>
<polygon fill="black" stroke="black" points="486.17,-38.35 496.7,-37.19 487.75,-31.53 486.17,-38.35"/>
</g>
</g>
</svg>
