<?xml version="1.0" encoding="UTF-8" standalone="no"?>
<!DOCTYPE svg PUBLIC "-//W3C//DTD SVG 1.1//EN"
 "http://www.w3.org/Graphics/SVG/1.1/DTD/svg11.dtd">
<!-- Generated by graphviz version 14.1.1 (20251213.1925)
 -->
<!-- Title: Flow Pages: 1 -->
<svg width="654pt" height="152pt"
 viewBox="0.00 0.00 654.00 152.00" xmlns="http://www.w3.org/2000/svg" xmlns:xlink="http://www.w3.org/1999/xlink">
<g id="graph0" class="graph" transform="scale(1 1) rotate(0) translate(4 148)">
<title>Flow</title>
<polygon fill="white" stroke="none" points="-4,4 -4,-148 650.17,-148 650.17,4 -4,4"/>
<!-- RFC0270 -->
<g id="node1" class="node">
<title>RFC0270</title>
<g id="a_node1"><a xlink:title="None">
<ellipse fill="green" stroke="black" cx="265.38" cy="-72" rx="174.13" ry="52.33"/>
<text xml:space="preserve" text-anchor="middle" x="265.38" y="-91.7" font-family="Times,serif" font-size="14.00">RFC0270</text>
<text xml:space="preserve" text-anchor="middle" x="265.38" y="-75.2" font-family="Times,serif" font-size="14.00">Correction to BBN Report No. 1822 (NIC</text>
<text xml:space="preserve" text-anchor="middle" x="265.38" y="-58.7" font-family="Times,serif" font-size="14.00">NO 7958)</text>
<text xml:space="preserve" text-anchor="middle" x="265.38" y="-42.2" font-family="Times,serif" font-size="14.00">1972</text>
</a>
</g>
</g>
<!-- obs -->
<g id="node3" class="node">
<title>obs</title>
<polygon fill="lightblue" stroke="black" points="530.75,-144 464.5,-144 464.5,-108 530.75,-108 530.75,-144"/>
<text xml:space="preserve" text-anchor="middle" x="497.63" y="-120.95" font-family="Times,serif" font-size="14.00">obsoletes</text>
</g>
<!-- RFC0270&#45;&gt;obs -->
<g id="edge2" class="edge">
<title>RFC0270&#45;&gt;obs</title>
<path fill="none" stroke="black" d="M403.64,-104.19C421.42,-108.36 438.47,-112.36 453,-115.77"/>
<polygon fill="black" stroke="black" points="452.08,-119.15 462.61,-118.02 453.67,-112.33 452.08,-119.15"/>
</g>
<!-- updates -->
<g id="node4" class="node">
<title>updates</title>
<polygon fill="lightyellow" stroke="black" points="526.25,-90 469,-90 469,-54 526.25,-54 526.25,-90"/>
<text xml:space="preserve" text-anchor="middle" x="497.63" y="-66.95" font-family="Times,serif" font-size="14.00">updates</text>
</g>
<!-- RFC0270&#45;&gt;updates -->
<g id="edge3" class="edge">
<title>RFC0270&#45;&gt;updates</title>
<path fill="none" stroke="black" d="M439.71,-72C445.91,-72 451.81,-72 457.3,-72"/>
<polygon fill="black" stroke="black" points="457.09,-75.5 467.09,-72 457.09,-68.5 457.09,-75.5"/>
</g>
<!-- cites -->
<g id="node7" class="node">
<title>cites</title>
<polygon fill="lightblue" stroke="black" points="524.63,-36 470.63,-36 470.63,0 524.63,0 524.63,-36"/>
<text xml:space="preserve" text-anchor="middle" x="497.63" y="-12.95" font-family="Times,serif" font-size="14.00">cites</text>
</g>
<!-- RFC0270&#45;&gt;cites -->
<g id="edge6" class="edge">
<title>RFC0270&#45;&gt;cites</title>
<path fill="none" stroke="black" d="M403.64,-39.81C424.1,-35.01 443.59,-30.44 459.39,-26.73"/>
<polygon fill="black" stroke="black" points="459.8,-30.23 468.73,-24.54 458.2,-23.42 459.8,-30.23"/>
</g>
<!-- obs_by -->
<g id="node2" class="node">
<title>obs_by</title>
<polygon fill="lightblue" stroke="black" points="66.25,-144 0,-144 0,-108 66.25,-108 66.25,-144"/>
<text xml:space="preserve" text-anchor="middle" x="33.12" y="-120.95" font-family="Times,serif" font-size="14.00">obsoletes</text>
</g>
<!-- obs_by&#45;&gt;RFC0270 -->
<g id="edge1" class="edge">
<title>obs_by&#45;&gt;RFC0270</title>
<path fill="none" stroke="black" d="M66.63,-118.38C80.46,-115.13 97.66,-111.1 116.1,-106.78"/>
<polygon fill="black" stroke="black" points="116.67,-110.24 125.61,-104.55 115.07,-103.42 116.67,-110.24"/>
</g>
<!-- NIC7959 -->
<g id="node5" class="node">
<title>NIC7959</title>
<g id="a_node5"><a xlink:href="NIC7959.html" xlink:title="NIC7959&#10;" target="_top">
<ellipse fill="none" stroke="black" cx="600.96" cy="-72" rx="45.21" ry="18"/>
<text xml:space="preserve" text-anchor="middle" x="600.96" y="-66.95" font-family="Times,serif" font-size="14.00">NIC7959</text>
</a>
</g>
</g>
<!-- updates&#45;&gt;NIC7959 -->
<g id="edge4" class="edge">
<title>updates&#45;&gt;NIC7959</title>
<path fill="none" stroke="black" d="M526.58,-72C532.01,-72 537.87,-72 543.84,-72"/>
<polygon fill="black" stroke="black" points="543.84,-75.5 553.84,-72 543.84,-68.5 543.84,-75.5"/>
</g>
<!-- updated_by -->
<g id="node6" class="node">
<title>updated_by</title>
<polygon fill="lightyellow" stroke="black" points="61.75,-90 4.5,-90 4.5,-54 61.75,-54 61.75,-90"/>
<text xml:space="preserve" text-anchor="middle" x="33.12" y="-66.95" font-family="Times,serif" font-size="14.00">updates</text>
</g>
<!-- updated_by&#45;&gt;RFC0270 -->
<g id="edge5" class="edge">
<title>updated_by&#45;&gt;RFC0270</title>
<path fill="none" stroke="black" d="M61.9,-72C67.26,-72 73.24,-72 79.68,-72"/>
<polygon fill="black" stroke="black" points="79.42,-75.5 89.42,-72 79.42,-68.5 79.42,-75.5"/>
</g>
<!-- rev_cites -->
<g id="node8" class="node">
<title>rev_cites</title>
<polygon fill="lightblue" stroke="black" points="60.12,-36 6.12,-36 6.12,0 60.12,0 60.12,-36"/>
<text xml:space="preserve" text-anchor="middle" x="33.12" y="-12.95" font-family="Times,serif" font-size="14.00">cites</text>
</g>
<!-- rev_cites&#45;&gt;RFC0270 -->
<g id="edge7" class="edge">
<title>rev_cites&#45;&gt;RFC0270</title>
<path fill="none" stroke="black" d="M60.54,-24.19C75.29,-27.65 94.98,-32.27 116.31,-37.27"/>
<polygon fill="black" stroke="black" points="115.24,-40.62 125.77,-39.49 116.84,-33.8 115.24,-40.62"/>
</g>
</g>
</svg>
