<?xml version="1.0" encoding="UTF-8" standalone="no"?>
<!DOCTYPE svg PUBLIC "-//W3C//DTD SVG 1.1//EN"
 "http://www.w3.org/Graphics/SVG/1.1/DTD/svg11.dtd">
<!-- Generated by graphviz version 14.1.1 (20251213.1925)
 -->
<!-- Title: Flow Pages: 1 -->
<svg width="1568pt" height="858pt"
 viewBox="0.00 0.00 1568.00 858.00" xmlns="http://www.w3.org/2000/svg" xmlns:xlink="http://www.w3.org/1999/xlink">
<g id="graph0" class="graph" transform="scale(1 1) rotate(0) translate(4 853.89)">
<title>Flow</title>
<polygon fill="white" stroke="none" points="-4,4 -4,-853.89 1564.13,-853.89 1564.13,4 -4,4"/>
<!-- RFC0780 -->
<g id="node1" class="node">
<title>RFC0780</title>
<g id="a_node1"><a xlink:title="None">
<ellipse fill="green" stroke="black" stroke-width="3" cx="795.18" cy="-424.95" rx="128.52" ry="50.2"/>
<text xml:space="preserve" text-anchor="middle" x="795.18" y="-439.35" font-family="Times,serif" font-size="18.00">RFC0780</text>
<text xml:space="preserve" text-anchor="middle" x="795.18" y="-418.35" font-family="Times,serif" font-size="18.00">Mail Transfer Protocol</text>
<text xml:space="preserve" text-anchor="middle" x="795.18" y="-397.35" font-family="Times,serif" font-size="18.00">1981</text>
</a>
</g>
</g>
<!-- obs -->
<g id="node4" class="node">
<title>obs</title>
<polygon fill="lightblue" stroke="black" points="1161.11,-635.09 1094.86,-635.09 1094.86,-599.09 1161.11,-599.09 1161.11,-635.09"/>
<text xml:space="preserve" text-anchor="middle" x="1127.98" y="-612.04" font-family="Times,serif" font-size="14.00">obsoletes</text>
</g>
<!-- RFC0780&#45;&gt;obs -->
<g id="edge3" class="edge">
<title>RFC0780&#45;&gt;obs</title>
<path fill="none" stroke="black" d="M868.63,-467.35C935.48,-505.95 1031.81,-561.57 1086.3,-593.02"/>
<polygon fill="black" stroke="black" points="1084.24,-595.88 1094.66,-597.85 1087.74,-589.82 1084.24,-595.88"/>
</g>
<!-- updates -->
<g id="node6" class="node">
<title>updates</title>
<polygon fill="lightyellow" stroke="black" points="823.81,-827.23 766.56,-827.23 766.56,-791.23 823.81,-791.23 823.81,-827.23"/>
<text xml:space="preserve" text-anchor="middle" x="795.18" y="-804.18" font-family="Times,serif" font-size="14.00">updates</text>
</g>
<!-- RFC0780&#45;&gt;updates -->
<g id="edge5" class="edge">
<title>RFC0780&#45;&gt;updates</title>
<path fill="none" stroke="black" d="M795.18,-476.37C795.18,-557.84 795.18,-714.01 795.18,-779.34"/>
<polygon fill="black" stroke="black" points="791.68,-779.28 795.18,-789.28 798.68,-779.28 791.68,-779.28"/>
</g>
<!-- cites -->
<g id="node8" class="node">
<title>cites</title>
<polygon fill="lightblue" stroke="black" points="489.38,-635.09 435.38,-635.09 435.38,-599.09 489.38,-599.09 489.38,-635.09"/>
<text xml:space="preserve" text-anchor="middle" x="462.38" y="-612.04" font-family="Times,serif" font-size="14.00">cites</text>
</g>
<!-- RFC0780&#45;&gt;cites -->
<g id="edge7" class="edge">
<title>RFC0780&#45;&gt;cites</title>
<path fill="none" stroke="black" d="M721.73,-467.35C652.86,-507.11 552.7,-564.94 499.25,-595.8"/>
<polygon fill="black" stroke="black" points="497.73,-592.63 490.82,-600.67 501.23,-598.7 497.73,-592.63"/>
</g>
<!-- obs_by -->
<g id="node2" class="node">
<title>obs_by</title>
<polygon fill="lightblue" stroke="black" points="495.5,-250.8 429.25,-250.8 429.25,-214.8 495.5,-214.8 495.5,-250.8"/>
<text xml:space="preserve" text-anchor="middle" x="462.38" y="-227.75" font-family="Times,serif" font-size="14.00">obsoletes</text>
</g>
<!-- obs_by&#45;&gt;RFC0780 -->
<g id="edge1" class="edge">
<title>obs_by&#45;&gt;RFC0780</title>
<path fill="none" stroke="black" d="M494.29,-251.23C543.93,-279.89 641.28,-336.09 711.84,-376.83"/>
<polygon fill="black" stroke="black" points="709.89,-379.74 720.3,-381.71 713.39,-373.68 709.89,-379.74"/>
</g>
<!-- RFC0788 -->
<g id="node3" class="node">
<title>RFC0788</title>
<g id="a_node3"><a xlink:href="RFC0788.html" xlink:title="None" target="_top">
<ellipse fill="none" stroke="black" cx="129.58" cy="-40.66" rx="129.58" ry="40.66"/>
<text xml:space="preserve" text-anchor="middle" x="129.58" y="-52.11" font-family="Times,serif" font-size="14.00">RFC0788</text>
<text xml:space="preserve" text-anchor="middle" x="129.58" y="-35.61" font-family="Times,serif" font-size="14.00">Simple Mail Transfer Protocol</text>
<text xml:space="preserve" text-anchor="middle" x="129.58" y="-19.11" font-family="Times,serif" font-size="14.00">1981</text>
</a>
</g>
</g>
<!-- RFC0788&#45;&gt;obs_by -->
<g id="edge2" class="edge">
<title>RFC0788&#45;&gt;obs_by</title>
<path fill="none" stroke="black" d="M191.78,-76.57C258.69,-115.2 363.21,-175.55 420.81,-208.8"/>
<polygon fill="black" stroke="black" points="418.93,-211.76 429.34,-213.73 422.43,-205.7 418.93,-211.76"/>
</g>
<!-- RFC0772 -->
<g id="node5" class="node">
<title>RFC0772</title>
<g id="a_node5"><a xlink:href="RFC0772.html" xlink:title="None" target="_top">
<ellipse fill="none" stroke="black" cx="1460.79" cy="-809.23" rx="99.35" ry="40.66"/>
<text xml:space="preserve" text-anchor="middle" x="1460.79" y="-820.68" font-family="Times,serif" font-size="14.00">RFC0772</text>
<text xml:space="preserve" text-anchor="middle" x="1460.79" y="-804.18" font-family="Times,serif" font-size="14.00">Mail Transfer Protocol</text>
<text xml:space="preserve" text-anchor="middle" x="1460.79" y="-787.68" font-family="Times,serif" font-size="14.00">1980</text>
</a>
</g>
</g>
<!-- obs&#45;&gt;RFC0772 -->
<g id="edge4" class="edge">
<title>obs&#45;&gt;RFC0772</title>
<path fill="none" stroke="black" d="M1159.89,-635.51C1213.35,-666.37 1322.1,-729.16 1393.17,-770.19"/>
<polygon fill="black" stroke="black" points="1391.21,-773.11 1401.62,-775.07 1394.71,-767.04 1391.21,-773.11"/>
</g>
<!-- updated_by -->
<g id="node7" class="node">
<title>updated_by</title>
<polygon fill="lightyellow" stroke="black" points="823.81,-58.66 766.56,-58.66 766.56,-22.66 823.81,-22.66 823.81,-58.66"/>
<text xml:space="preserve" text-anchor="middle" x="795.18" y="-35.61" font-family="Times,serif" font-size="14.00">updates</text>
</g>
<!-- updated_by&#45;&gt;RFC0780 -->
<g id="edge6" class="edge">
<title>updated_by&#45;&gt;RFC0780</title>
<path fill="none" stroke="black" d="M795.18,-58.94C795.18,-112.74 795.18,-272.38 795.18,-362.04"/>
<polygon fill="black" stroke="black" points="791.68,-361.9 795.18,-371.9 798.68,-361.9 791.68,-361.9"/>
</g>
<!-- rev_cites -->
<g id="node9" class="node">
<title>rev_cites</title>
<polygon fill="lightblue" stroke="black" points="1154.98,-250.8 1100.98,-250.8 1100.98,-214.8 1154.98,-214.8 1154.98,-250.8"/>
<text xml:space="preserve" text-anchor="middle" x="1127.98" y="-227.75" font-family="Times,serif" font-size="14.00">cites</text>
</g>
<!-- rev_cites&#45;&gt;RFC0780 -->
<g id="edge8" class="edge">
<title>rev_cites&#45;&gt;RFC0780</title>
<path fill="none" stroke="black" d="M1100.75,-248.53C1052.76,-276.23 951.33,-334.79 878.49,-376.85"/>
<polygon fill="black" stroke="black" points="877.08,-373.62 870.17,-381.65 880.58,-379.68 877.08,-373.62"/>
</g>
</g>
</svg>
