<?xml version="1.0" encoding="UTF-8" standalone="no"?>
<!DOCTYPE svg PUBLIC "-//W3C//DTD SVG 1.1//EN"
 "http://www.w3.org/Graphics/SVG/1.1/DTD/svg11.dtd">
<!-- Generated by graphviz version 14.1.1 (20251213.1925)
 -->
<!-- Title: Flow Pages: 1 -->
<svg width="723pt" height="793pt"
 viewBox="0.00 0.00 723.00 793.00" xmlns="http://www.w3.org/2000/svg" xmlns:xlink="http://www.w3.org/1999/xlink">
<g id="graph0" class="graph" transform="scale(1 1) rotate(0) translate(4 789.36)">
<title>Flow</title>
<polygon fill="white" stroke="none" points="-4,4 -4,-789.36 719.21,-789.36 719.21,4 -4,4"/>
<!-- RFC0551 -->
<g id="node1" class="node">
<title>RFC0551</title>
<g id="a_node1"><a xlink:title="None">
<ellipse fill="green" stroke="black" stroke-width="3" cx="357.61" cy="-392.68" rx="203.82" ry="50.2"/>
<text xml:space="preserve" text-anchor="middle" x="357.61" y="-407.08" font-family="Times,serif" font-size="18.00">RFC0551</text>
<text xml:space="preserve" text-anchor="middle" x="357.61" y="-386.08" font-family="Times,serif" font-size="18.00">NYU, ANL, and LBL Joining the Net</text>
<text xml:space="preserve" text-anchor="middle" x="357.61" y="-365.08" font-family="Times,serif" font-size="18.00">1973</text>
</a>
</g>
</g>
<!-- obs -->
<g id="node3" class="node">
<title>obs</title>
<polygon fill="lightblue" stroke="black" points="715.21,-598.02 648.96,-598.02 648.96,-562.02 715.21,-562.02 715.21,-598.02"/>
<text xml:space="preserve" text-anchor="middle" x="682.09" y="-574.97" font-family="Times,serif" font-size="14.00">obsoletes</text>
</g>
<!-- RFC0551&#45;&gt;obs -->
<g id="edge2" class="edge">
<title>RFC0551&#45;&gt;obs</title>
<path fill="none" stroke="black" d="M439.49,-439.95C503.42,-476.87 589.63,-526.64 640.2,-555.83"/>
<polygon fill="black" stroke="black" points="638.4,-558.84 648.81,-560.81 641.9,-552.78 638.4,-558.84"/>
</g>
<!-- updates -->
<g id="node4" class="node">
<title>updates</title>
<polygon fill="lightyellow" stroke="black" points="386.23,-785.36 328.98,-785.36 328.98,-749.36 386.23,-749.36 386.23,-785.36"/>
<text xml:space="preserve" text-anchor="middle" x="357.61" y="-762.31" font-family="Times,serif" font-size="14.00">updates</text>
</g>
<!-- RFC0551&#45;&gt;updates -->
<g id="edge3" class="edge">
<title>RFC0551&#45;&gt;updates</title>
<path fill="none" stroke="black" d="M357.61,-444.38C357.61,-524.16 357.61,-674.66 357.61,-738.04"/>
<polygon fill="black" stroke="black" points="354.11,-737.66 357.61,-747.66 361.11,-737.66 354.11,-737.66"/>
</g>
<!-- cites -->
<g id="node6" class="node">
<title>cites</title>
<polygon fill="lightblue" stroke="black" points="60.13,-598.02 6.13,-598.02 6.13,-562.02 60.13,-562.02 60.13,-598.02"/>
<text xml:space="preserve" text-anchor="middle" x="33.13" y="-574.97" font-family="Times,serif" font-size="14.00">cites</text>
</g>
<!-- RFC0551&#45;&gt;cites -->
<g id="edge5" class="edge">
<title>RFC0551&#45;&gt;cites</title>
<path fill="none" stroke="black" d="M275.73,-439.95C209.68,-478.08 119.88,-529.93 70.13,-558.65"/>
<polygon fill="black" stroke="black" points="68.66,-555.46 61.75,-563.49 72.16,-561.52 68.66,-555.46"/>
</g>
<!-- obs_by -->
<g id="node2" class="node">
<title>obs_by</title>
<polygon fill="lightblue" stroke="black" points="66.25,-223.34 0,-223.34 0,-187.34 66.25,-187.34 66.25,-223.34"/>
<text xml:space="preserve" text-anchor="middle" x="33.12" y="-200.29" font-family="Times,serif" font-size="14.00">obsoletes</text>
</g>
<!-- obs_by&#45;&gt;RFC0551 -->
<g id="edge1" class="edge">
<title>obs_by&#45;&gt;RFC0551</title>
<path fill="none" stroke="black" d="M65.13,-223.82C111.38,-250.52 198.73,-300.95 265.97,-339.78"/>
<polygon fill="black" stroke="black" points="264.02,-342.69 274.43,-344.66 267.52,-336.63 264.02,-342.69"/>
</g>
<!-- updated_by -->
<g id="node5" class="node">
<title>updated_by</title>
<polygon fill="lightyellow" stroke="black" points="386.23,-36 328.98,-36 328.98,0 386.23,0 386.23,-36"/>
<text xml:space="preserve" text-anchor="middle" x="357.61" y="-12.95" font-family="Times,serif" font-size="14.00">updates</text>
</g>
<!-- updated_by&#45;&gt;RFC0551 -->
<g id="edge4" class="edge">
<title>updated_by&#45;&gt;RFC0551</title>
<path fill="none" stroke="black" d="M357.61,-36.33C357.61,-88.98 357.61,-242.54 357.61,-329.93"/>
<polygon fill="black" stroke="black" points="354.11,-329.77 357.61,-339.77 361.11,-329.77 354.11,-329.77"/>
</g>
<!-- rev_cites -->
<g id="node7" class="node">
<title>rev_cites</title>
<polygon fill="lightblue" stroke="black" points="709.09,-223.34 655.09,-223.34 655.09,-187.34 709.09,-187.34 709.09,-223.34"/>
<text xml:space="preserve" text-anchor="middle" x="682.09" y="-200.29" font-family="Times,serif" font-size="14.00">cites</text>
</g>
<!-- rev_cites&#45;&gt;RFC0551 -->
<g id="edge6" class="edge">
<title>rev_cites&#45;&gt;RFC0551</title>
<path fill="none" stroke="black" d="M654.7,-221.15C609.83,-247.06 518.68,-299.68 449.11,-339.85"/>
<polygon fill="black" stroke="black" points="447.67,-336.64 440.76,-344.67 451.17,-342.7 447.67,-336.64"/>
</g>
</g>
</svg>
