<?xml version="1.0" encoding="UTF-8" standalone="no"?>
<!DOCTYPE svg PUBLIC "-//W3C//DTD SVG 1.1//EN"
 "http://www.w3.org/Graphics/SVG/1.1/DTD/svg11.dtd">
<!-- Generated by graphviz version 14.1.1 (20251213.1925)
 -->
<!-- Title: Flow Pages: 1 -->
<svg width="728pt" height="799pt"
 viewBox="0.00 0.00 728.00 799.00" xmlns="http://www.w3.org/2000/svg" xmlns:xlink="http://www.w3.org/1999/xlink">
<g id="graph0" class="graph" transform="scale(1 1) rotate(0) translate(4 794.7)">
<title>Flow</title>
<polygon fill="white" stroke="none" points="-4,4 -4,-794.7 723.84,-794.7 723.84,4 -4,4"/>
<!-- RFC0689 -->
<g id="node1" class="node">
<title>RFC0689</title>
<g id="a_node1"><a xlink:title="Describes the internal states of an NCP connection in the TENEX implementation.">
<ellipse fill="green" stroke="black" stroke-width="3" cx="359.92" cy="-395.35" rx="193.22" ry="65.05"/>
<text xml:space="preserve" text-anchor="middle" x="359.92" y="-420.25" font-family="Times,serif" font-size="18.00">RFC0689</text>
<text xml:space="preserve" text-anchor="middle" x="359.92" y="-399.25" font-family="Times,serif" font-size="18.00">Tenex NCP finite state machine for</text>
<text xml:space="preserve" text-anchor="middle" x="359.92" y="-378.25" font-family="Times,serif" font-size="18.00">connections</text>
<text xml:space="preserve" text-anchor="middle" x="359.92" y="-357.25" font-family="Times,serif" font-size="18.00">1975</text>
</a>
</g>
</g>
<!-- obs -->
<g id="node3" class="node">
<title>obs</title>
<polygon fill="lightblue" stroke="black" points="719.84,-602.02 653.59,-602.02 653.59,-566.02 719.84,-566.02 719.84,-602.02"/>
<text xml:space="preserve" text-anchor="middle" x="686.71" y="-578.97" font-family="Times,serif" font-size="14.00">obsoletes</text>
</g>
<!-- RFC0689&#45;&gt;obs -->
<g id="edge2" class="edge">
<title>RFC0689&#45;&gt;obs</title>
<path fill="none" stroke="black" d="M458.85,-452.47C521.16,-488.44 598.36,-533.01 645.01,-559.95"/>
<polygon fill="black" stroke="black" points="643.05,-562.85 653.46,-564.82 646.55,-556.79 643.05,-562.85"/>
</g>
<!-- updates -->
<g id="node4" class="node">
<title>updates</title>
<polygon fill="lightyellow" stroke="black" points="388.54,-790.7 331.29,-790.7 331.29,-754.7 388.54,-754.7 388.54,-790.7"/>
<text xml:space="preserve" text-anchor="middle" x="359.92" y="-767.65" font-family="Times,serif" font-size="14.00">updates</text>
</g>
<!-- RFC0689&#45;&gt;updates -->
<g id="edge3" class="edge">
<title>RFC0689&#45;&gt;updates</title>
<path fill="none" stroke="black" d="M359.92,-461.51C359.92,-544.37 359.92,-682.76 359.92,-743.08"/>
<polygon fill="black" stroke="black" points="356.42,-742.88 359.92,-752.88 363.42,-742.88 356.42,-742.88"/>
</g>
<!-- cites -->
<g id="node6" class="node">
<title>cites</title>
<polygon fill="lightblue" stroke="black" points="60.13,-602.02 6.13,-602.02 6.13,-566.02 60.13,-566.02 60.13,-602.02"/>
<text xml:space="preserve" text-anchor="middle" x="33.13" y="-578.97" font-family="Times,serif" font-size="14.00">cites</text>
</g>
<!-- RFC0689&#45;&gt;cites -->
<g id="edge5" class="edge">
<title>RFC0689&#45;&gt;cites</title>
<path fill="none" stroke="black" d="M260.98,-452.47C196.54,-489.68 116.16,-536.08 70.13,-562.66"/>
<polygon fill="black" stroke="black" points="68.52,-559.55 61.61,-567.58 72.02,-565.61 68.52,-559.55"/>
</g>
<!-- obs_by -->
<g id="node2" class="node">
<title>obs_by</title>
<polygon fill="lightblue" stroke="black" points="66.25,-224.67 0,-224.67 0,-188.67 66.25,-188.67 66.25,-224.67"/>
<text xml:space="preserve" text-anchor="middle" x="33.13" y="-201.62" font-family="Times,serif" font-size="14.00">obsoletes</text>
</g>
<!-- obs_by&#45;&gt;RFC0689 -->
<g id="edge1" class="edge">
<title>obs_by&#45;&gt;RFC0689</title>
<path fill="none" stroke="black" d="M65.05,-225.11C107.83,-249.8 185.89,-294.87 250.95,-332.43"/>
<polygon fill="black" stroke="black" points="249.14,-335.43 259.55,-337.4 252.64,-329.37 249.14,-335.43"/>
</g>
<!-- updated_by -->
<g id="node5" class="node">
<title>updated_by</title>
<polygon fill="lightyellow" stroke="black" points="388.54,-36 331.29,-36 331.29,0 388.54,0 388.54,-36"/>
<text xml:space="preserve" text-anchor="middle" x="359.92" y="-12.95" font-family="Times,serif" font-size="14.00">updates</text>
</g>
<!-- updated_by&#45;&gt;RFC0689 -->
<g id="edge4" class="edge">
<title>updated_by&#45;&gt;RFC0689</title>
<path fill="none" stroke="black" d="M359.92,-36.46C359.92,-86.64 359.92,-227.8 359.92,-317.4"/>
<polygon fill="black" stroke="black" points="356.42,-317.36 359.92,-327.36 363.42,-317.36 356.42,-317.36"/>
</g>
<!-- rev_cites -->
<g id="node7" class="node">
<title>rev_cites</title>
<polygon fill="lightblue" stroke="black" points="713.71,-224.67 659.71,-224.67 659.71,-188.67 713.71,-188.67 713.71,-224.67"/>
<text xml:space="preserve" text-anchor="middle" x="686.71" y="-201.62" font-family="Times,serif" font-size="14.00">cites</text>
</g>
<!-- rev_cites&#45;&gt;RFC0689 -->
<g id="edge6" class="edge">
<title>rev_cites&#45;&gt;RFC0689</title>
<path fill="none" stroke="black" d="M659.41,-222.44C617.81,-246.45 536.27,-293.53 468.76,-332.51"/>
<polygon fill="black" stroke="black" points="467.13,-329.41 460.22,-337.44 470.63,-335.47 467.13,-329.41"/>
</g>
</g>
</svg>
