<?xml version="1.0" encoding="UTF-8" standalone="no"?>
<!DOCTYPE svg PUBLIC "-//W3C//DTD SVG 1.1//EN"
 "http://www.w3.org/Graphics/SVG/1.1/DTD/svg11.dtd">
<!-- Generated by graphviz version 14.1.1 (20251213.1925)
 -->
<!-- Title: Flow Pages: 1 -->
<svg width="371pt" height="152pt"
 viewBox="0.00 0.00 371.00 152.00" xmlns="http://www.w3.org/2000/svg" xmlns:xlink="http://www.w3.org/1999/xlink">
<g id="graph0" class="graph" transform="scale(1 1) rotate(0) translate(4 148)">
<title>Flow</title>
<polygon fill="white" stroke="none" points="-4,4 -4,-148 367.17,-148 367.17,4 -4,4"/>
<!-- RFC0417 -->
<g id="node1" class="node">
<title>RFC0417</title>
<g id="a_node1"><a xlink:title="None">
<ellipse fill="green" stroke="black" cx="181.58" cy="-72" rx="90.33" ry="40.66"/>
<text xml:space="preserve" text-anchor="middle" x="181.58" y="-83.45" font-family="Times,serif" font-size="14.00">RFC0417</text>
<text xml:space="preserve" text-anchor="middle" x="181.58" y="-66.95" font-family="Times,serif" font-size="14.00">Link usage violation</text>
<text xml:space="preserve" text-anchor="middle" x="181.58" y="-50.45" font-family="Times,serif" font-size="14.00">1972</text>
</a>
</g>
</g>
<!-- obs -->
<g id="node3" class="node">
<title>obs</title>
<polygon fill="lightblue" stroke="black" points="363.17,-144 296.92,-144 296.92,-108 363.17,-108 363.17,-144"/>
<text xml:space="preserve" text-anchor="middle" x="330.04" y="-120.95" font-family="Times,serif" font-size="14.00">obsoletes</text>
</g>
<!-- RFC0417&#45;&gt;obs -->
<g id="edge2" class="edge">
<title>RFC0417&#45;&gt;obs</title>
<path fill="none" stroke="black" d="M252.38,-97.73C263.86,-101.97 275.46,-106.24 286.03,-110.14"/>
<polygon fill="black" stroke="black" points="284.63,-113.35 295.22,-113.53 287.05,-106.79 284.63,-113.35"/>
</g>
<!-- updates -->
<g id="node4" class="node">
<title>updates</title>
<polygon fill="lightyellow" stroke="black" points="358.67,-90 301.42,-90 301.42,-54 358.67,-54 358.67,-90"/>
<text xml:space="preserve" text-anchor="middle" x="330.04" y="-66.95" font-family="Times,serif" font-size="14.00">updates</text>
</g>
<!-- RFC0417&#45;&gt;updates -->
<g id="edge3" class="edge">
<title>RFC0417&#45;&gt;updates</title>
<path fill="none" stroke="black" d="M272,-72C278.22,-72 284.28,-72 289.98,-72"/>
<polygon fill="black" stroke="black" points="289.61,-75.5 299.61,-72 289.61,-68.5 289.61,-75.5"/>
</g>
<!-- cites -->
<g id="node6" class="node">
<title>cites</title>
<polygon fill="lightblue" stroke="black" points="357.04,-36 303.04,-36 303.04,0 357.04,0 357.04,-36"/>
<text xml:space="preserve" text-anchor="middle" x="330.04" y="-12.95" font-family="Times,serif" font-size="14.00">cites</text>
</g>
<!-- RFC0417&#45;&gt;cites -->
<g id="edge5" class="edge">
<title>RFC0417&#45;&gt;cites</title>
<path fill="none" stroke="black" d="M252.38,-46.27C266.14,-41.19 280.07,-36.06 292.21,-31.58"/>
<polygon fill="black" stroke="black" points="293.2,-34.94 301.37,-28.2 290.78,-28.38 293.2,-34.94"/>
</g>
<!-- obs_by -->
<g id="node2" class="node">
<title>obs_by</title>
<polygon fill="lightblue" stroke="black" points="66.25,-144 0,-144 0,-108 66.25,-108 66.25,-144"/>
<text xml:space="preserve" text-anchor="middle" x="33.12" y="-120.95" font-family="Times,serif" font-size="14.00">obsoletes</text>
</g>
<!-- obs_by&#45;&gt;RFC0417 -->
<g id="edge1" class="edge">
<title>obs_by&#45;&gt;RFC0417</title>
<path fill="none" stroke="black" d="M66.63,-114.02C76.8,-110.27 88.5,-105.95 100.45,-101.54"/>
<polygon fill="black" stroke="black" points="101.39,-104.93 109.57,-98.18 98.97,-98.36 101.39,-104.93"/>
</g>
<!-- updated_by -->
<g id="node5" class="node">
<title>updated_by</title>
<polygon fill="lightyellow" stroke="black" points="61.75,-90 4.5,-90 4.5,-54 61.75,-54 61.75,-90"/>
<text xml:space="preserve" text-anchor="middle" x="33.12" y="-66.95" font-family="Times,serif" font-size="14.00">updates</text>
</g>
<!-- updated_by&#45;&gt;RFC0417 -->
<g id="edge4" class="edge">
<title>updated_by&#45;&gt;RFC0417</title>
<path fill="none" stroke="black" d="M62.02,-72C67.36,-72 73.23,-72 79.42,-72"/>
<polygon fill="black" stroke="black" points="79.33,-75.5 89.33,-72 79.33,-68.5 79.33,-75.5"/>
</g>
<!-- rev_cites -->
<g id="node7" class="node">
<title>rev_cites</title>
<polygon fill="lightblue" stroke="black" points="60.12,-36 6.12,-36 6.12,0 60.12,0 60.12,-36"/>
<text xml:space="preserve" text-anchor="middle" x="33.12" y="-12.95" font-family="Times,serif" font-size="14.00">cites</text>
</g>
<!-- rev_cites&#45;&gt;RFC0417 -->
<g id="edge6" class="edge">
<title>rev_cites&#45;&gt;RFC0417</title>
<path fill="none" stroke="black" d="M60.31,-27.65C71.76,-31.88 85.88,-37.08 100.36,-42.42"/>
<polygon fill="black" stroke="black" points="98.93,-45.62 109.52,-45.8 101.35,-39.06 98.93,-45.62"/>
</g>
</g>
</svg>
