<?xml version="1.0" encoding="UTF-8" standalone="no"?>
<!DOCTYPE svg PUBLIC "-//W3C//DTD SVG 1.1//EN"
 "http://www.w3.org/Graphics/SVG/1.1/DTD/svg11.dtd">
<!-- Generated by graphviz version 14.1.1 (20251213.1925)
 -->
<!-- Title: Flow Pages: 1 -->
<svg width="660pt" height="152pt"
 viewBox="0.00 0.00 660.00 152.00" xmlns="http://www.w3.org/2000/svg" xmlns:xlink="http://www.w3.org/1999/xlink">
<g id="graph0" class="graph" transform="scale(1 1) rotate(0) translate(4 148)">
<title>Flow</title>
<polygon fill="white" stroke="none" points="-4,4 -4,-148 655.56,-148 655.56,4 -4,4"/>
<!-- RFC0044 -->
<g id="node1" class="node">
<title>RFC0044</title>
<g id="a_node1"><a xlink:title="None">
<ellipse fill="green" stroke="black" cx="244.69" cy="-72" rx="153.44" ry="40.66"/>
<text xml:space="preserve" text-anchor="middle" x="244.69" y="-83.45" font-family="Times,serif" font-size="14.00">RFC0044</text>
<text xml:space="preserve" text-anchor="middle" x="244.69" y="-66.95" font-family="Times,serif" font-size="14.00">Comments on NWG/RFC 33 and 36</text>
<text xml:space="preserve" text-anchor="middle" x="244.69" y="-50.45" font-family="Times,serif" font-size="14.00">1970</text>
</a>
</g>
</g>
<!-- obs -->
<g id="node3" class="node">
<title>obs</title>
<polygon fill="lightblue" stroke="black" points="489.38,-144 423.13,-144 423.13,-108 489.38,-108 489.38,-144"/>
<text xml:space="preserve" text-anchor="middle" x="456.26" y="-120.95" font-family="Times,serif" font-size="14.00">obsoletes</text>
</g>
<!-- RFC0044&#45;&gt;obs -->
<g id="edge2" class="edge">
<title>RFC0044&#45;&gt;obs</title>
<path fill="none" stroke="black" d="M356,-100.42C375.87,-105.54 395.47,-110.59 411.94,-114.84"/>
<polygon fill="black" stroke="black" points="410.79,-118.15 421.34,-117.26 412.53,-111.38 410.79,-118.15"/>
</g>
<!-- updates -->
<g id="node4" class="node">
<title>updates</title>
<polygon fill="lightyellow" stroke="black" points="484.88,-90 427.63,-90 427.63,-54 484.88,-54 484.88,-90"/>
<text xml:space="preserve" text-anchor="middle" x="456.26" y="-66.95" font-family="Times,serif" font-size="14.00">updates</text>
</g>
<!-- RFC0044&#45;&gt;updates -->
<g id="edge3" class="edge">
<title>RFC0044&#45;&gt;updates</title>
<path fill="none" stroke="black" d="M398.55,-72C404.66,-72 410.5,-72 415.94,-72"/>
<polygon fill="black" stroke="black" points="415.67,-75.5 425.67,-72 415.67,-68.5 415.67,-75.5"/>
</g>
<!-- cites -->
<g id="node7" class="node">
<title>cites</title>
<polygon fill="lightblue" stroke="black" points="483.26,-36 429.26,-36 429.26,0 483.26,0 483.26,-36"/>
<text xml:space="preserve" text-anchor="middle" x="456.26" y="-12.95" font-family="Times,serif" font-size="14.00">cites</text>
</g>
<!-- RFC0044&#45;&gt;cites -->
<g id="edge6" class="edge">
<title>RFC0044&#45;&gt;cites</title>
<path fill="none" stroke="black" d="M356,-43.58C378.22,-37.85 400.11,-32.21 417.65,-27.69"/>
<polygon fill="black" stroke="black" points="418.5,-31.09 427.31,-25.2 416.76,-24.31 418.5,-31.09"/>
</g>
<!-- obs_by -->
<g id="node2" class="node">
<title>obs_by</title>
<polygon fill="lightblue" stroke="black" points="66.25,-144 0,-144 0,-108 66.25,-108 66.25,-144"/>
<text xml:space="preserve" text-anchor="middle" x="33.12" y="-120.95" font-family="Times,serif" font-size="14.00">obsoletes</text>
</g>
<!-- obs_by&#45;&gt;RFC0044 -->
<g id="edge1" class="edge">
<title>obs_by&#45;&gt;RFC0044</title>
<path fill="none" stroke="black" d="M66.41,-117.68C82.05,-113.65 101.93,-108.53 122.67,-103.18"/>
<polygon fill="black" stroke="black" points="123.3,-106.64 132.11,-100.75 121.55,-99.86 123.3,-106.64"/>
</g>
<!-- RFC0036 -->
<g id="node5" class="node">
<title>RFC0036</title>
<g id="a_node5"><a xlink:href="RFC0036.html" xlink:title="None" target="_top">
<ellipse fill="none" stroke="black" cx="582.97" cy="-72" rx="68.59" ry="40.66"/>
<text xml:space="preserve" text-anchor="middle" x="582.97" y="-83.45" font-family="Times,serif" font-size="14.00">RFC0036</text>
<text xml:space="preserve" text-anchor="middle" x="582.97" y="-66.95" font-family="Times,serif" font-size="14.00">Protocol Notes</text>
<text xml:space="preserve" text-anchor="middle" x="582.97" y="-50.45" font-family="Times,serif" font-size="14.00">1970</text>
</a>
</g>
</g>
<!-- updates&#45;&gt;RFC0036 -->
<g id="edge4" class="edge">
<title>updates&#45;&gt;RFC0036</title>
<path fill="none" stroke="black" d="M485.25,-72C490.68,-72 496.62,-72 502.79,-72"/>
<polygon fill="black" stroke="black" points="502.59,-75.5 512.59,-72 502.59,-68.5 502.59,-75.5"/>
</g>
<!-- updated_by -->
<g id="node6" class="node">
<title>updated_by</title>
<polygon fill="lightyellow" stroke="black" points="61.75,-90 4.5,-90 4.5,-54 61.75,-54 61.75,-90"/>
<text xml:space="preserve" text-anchor="middle" x="33.12" y="-66.95" font-family="Times,serif" font-size="14.00">updates</text>
</g>
<!-- updated_by&#45;&gt;RFC0044 -->
<g id="edge5" class="edge">
<title>updated_by&#45;&gt;RFC0044</title>
<path fill="none" stroke="black" d="M61.95,-72C67.3,-72 73.25,-72 79.63,-72"/>
<polygon fill="black" stroke="black" points="79.25,-75.5 89.25,-72 79.25,-68.5 79.25,-75.5"/>
</g>
<!-- rev_cites -->
<g id="node8" class="node">
<title>rev_cites</title>
<polygon fill="lightblue" stroke="black" points="60.12,-36 6.12,-36 6.12,0 60.12,0 60.12,-36"/>
<text xml:space="preserve" text-anchor="middle" x="33.12" y="-12.95" font-family="Times,serif" font-size="14.00">cites</text>
</g>
<!-- rev_cites&#45;&gt;RFC0044 -->
<g id="edge7" class="edge">
<title>rev_cites&#45;&gt;RFC0044</title>
<path fill="none" stroke="black" d="M60.24,-24.73C76.61,-28.95 99.01,-34.72 122.54,-40.78"/>
<polygon fill="black" stroke="black" points="121.39,-44.1 131.94,-43.21 123.13,-37.32 121.39,-44.1"/>
</g>
</g>
</svg>
