<?xml version="1.0" encoding="UTF-8" standalone="no"?>
<!DOCTYPE svg PUBLIC "-//W3C//DTD SVG 1.1//EN"
 "http://www.w3.org/Graphics/SVG/1.1/DTD/svg11.dtd">
<!-- Generated by graphviz version 14.1.1 (20251213.1925)
 -->
<!-- Title: Flow Pages: 1 -->
<svg width="453pt" height="152pt"
 viewBox="0.00 0.00 453.00 152.00" xmlns="http://www.w3.org/2000/svg" xmlns:xlink="http://www.w3.org/1999/xlink">
<g id="graph0" class="graph" transform="scale(1 1) rotate(0) translate(4 148)">
<title>Flow</title>
<polygon fill="white" stroke="none" points="-4,4 -4,-148 448.84,-148 448.84,4 -4,4"/>
<!-- RFC0934 -->
<g id="node1" class="node">
<title>RFC0934</title>
<g id="a_node1"><a xlink:title="This memo concerns itself with message forwarding. &#160;Forwarding can be thought of as encapsulating one or more messages inside another. &#160;Although this is useful for transfer of past correspondence to new recipients, without a decapsulation process (which this memo terms bursting), the forwarded messages are of little use to the recipients because they can not be distributed, forwarded, replied&#45;to, or otherwise processed as separate individual messages. &#160;In order to burst a message it is necessary to know how the component messages were encapsulated in the draft. &#160;At present there is no unambiguous standard for interest group digests. &#160;This RFC proposes a proposed protocol for the ARPA&#45;Internet community, and requests discussion and suggestions for improvements.">
<ellipse fill="none" stroke="black" cx="222.42" cy="-72" rx="131.17" ry="52.33"/>
<text xml:space="preserve" text-anchor="middle" x="222.42" y="-91.7" font-family="Times,serif" font-size="14.00">RFC0934</text>
<text xml:space="preserve" text-anchor="middle" x="222.42" y="-75.2" font-family="Times,serif" font-size="14.00">Proposed standard for message</text>
<text xml:space="preserve" text-anchor="middle" x="222.42" y="-58.7" font-family="Times,serif" font-size="14.00">encapsulation</text>
<text xml:space="preserve" text-anchor="middle" x="222.42" y="-42.2" font-family="Times,serif" font-size="14.00">1985</text>
</a>
</g>
</g>
<!-- obs -->
<g id="node3" class="node">
<title>obs</title>
<polygon fill="none" stroke="black" points="444.84,-144 378.59,-144 378.59,-108 444.84,-108 444.84,-144"/>
<text xml:space="preserve" text-anchor="middle" x="411.71" y="-120.95" font-family="Times,serif" font-size="14.00">obsoletes</text>
</g>
<!-- RFC0934&#45;&gt;obs -->
<g id="edge2" class="edge">
<title>RFC0934&#45;&gt;obs</title>
<path fill="none" stroke="black" d="M329.65,-102.63C342.9,-106.45 355.81,-110.17 367.29,-113.48"/>
<polygon fill="black" stroke="black" points="366.22,-116.81 376.8,-116.22 368.16,-110.09 366.22,-116.81"/>
</g>
<!-- updates -->
<g id="node4" class="node">
<title>updates</title>
<polygon fill="none" stroke="black" points="440.34,-90 383.09,-90 383.09,-54 440.34,-54 440.34,-90"/>
<text xml:space="preserve" text-anchor="middle" x="411.71" y="-66.95" font-family="Times,serif" font-size="14.00">updates</text>
</g>
<!-- RFC0934&#45;&gt;updates -->
<g id="edge3" class="edge">
<title>RFC0934&#45;&gt;updates</title>
<path fill="none" stroke="black" d="M354.01,-72C360.1,-72 365.94,-72 371.4,-72"/>
<polygon fill="black" stroke="black" points="371.19,-75.5 381.19,-72 371.19,-68.5 371.19,-75.5"/>
</g>
<!-- cites -->
<g id="node6" class="node">
<title>cites</title>
<polygon fill="none" stroke="black" points="438.71,-36 384.71,-36 384.71,0 438.71,0 438.71,-36"/>
<text xml:space="preserve" text-anchor="middle" x="411.71" y="-12.95" font-family="Times,serif" font-size="14.00">cites</text>
</g>
<!-- RFC0934&#45;&gt;cites -->
<g id="edge5" class="edge">
<title>RFC0934&#45;&gt;cites</title>
<path fill="none" stroke="black" d="M329.65,-41.37C345.36,-36.84 360.59,-32.45 373.52,-28.72"/>
<polygon fill="black" stroke="black" points="374.16,-32.18 382.8,-26.05 372.22,-25.45 374.16,-32.18"/>
</g>
<!-- obs_by -->
<g id="node2" class="node">
<title>obs_by</title>
<polygon fill="none" stroke="black" points="66.25,-144 0,-144 0,-108 66.25,-108 66.25,-144"/>
<text xml:space="preserve" text-anchor="middle" x="33.12" y="-120.95" font-family="Times,serif" font-size="14.00">obsoletes</text>
</g>
<!-- obs_by&#45;&gt;RFC0934 -->
<g id="edge1" class="edge">
<title>obs_by&#45;&gt;RFC0934</title>
<path fill="none" stroke="black" d="M66.75,-116.59C77.86,-113.39 90.99,-109.6 104.84,-105.61"/>
<polygon fill="black" stroke="black" points="105.46,-109.08 114.1,-102.94 103.52,-102.35 105.46,-109.08"/>
</g>
<!-- updated_by -->
<g id="node5" class="node">
<title>updated_by</title>
<polygon fill="none" stroke="black" points="61.75,-90 4.5,-90 4.5,-54 61.75,-54 61.75,-90"/>
<text xml:space="preserve" text-anchor="middle" x="33.12" y="-66.95" font-family="Times,serif" font-size="14.00">updates</text>
</g>
<!-- updated_by&#45;&gt;RFC0934 -->
<g id="edge4" class="edge">
<title>updated_by&#45;&gt;RFC0934</title>
<path fill="none" stroke="black" d="M62.16,-72C67.39,-72 73.17,-72 79.34,-72"/>
<polygon fill="black" stroke="black" points="79.3,-75.5 89.3,-72 79.3,-68.5 79.3,-75.5"/>
</g>
<!-- rev_cites -->
<g id="node7" class="node">
<title>rev_cites</title>
<polygon fill="none" stroke="black" points="60.12,-36 6.12,-36 6.12,0 60.12,0 60.12,-36"/>
<text xml:space="preserve" text-anchor="middle" x="33.12" y="-12.95" font-family="Times,serif" font-size="14.00">cites</text>
</g>
<!-- rev_cites&#45;&gt;RFC0934 -->
<g id="edge6" class="edge">
<title>rev_cites&#45;&gt;RFC0934</title>
<path fill="none" stroke="black" d="M60.56,-25.62C72.72,-29.13 88.08,-33.56 104.45,-38.27"/>
<polygon fill="black" stroke="black" points="103.29,-41.59 113.87,-40.99 105.23,-34.86 103.29,-41.59"/>
</g>
</g>
</svg>
