<?xml version="1.0" encoding="UTF-8" standalone="no"?>
<!DOCTYPE svg PUBLIC "-//W3C//DTD SVG 1.1//EN"
 "http://www.w3.org/Graphics/SVG/1.1/DTD/svg11.dtd">
<!-- Generated by graphviz version 14.1.1 (20251213.1925)
 -->
<!-- Title: Flow Pages: 1 -->
<svg width="1555pt" height="1046pt"
 viewBox="0.00 0.00 1555.00 1046.00" xmlns="http://www.w3.org/2000/svg" xmlns:xlink="http://www.w3.org/1999/xlink">
<g id="graph0" class="graph" transform="scale(1 1) rotate(0) translate(4 1041.78)">
<title>Flow</title>
<polygon fill="white" stroke="none" points="-4,4 -4,-1041.78 1550.62,-1041.78 1550.62,4 -4,4"/>
<!-- RFC0016 -->
<g id="node1" class="node">
<title>RFC0016</title>
<g id="a_node1"><a xlink:title="None">
<ellipse fill="green" stroke="black" stroke-width="3" cx="774.37" cy="-693.41" rx="60.63" ry="50.2"/>
<text xml:space="preserve" text-anchor="middle" x="774.37" y="-707.81" font-family="Times,serif" font-size="18.00">RFC0016</text>
<text xml:space="preserve" text-anchor="middle" x="774.37" y="-686.81" font-family="Times,serif" font-size="18.00">M.I.T</text>
<text xml:space="preserve" text-anchor="middle" x="774.37" y="-665.81" font-family="Times,serif" font-size="18.00">1969</text>
</a>
</g>
</g>
<!-- obs -->
<g id="node3" class="node">
<title>obs</title>
<polygon fill="lightblue" stroke="black" points="1133.87,-846.59 1067.62,-846.59 1067.62,-810.59 1133.87,-810.59 1133.87,-846.59"/>
<text xml:space="preserve" text-anchor="middle" x="1100.74" y="-823.54" font-family="Times,serif" font-size="14.00">obsoletes</text>
</g>
<!-- RFC0016&#45;&gt;obs -->
<g id="edge2" class="edge">
<title>RFC0016&#45;&gt;obs</title>
<path fill="none" stroke="black" d="M829.73,-716.34C893.94,-742.93 998.45,-786.22 1057.16,-810.54"/>
<polygon fill="black" stroke="black" points="1055.59,-813.68 1066.17,-814.27 1058.27,-807.21 1055.59,-813.68"/>
</g>
<!-- updates -->
<g id="node5" class="node">
<title>updates</title>
<polygon fill="lightyellow" stroke="black" points="938.18,-1037.78 880.93,-1037.78 880.93,-1001.78 938.18,-1001.78 938.18,-1037.78"/>
<text xml:space="preserve" text-anchor="middle" x="909.56" y="-1014.73" font-family="Times,serif" font-size="14.00">updates</text>
</g>
<!-- RFC0016&#45;&gt;updates -->
<g id="edge4" class="edge">
<title>RFC0016&#45;&gt;updates</title>
<path fill="none" stroke="black" d="M794.61,-742.27C823.21,-811.31 874.53,-935.22 897.67,-991.08"/>
<polygon fill="black" stroke="black" points="894.4,-992.32 901.46,-1000.22 900.86,-989.64 894.4,-992.32"/>
</g>
<!-- cites -->
<g id="node10" class="node">
<title>cites</title>
<polygon fill="lightblue" stroke="black" points="666.18,-1037.78 612.18,-1037.78 612.18,-1001.78 666.18,-1001.78 666.18,-1037.78"/>
<text xml:space="preserve" text-anchor="middle" x="639.18" y="-1014.73" font-family="Times,serif" font-size="14.00">cites</text>
</g>
<!-- RFC0016&#45;&gt;cites -->
<g id="edge9" class="edge">
<title>RFC0016&#45;&gt;cites</title>
<path fill="none" stroke="black" d="M754.13,-742.27C725.53,-811.31 674.21,-935.22 651.07,-991.08"/>
<polygon fill="black" stroke="black" points="647.88,-989.64 647.28,-1000.22 654.34,-992.32 647.88,-989.64"/>
</g>
<!-- obs_by -->
<g id="node2" class="node">
<title>obs_by</title>
<polygon fill="lightblue" stroke="black" points="481.12,-846.59 414.87,-846.59 414.87,-810.59 481.12,-810.59 481.12,-846.59"/>
<text xml:space="preserve" text-anchor="middle" x="448" y="-823.54" font-family="Times,serif" font-size="14.00">obsoletes</text>
</g>
<!-- obs_by&#45;&gt;RFC0016 -->
<g id="edge1" class="edge">
<title>obs_by&#45;&gt;RFC0016</title>
<path fill="none" stroke="black" d="M481.39,-814.76C534.63,-792.71 639.72,-749.18 708.49,-720.69"/>
<polygon fill="black" stroke="black" points="709.49,-724.07 717.39,-717.01 706.81,-717.6 709.49,-724.07"/>
</g>
<!-- RFC0010 -->
<g id="node4" class="node">
<title>RFC0010</title>
<g id="a_node4"><a xlink:href="RFC0010.html" xlink:title="None" target="_top">
<ellipse fill="none" stroke="black" cx="1427.12" cy="-963.78" rx="119.5" ry="40.66"/>
<text xml:space="preserve" text-anchor="middle" x="1427.12" y="-975.23" font-family="Times,serif" font-size="14.00">RFC0010</text>
<text xml:space="preserve" text-anchor="middle" x="1427.12" y="-958.73" font-family="Times,serif" font-size="14.00">Documentation conventions</text>
<text xml:space="preserve" text-anchor="middle" x="1427.12" y="-942.23" font-family="Times,serif" font-size="14.00">1969</text>
</a>
</g>
</g>
<!-- obs&#45;&gt;RFC0010 -->
<g id="edge3" class="edge">
<title>obs&#45;&gt;RFC0010</title>
<path fill="none" stroke="black" d="M1134.14,-842.43C1182.27,-862.36 1272.81,-899.87 1340.56,-927.93"/>
<polygon fill="black" stroke="black" points="1338.82,-931 1349.4,-931.59 1341.5,-924.53 1338.82,-931"/>
</g>
<!-- updated_by -->
<g id="node6" class="node">
<title>updated_by</title>
<polygon fill="lightyellow" stroke="black" points="667.81,-385.03 610.56,-385.03 610.56,-349.03 667.81,-349.03 667.81,-385.03"/>
<text xml:space="preserve" text-anchor="middle" x="639.18" y="-361.98" font-family="Times,serif" font-size="14.00">updates</text>
</g>
<!-- updated_by&#45;&gt;RFC0016 -->
<g id="edge5" class="edge">
<title>updated_by&#45;&gt;RFC0016</title>
<path fill="none" stroke="black" d="M646.84,-385.51C666.36,-432.65 718.67,-558.94 749.9,-634.33"/>
<polygon fill="black" stroke="black" points="746.52,-635.32 753.58,-643.22 752.99,-632.64 746.52,-635.32"/>
</g>
<!-- RFC0024 -->
<g id="node7" class="node">
<title>RFC0024</title>
<g id="a_node7"><a xlink:href="RFC0024.html" xlink:title="None" target="_top">
<ellipse fill="none" stroke="black" cx="121.62" cy="-423.03" rx="121.62" ry="40.66"/>
<text xml:space="preserve" text-anchor="middle" x="121.62" y="-434.48" font-family="Times,serif" font-size="14.00">RFC0024</text>
<text xml:space="preserve" text-anchor="middle" x="121.62" y="-417.98" font-family="Times,serif" font-size="14.00">Documentation Conventions</text>
<text xml:space="preserve" text-anchor="middle" x="121.62" y="-401.48" font-family="Times,serif" font-size="14.00">1969</text>
</a>
</g>
</g>
<!-- RFC0024&#45;&gt;updated_by -->
<g id="edge6" class="edge">
<title>RFC0024&#45;&gt;updated_by</title>
<path fill="none" stroke="black" d="M237.77,-410.46C352.87,-398.01 522.7,-379.63 599.22,-371.36"/>
<polygon fill="black" stroke="black" points="599.18,-374.88 608.74,-370.33 598.43,-367.92 599.18,-374.88"/>
</g>
<!-- RFC0027 -->
<g id="node8" class="node">
<title>RFC0027</title>
<g id="a_node8"><a xlink:href="RFC0027.html" xlink:title="None" target="_top">
<ellipse fill="none" stroke="black" cx="503.99" cy="-40.66" rx="121.62" ry="40.66"/>
<text xml:space="preserve" text-anchor="middle" x="503.99" y="-52.11" font-family="Times,serif" font-size="14.00">RFC0027</text>
<text xml:space="preserve" text-anchor="middle" x="503.99" y="-35.61" font-family="Times,serif" font-size="14.00">Documentation Conventions</text>
<text xml:space="preserve" text-anchor="middle" x="503.99" y="-19.11" font-family="Times,serif" font-size="14.00">1969</text>
</a>
</g>
</g>
<!-- RFC0027&#45;&gt;updated_by -->
<g id="edge7" class="edge">
<title>RFC0027&#45;&gt;updated_by</title>
<path fill="none" stroke="black" d="M520.84,-81.33C548.57,-148.28 603.15,-280.04 627.25,-338.24"/>
<polygon fill="black" stroke="black" points="623.88,-339.24 630.94,-347.14 630.35,-336.56 623.88,-339.24"/>
</g>
<!-- RFC0030 -->
<g id="node9" class="node">
<title>RFC0030</title>
<g id="a_node9"><a xlink:href="RFC0030.html" xlink:title="None" target="_top">
<ellipse fill="none" stroke="black" cx="1044.75" cy="-40.66" rx="121.62" ry="40.66"/>
<text xml:space="preserve" text-anchor="middle" x="1044.75" y="-52.11" font-family="Times,serif" font-size="14.00">RFC0030</text>
<text xml:space="preserve" text-anchor="middle" x="1044.75" y="-35.61" font-family="Times,serif" font-size="14.00">Documentation Conventions</text>
<text xml:space="preserve" text-anchor="middle" x="1044.75" y="-19.11" font-family="Times,serif" font-size="14.00">1970</text>
</a>
</g>
</g>
<!-- RFC0030&#45;&gt;updated_by -->
<g id="edge8" class="edge">
<title>RFC0030&#45;&gt;updated_by</title>
<path fill="none" stroke="black" d="M997.83,-78.42C914.21,-145.7 741.58,-284.63 670.65,-341.7"/>
<polygon fill="black" stroke="black" points="668.51,-338.94 662.91,-347.93 672.9,-344.39 668.51,-338.94"/>
</g>
<!-- rev_cites -->
<g id="node11" class="node">
<title>rev_cites</title>
<polygon fill="lightblue" stroke="black" points="1127.74,-576.22 1073.74,-576.22 1073.74,-540.22 1127.74,-540.22 1127.74,-576.22"/>
<text xml:space="preserve" text-anchor="middle" x="1100.74" y="-553.17" font-family="Times,serif" font-size="14.00">cites</text>
</g>
<!-- rev_cites&#45;&gt;RFC0016 -->
<g id="edge10" class="edge">
<title>rev_cites&#45;&gt;RFC0016</title>
<path fill="none" stroke="black" d="M1073.48,-569.51C1022.52,-590.62 911.52,-636.6 840.01,-666.22"/>
<polygon fill="black" stroke="black" points="839.05,-662.82 831.15,-669.88 841.73,-669.29 839.05,-662.82"/>
</g>
</g>
</svg>
