<?xml version="1.0" encoding="UTF-8" standalone="no"?>
<!DOCTYPE svg PUBLIC "-//W3C//DTD SVG 1.1//EN"
 "http://www.w3.org/Graphics/SVG/1.1/DTD/svg11.dtd">
<!-- Generated by graphviz version 14.1.1 (20251213.1925)
 -->
<!-- Title: Flow Pages: 1 -->
<svg width="723pt" height="1203pt"
 viewBox="0.00 0.00 723.00 1203.00" xmlns="http://www.w3.org/2000/svg" xmlns:xlink="http://www.w3.org/1999/xlink">
<g id="graph0" class="graph" transform="scale(1 1) rotate(0) translate(4 1198.54)">
<title>Flow</title>
<polygon fill="white" stroke="none" points="-4,4 -4,-1198.54 719.31,-1198.54 719.31,4 -4,4"/>
<!-- RFC0908 -->
<g id="node1" class="node">
<title>RFC0908</title>
<g id="a_node1"><a xlink:title="The Reliable Data Protocol (RDP) is designed to provide a reliable data transport service for packet&#45;based applications. &#160;This RFC specifies a proposed protocol for the ARPA&#45;Internet and DARPA research community, and requests discussion and suggestions for improvemts.">
<ellipse fill="green" stroke="black" stroke-width="3" cx="357.66" cy="-801.8" rx="129.05" ry="50.2"/>
<text xml:space="preserve" text-anchor="middle" x="357.66" y="-816.2" font-family="Times,serif" font-size="18.00">RFC0908</text>
<text xml:space="preserve" text-anchor="middle" x="357.66" y="-795.2" font-family="Times,serif" font-size="18.00">Reliable Data Protocol</text>
<text xml:space="preserve" text-anchor="middle" x="357.66" y="-774.2" font-family="Times,serif" font-size="18.00">1984</text>
</a>
</g>
</g>
<!-- obs -->
<g id="node3" class="node">
<title>obs</title>
<polygon fill="lightblue" stroke="black" points="715.31,-1007.17 649.06,-1007.17 649.06,-971.17 715.31,-971.17 715.31,-1007.17"/>
<text xml:space="preserve" text-anchor="middle" x="682.19" y="-984.12" font-family="Times,serif" font-size="14.00">obsoletes</text>
</g>
<!-- RFC0908&#45;&gt;obs -->
<g id="edge2" class="edge">
<title>RFC0908&#45;&gt;obs</title>
<path fill="none" stroke="black" d="M431.3,-844.32C495.95,-881.64 587.68,-934.61 640.45,-965.07"/>
<polygon fill="black" stroke="black" points="638.42,-967.94 648.83,-969.91 641.92,-961.88 638.42,-967.94"/>
</g>
<!-- updates -->
<g id="node4" class="node">
<title>updates</title>
<polygon fill="lightyellow" stroke="black" points="386.28,-1194.54 329.03,-1194.54 329.03,-1158.54 386.28,-1158.54 386.28,-1194.54"/>
<text xml:space="preserve" text-anchor="middle" x="357.66" y="-1171.49" font-family="Times,serif" font-size="14.00">updates</text>
</g>
<!-- RFC0908&#45;&gt;updates -->
<g id="edge3" class="edge">
<title>RFC0908&#45;&gt;updates</title>
<path fill="none" stroke="black" d="M357.66,-853.12C357.66,-932.78 357.66,-1083.61 357.66,-1147.15"/>
<polygon fill="black" stroke="black" points="354.16,-1146.79 357.66,-1156.79 361.16,-1146.79 354.16,-1146.79"/>
</g>
<!-- cites -->
<g id="node7" class="node">
<title>cites</title>
<polygon fill="lightblue" stroke="black" points="60.13,-1007.17 6.13,-1007.17 6.13,-971.17 60.13,-971.17 60.13,-1007.17"/>
<text xml:space="preserve" text-anchor="middle" x="33.13" y="-984.12" font-family="Times,serif" font-size="14.00">cites</text>
</g>
<!-- RFC0908&#45;&gt;cites -->
<g id="edge6" class="edge">
<title>RFC0908&#45;&gt;cites</title>
<path fill="none" stroke="black" d="M284.02,-844.32C217.39,-882.78 122.02,-937.85 70.15,-967.79"/>
<polygon fill="black" stroke="black" points="68.61,-964.64 61.69,-972.67 72.11,-970.7 68.61,-964.64"/>
</g>
<!-- obs_by -->
<g id="node2" class="node">
<title>obs_by</title>
<polygon fill="lightblue" stroke="black" points="66.25,-632.43 0,-632.43 0,-596.43 66.25,-596.43 66.25,-632.43"/>
<text xml:space="preserve" text-anchor="middle" x="33.13" y="-609.38" font-family="Times,serif" font-size="14.00">obsoletes</text>
</g>
<!-- obs_by&#45;&gt;RFC0908 -->
<g id="edge1" class="edge">
<title>obs_by&#45;&gt;RFC0908</title>
<path fill="none" stroke="black" d="M65.13,-632.91C113.29,-660.72 206.02,-714.25 274.21,-753.62"/>
<polygon fill="black" stroke="black" points="272.37,-756.6 282.78,-758.57 275.87,-750.54 272.37,-756.6"/>
</g>
<!-- updated_by -->
<g id="node5" class="node">
<title>updated_by</title>
<polygon fill="lightyellow" stroke="black" points="386.28,-445.06 329.03,-445.06 329.03,-409.06 386.28,-409.06 386.28,-445.06"/>
<text xml:space="preserve" text-anchor="middle" x="357.66" y="-422.01" font-family="Times,serif" font-size="14.00">updates</text>
</g>
<!-- updated_by&#45;&gt;RFC0908 -->
<g id="edge4" class="edge">
<title>updated_by&#45;&gt;RFC0908</title>
<path fill="none" stroke="black" d="M357.66,-445.39C357.66,-498.06 357.66,-651.64 357.66,-739.04"/>
<polygon fill="black" stroke="black" points="354.16,-738.88 357.66,-748.88 361.16,-738.88 354.16,-738.88"/>
</g>
<!-- RFC1151 -->
<g id="node6" class="node">
<title>RFC1151</title>
<g id="a_node6"><a xlink:href="RFC1151.html" xlink:title="This RFC suggests several updates to the specification of the Reliable Data Protocol (RDP) in RFC&#45;908 based on experience with the protocol. &#160;This revised version of the protocol is experimental." target="_top">
<ellipse fill="none" stroke="black" cx="357.66" cy="-52.33" rx="162.99" ry="52.33"/>
<text xml:space="preserve" text-anchor="middle" x="357.66" y="-72.03" font-family="Times,serif" font-size="14.00">RFC1151</text>
<text xml:space="preserve" text-anchor="middle" x="357.66" y="-55.53" font-family="Times,serif" font-size="14.00">Version 2 of the Reliable Data Protocol</text>
<text xml:space="preserve" text-anchor="middle" x="357.66" y="-39.03" font-family="Times,serif" font-size="14.00">(RDP)</text>
<text xml:space="preserve" text-anchor="middle" x="357.66" y="-22.53" font-family="Times,serif" font-size="14.00">1990</text>
</a>
</g>
</g>
<!-- RFC1151&#45;&gt;updated_by -->
<g id="edge5" class="edge">
<title>RFC1151&#45;&gt;updated_by</title>
<path fill="none" stroke="black" d="M357.66,-104.83C357.66,-184.68 357.66,-334.07 357.66,-397.44"/>
<polygon fill="black" stroke="black" points="354.16,-397.06 357.66,-407.06 361.16,-397.06 354.16,-397.06"/>
</g>
<!-- rev_cites -->
<g id="node8" class="node">
<title>rev_cites</title>
<polygon fill="lightblue" stroke="black" points="709.19,-632.43 655.19,-632.43 655.19,-596.43 709.19,-596.43 709.19,-632.43"/>
<text xml:space="preserve" text-anchor="middle" x="682.19" y="-609.38" font-family="Times,serif" font-size="14.00">cites</text>
</g>
<!-- rev_cites&#45;&gt;RFC0908 -->
<g id="edge7" class="edge">
<title>rev_cites&#45;&gt;RFC0908</title>
<path fill="none" stroke="black" d="M654.8,-630.24C608.17,-657.17 511.57,-712.94 441.14,-753.6"/>
<polygon fill="black" stroke="black" points="439.6,-750.45 432.69,-758.48 443.1,-756.51 439.6,-750.45"/>
</g>
</g>
</svg>
