<?xml version="1.0" encoding="UTF-8" standalone="no"?>
<!DOCTYPE svg PUBLIC "-//W3C//DTD SVG 1.1//EN"
 "http://www.w3.org/Graphics/SVG/1.1/DTD/svg11.dtd">
<!-- Generated by graphviz version 14.1.1 (20251213.1925)
 -->
<!-- Title: Flow Pages: 1 -->
<svg width="479pt" height="152pt"
 viewBox="0.00 0.00 479.00 152.00" xmlns="http://www.w3.org/2000/svg" xmlns:xlink="http://www.w3.org/1999/xlink">
<g id="graph0" class="graph" transform="scale(1 1) rotate(0) translate(4 148)">
<title>Flow</title>
<polygon fill="white" stroke="none" points="-4,4 -4,-148 475.35,-148 475.35,4 -4,4"/>
<!-- RFC0182 -->
<g id="node1" class="node">
<title>RFC0182</title>
<g id="a_node1"><a xlink:title="None">
<ellipse fill="green" stroke="black" cx="235.68" cy="-72" rx="144.43" ry="52.33"/>
<text xml:space="preserve" text-anchor="middle" x="235.68" y="-91.7" font-family="Times,serif" font-size="14.00">RFC0182</text>
<text xml:space="preserve" text-anchor="middle" x="235.68" y="-75.2" font-family="Times,serif" font-size="14.00">Compilation of list of relevant site</text>
<text xml:space="preserve" text-anchor="middle" x="235.68" y="-58.7" font-family="Times,serif" font-size="14.00">reports</text>
<text xml:space="preserve" text-anchor="middle" x="235.68" y="-42.2" font-family="Times,serif" font-size="14.00">1971</text>
</a>
</g>
</g>
<!-- obs -->
<g id="node3" class="node">
<title>obs</title>
<polygon fill="lightblue" stroke="black" points="471.35,-144 405.1,-144 405.1,-108 471.35,-108 471.35,-144"/>
<text xml:space="preserve" text-anchor="middle" x="438.23" y="-120.95" font-family="Times,serif" font-size="14.00">obsoletes</text>
</g>
<!-- RFC0182&#45;&gt;obs -->
<g id="edge2" class="edge">
<title>RFC0182&#45;&gt;obs</title>
<path fill="none" stroke="black" d="M352.47,-103.18C367.1,-107.12 381.27,-110.93 393.71,-114.28"/>
<polygon fill="black" stroke="black" points="392.58,-117.6 403.15,-116.82 394.4,-110.84 392.58,-117.6"/>
</g>
<!-- updates -->
<g id="node4" class="node">
<title>updates</title>
<polygon fill="lightyellow" stroke="black" points="466.85,-90 409.6,-90 409.6,-54 466.85,-54 466.85,-90"/>
<text xml:space="preserve" text-anchor="middle" x="438.23" y="-66.95" font-family="Times,serif" font-size="14.00">updates</text>
</g>
<!-- RFC0182&#45;&gt;updates -->
<g id="edge3" class="edge">
<title>RFC0182&#45;&gt;updates</title>
<path fill="none" stroke="black" d="M380.56,-72C386.71,-72 392.58,-72 398.06,-72"/>
<polygon fill="black" stroke="black" points="397.87,-75.5 407.87,-72 397.87,-68.5 397.87,-75.5"/>
</g>
<!-- cites -->
<g id="node6" class="node">
<title>cites</title>
<polygon fill="lightblue" stroke="black" points="465.23,-36 411.23,-36 411.23,0 465.23,0 465.23,-36"/>
<text xml:space="preserve" text-anchor="middle" x="438.23" y="-12.95" font-family="Times,serif" font-size="14.00">cites</text>
</g>
<!-- RFC0182&#45;&gt;cites -->
<g id="edge5" class="edge">
<title>RFC0182&#45;&gt;cites</title>
<path fill="none" stroke="black" d="M352.47,-40.82C369.57,-36.22 386.05,-31.78 399.86,-28.06"/>
<polygon fill="black" stroke="black" points="400.58,-31.49 409.32,-25.51 398.76,-24.73 400.58,-31.49"/>
</g>
<!-- obs_by -->
<g id="node2" class="node">
<title>obs_by</title>
<polygon fill="lightblue" stroke="black" points="66.25,-144 0,-144 0,-108 66.25,-108 66.25,-144"/>
<text xml:space="preserve" text-anchor="middle" x="33.12" y="-120.95" font-family="Times,serif" font-size="14.00">obsoletes</text>
</g>
<!-- obs_by&#45;&gt;RFC0182 -->
<g id="edge1" class="edge">
<title>obs_by&#45;&gt;RFC0182</title>
<path fill="none" stroke="black" d="M66.35,-117.32C78.4,-114.08 92.94,-110.16 108.36,-106.01"/>
<polygon fill="black" stroke="black" points="108.96,-109.48 117.7,-103.5 107.14,-102.72 108.96,-109.48"/>
</g>
<!-- updated_by -->
<g id="node5" class="node">
<title>updated_by</title>
<polygon fill="lightyellow" stroke="black" points="61.75,-90 4.5,-90 4.5,-54 61.75,-54 61.75,-90"/>
<text xml:space="preserve" text-anchor="middle" x="33.12" y="-66.95" font-family="Times,serif" font-size="14.00">updates</text>
</g>
<!-- updated_by&#45;&gt;RFC0182 -->
<g id="edge4" class="edge">
<title>updated_by&#45;&gt;RFC0182</title>
<path fill="none" stroke="black" d="M62.01,-72C67.39,-72 73.36,-72 79.76,-72"/>
<polygon fill="black" stroke="black" points="79.39,-75.5 89.39,-72 79.39,-68.5 79.39,-75.5"/>
</g>
<!-- rev_cites -->
<g id="node7" class="node">
<title>rev_cites</title>
<polygon fill="lightblue" stroke="black" points="60.12,-36 6.12,-36 6.12,0 60.12,0 60.12,-36"/>
<text xml:space="preserve" text-anchor="middle" x="33.12" y="-12.95" font-family="Times,serif" font-size="14.00">cites</text>
</g>
<!-- rev_cites&#45;&gt;RFC0182 -->
<g id="edge6" class="edge">
<title>rev_cites&#45;&gt;RFC0182</title>
<path fill="none" stroke="black" d="M60.34,-25.06C73.33,-28.56 90.06,-33.06 108,-37.89"/>
<polygon fill="black" stroke="black" points="106.97,-41.24 117.54,-40.46 108.79,-34.48 106.97,-41.24"/>
</g>
</g>
</svg>
