<?xml version="1.0" encoding="UTF-8" standalone="no"?>
<!DOCTYPE svg PUBLIC "-//W3C//DTD SVG 1.1//EN"
 "http://www.w3.org/Graphics/SVG/1.1/DTD/svg11.dtd">
<!-- Generated by graphviz version 14.1.1 (20251213.1925)
 -->
<!-- Title: Flow Pages: 1 -->
<svg width="900pt" height="152pt"
 viewBox="0.00 0.00 900.00 152.00" xmlns="http://www.w3.org/2000/svg" xmlns:xlink="http://www.w3.org/1999/xlink">
<g id="graph0" class="graph" transform="scale(1 1) rotate(0) translate(4 148)">
<title>Flow</title>
<polygon fill="white" stroke="none" points="-4,4 -4,-148 896.33,-148 896.33,4 -4,4"/>
<!-- RFC0381 -->
<g id="node1" class="node">
<title>RFC0381</title>
<g id="a_node1"><a xlink:title="None">
<ellipse fill="none" stroke="black" cx="626.96" cy="-72" rx="174.13" ry="40.66"/>
<text xml:space="preserve" text-anchor="middle" x="626.96" y="-83.45" font-family="Times,serif" font-size="14.00">RFC0381</text>
<text xml:space="preserve" text-anchor="middle" x="626.96" y="-66.95" font-family="Times,serif" font-size="14.00">Three aids to improved network operation</text>
<text xml:space="preserve" text-anchor="middle" x="626.96" y="-50.45" font-family="Times,serif" font-size="14.00">1972</text>
</a>
</g>
</g>
<!-- obs -->
<g id="node3" class="node">
<title>obs</title>
<polygon fill="none" stroke="black" points="892.33,-144 826.08,-144 826.08,-108 892.33,-108 892.33,-144"/>
<text xml:space="preserve" text-anchor="middle" x="859.21" y="-120.95" font-family="Times,serif" font-size="14.00">obsoletes</text>
</g>
<!-- RFC0381&#45;&gt;obs -->
<g id="edge2" class="edge">
<title>RFC0381&#45;&gt;obs</title>
<path fill="none" stroke="black" d="M751.17,-100.9C773.91,-106.23 796.22,-111.46 814.54,-115.76"/>
<polygon fill="black" stroke="black" points="813.68,-119.15 824.21,-118.03 815.27,-112.34 813.68,-119.15"/>
</g>
<!-- updates -->
<g id="node4" class="node">
<title>updates</title>
<polygon fill="none" stroke="black" points="887.83,-90 830.58,-90 830.58,-54 887.83,-54 887.83,-90"/>
<text xml:space="preserve" text-anchor="middle" x="859.21" y="-66.95" font-family="Times,serif" font-size="14.00">updates</text>
</g>
<!-- RFC0381&#45;&gt;updates -->
<g id="edge3" class="edge">
<title>RFC0381&#45;&gt;updates</title>
<path fill="none" stroke="black" d="M801.29,-72C807.5,-72 813.4,-72 818.88,-72"/>
<polygon fill="black" stroke="black" points="818.68,-75.5 828.68,-72 818.68,-68.5 818.68,-75.5"/>
</g>
<!-- cites -->
<g id="node7" class="node">
<title>cites</title>
<polygon fill="none" stroke="black" points="886.21,-36 832.21,-36 832.21,0 886.21,0 886.21,-36"/>
<text xml:space="preserve" text-anchor="middle" x="859.21" y="-12.95" font-family="Times,serif" font-size="14.00">cites</text>
</g>
<!-- RFC0381&#45;&gt;cites -->
<g id="edge6" class="edge">
<title>RFC0381&#45;&gt;cites</title>
<path fill="none" stroke="black" d="M751.17,-43.1C776.61,-37.14 801.53,-31.29 820.91,-26.75"/>
<polygon fill="black" stroke="black" points="821.52,-30.2 830.45,-24.51 819.92,-23.38 821.52,-30.2"/>
</g>
<!-- obs_by -->
<g id="node2" class="node">
<title>obs_by</title>
<polygon fill="none" stroke="black" points="427.83,-144 361.58,-144 361.58,-108 427.83,-108 427.83,-144"/>
<text xml:space="preserve" text-anchor="middle" x="394.71" y="-120.95" font-family="Times,serif" font-size="14.00">obsoletes</text>
</g>
<!-- obs_by&#45;&gt;RFC0381 -->
<g id="edge1" class="edge">
<title>obs_by&#45;&gt;RFC0381</title>
<path fill="none" stroke="black" d="M428.21,-118.38C445.52,-114.32 468.09,-109.02 491.77,-103.47"/>
<polygon fill="black" stroke="black" points="492.3,-106.94 501.24,-101.25 490.7,-100.13 492.3,-106.94"/>
</g>
<!-- updated_by -->
<g id="node5" class="node">
<title>updated_by</title>
<polygon fill="none" stroke="black" points="423.33,-90 366.08,-90 366.08,-54 423.33,-54 423.33,-90"/>
<text xml:space="preserve" text-anchor="middle" x="394.71" y="-66.95" font-family="Times,serif" font-size="14.00">updates</text>
</g>
<!-- updated_by&#45;&gt;RFC0381 -->
<g id="edge4" class="edge">
<title>updated_by&#45;&gt;RFC0381</title>
<path fill="none" stroke="black" d="M423.48,-72C428.85,-72 434.82,-72 441.26,-72"/>
<polygon fill="black" stroke="black" points="441.01,-75.5 451.01,-72 441.01,-68.5 441.01,-75.5"/>
</g>
<!-- RFC0394 -->
<g id="node6" class="node">
<title>RFC0394</title>
<g id="a_node6"><a xlink:href="RFC0394.html" xlink:title="None" target="_top">
<ellipse fill="none" stroke="black" cx="168.29" cy="-72" rx="168.29" ry="52.33"/>
<text xml:space="preserve" text-anchor="middle" x="168.29" y="-91.7" font-family="Times,serif" font-size="14.00">RFC0394</text>
<text xml:space="preserve" text-anchor="middle" x="168.29" y="-75.2" font-family="Times,serif" font-size="14.00">Two Proposed Changes to the IMP&#45;Host</text>
<text xml:space="preserve" text-anchor="middle" x="168.29" y="-58.7" font-family="Times,serif" font-size="14.00">Protocol</text>
<text xml:space="preserve" text-anchor="middle" x="168.29" y="-42.2" font-family="Times,serif" font-size="14.00">1972</text>
</a>
</g>
</g>
<!-- RFC0394&#45;&gt;updated_by -->
<g id="edge5" class="edge">
<title>RFC0394&#45;&gt;updated_by</title>
<path fill="none" stroke="black" d="M337.08,-72C343.24,-72 349.1,-72 354.55,-72"/>
<polygon fill="black" stroke="black" points="354.28,-75.5 364.28,-72 354.28,-68.5 354.28,-75.5"/>
</g>
<!-- rev_cites -->
<g id="node8" class="node">
<title>rev_cites</title>
<polygon fill="none" stroke="black" points="421.71,-36 367.71,-36 367.71,0 421.71,0 421.71,-36"/>
<text xml:space="preserve" text-anchor="middle" x="394.71" y="-12.95" font-family="Times,serif" font-size="14.00">cites</text>
</g>
<!-- rev_cites&#45;&gt;RFC0381 -->
<g id="edge7" class="edge">
<title>rev_cites&#45;&gt;RFC0381</title>
<path fill="none" stroke="black" d="M422.12,-24.19C440.03,-28.39 465.21,-34.3 491.77,-40.53"/>
<polygon fill="black" stroke="black" points="490.81,-43.9 501.35,-42.78 492.41,-37.08 490.81,-43.9"/>
</g>
</g>
</svg>
