<?xml version="1.0" encoding="UTF-8" standalone="no"?>
<!DOCTYPE svg PUBLIC "-//W3C//DTD SVG 1.1//EN"
 "http://www.w3.org/Graphics/SVG/1.1/DTD/svg11.dtd">
<!-- Generated by graphviz version 14.1.1 (20251213.1925)
 -->
<!-- Title: Flow Pages: 1 -->
<svg width="861pt" height="186pt"
 viewBox="0.00 0.00 861.00 186.00" xmlns="http://www.w3.org/2000/svg" xmlns:xlink="http://www.w3.org/1999/xlink">
<g id="graph0" class="graph" transform="scale(1 1) rotate(0) translate(4 182.33)">
<title>Flow</title>
<polygon fill="white" stroke="none" points="-4,4 -4,-182.33 857.09,-182.33 857.09,4 -4,4"/>
<!-- RFC0724 -->
<g id="node1" class="node">
<title>RFC0724</title>
<g id="a_node1"><a xlink:title="None">
<ellipse fill="none" stroke="black" cx="612.11" cy="-72" rx="149.73" ry="52.33"/>
<text xml:space="preserve" text-anchor="middle" x="612.11" y="-91.7" font-family="Times,serif" font-size="14.00">RFC0724</text>
<text xml:space="preserve" text-anchor="middle" x="612.11" y="-75.2" font-family="Times,serif" font-size="14.00">Proposed official standard for the</text>
<text xml:space="preserve" text-anchor="middle" x="612.11" y="-58.7" font-family="Times,serif" font-size="14.00">format of ARPA Network messages</text>
<text xml:space="preserve" text-anchor="middle" x="612.11" y="-42.2" font-family="Times,serif" font-size="14.00">1977</text>
</a>
</g>
</g>
<!-- obs -->
<g id="node4" class="node">
<title>obs</title>
<polygon fill="none" stroke="black" points="853.09,-144 786.84,-144 786.84,-108 853.09,-108 853.09,-144"/>
<text xml:space="preserve" text-anchor="middle" x="819.96" y="-120.95" font-family="Times,serif" font-size="14.00">obsoletes</text>
</g>
<!-- RFC0724&#45;&gt;obs -->
<g id="edge3" class="edge">
<title>RFC0724&#45;&gt;obs</title>
<path fill="none" stroke="black" d="M732.86,-103.41C748.18,-107.43 762.99,-111.32 775.88,-114.7"/>
<polygon fill="black" stroke="black" points="774.66,-118 785.22,-117.15 776.44,-111.23 774.66,-118"/>
</g>
<!-- updates -->
<g id="node5" class="node">
<title>updates</title>
<polygon fill="none" stroke="black" points="848.59,-90 791.34,-90 791.34,-54 848.59,-54 848.59,-90"/>
<text xml:space="preserve" text-anchor="middle" x="819.96" y="-66.95" font-family="Times,serif" font-size="14.00">updates</text>
</g>
<!-- RFC0724&#45;&gt;updates -->
<g id="edge4" class="edge">
<title>RFC0724&#45;&gt;updates</title>
<path fill="none" stroke="black" d="M762.17,-72C768.35,-72 774.25,-72 779.75,-72"/>
<polygon fill="black" stroke="black" points="779.59,-75.5 789.59,-72 779.59,-68.5 779.59,-75.5"/>
</g>
<!-- cites -->
<g id="node7" class="node">
<title>cites</title>
<polygon fill="none" stroke="black" points="846.96,-36 792.96,-36 792.96,0 846.96,0 846.96,-36"/>
<text xml:space="preserve" text-anchor="middle" x="819.96" y="-12.95" font-family="Times,serif" font-size="14.00">cites</text>
</g>
<!-- RFC0724&#45;&gt;cites -->
<g id="edge6" class="edge">
<title>RFC0724&#45;&gt;cites</title>
<path fill="none" stroke="black" d="M732.86,-40.59C750.58,-35.94 767.63,-31.47 781.8,-27.75"/>
<polygon fill="black" stroke="black" points="782.27,-31.24 791.05,-25.32 780.49,-24.47 782.27,-31.24"/>
</g>
<!-- obs_by -->
<g id="node2" class="node">
<title>obs_by</title>
<polygon fill="none" stroke="black" points="437.38,-144 371.13,-144 371.13,-108 437.38,-108 437.38,-144"/>
<text xml:space="preserve" text-anchor="middle" x="404.25" y="-120.95" font-family="Times,serif" font-size="14.00">obsoletes</text>
</g>
<!-- obs_by&#45;&gt;RFC0724 -->
<g id="edge1" class="edge">
<title>obs_by&#45;&gt;RFC0724</title>
<path fill="none" stroke="black" d="M437.87,-117.44C450.12,-114.23 464.92,-110.35 480.64,-106.22"/>
<polygon fill="black" stroke="black" points="481.41,-109.64 490.19,-103.72 479.63,-102.87 481.41,-109.64"/>
</g>
<!-- RFC0733 -->
<g id="node3" class="node">
<title>RFC0733</title>
<g id="a_node3"><a xlink:href="RFC0733.html" xlink:title="None" target="_top">
<ellipse fill="none" stroke="black" cx="173.06" cy="-126" rx="173.06" ry="52.33"/>
<text xml:space="preserve" text-anchor="middle" x="173.06" y="-145.7" font-family="Times,serif" font-size="14.00">RFC0733</text>
<text xml:space="preserve" text-anchor="middle" x="173.06" y="-129.2" font-family="Times,serif" font-size="14.00">Standard for the format of ARPA network</text>
<text xml:space="preserve" text-anchor="middle" x="173.06" y="-112.7" font-family="Times,serif" font-size="14.00">text messages</text>
<text xml:space="preserve" text-anchor="middle" x="173.06" y="-96.2" font-family="Times,serif" font-size="14.00">1977</text>
</a>
</g>
</g>
<!-- RFC0733&#45;&gt;obs_by -->
<g id="edge2" class="edge">
<title>RFC0733&#45;&gt;obs_by</title>
<path fill="none" stroke="black" d="M346.6,-126C350.99,-126 355.22,-126 359.27,-126"/>
<polygon fill="black" stroke="black" points="359.26,-129.5 369.26,-126 359.26,-122.5 359.26,-129.5"/>
</g>
<!-- updated_by -->
<g id="node6" class="node">
<title>updated_by</title>
<polygon fill="none" stroke="black" points="432.88,-90 375.63,-90 375.63,-54 432.88,-54 432.88,-90"/>
<text xml:space="preserve" text-anchor="middle" x="404.25" y="-66.95" font-family="Times,serif" font-size="14.00">updates</text>
</g>
<!-- updated_by&#45;&gt;RFC0724 -->
<g id="edge5" class="edge">
<title>updated_by&#45;&gt;RFC0724</title>
<path fill="none" stroke="black" d="M433.02,-72C438.43,-72 444.45,-72 450.92,-72"/>
<polygon fill="black" stroke="black" points="450.67,-75.5 460.67,-72 450.67,-68.5 450.67,-75.5"/>
</g>
<!-- rev_cites -->
<g id="node8" class="node">
<title>rev_cites</title>
<polygon fill="none" stroke="black" points="431.25,-36 377.25,-36 377.25,0 431.25,0 431.25,-36"/>
<text xml:space="preserve" text-anchor="middle" x="404.25" y="-12.95" font-family="Times,serif" font-size="14.00">cites</text>
</g>
<!-- rev_cites&#45;&gt;RFC0724 -->
<g id="edge7" class="edge">
<title>rev_cites&#45;&gt;RFC0724</title>
<path fill="none" stroke="black" d="M431.74,-24.95C445,-28.43 462.12,-32.92 480.52,-37.74"/>
<polygon fill="black" stroke="black" points="479.46,-41.08 490.02,-40.24 481.24,-34.31 479.46,-41.08"/>
</g>
</g>
</svg>
