<?xml version="1.0" encoding="UTF-8" standalone="no"?>
<!DOCTYPE svg PUBLIC "-//W3C//DTD SVG 1.1//EN"
 "http://www.w3.org/Graphics/SVG/1.1/DTD/svg11.dtd">
<!-- Generated by graphviz version 14.1.1 (20251213.1925)
 -->
<!-- Title: Flow Pages: 1 -->
<svg width="707pt" height="152pt"
 viewBox="0.00 0.00 707.00 152.00" xmlns="http://www.w3.org/2000/svg" xmlns:xlink="http://www.w3.org/1999/xlink">
<g id="graph0" class="graph" transform="scale(1 1) rotate(0) translate(4 148)">
<title>Flow</title>
<polygon fill="white" stroke="none" points="-4,4 -4,-148 703.29,-148 703.29,4 -4,4"/>
<!-- RFC0323 -->
<g id="node1" class="node">
<title>RFC0323</title>
<g id="a_node1"><a xlink:title="None">
<ellipse fill="none" stroke="black" cx="427.02" cy="-72" rx="181.02" ry="52.33"/>
<text xml:space="preserve" text-anchor="middle" x="427.02" y="-91.7" font-family="Times,serif" font-size="14.00">RFC0323</text>
<text xml:space="preserve" text-anchor="middle" x="427.02" y="-75.2" font-family="Times,serif" font-size="14.00">Formation of Network Measurement Group</text>
<text xml:space="preserve" text-anchor="middle" x="427.02" y="-58.7" font-family="Times,serif" font-size="14.00">(NMG)</text>
<text xml:space="preserve" text-anchor="middle" x="427.02" y="-42.2" font-family="Times,serif" font-size="14.00">1972</text>
</a>
</g>
</g>
<!-- obs -->
<g id="node3" class="node">
<title>obs</title>
<polygon fill="none" stroke="black" points="699.29,-144 633.04,-144 633.04,-108 699.29,-108 699.29,-144"/>
<text xml:space="preserve" text-anchor="middle" x="666.17" y="-120.95" font-family="Times,serif" font-size="14.00">obsoletes</text>
</g>
<!-- RFC0323&#45;&gt;obs -->
<g id="edge2" class="edge">
<title>RFC0323&#45;&gt;obs</title>
<path fill="none" stroke="black" d="M570.08,-104.35C588.79,-108.61 606.68,-112.68 621.8,-116.12"/>
<polygon fill="black" stroke="black" points="620.78,-119.48 631.31,-118.29 622.34,-112.66 620.78,-119.48"/>
</g>
<!-- updates -->
<g id="node4" class="node">
<title>updates</title>
<polygon fill="none" stroke="black" points="694.79,-90 637.54,-90 637.54,-54 694.79,-54 694.79,-90"/>
<text xml:space="preserve" text-anchor="middle" x="666.17" y="-66.95" font-family="Times,serif" font-size="14.00">updates</text>
</g>
<!-- RFC0323&#45;&gt;updates -->
<g id="edge3" class="edge">
<title>RFC0323&#45;&gt;updates</title>
<path fill="none" stroke="black" d="M608.37,-72C614.58,-72 620.48,-72 625.97,-72"/>
<polygon fill="black" stroke="black" points="625.75,-75.5 635.75,-72 625.75,-68.5 625.75,-75.5"/>
</g>
<!-- cites -->
<g id="node7" class="node">
<title>cites</title>
<polygon fill="none" stroke="black" points="693.17,-36 639.17,-36 639.17,0 693.17,0 693.17,-36"/>
<text xml:space="preserve" text-anchor="middle" x="666.17" y="-12.95" font-family="Times,serif" font-size="14.00">cites</text>
</g>
<!-- RFC0323&#45;&gt;cites -->
<g id="edge6" class="edge">
<title>RFC0323&#45;&gt;cites</title>
<path fill="none" stroke="black" d="M570.08,-39.65C591.35,-34.81 611.57,-30.2 627.86,-26.5"/>
<polygon fill="black" stroke="black" points="628.53,-29.93 637.5,-24.3 626.97,-23.11 628.53,-29.93"/>
</g>
<!-- obs_by -->
<g id="node2" class="node">
<title>obs_by</title>
<polygon fill="none" stroke="black" points="221,-144 154.75,-144 154.75,-108 221,-108 221,-144"/>
<text xml:space="preserve" text-anchor="middle" x="187.88" y="-120.95" font-family="Times,serif" font-size="14.00">obsoletes</text>
</g>
<!-- obs_by&#45;&gt;RFC0323 -->
<g id="edge1" class="edge">
<title>obs_by&#45;&gt;RFC0323</title>
<path fill="none" stroke="black" d="M221.36,-118.6C235.63,-115.35 253.52,-111.28 272.74,-106.9"/>
<polygon fill="black" stroke="black" points="273.42,-110.34 282.39,-104.71 271.87,-103.51 273.42,-110.34"/>
</g>
<!-- updated_by -->
<g id="node5" class="node">
<title>updated_by</title>
<polygon fill="none" stroke="black" points="216.5,-90 159.25,-90 159.25,-54 216.5,-54 216.5,-90"/>
<text xml:space="preserve" text-anchor="middle" x="187.88" y="-66.95" font-family="Times,serif" font-size="14.00">updates</text>
</g>
<!-- updated_by&#45;&gt;RFC0323 -->
<g id="edge4" class="edge">
<title>updated_by&#45;&gt;RFC0323</title>
<path fill="none" stroke="black" d="M216.55,-72C221.95,-72 227.98,-72 234.49,-72"/>
<polygon fill="black" stroke="black" points="234.35,-75.5 244.35,-72 234.35,-68.5 234.35,-75.5"/>
</g>
<!-- RFC0388 -->
<g id="node6" class="node">
<title>RFC0388</title>
<g id="a_node6"><a xlink:href="RFC0388.html" xlink:title="None" target="_top">
<ellipse fill="none" stroke="black" cx="64.88" cy="-72" rx="64.88" ry="40.66"/>
<text xml:space="preserve" text-anchor="middle" x="64.88" y="-83.45" font-family="Times,serif" font-size="14.00">RFC0388</text>
<text xml:space="preserve" text-anchor="middle" x="64.88" y="-66.95" font-family="Times,serif" font-size="14.00">NCP statistics</text>
<text xml:space="preserve" text-anchor="middle" x="64.88" y="-50.45" font-family="Times,serif" font-size="14.00">1972</text>
</a>
</g>
</g>
<!-- RFC0388&#45;&gt;updated_by -->
<g id="edge5" class="edge">
<title>RFC0388&#45;&gt;updated_by</title>
<path fill="none" stroke="black" d="M129.92,-72C135.98,-72 141.99,-72 147.71,-72"/>
<polygon fill="black" stroke="black" points="147.45,-75.5 157.45,-72 147.45,-68.5 147.45,-75.5"/>
</g>
<!-- rev_cites -->
<g id="node8" class="node">
<title>rev_cites</title>
<polygon fill="none" stroke="black" points="214.88,-36 160.88,-36 160.88,0 214.88,0 214.88,-36"/>
<text xml:space="preserve" text-anchor="middle" x="187.88" y="-12.95" font-family="Times,serif" font-size="14.00">cites</text>
</g>
<!-- rev_cites&#45;&gt;RFC0323 -->
<g id="edge7" class="edge">
<title>rev_cites&#45;&gt;RFC0323</title>
<path fill="none" stroke="black" d="M215.16,-23.99C230.29,-27.43 250.67,-32.07 272.82,-37.11"/>
<polygon fill="black" stroke="black" points="271.81,-40.47 282.34,-39.28 273.36,-33.65 271.81,-40.47"/>
</g>
</g>
</svg>
