<?xml version="1.0" encoding="UTF-8" standalone="no"?>
<!DOCTYPE svg PUBLIC "-//W3C//DTD SVG 1.1//EN"
 "http://www.w3.org/Graphics/SVG/1.1/DTD/svg11.dtd">
<!-- Generated by graphviz version 14.1.1 (20251213.1925)
 -->
<!-- Title: Flow Pages: 1 -->
<svg width="2001pt" height="1528pt"
 viewBox="0.00 0.00 2001.00 1528.00" xmlns="http://www.w3.org/2000/svg" xmlns:xlink="http://www.w3.org/1999/xlink">
<g id="graph0" class="graph" transform="scale(1 1) rotate(0) translate(4 1523.97)">
<title>Flow</title>
<polygon fill="white" stroke="none" points="-4,4 -4,-1523.97 1996.64,-1523.97 1996.64,4 -4,4"/>
<!-- RFC0793 -->
<g id="node1" class="node">
<title>RFC0793</title>
<g id="a_node1"><a xlink:title="None">
<ellipse fill="green" stroke="black" stroke-width="3" cx="1017.99" cy="-915.75" rx="168.82" ry="50.2"/>
<text xml:space="preserve" text-anchor="middle" x="1017.99" y="-930.15" font-family="Times,serif" font-size="18.00">RFC0793</text>
<text xml:space="preserve" text-anchor="middle" x="1017.99" y="-909.15" font-family="Times,serif" font-size="18.00">Transmission Control Protocol</text>
<text xml:space="preserve" text-anchor="middle" x="1017.99" y="-888.15" font-family="Times,serif" font-size="18.00">1981</text>
</a>
</g>
</g>
<!-- obs -->
<g id="node4" class="node">
<title>obs</title>
<polygon fill="lightblue" stroke="black" points="1463.05,-1083.68 1396.8,-1083.68 1396.8,-1047.68 1463.05,-1047.68 1463.05,-1083.68"/>
<text xml:space="preserve" text-anchor="middle" x="1429.92" y="-1060.63" font-family="Times,serif" font-size="14.00">obsoletes</text>
</g>
<!-- RFC0793&#45;&gt;obs -->
<g id="edge3" class="edge">
<title>RFC0793&#45;&gt;obs</title>
<path fill="none" stroke="black" d="M1127.03,-955.44C1211.8,-986.29 1324.95,-1027.47 1386.15,-1049.75"/>
<polygon fill="black" stroke="black" points="1384.58,-1052.9 1395.17,-1053.03 1386.97,-1046.32 1384.58,-1052.9"/>
</g>
<!-- updates -->
<g id="node6" class="node">
<title>updates</title>
<polygon fill="lightyellow" stroke="black" points="1265.8,-1313.39 1208.55,-1313.39 1208.55,-1277.39 1265.8,-1277.39 1265.8,-1313.39"/>
<text xml:space="preserve" text-anchor="middle" x="1237.17" y="-1290.34" font-family="Times,serif" font-size="14.00">updates</text>
</g>
<!-- RFC0793&#45;&gt;updates -->
<g id="edge5" class="edge">
<title>RFC0793&#45;&gt;updates</title>
<path fill="none" stroke="black" d="M1047.32,-966.55C1094.17,-1047.7 1184.35,-1203.89 1221.04,-1267.45"/>
<polygon fill="black" stroke="black" points="1217.87,-1268.96 1225.9,-1275.87 1223.93,-1265.46 1217.87,-1268.96"/>
</g>
<!-- cites -->
<g id="node12" class="node">
<title>cites</title>
<polygon fill="lightblue" stroke="black" points="968.86,-1365.46 914.86,-1365.46 914.86,-1329.46 968.86,-1329.46 968.86,-1365.46"/>
<text xml:space="preserve" text-anchor="middle" x="941.86" y="-1342.41" font-family="Times,serif" font-size="14.00">cites</text>
</g>
<!-- RFC0793&#45;&gt;cites -->
<g id="edge11" class="edge">
<title>RFC0793&#45;&gt;cites</title>
<path fill="none" stroke="black" d="M1008.96,-966.97C992.88,-1058.15 959.78,-1245.85 947.03,-1318.16"/>
<polygon fill="black" stroke="black" points="943.65,-1317.18 945.36,-1327.64 950.54,-1318.4 943.65,-1317.18"/>
</g>
<!-- obs_by -->
<g id="node2" class="node">
<title>obs_by</title>
<polygon fill="lightblue" stroke="black" points="715.3,-1215.53 649.05,-1215.53 649.05,-1179.53 715.3,-1179.53 715.3,-1215.53"/>
<text xml:space="preserve" text-anchor="middle" x="682.17" y="-1192.48" font-family="Times,serif" font-size="14.00">obsoletes</text>
</g>
<!-- obs_by&#45;&gt;RFC0793 -->
<g id="edge1" class="edge">
<title>obs_by&#45;&gt;RFC0793</title>
<path fill="none" stroke="black" d="M704.21,-1179.04C753.66,-1137.54 875.15,-1035.6 951.62,-971.43"/>
<polygon fill="black" stroke="black" points="953.69,-974.27 959.1,-965.16 949.19,-968.91 953.69,-974.27"/>
</g>
<!-- RFC9293 -->
<g id="node3" class="node">
<title>RFC9293</title>
<g id="a_node3"><a xlink:href="RFC9293.html" xlink:title="This document specifies the Transmission Control Protocol (TCP). &#160;TCP is an important transport&#45;layer protocol in the Internet protocol stack, and it has continuously evolved over decades of use and growth of the Internet. &#160;Over this time, a number of changes have been made to TCP as it was specified in RFC 793, though these have only been documented in a piecemeal fashion. &#160;This document collects and brings those changes together with the protocol specification from RFC 793. &#160;This document obsoletes RFC 793, as well as RFCs 879, 2873, 6093, 6429, 6528, and 6691 that updated parts of RFC 793. &#160;It updates RFCs 1011 and 1122, and it should be considered as a replacement for the portions of those documents dealing with TCP requirements. &#160;It also updates RFC 5961 by adding a small clarification in reset handling while in the SYN&#45;RECEIVED state. &#160;The TCP header control bits from RFC 793 have also been updated based on RFC 3168." target="_top">
<ellipse fill="none" stroke="black" cx="346.36" cy="-1479.31" rx="156.62" ry="40.66"/>
<text xml:space="preserve" text-anchor="middle" x="346.36" y="-1490.76" font-family="Times,serif" font-size="14.00">RFC9293</text>
<text xml:space="preserve" text-anchor="middle" x="346.36" y="-1474.26" font-family="Times,serif" font-size="14.00">Transmission Control Protocol (TCP)</text>
<text xml:space="preserve" text-anchor="middle" x="346.36" y="-1457.76" font-family="Times,serif" font-size="14.00">2022</text>
</a>
</g>
</g>
<!-- RFC9293&#45;&gt;obs_by -->
<g id="edge2" class="edge">
<title>RFC9293&#45;&gt;obs_by</title>
<path fill="none" stroke="black" d="M393.06,-1440.13C463,-1381.44 593.01,-1272.34 651.85,-1222.97"/>
<polygon fill="black" stroke="black" points="653.77,-1225.93 659.18,-1216.83 649.27,-1220.57 653.77,-1225.93"/>
</g>
<!-- RFC0761 -->
<g id="node5" class="node">
<title>RFC0761</title>
<g id="a_node5"><a xlink:href="RFC0761.html" xlink:title="None" target="_top">
<ellipse fill="none" stroke="black" cx="1841.85" cy="-1215.61" rx="150.79" ry="52.33"/>
<text xml:space="preserve" text-anchor="middle" x="1841.85" y="-1235.31" font-family="Times,serif" font-size="14.00">RFC0761</text>
<text xml:space="preserve" text-anchor="middle" x="1841.85" y="-1218.81" font-family="Times,serif" font-size="14.00">DoD standard Transmission Control</text>
<text xml:space="preserve" text-anchor="middle" x="1841.85" y="-1202.31" font-family="Times,serif" font-size="14.00">Protocol</text>
<text xml:space="preserve" text-anchor="middle" x="1841.85" y="-1185.81" font-family="Times,serif" font-size="14.00">1980</text>
</a>
</g>
</g>
<!-- obs&#45;&gt;RFC0761 -->
<g id="edge4" class="edge">
<title>obs&#45;&gt;RFC0761</title>
<path fill="none" stroke="black" d="M1463.28,-1077.82C1519.97,-1098.46 1637.62,-1141.28 1726.81,-1173.74"/>
<polygon fill="black" stroke="black" points="1725.53,-1177 1736.12,-1177.13 1727.92,-1170.42 1725.53,-1177"/>
</g>
<!-- updated_by -->
<g id="node7" class="node">
<title>updated_by</title>
<polygon fill="lightyellow" stroke="black" points="827.43,-554.11 770.18,-554.11 770.18,-518.11 827.43,-518.11 827.43,-554.11"/>
<text xml:space="preserve" text-anchor="middle" x="798.8" y="-531.06" font-family="Times,serif" font-size="14.00">updates</text>
</g>
<!-- updated_by&#45;&gt;RFC0793 -->
<g id="edge6" class="edge">
<title>updated_by&#45;&gt;RFC0793</title>
<path fill="none" stroke="black" d="M809.37,-554.42C840.37,-608.11 932.06,-766.92 982.96,-855.07"/>
<polygon fill="black" stroke="black" points="979.86,-856.72 987.89,-863.63 985.93,-853.22 979.86,-856.72"/>
</g>
<!-- RFC1122 -->
<g id="node8" class="node">
<title>RFC1122</title>
<g id="a_node8"><a xlink:href="RFC1122.html" xlink:title="This RFC is an official specification for the Internet community. &#160;It incorporates by reference, amends, corrects, and supplements the primary protocol standards documents relating to hosts. [STANDARDS&#45;TRACK]" target="_top">
<ellipse fill="none" stroke="black" cx="141.24" cy="-915.75" rx="141.24" ry="52.33"/>
<text xml:space="preserve" text-anchor="middle" x="141.24" y="-935.45" font-family="Times,serif" font-size="14.00">RFC1122</text>
<text xml:space="preserve" text-anchor="middle" x="141.24" y="-918.95" font-family="Times,serif" font-size="14.00">Requirements for Internet Hosts &#45;</text>
<text xml:space="preserve" text-anchor="middle" x="141.24" y="-902.45" font-family="Times,serif" font-size="14.00">Communication Layers</text>
<text xml:space="preserve" text-anchor="middle" x="141.24" y="-885.95" font-family="Times,serif" font-size="14.00">1989</text>
</a>
</g>
</g>
<!-- RFC1122&#45;&gt;updated_by -->
<g id="edge7" class="edge">
<title>RFC1122&#45;&gt;updated_by</title>
<path fill="none" stroke="black" d="M217.96,-871.46C358.78,-790.15 653.77,-619.84 759.8,-558.62"/>
<polygon fill="black" stroke="black" points="761.53,-561.67 768.44,-553.64 758.03,-555.6 761.53,-561.67"/>
</g>
<!-- RFC3168 -->
<g id="node9" class="node">
<title>RFC3168</title>
<g id="a_node9"><a xlink:href="RFC3168.html" xlink:title="This memo specifies the incorporation of ECN (Explicit Congestion Notification) to TCP and IP, including ECN&#39;s use of two bits in the IP header. [STANDARDS&#45;TRACK]" target="_top">
<ellipse fill="none" stroke="black" cx="346.36" cy="-352.19" rx="151.85" ry="52.33"/>
<text xml:space="preserve" text-anchor="middle" x="346.36" y="-371.89" font-family="Times,serif" font-size="14.00">RFC3168</text>
<text xml:space="preserve" text-anchor="middle" x="346.36" y="-355.39" font-family="Times,serif" font-size="14.00">The Addition of Explicit Congestion</text>
<text xml:space="preserve" text-anchor="middle" x="346.36" y="-338.89" font-family="Times,serif" font-size="14.00">Notification (ECN) to IP</text>
<text xml:space="preserve" text-anchor="middle" x="346.36" y="-322.39" font-family="Times,serif" font-size="14.00">2001</text>
</a>
</g>
</g>
<!-- RFC3168&#45;&gt;updated_by -->
<g id="edge8" class="edge">
<title>RFC3168&#45;&gt;updated_by</title>
<path fill="none" stroke="black" d="M445.09,-392.32C543.57,-432.35 689.9,-491.84 759.4,-520.09"/>
<polygon fill="black" stroke="black" points="757.89,-523.26 768.48,-523.78 760.53,-516.77 757.89,-523.26"/>
</g>
<!-- RFC6093 -->
<g id="node10" class="node">
<title>RFC6093</title>
<g id="a_node10"><a xlink:href="RFC6093.html" xlink:title="This document analyzes how current TCP implementations process TCP urgent indications and how the behavior of some widely deployed middleboxes affects how end systems process urgent indications. &#160;This document updates the relevant specifications such that they accommodate current practice in processing TCP urgent indications, raises awareness about the reliability of TCP urgent indications in the Internet, and recommends against the use of urgent indications (but provides advice to applications that do). [STANDARDS&#45;TRACK]" target="_top">
<ellipse fill="none" stroke="black" cx="865.74" cy="-52.33" rx="174.66" ry="52.33"/>
<text xml:space="preserve" text-anchor="middle" x="865.74" y="-72.03" font-family="Times,serif" font-size="14.00">RFC6093</text>
<text xml:space="preserve" text-anchor="middle" x="865.74" y="-55.53" font-family="Times,serif" font-size="14.00">On the Implementation of the TCP Urgent</text>
<text xml:space="preserve" text-anchor="middle" x="865.74" y="-39.03" font-family="Times,serif" font-size="14.00">Mechanism</text>
<text xml:space="preserve" text-anchor="middle" x="865.74" y="-22.53" font-family="Times,serif" font-size="14.00">2011</text>
</a>
</g>
</g>
<!-- RFC6093&#45;&gt;updated_by -->
<g id="edge9" class="edge">
<title>RFC6093&#45;&gt;updated_by</title>
<path fill="none" stroke="black" d="M858.45,-105.02C844.37,-206.81 813.84,-427.45 802.85,-506.88"/>
<polygon fill="black" stroke="black" points="799.42,-506.07 801.52,-516.46 806.36,-507.03 799.42,-506.07"/>
</g>
<!-- RFC6528 -->
<g id="node11" class="node">
<title>RFC6528</title>
<g id="a_node11"><a xlink:href="RFC6528.html" xlink:title="This document specifies an algorithm for the generation of TCP Initial Sequence Numbers (ISNs), such that the chances of an off&#45;path attacker guessing the sequence numbers in use by a target connection are reduced. &#160;This document revises (and formally obsoletes) RFC 1948, and takes the ISN generation algorithm originally proposed in that document to Standards Track, formally updating RFC 793. [STANDARDS&#45;TRACK]" target="_top">
<ellipse fill="none" stroke="black" cx="1456.36" cy="-156.47" rx="155.03" ry="52.33"/>
<text xml:space="preserve" text-anchor="middle" x="1456.36" y="-176.17" font-family="Times,serif" font-size="14.00">RFC6528</text>
<text xml:space="preserve" text-anchor="middle" x="1456.36" y="-159.67" font-family="Times,serif" font-size="14.00">Defending against Sequence Number</text>
<text xml:space="preserve" text-anchor="middle" x="1456.36" y="-143.17" font-family="Times,serif" font-size="14.00">Attacks</text>
<text xml:space="preserve" text-anchor="middle" x="1456.36" y="-126.67" font-family="Times,serif" font-size="14.00">2012</text>
</a>
</g>
</g>
<!-- RFC6528&#45;&gt;updated_by -->
<g id="edge10" class="edge">
<title>RFC6528&#45;&gt;updated_by</title>
<path fill="none" stroke="black" d="M1377.69,-201.88C1236,-283.69 942.84,-452.95 837.53,-513.75"/>
<polygon fill="black" stroke="black" points="835.86,-510.67 828.95,-518.7 839.36,-516.73 835.86,-510.67"/>
</g>
<!-- rev_cites -->
<g id="node13" class="node">
<title>rev_cites</title>
<polygon fill="lightblue" stroke="black" points="1456.92,-783.82 1402.92,-783.82 1402.92,-747.82 1456.92,-747.82 1456.92,-783.82"/>
<text xml:space="preserve" text-anchor="middle" x="1429.92" y="-760.77" font-family="Times,serif" font-size="14.00">cites</text>
</g>
<!-- rev_cites&#45;&gt;RFC0793 -->
<g id="edge12" class="edge">
<title>rev_cites&#45;&gt;RFC0793</title>
<path fill="none" stroke="black" d="M1402.57,-775.77C1349.51,-795.08 1229.72,-838.68 1137.82,-872.13"/>
<polygon fill="black" stroke="black" points="1136.67,-868.83 1128.47,-875.54 1139.06,-875.4 1136.67,-868.83"/>
</g>
</g>
</svg>
