<?xml version="1.0" encoding="UTF-8" standalone="no"?>
<!DOCTYPE svg PUBLIC "-//W3C//DTD SVG 1.1//EN"
 "http://www.w3.org/Graphics/SVG/1.1/DTD/svg11.dtd">
<!-- Generated by graphviz version 14.1.1 (20251213.1925)
 -->
<!-- Title: Flow Pages: 1 -->
<svg width="1208pt" height="533pt"
 viewBox="0.00 0.00 1208.00 533.00" xmlns="http://www.w3.org/2000/svg" xmlns:xlink="http://www.w3.org/1999/xlink">
<g id="graph0" class="graph" transform="scale(1 1) rotate(0) translate(4 528.98)">
<title>Flow</title>
<polygon fill="white" stroke="none" points="-4,4 -4,-528.98 1203.82,-528.98 1203.82,4 -4,4"/>
<!-- RFC1391 -->
<g id="node1" class="node">
<title>RFC1391</title>
<g id="a_node1"><a xlink:title="The purpose of this For Your Information (FYI) RFC is to explain to the newcomers how the IETF works. &#160;This will give them a warm, fuzzy feeling and enable them to make the meeting more productive for everyone. &#160;This memo provides information for the Internet community. &#160;It does not specify an Internet standard.">
<ellipse fill="none" stroke="black" cx="590.37" cy="-292.66" rx="161.93" ry="63.99"/>
<text xml:space="preserve" text-anchor="middle" x="590.37" y="-320.61" font-family="Times,serif" font-size="14.00">RFC1391</text>
<text xml:space="preserve" text-anchor="middle" x="590.37" y="-304.11" font-family="Times,serif" font-size="14.00">The Tao of the IETF: A Guide for New</text>
<text xml:space="preserve" text-anchor="middle" x="590.37" y="-287.61" font-family="Times,serif" font-size="14.00">Attendees of the Internet Engineering</text>
<text xml:space="preserve" text-anchor="middle" x="590.37" y="-271.11" font-family="Times,serif" font-size="14.00">Task Force</text>
<text xml:space="preserve" text-anchor="middle" x="590.37" y="-254.61" font-family="Times,serif" font-size="14.00">1993</text>
</a>
</g>
</g>
<!-- obs -->
<g id="node4" class="node">
<title>obs</title>
<polygon fill="none" stroke="black" points="843.54,-364.66 777.29,-364.66 777.29,-328.66 843.54,-328.66 843.54,-364.66"/>
<text xml:space="preserve" text-anchor="middle" x="810.42" y="-341.61" font-family="Times,serif" font-size="14.00">obsoletes</text>
</g>
<!-- RFC1391&#45;&gt;obs -->
<g id="edge3" class="edge">
<title>RFC1391&#45;&gt;obs</title>
<path fill="none" stroke="black" d="M728.22,-326.55C741.83,-329.92 754.81,-333.14 766.25,-335.97"/>
<polygon fill="black" stroke="black" points="765.12,-339.29 775.67,-338.3 766.81,-332.5 765.12,-339.29"/>
</g>
<!-- updates -->
<g id="node5" class="node">
<title>updates</title>
<polygon fill="none" stroke="black" points="839.04,-310.66 781.79,-310.66 781.79,-274.66 839.04,-274.66 839.04,-310.66"/>
<text xml:space="preserve" text-anchor="middle" x="810.42" y="-287.61" font-family="Times,serif" font-size="14.00">updates</text>
</g>
<!-- RFC1391&#45;&gt;updates -->
<g id="edge4" class="edge">
<title>RFC1391&#45;&gt;updates</title>
<path fill="none" stroke="black" d="M752.7,-292.66C758.84,-292.66 764.7,-292.66 770.15,-292.66"/>
<polygon fill="black" stroke="black" points="769.89,-296.16 779.89,-292.66 769.89,-289.16 769.89,-296.16"/>
</g>
<!-- cites -->
<g id="node7" class="node">
<title>cites</title>
<polygon fill="none" stroke="black" points="837.42,-256.66 783.42,-256.66 783.42,-220.66 837.42,-220.66 837.42,-256.66"/>
<text xml:space="preserve" text-anchor="middle" x="810.42" y="-233.61" font-family="Times,serif" font-size="14.00">cites</text>
</g>
<!-- RFC1391&#45;&gt;cites -->
<g id="edge6" class="edge">
<title>RFC1391&#45;&gt;cites</title>
<path fill="none" stroke="black" d="M728.22,-258.77C744.21,-254.81 759.34,-251.06 772.11,-247.9"/>
<polygon fill="black" stroke="black" points="772.79,-251.33 781.66,-245.53 771.11,-244.54 772.79,-251.33"/>
</g>
<!-- obs_by -->
<g id="node2" class="node">
<title>obs_by</title>
<polygon fill="none" stroke="black" points="403.44,-366.66 337.19,-366.66 337.19,-330.66 403.44,-330.66 403.44,-366.66"/>
<text xml:space="preserve" text-anchor="middle" x="370.31" y="-343.61" font-family="Times,serif" font-size="14.00">obsoletes</text>
</g>
<!-- obs_by&#45;&gt;RFC1391 -->
<g id="edge1" class="edge">
<title>obs_by&#45;&gt;RFC1391</title>
<path fill="none" stroke="black" d="M403.49,-340.4C414.83,-337.48 428.43,-333.99 443.05,-330.23"/>
<polygon fill="black" stroke="black" points="443.58,-333.71 452.39,-327.84 441.84,-326.93 443.58,-333.71"/>
</g>
<!-- RFC1539 -->
<g id="node3" class="node">
<title>RFC1539</title>
<g id="a_node3"><a xlink:href="RFC1539.html" xlink:title="The purpose of this For Your Information (FYI) RFC is to explain to the newcomers how the IETF works. &#160;This memo provides information for the Internet community. &#160;It does not specify an Internet standard. [FYI 17]" target="_top">
<ellipse fill="none" stroke="black" cx="156.09" cy="-350.66" rx="156.09" ry="63.99"/>
<text xml:space="preserve" text-anchor="middle" x="156.09" y="-378.61" font-family="Times,serif" font-size="14.00">RFC1539</text>
<text xml:space="preserve" text-anchor="middle" x="156.09" y="-362.11" font-family="Times,serif" font-size="14.00">The Tao of IETF &#45; A Guide for New</text>
<text xml:space="preserve" text-anchor="middle" x="156.09" y="-345.61" font-family="Times,serif" font-size="14.00">Attendees of the Internet Engineering</text>
<text xml:space="preserve" text-anchor="middle" x="156.09" y="-329.11" font-family="Times,serif" font-size="14.00">Task Force</text>
<text xml:space="preserve" text-anchor="middle" x="156.09" y="-312.61" font-family="Times,serif" font-size="14.00">1993</text>
</a>
</g>
</g>
<!-- RFC1539&#45;&gt;obs_by -->
<g id="edge2" class="edge">
<title>RFC1539&#45;&gt;obs_by</title>
<path fill="none" stroke="black" d="M312.44,-349.19C317,-349.15 321.41,-349.11 325.61,-349.07"/>
<polygon fill="black" stroke="black" points="325.41,-352.57 335.37,-348.98 325.34,-345.57 325.41,-352.57"/>
</g>
<!-- updated_by -->
<g id="node6" class="node">
<title>updated_by</title>
<polygon fill="none" stroke="black" points="398.94,-310.66 341.69,-310.66 341.69,-274.66 398.94,-274.66 398.94,-310.66"/>
<text xml:space="preserve" text-anchor="middle" x="370.31" y="-287.61" font-family="Times,serif" font-size="14.00">updates</text>
</g>
<!-- updated_by&#45;&gt;RFC1391 -->
<g id="edge5" class="edge">
<title>updated_by&#45;&gt;RFC1391</title>
<path fill="none" stroke="black" d="M399.37,-292.66C404.75,-292.66 410.73,-292.66 417.16,-292.66"/>
<polygon fill="black" stroke="black" points="416.86,-296.16 426.86,-292.66 416.86,-289.16 416.86,-296.16"/>
</g>
<!-- RFC1111 -->
<g id="node8" class="node">
<title>RFC1111</title>
<g id="a_node8"><a xlink:href="RFC1111.html" xlink:title="This RFC specifies a standard for the Internet community. &#160;Authors of RFCs are expected to adopt and implement this standard." target="_top">
<ellipse fill="none" stroke="black" cx="1034.18" cy="-472.66" rx="165.64" ry="52.33"/>
<text xml:space="preserve" text-anchor="middle" x="1034.18" y="-492.36" font-family="Times,serif" font-size="14.00">RFC1111</text>
<text xml:space="preserve" text-anchor="middle" x="1034.18" y="-475.86" font-family="Times,serif" font-size="14.00">Request for comments on Request for</text>
<text xml:space="preserve" text-anchor="middle" x="1034.18" y="-459.36" font-family="Times,serif" font-size="14.00">Comments: Instructions to RFC authors</text>
<text xml:space="preserve" text-anchor="middle" x="1034.18" y="-442.86" font-family="Times,serif" font-size="14.00">1989</text>
</a>
</g>
</g>
<!-- cites&#45;&gt;RFC1111 -->
<g id="edge7" class="edge">
<title>cites&#45;&gt;RFC1111</title>
<path fill="none" stroke="black" d="M836.82,-256.83C839.4,-259.54 841.73,-262.5 843.54,-265.66 876.11,-322.37 826.88,-360.25 868.54,-410.66 875.99,-419.67 884.89,-427.37 894.64,-433.95"/>
<polygon fill="black" stroke="black" points="892.61,-436.81 902.95,-439.13 896.31,-430.87 892.61,-436.81"/>
</g>
<!-- RFC1150 -->
<g id="node9" class="node">
<title>RFC1150</title>
<g id="a_node9"><a xlink:href="RFC1150.html" xlink:title="This memo is the first in a new sub&#45;series of RFCs called FYIs (For Your Information). &#160;This memo provides information for the Internet community. &#160;It does not specify any standard. [Also FYI 1.]" target="_top">
<ellipse fill="none" stroke="black" cx="1034.18" cy="-349.66" rx="151.85" ry="52.33"/>
<text xml:space="preserve" text-anchor="middle" x="1034.18" y="-369.36" font-family="Times,serif" font-size="14.00">RFC1150</text>
<text xml:space="preserve" text-anchor="middle" x="1034.18" y="-352.86" font-family="Times,serif" font-size="14.00">FYI on FYI: Introduction to the FYI</text>
<text xml:space="preserve" text-anchor="middle" x="1034.18" y="-336.36" font-family="Times,serif" font-size="14.00">Notes</text>
<text xml:space="preserve" text-anchor="middle" x="1034.18" y="-319.86" font-family="Times,serif" font-size="14.00">1990</text>
</a>
</g>
</g>
<!-- cites&#45;&gt;RFC1150 -->
<g id="edge8" class="edge">
<title>cites&#45;&gt;RFC1150</title>
<path fill="none" stroke="black" d="M833.65,-257.12C836.99,-259.96 840.37,-262.87 843.54,-265.66 854.88,-275.63 855.67,-280.78 868.54,-288.66 881.51,-296.6 895.68,-303.76 910.09,-310.15"/>
<polygon fill="black" stroke="black" points="908.64,-313.34 919.21,-314.06 911.4,-306.9 908.64,-313.34"/>
</g>
<!-- RFC1311 -->
<g id="node10" class="node">
<title>RFC1311</title>
<g id="a_node10"><a xlink:href="RFC1311.html" xlink:title="The STDs are a subseries of notes within the RFC series that are the Internet standards. &#160;The intent is to identify clearly for the Internet community those RFCs which document Internet standards. [STANDARDS&#45;TRACK]" target="_top">
<ellipse fill="none" stroke="black" cx="1034.18" cy="-238.66" rx="128.52" ry="40.66"/>
<text xml:space="preserve" text-anchor="middle" x="1034.18" y="-250.11" font-family="Times,serif" font-size="14.00">RFC1311</text>
<text xml:space="preserve" text-anchor="middle" x="1034.18" y="-233.61" font-family="Times,serif" font-size="14.00">Introduction to the STD Notes</text>
<text xml:space="preserve" text-anchor="middle" x="1034.18" y="-217.11" font-family="Times,serif" font-size="14.00">1992</text>
</a>
</g>
</g>
<!-- cites&#45;&gt;RFC1311 -->
<g id="edge9" class="edge">
<title>cites&#45;&gt;RFC1311</title>
<path fill="none" stroke="black" d="M837.73,-238.66C852.63,-238.66 872.54,-238.66 893.97,-238.66"/>
<polygon fill="black" stroke="black" points="893.78,-242.16 903.78,-238.66 893.78,-235.16 893.78,-242.16"/>
</g>
<!-- RFC1160 -->
<g id="node11" class="node">
<title>RFC1160</title>
<g id="a_node11"><a xlink:href="RFC1160.html" xlink:title="This RFC provides a history and description of the Internet Activities Board (IAB) and its subsidiary organizations. &#160;This memo is for informational use and does not constitute a standard. &#160;This is a revision of RFC 1120." target="_top">
<ellipse fill="none" stroke="black" cx="1034.18" cy="-139.66" rx="106.24" ry="40.66"/>
<text xml:space="preserve" text-anchor="middle" x="1034.18" y="-151.11" font-family="Times,serif" font-size="14.00">RFC1160</text>
<text xml:space="preserve" text-anchor="middle" x="1034.18" y="-134.61" font-family="Times,serif" font-size="14.00">Internet Activities Board</text>
<text xml:space="preserve" text-anchor="middle" x="1034.18" y="-118.11" font-family="Times,serif" font-size="14.00">1990</text>
</a>
</g>
</g>
<!-- cites&#45;&gt;RFC1160 -->
<g id="edge10" class="edge">
<title>cites&#45;&gt;RFC1160</title>
<path fill="none" stroke="black" d="M828.41,-220.26C839.04,-209.7 853.54,-196.94 868.54,-188.66 887.55,-178.17 909.07,-169.68 930.13,-162.91"/>
<polygon fill="black" stroke="black" points="931.11,-166.27 939.63,-159.97 929.05,-159.58 931.11,-166.27"/>
</g>
<!-- RFC1310 -->
<g id="node12" class="node">
<title>RFC1310</title>
<g id="a_node12"><a xlink:href="RFC1310.html" xlink:title="This memo documents the process currently used for the standardization of Internet protocols and procedures. [STANDARDS&#45;TRACK]" target="_top">
<ellipse fill="none" stroke="black" cx="1034.18" cy="-40.66" rx="130.64" ry="40.66"/>
<text xml:space="preserve" text-anchor="middle" x="1034.18" y="-52.11" font-family="Times,serif" font-size="14.00">RFC1310</text>
<text xml:space="preserve" text-anchor="middle" x="1034.18" y="-35.61" font-family="Times,serif" font-size="14.00">The Internet Standards Process</text>
<text xml:space="preserve" text-anchor="middle" x="1034.18" y="-19.11" font-family="Times,serif" font-size="14.00">1992</text>
</a>
</g>
</g>
<!-- cites&#45;&gt;RFC1310 -->
<g id="edge11" class="edge">
<title>cites&#45;&gt;RFC1310</title>
<path fill="none" stroke="black" d="M813.28,-220.2C817.43,-188.81 830.33,-125.05 868.54,-89.66 880.1,-78.96 893.89,-70.59 908.51,-64.04"/>
<polygon fill="black" stroke="black" points="909.45,-67.44 917.35,-60.37 906.77,-60.97 909.45,-67.44"/>
</g>
<!-- rev_cites -->
<g id="node13" class="node">
<title>rev_cites</title>
<polygon fill="none" stroke="black" points="397.31,-252.66 343.31,-252.66 343.31,-216.66 397.31,-216.66 397.31,-252.66"/>
<text xml:space="preserve" text-anchor="middle" x="370.31" y="-229.61" font-family="Times,serif" font-size="14.00">cites</text>
</g>
<!-- rev_cites&#45;&gt;RFC1391 -->
<g id="edge12" class="edge">
<title>rev_cites&#45;&gt;RFC1391</title>
<path fill="none" stroke="black" d="M397.61,-241.65C410.34,-245.04 426.71,-249.39 444.51,-254.13"/>
<polygon fill="black" stroke="black" points="443.42,-257.46 453.99,-256.65 445.22,-250.7 443.42,-257.46"/>
</g>
<!-- RFC9592 -->
<g id="node14" class="node">
<title>RFC9592</title>
<g id="a_node14"><a xlink:href="RFC9592.html" xlink:title="This document retires and obsoletes the Tao of the IETF as an IETF&#45;maintained document. &#160;This document also obsoletes RFC 6722, which describes the publication process of the Tao. &#160;Furthermore, this document describes the rationale for the retirement of the Tao. &#160;For archival purposes, the last version of the Tao is included in the appendix. &#160;Information that new participants need to engage in the work of the IETF will continue to be provided through the IETF website in a more timely and accessible manner. &#160;This is the way." target="_top">
<ellipse fill="none" stroke="black" cx="156.09" cy="-227.66" rx="121.62" ry="40.66"/>
<text xml:space="preserve" text-anchor="middle" x="156.09" y="-239.11" font-family="Times,serif" font-size="14.00">RFC9592</text>
<text xml:space="preserve" text-anchor="middle" x="156.09" y="-222.61" font-family="Times,serif" font-size="14.00">Retiring the Tao of the IETF</text>
<text xml:space="preserve" text-anchor="middle" x="156.09" y="-206.11" font-family="Times,serif" font-size="14.00">2024</text>
</a>
</g>
</g>
<!-- RFC9592&#45;&gt;rev_cites -->
<g id="edge13" class="edge">
<title>RFC9592&#45;&gt;rev_cites</title>
<path fill="none" stroke="black" d="M277.46,-231.63C297.15,-232.28 316.16,-232.91 331.73,-233.42"/>
<polygon fill="black" stroke="black" points="331.3,-236.91 341.41,-233.74 331.53,-229.91 331.3,-236.91"/>
</g>
</g>
</svg>
