<?xml version="1.0" encoding="UTF-8" standalone="no"?>
<!DOCTYPE svg PUBLIC "-//W3C//DTD SVG 1.1//EN"
 "http://www.w3.org/Graphics/SVG/1.1/DTD/svg11.dtd">
<!-- Generated by graphviz version 14.1.1 (20251213.1925)
 -->
<!-- Title: Flow Pages: 1 -->
<svg width="833pt" height="197pt"
 viewBox="0.00 0.00 833.00 197.00" xmlns="http://www.w3.org/2000/svg" xmlns:xlink="http://www.w3.org/1999/xlink">
<g id="graph0" class="graph" transform="scale(1 1) rotate(0) translate(4 193.32)">
<title>Flow</title>
<polygon fill="white" stroke="none" points="-4,4 -4,-193.32 829.41,-193.32 829.41,4 -4,4"/>
<!-- RFC1184 -->
<g id="node1" class="node">
<title>RFC1184</title>
<g id="a_node1"><a xlink:title="This RFC specifies a procedure for line at a time terminal interaction based on the Telnet Protocol. &#160;It obsoletes RFC 1116. [STANDARDS&#45;TRACK]">
<ellipse fill="green" stroke="black" cx="393.08" cy="-94.66" rx="106.77" ry="40.66"/>
<text xml:space="preserve" text-anchor="middle" x="393.08" y="-106.11" font-family="Times,serif" font-size="14.00">RFC1184</text>
<text xml:space="preserve" text-anchor="middle" x="393.08" y="-89.61" font-family="Times,serif" font-size="14.00">Telnet Linemode Option</text>
<text xml:space="preserve" text-anchor="middle" x="393.08" y="-73.11" font-family="Times,serif" font-size="14.00">1990</text>
</a>
</g>
</g>
<!-- obs -->
<g id="node3" class="node">
<title>obs</title>
<polygon fill="lightblue" stroke="black" points="591.11,-166.66 524.86,-166.66 524.86,-130.66 591.11,-130.66 591.11,-166.66"/>
<text xml:space="preserve" text-anchor="middle" x="557.98" y="-143.61" font-family="Times,serif" font-size="14.00">obsoletes</text>
</g>
<!-- RFC1184&#45;&gt;obs -->
<g id="edge2" class="edge">
<title>RFC1184&#45;&gt;obs</title>
<path fill="none" stroke="black" d="M474.58,-121.34C488.2,-125.86 501.86,-130.39 514.03,-134.42"/>
<polygon fill="black" stroke="black" points="512.72,-137.67 523.31,-137.5 514.92,-131.03 512.72,-137.67"/>
</g>
<!-- updates -->
<g id="node5" class="node">
<title>updates</title>
<polygon fill="lightyellow" stroke="black" points="586.61,-112.66 529.36,-112.66 529.36,-76.66 586.61,-76.66 586.61,-112.66"/>
<text xml:space="preserve" text-anchor="middle" x="557.98" y="-89.61" font-family="Times,serif" font-size="14.00">updates</text>
</g>
<!-- RFC1184&#45;&gt;updates -->
<g id="edge4" class="edge">
<title>RFC1184&#45;&gt;updates</title>
<path fill="none" stroke="black" d="M500.01,-94.66C506.28,-94.66 512.35,-94.66 518.03,-94.66"/>
<polygon fill="black" stroke="black" points="517.59,-98.16 527.59,-94.66 517.59,-91.16 517.59,-98.16"/>
</g>
<!-- cites -->
<g id="node7" class="node">
<title>cites</title>
<polygon fill="lightblue" stroke="black" points="584.98,-58.66 530.98,-58.66 530.98,-22.66 584.98,-22.66 584.98,-58.66"/>
<text xml:space="preserve" text-anchor="middle" x="557.98" y="-35.61" font-family="Times,serif" font-size="14.00">cites</text>
</g>
<!-- RFC1184&#45;&gt;cites -->
<g id="edge6" class="edge">
<title>RFC1184&#45;&gt;cites</title>
<path fill="none" stroke="black" d="M474.58,-67.98C490.48,-62.7 506.44,-57.41 520.01,-52.91"/>
<polygon fill="black" stroke="black" points="520.98,-56.28 529.37,-49.81 518.78,-49.64 520.98,-56.28"/>
</g>
<!-- obs_by -->
<g id="node2" class="node">
<title>obs_by</title>
<polygon fill="lightblue" stroke="black" points="261.31,-166.66 195.06,-166.66 195.06,-130.66 261.31,-130.66 261.31,-166.66"/>
<text xml:space="preserve" text-anchor="middle" x="228.18" y="-143.61" font-family="Times,serif" font-size="14.00">obsoletes</text>
</g>
<!-- obs_by&#45;&gt;RFC1184 -->
<g id="edge1" class="edge">
<title>obs_by&#45;&gt;RFC1184</title>
<path fill="none" stroke="black" d="M261.76,-137.86C273.3,-134.03 286.92,-129.52 300.93,-124.88"/>
<polygon fill="black" stroke="black" points="301.86,-128.25 310.25,-121.79 299.66,-121.61 301.86,-128.25"/>
</g>
<!-- RFC1116 -->
<g id="node4" class="node">
<title>RFC1116</title>
<g id="a_node4"><a xlink:href="RFC1116.html" xlink:title="Hosts on the Internet that support Linemode within the Telnet protocol are expected to adopt and implement this protocol. &#160;Obsoleted by RFC 1184. [STANDARDS&#45;TRACK]" target="_top">
<ellipse fill="none" stroke="black" cx="720.76" cy="-148.66" rx="104.65" ry="40.66"/>
<text xml:space="preserve" text-anchor="middle" x="720.76" y="-160.11" font-family="Times,serif" font-size="14.00">RFC1116</text>
<text xml:space="preserve" text-anchor="middle" x="720.76" y="-143.61" font-family="Times,serif" font-size="14.00">Telnet Linemode option</text>
<text xml:space="preserve" text-anchor="middle" x="720.76" y="-127.11" font-family="Times,serif" font-size="14.00">1989</text>
</a>
</g>
</g>
<!-- obs&#45;&gt;RFC1116 -->
<g id="edge3" class="edge">
<title>obs&#45;&gt;RFC1116</title>
<path fill="none" stroke="black" d="M591.52,-148.66C595.53,-148.66 599.8,-148.66 604.24,-148.66"/>
<polygon fill="black" stroke="black" points="604.09,-152.16 614.09,-148.66 604.09,-145.16 604.09,-152.16"/>
</g>
<!-- updated_by -->
<g id="node6" class="node">
<title>updated_by</title>
<polygon fill="lightyellow" stroke="black" points="256.81,-112.66 199.56,-112.66 199.56,-76.66 256.81,-76.66 256.81,-112.66"/>
<text xml:space="preserve" text-anchor="middle" x="228.18" y="-89.61" font-family="Times,serif" font-size="14.00">updates</text>
</g>
<!-- updated_by&#45;&gt;RFC1184 -->
<g id="edge5" class="edge">
<title>updated_by&#45;&gt;RFC1184</title>
<path fill="none" stroke="black" d="M257.19,-94.66C262.47,-94.66 268.3,-94.66 274.47,-94.66"/>
<polygon fill="black" stroke="black" points="274.41,-98.16 284.41,-94.66 274.41,-91.16 274.41,-98.16"/>
</g>
<!-- rev_cites -->
<g id="node8" class="node">
<title>rev_cites</title>
<polygon fill="lightblue" stroke="black" points="255.18,-58.66 201.18,-58.66 201.18,-22.66 255.18,-22.66 255.18,-58.66"/>
<text xml:space="preserve" text-anchor="middle" x="228.18" y="-35.61" font-family="Times,serif" font-size="14.00">cites</text>
</g>
<!-- rev_cites&#45;&gt;RFC1184 -->
<g id="edge7" class="edge">
<title>rev_cites&#45;&gt;RFC1184</title>
<path fill="none" stroke="black" d="M255.36,-49.33C268.17,-53.58 284.43,-58.97 301.24,-64.54"/>
<polygon fill="black" stroke="black" points="299.71,-67.73 310.31,-67.55 301.92,-61.08 299.71,-67.73"/>
</g>
<!-- RFC1700 -->
<g id="node9" class="node">
<title>RFC1700</title>
<g id="a_node9"><a xlink:href="RFC1700.html" xlink:title="This RFC is a snapshot of the ongoing process of the assignment of protocol parameters for the Internet protocol suite. &#160;To make the current information readily available the assignments are kept up&#45;to&#45; date in a set of online text files. &#160;This memo is a status report on the parameters (i.e., numbers and keywords) used in protocols in the Internet community." target="_top">
<ellipse fill="none" stroke="black" cx="85.03" cy="-40.66" rx="85.03" ry="40.66"/>
<text xml:space="preserve" text-anchor="middle" x="85.03" y="-52.11" font-family="Times,serif" font-size="14.00">RFC1700</text>
<text xml:space="preserve" text-anchor="middle" x="85.03" y="-35.61" font-family="Times,serif" font-size="14.00">Assigned Numbers</text>
<text xml:space="preserve" text-anchor="middle" x="85.03" y="-19.11" font-family="Times,serif" font-size="14.00">1994</text>
</a>
</g>
</g>
<!-- RFC1700&#45;&gt;rev_cites -->
<g id="edge8" class="edge">
<title>RFC1700&#45;&gt;rev_cites</title>
<path fill="none" stroke="black" d="M170.18,-40.66C176.94,-40.66 183.53,-40.66 189.69,-40.66"/>
<polygon fill="black" stroke="black" points="189.41,-44.16 199.41,-40.66 189.41,-37.16 189.41,-44.16"/>
</g>
</g>
</svg>
