<?xml version="1.0" encoding="UTF-8" standalone="no"?>
<!DOCTYPE svg PUBLIC "-//W3C//DTD SVG 1.1//EN"
 "http://www.w3.org/Graphics/SVG/1.1/DTD/svg11.dtd">
<!-- Generated by graphviz version 14.1.1 (20251213.1925)
 -->
<!-- Title: Flow Pages: 1 -->
<svg width="936pt" height="212pt"
 viewBox="0.00 0.00 936.00 212.00" xmlns="http://www.w3.org/2000/svg" xmlns:xlink="http://www.w3.org/1999/xlink">
<g id="graph0" class="graph" transform="scale(1 1) rotate(0) translate(4 207.98)">
<title>Flow</title>
<polygon fill="white" stroke="none" points="-4,4 -4,-207.98 932.29,-207.98 932.29,4 -4,4"/>
<!-- RFC1081 -->
<g id="node1" class="node">
<title>RFC1081</title>
<g id="a_node1"><a xlink:title="This memo suggests a simple method for workstations to dynamically access mail from a mailbox server. &#160;This RFC specifies a proposed protocol for the Internet community, and requests discussion and suggestions for improvements.">
<ellipse fill="green" stroke="black" cx="515.06" cy="-108.33" rx="131.17" ry="40.66"/>
<text xml:space="preserve" text-anchor="middle" x="515.06" y="-119.78" font-family="Times,serif" font-size="14.00">RFC1081</text>
<text xml:space="preserve" text-anchor="middle" x="515.06" y="-103.28" font-family="Times,serif" font-size="14.00">Post Office Protocol: Version 3</text>
<text xml:space="preserve" text-anchor="middle" x="515.06" y="-86.78" font-family="Times,serif" font-size="14.00">1988</text>
</a>
</g>
</g>
<!-- obs -->
<g id="node4" class="node">
<title>obs</title>
<polygon fill="lightblue" stroke="black" points="737.48,-180.33 671.23,-180.33 671.23,-144.33 737.48,-144.33 737.48,-180.33"/>
<text xml:space="preserve" text-anchor="middle" x="704.35" y="-157.28" font-family="Times,serif" font-size="14.00">obsoletes</text>
</g>
<!-- RFC1081&#45;&gt;obs -->
<g id="edge3" class="edge">
<title>RFC1081&#45;&gt;obs</title>
<path fill="none" stroke="black" d="M612.17,-136.04C628.9,-140.86 645.52,-145.65 659.9,-149.8"/>
<polygon fill="black" stroke="black" points="658.88,-153.15 669.46,-152.55 660.82,-146.42 658.88,-153.15"/>
</g>
<!-- updates -->
<g id="node5" class="node">
<title>updates</title>
<polygon fill="lightyellow" stroke="black" points="732.98,-126.33 675.73,-126.33 675.73,-90.33 732.98,-90.33 732.98,-126.33"/>
<text xml:space="preserve" text-anchor="middle" x="704.35" y="-103.28" font-family="Times,serif" font-size="14.00">updates</text>
</g>
<!-- RFC1081&#45;&gt;updates -->
<g id="edge4" class="edge">
<title>RFC1081&#45;&gt;updates</title>
<path fill="none" stroke="black" d="M646.65,-108.33C652.74,-108.33 658.58,-108.33 664.04,-108.33"/>
<polygon fill="black" stroke="black" points="663.83,-111.83 673.83,-108.33 663.83,-104.83 663.83,-111.83"/>
</g>
<!-- cites -->
<g id="node7" class="node">
<title>cites</title>
<polygon fill="lightblue" stroke="black" points="731.35,-72.33 677.35,-72.33 677.35,-36.33 731.35,-36.33 731.35,-72.33"/>
<text xml:space="preserve" text-anchor="middle" x="704.35" y="-49.28" font-family="Times,serif" font-size="14.00">cites</text>
</g>
<!-- RFC1081&#45;&gt;cites -->
<g id="edge6" class="edge">
<title>RFC1081&#45;&gt;cites</title>
<path fill="none" stroke="black" d="M612.17,-80.61C631.4,-75.07 650.48,-69.57 666.19,-65.04"/>
<polygon fill="black" stroke="black" points="666.89,-68.48 675.52,-62.35 664.95,-61.76 666.89,-68.48"/>
</g>
<!-- obs_by -->
<g id="node2" class="node">
<title>obs_by</title>
<polygon fill="lightblue" stroke="black" points="358.89,-180.33 292.64,-180.33 292.64,-144.33 358.89,-144.33 358.89,-180.33"/>
<text xml:space="preserve" text-anchor="middle" x="325.76" y="-157.28" font-family="Times,serif" font-size="14.00">obsoletes</text>
</g>
<!-- obs_by&#45;&gt;RFC1081 -->
<g id="edge1" class="edge">
<title>obs_by&#45;&gt;RFC1081</title>
<path fill="none" stroke="black" d="M359.39,-152.92C373.02,-148.99 389.69,-144.18 407,-139.19"/>
<polygon fill="black" stroke="black" points="407.74,-142.62 416.38,-136.49 405.8,-135.9 407.74,-142.62"/>
</g>
<!-- RFC1225 -->
<g id="node3" class="node">
<title>RFC1225</title>
<g id="a_node3"><a xlink:href="RFC1225.html" xlink:title="This memo suggests a simple method for workstations to dynamically access mail from a mailbox server. [STANDARDS&#45;TRACK]" target="_top">
<ellipse fill="none" stroke="black" cx="133.82" cy="-163.33" rx="131.17" ry="40.66"/>
<text xml:space="preserve" text-anchor="middle" x="133.82" y="-174.78" font-family="Times,serif" font-size="14.00">RFC1225</text>
<text xml:space="preserve" text-anchor="middle" x="133.82" y="-158.28" font-family="Times,serif" font-size="14.00">Post Office Protocol: Version 3</text>
<text xml:space="preserve" text-anchor="middle" x="133.82" y="-141.78" font-family="Times,serif" font-size="14.00">1991</text>
</a>
</g>
</g>
<!-- RFC1225&#45;&gt;obs_by -->
<g id="edge2" class="edge">
<title>RFC1225&#45;&gt;obs_by</title>
<path fill="none" stroke="black" d="M265.45,-162.64C270.89,-162.61 276.15,-162.58 281.14,-162.56"/>
<polygon fill="black" stroke="black" points="280.75,-166.06 290.73,-162.51 280.71,-159.06 280.75,-166.06"/>
</g>
<!-- updated_by -->
<g id="node6" class="node">
<title>updated_by</title>
<polygon fill="lightyellow" stroke="black" points="354.39,-126.33 297.14,-126.33 297.14,-90.33 354.39,-90.33 354.39,-126.33"/>
<text xml:space="preserve" text-anchor="middle" x="325.76" y="-103.28" font-family="Times,serif" font-size="14.00">updates</text>
</g>
<!-- updated_by&#45;&gt;RFC1081 -->
<g id="edge5" class="edge">
<title>updated_by&#45;&gt;RFC1081</title>
<path fill="none" stroke="black" d="M354.8,-108.33C360.03,-108.33 365.81,-108.33 371.98,-108.33"/>
<polygon fill="black" stroke="black" points="371.94,-111.83 381.94,-108.33 371.94,-104.83 371.94,-111.83"/>
</g>
<!-- RFC1010 -->
<g id="node8" class="node">
<title>RFC1010</title>
<g id="a_node8"><a xlink:href="RFC1010.html" xlink:title="This memo is an official status report on the numbers used in protocols in the Internet community. &#160;It documents the currently assigned values from several series of numbers including link, socket, port, and protocol, used in network protocol implementations." target="_top">
<ellipse fill="none" stroke="black" cx="845.38" cy="-54.33" rx="82.91" ry="40.66"/>
<text xml:space="preserve" text-anchor="middle" x="845.38" y="-65.78" font-family="Times,serif" font-size="14.00">RFC1010</text>
<text xml:space="preserve" text-anchor="middle" x="845.38" y="-49.28" font-family="Times,serif" font-size="14.00">Assigned numbers</text>
<text xml:space="preserve" text-anchor="middle" x="845.38" y="-32.78" font-family="Times,serif" font-size="14.00">1987</text>
</a>
</g>
</g>
<!-- cites&#45;&gt;RFC1010 -->
<g id="edge7" class="edge">
<title>cites&#45;&gt;RFC1010</title>
<path fill="none" stroke="black" d="M731.83,-54.33C737.67,-54.33 744.18,-54.33 751.05,-54.33"/>
<polygon fill="black" stroke="black" points="750.56,-57.83 760.56,-54.33 750.56,-50.83 750.56,-57.83"/>
</g>
<!-- rev_cites -->
<g id="node9" class="node">
<title>rev_cites</title>
<polygon fill="lightblue" stroke="black" points="352.76,-71.33 298.76,-71.33 298.76,-35.33 352.76,-35.33 352.76,-71.33"/>
<text xml:space="preserve" text-anchor="middle" x="325.76" y="-48.28" font-family="Times,serif" font-size="14.00">cites</text>
</g>
<!-- rev_cites&#45;&gt;RFC1081 -->
<g id="edge8" class="edge">
<title>rev_cites&#45;&gt;RFC1081</title>
<path fill="none" stroke="black" d="M353.2,-61.09C367.99,-65.43 387.5,-71.16 407.82,-77.13"/>
<polygon fill="black" stroke="black" points="406.8,-80.48 417.38,-79.93 408.77,-73.76 406.8,-80.48"/>
</g>
<!-- RFC1082 -->
<g id="node10" class="node">
<title>RFC1082</title>
<g id="a_node10"><a xlink:href="RFC1082.html" xlink:title="This memo suggests a simple method for workstations to dynamically access mail from a discussion group server, as an extension to an earlier memo which dealt with dynamically accessing mail from a mailbox server using the Post Office Protocol &#45; Version 3 (POP3). &#160;This RFC specifies a proposed protocol for the Internet community, and requests discussion and suggestions for improvements. &#160;All of the extensions described in this memo to the POP3 are OPTIONAL." target="_top">
<ellipse fill="none" stroke="black" cx="133.82" cy="-52.33" rx="133.82" ry="52.33"/>
<text xml:space="preserve" text-anchor="middle" x="133.82" y="-72.03" font-family="Times,serif" font-size="14.00">RFC1082</text>
<text xml:space="preserve" text-anchor="middle" x="133.82" y="-55.53" font-family="Times,serif" font-size="14.00">Post Office Protocol: Version 3:</text>
<text xml:space="preserve" text-anchor="middle" x="133.82" y="-39.03" font-family="Times,serif" font-size="14.00">Extended service offerings</text>
<text xml:space="preserve" text-anchor="middle" x="133.82" y="-22.53" font-family="Times,serif" font-size="14.00">1988</text>
</a>
</g>
</g>
<!-- RFC1082&#45;&gt;rev_cites -->
<g id="edge9" class="edge">
<title>RFC1082&#45;&gt;rev_cites</title>
<path fill="none" stroke="black" d="M268.03,-53.03C274.74,-53.06 281.15,-53.1 287.08,-53.13"/>
<polygon fill="black" stroke="black" points="287,-56.63 297.02,-53.18 287.03,-49.63 287,-56.63"/>
</g>
</g>
</svg>
