<?xml version="1.0" encoding="UTF-8" standalone="no"?>
<!DOCTYPE svg PUBLIC "-//W3C//DTD SVG 1.1//EN"
 "http://www.w3.org/Graphics/SVG/1.1/DTD/svg11.dtd">
<!-- Generated by graphviz version 14.1.1 (20251213.1925)
 -->
<!-- Title: Flow Pages: 1 -->
<svg width="1106pt" height="783pt"
 viewBox="0.00 0.00 1106.00 783.00" xmlns="http://www.w3.org/2000/svg" xmlns:xlink="http://www.w3.org/1999/xlink">
<g id="graph0" class="graph" transform="scale(1 1) rotate(0) translate(4 779.06)">
<title>Flow</title>
<polygon fill="white" stroke="none" points="-4,4 -4,-779.06 1101.8,-779.06 1101.8,4 -4,4"/>
<!-- RFC1104 -->
<g id="node1" class="node">
<title>RFC1104</title>
<g id="a_node1"><a xlink:title="The purpose of this RFC is to outline a variety of models for policy based routing. &#160;The relative benefits of the different approaches are reviewed. &#160;Discussions and comments are explicitly encouraged to move toward the best policy based routing model that scales well within a large internetworking environment.">
<ellipse fill="green" stroke="black" stroke-width="3" cx="338.28" cy="-404.69" rx="171.47" ry="50.2"/>
<text xml:space="preserve" text-anchor="middle" x="338.28" y="-419.09" font-family="Times,serif" font-size="18.00">RFC1104</text>
<text xml:space="preserve" text-anchor="middle" x="338.28" y="-398.09" font-family="Times,serif" font-size="18.00">Models of policy based routing</text>
<text xml:space="preserve" text-anchor="middle" x="338.28" y="-377.09" font-family="Times,serif" font-size="18.00">1989</text>
</a>
</g>
</g>
<!-- obs -->
<g id="node3" class="node">
<title>obs</title>
<polygon fill="lightblue" stroke="black" points="676.56,-598.87 610.31,-598.87 610.31,-562.87 676.56,-562.87 676.56,-598.87"/>
<text xml:space="preserve" text-anchor="middle" x="643.44" y="-575.82" font-family="Times,serif" font-size="14.00">obsoletes</text>
</g>
<!-- RFC1104&#45;&gt;obs -->
<g id="edge2" class="edge">
<title>RFC1104&#45;&gt;obs</title>
<path fill="none" stroke="black" d="M417.66,-450.52C476.56,-484.53 554.53,-529.54 601.73,-556.79"/>
<polygon fill="black" stroke="black" points="599.89,-559.77 610.3,-561.74 603.39,-553.71 599.89,-559.77"/>
</g>
<!-- updates -->
<g id="node4" class="node">
<title>updates</title>
<polygon fill="lightyellow" stroke="black" points="366.91,-775.06 309.66,-775.06 309.66,-739.06 366.91,-739.06 366.91,-775.06"/>
<text xml:space="preserve" text-anchor="middle" x="338.28" y="-752.01" font-family="Times,serif" font-size="14.00">updates</text>
</g>
<!-- RFC1104&#45;&gt;updates -->
<g id="edge3" class="edge">
<title>RFC1104&#45;&gt;updates</title>
<path fill="none" stroke="black" d="M338.28,-456.31C338.28,-531.24 338.28,-667.72 338.28,-727.58"/>
<polygon fill="black" stroke="black" points="334.78,-727.31 338.28,-737.31 341.78,-727.31 334.78,-727.31"/>
</g>
<!-- cites -->
<g id="node6" class="node">
<title>cites</title>
<polygon fill="lightblue" stroke="black" points="60.13,-598.87 6.13,-598.87 6.13,-562.87 60.13,-562.87 60.13,-598.87"/>
<text xml:space="preserve" text-anchor="middle" x="33.13" y="-575.82" font-family="Times,serif" font-size="14.00">cites</text>
</g>
<!-- RFC1104&#45;&gt;cites -->
<g id="edge5" class="edge">
<title>RFC1104&#45;&gt;cites</title>
<path fill="none" stroke="black" d="M258.9,-450.52C198.16,-485.59 117.12,-532.38 70.48,-559.3"/>
<polygon fill="black" stroke="black" points="68.74,-556.27 61.82,-564.3 72.24,-562.33 68.74,-556.27"/>
</g>
<!-- obs_by -->
<g id="node2" class="node">
<title>obs_by</title>
<polygon fill="lightblue" stroke="black" points="66.25,-246.51 0,-246.51 0,-210.51 66.25,-210.51 66.25,-246.51"/>
<text xml:space="preserve" text-anchor="middle" x="33.13" y="-223.46" font-family="Times,serif" font-size="14.00">obsoletes</text>
</g>
<!-- obs_by&#45;&gt;RFC1104 -->
<g id="edge1" class="edge">
<title>obs_by&#45;&gt;RFC1104</title>
<path fill="none" stroke="black" d="M64.92,-246.86C108.1,-271.79 187.01,-317.35 248.98,-353.13"/>
<polygon fill="black" stroke="black" points="247.06,-356.06 257.47,-358.03 250.56,-350 247.06,-356.06"/>
</g>
<!-- updated_by -->
<g id="node5" class="node">
<title>updated_by</title>
<polygon fill="lightyellow" stroke="black" points="366.91,-70.33 309.66,-70.33 309.66,-34.33 366.91,-34.33 366.91,-70.33"/>
<text xml:space="preserve" text-anchor="middle" x="338.28" y="-47.28" font-family="Times,serif" font-size="14.00">updates</text>
</g>
<!-- updated_by&#45;&gt;RFC1104 -->
<g id="edge4" class="edge">
<title>updated_by&#45;&gt;RFC1104</title>
<path fill="none" stroke="black" d="M338.28,-70.77C338.28,-120.56 338.28,-259.43 338.28,-341.56"/>
<polygon fill="black" stroke="black" points="334.78,-341.49 338.28,-351.49 341.78,-341.49 334.78,-341.49"/>
</g>
<!-- rev_cites -->
<g id="node7" class="node">
<title>rev_cites</title>
<polygon fill="lightblue" stroke="black" points="670.44,-246.51 616.44,-246.51 616.44,-210.51 670.44,-210.51 670.44,-246.51"/>
<text xml:space="preserve" text-anchor="middle" x="643.44" y="-223.46" font-family="Times,serif" font-size="14.00">cites</text>
</g>
<!-- rev_cites&#45;&gt;RFC1104 -->
<g id="edge6" class="edge">
<title>rev_cites&#45;&gt;RFC1104</title>
<path fill="none" stroke="black" d="M616.09,-244.3C574,-268.6 491.48,-316.24 427.27,-353.32"/>
<polygon fill="black" stroke="black" points="425.75,-350.15 418.84,-358.18 429.25,-356.21 425.75,-350.15"/>
</g>
<!-- RFC9522 -->
<g id="node8" class="node">
<title>RFC9522</title>
<g id="a_node8"><a xlink:href="RFC9522.html" xlink:title="This document describes the principles of traffic engineering (TE) in the Internet. The document is intended to promote better understanding of the issues surrounding traffic engineering in IP networks and the networks that support IP networking and to provide a common basis for the development of traffic&#45;engineering capabilities for the Internet. The principles, architectures, and methodologies for performance evaluation and performance optimization of operational networks are also discussed. This work was first published as RFC 3272 in May 2002. This document obsoletes RFC 3272 by making a complete update to bring the text in line with best current practices for Internet traffic engineering and to include references to the latest relevant work in the IETF." target="_top">
<ellipse fill="none" stroke="black" cx="948.6" cy="-52.33" rx="149.2" ry="52.33"/>
<text xml:space="preserve" text-anchor="middle" x="948.6" y="-72.03" font-family="Times,serif" font-size="14.00">RFC9522</text>
<text xml:space="preserve" text-anchor="middle" x="948.6" y="-55.53" font-family="Times,serif" font-size="14.00">Overview and Principles of Internet</text>
<text xml:space="preserve" text-anchor="middle" x="948.6" y="-39.03" font-family="Times,serif" font-size="14.00">Traffic Engineering</text>
<text xml:space="preserve" text-anchor="middle" x="948.6" y="-22.53" font-family="Times,serif" font-size="14.00">2024</text>
</a>
</g>
</g>
<!-- RFC9522&#45;&gt;rev_cites -->
<g id="edge7" class="edge">
<title>RFC9522&#45;&gt;rev_cites</title>
<path fill="none" stroke="black" d="M870.8,-97.24C809.77,-132.48 727.52,-179.96 680.52,-207.1"/>
<polygon fill="black" stroke="black" points="678.99,-203.94 672.08,-211.97 682.49,-210.01 678.99,-203.94"/>
</g>
</g>
</svg>
