<?xml version="1.0" encoding="UTF-8" standalone="no"?>
<!DOCTYPE svg PUBLIC "-//W3C//DTD SVG 1.1//EN"
 "http://www.w3.org/Graphics/SVG/1.1/DTD/svg11.dtd">
<!-- Generated by graphviz version 14.1.1 (20251213.1925)
 -->
<!-- Title: Flow Pages: 1 -->
<svg width="484pt" height="152pt"
 viewBox="0.00 0.00 484.00 152.00" xmlns="http://www.w3.org/2000/svg" xmlns:xlink="http://www.w3.org/1999/xlink">
<g id="graph0" class="graph" transform="scale(1 1) rotate(0) translate(4 148)">
<title>Flow</title>
<polygon fill="white" stroke="none" points="-4,4 -4,-148 479.6,-148 479.6,4 -4,4"/>
<!-- RFC1672 -->
<g id="node1" class="node">
<title>RFC1672</title>
<g id="a_node1"><a xlink:title="This white paper discusses accounting requirements for IPng. &#160;It recommends that all IPng packets carry accounting tags, which would vary in size. &#160;This memo provides information for the Internet community. &#160;This memo does not specify an Internet standard of any kind.">
<ellipse fill="green" stroke="black" cx="237.8" cy="-72" rx="146.55" ry="40.66"/>
<text xml:space="preserve" text-anchor="middle" x="237.8" y="-83.45" font-family="Times,serif" font-size="14.00">RFC1672</text>
<text xml:space="preserve" text-anchor="middle" x="237.8" y="-66.95" font-family="Times,serif" font-size="14.00">Accounting Requirements for IPng</text>
<text xml:space="preserve" text-anchor="middle" x="237.8" y="-50.45" font-family="Times,serif" font-size="14.00">1994</text>
</a>
</g>
</g>
<!-- obs -->
<g id="node3" class="node">
<title>obs</title>
<polygon fill="lightblue" stroke="black" points="475.6,-144 409.35,-144 409.35,-108 475.6,-108 475.6,-144"/>
<text xml:space="preserve" text-anchor="middle" x="442.47" y="-120.95" font-family="Times,serif" font-size="14.00">obsoletes</text>
</g>
<!-- RFC1672&#45;&gt;obs -->
<g id="edge2" class="edge">
<title>RFC1672&#45;&gt;obs</title>
<path fill="none" stroke="black" d="M344.59,-100.19C363.43,-105.21 382.07,-110.17 397.89,-114.39"/>
<polygon fill="black" stroke="black" points="396.85,-117.73 407.41,-116.93 398.65,-110.97 396.85,-117.73"/>
</g>
<!-- updates -->
<g id="node4" class="node">
<title>updates</title>
<polygon fill="lightyellow" stroke="black" points="471.1,-90 413.85,-90 413.85,-54 471.1,-54 471.1,-90"/>
<text xml:space="preserve" text-anchor="middle" x="442.47" y="-66.95" font-family="Times,serif" font-size="14.00">updates</text>
</g>
<!-- RFC1672&#45;&gt;updates -->
<g id="edge3" class="edge">
<title>RFC1672&#45;&gt;updates</title>
<path fill="none" stroke="black" d="M384.75,-72C390.91,-72 396.79,-72 402.28,-72"/>
<polygon fill="black" stroke="black" points="402.1,-75.5 412.1,-72 402.1,-68.5 402.1,-75.5"/>
</g>
<!-- cites -->
<g id="node6" class="node">
<title>cites</title>
<polygon fill="lightblue" stroke="black" points="469.47,-36 415.47,-36 415.47,0 469.47,0 469.47,-36"/>
<text xml:space="preserve" text-anchor="middle" x="442.47" y="-12.95" font-family="Times,serif" font-size="14.00">cites</text>
</g>
<!-- RFC1672&#45;&gt;cites -->
<g id="edge5" class="edge">
<title>RFC1672&#45;&gt;cites</title>
<path fill="none" stroke="black" d="M344.59,-43.81C365.95,-38.12 387.06,-32.5 404.09,-27.96"/>
<polygon fill="black" stroke="black" points="404.95,-31.35 413.71,-25.4 403.15,-24.59 404.95,-31.35"/>
</g>
<!-- obs_by -->
<g id="node2" class="node">
<title>obs_by</title>
<polygon fill="lightblue" stroke="black" points="66.25,-144 0,-144 0,-108 66.25,-108 66.25,-144"/>
<text xml:space="preserve" text-anchor="middle" x="33.12" y="-120.95" font-family="Times,serif" font-size="14.00">obsoletes</text>
</g>
<!-- obs_by&#45;&gt;RFC1672 -->
<g id="edge1" class="edge">
<title>obs_by&#45;&gt;RFC1672</title>
<path fill="none" stroke="black" d="M66.69,-117.32C81.7,-113.32 100.52,-108.31 120.13,-103.08"/>
<polygon fill="black" stroke="black" points="120.86,-106.51 129.62,-100.56 119.06,-99.75 120.86,-106.51"/>
</g>
<!-- updated_by -->
<g id="node5" class="node">
<title>updated_by</title>
<polygon fill="lightyellow" stroke="black" points="61.75,-90 4.5,-90 4.5,-54 61.75,-54 61.75,-90"/>
<text xml:space="preserve" text-anchor="middle" x="33.12" y="-66.95" font-family="Times,serif" font-size="14.00">updates</text>
</g>
<!-- updated_by&#45;&gt;RFC1672 -->
<g id="edge4" class="edge">
<title>updated_by&#45;&gt;RFC1672</title>
<path fill="none" stroke="black" d="M61.88,-72C67.3,-72 73.32,-72 79.79,-72"/>
<polygon fill="black" stroke="black" points="79.54,-75.5 89.54,-72 79.54,-68.5 79.54,-75.5"/>
</g>
<!-- rev_cites -->
<g id="node7" class="node">
<title>rev_cites</title>
<polygon fill="lightblue" stroke="black" points="60.12,-36 6.12,-36 6.12,0 60.12,0 60.12,-36"/>
<text xml:space="preserve" text-anchor="middle" x="33.12" y="-12.95" font-family="Times,serif" font-size="14.00">cites</text>
</g>
<!-- rev_cites&#45;&gt;RFC1672 -->
<g id="edge6" class="edge">
<title>rev_cites&#45;&gt;RFC1672</title>
<path fill="none" stroke="black" d="M60.62,-25.06C76.39,-29.26 97.62,-34.92 119.88,-40.85"/>
<polygon fill="black" stroke="black" points="118.84,-44.19 129.4,-43.39 120.64,-37.43 118.84,-44.19"/>
</g>
</g>
</svg>
