<?xml version="1.0" encoding="UTF-8" standalone="no"?>
<!DOCTYPE svg PUBLIC "-//W3C//DTD SVG 1.1//EN"
 "http://www.w3.org/Graphics/SVG/1.1/DTD/svg11.dtd">
<!-- Generated by graphviz version 14.1.1 (20251213.1925)
 -->
<!-- Title: Flow Pages: 1 -->
<svg width="884pt" height="175pt"
 viewBox="0.00 0.00 884.00 175.00" xmlns="http://www.w3.org/2000/svg" xmlns:xlink="http://www.w3.org/1999/xlink">
<g id="graph0" class="graph" transform="scale(1 1) rotate(0) translate(4 170.66)">
<title>Flow</title>
<polygon fill="white" stroke="none" points="-4,4 -4,-170.66 880.42,-170.66 880.42,4 -4,4"/>
<!-- RFC1023 -->
<g id="node1" class="node">
<title>RFC1023</title>
<g id="a_node1"><a xlink:title="This RFC specifies the High&#45;Level Entity Management System (HEMS) Monitoring and Control Language. &#160;This language defines the requests and replies used in HEMS. &#160;This memo assumes knowledge of the HEMS system described in RFC&#45;1021, and of the ISO data encoding standard, ASN.1.">
<ellipse fill="green" stroke="black" cx="617.94" cy="-72" rx="167.23" ry="40.66"/>
<text xml:space="preserve" text-anchor="middle" x="617.94" y="-83.45" font-family="Times,serif" font-size="14.00">RFC1023</text>
<text xml:space="preserve" text-anchor="middle" x="617.94" y="-66.95" font-family="Times,serif" font-size="14.00">HEMS monitoring and control language</text>
<text xml:space="preserve" text-anchor="middle" x="617.94" y="-50.45" font-family="Times,serif" font-size="14.00">1987</text>
</a>
</g>
</g>
<!-- obs -->
<g id="node4" class="node">
<title>obs</title>
<polygon fill="lightblue" stroke="black" points="876.42,-144 810.17,-144 810.17,-108 876.42,-108 876.42,-144"/>
<text xml:space="preserve" text-anchor="middle" x="843.3" y="-120.95" font-family="Times,serif" font-size="14.00">obsoletes</text>
</g>
<!-- RFC1023&#45;&gt;obs -->
<g id="edge3" class="edge">
<title>RFC1023&#45;&gt;obs</title>
<path fill="none" stroke="black" d="M737.81,-100.74C759.69,-106.03 781.2,-111.23 798.96,-115.52"/>
<polygon fill="black" stroke="black" points="798.05,-118.9 808.59,-117.85 799.69,-112.1 798.05,-118.9"/>
</g>
<!-- updates -->
<g id="node5" class="node">
<title>updates</title>
<polygon fill="lightyellow" stroke="black" points="871.92,-90 814.67,-90 814.67,-54 871.92,-54 871.92,-90"/>
<text xml:space="preserve" text-anchor="middle" x="843.3" y="-66.95" font-family="Times,serif" font-size="14.00">updates</text>
</g>
<!-- RFC1023&#45;&gt;updates -->
<g id="edge4" class="edge">
<title>RFC1023&#45;&gt;updates</title>
<path fill="none" stroke="black" d="M785.65,-72C791.8,-72 797.66,-72 803.12,-72"/>
<polygon fill="black" stroke="black" points="802.85,-75.5 812.85,-72 802.85,-68.5 802.85,-75.5"/>
</g>
<!-- cites -->
<g id="node7" class="node">
<title>cites</title>
<polygon fill="lightblue" stroke="black" points="870.3,-36 816.3,-36 816.3,0 870.3,0 870.3,-36"/>
<text xml:space="preserve" text-anchor="middle" x="843.3" y="-12.95" font-family="Times,serif" font-size="14.00">cites</text>
</g>
<!-- RFC1023&#45;&gt;cites -->
<g id="edge6" class="edge">
<title>RFC1023&#45;&gt;cites</title>
<path fill="none" stroke="black" d="M737.81,-43.26C762.32,-37.34 786.35,-31.53 805.19,-26.97"/>
<polygon fill="black" stroke="black" points="805.83,-30.42 814.72,-24.67 804.18,-23.61 805.83,-30.42"/>
</g>
<!-- obs_by -->
<g id="node2" class="node">
<title>obs_by</title>
<polygon fill="lightblue" stroke="black" points="425.71,-144 359.46,-144 359.46,-108 425.71,-108 425.71,-144"/>
<text xml:space="preserve" text-anchor="middle" x="392.59" y="-120.95" font-family="Times,serif" font-size="14.00">obsoletes</text>
</g>
<!-- obs_by&#45;&gt;RFC1023 -->
<g id="edge1" class="edge">
<title>obs_by&#45;&gt;RFC1023</title>
<path fill="none" stroke="black" d="M426.06,-118.15C442.8,-114.1 464.44,-108.87 487.09,-103.39"/>
<polygon fill="black" stroke="black" points="487.91,-106.8 496.81,-101.04 486.27,-99.99 487.91,-106.8"/>
</g>
<!-- RFC1076 -->
<g id="node3" class="node">
<title>RFC1076</title>
<g id="a_node3"><a xlink:href="RFC1076.html" xlink:title="This RFC specifies a query language for monitoring and control of network entities. &#160;This RFC supercedes RFC 1023, extending the query language and providing more discussion of the underlying issues. &#160;This language is a component of the High&#45;Level Entity Monitoring System (HEMS) described in RFC 1021 and RFC 1022. &#160;Readers may wish to consult these RFCs when reading this memo. &#160;RFC 1024 contains detailed assignments of numbers and structures used in this system. &#160;Portions of RFC 1024 that define query language structures are superceded by definitions in this memo. &#160;This memo assumes a knowledge of the ISO data encoding standard, ASN.1." target="_top">
<ellipse fill="none" stroke="black" cx="167.23" cy="-126" rx="167.23" ry="40.66"/>
<text xml:space="preserve" text-anchor="middle" x="167.23" y="-137.45" font-family="Times,serif" font-size="14.00">RFC1076</text>
<text xml:space="preserve" text-anchor="middle" x="167.23" y="-120.95" font-family="Times,serif" font-size="14.00">HEMS monitoring and control language</text>
<text xml:space="preserve" text-anchor="middle" x="167.23" y="-104.45" font-family="Times,serif" font-size="14.00">1988</text>
</a>
</g>
</g>
<!-- RFC1076&#45;&gt;obs_by -->
<g id="edge2" class="edge">
<title>RFC1076&#45;&gt;obs_by</title>
<path fill="none" stroke="black" d="M334.94,-126C339.31,-126 343.53,-126 347.57,-126"/>
<polygon fill="black" stroke="black" points="347.56,-129.5 357.55,-126 347.55,-122.5 347.56,-129.5"/>
</g>
<!-- updated_by -->
<g id="node6" class="node">
<title>updated_by</title>
<polygon fill="lightyellow" stroke="black" points="421.21,-90 363.96,-90 363.96,-54 421.21,-54 421.21,-90"/>
<text xml:space="preserve" text-anchor="middle" x="392.59" y="-66.95" font-family="Times,serif" font-size="14.00">updates</text>
</g>
<!-- updated_by&#45;&gt;RFC1023 -->
<g id="edge5" class="edge">
<title>updated_by&#45;&gt;RFC1023</title>
<path fill="none" stroke="black" d="M421.42,-72C426.82,-72 432.83,-72 439.3,-72"/>
<polygon fill="black" stroke="black" points="439.08,-75.5 449.08,-72 439.08,-68.5 439.08,-75.5"/>
</g>
<!-- rev_cites -->
<g id="node8" class="node">
<title>rev_cites</title>
<polygon fill="lightblue" stroke="black" points="419.59,-36 365.59,-36 365.59,0 419.59,0 419.59,-36"/>
<text xml:space="preserve" text-anchor="middle" x="392.59" y="-12.95" font-family="Times,serif" font-size="14.00">cites</text>
</g>
<!-- rev_cites&#45;&gt;RFC1023 -->
<g id="edge7" class="edge">
<title>rev_cites&#45;&gt;RFC1023</title>
<path fill="none" stroke="black" d="M420.09,-24.41C437.48,-28.61 461.65,-34.46 487.12,-40.61"/>
<polygon fill="black" stroke="black" points="486.09,-43.96 496.63,-42.91 487.73,-37.16 486.09,-43.96"/>
</g>
</g>
</svg>
