<?xml version="1.0" encoding="UTF-8" standalone="no"?>
<!DOCTYPE svg PUBLIC "-//W3C//DTD SVG 1.1//EN"
 "http://www.w3.org/Graphics/SVG/1.1/DTD/svg11.dtd">
<!-- Generated by graphviz version 14.1.1 (20251213.1925)
 -->
<!-- Title: Flow Pages: 1 -->
<svg width="850pt" height="186pt"
 viewBox="0.00 0.00 850.00 186.00" xmlns="http://www.w3.org/2000/svg" xmlns:xlink="http://www.w3.org/1999/xlink">
<g id="graph0" class="graph" transform="scale(1 1) rotate(0) translate(4 182.33)">
<title>Flow</title>
<polygon fill="white" stroke="none" points="-4,4 -4,-182.33 846.48,-182.33 846.48,4 -4,4"/>
<!-- RFC1362 -->
<g id="node1" class="node">
<title>RFC1362</title>
<g id="a_node1"><a xlink:title="This document describes how Novell IPX operates over various WAN media. &#160;Specifically, it describes the common IPX WAN protocol Novell uses to exchange necessary router to router information prior to exchanging standard IPX routing information and traffic over WAN datalinks. &#160;This memo provides information for the Internet community. &#160;It does not specify an Internet standard.">
<ellipse fill="green" stroke="black" cx="593.55" cy="-72" rx="157.68" ry="52.33"/>
<text xml:space="preserve" text-anchor="middle" x="593.55" y="-91.7" font-family="Times,serif" font-size="14.00">RFC1362</text>
<text xml:space="preserve" text-anchor="middle" x="593.55" y="-75.2" font-family="Times,serif" font-size="14.00">Novell IPX over Various WAN Media</text>
<text xml:space="preserve" text-anchor="middle" x="593.55" y="-58.7" font-family="Times,serif" font-size="14.00">(IPXWAN)</text>
<text xml:space="preserve" text-anchor="middle" x="593.55" y="-42.2" font-family="Times,serif" font-size="14.00">1992</text>
</a>
</g>
</g>
<!-- obs -->
<g id="node4" class="node">
<title>obs</title>
<polygon fill="lightblue" stroke="black" points="842.48,-144 776.23,-144 776.23,-108 842.48,-108 842.48,-144"/>
<text xml:space="preserve" text-anchor="middle" x="809.36" y="-120.95" font-family="Times,serif" font-size="14.00">obsoletes</text>
</g>
<!-- RFC1362&#45;&gt;obs -->
<g id="edge3" class="edge">
<title>RFC1362&#45;&gt;obs</title>
<path fill="none" stroke="black" d="M719.85,-103.65C736.08,-107.75 751.73,-111.7 765.24,-115.11"/>
<polygon fill="black" stroke="black" points="764.03,-118.42 774.59,-117.47 765.75,-111.63 764.03,-118.42"/>
</g>
<!-- updates -->
<g id="node5" class="node">
<title>updates</title>
<polygon fill="lightyellow" stroke="black" points="837.98,-90 780.73,-90 780.73,-54 837.98,-54 837.98,-90"/>
<text xml:space="preserve" text-anchor="middle" x="809.36" y="-66.95" font-family="Times,serif" font-size="14.00">updates</text>
</g>
<!-- RFC1362&#45;&gt;updates -->
<g id="edge4" class="edge">
<title>RFC1362&#45;&gt;updates</title>
<path fill="none" stroke="black" d="M751.62,-72C757.75,-72 763.6,-72 769.05,-72"/>
<polygon fill="black" stroke="black" points="768.79,-75.5 778.79,-72 768.79,-68.5 768.79,-75.5"/>
</g>
<!-- cites -->
<g id="node7" class="node">
<title>cites</title>
<polygon fill="lightblue" stroke="black" points="836.36,-36 782.36,-36 782.36,0 836.36,0 836.36,-36"/>
<text xml:space="preserve" text-anchor="middle" x="809.36" y="-12.95" font-family="Times,serif" font-size="14.00">cites</text>
</g>
<!-- RFC1362&#45;&gt;cites -->
<g id="edge6" class="edge">
<title>RFC1362&#45;&gt;cites</title>
<path fill="none" stroke="black" d="M719.85,-40.35C738.4,-35.67 756.2,-31.17 770.9,-27.46"/>
<polygon fill="black" stroke="black" points="771.68,-30.87 780.52,-25.03 769.96,-24.09 771.68,-30.87"/>
</g>
<!-- obs_by -->
<g id="node2" class="node">
<title>obs_by</title>
<polygon fill="lightblue" stroke="black" points="410.86,-144 344.61,-144 344.61,-108 410.86,-108 410.86,-144"/>
<text xml:space="preserve" text-anchor="middle" x="377.74" y="-120.95" font-family="Times,serif" font-size="14.00">obsoletes</text>
</g>
<!-- obs_by&#45;&gt;RFC1362 -->
<g id="edge1" class="edge">
<title>obs_by&#45;&gt;RFC1362</title>
<path fill="none" stroke="black" d="M411.21,-117.8C423.96,-114.58 439.5,-110.65 456.08,-106.47"/>
<polygon fill="black" stroke="black" points="456.8,-109.9 465.64,-104.05 455.08,-103.11 456.8,-109.9"/>
</g>
<!-- RFC1634 -->
<g id="node3" class="node">
<title>RFC1634</title>
<g id="a_node3"><a xlink:href="RFC1634.html" xlink:title="This document describes how Novell IPX operates over various WAN media. &#160;Specifically, it describes the common IPX WAN protocol Novell uses to exchange necessary router to router information prior to exchanging standard IPX routing information and traffic over WAN datalinks. &#160;This memo provides information for the Internet community. &#160;This memo does not specify an Internet standard of any kind." target="_top">
<ellipse fill="none" stroke="black" cx="159.81" cy="-126" rx="159.81" ry="52.33"/>
<text xml:space="preserve" text-anchor="middle" x="159.81" y="-145.7" font-family="Times,serif" font-size="14.00">RFC1634</text>
<text xml:space="preserve" text-anchor="middle" x="159.81" y="-129.2" font-family="Times,serif" font-size="14.00">Novell IPX Over Various WAN Media</text>
<text xml:space="preserve" text-anchor="middle" x="159.81" y="-112.7" font-family="Times,serif" font-size="14.00">(IPXWAN)</text>
<text xml:space="preserve" text-anchor="middle" x="159.81" y="-96.2" font-family="Times,serif" font-size="14.00">1994</text>
</a>
</g>
</g>
<!-- RFC1634&#45;&gt;obs_by -->
<g id="edge2" class="edge">
<title>RFC1634&#45;&gt;obs_by</title>
<path fill="none" stroke="black" d="M320,-126C324.57,-126 328.97,-126 333.17,-126"/>
<polygon fill="black" stroke="black" points="332.91,-129.5 342.91,-126 332.91,-122.5 332.91,-129.5"/>
</g>
<!-- updated_by -->
<g id="node6" class="node">
<title>updated_by</title>
<polygon fill="lightyellow" stroke="black" points="406.36,-90 349.11,-90 349.11,-54 406.36,-54 406.36,-90"/>
<text xml:space="preserve" text-anchor="middle" x="377.74" y="-66.95" font-family="Times,serif" font-size="14.00">updates</text>
</g>
<!-- updated_by&#45;&gt;RFC1362 -->
<g id="edge5" class="edge">
<title>updated_by&#45;&gt;RFC1362</title>
<path fill="none" stroke="black" d="M406.69,-72C412.06,-72 418.02,-72 424.43,-72"/>
<polygon fill="black" stroke="black" points="424.09,-75.5 434.09,-72 424.09,-68.5 424.09,-75.5"/>
</g>
<!-- rev_cites -->
<g id="node8" class="node">
<title>rev_cites</title>
<polygon fill="lightblue" stroke="black" points="404.74,-36 350.74,-36 350.74,0 404.74,0 404.74,-36"/>
<text xml:space="preserve" text-anchor="middle" x="377.74" y="-12.95" font-family="Times,serif" font-size="14.00">cites</text>
</g>
<!-- rev_cites&#45;&gt;RFC1362 -->
<g id="edge7" class="edge">
<title>rev_cites&#45;&gt;RFC1362</title>
<path fill="none" stroke="black" d="M404.95,-24.62C418.79,-28.11 436.92,-32.7 456.47,-37.63"/>
<polygon fill="black" stroke="black" points="455.44,-40.98 465.99,-40.04 457.15,-34.19 455.44,-40.98"/>
</g>
</g>
</svg>
