<?xml version="1.0" encoding="UTF-8" standalone="no"?>
<!DOCTYPE svg PUBLIC "-//W3C//DTD SVG 1.1//EN"
 "http://www.w3.org/Graphics/SVG/1.1/DTD/svg11.dtd">
<!-- Generated by graphviz version 14.1.1 (20251213.1925)
 -->
<!-- Title: Flow Pages: 1 -->
<svg width="911pt" height="680pt"
 viewBox="0.00 0.00 911.00 680.00" xmlns="http://www.w3.org/2000/svg" xmlns:xlink="http://www.w3.org/1999/xlink">
<g id="graph0" class="graph" transform="scale(1 1) rotate(0) translate(4 675.98)">
<title>Flow</title>
<polygon fill="white" stroke="none" points="-4,4 -4,-675.98 906.94,-675.98 906.94,4 -4,4"/>
<!-- RFC1827 -->
<g id="node1" class="node">
<title>RFC1827</title>
<g id="a_node1"><a xlink:title="This document describes the IP Encapsulating Security Payload (ESP). &#160;ESP is a mechanism for providing integrity and confidentiality to IP datagrams. [STANDARDS&#45;TRACK]">
<ellipse fill="none" stroke="black" cx="642.34" cy="-492.33" rx="169.35" ry="40.66"/>
<text xml:space="preserve" text-anchor="middle" x="642.34" y="-503.78" font-family="Times,serif" font-size="14.00">RFC1827</text>
<text xml:space="preserve" text-anchor="middle" x="642.34" y="-487.28" font-family="Times,serif" font-size="14.00">IP Encapsulating Security Payload (ESP)</text>
<text xml:space="preserve" text-anchor="middle" x="642.34" y="-470.78" font-family="Times,serif" font-size="14.00">1995</text>
</a>
</g>
</g>
<!-- obs -->
<g id="node4" class="node">
<title>obs</title>
<polygon fill="none" stroke="black" points="902.94,-564.33 836.69,-564.33 836.69,-528.33 902.94,-528.33 902.94,-564.33"/>
<text xml:space="preserve" text-anchor="middle" x="869.81" y="-541.28" font-family="Times,serif" font-size="14.00">obsoletes</text>
</g>
<!-- RFC1827&#45;&gt;obs -->
<g id="edge3" class="edge">
<title>RFC1827&#45;&gt;obs</title>
<path fill="none" stroke="black" d="M763.34,-521.07C785.53,-526.38 807.34,-531.6 825.32,-535.91"/>
<polygon fill="black" stroke="black" points="824.26,-539.25 834.8,-538.18 825.89,-532.45 824.26,-539.25"/>
</g>
<!-- updates -->
<g id="node5" class="node">
<title>updates</title>
<polygon fill="none" stroke="black" points="898.44,-510.33 841.19,-510.33 841.19,-474.33 898.44,-474.33 898.44,-510.33"/>
<text xml:space="preserve" text-anchor="middle" x="869.81" y="-487.28" font-family="Times,serif" font-size="14.00">updates</text>
</g>
<!-- RFC1827&#45;&gt;updates -->
<g id="edge4" class="edge">
<title>RFC1827&#45;&gt;updates</title>
<path fill="none" stroke="black" d="M811.92,-492.33C818.11,-492.33 823.99,-492.33 829.47,-492.33"/>
<polygon fill="black" stroke="black" points="829.26,-495.83 839.26,-492.33 829.26,-488.83 829.26,-495.83"/>
</g>
<!-- cites -->
<g id="node7" class="node">
<title>cites</title>
<polygon fill="none" stroke="black" points="896.81,-456.33 842.81,-456.33 842.81,-420.33 896.81,-420.33 896.81,-456.33"/>
<text xml:space="preserve" text-anchor="middle" x="869.81" y="-433.28" font-family="Times,serif" font-size="14.00">cites</text>
</g>
<!-- RFC1827&#45;&gt;cites -->
<g id="edge6" class="edge">
<title>RFC1827&#45;&gt;cites</title>
<path fill="none" stroke="black" d="M763.34,-463.59C788.07,-457.66 812.34,-451.85 831.35,-447.3"/>
<polygon fill="black" stroke="black" points="832.08,-450.72 840.99,-444.99 830.45,-443.91 832.08,-450.72"/>
</g>
<!-- obs_by -->
<g id="node2" class="node">
<title>obs_by</title>
<polygon fill="none" stroke="black" points="447.99,-606.33 381.74,-606.33 381.74,-570.33 447.99,-570.33 447.99,-606.33"/>
<text xml:space="preserve" text-anchor="middle" x="414.86" y="-583.28" font-family="Times,serif" font-size="14.00">obsoletes</text>
</g>
<!-- obs_by&#45;&gt;RFC1827 -->
<g id="edge1" class="edge">
<title>obs_by&#45;&gt;RFC1827</title>
<path fill="none" stroke="black" d="M448.17,-574.57C474.21,-563.48 512.21,-547.31 547.62,-532.23"/>
<polygon fill="black" stroke="black" points="548.8,-535.53 556.63,-528.39 546.06,-529.09 548.8,-535.53"/>
</g>
<!-- RFC2406 -->
<g id="node3" class="node">
<title>RFC2406</title>
<g id="a_node3"><a xlink:href="RFC2406.html" xlink:title="The Encapsulating Security Payload (ESP) header is designed to provide a mix of security services in IPv4 and IPv6. [STANDARDS&#45;TRACK]" target="_top">
<ellipse fill="none" stroke="black" cx="178.37" cy="-631.33" rx="169.35" ry="40.66"/>
<text xml:space="preserve" text-anchor="middle" x="178.37" y="-642.78" font-family="Times,serif" font-size="14.00">RFC2406</text>
<text xml:space="preserve" text-anchor="middle" x="178.37" y="-626.28" font-family="Times,serif" font-size="14.00">IP Encapsulating Security Payload (ESP)</text>
<text xml:space="preserve" text-anchor="middle" x="178.37" y="-609.78" font-family="Times,serif" font-size="14.00">1998</text>
</a>
</g>
</g>
<!-- RFC2406&#45;&gt;obs_by -->
<g id="edge2" class="edge">
<title>RFC2406&#45;&gt;obs_by</title>
<path fill="none" stroke="black" d="M314.07,-606.62C334.28,-602.92 353.78,-599.34 370.09,-596.35"/>
<polygon fill="black" stroke="black" points="370.68,-599.8 379.89,-594.56 369.42,-592.92 370.68,-599.8"/>
</g>
<!-- updated_by -->
<g id="node6" class="node">
<title>updated_by</title>
<polygon fill="none" stroke="black" points="443.49,-510.33 386.24,-510.33 386.24,-474.33 443.49,-474.33 443.49,-510.33"/>
<text xml:space="preserve" text-anchor="middle" x="414.86" y="-487.28" font-family="Times,serif" font-size="14.00">updates</text>
</g>
<!-- updated_by&#45;&gt;RFC1827 -->
<g id="edge5" class="edge">
<title>updated_by&#45;&gt;RFC1827</title>
<path fill="none" stroke="black" d="M443.96,-492.33C449.13,-492.33 454.85,-492.33 461,-492.33"/>
<polygon fill="black" stroke="black" points="460.98,-495.83 470.98,-492.33 460.98,-488.83 460.98,-495.83"/>
</g>
<!-- rev_cites -->
<g id="node8" class="node">
<title>rev_cites</title>
<polygon fill="none" stroke="black" points="441.86,-371.33 387.86,-371.33 387.86,-335.33 441.86,-335.33 441.86,-371.33"/>
<text xml:space="preserve" text-anchor="middle" x="414.86" y="-348.28" font-family="Times,serif" font-size="14.00">cites</text>
</g>
<!-- rev_cites&#45;&gt;RFC1827 -->
<g id="edge7" class="edge">
<title>rev_cites&#45;&gt;RFC1827</title>
<path fill="none" stroke="black" d="M442.17,-369.54C473.27,-388.72 526.31,-421.42 569.84,-448.25"/>
<polygon fill="black" stroke="black" points="567.9,-451.17 578.25,-453.43 571.57,-445.21 567.9,-451.17"/>
</g>
<!-- RFC2008 -->
<g id="node9" class="node">
<title>RFC2008</title>
<g id="a_node9"><a xlink:href="RFC2008.html" xlink:title="The purpose of this document is to articulate certain relevant fundamental technical issues that must be considered in formulating unicast address allocation and management policies for the Public Internet, and to provide recommendations with respect to these policies. &#160;This document specifies an Internet Best Current Practices for the Internet Community, and requests discussion and suggestions for improvements." target="_top">
<ellipse fill="none" stroke="black" cx="178.37" cy="-520.33" rx="164.05" ry="52.33"/>
<text xml:space="preserve" text-anchor="middle" x="178.37" y="-540.03" font-family="Times,serif" font-size="14.00">RFC2008</text>
<text xml:space="preserve" text-anchor="middle" x="178.37" y="-523.53" font-family="Times,serif" font-size="14.00">Implications of Various Address</text>
<text xml:space="preserve" text-anchor="middle" x="178.37" y="-507.03" font-family="Times,serif" font-size="14.00">Allocation Policies for Internet Routing</text>
<text xml:space="preserve" text-anchor="middle" x="178.37" y="-490.53" font-family="Times,serif" font-size="14.00">1996</text>
</a>
</g>
</g>
<!-- RFC2008&#45;&gt;rev_cites -->
<g id="edge8" class="edge">
<title>RFC2008&#45;&gt;rev_cites</title>
<path fill="none" stroke="black" d="M309.08,-488.62C326.24,-480.86 342.71,-471.23 356.74,-459.33 380.57,-439.1 396.05,-406.33 404.8,-382.58"/>
<polygon fill="black" stroke="black" points="408.1,-383.76 408.07,-373.17 401.48,-381.47 408.1,-383.76"/>
</g>
<!-- RFC2207 -->
<g id="node10" class="node">
<title>RFC2207</title>
<g id="a_node10"><a xlink:href="RFC2207.html" xlink:title="This document presents extensions to Version 1 of RSVP. &#160;These extensions permit support of individual data flows using RFC 1826, IP Authentication Header (AH) or RFC 1827, IP Encapsulating Security Payload (ESP). [STANDARDS&#45;TRACK]" target="_top">
<ellipse fill="none" stroke="black" cx="178.37" cy="-409.33" rx="168.29" ry="40.66"/>
<text xml:space="preserve" text-anchor="middle" x="178.37" y="-420.78" font-family="Times,serif" font-size="14.00">RFC2207</text>
<text xml:space="preserve" text-anchor="middle" x="178.37" y="-404.28" font-family="Times,serif" font-size="14.00">RSVP Extensions for IPSEC Data Flows</text>
<text xml:space="preserve" text-anchor="middle" x="178.37" y="-387.78" font-family="Times,serif" font-size="14.00">1997</text>
</a>
</g>
</g>
<!-- RFC2207&#45;&gt;rev_cites -->
<g id="edge9" class="edge">
<title>RFC2207&#45;&gt;rev_cites</title>
<path fill="none" stroke="black" d="M299.36,-380.67C327.5,-373.95 355.44,-367.28 376.66,-362.21"/>
<polygon fill="black" stroke="black" points="377.34,-365.65 386.26,-359.92 375.72,-358.84 377.34,-365.65"/>
</g>
<!-- RFC2290 -->
<g id="node11" class="node">
<title>RFC2290</title>
<g id="a_node11"><a xlink:href="RFC2290.html" xlink:title="Mobile IP [RFC 2002] defines media&#45;independent procedures by which a Mobile Node can maintain existing transport and application&#45;layer connections despite changing its point&#45;of&#45;attachment to the Internet and without changing its IP address. &#160;PPP [RFC 1661] provides a standard method for transporting multi&#45;protocol packets over point&#45;to&#45;point links. &#160;As currently specified, Mobile IP Foreign Agents which support Mobile Node connections via PPP can do so only by first assigning unique addresses to those Mobile Nodes, defeating one of the primary advantages of Foreign Agents. &#160;This documents corrects this problem by defining the Mobile&#45;IPv4 Configuration Option to the Internet Protocol Control Protocol (IPCP) [RFC 1332]. &#160;Using this option, two peers can communicate their support for Mobile IP during the IPCP phase of PPP. &#160;Familiarity with Mobile IP [RFC 2002], IPCP [RFC 1332], and PPP [RFC 1661] is assumed. [STANDARDS&#45;TRACK]" target="_top">
<ellipse fill="none" stroke="black" cx="178.37" cy="-298.33" rx="178.37" ry="52.33"/>
<text xml:space="preserve" text-anchor="middle" x="178.37" y="-318.03" font-family="Times,serif" font-size="14.00">RFC2290</text>
<text xml:space="preserve" text-anchor="middle" x="178.37" y="-301.53" font-family="Times,serif" font-size="14.00">Mobile&#45;IPv4 Configuration Option for PPP</text>
<text xml:space="preserve" text-anchor="middle" x="178.37" y="-285.03" font-family="Times,serif" font-size="14.00">IPCP</text>
<text xml:space="preserve" text-anchor="middle" x="178.37" y="-268.53" font-family="Times,serif" font-size="14.00">1998</text>
</a>
</g>
</g>
<!-- RFC2290&#45;&gt;rev_cites -->
<g id="edge10" class="edge">
<title>RFC2290&#45;&gt;rev_cites</title>
<path fill="none" stroke="black" d="M318.82,-331.03C340.03,-336.01 360.24,-340.75 376.52,-344.57"/>
<polygon fill="black" stroke="black" points="375.63,-347.95 386.16,-346.83 377.23,-341.14 375.63,-347.95"/>
</g>
<!-- RFC2337 -->
<g id="node12" class="node">
<title>RFC2337</title>
<g id="a_node12"><a xlink:href="RFC2337.html" xlink:title="This document describes how intra&#45;LIS IP multicast can be efficiently supported among routers over ATM without using the Multicast Address Resolution Server (MARS). &#160;This memo defines an Experimental Protocol for the Internet community. &#160;It does not specify an Internet standard of any kind. &#160;Discussion and suggestions for improvement are requested." target="_top">
<ellipse fill="none" stroke="black" cx="178.37" cy="-175.33" rx="153.97" ry="52.33"/>
<text xml:space="preserve" text-anchor="middle" x="178.37" y="-195.03" font-family="Times,serif" font-size="14.00">RFC2337</text>
<text xml:space="preserve" text-anchor="middle" x="178.37" y="-178.53" font-family="Times,serif" font-size="14.00">Intra&#45;LIS IP multicast among routers</text>
<text xml:space="preserve" text-anchor="middle" x="178.37" y="-162.03" font-family="Times,serif" font-size="14.00">over ATM using Sparse Mode PIM</text>
<text xml:space="preserve" text-anchor="middle" x="178.37" y="-145.53" font-family="Times,serif" font-size="14.00">1998</text>
</a>
</g>
</g>
<!-- RFC2337&#45;&gt;rev_cites -->
<g id="edge11" class="edge">
<title>RFC2337&#45;&gt;rev_cites</title>
<path fill="none" stroke="black" d="M304.94,-205.28C323.68,-213.54 341.72,-224.03 356.74,-237.33 382.79,-260.4 398.24,-298.08 406.37,-324.2"/>
<polygon fill="black" stroke="black" points="402.93,-324.89 409.09,-333.51 409.65,-322.93 402.93,-324.89"/>
</g>
<!-- RFC6740 -->
<g id="node13" class="node">
<title>RFC6740</title>
<g id="a_node13"><a xlink:href="RFC6740.html" xlink:title="This document provides an architectural description and the concept of operations for the Identifier&#45;Locator Network Protocol (ILNP), which is an experimental, evolutionary enhancement to IP. &#160;This is a product of the IRTF Routing Research Group. &#160;This document defines an Experimental Protocol for the Internet community." target="_top">
<ellipse fill="none" stroke="black" cx="178.37" cy="-52.33" rx="150.79" ry="52.33"/>
<text xml:space="preserve" text-anchor="middle" x="178.37" y="-72.03" font-family="Times,serif" font-size="14.00">RFC6740</text>
<text xml:space="preserve" text-anchor="middle" x="178.37" y="-55.53" font-family="Times,serif" font-size="14.00">Identifier&#45;Locator Network Protocol</text>
<text xml:space="preserve" text-anchor="middle" x="178.37" y="-39.03" font-family="Times,serif" font-size="14.00">(ILNP) Architectural Description</text>
<text xml:space="preserve" text-anchor="middle" x="178.37" y="-22.53" font-family="Times,serif" font-size="14.00">2012</text>
</a>
</g>
</g>
<!-- RFC6740&#45;&gt;rev_cites -->
<g id="edge12" class="edge">
<title>RFC6740&#45;&gt;rev_cites</title>
<path fill="none" stroke="black" d="M307.66,-79.53C326.07,-88.12 343.29,-99.44 356.74,-114.33 384.51,-145.08 403.02,-266.76 410.34,-323.68"/>
<polygon fill="black" stroke="black" points="406.87,-324.11 411.58,-333.6 413.81,-323.24 406.87,-324.11"/>
</g>
</g>
</svg>
