<?xml version="1.0" encoding="UTF-8" standalone="no"?>
<!DOCTYPE svg PUBLIC "-//W3C//DTD SVG 1.1//EN"
 "http://www.w3.org/Graphics/SVG/1.1/DTD/svg11.dtd">
<!-- Generated by graphviz version 14.1.1 (20251213.1925)
 -->
<!-- Title: Flow Pages: 1 -->
<svg width="1911pt" height="1017pt"
 viewBox="0.00 0.00 1911.00 1017.00" xmlns="http://www.w3.org/2000/svg" xmlns:xlink="http://www.w3.org/1999/xlink">
<g id="graph0" class="graph" transform="scale(1 1) rotate(0) translate(4 1013.07)">
<title>Flow</title>
<polygon fill="white" stroke="none" points="-4,4 -4,-1013.07 1906.54,-1013.07 1906.54,4 -4,4"/>
<!-- RFC1655 -->
<g id="node1" class="node">
<title>RFC1655</title>
<g id="a_node1"><a xlink:title="This document, together with its companion document, A Border Gateway Protocol 4 (BGP&#45;4), define an inter&#45;autonomous system routing protocol for the Internet. [STANDARDS&#45;TRACK]">
<ellipse fill="green" stroke="black" stroke-width="3" cx="930.32" cy="-504.53" rx="192.69" ry="65.05"/>
<text xml:space="preserve" text-anchor="middle" x="930.32" y="-529.43" font-family="Times,serif" font-size="18.00">RFC1655</text>
<text xml:space="preserve" text-anchor="middle" x="930.32" y="-508.43" font-family="Times,serif" font-size="18.00">Application of the Border Gateway</text>
<text xml:space="preserve" text-anchor="middle" x="930.32" y="-487.43" font-family="Times,serif" font-size="18.00">Protocol in the Internet</text>
<text xml:space="preserve" text-anchor="middle" x="930.32" y="-466.43" font-family="Times,serif" font-size="18.00">1994</text>
</a>
</g>
</g>
<!-- obs -->
<g id="node4" class="node">
<title>obs</title>
<polygon fill="lightblue" stroke="black" points="1355.07,-748.64 1288.82,-748.64 1288.82,-712.64 1355.07,-712.64 1355.07,-748.64"/>
<text xml:space="preserve" text-anchor="middle" x="1321.95" y="-725.59" font-family="Times,serif" font-size="14.00">obsoletes</text>
</g>
<!-- RFC1655&#45;&gt;obs -->
<g id="edge3" class="edge">
<title>RFC1655&#45;&gt;obs</title>
<path fill="none" stroke="black" d="M1029.4,-561.73C1110.37,-608.48 1220.81,-672.25 1280.15,-706.51"/>
<polygon fill="black" stroke="black" points="1278.2,-709.42 1288.61,-711.39 1281.7,-703.36 1278.2,-709.42"/>
</g>
<!-- updates -->
<g id="node6" class="node">
<title>updates</title>
<polygon fill="lightyellow" stroke="black" points="958.95,-974.74 901.7,-974.74 901.7,-938.74 958.95,-938.74 958.95,-974.74"/>
<text xml:space="preserve" text-anchor="middle" x="930.32" y="-951.69" font-family="Times,serif" font-size="14.00">updates</text>
</g>
<!-- RFC1655&#45;&gt;updates -->
<g id="edge5" class="edge">
<title>RFC1655&#45;&gt;updates</title>
<path fill="none" stroke="black" d="M930.32,-570.77C930.32,-670.49 930.32,-855.15 930.32,-927.02"/>
<polygon fill="black" stroke="black" points="926.82,-926.81 930.32,-936.81 933.82,-926.81 926.82,-926.81"/>
</g>
<!-- cites -->
<g id="node8" class="node">
<title>cites</title>
<polygon fill="lightblue" stroke="black" points="565.7,-748.64 511.7,-748.64 511.7,-712.64 565.7,-712.64 565.7,-748.64"/>
<text xml:space="preserve" text-anchor="middle" x="538.7" y="-725.59" font-family="Times,serif" font-size="14.00">cites</text>
</g>
<!-- RFC1655&#45;&gt;cites -->
<g id="edge7" class="edge">
<title>RFC1655&#45;&gt;cites</title>
<path fill="none" stroke="black" d="M831.25,-561.73C748.09,-609.74 633.85,-675.7 575.81,-709.21"/>
<polygon fill="black" stroke="black" points="574.2,-706.1 567.29,-714.13 577.7,-712.16 574.2,-706.1"/>
</g>
<!-- obs_by -->
<g id="node2" class="node">
<title>obs_by</title>
<polygon fill="lightblue" stroke="black" points="571.83,-296.43 505.58,-296.43 505.58,-260.43 571.83,-260.43 571.83,-296.43"/>
<text xml:space="preserve" text-anchor="middle" x="538.7" y="-273.38" font-family="Times,serif" font-size="14.00">obsoletes</text>
</g>
<!-- obs_by&#45;&gt;RFC1655 -->
<g id="edge1" class="edge">
<title>obs_by&#45;&gt;RFC1655</title>
<path fill="none" stroke="black" d="M570.42,-296.74C624.45,-327.94 736.75,-392.78 821.63,-441.78"/>
<polygon fill="black" stroke="black" points="819.85,-444.79 830.26,-446.76 823.35,-438.73 819.85,-444.79"/>
</g>
<!-- RFC1772 -->
<g id="node3" class="node">
<title>RFC1772</title>
<g id="a_node3"><a xlink:href="RFC1772.html" xlink:title="This document, together with its companion document, A Border Gateway Protocol 4 (BGP&#45;4), define an inter&#45;autonomous system routing protocol for the Internet. &#160;This document describes the usage of the BGP in the Internet. [STANDARDS&#45;TRACK]" target="_top">
<ellipse fill="none" stroke="black" cx="147.08" cy="-52.33" rx="147.08" ry="52.33"/>
<text xml:space="preserve" text-anchor="middle" x="147.08" y="-72.03" font-family="Times,serif" font-size="14.00">RFC1772</text>
<text xml:space="preserve" text-anchor="middle" x="147.08" y="-55.53" font-family="Times,serif" font-size="14.00">Application of the Border Gateway</text>
<text xml:space="preserve" text-anchor="middle" x="147.08" y="-39.03" font-family="Times,serif" font-size="14.00">Protocol in the Internet</text>
<text xml:space="preserve" text-anchor="middle" x="147.08" y="-22.53" font-family="Times,serif" font-size="14.00">1995</text>
</a>
</g>
</g>
<!-- RFC1772&#45;&gt;obs_by -->
<g id="edge2" class="edge">
<title>RFC1772&#45;&gt;obs_by</title>
<path fill="none" stroke="black" d="M224.45,-97C306.34,-144.27 432.49,-217.11 497.23,-254.49"/>
<polygon fill="black" stroke="black" points="495.36,-257.45 505.77,-259.42 498.86,-251.39 495.36,-257.45"/>
</g>
<!-- RFC1268 -->
<g id="node5" class="node">
<title>RFC1268</title>
<g id="a_node5"><a xlink:href="RFC1268.html" xlink:title="This document describes the usage of the BGP in the Internet. [STANDARDS&#45;TRACK]" target="_top">
<ellipse fill="none" stroke="black" cx="1713.57" cy="-956.74" rx="147.08" ry="52.33"/>
<text xml:space="preserve" text-anchor="middle" x="1713.57" y="-976.44" font-family="Times,serif" font-size="14.00">RFC1268</text>
<text xml:space="preserve" text-anchor="middle" x="1713.57" y="-959.94" font-family="Times,serif" font-size="14.00">Application of the Border Gateway</text>
<text xml:space="preserve" text-anchor="middle" x="1713.57" y="-943.44" font-family="Times,serif" font-size="14.00">Protocol in the Internet</text>
<text xml:space="preserve" text-anchor="middle" x="1713.57" y="-926.94" font-family="Times,serif" font-size="14.00">1991</text>
</a>
</g>
</g>
<!-- obs&#45;&gt;RFC1268 -->
<g id="edge4" class="edge">
<title>obs&#45;&gt;RFC1268</title>
<path fill="none" stroke="black" d="M1353.66,-748.95C1412.4,-782.86 1539.98,-856.52 1626.35,-906.38"/>
<polygon fill="black" stroke="black" points="1624.42,-909.31 1634.83,-911.28 1627.92,-903.25 1624.42,-909.31"/>
</g>
<!-- updated_by -->
<g id="node7" class="node">
<title>updated_by</title>
<polygon fill="lightyellow" stroke="black" points="958.95,-70.33 901.7,-70.33 901.7,-34.33 958.95,-34.33 958.95,-70.33"/>
<text xml:space="preserve" text-anchor="middle" x="930.32" y="-47.28" font-family="Times,serif" font-size="14.00">updates</text>
</g>
<!-- updated_by&#45;&gt;RFC1655 -->
<g id="edge6" class="edge">
<title>updated_by&#45;&gt;RFC1655</title>
<path fill="none" stroke="black" d="M930.32,-70.61C930.32,-129.84 930.32,-318.81 930.32,-426.83"/>
<polygon fill="black" stroke="black" points="926.82,-426.79 930.32,-436.79 933.82,-426.79 926.82,-426.79"/>
</g>
<!-- rev_cites -->
<g id="node9" class="node">
<title>rev_cites</title>
<polygon fill="lightblue" stroke="black" points="1348.95,-296.43 1294.95,-296.43 1294.95,-260.43 1348.95,-260.43 1348.95,-296.43"/>
<text xml:space="preserve" text-anchor="middle" x="1321.95" y="-273.38" font-family="Times,serif" font-size="14.00">cites</text>
</g>
<!-- rev_cites&#45;&gt;RFC1655 -->
<g id="edge8" class="edge">
<title>rev_cites&#45;&gt;RFC1655</title>
<path fill="none" stroke="black" d="M1294.72,-294.15C1242.69,-324.19 1126.57,-391.23 1039.3,-441.62"/>
<polygon fill="black" stroke="black" points="1037.56,-438.58 1030.65,-446.61 1041.06,-444.64 1037.56,-438.58"/>
</g>
<!-- RFC2142 -->
<g id="node10" class="node">
<title>RFC2142</title>
<g id="a_node10"><a xlink:href="RFC2142.html" xlink:title="This specification enumerates and describes Internet mail addresses (mailbox name @ host reference) to be used when contacting personnel at an organization. [STANDARDS&#45;TRACK]" target="_top">
<ellipse fill="none" stroke="black" cx="1713.57" cy="-52.33" rx="188.97" ry="52.33"/>
<text xml:space="preserve" text-anchor="middle" x="1713.57" y="-72.03" font-family="Times,serif" font-size="14.00">RFC2142</text>
<text xml:space="preserve" text-anchor="middle" x="1713.57" y="-55.53" font-family="Times,serif" font-size="14.00">Mailbox Names for Common Services, Roles</text>
<text xml:space="preserve" text-anchor="middle" x="1713.57" y="-39.03" font-family="Times,serif" font-size="14.00">and Functions</text>
<text xml:space="preserve" text-anchor="middle" x="1713.57" y="-22.53" font-family="Times,serif" font-size="14.00">1997</text>
</a>
</g>
</g>
<!-- RFC2142&#45;&gt;rev_cites -->
<g id="edge9" class="edge">
<title>RFC2142&#45;&gt;rev_cites</title>
<path fill="none" stroke="black" d="M1631.47,-99.72C1547.55,-148.18 1420.98,-221.25 1358.92,-257.08"/>
<polygon fill="black" stroke="black" points="1357.39,-253.92 1350.48,-261.95 1360.89,-259.99 1357.39,-253.92"/>
</g>
</g>
</svg>
