<?xml version="1.0" encoding="UTF-8" standalone="no"?>
<!DOCTYPE svg PUBLIC "-//W3C//DTD SVG 1.1//EN"
 "http://www.w3.org/Graphics/SVG/1.1/DTD/svg11.dtd">
<!-- Generated by graphviz version 14.1.1 (20251213.1925)
 -->
<!-- Title: Flow Pages: 1 -->
<svg width="1242pt" height="870pt"
 viewBox="0.00 0.00 1242.00 870.00" xmlns="http://www.w3.org/2000/svg" xmlns:xlink="http://www.w3.org/1999/xlink">
<g id="graph0" class="graph" transform="scale(1 1) rotate(0) translate(4 865.63)">
<title>Flow</title>
<polygon fill="white" stroke="none" points="-4,4 -4,-865.63 1238.13,-865.63 1238.13,4 -4,4"/>
<!-- RFC1671 -->
<g id="node1" class="node">
<title>RFC1671</title>
<g id="a_node1"><a xlink:title="This white paper outlines some general requirements for IPng in selected areas. &#160;This memo provides information for the Internet community. &#160;This memo does not specify an Internet standard of any kind.">
<ellipse fill="green" stroke="black" stroke-width="3" cx="375.77" cy="-447.98" rx="227.69" ry="65.05"/>
<text xml:space="preserve" text-anchor="middle" x="375.77" y="-472.88" font-family="Times,serif" font-size="18.00">RFC1671</text>
<text xml:space="preserve" text-anchor="middle" x="375.77" y="-451.88" font-family="Times,serif" font-size="18.00">IPng White Paper on Transition and Other</text>
<text xml:space="preserve" text-anchor="middle" x="375.77" y="-430.88" font-family="Times,serif" font-size="18.00">Considerations</text>
<text xml:space="preserve" text-anchor="middle" x="375.77" y="-409.88" font-family="Times,serif" font-size="18.00">1994</text>
</a>
</g>
</g>
<!-- obs -->
<g id="node3" class="node">
<title>obs</title>
<polygon fill="lightblue" stroke="black" points="751.54,-663.81 685.29,-663.81 685.29,-627.81 751.54,-627.81 751.54,-663.81"/>
<text xml:space="preserve" text-anchor="middle" x="718.42" y="-640.76" font-family="Times,serif" font-size="14.00">obsoletes</text>
</g>
<!-- RFC1671&#45;&gt;obs -->
<g id="edge2" class="edge">
<title>RFC1671&#45;&gt;obs</title>
<path fill="none" stroke="black" d="M478.58,-507.33C545.01,-545.69 627.91,-593.55 676.81,-621.78"/>
<polygon fill="black" stroke="black" points="674.99,-624.77 685.4,-626.74 678.49,-618.71 674.99,-624.77"/>
</g>
<!-- updates -->
<g id="node4" class="node">
<title>updates</title>
<polygon fill="lightyellow" stroke="black" points="404.4,-861.63 347.15,-861.63 347.15,-825.63 404.4,-825.63 404.4,-861.63"/>
<text xml:space="preserve" text-anchor="middle" x="375.77" y="-838.58" font-family="Times,serif" font-size="14.00">updates</text>
</g>
<!-- RFC1671&#45;&gt;updates -->
<g id="edge3" class="edge">
<title>RFC1671&#45;&gt;updates</title>
<path fill="none" stroke="black" d="M375.77,-514.2C375.77,-601.24 375.77,-750.46 375.77,-813.8"/>
<polygon fill="black" stroke="black" points="372.27,-813.77 375.77,-823.77 379.27,-813.77 372.27,-813.77"/>
</g>
<!-- cites -->
<g id="node6" class="node">
<title>cites</title>
<polygon fill="lightblue" stroke="black" points="60.13,-663.81 6.13,-663.81 6.13,-627.81 60.13,-627.81 60.13,-663.81"/>
<text xml:space="preserve" text-anchor="middle" x="33.13" y="-640.76" font-family="Times,serif" font-size="14.00">cites</text>
</g>
<!-- RFC1671&#45;&gt;cites -->
<g id="edge5" class="edge">
<title>RFC1671&#45;&gt;cites</title>
<path fill="none" stroke="black" d="M272.97,-507.33C204.32,-546.97 118.1,-596.74 69.97,-624.53"/>
<polygon fill="black" stroke="black" points="68.52,-621.33 61.61,-629.36 72.02,-627.39 68.52,-621.33"/>
</g>
<!-- obs_by -->
<g id="node2" class="node">
<title>obs_by</title>
<polygon fill="lightblue" stroke="black" points="66.25,-268.15 0,-268.15 0,-232.15 66.25,-232.15 66.25,-268.15"/>
<text xml:space="preserve" text-anchor="middle" x="33.13" y="-245.1" font-family="Times,serif" font-size="14.00">obsoletes</text>
</g>
<!-- obs_by&#45;&gt;RFC1671 -->
<g id="edge1" class="edge">
<title>obs_by&#45;&gt;RFC1671</title>
<path fill="none" stroke="black" d="M65.05,-268.59C109.96,-294.51 194.04,-343.06 263.43,-383.12"/>
<polygon fill="black" stroke="black" points="261.39,-385.99 271.81,-387.96 264.89,-379.92 261.39,-385.99"/>
</g>
<!-- updated_by -->
<g id="node5" class="node">
<title>updated_by</title>
<polygon fill="lightyellow" stroke="black" points="404.4,-70.33 347.15,-70.33 347.15,-34.33 404.4,-34.33 404.4,-70.33"/>
<text xml:space="preserve" text-anchor="middle" x="375.77" y="-47.28" font-family="Times,serif" font-size="14.00">updates</text>
</g>
<!-- updated_by&#45;&gt;RFC1671 -->
<g id="edge4" class="edge">
<title>updated_by&#45;&gt;RFC1671</title>
<path fill="none" stroke="black" d="M375.77,-70.62C375.77,-122.99 375.77,-275.83 375.77,-370.16"/>
<polygon fill="black" stroke="black" points="372.27,-370.13 375.77,-380.13 379.27,-370.13 372.27,-370.13"/>
</g>
<!-- rev_cites -->
<g id="node7" class="node">
<title>rev_cites</title>
<polygon fill="lightblue" stroke="black" points="745.42,-268.15 691.42,-268.15 691.42,-232.15 745.42,-232.15 745.42,-268.15"/>
<text xml:space="preserve" text-anchor="middle" x="718.42" y="-245.1" font-family="Times,serif" font-size="14.00">cites</text>
</g>
<!-- rev_cites&#45;&gt;RFC1671 -->
<g id="edge6" class="edge">
<title>rev_cites&#45;&gt;RFC1671</title>
<path fill="none" stroke="black" d="M690.96,-266.01C647.34,-291.19 559.81,-341.72 488.04,-383.16"/>
<polygon fill="black" stroke="black" points="486.69,-379.9 479.78,-387.93 490.19,-385.96 486.69,-379.9"/>
</g>
<!-- RFC6555 -->
<g id="node8" class="node">
<title>RFC6555</title>
<g id="a_node8"><a xlink:href="RFC6555.html" xlink:title="When a server&#39;s IPv4 path and protocol are working, but the server&#39;s IPv6 path and protocol are not working, a dual&#45;stack client application experiences significant connection delay compared to an IPv4&#45;only client. &#160;This is undesirable because it causes the dual&#45; stack client to have a worse user experience. &#160;This document specifies requirements for algorithms that reduce this user&#45;visible delay and provides an algorithm. [STANDARDS&#45;TRACK]" target="_top">
<ellipse fill="none" stroke="black" cx="1061.06" cy="-52.33" rx="173.06" ry="52.33"/>
<text xml:space="preserve" text-anchor="middle" x="1061.06" y="-72.03" font-family="Times,serif" font-size="14.00">RFC6555</text>
<text xml:space="preserve" text-anchor="middle" x="1061.06" y="-55.53" font-family="Times,serif" font-size="14.00">Happy Eyeballs: Success with Dual&#45;Stack</text>
<text xml:space="preserve" text-anchor="middle" x="1061.06" y="-39.03" font-family="Times,serif" font-size="14.00">Hosts</text>
<text xml:space="preserve" text-anchor="middle" x="1061.06" y="-22.53" font-family="Times,serif" font-size="14.00">2012</text>
</a>
</g>
</g>
<!-- RFC6555&#45;&gt;rev_cites -->
<g id="edge7" class="edge">
<title>RFC6555&#45;&gt;rev_cites</title>
<path fill="none" stroke="black" d="M980.3,-98.96C909.29,-139.95 809.17,-197.76 755.63,-228.67"/>
<polygon fill="black" stroke="black" points="754.1,-225.51 747.19,-233.54 757.6,-231.57 754.1,-225.51"/>
</g>
</g>
</svg>
