<?xml version="1.0" encoding="UTF-8" standalone="no"?>
<!DOCTYPE svg PUBLIC "-//W3C//DTD SVG 1.1//EN"
 "http://www.w3.org/Graphics/SVG/1.1/DTD/svg11.dtd">
<!-- Generated by graphviz version 14.1.1 (20251213.1925)
 -->
<!-- Title: Flow Pages: 1 -->
<svg width="1157pt" height="812pt"
 viewBox="0.00 0.00 1157.00 812.00" xmlns="http://www.w3.org/2000/svg" xmlns:xlink="http://www.w3.org/1999/xlink">
<g id="graph0" class="graph" transform="scale(1 1) rotate(0) translate(4 807.53)">
<title>Flow</title>
<polygon fill="white" stroke="none" points="-4,4 -4,-807.53 1152.89,-807.53 1152.89,4 -4,4"/>
<!-- RFC1609 -->
<g id="node1" class="node">
<title>RFC1609</title>
<g id="a_node1"><a xlink:title="This document presents a model in which a communication network with all its related details and descriptions can be represented in the X.500 Directory. &#160;This memo defines an Experimental Protocol for the Internet community.">
<ellipse fill="green" stroke="black" stroke-width="3" cx="355.67" cy="-413.1" rx="228.22" ry="50.2"/>
<text xml:space="preserve" text-anchor="middle" x="355.67" y="-427.5" font-family="Times,serif" font-size="18.00">RFC1609</text>
<text xml:space="preserve" text-anchor="middle" x="355.67" y="-406.5" font-family="Times,serif" font-size="18.00">Charting Networks in the X.500 Directory</text>
<text xml:space="preserve" text-anchor="middle" x="355.67" y="-385.5" font-family="Times,serif" font-size="18.00">1994</text>
</a>
</g>
</g>
<!-- obs -->
<g id="node3" class="node">
<title>obs</title>
<polygon fill="lightblue" stroke="black" points="711.33,-617.32 645.08,-617.32 645.08,-581.32 711.33,-581.32 711.33,-617.32"/>
<text xml:space="preserve" text-anchor="middle" x="678.21" y="-594.27" font-family="Times,serif" font-size="14.00">obsoletes</text>
</g>
<!-- RFC1609&#45;&gt;obs -->
<g id="edge2" class="edge">
<title>RFC1609&#45;&gt;obs</title>
<path fill="none" stroke="black" d="M438.73,-461.05C502.12,-497.65 586.77,-546.53 636.6,-575.29"/>
<polygon fill="black" stroke="black" points="634.66,-578.21 645.07,-580.18 638.16,-572.15 634.66,-578.21"/>
</g>
<!-- updates -->
<g id="node4" class="node">
<title>updates</title>
<polygon fill="lightyellow" stroke="black" points="384.29,-803.53 327.04,-803.53 327.04,-767.53 384.29,-767.53 384.29,-803.53"/>
<text xml:space="preserve" text-anchor="middle" x="355.67" y="-780.48" font-family="Times,serif" font-size="14.00">updates</text>
</g>
<!-- RFC1609&#45;&gt;updates -->
<g id="edge3" class="edge">
<title>RFC1609&#45;&gt;updates</title>
<path fill="none" stroke="black" d="M355.67,-464.49C355.67,-543.6 355.67,-692.69 355.67,-755.95"/>
<polygon fill="black" stroke="black" points="352.17,-755.55 355.67,-765.55 359.17,-755.55 352.17,-755.55"/>
</g>
<!-- cites -->
<g id="node6" class="node">
<title>cites</title>
<polygon fill="lightblue" stroke="black" points="60.13,-617.32 6.13,-617.32 6.13,-581.32 60.13,-581.32 60.13,-617.32"/>
<text xml:space="preserve" text-anchor="middle" x="33.13" y="-594.27" font-family="Times,serif" font-size="14.00">cites</text>
</g>
<!-- RFC1609&#45;&gt;cites -->
<g id="edge5" class="edge">
<title>RFC1609&#45;&gt;cites</title>
<path fill="none" stroke="black" d="M272.6,-461.05C207.26,-498.78 119.31,-549.56 70.22,-577.9"/>
<polygon fill="black" stroke="black" points="68.57,-574.81 61.66,-582.84 72.07,-580.87 68.57,-574.81"/>
</g>
<!-- obs_by -->
<g id="node2" class="node">
<title>obs_by</title>
<polygon fill="lightblue" stroke="black" points="66.25,-244.88 0,-244.88 0,-208.88 66.25,-208.88 66.25,-244.88"/>
<text xml:space="preserve" text-anchor="middle" x="33.13" y="-221.83" font-family="Times,serif" font-size="14.00">obsoletes</text>
</g>
<!-- obs_by&#45;&gt;RFC1609 -->
<g id="edge1" class="edge">
<title>obs_by&#45;&gt;RFC1609</title>
<path fill="none" stroke="black" d="M64.93,-245.24C110.45,-271.52 196.02,-320.93 262.59,-359.36"/>
<polygon fill="black" stroke="black" points="260.55,-362.22 270.96,-364.19 264.05,-356.16 260.55,-362.22"/>
</g>
<!-- updated_by -->
<g id="node5" class="node">
<title>updated_by</title>
<polygon fill="lightyellow" stroke="black" points="384.29,-58.66 327.04,-58.66 327.04,-22.66 384.29,-22.66 384.29,-58.66"/>
<text xml:space="preserve" text-anchor="middle" x="355.67" y="-35.61" font-family="Times,serif" font-size="14.00">updates</text>
</g>
<!-- updated_by&#45;&gt;RFC1609 -->
<g id="edge4" class="edge">
<title>updated_by&#45;&gt;RFC1609</title>
<path fill="none" stroke="black" d="M355.67,-59.13C355.67,-111.59 355.67,-263.33 355.67,-350.15"/>
<polygon fill="black" stroke="black" points="352.17,-349.93 355.67,-359.93 359.17,-349.93 352.17,-349.93"/>
</g>
<!-- rev_cites -->
<g id="node7" class="node">
<title>rev_cites</title>
<polygon fill="lightblue" stroke="black" points="705.21,-244.88 651.21,-244.88 651.21,-208.88 705.21,-208.88 705.21,-244.88"/>
<text xml:space="preserve" text-anchor="middle" x="678.21" y="-221.83" font-family="Times,serif" font-size="14.00">cites</text>
</g>
<!-- rev_cites&#45;&gt;RFC1609 -->
<g id="edge6" class="edge">
<title>rev_cites&#45;&gt;RFC1609</title>
<path fill="none" stroke="black" d="M650.71,-242.75C606.4,-268.33 517.24,-319.81 448.47,-359.52"/>
<polygon fill="black" stroke="black" points="447.13,-356.25 440.22,-364.28 450.63,-362.31 447.13,-356.25"/>
</g>
<!-- RFC2116 -->
<g id="node8" class="node">
<title>RFC2116</title>
<g id="a_node8"><a xlink:href="RFC2116.html" xlink:title="This document is a revision to [RFC 1632]: A Revised Catalog of Available X.500 Implementations and is based on the results of data collection via a WWW home page that enabled implementors to submit new or updated descriptions of currently available implementations of X.500, including commercial products and openly available offerings. [RFC 1632] is a revision of [RFC 1292]. &#160;This document contains detailed description of 31 X.500 implementations &#45; DSAs, DUAs, and DUA interfaces. &#160;This memo provides information for the Internet community. &#160;This memo does not specify an Internet standard of any kind." target="_top">
<ellipse fill="none" stroke="black" cx="1000.75" cy="-40.66" rx="148.14" ry="40.66"/>
<text xml:space="preserve" text-anchor="middle" x="1000.75" y="-52.11" font-family="Times,serif" font-size="14.00">RFC2116</text>
<text xml:space="preserve" text-anchor="middle" x="1000.75" y="-35.61" font-family="Times,serif" font-size="14.00">X.500 Implementations Catalog&#45;96</text>
<text xml:space="preserve" text-anchor="middle" x="1000.75" y="-19.11" font-family="Times,serif" font-size="14.00">1997</text>
</a>
</g>
</g>
<!-- RFC2116&#45;&gt;rev_cites -->
<g id="edge7" class="edge">
<title>RFC2116&#45;&gt;rev_cites</title>
<path fill="none" stroke="black" d="M936.64,-77.67C870.36,-115.94 769.18,-174.35 715.19,-205.53"/>
<polygon fill="black" stroke="black" points="713.58,-202.41 706.67,-210.44 717.08,-208.48 713.58,-202.41"/>
</g>
</g>
</svg>
