<?xml version="1.0" encoding="UTF-8" standalone="no"?>
<!DOCTYPE svg PUBLIC "-//W3C//DTD SVG 1.1//EN"
 "http://www.w3.org/Graphics/SVG/1.1/DTD/svg11.dtd">
<!-- Generated by graphviz version 14.1.1 (20251213.1925)
 -->
<!-- Title: Flow Pages: 1 -->
<svg width="743pt" height="1225pt"
 viewBox="0.00 0.00 743.00 1225.00" xmlns="http://www.w3.org/2000/svg" xmlns:xlink="http://www.w3.org/1999/xlink">
<g id="graph0" class="graph" transform="scale(1 1) rotate(0) translate(4 1221.32)">
<title>Flow</title>
<polygon fill="white" stroke="none" points="-4,4 -4,-1221.32 739.21,-1221.32 739.21,4 -4,4"/>
<!-- RFC1785 -->
<g id="node1" class="node">
<title>RFC1785</title>
<g id="a_node1"><a xlink:title="This document was written to allay concerns that the presence of options in a TFTP Request packet might cause pathological behavior on servers which do not support TFTP option negotiation. &#160;This memo provides information for the Internet community. &#160;This memo does not specify an Internet standard of any kind.">
<ellipse fill="green" stroke="black" stroke-width="3" cx="367.6" cy="-404.22" rx="191.1" ry="50.2"/>
<text xml:space="preserve" text-anchor="middle" x="367.6" y="-418.62" font-family="Times,serif" font-size="18.00">RFC1785</text>
<text xml:space="preserve" text-anchor="middle" x="367.6" y="-397.62" font-family="Times,serif" font-size="18.00">TFTP Option Negotiation Analysis</text>
<text xml:space="preserve" text-anchor="middle" x="367.6" y="-376.62" font-family="Times,serif" font-size="18.00">1995</text>
</a>
</g>
</g>
<!-- obs -->
<g id="node3" class="node">
<title>obs</title>
<polygon fill="lightblue" stroke="black" points="735.21,-615.33 668.96,-615.33 668.96,-579.33 735.21,-579.33 735.21,-615.33"/>
<text xml:space="preserve" text-anchor="middle" x="702.08" y="-592.28" font-family="Times,serif" font-size="14.00">obsoletes</text>
</g>
<!-- RFC1785&#45;&gt;obs -->
<g id="edge2" class="edge">
<title>RFC1785&#45;&gt;obs</title>
<path fill="none" stroke="black" d="M448.57,-450.97C515.41,-489.56 607.57,-542.77 660.38,-573.26"/>
<polygon fill="black" stroke="black" points="658.36,-576.13 668.77,-578.1 661.86,-570.07 658.36,-576.13"/>
</g>
<!-- updates -->
<g id="node4" class="node">
<title>updates</title>
<polygon fill="lightyellow" stroke="black" points="396.23,-808.44 338.98,-808.44 338.98,-772.44 396.23,-772.44 396.23,-808.44"/>
<text xml:space="preserve" text-anchor="middle" x="367.6" y="-785.39" font-family="Times,serif" font-size="14.00">updates</text>
</g>
<!-- RFC1785&#45;&gt;updates -->
<g id="edge3" class="edge">
<title>RFC1785&#45;&gt;updates</title>
<path fill="none" stroke="black" d="M367.6,-455.91C367.6,-537.98 367.6,-695.49 367.6,-760.87"/>
<polygon fill="black" stroke="black" points="364.1,-760.8 367.6,-770.8 371.1,-760.8 364.1,-760.8"/>
</g>
<!-- cites -->
<g id="node7" class="node">
<title>cites</title>
<polygon fill="lightblue" stroke="black" points="60.13,-615.33 6.13,-615.33 6.13,-579.33 60.13,-579.33 60.13,-615.33"/>
<text xml:space="preserve" text-anchor="middle" x="33.13" y="-592.28" font-family="Times,serif" font-size="14.00">cites</text>
</g>
<!-- RFC1785&#45;&gt;cites -->
<g id="edge6" class="edge">
<title>RFC1785&#45;&gt;cites</title>
<path fill="none" stroke="black" d="M286.64,-450.97C217.76,-490.73 122,-546.02 70.11,-575.98"/>
<polygon fill="black" stroke="black" points="68.56,-572.83 61.65,-580.86 72.06,-578.9 68.56,-572.83"/>
</g>
<!-- obs_by -->
<g id="node2" class="node">
<title>obs_by</title>
<polygon fill="lightblue" stroke="black" points="66.25,-229.11 0,-229.11 0,-193.11 66.25,-193.11 66.25,-229.11"/>
<text xml:space="preserve" text-anchor="middle" x="33.12" y="-206.06" font-family="Times,serif" font-size="14.00">obsoletes</text>
</g>
<!-- obs_by&#45;&gt;RFC1785 -->
<g id="edge1" class="edge">
<title>obs_by&#45;&gt;RFC1785</title>
<path fill="none" stroke="black" d="M64.89,-229.45C113.1,-257.28 206.54,-311.23 276.92,-351.86"/>
<polygon fill="black" stroke="black" points="274.97,-354.78 285.38,-356.75 278.47,-348.72 274.97,-354.78"/>
</g>
<!-- RFC1350 -->
<g id="node5" class="node">
<title>RFC1350</title>
<g id="a_node5"><a xlink:href="RFC1350.html" xlink:title="TFTP is a very simple protocol used to transfer files. &#160;It is from this that its name comes, Trivial File Transfer Protocol or TFTP. &#160;Each nonterminal packet is acknowledged separately. &#160;This document describes the protocol and its types of packets. &#160;The document also explains the reasons behind some of the design decisions. [STANDARDS&#45;TRACK]" target="_top">
<ellipse fill="none" stroke="black" cx="367.6" cy="-1176.67" rx="135.41" ry="40.66"/>
<text xml:space="preserve" text-anchor="middle" x="367.6" y="-1188.12" font-family="Times,serif" font-size="14.00">RFC1350</text>
<text xml:space="preserve" text-anchor="middle" x="367.6" y="-1171.62" font-family="Times,serif" font-size="14.00">The TFTP Protocol (Revision 2)</text>
<text xml:space="preserve" text-anchor="middle" x="367.6" y="-1155.12" font-family="Times,serif" font-size="14.00">1992</text>
</a>
</g>
</g>
<!-- updates&#45;&gt;RFC1350 -->
<g id="edge4" class="edge">
<title>updates&#45;&gt;RFC1350</title>
<path fill="none" stroke="black" d="M367.6,-808.81C367.6,-865.12 367.6,-1036.81 367.6,-1124.27"/>
<polygon fill="black" stroke="black" points="364.1,-1124.01 367.6,-1134.01 371.1,-1124.01 364.1,-1124.01"/>
</g>
<!-- updated_by -->
<g id="node6" class="node">
<title>updated_by</title>
<polygon fill="lightyellow" stroke="black" points="396.23,-36 338.98,-36 338.98,0 396.23,0 396.23,-36"/>
<text xml:space="preserve" text-anchor="middle" x="367.6" y="-12.95" font-family="Times,serif" font-size="14.00">updates</text>
</g>
<!-- updated_by&#45;&gt;RFC1785 -->
<g id="edge5" class="edge">
<title>updated_by&#45;&gt;RFC1785</title>
<path fill="none" stroke="black" d="M367.6,-36.37C367.6,-90.51 367.6,-251.31 367.6,-341.36"/>
<polygon fill="black" stroke="black" points="364.1,-341.26 367.6,-351.26 371.1,-341.26 364.1,-341.26"/>
</g>
<!-- rev_cites -->
<g id="node8" class="node">
<title>rev_cites</title>
<polygon fill="lightblue" stroke="black" points="729.08,-229.11 675.08,-229.11 675.08,-193.11 729.08,-193.11 729.08,-229.11"/>
<text xml:space="preserve" text-anchor="middle" x="702.08" y="-206.06" font-family="Times,serif" font-size="14.00">cites</text>
</g>
<!-- rev_cites&#45;&gt;RFC1785 -->
<g id="edge7" class="edge">
<title>rev_cites&#45;&gt;RFC1785</title>
<path fill="none" stroke="black" d="M674.71,-226.91C627.97,-253.9 530.8,-310 458.21,-351.91"/>
<polygon fill="black" stroke="black" points="456.81,-348.68 449.9,-356.71 460.31,-354.74 456.81,-348.68"/>
</g>
</g>
</svg>
