<?xml version="1.0" encoding="UTF-8" standalone="no"?>
<!DOCTYPE svg PUBLIC "-//W3C//DTD SVG 1.1//EN"
 "http://www.w3.org/Graphics/SVG/1.1/DTD/svg11.dtd">
<!-- Generated by graphviz version 14.1.1 (20251213.1925)
 -->
<!-- Title: Flow Pages: 1 -->
<svg width="1876pt" height="1749pt"
 viewBox="0.00 0.00 1876.00 1749.00" xmlns="http://www.w3.org/2000/svg" xmlns:xlink="http://www.w3.org/1999/xlink">
<g id="graph0" class="graph" transform="scale(1 1) rotate(0) translate(4 1744.92)">
<title>Flow</title>
<polygon fill="white" stroke="none" points="-4,4 -4,-1744.92 1872.09,-1744.92 1872.09,4 -4,4"/>
<!-- RFC1539 -->
<g id="node1" class="node">
<title>RFC1539</title>
<g id="a_node1"><a xlink:title="The purpose of this For Your Information (FYI) RFC is to explain to the newcomers how the IETF works. &#160;This memo provides information for the Internet community. &#160;It does not specify an Internet standard. [FYI 17]">
<ellipse fill="green" stroke="black" stroke-width="3" cx="931.07" cy="-876.29" rx="205.41" ry="79.9"/>
<text xml:space="preserve" text-anchor="middle" x="931.07" y="-911.69" font-family="Times,serif" font-size="18.00">RFC1539</text>
<text xml:space="preserve" text-anchor="middle" x="931.07" y="-890.69" font-family="Times,serif" font-size="18.00">The Tao of IETF &#45; A Guide for New</text>
<text xml:space="preserve" text-anchor="middle" x="931.07" y="-869.69" font-family="Times,serif" font-size="18.00">Attendees of the Internet Engineering</text>
<text xml:space="preserve" text-anchor="middle" x="931.07" y="-848.69" font-family="Times,serif" font-size="18.00">Task Force</text>
<text xml:space="preserve" text-anchor="middle" x="931.07" y="-827.69" font-family="Times,serif" font-size="18.00">1993</text>
</a>
</g>
</g>
<!-- obs -->
<g id="node4" class="node">
<title>obs</title>
<polygon fill="lightblue" stroke="black" points="1351.74,-1035.35 1285.49,-1035.35 1285.49,-999.35 1351.74,-999.35 1351.74,-1035.35"/>
<text xml:space="preserve" text-anchor="middle" x="1318.62" y="-1012.3" font-family="Times,serif" font-size="14.00">obsoletes</text>
</g>
<!-- RFC1539&#45;&gt;obs -->
<g id="edge3" class="edge">
<title>RFC1539&#45;&gt;obs</title>
<path fill="none" stroke="black" d="M1082.85,-931.54C1151.6,-956.56 1227.76,-984.28 1274.42,-1001.26"/>
<polygon fill="black" stroke="black" points="1273.03,-1004.48 1283.63,-1004.61 1275.43,-997.9 1273.03,-1004.48"/>
</g>
<!-- updates -->
<g id="node6" class="node">
<title>updates</title>
<polygon fill="lightyellow" stroke="black" points="1165.91,-1251.46 1108.66,-1251.46 1108.66,-1215.46 1165.91,-1215.46 1165.91,-1251.46"/>
<text xml:space="preserve" text-anchor="middle" x="1137.28" y="-1228.41" font-family="Times,serif" font-size="14.00">updates</text>
</g>
<!-- RFC1539&#45;&gt;updates -->
<g id="edge5" class="edge">
<title>RFC1539&#45;&gt;updates</title>
<path fill="none" stroke="black" d="M976.84,-955.56C1022.56,-1034.75 1090.33,-1152.13 1121.07,-1205.38"/>
<polygon fill="black" stroke="black" points="1117.92,-1206.92 1125.95,-1213.83 1123.98,-1203.42 1117.92,-1206.92"/>
</g>
<!-- cites -->
<g id="node8" class="node">
<title>cites</title>
<polygon fill="lightblue" stroke="black" points="570.53,-1035.35 516.53,-1035.35 516.53,-999.35 570.53,-999.35 570.53,-1035.35"/>
<text xml:space="preserve" text-anchor="middle" x="543.53" y="-1012.3" font-family="Times,serif" font-size="14.00">cites</text>
</g>
<!-- RFC1539&#45;&gt;cites -->
<g id="edge7" class="edge">
<title>RFC1539&#45;&gt;cites</title>
<path fill="none" stroke="black" d="M779.3,-931.54C707.36,-957.72 627.31,-986.85 581.44,-1003.55"/>
<polygon fill="black" stroke="black" points="580.43,-1000.19 572.23,-1006.9 582.83,-1006.77 580.43,-1000.19"/>
</g>
<!-- obs_by -->
<g id="node2" class="node">
<title>obs_by</title>
<polygon fill="lightblue" stroke="black" points="892.58,-488.14 826.33,-488.14 826.33,-452.14 892.58,-452.14 892.58,-488.14"/>
<text xml:space="preserve" text-anchor="middle" x="859.46" y="-465.09" font-family="Times,serif" font-size="14.00">obsoletes</text>
</g>
<!-- obs_by&#45;&gt;RFC1539 -->
<g id="edge1" class="edge">
<title>obs_by&#45;&gt;RFC1539</title>
<path fill="none" stroke="black" d="M862.68,-488.38C871.68,-539.44 897.59,-686.41 914.81,-784.07"/>
<polygon fill="black" stroke="black" points="911.32,-784.4 916.5,-793.64 918.21,-783.19 911.32,-784.4"/>
</g>
<!-- RFC1718 -->
<g id="node3" class="node">
<title>RFC1718</title>
<g id="a_node3"><a xlink:href="RFC1718.html" xlink:title="The purpose of this For Your Information (FYI) RFC is to explain to the newcomers how the IETF works. &#160;This memo provides information for the Internet community. &#160;It does not specify an Internet standard. [FYI 17]" target="_top">
<ellipse fill="none" stroke="black" cx="787.84" cy="-63.99" rx="156.09" ry="63.99"/>
<text xml:space="preserve" text-anchor="middle" x="787.84" y="-91.94" font-family="Times,serif" font-size="14.00">RFC1718</text>
<text xml:space="preserve" text-anchor="middle" x="787.84" y="-75.44" font-family="Times,serif" font-size="14.00">The Tao of IETF &#45; A Guide for New</text>
<text xml:space="preserve" text-anchor="middle" x="787.84" y="-58.94" font-family="Times,serif" font-size="14.00">Attendees of the Internet Engineering</text>
<text xml:space="preserve" text-anchor="middle" x="787.84" y="-42.44" font-family="Times,serif" font-size="14.00">Task Force</text>
<text xml:space="preserve" text-anchor="middle" x="787.84" y="-25.94" font-family="Times,serif" font-size="14.00">1994</text>
</a>
</g>
</g>
<!-- RFC1718&#45;&gt;obs_by -->
<g id="edge2" class="edge">
<title>RFC1718&#45;&gt;obs_by</title>
<path fill="none" stroke="black" d="M799.11,-127.9C814.84,-217.07 842.72,-375.21 854.25,-440.59"/>
<polygon fill="black" stroke="black" points="850.76,-440.95 855.94,-450.19 857.65,-439.74 850.76,-440.95"/>
</g>
<!-- RFC1391 -->
<g id="node5" class="node">
<title>RFC1391</title>
<g id="a_node5"><a xlink:href="RFC1391.html" xlink:title="The purpose of this For Your Information (FYI) RFC is to explain to the newcomers how the IETF works. &#160;This will give them a warm, fuzzy feeling and enable them to make the meeting more productive for everyone. &#160;This memo provides information for the Internet community. &#160;It does not specify an Internet standard." target="_top">
<ellipse fill="none" stroke="black" cx="1706.16" cy="-1158.4" rx="161.93" ry="63.99"/>
<text xml:space="preserve" text-anchor="middle" x="1706.16" y="-1186.35" font-family="Times,serif" font-size="14.00">RFC1391</text>
<text xml:space="preserve" text-anchor="middle" x="1706.16" y="-1169.85" font-family="Times,serif" font-size="14.00">The Tao of the IETF: A Guide for New</text>
<text xml:space="preserve" text-anchor="middle" x="1706.16" y="-1153.35" font-family="Times,serif" font-size="14.00">Attendees of the Internet Engineering</text>
<text xml:space="preserve" text-anchor="middle" x="1706.16" y="-1136.85" font-family="Times,serif" font-size="14.00">Task Force</text>
<text xml:space="preserve" text-anchor="middle" x="1706.16" y="-1120.35" font-family="Times,serif" font-size="14.00">1993</text>
</a>
</g>
</g>
<!-- obs&#45;&gt;RFC1391 -->
<g id="edge4" class="edge">
<title>obs&#45;&gt;RFC1391</title>
<path fill="none" stroke="black" d="M1352,-1029.5C1401.37,-1047.47 1496.59,-1082.12 1575.87,-1110.98"/>
<polygon fill="black" stroke="black" points="1574.43,-1114.18 1585.02,-1114.31 1576.82,-1107.6 1574.43,-1114.18"/>
</g>
<!-- updated_by -->
<g id="node7" class="node">
<title>updated_by</title>
<polygon fill="lightyellow" stroke="black" points="1165.91,-537.13 1108.66,-537.13 1108.66,-501.13 1165.91,-501.13 1165.91,-537.13"/>
<text xml:space="preserve" text-anchor="middle" x="1137.28" y="-514.08" font-family="Times,serif" font-size="14.00">updates</text>
</g>
<!-- updated_by&#45;&gt;RFC1539 -->
<g id="edge6" class="edge">
<title>updated_by&#45;&gt;RFC1539</title>
<path fill="none" stroke="black" d="M1126.77,-537.33C1100.6,-582.66 1031.12,-703.01 982.43,-787.34"/>
<polygon fill="black" stroke="black" points="979.47,-785.46 977.5,-795.87 985.54,-788.96 979.47,-785.46"/>
</g>
<!-- RFC1111 -->
<g id="node9" class="node">
<title>RFC1111</title>
<g id="a_node9"><a xlink:href="RFC1111.html" xlink:title="This RFC specifies a standard for the Internet community. &#160;Authors of RFCs are expected to adopt and implement this standard." target="_top">
<ellipse fill="none" stroke="black" cx="787.84" cy="-1688.59" rx="165.64" ry="52.33"/>
<text xml:space="preserve" text-anchor="middle" x="787.84" y="-1708.29" font-family="Times,serif" font-size="14.00">RFC1111</text>
<text xml:space="preserve" text-anchor="middle" x="787.84" y="-1691.79" font-family="Times,serif" font-size="14.00">Request for comments on Request for</text>
<text xml:space="preserve" text-anchor="middle" x="787.84" y="-1675.29" font-family="Times,serif" font-size="14.00">Comments: Instructions to RFC authors</text>
<text xml:space="preserve" text-anchor="middle" x="787.84" y="-1658.79" font-family="Times,serif" font-size="14.00">1989</text>
</a>
</g>
</g>
<!-- cites&#45;&gt;RFC1111 -->
<g id="edge8" class="edge">
<title>cites&#45;&gt;RFC1111</title>
<path fill="none" stroke="black" d="M550.19,-1035.65C581.14,-1120.67 711.6,-1479.1 764.95,-1625.7"/>
<polygon fill="black" stroke="black" points="761.59,-1626.68 768.29,-1634.88 768.16,-1624.29 761.59,-1626.68"/>
</g>
<!-- RFC1311 -->
<g id="node10" class="node">
<title>RFC1311</title>
<g id="a_node10"><a xlink:href="RFC1311.html" xlink:title="The STDs are a subseries of notes within the RFC series that are the Internet standards. &#160;The intent is to identify clearly for the Internet community those RFCs which document Internet standards. [STANDARDS&#45;TRACK]" target="_top">
<ellipse fill="none" stroke="black" cx="299.22" cy="-1406.49" rx="128.52" ry="40.66"/>
<text xml:space="preserve" text-anchor="middle" x="299.22" y="-1417.94" font-family="Times,serif" font-size="14.00">RFC1311</text>
<text xml:space="preserve" text-anchor="middle" x="299.22" y="-1401.44" font-family="Times,serif" font-size="14.00">Introduction to the STD Notes</text>
<text xml:space="preserve" text-anchor="middle" x="299.22" y="-1384.94" font-family="Times,serif" font-size="14.00">1992</text>
</a>
</g>
</g>
<!-- cites&#45;&gt;RFC1311 -->
<g id="edge9" class="edge">
<title>cites&#45;&gt;RFC1311</title>
<path fill="none" stroke="black" d="M532.07,-1035.6C496.24,-1092.67 385.4,-1269.21 330.58,-1356.53"/>
<polygon fill="black" stroke="black" points="327.66,-1354.6 325.3,-1364.93 333.59,-1358.33 327.66,-1354.6"/>
</g>
<!-- RFC1160 -->
<g id="node11" class="node">
<title>RFC1160</title>
<g id="a_node11"><a xlink:href="RFC1160.html" xlink:title="This RFC provides a history and description of the Internet Activities Board (IAB) and its subsidiary organizations. &#160;This memo is for informational use and does not constitute a standard. &#160;This is a revision of RFC 1120." target="_top">
<ellipse fill="none" stroke="black" cx="106.24" cy="-876.29" rx="106.24" ry="40.66"/>
<text xml:space="preserve" text-anchor="middle" x="106.24" y="-887.74" font-family="Times,serif" font-size="14.00">RFC1160</text>
<text xml:space="preserve" text-anchor="middle" x="106.24" y="-871.24" font-family="Times,serif" font-size="14.00">Internet Activities Board</text>
<text xml:space="preserve" text-anchor="middle" x="106.24" y="-854.74" font-family="Times,serif" font-size="14.00">1990</text>
</a>
</g>
</g>
<!-- cites&#45;&gt;RFC1160 -->
<g id="edge10" class="edge">
<title>cites&#45;&gt;RFC1160</title>
<path fill="none" stroke="black" d="M516.18,-1008.52C453.94,-988.45 299.35,-938.59 198.81,-906.15"/>
<polygon fill="black" stroke="black" points="200.07,-902.88 189.48,-903.14 197.92,-909.54 200.07,-902.88"/>
</g>
<!-- RFC1310 -->
<g id="node12" class="node">
<title>RFC1310</title>
<g id="a_node12"><a xlink:href="RFC1310.html" xlink:title="This memo documents the process currently used for the standardization of Internet protocols and procedures. [STANDARDS&#45;TRACK]" target="_top">
<ellipse fill="none" stroke="black" cx="299.22" cy="-346.1" rx="130.64" ry="40.66"/>
<text xml:space="preserve" text-anchor="middle" x="299.22" y="-357.55" font-family="Times,serif" font-size="14.00">RFC1310</text>
<text xml:space="preserve" text-anchor="middle" x="299.22" y="-341.05" font-family="Times,serif" font-size="14.00">The Internet Standards Process</text>
<text xml:space="preserve" text-anchor="middle" x="299.22" y="-324.55" font-family="Times,serif" font-size="14.00">1992</text>
</a>
</g>
</g>
<!-- cites&#45;&gt;RFC1310 -->
<g id="edge11" class="edge">
<title>cites&#45;&gt;RFC1310</title>
<path fill="none" stroke="black" d="M536.87,-999.05C505.07,-911.69 368.22,-535.69 317.89,-397.4"/>
<polygon fill="black" stroke="black" points="321.22,-396.32 314.51,-388.12 314.64,-398.71 321.22,-396.32"/>
</g>
<!-- rev_cites -->
<g id="node13" class="node">
<title>rev_cites</title>
<polygon fill="lightblue" stroke="black" points="1345.62,-753.24 1291.62,-753.24 1291.62,-717.24 1345.62,-717.24 1345.62,-753.24"/>
<text xml:space="preserve" text-anchor="middle" x="1318.62" y="-730.19" font-family="Times,serif" font-size="14.00">cites</text>
</g>
<!-- rev_cites&#45;&gt;RFC1539 -->
<g id="edge12" class="edge">
<title>rev_cites&#45;&gt;RFC1539</title>
<path fill="none" stroke="black" d="M1291.37,-745.16C1250.06,-760.19 1168.45,-789.89 1093.34,-817.24"/>
<polygon fill="black" stroke="black" points="1092.41,-813.85 1084.21,-820.56 1094.8,-820.43 1092.41,-813.85"/>
</g>
<!-- RFC9592 -->
<g id="node14" class="node">
<title>RFC9592</title>
<g id="a_node14"><a xlink:href="RFC9592.html" xlink:title="This document retires and obsoletes the Tao of the IETF as an IETF&#45;maintained document. &#160;This document also obsoletes RFC 6722, which describes the publication process of the Tao. &#160;Furthermore, this document describes the rationale for the retirement of the Tao. &#160;For archival purposes, the last version of the Tao is included in the appendix. &#160;Information that new participants need to engage in the work of the IETF will continue to be provided through the IETF website in a more timely and accessible manner. &#160;This is the way." target="_top">
<ellipse fill="none" stroke="black" cx="1706.16" cy="-594.18" rx="121.62" ry="40.66"/>
<text xml:space="preserve" text-anchor="middle" x="1706.16" y="-605.63" font-family="Times,serif" font-size="14.00">RFC9592</text>
<text xml:space="preserve" text-anchor="middle" x="1706.16" y="-589.13" font-family="Times,serif" font-size="14.00">Retiring the Tao of the IETF</text>
<text xml:space="preserve" text-anchor="middle" x="1706.16" y="-572.63" font-family="Times,serif" font-size="14.00">2024</text>
</a>
</g>
</g>
<!-- RFC9592&#45;&gt;rev_cites -->
<g id="edge13" class="edge">
<title>RFC9592&#45;&gt;rev_cites</title>
<path fill="none" stroke="black" d="M1623.5,-624.27C1541.05,-654.28 1418.05,-699.05 1356.53,-721.44"/>
<polygon fill="black" stroke="black" points="1355.4,-718.13 1347.2,-724.84 1357.8,-724.7 1355.4,-718.13"/>
</g>
</g>
</svg>
