<?xml version="1.0" encoding="UTF-8" standalone="no"?>
<!DOCTYPE svg PUBLIC "-//W3C//DTD SVG 1.1//EN"
 "http://www.w3.org/Graphics/SVG/1.1/DTD/svg11.dtd">
<!-- Generated by graphviz version 14.1.1 (20251213.1925)
 -->
<!-- Title: Flow Pages: 1 -->
<svg width="870pt" height="186pt"
 viewBox="0.00 0.00 870.00 186.00" xmlns="http://www.w3.org/2000/svg" xmlns:xlink="http://www.w3.org/1999/xlink">
<g id="graph0" class="graph" transform="scale(1 1) rotate(0) translate(4 182.33)">
<title>Flow</title>
<polygon fill="white" stroke="none" points="-4,4 -4,-182.33 865.57,-182.33 865.57,4 -4,4"/>
<!-- RFC1103 -->
<g id="node1" class="node">
<title>RFC1103</title>
<g id="a_node1"><a xlink:title="This RFC specifies a method of encapsulating the Internet Protocol (IP) datagrams and Address Resolution Protocol (ARP) requests and replies on Fiber Distributed Data Interface (FDDI) Networks. [STANDARDS&#45;TRACK]">
<ellipse fill="none" stroke="black" cx="608.93" cy="-72" rx="161.4" ry="52.33"/>
<text xml:space="preserve" text-anchor="middle" x="608.93" y="-91.7" font-family="Times,serif" font-size="14.00">RFC1103</text>
<text xml:space="preserve" text-anchor="middle" x="608.93" y="-75.2" font-family="Times,serif" font-size="14.00">Proposed standard for the transmission</text>
<text xml:space="preserve" text-anchor="middle" x="608.93" y="-58.7" font-family="Times,serif" font-size="14.00">of IP datagrams over FDDI Networks</text>
<text xml:space="preserve" text-anchor="middle" x="608.93" y="-42.2" font-family="Times,serif" font-size="14.00">1989</text>
</a>
</g>
</g>
<!-- obs -->
<g id="node4" class="node">
<title>obs</title>
<polygon fill="none" stroke="black" points="861.57,-144 795.32,-144 795.32,-108 861.57,-108 861.57,-144"/>
<text xml:space="preserve" text-anchor="middle" x="828.45" y="-120.95" font-family="Times,serif" font-size="14.00">obsoletes</text>
</g>
<!-- RFC1103&#45;&gt;obs -->
<g id="edge3" class="edge">
<title>RFC1103&#45;&gt;obs</title>
<path fill="none" stroke="black" d="M738.03,-103.8C754.46,-107.88 770.28,-111.81 783.93,-115.2"/>
<polygon fill="black" stroke="black" points="782.83,-118.53 793.38,-117.54 784.51,-111.74 782.83,-118.53"/>
</g>
<!-- updates -->
<g id="node5" class="node">
<title>updates</title>
<polygon fill="none" stroke="black" points="857.07,-90 799.82,-90 799.82,-54 857.07,-54 857.07,-90"/>
<text xml:space="preserve" text-anchor="middle" x="828.45" y="-66.95" font-family="Times,serif" font-size="14.00">updates</text>
</g>
<!-- RFC1103&#45;&gt;updates -->
<g id="edge4" class="edge">
<title>RFC1103&#45;&gt;updates</title>
<path fill="none" stroke="black" d="M770.58,-72C776.74,-72 782.61,-72 788.07,-72"/>
<polygon fill="black" stroke="black" points="787.84,-75.5 797.84,-72 787.84,-68.5 787.84,-75.5"/>
</g>
<!-- cites -->
<g id="node7" class="node">
<title>cites</title>
<polygon fill="none" stroke="black" points="855.45,-36 801.45,-36 801.45,0 855.45,0 855.45,-36"/>
<text xml:space="preserve" text-anchor="middle" x="828.45" y="-12.95" font-family="Times,serif" font-size="14.00">cites</text>
</g>
<!-- RFC1103&#45;&gt;cites -->
<g id="edge6" class="edge">
<title>RFC1103&#45;&gt;cites</title>
<path fill="none" stroke="black" d="M738.03,-40.2C757.14,-35.45 775.43,-30.91 790.43,-27.19"/>
<polygon fill="black" stroke="black" points="790.88,-30.68 799.75,-24.88 789.2,-23.89 790.88,-30.68"/>
</g>
<!-- obs_by -->
<g id="node2" class="node">
<title>obs_by</title>
<polygon fill="none" stroke="black" points="422.53,-144 356.28,-144 356.28,-108 422.53,-108 422.53,-144"/>
<text xml:space="preserve" text-anchor="middle" x="389.4" y="-120.95" font-family="Times,serif" font-size="14.00">obsoletes</text>
</g>
<!-- obs_by&#45;&gt;RFC1103 -->
<g id="edge1" class="edge">
<title>obs_by&#45;&gt;RFC1103</title>
<path fill="none" stroke="black" d="M422.97,-117.92C436.02,-114.68 452.02,-110.7 469.09,-106.47"/>
<polygon fill="black" stroke="black" points="469.51,-109.97 478.37,-104.16 467.82,-103.18 469.51,-109.97"/>
</g>
<!-- RFC1188 -->
<g id="node3" class="node">
<title>RFC1188</title>
<g id="a_node3"><a xlink:href="RFC1188.html" xlink:title="This memo defines a method of encapsulating the Internet Protocol (IP) datagrams and Address Resolution Protocol (ARP) requests and replies on Fiber Distributed Data Interface (FDDI) Networks. [STANDARDS&#45;TRACK]" target="_top">
<ellipse fill="none" stroke="black" cx="165.64" cy="-126" rx="165.64" ry="52.33"/>
<text xml:space="preserve" text-anchor="middle" x="165.64" y="-145.7" font-family="Times,serif" font-size="14.00">RFC1188</text>
<text xml:space="preserve" text-anchor="middle" x="165.64" y="-129.2" font-family="Times,serif" font-size="14.00">Proposed Standard for the Transmission</text>
<text xml:space="preserve" text-anchor="middle" x="165.64" y="-112.7" font-family="Times,serif" font-size="14.00">of IP Datagrams over FDDI Networks</text>
<text xml:space="preserve" text-anchor="middle" x="165.64" y="-96.2" font-family="Times,serif" font-size="14.00">1990</text>
</a>
</g>
</g>
<!-- RFC1188&#45;&gt;obs_by -->
<g id="edge2" class="edge">
<title>RFC1188&#45;&gt;obs_by</title>
<path fill="none" stroke="black" d="M331.58,-126C336.17,-126 340.59,-126 344.8,-126"/>
<polygon fill="black" stroke="black" points="344.57,-129.5 354.57,-126 344.57,-122.5 344.57,-129.5"/>
</g>
<!-- updated_by -->
<g id="node6" class="node">
<title>updated_by</title>
<polygon fill="none" stroke="black" points="418.03,-90 360.78,-90 360.78,-54 418.03,-54 418.03,-90"/>
<text xml:space="preserve" text-anchor="middle" x="389.4" y="-66.95" font-family="Times,serif" font-size="14.00">updates</text>
</g>
<!-- updated_by&#45;&gt;RFC1103 -->
<g id="edge5" class="edge">
<title>updated_by&#45;&gt;RFC1103</title>
<path fill="none" stroke="black" d="M418.4,-72C423.76,-72 429.73,-72 436.14,-72"/>
<polygon fill="black" stroke="black" points="435.82,-75.5 445.82,-72 435.82,-68.5 435.82,-75.5"/>
</g>
<!-- rev_cites -->
<g id="node8" class="node">
<title>rev_cites</title>
<polygon fill="none" stroke="black" points="416.4,-36 362.4,-36 362.4,0 416.4,0 416.4,-36"/>
<text xml:space="preserve" text-anchor="middle" x="389.4" y="-12.95" font-family="Times,serif" font-size="14.00">cites</text>
</g>
<!-- rev_cites&#45;&gt;RFC1103 -->
<g id="edge7" class="edge">
<title>rev_cites&#45;&gt;RFC1103</title>
<path fill="none" stroke="black" d="M416.64,-24.51C430.56,-27.97 448.86,-32.51 468.62,-37.42"/>
<polygon fill="black" stroke="black" points="467.71,-40.8 478.26,-39.81 469.39,-34 467.71,-40.8"/>
</g>
</g>
</svg>
