<?xml version="1.0" encoding="UTF-8" standalone="no"?>
<!DOCTYPE svg PUBLIC "-//W3C//DTD SVG 1.1//EN"
 "http://www.w3.org/Graphics/SVG/1.1/DTD/svg11.dtd">
<!-- Generated by graphviz version 14.1.1 (20251213.1925)
 -->
<!-- Title: Flow Pages: 1 -->
<svg width="702pt" height="769pt"
 viewBox="0.00 0.00 702.00 769.00" xmlns="http://www.w3.org/2000/svg" xmlns:xlink="http://www.w3.org/1999/xlink">
<g id="graph0" class="graph" transform="scale(1 1) rotate(0) translate(4 764.67)">
<title>Flow</title>
<polygon fill="white" stroke="none" points="-4,4 -4,-764.67 697.83,-764.67 697.83,4 -4,4"/>
<!-- RFC1003 -->
<g id="node1" class="node">
<title>RFC1003</title>
<g id="a_node1"><a xlink:title="This memo is intended to identify and explore issues in defining a standard for the exchange of mathematical equations. &#160;No attempt is made at a complete definition and more questions are asked than are answered. &#160;Questions about the user interface are only addressed to the extent that they affect interchange issues.">
<ellipse fill="green" stroke="black" stroke-width="3" cx="346.92" cy="-380.33" rx="169.35" ry="65.05"/>
<text xml:space="preserve" text-anchor="middle" x="346.92" y="-405.23" font-family="Times,serif" font-size="18.00">RFC1003</text>
<text xml:space="preserve" text-anchor="middle" x="346.92" y="-384.23" font-family="Times,serif" font-size="18.00">Issues in defining an equations</text>
<text xml:space="preserve" text-anchor="middle" x="346.92" y="-363.23" font-family="Times,serif" font-size="18.00">representation standard</text>
<text xml:space="preserve" text-anchor="middle" x="346.92" y="-342.23" font-family="Times,serif" font-size="18.00">1987</text>
</a>
</g>
</g>
<!-- obs -->
<g id="node3" class="node">
<title>obs</title>
<polygon fill="lightblue" stroke="black" points="693.83,-579.5 627.58,-579.5 627.58,-543.5 693.83,-543.5 693.83,-579.5"/>
<text xml:space="preserve" text-anchor="middle" x="660.71" y="-556.45" font-family="Times,serif" font-size="14.00">obsoletes</text>
</g>
<!-- RFC1003&#45;&gt;obs -->
<g id="edge2" class="edge">
<title>RFC1003&#45;&gt;obs</title>
<path fill="none" stroke="black" d="M442.34,-435.43C501.39,-469.52 574.24,-511.58 619.08,-537.47"/>
<polygon fill="black" stroke="black" points="617.3,-540.48 627.71,-542.45 620.8,-534.42 617.3,-540.48"/>
</g>
<!-- updates -->
<g id="node4" class="node">
<title>updates</title>
<polygon fill="lightyellow" stroke="black" points="375.54,-760.67 318.29,-760.67 318.29,-724.67 375.54,-724.67 375.54,-760.67"/>
<text xml:space="preserve" text-anchor="middle" x="346.92" y="-737.62" font-family="Times,serif" font-size="14.00">updates</text>
</g>
<!-- RFC1003&#45;&gt;updates -->
<g id="edge3" class="edge">
<title>RFC1003&#45;&gt;updates</title>
<path fill="none" stroke="black" d="M346.92,-446.79C346.92,-526.14 346.92,-655.35 346.92,-713.13"/>
<polygon fill="black" stroke="black" points="343.42,-712.81 346.92,-722.81 350.42,-712.81 343.42,-712.81"/>
</g>
<!-- cites -->
<g id="node6" class="node">
<title>cites</title>
<polygon fill="lightblue" stroke="black" points="60.13,-579.5 6.13,-579.5 6.13,-543.5 60.13,-543.5 60.13,-579.5"/>
<text xml:space="preserve" text-anchor="middle" x="33.13" y="-556.45" font-family="Times,serif" font-size="14.00">cites</text>
</g>
<!-- RFC1003&#45;&gt;cites -->
<g id="edge5" class="edge">
<title>RFC1003&#45;&gt;cites</title>
<path fill="none" stroke="black" d="M251.49,-435.43C190.43,-470.68 114.62,-514.45 70.28,-540.05"/>
<polygon fill="black" stroke="black" points="68.74,-536.9 61.83,-544.93 72.24,-542.96 68.74,-536.9"/>
</g>
<!-- obs_by -->
<g id="node2" class="node">
<title>obs_by</title>
<polygon fill="lightblue" stroke="black" points="66.25,-217.17 0,-217.17 0,-181.17 66.25,-181.17 66.25,-217.17"/>
<text xml:space="preserve" text-anchor="middle" x="33.13" y="-194.12" font-family="Times,serif" font-size="14.00">obsoletes</text>
</g>
<!-- obs_by&#45;&gt;RFC1003 -->
<g id="edge1" class="edge">
<title>obs_by&#45;&gt;RFC1003</title>
<path fill="none" stroke="black" d="M64.94,-217.54C106.13,-241.32 179.96,-283.94 241.74,-319.61"/>
<polygon fill="black" stroke="black" points="239.82,-322.54 250.23,-324.51 243.32,-316.48 239.82,-322.54"/>
</g>
<!-- updated_by -->
<g id="node5" class="node">
<title>updated_by</title>
<polygon fill="lightyellow" stroke="black" points="375.54,-36 318.29,-36 318.29,0 375.54,0 375.54,-36"/>
<text xml:space="preserve" text-anchor="middle" x="346.92" y="-12.95" font-family="Times,serif" font-size="14.00">updates</text>
</g>
<!-- updated_by&#45;&gt;RFC1003 -->
<g id="edge4" class="edge">
<title>updated_by&#45;&gt;RFC1003</title>
<path fill="none" stroke="black" d="M346.92,-36.47C346.92,-84.72 346.92,-216.78 346.92,-302.49"/>
<polygon fill="black" stroke="black" points="343.42,-302.49 346.92,-312.49 350.42,-302.49 343.42,-302.49"/>
</g>
<!-- rev_cites -->
<g id="node7" class="node">
<title>rev_cites</title>
<polygon fill="lightblue" stroke="black" points="687.71,-217.17 633.71,-217.17 633.71,-181.17 687.71,-181.17 687.71,-217.17"/>
<text xml:space="preserve" text-anchor="middle" x="660.71" y="-194.12" font-family="Times,serif" font-size="14.00">cites</text>
</g>
<!-- rev_cites&#45;&gt;RFC1003 -->
<g id="edge6" class="edge">
<title>rev_cites&#45;&gt;RFC1003</title>
<path fill="none" stroke="black" d="M633.41,-214.93C593.27,-238.1 516.15,-282.63 452.02,-319.65"/>
<polygon fill="black" stroke="black" points="450.48,-316.5 443.57,-324.53 453.98,-322.56 450.48,-316.5"/>
</g>
</g>
</svg>
