<?xml version="1.0" encoding="UTF-8" standalone="no"?>
<!DOCTYPE svg PUBLIC "-//W3C//DTD SVG 1.1//EN"
 "http://www.w3.org/Graphics/SVG/1.1/DTD/svg11.dtd">
<!-- Generated by graphviz version 14.1.1 (20251213.1925)
 -->
<!-- Title: Flow Pages: 1 -->
<svg width="1749pt" height="1359pt"
 viewBox="0.00 0.00 1749.00 1359.00" xmlns="http://www.w3.org/2000/svg" xmlns:xlink="http://www.w3.org/1999/xlink">
<g id="graph0" class="graph" transform="scale(1 1) rotate(0) translate(4 1354.61)">
<title>Flow</title>
<polygon fill="white" stroke="none" points="-4,4 -4,-1354.61 1745.22,-1354.61 1745.22,4 -4,4"/>
<!-- RFC1271 -->
<g id="node1" class="node">
<title>RFC1271</title>
<g id="a_node1"><a xlink:title="This memo defines a portion of the Management Information Base (MIB) for use with network management protocols in TCP/IP&#45;based internets. &#160;In particular, it defines objects for managing remote network monitoring devices. [STANDARDS&#45;TRACK]">
<ellipse fill="green" stroke="black" stroke-width="3" cx="917.01" cy="-905.85" rx="231.4" ry="65.05"/>
<text xml:space="preserve" text-anchor="middle" x="917.01" y="-930.75" font-family="Times,serif" font-size="18.00">RFC1271</text>
<text xml:space="preserve" text-anchor="middle" x="917.01" y="-909.75" font-family="Times,serif" font-size="18.00">Remote Network Monitoring Management</text>
<text xml:space="preserve" text-anchor="middle" x="917.01" y="-888.75" font-family="Times,serif" font-size="18.00">Information Base</text>
<text xml:space="preserve" text-anchor="middle" x="917.01" y="-867.75" font-family="Times,serif" font-size="18.00">1991</text>
</a>
</g>
</g>
<!-- obs -->
<g id="node4" class="node">
<title>obs</title>
<polygon fill="lightblue" stroke="black" points="1319.72,-1137.23 1253.47,-1137.23 1253.47,-1101.23 1319.72,-1101.23 1319.72,-1137.23"/>
<text xml:space="preserve" text-anchor="middle" x="1286.6" y="-1114.18" font-family="Times,serif" font-size="14.00">obsoletes</text>
</g>
<!-- RFC1271&#45;&gt;obs -->
<g id="edge3" class="edge">
<title>RFC1271&#45;&gt;obs</title>
<path fill="none" stroke="black" d="M1019.96,-965.29C1094.21,-1008.15 1190.54,-1063.77 1244.74,-1095.07"/>
<polygon fill="black" stroke="black" points="1242.96,-1098.08 1253.37,-1100.05 1246.46,-1092.02 1242.96,-1098.08"/>
</g>
<!-- updates -->
<g id="node5" class="node">
<title>updates</title>
<polygon fill="lightyellow" stroke="black" points="945.64,-1350.61 888.39,-1350.61 888.39,-1314.61 945.64,-1314.61 945.64,-1350.61"/>
<text xml:space="preserve" text-anchor="middle" x="917.01" y="-1327.56" font-family="Times,serif" font-size="14.00">updates</text>
</g>
<!-- RFC1271&#45;&gt;updates -->
<g id="edge4" class="edge">
<title>RFC1271&#45;&gt;updates</title>
<path fill="none" stroke="black" d="M917.01,-972.06C917.01,-1066.18 917.01,-1234.76 917.01,-1302.86"/>
<polygon fill="black" stroke="black" points="913.51,-1302.85 917.01,-1312.85 920.51,-1302.85 913.51,-1302.85"/>
</g>
<!-- cites -->
<g id="node8" class="node">
<title>cites</title>
<polygon fill="lightblue" stroke="black" points="574.42,-1137.23 520.42,-1137.23 520.42,-1101.23 574.42,-1101.23 574.42,-1137.23"/>
<text xml:space="preserve" text-anchor="middle" x="547.42" y="-1114.18" font-family="Times,serif" font-size="14.00">cites</text>
</g>
<!-- RFC1271&#45;&gt;cites -->
<g id="edge7" class="edge">
<title>RFC1271&#45;&gt;cites</title>
<path fill="none" stroke="black" d="M814.06,-965.29C737.61,-1009.43 637.74,-1067.09 584.56,-1097.79"/>
<polygon fill="black" stroke="black" points="583.1,-1094.6 576.19,-1102.63 586.6,-1100.66 583.1,-1094.6"/>
</g>
<!-- obs_by -->
<g id="node2" class="node">
<title>obs_by</title>
<polygon fill="lightblue" stroke="black" points="580.55,-710.47 514.3,-710.47 514.3,-674.47 580.55,-674.47 580.55,-710.47"/>
<text xml:space="preserve" text-anchor="middle" x="547.42" y="-687.42" font-family="Times,serif" font-size="14.00">obsoletes</text>
</g>
<!-- obs_by&#45;&gt;RFC1271 -->
<g id="edge1" class="edge">
<title>obs_by&#45;&gt;RFC1271</title>
<path fill="none" stroke="black" d="M579.26,-710.85C628.71,-739.4 726.37,-795.78 804.01,-840.61"/>
<polygon fill="black" stroke="black" points="802.14,-843.57 812.55,-845.54 805.64,-837.51 802.14,-843.57"/>
</g>
<!-- RFC1757 -->
<g id="node3" class="node">
<title>RFC1757</title>
<g id="a_node3"><a xlink:href="RFC1757.html" xlink:title="This memo defines a portion of the Management Information Base (MIB) for use with network management protocols in TCP/IP&#45;based internets. &#160;In particular, it defines objects for managing remote network monitoring devices. [STANDARDS&#45;TRACK]" target="_top">
<ellipse fill="none" stroke="black" cx="177.84" cy="-479.09" rx="177.84" ry="52.33"/>
<text xml:space="preserve" text-anchor="middle" x="177.84" y="-498.79" font-family="Times,serif" font-size="14.00">RFC1757</text>
<text xml:space="preserve" text-anchor="middle" x="177.84" y="-482.29" font-family="Times,serif" font-size="14.00">Remote Network Monitoring Management</text>
<text xml:space="preserve" text-anchor="middle" x="177.84" y="-465.79" font-family="Times,serif" font-size="14.00">Information Base</text>
<text xml:space="preserve" text-anchor="middle" x="177.84" y="-449.29" font-family="Times,serif" font-size="14.00">1995</text>
</a>
</g>
</g>
<!-- RFC1757&#45;&gt;obs_by -->
<g id="edge2" class="edge">
<title>RFC1757&#45;&gt;obs_by</title>
<path fill="none" stroke="black" d="M258.94,-525.92C335.07,-569.87 445.92,-633.86 505.61,-668.33"/>
<polygon fill="black" stroke="black" points="503.72,-671.28 514.13,-673.25 507.22,-665.22 503.72,-671.28"/>
</g>
<!-- updated_by -->
<g id="node6" class="node">
<title>updated_by</title>
<polygon fill="lightyellow" stroke="black" points="945.64,-497.09 888.39,-497.09 888.39,-461.09 945.64,-461.09 945.64,-497.09"/>
<text xml:space="preserve" text-anchor="middle" x="917.01" y="-474.04" font-family="Times,serif" font-size="14.00">updates</text>
</g>
<!-- updated_by&#45;&gt;RFC1271 -->
<g id="edge5" class="edge">
<title>updated_by&#45;&gt;RFC1271</title>
<path fill="none" stroke="black" d="M917.01,-497.43C917.01,-553.65 917.01,-725.98 917.01,-827.94"/>
<polygon fill="black" stroke="black" points="913.51,-827.89 917.01,-837.89 920.51,-827.89 913.51,-827.89"/>
</g>
<!-- RFC1513 -->
<g id="node7" class="node">
<title>RFC1513</title>
<g id="a_node7"><a xlink:href="RFC1513.html" xlink:title="This memo defines extensions to the Remote Network Monitoring MIB for managing 802.5 Token Ring networks. [STANDARDS&#45;TRACK]" target="_top">
<ellipse fill="none" stroke="black" cx="917.01" cy="-52.33" rx="158.75" ry="52.33"/>
<text xml:space="preserve" text-anchor="middle" x="917.01" y="-72.03" font-family="Times,serif" font-size="14.00">RFC1513</text>
<text xml:space="preserve" text-anchor="middle" x="917.01" y="-55.53" font-family="Times,serif" font-size="14.00">Token Ring Extensions to the Remote</text>
<text xml:space="preserve" text-anchor="middle" x="917.01" y="-39.03" font-family="Times,serif" font-size="14.00">Network Monitoring MIB</text>
<text xml:space="preserve" text-anchor="middle" x="917.01" y="-22.53" font-family="Times,serif" font-size="14.00">1993</text>
</a>
</g>
</g>
<!-- RFC1513&#45;&gt;updated_by -->
<g id="edge6" class="edge">
<title>RFC1513&#45;&gt;updated_by</title>
<path fill="none" stroke="black" d="M917.01,-105.08C917.01,-195.73 917.01,-378.18 917.01,-449.53"/>
<polygon fill="black" stroke="black" points="913.51,-449.25 917.01,-459.25 920.51,-449.25 913.51,-449.25"/>
</g>
<!-- rev_cites -->
<g id="node9" class="node">
<title>rev_cites</title>
<polygon fill="lightblue" stroke="black" points="1313.6,-710.47 1259.6,-710.47 1259.6,-674.47 1313.6,-674.47 1313.6,-710.47"/>
<text xml:space="preserve" text-anchor="middle" x="1286.6" y="-687.42" font-family="Times,serif" font-size="14.00">cites</text>
</g>
<!-- rev_cites&#45;&gt;RFC1271 -->
<g id="edge8" class="edge">
<title>rev_cites&#45;&gt;RFC1271</title>
<path fill="none" stroke="black" d="M1259.12,-708.33C1211.22,-735.99 1109.88,-794.5 1029.87,-840.69"/>
<polygon fill="black" stroke="black" points="1028.44,-837.48 1021.53,-845.51 1031.94,-843.54 1028.44,-837.48"/>
</g>
<!-- RFC1700 -->
<g id="node10" class="node">
<title>RFC1700</title>
<g id="a_node10"><a xlink:href="RFC1700.html" xlink:title="This RFC is a snapshot of the ongoing process of the assignment of protocol parameters for the Internet protocol suite. &#160;To make the current information readily available the assignments are kept up&#45;to&#45; date in a set of online text files. &#160;This memo is a status report on the parameters (i.e., numbers and keywords) used in protocols in the Internet community." target="_top">
<ellipse fill="none" stroke="black" cx="1656.19" cy="-479.09" rx="85.03" ry="40.66"/>
<text xml:space="preserve" text-anchor="middle" x="1656.19" y="-490.54" font-family="Times,serif" font-size="14.00">RFC1700</text>
<text xml:space="preserve" text-anchor="middle" x="1656.19" y="-474.04" font-family="Times,serif" font-size="14.00">Assigned Numbers</text>
<text xml:space="preserve" text-anchor="middle" x="1656.19" y="-457.54" font-family="Times,serif" font-size="14.00">1994</text>
</a>
</g>
</g>
<!-- RFC1700&#45;&gt;rev_cites -->
<g id="edge9" class="edge">
<title>RFC1700&#45;&gt;rev_cites</title>
<path fill="none" stroke="black" d="M1601.65,-510.57C1525.41,-554.59 1388.99,-633.35 1323.57,-671.12"/>
<polygon fill="black" stroke="black" points="1321.92,-668.03 1315.01,-676.07 1325.42,-674.1 1321.92,-668.03"/>
</g>
</g>
</svg>
