<?xml version="1.0" encoding="UTF-8" standalone="no"?>
<!DOCTYPE svg PUBLIC "-//W3C//DTD SVG 1.1//EN"
 "http://www.w3.org/Graphics/SVG/1.1/DTD/svg11.dtd">
<!-- Generated by graphviz version 14.1.1 (20251213.1925)
 -->
<!-- Title: Flow Pages: 1 -->
<svg width="1123pt" height="311pt"
 viewBox="0.00 0.00 1123.00 311.00" xmlns="http://www.w3.org/2000/svg" xmlns:xlink="http://www.w3.org/1999/xlink">
<g id="graph0" class="graph" transform="scale(1 1) rotate(0) translate(4 306.98)">
<title>Flow</title>
<polygon fill="white" stroke="none" points="-4,4 -4,-306.98 1118.97,-306.98 1118.97,4 -4,4"/>
<!-- RFC1601 -->
<g id="node1" class="node">
<title>RFC1601</title>
<g id="a_node1"><a xlink:title="This memo documents the composition, selection, roles, and organization of the Internet Architecture Board and its subsidiary organizations. &#160;This memo provides information for the Internet community. &#160;This memo does not specify an Internet standard of any kind.">
<ellipse fill="none" stroke="black" cx="557.48" cy="-153.66" rx="147.08" ry="52.33"/>
<text xml:space="preserve" text-anchor="middle" x="557.48" y="-173.36" font-family="Times,serif" font-size="14.00">RFC1601</text>
<text xml:space="preserve" text-anchor="middle" x="557.48" y="-156.86" font-family="Times,serif" font-size="14.00">Charter of the Internet Architecture</text>
<text xml:space="preserve" text-anchor="middle" x="557.48" y="-140.36" font-family="Times,serif" font-size="14.00">Board (IAB)</text>
<text xml:space="preserve" text-anchor="middle" x="557.48" y="-123.86" font-family="Times,serif" font-size="14.00">1994</text>
</a>
</g>
</g>
<!-- obs -->
<g id="node4" class="node">
<title>obs</title>
<polygon fill="none" stroke="black" points="795.81,-225.66 729.56,-225.66 729.56,-189.66 795.81,-189.66 795.81,-225.66"/>
<text xml:space="preserve" text-anchor="middle" x="762.69" y="-202.61" font-family="Times,serif" font-size="14.00">obsoletes</text>
</g>
<!-- RFC1601&#45;&gt;obs -->
<g id="edge3" class="edge">
<title>RFC1601&#45;&gt;obs</title>
<path fill="none" stroke="black" d="M676.1,-184.91C691.02,-188.88 705.46,-192.72 718.11,-196.08"/>
<polygon fill="black" stroke="black" points="717.15,-199.44 727.71,-198.63 718.94,-192.68 717.15,-199.44"/>
</g>
<!-- updates -->
<g id="node6" class="node">
<title>updates</title>
<polygon fill="none" stroke="black" points="791.31,-171.66 734.06,-171.66 734.06,-135.66 791.31,-135.66 791.31,-171.66"/>
<text xml:space="preserve" text-anchor="middle" x="762.69" y="-148.61" font-family="Times,serif" font-size="14.00">updates</text>
</g>
<!-- RFC1601&#45;&gt;updates -->
<g id="edge5" class="edge">
<title>RFC1601&#45;&gt;updates</title>
<path fill="none" stroke="black" d="M704.81,-153.66C710.99,-153.66 716.89,-153.66 722.39,-153.66"/>
<polygon fill="black" stroke="black" points="722.25,-157.16 732.25,-153.66 722.25,-150.16 722.25,-157.16"/>
</g>
<!-- cites -->
<g id="node8" class="node">
<title>cites</title>
<polygon fill="none" stroke="black" points="789.69,-117.66 735.69,-117.66 735.69,-81.66 789.69,-81.66 789.69,-117.66"/>
<text xml:space="preserve" text-anchor="middle" x="762.69" y="-94.61" font-family="Times,serif" font-size="14.00">cites</text>
</g>
<!-- RFC1601&#45;&gt;cites -->
<g id="edge7" class="edge">
<title>RFC1601&#45;&gt;cites</title>
<path fill="none" stroke="black" d="M676.1,-122.4C693.52,-117.77 710.29,-113.32 724.3,-109.59"/>
<polygon fill="black" stroke="black" points="725.15,-112.99 733.91,-107.04 723.35,-106.23 725.15,-112.99"/>
</g>
<!-- obs_by -->
<g id="node2" class="node">
<title>obs_by</title>
<polygon fill="none" stroke="black" points="385.41,-253.66 319.16,-253.66 319.16,-217.66 385.41,-217.66 385.41,-253.66"/>
<text xml:space="preserve" text-anchor="middle" x="352.28" y="-230.61" font-family="Times,serif" font-size="14.00">obsoletes</text>
</g>
<!-- obs_by&#45;&gt;RFC1601 -->
<g id="edge1" class="edge">
<title>obs_by&#45;&gt;RFC1601</title>
<path fill="none" stroke="black" d="M385.48,-222.67C402.95,-215.62 425.66,-206.45 448.79,-197.12"/>
<polygon fill="black" stroke="black" points="450.07,-200.38 458.03,-193.39 447.45,-193.88 450.07,-200.38"/>
</g>
<!-- RFC2850 -->
<g id="node3" class="node">
<title>RFC2850</title>
<g id="a_node3"><a xlink:href="RFC2850.html" xlink:title="This memo documents the composition, selection, roles, and organization of the Internet Architecture Board. &#160;It replaces RFC 1601. &#160;This document specifies an Internet Best Current Practices for the Internet Community, and requests discussion and suggestions for improvements." target="_top">
<ellipse fill="none" stroke="black" cx="147.08" cy="-250.66" rx="147.08" ry="52.33"/>
<text xml:space="preserve" text-anchor="middle" x="147.08" y="-270.36" font-family="Times,serif" font-size="14.00">RFC2850</text>
<text xml:space="preserve" text-anchor="middle" x="147.08" y="-253.86" font-family="Times,serif" font-size="14.00">Charter of the Internet Architecture</text>
<text xml:space="preserve" text-anchor="middle" x="147.08" y="-237.36" font-family="Times,serif" font-size="14.00">Board (IAB)</text>
<text xml:space="preserve" text-anchor="middle" x="147.08" y="-220.86" font-family="Times,serif" font-size="14.00">2000</text>
</a>
</g>
</g>
<!-- RFC2850&#45;&gt;obs_by -->
<g id="edge2" class="edge">
<title>RFC2850&#45;&gt;obs_by</title>
<path fill="none" stroke="black" d="M291.41,-240.08C297.03,-239.66 302.44,-239.26 307.55,-238.89"/>
<polygon fill="black" stroke="black" points="307.69,-242.39 317.41,-238.16 307.17,-235.41 307.69,-242.39"/>
</g>
<!-- rev_cites -->
<g id="node9" class="node">
<title>rev_cites</title>
<polygon fill="none" stroke="black" points="379.28,-171.66 325.28,-171.66 325.28,-135.66 379.28,-135.66 379.28,-171.66"/>
<text xml:space="preserve" text-anchor="middle" x="352.28" y="-148.61" font-family="Times,serif" font-size="14.00">cites</text>
</g>
<!-- RFC2850&#45;&gt;rev_cites -->
<g id="edge9" class="edge">
<title>RFC2850&#45;&gt;rev_cites</title>
<path fill="none" stroke="black" d="M246.94,-212.02C262.93,-205.02 279.16,-197.45 294.16,-189.66 301.08,-186.07 308.26,-181.91 315.1,-177.72"/>
<polygon fill="black" stroke="black" points="316.91,-180.72 323.52,-172.44 313.19,-174.79 316.91,-180.72"/>
</g>
<!-- RFC1358 -->
<g id="node5" class="node">
<title>RFC1358</title>
<g id="a_node5"><a xlink:href="RFC1358.html" xlink:title="The Internet Architecture Board (IAB) shall be constituted and shall operate as a technical advisory group of the Internet Society. &#160;This memo provides information for the Internet community. &#160;It does not specify an Internet standard." target="_top">
<ellipse fill="none" stroke="black" cx="967.89" cy="-207.66" rx="147.08" ry="52.33"/>
<text xml:space="preserve" text-anchor="middle" x="967.89" y="-227.36" font-family="Times,serif" font-size="14.00">RFC1358</text>
<text xml:space="preserve" text-anchor="middle" x="967.89" y="-210.86" font-family="Times,serif" font-size="14.00">Charter of the Internet Architecture</text>
<text xml:space="preserve" text-anchor="middle" x="967.89" y="-194.36" font-family="Times,serif" font-size="14.00">Board (IAB)</text>
<text xml:space="preserve" text-anchor="middle" x="967.89" y="-177.86" font-family="Times,serif" font-size="14.00">1992</text>
</a>
</g>
</g>
<!-- obs&#45;&gt;RFC1358 -->
<g id="edge4" class="edge">
<title>obs&#45;&gt;RFC1358</title>
<path fill="none" stroke="black" d="M795.89,-207.66C800.04,-207.66 804.49,-207.66 809.17,-207.66"/>
<polygon fill="black" stroke="black" points="808.98,-211.16 818.98,-207.66 808.98,-204.16 808.98,-211.16"/>
</g>
<!-- updated_by -->
<g id="node7" class="node">
<title>updated_by</title>
<polygon fill="none" stroke="black" points="380.91,-117.66 323.66,-117.66 323.66,-81.66 380.91,-81.66 380.91,-117.66"/>
<text xml:space="preserve" text-anchor="middle" x="352.28" y="-94.61" font-family="Times,serif" font-size="14.00">updates</text>
</g>
<!-- updated_by&#45;&gt;RFC1601 -->
<g id="edge6" class="edge">
<title>updated_by&#45;&gt;RFC1601</title>
<path fill="none" stroke="black" d="M381.11,-107.05C393.98,-110.47 410.28,-114.81 427.73,-119.44"/>
<polygon fill="black" stroke="black" points="426.7,-122.79 437.27,-121.98 428.5,-116.03 426.7,-122.79"/>
</g>
<!-- rev_cites&#45;&gt;RFC1601 -->
<g id="edge8" class="edge">
<title>rev_cites&#45;&gt;RFC1601</title>
<path fill="none" stroke="black" d="M379.43,-153.66C385.2,-153.66 391.71,-153.66 398.75,-153.66"/>
<polygon fill="black" stroke="black" points="398.69,-157.16 408.69,-153.66 398.69,-150.16 398.69,-157.16"/>
</g>
<!-- RFC4844 -->
<g id="node10" class="node">
<title>RFC4844</title>
<g id="a_node10"><a xlink:href="RFC4844.html" xlink:title="This document describes the framework for an RFC Series and an RFC Editor function that incorporate the principles of organized community involvement and accountability that has become necessary as the Internet technical community has grown, thereby enabling the RFC Series to continue to fulfill its mandate. &#160;This memo provides information for the Internet community." target="_top">
<ellipse fill="none" stroke="black" cx="147.08" cy="-139.66" rx="136.47" ry="40.66"/>
<text xml:space="preserve" text-anchor="middle" x="147.08" y="-151.11" font-family="Times,serif" font-size="14.00">RFC4844</text>
<text xml:space="preserve" text-anchor="middle" x="147.08" y="-134.61" font-family="Times,serif" font-size="14.00">The RFC Series and RFC Editor</text>
<text xml:space="preserve" text-anchor="middle" x="147.08" y="-118.11" font-family="Times,serif" font-size="14.00">2007</text>
</a>
</g>
</g>
<!-- RFC4844&#45;&gt;rev_cites -->
<g id="edge10" class="edge">
<title>RFC4844&#45;&gt;rev_cites</title>
<path fill="none" stroke="black" d="M280.5,-148.78C292.42,-149.6 303.72,-150.38 313.65,-151.07"/>
<polygon fill="black" stroke="black" points="313.3,-154.55 323.51,-151.75 313.78,-147.57 313.3,-154.55"/>
</g>
<!-- RFC8729 -->
<g id="node11" class="node">
<title>RFC8729</title>
<g id="a_node11"><a xlink:href="RFC8729.html" xlink:title="This document describes the framework for an RFC Series and an RFC Editor function that incorporate the principles of organized community involvement and accountability that has become necessary as the Internet technical community has grown, thereby enabling the RFC Series to continue to fulfill its mandate. &#160;This document obsoletes RFC 4844." target="_top">
<ellipse fill="none" stroke="black" cx="147.08" cy="-40.66" rx="136.47" ry="40.66"/>
<text xml:space="preserve" text-anchor="middle" x="147.08" y="-52.11" font-family="Times,serif" font-size="14.00">RFC8729</text>
<text xml:space="preserve" text-anchor="middle" x="147.08" y="-35.61" font-family="Times,serif" font-size="14.00">The RFC Series and RFC Editor</text>
<text xml:space="preserve" text-anchor="middle" x="147.08" y="-19.11" font-family="Times,serif" font-size="14.00">2020</text>
</a>
</g>
</g>
<!-- RFC8729&#45;&gt;rev_cites -->
<g id="edge11" class="edge">
<title>RFC8729&#45;&gt;rev_cites</title>
<path fill="none" stroke="black" d="M253.27,-66.56C267.8,-72.75 281.91,-80.35 294.16,-89.66 309.95,-101.67 305.88,-111.91 319.16,-126.66 319.32,-126.84 319.49,-127.02 319.65,-127.21"/>
<polygon fill="black" stroke="black" points="317.11,-129.61 326.68,-134.15 322.03,-124.63 317.11,-129.61"/>
</g>
</g>
</svg>
