<?xml version="1.0" encoding="UTF-8" standalone="no"?>
<!DOCTYPE svg PUBLIC "-//W3C//DTD SVG 1.1//EN"
 "http://www.w3.org/Graphics/SVG/1.1/DTD/svg11.dtd">
<!-- Generated by graphviz version 14.1.1 (20251213.1925)
 -->
<!-- Title: Flow Pages: 1 -->
<svg width="800pt" height="198pt"
 viewBox="0.00 0.00 800.00 198.00" xmlns="http://www.w3.org/2000/svg" xmlns:xlink="http://www.w3.org/1999/xlink">
<g id="graph0" class="graph" transform="scale(1 1) rotate(0) translate(4 193.99)">
<title>Flow</title>
<polygon fill="white" stroke="none" points="-4,4 -4,-193.99 795.57,-193.99 795.57,4 -4,4"/>
<!-- RFC1351 -->
<g id="node1" class="node">
<title>RFC1351</title>
<g id="a_node1"><a xlink:title="This memo presents an elaboration of the SNMP administrative model set forth in [1]. &#160;This model provides a unified conceptual basis for administering SNMP protocol entities to support: authenticaiton and integrity, privacy, access control, and cooperation of protocol entities. [STANDARDS&#45;TRACK]">
<ellipse fill="green" stroke="black" cx="574.46" cy="-117.99" rx="125.87" ry="40.66"/>
<text xml:space="preserve" text-anchor="middle" x="574.46" y="-129.44" font-family="Times,serif" font-size="14.00">RFC1351</text>
<text xml:space="preserve" text-anchor="middle" x="574.46" y="-112.94" font-family="Times,serif" font-size="14.00">SNMP Administrative Model</text>
<text xml:space="preserve" text-anchor="middle" x="574.46" y="-96.44" font-family="Times,serif" font-size="14.00">1992</text>
</a>
</g>
</g>
<!-- obs -->
<g id="node3" class="node">
<title>obs</title>
<polygon fill="lightblue" stroke="black" points="791.57,-189.99 725.32,-189.99 725.32,-153.99 791.57,-153.99 791.57,-189.99"/>
<text xml:space="preserve" text-anchor="middle" x="758.45" y="-166.94" font-family="Times,serif" font-size="14.00">obsoletes</text>
</g>
<!-- RFC1351&#45;&gt;obs -->
<g id="edge2" class="edge">
<title>RFC1351&#45;&gt;obs</title>
<path fill="none" stroke="black" d="M668.32,-145.55C684.36,-150.31 700.32,-155.04 714.21,-159.17"/>
<polygon fill="black" stroke="black" points="712.84,-162.41 723.42,-161.9 714.83,-155.7 712.84,-162.41"/>
</g>
<!-- updates -->
<g id="node4" class="node">
<title>updates</title>
<polygon fill="lightyellow" stroke="black" points="787.07,-135.99 729.82,-135.99 729.82,-99.99 787.07,-99.99 787.07,-135.99"/>
<text xml:space="preserve" text-anchor="middle" x="758.45" y="-112.94" font-family="Times,serif" font-size="14.00">updates</text>
</g>
<!-- RFC1351&#45;&gt;updates -->
<g id="edge3" class="edge">
<title>RFC1351&#45;&gt;updates</title>
<path fill="none" stroke="black" d="M700.36,-117.99C706.53,-117.99 712.45,-117.99 718,-117.99"/>
<polygon fill="black" stroke="black" points="717.96,-121.49 727.96,-117.99 717.96,-114.49 717.96,-121.49"/>
</g>
<!-- cites -->
<g id="node6" class="node">
<title>cites</title>
<polygon fill="lightblue" stroke="black" points="785.45,-81.99 731.45,-81.99 731.45,-45.99 785.45,-45.99 785.45,-81.99"/>
<text xml:space="preserve" text-anchor="middle" x="758.45" y="-58.94" font-family="Times,serif" font-size="14.00">cites</text>
</g>
<!-- RFC1351&#45;&gt;cites -->
<g id="edge5" class="edge">
<title>RFC1351&#45;&gt;cites</title>
<path fill="none" stroke="black" d="M668.32,-90.44C686.75,-84.97 705.08,-79.53 720.29,-75.02"/>
<polygon fill="black" stroke="black" points="721.21,-78.4 729.8,-72.2 719.22,-71.68 721.21,-78.4"/>
</g>
<!-- obs_by -->
<g id="node2" class="node">
<title>obs_by</title>
<polygon fill="lightblue" stroke="black" points="423.59,-189.99 357.34,-189.99 357.34,-153.99 423.59,-153.99 423.59,-189.99"/>
<text xml:space="preserve" text-anchor="middle" x="390.47" y="-166.94" font-family="Times,serif" font-size="14.00">obsoletes</text>
</g>
<!-- obs_by&#45;&gt;RFC1351 -->
<g id="edge1" class="edge">
<title>obs_by&#45;&gt;RFC1351</title>
<path fill="none" stroke="black" d="M424,-162.34C437.17,-158.43 453.17,-153.68 469.74,-148.77"/>
<polygon fill="black" stroke="black" points="470.65,-152.15 479.24,-145.95 468.66,-145.44 470.65,-152.15"/>
</g>
<!-- updated_by -->
<g id="node5" class="node">
<title>updated_by</title>
<polygon fill="lightyellow" stroke="black" points="419.09,-135.99 361.84,-135.99 361.84,-99.99 419.09,-99.99 419.09,-135.99"/>
<text xml:space="preserve" text-anchor="middle" x="390.47" y="-112.94" font-family="Times,serif" font-size="14.00">updates</text>
</g>
<!-- updated_by&#45;&gt;RFC1351 -->
<g id="edge4" class="edge">
<title>updated_by&#45;&gt;RFC1351</title>
<path fill="none" stroke="black" d="M419.5,-117.99C424.74,-117.99 430.52,-117.99 436.67,-117.99"/>
<polygon fill="black" stroke="black" points="436.62,-121.49 446.62,-117.99 436.62,-114.49 436.62,-121.49"/>
</g>
<!-- rev_cites -->
<g id="node7" class="node">
<title>rev_cites</title>
<polygon fill="lightblue" stroke="black" points="417.47,-81.99 363.47,-81.99 363.47,-45.99 417.47,-45.99 417.47,-81.99"/>
<text xml:space="preserve" text-anchor="middle" x="390.47" y="-58.94" font-family="Times,serif" font-size="14.00">cites</text>
</g>
<!-- rev_cites&#45;&gt;RFC1351 -->
<g id="edge6" class="edge">
<title>rev_cites&#45;&gt;RFC1351</title>
<path fill="none" stroke="black" d="M417.93,-71.85C432.15,-76.07 450.71,-81.57 470.03,-87.3"/>
<polygon fill="black" stroke="black" points="468.78,-90.59 479.37,-90.08 470.78,-83.88 468.78,-90.59"/>
</g>
<!-- RFC2570 -->
<g id="node8" class="node">
<title>RFC2570</title>
<g id="a_node8"><a xlink:href="RFC2570.html" xlink:title="The purpose of this document is to provide an overview of the third version of the Internet&#45;standard Management Framework, termed the SNMP version 3 Framework (SNMPv3). &#160;This memo provides information for the Internet community." target="_top">
<ellipse fill="none" stroke="black" cx="166.17" cy="-63.99" rx="166.17" ry="63.99"/>
<text xml:space="preserve" text-anchor="middle" x="166.17" y="-91.94" font-family="Times,serif" font-size="14.00">RFC2570</text>
<text xml:space="preserve" text-anchor="middle" x="166.17" y="-75.44" font-family="Times,serif" font-size="14.00">Introduction to Version 3 of the</text>
<text xml:space="preserve" text-anchor="middle" x="166.17" y="-58.94" font-family="Times,serif" font-size="14.00">Internet&#45;standard Network Management</text>
<text xml:space="preserve" text-anchor="middle" x="166.17" y="-42.44" font-family="Times,serif" font-size="14.00">Framework</text>
<text xml:space="preserve" text-anchor="middle" x="166.17" y="-25.94" font-family="Times,serif" font-size="14.00">1999</text>
</a>
</g>
</g>
<!-- RFC2570&#45;&gt;rev_cites -->
<g id="edge7" class="edge">
<title>RFC2570&#45;&gt;rev_cites</title>
<path fill="none" stroke="black" d="M332.8,-63.99C339.49,-63.99 345.84,-63.99 351.7,-63.99"/>
<polygon fill="black" stroke="black" points="351.47,-67.49 361.47,-63.99 351.47,-60.49 351.47,-67.49"/>
</g>
</g>
</svg>
