<?xml version="1.0" encoding="UTF-8" standalone="no"?>
<!DOCTYPE svg PUBLIC "-//W3C//DTD SVG 1.1//EN"
 "http://www.w3.org/Graphics/SVG/1.1/DTD/svg11.dtd">
<!-- Generated by graphviz version 14.1.1 (20251213.1925)
 -->
<!-- Title: Flow Pages: 1 -->
<svg width="1645pt" height="875pt"
 viewBox="0.00 0.00 1645.00 875.00" xmlns="http://www.w3.org/2000/svg" xmlns:xlink="http://www.w3.org/1999/xlink">
<g id="graph0" class="graph" transform="scale(1 1) rotate(0) translate(4 871.47)">
<title>Flow</title>
<polygon fill="white" stroke="none" points="-4,4 -4,-871.47 1640.66,-871.47 1640.66,4 -4,4"/>
<!-- RFC1665 -->
<g id="node1" class="node">
<title>RFC1665</title>
<g id="a_node1"><a xlink:title="This memo defines a portion of the Management Information Base (MIB) for use with network management protocols in the Internet community. &#160;In particular, it defines objects for managing the configuration, monitoring and control of Physical Units (PUs) and Logical Units (LUs) in an SNA environment. [STANDARDS&#45;TRACK]">
<ellipse fill="green" stroke="black" stroke-width="3" cx="861.29" cy="-450.9" rx="222.39" ry="65.05"/>
<text xml:space="preserve" text-anchor="middle" x="861.29" y="-475.8" font-family="Times,serif" font-size="18.00">RFC1665</text>
<text xml:space="preserve" text-anchor="middle" x="861.29" y="-454.8" font-family="Times,serif" font-size="18.00">Definitions of Managed Objects for SNA</text>
<text xml:space="preserve" text-anchor="middle" x="861.29" y="-433.8" font-family="Times,serif" font-size="18.00">NAUs using SMIv2</text>
<text xml:space="preserve" text-anchor="middle" x="861.29" y="-412.8" font-family="Times,serif" font-size="18.00">1994</text>
</a>
</g>
</g>
<!-- obs -->
<g id="node4" class="node">
<title>obs</title>
<polygon fill="lightblue" stroke="black" points="1239.58,-668.18 1173.33,-668.18 1173.33,-632.18 1239.58,-632.18 1239.58,-668.18"/>
<text xml:space="preserve" text-anchor="middle" x="1206.46" y="-645.13" font-family="Times,serif" font-size="14.00">obsoletes</text>
</g>
<!-- RFC1665&#45;&gt;obs -->
<g id="edge3" class="edge">
<title>RFC1665&#45;&gt;obs</title>
<path fill="none" stroke="black" d="M963.45,-509.88C1030.77,-548.75 1115.36,-597.58 1164.91,-626.19"/>
<polygon fill="black" stroke="black" points="1162.92,-629.08 1173.33,-631.05 1166.42,-623.02 1162.92,-629.08"/>
</g>
<!-- updates -->
<g id="node5" class="node">
<title>updates</title>
<polygon fill="lightyellow" stroke="black" points="889.91,-867.47 832.66,-867.47 832.66,-831.47 889.91,-831.47 889.91,-867.47"/>
<text xml:space="preserve" text-anchor="middle" x="861.29" y="-844.42" font-family="Times,serif" font-size="14.00">updates</text>
</g>
<!-- RFC1665&#45;&gt;updates -->
<g id="edge4" class="edge">
<title>RFC1665&#45;&gt;updates</title>
<path fill="none" stroke="black" d="M861.29,-517.16C861.29,-605.12 861.29,-756.73 861.29,-820.19"/>
<polygon fill="black" stroke="black" points="857.79,-819.81 861.29,-829.81 864.79,-819.81 857.79,-819.81"/>
</g>
<!-- cites -->
<g id="node7" class="node">
<title>cites</title>
<polygon fill="lightblue" stroke="black" points="543.12,-668.18 489.12,-668.18 489.12,-632.18 543.12,-632.18 543.12,-668.18"/>
<text xml:space="preserve" text-anchor="middle" x="516.12" y="-645.13" font-family="Times,serif" font-size="14.00">cites</text>
</g>
<!-- RFC1665&#45;&gt;cites -->
<g id="edge6" class="edge">
<title>RFC1665&#45;&gt;cites</title>
<path fill="none" stroke="black" d="M759.13,-509.88C689.71,-549.95 601.96,-600.62 553.16,-628.79"/>
<polygon fill="black" stroke="black" points="551.58,-625.67 544.67,-633.7 555.08,-631.73 551.58,-625.67"/>
</g>
<!-- obs_by -->
<g id="node2" class="node">
<title>obs_by</title>
<polygon fill="lightblue" stroke="black" points="549.24,-269.61 482.99,-269.61 482.99,-233.61 549.24,-233.61 549.24,-269.61"/>
<text xml:space="preserve" text-anchor="middle" x="516.12" y="-246.56" font-family="Times,serif" font-size="14.00">obsoletes</text>
</g>
<!-- obs_by&#45;&gt;RFC1665 -->
<g id="edge1" class="edge">
<title>obs_by&#45;&gt;RFC1665</title>
<path fill="none" stroke="black" d="M547.97,-270C593.32,-296.18 678.78,-345.52 749,-386.07"/>
<polygon fill="black" stroke="black" points="747.08,-389 757.49,-390.97 750.58,-382.94 747.08,-389"/>
</g>
<!-- RFC1666 -->
<g id="node3" class="node">
<title>RFC1666</title>
<g id="a_node3"><a xlink:href="RFC1666.html" xlink:title="This memo defines a portion of the Management Information Base (MIB) for use with network management protocols in the Internet community. &#160;In particular, it defines objects for managing the configuration, monitoring and control of Physical Units (PUs) and Logical Units (LUs) in an SNA environment. [STANDARDS&#45;TRACK]" target="_top">
<ellipse fill="none" stroke="black" cx="170.94" cy="-52.33" rx="170.94" ry="52.33"/>
<text xml:space="preserve" text-anchor="middle" x="170.94" y="-72.03" font-family="Times,serif" font-size="14.00">RFC1666</text>
<text xml:space="preserve" text-anchor="middle" x="170.94" y="-55.53" font-family="Times,serif" font-size="14.00">Definitions of Managed Objects for SNA</text>
<text xml:space="preserve" text-anchor="middle" x="170.94" y="-39.03" font-family="Times,serif" font-size="14.00">NAUs using SMIv2</text>
<text xml:space="preserve" text-anchor="middle" x="170.94" y="-22.53" font-family="Times,serif" font-size="14.00">1994</text>
</a>
</g>
</g>
<!-- RFC1666&#45;&gt;obs_by -->
<g id="edge2" class="edge">
<title>RFC1666&#45;&gt;obs_by</title>
<path fill="none" stroke="black" d="M251.43,-98.8C321.2,-139.08 419.36,-195.75 474.43,-227.54"/>
<polygon fill="black" stroke="black" points="472.47,-230.45 482.88,-232.42 475.97,-224.39 472.47,-230.45"/>
</g>
<!-- updated_by -->
<g id="node6" class="node">
<title>updated_by</title>
<polygon fill="lightyellow" stroke="black" points="889.91,-70.33 832.66,-70.33 832.66,-34.33 889.91,-34.33 889.91,-70.33"/>
<text xml:space="preserve" text-anchor="middle" x="861.29" y="-47.28" font-family="Times,serif" font-size="14.00">updates</text>
</g>
<!-- updated_by&#45;&gt;RFC1665 -->
<g id="edge5" class="edge">
<title>updated_by&#45;&gt;RFC1665</title>
<path fill="none" stroke="black" d="M861.29,-70.75C861.29,-123.64 861.29,-278.22 861.29,-373.19"/>
<polygon fill="black" stroke="black" points="857.79,-372.95 861.29,-382.95 864.79,-372.95 857.79,-372.95"/>
</g>
<!-- rev_cites -->
<g id="node8" class="node">
<title>rev_cites</title>
<polygon fill="lightblue" stroke="black" points="1233.46,-269.61 1179.46,-269.61 1179.46,-233.61 1233.46,-233.61 1233.46,-269.61"/>
<text xml:space="preserve" text-anchor="middle" x="1206.46" y="-246.56" font-family="Times,serif" font-size="14.00">cites</text>
</g>
<!-- rev_cites&#45;&gt;RFC1665 -->
<g id="edge7" class="edge">
<title>rev_cites&#45;&gt;RFC1665</title>
<path fill="none" stroke="black" d="M1179.09,-267.42C1134.98,-292.88 1045.79,-344.37 973.09,-386.35"/>
<polygon fill="black" stroke="black" points="971.63,-383.15 964.72,-391.18 975.13,-389.21 971.63,-383.15"/>
</g>
<!-- RFC1700 -->
<g id="node9" class="node">
<title>RFC1700</title>
<g id="a_node9"><a xlink:href="RFC1700.html" xlink:title="This RFC is a snapshot of the ongoing process of the assignment of protocol parameters for the Internet protocol suite. &#160;To make the current information readily available the assignments are kept up&#45;to&#45; date in a set of online text files. &#160;This memo is a status report on the parameters (i.e., numbers and keywords) used in protocols in the Internet community." target="_top">
<ellipse fill="none" stroke="black" cx="1551.63" cy="-52.33" rx="85.03" ry="40.66"/>
<text xml:space="preserve" text-anchor="middle" x="1551.63" y="-63.78" font-family="Times,serif" font-size="14.00">RFC1700</text>
<text xml:space="preserve" text-anchor="middle" x="1551.63" y="-47.28" font-family="Times,serif" font-size="14.00">Assigned Numbers</text>
<text xml:space="preserve" text-anchor="middle" x="1551.63" y="-30.78" font-family="Times,serif" font-size="14.00">1994</text>
</a>
</g>
</g>
<!-- RFC1700&#45;&gt;rev_cites -->
<g id="edge8" class="edge">
<title>RFC1700&#45;&gt;rev_cites</title>
<path fill="none" stroke="black" d="M1496.94,-83.9C1426.14,-124.78 1304.63,-194.93 1243.65,-230.14"/>
<polygon fill="black" stroke="black" points="1241.92,-227.1 1235.01,-235.13 1245.42,-233.16 1241.92,-227.1"/>
</g>
</g>
</svg>
