<?xml version="1.0" encoding="UTF-8" standalone="no"?>
<!DOCTYPE svg PUBLIC "-//W3C//DTD SVG 1.1//EN"
 "http://www.w3.org/Graphics/SVG/1.1/DTD/svg11.dtd">
<!-- Generated by graphviz version 14.1.1 (20251213.1925)
 -->
<!-- Title: Flow Pages: 1 -->
<svg width="1279pt" height="731pt"
 viewBox="0.00 0.00 1279.00 731.00" xmlns="http://www.w3.org/2000/svg" xmlns:xlink="http://www.w3.org/1999/xlink">
<g id="graph0" class="graph" transform="scale(1 1) rotate(0) translate(4 726.98)">
<title>Flow</title>
<polygon fill="white" stroke="none" points="-4,4 -4,-726.98 1274.89,-726.98 1274.89,4 -4,4"/>
<!-- RFC1516 -->
<g id="node1" class="node">
<title>RFC1516</title>
<g id="a_node1"><a xlink:title="This memo defines a portion of the Management Information Base (MIB) for use with network management protocols in the Internet community. &#160;In particular, it defines objects for managing IEEE 802.3 10 Mb/second baseband repeaters, sometimes referred to as hubs. [STANDARDS&#45;TRACK]">
<ellipse fill="none" stroke="black" cx="644.46" cy="-503.66" rx="172.53" ry="52.33"/>
<text xml:space="preserve" text-anchor="middle" x="644.46" y="-523.36" font-family="Times,serif" font-size="14.00">RFC1516</text>
<text xml:space="preserve" text-anchor="middle" x="644.46" y="-506.86" font-family="Times,serif" font-size="14.00">Definitions of Managed Objects for IEEE</text>
<text xml:space="preserve" text-anchor="middle" x="644.46" y="-490.36" font-family="Times,serif" font-size="14.00">802.3 Repeater Devices</text>
<text xml:space="preserve" text-anchor="middle" x="644.46" y="-473.86" font-family="Times,serif" font-size="14.00">1993</text>
</a>
</g>
</g>
<!-- obs -->
<g id="node4" class="node">
<title>obs</title>
<polygon fill="none" stroke="black" points="908.24,-575.66 841.99,-575.66 841.99,-539.66 908.24,-539.66 908.24,-575.66"/>
<text xml:space="preserve" text-anchor="middle" x="875.12" y="-552.61" font-family="Times,serif" font-size="14.00">obsoletes</text>
</g>
<!-- RFC1516&#45;&gt;obs -->
<g id="edge3" class="edge">
<title>RFC1516&#45;&gt;obs</title>
<path fill="none" stroke="black" d="M781.44,-535.77C799.15,-539.95 816.14,-543.97 830.62,-547.39"/>
<polygon fill="black" stroke="black" points="829.66,-550.76 840.2,-549.65 831.27,-543.94 829.66,-550.76"/>
</g>
<!-- updates -->
<g id="node6" class="node">
<title>updates</title>
<polygon fill="none" stroke="black" points="903.74,-521.66 846.49,-521.66 846.49,-485.66 903.74,-485.66 903.74,-521.66"/>
<text xml:space="preserve" text-anchor="middle" x="875.12" y="-498.61" font-family="Times,serif" font-size="14.00">updates</text>
</g>
<!-- RFC1516&#45;&gt;updates -->
<g id="edge5" class="edge">
<title>RFC1516&#45;&gt;updates</title>
<path fill="none" stroke="black" d="M817.3,-503.66C823.49,-503.66 829.38,-503.66 834.85,-503.66"/>
<polygon fill="black" stroke="black" points="834.63,-507.16 844.63,-503.66 834.63,-500.16 834.63,-507.16"/>
</g>
<!-- cites -->
<g id="node8" class="node">
<title>cites</title>
<polygon fill="none" stroke="black" points="902.12,-467.66 848.12,-467.66 848.12,-431.66 902.12,-431.66 902.12,-467.66"/>
<text xml:space="preserve" text-anchor="middle" x="875.12" y="-444.61" font-family="Times,serif" font-size="14.00">cites</text>
</g>
<!-- RFC1516&#45;&gt;cites -->
<g id="edge7" class="edge">
<title>RFC1516&#45;&gt;cites</title>
<path fill="none" stroke="black" d="M781.44,-471.54C801.82,-466.73 821.24,-462.15 836.99,-458.43"/>
<polygon fill="black" stroke="black" points="837.37,-461.93 846.3,-456.23 835.76,-455.12 837.37,-461.93"/>
</g>
<!-- obs_by -->
<g id="node2" class="node">
<title>obs_by</title>
<polygon fill="none" stroke="black" points="446.92,-631.66 380.67,-631.66 380.67,-595.66 446.92,-595.66 446.92,-631.66"/>
<text xml:space="preserve" text-anchor="middle" x="413.8" y="-608.61" font-family="Times,serif" font-size="14.00">obsoletes</text>
</g>
<!-- obs_by&#45;&gt;RFC1516 -->
<g id="edge1" class="edge">
<title>obs_by&#45;&gt;RFC1516</title>
<path fill="none" stroke="black" d="M447.08,-598.13C471.73,-586.27 507.13,-569.24 541.11,-552.9"/>
<polygon fill="black" stroke="black" points="542.26,-556.23 549.75,-548.74 539.23,-549.92 542.26,-556.23"/>
</g>
<!-- RFC2108 -->
<g id="node3" class="node">
<title>RFC2108</title>
<g id="a_node3"><a xlink:href="RFC2108.html" xlink:title="This memo defines a portion of the Management Information Base (MIB) for use with network management protocols in the Internet community. &#160;In particular, it defines objects for managing IEEE 802.3 10 and 100 Mb/second baseband repeaters based on IEEE Std 802.3 Section 30, 10 &amp; 100 Mb/s Management, October 26, 1995." target="_top">
<ellipse fill="none" stroke="black" cx="177.84" cy="-670.66" rx="172.53" ry="52.33"/>
<text xml:space="preserve" text-anchor="middle" x="177.84" y="-690.36" font-family="Times,serif" font-size="14.00">RFC2108</text>
<text xml:space="preserve" text-anchor="middle" x="177.84" y="-673.86" font-family="Times,serif" font-size="14.00">Definitions of Managed Objects for IEEE</text>
<text xml:space="preserve" text-anchor="middle" x="177.84" y="-657.36" font-family="Times,serif" font-size="14.00">802.3 Repeater Devices using SMIv2</text>
<text xml:space="preserve" text-anchor="middle" x="177.84" y="-640.86" font-family="Times,serif" font-size="14.00">1997</text>
</a>
</g>
</g>
<!-- RFC2108&#45;&gt;obs_by -->
<g id="edge2" class="edge">
<title>RFC2108&#45;&gt;obs_by</title>
<path fill="none" stroke="black" d="M313.24,-637.91C333.59,-632.96 353.23,-628.17 369.61,-624.18"/>
<polygon fill="black" stroke="black" points="370.03,-627.68 378.92,-621.91 368.38,-620.88 370.03,-627.68"/>
</g>
<!-- RFC1368 -->
<g id="node5" class="node">
<title>RFC1368</title>
<g id="a_node5"><a xlink:href="RFC1368.html" xlink:title="This memo defines a portion of the Management Information Base (MIB) for use with network management protocols in TCP/IP&#45;based internets. &#160;In particular, it defines objects for managing IEEE 802.3 10 Mb/second baseband repeaters, sometimes referred to as hubs. [STANDARDS&#45;TRACK]" target="_top">
<ellipse fill="none" stroke="black" cx="1102.06" cy="-557.66" rx="168.82" ry="52.33"/>
<text xml:space="preserve" text-anchor="middle" x="1102.06" y="-577.36" font-family="Times,serif" font-size="14.00">RFC1368</text>
<text xml:space="preserve" text-anchor="middle" x="1102.06" y="-560.86" font-family="Times,serif" font-size="14.00">Definition of Managed Objects for IEEE</text>
<text xml:space="preserve" text-anchor="middle" x="1102.06" y="-544.36" font-family="Times,serif" font-size="14.00">802.3 Repeater Devices</text>
<text xml:space="preserve" text-anchor="middle" x="1102.06" y="-527.86" font-family="Times,serif" font-size="14.00">1992</text>
</a>
</g>
</g>
<!-- obs&#45;&gt;RFC1368 -->
<g id="edge4" class="edge">
<title>obs&#45;&gt;RFC1368</title>
<path fill="none" stroke="black" d="M908.35,-557.66C912.52,-557.66 916.99,-557.66 921.71,-557.66"/>
<polygon fill="black" stroke="black" points="921.64,-561.16 931.64,-557.66 921.64,-554.16 921.64,-561.16"/>
</g>
<!-- updated_by -->
<g id="node7" class="node">
<title>updated_by</title>
<polygon fill="none" stroke="black" points="442.42,-521.66 385.17,-521.66 385.17,-485.66 442.42,-485.66 442.42,-521.66"/>
<text xml:space="preserve" text-anchor="middle" x="413.8" y="-498.61" font-family="Times,serif" font-size="14.00">updates</text>
</g>
<!-- updated_by&#45;&gt;RFC1516 -->
<g id="edge6" class="edge">
<title>updated_by&#45;&gt;RFC1516</title>
<path fill="none" stroke="black" d="M442.84,-503.66C448.19,-503.66 454.14,-503.66 460.54,-503.66"/>
<polygon fill="black" stroke="black" points="460.21,-507.16 470.21,-503.66 460.21,-500.16 460.21,-507.16"/>
</g>
<!-- rev_cites -->
<g id="node9" class="node">
<title>rev_cites</title>
<polygon fill="none" stroke="black" points="440.8,-355.66 386.8,-355.66 386.8,-319.66 440.8,-319.66 440.8,-355.66"/>
<text xml:space="preserve" text-anchor="middle" x="413.8" y="-332.61" font-family="Times,serif" font-size="14.00">cites</text>
</g>
<!-- rev_cites&#45;&gt;RFC1516 -->
<g id="edge8" class="edge">
<title>rev_cites&#45;&gt;RFC1516</title>
<path fill="none" stroke="black" d="M440.14,-356.06C470.65,-378.2 523.27,-416.41 567.34,-448.4"/>
<polygon fill="black" stroke="black" points="565.22,-451.19 575.37,-454.23 569.34,-445.52 565.22,-451.19"/>
</g>
<!-- RFC1700 -->
<g id="node10" class="node">
<title>RFC1700</title>
<g id="a_node10"><a xlink:href="RFC1700.html" xlink:title="This RFC is a snapshot of the ongoing process of the assignment of protocol parameters for the Internet protocol suite. &#160;To make the current information readily available the assignments are kept up&#45;to&#45; date in a set of online text files. &#160;This memo is a status report on the parameters (i.e., numbers and keywords) used in protocols in the Internet community." target="_top">
<ellipse fill="none" stroke="black" cx="177.84" cy="-559.66" rx="85.03" ry="40.66"/>
<text xml:space="preserve" text-anchor="middle" x="177.84" y="-571.11" font-family="Times,serif" font-size="14.00">RFC1700</text>
<text xml:space="preserve" text-anchor="middle" x="177.84" y="-554.61" font-family="Times,serif" font-size="14.00">Assigned Numbers</text>
<text xml:space="preserve" text-anchor="middle" x="177.84" y="-538.11" font-family="Times,serif" font-size="14.00">1994</text>
</a>
</g>
</g>
<!-- RFC1700&#45;&gt;rev_cites -->
<g id="edge9" class="edge">
<title>RFC1700&#45;&gt;rev_cites</title>
<path fill="none" stroke="black" d="M261.93,-552.9C294.75,-546.32 330.54,-533.69 355.67,-509.66 395.29,-471.8 407.44,-405.85 411.16,-367.55"/>
<polygon fill="black" stroke="black" points="414.64,-367.92 411.98,-357.67 407.67,-367.35 414.64,-367.92"/>
</g>
<!-- RFC2021 -->
<g id="node11" class="node">
<title>RFC2021</title>
<g id="a_node11"><a xlink:href="RFC2021.html" xlink:title="This memo defines a portion of the Management Information Base (MIB) for use with network management protocols in TCP/IP&#45;based internets. &#160;In particular, it defines objects for managing remote network monitoring devices. [STANDARDS&#45;TRACK]" target="_top">
<ellipse fill="none" stroke="black" cx="177.84" cy="-448.66" rx="177.84" ry="52.33"/>
<text xml:space="preserve" text-anchor="middle" x="177.84" y="-468.36" font-family="Times,serif" font-size="14.00">RFC2021</text>
<text xml:space="preserve" text-anchor="middle" x="177.84" y="-451.86" font-family="Times,serif" font-size="14.00">Remote Network Monitoring Management</text>
<text xml:space="preserve" text-anchor="middle" x="177.84" y="-435.36" font-family="Times,serif" font-size="14.00">Information Base Version 2 using SMIv2</text>
<text xml:space="preserve" text-anchor="middle" x="177.84" y="-418.86" font-family="Times,serif" font-size="14.00">1997</text>
</a>
</g>
</g>
<!-- RFC2021&#45;&gt;rev_cites -->
<g id="edge10" class="edge">
<title>RFC2021&#45;&gt;rev_cites</title>
<path fill="none" stroke="black" d="M305.18,-411.85C322.63,-404.83 339.94,-396.78 355.67,-387.66 367.02,-381.08 378.18,-372.06 387.58,-363.49"/>
<polygon fill="black" stroke="black" points="389.72,-366.28 394.58,-356.87 384.91,-361.2 389.72,-366.28"/>
</g>
<!-- RFC2037 -->
<g id="node12" class="node">
<title>RFC2037</title>
<g id="a_node12"><a xlink:href="RFC2037.html" xlink:title="This memo defines a portion of the Management Information Base (MIB) for use with network management protocols in the Internet community. &#160;In particular, it describes managed objects used for managing multiple logical and physical entities managed by a single SNMP agent. [STANDARDS&#45;TRACK]" target="_top">
<ellipse fill="none" stroke="black" cx="177.84" cy="-337.66" rx="108.89" ry="40.66"/>
<text xml:space="preserve" text-anchor="middle" x="177.84" y="-349.11" font-family="Times,serif" font-size="14.00">RFC2037</text>
<text xml:space="preserve" text-anchor="middle" x="177.84" y="-332.61" font-family="Times,serif" font-size="14.00">Entity MIB using SMIv2</text>
<text xml:space="preserve" text-anchor="middle" x="177.84" y="-316.11" font-family="Times,serif" font-size="14.00">1996</text>
</a>
</g>
</g>
<!-- RFC2037&#45;&gt;rev_cites -->
<g id="edge11" class="edge">
<title>RFC2037&#45;&gt;rev_cites</title>
<path fill="none" stroke="black" d="M286.92,-337.66C318.46,-337.66 350.88,-337.66 374.91,-337.66"/>
<polygon fill="black" stroke="black" points="374.82,-341.16 384.82,-337.66 374.82,-334.16 374.82,-341.16"/>
</g>
<!-- RFC2737 -->
<g id="node13" class="node">
<title>RFC2737</title>
<g id="a_node13"><a xlink:href="RFC2737.html" xlink:title="This memo defines a portion of the Management Information Base (M for use with network management protocols in the Internet communi In particular, it describes managed objects used for managing multiple logical and physical entities managed by a single SNMP agent. [STANDARDS&#45;TRACK]" target="_top">
<ellipse fill="none" stroke="black" cx="177.84" cy="-238.66" rx="101.47" ry="40.66"/>
<text xml:space="preserve" text-anchor="middle" x="177.84" y="-250.11" font-family="Times,serif" font-size="14.00">RFC2737</text>
<text xml:space="preserve" text-anchor="middle" x="177.84" y="-233.61" font-family="Times,serif" font-size="14.00">Entity MIB (Version 2)</text>
<text xml:space="preserve" text-anchor="middle" x="177.84" y="-217.11" font-family="Times,serif" font-size="14.00">1999</text>
</a>
</g>
</g>
<!-- RFC2737&#45;&gt;rev_cites -->
<g id="edge12" class="edge">
<title>RFC2737&#45;&gt;rev_cites</title>
<path fill="none" stroke="black" d="M270.45,-255.73C298.8,-263.17 329.46,-273.52 355.67,-287.66 367.4,-293.98 378.77,-303.1 388.24,-311.83"/>
<polygon fill="black" stroke="black" points="385.63,-314.18 395.26,-318.59 390.48,-309.14 385.63,-314.18"/>
</g>
<!-- RFC4133 -->
<g id="node14" class="node">
<title>RFC4133</title>
<g id="a_node14"><a xlink:href="RFC4133.html" xlink:title="This memo defines a portion of the Management Information Base (MIB) for use with network management protocols in the Internet community. &#160;In particular, it describes managed objects used for managing multiple logical and physical entities managed by a single SNMP agent. &#160;This document specifies version 3 of the Entity MIB, which obsoletes version 2 (RFC 2737). [STANDARDS&#45;TRACK]" target="_top">
<ellipse fill="none" stroke="black" cx="177.84" cy="-139.66" rx="101.47" ry="40.66"/>
<text xml:space="preserve" text-anchor="middle" x="177.84" y="-151.11" font-family="Times,serif" font-size="14.00">RFC4133</text>
<text xml:space="preserve" text-anchor="middle" x="177.84" y="-134.61" font-family="Times,serif" font-size="14.00">Entity MIB (Version 3)</text>
<text xml:space="preserve" text-anchor="middle" x="177.84" y="-118.11" font-family="Times,serif" font-size="14.00">2005</text>
</a>
</g>
</g>
<!-- RFC4133&#45;&gt;rev_cites -->
<g id="edge13" class="edge">
<title>RFC4133&#45;&gt;rev_cites</title>
<path fill="none" stroke="black" d="M276.41,-149.84C304.73,-156.95 333.86,-168.84 355.67,-188.66 390.19,-220.02 404.01,-274.56 409.43,-308.24"/>
<polygon fill="black" stroke="black" points="405.97,-308.72 410.86,-318.12 412.9,-307.72 405.97,-308.72"/>
</g>
<!-- RFC6933 -->
<g id="node15" class="node">
<title>RFC6933</title>
<g id="a_node15"><a xlink:href="RFC6933.html" xlink:title="This memo defines a portion of the Management Information Base (MIB) for use with network management protocols in the Internet community. &#160;In particular, it describes managed objects used for managing multiple logical and physical entities managed by a single Simple Network Management Protocol (SNMP) agent. &#160;This document specifies version 4 of the Entity MIB. &#160;This memo obsoletes version 3 of the Entity MIB module published as RFC 4133." target="_top">
<ellipse fill="none" stroke="black" cx="177.84" cy="-40.66" rx="101.47" ry="40.66"/>
<text xml:space="preserve" text-anchor="middle" x="177.84" y="-52.11" font-family="Times,serif" font-size="14.00">RFC6933</text>
<text xml:space="preserve" text-anchor="middle" x="177.84" y="-35.61" font-family="Times,serif" font-size="14.00">Entity MIB (Version 4)</text>
<text xml:space="preserve" text-anchor="middle" x="177.84" y="-19.11" font-family="Times,serif" font-size="14.00">2013</text>
</a>
</g>
</g>
<!-- RFC6933&#45;&gt;rev_cites -->
<g id="edge14" class="edge">
<title>RFC6933&#45;&gt;rev_cites</title>
<path fill="none" stroke="black" d="M277.7,-48.92C306.25,-55.93 335.19,-68.25 355.67,-89.66 385.55,-120.87 403.12,-249.15 409.75,-307.96"/>
<polygon fill="black" stroke="black" points="406.27,-308.33 410.83,-317.89 413.23,-307.57 406.27,-308.33"/>
</g>
</g>
</svg>
