<?xml version="1.0" encoding="UTF-8" standalone="no"?>
<!DOCTYPE svg PUBLIC "-//W3C//DTD SVG 1.1//EN"
 "http://www.w3.org/Graphics/SVG/1.1/DTD/svg11.dtd">
<!-- Generated by graphviz version 14.1.1 (20251213.1925)
 -->
<!-- Title: Flow Pages: 1 -->
<svg width="804pt" height="175pt"
 viewBox="0.00 0.00 804.00 175.00" xmlns="http://www.w3.org/2000/svg" xmlns:xlink="http://www.w3.org/1999/xlink">
<g id="graph0" class="graph" transform="scale(1 1) rotate(0) translate(4 170.66)">
<title>Flow</title>
<polygon fill="white" stroke="none" points="-4,4 -4,-170.66 799.81,-170.66 799.81,4 -4,4"/>
<!-- RFC1080 -->
<g id="node1" class="node">
<title>RFC1080</title>
<g id="a_node1"><a xlink:title="This RFC specifies a standard for the Internet community. &#160;Hosts on the Internet that do remote flow control within the Telnet protocol are expected to adopt and implement this standard.">
<ellipse fill="none" stroke="black" cx="562.26" cy="-72" rx="142.31" ry="40.66"/>
<text xml:space="preserve" text-anchor="middle" x="562.26" y="-83.45" font-family="Times,serif" font-size="14.00">RFC1080</text>
<text xml:space="preserve" text-anchor="middle" x="562.26" y="-66.95" font-family="Times,serif" font-size="14.00">Telnet remote flow control option</text>
<text xml:space="preserve" text-anchor="middle" x="562.26" y="-50.45" font-family="Times,serif" font-size="14.00">1988</text>
</a>
</g>
</g>
<!-- obs -->
<g id="node4" class="node">
<title>obs</title>
<polygon fill="none" stroke="black" points="795.81,-144 729.56,-144 729.56,-108 795.81,-108 795.81,-144"/>
<text xml:space="preserve" text-anchor="middle" x="762.69" y="-120.95" font-family="Times,serif" font-size="14.00">obsoletes</text>
</g>
<!-- RFC1080&#45;&gt;obs -->
<g id="edge3" class="edge">
<title>RFC1080&#45;&gt;obs</title>
<path fill="none" stroke="black" d="M666.54,-100.11C684.88,-105.1 703.03,-110.04 718.49,-114.24"/>
<polygon fill="black" stroke="black" points="717.2,-117.52 727.77,-116.77 719.04,-110.77 717.2,-117.52"/>
</g>
<!-- updates -->
<g id="node5" class="node">
<title>updates</title>
<polygon fill="none" stroke="black" points="791.31,-90 734.06,-90 734.06,-54 791.31,-54 791.31,-90"/>
<text xml:space="preserve" text-anchor="middle" x="762.69" y="-66.95" font-family="Times,serif" font-size="14.00">updates</text>
</g>
<!-- RFC1080&#45;&gt;updates -->
<g id="edge4" class="edge">
<title>RFC1080&#45;&gt;updates</title>
<path fill="none" stroke="black" d="M704.83,-72C710.98,-72 716.87,-72 722.36,-72"/>
<polygon fill="black" stroke="black" points="722.21,-75.5 732.21,-72 722.21,-68.5 722.21,-75.5"/>
</g>
<!-- cites -->
<g id="node7" class="node">
<title>cites</title>
<polygon fill="none" stroke="black" points="789.69,-36 735.69,-36 735.69,0 789.69,0 789.69,-36"/>
<text xml:space="preserve" text-anchor="middle" x="762.69" y="-12.95" font-family="Times,serif" font-size="14.00">cites</text>
</g>
<!-- RFC1080&#45;&gt;cites -->
<g id="edge6" class="edge">
<title>RFC1080&#45;&gt;cites</title>
<path fill="none" stroke="black" d="M666.54,-43.89C687.35,-38.23 707.93,-32.63 724.59,-28.1"/>
<polygon fill="black" stroke="black" points="725.26,-31.54 733.99,-25.54 723.42,-24.79 725.26,-31.54"/>
</g>
<!-- obs_by -->
<g id="node2" class="node">
<title>obs_by</title>
<polygon fill="none" stroke="black" points="394.95,-144 328.7,-144 328.7,-108 394.95,-108 394.95,-144"/>
<text xml:space="preserve" text-anchor="middle" x="361.83" y="-120.95" font-family="Times,serif" font-size="14.00">obsoletes</text>
</g>
<!-- obs_by&#45;&gt;RFC1080 -->
<g id="edge1" class="edge">
<title>obs_by&#45;&gt;RFC1080</title>
<path fill="none" stroke="black" d="M395.15,-117.2C409.81,-113.21 428.13,-108.23 447.19,-103.04"/>
<polygon fill="black" stroke="black" points="447.97,-106.46 456.7,-100.45 446.13,-99.7 447.97,-106.46"/>
</g>
<!-- RFC1372 -->
<g id="node3" class="node">
<title>RFC1372</title>
<g id="a_node3"><a xlink:href="RFC1372.html" xlink:title="This document specifies an extended version of the Telnet Remote Flow Control Option, RFC 1080, with the addition of the RESTART&#45;ANY and RESTART&#45;XON suboptions. [STANDARDS&#45;TRACK]" target="_top">
<ellipse fill="none" stroke="black" cx="151.85" cy="-126" rx="151.85" ry="40.66"/>
<text xml:space="preserve" text-anchor="middle" x="151.85" y="-137.45" font-family="Times,serif" font-size="14.00">RFC1372</text>
<text xml:space="preserve" text-anchor="middle" x="151.85" y="-120.95" font-family="Times,serif" font-size="14.00">Telnet Remote Flow Control Option</text>
<text xml:space="preserve" text-anchor="middle" x="151.85" y="-104.45" font-family="Times,serif" font-size="14.00">1992</text>
</a>
</g>
</g>
<!-- RFC1372&#45;&gt;obs_by -->
<g id="edge2" class="edge">
<title>RFC1372&#45;&gt;obs_by</title>
<path fill="none" stroke="black" d="M304,-126C308.54,-126 312.94,-126 317.13,-126"/>
<polygon fill="black" stroke="black" points="316.87,-129.5 326.87,-126 316.87,-122.5 316.87,-129.5"/>
</g>
<!-- updated_by -->
<g id="node6" class="node">
<title>updated_by</title>
<polygon fill="none" stroke="black" points="390.45,-90 333.2,-90 333.2,-54 390.45,-54 390.45,-90"/>
<text xml:space="preserve" text-anchor="middle" x="361.83" y="-66.95" font-family="Times,serif" font-size="14.00">updates</text>
</g>
<!-- updated_by&#45;&gt;RFC1080 -->
<g id="edge5" class="edge">
<title>updated_by&#45;&gt;RFC1080</title>
<path fill="none" stroke="black" d="M390.84,-72C396.04,-72 401.81,-72 407.97,-72"/>
<polygon fill="black" stroke="black" points="407.95,-75.5 417.95,-72 407.95,-68.5 407.95,-75.5"/>
</g>
<!-- rev_cites -->
<g id="node8" class="node">
<title>rev_cites</title>
<polygon fill="none" stroke="black" points="388.83,-36 334.83,-36 334.83,0 388.83,0 388.83,-36"/>
<text xml:space="preserve" text-anchor="middle" x="361.83" y="-12.95" font-family="Times,serif" font-size="14.00">cites</text>
</g>
<!-- rev_cites&#45;&gt;RFC1080 -->
<g id="edge7" class="edge">
<title>rev_cites&#45;&gt;RFC1080</title>
<path fill="none" stroke="black" d="M389.18,-25.17C404.69,-29.39 425.5,-35.05 447.28,-40.98"/>
<polygon fill="black" stroke="black" points="446.35,-44.36 456.92,-43.61 448.19,-37.6 446.35,-44.36"/>
</g>
</g>
</svg>
