<?xml version="1.0" encoding="UTF-8" standalone="no"?>
<!DOCTYPE svg PUBLIC "-//W3C//DTD SVG 1.1//EN"
 "http://www.w3.org/Graphics/SVG/1.1/DTD/svg11.dtd">
<!-- Generated by graphviz version 14.1.1 (20251213.1925)
 -->
<!-- Title: Flow Pages: 1 -->
<svg width="888pt" height="247pt"
 viewBox="0.00 0.00 888.00 247.00" xmlns="http://www.w3.org/2000/svg" xmlns:xlink="http://www.w3.org/1999/xlink">
<g id="graph0" class="graph" transform="scale(1 1) rotate(0) translate(4 243.33)">
<title>Flow</title>
<polygon fill="white" stroke="none" points="-4,4 -4,-243.33 883.6,-243.33 883.6,4 -4,4"/>
<!-- RFC1936 -->
<g id="node1" class="node">
<title>RFC1936</title>
<g id="a_node1"><a xlink:title="This memo presents a techniques for efficiently implementing the Internet Checksum in hardware. &#160;It includes PLD code for programming a single, low cost part to perform checksumming at 1.26 Gbps. &#160;This memo provides information for the Internet community. &#160;This memo does not specify an Internet standard of any kind.">
<ellipse fill="green" stroke="black" cx="622.18" cy="-167.33" rx="166.17" ry="52.33"/>
<text xml:space="preserve" text-anchor="middle" x="622.18" y="-187.03" font-family="Times,serif" font-size="14.00">RFC1936</text>
<text xml:space="preserve" text-anchor="middle" x="622.18" y="-170.53" font-family="Times,serif" font-size="14.00">Implementing the Internet Checksum in</text>
<text xml:space="preserve" text-anchor="middle" x="622.18" y="-154.03" font-family="Times,serif" font-size="14.00">Hardware</text>
<text xml:space="preserve" text-anchor="middle" x="622.18" y="-137.53" font-family="Times,serif" font-size="14.00">1996</text>
</a>
</g>
</g>
<!-- obs -->
<g id="node3" class="node">
<title>obs</title>
<polygon fill="lightblue" stroke="black" points="879.6,-239.33 813.35,-239.33 813.35,-203.33 879.6,-203.33 879.6,-239.33"/>
<text xml:space="preserve" text-anchor="middle" x="846.48" y="-216.28" font-family="Times,serif" font-size="14.00">obsoletes</text>
</g>
<!-- RFC1936&#45;&gt;obs -->
<g id="edge2" class="edge">
<title>RFC1936&#45;&gt;obs</title>
<path fill="none" stroke="black" d="M754.74,-199.28C771.73,-203.41 788.07,-207.38 802.08,-210.78"/>
<polygon fill="black" stroke="black" points="801.25,-214.18 811.79,-213.14 802.9,-207.38 801.25,-214.18"/>
</g>
<!-- updates -->
<g id="node4" class="node">
<title>updates</title>
<polygon fill="lightyellow" stroke="black" points="875.1,-185.33 817.85,-185.33 817.85,-149.33 875.1,-149.33 875.1,-185.33"/>
<text xml:space="preserve" text-anchor="middle" x="846.48" y="-162.28" font-family="Times,serif" font-size="14.00">updates</text>
</g>
<!-- RFC1936&#45;&gt;updates -->
<g id="edge3" class="edge">
<title>RFC1936&#45;&gt;updates</title>
<path fill="none" stroke="black" d="M788.81,-167.33C794.97,-167.33 800.83,-167.33 806.28,-167.33"/>
<polygon fill="black" stroke="black" points="806.02,-170.83 816.02,-167.33 806.02,-163.83 806.02,-170.83"/>
</g>
<!-- cites -->
<g id="node6" class="node">
<title>cites</title>
<polygon fill="lightblue" stroke="black" points="873.48,-131.33 819.48,-131.33 819.48,-95.33 873.48,-95.33 873.48,-131.33"/>
<text xml:space="preserve" text-anchor="middle" x="846.48" y="-108.28" font-family="Times,serif" font-size="14.00">cites</text>
</g>
<!-- RFC1936&#45;&gt;cites -->
<g id="edge5" class="edge">
<title>RFC1936&#45;&gt;cites</title>
<path fill="none" stroke="black" d="M754.74,-135.37C774.32,-130.61 793.01,-126.07 808.3,-122.36"/>
<polygon fill="black" stroke="black" points="808.91,-125.81 817.8,-120.05 807.26,-119.01 808.91,-125.81"/>
</g>
<!-- obs_by -->
<g id="node2" class="node">
<title>obs_by</title>
<polygon fill="lightblue" stroke="black" points="431.01,-239.33 364.76,-239.33 364.76,-203.33 431.01,-203.33 431.01,-239.33"/>
<text xml:space="preserve" text-anchor="middle" x="397.89" y="-216.28" font-family="Times,serif" font-size="14.00">obsoletes</text>
</g>
<!-- obs_by&#45;&gt;RFC1936 -->
<g id="edge1" class="edge">
<title>obs_by&#45;&gt;RFC1936</title>
<path fill="none" stroke="black" d="M431.21,-213.47C444.58,-210.23 461.07,-206.22 478.71,-201.94"/>
<polygon fill="black" stroke="black" points="479.46,-205.36 488.35,-199.59 477.81,-198.55 479.46,-205.36"/>
</g>
<!-- updated_by -->
<g id="node5" class="node">
<title>updated_by</title>
<polygon fill="lightyellow" stroke="black" points="426.51,-185.33 369.26,-185.33 369.26,-149.33 426.51,-149.33 426.51,-185.33"/>
<text xml:space="preserve" text-anchor="middle" x="397.89" y="-162.28" font-family="Times,serif" font-size="14.00">updates</text>
</g>
<!-- updated_by&#45;&gt;RFC1936 -->
<g id="edge4" class="edge">
<title>updated_by&#45;&gt;RFC1936</title>
<path fill="none" stroke="black" d="M426.59,-167.33C431.96,-167.33 437.94,-167.33 444.38,-167.33"/>
<polygon fill="black" stroke="black" points="444.11,-170.83 454.11,-167.33 444.11,-163.83 444.11,-170.83"/>
</g>
<!-- rev_cites -->
<g id="node7" class="node">
<title>rev_cites</title>
<polygon fill="lightblue" stroke="black" points="424.89,-131.33 370.89,-131.33 370.89,-95.33 424.89,-95.33 424.89,-131.33"/>
<text xml:space="preserve" text-anchor="middle" x="397.89" y="-108.28" font-family="Times,serif" font-size="14.00">cites</text>
</g>
<!-- rev_cites&#45;&gt;RFC1936 -->
<g id="edge6" class="edge">
<title>rev_cites&#45;&gt;RFC1936</title>
<path fill="none" stroke="black" d="M425.26,-119.73C439.5,-123.19 458.3,-127.76 478.62,-132.69"/>
<polygon fill="black" stroke="black" points="477.7,-136.07 488.24,-135.03 479.35,-129.27 477.7,-136.07"/>
</g>
<!-- RFC4614 -->
<g id="node8" class="node">
<title>RFC4614</title>
<g id="a_node8"><a xlink:href="RFC4614.html" xlink:title="This document contains a roadmap to the Requests for Comments (RFC) documents relating to the Internet&#39;s Transmission Control Protocol (TCP). &#160;This roadmap provides a brief summary of the documents defining TCP and various TCP extensions that have accumulated in the RFC series. &#160;This serves as a guide and quick reference for both TCP implementers and other parties who desire information contained in the TCP&#45;related RFCs. &#160;This memo provides information for the Internet community." target="_top">
<ellipse fill="none" stroke="black" cx="169.88" cy="-175.33" rx="169.88" ry="52.33"/>
<text xml:space="preserve" text-anchor="middle" x="169.88" y="-195.03" font-family="Times,serif" font-size="14.00">RFC4614</text>
<text xml:space="preserve" text-anchor="middle" x="169.88" y="-178.53" font-family="Times,serif" font-size="14.00">A Roadmap for Transmission Control</text>
<text xml:space="preserve" text-anchor="middle" x="169.88" y="-162.03" font-family="Times,serif" font-size="14.00">Protocol (TCP) Specification Documents</text>
<text xml:space="preserve" text-anchor="middle" x="169.88" y="-145.53" font-family="Times,serif" font-size="14.00">2006</text>
</a>
</g>
</g>
<!-- RFC4614&#45;&gt;rev_cites -->
<g id="edge7" class="edge">
<title>RFC4614&#45;&gt;rev_cites</title>
<path fill="none" stroke="black" d="M297.76,-140.52C320.38,-134.32 342.24,-128.32 359.65,-123.54"/>
<polygon fill="black" stroke="black" points="360.24,-127.01 368.96,-120.99 358.39,-120.26 360.24,-127.01"/>
</g>
<!-- RFC7414 -->
<g id="node9" class="node">
<title>RFC7414</title>
<g id="a_node9"><a xlink:href="RFC7414.html" xlink:title="This document contains a roadmap to the Request for Comments (RFC) documents relating to the Internet&#39;s Transmission Control Protocol (TCP). This roadmap provides a brief summary of the documents defining TCP and various TCP extensions that have accumulated in the RFC series. This serves as a guide and quick reference for both TCP implementers and other parties who desire information contained in the TCP&#45;related RFCs. This document obsoletes RFC 4614." target="_top">
<ellipse fill="none" stroke="black" cx="169.88" cy="-52.33" rx="169.88" ry="52.33"/>
<text xml:space="preserve" text-anchor="middle" x="169.88" y="-72.03" font-family="Times,serif" font-size="14.00">RFC7414</text>
<text xml:space="preserve" text-anchor="middle" x="169.88" y="-55.53" font-family="Times,serif" font-size="14.00">A Roadmap for Transmission Control</text>
<text xml:space="preserve" text-anchor="middle" x="169.88" y="-39.03" font-family="Times,serif" font-size="14.00">Protocol (TCP) Specification Documents</text>
<text xml:space="preserve" text-anchor="middle" x="169.88" y="-22.53" font-family="Times,serif" font-size="14.00">2015</text>
</a>
</g>
</g>
<!-- RFC7414&#45;&gt;rev_cites -->
<g id="edge8" class="edge">
<title>RFC7414&#45;&gt;rev_cites</title>
<path fill="none" stroke="black" d="M298.75,-86.84C321.19,-92.9 342.85,-98.74 360.08,-103.39"/>
<polygon fill="black" stroke="black" points="358.7,-106.64 369.26,-105.87 360.52,-99.88 358.7,-106.64"/>
</g>
</g>
</svg>
