<?xml version="1.0" encoding="UTF-8" standalone="no"?>
<!DOCTYPE svg PUBLIC "-//W3C//DTD SVG 1.1//EN"
 "http://www.w3.org/Graphics/SVG/1.1/DTD/svg11.dtd">
<!-- Generated by graphviz version 14.1.1 (20251213.1925)
 -->
<!-- Title: Flow Pages: 1 -->
<svg width="1668pt" height="1189pt"
 viewBox="0.00 0.00 1668.00 1189.00" xmlns="http://www.w3.org/2000/svg" xmlns:xlink="http://www.w3.org/1999/xlink">
<g id="graph0" class="graph" transform="scale(1 1) rotate(0) translate(4 1185.09)">
<title>Flow</title>
<polygon fill="white" stroke="none" points="-4,4 -4,-1185.09 1663.56,-1185.09 1663.56,4 -4,4"/>
<!-- RFC1231 -->
<g id="node1" class="node">
<title>RFC1231</title>
<g id="a_node1"><a xlink:title="This memo defines an experimental portion of the Management Information Base (MIB) for use with network management protocols in TCP/IP&#45;based internets. &#160;In particular, this memo defines managed objects used for managing subnetworks which use the IEEE 802.5 Token Ring technology described in 802.5 Token Ring Access Method and Physical Layer Specifications, IEEE Standard 802.5&#45;1989. [STANDARDS&#45;TRACK]">
<ellipse fill="green" stroke="black" stroke-width="3" cx="890.19" cy="-792.84" rx="161.4" ry="50.2"/>
<text xml:space="preserve" text-anchor="middle" x="890.19" y="-807.24" font-family="Times,serif" font-size="18.00">RFC1231</text>
<text xml:space="preserve" text-anchor="middle" x="890.19" y="-786.24" font-family="Times,serif" font-size="18.00">IEEE 802.5 Token Ring MIB</text>
<text xml:space="preserve" text-anchor="middle" x="890.19" y="-765.24" font-family="Times,serif" font-size="18.00">1991</text>
</a>
</g>
</g>
<!-- obs -->
<g id="node5" class="node">
<title>obs</title>
<polygon fill="lightblue" stroke="black" points="1265.49,-975.62 1199.24,-975.62 1199.24,-939.62 1265.49,-939.62 1265.49,-975.62"/>
<text xml:space="preserve" text-anchor="middle" x="1232.36" y="-952.57" font-family="Times,serif" font-size="14.00">obsoletes</text>
</g>
<!-- RFC1231&#45;&gt;obs -->
<g id="edge4" class="edge">
<title>RFC1231&#45;&gt;obs</title>
<path fill="none" stroke="black" d="M979.65,-835.92C1046.89,-868.3 1136.11,-911.27 1188.57,-936.53"/>
<polygon fill="black" stroke="black" points="1186.98,-939.65 1197.51,-940.83 1190.02,-933.34 1186.98,-939.65"/>
</g>
<!-- updates -->
<g id="node6" class="node">
<title>updates</title>
<polygon fill="lightyellow" stroke="black" points="1003.33,-1181.09 946.08,-1181.09 946.08,-1145.09 1003.33,-1145.09 1003.33,-1181.09"/>
<text xml:space="preserve" text-anchor="middle" x="974.7" y="-1158.04" font-family="Times,serif" font-size="14.00">updates</text>
</g>
<!-- RFC1231&#45;&gt;updates -->
<g id="edge5" class="edge">
<title>RFC1231&#45;&gt;updates</title>
<path fill="none" stroke="black" d="M901.94,-844.32C919.92,-923.1 953.68,-1071 968,-1133.75"/>
<polygon fill="black" stroke="black" points="964.55,-1134.33 970.18,-1143.3 971.37,-1132.78 964.55,-1134.33"/>
</g>
<!-- cites -->
<g id="node9" class="node">
<title>cites</title>
<polygon fill="lightblue" stroke="black" points="680.41,-1107.76 626.41,-1107.76 626.41,-1071.76 680.41,-1071.76 680.41,-1107.76"/>
<text xml:space="preserve" text-anchor="middle" x="653.41" y="-1084.71" font-family="Times,serif" font-size="14.00">cites</text>
</g>
<!-- RFC1231&#45;&gt;cites -->
<g id="edge8" class="edge">
<title>RFC1231&#45;&gt;cites</title>
<path fill="none" stroke="black" d="M850.29,-842.87C799.9,-906.06 714.97,-1012.56 675.19,-1062.44"/>
<polygon fill="black" stroke="black" points="672.52,-1060.17 669.03,-1070.17 678,-1064.54 672.52,-1060.17"/>
</g>
<!-- obs_by -->
<g id="node2" class="node">
<title>obs_by</title>
<polygon fill="lightblue" stroke="black" points="581.15,-646.06 514.9,-646.06 514.9,-610.06 581.15,-610.06 581.15,-646.06"/>
<text xml:space="preserve" text-anchor="middle" x="548.03" y="-623.01" font-family="Times,serif" font-size="14.00">obsoletes</text>
</g>
<!-- obs_by&#45;&gt;RFC1231 -->
<g id="edge1" class="edge">
<title>obs_by&#45;&gt;RFC1231</title>
<path fill="none" stroke="black" d="M581.46,-644.16C629.46,-667.28 719.91,-710.83 790.55,-744.85"/>
<polygon fill="black" stroke="black" points="788.93,-747.95 799.46,-749.14 791.96,-741.65 788.93,-747.95"/>
</g>
<!-- RFC1743 -->
<g id="node3" class="node">
<title>RFC1743</title>
<g id="a_node3"><a xlink:href="RFC1743.html" xlink:title="This memo defines a portion of the Management Information Base (MIB) for use with network management protocols in the Internet community. &#160;In particular, it describes managed objects used for managing subnetworks which use the IEEE 802.5 Token Ring technology described in 802.5 Token Ring Access Method and Physical Layer Specifications, IEEE Standard 802.5&#45;1989. [STANDARDS&#45;TRACK]" target="_top">
<ellipse fill="none" stroke="black" cx="130.64" cy="-792.84" rx="130.64" ry="40.66"/>
<text xml:space="preserve" text-anchor="middle" x="130.64" y="-804.29" font-family="Times,serif" font-size="14.00">RFC1743</text>
<text xml:space="preserve" text-anchor="middle" x="130.64" y="-787.79" font-family="Times,serif" font-size="14.00">IEEE 802.5 MIB using SMIv2</text>
<text xml:space="preserve" text-anchor="middle" x="130.64" y="-771.29" font-family="Times,serif" font-size="14.00">1994</text>
</a>
</g>
</g>
<!-- RFC1743&#45;&gt;obs_by -->
<g id="edge2" class="edge">
<title>RFC1743&#45;&gt;obs_by</title>
<path fill="none" stroke="black" d="M212.11,-760.68C299.37,-726.22 434.62,-672.83 503.87,-645.49"/>
<polygon fill="black" stroke="black" points="504.98,-648.81 513,-641.89 502.41,-642.3 504.98,-648.81"/>
</g>
<!-- RFC1748 -->
<g id="node4" class="node">
<title>RFC1748</title>
<g id="a_node4"><a xlink:href="RFC1748.html" xlink:title="This memo defines a portion of the Management Information Base (MIB) for use with network management protocols in the Internet community. &#160;In particular, it describes managed objects used for managing subnetworks which use the IEEE 802.5 Token Ring technology described in 802.5 Token Ring Access Method and Physical Layer Specifications, IEEE Standard 802.5&#45;1989. [STANDARDS&#45;TRACK]" target="_top">
<ellipse fill="none" stroke="black" cx="416.62" cy="-198.99" rx="130.64" ry="40.66"/>
<text xml:space="preserve" text-anchor="middle" x="416.62" y="-210.44" font-family="Times,serif" font-size="14.00">RFC1748</text>
<text xml:space="preserve" text-anchor="middle" x="416.62" y="-193.94" font-family="Times,serif" font-size="14.00">IEEE 802.5 MIB using SMIv2</text>
<text xml:space="preserve" text-anchor="middle" x="416.62" y="-177.44" font-family="Times,serif" font-size="14.00">1994</text>
</a>
</g>
</g>
<!-- RFC1748&#45;&gt;obs_by -->
<g id="edge3" class="edge">
<title>RFC1748&#45;&gt;obs_by</title>
<path fill="none" stroke="black" d="M429.1,-239.75C455.43,-325.72 516.12,-523.9 539.04,-598.73"/>
<polygon fill="black" stroke="black" points="535.67,-599.66 541.94,-608.2 542.36,-597.61 535.67,-599.66"/>
</g>
<!-- updated_by -->
<g id="node7" class="node">
<title>updated_by</title>
<polygon fill="lightyellow" stroke="black" points="1003.33,-440.58 946.08,-440.58 946.08,-404.58 1003.33,-404.58 1003.33,-440.58"/>
<text xml:space="preserve" text-anchor="middle" x="974.7" y="-417.53" font-family="Times,serif" font-size="14.00">updates</text>
</g>
<!-- updated_by&#45;&gt;RFC1231 -->
<g id="edge6" class="edge">
<title>updated_by&#45;&gt;RFC1231</title>
<path fill="none" stroke="black" d="M970.51,-440.94C958.61,-493.1 924.18,-643.95 904.48,-730.26"/>
<polygon fill="black" stroke="black" points="901.06,-729.48 902.25,-740.01 907.89,-731.04 901.06,-729.48"/>
</g>
<!-- RFC1239 -->
<g id="node8" class="node">
<title>RFC1239</title>
<g id="a_node8"><a xlink:href="RFC1239.html" xlink:title="This memo specifically updates RFC 1229, RFC 1230, RFC 1231, RFC 1232 and RFC 1233 with new codes. [STANDARDS&#45;TRACK]" target="_top">
<ellipse fill="none" stroke="black" cx="1059.21" cy="-52.33" rx="164.05" ry="52.33"/>
<text xml:space="preserve" text-anchor="middle" x="1059.21" y="-72.03" font-family="Times,serif" font-size="14.00">RFC1239</text>
<text xml:space="preserve" text-anchor="middle" x="1059.21" y="-55.53" font-family="Times,serif" font-size="14.00">Reassignment of experimental MIBs to</text>
<text xml:space="preserve" text-anchor="middle" x="1059.21" y="-39.03" font-family="Times,serif" font-size="14.00">standard MIBs</text>
<text xml:space="preserve" text-anchor="middle" x="1059.21" y="-22.53" font-family="Times,serif" font-size="14.00">1991</text>
</a>
</g>
</g>
<!-- RFC1239&#45;&gt;updated_by -->
<g id="edge7" class="edge">
<title>RFC1239&#45;&gt;updated_by</title>
<path fill="none" stroke="black" d="M1047.19,-104.98C1029.13,-184.13 995.57,-331.13 981.35,-393.45"/>
<polygon fill="black" stroke="black" points="978,-392.4 979.19,-402.93 984.83,-393.96 978,-392.4"/>
</g>
<!-- rev_cites -->
<g id="node10" class="node">
<title>rev_cites</title>
<polygon fill="lightblue" stroke="black" points="1259.36,-646.06 1205.36,-646.06 1205.36,-610.06 1259.36,-610.06 1259.36,-646.06"/>
<text xml:space="preserve" text-anchor="middle" x="1232.36" y="-623.01" font-family="Times,serif" font-size="14.00">cites</text>
</g>
<!-- rev_cites&#45;&gt;RFC1231 -->
<g id="edge9" class="edge">
<title>rev_cites&#45;&gt;RFC1231</title>
<path fill="none" stroke="black" d="M1204.94,-641.26C1158.82,-663.47 1063.54,-709.36 989.83,-744.85"/>
<polygon fill="black" stroke="black" points="988.44,-741.64 980.95,-749.13 991.48,-747.95 988.44,-741.64"/>
</g>
<!-- RFC1700 -->
<g id="node11" class="node">
<title>RFC1700</title>
<g id="a_node11"><a xlink:href="RFC1700.html" xlink:title="This RFC is a snapshot of the ongoing process of the assignment of protocol parameters for the Internet protocol suite. &#160;To make the current information readily available the assignments are kept up&#45;to&#45; date in a set of online text files. &#160;This memo is a status report on the parameters (i.e., numbers and keywords) used in protocols in the Internet community." target="_top">
<ellipse fill="none" stroke="black" cx="1574.53" cy="-463.28" rx="85.03" ry="40.66"/>
<text xml:space="preserve" text-anchor="middle" x="1574.53" y="-474.73" font-family="Times,serif" font-size="14.00">RFC1700</text>
<text xml:space="preserve" text-anchor="middle" x="1574.53" y="-458.23" font-family="Times,serif" font-size="14.00">Assigned Numbers</text>
<text xml:space="preserve" text-anchor="middle" x="1574.53" y="-441.73" font-family="Times,serif" font-size="14.00">1994</text>
</a>
</g>
</g>
<!-- RFC1700&#45;&gt;rev_cites -->
<g id="edge10" class="edge">
<title>RFC1700&#45;&gt;rev_cites</title>
<path fill="none" stroke="black" d="M1514.14,-492.36C1443.52,-526.37 1328.8,-581.61 1269.89,-609.98"/>
<polygon fill="black" stroke="black" points="1268.42,-606.81 1260.93,-614.3 1271.46,-613.11 1268.42,-606.81"/>
</g>
</g>
</svg>
