<?xml version="1.0" encoding="UTF-8" standalone="no"?>
<!DOCTYPE svg PUBLIC "-//W3C//DTD SVG 1.1//EN"
 "http://www.w3.org/Graphics/SVG/1.1/DTD/svg11.dtd">
<!-- Generated by graphviz version 14.1.1 (20251213.1925)
 -->
<!-- Title: Flow Pages: 1 -->
<svg width="831pt" height="381pt"
 viewBox="0.00 0.00 831.00 381.00" xmlns="http://www.w3.org/2000/svg" xmlns:xlink="http://www.w3.org/1999/xlink">
<g id="graph0" class="graph" transform="scale(1 1) rotate(0) translate(4 377.32)">
<title>Flow</title>
<polygon fill="white" stroke="none" points="-4,4 -4,-377.32 827.39,-377.32 827.39,4 -4,4"/>
<!-- RFC1809 -->
<g id="node1" class="node">
<title>RFC1809</title>
<g id="a_node1"><a xlink:title="The purpose of this memo is to distill various opinions and suggestions of the End&#45;to&#45;End Research Group regarding the handling of Flow Labels into a set of suggestions for IPv6. &#160;This memo provides information for the Internet community. &#160;This memo does not specify an Internet standard of any kind.">
<ellipse fill="green" stroke="black" cx="584" cy="-251.99" rx="148.14" ry="40.66"/>
<text xml:space="preserve" text-anchor="middle" x="584" y="-263.44" font-family="Times,serif" font-size="14.00">RFC1809</text>
<text xml:space="preserve" text-anchor="middle" x="584" y="-246.94" font-family="Times,serif" font-size="14.00">Using the Flow Label Field in IPv6</text>
<text xml:space="preserve" text-anchor="middle" x="584" y="-230.44" font-family="Times,serif" font-size="14.00">1995</text>
</a>
</g>
</g>
<!-- obs -->
<g id="node3" class="node">
<title>obs</title>
<polygon fill="lightblue" stroke="black" points="823.39,-323.99 757.14,-323.99 757.14,-287.99 823.39,-287.99 823.39,-323.99"/>
<text xml:space="preserve" text-anchor="middle" x="790.27" y="-300.94" font-family="Times,serif" font-size="14.00">obsoletes</text>
</g>
<!-- RFC1809&#45;&gt;obs -->
<g id="edge2" class="edge">
<title>RFC1809&#45;&gt;obs</title>
<path fill="none" stroke="black" d="M691.92,-280.26C711.03,-285.31 729.91,-290.3 745.89,-294.53"/>
<polygon fill="black" stroke="black" points="744.94,-297.9 755.51,-297.07 746.73,-291.13 744.94,-297.9"/>
</g>
<!-- updates -->
<g id="node4" class="node">
<title>updates</title>
<polygon fill="lightyellow" stroke="black" points="818.89,-269.99 761.64,-269.99 761.64,-233.99 818.89,-233.99 818.89,-269.99"/>
<text xml:space="preserve" text-anchor="middle" x="790.27" y="-246.94" font-family="Times,serif" font-size="14.00">updates</text>
</g>
<!-- RFC1809&#45;&gt;updates -->
<g id="edge3" class="edge">
<title>RFC1809&#45;&gt;updates</title>
<path fill="none" stroke="black" d="M732.64,-251.99C738.72,-251.99 744.54,-251.99 749.96,-251.99"/>
<polygon fill="black" stroke="black" points="749.67,-255.49 759.67,-251.99 749.67,-248.49 749.67,-255.49"/>
</g>
<!-- cites -->
<g id="node6" class="node">
<title>cites</title>
<polygon fill="lightblue" stroke="black" points="817.27,-215.99 763.27,-215.99 763.27,-179.99 817.27,-179.99 817.27,-215.99"/>
<text xml:space="preserve" text-anchor="middle" x="790.27" y="-192.94" font-family="Times,serif" font-size="14.00">cites</text>
</g>
<!-- RFC1809&#45;&gt;cites -->
<g id="edge5" class="edge">
<title>RFC1809&#45;&gt;cites</title>
<path fill="none" stroke="black" d="M691.92,-223.73C713.61,-217.99 735.02,-212.33 752.21,-207.79"/>
<polygon fill="black" stroke="black" points="752.63,-211.3 761.4,-205.36 750.84,-204.53 752.63,-211.3"/>
</g>
<!-- obs_by -->
<g id="node2" class="node">
<title>obs_by</title>
<polygon fill="lightblue" stroke="black" points="410.86,-323.99 344.61,-323.99 344.61,-287.99 410.86,-287.99 410.86,-323.99"/>
<text xml:space="preserve" text-anchor="middle" x="377.74" y="-300.94" font-family="Times,serif" font-size="14.00">obsoletes</text>
</g>
<!-- obs_by&#45;&gt;RFC1809 -->
<g id="edge1" class="edge">
<title>obs_by&#45;&gt;RFC1809</title>
<path fill="none" stroke="black" d="M411.1,-297.44C426.2,-293.45 445.18,-288.43 464.98,-283.19"/>
<polygon fill="black" stroke="black" points="465.81,-286.59 474.58,-280.65 464.02,-279.83 465.81,-286.59"/>
</g>
<!-- updated_by -->
<g id="node5" class="node">
<title>updated_by</title>
<polygon fill="lightyellow" stroke="black" points="406.36,-269.99 349.11,-269.99 349.11,-233.99 406.36,-233.99 406.36,-269.99"/>
<text xml:space="preserve" text-anchor="middle" x="377.74" y="-246.94" font-family="Times,serif" font-size="14.00">updates</text>
</g>
<!-- updated_by&#45;&gt;RFC1809 -->
<g id="edge4" class="edge">
<title>updated_by&#45;&gt;RFC1809</title>
<path fill="none" stroke="black" d="M406.71,-251.99C412.1,-251.99 418.09,-251.99 424.51,-251.99"/>
<polygon fill="black" stroke="black" points="424.18,-255.49 434.18,-251.99 424.18,-248.49 424.18,-255.49"/>
</g>
<!-- rev_cites -->
<g id="node7" class="node">
<title>rev_cites</title>
<polygon fill="lightblue" stroke="black" points="404.74,-215.99 350.74,-215.99 350.74,-179.99 404.74,-179.99 404.74,-215.99"/>
<text xml:space="preserve" text-anchor="middle" x="377.74" y="-192.94" font-family="Times,serif" font-size="14.00">cites</text>
</g>
<!-- rev_cites&#45;&gt;RFC1809 -->
<g id="edge6" class="edge">
<title>rev_cites&#45;&gt;RFC1809</title>
<path fill="none" stroke="black" d="M405.02,-204.94C421.02,-209.17 442.71,-214.91 465.44,-220.91"/>
<polygon fill="black" stroke="black" points="464.28,-224.23 474.84,-223.4 466.07,-217.46 464.28,-224.23"/>
</g>
<!-- RFC4081 -->
<g id="node8" class="node">
<title>RFC4081</title>
<g id="a_node8"><a xlink:href="RFC4081.html" xlink:title="This threats document provides a detailed analysis of the security threats relevant to the Next Steps in Signaling (NSIS) protocol suite. &#160;It calls attention to, and helps with the understanding of, various security considerations in the NSIS Requirements, Framework, and Protocol proposals. &#160;This document does not describe vulnerabilities of specific parts of the NSIS protocol suite. &#160;This memo provides information for the Internet community." target="_top">
<ellipse fill="none" stroke="black" cx="159.81" cy="-320.99" rx="142.31" ry="52.33"/>
<text xml:space="preserve" text-anchor="middle" x="159.81" y="-340.69" font-family="Times,serif" font-size="14.00">RFC4081</text>
<text xml:space="preserve" text-anchor="middle" x="159.81" y="-324.19" font-family="Times,serif" font-size="14.00">Security Threats for Next Steps in</text>
<text xml:space="preserve" text-anchor="middle" x="159.81" y="-307.69" font-family="Times,serif" font-size="14.00">Signaling (NSIS)</text>
<text xml:space="preserve" text-anchor="middle" x="159.81" y="-291.19" font-family="Times,serif" font-size="14.00">2005</text>
</a>
</g>
</g>
<!-- RFC4081&#45;&gt;rev_cites -->
<g id="edge7" class="edge">
<title>RFC4081&#45;&gt;rev_cites</title>
<path fill="none" stroke="black" d="M270.27,-287.76C287.69,-279.86 304.82,-270.34 319.61,-258.99 334.49,-247.58 331.79,-238.68 344.61,-224.99 344.87,-224.71 345.14,-224.44 345.41,-224.16"/>
<polygon fill="black" stroke="black" points="347.78,-226.73 352.57,-217.28 342.93,-221.68 347.78,-226.73"/>
</g>
<!-- RFC6294 -->
<g id="node9" class="node">
<title>RFC6294</title>
<g id="a_node9"><a xlink:href="RFC6294.html" xlink:title="The IPv6 protocol includes a flow label in every packet header, but this field is not used in practice. &#160;This paper describes the flow label standard and discusses the implementation issues that it raises. &#160;It then describes various published proposals for using the flow label and shows that most of them are inconsistent with the standard. &#160;Methods to address this problem are briefly reviewed. &#160;We also question whether the standard should be revised. &#160;This document is not an Internet Standards Track specification; it is published for informational purposes." target="_top">
<ellipse fill="none" stroke="black" cx="159.81" cy="-197.99" rx="157.68" ry="52.33"/>
<text xml:space="preserve" text-anchor="middle" x="159.81" y="-217.69" font-family="Times,serif" font-size="14.00">RFC6294</text>
<text xml:space="preserve" text-anchor="middle" x="159.81" y="-201.19" font-family="Times,serif" font-size="14.00">Survey of Proposed Use Cases for the</text>
<text xml:space="preserve" text-anchor="middle" x="159.81" y="-184.69" font-family="Times,serif" font-size="14.00">IPv6 Flow Label</text>
<text xml:space="preserve" text-anchor="middle" x="159.81" y="-168.19" font-family="Times,serif" font-size="14.00">2011</text>
</a>
</g>
</g>
<!-- RFC6294&#45;&gt;rev_cites -->
<g id="edge8" class="edge">
<title>RFC6294&#45;&gt;rev_cites</title>
<path fill="none" stroke="black" d="M317.73,-197.99C325.32,-197.99 332.5,-197.99 339.07,-197.99"/>
<polygon fill="black" stroke="black" points="339.02,-201.49 349.02,-197.99 339.02,-194.49 339.02,-201.49"/>
</g>
<!-- RFC9049 -->
<g id="node10" class="node">
<title>RFC9049</title>
<g id="a_node10"><a xlink:href="RFC9049.html" xlink:title="This document is a product of the Path Aware Networking Research Group (PANRG). At the first meeting of the PANRG, the Research Group agreed to catalog and analyze past efforts to develop and deploy Path Aware techniques, most of which were unsuccessful or at most partially successful, in order to extract insights and lessons for Path Aware networking researchers. This document contains that catalog and analysis." target="_top">
<ellipse fill="none" stroke="black" cx="159.81" cy="-63.99" rx="159.81" ry="63.99"/>
<text xml:space="preserve" text-anchor="middle" x="159.81" y="-91.94" font-family="Times,serif" font-size="14.00">RFC9049</text>
<text xml:space="preserve" text-anchor="middle" x="159.81" y="-75.44" font-family="Times,serif" font-size="14.00">Path Aware Networking: Obstacles to</text>
<text xml:space="preserve" text-anchor="middle" x="159.81" y="-58.94" font-family="Times,serif" font-size="14.00">Deployment (A Bestiary of Roads Not</text>
<text xml:space="preserve" text-anchor="middle" x="159.81" y="-42.44" font-family="Times,serif" font-size="14.00">Taken)</text>
<text xml:space="preserve" text-anchor="middle" x="159.81" y="-25.94" font-family="Times,serif" font-size="14.00">2021</text>
</a>
</g>
</g>
<!-- RFC9049&#45;&gt;rev_cites -->
<g id="edge9" class="edge">
<title>RFC9049&#45;&gt;rev_cites</title>
<path fill="none" stroke="black" d="M273.65,-109.2C289.65,-117.49 305.46,-126.79 319.61,-136.99 332.8,-146.5 345.39,-159.37 355.37,-170.84"/>
<polygon fill="black" stroke="black" points="352.69,-173.09 361.81,-178.49 358.05,-168.58 352.69,-173.09"/>
</g>
</g>
</svg>
