<?xml version="1.0" encoding="UTF-8" standalone="no"?>
<!DOCTYPE svg PUBLIC "-//W3C//DTD SVG 1.1//EN"
 "http://www.w3.org/Graphics/SVG/1.1/DTD/svg11.dtd">
<!-- Generated by graphviz version 14.1.1 (20251213.1925)
 -->
<!-- Title: Flow Pages: 1 -->
<svg width="937pt" height="691pt"
 viewBox="0.00 0.00 937.00 691.00" xmlns="http://www.w3.org/2000/svg" xmlns:xlink="http://www.w3.org/1999/xlink">
<g id="graph0" class="graph" transform="scale(1 1) rotate(0) translate(4 686.61)">
<title>Flow</title>
<polygon fill="white" stroke="none" points="-4,4 -4,-686.61 932.7,-686.61 932.7,4 -4,4"/>
<!-- RFC1079 -->
<g id="node1" class="node">
<title>RFC1079</title>
<g id="a_node1"><a xlink:title="This RFC specifies a standard for the Internet community. &#160;Hosts on the Internet that exchange terminal speed information within the Telnet protocol are expected to adopt and implement this standard.">
<ellipse fill="green" stroke="black" stroke-width="3" cx="303.31" cy="-352.64" rx="158.75" ry="50.2"/>
<text xml:space="preserve" text-anchor="middle" x="303.31" y="-367.04" font-family="Times,serif" font-size="18.00">RFC1079</text>
<text xml:space="preserve" text-anchor="middle" x="303.31" y="-346.04" font-family="Times,serif" font-size="18.00">Telnet terminal speed option</text>
<text xml:space="preserve" text-anchor="middle" x="303.31" y="-325.04" font-family="Times,serif" font-size="18.00">1988</text>
</a>
</g>
</g>
<!-- obs -->
<g id="node3" class="node">
<title>obs</title>
<polygon fill="lightblue" stroke="black" points="606.61,-526.63 540.36,-526.63 540.36,-490.63 606.61,-490.63 606.61,-526.63"/>
<text xml:space="preserve" text-anchor="middle" x="573.49" y="-503.58" font-family="Times,serif" font-size="14.00">obsoletes</text>
</g>
<!-- RFC1079&#45;&gt;obs -->
<g id="edge2" class="edge">
<title>RFC1079&#45;&gt;obs</title>
<path fill="none" stroke="black" d="M381.45,-397.75C430.49,-426.06 491.77,-461.45 531.73,-484.52"/>
<polygon fill="black" stroke="black" points="529.94,-487.53 540.35,-489.49 533.44,-481.46 529.94,-487.53"/>
</g>
<!-- updates -->
<g id="node4" class="node">
<title>updates</title>
<polygon fill="lightyellow" stroke="black" points="331.93,-682.61 274.68,-682.61 274.68,-646.61 331.93,-646.61 331.93,-682.61"/>
<text xml:space="preserve" text-anchor="middle" x="303.31" y="-659.56" font-family="Times,serif" font-size="14.00">updates</text>
</g>
<!-- RFC1079&#45;&gt;updates -->
<g id="edge3" class="edge">
<title>RFC1079&#45;&gt;updates</title>
<path fill="none" stroke="black" d="M303.31,-404.15C303.31,-469.98 303.31,-581.75 303.31,-634.87"/>
<polygon fill="black" stroke="black" points="299.81,-634.66 303.31,-644.66 306.81,-634.66 299.81,-634.66"/>
</g>
<!-- cites -->
<g id="node6" class="node">
<title>cites</title>
<polygon fill="lightblue" stroke="black" points="60.13,-526.63 6.13,-526.63 6.13,-490.63 60.13,-490.63 60.13,-526.63"/>
<text xml:space="preserve" text-anchor="middle" x="33.13" y="-503.58" font-family="Times,serif" font-size="14.00">cites</text>
</g>
<!-- RFC1079&#45;&gt;cites -->
<g id="edge5" class="edge">
<title>RFC1079&#45;&gt;cites</title>
<path fill="none" stroke="black" d="M225.16,-397.75C174.26,-427.14 110.17,-464.15 70.42,-487.1"/>
<polygon fill="black" stroke="black" points="68.84,-483.97 61.93,-492 72.34,-490.03 68.84,-483.97"/>
</g>
<!-- obs_by -->
<g id="node2" class="node">
<title>obs_by</title>
<polygon fill="lightblue" stroke="black" points="66.25,-214.65 0,-214.65 0,-178.65 66.25,-178.65 66.25,-214.65"/>
<text xml:space="preserve" text-anchor="middle" x="33.13" y="-191.6" font-family="Times,serif" font-size="14.00">obsoletes</text>
</g>
<!-- obs_by&#45;&gt;RFC1079 -->
<g id="edge1" class="edge">
<title>obs_by&#45;&gt;RFC1079</title>
<path fill="none" stroke="black" d="M64.91,-215C101.67,-236.22 163.74,-272.06 215.33,-301.84"/>
<polygon fill="black" stroke="black" points="213.44,-304.8 223.85,-306.77 216.94,-298.73 213.44,-304.8"/>
</g>
<!-- updated_by -->
<g id="node5" class="node">
<title>updated_by</title>
<polygon fill="lightyellow" stroke="black" points="331.93,-58.66 274.68,-58.66 274.68,-22.66 331.93,-22.66 331.93,-58.66"/>
<text xml:space="preserve" text-anchor="middle" x="303.31" y="-35.61" font-family="Times,serif" font-size="14.00">updates</text>
</g>
<!-- updated_by&#45;&gt;RFC1079 -->
<g id="edge4" class="edge">
<title>updated_by&#45;&gt;RFC1079</title>
<path fill="none" stroke="black" d="M303.31,-58.78C303.31,-102.91 303.31,-217.63 303.31,-289.98"/>
<polygon fill="black" stroke="black" points="299.81,-289.7 303.31,-299.7 306.81,-289.7 299.81,-289.7"/>
</g>
<!-- rev_cites -->
<g id="node7" class="node">
<title>rev_cites</title>
<polygon fill="lightblue" stroke="black" points="600.49,-214.65 546.49,-214.65 546.49,-178.65 600.49,-178.65 600.49,-214.65"/>
<text xml:space="preserve" text-anchor="middle" x="573.49" y="-191.6" font-family="Times,serif" font-size="14.00">cites</text>
</g>
<!-- rev_cites&#45;&gt;RFC1079 -->
<g id="edge6" class="edge">
<title>rev_cites&#45;&gt;RFC1079</title>
<path fill="none" stroke="black" d="M546.09,-212.46C510.04,-233.28 444.93,-270.87 391.21,-301.88"/>
<polygon fill="black" stroke="black" points="389.54,-298.81 382.63,-306.84 393.04,-304.87 389.54,-298.81"/>
</g>
<!-- RFC1700 -->
<g id="node8" class="node">
<title>RFC1700</title>
<g id="a_node8"><a xlink:href="RFC1700.html" xlink:title="This RFC is a snapshot of the ongoing process of the assignment of protocol parameters for the Internet protocol suite. &#160;To make the current information readily available the assignments are kept up&#45;to&#45; date in a set of online text files. &#160;This memo is a status report on the parameters (i.e., numbers and keywords) used in protocols in the Internet community." target="_top">
<ellipse fill="none" stroke="black" cx="843.67" cy="-40.66" rx="85.03" ry="40.66"/>
<text xml:space="preserve" text-anchor="middle" x="843.67" y="-52.11" font-family="Times,serif" font-size="14.00">RFC1700</text>
<text xml:space="preserve" text-anchor="middle" x="843.67" y="-35.61" font-family="Times,serif" font-size="14.00">Assigned Numbers</text>
<text xml:space="preserve" text-anchor="middle" x="843.67" y="-19.11" font-family="Times,serif" font-size="14.00">1994</text>
</a>
</g>
</g>
<!-- RFC1700&#45;&gt;rev_cites -->
<g id="edge7" class="edge">
<title>RFC1700&#45;&gt;rev_cites</title>
<path fill="none" stroke="black" d="M788.99,-72.23C735.95,-102.85 656.91,-148.48 610.74,-175.14"/>
<polygon fill="black" stroke="black" points="609.08,-172.06 602.17,-180.09 612.58,-178.12 609.08,-172.06"/>
</g>
</g>
</svg>
