<?xml version="1.0" encoding="UTF-8" standalone="no"?>
<!DOCTYPE svg PUBLIC "-//W3C//DTD SVG 1.1//EN"
 "http://www.w3.org/Graphics/SVG/1.1/DTD/svg11.dtd">
<!-- Generated by graphviz version 14.1.1 (20251213.1925)
 -->
<!-- Title: Flow Pages: 1 -->
<svg width="1799pt" height="1168pt"
 viewBox="0.00 0.00 1799.00 1168.00" xmlns="http://www.w3.org/2000/svg" xmlns:xlink="http://www.w3.org/1999/xlink">
<g id="graph0" class="graph" transform="scale(1 1) rotate(0) translate(4 1163.7)">
<title>Flow</title>
<polygon fill="white" stroke="none" points="-4,4 -4,-1163.7 1795.17,-1163.7 1795.17,4 -4,4"/>
<!-- RFC1292 -->
<g id="node1" class="node">
<title>RFC1292</title>
<g id="a_node1"><a xlink:title="The goal of this document is to provide information regarding the availability and capability of implementations of X.500. &#160;This memo provides information for the Internet community. &#160;It does not specify an Internet standard.">
<ellipse fill="green" stroke="black" stroke-width="3" cx="912.18" cy="-774.69" rx="163.52" ry="65.05"/>
<text xml:space="preserve" text-anchor="middle" x="912.18" y="-799.59" font-family="Times,serif" font-size="18.00">RFC1292</text>
<text xml:space="preserve" text-anchor="middle" x="912.18" y="-778.59" font-family="Times,serif" font-size="18.00">A Catalog of Available X.500</text>
<text xml:space="preserve" text-anchor="middle" x="912.18" y="-757.59" font-family="Times,serif" font-size="18.00">Implementations</text>
<text xml:space="preserve" text-anchor="middle" x="912.18" y="-736.59" font-family="Times,serif" font-size="18.00">1992</text>
</a>
</g>
</g>
<!-- obs -->
<g id="node4" class="node">
<title>obs</title>
<polygon fill="lightblue" stroke="black" points="1284.48,-956.02 1218.23,-956.02 1218.23,-920.02 1284.48,-920.02 1284.48,-956.02"/>
<text xml:space="preserve" text-anchor="middle" x="1251.35" y="-932.97" font-family="Times,serif" font-size="14.00">obsoletes</text>
</g>
<!-- RFC1292&#45;&gt;obs -->
<g id="edge3" class="edge">
<title>RFC1292&#45;&gt;obs</title>
<path fill="none" stroke="black" d="M1018.1,-825.7C1082.07,-856.5 1160.18,-894.12 1207.82,-917.06"/>
<polygon fill="black" stroke="black" points="1206.19,-920.16 1216.72,-921.34 1209.23,-913.85 1206.19,-920.16"/>
</g>
<!-- updates -->
<g id="node5" class="node">
<title>updates</title>
<polygon fill="lightyellow" stroke="black" points="1024.57,-1159.7 967.32,-1159.7 967.32,-1123.7 1024.57,-1123.7 1024.57,-1159.7"/>
<text xml:space="preserve" text-anchor="middle" x="995.95" y="-1136.65" font-family="Times,serif" font-size="14.00">updates</text>
</g>
<!-- RFC1292&#45;&gt;updates -->
<g id="edge4" class="edge">
<title>RFC1292&#45;&gt;updates</title>
<path fill="none" stroke="black" d="M927.25,-840.73C945.63,-921.24 975.89,-1053.8 989.25,-1112.34"/>
<polygon fill="black" stroke="black" points="985.79,-1112.9 991.42,-1121.87 992.61,-1111.35 985.79,-1112.9"/>
</g>
<!-- cites -->
<g id="node7" class="node">
<title>cites</title>
<polygon fill="lightblue" stroke="black" points="704.47,-1087.01 650.47,-1087.01 650.47,-1051.01 704.47,-1051.01 704.47,-1087.01"/>
<text xml:space="preserve" text-anchor="middle" x="677.47" y="-1063.96" font-family="Times,serif" font-size="14.00">cites</text>
</g>
<!-- RFC1292&#45;&gt;cites -->
<g id="edge6" class="edge">
<title>RFC1292&#45;&gt;cites</title>
<path fill="none" stroke="black" d="M861.83,-837.83C811.3,-901.19 735.84,-995.82 699.11,-1041.87"/>
<polygon fill="black" stroke="black" points="696.53,-1039.49 693.03,-1049.49 702,-1043.85 696.53,-1039.49"/>
</g>
<!-- obs_by -->
<g id="node2" class="node">
<title>obs_by</title>
<polygon fill="lightblue" stroke="black" points="568.85,-792.69 502.6,-792.69 502.6,-756.69 568.85,-756.69 568.85,-792.69"/>
<text xml:space="preserve" text-anchor="middle" x="535.73" y="-769.64" font-family="Times,serif" font-size="14.00">obsoletes</text>
</g>
<!-- obs_by&#45;&gt;RFC1292 -->
<g id="edge1" class="edge">
<title>obs_by&#45;&gt;RFC1292</title>
<path fill="none" stroke="black" d="M569.14,-774.69C607.25,-774.69 672.52,-774.69 735.97,-774.69"/>
<polygon fill="black" stroke="black" points="735.86,-778.19 745.86,-774.69 735.86,-771.19 735.86,-778.19"/>
</g>
<!-- RFC1632 -->
<g id="node3" class="node">
<title>RFC1632</title>
<g id="a_node3"><a xlink:href="RFC1632.html" xlink:title="This document is the result of a survey that gathered new or updated descriptions of currently available implementations of X.500, including commercial products and openly available offerings. &#160;This document is a revision of RFC 1292. &#160;This memo provides information for the Internet community. &#160;This memo does not specify an Internet standard of any kind." target="_top">
<ellipse fill="none" stroke="black" cx="159.28" cy="-774.69" rx="159.28" ry="52.33"/>
<text xml:space="preserve" text-anchor="middle" x="159.28" y="-794.39" font-family="Times,serif" font-size="14.00">RFC1632</text>
<text xml:space="preserve" text-anchor="middle" x="159.28" y="-777.89" font-family="Times,serif" font-size="14.00">A Revised Catalog of Available X.500</text>
<text xml:space="preserve" text-anchor="middle" x="159.28" y="-761.39" font-family="Times,serif" font-size="14.00">Implementations</text>
<text xml:space="preserve" text-anchor="middle" x="159.28" y="-744.89" font-family="Times,serif" font-size="14.00">1994</text>
</a>
</g>
</g>
<!-- RFC1632&#45;&gt;obs_by -->
<g id="edge2" class="edge">
<title>RFC1632&#45;&gt;obs_by</title>
<path fill="none" stroke="black" d="M318.93,-774.69C381.39,-774.69 448.15,-774.69 490.82,-774.69"/>
<polygon fill="black" stroke="black" points="490.69,-778.19 500.69,-774.69 490.69,-771.19 490.69,-778.19"/>
</g>
<!-- updated_by -->
<g id="node6" class="node">
<title>updated_by</title>
<polygon fill="lightyellow" stroke="black" points="706.09,-498.36 648.84,-498.36 648.84,-462.36 706.09,-462.36 706.09,-498.36"/>
<text xml:space="preserve" text-anchor="middle" x="677.47" y="-475.31" font-family="Times,serif" font-size="14.00">updates</text>
</g>
<!-- updated_by&#45;&gt;RFC1292 -->
<g id="edge5" class="edge">
<title>updated_by&#45;&gt;RFC1292</title>
<path fill="none" stroke="black" d="M692.15,-498.78C723.99,-538.7 800.85,-635.09 854.72,-702.63"/>
<polygon fill="black" stroke="black" points="851.91,-704.73 860.88,-710.36 857.39,-700.36 851.91,-704.73"/>
</g>
<!-- rev_cites -->
<g id="node8" class="node">
<title>rev_cites</title>
<polygon fill="lightblue" stroke="black" points="1173.9,-498.36 1119.9,-498.36 1119.9,-462.36 1173.9,-462.36 1173.9,-498.36"/>
<text xml:space="preserve" text-anchor="middle" x="1146.9" y="-475.31" font-family="Times,serif" font-size="14.00">cites</text>
</g>
<!-- rev_cites&#45;&gt;RFC1292 -->
<g id="edge7" class="edge">
<title>rev_cites&#45;&gt;RFC1292</title>
<path fill="none" stroke="black" d="M1132.21,-498.78C1100.37,-538.7 1023.51,-635.09 969.64,-702.63"/>
<polygon fill="black" stroke="black" points="966.98,-700.36 963.48,-710.36 972.45,-704.73 966.98,-700.36"/>
</g>
<!-- RFC2116 -->
<g id="node9" class="node">
<title>RFC2116</title>
<g id="a_node9"><a xlink:href="RFC2116.html" xlink:title="This document is a revision to [RFC 1632]: A Revised Catalog of Available X.500 Implementations and is based on the results of data collection via a WWW home page that enabled implementors to submit new or updated descriptions of currently available implementations of X.500, including commercial products and openly available offerings. [RFC 1632] is a revision of [RFC 1292]. &#160;This document contains detailed description of 31 X.500 implementations &#45; DSAs, DUAs, and DUA interfaces. &#160;This memo provides information for the Internet community. &#160;This memo does not specify an Internet standard of any kind." target="_top">
<ellipse fill="none" stroke="black" cx="1079.72" cy="-40.66" rx="148.14" ry="40.66"/>
<text xml:space="preserve" text-anchor="middle" x="1079.72" y="-52.11" font-family="Times,serif" font-size="14.00">RFC2116</text>
<text xml:space="preserve" text-anchor="middle" x="1079.72" y="-35.61" font-family="Times,serif" font-size="14.00">X.500 Implementations Catalog&#45;96</text>
<text xml:space="preserve" text-anchor="middle" x="1079.72" y="-19.11" font-family="Times,serif" font-size="14.00">1997</text>
</a>
</g>
</g>
<!-- RFC2116&#45;&gt;rev_cites -->
<g id="edge8" class="edge">
<title>RFC2116&#45;&gt;rev_cites</title>
<path fill="none" stroke="black" d="M1085.98,-81.63C1099.43,-169.66 1130.8,-375.04 1142.44,-451.23"/>
<polygon fill="black" stroke="black" points="1138.94,-451.46 1143.91,-460.82 1145.86,-450.4 1138.94,-451.46"/>
</g>
<!-- RFC2199 -->
<g id="node10" class="node">
<title>RFC2199</title>
<g id="a_node10"><a xlink:href="RFC2199.html" xlink:title="None" target="_top">
<ellipse fill="none" stroke="black" cx="1590.53" cy="-448.01" rx="200.64" ry="52.33"/>
<text xml:space="preserve" text-anchor="middle" x="1590.53" y="-467.71" font-family="Times,serif" font-size="14.00">RFC2199</text>
<text xml:space="preserve" text-anchor="middle" x="1590.53" y="-451.21" font-family="Times,serif" font-size="14.00">Request for Comments Summary RFC Numbers</text>
<text xml:space="preserve" text-anchor="middle" x="1590.53" y="-434.71" font-family="Times,serif" font-size="14.00">2100&#45;2199</text>
<text xml:space="preserve" text-anchor="middle" x="1590.53" y="-418.21" font-family="Times,serif" font-size="14.00">1998</text>
</a>
</g>
</g>
<!-- RFC2199&#45;&gt;rev_cites -->
<g id="edge9" class="edge">
<title>RFC2199&#45;&gt;rev_cites</title>
<path fill="none" stroke="black" d="M1396.91,-462.13C1317.54,-467.92 1233.27,-474.07 1185.65,-477.54"/>
<polygon fill="black" stroke="black" points="1185.59,-474.03 1175.87,-478.25 1186.1,-481.01 1185.59,-474.03"/>
</g>
</g>
</svg>
