<?xml version="1.0" encoding="UTF-8" standalone="no"?>
<!DOCTYPE svg PUBLIC "-//W3C//DTD SVG 1.1//EN"
 "http://www.w3.org/Graphics/SVG/1.1/DTD/svg11.dtd">
<!-- Generated by graphviz version 14.1.1 (20251213.1925)
 -->
<!-- Title: Flow Pages: 1 -->
<svg width="2039pt" height="1059pt"
 viewBox="0.00 0.00 2039.00 1059.00" xmlns="http://www.w3.org/2000/svg" xmlns:xlink="http://www.w3.org/1999/xlink">
<g id="graph0" class="graph" transform="scale(1 1) rotate(0) translate(4 1055.17)">
<title>Flow</title>
<polygon fill="white" stroke="none" points="-4,4 -4,-1055.17 2035.27,-1055.17 2035.27,4 -4,4"/>
<!-- RFC1816 -->
<g id="node1" class="node">
<title>RFC1816</title>
<g id="a_node1"><a xlink:title="This memo provides an update and clarification to RFC 1811. &#160;This document describes the registration policies for the top&#45;level domain .GOV. &#160;This memo provides information for the Internet community. &#160;This memo does not specify an Internet standard of any kind.">
<ellipse fill="green" stroke="black" stroke-width="3" cx="1015.63" cy="-525.58" rx="227.69" ry="50.2"/>
<text xml:space="preserve" text-anchor="middle" x="1015.63" y="-539.98" font-family="Times,serif" font-size="18.00">RFC1816</text>
<text xml:space="preserve" text-anchor="middle" x="1015.63" y="-518.98" font-family="Times,serif" font-size="18.00">U.S. Government Internet Domain Names</text>
<text xml:space="preserve" text-anchor="middle" x="1015.63" y="-497.98" font-family="Times,serif" font-size="18.00">1995</text>
</a>
</g>
</g>
<!-- obs -->
<g id="node4" class="node">
<title>obs</title>
<polygon fill="lightblue" stroke="black" points="1468.72,-786.05 1402.47,-786.05 1402.47,-750.05 1468.72,-750.05 1468.72,-786.05"/>
<text xml:space="preserve" text-anchor="middle" x="1435.59" y="-763" font-family="Times,serif" font-size="14.00">obsoletes</text>
</g>
<!-- RFC1816&#45;&gt;obs -->
<g id="edge3" class="edge">
<title>RFC1816&#45;&gt;obs</title>
<path fill="none" stroke="black" d="M1098.85,-573.63C1187.97,-625.08 1325.76,-704.64 1394.15,-744.12"/>
<polygon fill="black" stroke="black" points="1392,-746.92 1402.41,-748.89 1395.5,-740.86 1392,-746.92"/>
</g>
<!-- updates -->
<g id="node6" class="node">
<title>updates</title>
<polygon fill="lightyellow" stroke="black" points="1044.26,-1028.51 987.01,-1028.51 987.01,-992.51 1044.26,-992.51 1044.26,-1028.51"/>
<text xml:space="preserve" text-anchor="middle" x="1015.63" y="-1005.46" font-family="Times,serif" font-size="14.00">updates</text>
</g>
<!-- RFC1816&#45;&gt;updates -->
<g id="edge5" class="edge">
<title>RFC1816&#45;&gt;updates</title>
<path fill="none" stroke="black" d="M1015.63,-577.02C1015.63,-678.34 1015.63,-900.86 1015.63,-981.01"/>
<polygon fill="black" stroke="black" points="1012.13,-980.67 1015.63,-990.67 1019.13,-980.67 1012.13,-980.67"/>
</g>
<!-- cites -->
<g id="node8" class="node">
<title>cites</title>
<polygon fill="lightblue" stroke="black" points="622.67,-786.05 568.67,-786.05 568.67,-750.05 622.67,-750.05 622.67,-786.05"/>
<text xml:space="preserve" text-anchor="middle" x="595.67" y="-763" font-family="Times,serif" font-size="14.00">cites</text>
</g>
<!-- RFC1816&#45;&gt;cites -->
<g id="edge7" class="edge">
<title>RFC1816&#45;&gt;cites</title>
<path fill="none" stroke="black" d="M932.41,-573.63C841.21,-626.29 699.01,-708.39 632.41,-746.84"/>
<polygon fill="black" stroke="black" points="630.99,-743.62 624.08,-751.65 634.49,-749.68 630.99,-743.62"/>
</g>
<!-- obs_by -->
<g id="node2" class="node">
<title>obs_by</title>
<polygon fill="lightblue" stroke="black" points="628.8,-301.12 562.55,-301.12 562.55,-265.12 628.8,-265.12 628.8,-301.12"/>
<text xml:space="preserve" text-anchor="middle" x="595.67" y="-278.07" font-family="Times,serif" font-size="14.00">obsoletes</text>
</g>
<!-- obs_by&#45;&gt;RFC1816 -->
<g id="edge1" class="edge">
<title>obs_by&#45;&gt;RFC1816</title>
<path fill="none" stroke="black" d="M627.58,-301.54C689.7,-337.41 828.97,-417.81 922.63,-471.89"/>
<polygon fill="black" stroke="black" points="920.67,-474.8 931.09,-476.77 924.17,-468.74 920.67,-474.8"/>
</g>
<!-- RFC2146 -->
<g id="node3" class="node">
<title>RFC2146</title>
<g id="a_node3"><a xlink:href="RFC2146.html" xlink:title="This memo provides an update and clarification to RFC 1816. &#160;This document describes the registration policies for the top&#45;level domain .GOV. &#160;The purpose of the domain is to provide naming conventions that identify US Federal government agencies in order to facilitate access to their electronic resources. &#160;This memo provides guidance for registrations by Federal Agencies that avoids name duplication and facilitates responsiveness to the public. &#160;It restricts registrations to coincide with the approved structure of the US government and the advice of its Chief Information Officers. &#160;This memo provides information for the Internet community. &#160;This memo does not specify an Internet standard of any kind." target="_top">
<ellipse fill="none" stroke="black" cx="175.72" cy="-40.66" rx="175.72" ry="40.66"/>
<text xml:space="preserve" text-anchor="middle" x="175.72" y="-52.11" font-family="Times,serif" font-size="14.00">RFC2146</text>
<text xml:space="preserve" text-anchor="middle" x="175.72" y="-35.61" font-family="Times,serif" font-size="14.00">U.S. Government Internet Domain Names</text>
<text xml:space="preserve" text-anchor="middle" x="175.72" y="-19.11" font-family="Times,serif" font-size="14.00">1997</text>
</a>
</g>
</g>
<!-- RFC2146&#45;&gt;obs_by -->
<g id="edge2" class="edge">
<title>RFC2146&#45;&gt;obs_by</title>
<path fill="none" stroke="black" d="M241.8,-78.81C329.27,-129.31 480.94,-216.88 553.99,-259.05"/>
<polygon fill="black" stroke="black" points="552.04,-261.97 562.45,-263.94 555.54,-255.91 552.04,-261.97"/>
</g>
<!-- RFC1811 -->
<g id="node5" class="node">
<title>RFC1811</title>
<g id="a_node5"><a xlink:href="RFC1811.html" xlink:title="This document describes the registration policies for the top&#45;level domain .GOV. &#160;This memo provides information for the Internet community. &#160;This memo does not specify an Internet standard of any kind." target="_top">
<ellipse fill="none" stroke="black" cx="1855.55" cy="-1010.51" rx="175.72" ry="40.66"/>
<text xml:space="preserve" text-anchor="middle" x="1855.55" y="-1021.96" font-family="Times,serif" font-size="14.00">RFC1811</text>
<text xml:space="preserve" text-anchor="middle" x="1855.55" y="-1005.46" font-family="Times,serif" font-size="14.00">U.S. Government Internet Domain Names</text>
<text xml:space="preserve" text-anchor="middle" x="1855.55" y="-988.96" font-family="Times,serif" font-size="14.00">1995</text>
</a>
</g>
</g>
<!-- obs&#45;&gt;RFC1811 -->
<g id="edge4" class="edge">
<title>obs&#45;&gt;RFC1811</title>
<path fill="none" stroke="black" d="M1467.5,-786.47C1533.53,-824.59 1686.71,-913.03 1779.65,-966.69"/>
<polygon fill="black" stroke="black" points="1777.84,-969.69 1788.25,-971.66 1781.34,-963.63 1777.84,-969.69"/>
</g>
<!-- updated_by -->
<g id="node7" class="node">
<title>updated_by</title>
<polygon fill="lightyellow" stroke="black" points="1044.26,-58.66 987.01,-58.66 987.01,-22.66 1044.26,-22.66 1044.26,-58.66"/>
<text xml:space="preserve" text-anchor="middle" x="1015.63" y="-35.61" font-family="Times,serif" font-size="14.00">updates</text>
</g>
<!-- updated_by&#45;&gt;RFC1816 -->
<g id="edge6" class="edge">
<title>updated_by&#45;&gt;RFC1816</title>
<path fill="none" stroke="black" d="M1015.63,-59.08C1015.63,-124.99 1015.63,-351.15 1015.63,-462.55"/>
<polygon fill="black" stroke="black" points="1012.13,-462.42 1015.63,-472.42 1019.13,-462.42 1012.13,-462.42"/>
</g>
<!-- rev_cites -->
<g id="node9" class="node">
<title>rev_cites</title>
<polygon fill="lightblue" stroke="black" points="1462.59,-301.12 1408.59,-301.12 1408.59,-265.12 1462.59,-265.12 1462.59,-301.12"/>
<text xml:space="preserve" text-anchor="middle" x="1435.59" y="-278.07" font-family="Times,serif" font-size="14.00">cites</text>
</g>
<!-- rev_cites&#45;&gt;RFC1816 -->
<g id="edge8" class="edge">
<title>rev_cites&#45;&gt;RFC1816</title>
<path fill="none" stroke="black" d="M1408.36,-298.84C1348.79,-333.24 1204.56,-416.51 1108.47,-471.99"/>
<polygon fill="black" stroke="black" points="1106.96,-468.81 1100.05,-476.85 1110.46,-474.88 1106.96,-468.81"/>
</g>
</g>
</svg>
