<?xml version="1.0" encoding="UTF-8" standalone="no"?>
<!DOCTYPE svg PUBLIC "-//W3C//DTD SVG 1.1//EN"
 "http://www.w3.org/Graphics/SVG/1.1/DTD/svg11.dtd">
<!-- Generated by graphviz version 14.1.1 (20251213.1925)
 -->
<!-- Title: Flow Pages: 1 -->
<svg width="1287pt" height="925pt"
 viewBox="0.00 0.00 1287.00 925.00" xmlns="http://www.w3.org/2000/svg" xmlns:xlink="http://www.w3.org/1999/xlink">
<g id="graph0" class="graph" transform="scale(1 1) rotate(0) translate(4 920.71)">
<title>Flow</title>
<polygon fill="white" stroke="none" points="-4,4 -4,-920.71 1283.16,-920.71 1283.16,4 -4,4"/>
<!-- RFC1404 -->
<g id="node1" class="node">
<title>RFC1404</title>
<g id="a_node1"><a xlink:title="This memo describes a model for operational statistics in the Internet. &#160;It gives recommendations for metrics, measurements, polling periods, storage formats and presentation formats. &#160;This memo provides information for the Internet community. &#160;It does not specify an Internet standard.">
<ellipse fill="green" stroke="black" stroke-width="3" cx="879.54" cy="-475.52" rx="189.5" ry="65.05"/>
<text xml:space="preserve" text-anchor="middle" x="879.54" y="-500.42" font-family="Times,serif" font-size="18.00">RFC1404</text>
<text xml:space="preserve" text-anchor="middle" x="879.54" y="-479.42" font-family="Times,serif" font-size="18.00">A Model for Common Operational</text>
<text xml:space="preserve" text-anchor="middle" x="879.54" y="-458.42" font-family="Times,serif" font-size="18.00">Statistics</text>
<text xml:space="preserve" text-anchor="middle" x="879.54" y="-437.42" font-family="Times,serif" font-size="18.00">1993</text>
</a>
</g>
</g>
<!-- obs -->
<g id="node4" class="node">
<title>obs</title>
<polygon fill="lightblue" stroke="black" points="1279.16,-705.11 1212.91,-705.11 1212.91,-669.11 1279.16,-669.11 1279.16,-705.11"/>
<text xml:space="preserve" text-anchor="middle" x="1246.03" y="-682.06" font-family="Times,serif" font-size="14.00">obsoletes</text>
</g>
<!-- RFC1404&#45;&gt;obs -->
<g id="edge3" class="edge">
<title>RFC1404&#45;&gt;obs</title>
<path fill="none" stroke="black" d="M977.75,-532.22C1051.81,-574.98 1149.67,-631.48 1204.4,-663.07"/>
<polygon fill="black" stroke="black" points="1202.38,-665.95 1212.79,-667.92 1205.88,-659.89 1202.38,-665.95"/>
</g>
<!-- updates -->
<g id="node5" class="node">
<title>updates</title>
<polygon fill="lightyellow" stroke="black" points="908.16,-916.71 850.91,-916.71 850.91,-880.71 908.16,-880.71 908.16,-916.71"/>
<text xml:space="preserve" text-anchor="middle" x="879.54" y="-893.66" font-family="Times,serif" font-size="14.00">updates</text>
</g>
<!-- RFC1404&#45;&gt;updates -->
<g id="edge4" class="edge">
<title>RFC1404&#45;&gt;updates</title>
<path fill="none" stroke="black" d="M879.54,-541.64C879.54,-634.87 879.54,-801.12 879.54,-868.8"/>
<polygon fill="black" stroke="black" points="876.04,-868.74 879.54,-878.74 883.04,-868.74 876.04,-868.74"/>
</g>
<!-- cites -->
<g id="node7" class="node">
<title>cites</title>
<polygon fill="lightblue" stroke="black" points="540.04,-705.11 486.04,-705.11 486.04,-669.11 540.04,-669.11 540.04,-705.11"/>
<text xml:space="preserve" text-anchor="middle" x="513.04" y="-682.06" font-family="Times,serif" font-size="14.00">cites</text>
</g>
<!-- RFC1404&#45;&gt;cites -->
<g id="edge6" class="edge">
<title>RFC1404&#45;&gt;cites</title>
<path fill="none" stroke="black" d="M781.32,-532.22C705.23,-576.15 604,-634.6 550.26,-665.63"/>
<polygon fill="black" stroke="black" points="548.7,-662.48 541.79,-670.51 552.2,-668.55 548.7,-662.48"/>
</g>
<!-- obs_by -->
<g id="node2" class="node">
<title>obs_by</title>
<polygon fill="lightblue" stroke="black" points="546.17,-281.92 479.92,-281.92 479.92,-245.92 546.17,-245.92 546.17,-281.92"/>
<text xml:space="preserve" text-anchor="middle" x="513.04" y="-258.87" font-family="Times,serif" font-size="14.00">obsoletes</text>
</g>
<!-- obs_by&#45;&gt;RFC1404 -->
<g id="edge1" class="edge">
<title>obs_by&#45;&gt;RFC1404</title>
<path fill="none" stroke="black" d="M544.93,-282.33C594.86,-311.16 693.81,-368.29 771.22,-412.98"/>
<polygon fill="black" stroke="black" points="769.3,-415.92 779.71,-417.88 772.8,-409.85 769.3,-415.92"/>
</g>
<!-- RFC1857 -->
<g id="node3" class="node">
<title>RFC1857</title>
<g id="a_node3"><a xlink:href="RFC1857.html" xlink:title="This memo describes a model for operational statistics in the Internet. &#160;This memo provides information for the Internet community. &#160;This memo does not specify an Internet standard of any kind. &#160;This document defines a model and protocol for a set of tools which could be used by NSPs and Network Operation Centers (NOCs) to share data among themselves and with customers. &#160;This memo provides information for the Internet community. &#160;This memo does not specify an Internet standard of any kind." target="_top">
<ellipse fill="none" stroke="black" cx="146.55" cy="-52.33" rx="146.55" ry="52.33"/>
<text xml:space="preserve" text-anchor="middle" x="146.55" y="-72.03" font-family="Times,serif" font-size="14.00">RFC1857</text>
<text xml:space="preserve" text-anchor="middle" x="146.55" y="-55.53" font-family="Times,serif" font-size="14.00">A Model for Common Operational</text>
<text xml:space="preserve" text-anchor="middle" x="146.55" y="-39.03" font-family="Times,serif" font-size="14.00">Statistics</text>
<text xml:space="preserve" text-anchor="middle" x="146.55" y="-22.53" font-family="Times,serif" font-size="14.00">1995</text>
</a>
</g>
</g>
<!-- RFC1857&#45;&gt;obs_by -->
<g id="edge2" class="edge">
<title>RFC1857&#45;&gt;obs_by</title>
<path fill="none" stroke="black" d="M223.82,-96.94C299.26,-140.5 411.21,-205.13 471.31,-239.82"/>
<polygon fill="black" stroke="black" points="469.48,-242.81 479.89,-244.78 472.98,-236.75 469.48,-242.81"/>
</g>
<!-- updated_by -->
<g id="node6" class="node">
<title>updated_by</title>
<polygon fill="lightyellow" stroke="black" points="908.16,-70.33 850.91,-70.33 850.91,-34.33 908.16,-34.33 908.16,-70.33"/>
<text xml:space="preserve" text-anchor="middle" x="879.54" y="-47.28" font-family="Times,serif" font-size="14.00">updates</text>
</g>
<!-- updated_by&#45;&gt;RFC1404 -->
<g id="edge5" class="edge">
<title>updated_by&#45;&gt;RFC1404</title>
<path fill="none" stroke="black" d="M879.54,-70.78C879.54,-126.77 879.54,-297.02 879.54,-398"/>
<polygon fill="black" stroke="black" points="876.04,-397.84 879.54,-407.84 883.04,-397.84 876.04,-397.84"/>
</g>
<!-- rev_cites -->
<g id="node8" class="node">
<title>rev_cites</title>
<polygon fill="lightblue" stroke="black" points="1273.03,-281.92 1219.03,-281.92 1219.03,-245.92 1273.03,-245.92 1273.03,-281.92"/>
<text xml:space="preserve" text-anchor="middle" x="1246.03" y="-258.87" font-family="Times,serif" font-size="14.00">cites</text>
</g>
<!-- rev_cites&#45;&gt;RFC1404 -->
<g id="edge7" class="edge">
<title>rev_cites&#45;&gt;RFC1404</title>
<path fill="none" stroke="black" d="M1218.78,-279.65C1170.48,-307.54 1067.41,-367.05 987.47,-413.2"/>
<polygon fill="black" stroke="black" points="986.07,-409.97 979.16,-418 989.57,-416.03 986.07,-409.97"/>
</g>
</g>
</svg>
