<?xml version="1.0" encoding="UTF-8" standalone="no"?>
<!DOCTYPE svg PUBLIC "-//W3C//DTD SVG 1.1//EN"
 "http://www.w3.org/Graphics/SVG/1.1/DTD/svg11.dtd">
<!-- Generated by graphviz version 14.1.1 (20251213.1925)
 -->
<!-- Title: Flow Pages: 1 -->
<svg width="1768pt" height="1097pt"
 viewBox="0.00 0.00 1768.00 1097.00" xmlns="http://www.w3.org/2000/svg" xmlns:xlink="http://www.w3.org/1999/xlink">
<g id="graph0" class="graph" transform="scale(1 1) rotate(0) translate(4 1093.17)">
<title>Flow</title>
<polygon fill="white" stroke="none" points="-4,4 -4,-1093.17 1764.11,-1093.17 1764.11,4 -4,4"/>
<!-- RFC1286 -->
<g id="node1" class="node">
<title>RFC1286</title>
<g id="a_node1"><a xlink:title="This memo defines a portion of the Management Information Base (MIB) for use with network management protocols in TCP/IP based internets. &#160;In particular it defines objects for managing bridges based on the IEEE 802.1d draft standard between Local Area Network (LAN) segments. &#160;This memo is an extension to the SNMP MIB. [STANDARDS&#45;TRACK]">
<ellipse fill="green" stroke="black" stroke-width="3" cx="951.89" cy="-679.89" rx="194.28" ry="65.05"/>
<text xml:space="preserve" text-anchor="middle" x="951.89" y="-704.79" font-family="Times,serif" font-size="18.00">RFC1286</text>
<text xml:space="preserve" text-anchor="middle" x="951.89" y="-683.79" font-family="Times,serif" font-size="18.00">Definitions of Managed Objects for</text>
<text xml:space="preserve" text-anchor="middle" x="951.89" y="-662.79" font-family="Times,serif" font-size="18.00">Bridges</text>
<text xml:space="preserve" text-anchor="middle" x="951.89" y="-641.79" font-family="Times,serif" font-size="18.00">1991</text>
</a>
</g>
</g>
<!-- obs -->
<g id="node5" class="node">
<title>obs</title>
<polygon fill="lightblue" stroke="black" points="1346.61,-872.03 1280.36,-872.03 1280.36,-836.03 1346.61,-836.03 1346.61,-872.03"/>
<text xml:space="preserve" text-anchor="middle" x="1313.48" y="-848.98" font-family="Times,serif" font-size="14.00">obsoletes</text>
</g>
<!-- RFC1286&#45;&gt;obs -->
<g id="edge4" class="edge">
<title>RFC1286&#45;&gt;obs</title>
<path fill="none" stroke="black" d="M1064.32,-734.03C1133.8,-767.5 1219.09,-808.57 1269.71,-832.95"/>
<polygon fill="black" stroke="black" points="1268.08,-836.05 1278.61,-837.23 1271.11,-829.74 1268.08,-836.05"/>
</g>
<!-- updates -->
<g id="node6" class="node">
<title>updates</title>
<polygon fill="lightyellow" stroke="black" points="1069.82,-1089.17 1012.57,-1089.17 1012.57,-1053.17 1069.82,-1053.17 1069.82,-1089.17"/>
<text xml:space="preserve" text-anchor="middle" x="1041.19" y="-1066.12" font-family="Times,serif" font-size="14.00">updates</text>
</g>
<!-- RFC1286&#45;&gt;updates -->
<g id="edge5" class="edge">
<title>RFC1286&#45;&gt;updates</title>
<path fill="none" stroke="black" d="M966.93,-745.82C986.6,-831.97 1020.19,-979.17 1034.46,-1041.69"/>
<polygon fill="black" stroke="black" points="1031,-1042.24 1036.64,-1051.21 1037.82,-1040.68 1031,-1042.24"/>
</g>
<!-- cites -->
<g id="node8" class="node">
<title>cites</title>
<polygon fill="lightblue" stroke="black" points="728.65,-1011.67 674.65,-1011.67 674.65,-975.67 728.65,-975.67 728.65,-1011.67"/>
<text xml:space="preserve" text-anchor="middle" x="701.65" y="-988.62" font-family="Times,serif" font-size="14.00">cites</text>
</g>
<!-- RFC1286&#45;&gt;cites -->
<g id="edge7" class="edge">
<title>RFC1286&#45;&gt;cites</title>
<path fill="none" stroke="black" d="M900.95,-743.77C846.44,-812.11 762.54,-917.32 723.29,-966.54"/>
<polygon fill="black" stroke="black" points="720.72,-964.15 717.23,-974.15 726.2,-968.51 720.72,-964.15"/>
</g>
<!-- obs_by -->
<g id="node2" class="node">
<title>obs_by</title>
<polygon fill="lightblue" stroke="black" points="623.41,-523.76 557.16,-523.76 557.16,-487.76 623.41,-487.76 623.41,-523.76"/>
<text xml:space="preserve" text-anchor="middle" x="590.29" y="-500.71" font-family="Times,serif" font-size="14.00">obsoletes</text>
</g>
<!-- obs_by&#45;&gt;RFC1286 -->
<g id="edge1" class="edge">
<title>obs_by&#45;&gt;RFC1286</title>
<path fill="none" stroke="black" d="M623.66,-521.83C670.08,-544.18 756.62,-585.86 829.19,-620.8"/>
<polygon fill="black" stroke="black" points="827.44,-623.85 837.97,-625.03 830.48,-617.54 827.44,-623.85"/>
</g>
<!-- RFC1493 -->
<g id="node3" class="node">
<title>RFC1493</title>
<g id="a_node3"><a xlink:href="RFC1493.html" xlink:title="This memo defines a portion of the Management Information Base (MIB) for use with network management protocols in TCP/IP based internets. &#160;In particular it defines objects for managing MAC bridges based on the IEEE 802.1D&#45;1990 standard between Local Area Network (LAN) segments. [STANDARDS&#45;TRACK]" target="_top">
<ellipse fill="none" stroke="black" cx="149.2" cy="-679.89" rx="149.2" ry="52.33"/>
<text xml:space="preserve" text-anchor="middle" x="149.2" y="-699.59" font-family="Times,serif" font-size="14.00">RFC1493</text>
<text xml:space="preserve" text-anchor="middle" x="149.2" y="-683.09" font-family="Times,serif" font-size="14.00">Definitions of Managed Objects for</text>
<text xml:space="preserve" text-anchor="middle" x="149.2" y="-666.59" font-family="Times,serif" font-size="14.00">Bridges</text>
<text xml:space="preserve" text-anchor="middle" x="149.2" y="-650.09" font-family="Times,serif" font-size="14.00">1993</text>
</a>
</g>
</g>
<!-- RFC1493&#45;&gt;obs_by -->
<g id="edge2" class="edge">
<title>RFC1493&#45;&gt;obs_by</title>
<path fill="none" stroke="black" d="M248.74,-640.59C342.08,-603.75 477.3,-550.36 546.26,-523.14"/>
<polygon fill="black" stroke="black" points="547.31,-526.48 555.33,-519.56 544.74,-519.97 547.31,-526.48"/>
</g>
<!-- RFC1525 -->
<g id="node4" class="node">
<title>RFC1525</title>
<g id="a_node4"><a xlink:href="RFC1525.html" xlink:title="This memo defines a portion of the Management Information Base (MIB) for use with network management protocols in TCP/IP based internets. &#160;In particular, it defines objects for managing source routing and source routing transparent bridges. &#160;These bridges are also required to implement relevant groups in the Bridge MIB. [STANDARDS&#45;TRACK]" target="_top">
<ellipse fill="none" stroke="black" cx="451.42" cy="-52.33" rx="149.2" ry="52.33"/>
<text xml:space="preserve" text-anchor="middle" x="451.42" y="-72.03" font-family="Times,serif" font-size="14.00">RFC1525</text>
<text xml:space="preserve" text-anchor="middle" x="451.42" y="-55.53" font-family="Times,serif" font-size="14.00">Definitions of Managed Objects for</text>
<text xml:space="preserve" text-anchor="middle" x="451.42" y="-39.03" font-family="Times,serif" font-size="14.00">Source Routing Bridges</text>
<text xml:space="preserve" text-anchor="middle" x="451.42" y="-22.53" font-family="Times,serif" font-size="14.00">1993</text>
</a>
</g>
</g>
<!-- RFC1525&#45;&gt;obs_by -->
<g id="edge3" class="edge">
<title>RFC1525&#45;&gt;obs_by</title>
<path fill="none" stroke="black" d="M467.48,-104.78C496.83,-200.6 558.2,-400.97 581.26,-476.29"/>
<polygon fill="black" stroke="black" points="577.91,-477.29 584.18,-485.82 584.6,-475.24 577.91,-477.29"/>
</g>
<!-- updated_by -->
<g id="node7" class="node">
<title>updated_by</title>
<polygon fill="lightyellow" stroke="black" points="1069.82,-306.61 1012.57,-306.61 1012.57,-270.61 1069.82,-270.61 1069.82,-306.61"/>
<text xml:space="preserve" text-anchor="middle" x="1041.19" y="-283.56" font-family="Times,serif" font-size="14.00">updates</text>
</g>
<!-- updated_by&#45;&gt;RFC1286 -->
<g id="edge6" class="edge">
<title>updated_by&#45;&gt;RFC1286</title>
<path fill="none" stroke="black" d="M1037.01,-306.96C1025.14,-358.94 990.79,-509.43 969.53,-602.59"/>
<polygon fill="black" stroke="black" points="966.15,-601.65 967.34,-612.18 972.98,-603.2 966.15,-601.65"/>
</g>
<!-- rev_cites -->
<g id="node9" class="node">
<title>rev_cites</title>
<polygon fill="lightblue" stroke="black" points="1340.48,-523.76 1286.48,-523.76 1286.48,-487.76 1340.48,-487.76 1340.48,-523.76"/>
<text xml:space="preserve" text-anchor="middle" x="1313.48" y="-500.71" font-family="Times,serif" font-size="14.00">cites</text>
</g>
<!-- rev_cites&#45;&gt;RFC1286 -->
<g id="edge8" class="edge">
<title>rev_cites&#45;&gt;RFC1286</title>
<path fill="none" stroke="black" d="M1286.01,-518.99C1241.37,-540.48 1150.46,-584.26 1074.73,-620.73"/>
<polygon fill="black" stroke="black" points="1073.48,-617.45 1065.99,-624.94 1076.52,-623.76 1073.48,-617.45"/>
</g>
<!-- RFC1700 -->
<g id="node10" class="node">
<title>RFC1700</title>
<g id="a_node10"><a xlink:href="RFC1700.html" xlink:title="This RFC is a snapshot of the ongoing process of the assignment of protocol parameters for the Internet protocol suite. &#160;To make the current information readily available the assignments are kept up&#45;to&#45; date in a set of online text files. &#160;This memo is a status report on the parameters (i.e., numbers and keywords) used in protocols in the Internet community." target="_top">
<ellipse fill="none" stroke="black" cx="1675.08" cy="-331.62" rx="85.03" ry="40.66"/>
<text xml:space="preserve" text-anchor="middle" x="1675.08" y="-343.07" font-family="Times,serif" font-size="14.00">RFC1700</text>
<text xml:space="preserve" text-anchor="middle" x="1675.08" y="-326.57" font-family="Times,serif" font-size="14.00">Assigned Numbers</text>
<text xml:space="preserve" text-anchor="middle" x="1675.08" y="-310.07" font-family="Times,serif" font-size="14.00">1994</text>
</a>
</g>
</g>
<!-- RFC1700&#45;&gt;rev_cites -->
<g id="edge9" class="edge">
<title>RFC1700&#45;&gt;rev_cites</title>
<path fill="none" stroke="black" d="M1614.97,-360.57C1539.79,-396.77 1413.38,-457.65 1350.84,-487.76"/>
<polygon fill="black" stroke="black" points="1349.51,-484.52 1342.01,-492.02 1352.54,-490.83 1349.51,-484.52"/>
</g>
</g>
</svg>
