<?xml version="1.0" encoding="UTF-8" standalone="no"?>
<!DOCTYPE svg PUBLIC "-//W3C//DTD SVG 1.1//EN"
 "http://www.w3.org/Graphics/SVG/1.1/DTD/svg11.dtd">
<!-- Generated by graphviz version 14.1.1 (20251213.1925)
 -->
<!-- Title: Flow Pages: 1 -->
<svg width="1206pt" height="859pt"
 viewBox="0.00 0.00 1206.00 859.00" xmlns="http://www.w3.org/2000/svg" xmlns:xlink="http://www.w3.org/1999/xlink">
<g id="graph0" class="graph" transform="scale(1 1) rotate(0) translate(4 854.82)">
<title>Flow</title>
<polygon fill="white" stroke="none" points="-4,4 -4,-854.82 1201.58,-854.82 1201.58,4 -4,4"/>
<!-- RFC1721 -->
<g id="node1" class="node">
<title>RFC1721</title>
<g id="a_node1"><a xlink:title="As required by Routing Protocol Criteria (RFC 1264), this report documents the key features of the RIP&#45;2 protocol and the current implementation experience. &#160;This report is a prerequisite to advancing RIP&#45;2 on the standards track. &#160;This memo provides information for the Internet community. &#160;This memo does not specify an Internet standard of any kind.">
<ellipse fill="green" stroke="black" stroke-width="3" cx="376.14" cy="-414.08" rx="175.72" ry="50.2"/>
<text xml:space="preserve" text-anchor="middle" x="376.14" y="-428.48" font-family="Times,serif" font-size="18.00">RFC1721</text>
<text xml:space="preserve" text-anchor="middle" x="376.14" y="-407.48" font-family="Times,serif" font-size="18.00">RIP Version 2 Protocol Analysis</text>
<text xml:space="preserve" text-anchor="middle" x="376.14" y="-386.48" font-family="Times,serif" font-size="18.00">1994</text>
</a>
</g>
</g>
<!-- obs -->
<g id="node3" class="node">
<title>obs</title>
<polygon fill="lightblue" stroke="black" points="752.28,-630.12 686.03,-630.12 686.03,-594.12 752.28,-594.12 752.28,-630.12"/>
<text xml:space="preserve" text-anchor="middle" x="719.15" y="-607.07" font-family="Times,serif" font-size="14.00">obsoletes</text>
</g>
<!-- RFC1721&#45;&gt;obs -->
<g id="edge2" class="edge">
<title>RFC1721&#45;&gt;obs</title>
<path fill="none" stroke="black" d="M455.7,-460.01C525,-500.03 622.76,-556.46 677.62,-588.14"/>
<polygon fill="black" stroke="black" points="675.62,-591.03 686.03,-593 679.12,-584.97 675.62,-591.03"/>
</g>
<!-- updates -->
<g id="node5" class="node">
<title>updates</title>
<polygon fill="lightyellow" stroke="black" points="404.76,-828.16 347.51,-828.16 347.51,-792.16 404.76,-792.16 404.76,-828.16"/>
<text xml:space="preserve" text-anchor="middle" x="376.14" y="-805.11" font-family="Times,serif" font-size="14.00">updates</text>
</g>
<!-- RFC1721&#45;&gt;updates -->
<g id="edge4" class="edge">
<title>RFC1721&#45;&gt;updates</title>
<path fill="none" stroke="black" d="M376.14,-465.45C376.14,-549.4 376.14,-713.32 376.14,-780.43"/>
<polygon fill="black" stroke="black" points="372.64,-780.28 376.14,-790.28 379.64,-780.28 372.64,-780.28"/>
</g>
<!-- cites -->
<g id="node7" class="node">
<title>cites</title>
<polygon fill="lightblue" stroke="black" points="60.12,-630.12 6.12,-630.12 6.12,-594.12 60.12,-594.12 60.12,-630.12"/>
<text xml:space="preserve" text-anchor="middle" x="33.12" y="-607.07" font-family="Times,serif" font-size="14.00">cites</text>
</g>
<!-- RFC1721&#45;&gt;cites -->
<g id="edge6" class="edge">
<title>RFC1721&#45;&gt;cites</title>
<path fill="none" stroke="black" d="M296.58,-460.01C225.37,-501.12 124.14,-559.57 70.24,-590.69"/>
<polygon fill="black" stroke="black" points="68.66,-587.56 61.75,-595.59 72.16,-593.62 68.66,-587.56"/>
</g>
<!-- obs_by -->
<g id="node2" class="node">
<title>obs_by</title>
<polygon fill="lightblue" stroke="black" points="66.25,-234.04 0,-234.04 0,-198.04 66.25,-198.04 66.25,-234.04"/>
<text xml:space="preserve" text-anchor="middle" x="33.12" y="-210.99" font-family="Times,serif" font-size="14.00">obsoletes</text>
</g>
<!-- obs_by&#45;&gt;RFC1721 -->
<g id="edge1" class="edge">
<title>obs_by&#45;&gt;RFC1721</title>
<path fill="none" stroke="black" d="M65.09,-234.49C115.15,-263.39 213.84,-320.38 286.69,-362.44"/>
<polygon fill="black" stroke="black" points="284.62,-365.28 295.03,-367.25 288.12,-359.22 284.62,-365.28"/>
</g>
<!-- RFC1387 -->
<g id="node4" class="node">
<title>RFC1387</title>
<g id="a_node4"><a xlink:href="RFC1387.html" xlink:title="As required by Routing Protocol Criteria (RFC 1264), this report documents the key features of the RIP&#45;2 protocol and the current implementation experience. &#160;This memo provides information for the Internet community. &#160;It does not specify an Internet standard." target="_top">
<ellipse fill="none" stroke="black" cx="1062.17" cy="-810.16" rx="135.41" ry="40.66"/>
<text xml:space="preserve" text-anchor="middle" x="1062.17" y="-821.61" font-family="Times,serif" font-size="14.00">RFC1387</text>
<text xml:space="preserve" text-anchor="middle" x="1062.17" y="-805.11" font-family="Times,serif" font-size="14.00">RIP Version 2 Protocol Analysis</text>
<text xml:space="preserve" text-anchor="middle" x="1062.17" y="-788.61" font-family="Times,serif" font-size="14.00">1993</text>
</a>
</g>
</g>
<!-- obs&#45;&gt;RFC1387 -->
<g id="edge3" class="edge">
<title>obs&#45;&gt;RFC1387</title>
<path fill="none" stroke="black" d="M751.12,-630.57C805.15,-661.77 915.87,-725.69 989.57,-768.24"/>
<polygon fill="black" stroke="black" points="987.54,-771.11 997.95,-773.08 991.04,-765.05 987.54,-771.11"/>
</g>
<!-- updated_by -->
<g id="node6" class="node">
<title>updated_by</title>
<polygon fill="lightyellow" stroke="black" points="404.76,-36 347.51,-36 347.51,0 404.76,0 404.76,-36"/>
<text xml:space="preserve" text-anchor="middle" x="376.14" y="-12.95" font-family="Times,serif" font-size="14.00">updates</text>
</g>
<!-- updated_by&#45;&gt;RFC1721 -->
<g id="edge5" class="edge">
<title>updated_by&#45;&gt;RFC1721</title>
<path fill="none" stroke="black" d="M376.14,-36.31C376.14,-91.61 376.14,-258.76 376.14,-351.1"/>
<polygon fill="black" stroke="black" points="372.64,-351.01 376.14,-361.01 379.64,-351.01 372.64,-351.01"/>
</g>
<!-- rev_cites -->
<g id="node8" class="node">
<title>rev_cites</title>
<polygon fill="lightblue" stroke="black" points="746.15,-234.04 692.15,-234.04 692.15,-198.04 746.15,-198.04 746.15,-234.04"/>
<text xml:space="preserve" text-anchor="middle" x="719.15" y="-210.99" font-family="Times,serif" font-size="14.00">cites</text>
</g>
<!-- rev_cites&#45;&gt;RFC1721 -->
<g id="edge7" class="edge">
<title>rev_cites&#45;&gt;RFC1721</title>
<path fill="none" stroke="black" d="M691.66,-231.91C643.28,-259.84 540.94,-318.93 465.87,-362.27"/>
<polygon fill="black" stroke="black" points="464.16,-359.22 457.25,-367.25 467.66,-365.28 464.16,-359.22"/>
</g>
</g>
</svg>
