<?xml version="1.0" encoding="UTF-8" standalone="no"?>
<!DOCTYPE svg PUBLIC "-//W3C//DTD SVG 1.1//EN"
 "http://www.w3.org/Graphics/SVG/1.1/DTD/svg11.dtd">
<!-- Generated by graphviz version 14.1.1 (20251213.1925)
 -->
<!-- Title: Flow Pages: 1 -->
<svg width="1144pt" height="795pt"
 viewBox="0.00 0.00 1144.00 795.00" xmlns="http://www.w3.org/2000/svg" xmlns:xlink="http://www.w3.org/1999/xlink">
<g id="graph0" class="graph" transform="scale(1 1) rotate(0) translate(4 790.61)">
<title>Flow</title>
<polygon fill="white" stroke="none" points="-4,4 -4,-790.61 1140.44,-790.61 1140.44,4 -4,4"/>
<!-- RFC1254 -->
<g id="node1" class="node">
<title>RFC1254</title>
<g id="a_node1"><a xlink:title="The purpose of this paper is to present a review of the congestion control approaches, as a way of encouraging new discussion and experimentation. &#160;Included in the survey are Source Quench, Random Drop, Congestion Indication (DEC Bit), and Fair Queueing.">
<ellipse fill="green" stroke="black" stroke-width="3" cx="348.34" cy="-404.63" rx="200.11" ry="50.2"/>
<text xml:space="preserve" text-anchor="middle" x="348.34" y="-419.03" font-family="Times,serif" font-size="18.00">RFC1254</text>
<text xml:space="preserve" text-anchor="middle" x="348.34" y="-398.03" font-family="Times,serif" font-size="18.00">Gateway Congestion Control Survey</text>
<text xml:space="preserve" text-anchor="middle" x="348.34" y="-377.03" font-family="Times,serif" font-size="18.00">1991</text>
</a>
</g>
</g>
<!-- obs -->
<g id="node3" class="node">
<title>obs</title>
<polygon fill="lightblue" stroke="black" points="696.67,-604.62 630.42,-604.62 630.42,-568.62 696.67,-568.62 696.67,-604.62"/>
<text xml:space="preserve" text-anchor="middle" x="663.55" y="-581.57" font-family="Times,serif" font-size="14.00">obsoletes</text>
</g>
<!-- RFC1254&#45;&gt;obs -->
<g id="edge2" class="edge">
<title>RFC1254&#45;&gt;obs</title>
<path fill="none" stroke="black" d="M429.92,-451.73C491.4,-487.23 573.17,-534.44 621.88,-562.56"/>
<polygon fill="black" stroke="black" points="620.03,-565.54 630.44,-567.51 623.53,-559.48 620.03,-565.54"/>
</g>
<!-- updates -->
<g id="node4" class="node">
<title>updates</title>
<polygon fill="lightyellow" stroke="black" points="376.96,-786.61 319.71,-786.61 319.71,-750.61 376.96,-750.61 376.96,-786.61"/>
<text xml:space="preserve" text-anchor="middle" x="348.34" y="-763.56" font-family="Times,serif" font-size="14.00">updates</text>
</g>
<!-- RFC1254&#45;&gt;updates -->
<g id="edge3" class="edge">
<title>RFC1254&#45;&gt;updates</title>
<path fill="none" stroke="black" d="M348.34,-456.01C348.34,-533.35 348.34,-677.21 348.34,-739.07"/>
<polygon fill="black" stroke="black" points="344.84,-738.8 348.34,-748.8 351.84,-738.8 344.84,-738.8"/>
</g>
<!-- cites -->
<g id="node6" class="node">
<title>cites</title>
<polygon fill="lightblue" stroke="black" points="60.13,-604.62 6.13,-604.62 6.13,-568.62 60.13,-568.62 60.13,-604.62"/>
<text xml:space="preserve" text-anchor="middle" x="33.13" y="-581.57" font-family="Times,serif" font-size="14.00">cites</text>
</g>
<!-- RFC1254&#45;&gt;cites -->
<g id="edge5" class="edge">
<title>RFC1254&#45;&gt;cites</title>
<path fill="none" stroke="black" d="M266.75,-451.73C203.36,-488.33 118.4,-537.39 70.35,-565.13"/>
<polygon fill="black" stroke="black" points="68.61,-562.09 61.7,-570.12 72.11,-568.15 68.61,-562.09"/>
</g>
<!-- obs_by -->
<g id="node2" class="node">
<title>obs_by</title>
<polygon fill="lightblue" stroke="black" points="66.25,-240.65 0,-240.65 0,-204.65 66.25,-204.65 66.25,-240.65"/>
<text xml:space="preserve" text-anchor="middle" x="33.12" y="-217.6" font-family="Times,serif" font-size="14.00">obsoletes</text>
</g>
<!-- obs_by&#45;&gt;RFC1254 -->
<g id="edge1" class="edge">
<title>obs_by&#45;&gt;RFC1254</title>
<path fill="none" stroke="black" d="M65.08,-241.1C109.67,-266.84 192.33,-314.56 256.89,-351.84"/>
<polygon fill="black" stroke="black" points="254.96,-354.77 265.37,-356.73 258.46,-348.7 254.96,-354.77"/>
</g>
<!-- updated_by -->
<g id="node5" class="node">
<title>updated_by</title>
<polygon fill="lightyellow" stroke="black" points="376.96,-58.66 319.71,-58.66 319.71,-22.66 376.96,-22.66 376.96,-58.66"/>
<text xml:space="preserve" text-anchor="middle" x="348.34" y="-35.61" font-family="Times,serif" font-size="14.00">updates</text>
</g>
<!-- updated_by&#45;&gt;RFC1254 -->
<g id="edge4" class="edge">
<title>updated_by&#45;&gt;RFC1254</title>
<path fill="none" stroke="black" d="M348.34,-58.96C348.34,-110.23 348.34,-257.06 348.34,-341.96"/>
<polygon fill="black" stroke="black" points="344.84,-341.74 348.34,-351.74 351.84,-341.74 344.84,-341.74"/>
</g>
<!-- rev_cites -->
<g id="node7" class="node">
<title>rev_cites</title>
<polygon fill="lightblue" stroke="black" points="690.55,-240.65 636.55,-240.65 636.55,-204.65 690.55,-204.65 690.55,-240.65"/>
<text xml:space="preserve" text-anchor="middle" x="663.55" y="-217.6" font-family="Times,serif" font-size="14.00">cites</text>
</g>
<!-- rev_cites&#45;&gt;RFC1254 -->
<g id="edge6" class="edge">
<title>rev_cites&#45;&gt;RFC1254</title>
<path fill="none" stroke="black" d="M636.12,-238.48C592.8,-263.49 506.56,-313.28 439.74,-351.86"/>
<polygon fill="black" stroke="black" points="438.25,-348.68 431.34,-356.71 441.75,-354.74 438.25,-348.68"/>
</g>
<!-- RFC5783 -->
<g id="node8" class="node">
<title>RFC5783</title>
<g id="a_node8"><a xlink:href="RFC5783.html" xlink:title="This document is an informational snapshot taken by the IRTF&#39;s Internet Congestion Control Research Group (ICCRG) in October 2008. &#160;It provides a survey of congestion control topics described by documents in the RFC series. &#160;This does not modify or update the specifications or status of the RFC documents that are discussed. &#160;It may be used as a reference or starting point for the future work of the research group, especially in noting gaps or open issues in the current IETF standards. &#160;This document is not an Internet Standards Track specification; it is published for informational purposes." target="_top">
<ellipse fill="none" stroke="black" cx="978.76" cy="-40.66" rx="157.68" ry="40.66"/>
<text xml:space="preserve" text-anchor="middle" x="978.76" y="-52.11" font-family="Times,serif" font-size="14.00">RFC5783</text>
<text xml:space="preserve" text-anchor="middle" x="978.76" y="-35.61" font-family="Times,serif" font-size="14.00">Congestion Control in the RFC Series</text>
<text xml:space="preserve" text-anchor="middle" x="978.76" y="-19.11" font-family="Times,serif" font-size="14.00">2010</text>
</a>
</g>
</g>
<!-- RFC5783&#45;&gt;rev_cites -->
<g id="edge7" class="edge">
<title>RFC5783&#45;&gt;rev_cites</title>
<path fill="none" stroke="black" d="M913.83,-78.15C849.45,-115.31 753.09,-170.95 700.7,-201.2"/>
<polygon fill="black" stroke="black" points="699.05,-198.11 692.14,-206.14 702.55,-204.17 699.05,-198.11"/>
</g>
</g>
</svg>
