<?xml version="1.0" encoding="UTF-8" standalone="no"?>
<!DOCTYPE svg PUBLIC "-//W3C//DTD SVG 1.1//EN"
 "http://www.w3.org/Graphics/SVG/1.1/DTD/svg11.dtd">
<!-- Generated by graphviz version 14.1.1 (20251213.1925)
 -->
<!-- Title: Flow Pages: 1 -->
<svg width="1043pt" height="943pt"
 viewBox="0.00 0.00 1043.00 943.00" xmlns="http://www.w3.org/2000/svg" xmlns:xlink="http://www.w3.org/1999/xlink">
<g id="graph0" class="graph" transform="scale(1 1) rotate(0) translate(4 939.31)">
<title>Flow</title>
<polygon fill="white" stroke="none" points="-4,4 -4,-939.31 1038.88,-939.31 1038.88,4 -4,4"/>
<!-- RFC1874 -->
<g id="node1" class="node">
<title>RFC1874</title>
<g id="a_node1"><a xlink:title="This document proposes new media sub&#45;types of Text/SGML and Application/SGML. &#160;This memo defines an Experimental Protocol for the Internet community.">
<ellipse fill="green" stroke="black" stroke-width="3" cx="332.86" cy="-625.09" rx="115.26" ry="50.2"/>
<text xml:space="preserve" text-anchor="middle" x="332.86" y="-639.49" font-family="Times,serif" font-size="18.00">RFC1874</text>
<text xml:space="preserve" text-anchor="middle" x="332.86" y="-618.49" font-family="Times,serif" font-size="18.00">SGML Media Types</text>
<text xml:space="preserve" text-anchor="middle" x="332.86" y="-597.49" font-family="Times,serif" font-size="18.00">1995</text>
</a>
</g>
</g>
<!-- obs -->
<g id="node3" class="node">
<title>obs</title>
<polygon fill="lightblue" stroke="black" points="636.03,-773.14 569.78,-773.14 569.78,-737.14 636.03,-737.14 636.03,-773.14"/>
<text xml:space="preserve" text-anchor="middle" x="602.91" y="-750.09" font-family="Times,serif" font-size="14.00">obsoletes</text>
</g>
<!-- RFC1874&#45;&gt;obs -->
<g id="edge2" class="edge">
<title>RFC1874&#45;&gt;obs</title>
<path fill="none" stroke="black" d="M411.69,-663.06C459.85,-686.25 519.62,-715.03 559.39,-734.18"/>
<polygon fill="black" stroke="black" points="557.66,-737.23 568.18,-738.42 560.69,-730.93 557.66,-737.23"/>
</g>
<!-- updates -->
<g id="node4" class="node">
<title>updates</title>
<polygon fill="lightyellow" stroke="black" points="428.18,-935.31 370.93,-935.31 370.93,-899.31 428.18,-899.31 428.18,-935.31"/>
<text xml:space="preserve" text-anchor="middle" x="399.55" y="-912.26" font-family="Times,serif" font-size="14.00">updates</text>
</g>
<!-- RFC1874&#45;&gt;updates -->
<g id="edge3" class="edge">
<title>RFC1874&#45;&gt;updates</title>
<path fill="none" stroke="black" d="M344.55,-676.33C358.53,-737.57 381.45,-837.99 392.78,-887.63"/>
<polygon fill="black" stroke="black" points="389.36,-888.37 395,-897.34 396.18,-886.82 389.36,-888.37"/>
</g>
<!-- cites -->
<g id="node6" class="node">
<title>cites</title>
<polygon fill="lightblue" stroke="black" points="172.98,-877.43 118.98,-877.43 118.98,-841.43 172.98,-841.43 172.98,-877.43"/>
<text xml:space="preserve" text-anchor="middle" x="145.98" y="-854.38" font-family="Times,serif" font-size="14.00">cites</text>
</g>
<!-- RFC1874&#45;&gt;cites -->
<g id="edge5" class="edge">
<title>RFC1874&#45;&gt;cites</title>
<path fill="none" stroke="black" d="M294.14,-673.65C255.73,-721.8 198.29,-793.83 167.43,-832.54"/>
<polygon fill="black" stroke="black" points="164.98,-829.99 161.48,-839.99 170.45,-834.35 164.98,-829.99"/>
</g>
<!-- obs_by -->
<g id="node2" class="node">
<title>obs_by</title>
<polygon fill="lightblue" stroke="black" points="66.25,-643.09 0,-643.09 0,-607.09 66.25,-607.09 66.25,-643.09"/>
<text xml:space="preserve" text-anchor="middle" x="33.13" y="-620.04" font-family="Times,serif" font-size="14.00">obsoletes</text>
</g>
<!-- obs_by&#45;&gt;RFC1874 -->
<g id="edge1" class="edge">
<title>obs_by&#45;&gt;RFC1874</title>
<path fill="none" stroke="black" d="M66.64,-625.09C100.29,-625.09 154.29,-625.09 204.88,-625.09"/>
<polygon fill="black" stroke="black" points="204.77,-628.59 214.77,-625.09 204.77,-621.59 204.77,-628.59"/>
</g>
<!-- updated_by -->
<g id="node5" class="node">
<title>updated_by</title>
<polygon fill="lightyellow" stroke="black" points="174.6,-408.75 117.35,-408.75 117.35,-372.75 174.6,-372.75 174.6,-408.75"/>
<text xml:space="preserve" text-anchor="middle" x="145.98" y="-385.7" font-family="Times,serif" font-size="14.00">updates</text>
</g>
<!-- updated_by&#45;&gt;RFC1874 -->
<g id="edge4" class="edge">
<title>updated_by&#45;&gt;RFC1874</title>
<path fill="none" stroke="black" d="M160.64,-409.14C187.56,-442.9 245.9,-516.05 287.2,-567.84"/>
<polygon fill="black" stroke="black" points="284.27,-569.78 293.24,-575.42 289.74,-565.42 284.27,-569.78"/>
</g>
<!-- rev_cites -->
<g id="node7" class="node">
<title>rev_cites</title>
<polygon fill="lightblue" stroke="black" points="546.74,-408.75 492.74,-408.75 492.74,-372.75 546.74,-372.75 546.74,-408.75"/>
<text xml:space="preserve" text-anchor="middle" x="519.74" y="-385.7" font-family="Times,serif" font-size="14.00">cites</text>
</g>
<!-- rev_cites&#45;&gt;RFC1874 -->
<g id="edge6" class="edge">
<title>rev_cites&#45;&gt;RFC1874</title>
<path fill="none" stroke="black" d="M505.07,-409.14C478.15,-442.9 419.81,-516.05 378.52,-567.84"/>
<polygon fill="black" stroke="black" points="375.97,-565.42 372.47,-575.42 381.44,-569.78 375.97,-565.42"/>
</g>
<!-- RFC3023 -->
<g id="node8" class="node">
<title>RFC3023</title>
<g id="a_node8"><a xlink:href="RFC3023.html" xlink:title="This document standardizes five new media types &#45;&#45; text/xml, application/xml, text/xml&#45;external&#45;parsed&#45;entity, application/xml&#45; external&#45;parsed&#45;entity, and application/xml&#45;dtd &#45;&#45; for use in exchanging network entities that are related to the Extensible Markup Language (XML). &#160;This document also standardizes a convention (using the suffix &#39;+xml&#39;) for naming media types outside of these five types when those media types represent XML MIME (Multipurpose Internet Mail Extensions) entities. [STANDARDS&#45;TRACK]" target="_top">
<ellipse fill="none" stroke="black" cx="466.25" cy="-40.66" rx="85.56" ry="40.66"/>
<text xml:space="preserve" text-anchor="middle" x="466.25" y="-52.11" font-family="Times,serif" font-size="14.00">RFC3023</text>
<text xml:space="preserve" text-anchor="middle" x="466.25" y="-35.61" font-family="Times,serif" font-size="14.00">XML Media Types</text>
<text xml:space="preserve" text-anchor="middle" x="466.25" y="-19.11" font-family="Times,serif" font-size="14.00">2001</text>
</a>
</g>
</g>
<!-- RFC3023&#45;&gt;rev_cites -->
<g id="edge7" class="edge">
<title>RFC3023&#45;&gt;rev_cites</title>
<path fill="none" stroke="black" d="M472.49,-81.5C483.39,-152.86 505.66,-298.59 515.21,-361.15"/>
<polygon fill="black" stroke="black" points="511.75,-361.65 516.72,-371.01 518.67,-360.59 511.75,-361.65"/>
</g>
<!-- RFC3252 -->
<g id="node9" class="node">
<title>RFC3252</title>
<g id="a_node9"><a xlink:href="RFC3252.html" xlink:title="This document defines a reformulation of IP and two transport layer protocols (TCP and UDP) as XML applications. &#160;This memo provides information for the Internet community." target="_top">
<ellipse fill="none" stroke="black" cx="872.95" cy="-364.99" rx="161.93" ry="40.66"/>
<text xml:space="preserve" text-anchor="middle" x="872.95" y="-376.44" font-family="Times,serif" font-size="14.00">RFC3252</text>
<text xml:space="preserve" text-anchor="middle" x="872.95" y="-359.94" font-family="Times,serif" font-size="14.00">Binary Lexical Octet Ad&#45;hoc Transport</text>
<text xml:space="preserve" text-anchor="middle" x="872.95" y="-343.44" font-family="Times,serif" font-size="14.00">2002</text>
</a>
</g>
</g>
<!-- RFC3252&#45;&gt;rev_cites -->
<g id="edge8" class="edge">
<title>RFC3252&#45;&gt;rev_cites</title>
<path fill="none" stroke="black" d="M717,-376.37C658.51,-380.63 596.95,-385.12 558.47,-387.93"/>
<polygon fill="black" stroke="black" points="558.29,-384.43 548.57,-388.65 558.8,-391.41 558.29,-384.43"/>
</g>
</g>
</svg>
