<?xml version="1.0" encoding="UTF-8" standalone="no"?>
<!DOCTYPE svg PUBLIC "-//W3C//DTD SVG 1.1//EN"
 "http://www.w3.org/Graphics/SVG/1.1/DTD/svg11.dtd">
<!-- Generated by graphviz version 14.1.1 (20251213.1925)
 -->
<!-- Title: Flow Pages: 1 -->
<svg width="1338pt" height="1116pt"
 viewBox="0.00 0.00 1338.00 1116.00" xmlns="http://www.w3.org/2000/svg" xmlns:xlink="http://www.w3.org/1999/xlink">
<g id="graph0" class="graph" transform="scale(1 1) rotate(0) translate(4 1112.22)">
<title>Flow</title>
<polygon fill="white" stroke="none" points="-4,4 -4,-1112.22 1333.83,-1112.22 1333.83,4 -4,4"/>
<!-- RFC1479 -->
<g id="node1" class="node">
<title>RFC1479</title>
<g id="a_node1"><a xlink:title="We present the set of protocols and procedures that constitute Inter&#45; Domain Policy Routing (IDPR). [STANDARDS&#45;TRACK]">
<ellipse fill="green" stroke="black" stroke-width="3" cx="449.63" cy="-740.36" rx="208.6" ry="65.05"/>
<text xml:space="preserve" text-anchor="middle" x="449.63" y="-765.26" font-family="Times,serif" font-size="18.00">RFC1479</text>
<text xml:space="preserve" text-anchor="middle" x="449.63" y="-744.26" font-family="Times,serif" font-size="18.00">Inter&#45;Domain Policy Routing Protocol</text>
<text xml:space="preserve" text-anchor="middle" x="449.63" y="-723.26" font-family="Times,serif" font-size="18.00">Specification: Version 1</text>
<text xml:space="preserve" text-anchor="middle" x="449.63" y="-702.26" font-family="Times,serif" font-size="18.00">1993</text>
</a>
</g>
</g>
<!-- obs -->
<g id="node3" class="node">
<title>obs</title>
<polygon fill="lightblue" stroke="black" points="832.61,-903.28 766.36,-903.28 766.36,-867.28 832.61,-867.28 832.61,-903.28"/>
<text xml:space="preserve" text-anchor="middle" x="799.49" y="-880.23" font-family="Times,serif" font-size="14.00">obsoletes</text>
</g>
<!-- RFC1479&#45;&gt;obs -->
<g id="edge2" class="edge">
<title>RFC1479&#45;&gt;obs</title>
<path fill="none" stroke="black" d="M576.93,-793.09C639.56,-819.03 711.01,-848.63 755.68,-867.13"/>
<polygon fill="black" stroke="black" points="754.19,-870.3 764.77,-870.9 756.87,-863.84 754.19,-870.3"/>
</g>
<!-- updates -->
<g id="node4" class="node">
<title>updates</title>
<polygon fill="lightyellow" stroke="black" points="623.17,-1108.22 565.92,-1108.22 565.92,-1072.22 623.17,-1072.22 623.17,-1108.22"/>
<text xml:space="preserve" text-anchor="middle" x="594.55" y="-1085.17" font-family="Times,serif" font-size="14.00">updates</text>
</g>
<!-- RFC1479&#45;&gt;updates -->
<g id="edge3" class="edge">
<title>RFC1479&#45;&gt;updates</title>
<path fill="none" stroke="black" d="M476.89,-806.17C508.65,-882.83 559.69,-1006.06 582.66,-1061.53"/>
<polygon fill="black" stroke="black" points="579.36,-1062.69 586.42,-1070.59 585.82,-1060.01 579.36,-1062.69"/>
</g>
<!-- cites -->
<g id="node6" class="node">
<title>cites</title>
<polygon fill="lightblue" stroke="black" points="331.72,-1108.22 277.72,-1108.22 277.72,-1072.22 331.72,-1072.22 331.72,-1108.22"/>
<text xml:space="preserve" text-anchor="middle" x="304.72" y="-1085.17" font-family="Times,serif" font-size="14.00">cites</text>
</g>
<!-- RFC1479&#45;&gt;cites -->
<g id="edge5" class="edge">
<title>RFC1479&#45;&gt;cites</title>
<path fill="none" stroke="black" d="M422.38,-806.17C390.62,-882.83 339.58,-1006.06 316.6,-1061.53"/>
<polygon fill="black" stroke="black" points="313.44,-1060.01 312.85,-1070.59 319.91,-1062.69 313.44,-1060.01"/>
</g>
<!-- obs_by -->
<g id="node2" class="node">
<title>obs_by</title>
<polygon fill="lightblue" stroke="black" points="132.91,-903.28 66.66,-903.28 66.66,-867.28 132.91,-867.28 132.91,-903.28"/>
<text xml:space="preserve" text-anchor="middle" x="99.78" y="-880.23" font-family="Times,serif" font-size="14.00">obsoletes</text>
</g>
<!-- obs_by&#45;&gt;RFC1479 -->
<g id="edge1" class="edge">
<title>obs_by&#45;&gt;RFC1479</title>
<path fill="none" stroke="black" d="M133.33,-871.38C174.48,-854.34 246.82,-824.37 311.93,-797.4"/>
<polygon fill="black" stroke="black" points="313.02,-800.74 320.92,-793.68 310.34,-794.27 313.02,-800.74"/>
</g>
<!-- updated_by -->
<g id="node5" class="node">
<title>updated_by</title>
<polygon fill="lightyellow" stroke="black" points="128.41,-613.45 71.16,-613.45 71.16,-577.45 128.41,-577.45 128.41,-613.45"/>
<text xml:space="preserve" text-anchor="middle" x="99.78" y="-590.4" font-family="Times,serif" font-size="14.00">updates</text>
</g>
<!-- updated_by&#45;&gt;RFC1479 -->
<g id="edge4" class="edge">
<title>updated_by&#45;&gt;RFC1479</title>
<path fill="none" stroke="black" d="M128.71,-607.43C168.88,-624.07 244.27,-655.3 311.89,-683.31"/>
<polygon fill="black" stroke="black" points="310.26,-686.42 320.84,-687.02 312.94,-679.95 310.26,-686.42"/>
</g>
<!-- rev_cites -->
<g id="node7" class="node">
<title>rev_cites</title>
<polygon fill="lightblue" stroke="black" points="621.55,-408.51 567.55,-408.51 567.55,-372.51 621.55,-372.51 621.55,-408.51"/>
<text xml:space="preserve" text-anchor="middle" x="594.55" y="-385.46" font-family="Times,serif" font-size="14.00">cites</text>
</g>
<!-- rev_cites&#45;&gt;RFC1479 -->
<g id="edge6" class="edge">
<title>rev_cites&#45;&gt;RFC1479</title>
<path fill="none" stroke="black" d="M586.96,-408.83C567.6,-455.57 515.49,-581.37 481.32,-663.87"/>
<polygon fill="black" stroke="black" points="478.1,-662.49 477.51,-673.06 484.57,-665.16 478.1,-662.49"/>
</g>
<!-- RFC1701 -->
<g id="node8" class="node">
<title>RFC1701</title>
<g id="a_node8"><a xlink:href="RFC1701.html" xlink:title="This document specifies a protocol for performing encapsulation of an arbitrary network layer protocol over another arbitrary network layer protocol. &#160;This memo provides information for the Internet community. &#160;This memo does not specify an Internet standard of any kind." target="_top">
<ellipse fill="none" stroke="black" cx="159.81" cy="-40.66" rx="159.81" ry="40.66"/>
<text xml:space="preserve" text-anchor="middle" x="159.81" y="-52.11" font-family="Times,serif" font-size="14.00">RFC1701</text>
<text xml:space="preserve" text-anchor="middle" x="159.81" y="-35.61" font-family="Times,serif" font-size="14.00">Generic Routing Encapsulation (GRE)</text>
<text xml:space="preserve" text-anchor="middle" x="159.81" y="-19.11" font-family="Times,serif" font-size="14.00">1994</text>
</a>
</g>
</g>
<!-- RFC1701&#45;&gt;rev_cites -->
<g id="edge7" class="edge">
<title>RFC1701&#45;&gt;rev_cites</title>
<path fill="none" stroke="black" d="M208.41,-79.77C298.26,-152.08 488.01,-304.78 563.05,-365.16"/>
<polygon fill="black" stroke="black" points="560.45,-367.57 570.44,-371.11 564.84,-362.11 560.45,-367.57"/>
</g>
<!-- RFC2784 -->
<g id="node9" class="node">
<title>RFC2784</title>
<g id="a_node9"><a xlink:href="RFC2784.html" xlink:title="This document specifies a protocol for encapsulation of an arbitrary network layer protocol over another arbitrary network layer protocol. [STANDARDS&#45;TRACK]" target="_top">
<ellipse fill="none" stroke="black" cx="739.46" cy="-40.66" rx="159.81" ry="40.66"/>
<text xml:space="preserve" text-anchor="middle" x="739.46" y="-52.11" font-family="Times,serif" font-size="14.00">RFC2784</text>
<text xml:space="preserve" text-anchor="middle" x="739.46" y="-35.61" font-family="Times,serif" font-size="14.00">Generic Routing Encapsulation (GRE)</text>
<text xml:space="preserve" text-anchor="middle" x="739.46" y="-19.11" font-family="Times,serif" font-size="14.00">2000</text>
</a>
</g>
</g>
<!-- RFC2784&#45;&gt;rev_cites -->
<g id="edge8" class="edge">
<title>RFC2784&#45;&gt;rev_cites</title>
<path fill="none" stroke="black" d="M722.55,-81.48C692.89,-153.08 632.19,-299.62 606.48,-361.7"/>
<polygon fill="black" stroke="black" points="603.27,-360.3 602.68,-370.87 609.74,-362.98 603.27,-360.3"/>
</g>
<!-- RFC2896 -->
<g id="node10" class="node">
<title>RFC2896</title>
<g id="a_node10"><a xlink:href="RFC2896.html" xlink:title="This memo contains various protocol identifier examples, which can be used to produce valid protocolDirTable ``INDEX`` encodings, as defined by the Remote Network Monitoring MIB and the RMON Protocol Identifier Reference. &#160;This memo provides information for the Internet community." target="_top">
<ellipse fill="none" stroke="black" cx="1149.34" cy="-450.54" rx="180.49" ry="52.33"/>
<text xml:space="preserve" text-anchor="middle" x="1149.34" y="-470.24" font-family="Times,serif" font-size="14.00">RFC2896</text>
<text xml:space="preserve" text-anchor="middle" x="1149.34" y="-453.74" font-family="Times,serif" font-size="14.00">Remote Network Monitoring MIB Protocol</text>
<text xml:space="preserve" text-anchor="middle" x="1149.34" y="-437.24" font-family="Times,serif" font-size="14.00">Identifier Macros</text>
<text xml:space="preserve" text-anchor="middle" x="1149.34" y="-420.74" font-family="Times,serif" font-size="14.00">2000</text>
</a>
</g>
</g>
<!-- RFC2896&#45;&gt;rev_cites -->
<g id="edge9" class="edge">
<title>RFC2896&#45;&gt;rev_cites</title>
<path fill="none" stroke="black" d="M979.87,-432.2C858.22,-419.04 703.77,-402.33 633.05,-394.68"/>
<polygon fill="black" stroke="black" points="633.87,-391.25 623.55,-393.65 633.11,-398.2 633.87,-391.25"/>
</g>
</g>
</svg>
