<?xml version="1.0" encoding="UTF-8" standalone="no"?>
<!DOCTYPE svg PUBLIC "-//W3C//DTD SVG 1.1//EN"
 "http://www.w3.org/Graphics/SVG/1.1/DTD/svg11.dtd">
<!-- Generated by graphviz version 14.1.1 (20251213.1925)
 -->
<!-- Title: Flow Pages: 1 -->
<svg width="695pt" height="247pt"
 viewBox="0.00 0.00 695.00 247.00" xmlns="http://www.w3.org/2000/svg" xmlns:xlink="http://www.w3.org/1999/xlink">
<g id="graph0" class="graph" transform="scale(1 1) rotate(0) translate(4 243.33)">
<title>Flow</title>
<polygon fill="white" stroke="none" points="-4,4 -4,-243.33 690.56,-243.33 690.56,4 -4,4"/>
<!-- RFC1180 -->
<g id="node1" class="node">
<title>RFC1180</title>
<g id="a_node1"><a xlink:title="This RFC is a tutorial on the TCP&#45;IP protocol suite, focusing particularly on the steps in forwarding an IP datagram from source host to destination host through a router. &#160;It does not specify an Internet standard.">
<ellipse fill="none" stroke="black" cx="525.66" cy="-167.33" rx="69.65" ry="40.66"/>
<text xml:space="preserve" text-anchor="middle" x="525.66" y="-178.78" font-family="Times,serif" font-size="14.00">RFC1180</text>
<text xml:space="preserve" text-anchor="middle" x="525.66" y="-162.28" font-family="Times,serif" font-size="14.00">TCP/IP tutorial</text>
<text xml:space="preserve" text-anchor="middle" x="525.66" y="-145.78" font-family="Times,serif" font-size="14.00">1991</text>
</a>
</g>
</g>
<!-- obs -->
<g id="node3" class="node">
<title>obs</title>
<polygon fill="none" stroke="black" points="686.56,-239.33 620.31,-239.33 620.31,-203.33 686.56,-203.33 686.56,-239.33"/>
<text xml:space="preserve" text-anchor="middle" x="653.44" y="-216.28" font-family="Times,serif" font-size="14.00">obsoletes</text>
</g>
<!-- RFC1180&#45;&gt;obs -->
<g id="edge2" class="edge">
<title>RFC1180&#45;&gt;obs</title>
<path fill="none" stroke="black" d="M582.56,-191.33C591.71,-195.25 601.05,-199.26 609.8,-203.02"/>
<polygon fill="black" stroke="black" points="608.18,-206.13 618.75,-206.86 610.94,-199.7 608.18,-206.13"/>
</g>
<!-- updates -->
<g id="node4" class="node">
<title>updates</title>
<polygon fill="none" stroke="black" points="682.06,-185.33 624.81,-185.33 624.81,-149.33 682.06,-149.33 682.06,-185.33"/>
<text xml:space="preserve" text-anchor="middle" x="653.44" y="-162.28" font-family="Times,serif" font-size="14.00">updates</text>
</g>
<!-- RFC1180&#45;&gt;updates -->
<g id="edge3" class="edge">
<title>RFC1180&#45;&gt;updates</title>
<path fill="none" stroke="black" d="M595.81,-167.33C601.84,-167.33 607.8,-167.33 613.45,-167.33"/>
<polygon fill="black" stroke="black" points="613.04,-170.83 623.04,-167.33 613.04,-163.83 613.04,-170.83"/>
</g>
<!-- cites -->
<g id="node6" class="node">
<title>cites</title>
<polygon fill="none" stroke="black" points="680.44,-131.33 626.44,-131.33 626.44,-95.33 680.44,-95.33 680.44,-131.33"/>
<text xml:space="preserve" text-anchor="middle" x="653.44" y="-108.28" font-family="Times,serif" font-size="14.00">cites</text>
</g>
<!-- RFC1180&#45;&gt;cites -->
<g id="edge5" class="edge">
<title>RFC1180&#45;&gt;cites</title>
<path fill="none" stroke="black" d="M582.56,-143.33C593.86,-138.48 605.46,-133.5 615.89,-129.02"/>
<polygon fill="black" stroke="black" points="617.06,-132.32 624.87,-125.16 614.3,-125.89 617.06,-132.32"/>
</g>
<!-- obs_by -->
<g id="node2" class="node">
<title>obs_by</title>
<polygon fill="none" stroke="black" points="431.01,-239.33 364.76,-239.33 364.76,-203.33 431.01,-203.33 431.01,-239.33"/>
<text xml:space="preserve" text-anchor="middle" x="397.89" y="-216.28" font-family="Times,serif" font-size="14.00">obsoletes</text>
</g>
<!-- obs_by&#45;&gt;RFC1180 -->
<g id="edge1" class="edge">
<title>obs_by&#45;&gt;RFC1180</title>
<path fill="none" stroke="black" d="M431.28,-207.42C439.73,-203.79 449.14,-199.75 458.65,-195.67"/>
<polygon fill="black" stroke="black" points="459.76,-199 467.57,-191.84 457,-192.57 459.76,-199"/>
</g>
<!-- updated_by -->
<g id="node5" class="node">
<title>updated_by</title>
<polygon fill="none" stroke="black" points="426.51,-185.33 369.26,-185.33 369.26,-149.33 426.51,-149.33 426.51,-185.33"/>
<text xml:space="preserve" text-anchor="middle" x="397.89" y="-162.28" font-family="Times,serif" font-size="14.00">updates</text>
</g>
<!-- updated_by&#45;&gt;RFC1180 -->
<g id="edge4" class="edge">
<title>updated_by&#45;&gt;RFC1180</title>
<path fill="none" stroke="black" d="M426.8,-167.33C432.23,-167.33 438.17,-167.33 444.35,-167.33"/>
<polygon fill="black" stroke="black" points="444.17,-170.83 454.17,-167.33 444.17,-163.83 444.17,-170.83"/>
</g>
<!-- rev_cites -->
<g id="node7" class="node">
<title>rev_cites</title>
<polygon fill="none" stroke="black" points="424.89,-131.33 370.89,-131.33 370.89,-95.33 424.89,-95.33 424.89,-131.33"/>
<text xml:space="preserve" text-anchor="middle" x="397.89" y="-108.28" font-family="Times,serif" font-size="14.00">cites</text>
</g>
<!-- rev_cites&#45;&gt;RFC1180 -->
<g id="edge6" class="edge">
<title>rev_cites&#45;&gt;RFC1180</title>
<path fill="none" stroke="black" d="M425.26,-124.65C435.06,-128.86 446.68,-133.84 458.45,-138.9"/>
<polygon fill="black" stroke="black" points="456.84,-142.01 467.41,-142.74 459.6,-135.58 456.84,-142.01"/>
</g>
<!-- RFC4614 -->
<g id="node8" class="node">
<title>RFC4614</title>
<g id="a_node8"><a xlink:href="RFC4614.html" xlink:title="This document contains a roadmap to the Requests for Comments (RFC) documents relating to the Internet&#39;s Transmission Control Protocol (TCP). &#160;This roadmap provides a brief summary of the documents defining TCP and various TCP extensions that have accumulated in the RFC series. &#160;This serves as a guide and quick reference for both TCP implementers and other parties who desire information contained in the TCP&#45;related RFCs. &#160;This memo provides information for the Internet community." target="_top">
<ellipse fill="none" stroke="black" cx="169.88" cy="-175.33" rx="169.88" ry="52.33"/>
<text xml:space="preserve" text-anchor="middle" x="169.88" y="-195.03" font-family="Times,serif" font-size="14.00">RFC4614</text>
<text xml:space="preserve" text-anchor="middle" x="169.88" y="-178.53" font-family="Times,serif" font-size="14.00">A Roadmap for Transmission Control</text>
<text xml:space="preserve" text-anchor="middle" x="169.88" y="-162.03" font-family="Times,serif" font-size="14.00">Protocol (TCP) Specification Documents</text>
<text xml:space="preserve" text-anchor="middle" x="169.88" y="-145.53" font-family="Times,serif" font-size="14.00">2006</text>
</a>
</g>
</g>
<!-- RFC4614&#45;&gt;rev_cites -->
<g id="edge7" class="edge">
<title>RFC4614&#45;&gt;rev_cites</title>
<path fill="none" stroke="black" d="M297.76,-140.52C320.38,-134.32 342.24,-128.32 359.65,-123.54"/>
<polygon fill="black" stroke="black" points="360.24,-127.01 368.96,-120.99 358.39,-120.26 360.24,-127.01"/>
</g>
<!-- RFC7414 -->
<g id="node9" class="node">
<title>RFC7414</title>
<g id="a_node9"><a xlink:href="RFC7414.html" xlink:title="This document contains a roadmap to the Request for Comments (RFC) documents relating to the Internet&#39;s Transmission Control Protocol (TCP). This roadmap provides a brief summary of the documents defining TCP and various TCP extensions that have accumulated in the RFC series. This serves as a guide and quick reference for both TCP implementers and other parties who desire information contained in the TCP&#45;related RFCs. This document obsoletes RFC 4614." target="_top">
<ellipse fill="none" stroke="black" cx="169.88" cy="-52.33" rx="169.88" ry="52.33"/>
<text xml:space="preserve" text-anchor="middle" x="169.88" y="-72.03" font-family="Times,serif" font-size="14.00">RFC7414</text>
<text xml:space="preserve" text-anchor="middle" x="169.88" y="-55.53" font-family="Times,serif" font-size="14.00">A Roadmap for Transmission Control</text>
<text xml:space="preserve" text-anchor="middle" x="169.88" y="-39.03" font-family="Times,serif" font-size="14.00">Protocol (TCP) Specification Documents</text>
<text xml:space="preserve" text-anchor="middle" x="169.88" y="-22.53" font-family="Times,serif" font-size="14.00">2015</text>
</a>
</g>
</g>
<!-- RFC7414&#45;&gt;rev_cites -->
<g id="edge8" class="edge">
<title>RFC7414&#45;&gt;rev_cites</title>
<path fill="none" stroke="black" d="M298.75,-86.84C321.19,-92.9 342.85,-98.74 360.08,-103.39"/>
<polygon fill="black" stroke="black" points="358.7,-106.64 369.26,-105.87 360.52,-99.88 358.7,-106.64"/>
</g>
</g>
</svg>
