<?xml version="1.0" encoding="UTF-8" standalone="no"?>
<!DOCTYPE svg PUBLIC "-//W3C//DTD SVG 1.1//EN"
 "http://www.w3.org/Graphics/SVG/1.1/DTD/svg11.dtd">
<!-- Generated by graphviz version 14.1.1 (20251213.1925)
 -->
<!-- Title: Flow Pages: 1 -->
<svg width="1187pt" height="830pt"
 viewBox="0.00 0.00 1187.00 830.00" xmlns="http://www.w3.org/2000/svg" xmlns:xlink="http://www.w3.org/1999/xlink">
<g id="graph0" class="graph" transform="scale(1 1) rotate(0) translate(4 825.97)">
<title>Flow</title>
<polygon fill="white" stroke="none" points="-4,4 -4,-825.97 1183.43,-825.97 1183.43,4 -4,4"/>
<!-- RFC1705 -->
<g id="node1" class="node">
<title>RFC1705</title>
<g id="a_node1"><a xlink:title="This document was submitted to the IETF IPng area in response to RFC 1550. &#160;This RFC suggests that a new version of TCP (TCPng), and UDP, be developed and deployed. &#160;This memo provides information for the Internet community. &#160;This memo does not specify an Internet standard of any kind.">
<ellipse fill="green" stroke="black" stroke-width="3" cx="358.6" cy="-428.15" rx="187.38" ry="65.05"/>
<text xml:space="preserve" text-anchor="middle" x="358.6" y="-453.05" font-family="Times,serif" font-size="18.00">RFC1705</text>
<text xml:space="preserve" text-anchor="middle" x="358.6" y="-432.05" font-family="Times,serif" font-size="18.00">Six Virtual Inches to the Left: The</text>
<text xml:space="preserve" text-anchor="middle" x="358.6" y="-411.05" font-family="Times,serif" font-size="18.00">Problem with IPng</text>
<text xml:space="preserve" text-anchor="middle" x="358.6" y="-390.05" font-family="Times,serif" font-size="18.00">1994</text>
</a>
</g>
</g>
<!-- obs -->
<g id="node3" class="node">
<title>obs</title>
<polygon fill="lightblue" stroke="black" points="717.2,-634.06 650.95,-634.06 650.95,-598.06 717.2,-598.06 717.2,-634.06"/>
<text xml:space="preserve" text-anchor="middle" x="684.07" y="-611.01" font-family="Times,serif" font-size="14.00">obsoletes</text>
</g>
<!-- RFC1705&#45;&gt;obs -->
<g id="edge2" class="edge">
<title>RFC1705&#45;&gt;obs</title>
<path fill="none" stroke="black" d="M456.69,-484.78C518.77,-520.63 595.83,-565.12 642.42,-592.01"/>
<polygon fill="black" stroke="black" points="640.44,-594.91 650.85,-596.88 643.94,-588.85 640.44,-594.91"/>
</g>
<!-- updates -->
<g id="node4" class="node">
<title>updates</title>
<polygon fill="lightyellow" stroke="black" points="387.22,-821.97 329.97,-821.97 329.97,-785.97 387.22,-785.97 387.22,-821.97"/>
<text xml:space="preserve" text-anchor="middle" x="358.6" y="-798.92" font-family="Times,serif" font-size="14.00">updates</text>
</g>
<!-- RFC1705&#45;&gt;updates -->
<g id="edge3" class="edge">
<title>RFC1705&#45;&gt;updates</title>
<path fill="none" stroke="black" d="M358.6,-494.47C358.6,-577.08 358.6,-714.61 358.6,-774.55"/>
<polygon fill="black" stroke="black" points="355.1,-774.27 358.6,-784.27 362.1,-774.27 355.1,-774.27"/>
</g>
<!-- cites -->
<g id="node6" class="node">
<title>cites</title>
<polygon fill="lightblue" stroke="black" points="60.13,-634.06 6.13,-634.06 6.13,-598.06 60.13,-598.06 60.13,-634.06"/>
<text xml:space="preserve" text-anchor="middle" x="33.13" y="-611.01" font-family="Times,serif" font-size="14.00">cites</text>
</g>
<!-- RFC1705&#45;&gt;cites -->
<g id="edge5" class="edge">
<title>RFC1705&#45;&gt;cites</title>
<path fill="none" stroke="black" d="M260.5,-484.78C196.47,-521.76 116.48,-567.93 70.46,-594.51"/>
<polygon fill="black" stroke="black" points="68.84,-591.4 61.93,-599.43 72.34,-597.46 68.84,-591.4"/>
</g>
<!-- obs_by -->
<g id="node2" class="node">
<title>obs_by</title>
<polygon fill="lightblue" stroke="black" points="66.25,-258.24 0,-258.24 0,-222.24 66.25,-222.24 66.25,-258.24"/>
<text xml:space="preserve" text-anchor="middle" x="33.13" y="-235.19" font-family="Times,serif" font-size="14.00">obsoletes</text>
</g>
<!-- obs_by&#45;&gt;RFC1705 -->
<g id="edge1" class="edge">
<title>obs_by&#45;&gt;RFC1705</title>
<path fill="none" stroke="black" d="M64.93,-258.6C107.6,-283.24 185.55,-328.24 250.41,-365.69"/>
<polygon fill="black" stroke="black" points="248.57,-368.67 258.98,-370.64 252.07,-362.61 248.57,-368.67"/>
</g>
<!-- updated_by -->
<g id="node5" class="node">
<title>updated_by</title>
<polygon fill="lightyellow" stroke="black" points="387.22,-70.33 329.97,-70.33 329.97,-34.33 387.22,-34.33 387.22,-70.33"/>
<text xml:space="preserve" text-anchor="middle" x="358.6" y="-47.28" font-family="Times,serif" font-size="14.00">updates</text>
</g>
<!-- updated_by&#45;&gt;RFC1705 -->
<g id="edge4" class="edge">
<title>updated_by&#45;&gt;RFC1705</title>
<path fill="none" stroke="black" d="M358.6,-70.71C358.6,-120.69 358.6,-261.28 358.6,-350.52"/>
<polygon fill="black" stroke="black" points="355.1,-350.43 358.6,-360.43 362.1,-350.43 355.1,-350.43"/>
</g>
<!-- rev_cites -->
<g id="node7" class="node">
<title>rev_cites</title>
<polygon fill="lightblue" stroke="black" points="711.07,-258.24 657.07,-258.24 657.07,-222.24 711.07,-222.24 711.07,-258.24"/>
<text xml:space="preserve" text-anchor="middle" x="684.07" y="-235.19" font-family="Times,serif" font-size="14.00">cites</text>
</g>
<!-- rev_cites&#45;&gt;RFC1705 -->
<g id="edge6" class="edge">
<title>rev_cites&#45;&gt;RFC1705</title>
<path fill="none" stroke="black" d="M656.6,-256.1C615.04,-280.09 533.92,-326.93 466.79,-365.68"/>
<polygon fill="black" stroke="black" points="465.22,-362.55 458.31,-370.58 468.72,-368.61 465.22,-362.55"/>
</g>
<!-- RFC7414 -->
<g id="node8" class="node">
<title>RFC7414</title>
<g id="a_node8"><a xlink:href="RFC7414.html" xlink:title="This document contains a roadmap to the Request for Comments (RFC) documents relating to the Internet&#39;s Transmission Control Protocol (TCP). This roadmap provides a brief summary of the documents defining TCP and various TCP extensions that have accumulated in the RFC series. This serves as a guide and quick reference for both TCP implementers and other parties who desire information contained in the TCP&#45;related RFCs. This document obsoletes RFC 4614." target="_top">
<ellipse fill="none" stroke="black" cx="1009.54" cy="-52.33" rx="169.88" ry="52.33"/>
<text xml:space="preserve" text-anchor="middle" x="1009.54" y="-72.03" font-family="Times,serif" font-size="14.00">RFC7414</text>
<text xml:space="preserve" text-anchor="middle" x="1009.54" y="-55.53" font-family="Times,serif" font-size="14.00">A Roadmap for Transmission Control</text>
<text xml:space="preserve" text-anchor="middle" x="1009.54" y="-39.03" font-family="Times,serif" font-size="14.00">Protocol (TCP) Specification Documents</text>
<text xml:space="preserve" text-anchor="middle" x="1009.54" y="-22.53" font-family="Times,serif" font-size="14.00">2015</text>
</a>
</g>
</g>
<!-- RFC7414&#45;&gt;rev_cites -->
<g id="edge7" class="edge">
<title>RFC7414&#45;&gt;rev_cites</title>
<path fill="none" stroke="black" d="M929.09,-98.78C862.69,-137.11 771.5,-189.76 721.18,-218.81"/>
<polygon fill="black" stroke="black" points="719.61,-215.68 712.7,-223.71 723.11,-221.74 719.61,-215.68"/>
</g>
</g>
</svg>
