<?xml version="1.0" encoding="UTF-8" standalone="no"?>
<!DOCTYPE svg PUBLIC "-//W3C//DTD SVG 1.1//EN"
 "http://www.w3.org/Graphics/SVG/1.1/DTD/svg11.dtd">
<!-- Generated by graphviz version 14.1.1 (20251213.1925)
 -->
<!-- Title: Flow Pages: 1 -->
<svg width="385pt" height="152pt"
 viewBox="0.00 0.00 385.00 152.00" xmlns="http://www.w3.org/2000/svg" xmlns:xlink="http://www.w3.org/1999/xlink">
<g id="graph0" class="graph" transform="scale(1 1) rotate(0) translate(4 148)">
<title>Flow</title>
<polygon fill="white" stroke="none" points="-4,4 -4,-148 380.95,-148 380.95,4 -4,4"/>
<!-- RFC1432 -->
<g id="node1" class="node">
<title>RFC1432</title>
<g id="a_node1"><a xlink:title="Here is a list of books related to using the Internet. &#160;This memo provides information for the Internet community. &#160;It does not specify an Internet standard.">
<ellipse fill="green" stroke="black" cx="188.48" cy="-72" rx="97.23" ry="40.66"/>
<text xml:space="preserve" text-anchor="middle" x="188.48" y="-83.45" font-family="Times,serif" font-size="14.00">RFC1432</text>
<text xml:space="preserve" text-anchor="middle" x="188.48" y="-66.95" font-family="Times,serif" font-size="14.00">Recent Internet Books</text>
<text xml:space="preserve" text-anchor="middle" x="188.48" y="-50.45" font-family="Times,serif" font-size="14.00">1993</text>
</a>
</g>
</g>
<!-- obs -->
<g id="node3" class="node">
<title>obs</title>
<polygon fill="lightblue" stroke="black" points="376.95,-144 310.7,-144 310.7,-108 376.95,-108 376.95,-144"/>
<text xml:space="preserve" text-anchor="middle" x="343.83" y="-120.95" font-family="Times,serif" font-size="14.00">obsoletes</text>
</g>
<!-- RFC1432&#45;&gt;obs -->
<g id="edge2" class="edge">
<title>RFC1432&#45;&gt;obs</title>
<path fill="none" stroke="black" d="M263.46,-98.05C275.87,-102.42 288.37,-106.82 299.66,-110.8"/>
<polygon fill="black" stroke="black" points="298.48,-114.1 309.08,-114.12 300.81,-107.49 298.48,-114.1"/>
</g>
<!-- updates -->
<g id="node4" class="node">
<title>updates</title>
<polygon fill="lightyellow" stroke="black" points="372.45,-90 315.2,-90 315.2,-54 372.45,-54 372.45,-90"/>
<text xml:space="preserve" text-anchor="middle" x="343.83" y="-66.95" font-family="Times,serif" font-size="14.00">updates</text>
</g>
<!-- RFC1432&#45;&gt;updates -->
<g id="edge3" class="edge">
<title>RFC1432&#45;&gt;updates</title>
<path fill="none" stroke="black" d="M286.16,-72C292.18,-72 298.02,-72 303.52,-72"/>
<polygon fill="black" stroke="black" points="303.44,-75.5 313.44,-72 303.44,-68.5 303.44,-75.5"/>
</g>
<!-- cites -->
<g id="node6" class="node">
<title>cites</title>
<polygon fill="lightblue" stroke="black" points="370.83,-36 316.83,-36 316.83,0 370.83,0 370.83,-36"/>
<text xml:space="preserve" text-anchor="middle" x="343.83" y="-12.95" font-family="Times,serif" font-size="14.00">cites</text>
</g>
<!-- RFC1432&#45;&gt;cites -->
<g id="edge5" class="edge">
<title>RFC1432&#45;&gt;cites</title>
<path fill="none" stroke="black" d="M263.46,-45.95C278.15,-40.78 292.97,-35.56 305.77,-31.05"/>
<polygon fill="black" stroke="black" points="306.74,-34.42 315.01,-27.8 304.41,-27.82 306.74,-34.42"/>
</g>
<!-- obs_by -->
<g id="node2" class="node">
<title>obs_by</title>
<polygon fill="lightblue" stroke="black" points="66.25,-144 0,-144 0,-108 66.25,-108 66.25,-144"/>
<text xml:space="preserve" text-anchor="middle" x="33.12" y="-120.95" font-family="Times,serif" font-size="14.00">obsoletes</text>
</g>
<!-- obs_by&#45;&gt;RFC1432 -->
<g id="edge1" class="edge">
<title>obs_by&#45;&gt;RFC1432</title>
<path fill="none" stroke="black" d="M66.65,-114.55C77.36,-110.77 89.82,-106.39 102.59,-101.89"/>
<polygon fill="black" stroke="black" points="103.66,-105.23 111.93,-98.6 101.33,-98.62 103.66,-105.23"/>
</g>
<!-- updated_by -->
<g id="node5" class="node">
<title>updated_by</title>
<polygon fill="lightyellow" stroke="black" points="61.75,-90 4.5,-90 4.5,-54 61.75,-54 61.75,-90"/>
<text xml:space="preserve" text-anchor="middle" x="33.12" y="-66.95" font-family="Times,serif" font-size="14.00">updates</text>
</g>
<!-- updated_by&#45;&gt;RFC1432 -->
<g id="edge4" class="edge">
<title>updated_by&#45;&gt;RFC1432</title>
<path fill="none" stroke="black" d="M61.9,-72C67.24,-72 73.12,-72 79.34,-72"/>
<polygon fill="black" stroke="black" points="79.33,-75.5 89.33,-72 79.33,-68.5 79.33,-75.5"/>
</g>
<!-- rev_cites -->
<g id="node7" class="node">
<title>rev_cites</title>
<polygon fill="lightblue" stroke="black" points="60.12,-36 6.12,-36 6.12,0 60.12,0 60.12,-36"/>
<text xml:space="preserve" text-anchor="middle" x="33.12" y="-12.95" font-family="Times,serif" font-size="14.00">cites</text>
</g>
<!-- rev_cites&#45;&gt;RFC1432 -->
<g id="edge6" class="edge">
<title>rev_cites&#45;&gt;RFC1432</title>
<path fill="none" stroke="black" d="M60.49,-27.28C72.45,-31.5 87.35,-36.74 102.68,-42.14"/>
<polygon fill="black" stroke="black" points="101.32,-45.37 111.91,-45.39 103.64,-38.77 101.32,-45.37"/>
</g>
</g>
</svg>
