<?xml version="1.0" encoding="UTF-8" standalone="no"?>
<!DOCTYPE svg PUBLIC "-//W3C//DTD SVG 1.1//EN"
 "http://www.w3.org/Graphics/SVG/1.1/DTD/svg11.dtd">
<!-- Generated by graphviz version 14.1.1 (20251213.1925)
 -->
<!-- Title: Flow Pages: 1 -->
<svg width="557pt" height="152pt"
 viewBox="0.00 0.00 557.00 152.00" xmlns="http://www.w3.org/2000/svg" xmlns:xlink="http://www.w3.org/1999/xlink">
<g id="graph0" class="graph" transform="scale(1 1) rotate(0) translate(4 148)">
<title>Flow</title>
<polygon fill="white" stroke="none" points="-4,4 -4,-148 552.78,-148 552.78,4 -4,4"/>
<!-- RFC1133 -->
<g id="node1" class="node">
<title>RFC1133</title>
<g id="a_node1"><a xlink:title="This document is a case study of the implementation of routing between the NSFNET and the DDN components (the MILNET and the ARPANET). &#160;We hope that it can be used to expand towards interconnection of other Administrative Domains. &#160;We would welcome discussion and suggestions about the methods employed for the interconnections. &#160;No standards are specified in this memo.">
<ellipse fill="none" stroke="black" cx="274.39" cy="-72" rx="183.14" ry="40.66"/>
<text xml:space="preserve" text-anchor="middle" x="274.39" y="-83.45" font-family="Times,serif" font-size="14.00">RFC1133</text>
<text xml:space="preserve" text-anchor="middle" x="274.39" y="-66.95" font-family="Times,serif" font-size="14.00">Routing between the NSFNET and the DDN</text>
<text xml:space="preserve" text-anchor="middle" x="274.39" y="-50.45" font-family="Times,serif" font-size="14.00">1989</text>
</a>
</g>
</g>
<!-- obs -->
<g id="node3" class="node">
<title>obs</title>
<polygon fill="none" stroke="black" points="548.78,-144 482.53,-144 482.53,-108 548.78,-108 548.78,-144"/>
<text xml:space="preserve" text-anchor="middle" x="515.66" y="-120.95" font-family="Times,serif" font-size="14.00">obsoletes</text>
</g>
<!-- RFC1133&#45;&gt;obs -->
<g id="edge2" class="edge">
<title>RFC1133&#45;&gt;obs</title>
<path fill="none" stroke="black" d="M404.13,-101.05C428.24,-106.5 451.86,-111.83 471.03,-116.15"/>
<polygon fill="black" stroke="black" points="470.06,-119.52 480.59,-118.31 471.6,-112.7 470.06,-119.52"/>
</g>
<!-- updates -->
<g id="node4" class="node">
<title>updates</title>
<polygon fill="none" stroke="black" points="544.28,-90 487.03,-90 487.03,-54 544.28,-54 544.28,-90"/>
<text xml:space="preserve" text-anchor="middle" x="515.66" y="-66.95" font-family="Times,serif" font-size="14.00">updates</text>
</g>
<!-- RFC1133&#45;&gt;updates -->
<g id="edge3" class="edge">
<title>RFC1133&#45;&gt;updates</title>
<path fill="none" stroke="black" d="M457.95,-72C464.17,-72 470.06,-72 475.54,-72"/>
<polygon fill="black" stroke="black" points="475.3,-75.5 485.3,-72 475.3,-68.5 475.3,-75.5"/>
</g>
<!-- cites -->
<g id="node6" class="node">
<title>cites</title>
<polygon fill="none" stroke="black" points="542.66,-36 488.66,-36 488.66,0 542.66,0 542.66,-36"/>
<text xml:space="preserve" text-anchor="middle" x="515.66" y="-12.95" font-family="Times,serif" font-size="14.00">cites</text>
</g>
<!-- RFC1133&#45;&gt;cites -->
<g id="edge5" class="edge">
<title>RFC1133&#45;&gt;cites</title>
<path fill="none" stroke="black" d="M404.13,-42.95C430.94,-36.89 457.14,-30.98 477.3,-26.43"/>
<polygon fill="black" stroke="black" points="477.97,-29.87 486.95,-24.25 476.43,-23.04 477.97,-29.87"/>
</g>
<!-- obs_by -->
<g id="node2" class="node">
<title>obs_by</title>
<polygon fill="none" stroke="black" points="66.25,-144 0,-144 0,-108 66.25,-108 66.25,-144"/>
<text xml:space="preserve" text-anchor="middle" x="33.12" y="-120.95" font-family="Times,serif" font-size="14.00">obsoletes</text>
</g>
<!-- obs_by&#45;&gt;RFC1133 -->
<g id="edge1" class="edge">
<title>obs_by&#45;&gt;RFC1133</title>
<path fill="none" stroke="black" d="M66.39,-118.72C84.45,-114.64 108.34,-109.25 133.47,-103.58"/>
<polygon fill="black" stroke="black" points="134.23,-107 143.21,-101.38 132.69,-100.17 134.23,-107"/>
</g>
<!-- updated_by -->
<g id="node5" class="node">
<title>updated_by</title>
<polygon fill="none" stroke="black" points="61.75,-90 4.5,-90 4.5,-54 61.75,-54 61.75,-90"/>
<text xml:space="preserve" text-anchor="middle" x="33.12" y="-66.95" font-family="Times,serif" font-size="14.00">updates</text>
</g>
<!-- updated_by&#45;&gt;RFC1133 -->
<g id="edge4" class="edge">
<title>updated_by&#45;&gt;RFC1133</title>
<path fill="none" stroke="black" d="M62.04,-72C67.41,-72 73.4,-72 79.86,-72"/>
<polygon fill="black" stroke="black" points="79.63,-75.5 89.63,-72 79.63,-68.5 79.63,-75.5"/>
</g>
<!-- rev_cites -->
<g id="node7" class="node">
<title>rev_cites</title>
<polygon fill="none" stroke="black" points="60.12,-36 6.12,-36 6.12,0 60.12,0 60.12,-36"/>
<text xml:space="preserve" text-anchor="middle" x="33.12" y="-12.95" font-family="Times,serif" font-size="14.00">cites</text>
</g>
<!-- rev_cites&#45;&gt;RFC1133 -->
<g id="edge6" class="edge">
<title>rev_cites&#45;&gt;RFC1133</title>
<path fill="none" stroke="black" d="M60.19,-23.88C78.82,-28.09 105.5,-34.11 133.72,-40.48"/>
<polygon fill="black" stroke="black" points="132.59,-43.81 143.12,-42.6 134.14,-36.98 132.59,-43.81"/>
</g>
</g>
</svg>
