<?xml version="1.0" encoding="UTF-8" standalone="no"?>
<!DOCTYPE svg PUBLIC "-//W3C//DTD SVG 1.1//EN"
 "http://www.w3.org/Graphics/SVG/1.1/DTD/svg11.dtd">
<!-- Generated by graphviz version 14.1.1 (20251213.1925)
 -->
<!-- Title: Flow Pages: 1 -->
<svg width="1711pt" height="1557pt"
 viewBox="0.00 0.00 1711.00 1557.00" xmlns="http://www.w3.org/2000/svg" xmlns:xlink="http://www.w3.org/1999/xlink">
<g id="graph0" class="graph" transform="scale(1 1) rotate(0) translate(4 1552.7)">
<title>Flow</title>
<polygon fill="white" stroke="none" points="-4,4 -4,-1552.7 1706.77,-1552.7 1706.77,4 -4,4"/>
<!-- RFC1782 -->
<g id="node1" class="node">
<title>RFC1782</title>
<g id="a_node1"><a xlink:title="The Trivial File Transfer Protocol is a simple, lock&#45;step, file transfer protocol which allows a client to get or put a file onto a remote host. &#160;This document describes a simple extension to TFTP to allow option negotiation prior to the file transfer.">
<ellipse fill="green" stroke="black" stroke-width="3" cx="849.64" cy="-780.18" rx="134.35" ry="50.2"/>
<text xml:space="preserve" text-anchor="middle" x="849.64" y="-794.58" font-family="Times,serif" font-size="18.00">RFC1782</text>
<text xml:space="preserve" text-anchor="middle" x="849.64" y="-773.58" font-family="Times,serif" font-size="18.00">TFTP Option Extension</text>
<text xml:space="preserve" text-anchor="middle" x="849.64" y="-752.58" font-family="Times,serif" font-size="18.00">1995</text>
</a>
</g>
</g>
<!-- obs -->
<g id="node4" class="node">
<title>obs</title>
<polygon fill="lightblue" stroke="black" points="1219.08,-960.15 1152.83,-960.15 1152.83,-924.15 1219.08,-924.15 1219.08,-960.15"/>
<text xml:space="preserve" text-anchor="middle" x="1185.96" y="-937.1" font-family="Times,serif" font-size="14.00">obsoletes</text>
</g>
<!-- RFC1782&#45;&gt;obs -->
<g id="edge3" class="edge">
<title>RFC1782&#45;&gt;obs</title>
<path fill="none" stroke="black" d="M933.64,-820.64C999.89,-852.54 1089.64,-895.76 1142.31,-921.13"/>
<polygon fill="black" stroke="black" points="1140.76,-924.27 1151.29,-925.45 1143.8,-917.96 1140.76,-924.27"/>
</g>
<!-- updates -->
<g id="node5" class="node">
<title>updates</title>
<polygon fill="lightyellow" stroke="black" points="961.33,-1162.11 904.08,-1162.11 904.08,-1126.11 961.33,-1126.11 961.33,-1162.11"/>
<text xml:space="preserve" text-anchor="middle" x="932.7" y="-1139.06" font-family="Times,serif" font-size="14.00">updates</text>
</g>
<!-- RFC1782&#45;&gt;updates -->
<g id="edge4" class="edge">
<title>RFC1782&#45;&gt;updates</title>
<path fill="none" stroke="black" d="M861.36,-831.55C879.05,-909.05 911.98,-1053.33 926.05,-1114.97"/>
<polygon fill="black" stroke="black" points="922.55,-1115.37 928.19,-1124.34 929.38,-1113.82 922.55,-1115.37"/>
</g>
<!-- cites -->
<g id="node8" class="node">
<title>cites</title>
<polygon fill="lightblue" stroke="black" points="643.9,-1090.03 589.9,-1090.03 589.9,-1054.03 643.9,-1054.03 643.9,-1090.03"/>
<text xml:space="preserve" text-anchor="middle" x="616.9" y="-1066.98" font-family="Times,serif" font-size="14.00">cites</text>
</g>
<!-- RFC1782&#45;&gt;cites -->
<g id="edge7" class="edge">
<title>RFC1782&#45;&gt;cites</title>
<path fill="none" stroke="black" d="M810.42,-829.36C761.01,-891.32 677.82,-995.64 638.6,-1044.82"/>
<polygon fill="black" stroke="black" points="636.02,-1042.43 632.53,-1052.43 641.5,-1046.8 636.02,-1042.43"/>
</g>
<!-- obs_by -->
<g id="node2" class="node">
<title>obs_by</title>
<polygon fill="lightblue" stroke="black" points="509.47,-798.18 443.22,-798.18 443.22,-762.18 509.47,-762.18 509.47,-798.18"/>
<text xml:space="preserve" text-anchor="middle" x="476.35" y="-775.13" font-family="Times,serif" font-size="14.00">obsoletes</text>
</g>
<!-- obs_by&#45;&gt;RFC1782 -->
<g id="edge1" class="edge">
<title>obs_by&#45;&gt;RFC1782</title>
<path fill="none" stroke="black" d="M509.8,-780.18C553.29,-780.18 632.05,-780.18 702.8,-780.18"/>
<polygon fill="black" stroke="black" points="702.57,-783.68 712.57,-780.18 702.57,-776.68 702.57,-783.68"/>
</g>
<!-- RFC2347 -->
<g id="node3" class="node">
<title>RFC2347</title>
<g id="a_node3"><a xlink:href="RFC2347.html" xlink:title="The Trivial File Transfer Protocol is a simple, lock&#45;step, file transfer protocol which allows a client to get or put a file onto a remote host. &#160;This document describes a simple extension to TFTP to allow option negotiation prior to the file transfer. [STANDARDS&#45;TRACK]" target="_top">
<ellipse fill="none" stroke="black" cx="103.06" cy="-780.18" rx="103.06" ry="40.66"/>
<text xml:space="preserve" text-anchor="middle" x="103.06" y="-791.63" font-family="Times,serif" font-size="14.00">RFC2347</text>
<text xml:space="preserve" text-anchor="middle" x="103.06" y="-775.13" font-family="Times,serif" font-size="14.00">TFTP Option Extension</text>
<text xml:space="preserve" text-anchor="middle" x="103.06" y="-758.63" font-family="Times,serif" font-size="14.00">1998</text>
</a>
</g>
</g>
<!-- RFC2347&#45;&gt;obs_by -->
<g id="edge2" class="edge">
<title>RFC2347&#45;&gt;obs_by</title>
<path fill="none" stroke="black" d="M206.55,-780.18C280.32,-780.18 375.88,-780.18 431.23,-780.18"/>
<polygon fill="black" stroke="black" points="431.23,-783.68 441.23,-780.18 431.23,-776.68 431.23,-783.68"/>
</g>
<!-- RFC1350 -->
<g id="node6" class="node">
<title>RFC1350</title>
<g id="a_node6"><a xlink:href="RFC1350.html" xlink:title="TFTP is a very simple protocol used to transfer files. &#160;It is from this that its name comes, Trivial File Transfer Protocol or TFTP. &#160;Each nonterminal packet is acknowledged separately. &#160;This document describes the protocol and its types of packets. &#160;The document also explains the reasons behind some of the design decisions. [STANDARDS&#45;TRACK]" target="_top">
<ellipse fill="none" stroke="black" cx="1015.77" cy="-1508.04" rx="135.41" ry="40.66"/>
<text xml:space="preserve" text-anchor="middle" x="1015.77" y="-1519.49" font-family="Times,serif" font-size="14.00">RFC1350</text>
<text xml:space="preserve" text-anchor="middle" x="1015.77" y="-1502.99" font-family="Times,serif" font-size="14.00">The TFTP Protocol (Revision 2)</text>
<text xml:space="preserve" text-anchor="middle" x="1015.77" y="-1486.49" font-family="Times,serif" font-size="14.00">1992</text>
</a>
</g>
</g>
<!-- updates&#45;&gt;RFC1350 -->
<g id="edge5" class="edge">
<title>updates&#45;&gt;RFC1350</title>
<path fill="none" stroke="black" d="M936.88,-1162.41C949.08,-1215.89 985.03,-1373.38 1003.9,-1456.04"/>
<polygon fill="black" stroke="black" points="1000.47,-1456.74 1006.1,-1465.71 1007.29,-1455.18 1000.47,-1456.74"/>
</g>
<!-- updated_by -->
<g id="node7" class="node">
<title>updated_by</title>
<polygon fill="lightyellow" stroke="black" points="645.52,-506.34 588.27,-506.34 588.27,-470.34 645.52,-470.34 645.52,-506.34"/>
<text xml:space="preserve" text-anchor="middle" x="616.9" y="-483.29" font-family="Times,serif" font-size="14.00">updates</text>
</g>
<!-- updated_by&#45;&gt;RFC1782 -->
<g id="edge6" class="edge">
<title>updated_by&#45;&gt;RFC1782</title>
<path fill="none" stroke="black" d="M631.45,-506.59C665.17,-548.87 749.8,-654.99 803.2,-721.95"/>
<polygon fill="black" stroke="black" points="800.28,-723.9 809.25,-729.54 805.75,-719.54 800.28,-723.9"/>
</g>
<!-- rev_cites -->
<g id="node9" class="node">
<title>rev_cites</title>
<polygon fill="lightblue" stroke="black" points="1109.38,-506.34 1055.38,-506.34 1055.38,-470.34 1109.38,-470.34 1109.38,-506.34"/>
<text xml:space="preserve" text-anchor="middle" x="1082.38" y="-483.29" font-family="Times,serif" font-size="14.00">cites</text>
</g>
<!-- rev_cites&#45;&gt;RFC1782 -->
<g id="edge8" class="edge">
<title>rev_cites&#45;&gt;RFC1782</title>
<path fill="none" stroke="black" d="M1067.82,-506.59C1034.1,-548.87 949.48,-654.99 896.08,-721.95"/>
<polygon fill="black" stroke="black" points="893.52,-719.54 890.03,-729.54 899,-723.9 893.52,-719.54"/>
</g>
<!-- RFC2074 -->
<g id="node10" class="node">
<title>RFC2074</title>
<g id="a_node10"><a xlink:href="RFC2074.html" xlink:title="This memo defines an experimental portion of the Management Information Base (MIB) for use with network management protocols in the Internet community. &#160;In particular, it describes the algorithms required to identify different protocol encapsulations managed with the Remote Network Monitoring MIB Version 2 [RMON2]. [STANDARDS&#45;TRACK]" target="_top">
<ellipse fill="none" stroke="black" cx="1015.77" cy="-52.33" rx="180.49" ry="52.33"/>
<text xml:space="preserve" text-anchor="middle" x="1015.77" y="-72.03" font-family="Times,serif" font-size="14.00">RFC2074</text>
<text xml:space="preserve" text-anchor="middle" x="1015.77" y="-55.53" font-family="Times,serif" font-size="14.00">Remote Network Monitoring MIB Protocol</text>
<text xml:space="preserve" text-anchor="middle" x="1015.77" y="-39.03" font-family="Times,serif" font-size="14.00">Identifiers</text>
<text xml:space="preserve" text-anchor="middle" x="1015.77" y="-22.53" font-family="Times,serif" font-size="14.00">1997</text>
</a>
</g>
</g>
<!-- RFC2074&#45;&gt;rev_cites -->
<g id="edge9" class="edge">
<title>RFC2074&#45;&gt;rev_cites</title>
<path fill="none" stroke="black" d="M1023.8,-104.92C1037.93,-197.39 1066.77,-386.18 1077.88,-458.89"/>
<polygon fill="black" stroke="black" points="1074.37,-459.06 1079.34,-468.42 1081.29,-458 1074.37,-459.06"/>
</g>
<!-- RFC2896 -->
<g id="node11" class="node">
<title>RFC2896</title>
<g id="a_node11"><a xlink:href="RFC2896.html" xlink:title="This memo contains various protocol identifier examples, which can be used to produce valid protocolDirTable ``INDEX`` encodings, as defined by the Remote Network Monitoring MIB and the RMON Protocol Identifier Reference. &#160;This memo provides information for the Internet community." target="_top">
<ellipse fill="none" stroke="black" cx="1522.28" cy="-456.26" rx="180.49" ry="52.33"/>
<text xml:space="preserve" text-anchor="middle" x="1522.28" y="-475.96" font-family="Times,serif" font-size="14.00">RFC2896</text>
<text xml:space="preserve" text-anchor="middle" x="1522.28" y="-459.46" font-family="Times,serif" font-size="14.00">Remote Network Monitoring MIB Protocol</text>
<text xml:space="preserve" text-anchor="middle" x="1522.28" y="-442.96" font-family="Times,serif" font-size="14.00">Identifier Macros</text>
<text xml:space="preserve" text-anchor="middle" x="1522.28" y="-426.46" font-family="Times,serif" font-size="14.00">2000</text>
</a>
</g>
</g>
<!-- RFC2896&#45;&gt;rev_cites -->
<g id="edge10" class="edge">
<title>RFC2896&#45;&gt;rev_cites</title>
<path fill="none" stroke="black" d="M1346.84,-469.05C1263.71,-475.11 1171.72,-481.82 1121.11,-485.51"/>
<polygon fill="black" stroke="black" points="1120.99,-482.01 1111.27,-486.23 1121.5,-488.99 1120.99,-482.01"/>
</g>
</g>
</svg>
