<?xml version="1.0" encoding="UTF-8" standalone="no"?>
<!DOCTYPE svg PUBLIC "-//W3C//DTD SVG 1.1//EN"
 "http://www.w3.org/Graphics/SVG/1.1/DTD/svg11.dtd">
<!-- Generated by graphviz version 14.1.1 (20251213.1925)
 -->
<!-- Title: Flow Pages: 1 -->
<svg width="821pt" height="175pt"
 viewBox="0.00 0.00 821.00 175.00" xmlns="http://www.w3.org/2000/svg" xmlns:xlink="http://www.w3.org/1999/xlink">
<g id="graph0" class="graph" transform="scale(1 1) rotate(0) translate(4 170.66)">
<title>Flow</title>
<polygon fill="white" stroke="none" points="-4,4 -4,-170.66 816.78,-170.66 816.78,4 -4,4"/>
<!-- RFC1998 -->
<g id="node1" class="node">
<title>RFC1998</title>
<g id="a_node1"><a xlink:title="This document presents an application of the BGP community attribute [2] in simplifying the implementation and configuration of routing policies in the multi&#45;provider Internet. &#160;This memo provides information for the Internet community. &#160;This memo does not specify an Internet standard of any kind.">
<ellipse fill="green" stroke="black" cx="556.42" cy="-94.66" rx="165.11" ry="52.33"/>
<text xml:space="preserve" text-anchor="middle" x="556.42" y="-114.36" font-family="Times,serif" font-size="14.00">RFC1998</text>
<text xml:space="preserve" text-anchor="middle" x="556.42" y="-97.86" font-family="Times,serif" font-size="14.00">An Application of the BGP Community</text>
<text xml:space="preserve" text-anchor="middle" x="556.42" y="-81.36" font-family="Times,serif" font-size="14.00">Attribute in Multi&#45;home Routing</text>
<text xml:space="preserve" text-anchor="middle" x="556.42" y="-64.86" font-family="Times,serif" font-size="14.00">1996</text>
</a>
</g>
</g>
<!-- obs -->
<g id="node3" class="node">
<title>obs</title>
<polygon fill="lightblue" stroke="black" points="812.78,-166.66 746.53,-166.66 746.53,-130.66 812.78,-130.66 812.78,-166.66"/>
<text xml:space="preserve" text-anchor="middle" x="779.66" y="-143.61" font-family="Times,serif" font-size="14.00">obsoletes</text>
</g>
<!-- RFC1998&#45;&gt;obs -->
<g id="edge2" class="edge">
<title>RFC1998&#45;&gt;obs</title>
<path fill="none" stroke="black" d="M688.04,-126.54C704.85,-130.64 721.02,-134.59 734.93,-137.99"/>
<polygon fill="black" stroke="black" points="734.03,-141.37 744.58,-140.34 735.69,-134.57 734.03,-141.37"/>
</g>
<!-- updates -->
<g id="node4" class="node">
<title>updates</title>
<polygon fill="lightyellow" stroke="black" points="808.28,-112.66 751.03,-112.66 751.03,-76.66 808.28,-76.66 808.28,-112.66"/>
<text xml:space="preserve" text-anchor="middle" x="779.66" y="-89.61" font-family="Times,serif" font-size="14.00">updates</text>
</g>
<!-- RFC1998&#45;&gt;updates -->
<g id="edge3" class="edge">
<title>RFC1998&#45;&gt;updates</title>
<path fill="none" stroke="black" d="M721.97,-94.66C728.13,-94.66 733.98,-94.66 739.44,-94.66"/>
<polygon fill="black" stroke="black" points="739.18,-98.16 749.18,-94.66 739.18,-91.16 739.18,-98.16"/>
</g>
<!-- cites -->
<g id="node6" class="node">
<title>cites</title>
<polygon fill="lightblue" stroke="black" points="806.66,-58.66 752.66,-58.66 752.66,-22.66 806.66,-22.66 806.66,-58.66"/>
<text xml:space="preserve" text-anchor="middle" x="779.66" y="-35.61" font-family="Times,serif" font-size="14.00">cites</text>
</g>
<!-- RFC1998&#45;&gt;cites -->
<g id="edge5" class="edge">
<title>RFC1998&#45;&gt;cites</title>
<path fill="none" stroke="black" d="M688.04,-62.78C707.57,-58.01 726.24,-53.45 741.5,-49.73"/>
<polygon fill="black" stroke="black" points="742.12,-53.18 751,-47.41 740.46,-46.38 742.12,-53.18"/>
</g>
<!-- obs_by -->
<g id="node2" class="node">
<title>obs_by</title>
<polygon fill="lightblue" stroke="black" points="366.31,-166.66 300.06,-166.66 300.06,-130.66 366.31,-130.66 366.31,-166.66"/>
<text xml:space="preserve" text-anchor="middle" x="333.19" y="-143.61" font-family="Times,serif" font-size="14.00">obsoletes</text>
</g>
<!-- obs_by&#45;&gt;RFC1998 -->
<g id="edge1" class="edge">
<title>obs_by&#45;&gt;RFC1998</title>
<path fill="none" stroke="black" d="M366.36,-140.81C379.66,-137.56 396.07,-133.55 413.63,-129.27"/>
<polygon fill="black" stroke="black" points="414.33,-132.7 423.22,-126.93 412.68,-125.9 414.33,-132.7"/>
</g>
<!-- updated_by -->
<g id="node5" class="node">
<title>updated_by</title>
<polygon fill="lightyellow" stroke="black" points="361.81,-112.66 304.56,-112.66 304.56,-76.66 361.81,-76.66 361.81,-112.66"/>
<text xml:space="preserve" text-anchor="middle" x="333.19" y="-89.61" font-family="Times,serif" font-size="14.00">updates</text>
</g>
<!-- updated_by&#45;&gt;RFC1998 -->
<g id="edge4" class="edge">
<title>updated_by&#45;&gt;RFC1998</title>
<path fill="none" stroke="black" d="M362.21,-94.66C367.57,-94.66 373.54,-94.66 379.95,-94.66"/>
<polygon fill="black" stroke="black" points="379.63,-98.16 389.63,-94.66 379.63,-91.16 379.63,-98.16"/>
</g>
<!-- rev_cites -->
<g id="node7" class="node">
<title>rev_cites</title>
<polygon fill="lightblue" stroke="black" points="360.19,-58.66 306.19,-58.66 306.19,-22.66 360.19,-22.66 360.19,-58.66"/>
<text xml:space="preserve" text-anchor="middle" x="333.19" y="-35.61" font-family="Times,serif" font-size="14.00">cites</text>
</g>
<!-- rev_cites&#45;&gt;RFC1998 -->
<g id="edge6" class="edge">
<title>rev_cites&#45;&gt;RFC1998</title>
<path fill="none" stroke="black" d="M360.44,-47.07C374.6,-50.52 393.31,-55.09 413.54,-60.03"/>
<polygon fill="black" stroke="black" points="412.56,-63.39 423.11,-62.36 414.22,-56.59 412.56,-63.39"/>
</g>
<!-- RFC8195 -->
<g id="node8" class="node">
<title>RFC8195</title>
<g id="a_node8"><a xlink:href="RFC8195.html" xlink:title="This document presents examples and inspiration for operator application of BGP Large Communities. &#160;Based on operational experience with BGP Communities, this document suggests logical categories of BGP Large Communities and demonstrates an orderly manner of organizing community values within them to achieve typical goals in routing policy. &#160;Any operator can consider using the concepts presented as the basis for their own BGP Large Communities repertoire." target="_top">
<ellipse fill="none" stroke="black" cx="137.53" cy="-40.66" rx="137.53" ry="40.66"/>
<text xml:space="preserve" text-anchor="middle" x="137.53" y="-52.11" font-family="Times,serif" font-size="14.00">RFC8195</text>
<text xml:space="preserve" text-anchor="middle" x="137.53" y="-35.61" font-family="Times,serif" font-size="14.00">Use of BGP Large Communities</text>
<text xml:space="preserve" text-anchor="middle" x="137.53" y="-19.11" font-family="Times,serif" font-size="14.00">2017</text>
</a>
</g>
</g>
<!-- RFC8195&#45;&gt;rev_cites -->
<g id="edge7" class="edge">
<title>RFC8195&#45;&gt;rev_cites</title>
<path fill="none" stroke="black" d="M275.39,-40.66C282.13,-40.66 288.55,-40.66 294.5,-40.66"/>
<polygon fill="black" stroke="black" points="294.45,-44.16 304.45,-40.66 294.45,-37.16 294.45,-44.16"/>
</g>
</g>
</svg>
