<?xml version="1.0" encoding="UTF-8" standalone="no"?>
<!DOCTYPE svg PUBLIC "-//W3C//DTD SVG 1.1//EN"
 "http://www.w3.org/Graphics/SVG/1.1/DTD/svg11.dtd">
<!-- Generated by graphviz version 14.1.1 (20251213.1925)
 -->
<!-- Title: Flow Pages: 1 -->
<svg width="1258pt" height="886pt"
 viewBox="0.00 0.00 1258.00 886.00" xmlns="http://www.w3.org/2000/svg" xmlns:xlink="http://www.w3.org/1999/xlink">
<g id="graph0" class="graph" transform="scale(1 1) rotate(0) translate(4 882.21)">
<title>Flow</title>
<polygon fill="white" stroke="none" points="-4,4 -4,-882.21 1253.6,-882.21 1253.6,4 -4,4"/>
<!-- RFC1080 -->
<g id="node1" class="node">
<title>RFC1080</title>
<g id="a_node1"><a xlink:title="This RFC specifies a standard for the Internet community. &#160;Hosts on the Internet that do remote flow control within the Telnet protocol are expected to adopt and implement this standard.">
<ellipse fill="green" stroke="black" stroke-width="3" cx="861.6" cy="-450.43" rx="185.26" ry="50.2"/>
<text xml:space="preserve" text-anchor="middle" x="861.6" y="-464.83" font-family="Times,serif" font-size="18.00">RFC1080</text>
<text xml:space="preserve" text-anchor="middle" x="861.6" y="-443.83" font-family="Times,serif" font-size="18.00">Telnet remote flow control option</text>
<text xml:space="preserve" text-anchor="middle" x="861.6" y="-422.83" font-family="Times,serif" font-size="18.00">1988</text>
</a>
</g>
</g>
<!-- obs -->
<g id="node4" class="node">
<title>obs</title>
<polygon fill="lightblue" stroke="black" points="1249.6,-673.32 1183.35,-673.32 1183.35,-637.32 1249.6,-637.32 1249.6,-673.32"/>
<text xml:space="preserve" text-anchor="middle" x="1216.48" y="-650.27" font-family="Times,serif" font-size="14.00">obsoletes</text>
</g>
<!-- RFC1080&#45;&gt;obs -->
<g id="edge3" class="edge">
<title>RFC1080&#45;&gt;obs</title>
<path fill="none" stroke="black" d="M942.13,-496.93C1014.47,-538.69 1117.82,-598.36 1174.79,-631.25"/>
<polygon fill="black" stroke="black" points="1172.81,-634.15 1183.22,-636.12 1176.31,-628.09 1172.81,-634.15"/>
</g>
<!-- updates -->
<g id="node5" class="node">
<title>updates</title>
<polygon fill="lightyellow" stroke="black" points="890.23,-878.21 832.98,-878.21 832.98,-842.21 890.23,-842.21 890.23,-878.21"/>
<text xml:space="preserve" text-anchor="middle" x="861.6" y="-855.16" font-family="Times,serif" font-size="14.00">updates</text>
</g>
<!-- RFC1080&#45;&gt;updates -->
<g id="edge4" class="edge">
<title>RFC1080&#45;&gt;updates</title>
<path fill="none" stroke="black" d="M861.6,-501.92C861.6,-588.71 861.6,-761.43 861.6,-830.58"/>
<polygon fill="black" stroke="black" points="858.1,-830.36 861.6,-840.36 865.1,-830.36 858.1,-830.36"/>
</g>
<!-- cites -->
<g id="node7" class="node">
<title>cites</title>
<polygon fill="lightblue" stroke="black" points="533.73,-673.32 479.73,-673.32 479.73,-637.32 533.73,-637.32 533.73,-673.32"/>
<text xml:space="preserve" text-anchor="middle" x="506.73" y="-650.27" font-family="Times,serif" font-size="14.00">cites</text>
</g>
<!-- RFC1080&#45;&gt;cites -->
<g id="edge6" class="edge">
<title>RFC1080&#45;&gt;cites</title>
<path fill="none" stroke="black" d="M781.08,-496.93C706.76,-539.83 599.74,-601.62 543.87,-633.88"/>
<polygon fill="black" stroke="black" points="542.27,-630.76 535.36,-638.79 545.77,-636.82 542.27,-630.76"/>
</g>
<!-- obs_by -->
<g id="node2" class="node">
<title>obs_by</title>
<polygon fill="lightblue" stroke="black" points="539.85,-263.55 473.6,-263.55 473.6,-227.55 539.85,-227.55 539.85,-263.55"/>
<text xml:space="preserve" text-anchor="middle" x="506.73" y="-240.5" font-family="Times,serif" font-size="14.00">obsoletes</text>
</g>
<!-- obs_by&#45;&gt;RFC1080 -->
<g id="edge1" class="edge">
<title>obs_by&#45;&gt;RFC1080</title>
<path fill="none" stroke="black" d="M538.53,-263.91C590.41,-293.86 695.1,-354.31 771.29,-398.29"/>
<polygon fill="black" stroke="black" points="769.18,-401.12 779.59,-403.09 772.68,-395.05 769.18,-401.12"/>
</g>
<!-- RFC1372 -->
<g id="node3" class="node">
<title>RFC1372</title>
<g id="a_node3"><a xlink:href="RFC1372.html" xlink:title="This document specifies an extended version of the Telnet Remote Flow Control Option, RFC 1080, with the addition of the RESTART&#45;ANY and RESTART&#45;XON suboptions. [STANDARDS&#45;TRACK]" target="_top">
<ellipse fill="none" stroke="black" cx="151.85" cy="-40.66" rx="151.85" ry="40.66"/>
<text xml:space="preserve" text-anchor="middle" x="151.85" y="-52.11" font-family="Times,serif" font-size="14.00">RFC1372</text>
<text xml:space="preserve" text-anchor="middle" x="151.85" y="-35.61" font-family="Times,serif" font-size="14.00">Telnet Remote Flow Control Option</text>
<text xml:space="preserve" text-anchor="middle" x="151.85" y="-19.11" font-family="Times,serif" font-size="14.00">1992</text>
</a>
</g>
</g>
<!-- RFC1372&#45;&gt;obs_by -->
<g id="edge2" class="edge">
<title>RFC1372&#45;&gt;obs_by</title>
<path fill="none" stroke="black" d="M216.12,-77.76C288.39,-119.49 403.66,-186.04 465.06,-221.49"/>
<polygon fill="black" stroke="black" points="463.07,-224.38 473.48,-226.35 466.57,-218.32 463.07,-224.38"/>
</g>
<!-- updated_by -->
<g id="node6" class="node">
<title>updated_by</title>
<polygon fill="lightyellow" stroke="black" points="890.23,-58.66 832.98,-58.66 832.98,-22.66 890.23,-22.66 890.23,-58.66"/>
<text xml:space="preserve" text-anchor="middle" x="861.6" y="-35.61" font-family="Times,serif" font-size="14.00">updates</text>
</g>
<!-- updated_by&#45;&gt;RFC1080 -->
<g id="edge5" class="edge">
<title>updated_by&#45;&gt;RFC1080</title>
<path fill="none" stroke="black" d="M861.6,-59.06C861.6,-116.17 861.6,-292.24 861.6,-387.57"/>
<polygon fill="black" stroke="black" points="858.1,-387.55 861.6,-397.55 865.1,-387.55 858.1,-387.55"/>
</g>
<!-- rev_cites -->
<g id="node8" class="node">
<title>rev_cites</title>
<polygon fill="lightblue" stroke="black" points="1243.48,-263.55 1189.48,-263.55 1189.48,-227.55 1243.48,-227.55 1243.48,-263.55"/>
<text xml:space="preserve" text-anchor="middle" x="1216.48" y="-240.5" font-family="Times,serif" font-size="14.00">cites</text>
</g>
<!-- rev_cites&#45;&gt;RFC1080 -->
<g id="edge7" class="edge">
<title>rev_cites&#45;&gt;RFC1080</title>
<path fill="none" stroke="black" d="M1189.22,-261.28C1139.18,-290.17 1030.61,-352.86 952.14,-398.16"/>
<polygon fill="black" stroke="black" points="950.47,-395.09 943.55,-403.12 953.97,-401.15 950.47,-395.09"/>
</g>
</g>
</svg>
