<?xml version="1.0" encoding="UTF-8" standalone="no"?>
<!DOCTYPE svg PUBLIC "-//W3C//DTD SVG 1.1//EN"
 "http://www.w3.org/Graphics/SVG/1.1/DTD/svg11.dtd">
<!-- Generated by graphviz version 14.1.1 (20251213.1925)
 -->
<!-- Title: Flow Pages: 1 -->
<svg width="754pt" height="175pt"
 viewBox="0.00 0.00 754.00 175.00" xmlns="http://www.w3.org/2000/svg" xmlns:xlink="http://www.w3.org/1999/xlink">
<g id="graph0" class="graph" transform="scale(1 1) rotate(0) translate(4 170.66)">
<title>Flow</title>
<polygon fill="white" stroke="none" points="-4,4 -4,-170.66 749.96,-170.66 749.96,4 -4,4"/>
<!-- RFC1663 -->
<g id="node1" class="node">
<title>RFC1663</title>
<g id="a_node1"><a xlink:title="This document defines a method for negotiating and using Numbered&#45;Mode, as defined by ISO 7776 [2], to provide a reliable serial link. [STANDARDS&#45;TRACK]">
<ellipse fill="green" stroke="black" cx="539.45" cy="-94.66" rx="115.26" ry="40.66"/>
<text xml:space="preserve" text-anchor="middle" x="539.45" y="-106.11" font-family="Times,serif" font-size="14.00">RFC1663</text>
<text xml:space="preserve" text-anchor="middle" x="539.45" y="-89.61" font-family="Times,serif" font-size="14.00">PPP Reliable Transmission</text>
<text xml:space="preserve" text-anchor="middle" x="539.45" y="-73.11" font-family="Times,serif" font-size="14.00">1994</text>
</a>
</g>
</g>
<!-- obs -->
<g id="node3" class="node">
<title>obs</title>
<polygon fill="lightblue" stroke="black" points="745.96,-166.66 679.71,-166.66 679.71,-130.66 745.96,-130.66 745.96,-166.66"/>
<text xml:space="preserve" text-anchor="middle" x="712.84" y="-143.61" font-family="Times,serif" font-size="14.00">obsoletes</text>
</g>
<!-- RFC1663&#45;&gt;obs -->
<g id="edge2" class="edge">
<title>RFC1663&#45;&gt;obs</title>
<path fill="none" stroke="black" d="M626.4,-121.74C641,-126.34 655.58,-130.93 668.47,-134.99"/>
<polygon fill="black" stroke="black" points="667.28,-138.29 677.87,-137.96 669.38,-131.61 667.28,-138.29"/>
</g>
<!-- updates -->
<g id="node4" class="node">
<title>updates</title>
<polygon fill="lightyellow" stroke="black" points="741.46,-112.66 684.21,-112.66 684.21,-76.66 741.46,-76.66 741.46,-112.66"/>
<text xml:space="preserve" text-anchor="middle" x="712.84" y="-89.61" font-family="Times,serif" font-size="14.00">updates</text>
</g>
<!-- RFC1663&#45;&gt;updates -->
<g id="edge3" class="edge">
<title>RFC1663&#45;&gt;updates</title>
<path fill="none" stroke="black" d="M654.77,-94.66C660.87,-94.66 666.76,-94.66 672.28,-94.66"/>
<polygon fill="black" stroke="black" points="672.22,-98.16 682.22,-94.66 672.22,-91.16 672.22,-98.16"/>
</g>
<!-- cites -->
<g id="node6" class="node">
<title>cites</title>
<polygon fill="lightblue" stroke="black" points="739.84,-58.66 685.84,-58.66 685.84,-22.66 739.84,-22.66 739.84,-58.66"/>
<text xml:space="preserve" text-anchor="middle" x="712.84" y="-35.61" font-family="Times,serif" font-size="14.00">cites</text>
</g>
<!-- RFC1663&#45;&gt;cites -->
<g id="edge5" class="edge">
<title>RFC1663&#45;&gt;cites</title>
<path fill="none" stroke="black" d="M626.4,-67.58C643.4,-62.22 660.39,-56.87 674.69,-52.36"/>
<polygon fill="black" stroke="black" points="675.6,-55.75 684.08,-49.4 673.49,-49.07 675.6,-55.75"/>
</g>
<!-- obs_by -->
<g id="node2" class="node">
<title>obs_by</title>
<polygon fill="lightblue" stroke="black" points="399.2,-166.66 332.95,-166.66 332.95,-130.66 399.2,-130.66 399.2,-166.66"/>
<text xml:space="preserve" text-anchor="middle" x="366.07" y="-143.61" font-family="Times,serif" font-size="14.00">obsoletes</text>
</g>
<!-- obs_by&#45;&gt;RFC1663 -->
<g id="edge1" class="edge">
<title>obs_by&#45;&gt;RFC1663</title>
<path fill="none" stroke="black" d="M399.31,-138.5C411.67,-134.6 426.52,-129.93 441.83,-125.1"/>
<polygon fill="black" stroke="black" points="442.56,-128.54 451.05,-122.2 440.46,-121.87 442.56,-128.54"/>
</g>
<!-- updated_by -->
<g id="node5" class="node">
<title>updated_by</title>
<polygon fill="lightyellow" stroke="black" points="394.7,-112.66 337.45,-112.66 337.45,-76.66 394.7,-76.66 394.7,-112.66"/>
<text xml:space="preserve" text-anchor="middle" x="366.07" y="-89.61" font-family="Times,serif" font-size="14.00">updates</text>
</g>
<!-- updated_by&#45;&gt;RFC1663 -->
<g id="edge4" class="edge">
<title>updated_by&#45;&gt;RFC1663</title>
<path fill="none" stroke="black" d="M394.99,-94.66C400.26,-94.66 406.09,-94.66 412.28,-94.66"/>
<polygon fill="black" stroke="black" points="412.26,-98.16 422.26,-94.66 412.26,-91.16 412.26,-98.16"/>
</g>
<!-- rev_cites -->
<g id="node7" class="node">
<title>rev_cites</title>
<polygon fill="lightblue" stroke="black" points="393.07,-58.66 339.07,-58.66 339.07,-22.66 393.07,-22.66 393.07,-58.66"/>
<text xml:space="preserve" text-anchor="middle" x="366.07" y="-35.61" font-family="Times,serif" font-size="14.00">cites</text>
</g>
<!-- rev_cites&#45;&gt;RFC1663 -->
<g id="edge6" class="edge">
<title>rev_cites&#45;&gt;RFC1663</title>
<path fill="none" stroke="black" d="M393.47,-48.98C406.83,-53.19 423.96,-58.58 441.74,-64.18"/>
<polygon fill="black" stroke="black" points="440.52,-67.47 451.11,-67.14 442.62,-60.79 440.52,-67.47"/>
</g>
<!-- RFC2661 -->
<g id="node8" class="node">
<title>RFC2661</title>
<g id="a_node8"><a xlink:href="RFC2661.html" xlink:title="This document describes the Layer Two Tunneling Protocol (L2TP). [STANDARDS&#45;TRACK]" target="_top">
<ellipse fill="none" stroke="black" cx="153.97" cy="-40.66" rx="153.97" ry="40.66"/>
<text xml:space="preserve" text-anchor="middle" x="153.97" y="-52.11" font-family="Times,serif" font-size="14.00">RFC2661</text>
<text xml:space="preserve" text-anchor="middle" x="153.97" y="-35.61" font-family="Times,serif" font-size="14.00">Layer Two Tunneling Protocol L2TP</text>
<text xml:space="preserve" text-anchor="middle" x="153.97" y="-19.11" font-family="Times,serif" font-size="14.00">1999</text>
</a>
</g>
</g>
<!-- RFC2661&#45;&gt;rev_cites -->
<g id="edge7" class="edge">
<title>RFC2661&#45;&gt;rev_cites</title>
<path fill="none" stroke="black" d="M308.21,-40.66C314.96,-40.66 321.37,-40.66 327.28,-40.66"/>
<polygon fill="black" stroke="black" points="327.17,-44.16 337.17,-40.66 327.17,-37.16 327.17,-44.16"/>
</g>
</g>
</svg>
