<?xml version="1.0" encoding="UTF-8" standalone="no"?>
<!DOCTYPE svg PUBLIC "-//W3C//DTD SVG 1.1//EN"
 "http://www.w3.org/Graphics/SVG/1.1/DTD/svg11.dtd">
<!-- Generated by graphviz version 14.1.1 (20251213.1925)
 -->
<!-- Title: Flow Pages: 1 -->
<svg width="1224pt" height="627pt"
 viewBox="0.00 0.00 1224.00 627.00" xmlns="http://www.w3.org/2000/svg" xmlns:xlink="http://www.w3.org/1999/xlink">
<g id="graph0" class="graph" transform="scale(1 1) rotate(0) translate(4 622.65)">
<title>Flow</title>
<polygon fill="white" stroke="none" points="-4,4 -4,-622.65 1219.73,-622.65 1219.73,4 -4,4"/>
<!-- RFC1111 -->
<g id="node1" class="node">
<title>RFC1111</title>
<g id="a_node1"><a xlink:title="This RFC specifies a standard for the Internet community. &#160;Authors of RFCs are expected to adopt and implement this standard.">
<ellipse fill="none" stroke="black" cx="605.74" cy="-380.99" rx="165.64" ry="52.33"/>
<text xml:space="preserve" text-anchor="middle" x="605.74" y="-400.69" font-family="Times,serif" font-size="14.00">RFC1111</text>
<text xml:space="preserve" text-anchor="middle" x="605.74" y="-384.19" font-family="Times,serif" font-size="14.00">Request for comments on Request for</text>
<text xml:space="preserve" text-anchor="middle" x="605.74" y="-367.69" font-family="Times,serif" font-size="14.00">Comments: Instructions to RFC authors</text>
<text xml:space="preserve" text-anchor="middle" x="605.74" y="-351.19" font-family="Times,serif" font-size="14.00">1989</text>
</a>
</g>
</g>
<!-- obs -->
<g id="node5" class="node">
<title>obs</title>
<polygon fill="none" stroke="black" points="862.63,-452.99 796.38,-452.99 796.38,-416.99 862.63,-416.99 862.63,-452.99"/>
<text xml:space="preserve" text-anchor="middle" x="829.51" y="-429.94" font-family="Times,serif" font-size="14.00">obsoletes</text>
</g>
<!-- RFC1111&#45;&gt;obs -->
<g id="edge4" class="edge">
<title>RFC1111&#45;&gt;obs</title>
<path fill="none" stroke="black" d="M737.99,-412.95C754.79,-417.04 770.95,-420.98 784.85,-424.36"/>
<polygon fill="black" stroke="black" points="783.94,-427.74 794.48,-426.71 785.6,-420.94 783.94,-427.74"/>
</g>
<!-- updates -->
<g id="node7" class="node">
<title>updates</title>
<polygon fill="none" stroke="black" points="858.13,-398.99 800.88,-398.99 800.88,-362.99 858.13,-362.99 858.13,-398.99"/>
<text xml:space="preserve" text-anchor="middle" x="829.51" y="-375.94" font-family="Times,serif" font-size="14.00">updates</text>
</g>
<!-- RFC1111&#45;&gt;updates -->
<g id="edge6" class="edge">
<title>RFC1111&#45;&gt;updates</title>
<path fill="none" stroke="black" d="M771.69,-380.99C777.86,-380.99 783.73,-380.99 789.2,-380.99"/>
<polygon fill="black" stroke="black" points="788.96,-384.49 798.96,-380.99 788.96,-377.49 788.96,-384.49"/>
</g>
<!-- cites -->
<g id="node9" class="node">
<title>cites</title>
<polygon fill="none" stroke="black" points="856.51,-344.99 802.51,-344.99 802.51,-308.99 856.51,-308.99 856.51,-344.99"/>
<text xml:space="preserve" text-anchor="middle" x="829.51" y="-321.94" font-family="Times,serif" font-size="14.00">cites</text>
</g>
<!-- RFC1111&#45;&gt;cites -->
<g id="edge8" class="edge">
<title>RFC1111&#45;&gt;cites</title>
<path fill="none" stroke="black" d="M737.99,-349.03C757.51,-344.28 776.17,-339.74 791.41,-336.03"/>
<polygon fill="black" stroke="black" points="792.01,-339.48 800.9,-333.72 790.35,-332.68 792.01,-339.48"/>
</g>
<!-- obs_by -->
<g id="node2" class="node">
<title>obs_by</title>
<polygon fill="none" stroke="black" points="415.1,-496.99 348.85,-496.99 348.85,-460.99 415.1,-460.99 415.1,-496.99"/>
<text xml:space="preserve" text-anchor="middle" x="381.98" y="-473.94" font-family="Times,serif" font-size="14.00">obsoletes</text>
</g>
<!-- obs_by&#45;&gt;RFC1111 -->
<g id="edge1" class="edge">
<title>obs_by&#45;&gt;RFC1111</title>
<path fill="none" stroke="black" d="M415.23,-464.74C437.24,-455.01 467.78,-441.52 497.92,-428.2"/>
<polygon fill="black" stroke="black" points="499,-431.55 506.73,-424.31 496.17,-425.15 499,-431.55"/>
</g>
<!-- RFC1543 -->
<g id="node3" class="node">
<title>RFC1543</title>
<g id="a_node3"><a xlink:href="RFC1543.html" xlink:title="This Request for Comments (RFC) provides information about the preparation of RFCs, and certain policies relating to the publication of RFCs. &#160;This memo provides information for the Internet community. &#160;This memo does not specify an Internet standard of any kind." target="_top">
<ellipse fill="none" stroke="black" cx="161.93" cy="-577.99" rx="120.03" ry="40.66"/>
<text xml:space="preserve" text-anchor="middle" x="161.93" y="-589.44" font-family="Times,serif" font-size="14.00">RFC1543</text>
<text xml:space="preserve" text-anchor="middle" x="161.93" y="-572.94" font-family="Times,serif" font-size="14.00">Instructions to RFC Authors</text>
<text xml:space="preserve" text-anchor="middle" x="161.93" y="-556.44" font-family="Times,serif" font-size="14.00">1993</text>
</a>
</g>
</g>
<!-- RFC1543&#45;&gt;obs_by -->
<g id="edge2" class="edge">
<title>RFC1543&#45;&gt;obs_by</title>
<path fill="none" stroke="black" d="M261.8,-555.1C282.97,-548.25 304.71,-539.63 323.85,-528.99 335.32,-522.62 346.51,-513.65 355.9,-505.05"/>
<polygon fill="black" stroke="black" points="358.05,-507.84 362.88,-498.4 353.22,-502.77 358.05,-507.84"/>
</g>
<!-- RFC2223 -->
<g id="node4" class="node">
<title>RFC2223</title>
<g id="a_node4"><a xlink:href="RFC2223.html" xlink:title="This Request for Comments (RFC) provides information about the preparation of RFCs, and certain policies relating to the publication of RFCs. &#160;This memo provides information for the Internet community. &#160;This memo does not specify an Internet standard of any kind." target="_top">
<ellipse fill="none" stroke="black" cx="161.93" cy="-478.99" rx="120.03" ry="40.66"/>
<text xml:space="preserve" text-anchor="middle" x="161.93" y="-490.44" font-family="Times,serif" font-size="14.00">RFC2223</text>
<text xml:space="preserve" text-anchor="middle" x="161.93" y="-473.94" font-family="Times,serif" font-size="14.00">Instructions to RFC Authors</text>
<text xml:space="preserve" text-anchor="middle" x="161.93" y="-457.44" font-family="Times,serif" font-size="14.00">1997</text>
</a>
</g>
</g>
<!-- RFC2223&#45;&gt;obs_by -->
<g id="edge3" class="edge">
<title>RFC2223&#45;&gt;obs_by</title>
<path fill="none" stroke="black" d="M282.16,-478.99C301.84,-478.99 321.08,-478.99 337.27,-478.99"/>
<polygon fill="black" stroke="black" points="336.97,-482.49 346.97,-478.99 336.97,-475.49 336.97,-482.49"/>
</g>
<!-- RFC0825 -->
<g id="node6" class="node">
<title>RFC0825</title>
<g id="a_node6"><a xlink:href="RFC0825.html" xlink:title="This RFC is intended to clarify the status of RFCs and to provide some guidance for the authors of RFCs in the future. &#160;It is in a sense a specification for RFCs." target="_top">
<ellipse fill="none" stroke="black" cx="1051.68" cy="-434.99" rx="164.05" ry="52.33"/>
<text xml:space="preserve" text-anchor="middle" x="1051.68" y="-454.69" font-family="Times,serif" font-size="14.00">RFC0825</text>
<text xml:space="preserve" text-anchor="middle" x="1051.68" y="-438.19" font-family="Times,serif" font-size="14.00">Request for comments on Requests For</text>
<text xml:space="preserve" text-anchor="middle" x="1051.68" y="-421.69" font-family="Times,serif" font-size="14.00">Comments</text>
<text xml:space="preserve" text-anchor="middle" x="1051.68" y="-405.19" font-family="Times,serif" font-size="14.00">1982</text>
</a>
</g>
</g>
<!-- obs&#45;&gt;RFC0825 -->
<g id="edge5" class="edge">
<title>obs&#45;&gt;RFC0825</title>
<path fill="none" stroke="black" d="M863,-434.99C867.1,-434.99 871.5,-434.99 876.13,-434.99"/>
<polygon fill="black" stroke="black" points="875.83,-438.49 885.83,-434.99 875.83,-431.49 875.83,-438.49"/>
</g>
<!-- updated_by -->
<g id="node8" class="node">
<title>updated_by</title>
<polygon fill="none" stroke="black" points="410.6,-398.99 353.35,-398.99 353.35,-362.99 410.6,-362.99 410.6,-398.99"/>
<text xml:space="preserve" text-anchor="middle" x="381.98" y="-375.94" font-family="Times,serif" font-size="14.00">updates</text>
</g>
<!-- updated_by&#45;&gt;RFC1111 -->
<g id="edge7" class="edge">
<title>updated_by&#45;&gt;RFC1111</title>
<path fill="none" stroke="black" d="M411.07,-380.99C416.24,-380.99 421.97,-380.99 428.12,-380.99"/>
<polygon fill="black" stroke="black" points="428.11,-384.49 438.11,-380.99 428.11,-377.49 428.11,-384.49"/>
</g>
<!-- rev_cites -->
<g id="node10" class="node">
<title>rev_cites</title>
<polygon fill="none" stroke="black" points="408.98,-300.99 354.98,-300.99 354.98,-264.99 408.98,-264.99 408.98,-300.99"/>
<text xml:space="preserve" text-anchor="middle" x="381.98" y="-277.94" font-family="Times,serif" font-size="14.00">cites</text>
</g>
<!-- rev_cites&#45;&gt;RFC1111 -->
<g id="edge9" class="edge">
<title>rev_cites&#45;&gt;RFC1111</title>
<path fill="none" stroke="black" d="M409.29,-294.62C431.54,-304.45 464.98,-319.23 497.94,-333.79"/>
<polygon fill="black" stroke="black" points="496.19,-336.85 506.75,-337.69 499.02,-330.45 496.19,-336.85"/>
</g>
<!-- RFC1391 -->
<g id="node11" class="node">
<title>RFC1391</title>
<g id="a_node11"><a xlink:href="RFC1391.html" xlink:title="The purpose of this For Your Information (FYI) RFC is to explain to the newcomers how the IETF works. &#160;This will give them a warm, fuzzy feeling and enable them to make the meeting more productive for everyone. &#160;This memo provides information for the Internet community. &#160;It does not specify an Internet standard." target="_top">
<ellipse fill="none" stroke="black" cx="161.93" cy="-355.99" rx="161.93" ry="63.99"/>
<text xml:space="preserve" text-anchor="middle" x="161.93" y="-383.94" font-family="Times,serif" font-size="14.00">RFC1391</text>
<text xml:space="preserve" text-anchor="middle" x="161.93" y="-367.44" font-family="Times,serif" font-size="14.00">The Tao of the IETF: A Guide for New</text>
<text xml:space="preserve" text-anchor="middle" x="161.93" y="-350.94" font-family="Times,serif" font-size="14.00">Attendees of the Internet Engineering</text>
<text xml:space="preserve" text-anchor="middle" x="161.93" y="-334.44" font-family="Times,serif" font-size="14.00">Task Force</text>
<text xml:space="preserve" text-anchor="middle" x="161.93" y="-317.94" font-family="Times,serif" font-size="14.00">1993</text>
</a>
</g>
</g>
<!-- RFC1391&#45;&gt;rev_cites -->
<g id="edge10" class="edge">
<title>RFC1391&#45;&gt;rev_cites</title>
<path fill="none" stroke="black" d="M286.29,-314.69C307.27,-307.67 327.54,-300.89 343.89,-295.41"/>
<polygon fill="black" stroke="black" points="344.75,-298.81 353.12,-292.32 342.53,-292.18 344.75,-298.81"/>
</g>
<!-- RFC1539 -->
<g id="node12" class="node">
<title>RFC1539</title>
<g id="a_node12"><a xlink:href="RFC1539.html" xlink:title="The purpose of this For Your Information (FYI) RFC is to explain to the newcomers how the IETF works. &#160;This memo provides information for the Internet community. &#160;It does not specify an Internet standard. [FYI 17]" target="_top">
<ellipse fill="none" stroke="black" cx="161.93" cy="-209.99" rx="156.09" ry="63.99"/>
<text xml:space="preserve" text-anchor="middle" x="161.93" y="-237.94" font-family="Times,serif" font-size="14.00">RFC1539</text>
<text xml:space="preserve" text-anchor="middle" x="161.93" y="-221.44" font-family="Times,serif" font-size="14.00">The Tao of IETF &#45; A Guide for New</text>
<text xml:space="preserve" text-anchor="middle" x="161.93" y="-204.94" font-family="Times,serif" font-size="14.00">Attendees of the Internet Engineering</text>
<text xml:space="preserve" text-anchor="middle" x="161.93" y="-188.44" font-family="Times,serif" font-size="14.00">Task Force</text>
<text xml:space="preserve" text-anchor="middle" x="161.93" y="-171.94" font-family="Times,serif" font-size="14.00">1993</text>
</a>
</g>
</g>
<!-- RFC1539&#45;&gt;rev_cites -->
<g id="edge11" class="edge">
<title>RFC1539&#45;&gt;rev_cites</title>
<path fill="none" stroke="black" d="M283.75,-250.44C305.68,-257.78 326.96,-264.91 343.99,-270.61"/>
<polygon fill="black" stroke="black" points="342.51,-273.8 353.1,-273.66 344.73,-267.17 342.51,-273.8"/>
</g>
<!-- RFC1718 -->
<g id="node13" class="node">
<title>RFC1718</title>
<g id="a_node13"><a xlink:href="RFC1718.html" xlink:title="The purpose of this For Your Information (FYI) RFC is to explain to the newcomers how the IETF works. &#160;This memo provides information for the Internet community. &#160;It does not specify an Internet standard. [FYI 17]" target="_top">
<ellipse fill="none" stroke="black" cx="161.93" cy="-63.99" rx="156.09" ry="63.99"/>
<text xml:space="preserve" text-anchor="middle" x="161.93" y="-91.94" font-family="Times,serif" font-size="14.00">RFC1718</text>
<text xml:space="preserve" text-anchor="middle" x="161.93" y="-75.44" font-family="Times,serif" font-size="14.00">The Tao of IETF &#45; A Guide for New</text>
<text xml:space="preserve" text-anchor="middle" x="161.93" y="-58.94" font-family="Times,serif" font-size="14.00">Attendees of the Internet Engineering</text>
<text xml:space="preserve" text-anchor="middle" x="161.93" y="-42.44" font-family="Times,serif" font-size="14.00">Task Force</text>
<text xml:space="preserve" text-anchor="middle" x="161.93" y="-25.94" font-family="Times,serif" font-size="14.00">1994</text>
</a>
</g>
</g>
<!-- RFC1718&#45;&gt;rev_cites -->
<g id="edge12" class="edge">
<title>RFC1718&#45;&gt;rev_cites</title>
<path fill="none" stroke="black" d="M282.07,-104.98C297.42,-113.84 311.93,-124.42 323.85,-136.99 355.05,-169.88 369.83,-221.77 376.36,-254.02"/>
<polygon fill="black" stroke="black" points="372.84,-254.27 378.12,-263.45 379.72,-252.98 372.84,-254.27"/>
</g>
</g>
</svg>
