<?xml version="1.0" encoding="UTF-8" standalone="no"?>
<!DOCTYPE svg PUBLIC "-//W3C//DTD SVG 1.1//EN"
 "http://www.w3.org/Graphics/SVG/1.1/DTD/svg11.dtd">
<!-- Generated by graphviz version 14.1.1 (20251213.1925)
 -->
<!-- Title: Flow Pages: 1 -->
<svg width="792pt" height="873pt"
 viewBox="0.00 0.00 792.00 873.00" xmlns="http://www.w3.org/2000/svg" xmlns:xlink="http://www.w3.org/1999/xlink">
<g id="graph0" class="graph" transform="scale(1 1) rotate(0) translate(4 868.77)">
<title>Flow</title>
<polygon fill="white" stroke="none" points="-4,4 -4,-868.77 787.99,-868.77 787.99,4 -4,4"/>
<!-- RFC1496 -->
<g id="node1" class="node">
<title>RFC1496</title>
<g id="a_node1"><a xlink:title="This document describes how RFC&#45;1328 must be modified in order to provide adequate support for the scenarios: It replaces chapter 6 of RFC&#45;1328. &#160;The rest of RFC&#45;1328 is NOT obsoleted. [STANDARDS&#45;TRACK]">
<ellipse fill="green" stroke="black" stroke-width="3" cx="391.99" cy="-432.38" rx="237.23" ry="79.9"/>
<text xml:space="preserve" text-anchor="middle" x="391.99" y="-467.78" font-family="Times,serif" font-size="18.00">RFC1496</text>
<text xml:space="preserve" text-anchor="middle" x="391.99" y="-446.78" font-family="Times,serif" font-size="18.00">Rules for downgrading messages from</text>
<text xml:space="preserve" text-anchor="middle" x="391.99" y="-425.78" font-family="Times,serif" font-size="18.00">X.400/88 to X.400/84 when MIME content&#45;</text>
<text xml:space="preserve" text-anchor="middle" x="391.99" y="-404.78" font-family="Times,serif" font-size="18.00">types are present in the messages</text>
<text xml:space="preserve" text-anchor="middle" x="391.99" y="-383.78" font-family="Times,serif" font-size="18.00">1993</text>
</a>
</g>
</g>
<!-- obs -->
<g id="node3" class="node">
<title>obs</title>
<polygon fill="lightblue" stroke="black" points="783.99,-657.58 717.74,-657.58 717.74,-621.58 783.99,-621.58 783.99,-657.58"/>
<text xml:space="preserve" text-anchor="middle" x="750.86" y="-634.53" font-family="Times,serif" font-size="14.00">obsoletes</text>
</g>
<!-- RFC1496&#45;&gt;obs -->
<g id="edge2" class="edge">
<title>RFC1496&#45;&gt;obs</title>
<path fill="none" stroke="black" d="M512.99,-502.24C581,-541.51 661.58,-588.03 709.34,-615.61"/>
<polygon fill="black" stroke="black" points="707.3,-618.47 717.71,-620.44 710.8,-612.4 707.3,-618.47"/>
</g>
<!-- updates -->
<g id="node4" class="node">
<title>updates</title>
<polygon fill="lightyellow" stroke="black" points="420.62,-864.77 363.37,-864.77 363.37,-828.77 420.62,-828.77 420.62,-864.77"/>
<text xml:space="preserve" text-anchor="middle" x="391.99" y="-841.72" font-family="Times,serif" font-size="14.00">updates</text>
</g>
<!-- RFC1496&#45;&gt;updates -->
<g id="edge3" class="edge">
<title>RFC1496&#45;&gt;updates</title>
<path fill="none" stroke="black" d="M391.99,-513.76C391.99,-606.79 391.99,-754.28 391.99,-816.98"/>
<polygon fill="black" stroke="black" points="388.49,-816.84 391.99,-826.84 395.49,-816.84 388.49,-816.84"/>
</g>
<!-- cites -->
<g id="node6" class="node">
<title>cites</title>
<polygon fill="lightblue" stroke="black" points="60.13,-657.58 6.13,-657.58 6.13,-621.58 60.13,-621.58 60.13,-657.58"/>
<text xml:space="preserve" text-anchor="middle" x="33.13" y="-634.53" font-family="Times,serif" font-size="14.00">cites</text>
</g>
<!-- RFC1496&#45;&gt;cites -->
<g id="edge5" class="edge">
<title>RFC1496&#45;&gt;cites</title>
<path fill="none" stroke="black" d="M271,-502.24C200.85,-542.74 117.34,-590.96 70.25,-618.14"/>
<polygon fill="black" stroke="black" points="68.71,-614.99 61.8,-623.02 72.21,-621.05 68.71,-614.99"/>
</g>
<!-- obs_by -->
<g id="node2" class="node">
<title>obs_by</title>
<polygon fill="lightblue" stroke="black" points="66.25,-243.19 0,-243.19 0,-207.19 66.25,-207.19 66.25,-243.19"/>
<text xml:space="preserve" text-anchor="middle" x="33.13" y="-220.14" font-family="Times,serif" font-size="14.00">obsoletes</text>
</g>
<!-- obs_by&#45;&gt;RFC1496 -->
<g id="edge1" class="edge">
<title>obs_by&#45;&gt;RFC1496</title>
<path fill="none" stroke="black" d="M64.97,-243.58C108.8,-268.88 190.31,-315.94 260.99,-356.75"/>
<polygon fill="black" stroke="black" points="259.16,-359.74 269.57,-361.71 262.66,-353.68 259.16,-359.74"/>
</g>
<!-- updated_by -->
<g id="node5" class="node">
<title>updated_by</title>
<polygon fill="lightyellow" stroke="black" points="420.62,-36 363.37,-36 363.37,0 420.62,0 420.62,-36"/>
<text xml:space="preserve" text-anchor="middle" x="391.99" y="-12.95" font-family="Times,serif" font-size="14.00">updates</text>
</g>
<!-- updated_by&#45;&gt;RFC1496 -->
<g id="edge4" class="edge">
<title>updated_by&#45;&gt;RFC1496</title>
<path fill="none" stroke="black" d="M391.99,-36.34C391.99,-88.45 391.99,-240.05 391.99,-339.85"/>
<polygon fill="black" stroke="black" points="388.49,-339.63 391.99,-349.63 395.49,-339.63 388.49,-339.63"/>
</g>
<!-- rev_cites -->
<g id="node7" class="node">
<title>rev_cites</title>
<polygon fill="lightblue" stroke="black" points="777.86,-243.19 723.86,-243.19 723.86,-207.19 777.86,-207.19 777.86,-243.19"/>
<text xml:space="preserve" text-anchor="middle" x="750.86" y="-220.14" font-family="Times,serif" font-size="14.00">cites</text>
</g>
<!-- rev_cites&#45;&gt;RFC1496 -->
<g id="edge6" class="edge">
<title>rev_cites&#45;&gt;RFC1496</title>
<path fill="none" stroke="black" d="M723.59,-240.94C681.09,-265.47 596.33,-314.41 523.14,-356.67"/>
<polygon fill="black" stroke="black" points="521.58,-353.53 514.67,-361.56 525.08,-359.59 521.58,-353.53"/>
</g>
</g>
</svg>
