<?xml version="1.0" encoding="UTF-8" standalone="no"?>
<!DOCTYPE svg PUBLIC "-//W3C//DTD SVG 1.1//EN"
 "http://www.w3.org/Graphics/SVG/1.1/DTD/svg11.dtd">
<!-- Generated by graphviz version 14.1.1 (20251213.1925)
 -->
<!-- Title: Flow Pages: 1 -->
<svg width="688pt" height="287pt"
 viewBox="0.00 0.00 688.00 287.00" xmlns="http://www.w3.org/2000/svg" xmlns:xlink="http://www.w3.org/1999/xlink">
<g id="graph0" class="graph" transform="scale(1 1) rotate(0) translate(4 283.32)">
<title>Flow</title>
<polygon fill="white" stroke="none" points="-4,4 -4,-283.32 684.2,-283.32 684.2,4 -4,4"/>
<!-- RFC1797 -->
<g id="node1" class="node">
<title>RFC1797</title>
<g id="a_node1"><a xlink:title="There appears to be some interest in experimenting with subnetting the class A addresses. &#160;It is suggested that conducting an experiment now to identify and fix any software that does not properly handle subnetted class A addresses would be useful and important. &#160;This document defines an Experimental Protocol for the Internet community. &#160;This does not specify an Internet standard of any kind.">
<ellipse fill="none" stroke="black" cx="472.1" cy="-193.66" rx="116.85" ry="40.66"/>
<text xml:space="preserve" text-anchor="middle" x="472.1" y="-205.11" font-family="Times,serif" font-size="14.00">RFC1797</text>
<text xml:space="preserve" text-anchor="middle" x="472.1" y="-188.61" font-family="Times,serif" font-size="14.00">Class A Subnet Experiment</text>
<text xml:space="preserve" text-anchor="middle" x="472.1" y="-172.11" font-family="Times,serif" font-size="14.00">1995</text>
</a>
</g>
</g>
<!-- obs -->
<g id="node3" class="node">
<title>obs</title>
<polygon fill="none" stroke="black" points="680.2,-265.66 613.95,-265.66 613.95,-229.66 680.2,-229.66 680.2,-265.66"/>
<text xml:space="preserve" text-anchor="middle" x="647.08" y="-242.61" font-family="Times,serif" font-size="14.00">obsoletes</text>
</g>
<!-- RFC1797&#45;&gt;obs -->
<g id="edge2" class="edge">
<title>RFC1797&#45;&gt;obs</title>
<path fill="none" stroke="black" d="M560.1,-220.82C574.93,-225.45 589.75,-230.07 602.8,-234.15"/>
<polygon fill="black" stroke="black" points="601.73,-237.48 612.32,-237.12 603.82,-230.8 601.73,-237.48"/>
</g>
<!-- updates -->
<g id="node4" class="node">
<title>updates</title>
<polygon fill="none" stroke="black" points="675.7,-211.66 618.45,-211.66 618.45,-175.66 675.7,-175.66 675.7,-211.66"/>
<text xml:space="preserve" text-anchor="middle" x="647.08" y="-188.61" font-family="Times,serif" font-size="14.00">updates</text>
</g>
<!-- RFC1797&#45;&gt;updates -->
<g id="edge3" class="edge">
<title>RFC1797&#45;&gt;updates</title>
<path fill="none" stroke="black" d="M589.44,-193.66C595.51,-193.66 601.37,-193.66 606.85,-193.66"/>
<polygon fill="black" stroke="black" points="606.71,-197.16 616.71,-193.66 606.71,-190.16 606.71,-197.16"/>
</g>
<!-- cites -->
<g id="node6" class="node">
<title>cites</title>
<polygon fill="none" stroke="black" points="674.08,-157.66 620.08,-157.66 620.08,-121.66 674.08,-121.66 674.08,-157.66"/>
<text xml:space="preserve" text-anchor="middle" x="647.08" y="-134.61" font-family="Times,serif" font-size="14.00">cites</text>
</g>
<!-- RFC1797&#45;&gt;cites -->
<g id="edge5" class="edge">
<title>RFC1797&#45;&gt;cites</title>
<path fill="none" stroke="black" d="M560.1,-166.5C577.22,-161.15 594.32,-155.82 608.71,-151.32"/>
<polygon fill="black" stroke="black" points="609.67,-154.69 618.17,-148.37 607.58,-148.01 609.67,-154.69"/>
</g>
<!-- obs_by -->
<g id="node2" class="node">
<title>obs_by</title>
<polygon fill="none" stroke="black" points="330.25,-265.66 264,-265.66 264,-229.66 330.25,-229.66 330.25,-265.66"/>
<text xml:space="preserve" text-anchor="middle" x="297.13" y="-242.61" font-family="Times,serif" font-size="14.00">obsoletes</text>
</g>
<!-- obs_by&#45;&gt;RFC1797 -->
<g id="edge1" class="edge">
<title>obs_by&#45;&gt;RFC1797</title>
<path fill="none" stroke="black" d="M330.66,-237.5C343.15,-233.6 358.13,-228.93 373.59,-224.1"/>
<polygon fill="black" stroke="black" points="374.39,-227.52 382.89,-221.2 372.31,-220.83 374.39,-227.52"/>
</g>
<!-- updated_by -->
<g id="node5" class="node">
<title>updated_by</title>
<polygon fill="none" stroke="black" points="325.75,-211.66 268.5,-211.66 268.5,-175.66 325.75,-175.66 325.75,-211.66"/>
<text xml:space="preserve" text-anchor="middle" x="297.13" y="-188.61" font-family="Times,serif" font-size="14.00">updates</text>
</g>
<!-- updated_by&#45;&gt;RFC1797 -->
<g id="edge4" class="edge">
<title>updated_by&#45;&gt;RFC1797</title>
<path fill="none" stroke="black" d="M325.92,-193.66C331.36,-193.66 337.4,-193.66 343.82,-193.66"/>
<polygon fill="black" stroke="black" points="343.44,-197.16 353.44,-193.66 343.44,-190.16 343.44,-197.16"/>
</g>
<!-- rev_cites -->
<g id="node7" class="node">
<title>rev_cites</title>
<polygon fill="none" stroke="black" points="324.13,-157.66 270.13,-157.66 270.13,-121.66 324.13,-121.66 324.13,-157.66"/>
<text xml:space="preserve" text-anchor="middle" x="297.13" y="-134.61" font-family="Times,serif" font-size="14.00">cites</text>
</g>
<!-- rev_cites&#45;&gt;RFC1797 -->
<g id="edge6" class="edge">
<title>rev_cites&#45;&gt;RFC1797</title>
<path fill="none" stroke="black" d="M324.4,-147.86C337.84,-152.06 355.15,-157.46 373.12,-163.07"/>
<polygon fill="black" stroke="black" points="372.03,-166.4 382.62,-166.04 374.12,-159.72 372.03,-166.4"/>
</g>
<!-- RFC2770 -->
<g id="node8" class="node">
<title>RFC2770</title>
<g id="a_node8"><a xlink:href="RFC2770.html" xlink:title="This describes an experimental policy for use of the class D address space using 233/8 as the experimental statically assigned subset of the class D address space. &#160;This memo defines an Experimental Protocol for the Internet community." target="_top">
<ellipse fill="none" stroke="black" cx="119.5" cy="-238.66" rx="116.32" ry="40.66"/>
<text xml:space="preserve" text-anchor="middle" x="119.5" y="-250.11" font-family="Times,serif" font-size="14.00">RFC2770</text>
<text xml:space="preserve" text-anchor="middle" x="119.5" y="-233.61" font-family="Times,serif" font-size="14.00">GLOP Addressing in 233/8</text>
<text xml:space="preserve" text-anchor="middle" x="119.5" y="-217.11" font-family="Times,serif" font-size="14.00">2000</text>
</a>
</g>
</g>
<!-- RFC2770&#45;&gt;rev_cites -->
<g id="edge7" class="edge">
<title>RFC2770&#45;&gt;rev_cites</title>
<path fill="none" stroke="black" d="M201.78,-209.54C214.62,-203.68 227.46,-197.02 239,-189.66 251.73,-181.54 252.66,-176.63 264,-166.66 264.4,-166.31 264.8,-165.96 265.2,-165.61"/>
<polygon fill="black" stroke="black" points="267.45,-168.29 272.75,-159.11 262.89,-162.98 267.45,-168.29"/>
</g>
<!-- RFC3180 -->
<g id="node9" class="node">
<title>RFC3180</title>
<g id="a_node9"><a xlink:href="RFC3180.html" xlink:title="This document defines the policy for the use of 233/8 for statically e assigned multicast addresses. &#160;This document specifies an Internet Best Current Practices for the Internet Community, and requests discussion and suggestions for improvements." target="_top">
<ellipse fill="none" stroke="black" cx="119.5" cy="-139.66" rx="116.32" ry="40.66"/>
<text xml:space="preserve" text-anchor="middle" x="119.5" y="-151.11" font-family="Times,serif" font-size="14.00">RFC3180</text>
<text xml:space="preserve" text-anchor="middle" x="119.5" y="-134.61" font-family="Times,serif" font-size="14.00">GLOP Addressing in 233/8</text>
<text xml:space="preserve" text-anchor="middle" x="119.5" y="-118.11" font-family="Times,serif" font-size="14.00">2001</text>
</a>
</g>
</g>
<!-- RFC3180&#45;&gt;rev_cites -->
<g id="edge8" class="edge">
<title>RFC3180&#45;&gt;rev_cites</title>
<path fill="none" stroke="black" d="M236.18,-139.66C244.06,-139.66 251.61,-139.66 258.54,-139.66"/>
<polygon fill="black" stroke="black" points="258.38,-143.16 268.38,-139.66 258.38,-136.16 258.38,-143.16"/>
</g>
<!-- RFC3330 -->
<g id="node10" class="node">
<title>RFC3330</title>
<g id="a_node10"><a xlink:href="RFC3330.html" xlink:title="None" target="_top">
<ellipse fill="none" stroke="black" cx="119.5" cy="-40.66" rx="119.5" ry="40.66"/>
<text xml:space="preserve" text-anchor="middle" x="119.5" y="-52.11" font-family="Times,serif" font-size="14.00">RFC3330</text>
<text xml:space="preserve" text-anchor="middle" x="119.5" y="-35.61" font-family="Times,serif" font-size="14.00">Special&#45;Use IPv4 Addresses</text>
<text xml:space="preserve" text-anchor="middle" x="119.5" y="-19.11" font-family="Times,serif" font-size="14.00">2002</text>
</a>
</g>
</g>
<!-- RFC3330&#45;&gt;rev_cites -->
<g id="edge9" class="edge">
<title>RFC3330&#45;&gt;rev_cites</title>
<path fill="none" stroke="black" d="M202.25,-70.31C214.91,-76.07 227.56,-82.56 239,-89.66 249.86,-96.4 260.7,-105.21 269.96,-113.56"/>
<polygon fill="black" stroke="black" points="267.5,-116.05 277.21,-120.3 272.27,-110.93 267.5,-116.05"/>
</g>
</g>
</svg>
