<?xml version="1.0" encoding="UTF-8" standalone="no"?>
<!DOCTYPE svg PUBLIC "-//W3C//DTD SVG 1.1//EN"
 "http://www.w3.org/Graphics/SVG/1.1/DTD/svg11.dtd">
<!-- Generated by graphviz version 14.1.1 (20251213.1925)
 -->
<!-- Title: Flow Pages: 1 -->
<svg width="1222pt" height="236pt"
 viewBox="0.00 0.00 1222.00 236.00" xmlns="http://www.w3.org/2000/svg" xmlns:xlink="http://www.w3.org/1999/xlink">
<g id="graph0" class="graph" transform="scale(1 1) rotate(0) translate(4 231.65)">
<title>Flow</title>
<polygon fill="white" stroke="none" points="-4,4 -4,-231.65 1217.61,-231.65 1217.61,4 -4,4"/>
<!-- RFC1098 -->
<g id="node1" class="node">
<title>RFC1098</title>
<g id="a_node1"><a xlink:title="This RFC is a re&#45;release of RFC 1067, with a changed Status of this Memo section. &#160;This memo defines a simple protocol by which management information for a network element may be inspected or altered by logically remote users. &#160;In particular, together with its companion memos which describe the structure of management information along with the initial management information base, these documents provide a simple, workable architecture and system for managing TCP/IP&#45;based internets and in particular the Internet.">
<ellipse fill="green" stroke="black" cx="606.81" cy="-117.33" rx="163.52" ry="52.33"/>
<text xml:space="preserve" text-anchor="middle" x="606.81" y="-137.03" font-family="Times,serif" font-size="14.00">RFC1098</text>
<text xml:space="preserve" text-anchor="middle" x="606.81" y="-120.53" font-family="Times,serif" font-size="14.00">Simple Network Management Protocol</text>
<text xml:space="preserve" text-anchor="middle" x="606.81" y="-104.03" font-family="Times,serif" font-size="14.00">(SNMP)</text>
<text xml:space="preserve" text-anchor="middle" x="606.81" y="-87.53" font-family="Times,serif" font-size="14.00">1989</text>
</a>
</g>
</g>
<!-- obs -->
<g id="node4" class="node">
<title>obs</title>
<polygon fill="lightblue" stroke="black" points="861.57,-189.33 795.32,-189.33 795.32,-153.33 861.57,-153.33 861.57,-189.33"/>
<text xml:space="preserve" text-anchor="middle" x="828.45" y="-166.28" font-family="Times,serif" font-size="14.00">obsoletes</text>
</g>
<!-- RFC1098&#45;&gt;obs -->
<g id="edge3" class="edge">
<title>RFC1098&#45;&gt;obs</title>
<path fill="none" stroke="black" d="M737.48,-149.21C754.17,-153.31 770.22,-157.26 784.04,-160.65"/>
<polygon fill="black" stroke="black" points="783.06,-164.02 793.6,-163.01 784.73,-157.22 783.06,-164.02"/>
</g>
<!-- updates -->
<g id="node6" class="node">
<title>updates</title>
<polygon fill="lightyellow" stroke="black" points="857.07,-135.33 799.82,-135.33 799.82,-99.33 857.07,-99.33 857.07,-135.33"/>
<text xml:space="preserve" text-anchor="middle" x="828.45" y="-112.28" font-family="Times,serif" font-size="14.00">updates</text>
</g>
<!-- RFC1098&#45;&gt;updates -->
<g id="edge5" class="edge">
<title>RFC1098&#45;&gt;updates</title>
<path fill="none" stroke="black" d="M770.6,-117.33C776.76,-117.33 782.63,-117.33 788.1,-117.33"/>
<polygon fill="black" stroke="black" points="787.87,-120.83 797.87,-117.33 787.87,-113.83 787.87,-120.83"/>
</g>
<!-- cites -->
<g id="node8" class="node">
<title>cites</title>
<polygon fill="lightblue" stroke="black" points="855.45,-81.33 801.45,-81.33 801.45,-45.33 855.45,-45.33 855.45,-81.33"/>
<text xml:space="preserve" text-anchor="middle" x="828.45" y="-58.28" font-family="Times,serif" font-size="14.00">cites</text>
</g>
<!-- RFC1098&#45;&gt;cites -->
<g id="edge7" class="edge">
<title>RFC1098&#45;&gt;cites</title>
<path fill="none" stroke="black" d="M737.48,-85.45C756.72,-80.71 775.12,-76.19 790.21,-72.48"/>
<polygon fill="black" stroke="black" points="790.72,-75.96 799.6,-70.17 789.05,-69.16 790.72,-75.96"/>
</g>
<!-- obs_by -->
<g id="node2" class="node">
<title>obs_by</title>
<polygon fill="lightblue" stroke="black" points="418.29,-191.33 352.04,-191.33 352.04,-155.33 418.29,-155.33 418.29,-191.33"/>
<text xml:space="preserve" text-anchor="middle" x="385.16" y="-168.28" font-family="Times,serif" font-size="14.00">obsoletes</text>
</g>
<!-- obs_by&#45;&gt;RFC1098 -->
<g id="edge1" class="edge">
<title>obs_by&#45;&gt;RFC1098</title>
<path fill="none" stroke="black" d="M418.57,-165.06C432.17,-161.59 449,-157.3 466.94,-152.73"/>
<polygon fill="black" stroke="black" points="467.63,-156.17 476.46,-150.3 465.9,-149.38 467.63,-156.17"/>
</g>
<!-- RFC1157 -->
<g id="node3" class="node">
<title>RFC1157</title>
<g id="a_node3"><a xlink:href="RFC1157.html" xlink:title="This RFC is a re&#45;release of RFC 1098, with a changed Status of this Memo section plus a few minor typographical corrections. &#160;This memo defines a simple protocol by which management information for a network element may be inspected or altered by logically remote users. [STANDARDS&#45;TRACK]" target="_top">
<ellipse fill="none" stroke="black" cx="163.52" cy="-175.33" rx="163.52" ry="52.33"/>
<text xml:space="preserve" text-anchor="middle" x="163.52" y="-195.03" font-family="Times,serif" font-size="14.00">RFC1157</text>
<text xml:space="preserve" text-anchor="middle" x="163.52" y="-178.53" font-family="Times,serif" font-size="14.00">Simple Network Management Protocol</text>
<text xml:space="preserve" text-anchor="middle" x="163.52" y="-162.03" font-family="Times,serif" font-size="14.00">(SNMP)</text>
<text xml:space="preserve" text-anchor="middle" x="163.52" y="-145.53" font-family="Times,serif" font-size="14.00">1990</text>
</a>
</g>
</g>
<!-- RFC1157&#45;&gt;obs_by -->
<g id="edge2" class="edge">
<title>RFC1157&#45;&gt;obs_by</title>
<path fill="none" stroke="black" d="M327.31,-173.84C331.89,-173.8 336.31,-173.76 340.53,-173.72"/>
<polygon fill="black" stroke="black" points="340.33,-177.23 350.3,-173.63 340.26,-170.23 340.33,-177.23"/>
</g>
<!-- RFC1067 -->
<g id="node5" class="node">
<title>RFC1067</title>
<g id="a_node5"><a xlink:href="RFC1067.html" xlink:title="This RFC defines a simple protocol by which management information for a network element may be inspected or altered by logically remote users. &#160;In particular, together with its companion memos which describe the structure of management information along with the initial management information base, these documents provide a simple, workable architecture and system for managing TCP/IP&#45;based internets and in particular, the Internet. &#160;This memo specifies a draft standard for the Internet community. &#160;TCP/IP implementations in the Internet which are network manageable are expected to adopt and implement this specification." target="_top">
<ellipse fill="none" stroke="black" cx="1050.09" cy="-171.33" rx="163.52" ry="40.66"/>
<text xml:space="preserve" text-anchor="middle" x="1050.09" y="-182.78" font-family="Times,serif" font-size="14.00">RFC1067</text>
<text xml:space="preserve" text-anchor="middle" x="1050.09" y="-166.28" font-family="Times,serif" font-size="14.00">Simple Network Management Protocol</text>
<text xml:space="preserve" text-anchor="middle" x="1050.09" y="-149.78" font-family="Times,serif" font-size="14.00">1988</text>
</a>
</g>
</g>
<!-- obs&#45;&gt;RFC1067 -->
<g id="edge4" class="edge">
<title>obs&#45;&gt;RFC1067</title>
<path fill="none" stroke="black" d="M861.86,-171.33C865.95,-171.33 870.34,-171.33 874.96,-171.33"/>
<polygon fill="black" stroke="black" points="874.63,-174.83 884.63,-171.33 874.63,-167.83 874.63,-174.83"/>
</g>
<!-- updated_by -->
<g id="node7" class="node">
<title>updated_by</title>
<polygon fill="lightyellow" stroke="black" points="413.79,-135.33 356.54,-135.33 356.54,-99.33 413.79,-99.33 413.79,-135.33"/>
<text xml:space="preserve" text-anchor="middle" x="385.16" y="-112.28" font-family="Times,serif" font-size="14.00">updates</text>
</g>
<!-- updated_by&#45;&gt;RFC1098 -->
<g id="edge6" class="edge">
<title>updated_by&#45;&gt;RFC1098</title>
<path fill="none" stroke="black" d="M413.98,-117.33C419.38,-117.33 425.39,-117.33 431.86,-117.33"/>
<polygon fill="black" stroke="black" points="431.64,-120.83 441.64,-117.33 431.64,-113.83 431.64,-120.83"/>
</g>
<!-- rev_cites -->
<g id="node9" class="node">
<title>rev_cites</title>
<polygon fill="lightblue" stroke="black" points="412.16,-77.33 358.16,-77.33 358.16,-41.33 412.16,-41.33 412.16,-77.33"/>
<text xml:space="preserve" text-anchor="middle" x="385.16" y="-54.28" font-family="Times,serif" font-size="14.00">cites</text>
</g>
<!-- rev_cites&#45;&gt;RFC1098 -->
<g id="edge8" class="edge">
<title>rev_cites&#45;&gt;RFC1098</title>
<path fill="none" stroke="black" d="M412.66,-66.32C427.59,-70.27 447.51,-75.53 468.89,-81.17"/>
<polygon fill="black" stroke="black" points="467.81,-84.51 478.38,-83.68 469.6,-77.74 467.81,-84.51"/>
</g>
<!-- RFC1109 -->
<g id="node10" class="node">
<title>RFC1109</title>
<g id="a_node10"><a xlink:href="RFC1109.html" xlink:title="This RFC reports an official Internet Activities Board (IAB) policy position on the treatment of Network Management in the Internet. &#160;This RFC presents the results and recommendations of the second Ad Hoc Network Management Review on June 12, 1989. &#160;The results of the first such meeting were reported in RFC 1052." target="_top">
<ellipse fill="none" stroke="black" cx="163.52" cy="-52.33" rx="159.81" ry="52.33"/>
<text xml:space="preserve" text-anchor="middle" x="163.52" y="-72.03" font-family="Times,serif" font-size="14.00">RFC1109</text>
<text xml:space="preserve" text-anchor="middle" x="163.52" y="-55.53" font-family="Times,serif" font-size="14.00">Report of the second Ad Hoc Network</text>
<text xml:space="preserve" text-anchor="middle" x="163.52" y="-39.03" font-family="Times,serif" font-size="14.00">Management Review Group</text>
<text xml:space="preserve" text-anchor="middle" x="163.52" y="-22.53" font-family="Times,serif" font-size="14.00">1989</text>
</a>
</g>
</g>
<!-- RFC1109&#45;&gt;rev_cites -->
<g id="edge9" class="edge">
<title>RFC1109&#45;&gt;rev_cites</title>
<path fill="none" stroke="black" d="M322.98,-57.38C331.39,-57.64 339.32,-57.9 346.51,-58.13"/>
<polygon fill="black" stroke="black" points="346.24,-61.62 356.35,-58.44 346.47,-54.62 346.24,-61.62"/>
</g>
</g>
</svg>
