<?xml version="1.0" encoding="UTF-8" standalone="no"?>
<!DOCTYPE svg PUBLIC "-//W3C//DTD SVG 1.1//EN"
 "http://www.w3.org/Graphics/SVG/1.1/DTD/svg11.dtd">
<!-- Generated by graphviz version 14.1.1 (20251213.1925)
 -->
<!-- Title: Flow Pages: 1 -->
<svg width="999pt" height="197pt"
 viewBox="0.00 0.00 999.00 197.00" xmlns="http://www.w3.org/2000/svg" xmlns:xlink="http://www.w3.org/1999/xlink">
<g id="graph0" class="graph" transform="scale(1 1) rotate(0) translate(4 193.32)">
<title>Flow</title>
<polygon fill="white" stroke="none" points="-4,4 -4,-193.32 994.87,-193.32 994.87,4 -4,4"/>
<!-- RFC1372 -->
<g id="node1" class="node">
<title>RFC1372</title>
<g id="a_node1"><a xlink:title="This document specifies an extended version of the Telnet Remote Flow Control Option, RFC 1080, with the addition of the RESTART&#45;ANY and RESTART&#45;XON suboptions. [STANDARDS&#45;TRACK]">
<ellipse fill="green" stroke="black" cx="438.16" cy="-94.66" rx="151.85" ry="40.66"/>
<text xml:space="preserve" text-anchor="middle" x="438.16" y="-106.11" font-family="Times,serif" font-size="14.00">RFC1372</text>
<text xml:space="preserve" text-anchor="middle" x="438.16" y="-89.61" font-family="Times,serif" font-size="14.00">Telnet Remote Flow Control Option</text>
<text xml:space="preserve" text-anchor="middle" x="438.16" y="-73.11" font-family="Times,serif" font-size="14.00">1992</text>
</a>
</g>
</g>
<!-- obs -->
<g id="node3" class="node">
<title>obs</title>
<polygon fill="lightblue" stroke="black" points="681.26,-166.66 615.01,-166.66 615.01,-130.66 681.26,-130.66 681.26,-166.66"/>
<text xml:space="preserve" text-anchor="middle" x="648.14" y="-143.61" font-family="Times,serif" font-size="14.00">obsoletes</text>
</g>
<!-- RFC1372&#45;&gt;obs -->
<g id="edge2" class="edge">
<title>RFC1372&#45;&gt;obs</title>
<path fill="none" stroke="black" d="M548.33,-123C568.09,-128.13 587.6,-133.2 604,-137.46"/>
<polygon fill="black" stroke="black" points="602.79,-140.76 613.35,-139.89 604.55,-133.99 602.79,-140.76"/>
</g>
<!-- updates -->
<g id="node5" class="node">
<title>updates</title>
<polygon fill="lightyellow" stroke="black" points="676.76,-112.66 619.51,-112.66 619.51,-76.66 676.76,-76.66 676.76,-112.66"/>
<text xml:space="preserve" text-anchor="middle" x="648.14" y="-89.61" font-family="Times,serif" font-size="14.00">updates</text>
</g>
<!-- RFC1372&#45;&gt;updates -->
<g id="edge4" class="edge">
<title>RFC1372&#45;&gt;updates</title>
<path fill="none" stroke="black" d="M590.31,-94.66C596.5,-94.66 602.41,-94.66 607.91,-94.66"/>
<polygon fill="black" stroke="black" points="607.76,-98.16 617.76,-94.66 607.76,-91.16 607.76,-98.16"/>
</g>
<!-- cites -->
<g id="node7" class="node">
<title>cites</title>
<polygon fill="lightblue" stroke="black" points="675.14,-58.66 621.14,-58.66 621.14,-22.66 675.14,-22.66 675.14,-58.66"/>
<text xml:space="preserve" text-anchor="middle" x="648.14" y="-35.61" font-family="Times,serif" font-size="14.00">cites</text>
</g>
<!-- RFC1372&#45;&gt;cites -->
<g id="edge6" class="edge">
<title>RFC1372&#45;&gt;cites</title>
<path fill="none" stroke="black" d="M548.33,-66.31C570.53,-60.55 592.42,-54.87 609.93,-50.32"/>
<polygon fill="black" stroke="black" points="610.5,-53.79 619.3,-47.89 608.74,-47.01 610.5,-53.79"/>
</g>
<!-- obs_by -->
<g id="node2" class="node">
<title>obs_by</title>
<polygon fill="lightblue" stroke="black" points="261.31,-166.66 195.06,-166.66 195.06,-130.66 261.31,-130.66 261.31,-166.66"/>
<text xml:space="preserve" text-anchor="middle" x="228.18" y="-143.61" font-family="Times,serif" font-size="14.00">obsoletes</text>
</g>
<!-- obs_by&#45;&gt;RFC1372 -->
<g id="edge1" class="edge">
<title>obs_by&#45;&gt;RFC1372</title>
<path fill="none" stroke="black" d="M261.68,-140.22C277.08,-136.22 296.53,-131.17 316.83,-125.9"/>
<polygon fill="black" stroke="black" points="317.58,-129.32 326.38,-123.42 315.82,-122.55 317.58,-129.32"/>
</g>
<!-- RFC1080 -->
<g id="node4" class="node">
<title>RFC1080</title>
<g id="a_node4"><a xlink:href="RFC1080.html" xlink:title="This RFC specifies a standard for the Internet community. &#160;Hosts on the Internet that do remote flow control within the Telnet protocol are expected to adopt and implement this standard." target="_top">
<ellipse fill="none" stroke="black" cx="848.57" cy="-148.66" rx="142.31" ry="40.66"/>
<text xml:space="preserve" text-anchor="middle" x="848.57" y="-160.11" font-family="Times,serif" font-size="14.00">RFC1080</text>
<text xml:space="preserve" text-anchor="middle" x="848.57" y="-143.61" font-family="Times,serif" font-size="14.00">Telnet remote flow control option</text>
<text xml:space="preserve" text-anchor="middle" x="848.57" y="-127.11" font-family="Times,serif" font-size="14.00">1988</text>
</a>
</g>
</g>
<!-- obs&#45;&gt;RFC1080 -->
<g id="edge3" class="edge">
<title>obs&#45;&gt;RFC1080</title>
<path fill="none" stroke="black" d="M681.46,-148.66C685.6,-148.66 690.03,-148.66 694.68,-148.66"/>
<polygon fill="black" stroke="black" points="694.41,-152.16 704.41,-148.66 694.41,-145.16 694.41,-152.16"/>
</g>
<!-- updated_by -->
<g id="node6" class="node">
<title>updated_by</title>
<polygon fill="lightyellow" stroke="black" points="256.81,-112.66 199.56,-112.66 199.56,-76.66 256.81,-76.66 256.81,-112.66"/>
<text xml:space="preserve" text-anchor="middle" x="228.18" y="-89.61" font-family="Times,serif" font-size="14.00">updates</text>
</g>
<!-- updated_by&#45;&gt;RFC1372 -->
<g id="edge5" class="edge">
<title>updated_by&#45;&gt;RFC1372</title>
<path fill="none" stroke="black" d="M257.23,-94.66C262.43,-94.66 268.18,-94.66 274.35,-94.66"/>
<polygon fill="black" stroke="black" points="274.34,-98.16 284.34,-94.66 274.34,-91.16 274.34,-98.16"/>
</g>
<!-- rev_cites -->
<g id="node8" class="node">
<title>rev_cites</title>
<polygon fill="lightblue" stroke="black" points="255.18,-58.66 201.18,-58.66 201.18,-22.66 255.18,-22.66 255.18,-58.66"/>
<text xml:space="preserve" text-anchor="middle" x="228.18" y="-35.61" font-family="Times,serif" font-size="14.00">cites</text>
</g>
<!-- rev_cites&#45;&gt;RFC1372 -->
<g id="edge7" class="edge">
<title>rev_cites&#45;&gt;RFC1372</title>
<path fill="none" stroke="black" d="M255.52,-47.5C271.75,-51.71 293.85,-57.45 317.04,-63.47"/>
<polygon fill="black" stroke="black" points="316.1,-66.84 326.65,-65.97 317.85,-60.07 316.1,-66.84"/>
</g>
<!-- RFC1700 -->
<g id="node9" class="node">
<title>RFC1700</title>
<g id="a_node9"><a xlink:href="RFC1700.html" xlink:title="This RFC is a snapshot of the ongoing process of the assignment of protocol parameters for the Internet protocol suite. &#160;To make the current information readily available the assignments are kept up&#45;to&#45; date in a set of online text files. &#160;This memo is a status report on the parameters (i.e., numbers and keywords) used in protocols in the Internet community." target="_top">
<ellipse fill="none" stroke="black" cx="85.03" cy="-40.66" rx="85.03" ry="40.66"/>
<text xml:space="preserve" text-anchor="middle" x="85.03" y="-52.11" font-family="Times,serif" font-size="14.00">RFC1700</text>
<text xml:space="preserve" text-anchor="middle" x="85.03" y="-35.61" font-family="Times,serif" font-size="14.00">Assigned Numbers</text>
<text xml:space="preserve" text-anchor="middle" x="85.03" y="-19.11" font-family="Times,serif" font-size="14.00">1994</text>
</a>
</g>
</g>
<!-- RFC1700&#45;&gt;rev_cites -->
<g id="edge8" class="edge">
<title>RFC1700&#45;&gt;rev_cites</title>
<path fill="none" stroke="black" d="M170.18,-40.66C176.94,-40.66 183.53,-40.66 189.69,-40.66"/>
<polygon fill="black" stroke="black" points="189.41,-44.16 199.41,-40.66 189.41,-37.16 189.41,-44.16"/>
</g>
</g>
</svg>
