<?xml version="1.0" encoding="UTF-8" standalone="no"?>
<!DOCTYPE svg PUBLIC "-//W3C//DTD SVG 1.1//EN"
 "http://www.w3.org/Graphics/SVG/1.1/DTD/svg11.dtd">
<!-- Generated by graphviz version 14.1.1 (20251213.1925)
 -->
<!-- Title: Flow Pages: 1 -->
<svg width="1553pt" height="1175pt"
 viewBox="0.00 0.00 1553.00 1175.00" xmlns="http://www.w3.org/2000/svg" xmlns:xlink="http://www.w3.org/1999/xlink">
<g id="graph0" class="graph" transform="scale(1 1) rotate(0) translate(4 1171.46)">
<title>Flow</title>
<polygon fill="white" stroke="none" points="-4,4 -4,-1171.46 1549.42,-1171.46 1549.42,4 -4,4"/>
<!-- RFC1045 -->
<g id="node1" class="node">
<title>RFC1045</title>
<g id="a_node1"><a xlink:title="This memo specifies the Versatile Message Transaction Protocol (VMTP) [Version 0.7 of 19&#45;Feb&#45;88], a transport protocol specifically designed to support the transaction model of communication, as exemplified by remote procedure call (RPC). &#160;The full function of VMTP, including support for security, real&#45;time, asynchronous message exchanges, streaming, multicast and idempotency, provides a rich selection to the VMTP user level. &#160;Subsettability allows the VMTP module for particular clients and servers to be specialized and simplified to the services actually required. &#160;Examples of such simple clients and servers include PROM network bootload programs, network boot servers, data sensors and simple controllers, to mention but a few examples. &#160;This RFC describes a protocol proposed as a standard for the Internet community.">
<ellipse fill="green" stroke="black" stroke-width="3" cx="700.96" cy="-787.64" rx="209.66" ry="65.05"/>
<text xml:space="preserve" text-anchor="middle" x="700.96" y="-812.54" font-family="Times,serif" font-size="18.00">RFC1045</text>
<text xml:space="preserve" text-anchor="middle" x="700.96" y="-791.54" font-family="Times,serif" font-size="18.00">VMTP: Versatile Message Transaction</text>
<text xml:space="preserve" text-anchor="middle" x="700.96" y="-770.54" font-family="Times,serif" font-size="18.00">Protocol: Protocol specification</text>
<text xml:space="preserve" text-anchor="middle" x="700.96" y="-749.54" font-family="Times,serif" font-size="18.00">1988</text>
</a>
</g>
</g>
<!-- obs -->
<g id="node3" class="node">
<title>obs</title>
<polygon fill="lightblue" stroke="black" points="1079.33,-931.3 1013.08,-931.3 1013.08,-895.3 1079.33,-895.3 1079.33,-931.3"/>
<text xml:space="preserve" text-anchor="middle" x="1046.2" y="-908.25" font-family="Times,serif" font-size="14.00">obsoletes</text>
</g>
<!-- RFC1045&#45;&gt;obs -->
<g id="edge2" class="edge">
<title>RFC1045&#45;&gt;obs</title>
<path fill="none" stroke="black" d="M838.9,-837.84C897.05,-859.01 960.68,-882.17 1001.89,-897.17"/>
<polygon fill="black" stroke="black" points="1000.63,-900.43 1011.22,-900.56 1003.02,-893.85 1000.63,-900.43"/>
</g>
<!-- updates -->
<g id="node4" class="node">
<title>updates</title>
<polygon fill="lightyellow" stroke="black" points="913.28,-1123.82 856.03,-1123.82 856.03,-1087.82 913.28,-1087.82 913.28,-1123.82"/>
<text xml:space="preserve" text-anchor="middle" x="884.66" y="-1100.77" font-family="Times,serif" font-size="14.00">updates</text>
</g>
<!-- RFC1045&#45;&gt;updates -->
<g id="edge3" class="edge">
<title>RFC1045&#45;&gt;updates</title>
<path fill="none" stroke="black" d="M738.57,-852.79C778.46,-921.88 839.6,-1027.78 868.48,-1077.8"/>
<polygon fill="black" stroke="black" points="865.35,-1079.37 873.38,-1086.28 871.41,-1075.87 865.35,-1079.37"/>
</g>
<!-- cites -->
<g id="node6" class="node">
<title>cites</title>
<polygon fill="lightblue" stroke="black" points="664.16,-1167.46 610.16,-1167.46 610.16,-1131.46 664.16,-1131.46 664.16,-1167.46"/>
<text xml:space="preserve" text-anchor="middle" x="637.16" y="-1144.41" font-family="Times,serif" font-size="14.00">cites</text>
</g>
<!-- RFC1045&#45;&gt;cites -->
<g id="edge5" class="edge">
<title>RFC1045&#45;&gt;cites</title>
<path fill="none" stroke="black" d="M689.26,-854C675.28,-933.23 652.53,-1062.27 642.36,-1119.96"/>
<polygon fill="black" stroke="black" points="638.94,-1119.2 640.65,-1129.65 645.83,-1120.41 638.94,-1119.2"/>
</g>
<!-- obs_by -->
<g id="node2" class="node">
<title>obs_by</title>
<polygon fill="lightblue" stroke="black" points="452.63,-1041.8 386.38,-1041.8 386.38,-1005.8 452.63,-1005.8 452.63,-1041.8"/>
<text xml:space="preserve" text-anchor="middle" x="419.51" y="-1018.75" font-family="Times,serif" font-size="14.00">obsoletes</text>
</g>
<!-- obs_by&#45;&gt;RFC1045 -->
<g id="edge1" class="edge">
<title>obs_by&#45;&gt;RFC1045</title>
<path fill="none" stroke="black" d="M441.13,-1005.66C478.56,-974.25 557.3,-908.18 618.34,-856.96"/>
<polygon fill="black" stroke="black" points="620.26,-859.92 625.67,-850.81 615.76,-854.55 620.26,-859.92"/>
</g>
<!-- updated_by -->
<g id="node5" class="node">
<title>updated_by</title>
<polygon fill="lightyellow" stroke="black" points="362.18,-805.64 304.93,-805.64 304.93,-769.64 362.18,-769.64 362.18,-805.64"/>
<text xml:space="preserve" text-anchor="middle" x="333.55" y="-782.59" font-family="Times,serif" font-size="14.00">updates</text>
</g>
<!-- updated_by&#45;&gt;RFC1045 -->
<g id="edge4" class="edge">
<title>updated_by&#45;&gt;RFC1045</title>
<path fill="none" stroke="black" d="M362.38,-787.64C389.26,-787.64 432.07,-787.64 478.33,-787.64"/>
<polygon fill="black" stroke="black" points="478.32,-791.14 488.32,-787.64 478.32,-784.14 478.32,-791.14"/>
</g>
<!-- rev_cites -->
<g id="node7" class="node">
<title>rev_cites</title>
<polygon fill="lightblue" stroke="black" points="791.76,-443.81 737.76,-443.81 737.76,-407.81 791.76,-407.81 791.76,-443.81"/>
<text xml:space="preserve" text-anchor="middle" x="764.76" y="-420.76" font-family="Times,serif" font-size="14.00">cites</text>
</g>
<!-- rev_cites&#45;&gt;RFC1045 -->
<g id="edge6" class="edge">
<title>rev_cites&#45;&gt;RFC1045</title>
<path fill="none" stroke="black" d="M761.5,-444.25C753,-492.49 729.71,-624.58 714.62,-710.16"/>
<polygon fill="black" stroke="black" points="711.19,-709.45 712.9,-719.91 718.08,-710.67 711.19,-709.45"/>
</g>
<!-- RFC1077 -->
<g id="node8" class="node">
<title>RFC1077</title>
<g id="a_node8"><a xlink:href="RFC1077.html" xlink:title="This memo presents the results of a working group on High Bandwidth Networking. &#160;This RFC is for your information and you are encouraged to comment on the issues presented." target="_top">
<ellipse fill="none" stroke="black" cx="138.06" cy="-315.31" rx="138.06" ry="52.33"/>
<text xml:space="preserve" text-anchor="middle" x="138.06" y="-335.01" font-family="Times,serif" font-size="14.00">RFC1077</text>
<text xml:space="preserve" text-anchor="middle" x="138.06" y="-318.51" font-family="Times,serif" font-size="14.00">Critical issues in high bandwidth</text>
<text xml:space="preserve" text-anchor="middle" x="138.06" y="-302.01" font-family="Times,serif" font-size="14.00">networking</text>
<text xml:space="preserve" text-anchor="middle" x="138.06" y="-285.51" font-family="Times,serif" font-size="14.00">1988</text>
</a>
</g>
</g>
<!-- RFC1077&#45;&gt;rev_cites -->
<g id="edge7" class="edge">
<title>RFC1077&#45;&gt;rev_cites</title>
<path fill="none" stroke="black" d="M263.75,-337.47C407.89,-362.89 635.9,-403.09 726.14,-419.01"/>
<polygon fill="black" stroke="black" points="725.5,-422.45 735.96,-420.74 726.72,-415.55 725.5,-422.45"/>
</g>
<!-- RFC1453 -->
<g id="node9" class="node">
<title>RFC1453</title>
<g id="a_node9"><a xlink:href="RFC1453.html" xlink:title="This RFC is a vehicle to inform the Internet community about XTP as it benefits from past Internet activity and targets general&#45;purpose applications and multimedia applications with the emerging ATM networks in mind. &#160;This memo provides information for the Internet community. &#160;It does not specify an Internet standard." target="_top">
<ellipse fill="none" stroke="black" cx="573.36" cy="-63.99" rx="169.35" ry="63.99"/>
<text xml:space="preserve" text-anchor="middle" x="573.36" y="-91.94" font-family="Times,serif" font-size="14.00">RFC1453</text>
<text xml:space="preserve" text-anchor="middle" x="573.36" y="-75.44" font-family="Times,serif" font-size="14.00">A Comment on Packet Video Remote</text>
<text xml:space="preserve" text-anchor="middle" x="573.36" y="-58.94" font-family="Times,serif" font-size="14.00">Conferencing and the Transport/Network</text>
<text xml:space="preserve" text-anchor="middle" x="573.36" y="-42.44" font-family="Times,serif" font-size="14.00">Layers</text>
<text xml:space="preserve" text-anchor="middle" x="573.36" y="-25.94" font-family="Times,serif" font-size="14.00">1993</text>
</a>
</g>
</g>
<!-- RFC1453&#45;&gt;rev_cites -->
<g id="edge8" class="edge">
<title>RFC1453&#45;&gt;rev_cites</title>
<path fill="none" stroke="black" d="M606.7,-127.02C648.74,-206.5 719.23,-339.76 749.83,-397.6"/>
<polygon fill="black" stroke="black" points="746.59,-398.95 754.36,-406.15 752.77,-395.68 746.59,-398.95"/>
</g>
<!-- RFC1700 -->
<g id="node10" class="node">
<title>RFC1700</title>
<g id="a_node10"><a xlink:href="RFC1700.html" xlink:title="This RFC is a snapshot of the ongoing process of the assignment of protocol parameters for the Internet protocol suite. &#160;To make the current information readily available the assignments are kept up&#45;to&#45; date in a set of online text files. &#160;This memo is a status report on the parameters (i.e., numbers and keywords) used in protocols in the Internet community." target="_top">
<ellipse fill="none" stroke="black" cx="1068.36" cy="-151.28" rx="85.03" ry="40.66"/>
<text xml:space="preserve" text-anchor="middle" x="1068.36" y="-162.73" font-family="Times,serif" font-size="14.00">RFC1700</text>
<text xml:space="preserve" text-anchor="middle" x="1068.36" y="-146.23" font-family="Times,serif" font-size="14.00">Assigned Numbers</text>
<text xml:space="preserve" text-anchor="middle" x="1068.36" y="-129.73" font-family="Times,serif" font-size="14.00">1994</text>
</a>
</g>
</g>
<!-- RFC1700&#45;&gt;rev_cites -->
<g id="edge9" class="edge">
<title>RFC1700&#45;&gt;rev_cites</title>
<path fill="none" stroke="black" d="M1028.36,-187.45C966.28,-243.58 848.22,-350.34 793.69,-399.65"/>
<polygon fill="black" stroke="black" points="791.39,-397.01 786.32,-406.31 796.09,-402.2 791.39,-397.01"/>
</g>
<!-- RFC2375 -->
<g id="node11" class="node">
<title>RFC2375</title>
<g id="a_node11"><a xlink:href="RFC2375.html" xlink:title="This document defines the initial assignment of IPv6 multicast addresses. &#160;This memo provides information for the Internet community. &#160;It does not specify an Internet standard of any kind." target="_top">
<ellipse fill="none" stroke="black" cx="1391.45" cy="-536.32" rx="153.97" ry="40.66"/>
<text xml:space="preserve" text-anchor="middle" x="1391.45" y="-547.77" font-family="Times,serif" font-size="14.00">RFC2375</text>
<text xml:space="preserve" text-anchor="middle" x="1391.45" y="-531.27" font-family="Times,serif" font-size="14.00">IPv6 Multicast Address Assignments</text>
<text xml:space="preserve" text-anchor="middle" x="1391.45" y="-514.77" font-family="Times,serif" font-size="14.00">1998</text>
</a>
</g>
</g>
<!-- RFC2375&#45;&gt;rev_cites -->
<g id="edge10" class="edge">
<title>RFC2375&#45;&gt;rev_cites</title>
<path fill="none" stroke="black" d="M1262.74,-513.62C1118.41,-488.17 892.85,-448.4 803.29,-432.61"/>
<polygon fill="black" stroke="black" points="804.01,-429.18 793.56,-430.89 802.8,-436.08 804.01,-429.18"/>
</g>
</g>
</svg>
