<?xml version="1.0" encoding="UTF-8" standalone="no"?>
<!DOCTYPE svg PUBLIC "-//W3C//DTD SVG 1.1//EN"
 "http://www.w3.org/Graphics/SVG/1.1/DTD/svg11.dtd">
<!-- Generated by graphviz version 14.1.1 (20251213.1925)
 -->
<!-- Title: Flow Pages: 1 -->
<svg width="1269pt" height="270pt"
 viewBox="0.00 0.00 1269.00 270.00" xmlns="http://www.w3.org/2000/svg" xmlns:xlink="http://www.w3.org/1999/xlink">
<g id="graph0" class="graph" transform="scale(1 1) rotate(0) translate(4 265.98)">
<title>Flow</title>
<polygon fill="white" stroke="none" points="-4,4 -4,-265.98 1265.34,-265.98 1265.34,4 -4,4"/>
<!-- RFC1076 -->
<g id="node1" class="node">
<title>RFC1076</title>
<g id="a_node1"><a xlink:title="This RFC specifies a query language for monitoring and control of network entities. &#160;This RFC supercedes RFC 1023, extending the query language and providing more discussion of the underlying issues. &#160;This language is a component of the High&#45;Level Entity Monitoring System (HEMS) described in RFC 1021 and RFC 1022. &#160;Readers may wish to consult these RFCs when reading this memo. &#160;RFC 1024 contains detailed assignments of numbers and structures used in this system. &#160;Portions of RFC 1024 that define query language structures are superceded by definitions in this memo. &#160;This memo assumes a knowledge of the ISO data encoding standard, ASN.1.">
<ellipse fill="none" stroke="black" cx="643.4" cy="-167.33" rx="167.23" ry="40.66"/>
<text xml:space="preserve" text-anchor="middle" x="643.4" y="-178.78" font-family="Times,serif" font-size="14.00">RFC1076</text>
<text xml:space="preserve" text-anchor="middle" x="643.4" y="-162.28" font-family="Times,serif" font-size="14.00">HEMS monitoring and control language</text>
<text xml:space="preserve" text-anchor="middle" x="643.4" y="-145.78" font-family="Times,serif" font-size="14.00">1988</text>
</a>
</g>
</g>
<!-- obs -->
<g id="node3" class="node">
<title>obs</title>
<polygon fill="none" stroke="black" points="901.88,-239.33 835.63,-239.33 835.63,-203.33 901.88,-203.33 901.88,-239.33"/>
<text xml:space="preserve" text-anchor="middle" x="868.75" y="-216.28" font-family="Times,serif" font-size="14.00">obsoletes</text>
</g>
<!-- RFC1076&#45;&gt;obs -->
<g id="edge2" class="edge">
<title>RFC1076&#45;&gt;obs</title>
<path fill="none" stroke="black" d="M763.27,-196.07C785.15,-201.35 806.66,-206.55 824.42,-210.85"/>
<polygon fill="black" stroke="black" points="823.5,-214.23 834.04,-213.18 825.15,-207.42 823.5,-214.23"/>
</g>
<!-- updates -->
<g id="node5" class="node">
<title>updates</title>
<polygon fill="none" stroke="black" points="897.38,-185.33 840.13,-185.33 840.13,-149.33 897.38,-149.33 897.38,-185.33"/>
<text xml:space="preserve" text-anchor="middle" x="868.75" y="-162.28" font-family="Times,serif" font-size="14.00">updates</text>
</g>
<!-- RFC1076&#45;&gt;updates -->
<g id="edge4" class="edge">
<title>RFC1076&#45;&gt;updates</title>
<path fill="none" stroke="black" d="M811.1,-167.33C817.26,-167.33 823.12,-167.33 828.57,-167.33"/>
<polygon fill="black" stroke="black" points="828.31,-170.83 838.31,-167.33 828.31,-163.83 828.31,-170.83"/>
</g>
<!-- cites -->
<g id="node7" class="node">
<title>cites</title>
<polygon fill="none" stroke="black" points="895.75,-131.33 841.75,-131.33 841.75,-95.33 895.75,-95.33 895.75,-131.33"/>
<text xml:space="preserve" text-anchor="middle" x="868.75" y="-108.28" font-family="Times,serif" font-size="14.00">cites</text>
</g>
<!-- RFC1076&#45;&gt;cites -->
<g id="edge6" class="edge">
<title>RFC1076&#45;&gt;cites</title>
<path fill="none" stroke="black" d="M763.27,-138.59C787.77,-132.66 811.81,-126.85 830.64,-122.3"/>
<polygon fill="black" stroke="black" points="831.28,-125.74 840.18,-119.99 829.64,-118.94 831.28,-125.74"/>
</g>
<!-- obs_by -->
<g id="node2" class="node">
<title>obs_by</title>
<polygon fill="none" stroke="black" points="451.17,-239.33 384.92,-239.33 384.92,-203.33 451.17,-203.33 451.17,-239.33"/>
<text xml:space="preserve" text-anchor="middle" x="418.04" y="-216.28" font-family="Times,serif" font-size="14.00">obsoletes</text>
</g>
<!-- obs_by&#45;&gt;RFC1076 -->
<g id="edge1" class="edge">
<title>obs_by&#45;&gt;RFC1076</title>
<path fill="none" stroke="black" d="M451.52,-213.47C468.26,-209.43 489.89,-204.2 512.55,-198.72"/>
<polygon fill="black" stroke="black" points="513.37,-202.12 522.27,-196.37 511.72,-195.32 513.37,-202.12"/>
</g>
<!-- RFC1023 -->
<g id="node4" class="node">
<title>RFC1023</title>
<g id="a_node4"><a xlink:href="RFC1023.html" xlink:title="This RFC specifies the High&#45;Level Entity Management System (HEMS) Monitoring and Control Language. &#160;This language defines the requests and replies used in HEMS. &#160;This memo assumes knowledge of the HEMS system described in RFC&#45;1021, and of the ISO data encoding standard, ASN.1." target="_top">
<ellipse fill="none" stroke="black" cx="1094.11" cy="-221.33" rx="167.23" ry="40.66"/>
<text xml:space="preserve" text-anchor="middle" x="1094.11" y="-232.78" font-family="Times,serif" font-size="14.00">RFC1023</text>
<text xml:space="preserve" text-anchor="middle" x="1094.11" y="-216.28" font-family="Times,serif" font-size="14.00">HEMS monitoring and control language</text>
<text xml:space="preserve" text-anchor="middle" x="1094.11" y="-199.78" font-family="Times,serif" font-size="14.00">1987</text>
</a>
</g>
</g>
<!-- obs&#45;&gt;RFC1023 -->
<g id="edge3" class="edge">
<title>obs&#45;&gt;RFC1023</title>
<path fill="none" stroke="black" d="M902.23,-221.33C906.32,-221.33 910.69,-221.33 915.3,-221.33"/>
<polygon fill="black" stroke="black" points="914.94,-224.83 924.94,-221.33 914.94,-217.83 914.94,-224.83"/>
</g>
<!-- updated_by -->
<g id="node6" class="node">
<title>updated_by</title>
<polygon fill="none" stroke="black" points="446.67,-185.33 389.42,-185.33 389.42,-149.33 446.67,-149.33 446.67,-185.33"/>
<text xml:space="preserve" text-anchor="middle" x="418.04" y="-162.28" font-family="Times,serif" font-size="14.00">updates</text>
</g>
<!-- updated_by&#45;&gt;RFC1076 -->
<g id="edge5" class="edge">
<title>updated_by&#45;&gt;RFC1076</title>
<path fill="none" stroke="black" d="M446.88,-167.33C452.27,-167.33 458.28,-167.33 464.75,-167.33"/>
<polygon fill="black" stroke="black" points="464.53,-170.83 474.53,-167.33 464.53,-163.83 464.53,-170.83"/>
</g>
<!-- rev_cites -->
<g id="node8" class="node">
<title>rev_cites</title>
<polygon fill="none" stroke="black" points="445.04,-131.33 391.04,-131.33 391.04,-95.33 445.04,-95.33 445.04,-131.33"/>
<text xml:space="preserve" text-anchor="middle" x="418.04" y="-108.28" font-family="Times,serif" font-size="14.00">cites</text>
</g>
<!-- rev_cites&#45;&gt;RFC1076 -->
<g id="edge7" class="edge">
<title>rev_cites&#45;&gt;RFC1076</title>
<path fill="none" stroke="black" d="M445.54,-119.73C462.93,-123.94 487.11,-129.78 512.58,-135.94"/>
<polygon fill="black" stroke="black" points="511.54,-139.29 522.09,-138.24 513.19,-132.49 511.54,-139.29"/>
</g>
<!-- RFC6208 -->
<g id="node9" class="node">
<title>RFC6208</title>
<g id="a_node9"><a xlink:href="RFC6208.html" xlink:title="This document describes several Internet media types defined for the Cloud Data Management Interface (CDMI) by the Storage Networking Industry Association (SNIA). The media types are: o application/cdmi&#45;object o application/cdmi&#45;container o application/cdmi&#45;domain o application/cdmi&#45;capability o application/cdmi&#45;queue This document is not an Internet Standards Track specification; it is published for informational purposes." target="_top">
<ellipse fill="none" stroke="black" cx="179.96" cy="-175.33" rx="179.96" ry="52.33"/>
<text xml:space="preserve" text-anchor="middle" x="179.96" y="-195.03" font-family="Times,serif" font-size="14.00">RFC6208</text>
<text xml:space="preserve" text-anchor="middle" x="179.96" y="-178.53" font-family="Times,serif" font-size="14.00">Cloud Data Management Interface (CDMI)</text>
<text xml:space="preserve" text-anchor="middle" x="179.96" y="-162.03" font-family="Times,serif" font-size="14.00">Media Types</text>
<text xml:space="preserve" text-anchor="middle" x="179.96" y="-145.53" font-family="Times,serif" font-size="14.00">2011</text>
</a>
</g>
</g>
<!-- RFC6208&#45;&gt;rev_cites -->
<g id="edge8" class="edge">
<title>RFC6208&#45;&gt;rev_cites</title>
<path fill="none" stroke="black" d="M314.52,-140.25C338.43,-133.97 361.47,-127.92 379.63,-123.15"/>
<polygon fill="black" stroke="black" points="380.3,-126.59 389.08,-120.67 378.52,-119.82 380.3,-126.59"/>
</g>
<!-- RFC7342 -->
<g id="node10" class="node">
<title>RFC7342</title>
<g id="a_node10"><a xlink:href="RFC7342.html" xlink:title="This memo documents some operational practices that allow ARP and Neighbor Discovery (ND) to scale in data center environments." target="_top">
<ellipse fill="none" stroke="black" cx="179.96" cy="-52.33" rx="166.17" ry="52.33"/>
<text xml:space="preserve" text-anchor="middle" x="179.96" y="-72.03" font-family="Times,serif" font-size="14.00">RFC7342</text>
<text xml:space="preserve" text-anchor="middle" x="179.96" y="-55.53" font-family="Times,serif" font-size="14.00">Practices for Scaling ARP and Neighbor</text>
<text xml:space="preserve" text-anchor="middle" x="179.96" y="-39.03" font-family="Times,serif" font-size="14.00">Discovery (ND) in Large Data Centers</text>
<text xml:space="preserve" text-anchor="middle" x="179.96" y="-22.53" font-family="Times,serif" font-size="14.00">2014</text>
</a>
</g>
</g>
<!-- RFC7342&#45;&gt;rev_cites -->
<g id="edge9" class="edge">
<title>RFC7342&#45;&gt;rev_cites</title>
<path fill="none" stroke="black" d="M309.36,-85.5C335.1,-92.15 360.17,-98.63 379.64,-103.66"/>
<polygon fill="black" stroke="black" points="378.68,-107.03 389.24,-106.14 380.43,-100.25 378.68,-107.03"/>
</g>
</g>
</svg>
