<?xml version="1.0" encoding="UTF-8" standalone="no"?>
<!DOCTYPE svg PUBLIC "-//W3C//DTD SVG 1.1//EN"
 "http://www.w3.org/Graphics/SVG/1.1/DTD/svg11.dtd">
<!-- Generated by graphviz version 14.1.1 (20251213.1925)
 -->
<!-- Title: Flow Pages: 1 -->
<svg width="1034pt" height="291pt"
 viewBox="0.00 0.00 1034.00 291.00" xmlns="http://www.w3.org/2000/svg" xmlns:xlink="http://www.w3.org/1999/xlink">
<g id="graph0" class="graph" transform="scale(1 1) rotate(0) translate(4 287.32)">
<title>Flow</title>
<polygon fill="white" stroke="none" points="-4,4 -4,-287.32 1029.87,-287.32 1029.87,4 -4,4"/>
<!-- RFC1869 -->
<g id="node1" class="node">
<title>RFC1869</title>
<g id="a_node1"><a xlink:title="This memo defines a framework for extending the SMTP service by defining a means whereby a server SMTP can inform a client SMTP as to the service extensions it supports. [STANDARDS&#45;TRACK]">
<ellipse fill="green" stroke="black" cx="573.39" cy="-188.66" rx="112.08" ry="40.66"/>
<text xml:space="preserve" text-anchor="middle" x="573.39" y="-200.11" font-family="Times,serif" font-size="14.00">RFC1869</text>
<text xml:space="preserve" text-anchor="middle" x="573.39" y="-183.61" font-family="Times,serif" font-size="14.00">SMTP Service Extensions</text>
<text xml:space="preserve" text-anchor="middle" x="573.39" y="-167.11" font-family="Times,serif" font-size="14.00">1995</text>
</a>
</g>
</g>
<!-- obs -->
<g id="node4" class="node">
<title>obs</title>
<polygon fill="lightblue" stroke="black" points="776.72,-260.66 710.47,-260.66 710.47,-224.66 776.72,-224.66 776.72,-260.66"/>
<text xml:space="preserve" text-anchor="middle" x="743.6" y="-237.61" font-family="Times,serif" font-size="14.00">obsoletes</text>
</g>
<!-- RFC1869&#45;&gt;obs -->
<g id="edge3" class="edge">
<title>RFC1869&#45;&gt;obs</title>
<path fill="none" stroke="black" d="M658,-215.5C672.41,-220.13 686.85,-224.76 699.6,-228.86"/>
<polygon fill="black" stroke="black" points="698.31,-232.12 708.9,-231.84 700.45,-225.45 698.31,-232.12"/>
</g>
<!-- updates -->
<g id="node6" class="node">
<title>updates</title>
<polygon fill="lightyellow" stroke="black" points="772.22,-206.66 714.97,-206.66 714.97,-170.66 772.22,-170.66 772.22,-206.66"/>
<text xml:space="preserve" text-anchor="middle" x="743.6" y="-183.61" font-family="Times,serif" font-size="14.00">updates</text>
</g>
<!-- RFC1869&#45;&gt;updates -->
<g id="edge5" class="edge">
<title>RFC1869&#45;&gt;updates</title>
<path fill="none" stroke="black" d="M685.65,-188.66C691.73,-188.66 697.59,-188.66 703.09,-188.66"/>
<polygon fill="black" stroke="black" points="703,-192.16 713,-188.66 703,-185.16 703,-192.16"/>
</g>
<!-- cites -->
<g id="node8" class="node">
<title>cites</title>
<polygon fill="lightblue" stroke="black" points="770.6,-152.66 716.6,-152.66 716.6,-116.66 770.6,-116.66 770.6,-152.66"/>
<text xml:space="preserve" text-anchor="middle" x="743.6" y="-129.61" font-family="Times,serif" font-size="14.00">cites</text>
</g>
<!-- RFC1869&#45;&gt;cites -->
<g id="edge7" class="edge">
<title>RFC1869&#45;&gt;cites</title>
<path fill="none" stroke="black" d="M658,-161.82C674.66,-156.47 691.34,-151.11 705.43,-146.59"/>
<polygon fill="black" stroke="black" points="706.24,-150.01 714.69,-143.62 704.1,-143.34 706.24,-150.01"/>
</g>
<!-- obs_by -->
<g id="node2" class="node">
<title>obs_by</title>
<polygon fill="lightblue" stroke="black" points="436.32,-260.66 370.07,-260.66 370.07,-224.66 436.32,-224.66 436.32,-260.66"/>
<text xml:space="preserve" text-anchor="middle" x="403.19" y="-237.61" font-family="Times,serif" font-size="14.00">obsoletes</text>
</g>
<!-- obs_by&#45;&gt;RFC1869 -->
<g id="edge1" class="edge">
<title>obs_by&#45;&gt;RFC1869</title>
<path fill="none" stroke="black" d="M436.62,-232.25C448.68,-228.37 463.06,-223.76 477.87,-219"/>
<polygon fill="black" stroke="black" points="478.82,-222.38 487.27,-215.99 476.68,-215.71 478.82,-222.38"/>
</g>
<!-- RFC2821 -->
<g id="node3" class="node">
<title>RFC2821</title>
<g id="a_node3"><a xlink:href="RFC2821.html" xlink:title="This document is a self&#45;contained specification of the basic protocol for the Internet electronic mail transport. [STANDARDS&#45;TRACK]" target="_top">
<ellipse fill="none" stroke="black" cx="172.53" cy="-242.66" rx="129.58" ry="40.66"/>
<text xml:space="preserve" text-anchor="middle" x="172.53" y="-254.11" font-family="Times,serif" font-size="14.00">RFC2821</text>
<text xml:space="preserve" text-anchor="middle" x="172.53" y="-237.61" font-family="Times,serif" font-size="14.00">Simple Mail Transfer Protocol</text>
<text xml:space="preserve" text-anchor="middle" x="172.53" y="-221.11" font-family="Times,serif" font-size="14.00">2001</text>
</a>
</g>
</g>
<!-- RFC2821&#45;&gt;obs_by -->
<g id="edge2" class="edge">
<title>RFC2821&#45;&gt;obs_by</title>
<path fill="none" stroke="black" d="M302.57,-242.66C322.62,-242.66 342.06,-242.66 358.36,-242.66"/>
<polygon fill="black" stroke="black" points="358.13,-246.16 368.13,-242.66 358.13,-239.16 358.13,-246.16"/>
</g>
<!-- RFC1651 -->
<g id="node5" class="node">
<title>RFC1651</title>
<g id="a_node5"><a xlink:href="RFC1651.html" xlink:title="This memo defines a framework for extending the SMTP service by defining a means whereby a server SMTP can inform a client SMTP as to the service extensions it supports. [STANDARDS&#45;TRACK]" target="_top">
<ellipse fill="none" stroke="black" cx="913.8" cy="-242.66" rx="112.08" ry="40.66"/>
<text xml:space="preserve" text-anchor="middle" x="913.8" y="-254.11" font-family="Times,serif" font-size="14.00">RFC1651</text>
<text xml:space="preserve" text-anchor="middle" x="913.8" y="-237.61" font-family="Times,serif" font-size="14.00">SMTP Service Extensions</text>
<text xml:space="preserve" text-anchor="middle" x="913.8" y="-221.11" font-family="Times,serif" font-size="14.00">1994</text>
</a>
</g>
</g>
<!-- obs&#45;&gt;RFC1651 -->
<g id="edge4" class="edge">
<title>obs&#45;&gt;RFC1651</title>
<path fill="none" stroke="black" d="M777.03,-242.66C781.05,-242.66 785.32,-242.66 789.79,-242.66"/>
<polygon fill="black" stroke="black" points="789.72,-246.16 799.72,-242.66 789.72,-239.16 789.72,-246.16"/>
</g>
<!-- updated_by -->
<g id="node7" class="node">
<title>updated_by</title>
<polygon fill="lightyellow" stroke="black" points="431.82,-206.66 374.57,-206.66 374.57,-170.66 431.82,-170.66 431.82,-206.66"/>
<text xml:space="preserve" text-anchor="middle" x="403.19" y="-183.61" font-family="Times,serif" font-size="14.00">updates</text>
</g>
<!-- updated_by&#45;&gt;RFC1869 -->
<g id="edge6" class="edge">
<title>updated_by&#45;&gt;RFC1869</title>
<path fill="none" stroke="black" d="M431.97,-188.66C437.41,-188.66 443.43,-188.66 449.83,-188.66"/>
<polygon fill="black" stroke="black" points="449.41,-192.16 459.41,-188.66 449.41,-185.16 449.41,-192.16"/>
</g>
<!-- rev_cites -->
<g id="node9" class="node">
<title>rev_cites</title>
<polygon fill="lightblue" stroke="black" points="430.19,-152.66 376.19,-152.66 376.19,-116.66 430.19,-116.66 430.19,-152.66"/>
<text xml:space="preserve" text-anchor="middle" x="403.19" y="-129.61" font-family="Times,serif" font-size="14.00">cites</text>
</g>
<!-- rev_cites&#45;&gt;RFC1869 -->
<g id="edge8" class="edge">
<title>rev_cites&#45;&gt;RFC1869</title>
<path fill="none" stroke="black" d="M430.47,-143.1C443.56,-147.3 460.26,-152.66 477.58,-158.22"/>
<polygon fill="black" stroke="black" points="476.38,-161.51 486.98,-161.24 478.52,-154.85 476.38,-161.51"/>
</g>
<!-- RFC3977 -->
<g id="node10" class="node">
<title>RFC3977</title>
<g id="a_node10"><a xlink:href="RFC3977.html" xlink:title="The Network News Transfer Protocol (NNTP) has been in use in the Internet for a decade, and remains one of the most popular protocols (by volume) in use today. &#160;This document is a replacement for RFC 977, and officially updates the protocol specification. &#160;It clarifies some vagueness in RFC 977, includes some new base functionality, and provides a specific mechanism to add standardized extensions to NNTP. [STANDARDS&#45;TRACK]" target="_top">
<ellipse fill="none" stroke="black" cx="172.53" cy="-139.66" rx="172.53" ry="40.66"/>
<text xml:space="preserve" text-anchor="middle" x="172.53" y="-151.11" font-family="Times,serif" font-size="14.00">RFC3977</text>
<text xml:space="preserve" text-anchor="middle" x="172.53" y="-134.61" font-family="Times,serif" font-size="14.00">Network News Transfer Protocol (NNTP)</text>
<text xml:space="preserve" text-anchor="middle" x="172.53" y="-118.11" font-family="Times,serif" font-size="14.00">2006</text>
</a>
</g>
</g>
<!-- RFC3977&#45;&gt;rev_cites -->
<g id="edge9" class="edge">
<title>RFC3977&#45;&gt;rev_cites</title>
<path fill="none" stroke="black" d="M344.79,-135.91C351.92,-135.76 358.66,-135.61 364.84,-135.48"/>
<polygon fill="black" stroke="black" points="364.55,-138.98 374.47,-135.26 364.39,-131.98 364.55,-138.98"/>
</g>
<!-- RFC5000 -->
<g id="node11" class="node">
<title>RFC5000</title>
<g id="a_node11"><a xlink:href="RFC5000.html" xlink:title="This document is published by the RFC Editor to provide a summary of the current standards protocols (as of 18 February 2008). It lists those official protocol standards, Best Current Practice, and Experimental RFCs that have not been obsoleted; it is not a complete index to the RFC series. Newly published RFCs and RFCs whose status has changed are starred. For an up&#45;to&#45;date list, see http://www.rfc&#45;editor.org/rfcxx00.html, which is updated daily. This memo provides information for the Internet community." target="_top">
<ellipse fill="none" stroke="black" cx="172.53" cy="-40.66" rx="148.67" ry="40.66"/>
<text xml:space="preserve" text-anchor="middle" x="172.53" y="-52.11" font-family="Times,serif" font-size="14.00">RFC5000</text>
<text xml:space="preserve" text-anchor="middle" x="172.53" y="-35.61" font-family="Times,serif" font-size="14.00">Internet Official Protocol Standards</text>
<text xml:space="preserve" text-anchor="middle" x="172.53" y="-19.11" font-family="Times,serif" font-size="14.00">2008</text>
</a>
</g>
</g>
<!-- RFC5000&#45;&gt;rev_cites -->
<g id="edge10" class="edge">
<title>RFC5000&#45;&gt;rev_cites</title>
<path fill="none" stroke="black" d="M288.03,-66.63C307.57,-72.94 327.28,-80.56 345.07,-89.66 355.25,-94.86 365.37,-102.02 374.21,-109.09"/>
<polygon fill="black" stroke="black" points="371.81,-111.65 381.73,-115.37 376.3,-106.28 371.81,-111.65"/>
</g>
</g>
</svg>
