<?xml version="1.0" encoding="UTF-8" standalone="no"?>
<!DOCTYPE svg PUBLIC "-//W3C//DTD SVG 1.1//EN"
 "http://www.w3.org/Graphics/SVG/1.1/DTD/svg11.dtd">
<!-- Generated by graphviz version 14.1.1 (20251213.1925)
 -->
<!-- Title: Flow Pages: 1 -->
<svg width="1636pt" height="1493pt"
 viewBox="0.00 0.00 1636.00 1493.00" xmlns="http://www.w3.org/2000/svg" xmlns:xlink="http://www.w3.org/1999/xlink">
<g id="graph0" class="graph" transform="scale(1 1) rotate(0) translate(4 1489.02)">
<title>Flow</title>
<polygon fill="white" stroke="none" points="-4,4 -4,-1489.02 1631.85,-1489.02 1631.85,4 -4,4"/>
<!-- RFC1166 -->
<g id="node1" class="node">
<title>RFC1166</title>
<g id="a_node1"><a xlink:title="This memo is a status report on the network numbers and autonomous system numbers used in the Internet community.">
<ellipse fill="green" stroke="black" stroke-width="3" cx="839.91" cy="-748.34" rx="98.82" ry="50.2"/>
<text xml:space="preserve" text-anchor="middle" x="839.91" y="-762.74" font-family="Times,serif" font-size="18.00">RFC1166</text>
<text xml:space="preserve" text-anchor="middle" x="839.91" y="-741.74" font-family="Times,serif" font-size="18.00">Internet numbers</text>
<text xml:space="preserve" text-anchor="middle" x="839.91" y="-720.74" font-family="Times,serif" font-size="18.00">1990</text>
</a>
</g>
</g>
<!-- obs -->
<g id="node3" class="node">
<title>obs</title>
<polygon fill="lightblue" stroke="black" points="1127.8,-1021.1 1061.55,-1021.1 1061.55,-985.1 1127.8,-985.1 1127.8,-1021.1"/>
<text xml:space="preserve" text-anchor="middle" x="1094.67" y="-998.05" font-family="Times,serif" font-size="14.00">obsoletes</text>
</g>
<!-- RFC1166&#45;&gt;obs -->
<g id="edge2" class="edge">
<title>RFC1166&#45;&gt;obs</title>
<path fill="none" stroke="black" d="M885.75,-794.18C939.07,-847.5 1025.27,-933.7 1068.37,-976.8"/>
<polygon fill="black" stroke="black" points="1065.78,-979.16 1075.32,-983.75 1070.73,-974.21 1065.78,-979.16"/>
</g>
<!-- updates -->
<g id="node7" class="node">
<title>updates</title>
<polygon fill="lightyellow" stroke="black" points="775.29,-1114.35 718.04,-1114.35 718.04,-1078.35 775.29,-1078.35 775.29,-1114.35"/>
<text xml:space="preserve" text-anchor="middle" x="746.66" y="-1091.3" font-family="Times,serif" font-size="14.00">updates</text>
</g>
<!-- RFC1166&#45;&gt;updates -->
<g id="edge6" class="edge">
<title>RFC1166&#45;&gt;updates</title>
<path fill="none" stroke="black" d="M826.25,-799.32C806.43,-873.3 770.33,-1008.04 754.48,-1067.19"/>
<polygon fill="black" stroke="black" points="751.19,-1065.94 751.98,-1076.51 757.95,-1067.76 751.19,-1065.94"/>
</g>
<!-- cites -->
<g id="node10" class="node">
<title>cites</title>
<polygon fill="lightblue" stroke="black" points="612.15,-1021.1 558.15,-1021.1 558.15,-985.1 612.15,-985.1 612.15,-1021.1"/>
<text xml:space="preserve" text-anchor="middle" x="585.15" y="-998.05" font-family="Times,serif" font-size="14.00">cites</text>
</g>
<!-- RFC1166&#45;&gt;cites -->
<g id="edge9" class="edge">
<title>RFC1166&#45;&gt;cites</title>
<path fill="none" stroke="black" d="M794.07,-794.18C740.75,-847.5 654.55,-933.7 611.45,-976.8"/>
<polygon fill="black" stroke="black" points="609.1,-974.21 604.5,-983.75 614.05,-979.16 609.1,-974.21"/>
</g>
<!-- obs_by -->
<g id="node2" class="node">
<title>obs_by</title>
<polygon fill="lightblue" stroke="black" points="525.03,-859.59 458.78,-859.59 458.78,-823.59 525.03,-823.59 525.03,-859.59"/>
<text xml:space="preserve" text-anchor="middle" x="491.9" y="-836.54" font-family="Times,serif" font-size="14.00">obsoletes</text>
</g>
<!-- obs_by&#45;&gt;RFC1166 -->
<g id="edge1" class="edge">
<title>obs_by&#45;&gt;RFC1166</title>
<path fill="none" stroke="black" d="M525.27,-832.65C574.3,-819.51 667.83,-794.45 740.23,-775.05"/>
<polygon fill="black" stroke="black" points="740.98,-778.47 749.74,-772.5 739.17,-771.71 740.98,-778.47"/>
</g>
<!-- RFC1117 -->
<g id="node4" class="node">
<title>RFC1117</title>
<g id="a_node4"><a xlink:href="RFC1117.html" xlink:title="This memo is an official status report on the network numbers and the autonomous system numbers used in the Internet community." target="_top">
<ellipse fill="none" stroke="black" cx="1535.93" cy="-934.84" rx="77.07" ry="40.66"/>
<text xml:space="preserve" text-anchor="middle" x="1535.93" y="-946.29" font-family="Times,serif" font-size="14.00">RFC1117</text>
<text xml:space="preserve" text-anchor="middle" x="1535.93" y="-929.79" font-family="Times,serif" font-size="14.00">Internet numbers</text>
<text xml:space="preserve" text-anchor="middle" x="1535.93" y="-913.29" font-family="Times,serif" font-size="14.00">1989</text>
</a>
</g>
</g>
<!-- obs&#45;&gt;RFC1117 -->
<g id="edge3" class="edge">
<title>obs&#45;&gt;RFC1117</title>
<path fill="none" stroke="black" d="M1128.2,-997.92C1196.2,-987.4 1352.2,-963.26 1450.32,-948.08"/>
<polygon fill="black" stroke="black" points="1450.85,-951.54 1460.19,-946.56 1449.78,-944.63 1450.85,-951.54"/>
</g>
<!-- RFC1062 -->
<g id="node5" class="node">
<title>RFC1062</title>
<g id="a_node5"><a xlink:href="RFC1062.html" xlink:title="This memo is an official status report on the network numbers and gateway autonomous system numbers used in the Internet community." target="_top">
<ellipse fill="none" stroke="black" cx="1349.43" cy="-1257.86" rx="77.07" ry="40.66"/>
<text xml:space="preserve" text-anchor="middle" x="1349.43" y="-1269.31" font-family="Times,serif" font-size="14.00">RFC1062</text>
<text xml:space="preserve" text-anchor="middle" x="1349.43" y="-1252.81" font-family="Times,serif" font-size="14.00">Internet numbers</text>
<text xml:space="preserve" text-anchor="middle" x="1349.43" y="-1236.31" font-family="Times,serif" font-size="14.00">1988</text>
</a>
</g>
</g>
<!-- obs&#45;&gt;RFC1062 -->
<g id="edge4" class="edge">
<title>obs&#45;&gt;RFC1062</title>
<path fill="none" stroke="black" d="M1112.99,-1021.42C1152.9,-1061.33 1248.64,-1157.07 1305.29,-1213.72"/>
<polygon fill="black" stroke="black" points="1302.74,-1216.12 1312.29,-1220.72 1307.69,-1211.17 1302.74,-1216.12"/>
</g>
<!-- RFC1020 -->
<g id="node6" class="node">
<title>RFC1020</title>
<g id="a_node6"><a xlink:href="RFC1020.html" xlink:title="This RFC is a list of the Assigned IP Network Numbers and EGP Autonomous System Numbers. &#160;This RFC obsoletes RFC&#45;997." target="_top">
<ellipse fill="none" stroke="black" cx="1026.41" cy="-1444.36" rx="77.07" ry="40.66"/>
<text xml:space="preserve" text-anchor="middle" x="1026.41" y="-1455.81" font-family="Times,serif" font-size="14.00">RFC1020</text>
<text xml:space="preserve" text-anchor="middle" x="1026.41" y="-1439.31" font-family="Times,serif" font-size="14.00">Internet numbers</text>
<text xml:space="preserve" text-anchor="middle" x="1026.41" y="-1422.81" font-family="Times,serif" font-size="14.00">1987</text>
</a>
</g>
</g>
<!-- obs&#45;&gt;RFC1020 -->
<g id="edge5" class="edge">
<title>obs&#45;&gt;RFC1020</title>
<path fill="none" stroke="black" d="M1091.83,-1021.5C1082.06,-1084.65 1049.66,-1294.1 1034.44,-1392.47"/>
<polygon fill="black" stroke="black" points="1031.01,-1391.7 1032.94,-1402.12 1037.93,-1392.77 1031.01,-1391.7"/>
</g>
<!-- updated_by -->
<g id="node8" class="node">
<title>updated_by</title>
<polygon fill="lightyellow" stroke="black" points="520.53,-673.09 463.28,-673.09 463.28,-637.09 520.53,-637.09 520.53,-673.09"/>
<text xml:space="preserve" text-anchor="middle" x="491.9" y="-650.04" font-family="Times,serif" font-size="14.00">updates</text>
</g>
<!-- updated_by&#45;&gt;RFC1166 -->
<g id="edge7" class="edge">
<title>updated_by&#45;&gt;RFC1166</title>
<path fill="none" stroke="black" d="M520.98,-662.88C568.7,-675.67 665.79,-701.69 740.38,-721.67"/>
<polygon fill="black" stroke="black" points="739.19,-724.98 749.76,-724.18 741,-718.22 739.19,-724.98"/>
</g>
<!-- RFC5737 -->
<g id="node9" class="node">
<title>RFC5737</title>
<g id="a_node9"><a xlink:href="RFC5737.html" xlink:title="Three IPv4 unicast address blocks are reserved for use in examples in specifications and other documents. &#160;This document describes the use of these blocks. &#160;This document is not an Internet Standards Track specification; it is published for informational purposes." target="_top">
<ellipse fill="none" stroke="black" cx="143.9" cy="-561.85" rx="143.9" ry="52.33"/>
<text xml:space="preserve" text-anchor="middle" x="143.9" y="-581.55" font-family="Times,serif" font-size="14.00">RFC5737</text>
<text xml:space="preserve" text-anchor="middle" x="143.9" y="-565.05" font-family="Times,serif" font-size="14.00">IPv4 Address Blocks Reserved for</text>
<text xml:space="preserve" text-anchor="middle" x="143.9" y="-548.55" font-family="Times,serif" font-size="14.00">Documentation</text>
<text xml:space="preserve" text-anchor="middle" x="143.9" y="-532.05" font-family="Times,serif" font-size="14.00">2010</text>
</a>
</g>
</g>
<!-- RFC5737&#45;&gt;updated_by -->
<g id="edge8" class="edge">
<title>RFC5737&#45;&gt;updated_by</title>
<path fill="none" stroke="black" d="M260.26,-593.03C326.57,-610.79 405.46,-631.93 451.96,-644.39"/>
<polygon fill="black" stroke="black" points="451.03,-647.76 461.6,-646.97 452.84,-641 451.03,-647.76"/>
</g>
<!-- rev_cites -->
<g id="node11" class="node">
<title>rev_cites</title>
<polygon fill="lightblue" stroke="black" points="960.16,-418.33 906.16,-418.33 906.16,-382.33 960.16,-382.33 960.16,-418.33"/>
<text xml:space="preserve" text-anchor="middle" x="933.16" y="-395.28" font-family="Times,serif" font-size="14.00">cites</text>
</g>
<!-- RFC5737&#45;&gt;rev_cites -->
<g id="edge12" class="edge">
<title>RFC5737&#45;&gt;rev_cites</title>
<path fill="none" stroke="black" d="M269.83,-536.07C452.89,-498.61 782.85,-431.09 894.8,-408.18"/>
<polygon fill="black" stroke="black" points="895.28,-411.66 904.37,-406.23 893.87,-404.8 895.28,-411.66"/>
</g>
<!-- rev_cites&#45;&gt;RFC1166 -->
<g id="edge10" class="edge">
<title>rev_cites&#45;&gt;RFC1166</title>
<path fill="none" stroke="black" d="M928.28,-418.55C915.09,-467.78 878.28,-605.16 856.55,-686.24"/>
<polygon fill="black" stroke="black" points="853.19,-685.26 853.98,-695.83 859.95,-687.08 853.19,-685.26"/>
</g>
<!-- RFC5735 -->
<g id="node12" class="node">
<title>RFC5735</title>
<g id="a_node12"><a xlink:href="RFC5735.html" xlink:title="This document obsoletes RFC 3330. &#160;It describes the global and other specialized IPv4 address blocks that have been assigned by the Internet Assigned Numbers Authority (IANA). &#160;It does not address IPv4 address space assigned to operators and users through the Regional Internet Registries, nor does it address IPv4 address space assigned directly by IANA prior to the creation of the Regional Internet Registries. &#160;It also does not address allocations or assignments of IPv6 addresses or autonomous system numbers. &#160;This memo documents an Internet Best Current Practice." target="_top">
<ellipse fill="none" stroke="black" cx="330.39" cy="-238.82" rx="118.97" ry="40.66"/>
<text xml:space="preserve" text-anchor="middle" x="330.39" y="-250.27" font-family="Times,serif" font-size="14.00">RFC5735</text>
<text xml:space="preserve" text-anchor="middle" x="330.39" y="-233.77" font-family="Times,serif" font-size="14.00">Special Use IPv4 Addresses</text>
<text xml:space="preserve" text-anchor="middle" x="330.39" y="-217.27" font-family="Times,serif" font-size="14.00">2010</text>
</a>
</g>
</g>
<!-- RFC5735&#45;&gt;rev_cites -->
<g id="edge11" class="edge">
<title>RFC5735&#45;&gt;rev_cites</title>
<path fill="none" stroke="black" d="M424.58,-264.06C559.35,-300.17 801.25,-364.99 894.78,-390.05"/>
<polygon fill="black" stroke="black" points="893.67,-393.38 904.23,-392.58 895.48,-386.61 893.67,-393.38"/>
</g>
<!-- RFC6873 -->
<g id="node13" class="node">
<title>RFC6873</title>
<g id="a_node13"><a xlink:href="RFC6873.html" xlink:title="The SIPCLF working group has defined a Common Log Format (CLF) framework for Session Initiation Protocol (SIP) servers. &#160;This CLF mimics the successful event logging format found in well&#45;known web servers like Apache and web proxies like Squid. &#160;This document proposes an indexed text encoding format for the SIP CLF that retains the key advantages of a text&#45;based format while significantly increasing processing performance over a purely text&#45;based implementation. &#160;This file format adheres to the SIP CLF information model and provides an effective encoding scheme for all mandatory and optional fields that appear in a SIP CLF record." target="_top">
<ellipse fill="none" stroke="black" cx="653.42" cy="-52.33" rx="181.02" ry="52.33"/>
<text xml:space="preserve" text-anchor="middle" x="653.42" y="-72.03" font-family="Times,serif" font-size="14.00">RFC6873</text>
<text xml:space="preserve" text-anchor="middle" x="653.42" y="-55.53" font-family="Times,serif" font-size="14.00">Format for the Session Initiation</text>
<text xml:space="preserve" text-anchor="middle" x="653.42" y="-39.03" font-family="Times,serif" font-size="14.00">Protocol (SIP) Common Log Format (CLF)</text>
<text xml:space="preserve" text-anchor="middle" x="653.42" y="-22.53" font-family="Times,serif" font-size="14.00">2013</text>
</a>
</g>
</g>
<!-- RFC6873&#45;&gt;rev_cites -->
<g id="edge13" class="edge">
<title>RFC6873&#45;&gt;rev_cites</title>
<path fill="none" stroke="black" d="M694.69,-103.68C754.87,-178.54 864.59,-315.04 911.24,-373.06"/>
<polygon fill="black" stroke="black" points="908.48,-375.22 917.47,-380.82 913.94,-370.83 908.48,-375.22"/>
</g>
<!-- RFC7482 -->
<g id="node14" class="node">
<title>RFC7482</title>
<g id="a_node14"><a xlink:href="RFC7482.html" xlink:title="This document describes uniform patterns to construct HTTP URLs that may be used to retrieve registration information from registries (including both Regional Internet Registries (RIRs) and Domain Name Registries (DNRs)) using RESTful web access patterns. &#160;These uniform patterns define the query syntax for the Registration Data Access Protocol (RDAP)." target="_top">
<ellipse fill="none" stroke="black" cx="1026.41" cy="-52.33" rx="177.31" ry="52.33"/>
<text xml:space="preserve" text-anchor="middle" x="1026.41" y="-72.03" font-family="Times,serif" font-size="14.00">RFC7482</text>
<text xml:space="preserve" text-anchor="middle" x="1026.41" y="-55.53" font-family="Times,serif" font-size="14.00">Registration Data Access Protocol (RDAP)</text>
<text xml:space="preserve" text-anchor="middle" x="1026.41" y="-39.03" font-family="Times,serif" font-size="14.00">Query Format</text>
<text xml:space="preserve" text-anchor="middle" x="1026.41" y="-22.53" font-family="Times,serif" font-size="14.00">2015</text>
</a>
</g>
</g>
<!-- RFC7482&#45;&gt;rev_cites -->
<g id="edge14" class="edge">
<title>RFC7482&#45;&gt;rev_cites</title>
<path fill="none" stroke="black" d="M1012.35,-104.8C992.45,-179.06 956.75,-312.29 941,-371.08"/>
<polygon fill="black" stroke="black" points="937.64,-370.11 938.43,-380.67 944.4,-371.92 937.64,-370.11"/>
</g>
<!-- RFC9082 -->
<g id="node15" class="node">
<title>RFC9082</title>
<g id="a_node15"><a xlink:href="RFC9082.html" xlink:title="This document describes uniform patterns to construct HTTP URLs that may be used to retrieve registration information from registries (including both Regional Internet Registries (RIRs) and Domain Name Registries (DNRs)) using RESTful web access patterns. &#160;These uniform patterns define the query syntax for the Registration Data Access Protocol (RDAP). &#160;This document obsoletes RFC 7482." target="_top">
<ellipse fill="none" stroke="black" cx="1349.43" cy="-238.82" rx="177.31" ry="52.33"/>
<text xml:space="preserve" text-anchor="middle" x="1349.43" y="-258.52" font-family="Times,serif" font-size="14.00">RFC9082</text>
<text xml:space="preserve" text-anchor="middle" x="1349.43" y="-242.02" font-family="Times,serif" font-size="14.00">Registration Data Access Protocol (RDAP)</text>
<text xml:space="preserve" text-anchor="middle" x="1349.43" y="-225.52" font-family="Times,serif" font-size="14.00">Query Format</text>
<text xml:space="preserve" text-anchor="middle" x="1349.43" y="-209.02" font-family="Times,serif" font-size="14.00">2021</text>
</a>
</g>
</g>
<!-- RFC9082&#45;&gt;rev_cites -->
<g id="edge15" class="edge">
<title>RFC9082&#45;&gt;rev_cites</title>
<path fill="none" stroke="black" d="M1241.42,-280.73C1152.52,-315.22 1031.63,-362.13 971.05,-385.63"/>
<polygon fill="black" stroke="black" points="969.93,-382.31 961.87,-389.19 972.46,-388.84 969.93,-382.31"/>
</g>
<!-- RFC9649 -->
<g id="node16" class="node">
<title>RFC9649</title>
<g id="a_node16"><a xlink:href="RFC9649.html" xlink:title="This document defines the WebP image format and registers a media type supporting its use." target="_top">
<ellipse fill="none" stroke="black" cx="1535.93" cy="-561.85" rx="91.92" ry="40.66"/>
<text xml:space="preserve" text-anchor="middle" x="1535.93" y="-573.3" font-family="Times,serif" font-size="14.00">RFC9649</text>
<text xml:space="preserve" text-anchor="middle" x="1535.93" y="-556.8" font-family="Times,serif" font-size="14.00">WebP Image Format</text>
<text xml:space="preserve" text-anchor="middle" x="1535.93" y="-540.3" font-family="Times,serif" font-size="14.00">2024</text>
</a>
</g>
</g>
<!-- RFC9649&#45;&gt;rev_cites -->
<g id="edge16" class="edge">
<title>RFC9649&#45;&gt;rev_cites</title>
<path fill="none" stroke="black" d="M1456.82,-540.65C1325.76,-505.53 1068.44,-436.58 971.41,-410.58"/>
<polygon fill="black" stroke="black" points="972.42,-407.23 961.85,-408.02 970.61,-413.99 972.42,-407.23"/>
</g>
</g>
</svg>
