<?xml version="1.0" encoding="UTF-8" standalone="no"?>
<!DOCTYPE svg PUBLIC "-//W3C//DTD SVG 1.1//EN"
 "http://www.w3.org/Graphics/SVG/1.1/DTD/svg11.dtd">
<!-- Generated by graphviz version 14.1.1 (20251213.1925)
 -->
<!-- Title: Flow Pages: 1 -->
<svg width="540pt" height="152pt"
 viewBox="0.00 0.00 540.00 152.00" xmlns="http://www.w3.org/2000/svg" xmlns:xlink="http://www.w3.org/1999/xlink">
<g id="graph0" class="graph" transform="scale(1 1) rotate(0) translate(4 148)">
<title>Flow</title>
<polygon fill="white" stroke="none" points="-4,4 -4,-148 535.81,-148 535.81,4 -4,4"/>
<!-- RFC1143 -->
<g id="node1" class="node">
<title>RFC1143</title>
<g id="a_node1"><a xlink:title="This is RFC discusses an implementation approach to option negotiation in the Telnet protocol (RFC 854). &#160;It does not propose any changes to the TELNET protocol. &#160;Rather, it discusses the implementation of the protocol of one feature, only. &#160;This is not a protocol specification. &#160;This is an experimental method of implementing a protocol.">
<ellipse fill="none" stroke="black" cx="265.91" cy="-72" rx="174.66" ry="52.33"/>
<text xml:space="preserve" text-anchor="middle" x="265.91" y="-91.7" font-family="Times,serif" font-size="14.00">RFC1143</text>
<text xml:space="preserve" text-anchor="middle" x="265.91" y="-75.2" font-family="Times,serif" font-size="14.00">The Q Method of Implementing TELNET</text>
<text xml:space="preserve" text-anchor="middle" x="265.91" y="-58.7" font-family="Times,serif" font-size="14.00">Option Negotiation</text>
<text xml:space="preserve" text-anchor="middle" x="265.91" y="-42.2" font-family="Times,serif" font-size="14.00">1990</text>
</a>
</g>
</g>
<!-- obs -->
<g id="node3" class="node">
<title>obs</title>
<polygon fill="none" stroke="black" points="531.81,-144 465.56,-144 465.56,-108 531.81,-108 531.81,-144"/>
<text xml:space="preserve" text-anchor="middle" x="498.69" y="-120.95" font-family="Times,serif" font-size="14.00">obsoletes</text>
</g>
<!-- RFC1143&#45;&gt;obs -->
<g id="edge2" class="edge">
<title>RFC1143&#45;&gt;obs</title>
<path fill="none" stroke="black" d="M404.48,-104.19C422.31,-108.36 439.4,-112.36 453.96,-115.77"/>
<polygon fill="black" stroke="black" points="453.06,-119.15 463.6,-118.02 454.66,-112.34 453.06,-119.15"/>
</g>
<!-- updates -->
<g id="node4" class="node">
<title>updates</title>
<polygon fill="none" stroke="black" points="527.31,-90 470.06,-90 470.06,-54 527.31,-54 527.31,-90"/>
<text xml:space="preserve" text-anchor="middle" x="498.69" y="-66.95" font-family="Times,serif" font-size="14.00">updates</text>
</g>
<!-- RFC1143&#45;&gt;updates -->
<g id="edge3" class="edge">
<title>RFC1143&#45;&gt;updates</title>
<path fill="none" stroke="black" d="M440.93,-72C447.13,-72 453.01,-72 458.48,-72"/>
<polygon fill="black" stroke="black" points="458.24,-75.5 468.24,-72 458.24,-68.5 458.24,-75.5"/>
</g>
<!-- cites -->
<g id="node6" class="node">
<title>cites</title>
<polygon fill="none" stroke="black" points="525.69,-36 471.69,-36 471.69,0 525.69,0 525.69,-36"/>
<text xml:space="preserve" text-anchor="middle" x="498.69" y="-12.95" font-family="Times,serif" font-size="14.00">cites</text>
</g>
<!-- RFC1143&#45;&gt;cites -->
<g id="edge5" class="edge">
<title>RFC1143&#45;&gt;cites</title>
<path fill="none" stroke="black" d="M404.48,-39.81C424.99,-35.01 444.52,-30.44 460.36,-26.73"/>
<polygon fill="black" stroke="black" points="460.79,-30.23 469.73,-24.54 459.2,-23.41 460.79,-30.23"/>
</g>
<!-- obs_by -->
<g id="node2" class="node">
<title>obs_by</title>
<polygon fill="none" stroke="black" points="66.25,-144 0,-144 0,-108 66.25,-108 66.25,-144"/>
<text xml:space="preserve" text-anchor="middle" x="33.12" y="-120.95" font-family="Times,serif" font-size="14.00">obsoletes</text>
</g>
<!-- obs_by&#45;&gt;RFC1143 -->
<g id="edge1" class="edge">
<title>obs_by&#45;&gt;RFC1143</title>
<path fill="none" stroke="black" d="M66.7,-118.38C80.57,-115.13 97.8,-111.1 116.29,-106.78"/>
<polygon fill="black" stroke="black" points="116.88,-110.23 125.82,-104.54 115.29,-103.41 116.88,-110.23"/>
</g>
<!-- updated_by -->
<g id="node5" class="node">
<title>updated_by</title>
<polygon fill="none" stroke="black" points="61.75,-90 4.5,-90 4.5,-54 61.75,-54 61.75,-90"/>
<text xml:space="preserve" text-anchor="middle" x="33.12" y="-66.95" font-family="Times,serif" font-size="14.00">updates</text>
</g>
<!-- updated_by&#45;&gt;RFC1143 -->
<g id="edge4" class="edge">
<title>updated_by&#45;&gt;RFC1143</title>
<path fill="none" stroke="black" d="M61.96,-72C67.34,-72 73.33,-72 79.79,-72"/>
<polygon fill="black" stroke="black" points="79.55,-75.5 89.55,-72 79.55,-68.5 79.55,-75.5"/>
</g>
<!-- rev_cites -->
<g id="node7" class="node">
<title>rev_cites</title>
<polygon fill="none" stroke="black" points="60.12,-36 6.12,-36 6.12,0 60.12,0 60.12,-36"/>
<text xml:space="preserve" text-anchor="middle" x="33.12" y="-12.95" font-family="Times,serif" font-size="14.00">cites</text>
</g>
<!-- rev_cites&#45;&gt;RFC1143 -->
<g id="edge6" class="edge">
<title>rev_cites&#45;&gt;RFC1143</title>
<path fill="none" stroke="black" d="M60.6,-24.19C75.34,-27.64 94.98,-32.24 116.28,-37.22"/>
<polygon fill="black" stroke="black" points="115.19,-40.56 125.73,-39.43 116.79,-33.75 115.19,-40.56"/>
</g>
</g>
</svg>
