<?xml version="1.0" encoding="UTF-8" standalone="no"?>
<!DOCTYPE svg PUBLIC "-//W3C//DTD SVG 1.1//EN"
 "http://www.w3.org/Graphics/SVG/1.1/DTD/svg11.dtd">
<!-- Generated by graphviz version 14.1.1 (20251213.1925)
 -->
<!-- Title: Flow Pages: 1 -->
<svg width="703pt" height="287pt"
 viewBox="0.00 0.00 703.00 287.00" xmlns="http://www.w3.org/2000/svg" xmlns:xlink="http://www.w3.org/1999/xlink">
<g id="graph0" class="graph" transform="scale(1 1) rotate(0) translate(4 283.32)">
<title>Flow</title>
<polygon fill="white" stroke="none" points="-4,4 -4,-283.32 698.95,-283.32 698.95,4 -4,4"/>
<!-- RFC1117 -->
<g id="node1" class="node">
<title>RFC1117</title>
<g id="a_node1"><a xlink:title="This memo is an official status report on the network numbers and the autonomous system numbers used in the Internet community.">
<ellipse fill="green" stroke="black" cx="347.47" cy="-85.66" rx="77.07" ry="40.66"/>
<text xml:space="preserve" text-anchor="middle" x="347.47" y="-97.11" font-family="Times,serif" font-size="14.00">RFC1117</text>
<text xml:space="preserve" text-anchor="middle" x="347.47" y="-80.61" font-family="Times,serif" font-size="14.00">Internet numbers</text>
<text xml:space="preserve" text-anchor="middle" x="347.47" y="-64.11" font-family="Times,serif" font-size="14.00">1989</text>
</a>
</g>
</g>
<!-- obs -->
<g id="node4" class="node">
<title>obs</title>
<polygon fill="lightblue" stroke="black" points="515.8,-157.66 449.55,-157.66 449.55,-121.66 515.8,-121.66 515.8,-157.66"/>
<text xml:space="preserve" text-anchor="middle" x="482.67" y="-134.61" font-family="Times,serif" font-size="14.00">obsoletes</text>
</g>
<!-- RFC1117&#45;&gt;obs -->
<g id="edge3" class="edge">
<title>RFC1117&#45;&gt;obs</title>
<path fill="none" stroke="black" d="M409.23,-110.29C419.19,-114.33 429.33,-118.44 438.74,-122.25"/>
<polygon fill="black" stroke="black" points="437.42,-125.49 448,-126.01 440.05,-119.01 437.42,-125.49"/>
</g>
<!-- updates -->
<g id="node8" class="node">
<title>updates</title>
<polygon fill="lightyellow" stroke="black" points="511.3,-103.66 454.05,-103.66 454.05,-67.66 511.3,-67.66 511.3,-103.66"/>
<text xml:space="preserve" text-anchor="middle" x="482.67" y="-80.61" font-family="Times,serif" font-size="14.00">updates</text>
</g>
<!-- RFC1117&#45;&gt;updates -->
<g id="edge7" class="edge">
<title>RFC1117&#45;&gt;updates</title>
<path fill="none" stroke="black" d="M424.8,-85.66C430.87,-85.66 436.84,-85.66 442.48,-85.66"/>
<polygon fill="black" stroke="black" points="442.04,-89.16 452.04,-85.66 442.04,-82.16 442.04,-89.16"/>
</g>
<!-- cites -->
<g id="node10" class="node">
<title>cites</title>
<polygon fill="lightblue" stroke="black" points="509.67,-49.66 455.67,-49.66 455.67,-13.66 509.67,-13.66 509.67,-49.66"/>
<text xml:space="preserve" text-anchor="middle" x="482.67" y="-26.61" font-family="Times,serif" font-size="14.00">cites</text>
</g>
<!-- RFC1117&#45;&gt;cites -->
<g id="edge9" class="edge">
<title>RFC1117&#45;&gt;cites</title>
<path fill="none" stroke="black" d="M409.23,-61.03C421.37,-56.11 433.78,-51.08 444.81,-46.6"/>
<polygon fill="black" stroke="black" points="445.98,-49.91 453.93,-42.91 443.35,-43.42 445.98,-49.91"/>
</g>
<!-- obs_by -->
<g id="node2" class="node">
<title>obs_by</title>
<polygon fill="lightblue" stroke="black" points="245.4,-157.66 179.15,-157.66 179.15,-121.66 245.4,-121.66 245.4,-157.66"/>
<text xml:space="preserve" text-anchor="middle" x="212.27" y="-134.61" font-family="Times,serif" font-size="14.00">obsoletes</text>
</g>
<!-- obs_by&#45;&gt;RFC1117 -->
<g id="edge1" class="edge">
<title>obs_by&#45;&gt;RFC1117</title>
<path fill="none" stroke="black" d="M245.86,-126.45C254.78,-122.83 264.81,-118.77 274.99,-114.64"/>
<polygon fill="black" stroke="black" points="276.26,-117.9 284.21,-110.9 273.63,-111.41 276.26,-117.9"/>
</g>
<!-- RFC1166 -->
<g id="node3" class="node">
<title>RFC1166</title>
<g id="a_node3"><a xlink:href="RFC1166.html" xlink:title="This memo is a status report on the network numbers and autonomous system numbers used in the Internet community." target="_top">
<ellipse fill="none" stroke="black" cx="77.07" cy="-139.66" rx="77.07" ry="40.66"/>
<text xml:space="preserve" text-anchor="middle" x="77.07" y="-151.11" font-family="Times,serif" font-size="14.00">RFC1166</text>
<text xml:space="preserve" text-anchor="middle" x="77.07" y="-134.61" font-family="Times,serif" font-size="14.00">Internet numbers</text>
<text xml:space="preserve" text-anchor="middle" x="77.07" y="-118.11" font-family="Times,serif" font-size="14.00">1990</text>
</a>
</g>
</g>
<!-- RFC1166&#45;&gt;obs_by -->
<g id="edge2" class="edge">
<title>RFC1166&#45;&gt;obs_by</title>
<path fill="none" stroke="black" d="M154.4,-139.66C158.84,-139.66 163.21,-139.66 167.45,-139.66"/>
<polygon fill="black" stroke="black" points="167.44,-143.16 177.44,-139.66 167.44,-136.16 167.44,-143.16"/>
</g>
<!-- RFC1062 -->
<g id="node5" class="node">
<title>RFC1062</title>
<g id="a_node5"><a xlink:href="RFC1062.html" xlink:title="This memo is an official status report on the network numbers and gateway autonomous system numbers used in the Internet community." target="_top">
<ellipse fill="none" stroke="black" cx="617.87" cy="-238.66" rx="77.07" ry="40.66"/>
<text xml:space="preserve" text-anchor="middle" x="617.87" y="-250.11" font-family="Times,serif" font-size="14.00">RFC1062</text>
<text xml:space="preserve" text-anchor="middle" x="617.87" y="-233.61" font-family="Times,serif" font-size="14.00">Internet numbers</text>
<text xml:space="preserve" text-anchor="middle" x="617.87" y="-217.11" font-family="Times,serif" font-size="14.00">1988</text>
</a>
</g>
</g>
<!-- obs&#45;&gt;RFC1062 -->
<g id="edge4" class="edge">
<title>obs&#45;&gt;RFC1062</title>
<path fill="none" stroke="black" d="M503.16,-157.99C513.93,-167.79 527.74,-179.83 540.8,-189.66 546.02,-193.59 551.56,-197.55 557.17,-201.41"/>
<polygon fill="black" stroke="black" points="555.14,-204.26 565.39,-206.95 559.05,-198.45 555.14,-204.26"/>
</g>
<!-- RFC1020 -->
<g id="node6" class="node">
<title>RFC1020</title>
<g id="a_node6"><a xlink:href="RFC1020.html" xlink:title="This RFC is a list of the Assigned IP Network Numbers and EGP Autonomous System Numbers. &#160;This RFC obsoletes RFC&#45;997." target="_top">
<ellipse fill="none" stroke="black" cx="617.87" cy="-139.66" rx="77.07" ry="40.66"/>
<text xml:space="preserve" text-anchor="middle" x="617.87" y="-151.11" font-family="Times,serif" font-size="14.00">RFC1020</text>
<text xml:space="preserve" text-anchor="middle" x="617.87" y="-134.61" font-family="Times,serif" font-size="14.00">Internet numbers</text>
<text xml:space="preserve" text-anchor="middle" x="617.87" y="-118.11" font-family="Times,serif" font-size="14.00">1987</text>
</a>
</g>
</g>
<!-- obs&#45;&gt;RFC1020 -->
<g id="edge5" class="edge">
<title>obs&#45;&gt;RFC1020</title>
<path fill="none" stroke="black" d="M516.26,-139.66C520.34,-139.66 524.66,-139.66 529.12,-139.66"/>
<polygon fill="black" stroke="black" points="528.93,-143.16 538.93,-139.66 528.93,-136.16 528.93,-143.16"/>
</g>
<!-- RFC0997 -->
<g id="node7" class="node">
<title>RFC0997</title>
<g id="a_node7"><a xlink:href="RFC0997.html" xlink:title="This memo is an official status report on the network numbers used in the Internet community. &#160;As of 1&#45;Mar&#45;87 the Network Information Center (NIC) at SRI International has assumed responsibility for assignment of Network Numbers and Autonomous System Numbers. &#160;This RFC documents the current assignments of these numbers at the time of this transfer of responsibility. &#160;Obsoletes RFC&#45;990, 960, 943, 923 and 900." target="_top">
<ellipse fill="none" stroke="black" cx="617.87" cy="-40.66" rx="77.07" ry="40.66"/>
<text xml:space="preserve" text-anchor="middle" x="617.87" y="-52.11" font-family="Times,serif" font-size="14.00">RFC0997</text>
<text xml:space="preserve" text-anchor="middle" x="617.87" y="-35.61" font-family="Times,serif" font-size="14.00">Internet numbers</text>
<text xml:space="preserve" text-anchor="middle" x="617.87" y="-19.11" font-family="Times,serif" font-size="14.00">1987</text>
</a>
</g>
</g>
<!-- obs&#45;&gt;RFC0997 -->
<g id="edge6" class="edge">
<title>obs&#45;&gt;RFC0997</title>
<path fill="none" stroke="black" d="M505.9,-121.2C509.24,-118.36 512.63,-115.45 515.8,-112.66 527.14,-102.69 528.85,-98.89 540.8,-89.66 545.97,-85.66 551.48,-81.66 557.07,-77.78"/>
<polygon fill="black" stroke="black" points="558.96,-80.72 565.26,-72.21 555.02,-74.93 558.96,-80.72"/>
</g>
<!-- updated_by -->
<g id="node9" class="node">
<title>updated_by</title>
<polygon fill="lightyellow" stroke="black" points="240.9,-103.66 183.65,-103.66 183.65,-67.66 240.9,-67.66 240.9,-103.66"/>
<text xml:space="preserve" text-anchor="middle" x="212.27" y="-80.61" font-family="Times,serif" font-size="14.00">updates</text>
</g>
<!-- updated_by&#45;&gt;RFC1117 -->
<g id="edge8" class="edge">
<title>updated_by&#45;&gt;RFC1117</title>
<path fill="none" stroke="black" d="M241.2,-85.66C246.58,-85.66 252.49,-85.66 258.67,-85.66"/>
<polygon fill="black" stroke="black" points="258.51,-89.16 268.51,-85.66 258.51,-82.16 258.51,-89.16"/>
</g>
<!-- rev_cites -->
<g id="node11" class="node">
<title>rev_cites</title>
<polygon fill="lightblue" stroke="black" points="239.27,-49.66 185.27,-49.66 185.27,-13.66 239.27,-13.66 239.27,-49.66"/>
<text xml:space="preserve" text-anchor="middle" x="212.27" y="-26.61" font-family="Times,serif" font-size="14.00">cites</text>
</g>
<!-- rev_cites&#45;&gt;RFC1117 -->
<g id="edge10" class="edge">
<title>rev_cites&#45;&gt;RFC1117</title>
<path fill="none" stroke="black" d="M239.59,-42.33C249.9,-46.51 262.26,-51.52 274.87,-56.63"/>
<polygon fill="black" stroke="black" points="273.5,-59.85 284.08,-60.36 276.13,-53.36 273.5,-59.85"/>
</g>
</g>
</svg>
