<?xml version="1.0" encoding="UTF-8" standalone="no"?>
<!DOCTYPE svg PUBLIC "-//W3C//DTD SVG 1.1//EN"
 "http://www.w3.org/Graphics/SVG/1.1/DTD/svg11.dtd">
<!-- Generated by graphviz version 14.1.1 (20251213.1925)
 -->
<!-- Title: Flow Pages: 1 -->
<svg width="1082pt" height="213pt"
 viewBox="0.00 0.00 1082.00 213.00" xmlns="http://www.w3.org/2000/svg" xmlns:xlink="http://www.w3.org/1999/xlink">
<g id="graph0" class="graph" transform="scale(1 1) rotate(0) translate(4 209.32)">
<title>Flow</title>
<polygon fill="white" stroke="none" points="-4,4 -4,-209.32 1077.6,-209.32 1077.6,4 -4,4"/>
<!-- RFC1040 -->
<g id="node1" class="node">
<title>RFC1040</title>
<g id="a_node1"><a xlink:title="This RFC is the Outgrowth of a series of IAB Privacy Task Force meetings and of internal working papers distributed for those meetings. &#160;This memo defines message encipherment and authentication procedures, as the initial phase of an effort to provide privacy enhancement services for electronic mail transfer in the Internet. &#160;Detailed key management mechanisms to support these procedures will be defined in a subsequent RFC. &#160;As a goal of this initial phase, it is intended that the procedures defined here be compatible with a wide range of key management approaches, including both conventional (symmetric) and public&#45;key (asymmetric) approaches for encryption of data encrypting keys. &#160;Use of conventional cryptography for message text encryption and/or integrity check computation is anticipated.">
<ellipse fill="none" stroke="black" cx="536.8" cy="-75.66" rx="140.18" ry="75.66"/>
<text xml:space="preserve" text-anchor="middle" x="536.8" y="-111.86" font-family="Times,serif" font-size="14.00">RFC1040</text>
<text xml:space="preserve" text-anchor="middle" x="536.8" y="-95.36" font-family="Times,serif" font-size="14.00">Privacy enhancement for Internet</text>
<text xml:space="preserve" text-anchor="middle" x="536.8" y="-78.86" font-family="Times,serif" font-size="14.00">electronic mail: Part I: Message</text>
<text xml:space="preserve" text-anchor="middle" x="536.8" y="-62.36" font-family="Times,serif" font-size="14.00">encipherment and authentication</text>
<text xml:space="preserve" text-anchor="middle" x="536.8" y="-45.86" font-family="Times,serif" font-size="14.00">procedures</text>
<text xml:space="preserve" text-anchor="middle" x="536.8" y="-29.36" font-family="Times,serif" font-size="14.00">1988</text>
</a>
</g>
</g>
<!-- obs -->
<g id="node4" class="node">
<title>obs</title>
<polygon fill="none" stroke="black" points="768.24,-147.66 701.99,-147.66 701.99,-111.66 768.24,-111.66 768.24,-147.66"/>
<text xml:space="preserve" text-anchor="middle" x="735.11" y="-124.61" font-family="Times,serif" font-size="14.00">obsoletes</text>
</g>
<!-- RFC1040&#45;&gt;obs -->
<g id="edge3" class="edge">
<title>RFC1040&#45;&gt;obs</title>
<path fill="none" stroke="black" d="M662.41,-109.94C672.43,-112.69 682.05,-115.34 690.81,-117.75"/>
<polygon fill="black" stroke="black" points="689.77,-121.09 700.34,-120.37 691.63,-114.34 689.77,-121.09"/>
</g>
<!-- updates -->
<g id="node6" class="node">
<title>updates</title>
<polygon fill="none" stroke="black" points="763.74,-93.66 706.49,-93.66 706.49,-57.66 763.74,-57.66 763.74,-93.66"/>
<text xml:space="preserve" text-anchor="middle" x="735.11" y="-70.61" font-family="Times,serif" font-size="14.00">updates</text>
</g>
<!-- RFC1040&#45;&gt;updates -->
<g id="edge5" class="edge">
<title>RFC1040&#45;&gt;updates</title>
<path fill="none" stroke="black" d="M677.33,-75.66C683.47,-75.66 689.34,-75.66 694.83,-75.66"/>
<polygon fill="black" stroke="black" points="694.65,-79.16 704.65,-75.66 694.65,-72.16 694.65,-79.16"/>
</g>
<!-- cites -->
<g id="node8" class="node">
<title>cites</title>
<polygon fill="none" stroke="black" points="762.11,-39.66 708.11,-39.66 708.11,-3.66 762.11,-3.66 762.11,-39.66"/>
<text xml:space="preserve" text-anchor="middle" x="735.11" y="-16.61" font-family="Times,serif" font-size="14.00">cites</text>
</g>
<!-- RFC1040&#45;&gt;cites -->
<g id="edge7" class="edge">
<title>RFC1040&#45;&gt;cites</title>
<path fill="none" stroke="black" d="M662.41,-41.38C674.75,-37.99 686.49,-34.76 696.77,-31.93"/>
<polygon fill="black" stroke="black" points="697.53,-35.35 706.24,-29.33 695.67,-28.6 697.53,-35.35"/>
</g>
<!-- obs_by -->
<g id="node2" class="node">
<title>obs_by</title>
<polygon fill="none" stroke="black" points="371.62,-147.66 305.37,-147.66 305.37,-111.66 371.62,-111.66 371.62,-147.66"/>
<text xml:space="preserve" text-anchor="middle" x="338.49" y="-124.61" font-family="Times,serif" font-size="14.00">obsoletes</text>
</g>
<!-- obs_by&#45;&gt;RFC1040 -->
<g id="edge1" class="edge">
<title>obs_by&#45;&gt;RFC1040</title>
<path fill="none" stroke="black" d="M371.91,-120.74C380.4,-118.41 390.1,-115.74 400.44,-112.89"/>
<polygon fill="black" stroke="black" points="401.26,-116.3 409.98,-110.27 399.41,-109.55 401.26,-116.3"/>
</g>
<!-- RFC1113 -->
<g id="node3" class="node">
<title>RFC1113</title>
<g id="a_node3"><a xlink:href="RFC1113.html" xlink:title="This RFC specifies features for private electronic mail based on encryption technology. [STANDARDS&#45;TRACK]" target="_top">
<ellipse fill="none" stroke="black" cx="140.18" cy="-129.66" rx="140.18" ry="75.66"/>
<text xml:space="preserve" text-anchor="middle" x="140.18" y="-165.86" font-family="Times,serif" font-size="14.00">RFC1113</text>
<text xml:space="preserve" text-anchor="middle" x="140.18" y="-149.36" font-family="Times,serif" font-size="14.00">Privacy enhancement for Internet</text>
<text xml:space="preserve" text-anchor="middle" x="140.18" y="-132.86" font-family="Times,serif" font-size="14.00">electronic mail: Part I &#45; message</text>
<text xml:space="preserve" text-anchor="middle" x="140.18" y="-116.36" font-family="Times,serif" font-size="14.00">encipherment and authentication</text>
<text xml:space="preserve" text-anchor="middle" x="140.18" y="-99.86" font-family="Times,serif" font-size="14.00">procedures</text>
<text xml:space="preserve" text-anchor="middle" x="140.18" y="-83.36" font-family="Times,serif" font-size="14.00">1989</text>
</a>
</g>
</g>
<!-- RFC1113&#45;&gt;obs_by -->
<g id="edge2" class="edge">
<title>RFC1113&#45;&gt;obs_by</title>
<path fill="none" stroke="black" d="M280.71,-129.66C285.22,-129.66 289.59,-129.66 293.76,-129.66"/>
<polygon fill="black" stroke="black" points="293.46,-133.16 303.46,-129.66 293.46,-126.16 293.46,-133.16"/>
</g>
<!-- RFC0989 -->
<g id="node5" class="node">
<title>RFC0989</title>
<g id="a_node5"><a xlink:href="RFC0989.html" xlink:title="This RFC suggests a proposed protocol for the Internet community and requests discussion and suggestions for improvements. &#160;This RFC is the outgrowth of a series of IAB Privacy Task Force meetings and of internal working papers distributed for those meetings. &#160;This RFC defines message encipherment and authentication procedures, as the initial phase of an effort to provide privacy enhancement services for electronic mail transfer in the Internet. &#160;It is intended that the procedures defined here be compatible with a wide range of key management approaches, including both conventional (symmetric) and public&#45;key (asymmetric) approaches for encryption of data encrypting keys. &#160;Use of conventional cryptography for message text encryption and/or authentication is anticipated." target="_top">
<ellipse fill="none" stroke="black" cx="933.42" cy="-129.66" rx="140.18" ry="75.66"/>
<text xml:space="preserve" text-anchor="middle" x="933.42" y="-165.86" font-family="Times,serif" font-size="14.00">RFC0989</text>
<text xml:space="preserve" text-anchor="middle" x="933.42" y="-149.36" font-family="Times,serif" font-size="14.00">Privacy enhancement for Internet</text>
<text xml:space="preserve" text-anchor="middle" x="933.42" y="-132.86" font-family="Times,serif" font-size="14.00">electronic mail: Part I: Message</text>
<text xml:space="preserve" text-anchor="middle" x="933.42" y="-116.36" font-family="Times,serif" font-size="14.00">encipherment and authentication</text>
<text xml:space="preserve" text-anchor="middle" x="933.42" y="-99.86" font-family="Times,serif" font-size="14.00">procedures</text>
<text xml:space="preserve" text-anchor="middle" x="933.42" y="-83.36" font-family="Times,serif" font-size="14.00">1987</text>
</a>
</g>
</g>
<!-- obs&#45;&gt;RFC0989 -->
<g id="edge4" class="edge">
<title>obs&#45;&gt;RFC0989</title>
<path fill="none" stroke="black" d="M768.53,-129.66C772.52,-129.66 776.78,-129.66 781.24,-129.66"/>
<polygon fill="black" stroke="black" points="781.23,-133.16 791.23,-129.66 781.23,-126.16 781.23,-133.16"/>
</g>
<!-- updated_by -->
<g id="node7" class="node">
<title>updated_by</title>
<polygon fill="none" stroke="black" points="367.12,-93.66 309.87,-93.66 309.87,-57.66 367.12,-57.66 367.12,-93.66"/>
<text xml:space="preserve" text-anchor="middle" x="338.49" y="-70.61" font-family="Times,serif" font-size="14.00">updates</text>
</g>
<!-- updated_by&#45;&gt;RFC1040 -->
<g id="edge6" class="edge">
<title>updated_by&#45;&gt;RFC1040</title>
<path fill="none" stroke="black" d="M367.2,-75.66C372.62,-75.66 378.64,-75.66 385.09,-75.66"/>
<polygon fill="black" stroke="black" points="384.81,-79.16 394.81,-75.66 384.81,-72.16 384.81,-79.16"/>
</g>
<!-- rev_cites -->
<g id="node9" class="node">
<title>rev_cites</title>
<polygon fill="none" stroke="black" points="365.49,-39.66 311.49,-39.66 311.49,-3.66 365.49,-3.66 365.49,-39.66"/>
<text xml:space="preserve" text-anchor="middle" x="338.49" y="-16.61" font-family="Times,serif" font-size="14.00">cites</text>
</g>
<!-- rev_cites&#45;&gt;RFC1040 -->
<g id="edge8" class="edge">
<title>rev_cites&#45;&gt;RFC1040</title>
<path fill="none" stroke="black" d="M365.97,-28.94C375.7,-31.62 387.49,-34.86 400.28,-38.38"/>
<polygon fill="black" stroke="black" points="399.21,-41.72 409.78,-40.99 401.07,-34.97 399.21,-41.72"/>
</g>
</g>
</svg>
