<?xml version="1.0" encoding="UTF-8" standalone="no"?>
<!DOCTYPE svg PUBLIC "-//W3C//DTD SVG 1.1//EN"
 "http://www.w3.org/Graphics/SVG/1.1/DTD/svg11.dtd">
<!-- Generated by graphviz version 14.1.1 (20251213.1925)
 -->
<!-- Title: Flow Pages: 1 -->
<svg width="1757pt" height="1570pt"
 viewBox="0.00 0.00 1757.00 1570.00" xmlns="http://www.w3.org/2000/svg" xmlns:xlink="http://www.w3.org/1999/xlink">
<g id="graph0" class="graph" transform="scale(1 1) rotate(0) translate(4 1566.15)">
<title>Flow</title>
<polygon fill="white" stroke="none" points="-4,4 -4,-1566.15 1752.77,-1566.15 1752.77,4 -4,4"/>
<!-- RFC1886 -->
<g id="node1" class="node">
<title>RFC1886</title>
<g id="a_node1"><a xlink:title="This document defines the changes that need to be made to the Domain Name System to support hosts running IP version 6 (IPv6). [STANDARDS&#45;TRACK]">
<ellipse fill="green" stroke="black" stroke-width="3" cx="881.3" cy="-817.92" rx="214.96" ry="50.2"/>
<text xml:space="preserve" text-anchor="middle" x="881.3" y="-832.32" font-family="Times,serif" font-size="18.00">RFC1886</text>
<text xml:space="preserve" text-anchor="middle" x="881.3" y="-811.32" font-family="Times,serif" font-size="18.00">DNS Extensions to support IP version 6</text>
<text xml:space="preserve" text-anchor="middle" x="881.3" y="-790.32" font-family="Times,serif" font-size="18.00">1995</text>
</a>
</g>
</g>
<!-- obs -->
<g id="node4" class="node">
<title>obs</title>
<polygon fill="lightblue" stroke="black" points="1285.49,-944.88 1219.24,-944.88 1219.24,-908.88 1285.49,-908.88 1285.49,-944.88"/>
<text xml:space="preserve" text-anchor="middle" x="1252.37" y="-921.83" font-family="Times,serif" font-size="14.00">obsoletes</text>
</g>
<!-- RFC1886&#45;&gt;obs -->
<g id="edge3" class="edge">
<title>RFC1886&#45;&gt;obs</title>
<path fill="none" stroke="black" d="M1017.89,-858.03C1084.9,-877.7 1161.08,-900.07 1207.94,-913.83"/>
<polygon fill="black" stroke="black" points="1206.88,-917.17 1217.46,-916.62 1208.85,-910.45 1206.88,-917.17"/>
</g>
<!-- updates -->
<g id="node5" class="node">
<title>updates</title>
<polygon fill="lightyellow" stroke="black" points="1163.18,-1128.19 1105.93,-1128.19 1105.93,-1092.19 1163.18,-1092.19 1163.18,-1128.19"/>
<text xml:space="preserve" text-anchor="middle" x="1134.56" y="-1105.14" font-family="Times,serif" font-size="14.00">updates</text>
</g>
<!-- RFC1886&#45;&gt;updates -->
<g id="edge4" class="edge">
<title>RFC1886&#45;&gt;updates</title>
<path fill="none" stroke="black" d="M925.13,-868.5C979.24,-930.94 1069.27,-1034.85 1111.44,-1083.51"/>
<polygon fill="black" stroke="black" points="1108.55,-1085.52 1117.74,-1090.79 1113.84,-1080.94 1108.55,-1085.52"/>
</g>
<!-- cites -->
<g id="node9" class="node">
<title>cites</title>
<polygon fill="lightblue" stroke="black" points="963.34,-1218.72 909.34,-1218.72 909.34,-1182.72 963.34,-1182.72 963.34,-1218.72"/>
<text xml:space="preserve" text-anchor="middle" x="936.34" y="-1195.67" font-family="Times,serif" font-size="14.00">cites</text>
</g>
<!-- RFC1886&#45;&gt;cites -->
<g id="edge8" class="edge">
<title>RFC1886&#45;&gt;cites</title>
<path fill="none" stroke="black" d="M888.72,-869.55C900.41,-950.83 922.73,-1106.09 932.07,-1171.01"/>
<polygon fill="black" stroke="black" points="928.6,-1171.5 933.49,-1180.9 935.53,-1170.5 928.6,-1171.5"/>
</g>
<!-- obs_by -->
<g id="node2" class="node">
<title>obs_by</title>
<polygon fill="lightblue" stroke="black" points="753.77,-1187.7 687.52,-1187.7 687.52,-1151.7 753.77,-1151.7 753.77,-1187.7"/>
<text xml:space="preserve" text-anchor="middle" x="720.65" y="-1164.65" font-family="Times,serif" font-size="14.00">obsoletes</text>
</g>
<!-- obs_by&#45;&gt;RFC1886 -->
<g id="edge1" class="edge">
<title>obs_by&#45;&gt;RFC1886</title>
<path fill="none" stroke="black" d="M729.06,-1151.29C751.88,-1101.31 815.76,-961.43 853.13,-879.61"/>
<polygon fill="black" stroke="black" points="856.28,-881.13 857.25,-870.58 849.91,-878.22 856.28,-881.13"/>
</g>
<!-- RFC3596 -->
<g id="node3" class="node">
<title>RFC3596</title>
<g id="a_node3"><a xlink:href="RFC3596.html" xlink:title="This document defines the changes that need to be made to the Domain Name System (DNS) to support hosts running IP version 6 (IPv6). &#160;The changes include a resource record type to store an IPv6 address, a domain to support lookups based on an IPv6 address, and updated definitions of existing query types that return Internet addresses as part of additional section processing. &#160;The extensions are designed to be compatible with existing applications and, in particular, DNS implementations themselves. [STANDARDS&#45;TRACK]" target="_top">
<ellipse fill="none" stroke="black" cx="559.99" cy="-1521.49" rx="167.76" ry="40.66"/>
<text xml:space="preserve" text-anchor="middle" x="559.99" y="-1532.94" font-family="Times,serif" font-size="14.00">RFC3596</text>
<text xml:space="preserve" text-anchor="middle" x="559.99" y="-1516.44" font-family="Times,serif" font-size="14.00">DNS Extensions to Support IP Version 6</text>
<text xml:space="preserve" text-anchor="middle" x="559.99" y="-1499.94" font-family="Times,serif" font-size="14.00">2003</text>
</a>
</g>
</g>
<!-- RFC3596&#45;&gt;obs_by -->
<g id="edge2" class="edge">
<title>RFC3596&#45;&gt;obs_by</title>
<path fill="none" stroke="black" d="M578.58,-1480.79C611.46,-1408.79 679.1,-1260.69 707.56,-1198.35"/>
<polygon fill="black" stroke="black" points="710.65,-1200.01 711.62,-1189.46 704.28,-1197.11 710.65,-1200.01"/>
</g>
<!-- updated_by -->
<g id="node6" class="node">
<title>updated_by</title>
<polygon fill="lightyellow" stroke="black" points="538.86,-944.88 481.61,-944.88 481.61,-908.88 538.86,-908.88 538.86,-944.88"/>
<text xml:space="preserve" text-anchor="middle" x="510.23" y="-921.83" font-family="Times,serif" font-size="14.00">updates</text>
</g>
<!-- updated_by&#45;&gt;RFC1886 -->
<g id="edge5" class="edge">
<title>updated_by&#45;&gt;RFC1886</title>
<path fill="none" stroke="black" d="M539.35,-918.33C581.36,-905.99 661.9,-882.34 734.26,-861.09"/>
<polygon fill="black" stroke="black" points="734.81,-864.58 743.42,-858.4 732.84,-857.86 734.81,-864.58"/>
</g>
<!-- RFC2874 -->
<g id="node7" class="node">
<title>RFC2874</title>
<g id="a_node7"><a xlink:href="RFC2874.html" xlink:title="This document defines changes to the Domain Name System to support renumberable and aggregatable IPv6 addressing. [STANDARDS&#45;TRACK]" target="_top">
<ellipse fill="none" stroke="black" cx="230.62" cy="-1236.09" rx="172" ry="52.33"/>
<text xml:space="preserve" text-anchor="middle" x="230.62" y="-1255.79" font-family="Times,serif" font-size="14.00">RFC2874</text>
<text xml:space="preserve" text-anchor="middle" x="230.62" y="-1239.29" font-family="Times,serif" font-size="14.00">DNS Extensions to Support IPv6 Address</text>
<text xml:space="preserve" text-anchor="middle" x="230.62" y="-1222.79" font-family="Times,serif" font-size="14.00">Aggregation and Renumbering</text>
<text xml:space="preserve" text-anchor="middle" x="230.62" y="-1206.29" font-family="Times,serif" font-size="14.00">2000</text>
</a>
</g>
</g>
<!-- RFC2874&#45;&gt;updated_by -->
<g id="edge6" class="edge">
<title>RFC2874&#45;&gt;updated_by</title>
<path fill="none" stroke="black" d="M276.48,-1185.37C336.53,-1118.97 439.61,-1004.97 486.17,-953.49"/>
<polygon fill="black" stroke="black" points="488.53,-956.09 492.65,-946.32 483.34,-951.39 488.53,-956.09"/>
</g>
<!-- RFC3152 -->
<g id="node8" class="node">
<title>RFC3152</title>
<g id="a_node8"><a xlink:href="RFC3152.html" xlink:title="This document discusses the need for delegation of the IP6.ARPA DNS zone, and specifies a plan for the technical operation thereof. &#160;This document specifies an Internet Best Current Practices for the Internet Community, and requests discussion and suggestions for improvements." target="_top">
<ellipse fill="none" stroke="black" cx="107.83" cy="-817.92" rx="107.83" ry="40.66"/>
<text xml:space="preserve" text-anchor="middle" x="107.83" y="-829.37" font-family="Times,serif" font-size="14.00">RFC3152</text>
<text xml:space="preserve" text-anchor="middle" x="107.83" y="-812.87" font-family="Times,serif" font-size="14.00">Delegation of IP6.ARPA</text>
<text xml:space="preserve" text-anchor="middle" x="107.83" y="-796.37" font-family="Times,serif" font-size="14.00">2001</text>
</a>
</g>
</g>
<!-- RFC3152&#45;&gt;updated_by -->
<g id="edge7" class="edge">
<title>RFC3152&#45;&gt;updated_by</title>
<path fill="none" stroke="black" d="M195.64,-841.7C281.16,-864.85 407.26,-898.99 470.7,-916.17"/>
<polygon fill="black" stroke="black" points="469.4,-919.45 479.97,-918.68 471.23,-912.69 469.4,-919.45"/>
</g>
<!-- rev_cites -->
<g id="node10" class="node">
<title>rev_cites</title>
<polygon fill="lightblue" stroke="black" points="963.34,-453.12 909.34,-453.12 909.34,-417.12 963.34,-417.12 963.34,-453.12"/>
<text xml:space="preserve" text-anchor="middle" x="936.34" y="-430.07" font-family="Times,serif" font-size="14.00">cites</text>
</g>
<!-- RFC3152&#45;&gt;rev_cites -->
<g id="edge10" class="edge">
<title>RFC3152&#45;&gt;rev_cites</title>
<path fill="none" stroke="black" d="M176.34,-786.27C343.96,-708.82 770.41,-511.79 899.05,-452.35"/>
<polygon fill="black" stroke="black" points="900.2,-455.68 907.8,-448.31 897.26,-449.32 900.2,-455.68"/>
</g>
<!-- rev_cites&#45;&gt;RFC1886 -->
<g id="edge9" class="edge">
<title>rev_cites&#45;&gt;RFC1886</title>
<path fill="none" stroke="black" d="M933.68,-453.59C925.95,-507.38 903.17,-665.82 890.34,-755.03"/>
<polygon fill="black" stroke="black" points="886.89,-754.45 888.93,-764.85 893.82,-755.45 886.89,-754.45"/>
</g>
<!-- RFC3363 -->
<g id="node11" class="node">
<title>RFC3363</title>
<g id="a_node11"><a xlink:href="RFC3363.html" xlink:title="None" target="_top">
<ellipse fill="none" stroke="black" cx="230.62" cy="-399.75" rx="167.23" ry="63.99"/>
<text xml:space="preserve" text-anchor="middle" x="230.62" y="-427.7" font-family="Times,serif" font-size="14.00">RFC3363</text>
<text xml:space="preserve" text-anchor="middle" x="230.62" y="-411.2" font-family="Times,serif" font-size="14.00">Representing Internet Protocol version 6</text>
<text xml:space="preserve" text-anchor="middle" x="230.62" y="-394.7" font-family="Times,serif" font-size="14.00">(IPv6) Addresses in the Domain Name</text>
<text xml:space="preserve" text-anchor="middle" x="230.62" y="-378.2" font-family="Times,serif" font-size="14.00">System (DNS)</text>
<text xml:space="preserve" text-anchor="middle" x="230.62" y="-361.7" font-family="Times,serif" font-size="14.00">2002</text>
</a>
</g>
</g>
<!-- RFC3363&#45;&gt;rev_cites -->
<g id="edge11" class="edge">
<title>RFC3363&#45;&gt;rev_cites</title>
<path fill="none" stroke="black" d="M396.52,-408.07C561.83,-416.35 804.12,-428.5 897.58,-433.18"/>
<polygon fill="black" stroke="black" points="897.32,-436.67 907.48,-433.68 897.67,-429.68 897.32,-436.67"/>
</g>
<!-- RFC3364 -->
<g id="node12" class="node">
<title>RFC3364</title>
<g id="a_node12"><a xlink:href="RFC3364.html" xlink:title="None" target="_top">
<ellipse fill="none" stroke="black" cx="559.99" cy="-114.35" rx="177.84" ry="63.99"/>
<text xml:space="preserve" text-anchor="middle" x="559.99" y="-142.3" font-family="Times,serif" font-size="14.00">RFC3364</text>
<text xml:space="preserve" text-anchor="middle" x="559.99" y="-125.8" font-family="Times,serif" font-size="14.00">Tradeoffs in Domain Name System (DNS)</text>
<text xml:space="preserve" text-anchor="middle" x="559.99" y="-109.3" font-family="Times,serif" font-size="14.00">Support for Internet Protocol version 6</text>
<text xml:space="preserve" text-anchor="middle" x="559.99" y="-92.8" font-family="Times,serif" font-size="14.00">(IPv6)</text>
<text xml:space="preserve" text-anchor="middle" x="559.99" y="-76.3" font-family="Times,serif" font-size="14.00">2002</text>
</a>
</g>
</g>
<!-- RFC3364&#45;&gt;rev_cites -->
<g id="edge12" class="edge">
<title>RFC3364&#45;&gt;rev_cites</title>
<path fill="none" stroke="black" d="M629.46,-173.56C712.29,-244.16 846.98,-358.96 906.47,-409.67"/>
<polygon fill="black" stroke="black" points="903.99,-412.15 913.87,-415.97 908.53,-406.82 903.99,-412.15"/>
</g>
<!-- RFC3732 -->
<g id="node13" class="node">
<title>RFC3732</title>
<g id="a_node13"><a xlink:href="RFC3732.html" xlink:title="This document describes an Extensible Provisioning Protocol (EPP) mapping for the provisioning and management of Internet host names stored in a shared central repository. &#160;Specified in XML, the mapping defines EPP command syntax and semantics as applied to host names. [STANDARDS&#45;TRACK]" target="_top">
<ellipse fill="none" stroke="black" cx="991.38" cy="-52.33" rx="163.52" ry="52.33"/>
<text xml:space="preserve" text-anchor="middle" x="991.38" y="-72.03" font-family="Times,serif" font-size="14.00">RFC3732</text>
<text xml:space="preserve" text-anchor="middle" x="991.38" y="-55.53" font-family="Times,serif" font-size="14.00">Extensible Provisioning Protocol (EPP)</text>
<text xml:space="preserve" text-anchor="middle" x="991.38" y="-39.03" font-family="Times,serif" font-size="14.00">Host Mapping</text>
<text xml:space="preserve" text-anchor="middle" x="991.38" y="-22.53" font-family="Times,serif" font-size="14.00">2004</text>
</a>
</g>
</g>
<!-- RFC3732&#45;&gt;rev_cites -->
<g id="edge13" class="edge">
<title>RFC3732&#45;&gt;rev_cites</title>
<path fill="none" stroke="black" d="M983.84,-104.75C972.11,-186.31 949.88,-340.93 940.59,-405.56"/>
<polygon fill="black" stroke="black" points="937.13,-405 939.17,-415.4 944.06,-405.99 937.13,-405"/>
</g>
<!-- RFC4932 -->
<g id="node14" class="node">
<title>RFC4932</title>
<g id="a_node14"><a xlink:href="RFC4932.html" xlink:title="This document describes an Extensible Provisioning Protocol (EPP) mapping for the provisioning and management of Internet host names stored in a shared central repository. &#160;Specified in XML, the mapping defines EPP command syntax and semantics as applied to host names. &#160;This document obsoletes RFC 3732. [STANDARDS&#45;TRACK]" target="_top">
<ellipse fill="none" stroke="black" cx="1387.81" cy="-233.37" rx="163.52" ry="52.33"/>
<text xml:space="preserve" text-anchor="middle" x="1387.81" y="-253.07" font-family="Times,serif" font-size="14.00">RFC4932</text>
<text xml:space="preserve" text-anchor="middle" x="1387.81" y="-236.57" font-family="Times,serif" font-size="14.00">Extensible Provisioning Protocol (EPP)</text>
<text xml:space="preserve" text-anchor="middle" x="1387.81" y="-220.07" font-family="Times,serif" font-size="14.00">Host Mapping</text>
<text xml:space="preserve" text-anchor="middle" x="1387.81" y="-203.57" font-family="Times,serif" font-size="14.00">2007</text>
</a>
</g>
</g>
<!-- RFC4932&#45;&gt;rev_cites -->
<g id="edge14" class="edge">
<title>RFC4932&#45;&gt;rev_cites</title>
<path fill="none" stroke="black" d="M1292.07,-276.16C1193.05,-320.41 1043.42,-387.27 974.08,-418.26"/>
<polygon fill="black" stroke="black" points="972.74,-415.02 965.04,-422.3 975.6,-421.41 972.74,-415.02"/>
</g>
<!-- RFC6563 -->
<g id="node15" class="node">
<title>RFC6563</title>
<g id="a_node15"><a xlink:href="RFC6563.html" xlink:title="This document provides a summary of issues related to the use of A6 records, discusses the current status, and moves RFC 2874 to Historic status, providing clarity to implementers and operators. &#160;This document is not an Internet Standards Track specification; it is published for informational purposes." target="_top">
<ellipse fill="none" stroke="black" cx="1623.44" cy="-600.01" rx="125.33" ry="40.66"/>
<text xml:space="preserve" text-anchor="middle" x="1623.44" y="-611.46" font-family="Times,serif" font-size="14.00">RFC6563</text>
<text xml:space="preserve" text-anchor="middle" x="1623.44" y="-594.96" font-family="Times,serif" font-size="14.00">Moving A6 to Historic Status</text>
<text xml:space="preserve" text-anchor="middle" x="1623.44" y="-578.46" font-family="Times,serif" font-size="14.00">2012</text>
</a>
</g>
</g>
<!-- RFC6563&#45;&gt;rev_cites -->
<g id="edge15" class="edge">
<title>RFC6563&#45;&gt;rev_cites</title>
<path fill="none" stroke="black" d="M1522.05,-575.68C1367.13,-538.5 1078.54,-469.25 974.76,-444.34"/>
<polygon fill="black" stroke="black" points="975.61,-440.95 965.07,-442.02 973.98,-447.75 975.61,-440.95"/>
</g>
</g>
</svg>
