<?xml version="1.0" encoding="UTF-8" standalone="no"?>
<!DOCTYPE svg PUBLIC "-//W3C//DTD SVG 1.1//EN"
 "http://www.w3.org/Graphics/SVG/1.1/DTD/svg11.dtd">
<!-- Generated by graphviz version 14.1.1 (20251213.1925)
 -->
<!-- Title: Flow Pages: 1 -->
<svg width="638pt" height="175pt"
 viewBox="0.00 0.00 638.00 175.00" xmlns="http://www.w3.org/2000/svg" xmlns:xlink="http://www.w3.org/1999/xlink">
<g id="graph0" class="graph" transform="scale(1 1) rotate(0) translate(4 170.66)">
<title>Flow</title>
<polygon fill="white" stroke="none" points="-4,4 -4,-170.66 634.35,-170.66 634.35,4 -4,4"/>
<!-- RFC1116 -->
<g id="node1" class="node">
<title>RFC1116</title>
<g id="a_node1"><a xlink:title="Hosts on the Internet that support Linemode within the Telnet protocol are expected to adopt and implement this protocol. &#160;Obsoleted by RFC 1184. [STANDARDS&#45;TRACK]">
<ellipse fill="none" stroke="black" cx="434.45" cy="-72" rx="104.65" ry="40.66"/>
<text xml:space="preserve" text-anchor="middle" x="434.45" y="-83.45" font-family="Times,serif" font-size="14.00">RFC1116</text>
<text xml:space="preserve" text-anchor="middle" x="434.45" y="-66.95" font-family="Times,serif" font-size="14.00">Telnet Linemode option</text>
<text xml:space="preserve" text-anchor="middle" x="434.45" y="-50.45" font-family="Times,serif" font-size="14.00">1989</text>
</a>
</g>
</g>
<!-- obs -->
<g id="node4" class="node">
<title>obs</title>
<polygon fill="none" stroke="black" points="630.35,-144 564.1,-144 564.1,-108 630.35,-108 630.35,-144"/>
<text xml:space="preserve" text-anchor="middle" x="597.22" y="-120.95" font-family="Times,serif" font-size="14.00">obsoletes</text>
</g>
<!-- RFC1116&#45;&gt;obs -->
<g id="edge3" class="edge">
<title>RFC1116&#45;&gt;obs</title>
<path fill="none" stroke="black" d="M514.42,-98.53C527.8,-103.02 541.23,-107.53 553.23,-111.56"/>
<polygon fill="black" stroke="black" points="551.77,-114.76 562.37,-114.63 554,-108.13 551.77,-114.76"/>
</g>
<!-- updates -->
<g id="node5" class="node">
<title>updates</title>
<polygon fill="none" stroke="black" points="625.85,-90 568.6,-90 568.6,-54 625.85,-54 625.85,-90"/>
<text xml:space="preserve" text-anchor="middle" x="597.22" y="-66.95" font-family="Times,serif" font-size="14.00">updates</text>
</g>
<!-- RFC1116&#45;&gt;updates -->
<g id="edge4" class="edge">
<title>RFC1116&#45;&gt;updates</title>
<path fill="none" stroke="black" d="M539.54,-72C545.54,-72 551.35,-72 556.82,-72"/>
<polygon fill="black" stroke="black" points="556.66,-75.5 566.66,-72 556.66,-68.5 556.66,-75.5"/>
</g>
<!-- cites -->
<g id="node7" class="node">
<title>cites</title>
<polygon fill="none" stroke="black" points="624.22,-36 570.22,-36 570.22,0 624.22,0 624.22,-36"/>
<text xml:space="preserve" text-anchor="middle" x="597.22" y="-12.95" font-family="Times,serif" font-size="14.00">cites</text>
</g>
<!-- RFC1116&#45;&gt;cites -->
<g id="edge6" class="edge">
<title>RFC1116&#45;&gt;cites</title>
<path fill="none" stroke="black" d="M514.42,-45.47C530.06,-40.22 545.76,-34.95 559.17,-30.44"/>
<polygon fill="black" stroke="black" points="560.05,-33.84 568.41,-27.34 557.82,-27.21 560.05,-33.84"/>
</g>
<!-- obs_by -->
<g id="node2" class="node">
<title>obs_by</title>
<polygon fill="none" stroke="black" points="304.8,-144 238.55,-144 238.55,-108 304.8,-108 304.8,-144"/>
<text xml:space="preserve" text-anchor="middle" x="271.67" y="-120.95" font-family="Times,serif" font-size="14.00">obsoletes</text>
</g>
<!-- obs_by&#45;&gt;RFC1116 -->
<g id="edge1" class="edge">
<title>obs_by&#45;&gt;RFC1116</title>
<path fill="none" stroke="black" d="M305.21,-115.07C316.61,-111.24 330.04,-106.73 343.84,-102.1"/>
<polygon fill="black" stroke="black" points="344.63,-105.52 352.99,-99.02 342.4,-98.89 344.63,-105.52"/>
</g>
<!-- RFC1184 -->
<g id="node3" class="node">
<title>RFC1184</title>
<g id="a_node3"><a xlink:href="RFC1184.html" xlink:title="This RFC specifies a procedure for line at a time terminal interaction based on the Telnet Protocol. &#160;It obsoletes RFC 1116. [STANDARDS&#45;TRACK]" target="_top">
<ellipse fill="none" stroke="black" cx="106.77" cy="-126" rx="106.77" ry="40.66"/>
<text xml:space="preserve" text-anchor="middle" x="106.77" y="-137.45" font-family="Times,serif" font-size="14.00">RFC1184</text>
<text xml:space="preserve" text-anchor="middle" x="106.77" y="-120.95" font-family="Times,serif" font-size="14.00">Telnet Linemode Option</text>
<text xml:space="preserve" text-anchor="middle" x="106.77" y="-104.45" font-family="Times,serif" font-size="14.00">1990</text>
</a>
</g>
</g>
<!-- RFC1184&#45;&gt;obs_by -->
<g id="edge2" class="edge">
<title>RFC1184&#45;&gt;obs_by</title>
<path fill="none" stroke="black" d="M213.7,-126C218.21,-126 222.61,-126 226.84,-126"/>
<polygon fill="black" stroke="black" points="226.73,-129.5 236.73,-126 226.73,-122.5 226.73,-129.5"/>
</g>
<!-- updated_by -->
<g id="node6" class="node">
<title>updated_by</title>
<polygon fill="none" stroke="black" points="300.3,-90 243.05,-90 243.05,-54 300.3,-54 300.3,-90"/>
<text xml:space="preserve" text-anchor="middle" x="271.67" y="-66.95" font-family="Times,serif" font-size="14.00">updates</text>
</g>
<!-- updated_by&#45;&gt;RFC1116 -->
<g id="edge5" class="edge">
<title>updated_by&#45;&gt;RFC1116</title>
<path fill="none" stroke="black" d="M300.68,-72C305.96,-72 311.78,-72 317.95,-72"/>
<polygon fill="black" stroke="black" points="317.86,-75.5 327.86,-72 317.86,-68.5 317.86,-75.5"/>
</g>
<!-- rev_cites -->
<g id="node8" class="node">
<title>rev_cites</title>
<polygon fill="none" stroke="black" points="298.67,-36 244.67,-36 244.67,0 298.67,0 298.67,-36"/>
<text xml:space="preserve" text-anchor="middle" x="271.67" y="-12.95" font-family="Times,serif" font-size="14.00">cites</text>
</g>
<!-- rev_cites&#45;&gt;RFC1116 -->
<g id="edge7" class="edge">
<title>rev_cites&#45;&gt;RFC1116</title>
<path fill="none" stroke="black" d="M298.86,-26.8C311.42,-31.01 327.27,-36.34 343.66,-41.84"/>
<polygon fill="black" stroke="black" points="342.44,-45.13 353.03,-44.99 344.67,-38.49 342.44,-45.13"/>
</g>
</g>
</svg>
