<?xml version="1.0" encoding="UTF-8" standalone="no"?>
<!DOCTYPE svg PUBLIC "-//W3C//DTD SVG 1.1//EN"
 "http://www.w3.org/Graphics/SVG/1.1/DTD/svg11.dtd">
<!-- Generated by graphviz version 14.1.1 (20251213.1925)
 -->
<!-- Title: Flow Pages: 1 -->
<svg width="1071pt" height="224pt"
 viewBox="0.00 0.00 1071.00 224.00" xmlns="http://www.w3.org/2000/svg" xmlns:xlink="http://www.w3.org/1999/xlink">
<g id="graph0" class="graph" transform="scale(1 1) rotate(0) translate(4 219.66)">
<title>Flow</title>
<polygon fill="white" stroke="none" points="-4,4 -4,-219.66 1067,-219.66 1067,4 -4,4"/>
<!-- RFC1250 -->
<g id="node1" class="node">
<title>RFC1250</title>
<g id="a_node1"><a xlink:title="This memo describes the state of standardization of protocols used in the Internet as determined by the Internet Activities Board (IAB). &#160;This memo provides information for the Internet community. &#160;It does not specify an Internet standard.">
<ellipse fill="green" stroke="black" cx="549" cy="-72" rx="135.41" ry="40.66"/>
<text xml:space="preserve" text-anchor="middle" x="549" y="-83.45" font-family="Times,serif" font-size="14.00">RFC1250</text>
<text xml:space="preserve" text-anchor="middle" x="549" y="-66.95" font-family="Times,serif" font-size="14.00">IAB Official Protocol Standards</text>
<text xml:space="preserve" text-anchor="middle" x="549" y="-50.45" font-family="Times,serif" font-size="14.00">1991</text>
</a>
</g>
</g>
<!-- obs -->
<g id="node5" class="node">
<title>obs</title>
<polygon fill="lightblue" stroke="black" points="775.66,-144 709.41,-144 709.41,-108 775.66,-108 775.66,-144"/>
<text xml:space="preserve" text-anchor="middle" x="742.54" y="-120.95" font-family="Times,serif" font-size="14.00">obsoletes</text>
</g>
<!-- RFC1250&#45;&gt;obs -->
<g id="edge4" class="edge">
<title>RFC1250&#45;&gt;obs</title>
<path fill="none" stroke="black" d="M648.85,-99.87C666.2,-104.76 683.41,-109.61 698.21,-113.79"/>
<polygon fill="black" stroke="black" points="696.99,-117.08 707.56,-116.42 698.89,-110.34 696.99,-117.08"/>
</g>
<!-- updates -->
<g id="node7" class="node">
<title>updates</title>
<polygon fill="lightyellow" stroke="black" points="771.16,-90 713.91,-90 713.91,-54 771.16,-54 771.16,-90"/>
<text xml:space="preserve" text-anchor="middle" x="742.54" y="-66.95" font-family="Times,serif" font-size="14.00">updates</text>
</g>
<!-- RFC1250&#45;&gt;updates -->
<g id="edge6" class="edge">
<title>RFC1250&#45;&gt;updates</title>
<path fill="none" stroke="black" d="M684.85,-72C690.95,-72 696.8,-72 702.27,-72"/>
<polygon fill="black" stroke="black" points="702.07,-75.5 712.07,-72 702.07,-68.5 702.07,-75.5"/>
</g>
<!-- cites -->
<g id="node9" class="node">
<title>cites</title>
<polygon fill="lightblue" stroke="black" points="769.54,-36 715.54,-36 715.54,0 769.54,0 769.54,-36"/>
<text xml:space="preserve" text-anchor="middle" x="742.54" y="-12.95" font-family="Times,serif" font-size="14.00">cites</text>
</g>
<!-- RFC1250&#45;&gt;cites -->
<g id="edge8" class="edge">
<title>RFC1250&#45;&gt;cites</title>
<path fill="none" stroke="black" d="M648.85,-44.13C668.58,-38.57 688.13,-33.06 704.16,-28.54"/>
<polygon fill="black" stroke="black" points="705.02,-31.93 713.7,-25.85 703.12,-25.19 705.02,-31.93"/>
</g>
<!-- obs_by -->
<g id="node2" class="node">
<title>obs_by</title>
<polygon fill="lightblue" stroke="black" points="388.59,-144 322.34,-144 322.34,-108 388.59,-108 388.59,-144"/>
<text xml:space="preserve" text-anchor="middle" x="355.46" y="-120.95" font-family="Times,serif" font-size="14.00">obsoletes</text>
</g>
<!-- obs_by&#45;&gt;RFC1250 -->
<g id="edge1" class="edge">
<title>obs_by&#45;&gt;RFC1250</title>
<path fill="none" stroke="black" d="M388.95,-116.84C402.99,-112.88 420.3,-108 438.28,-102.93"/>
<polygon fill="black" stroke="black" points="439.1,-106.34 447.77,-100.26 437.2,-99.6 439.1,-106.34"/>
</g>
<!-- RFC2200 -->
<g id="node3" class="node">
<title>RFC2200</title>
<g id="a_node3"><a xlink:href="RFC2200.html" xlink:title="A discussion of the standardization process and the RFC document series is presented first, followed by an explanation of the terms. &#160;Sections 6.2 &#45; 6.10 contain the lists of protocols in each stage of standardization. &#160;Finally are pointers to references and contacts for further information. [STANDARDS&#45;TRACK]" target="_top">
<ellipse fill="none" stroke="black" cx="148.67" cy="-175" rx="148.67" ry="40.66"/>
<text xml:space="preserve" text-anchor="middle" x="148.67" y="-186.45" font-family="Times,serif" font-size="14.00">RFC2200</text>
<text xml:space="preserve" text-anchor="middle" x="148.67" y="-169.95" font-family="Times,serif" font-size="14.00">Internet Official Protocol Standards</text>
<text xml:space="preserve" text-anchor="middle" x="148.67" y="-153.45" font-family="Times,serif" font-size="14.00">1997</text>
</a>
</g>
</g>
<!-- RFC2200&#45;&gt;obs_by -->
<g id="edge2" class="edge">
<title>RFC2200&#45;&gt;obs_by</title>
<path fill="none" stroke="black" d="M261.65,-148.21C279.04,-144.05 296.06,-139.97 310.68,-136.48"/>
<polygon fill="black" stroke="black" points="311.46,-139.89 320.37,-134.16 309.83,-133.08 311.46,-139.89"/>
</g>
<!-- RFC1280 -->
<g id="node4" class="node">
<title>RFC1280</title>
<g id="a_node4"><a xlink:href="RFC1280.html" xlink:title="This memo describes the state of standardization of protocols used in the Internet as determined by the Internet Activities Board (IAB). &#160;This memo provides information for the Internet community. &#160;It does not specify an Internet standard." target="_top">
<ellipse fill="none" stroke="black" cx="148.67" cy="-76" rx="135.41" ry="40.66"/>
<text xml:space="preserve" text-anchor="middle" x="148.67" y="-87.45" font-family="Times,serif" font-size="14.00">RFC1280</text>
<text xml:space="preserve" text-anchor="middle" x="148.67" y="-70.95" font-family="Times,serif" font-size="14.00">IAB Official Protocol Standards</text>
<text xml:space="preserve" text-anchor="middle" x="148.67" y="-54.45" font-family="Times,serif" font-size="14.00">1992</text>
</a>
</g>
</g>
<!-- RFC1280&#45;&gt;obs_by -->
<g id="edge3" class="edge">
<title>RFC1280&#45;&gt;obs_by</title>
<path fill="none" stroke="black" d="M254.77,-101.66C274.71,-106.53 294.53,-111.37 311.17,-115.43"/>
<polygon fill="black" stroke="black" points="310.13,-118.78 320.68,-117.75 311.8,-111.98 310.13,-118.78"/>
</g>
<!-- RFC1200 -->
<g id="node6" class="node">
<title>RFC1200</title>
<g id="a_node6"><a xlink:href="RFC1200.html" xlink:title="This memo describes the state of standardization of protocols used in the Internet as determined by the Internet Activities Board (IAB). &#160;An overview of the standards procedures is presented first, followed by discussions of the standardization process and the RFC document series, then the explanation of the terms is presented, the lists of protocols in each stage of standardization follows, and finally pointers to references and contacts for further information." target="_top">
<ellipse fill="none" stroke="black" cx="931.83" cy="-126" rx="131.17" ry="40.66"/>
<text xml:space="preserve" text-anchor="middle" x="931.83" y="-137.45" font-family="Times,serif" font-size="14.00">RFC1200</text>
<text xml:space="preserve" text-anchor="middle" x="931.83" y="-120.95" font-family="Times,serif" font-size="14.00">IAB official protocol standards</text>
<text xml:space="preserve" text-anchor="middle" x="931.83" y="-104.45" font-family="Times,serif" font-size="14.00">1991</text>
</a>
</g>
</g>
<!-- obs&#45;&gt;RFC1200 -->
<g id="edge5" class="edge">
<title>obs&#45;&gt;RFC1200</title>
<path fill="none" stroke="black" d="M776.16,-126C780.29,-126 784.69,-126 789.31,-126"/>
<polygon fill="black" stroke="black" points="788.93,-129.5 798.93,-126 788.93,-122.5 788.93,-129.5"/>
</g>
<!-- updated_by -->
<g id="node8" class="node">
<title>updated_by</title>
<polygon fill="lightyellow" stroke="black" points="384.09,-90 326.84,-90 326.84,-54 384.09,-54 384.09,-90"/>
<text xml:space="preserve" text-anchor="middle" x="355.46" y="-66.95" font-family="Times,serif" font-size="14.00">updates</text>
</g>
<!-- updated_by&#45;&gt;RFC1250 -->
<g id="edge7" class="edge">
<title>updated_by&#45;&gt;RFC1250</title>
<path fill="none" stroke="black" d="M384.31,-72C389.7,-72 395.67,-72 402.06,-72"/>
<polygon fill="black" stroke="black" points="401.66,-75.5 411.66,-72 401.66,-68.5 401.66,-75.5"/>
</g>
<!-- rev_cites -->
<g id="node10" class="node">
<title>rev_cites</title>
<polygon fill="lightblue" stroke="black" points="382.46,-36 328.46,-36 328.46,0 382.46,0 382.46,-36"/>
<text xml:space="preserve" text-anchor="middle" x="355.46" y="-12.95" font-family="Times,serif" font-size="14.00">cites</text>
</g>
<!-- rev_cites&#45;&gt;RFC1250 -->
<g id="edge9" class="edge">
<title>rev_cites&#45;&gt;RFC1250</title>
<path fill="none" stroke="black" d="M382.69,-25.4C397.7,-29.63 417.65,-35.25 438.48,-41.12"/>
<polygon fill="black" stroke="black" points="437.41,-44.46 447.98,-43.8 439.31,-37.72 437.41,-44.46"/>
</g>
</g>
</svg>
