<?xml version="1.0" encoding="UTF-8" standalone="no"?>
<!DOCTYPE svg PUBLIC "-//W3C//DTD SVG 1.1//EN"
 "http://www.w3.org/Graphics/SVG/1.1/DTD/svg11.dtd">
<!-- Generated by graphviz version 14.1.1 (20251213.1925)
 -->
<!-- Title: Flow Pages: 1 -->
<svg width="1232pt" height="1262pt"
 viewBox="0.00 0.00 1232.00 1262.00" xmlns="http://www.w3.org/2000/svg" xmlns:xlink="http://www.w3.org/1999/xlink">
<g id="graph0" class="graph" transform="scale(1 1) rotate(0) translate(4 1258.32)">
<title>Flow</title>
<polygon fill="white" stroke="none" points="-4,4 -4,-1258.32 1228.22,-1258.32 1228.22,4 -4,4"/>
<!-- RFC1522 -->
<g id="node1" class="node">
<title>RFC1522</title>
<g id="a_node1"><a xlink:title="This memo describes an extension to the message format defined in RFC 1521, to allow the representation of character sets other than ASCII in RFC 822 (STD 11) message headers. &#160;The extensions described were designed to be highly compatible with existing Internet mail handling software, and to be easily implemented in mail readers that support RFC 1521.">
<ellipse fill="none" stroke="black" cx="632.26" cy="-553.33" rx="163.52" ry="63.99"/>
<text xml:space="preserve" text-anchor="middle" x="632.26" y="-581.28" font-family="Times,serif" font-size="14.00">RFC1522</text>
<text xml:space="preserve" text-anchor="middle" x="632.26" y="-564.78" font-family="Times,serif" font-size="14.00">MIME (Multipurpose Internet Mail</text>
<text xml:space="preserve" text-anchor="middle" x="632.26" y="-548.28" font-family="Times,serif" font-size="14.00">Extensions) Part Two: Message Header</text>
<text xml:space="preserve" text-anchor="middle" x="632.26" y="-531.78" font-family="Times,serif" font-size="14.00">Extensions for Non&#45;ASCII Text</text>
<text xml:space="preserve" text-anchor="middle" x="632.26" y="-515.28" font-family="Times,serif" font-size="14.00">1993</text>
</a>
</g>
</g>
<!-- obs -->
<g id="node8" class="node">
<title>obs</title>
<polygon fill="none" stroke="black" points="887.03,-625.33 820.78,-625.33 820.78,-589.33 887.03,-589.33 887.03,-625.33"/>
<text xml:space="preserve" text-anchor="middle" x="853.9" y="-602.28" font-family="Times,serif" font-size="14.00">obsoletes</text>
</g>
<!-- RFC1522&#45;&gt;obs -->
<g id="edge7" class="edge">
<title>RFC1522&#45;&gt;obs</title>
<path fill="none" stroke="black" d="M771.43,-587.3C785.09,-590.65 798.13,-593.86 809.6,-596.68"/>
<polygon fill="black" stroke="black" points="808.51,-600.02 819.06,-599.01 810.19,-593.22 808.51,-600.02"/>
</g>
<!-- updates -->
<g id="node10" class="node">
<title>updates</title>
<polygon fill="none" stroke="black" points="882.53,-571.33 825.28,-571.33 825.28,-535.33 882.53,-535.33 882.53,-571.33"/>
<text xml:space="preserve" text-anchor="middle" x="853.9" y="-548.28" font-family="Times,serif" font-size="14.00">updates</text>
</g>
<!-- RFC1522&#45;&gt;updates -->
<g id="edge9" class="edge">
<title>RFC1522&#45;&gt;updates</title>
<path fill="none" stroke="black" d="M796.06,-553.33C802.22,-553.33 808.09,-553.33 813.56,-553.33"/>
<polygon fill="black" stroke="black" points="813.33,-556.83 823.33,-553.33 813.33,-549.83 813.33,-556.83"/>
</g>
<!-- cites -->
<g id="node12" class="node">
<title>cites</title>
<polygon fill="none" stroke="black" points="880.9,-517.33 826.9,-517.33 826.9,-481.33 880.9,-481.33 880.9,-517.33"/>
<text xml:space="preserve" text-anchor="middle" x="853.9" y="-494.28" font-family="Times,serif" font-size="14.00">cites</text>
</g>
<!-- RFC1522&#45;&gt;cites -->
<g id="edge11" class="edge">
<title>RFC1522&#45;&gt;cites</title>
<path fill="none" stroke="black" d="M771.43,-519.36C787.48,-515.41 802.67,-511.68 815.48,-508.53"/>
<polygon fill="black" stroke="black" points="816.19,-511.96 825.07,-506.17 814.52,-505.16 816.19,-511.96"/>
</g>
<!-- obs_by -->
<g id="node2" class="node">
<title>obs_by</title>
<polygon fill="none" stroke="black" points="443.74,-867.33 377.49,-867.33 377.49,-831.33 443.74,-831.33 443.74,-867.33"/>
<text xml:space="preserve" text-anchor="middle" x="410.62" y="-844.28" font-family="Times,serif" font-size="14.00">obsoletes</text>
</g>
<!-- obs_by&#45;&gt;RFC1522 -->
<g id="edge1" class="edge">
<title>obs_by&#45;&gt;RFC1522</title>
<path fill="none" stroke="black" d="M425.03,-831.26C454.89,-791.01 528.22,-692.19 578.87,-623.93"/>
<polygon fill="black" stroke="black" points="581.5,-626.26 584.65,-616.15 575.88,-622.09 581.5,-626.26"/>
</g>
<!-- RFC2045 -->
<g id="node3" class="node">
<title>RFC2045</title>
<g id="a_node3"><a xlink:href="RFC2045.html" xlink:title="This initial document specifies the various headers used to describe the structure of MIME messages. [STANDARDS&#45;TRACK]" target="_top">
<ellipse fill="none" stroke="black" cx="176.25" cy="-1190.33" rx="161.4" ry="63.99"/>
<text xml:space="preserve" text-anchor="middle" x="176.25" y="-1218.28" font-family="Times,serif" font-size="14.00">RFC2045</text>
<text xml:space="preserve" text-anchor="middle" x="176.25" y="-1201.78" font-family="Times,serif" font-size="14.00">Multipurpose Internet Mail Extensions</text>
<text xml:space="preserve" text-anchor="middle" x="176.25" y="-1185.28" font-family="Times,serif" font-size="14.00">(MIME) Part One: Format of Internet</text>
<text xml:space="preserve" text-anchor="middle" x="176.25" y="-1168.78" font-family="Times,serif" font-size="14.00">Message Bodies</text>
<text xml:space="preserve" text-anchor="middle" x="176.25" y="-1152.28" font-family="Times,serif" font-size="14.00">1996</text>
</a>
</g>
</g>
<!-- RFC2045&#45;&gt;obs_by -->
<g id="edge2" class="edge">
<title>RFC2045&#45;&gt;obs_by</title>
<path fill="none" stroke="black" d="M308.1,-1153.02C324.88,-1143.62 340.38,-1131.91 352.49,-1117.33 382.55,-1081.13 400.27,-940.86 406.76,-878.96"/>
<polygon fill="black" stroke="black" points="410.23,-879.49 407.76,-869.18 403.27,-878.78 410.23,-879.49"/>
</g>
<!-- RFC2046 -->
<g id="node4" class="node">
<title>RFC2046</title>
<g id="a_node4"><a xlink:href="RFC2046.html" xlink:title="This second document defines the general structure of the MIME media typing system and defines an initial set of media types. [STANDARDS&#45;TRACK]" target="_top">
<ellipse fill="none" stroke="black" cx="176.25" cy="-1056.33" rx="161.4" ry="52.33"/>
<text xml:space="preserve" text-anchor="middle" x="176.25" y="-1076.03" font-family="Times,serif" font-size="14.00">RFC2046</text>
<text xml:space="preserve" text-anchor="middle" x="176.25" y="-1059.53" font-family="Times,serif" font-size="14.00">Multipurpose Internet Mail Extensions</text>
<text xml:space="preserve" text-anchor="middle" x="176.25" y="-1043.03" font-family="Times,serif" font-size="14.00">(MIME) Part Two: Media Types</text>
<text xml:space="preserve" text-anchor="middle" x="176.25" y="-1026.53" font-family="Times,serif" font-size="14.00">1996</text>
</a>
</g>
</g>
<!-- RFC2046&#45;&gt;obs_by -->
<g id="edge3" class="edge">
<title>RFC2046&#45;&gt;obs_by</title>
<path fill="none" stroke="black" d="M307.65,-1025.5C324.08,-1017.62 339.61,-1007.73 352.49,-995.33 385.15,-963.89 399.49,-911.56 405.53,-878.83"/>
<polygon fill="black" stroke="black" points="408.94,-879.67 407.15,-869.23 402.03,-878.51 408.94,-879.67"/>
</g>
<!-- RFC2047 -->
<g id="node5" class="node">
<title>RFC2047</title>
<g id="a_node5"><a xlink:href="RFC2047.html" xlink:title="This particular document is the third document in the series. &#160;It describes extensions to RFC 822 to allow non&#45;US&#45;ASCII text data in Internet mail header fields. [STANDARDS&#45;TRACK]" target="_top">
<ellipse fill="none" stroke="black" cx="176.25" cy="-922.33" rx="168.29" ry="63.99"/>
<text xml:space="preserve" text-anchor="middle" x="176.25" y="-950.28" font-family="Times,serif" font-size="14.00">RFC2047</text>
<text xml:space="preserve" text-anchor="middle" x="176.25" y="-933.78" font-family="Times,serif" font-size="14.00">MIME (Multipurpose Internet Mail</text>
<text xml:space="preserve" text-anchor="middle" x="176.25" y="-917.28" font-family="Times,serif" font-size="14.00">Extensions) Part Three: Message Header</text>
<text xml:space="preserve" text-anchor="middle" x="176.25" y="-900.78" font-family="Times,serif" font-size="14.00">Extensions for Non&#45;ASCII Text</text>
<text xml:space="preserve" text-anchor="middle" x="176.25" y="-884.28" font-family="Times,serif" font-size="14.00">1996</text>
</a>
</g>
</g>
<!-- RFC2047&#45;&gt;obs_by -->
<g id="edge4" class="edge">
<title>RFC2047&#45;&gt;obs_by</title>
<path fill="none" stroke="black" d="M307.02,-881.56C328.51,-874.81 349.37,-868.25 366.61,-862.84"/>
<polygon fill="black" stroke="black" points="367.45,-866.24 375.94,-859.91 365.35,-859.56 367.45,-866.24"/>
</g>
<!-- RFC2048 -->
<g id="node6" class="node">
<title>RFC2048</title>
<g id="a_node6"><a xlink:href="RFC2048.html" xlink:title="This set of documents, collectively called the Multipurpose Internet Mail Extensions, or MIME, redefines the format of messages. &#160;This fourth document, RFC 2048, specifies various IANA registration procedures for some MIME facilities. &#160;This document specifies an Internet Best Current Practices for the Internet Community, and requests discussion and suggestions for improvements." target="_top">
<ellipse fill="none" stroke="black" cx="176.25" cy="-776.33" rx="161.4" ry="63.99"/>
<text xml:space="preserve" text-anchor="middle" x="176.25" y="-804.28" font-family="Times,serif" font-size="14.00">RFC2048</text>
<text xml:space="preserve" text-anchor="middle" x="176.25" y="-787.78" font-family="Times,serif" font-size="14.00">Multipurpose Internet Mail Extensions</text>
<text xml:space="preserve" text-anchor="middle" x="176.25" y="-771.28" font-family="Times,serif" font-size="14.00">(MIME) Part Four: Registration</text>
<text xml:space="preserve" text-anchor="middle" x="176.25" y="-754.78" font-family="Times,serif" font-size="14.00">Procedures</text>
<text xml:space="preserve" text-anchor="middle" x="176.25" y="-738.28" font-family="Times,serif" font-size="14.00">1996</text>
</a>
</g>
</g>
<!-- RFC2048&#45;&gt;obs_by -->
<g id="edge5" class="edge">
<title>RFC2048&#45;&gt;obs_by</title>
<path fill="none" stroke="black" d="M303.63,-816.03C326.09,-823.09 348.04,-829.98 366.08,-835.65"/>
<polygon fill="black" stroke="black" points="365.03,-838.99 375.62,-838.65 367.13,-832.31 365.03,-838.99"/>
</g>
<!-- RFC2049 -->
<g id="node7" class="node">
<title>RFC2049</title>
<g id="a_node7"><a xlink:href="RFC2049.html" xlink:title="This set of documents, collectively called the Multipurpose Internet Mail Extensions, or MIME, redefines the format of messages. &#160;This fifth and final document describes MIME conformance criteria as well as providing some illustrative examples of MIME message formats, acknowledgements, and the bibliography. [STANDARDS&#45;TRACK]" target="_top">
<ellipse fill="none" stroke="black" cx="176.25" cy="-630.33" rx="172" ry="63.99"/>
<text xml:space="preserve" text-anchor="middle" x="176.25" y="-658.28" font-family="Times,serif" font-size="14.00">RFC2049</text>
<text xml:space="preserve" text-anchor="middle" x="176.25" y="-641.78" font-family="Times,serif" font-size="14.00">Multipurpose Internet Mail Extensions</text>
<text xml:space="preserve" text-anchor="middle" x="176.25" y="-625.28" font-family="Times,serif" font-size="14.00">(MIME) Part Five: Conformance Criteria</text>
<text xml:space="preserve" text-anchor="middle" x="176.25" y="-608.78" font-family="Times,serif" font-size="14.00">and Examples</text>
<text xml:space="preserve" text-anchor="middle" x="176.25" y="-592.28" font-family="Times,serif" font-size="14.00">1996</text>
</a>
</g>
</g>
<!-- RFC2049&#45;&gt;obs_by -->
<g id="edge6" class="edge">
<title>RFC2049&#45;&gt;obs_by</title>
<path fill="none" stroke="black" d="M309.14,-671.19C325.05,-680 340.05,-690.6 352.49,-703.33 384.2,-735.73 398.83,-787.76 405.18,-820.17"/>
<polygon fill="black" stroke="black" points="401.67,-820.44 406.89,-829.66 408.56,-819.2 401.67,-820.44"/>
</g>
<!-- RFC1342 -->
<g id="node9" class="node">
<title>RFC1342</title>
<g id="a_node9"><a xlink:href="RFC1342.html" xlink:title="This memo describes an extension to the message format defined in [1] (known to the IETF Mail Extensions Working Group as RFC 1341), to allow the representation of character sets other than ASCII in RFC 822 message headers. [STANDARDS&#45;TRACK]" target="_top">
<ellipse fill="none" stroke="black" cx="1068.12" cy="-607.33" rx="156.09" ry="52.33"/>
<text xml:space="preserve" text-anchor="middle" x="1068.12" y="-627.03" font-family="Times,serif" font-size="14.00">RFC1342</text>
<text xml:space="preserve" text-anchor="middle" x="1068.12" y="-610.53" font-family="Times,serif" font-size="14.00">Representation of Non&#45;ASCII Text in</text>
<text xml:space="preserve" text-anchor="middle" x="1068.12" y="-594.03" font-family="Times,serif" font-size="14.00">Internet Message Headers</text>
<text xml:space="preserve" text-anchor="middle" x="1068.12" y="-577.53" font-family="Times,serif" font-size="14.00">1992</text>
</a>
</g>
</g>
<!-- obs&#45;&gt;RFC1342 -->
<g id="edge8" class="edge">
<title>obs&#45;&gt;RFC1342</title>
<path fill="none" stroke="black" d="M887.14,-607.33C891.31,-607.33 895.79,-607.33 900.5,-607.33"/>
<polygon fill="black" stroke="black" points="900.4,-610.83 910.4,-607.33 900.4,-603.83 900.4,-610.83"/>
</g>
<!-- updated_by -->
<g id="node11" class="node">
<title>updated_by</title>
<polygon fill="none" stroke="black" points="439.24,-571.33 381.99,-571.33 381.99,-535.33 439.24,-535.33 439.24,-571.33"/>
<text xml:space="preserve" text-anchor="middle" x="410.62" y="-548.28" font-family="Times,serif" font-size="14.00">updates</text>
</g>
<!-- updated_by&#45;&gt;RFC1522 -->
<g id="edge10" class="edge">
<title>updated_by&#45;&gt;RFC1522</title>
<path fill="none" stroke="black" d="M439.44,-553.33C444.83,-553.33 450.85,-553.33 457.32,-553.33"/>
<polygon fill="black" stroke="black" points="457.09,-556.83 467.09,-553.33 457.09,-549.83 457.09,-556.83"/>
</g>
<!-- rev_cites -->
<g id="node13" class="node">
<title>rev_cites</title>
<polygon fill="none" stroke="black" points="437.62,-348.33 383.62,-348.33 383.62,-312.33 437.62,-312.33 437.62,-348.33"/>
<text xml:space="preserve" text-anchor="middle" x="410.62" y="-325.28" font-family="Times,serif" font-size="14.00">cites</text>
</g>
<!-- rev_cites&#45;&gt;RFC1522 -->
<g id="edge12" class="edge">
<title>rev_cites&#45;&gt;RFC1522</title>
<path fill="none" stroke="black" d="M429.59,-348.57C458.74,-378.17 517.78,-438.11 564.48,-485.52"/>
<polygon fill="black" stroke="black" points="561.88,-487.87 571.39,-492.54 566.87,-482.96 561.88,-487.87"/>
</g>
<!-- RFC1555 -->
<g id="node14" class="node">
<title>RFC1555</title>
<g id="a_node14"><a xlink:href="RFC1555.html" xlink:title="This document describes the encoding used in electronic mail [RFC822] for transferring Hebrew. &#160;The standard devised makes use of MIME [RFC1521] and ISO&#45;8859&#45;8. &#160;This memo provides information for the Internet community. &#160;This memo does not specify an Internet standard of any kind." target="_top">
<ellipse fill="none" stroke="black" cx="176.25" cy="-496.33" rx="166.7" ry="52.33"/>
<text xml:space="preserve" text-anchor="middle" x="176.25" y="-516.03" font-family="Times,serif" font-size="14.00">RFC1555</text>
<text xml:space="preserve" text-anchor="middle" x="176.25" y="-499.53" font-family="Times,serif" font-size="14.00">Hebrew Character Encoding for Internet</text>
<text xml:space="preserve" text-anchor="middle" x="176.25" y="-483.03" font-family="Times,serif" font-size="14.00">Messages</text>
<text xml:space="preserve" text-anchor="middle" x="176.25" y="-466.53" font-family="Times,serif" font-size="14.00">1993</text>
</a>
</g>
</g>
<!-- RFC1555&#45;&gt;rev_cites -->
<g id="edge13" class="edge">
<title>RFC1555&#45;&gt;rev_cites</title>
<path fill="none" stroke="black" d="M307.17,-463.56C323.48,-455.98 339.11,-446.69 352.49,-435.33 376.15,-415.25 391.66,-382.8 400.47,-359.28"/>
<polygon fill="black" stroke="black" points="403.73,-360.57 403.76,-349.98 397.13,-358.24 403.73,-360.57"/>
</g>
<!-- RFC1556 -->
<g id="node15" class="node">
<title>RFC1556</title>
<g id="a_node15"><a xlink:href="RFC1556.html" xlink:title="This document describes the format and syntax of the direction keyword to be used with bi&#45;directional texts in MIME. &#160;This memo provides information for the Internet community. &#160;This memo does not specify an Internet standard of any kind." target="_top">
<ellipse fill="none" stroke="black" cx="176.25" cy="-385.33" rx="176.25" ry="40.66"/>
<text xml:space="preserve" text-anchor="middle" x="176.25" y="-396.78" font-family="Times,serif" font-size="14.00">RFC1556</text>
<text xml:space="preserve" text-anchor="middle" x="176.25" y="-380.28" font-family="Times,serif" font-size="14.00">Handling of Bi&#45;directional Texts in MIME</text>
<text xml:space="preserve" text-anchor="middle" x="176.25" y="-363.78" font-family="Times,serif" font-size="14.00">1993</text>
</a>
</g>
</g>
<!-- RFC1556&#45;&gt;rev_cites -->
<g id="edge14" class="edge">
<title>RFC1556&#45;&gt;rev_cites</title>
<path fill="none" stroke="black" d="M300.58,-356.13C326.73,-349.95 352.4,-343.87 372.25,-339.17"/>
<polygon fill="black" stroke="black" points="372.83,-342.63 381.76,-336.92 371.22,-335.82 372.83,-342.63"/>
</g>
<!-- RFC1815 -->
<g id="node16" class="node">
<title>RFC1815</title>
<g id="a_node16"><a xlink:href="RFC1815.html" xlink:title="For the practical use of ISO 10646, a lot of external profiling such as restriction of characters, restriction of combination of characters and addition of language information is necessary. &#160;This memo provides information on such profiling, along with charset names to each profiled instance. &#160;This memo provides information for the Internet community. &#160;This memo does not specify an Internet standard of any kind." target="_top">
<ellipse fill="none" stroke="black" cx="176.25" cy="-274.33" rx="128.52" ry="52.33"/>
<text xml:space="preserve" text-anchor="middle" x="176.25" y="-294.03" font-family="Times,serif" font-size="14.00">RFC1815</text>
<text xml:space="preserve" text-anchor="middle" x="176.25" y="-277.53" font-family="Times,serif" font-size="14.00">Character Sets ISO&#45;10646 and</text>
<text xml:space="preserve" text-anchor="middle" x="176.25" y="-261.03" font-family="Times,serif" font-size="14.00">ISO&#45;10646&#45;J&#45;1</text>
<text xml:space="preserve" text-anchor="middle" x="176.25" y="-244.53" font-family="Times,serif" font-size="14.00">1995</text>
</a>
</g>
</g>
<!-- RFC1815&#45;&gt;rev_cites -->
<g id="edge15" class="edge">
<title>RFC1815&#45;&gt;rev_cites</title>
<path fill="none" stroke="black" d="M287.65,-300.93C318.1,-308.27 349.09,-315.74 372.21,-321.31"/>
<polygon fill="black" stroke="black" points="371.2,-324.67 381.74,-323.61 372.84,-317.86 371.2,-324.67"/>
</g>
<!-- RFC1867 -->
<g id="node17" class="node">
<title>RFC1867</title>
<g id="a_node17"><a xlink:href="RFC1867.html" xlink:title="Since file&#45;upload is a feature that will benefit many applications, this proposes an extension to HTML to allow information providers to express file upload requests uniformly, and a MIME compatible representation for file upload responses. &#160;This memo defines an Experimental Protocol for the Internet community." target="_top">
<ellipse fill="none" stroke="black" cx="176.25" cy="-163.33" rx="146.02" ry="40.66"/>
<text xml:space="preserve" text-anchor="middle" x="176.25" y="-174.78" font-family="Times,serif" font-size="14.00">RFC1867</text>
<text xml:space="preserve" text-anchor="middle" x="176.25" y="-158.28" font-family="Times,serif" font-size="14.00">Form&#45;based File Upload in HTML</text>
<text xml:space="preserve" text-anchor="middle" x="176.25" y="-141.78" font-family="Times,serif" font-size="14.00">1995</text>
</a>
</g>
</g>
<!-- RFC1867&#45;&gt;rev_cites -->
<g id="edge16" class="edge">
<title>RFC1867&#45;&gt;rev_cites</title>
<path fill="none" stroke="black" d="M301.63,-184.59C320,-191.61 337.7,-200.93 352.49,-213.33 379.51,-235.96 394.81,-274.43 402.64,-301.04"/>
<polygon fill="black" stroke="black" points="399.22,-301.81 405.24,-310.53 405.97,-299.96 399.22,-301.81"/>
</g>
<!-- RFC1947 -->
<g id="node18" class="node">
<title>RFC1947</title>
<g id="a_node18"><a xlink:href="RFC1947.html" xlink:title="This document describes a standard encoding for electronic mail [RFC822] containing Greek text and provides implementation guide&#45;lines. &#160;This memo provides information for the Internet community. &#160;This memo does not specify an Internet standard of any kind." target="_top">
<ellipse fill="none" stroke="black" cx="176.25" cy="-52.33" rx="169.35" ry="52.33"/>
<text xml:space="preserve" text-anchor="middle" x="176.25" y="-72.03" font-family="Times,serif" font-size="14.00">RFC1947</text>
<text xml:space="preserve" text-anchor="middle" x="176.25" y="-55.53" font-family="Times,serif" font-size="14.00">Greek Character Encoding for Electronic</text>
<text xml:space="preserve" text-anchor="middle" x="176.25" y="-39.03" font-family="Times,serif" font-size="14.00">Mail Messages</text>
<text xml:space="preserve" text-anchor="middle" x="176.25" y="-22.53" font-family="Times,serif" font-size="14.00">1996</text>
</a>
</g>
</g>
<!-- RFC1947&#45;&gt;rev_cites -->
<g id="edge17" class="edge">
<title>RFC1947&#45;&gt;rev_cites</title>
<path fill="none" stroke="black" d="M312.5,-83.6C327.4,-91.4 341.22,-101.15 352.49,-113.33 401.07,-165.82 409.35,-254.63 410.15,-300.67"/>
<polygon fill="black" stroke="black" points="406.65,-300.43 410.2,-310.41 413.65,-300.4 406.65,-300.43"/>
</g>
</g>
</svg>
