<?xml version="1.0" encoding="UTF-8" standalone="no"?>
<!DOCTYPE svg PUBLIC "-//W3C//DTD SVG 1.1//EN"
 "http://www.w3.org/Graphics/SVG/1.1/DTD/svg11.dtd">
<!-- Generated by graphviz version 14.1.1 (20251213.1925)
 -->
<!-- Title: Flow Pages: 1 -->
<svg width="331pt" height="152pt"
 viewBox="0.00 0.00 331.00 152.00" xmlns="http://www.w3.org/2000/svg" xmlns:xlink="http://www.w3.org/1999/xlink">
<g id="graph0" class="graph" transform="scale(1 1) rotate(0) translate(4 148)">
<title>Flow</title>
<polygon fill="white" stroke="none" points="-4,4 -4,-148 326.86,-148 326.86,4 -4,4"/>
<!-- RFC1090 -->
<g id="node1" class="node">
<title>RFC1090</title>
<g id="a_node1"><a xlink:title="This memo proposes a standard for SMTP on the virtual circuit facility provided by the X.25 standard of the CCITT.">
<ellipse fill="none" stroke="black" cx="161.43" cy="-72" rx="70.18" ry="40.66"/>
<text xml:space="preserve" text-anchor="middle" x="161.43" y="-83.45" font-family="Times,serif" font-size="14.00">RFC1090</text>
<text xml:space="preserve" text-anchor="middle" x="161.43" y="-66.95" font-family="Times,serif" font-size="14.00">SMTP on X.25</text>
<text xml:space="preserve" text-anchor="middle" x="161.43" y="-50.45" font-family="Times,serif" font-size="14.00">1989</text>
</a>
</g>
</g>
<!-- obs -->
<g id="node3" class="node">
<title>obs</title>
<polygon fill="none" stroke="black" points="322.86,-144 256.61,-144 256.61,-108 322.86,-108 322.86,-144"/>
<text xml:space="preserve" text-anchor="middle" x="289.74" y="-120.95" font-family="Times,serif" font-size="14.00">obsoletes</text>
</g>
<!-- RFC1090&#45;&gt;obs -->
<g id="edge2" class="edge">
<title>RFC1090&#45;&gt;obs</title>
<path fill="none" stroke="black" d="M218.57,-96C227.75,-99.92 237.13,-103.94 245.92,-107.69"/>
<polygon fill="black" stroke="black" points="244.34,-110.82 254.91,-111.54 247.09,-104.39 244.34,-110.82"/>
</g>
<!-- updates -->
<g id="node4" class="node">
<title>updates</title>
<polygon fill="none" stroke="black" points="318.36,-90 261.11,-90 261.11,-54 318.36,-54 318.36,-90"/>
<text xml:space="preserve" text-anchor="middle" x="289.74" y="-66.95" font-family="Times,serif" font-size="14.00">updates</text>
</g>
<!-- RFC1090&#45;&gt;updates -->
<g id="edge3" class="edge">
<title>RFC1090&#45;&gt;updates</title>
<path fill="none" stroke="black" d="M231.86,-72C237.92,-72 243.9,-72 249.58,-72"/>
<polygon fill="black" stroke="black" points="249.22,-75.5 259.22,-72 249.22,-68.5 249.22,-75.5"/>
</g>
<!-- cites -->
<g id="node6" class="node">
<title>cites</title>
<polygon fill="none" stroke="black" points="316.74,-36 262.74,-36 262.74,0 316.74,0 316.74,-36"/>
<text xml:space="preserve" text-anchor="middle" x="289.74" y="-12.95" font-family="Times,serif" font-size="14.00">cites</text>
</g>
<!-- RFC1090&#45;&gt;cites -->
<g id="edge5" class="edge">
<title>RFC1090&#45;&gt;cites</title>
<path fill="none" stroke="black" d="M218.57,-48C229.91,-43.15 241.56,-38.17 252.03,-33.69"/>
<polygon fill="black" stroke="black" points="253.23,-36.98 261.05,-29.84 250.48,-30.55 253.23,-36.98"/>
</g>
<!-- obs_by -->
<g id="node2" class="node">
<title>obs_by</title>
<polygon fill="none" stroke="black" points="66.25,-144 0,-144 0,-108 66.25,-108 66.25,-144"/>
<text xml:space="preserve" text-anchor="middle" x="33.12" y="-120.95" font-family="Times,serif" font-size="14.00">obsoletes</text>
</g>
<!-- obs_by&#45;&gt;RFC1090 -->
<g id="edge1" class="edge">
<title>obs_by&#45;&gt;RFC1090</title>
<path fill="none" stroke="black" d="M66.65,-112.09C75.13,-108.47 84.59,-104.43 94.14,-100.34"/>
<polygon fill="black" stroke="black" points="95.28,-103.66 103.1,-96.51 92.53,-97.22 95.28,-103.66"/>
</g>
<!-- updated_by -->
<g id="node5" class="node">
<title>updated_by</title>
<polygon fill="none" stroke="black" points="61.75,-90 4.5,-90 4.5,-54 61.75,-54 61.75,-90"/>
<text xml:space="preserve" text-anchor="middle" x="33.12" y="-66.95" font-family="Times,serif" font-size="14.00">updates</text>
</g>
<!-- updated_by&#45;&gt;RFC1090 -->
<g id="edge4" class="edge">
<title>updated_by&#45;&gt;RFC1090</title>
<path fill="none" stroke="black" d="M62.16,-72C67.56,-72 73.47,-72 79.62,-72"/>
<polygon fill="black" stroke="black" points="79.39,-75.5 89.39,-72 79.39,-68.5 79.39,-75.5"/>
</g>
<!-- rev_cites -->
<g id="node7" class="node">
<title>rev_cites</title>
<polygon fill="none" stroke="black" points="60.12,-36 6.12,-36 6.12,0 60.12,0 60.12,-36"/>
<text xml:space="preserve" text-anchor="middle" x="33.12" y="-12.95" font-family="Times,serif" font-size="14.00">cites</text>
</g>
<!-- rev_cites&#45;&gt;RFC1090 -->
<g id="edge6" class="edge">
<title>rev_cites&#45;&gt;RFC1090</title>
<path fill="none" stroke="black" d="M60.6,-29.32C70.45,-33.53 82.12,-38.52 93.94,-43.57"/>
<polygon fill="black" stroke="black" points="92.37,-46.71 102.94,-47.42 95.12,-40.27 92.37,-46.71"/>
</g>
</g>
</svg>
