<?xml version="1.0" encoding="UTF-8" standalone="no"?>
<!DOCTYPE svg PUBLIC "-//W3C//DTD SVG 1.1//EN"
 "http://www.w3.org/Graphics/SVG/1.1/DTD/svg11.dtd">
<!-- Generated by graphviz version 14.1.1 (20251213.1925)
 -->
<!-- Title: Flow Pages: 1 -->
<svg width="836pt" height="197pt"
 viewBox="0.00 0.00 836.00 197.00" xmlns="http://www.w3.org/2000/svg" xmlns:xlink="http://www.w3.org/1999/xlink">
<g id="graph0" class="graph" transform="scale(1 1) rotate(0) translate(4 193.32)">
<title>Flow</title>
<polygon fill="white" stroke="none" points="-4,4 -4,-193.32 831.63,-193.32 831.63,4 -4,4"/>
<!-- RFC1357 -->
<g id="node1" class="node">
<title>RFC1357</title>
<g id="a_node1"><a xlink:title="This memo defines a format for E&#45;mailing bibliographic records of technical reports. &#160;It is intended to accelerate the dissemination of information about new Computer Science Technical Reports (CS&#45;TR). &#160;This memo provides information for the Internet community. &#160;It does not specify an Internet standard.">
<ellipse fill="none" stroke="black" cx="577.64" cy="-94.66" rx="158.75" ry="52.33"/>
<text xml:space="preserve" text-anchor="middle" x="577.64" y="-114.36" font-family="Times,serif" font-size="14.00">RFC1357</text>
<text xml:space="preserve" text-anchor="middle" x="577.64" y="-97.86" font-family="Times,serif" font-size="14.00">A Format for E&#45;mailing Bibliographic</text>
<text xml:space="preserve" text-anchor="middle" x="577.64" y="-81.36" font-family="Times,serif" font-size="14.00">Records</text>
<text xml:space="preserve" text-anchor="middle" x="577.64" y="-64.86" font-family="Times,serif" font-size="14.00">1992</text>
</a>
</g>
</g>
<!-- obs -->
<g id="node4" class="node">
<title>obs</title>
<polygon fill="none" stroke="black" points="827.63,-166.66 761.38,-166.66 761.38,-130.66 827.63,-130.66 827.63,-166.66"/>
<text xml:space="preserve" text-anchor="middle" x="794.51" y="-143.61" font-family="Times,serif" font-size="14.00">obsoletes</text>
</g>
<!-- RFC1357&#45;&gt;obs -->
<g id="edge3" class="edge">
<title>RFC1357&#45;&gt;obs</title>
<path fill="none" stroke="black" d="M704.87,-126.38C721.14,-130.47 736.82,-134.41 750.35,-137.81"/>
<polygon fill="black" stroke="black" points="749.15,-141.12 759.7,-140.16 750.86,-134.33 749.15,-141.12"/>
</g>
<!-- updates -->
<g id="node5" class="node">
<title>updates</title>
<polygon fill="none" stroke="black" points="823.13,-112.66 765.88,-112.66 765.88,-76.66 823.13,-76.66 823.13,-112.66"/>
<text xml:space="preserve" text-anchor="middle" x="794.51" y="-89.61" font-family="Times,serif" font-size="14.00">updates</text>
</g>
<!-- RFC1357&#45;&gt;updates -->
<g id="edge4" class="edge">
<title>RFC1357&#45;&gt;updates</title>
<path fill="none" stroke="black" d="M736.77,-94.66C742.91,-94.66 748.76,-94.66 754.21,-94.66"/>
<polygon fill="black" stroke="black" points="753.95,-98.16 763.95,-94.66 753.95,-91.16 753.95,-98.16"/>
</g>
<!-- cites -->
<g id="node7" class="node">
<title>cites</title>
<polygon fill="none" stroke="black" points="821.51,-58.66 767.51,-58.66 767.51,-22.66 821.51,-22.66 821.51,-58.66"/>
<text xml:space="preserve" text-anchor="middle" x="794.51" y="-35.61" font-family="Times,serif" font-size="14.00">cites</text>
</g>
<!-- RFC1357&#45;&gt;cites -->
<g id="edge6" class="edge">
<title>RFC1357&#45;&gt;cites</title>
<path fill="none" stroke="black" d="M704.87,-62.93C723.47,-58.26 741.29,-53.78 756.01,-50.08"/>
<polygon fill="black" stroke="black" points="756.8,-53.49 765.64,-47.66 755.09,-46.7 756.8,-53.49"/>
</g>
<!-- obs_by -->
<g id="node2" class="node">
<title>obs_by</title>
<polygon fill="none" stroke="black" points="393.89,-166.66 327.64,-166.66 327.64,-130.66 393.89,-130.66 393.89,-166.66"/>
<text xml:space="preserve" text-anchor="middle" x="360.77" y="-143.61" font-family="Times,serif" font-size="14.00">obsoletes</text>
</g>
<!-- obs_by&#45;&gt;RFC1357 -->
<g id="edge1" class="edge">
<title>obs_by&#45;&gt;RFC1357</title>
<path fill="none" stroke="black" d="M393.93,-140.57C406.93,-137.31 422.87,-133.3 439.87,-129.03"/>
<polygon fill="black" stroke="black" points="440.27,-132.54 449.11,-126.71 438.56,-125.75 440.27,-132.54"/>
</g>
<!-- RFC1807 -->
<g id="node3" class="node">
<title>RFC1807</title>
<g id="a_node3"><a xlink:href="RFC1807.html" xlink:title="This RFC defines a format for bibliographic records describing technical reports. &#160;This memo provides information for the Internet community. &#160;This memo does not specify an Internet standard of any kind." target="_top">
<ellipse fill="none" stroke="black" cx="151.32" cy="-148.66" rx="151.32" ry="40.66"/>
<text xml:space="preserve" text-anchor="middle" x="151.32" y="-160.11" font-family="Times,serif" font-size="14.00">RFC1807</text>
<text xml:space="preserve" text-anchor="middle" x="151.32" y="-143.61" font-family="Times,serif" font-size="14.00">A Format for Bibliographic Records</text>
<text xml:space="preserve" text-anchor="middle" x="151.32" y="-127.11" font-family="Times,serif" font-size="14.00">1995</text>
</a>
</g>
</g>
<!-- RFC1807&#45;&gt;obs_by -->
<g id="edge2" class="edge">
<title>RFC1807&#45;&gt;obs_by</title>
<path fill="none" stroke="black" d="M303.08,-148.66C307.62,-148.66 312,-148.66 316.19,-148.66"/>
<polygon fill="black" stroke="black" points="315.9,-152.16 325.9,-148.66 315.9,-145.16 315.9,-152.16"/>
</g>
<!-- updated_by -->
<g id="node6" class="node">
<title>updated_by</title>
<polygon fill="none" stroke="black" points="389.39,-112.66 332.14,-112.66 332.14,-76.66 389.39,-76.66 389.39,-112.66"/>
<text xml:space="preserve" text-anchor="middle" x="360.77" y="-89.61" font-family="Times,serif" font-size="14.00">updates</text>
</g>
<!-- updated_by&#45;&gt;RFC1357 -->
<g id="edge5" class="edge">
<title>updated_by&#45;&gt;RFC1357</title>
<path fill="none" stroke="black" d="M389.86,-94.66C395.18,-94.66 401.08,-94.66 407.42,-94.66"/>
<polygon fill="black" stroke="black" points="406.97,-98.16 416.97,-94.66 406.97,-91.16 406.97,-98.16"/>
</g>
<!-- rev_cites -->
<g id="node8" class="node">
<title>rev_cites</title>
<polygon fill="none" stroke="black" points="387.77,-58.66 333.77,-58.66 333.77,-22.66 387.77,-22.66 387.77,-58.66"/>
<text xml:space="preserve" text-anchor="middle" x="360.77" y="-35.61" font-family="Times,serif" font-size="14.00">cites</text>
</g>
<!-- rev_cites&#45;&gt;RFC1357 -->
<g id="edge7" class="edge">
<title>rev_cites&#45;&gt;RFC1357</title>
<path fill="none" stroke="black" d="M388.11,-47.28C401.92,-50.75 419.99,-55.29 439.49,-60.19"/>
<polygon fill="black" stroke="black" points="438.42,-63.53 448.97,-62.58 440.13,-56.74 438.42,-63.53"/>
</g>
<!-- RFC1700 -->
<g id="node9" class="node">
<title>RFC1700</title>
<g id="a_node9"><a xlink:href="RFC1700.html" xlink:title="This RFC is a snapshot of the ongoing process of the assignment of protocol parameters for the Internet protocol suite. &#160;To make the current information readily available the assignments are kept up&#45;to&#45; date in a set of online text files. &#160;This memo is a status report on the parameters (i.e., numbers and keywords) used in protocols in the Internet community." target="_top">
<ellipse fill="none" stroke="black" cx="151.32" cy="-40.66" rx="85.03" ry="40.66"/>
<text xml:space="preserve" text-anchor="middle" x="151.32" y="-52.11" font-family="Times,serif" font-size="14.00">RFC1700</text>
<text xml:space="preserve" text-anchor="middle" x="151.32" y="-35.61" font-family="Times,serif" font-size="14.00">Assigned Numbers</text>
<text xml:space="preserve" text-anchor="middle" x="151.32" y="-19.11" font-family="Times,serif" font-size="14.00">1994</text>
</a>
</g>
</g>
<!-- RFC1700&#45;&gt;rev_cites -->
<g id="edge8" class="edge">
<title>RFC1700&#45;&gt;rev_cites</title>
<path fill="none" stroke="black" d="M236.7,-40.66C266.44,-40.66 298.39,-40.66 322.28,-40.66"/>
<polygon fill="black" stroke="black" points="322.14,-44.16 332.14,-40.66 322.14,-37.16 322.14,-44.16"/>
</g>
</g>
</svg>
