<?xml version="1.0" encoding="UTF-8" standalone="no"?>
<!DOCTYPE svg PUBLIC "-//W3C//DTD SVG 1.1//EN"
 "http://www.w3.org/Graphics/SVG/1.1/DTD/svg11.dtd">
<!-- Generated by graphviz version 14.1.1 (20251213.1925)
 -->
<!-- Title: Flow Pages: 1 -->
<svg width="807pt" height="186pt"
 viewBox="0.00 0.00 807.00 186.00" xmlns="http://www.w3.org/2000/svg" xmlns:xlink="http://www.w3.org/1999/xlink">
<g id="graph0" class="graph" transform="scale(1 1) rotate(0) translate(4 182.33)">
<title>Flow</title>
<polygon fill="white" stroke="none" points="-4,4 -4,-182.33 802.99,-182.33 802.99,4 -4,4"/>
<!-- RFC1102 -->
<g id="node1" class="node">
<title>RFC1102</title>
<g id="a_node1"><a xlink:title="The purpose of this RFC is to focus discussion on particular problems in the Internet and possible methods of solution. &#160;No proposed solutions in this document are intended as standards for the Internet.">
<ellipse fill="none" stroke="black" cx="561.2" cy="-106.33" rx="146.55" ry="40.66"/>
<text xml:space="preserve" text-anchor="middle" x="561.2" y="-117.78" font-family="Times,serif" font-size="14.00">RFC1102</text>
<text xml:space="preserve" text-anchor="middle" x="561.2" y="-101.28" font-family="Times,serif" font-size="14.00">Policy routing in Internet protocols</text>
<text xml:space="preserve" text-anchor="middle" x="561.2" y="-84.78" font-family="Times,serif" font-size="14.00">1989</text>
</a>
</g>
</g>
<!-- obs -->
<g id="node3" class="node">
<title>obs</title>
<polygon fill="none" stroke="black" points="798.99,-178.33 732.74,-178.33 732.74,-142.33 798.99,-142.33 798.99,-178.33"/>
<text xml:space="preserve" text-anchor="middle" x="765.87" y="-155.28" font-family="Times,serif" font-size="14.00">obsoletes</text>
</g>
<!-- RFC1102&#45;&gt;obs -->
<g id="edge2" class="edge">
<title>RFC1102&#45;&gt;obs</title>
<path fill="none" stroke="black" d="M667.99,-134.51C686.83,-139.53 705.47,-144.5 721.29,-148.71"/>
<polygon fill="black" stroke="black" points="720.25,-152.06 730.81,-151.25 722.05,-145.29 720.25,-152.06"/>
</g>
<!-- updates -->
<g id="node4" class="node">
<title>updates</title>
<polygon fill="none" stroke="black" points="794.49,-124.33 737.24,-124.33 737.24,-88.33 794.49,-88.33 794.49,-124.33"/>
<text xml:space="preserve" text-anchor="middle" x="765.87" y="-101.28" font-family="Times,serif" font-size="14.00">updates</text>
</g>
<!-- RFC1102&#45;&gt;updates -->
<g id="edge3" class="edge">
<title>RFC1102&#45;&gt;updates</title>
<path fill="none" stroke="black" d="M708.14,-106.33C714.3,-106.33 720.19,-106.33 725.68,-106.33"/>
<polygon fill="black" stroke="black" points="725.5,-109.83 735.5,-106.33 725.5,-102.83 725.5,-109.83"/>
</g>
<!-- cites -->
<g id="node6" class="node">
<title>cites</title>
<polygon fill="none" stroke="black" points="792.87,-70.33 738.87,-70.33 738.87,-34.33 792.87,-34.33 792.87,-70.33"/>
<text xml:space="preserve" text-anchor="middle" x="765.87" y="-47.28" font-family="Times,serif" font-size="14.00">cites</text>
</g>
<!-- RFC1102&#45;&gt;cites -->
<g id="edge5" class="edge">
<title>RFC1102&#45;&gt;cites</title>
<path fill="none" stroke="black" d="M667.99,-78.14C689.35,-72.45 710.46,-66.82 727.48,-62.29"/>
<polygon fill="black" stroke="black" points="728.35,-65.68 737.11,-59.72 726.55,-58.91 728.35,-65.68"/>
</g>
<!-- obs_by -->
<g id="node2" class="node">
<title>obs_by</title>
<polygon fill="none" stroke="black" points="389.65,-178.33 323.4,-178.33 323.4,-142.33 389.65,-142.33 389.65,-178.33"/>
<text xml:space="preserve" text-anchor="middle" x="356.52" y="-155.28" font-family="Times,serif" font-size="14.00">obsoletes</text>
</g>
<!-- obs_by&#45;&gt;RFC1102 -->
<g id="edge1" class="edge">
<title>obs_by&#45;&gt;RFC1102</title>
<path fill="none" stroke="black" d="M390.09,-151.65C405.1,-147.65 423.92,-142.63 443.53,-137.41"/>
<polygon fill="black" stroke="black" points="444.26,-140.84 453.02,-134.88 442.46,-134.07 444.26,-140.84"/>
</g>
<!-- updated_by -->
<g id="node5" class="node">
<title>updated_by</title>
<polygon fill="none" stroke="black" points="385.15,-124.33 327.9,-124.33 327.9,-88.33 385.15,-88.33 385.15,-124.33"/>
<text xml:space="preserve" text-anchor="middle" x="356.52" y="-101.28" font-family="Times,serif" font-size="14.00">updates</text>
</g>
<!-- updated_by&#45;&gt;RFC1102 -->
<g id="edge4" class="edge">
<title>updated_by&#45;&gt;RFC1102</title>
<path fill="none" stroke="black" d="M385.28,-106.33C390.7,-106.33 396.72,-106.33 403.19,-106.33"/>
<polygon fill="black" stroke="black" points="402.94,-109.83 412.94,-106.33 402.94,-102.83 402.94,-109.83"/>
</g>
<!-- rev_cites -->
<g id="node7" class="node">
<title>rev_cites</title>
<polygon fill="none" stroke="black" points="383.52,-70.33 329.52,-70.33 329.52,-34.33 383.52,-34.33 383.52,-70.33"/>
<text xml:space="preserve" text-anchor="middle" x="356.52" y="-47.28" font-family="Times,serif" font-size="14.00">cites</text>
</g>
<!-- rev_cites&#45;&gt;RFC1102 -->
<g id="edge6" class="edge">
<title>rev_cites&#45;&gt;RFC1102</title>
<path fill="none" stroke="black" d="M384.02,-59.39C399.79,-63.59 421.02,-69.24 443.28,-75.17"/>
<polygon fill="black" stroke="black" points="442.24,-78.52 452.8,-77.71 444.04,-71.76 442.24,-78.52"/>
</g>
<!-- RFC9522 -->
<g id="node8" class="node">
<title>RFC9522</title>
<g id="a_node8"><a xlink:href="RFC9522.html" xlink:title="This document describes the principles of traffic engineering (TE) in the Internet. The document is intended to promote better understanding of the issues surrounding traffic engineering in IP networks and the networks that support IP networking and to provide a common basis for the development of traffic&#45;engineering capabilities for the Internet. The principles, architectures, and methodologies for performance evaluation and performance optimization of operational networks are also discussed. This work was first published as RFC 3272 in May 2002. This document obsoletes RFC 3272 by making a complete update to bring the text in line with best current practices for Internet traffic engineering and to include references to the latest relevant work in the IETF." target="_top">
<ellipse fill="none" stroke="black" cx="149.2" cy="-52.33" rx="149.2" ry="52.33"/>
<text xml:space="preserve" text-anchor="middle" x="149.2" y="-72.03" font-family="Times,serif" font-size="14.00">RFC9522</text>
<text xml:space="preserve" text-anchor="middle" x="149.2" y="-55.53" font-family="Times,serif" font-size="14.00">Overview and Principles of Internet</text>
<text xml:space="preserve" text-anchor="middle" x="149.2" y="-39.03" font-family="Times,serif" font-size="14.00">Traffic Engineering</text>
<text xml:space="preserve" text-anchor="middle" x="149.2" y="-22.53" font-family="Times,serif" font-size="14.00">2024</text>
</a>
</g>
</g>
<!-- RFC9522&#45;&gt;rev_cites -->
<g id="edge7" class="edge">
<title>RFC9522&#45;&gt;rev_cites</title>
<path fill="none" stroke="black" d="M298.87,-52.33C305.58,-52.33 311.95,-52.33 317.84,-52.33"/>
<polygon fill="black" stroke="black" points="317.68,-55.83 327.68,-52.33 317.68,-48.83 317.68,-55.83"/>
</g>
</g>
</svg>
