<?xml version="1.0" encoding="UTF-8" standalone="no"?>
<!DOCTYPE svg PUBLIC "-//W3C//DTD SVG 1.1//EN"
 "http://www.w3.org/Graphics/SVG/1.1/DTD/svg11.dtd">
<!-- Generated by graphviz version 14.1.1 (20251213.1925)
 -->
<!-- Title: Flow Pages: 1 -->
<svg width="907pt" height="186pt"
 viewBox="0.00 0.00 907.00 186.00" xmlns="http://www.w3.org/2000/svg" xmlns:xlink="http://www.w3.org/1999/xlink">
<g id="graph0" class="graph" transform="scale(1 1) rotate(0) translate(4 182.33)">
<title>Flow</title>
<polygon fill="white" stroke="none" points="-4,4 -4,-182.33 902.7,-182.33 902.7,4 -4,4"/>
<!-- RFC1729 -->
<g id="node1" class="node">
<title>RFC1729</title>
<g id="a_node1"><a xlink:title="This memo describes an approach to the implementation of the ANSI/NISO Z39.50&#45;1992 Standard for Information Retrieval in the TCP/IP environment which is currently in wide use by the Z39.50 implementor community. &#160;This memo provides information for the Internet community. &#160;This memo does not specify an Internet standard of any kind.">
<ellipse fill="none" stroke="black" cx="642.34" cy="-106.33" rx="165.11" ry="52.33"/>
<text xml:space="preserve" text-anchor="middle" x="642.34" y="-126.03" font-family="Times,serif" font-size="14.00">RFC1729</text>
<text xml:space="preserve" text-anchor="middle" x="642.34" y="-109.53" font-family="Times,serif" font-size="14.00">Using the Z39.50 Information Retrieval</text>
<text xml:space="preserve" text-anchor="middle" x="642.34" y="-93.03" font-family="Times,serif" font-size="14.00">Protocol</text>
<text xml:space="preserve" text-anchor="middle" x="642.34" y="-76.53" font-family="Times,serif" font-size="14.00">1994</text>
</a>
</g>
</g>
<!-- obs -->
<g id="node3" class="node">
<title>obs</title>
<polygon fill="none" stroke="black" points="898.7,-178.33 832.45,-178.33 832.45,-142.33 898.7,-142.33 898.7,-178.33"/>
<text xml:space="preserve" text-anchor="middle" x="865.57" y="-155.28" font-family="Times,serif" font-size="14.00">obsoletes</text>
</g>
<!-- RFC1729&#45;&gt;obs -->
<g id="edge2" class="edge">
<title>RFC1729&#45;&gt;obs</title>
<path fill="none" stroke="black" d="M773.95,-138.21C790.76,-142.31 806.93,-146.26 820.84,-149.65"/>
<polygon fill="black" stroke="black" points="819.95,-153.04 830.49,-152.01 821.61,-146.24 819.95,-153.04"/>
</g>
<!-- updates -->
<g id="node4" class="node">
<title>updates</title>
<polygon fill="none" stroke="black" points="894.2,-124.33 836.95,-124.33 836.95,-88.33 894.2,-88.33 894.2,-124.33"/>
<text xml:space="preserve" text-anchor="middle" x="865.57" y="-101.28" font-family="Times,serif" font-size="14.00">updates</text>
</g>
<!-- RFC1729&#45;&gt;updates -->
<g id="edge3" class="edge">
<title>RFC1729&#45;&gt;updates</title>
<path fill="none" stroke="black" d="M807.89,-106.33C814.04,-106.33 819.9,-106.33 825.35,-106.33"/>
<polygon fill="black" stroke="black" points="825.09,-109.83 835.09,-106.33 825.09,-102.83 825.09,-109.83"/>
</g>
<!-- cites -->
<g id="node6" class="node">
<title>cites</title>
<polygon fill="none" stroke="black" points="892.57,-70.33 838.57,-70.33 838.57,-34.33 892.57,-34.33 892.57,-70.33"/>
<text xml:space="preserve" text-anchor="middle" x="865.57" y="-47.28" font-family="Times,serif" font-size="14.00">cites</text>
</g>
<!-- RFC1729&#45;&gt;cites -->
<g id="edge5" class="edge">
<title>RFC1729&#45;&gt;cites</title>
<path fill="none" stroke="black" d="M773.95,-74.45C793.48,-69.68 812.15,-65.12 827.42,-61.39"/>
<polygon fill="black" stroke="black" points="828.03,-64.85 836.91,-59.08 826.37,-58.05 828.03,-64.85"/>
</g>
<!-- obs_by -->
<g id="node2" class="node">
<title>obs_by</title>
<polygon fill="none" stroke="black" points="452.23,-178.33 385.98,-178.33 385.98,-142.33 452.23,-142.33 452.23,-178.33"/>
<text xml:space="preserve" text-anchor="middle" x="419.1" y="-155.28" font-family="Times,serif" font-size="14.00">obsoletes</text>
</g>
<!-- obs_by&#45;&gt;RFC1729 -->
<g id="edge1" class="edge">
<title>obs_by&#45;&gt;RFC1729</title>
<path fill="none" stroke="black" d="M452.27,-152.47C465.57,-149.23 481.99,-145.22 499.54,-140.94"/>
<polygon fill="black" stroke="black" points="500.25,-144.37 509.13,-138.59 498.59,-137.57 500.25,-144.37"/>
</g>
<!-- updated_by -->
<g id="node5" class="node">
<title>updated_by</title>
<polygon fill="none" stroke="black" points="447.73,-124.33 390.48,-124.33 390.48,-88.33 447.73,-88.33 447.73,-124.33"/>
<text xml:space="preserve" text-anchor="middle" x="419.1" y="-101.28" font-family="Times,serif" font-size="14.00">updates</text>
</g>
<!-- updated_by&#45;&gt;RFC1729 -->
<g id="edge4" class="edge">
<title>updated_by&#45;&gt;RFC1729</title>
<path fill="none" stroke="black" d="M448.12,-106.33C453.49,-106.33 459.45,-106.33 465.87,-106.33"/>
<polygon fill="black" stroke="black" points="465.54,-109.83 475.54,-106.33 465.54,-102.83 465.54,-109.83"/>
</g>
<!-- rev_cites -->
<g id="node7" class="node">
<title>rev_cites</title>
<polygon fill="none" stroke="black" points="446.1,-70.33 392.1,-70.33 392.1,-34.33 446.1,-34.33 446.1,-70.33"/>
<text xml:space="preserve" text-anchor="middle" x="419.1" y="-47.28" font-family="Times,serif" font-size="14.00">cites</text>
</g>
<!-- rev_cites&#45;&gt;RFC1729 -->
<g id="edge6" class="edge">
<title>rev_cites&#45;&gt;RFC1729</title>
<path fill="none" stroke="black" d="M446.35,-58.73C460.52,-62.19 479.22,-66.76 499.45,-71.69"/>
<polygon fill="black" stroke="black" points="498.48,-75.06 509.02,-74.03 500.14,-68.26 498.48,-75.06"/>
</g>
<!-- RFC2896 -->
<g id="node8" class="node">
<title>RFC2896</title>
<g id="a_node8"><a xlink:href="RFC2896.html" xlink:title="This memo contains various protocol identifier examples, which can be used to produce valid protocolDirTable ``INDEX`` encodings, as defined by the Remote Network Monitoring MIB and the RMON Protocol Identifier Reference. &#160;This memo provides information for the Internet community." target="_top">
<ellipse fill="none" stroke="black" cx="180.49" cy="-52.33" rx="180.49" ry="52.33"/>
<text xml:space="preserve" text-anchor="middle" x="180.49" y="-72.03" font-family="Times,serif" font-size="14.00">RFC2896</text>
<text xml:space="preserve" text-anchor="middle" x="180.49" y="-55.53" font-family="Times,serif" font-size="14.00">Remote Network Monitoring MIB Protocol</text>
<text xml:space="preserve" text-anchor="middle" x="180.49" y="-39.03" font-family="Times,serif" font-size="14.00">Identifier Macros</text>
<text xml:space="preserve" text-anchor="middle" x="180.49" y="-22.53" font-family="Times,serif" font-size="14.00">2000</text>
</a>
</g>
</g>
<!-- RFC2896&#45;&gt;rev_cites -->
<g id="edge7" class="edge">
<title>RFC2896&#45;&gt;rev_cites</title>
<path fill="none" stroke="black" d="M361.43,-52.33C368.18,-52.33 374.55,-52.33 380.43,-52.33"/>
<polygon fill="black" stroke="black" points="380.21,-55.83 390.21,-52.33 380.21,-48.83 380.21,-55.83"/>
</g>
</g>
</svg>
