<?xml version="1.0" encoding="UTF-8" standalone="no"?>
<!DOCTYPE svg PUBLIC "-//W3C//DTD SVG 1.1//EN"
 "http://www.w3.org/Graphics/SVG/1.1/DTD/svg11.dtd">
<!-- Generated by graphviz version 14.1.1 (20251213.1925)
 -->
<!-- Title: Flow Pages: 1 -->
<svg width="1319pt" height="929pt"
 viewBox="0.00 0.00 1319.00 929.00" xmlns="http://www.w3.org/2000/svg" xmlns:xlink="http://www.w3.org/1999/xlink">
<g id="graph0" class="graph" transform="scale(1 1) rotate(0) translate(4 925.25)">
<title>Flow</title>
<polygon fill="white" stroke="none" points="-4,4 -4,-925.25 1314.82,-925.25 1314.82,4 -4,4"/>
<!-- RFC1220 -->
<g id="node1" class="node">
<title>RFC1220</title>
<g id="a_node1"><a xlink:title="This document defines an extension of the Internet Point&#45;to&#45;Point Protocol (PPP) described in RFC 1171, targeting the use of Point&#45;to&#45; Point lines for Remote Bridging. [STANDARDS&#45;TRACK]">
<ellipse fill="green" stroke="black" stroke-width="3" cx="904.18" cy="-471.96" rx="205.94" ry="65.05"/>
<text xml:space="preserve" text-anchor="middle" x="904.18" y="-496.86" font-family="Times,serif" font-size="18.00">RFC1220</text>
<text xml:space="preserve" text-anchor="middle" x="904.18" y="-475.86" font-family="Times,serif" font-size="18.00">Point&#45;to&#45;Point Protocol extensions for</text>
<text xml:space="preserve" text-anchor="middle" x="904.18" y="-454.86" font-family="Times,serif" font-size="18.00">bridging</text>
<text xml:space="preserve" text-anchor="middle" x="904.18" y="-433.86" font-family="Times,serif" font-size="18.00">1991</text>
</a>
</g>
</g>
<!-- obs -->
<g id="node4" class="node">
<title>obs</title>
<polygon fill="lightblue" stroke="black" points="1310.82,-705.6 1244.57,-705.6 1244.57,-669.6 1310.82,-669.6 1310.82,-705.6"/>
<text xml:space="preserve" text-anchor="middle" x="1277.7" y="-682.55" font-family="Times,serif" font-size="14.00">obsoletes</text>
</g>
<!-- RFC1220&#45;&gt;obs -->
<g id="edge3" class="edge">
<title>RFC1220&#45;&gt;obs</title>
<path fill="none" stroke="black" d="M1004.77,-530.03C1080.44,-573.72 1180.28,-631.36 1235.83,-663.43"/>
<polygon fill="black" stroke="black" points="1233.95,-666.39 1244.36,-668.36 1237.45,-660.32 1233.95,-666.39"/>
</g>
<!-- updates -->
<g id="node5" class="node">
<title>updates</title>
<polygon fill="lightyellow" stroke="black" points="932.81,-921.25 875.56,-921.25 875.56,-885.25 932.81,-885.25 932.81,-921.25"/>
<text xml:space="preserve" text-anchor="middle" x="904.18" y="-898.2" font-family="Times,serif" font-size="14.00">updates</text>
</g>
<!-- RFC1220&#45;&gt;updates -->
<g id="edge4" class="edge">
<title>RFC1220&#45;&gt;updates</title>
<path fill="none" stroke="black" d="M904.18,-538.4C904.18,-633.58 904.18,-804.83 904.18,-873.54"/>
<polygon fill="black" stroke="black" points="900.68,-873.25 904.18,-883.25 907.68,-873.25 900.68,-873.25"/>
</g>
<!-- cites -->
<g id="node7" class="node">
<title>cites</title>
<polygon fill="lightblue" stroke="black" points="557.67,-705.6 503.67,-705.6 503.67,-669.6 557.67,-669.6 557.67,-705.6"/>
<text xml:space="preserve" text-anchor="middle" x="530.67" y="-682.55" font-family="Times,serif" font-size="14.00">cites</text>
</g>
<!-- RFC1220&#45;&gt;cites -->
<g id="edge6" class="edge">
<title>RFC1220&#45;&gt;cites</title>
<path fill="none" stroke="black" d="M803.6,-530.03C725.85,-574.92 622.59,-634.54 568.07,-666.01"/>
<polygon fill="black" stroke="black" points="566.38,-662.95 559.47,-670.98 569.88,-669.01 566.38,-662.95"/>
</g>
<!-- obs_by -->
<g id="node2" class="node">
<title>obs_by</title>
<polygon fill="lightblue" stroke="black" points="563.79,-274.31 497.54,-274.31 497.54,-238.31 563.79,-238.31 563.79,-274.31"/>
<text xml:space="preserve" text-anchor="middle" x="530.67" y="-251.26" font-family="Times,serif" font-size="14.00">obsoletes</text>
</g>
<!-- obs_by&#45;&gt;RFC1220 -->
<g id="edge1" class="edge">
<title>obs_by&#45;&gt;RFC1220</title>
<path fill="none" stroke="black" d="M562.51,-274.69C613.29,-304.01 714.94,-362.69 794.22,-408.47"/>
<polygon fill="black" stroke="black" points="792.06,-411.26 802.47,-413.23 795.56,-405.2 792.06,-411.26"/>
</g>
<!-- RFC1638 -->
<g id="node3" class="node">
<title>RFC1638</title>
<g id="a_node3"><a xlink:href="RFC1638.html" xlink:title="This document defines the Network Control Protocol for establishing and configuring Remote Bridging for PPP links. [STANDARDS&#45;TRACK]" target="_top">
<ellipse fill="none" stroke="black" cx="157.15" cy="-40.66" rx="157.15" ry="40.66"/>
<text xml:space="preserve" text-anchor="middle" x="157.15" y="-52.11" font-family="Times,serif" font-size="14.00">RFC1638</text>
<text xml:space="preserve" text-anchor="middle" x="157.15" y="-35.61" font-family="Times,serif" font-size="14.00">PPP Bridging Control Protocol (BCP)</text>
<text xml:space="preserve" text-anchor="middle" x="157.15" y="-19.11" font-family="Times,serif" font-size="14.00">1994</text>
</a>
</g>
</g>
<!-- RFC1638&#45;&gt;obs_by -->
<g id="edge2" class="edge">
<title>RFC1638&#45;&gt;obs_by</title>
<path fill="none" stroke="black" d="M221.79,-77.98C298.49,-122.26 424.13,-194.8 489,-232.25"/>
<polygon fill="black" stroke="black" points="487.15,-235.23 497.56,-237.19 490.65,-229.16 487.15,-235.23"/>
</g>
<!-- updated_by -->
<g id="node6" class="node">
<title>updated_by</title>
<polygon fill="lightyellow" stroke="black" points="932.81,-58.66 875.56,-58.66 875.56,-22.66 932.81,-22.66 932.81,-58.66"/>
<text xml:space="preserve" text-anchor="middle" x="904.18" y="-35.61" font-family="Times,serif" font-size="14.00">updates</text>
</g>
<!-- updated_by&#45;&gt;RFC1220 -->
<g id="edge5" class="edge">
<title>updated_by&#45;&gt;RFC1220</title>
<path fill="none" stroke="black" d="M904.18,-58.92C904.18,-115.63 904.18,-291.14 904.18,-394.22"/>
<polygon fill="black" stroke="black" points="900.68,-393.98 904.18,-403.98 907.68,-393.98 900.68,-393.98"/>
</g>
<!-- rev_cites -->
<g id="node8" class="node">
<title>rev_cites</title>
<polygon fill="lightblue" stroke="black" points="1304.7,-274.31 1250.7,-274.31 1250.7,-238.31 1304.7,-238.31 1304.7,-274.31"/>
<text xml:space="preserve" text-anchor="middle" x="1277.7" y="-251.26" font-family="Times,serif" font-size="14.00">cites</text>
</g>
<!-- rev_cites&#45;&gt;RFC1220 -->
<g id="edge7" class="edge">
<title>rev_cites&#45;&gt;RFC1220</title>
<path fill="none" stroke="black" d="M1250.23,-272.16C1201.18,-300.49 1096.01,-361.21 1014.41,-408.32"/>
<polygon fill="black" stroke="black" points="1012.8,-405.21 1005.89,-413.24 1016.3,-411.27 1012.8,-405.21"/>
</g>
</g>
</svg>
