<?xml version="1.0" encoding="UTF-8" standalone="no"?>
<!DOCTYPE svg PUBLIC "-//W3C//DTD SVG 1.1//EN"
 "http://www.w3.org/Graphics/SVG/1.1/DTD/svg11.dtd">
<!-- Generated by graphviz version 14.1.1 (20251213.1925)
 -->
<!-- Title: Flow Pages: 1 -->
<svg width="906pt" height="755pt"
 viewBox="0.00 0.00 906.00 755.00" xmlns="http://www.w3.org/2000/svg" xmlns:xlink="http://www.w3.org/1999/xlink">
<g id="graph0" class="graph" transform="scale(1 1) rotate(0) translate(4 750.98)">
<title>Flow</title>
<polygon fill="white" stroke="none" points="-4,4 -4,-750.98 901.64,-750.98 901.64,4 -4,4"/>
<!-- RFC1385 -->
<g id="node1" class="node">
<title>RFC1385</title>
<g id="a_node1"><a xlink:title="EIP can substantially reduce the amount of modifications needed to the current Internet systems and greatly ease the difficulties of transition. &#160;This is an idea paper and discussion is strongly encouraged on Big&#45;Internet@munnari.oz.au. &#160;This memo provides information for the Internet community. &#160;It does not specify an Internet standard.">
<ellipse fill="green" stroke="black" cx="655.07" cy="-452.33" rx="151.32" ry="40.66"/>
<text xml:space="preserve" text-anchor="middle" x="655.07" y="-463.78" font-family="Times,serif" font-size="14.00">RFC1385</text>
<text xml:space="preserve" text-anchor="middle" x="655.07" y="-447.28" font-family="Times,serif" font-size="14.00">EIP: The Extended Internet Protocol</text>
<text xml:space="preserve" text-anchor="middle" x="655.07" y="-430.78" font-family="Times,serif" font-size="14.00">1992</text>
</a>
</g>
</g>
<!-- obs -->
<g id="node4" class="node">
<title>obs</title>
<polygon fill="lightblue" stroke="black" points="897.64,-524.33 831.39,-524.33 831.39,-488.33 897.64,-488.33 897.64,-524.33"/>
<text xml:space="preserve" text-anchor="middle" x="864.51" y="-501.28" font-family="Times,serif" font-size="14.00">obsoletes</text>
</g>
<!-- RFC1385&#45;&gt;obs -->
<g id="edge3" class="edge">
<title>RFC1385&#45;&gt;obs</title>
<path fill="none" stroke="black" d="M764.95,-480.67C784.66,-485.8 804.12,-490.87 820.48,-495.12"/>
<polygon fill="black" stroke="black" points="819.25,-498.42 829.81,-497.55 821.01,-491.65 819.25,-498.42"/>
</g>
<!-- updates -->
<g id="node5" class="node">
<title>updates</title>
<polygon fill="lightyellow" stroke="black" points="893.14,-470.33 835.89,-470.33 835.89,-434.33 893.14,-434.33 893.14,-470.33"/>
<text xml:space="preserve" text-anchor="middle" x="864.51" y="-447.28" font-family="Times,serif" font-size="14.00">updates</text>
</g>
<!-- RFC1385&#45;&gt;updates -->
<g id="edge4" class="edge">
<title>RFC1385&#45;&gt;updates</title>
<path fill="none" stroke="black" d="M806.83,-452.33C812.93,-452.33 818.76,-452.33 824.19,-452.33"/>
<polygon fill="black" stroke="black" points="823.91,-455.83 833.91,-452.33 823.91,-448.83 823.91,-455.83"/>
</g>
<!-- cites -->
<g id="node7" class="node">
<title>cites</title>
<polygon fill="lightblue" stroke="black" points="891.51,-416.33 837.51,-416.33 837.51,-380.33 891.51,-380.33 891.51,-416.33"/>
<text xml:space="preserve" text-anchor="middle" x="864.51" y="-393.28" font-family="Times,serif" font-size="14.00">cites</text>
</g>
<!-- RFC1385&#45;&gt;cites -->
<g id="edge6" class="edge">
<title>RFC1385&#45;&gt;cites</title>
<path fill="none" stroke="black" d="M764.95,-423.98C787.1,-418.22 808.93,-412.53 826.4,-407.99"/>
<polygon fill="black" stroke="black" points="826.94,-411.46 835.74,-405.56 825.18,-404.69 826.94,-411.46"/>
</g>
<!-- obs_by -->
<g id="node2" class="node">
<title>obs_by</title>
<polygon fill="lightblue" stroke="black" points="478.74,-651.33 412.49,-651.33 412.49,-615.33 478.74,-615.33 478.74,-651.33"/>
<text xml:space="preserve" text-anchor="middle" x="445.62" y="-628.28" font-family="Times,serif" font-size="14.00">obsoletes</text>
</g>
<!-- obs_by&#45;&gt;RFC1385 -->
<g id="edge1" class="edge">
<title>obs_by&#45;&gt;RFC1385</title>
<path fill="none" stroke="black" d="M467.65,-614.97C498.65,-587.93 557.61,-536.49 600.95,-498.67"/>
<polygon fill="black" stroke="black" points="603.02,-501.51 608.26,-492.29 598.42,-496.23 603.02,-501.51"/>
</g>
<!-- RFC6814 -->
<g id="node3" class="node">
<title>RFC6814</title>
<g id="a_node3"><a xlink:href="RFC6814.html" xlink:title="A number of IPv4 options have become obsolete in practice, but have never been formally deprecated. &#160;This document deprecates such IPv4 options, thus cleaning up the corresponding IANA registry. &#160;Additionally, it obsoletes RFCs 1385, 1393, 1475, and 1770, and requests that the RFC Editor change their status to Historic. [STANDARDS&#45;TRACK]" target="_top">
<ellipse fill="none" stroke="black" cx="193.75" cy="-706.33" rx="174.66" ry="40.66"/>
<text xml:space="preserve" text-anchor="middle" x="193.75" y="-717.78" font-family="Times,serif" font-size="14.00">RFC6814</text>
<text xml:space="preserve" text-anchor="middle" x="193.75" y="-701.28" font-family="Times,serif" font-size="14.00">Formally Deprecating Some IPv4 Options</text>
<text xml:space="preserve" text-anchor="middle" x="193.75" y="-684.78" font-family="Times,serif" font-size="14.00">2012</text>
</a>
</g>
</g>
<!-- RFC6814&#45;&gt;obs_by -->
<g id="edge2" class="edge">
<title>RFC6814&#45;&gt;obs_by</title>
<path fill="none" stroke="black" d="M318.93,-677.66C341.9,-671.54 365.56,-664.68 387.49,-657.33 392.03,-655.81 396.71,-654.09 401.35,-652.3"/>
<polygon fill="black" stroke="black" points="402.64,-655.55 410.61,-648.57 400.02,-649.05 402.64,-655.55"/>
</g>
<!-- rev_cites -->
<g id="node8" class="node">
<title>rev_cites</title>
<polygon fill="lightblue" stroke="black" points="472.62,-470.33 418.62,-470.33 418.62,-434.33 472.62,-434.33 472.62,-470.33"/>
<text xml:space="preserve" text-anchor="middle" x="445.62" y="-447.28" font-family="Times,serif" font-size="14.00">cites</text>
</g>
<!-- RFC6814&#45;&gt;rev_cites -->
<g id="edge12" class="edge">
<title>RFC6814&#45;&gt;rev_cites</title>
<path fill="none" stroke="black" d="M344.33,-685.64C360.27,-678.62 375.15,-669.39 387.49,-657.33 412.51,-632.88 431.77,-532.47 440.1,-481.83"/>
<polygon fill="black" stroke="black" points="443.52,-482.59 441.65,-472.17 436.61,-481.48 443.52,-482.59"/>
</g>
<!-- updated_by -->
<g id="node6" class="node">
<title>updated_by</title>
<polygon fill="lightyellow" stroke="black" points="474.24,-416.33 416.99,-416.33 416.99,-380.33 474.24,-380.33 474.24,-416.33"/>
<text xml:space="preserve" text-anchor="middle" x="445.62" y="-393.28" font-family="Times,serif" font-size="14.00">updates</text>
</g>
<!-- updated_by&#45;&gt;RFC1385 -->
<g id="edge5" class="edge">
<title>updated_by&#45;&gt;RFC1385</title>
<path fill="none" stroke="black" d="M474.6,-405.61C490.66,-409.79 512.05,-415.36 534.45,-421.19"/>
<polygon fill="black" stroke="black" points="533.49,-424.56 544.05,-423.69 535.25,-417.78 533.49,-424.56"/>
</g>
<!-- rev_cites&#45;&gt;RFC1385 -->
<g id="edge7" class="edge">
<title>rev_cites&#45;&gt;RFC1385</title>
<path fill="none" stroke="black" d="M472.89,-452.33C478.62,-452.33 485.07,-452.33 492.05,-452.33"/>
<polygon fill="black" stroke="black" points="491.89,-455.83 501.89,-452.33 491.89,-448.83 491.89,-455.83"/>
</g>
<!-- RFC2402 -->
<g id="node9" class="node">
<title>RFC2402</title>
<g id="a_node9"><a xlink:href="RFC2402.html" xlink:title="The IP Authentication Header (AH) is used to provide connectionless integrity and data origin authentication for IP datagrams (hereafter referred to as just authentication), and to provide protection against replays. [STANDARDS&#45;TRACK]" target="_top">
<ellipse fill="none" stroke="black" cx="193.75" cy="-607.33" rx="108.89" ry="40.66"/>
<text xml:space="preserve" text-anchor="middle" x="193.75" y="-618.78" font-family="Times,serif" font-size="14.00">RFC2402</text>
<text xml:space="preserve" text-anchor="middle" x="193.75" y="-602.28" font-family="Times,serif" font-size="14.00">IP Authentication Header</text>
<text xml:space="preserve" text-anchor="middle" x="193.75" y="-585.78" font-family="Times,serif" font-size="14.00">1998</text>
</a>
</g>
</g>
<!-- RFC2402&#45;&gt;rev_cites -->
<g id="edge8" class="edge">
<title>RFC2402&#45;&gt;rev_cites</title>
<path fill="none" stroke="black" d="M299.38,-596.94C330.17,-589.82 362.32,-577.98 387.49,-558.33 412.39,-538.89 427.8,-505.48 436.24,-481.36"/>
<polygon fill="black" stroke="black" points="439.48,-482.72 439.27,-472.12 432.83,-480.54 439.48,-482.72"/>
</g>
<!-- RFC4302 -->
<g id="node10" class="node">
<title>RFC4302</title>
<g id="a_node10"><a xlink:href="RFC4302.html" xlink:title="This document describes an updated version of the IP Authentication Header (AH), which is designed to provide authentication services in IPv4 and IPv6. &#160;This document obsoletes RFC 2402 (November 1998). [STANDARDS&#45;TRACK]" target="_top">
<ellipse fill="none" stroke="black" cx="193.75" cy="-508.33" rx="108.89" ry="40.66"/>
<text xml:space="preserve" text-anchor="middle" x="193.75" y="-519.78" font-family="Times,serif" font-size="14.00">RFC4302</text>
<text xml:space="preserve" text-anchor="middle" x="193.75" y="-503.28" font-family="Times,serif" font-size="14.00">IP Authentication Header</text>
<text xml:space="preserve" text-anchor="middle" x="193.75" y="-486.78" font-family="Times,serif" font-size="14.00">2005</text>
</a>
</g>
</g>
<!-- RFC4302&#45;&gt;rev_cites -->
<g id="edge9" class="edge">
<title>RFC4302&#45;&gt;rev_cites</title>
<path fill="none" stroke="black" d="M287.79,-487.47C329.31,-478.17 375.87,-467.73 407.4,-460.67"/>
<polygon fill="black" stroke="black" points="407.82,-464.16 416.82,-458.56 406.29,-457.33 407.82,-464.16"/>
</g>
<!-- RFC5102 -->
<g id="node11" class="node">
<title>RFC5102</title>
<g id="a_node11"><a xlink:href="RFC5102.html" xlink:title="This memo defines an information model for the IP Flow Information eXport (IPFIX) protocol. &#160;It is used by the IPFIX protocol for encoding measured traffic information and information related to the traffic Observation Point, the traffic Metering Process, and the Exporting Process. &#160;Although developed for the IPFIX protocol, the model is defined in an open way that easily allows using it in other protocols, interfaces, and applications. [STANDARDS&#45;TRACK]" target="_top">
<ellipse fill="none" stroke="black" cx="193.75" cy="-397.33" rx="132.23" ry="52.33"/>
<text xml:space="preserve" text-anchor="middle" x="193.75" y="-417.03" font-family="Times,serif" font-size="14.00">RFC5102</text>
<text xml:space="preserve" text-anchor="middle" x="193.75" y="-400.53" font-family="Times,serif" font-size="14.00">Information Model for IP Flow</text>
<text xml:space="preserve" text-anchor="middle" x="193.75" y="-384.03" font-family="Times,serif" font-size="14.00">Information Export</text>
<text xml:space="preserve" text-anchor="middle" x="193.75" y="-367.53" font-family="Times,serif" font-size="14.00">2008</text>
</a>
</g>
</g>
<!-- RFC5102&#45;&gt;rev_cites -->
<g id="edge10" class="edge">
<title>RFC5102&#45;&gt;rev_cites</title>
<path fill="none" stroke="black" d="M309.81,-422.65C344.91,-430.38 381.05,-438.33 407.07,-444.06"/>
<polygon fill="black" stroke="black" points="406.28,-447.47 416.79,-446.2 407.78,-440.63 406.28,-447.47"/>
</g>
<!-- RFC6306 -->
<g id="node12" class="node">
<title>RFC6306</title>
<g id="a_node12"><a xlink:href="RFC6306.html" xlink:title="This document describes a framework for how the current IPv4 address space can be divided into two new address categories: a core address space (Area Locators, ALOCs) that is globally unique, and an edge address space (Endpoint Locators, ELOCs) that is regionally unique. In the future, the ELOC space will only be significant in a private network or in a service provider domain. Therefore, a 32x32 bit addressing scheme and a hierarchical routing architecture are achieved. The hierarchical IPv4 framework is backwards compatible with the current IPv4 Internet. This document also discusses a method for decoupling the location and identifier functions &#45;&#45; future applications can make use of the separation. The framework requires extensions to the existing Domain Name System (DNS), the existing IPv4 stack of the endpoints, middleboxes, and routers in the Internet. The framework can be implemented incrementally for endpoints, DNS, middleboxes, and routers. This document defines an Experimental Protocol for the Internet community." target="_top">
<ellipse fill="none" stroke="black" cx="193.75" cy="-286.33" rx="126.4" ry="40.66"/>
<text xml:space="preserve" text-anchor="middle" x="193.75" y="-297.78" font-family="Times,serif" font-size="14.00">RFC6306</text>
<text xml:space="preserve" text-anchor="middle" x="193.75" y="-281.28" font-family="Times,serif" font-size="14.00">Hierarchical IPv4 Framework</text>
<text xml:space="preserve" text-anchor="middle" x="193.75" y="-264.78" font-family="Times,serif" font-size="14.00">2011</text>
</a>
</g>
</g>
<!-- RFC6306&#45;&gt;rev_cites -->
<g id="edge11" class="edge">
<title>RFC6306&#45;&gt;rev_cites</title>
<path fill="none" stroke="black" d="M315.79,-297.56C342.17,-305.13 367.99,-317.21 387.49,-336.33 414.54,-362.84 394.04,-386.76 413.63,-424.15"/>
<polygon fill="black" stroke="black" points="410.59,-425.9 418.75,-432.66 416.59,-422.29 410.59,-425.9"/>
</g>
<!-- RFC6918 -->
<g id="node13" class="node">
<title>RFC6918</title>
<g id="a_node13"><a xlink:href="RFC6918.html" xlink:title="A number of ICMPv4 message types have become obsolete in practice, but have never been formally deprecated. &#160;This document deprecates such ICMPv4 message types, thus cleaning up the corresponding IANA registry. &#160;Additionally, it updates RFC 792 and RFC 950, obsoletes RFC 1788, and requests the RFC Editor to change the status of RFC 1788 to Historic." target="_top">
<ellipse fill="none" stroke="black" cx="193.75" cy="-175.33" rx="193.75" ry="52.33"/>
<text xml:space="preserve" text-anchor="middle" x="193.75" y="-195.03" font-family="Times,serif" font-size="14.00">RFC6918</text>
<text xml:space="preserve" text-anchor="middle" x="193.75" y="-178.53" font-family="Times,serif" font-size="14.00">Formally Deprecating Some ICMPv4 Message</text>
<text xml:space="preserve" text-anchor="middle" x="193.75" y="-162.03" font-family="Times,serif" font-size="14.00">Types</text>
<text xml:space="preserve" text-anchor="middle" x="193.75" y="-145.53" font-family="Times,serif" font-size="14.00">2013</text>
</a>
</g>
</g>
<!-- RFC6918&#45;&gt;rev_cites -->
<g id="edge13" class="edge">
<title>RFC6918&#45;&gt;rev_cites</title>
<path fill="none" stroke="black" d="M350.58,-206.41C364.53,-214.28 377.23,-224.09 387.49,-236.33 439.71,-298.58 377.3,-346.93 413.58,-423.86"/>
<polygon fill="black" stroke="black" points="410.37,-425.29 418.09,-432.55 416.59,-422.06 410.37,-425.29"/>
</g>
<!-- RFC7126 -->
<g id="node14" class="node">
<title>RFC7126</title>
<g id="a_node14"><a xlink:href="RFC7126.html" xlink:title="This document provides advice on the filtering of IPv4 packets based on the IPv4 options they contain. &#160;Additionally, it discusses the operational and interoperability implications of dropping packets based on the IP options they contain." target="_top">
<ellipse fill="none" stroke="black" cx="193.75" cy="-52.33" rx="162.46" ry="52.33"/>
<text xml:space="preserve" text-anchor="middle" x="193.75" y="-72.03" font-family="Times,serif" font-size="14.00">RFC7126</text>
<text xml:space="preserve" text-anchor="middle" x="193.75" y="-55.53" font-family="Times,serif" font-size="14.00">Recommendations on Filtering of IPv4</text>
<text xml:space="preserve" text-anchor="middle" x="193.75" y="-39.03" font-family="Times,serif" font-size="14.00">Packets Containing IPv4 Options</text>
<text xml:space="preserve" text-anchor="middle" x="193.75" y="-22.53" font-family="Times,serif" font-size="14.00">2014</text>
</a>
</g>
</g>
<!-- RFC7126&#45;&gt;rev_cites -->
<g id="edge14" class="edge">
<title>RFC7126&#45;&gt;rev_cites</title>
<path fill="none" stroke="black" d="M337.66,-76.63C356.85,-85.6 374.4,-97.79 387.49,-114.33 428.61,-166.23 385.01,-346.46 414.04,-423.77"/>
<polygon fill="black" stroke="black" points="410.71,-424.91 418.01,-432.59 417.1,-422.04 410.71,-424.91"/>
</g>
</g>
</svg>
