<?xml version="1.0" encoding="UTF-8" standalone="no"?>
<!DOCTYPE svg PUBLIC "-//W3C//DTD SVG 1.1//EN"
 "http://www.w3.org/Graphics/SVG/1.1/DTD/svg11.dtd">
<!-- Generated by graphviz version 14.1.1 (20251213.1925)
 -->
<!-- Title: Flow Pages: 1 -->
<svg width="1215pt" height="926pt"
 viewBox="0.00 0.00 1215.00 926.00" xmlns="http://www.w3.org/2000/svg" xmlns:xlink="http://www.w3.org/1999/xlink">
<g id="graph0" class="graph" transform="scale(1 1) rotate(0) translate(4 921.98)">
<title>Flow</title>
<polygon fill="white" stroke="none" points="-4,4 -4,-921.98 1211.25,-921.98 1211.25,4 -4,4"/>
<!-- RFC1573 -->
<g id="node1" class="node">
<title>RFC1573</title>
<g id="a_node1"><a xlink:title="This memo defines a portion of the Management Information Base (MIB) for use with network management protocols in the Internet community. &#160;In particular, it describes managed objects used for managing Network Interfaces. [STANARDS&#45;TRACK]">
<ellipse fill="none" stroke="black" cx="606.81" cy="-679.33" rx="151.85" ry="52.33"/>
<text xml:space="preserve" text-anchor="middle" x="606.81" y="-699.03" font-family="Times,serif" font-size="14.00">RFC1573</text>
<text xml:space="preserve" text-anchor="middle" x="606.81" y="-682.53" font-family="Times,serif" font-size="14.00">Evolution of the Interfaces Group of</text>
<text xml:space="preserve" text-anchor="middle" x="606.81" y="-666.03" font-family="Times,serif" font-size="14.00">MIB&#45;II</text>
<text xml:space="preserve" text-anchor="middle" x="606.81" y="-649.53" font-family="Times,serif" font-size="14.00">1994</text>
</a>
</g>
</g>
<!-- obs -->
<g id="node4" class="node">
<title>obs</title>
<polygon fill="none" stroke="black" points="849.91,-751.33 783.66,-751.33 783.66,-715.33 849.91,-715.33 849.91,-751.33"/>
<text xml:space="preserve" text-anchor="middle" x="816.78" y="-728.28" font-family="Times,serif" font-size="14.00">obsoletes</text>
</g>
<!-- RFC1573&#45;&gt;obs -->
<g id="edge3" class="edge">
<title>RFC1573&#45;&gt;obs</title>
<path fill="none" stroke="black" d="M729.09,-710.82C744.53,-714.83 759.45,-718.7 772.43,-722.07"/>
<polygon fill="black" stroke="black" points="771.28,-725.39 781.83,-724.51 773.04,-718.61 771.28,-725.39"/>
</g>
<!-- updates -->
<g id="node6" class="node">
<title>updates</title>
<polygon fill="none" stroke="black" points="845.41,-697.33 788.16,-697.33 788.16,-661.33 845.41,-661.33 845.41,-697.33"/>
<text xml:space="preserve" text-anchor="middle" x="816.78" y="-674.28" font-family="Times,serif" font-size="14.00">updates</text>
</g>
<!-- RFC1573&#45;&gt;updates -->
<g id="edge5" class="edge">
<title>RFC1573&#45;&gt;updates</title>
<path fill="none" stroke="black" d="M758.95,-679.33C765.14,-679.33 771.05,-679.33 776.56,-679.33"/>
<polygon fill="black" stroke="black" points="776.41,-682.83 786.41,-679.33 776.41,-675.83 776.41,-682.83"/>
</g>
<!-- cites -->
<g id="node8" class="node">
<title>cites</title>
<polygon fill="none" stroke="black" points="843.78,-643.33 789.78,-643.33 789.78,-607.33 843.78,-607.33 843.78,-643.33"/>
<text xml:space="preserve" text-anchor="middle" x="816.78" y="-620.28" font-family="Times,serif" font-size="14.00">cites</text>
</g>
<!-- RFC1573&#45;&gt;cites -->
<g id="edge7" class="edge">
<title>RFC1573&#45;&gt;cites</title>
<path fill="none" stroke="black" d="M729.09,-647.84C747.09,-643.16 764.38,-638.67 778.72,-634.95"/>
<polygon fill="black" stroke="black" points="779.28,-638.42 788.08,-632.52 777.52,-631.64 779.28,-638.42"/>
</g>
<!-- obs_by -->
<g id="node2" class="node">
<title>obs_by</title>
<polygon fill="none" stroke="black" points="429.95,-823.33 363.7,-823.33 363.7,-787.33 429.95,-787.33 429.95,-823.33"/>
<text xml:space="preserve" text-anchor="middle" x="396.83" y="-800.28" font-family="Times,serif" font-size="14.00">obsoletes</text>
</g>
<!-- obs_by&#45;&gt;RFC1573 -->
<g id="edge1" class="edge">
<title>obs_by&#45;&gt;RFC1573</title>
<path fill="none" stroke="black" d="M428.07,-787C452.47,-772.22 488.04,-750.67 520.96,-730.73"/>
<polygon fill="black" stroke="black" points="522.58,-733.84 529.32,-725.66 518.96,-727.85 522.58,-733.84"/>
</g>
<!-- RFC2233 -->
<g id="node3" class="node">
<title>RFC2233</title>
<g id="a_node3"><a xlink:href="RFC2233.html" xlink:title="This memo defines a portion of the Management Information Base (MIB) for use with network management protocols in the Internet community. &#160;In particular, it describes managed objects used for managing Network Interfaces. [STANDARDS&#45;TRACK]" target="_top">
<ellipse fill="none" stroke="black" cx="169.35" cy="-877.33" rx="167.76" ry="40.66"/>
<text xml:space="preserve" text-anchor="middle" x="169.35" y="-888.78" font-family="Times,serif" font-size="14.00">RFC2233</text>
<text xml:space="preserve" text-anchor="middle" x="169.35" y="-872.28" font-family="Times,serif" font-size="14.00">The Interfaces Group MIB using SMIv2</text>
<text xml:space="preserve" text-anchor="middle" x="169.35" y="-855.78" font-family="Times,serif" font-size="14.00">1997</text>
</a>
</g>
</g>
<!-- RFC2233&#45;&gt;obs_by -->
<g id="edge2" class="edge">
<title>RFC2233&#45;&gt;obs_by</title>
<path fill="none" stroke="black" d="M281.33,-846.73C300.56,-840.94 320.29,-834.69 338.7,-828.33 343.38,-826.71 348.23,-824.93 353.04,-823.09"/>
<polygon fill="black" stroke="black" points="353.97,-826.48 362.01,-819.58 351.42,-819.96 353.97,-826.48"/>
</g>
<!-- RFC1229 -->
<g id="node5" class="node">
<title>RFC1229</title>
<g id="a_node5"><a xlink:href="RFC1229.html" xlink:title="This RFC contains definitions of managed objects used as experimental extensions to the generic interfaces structure of MIB&#45;II. [STANDARDS&#45;TRACK]" target="_top">
<ellipse fill="none" stroke="black" cx="1041.08" cy="-733.33" rx="166.17" ry="40.66"/>
<text xml:space="preserve" text-anchor="middle" x="1041.08" y="-744.78" font-family="Times,serif" font-size="14.00">RFC1229</text>
<text xml:space="preserve" text-anchor="middle" x="1041.08" y="-728.28" font-family="Times,serif" font-size="14.00">Extensions to the generic&#45;interface MIB</text>
<text xml:space="preserve" text-anchor="middle" x="1041.08" y="-711.78" font-family="Times,serif" font-size="14.00">1991</text>
</a>
</g>
</g>
<!-- obs&#45;&gt;RFC1229 -->
<g id="edge4" class="edge">
<title>obs&#45;&gt;RFC1229</title>
<path fill="none" stroke="black" d="M850.11,-733.33C854.24,-733.33 858.67,-733.33 863.34,-733.33"/>
<polygon fill="black" stroke="black" points="863.14,-736.83 873.14,-733.33 863.14,-729.83 863.14,-736.83"/>
</g>
<!-- updated_by -->
<g id="node7" class="node">
<title>updated_by</title>
<polygon fill="none" stroke="black" points="425.45,-697.33 368.2,-697.33 368.2,-661.33 425.45,-661.33 425.45,-697.33"/>
<text xml:space="preserve" text-anchor="middle" x="396.83" y="-674.28" font-family="Times,serif" font-size="14.00">updates</text>
</g>
<!-- updated_by&#45;&gt;RFC1573 -->
<g id="edge6" class="edge">
<title>updated_by&#45;&gt;RFC1573</title>
<path fill="none" stroke="black" d="M425.88,-679.33C431.08,-679.33 436.83,-679.33 442.99,-679.33"/>
<polygon fill="black" stroke="black" points="442.99,-682.83 452.99,-679.33 442.99,-675.83 442.99,-682.83"/>
</g>
<!-- rev_cites -->
<g id="node9" class="node">
<title>rev_cites</title>
<polygon fill="none" stroke="black" points="423.83,-500.33 369.83,-500.33 369.83,-464.33 423.83,-464.33 423.83,-500.33"/>
<text xml:space="preserve" text-anchor="middle" x="396.83" y="-477.28" font-family="Times,serif" font-size="14.00">cites</text>
</g>
<!-- rev_cites&#45;&gt;RFC1573 -->
<g id="edge8" class="edge">
<title>rev_cites&#45;&gt;RFC1573</title>
<path fill="none" stroke="black" d="M417.02,-500.51C445.93,-527.89 501.89,-580.89 545.41,-622.12"/>
<polygon fill="black" stroke="black" points="542.89,-624.56 552.56,-628.89 547.71,-619.47 542.89,-624.56"/>
</g>
<!-- RFC1700 -->
<g id="node10" class="node">
<title>RFC1700</title>
<g id="a_node10"><a xlink:href="RFC1700.html" xlink:title="This RFC is a snapshot of the ongoing process of the assignment of protocol parameters for the Internet protocol suite. &#160;To make the current information readily available the assignments are kept up&#45;to&#45; date in a set of online text files. &#160;This memo is a status report on the parameters (i.e., numbers and keywords) used in protocols in the Internet community." target="_top">
<ellipse fill="none" stroke="black" cx="169.35" cy="-778.33" rx="85.03" ry="40.66"/>
<text xml:space="preserve" text-anchor="middle" x="169.35" y="-789.78" font-family="Times,serif" font-size="14.00">RFC1700</text>
<text xml:space="preserve" text-anchor="middle" x="169.35" y="-773.28" font-family="Times,serif" font-size="14.00">Assigned Numbers</text>
<text xml:space="preserve" text-anchor="middle" x="169.35" y="-756.78" font-family="Times,serif" font-size="14.00">1994</text>
</a>
</g>
</g>
<!-- RFC1700&#45;&gt;rev_cites -->
<g id="edge9" class="edge">
<title>RFC1700&#45;&gt;rev_cites</title>
<path fill="none" stroke="black" d="M253.2,-771.18C283.88,-764.48 316.55,-751.86 338.7,-728.33 353.6,-712.5 379.69,-573.61 390.7,-511.79"/>
<polygon fill="black" stroke="black" points="394.13,-512.46 392.43,-502 387.24,-511.24 394.13,-512.46"/>
</g>
<!-- RFC1987 -->
<g id="node11" class="node">
<title>RFC1987</title>
<g id="a_node11"><a xlink:href="RFC1987.html" xlink:title="The General Switch Management Protocol (GSMP), is a general purpose protocol to control an ATM switch. &#160;GSMP allows a controller to establish and release connections across the switch; add and delete leaves on a point&#45;to&#45;multipoint connection; manage switch ports; request configuration information; and request statistics. &#160;This memo provides information for the Internet community. &#160;This memo does not specify an Internet standard of any kind." target="_top">
<ellipse fill="none" stroke="black" cx="169.35" cy="-667.33" rx="158.75" ry="52.33"/>
<text xml:space="preserve" text-anchor="middle" x="169.35" y="-687.03" font-family="Times,serif" font-size="14.00">RFC1987</text>
<text xml:space="preserve" text-anchor="middle" x="169.35" y="-670.53" font-family="Times,serif" font-size="14.00">Ipsilon&#39;s General Switch Management</text>
<text xml:space="preserve" text-anchor="middle" x="169.35" y="-654.03" font-family="Times,serif" font-size="14.00">Protocol Specification Version 1.1</text>
<text xml:space="preserve" text-anchor="middle" x="169.35" y="-637.53" font-family="Times,serif" font-size="14.00">1996</text>
</a>
</g>
</g>
<!-- RFC1987&#45;&gt;rev_cites -->
<g id="edge10" class="edge">
<title>RFC1987&#45;&gt;rev_cites</title>
<path fill="none" stroke="black" d="M294.14,-634.78C310.33,-626.93 325.76,-617.25 338.7,-605.33 365.98,-580.2 381.31,-539.43 389.08,-511.78"/>
<polygon fill="black" stroke="black" points="392.42,-512.84 391.57,-502.28 385.65,-511.07 392.42,-512.84"/>
</g>
<!-- RFC2261 -->
<g id="node12" class="node">
<title>RFC2261</title>
<g id="a_node12"><a xlink:href="RFC2261.html" xlink:title="This document describes an architecture for describing SNMP Management Frameworks. &#160;The architecture is designed to be modular to allow the evolution of the SNMP protocol standards over time. [STANDARDS&#45;TRACK]" target="_top">
<ellipse fill="none" stroke="black" cx="169.35" cy="-544.33" rx="160.34" ry="52.33"/>
<text xml:space="preserve" text-anchor="middle" x="169.35" y="-564.03" font-family="Times,serif" font-size="14.00">RFC2261</text>
<text xml:space="preserve" text-anchor="middle" x="169.35" y="-547.53" font-family="Times,serif" font-size="14.00">An Architecture for Describing SNMP</text>
<text xml:space="preserve" text-anchor="middle" x="169.35" y="-531.03" font-family="Times,serif" font-size="14.00">Management Frameworks</text>
<text xml:space="preserve" text-anchor="middle" x="169.35" y="-514.53" font-family="Times,serif" font-size="14.00">1998</text>
</a>
</g>
</g>
<!-- RFC2261&#45;&gt;rev_cites -->
<g id="edge11" class="edge">
<title>RFC2261&#45;&gt;rev_cites</title>
<path fill="none" stroke="black" d="M292.99,-510.6C316.83,-504.05 340.07,-497.66 358.41,-492.62"/>
<polygon fill="black" stroke="black" points="359.26,-496.01 367.97,-489.99 357.4,-489.26 359.26,-496.01"/>
</g>
<!-- RFC2271 -->
<g id="node13" class="node">
<title>RFC2271</title>
<g id="a_node13"><a xlink:href="RFC2271.html" xlink:title="This document describes an architecture for describing SNMP Management Frameworks. &#160;The architecture is designed to be modular to allow the evolution of the SNMP protocol standards over time. [STANDARDS&#45;TRACK]" target="_top">
<ellipse fill="none" stroke="black" cx="169.35" cy="-421.33" rx="160.34" ry="52.33"/>
<text xml:space="preserve" text-anchor="middle" x="169.35" y="-441.03" font-family="Times,serif" font-size="14.00">RFC2271</text>
<text xml:space="preserve" text-anchor="middle" x="169.35" y="-424.53" font-family="Times,serif" font-size="14.00">An Architecture for Describing SNMP</text>
<text xml:space="preserve" text-anchor="middle" x="169.35" y="-408.03" font-family="Times,serif" font-size="14.00">Management Frameworks</text>
<text xml:space="preserve" text-anchor="middle" x="169.35" y="-391.53" font-family="Times,serif" font-size="14.00">1998</text>
</a>
</g>
</g>
<!-- RFC2271&#45;&gt;rev_cites -->
<g id="edge12" class="edge">
<title>RFC2271&#45;&gt;rev_cites</title>
<path fill="none" stroke="black" d="M293.65,-454.68C317.37,-461.1 340.47,-467.35 358.69,-472.28"/>
<polygon fill="black" stroke="black" points="357.61,-475.61 368.17,-474.84 359.43,-468.85 357.61,-475.61"/>
</g>
<!-- RFC4181 -->
<g id="node14" class="node">
<title>RFC4181</title>
<g id="a_node14"><a xlink:href="RFC4181.html" xlink:title="This memo provides guidelines for authors and reviewers of IETF standards&#45;track specifications containing MIB modules. &#160;Applicable portions may be used as a basis for reviews of other MIB documents. &#160;This document specifies an Internet Best Current Practices for the Internet Community, and requests discussion and suggestions for improvements." target="_top">
<ellipse fill="none" stroke="black" cx="169.35" cy="-298.33" rx="169.35" ry="52.33"/>
<text xml:space="preserve" text-anchor="middle" x="169.35" y="-318.03" font-family="Times,serif" font-size="14.00">RFC4181</text>
<text xml:space="preserve" text-anchor="middle" x="169.35" y="-301.53" font-family="Times,serif" font-size="14.00">Guidelines for Authors and Reviewers of</text>
<text xml:space="preserve" text-anchor="middle" x="169.35" y="-285.03" font-family="Times,serif" font-size="14.00">MIB Documents</text>
<text xml:space="preserve" text-anchor="middle" x="169.35" y="-268.53" font-family="Times,serif" font-size="14.00">2005</text>
</a>
</g>
</g>
<!-- RFC4181&#45;&gt;rev_cites -->
<g id="edge13" class="edge">
<title>RFC4181&#45;&gt;rev_cites</title>
<path fill="none" stroke="black" d="M297.96,-332.82C312.75,-340.31 326.78,-349.37 338.7,-360.33 365.83,-385.24 381.2,-425.68 389.02,-453.11"/>
<polygon fill="black" stroke="black" points="385.57,-453.76 391.52,-462.52 392.33,-451.96 385.57,-453.76"/>
</g>
<!-- RFC8096 -->
<g id="node15" class="node">
<title>RFC8096</title>
<g id="a_node15"><a xlink:href="RFC8096.html" xlink:title="In 2005&#45;2006, the IPv6 MIB update group published updated versions of the IP&#45;MIB, UDP&#45;MIB, TCP&#45;MIB, and IP&#45;FORWARD&#45;MIB modules, which use the InetAddressType/InetAddress construct to handle IPv4 and IPv6 in the same table. &#160;This document contains versions of the obsoleted IPV6&#45;MIB, IPV6&#45;TC, IPV6&#45;ICMP&#45;MIB, IPV6&#45;TCP&#45;MIB, and IPV6&#45;UDP&#45;MIB modules for the purpose of updating MIB module repositories. &#160;This document obsoletes RFCs 2452, 2454, 2465, and 2466 (i.e., the RFCs containing these MIBs) and reclassifies them as Historic." target="_top">
<ellipse fill="none" stroke="black" cx="169.35" cy="-175.33" rx="155.56" ry="52.33"/>
<text xml:space="preserve" text-anchor="middle" x="169.35" y="-195.03" font-family="Times,serif" font-size="14.00">RFC8096</text>
<text xml:space="preserve" text-anchor="middle" x="169.35" y="-178.53" font-family="Times,serif" font-size="14.00">The IPv6&#45;Specific MIB Modules Are</text>
<text xml:space="preserve" text-anchor="middle" x="169.35" y="-162.03" font-family="Times,serif" font-size="14.00">Obsolete</text>
<text xml:space="preserve" text-anchor="middle" x="169.35" y="-145.53" font-family="Times,serif" font-size="14.00">2017</text>
</a>
</g>
</g>
<!-- RFC8096&#45;&gt;rev_cites -->
<g id="edge14" class="edge">
<title>RFC8096&#45;&gt;rev_cites</title>
<path fill="none" stroke="black" d="M296.5,-205.57C312.35,-213.75 327.05,-224.14 338.7,-237.33 366.91,-269.26 385.31,-394.84 392.46,-452.77"/>
<polygon fill="black" stroke="black" points="388.97,-453.03 393.63,-462.54 395.92,-452.19 388.97,-453.03"/>
</g>
<!-- RFC8892 -->
<g id="node16" class="node">
<title>RFC8892</title>
<g id="a_node16"><a xlink:href="RFC8892.html" xlink:title="This document provides guidelines and procedures for those who are&#10;defining, registering, or evaluating definitions of new interface&#10;types (ifType values) and tunnel types. &#160;The original definition of&#10;the IANA interface type registry predated the use of IANA&#10;Considerations sections and YANG modules, so some confusion arose&#10;over time. &#160;Tunnel types were added later, with the same requirements&#10;and allocation policy as interface types. &#160;This document updates RFC&#10;2863 and provides updated guidance for these registries." target="_top">
<ellipse fill="none" stroke="black" cx="169.35" cy="-52.33" rx="163.52" ry="52.33"/>
<text xml:space="preserve" text-anchor="middle" x="169.35" y="-72.03" font-family="Times,serif" font-size="14.00">RFC8892</text>
<text xml:space="preserve" text-anchor="middle" x="169.35" y="-55.53" font-family="Times,serif" font-size="14.00">Guidelines and Registration Procedures</text>
<text xml:space="preserve" text-anchor="middle" x="169.35" y="-39.03" font-family="Times,serif" font-size="14.00">for Interface Types and Tunnel Types</text>
<text xml:space="preserve" text-anchor="middle" x="169.35" y="-22.53" font-family="Times,serif" font-size="14.00">2020</text>
</a>
</g>
</g>
<!-- RFC8892&#45;&gt;rev_cites -->
<g id="edge15" class="edge">
<title>RFC8892&#45;&gt;rev_cites</title>
<path fill="none" stroke="black" d="M300.73,-83.59C315.16,-91.6 328.35,-101.67 338.7,-114.33 381.08,-166.09 392.27,-374.61 395.01,-452.65"/>
<polygon fill="black" stroke="black" points="391.5,-452.62 395.33,-462.5 398.5,-452.39 391.5,-452.62"/>
</g>
</g>
</svg>
