<?xml version="1.0" encoding="UTF-8" standalone="no"?>
<!DOCTYPE svg PUBLIC "-//W3C//DTD SVG 1.1//EN"
 "http://www.w3.org/Graphics/SVG/1.1/DTD/svg11.dtd">
<!-- Generated by graphviz version 14.1.1 (20251213.1925)
 -->
<!-- Title: Flow Pages: 1 -->
<svg width="800pt" height="175pt"
 viewBox="0.00 0.00 800.00 175.00" xmlns="http://www.w3.org/2000/svg" xmlns:xlink="http://www.w3.org/1999/xlink">
<g id="graph0" class="graph" transform="scale(1 1) rotate(0) translate(4 170.66)">
<title>Flow</title>
<polygon fill="white" stroke="none" points="-4,4 -4,-170.66 795.57,-170.66 795.57,4 -4,4"/>
<!-- RFC1246 -->
<g id="node1" class="node">
<title>RFC1246</title>
<g id="a_node1"><a xlink:title="This report documents experience with OSPF V2. &#160;This includes reports on interoperability testing, field experience, simulations and the current state of OSPF implementations. &#160;This memo provides information for the Internet community. &#160;It does not specify any Internet standard.">
<ellipse fill="green" stroke="black" cx="551.65" cy="-94.66" rx="148.67" ry="40.66"/>
<text xml:space="preserve" text-anchor="middle" x="551.65" y="-106.11" font-family="Times,serif" font-size="14.00">RFC1246</text>
<text xml:space="preserve" text-anchor="middle" x="551.65" y="-89.61" font-family="Times,serif" font-size="14.00">Experience with the OSPF Protocol</text>
<text xml:space="preserve" text-anchor="middle" x="551.65" y="-73.11" font-family="Times,serif" font-size="14.00">1991</text>
</a>
</g>
</g>
<!-- obs -->
<g id="node3" class="node">
<title>obs</title>
<polygon fill="lightblue" stroke="black" points="791.57,-166.66 725.32,-166.66 725.32,-130.66 791.57,-130.66 791.57,-166.66"/>
<text xml:space="preserve" text-anchor="middle" x="758.45" y="-143.61" font-family="Times,serif" font-size="14.00">obsoletes</text>
</g>
<!-- RFC1246&#45;&gt;obs -->
<g id="edge2" class="edge">
<title>RFC1246&#45;&gt;obs</title>
<path fill="none" stroke="black" d="M659.85,-122.92C679,-127.98 697.94,-132.97 713.96,-137.19"/>
<polygon fill="black" stroke="black" points="713.04,-140.57 723.6,-139.73 714.82,-133.8 713.04,-140.57"/>
</g>
<!-- updates -->
<g id="node4" class="node">
<title>updates</title>
<polygon fill="lightyellow" stroke="black" points="787.07,-112.66 729.82,-112.66 729.82,-76.66 787.07,-76.66 787.07,-112.66"/>
<text xml:space="preserve" text-anchor="middle" x="758.45" y="-89.61" font-family="Times,serif" font-size="14.00">updates</text>
</g>
<!-- RFC1246&#45;&gt;updates -->
<g id="edge3" class="edge">
<title>RFC1246&#45;&gt;updates</title>
<path fill="none" stroke="black" d="M700.67,-94.66C706.84,-94.66 712.74,-94.66 718.24,-94.66"/>
<polygon fill="black" stroke="black" points="718.07,-98.16 728.07,-94.66 718.07,-91.16 718.07,-98.16"/>
</g>
<!-- cites -->
<g id="node6" class="node">
<title>cites</title>
<polygon fill="lightblue" stroke="black" points="785.45,-58.66 731.45,-58.66 731.45,-22.66 785.45,-22.66 785.45,-58.66"/>
<text xml:space="preserve" text-anchor="middle" x="758.45" y="-35.61" font-family="Times,serif" font-size="14.00">cites</text>
</g>
<!-- RFC1246&#45;&gt;cites -->
<g id="edge5" class="edge">
<title>RFC1246&#45;&gt;cites</title>
<path fill="none" stroke="black" d="M659.85,-66.39C681.6,-60.66 703.06,-55 720.3,-50.45"/>
<polygon fill="black" stroke="black" points="720.73,-53.96 729.51,-48.02 718.95,-47.19 720.73,-53.96"/>
</g>
<!-- obs_by -->
<g id="node2" class="node">
<title>obs_by</title>
<polygon fill="lightblue" stroke="black" points="377.98,-166.66 311.73,-166.66 311.73,-130.66 377.98,-130.66 377.98,-166.66"/>
<text xml:space="preserve" text-anchor="middle" x="344.86" y="-143.61" font-family="Times,serif" font-size="14.00">obsoletes</text>
</g>
<!-- obs_by&#45;&gt;RFC1246 -->
<g id="edge1" class="edge">
<title>obs_by&#45;&gt;RFC1246</title>
<path fill="none" stroke="black" d="M378.31,-140.1C393.44,-136.11 412.47,-131.09 432.33,-125.86"/>
<polygon fill="black" stroke="black" points="433.18,-129.25 441.96,-123.32 431.39,-122.48 433.18,-129.25"/>
</g>
<!-- updated_by -->
<g id="node5" class="node">
<title>updated_by</title>
<polygon fill="lightyellow" stroke="black" points="373.48,-112.66 316.23,-112.66 316.23,-76.66 373.48,-76.66 373.48,-112.66"/>
<text xml:space="preserve" text-anchor="middle" x="344.86" y="-89.61" font-family="Times,serif" font-size="14.00">updates</text>
</g>
<!-- updated_by&#45;&gt;RFC1246 -->
<g id="edge4" class="edge">
<title>updated_by&#45;&gt;RFC1246</title>
<path fill="none" stroke="black" d="M373.9,-94.66C379.11,-94.66 384.87,-94.66 391.03,-94.66"/>
<polygon fill="black" stroke="black" points="391.03,-98.16 401.03,-94.66 391.03,-91.16 391.03,-98.16"/>
</g>
<!-- rev_cites -->
<g id="node7" class="node">
<title>rev_cites</title>
<polygon fill="lightblue" stroke="black" points="371.86,-58.66 317.86,-58.66 317.86,-22.66 371.86,-22.66 371.86,-58.66"/>
<text xml:space="preserve" text-anchor="middle" x="344.86" y="-35.61" font-family="Times,serif" font-size="14.00">cites</text>
</g>
<!-- rev_cites&#45;&gt;RFC1246 -->
<g id="edge6" class="edge">
<title>rev_cites&#45;&gt;RFC1246</title>
<path fill="none" stroke="black" d="M372.21,-47.61C388.25,-51.84 410,-57.57 432.79,-63.58"/>
<polygon fill="black" stroke="black" points="431.65,-66.9 442.21,-66.07 433.44,-60.13 431.65,-66.9"/>
</g>
<!-- RFC1585 -->
<g id="node8" class="node">
<title>RFC1585</title>
<g id="a_node8"><a xlink:href="RFC1585.html" xlink:title="This memo documents how the MOSPF protocol satisfies the requirements imposed on Internet routing protocols by Internet Engineering Task Force internet routing protocol standardization criteria ([RFC 1264]). &#160;This memo provides information for the Internet community. &#160;This memo does not specify an Internet standard of any kind." target="_top">
<ellipse fill="none" stroke="black" cx="143.37" cy="-40.66" rx="143.37" ry="40.66"/>
<text xml:space="preserve" text-anchor="middle" x="143.37" y="-52.11" font-family="Times,serif" font-size="14.00">RFC1585</text>
<text xml:space="preserve" text-anchor="middle" x="143.37" y="-35.61" font-family="Times,serif" font-size="14.00">MOSPF: Analysis and Experience</text>
<text xml:space="preserve" text-anchor="middle" x="143.37" y="-19.11" font-family="Times,serif" font-size="14.00">1994</text>
</a>
</g>
</g>
<!-- RFC1585&#45;&gt;rev_cites -->
<g id="edge7" class="edge">
<title>RFC1585&#45;&gt;rev_cites</title>
<path fill="none" stroke="black" d="M287.22,-40.66C293.9,-40.66 300.25,-40.66 306.13,-40.66"/>
<polygon fill="black" stroke="black" points="305.97,-44.16 315.97,-40.66 305.97,-37.16 305.97,-44.16"/>
</g>
</g>
</svg>
