<?xml version="1.0" encoding="UTF-8" standalone="no"?>
<!DOCTYPE svg PUBLIC "-//W3C//DTD SVG 1.1//EN"
 "http://www.w3.org/Graphics/SVG/1.1/DTD/svg11.dtd">
<!-- Generated by graphviz version 14.1.1 (20251213.1925)
 -->
<!-- Title: Flow Pages: 1 -->
<svg width="449pt" height="152pt"
 viewBox="0.00 0.00 449.00 152.00" xmlns="http://www.w3.org/2000/svg" xmlns:xlink="http://www.w3.org/1999/xlink">
<g id="graph0" class="graph" transform="scale(1 1) rotate(0) translate(4 148)">
<title>Flow</title>
<polygon fill="white" stroke="none" points="-4,4 -4,-148 444.59,-148 444.59,4 -4,4"/>
<!-- RFC1300 -->
<g id="node1" class="node">
<title>RFC1300</title>
<g id="a_node1"><a xlink:title="Poem. &#160;This memo provides information for the Internet community. &#160;It does not specify an Internet standard.">
<ellipse fill="green" stroke="black" cx="220.3" cy="-72" rx="129.05" ry="40.66"/>
<text xml:space="preserve" text-anchor="middle" x="220.3" y="-83.45" font-family="Times,serif" font-size="14.00">RFC1300</text>
<text xml:space="preserve" text-anchor="middle" x="220.3" y="-66.95" font-family="Times,serif" font-size="14.00">Remembrances of Things Past</text>
<text xml:space="preserve" text-anchor="middle" x="220.3" y="-50.45" font-family="Times,serif" font-size="14.00">1992</text>
</a>
</g>
</g>
<!-- obs -->
<g id="node3" class="node">
<title>obs</title>
<polygon fill="lightblue" stroke="black" points="440.59,-144 374.34,-144 374.34,-108 440.59,-108 440.59,-144"/>
<text xml:space="preserve" text-anchor="middle" x="407.47" y="-120.95" font-family="Times,serif" font-size="14.00">obsoletes</text>
</g>
<!-- RFC1300&#45;&gt;obs -->
<g id="edge2" class="edge">
<title>RFC1300&#45;&gt;obs</title>
<path fill="none" stroke="black" d="M316.05,-99.63C332.48,-104.42 348.82,-109.19 363,-113.32"/>
<polygon fill="black" stroke="black" points="361.83,-116.63 372.41,-116.07 363.79,-109.91 361.83,-116.63"/>
</g>
<!-- updates -->
<g id="node4" class="node">
<title>updates</title>
<polygon fill="lightyellow" stroke="black" points="436.09,-90 378.84,-90 378.84,-54 436.09,-54 436.09,-90"/>
<text xml:space="preserve" text-anchor="middle" x="407.47" y="-66.95" font-family="Times,serif" font-size="14.00">updates</text>
</g>
<!-- RFC1300&#45;&gt;updates -->
<g id="edge3" class="edge">
<title>RFC1300&#45;&gt;updates</title>
<path fill="none" stroke="black" d="M349.65,-72C355.74,-72 361.59,-72 367.06,-72"/>
<polygon fill="black" stroke="black" points="366.87,-75.5 376.87,-72 366.87,-68.5 366.87,-75.5"/>
</g>
<!-- cites -->
<g id="node6" class="node">
<title>cites</title>
<polygon fill="lightblue" stroke="black" points="434.47,-36 380.47,-36 380.47,0 434.47,0 434.47,-36"/>
<text xml:space="preserve" text-anchor="middle" x="407.47" y="-12.95" font-family="Times,serif" font-size="14.00">cites</text>
</g>
<!-- RFC1300&#45;&gt;cites -->
<g id="edge5" class="edge">
<title>RFC1300&#45;&gt;cites</title>
<path fill="none" stroke="black" d="M316.05,-44.37C335.1,-38.81 354.02,-33.29 369.6,-28.75"/>
<polygon fill="black" stroke="black" points="370.23,-32.21 378.85,-26.06 368.27,-25.49 370.23,-32.21"/>
</g>
<!-- obs_by -->
<g id="node2" class="node">
<title>obs_by</title>
<polygon fill="lightblue" stroke="black" points="66.25,-144 0,-144 0,-108 66.25,-108 66.25,-144"/>
<text xml:space="preserve" text-anchor="middle" x="33.12" y="-120.95" font-family="Times,serif" font-size="14.00">obsoletes</text>
</g>
<!-- obs_by&#45;&gt;RFC1300 -->
<g id="edge1" class="edge">
<title>obs_by&#45;&gt;RFC1300</title>
<path fill="none" stroke="black" d="M66.38,-116.59C79.94,-112.64 96.55,-107.79 113.78,-102.77"/>
<polygon fill="black" stroke="black" points="114.48,-106.21 123.11,-100.05 112.53,-99.49 114.48,-106.21"/>
</g>
<!-- updated_by -->
<g id="node5" class="node">
<title>updated_by</title>
<polygon fill="lightyellow" stroke="black" points="61.75,-90 4.5,-90 4.5,-54 61.75,-54 61.75,-90"/>
<text xml:space="preserve" text-anchor="middle" x="33.12" y="-66.95" font-family="Times,serif" font-size="14.00">updates</text>
</g>
<!-- updated_by&#45;&gt;RFC1300 -->
<g id="edge4" class="edge">
<title>updated_by&#45;&gt;RFC1300</title>
<path fill="none" stroke="black" d="M62.25,-72C67.5,-72 73.29,-72 79.47,-72"/>
<polygon fill="black" stroke="black" points="79.47,-75.5 89.47,-72 79.47,-68.5 79.47,-75.5"/>
</g>
<!-- rev_cites -->
<g id="node7" class="node">
<title>rev_cites</title>
<polygon fill="lightblue" stroke="black" points="60.12,-36 6.12,-36 6.12,0 60.12,0 60.12,-36"/>
<text xml:space="preserve" text-anchor="middle" x="33.12" y="-12.95" font-family="Times,serif" font-size="14.00">cites</text>
</g>
<!-- rev_cites&#45;&gt;RFC1300 -->
<g id="edge6" class="edge">
<title>rev_cites&#45;&gt;RFC1300</title>
<path fill="none" stroke="black" d="M60.26,-25.62C74.8,-29.86 93.95,-35.45 113.91,-41.27"/>
<polygon fill="black" stroke="black" points="112.7,-44.56 123.28,-44 114.66,-37.84 112.7,-44.56"/>
</g>
</g>
</svg>
