<?xml version="1.0" encoding="UTF-8" standalone="no"?>
<!DOCTYPE svg PUBLIC "-//W3C//DTD SVG 1.1//EN"
 "http://www.w3.org/Graphics/SVG/1.1/DTD/svg11.dtd">
<!-- Generated by graphviz version 14.1.1 (20251213.1925)
 -->
<!-- Title: Flow Pages: 1 -->
<svg width="1171pt" height="1076pt"
 viewBox="0.00 0.00 1171.00 1076.00" xmlns="http://www.w3.org/2000/svg" xmlns:xlink="http://www.w3.org/1999/xlink">
<g id="graph0" class="graph" transform="scale(1 1) rotate(0) translate(4 1072.15)">
<title>Flow</title>
<polygon fill="white" stroke="none" points="-4,4 -4,-1072.15 1166.63,-1072.15 1166.63,4 -4,4"/>
<!-- RFC1814 -->
<g id="node1" class="node">
<title>RFC1814</title>
<g id="a_node1"><a xlink:title="The IAB suggests that while RFC 1597 establishes reserved IP address space for the use of private networks which are isolated and will remain isolated from the Internet, any enterprise which anticipates external connectivity to the Internet should apply for a globally unique address from an Internet registry or service provider. &#160;This memo provides information for the Internet community. &#160;This memo does not specify an Internet standard of any kind.">
<ellipse fill="green" stroke="black" stroke-width="3" cx="374.29" cy="-717.54" rx="153.97" ry="50.2"/>
<text xml:space="preserve" text-anchor="middle" x="374.29" y="-731.94" font-family="Times,serif" font-size="18.00">RFC1814</text>
<text xml:space="preserve" text-anchor="middle" x="374.29" y="-710.94" font-family="Times,serif" font-size="18.00">Unique Addresses are Good</text>
<text xml:space="preserve" text-anchor="middle" x="374.29" y="-689.94" font-family="Times,serif" font-size="18.00">1995</text>
</a>
</g>
</g>
<!-- obs -->
<g id="node3" class="node">
<title>obs</title>
<polygon fill="lightblue" stroke="black" points="714.79,-883.57 648.54,-883.57 648.54,-847.57 714.79,-847.57 714.79,-883.57"/>
<text xml:space="preserve" text-anchor="middle" x="681.66" y="-860.52" font-family="Times,serif" font-size="14.00">obsoletes</text>
</g>
<!-- RFC1814&#45;&gt;obs -->
<g id="edge2" class="edge">
<title>RFC1814&#45;&gt;obs</title>
<path fill="none" stroke="black" d="M462.37,-759.96C519.97,-787.7 592.71,-822.73 638.22,-844.65"/>
<polygon fill="black" stroke="black" points="636.45,-847.68 646.98,-848.86 639.49,-841.37 636.45,-847.68"/>
</g>
<!-- updates -->
<g id="node4" class="node">
<title>updates</title>
<polygon fill="lightyellow" stroke="black" points="478.83,-1068.15 421.58,-1068.15 421.58,-1032.15 478.83,-1032.15 478.83,-1068.15"/>
<text xml:space="preserve" text-anchor="middle" x="450.2" y="-1045.1" font-family="Times,serif" font-size="14.00">updates</text>
</g>
<!-- RFC1814&#45;&gt;updates -->
<g id="edge3" class="edge">
<title>RFC1814&#45;&gt;updates</title>
<path fill="none" stroke="black" d="M385.98,-768.78C402.1,-839.38 430.6,-964.25 443.51,-1020.83"/>
<polygon fill="black" stroke="black" points="440.04,-1021.38 445.68,-1030.35 446.87,-1019.82 440.04,-1021.38"/>
</g>
<!-- cites -->
<g id="node6" class="node">
<title>cites</title>
<polygon fill="lightblue" stroke="black" points="188.58,-1002.27 134.58,-1002.27 134.58,-966.27 188.58,-966.27 188.58,-1002.27"/>
<text xml:space="preserve" text-anchor="middle" x="161.58" y="-979.22" font-family="Times,serif" font-size="14.00">cites</text>
</g>
<!-- RFC1814&#45;&gt;cites -->
<g id="edge5" class="edge">
<title>RFC1814&#45;&gt;cites</title>
<path fill="none" stroke="black" d="M334.53,-767.4C289.73,-823.57 218.57,-912.8 183.12,-957.26"/>
<polygon fill="black" stroke="black" points="180.56,-954.85 177.06,-964.85 186.03,-959.22 180.56,-954.85"/>
</g>
<!-- obs_by -->
<g id="node2" class="node">
<title>obs_by</title>
<polygon fill="lightblue" stroke="black" points="66.25,-735.54 0,-735.54 0,-699.54 66.25,-699.54 66.25,-735.54"/>
<text xml:space="preserve" text-anchor="middle" x="33.13" y="-712.49" font-family="Times,serif" font-size="14.00">obsoletes</text>
</g>
<!-- obs_by&#45;&gt;RFC1814 -->
<g id="edge1" class="edge">
<title>obs_by&#45;&gt;RFC1814</title>
<path fill="none" stroke="black" d="M66.46,-717.54C99.88,-717.54 153.93,-717.54 207.48,-717.54"/>
<polygon fill="black" stroke="black" points="207.38,-721.04 217.38,-717.54 207.38,-714.04 207.38,-721.04"/>
</g>
<!-- updated_by -->
<g id="node5" class="node">
<title>updated_by</title>
<polygon fill="lightyellow" stroke="black" points="190.2,-468.81 132.95,-468.81 132.95,-432.81 190.2,-432.81 190.2,-468.81"/>
<text xml:space="preserve" text-anchor="middle" x="161.58" y="-445.76" font-family="Times,serif" font-size="14.00">updates</text>
</g>
<!-- updated_by&#45;&gt;RFC1814 -->
<g id="edge4" class="edge">
<title>updated_by&#45;&gt;RFC1814</title>
<path fill="none" stroke="black" d="M176.2,-469.14C206.93,-507.68 279.35,-598.5 327.59,-658.98"/>
<polygon fill="black" stroke="black" points="324.6,-660.86 333.58,-666.49 330.08,-656.49 324.6,-660.86"/>
</g>
<!-- rev_cites -->
<g id="node7" class="node">
<title>rev_cites</title>
<polygon fill="lightblue" stroke="black" points="614,-468.81 560,-468.81 560,-432.81 614,-432.81 614,-468.81"/>
<text xml:space="preserve" text-anchor="middle" x="587" y="-445.76" font-family="Times,serif" font-size="14.00">cites</text>
</g>
<!-- rev_cites&#45;&gt;RFC1814 -->
<g id="edge6" class="edge">
<title>rev_cites&#45;&gt;RFC1814</title>
<path fill="none" stroke="black" d="M572.38,-469.14C541.65,-507.68 469.22,-598.5 420.99,-658.98"/>
<polygon fill="black" stroke="black" points="418.49,-656.49 415,-666.49 423.97,-660.86 418.49,-656.49"/>
</g>
<!-- RFC2050 -->
<g id="node8" class="node">
<title>RFC2050</title>
<g id="a_node8"><a xlink:href="RFC2050.html" xlink:title="This document describes the registry system for the distribution of globally unique Internet address space and registry operations. &#160;Particularly this document describes the rules and guidelines governing the distribution of this address space. &#160;This document specifies an Internet Best Current Practices for the Internet Community, and requests discussion and suggestions for improvements." target="_top">
<ellipse fill="none" stroke="black" cx="526.12" cy="-52.33" rx="129.58" ry="52.33"/>
<text xml:space="preserve" text-anchor="middle" x="526.12" y="-72.03" font-family="Times,serif" font-size="14.00">RFC2050</text>
<text xml:space="preserve" text-anchor="middle" x="526.12" y="-55.53" font-family="Times,serif" font-size="14.00">Internet Registry IP Allocation</text>
<text xml:space="preserve" text-anchor="middle" x="526.12" y="-39.03" font-family="Times,serif" font-size="14.00">Guidelines</text>
<text xml:space="preserve" text-anchor="middle" x="526.12" y="-22.53" font-family="Times,serif" font-size="14.00">1996</text>
</a>
</g>
</g>
<!-- RFC2050&#45;&gt;rev_cites -->
<g id="edge7" class="edge">
<title>RFC2050&#45;&gt;rev_cites</title>
<path fill="none" stroke="black" d="M534.14,-104.83C547.09,-189.59 572.18,-353.83 582.45,-421.05"/>
<polygon fill="black" stroke="black" points="578.99,-421.57 583.96,-430.93 585.91,-420.52 578.99,-421.57"/>
</g>
<!-- RFC2626 -->
<g id="node9" class="node">
<title>RFC2626</title>
<g id="a_node9"><a xlink:href="RFC2626.html" xlink:title="The Year 2000 Working Group (WG) has conducted an investigation into the millennium problem as it regards Internet related protocols. &#160;This investigation only targeted the protocols as documented in the Request For Comments Series (RFCs). &#160;This investigation discovered little reason for concern with regards to the functionality of the protocols. &#160;A few minor cases of older implementations still using two digit years (ala RFC 850) were discovered, but almost all Internet protocols were given a clean bill of health. &#160;Several cases of period problems were discovered, where a time field would roll over as the size of field was reached. &#160;In particular, there are several protocols, which have 32 bit, signed integer representations of the number of seconds since January 1, 1970 which will turn negative at Tue Jan 19 03:14:07 GMT 2038. &#160;Areas whose protocols will be effected by such problems have been notified so that new revisions will remove this limitation. &#160;This memo provides information for the Internet community." target="_top">
<ellipse fill="none" stroke="black" cx="989.04" cy="-421.49" rx="173.59" ry="52.33"/>
<text xml:space="preserve" text-anchor="middle" x="989.04" y="-441.19" font-family="Times,serif" font-size="14.00">RFC2626</text>
<text xml:space="preserve" text-anchor="middle" x="989.04" y="-424.69" font-family="Times,serif" font-size="14.00">The Internet and the Millennium Problem</text>
<text xml:space="preserve" text-anchor="middle" x="989.04" y="-408.19" font-family="Times,serif" font-size="14.00">(Year 2000)</text>
<text xml:space="preserve" text-anchor="middle" x="989.04" y="-391.69" font-family="Times,serif" font-size="14.00">1999</text>
</a>
</g>
</g>
<!-- RFC2626&#45;&gt;rev_cites -->
<g id="edge8" class="edge">
<title>RFC2626&#45;&gt;rev_cites</title>
<path fill="none" stroke="black" d="M819.99,-433.82C748.04,-439.07 670.48,-444.72 625.46,-448.01"/>
<polygon fill="black" stroke="black" points="625.43,-444.5 615.71,-448.72 625.94,-451.48 625.43,-444.5"/>
</g>
</g>
</svg>
