<?xml version="1.0" encoding="UTF-8" standalone="no"?>
<!DOCTYPE svg PUBLIC "-//W3C//DTD SVG 1.1//EN"
 "http://www.w3.org/Graphics/SVG/1.1/DTD/svg11.dtd">
<!-- Generated by graphviz version 14.1.1 (20251213.1925)
 -->
<!-- Title: Flow Pages: 1 -->
<svg width="687pt" height="152pt"
 viewBox="0.00 0.00 687.00 152.00" xmlns="http://www.w3.org/2000/svg" xmlns:xlink="http://www.w3.org/1999/xlink">
<g id="graph0" class="graph" transform="scale(1 1) rotate(0) translate(4 148)">
<title>Flow</title>
<polygon fill="white" stroke="none" points="-4,4 -4,-148 683.14,-148 683.14,4 -4,4"/>
<!-- RFC1571 -->
<g id="node1" class="node">
<title>RFC1571</title>
<g id="a_node1"><a xlink:title="This document describes a method for allowing implementors to ensure that their implementation of the Environment option will be interoperable with as many other implementations as possible, by providing a set of heuristics that can be used to help identify which definitions for VAR and VALUE are being used by the other side of the connection. &#160;This memo provides information for the Internet community. &#160;This memo does not specify an Internet standard of any kind.">
<ellipse fill="none" stroke="black" cx="209.16" cy="-72" rx="117.91" ry="52.33"/>
<text xml:space="preserve" text-anchor="middle" x="209.16" y="-91.7" font-family="Times,serif" font-size="14.00">RFC1571</text>
<text xml:space="preserve" text-anchor="middle" x="209.16" y="-75.2" font-family="Times,serif" font-size="14.00">Telnet Environment Option</text>
<text xml:space="preserve" text-anchor="middle" x="209.16" y="-58.7" font-family="Times,serif" font-size="14.00">Interoperability Issues</text>
<text xml:space="preserve" text-anchor="middle" x="209.16" y="-42.2" font-family="Times,serif" font-size="14.00">1994</text>
</a>
</g>
</g>
<!-- obs -->
<g id="node3" class="node">
<title>obs</title>
<polygon fill="none" stroke="black" points="418.32,-144 352.07,-144 352.07,-108 418.32,-108 418.32,-144"/>
<text xml:space="preserve" text-anchor="middle" x="385.2" y="-120.95" font-family="Times,serif" font-size="14.00">obsoletes</text>
</g>
<!-- RFC1571&#45;&gt;obs -->
<g id="edge2" class="edge">
<title>RFC1571&#45;&gt;obs</title>
<path fill="none" stroke="black" d="M306.59,-101.92C318.57,-105.64 330.31,-109.28 340.89,-112.56"/>
<polygon fill="black" stroke="black" points="339.83,-115.9 350.42,-115.52 341.9,-109.21 339.83,-115.9"/>
</g>
<!-- updates -->
<g id="node4" class="node">
<title>updates</title>
<polygon fill="none" stroke="black" points="413.82,-90 356.57,-90 356.57,-54 413.82,-54 413.82,-90"/>
<text xml:space="preserve" text-anchor="middle" x="385.2" y="-66.95" font-family="Times,serif" font-size="14.00">updates</text>
</g>
<!-- RFC1571&#45;&gt;updates -->
<g id="edge3" class="edge">
<title>RFC1571&#45;&gt;updates</title>
<path fill="none" stroke="black" d="M327.21,-72C333.32,-72 339.21,-72 344.73,-72"/>
<polygon fill="black" stroke="black" points="344.66,-75.5 354.66,-72 344.66,-68.5 344.66,-75.5"/>
</g>
<!-- cites -->
<g id="node7" class="node">
<title>cites</title>
<polygon fill="none" stroke="black" points="412.2,-36 358.2,-36 358.2,0 412.2,0 412.2,-36"/>
<text xml:space="preserve" text-anchor="middle" x="385.2" y="-12.95" font-family="Times,serif" font-size="14.00">cites</text>
</g>
<!-- RFC1571&#45;&gt;cites -->
<g id="edge6" class="edge">
<title>RFC1571&#45;&gt;cites</title>
<path fill="none" stroke="black" d="M306.59,-42.08C320.86,-37.65 334.78,-33.33 346.8,-29.6"/>
<polygon fill="black" stroke="black" points="347.74,-32.98 356.25,-26.67 345.66,-26.29 347.74,-32.98"/>
</g>
<!-- obs_by -->
<g id="node2" class="node">
<title>obs_by</title>
<polygon fill="none" stroke="black" points="66.25,-144 0,-144 0,-108 66.25,-108 66.25,-144"/>
<text xml:space="preserve" text-anchor="middle" x="33.12" y="-120.95" font-family="Times,serif" font-size="14.00">obsoletes</text>
</g>
<!-- obs_by&#45;&gt;RFC1571 -->
<g id="edge1" class="edge">
<title>obs_by&#45;&gt;RFC1571</title>
<path fill="none" stroke="black" d="M66.45,-115.97C76.56,-112.83 88.33,-109.18 100.68,-105.35"/>
<polygon fill="black" stroke="black" points="101.7,-108.7 110.22,-102.39 99.63,-102.01 101.7,-108.7"/>
</g>
<!-- RFC1408 -->
<g id="node5" class="node">
<title>RFC1408</title>
<g id="a_node5"><a xlink:href="RFC1408.html" xlink:title="This document specifies a mechanism for passing environment information between a telnet client and server. [STANDARDS&#45;TRACK]" target="_top">
<ellipse fill="none" stroke="black" cx="561.23" cy="-72" rx="117.91" ry="40.66"/>
<text xml:space="preserve" text-anchor="middle" x="561.23" y="-83.45" font-family="Times,serif" font-size="14.00">RFC1408</text>
<text xml:space="preserve" text-anchor="middle" x="561.23" y="-66.95" font-family="Times,serif" font-size="14.00">Telnet Environment Option</text>
<text xml:space="preserve" text-anchor="middle" x="561.23" y="-50.45" font-family="Times,serif" font-size="14.00">1993</text>
</a>
</g>
</g>
<!-- updates&#45;&gt;RFC1408 -->
<g id="edge4" class="edge">
<title>updates&#45;&gt;RFC1408</title>
<path fill="none" stroke="black" d="M414.16,-72C419.57,-72 425.57,-72 431.95,-72"/>
<polygon fill="black" stroke="black" points="431.5,-75.5 441.5,-72 431.5,-68.5 431.5,-75.5"/>
</g>
<!-- updated_by -->
<g id="node6" class="node">
<title>updated_by</title>
<polygon fill="none" stroke="black" points="61.75,-90 4.5,-90 4.5,-54 61.75,-54 61.75,-90"/>
<text xml:space="preserve" text-anchor="middle" x="33.12" y="-66.95" font-family="Times,serif" font-size="14.00">updates</text>
</g>
<!-- updated_by&#45;&gt;RFC1571 -->
<g id="edge5" class="edge">
<title>updated_by&#45;&gt;RFC1571</title>
<path fill="none" stroke="black" d="M62.09,-72C67.5,-72 73.5,-72 79.88,-72"/>
<polygon fill="black" stroke="black" points="79.43,-75.5 89.43,-72 79.43,-68.5 79.43,-75.5"/>
</g>
<!-- rev_cites -->
<g id="node8" class="node">
<title>rev_cites</title>
<polygon fill="none" stroke="black" points="60.12,-36 6.12,-36 6.12,0 60.12,0 60.12,-36"/>
<text xml:space="preserve" text-anchor="middle" x="33.12" y="-12.95" font-family="Times,serif" font-size="14.00">cites</text>
</g>
<!-- rev_cites&#45;&gt;RFC1571 -->
<g id="edge7" class="edge">
<title>rev_cites&#45;&gt;RFC1571</title>
<path fill="none" stroke="black" d="M60.56,-26.2C71.88,-29.72 85.92,-34.07 100.81,-38.69"/>
<polygon fill="black" stroke="black" points="99.73,-42.02 110.32,-41.64 101.81,-35.34 99.73,-42.02"/>
</g>
</g>
</svg>
