<?xml version="1.0" encoding="UTF-8" standalone="no"?>
<!DOCTYPE svg PUBLIC "-//W3C//DTD SVG 1.1//EN"
 "http://www.w3.org/Graphics/SVG/1.1/DTD/svg11.dtd">
<!-- Generated by graphviz version 14.1.1 (20251213.1925)
 -->
<!-- Title: Flow Pages: 1 -->
<svg width="1162pt" height="1087pt"
 viewBox="0.00 0.00 1162.00 1087.00" xmlns="http://www.w3.org/2000/svg" xmlns:xlink="http://www.w3.org/1999/xlink">
<g id="graph0" class="graph" transform="scale(1 1) rotate(0) translate(4 1082.86)">
<title>Flow</title>
<polygon fill="white" stroke="none" points="-4,4 -4,-1082.86 1157.84,-1082.86 1157.84,4 -4,4"/>
<!-- RFC1209 -->
<g id="node1" class="node">
<title>RFC1209</title>
<g id="a_node1"><a xlink:title="This memo defines a protocol for the transmission of IP and ARP packets over a Switched Multi&#45;megabit Data Service Network configured as a logical IP subnetwork. [STANDARDS&#45;TRACK]">
<ellipse fill="green" stroke="black" stroke-width="3" cx="381.94" cy="-720.79" rx="216.02" ry="65.05"/>
<text xml:space="preserve" text-anchor="middle" x="381.94" y="-745.69" font-family="Times,serif" font-size="18.00">RFC1209</text>
<text xml:space="preserve" text-anchor="middle" x="381.94" y="-724.69" font-family="Times,serif" font-size="18.00">The Transmission of IP Datagrams over</text>
<text xml:space="preserve" text-anchor="middle" x="381.94" y="-703.69" font-family="Times,serif" font-size="18.00">the SMDS Service</text>
<text xml:space="preserve" text-anchor="middle" x="381.94" y="-682.69" font-family="Times,serif" font-size="18.00">1991</text>
</a>
</g>
</g>
<!-- obs -->
<g id="node3" class="node">
<title>obs</title>
<polygon fill="lightblue" stroke="black" points="729.33,-890.14 663.08,-890.14 663.08,-854.14 729.33,-854.14 729.33,-890.14"/>
<text xml:space="preserve" text-anchor="middle" x="696.21" y="-867.09" font-family="Times,serif" font-size="14.00">obsoletes</text>
</g>
<!-- RFC1209&#45;&gt;obs -->
<g id="edge2" class="edge">
<title>RFC1209&#45;&gt;obs</title>
<path fill="none" stroke="black" d="M498.51,-776.93C552.23,-802.8 612.74,-831.94 652.5,-851.09"/>
<polygon fill="black" stroke="black" points="650.75,-854.13 661.28,-855.32 653.79,-847.83 650.75,-854.13"/>
</g>
<!-- updates -->
<g id="node4" class="node">
<title>updates</title>
<polygon fill="lightyellow" stroke="black" points="488.18,-1078.86 430.93,-1078.86 430.93,-1042.86 488.18,-1042.86 488.18,-1078.86"/>
<text xml:space="preserve" text-anchor="middle" x="459.56" y="-1055.81" font-family="Times,serif" font-size="14.00">updates</text>
</g>
<!-- RFC1209&#45;&gt;updates -->
<g id="edge3" class="edge">
<title>RFC1209&#45;&gt;updates</title>
<path fill="none" stroke="black" d="M397.09,-787.17C413.94,-861.03 440.43,-977.08 452.79,-1031.21"/>
<polygon fill="black" stroke="black" points="449.36,-1031.94 455,-1040.91 456.19,-1030.38 449.36,-1031.94"/>
</g>
<!-- cites -->
<g id="node6" class="node">
<title>cites</title>
<polygon fill="lightblue" stroke="black" points="191.46,-1011.51 137.46,-1011.51 137.46,-975.51 191.46,-975.51 191.46,-1011.51"/>
<text xml:space="preserve" text-anchor="middle" x="164.46" y="-988.46" font-family="Times,serif" font-size="14.00">cites</text>
</g>
<!-- RFC1209&#45;&gt;cites -->
<g id="edge5" class="edge">
<title>RFC1209&#45;&gt;cites</title>
<path fill="none" stroke="black" d="M330.4,-785.42C284.5,-842.97 219.61,-924.35 186.2,-966.24"/>
<polygon fill="black" stroke="black" points="183.62,-963.86 180.13,-973.86 189.1,-968.22 183.62,-963.86"/>
</g>
<!-- obs_by -->
<g id="node2" class="node">
<title>obs_by</title>
<polygon fill="lightblue" stroke="black" points="66.25,-738.79 0,-738.79 0,-702.79 66.25,-702.79 66.25,-738.79"/>
<text xml:space="preserve" text-anchor="middle" x="33.13" y="-715.74" font-family="Times,serif" font-size="14.00">obsoletes</text>
</g>
<!-- obs_by&#45;&gt;RFC1209 -->
<g id="edge1" class="edge">
<title>obs_by&#45;&gt;RFC1209</title>
<path fill="none" stroke="black" d="M66.57,-720.79C88.57,-720.79 119.52,-720.79 153.5,-720.79"/>
<polygon fill="black" stroke="black" points="153.11,-724.29 163.11,-720.79 153.11,-717.29 153.11,-724.29"/>
</g>
<!-- updated_by -->
<g id="node5" class="node">
<title>updated_by</title>
<polygon fill="lightyellow" stroke="black" points="193.08,-466.08 135.83,-466.08 135.83,-430.08 193.08,-430.08 193.08,-466.08"/>
<text xml:space="preserve" text-anchor="middle" x="164.46" y="-443.03" font-family="Times,serif" font-size="14.00">updates</text>
</g>
<!-- updated_by&#45;&gt;RFC1209 -->
<g id="edge4" class="edge">
<title>updated_by&#45;&gt;RFC1209</title>
<path fill="none" stroke="black" d="M179.06,-466.4C208.11,-502.82 274.54,-586.13 323.51,-647.53"/>
<polygon fill="black" stroke="black" points="320.69,-649.6 329.66,-655.24 326.16,-645.24 320.69,-649.6"/>
</g>
<!-- rev_cites -->
<g id="node7" class="node">
<title>rev_cites</title>
<polygon fill="lightblue" stroke="black" points="626.42,-466.08 572.42,-466.08 572.42,-430.08 626.42,-430.08 626.42,-466.08"/>
<text xml:space="preserve" text-anchor="middle" x="599.42" y="-443.03" font-family="Times,serif" font-size="14.00">cites</text>
</g>
<!-- rev_cites&#45;&gt;RFC1209 -->
<g id="edge6" class="edge">
<title>rev_cites&#45;&gt;RFC1209</title>
<path fill="none" stroke="black" d="M584.81,-466.4C555.76,-502.82 489.33,-586.13 440.36,-647.53"/>
<polygon fill="black" stroke="black" points="437.71,-645.24 434.21,-655.24 443.19,-649.6 437.71,-645.24"/>
</g>
<!-- RFC1584 -->
<g id="node8" class="node">
<title>RFC1584</title>
<g id="a_node8"><a xlink:href="RFC1584.html" xlink:title="This memo documents enhancements to the OSPF protocol enabling the routing of IP multicast datagrams. [STANDARDS&#45;TRACK]" target="_top">
<ellipse fill="none" stroke="black" cx="537.17" cy="-40.66" rx="127.99" ry="40.66"/>
<text xml:space="preserve" text-anchor="middle" x="537.17" y="-52.11" font-family="Times,serif" font-size="14.00">RFC1584</text>
<text xml:space="preserve" text-anchor="middle" x="537.17" y="-35.61" font-family="Times,serif" font-size="14.00">Multicast Extensions to OSPF</text>
<text xml:space="preserve" text-anchor="middle" x="537.17" y="-19.11" font-family="Times,serif" font-size="14.00">1994</text>
</a>
</g>
</g>
<!-- RFC1584&#45;&gt;rev_cites -->
<g id="edge7" class="edge">
<title>RFC1584&#45;&gt;rev_cites</title>
<path fill="none" stroke="black" d="M543.43,-81.59C555.99,-163.8 584.01,-347.25 594.94,-418.75"/>
<polygon fill="black" stroke="black" points="591.46,-419.14 596.43,-428.5 598.38,-418.08 591.46,-419.14"/>
</g>
<!-- RFC1585 -->
<g id="node9" class="node">
<title>RFC1585</title>
<g id="a_node9"><a xlink:href="RFC1585.html" xlink:title="This memo documents how the MOSPF protocol satisfies the requirements imposed on Internet routing protocols by Internet Engineering Task Force internet routing protocol standardization criteria ([RFC 1264]). &#160;This memo provides information for the Internet community. &#160;This memo does not specify an Internet standard of any kind." target="_top">
<ellipse fill="none" stroke="black" cx="1010.48" cy="-418.1" rx="143.37" ry="40.66"/>
<text xml:space="preserve" text-anchor="middle" x="1010.48" y="-429.55" font-family="Times,serif" font-size="14.00">RFC1585</text>
<text xml:space="preserve" text-anchor="middle" x="1010.48" y="-413.05" font-family="Times,serif" font-size="14.00">MOSPF: Analysis and Experience</text>
<text xml:space="preserve" text-anchor="middle" x="1010.48" y="-396.55" font-family="Times,serif" font-size="14.00">1994</text>
</a>
</g>
</g>
<!-- RFC1585&#45;&gt;rev_cites -->
<g id="edge8" class="edge">
<title>RFC1585&#45;&gt;rev_cites</title>
<path fill="none" stroke="black" d="M871.31,-428.25C789.03,-434.25 690.85,-441.41 637.88,-445.28"/>
<polygon fill="black" stroke="black" points="637.9,-441.77 628.18,-445.98 638.41,-448.75 637.9,-441.77"/>
</g>
</g>
</svg>
