<?xml version="1.0" encoding="UTF-8" standalone="no"?>
<!DOCTYPE svg PUBLIC "-//W3C//DTD SVG 1.1//EN"
 "http://www.w3.org/Graphics/SVG/1.1/DTD/svg11.dtd">
<!-- Generated by graphviz version 14.1.1 (20251213.1925)
 -->
<!-- Title: Flow Pages: 1 -->
<svg width="1913pt" height="1733pt"
 viewBox="0.00 0.00 1913.00 1733.00" xmlns="http://www.w3.org/2000/svg" xmlns:xlink="http://www.w3.org/1999/xlink">
<g id="graph0" class="graph" transform="scale(1 1) rotate(0) translate(4 1728.71)">
<title>Flow</title>
<polygon fill="white" stroke="none" points="-4,4 -4,-1728.71 1909.42,-1728.71 1909.42,4 -4,4"/>
<!-- RFC2011 -->
<g id="node1" class="node">
<title>RFC2011</title>
<g id="a_node1"><a xlink:title="This document is the MIB module which defines managed objects for managing implementations of the Internet Protocol (IP) and its associated Internet Control Message Protocol (ICMP). [STANDARDS&#45;TRACK]">
<ellipse fill="green" stroke="black" stroke-width="3" cx="991.2" cy="-850.69" rx="239.36" ry="65.05"/>
<text xml:space="preserve" text-anchor="middle" x="991.2" y="-875.59" font-family="Times,serif" font-size="18.00">RFC2011</text>
<text xml:space="preserve" text-anchor="middle" x="991.2" y="-854.59" font-family="Times,serif" font-size="18.00">SNMPv2 Management Information Base for</text>
<text xml:space="preserve" text-anchor="middle" x="991.2" y="-833.59" font-family="Times,serif" font-size="18.00">the Internet Protocol using SMIv2</text>
<text xml:space="preserve" text-anchor="middle" x="991.2" y="-812.59" font-family="Times,serif" font-size="18.00">1996</text>
</a>
</g>
</g>
<!-- obs -->
<g id="node4" class="node">
<title>obs</title>
<polygon fill="lightblue" stroke="black" points="1398.62,-1048.94 1332.37,-1048.94 1332.37,-1012.94 1398.62,-1012.94 1398.62,-1048.94"/>
<text xml:space="preserve" text-anchor="middle" x="1365.49" y="-1025.89" font-family="Times,serif" font-size="14.00">obsoletes</text>
</g>
<!-- RFC2011&#45;&gt;obs -->
<g id="edge3" class="edge">
<title>RFC2011&#45;&gt;obs</title>
<path fill="none" stroke="black" d="M1110.91,-908.34C1183.15,-943.13 1270.86,-985.37 1322.19,-1010.09"/>
<polygon fill="black" stroke="black" points="1320.38,-1013.1 1330.91,-1014.28 1323.42,-1006.79 1320.38,-1013.1"/>
</g>
<!-- updates -->
<g id="node5" class="node">
<title>updates</title>
<polygon fill="lightyellow" stroke="black" points="1112.27,-1273.71 1055.02,-1273.71 1055.02,-1237.71 1112.27,-1237.71 1112.27,-1273.71"/>
<text xml:space="preserve" text-anchor="middle" x="1083.64" y="-1250.66" font-family="Times,serif" font-size="14.00">updates</text>
</g>
<!-- RFC2011&#45;&gt;updates -->
<g id="edge4" class="edge">
<title>RFC2011&#45;&gt;updates</title>
<path fill="none" stroke="black" d="M1006.26,-916.66C1026.68,-1006.14 1062.29,-1162.17 1077,-1226.6"/>
<polygon fill="black" stroke="black" points="1073.52,-1227.08 1079.15,-1236.05 1080.34,-1225.52 1073.52,-1227.08"/>
</g>
<!-- cites -->
<g id="node8" class="node">
<title>cites</title>
<polygon fill="lightblue" stroke="black" points="759.18,-1193.49 705.18,-1193.49 705.18,-1157.49 759.18,-1157.49 759.18,-1193.49"/>
<text xml:space="preserve" text-anchor="middle" x="732.18" y="-1170.44" font-family="Times,serif" font-size="14.00">cites</text>
</g>
<!-- RFC2011&#45;&gt;cites -->
<g id="edge7" class="edge">
<title>RFC2011&#45;&gt;cites</title>
<path fill="none" stroke="black" d="M939.41,-915.64C882.7,-986.74 794.45,-1097.4 753.9,-1148.25"/>
<polygon fill="black" stroke="black" points="751.35,-1145.84 747.85,-1155.84 756.82,-1150.21 751.35,-1145.84"/>
</g>
<!-- obs_by -->
<g id="node2" class="node">
<title>obs_by</title>
<polygon fill="lightblue" stroke="black" points="608.89,-868.69 542.64,-868.69 542.64,-832.69 608.89,-832.69 608.89,-868.69"/>
<text xml:space="preserve" text-anchor="middle" x="575.77" y="-845.64" font-family="Times,serif" font-size="14.00">obsoletes</text>
</g>
<!-- obs_by&#45;&gt;RFC2011 -->
<g id="edge1" class="edge">
<title>obs_by&#45;&gt;RFC2011</title>
<path fill="none" stroke="black" d="M609.06,-850.69C639.47,-850.69 687.47,-850.69 739.32,-850.69"/>
<polygon fill="black" stroke="black" points="739.27,-854.19 749.27,-850.69 739.27,-847.19 739.27,-854.19"/>
</g>
<!-- RFC4293 -->
<g id="node3" class="node">
<title>RFC4293</title>
<g id="a_node3"><a xlink:href="RFC4293.html" xlink:title="This memo defines a portion of the Management Information Base (MIB) for use with network management protocols in the Internet community. &#160;In particular, it describes managed objects used for implementations of the Internet Protocol (IP) in an IP version independent manner. &#160;This memo obsoletes RFCs 2011, 2465, and 2466. [STANDARDS&#45;TRACK]" target="_top">
<ellipse fill="none" stroke="black" cx="160.34" cy="-850.69" rx="160.34" ry="52.33"/>
<text xml:space="preserve" text-anchor="middle" x="160.34" y="-870.39" font-family="Times,serif" font-size="14.00">RFC4293</text>
<text xml:space="preserve" text-anchor="middle" x="160.34" y="-853.89" font-family="Times,serif" font-size="14.00">Management Information Base for the</text>
<text xml:space="preserve" text-anchor="middle" x="160.34" y="-837.39" font-family="Times,serif" font-size="14.00">Internet Protocol (IP)</text>
<text xml:space="preserve" text-anchor="middle" x="160.34" y="-820.89" font-family="Times,serif" font-size="14.00">2006</text>
</a>
</g>
</g>
<!-- RFC4293&#45;&gt;obs_by -->
<g id="edge2" class="edge">
<title>RFC4293&#45;&gt;obs_by</title>
<path fill="none" stroke="black" d="M320.95,-850.69C396.42,-850.69 480.63,-850.69 530.86,-850.69"/>
<polygon fill="black" stroke="black" points="530.75,-854.19 540.75,-850.69 530.75,-847.19 530.75,-854.19"/>
</g>
<!-- RFC1213 -->
<g id="node6" class="node">
<title>RFC1213</title>
<g id="a_node6"><a xlink:href="RFC1213.html" xlink:title="This memo defines the second version of the Management Information Base (MIB&#45;II) for use with network management protocols in TCP/IP&#45;based internets. [STANDARDS&#45;TRACK]" target="_top">
<ellipse fill="none" stroke="black" cx="1176.08" cy="-1660.72" rx="182.08" ry="63.99"/>
<text xml:space="preserve" text-anchor="middle" x="1176.08" y="-1688.67" font-family="Times,serif" font-size="14.00">RFC1213</text>
<text xml:space="preserve" text-anchor="middle" x="1176.08" y="-1672.17" font-family="Times,serif" font-size="14.00">Management Information Base for Network</text>
<text xml:space="preserve" text-anchor="middle" x="1176.08" y="-1655.67" font-family="Times,serif" font-size="14.00">Management of TCP/IP&#45;based internets:</text>
<text xml:space="preserve" text-anchor="middle" x="1176.08" y="-1639.17" font-family="Times,serif" font-size="14.00">MIB&#45;II</text>
<text xml:space="preserve" text-anchor="middle" x="1176.08" y="-1622.67" font-family="Times,serif" font-size="14.00">1991</text>
</a>
</g>
</g>
<!-- updates&#45;&gt;RFC1213 -->
<g id="edge5" class="edge">
<title>updates&#45;&gt;RFC1213</title>
<path fill="none" stroke="black" d="M1087.85,-1274.16C1100.22,-1328.35 1136.94,-1489.2 1158.91,-1585.49"/>
<polygon fill="black" stroke="black" points="1155.48,-1586.17 1161.12,-1595.14 1162.3,-1584.61 1155.48,-1586.17"/>
</g>
<!-- updated_by -->
<g id="node7" class="node">
<title>updated_by</title>
<polygon fill="lightyellow" stroke="black" points="760.81,-543.89 703.56,-543.89 703.56,-507.89 760.81,-507.89 760.81,-543.89"/>
<text xml:space="preserve" text-anchor="middle" x="732.18" y="-520.84" font-family="Times,serif" font-size="14.00">updates</text>
</g>
<!-- updated_by&#45;&gt;RFC2011 -->
<g id="edge6" class="edge">
<title>updated_by&#45;&gt;RFC2011</title>
<path fill="none" stroke="black" d="M746.85,-544.29C781.94,-588.28 872.29,-701.58 932.73,-777.38"/>
<polygon fill="black" stroke="black" points="929.67,-779.15 938.64,-784.78 935.14,-774.78 929.67,-779.15"/>
</g>
<!-- rev_cites -->
<g id="node9" class="node">
<title>rev_cites</title>
<polygon fill="lightblue" stroke="black" points="1277.22,-543.89 1223.22,-543.89 1223.22,-507.89 1277.22,-507.89 1277.22,-543.89"/>
<text xml:space="preserve" text-anchor="middle" x="1250.22" y="-520.84" font-family="Times,serif" font-size="14.00">cites</text>
</g>
<!-- rev_cites&#45;&gt;RFC2011 -->
<g id="edge8" class="edge">
<title>rev_cites&#45;&gt;RFC2011</title>
<path fill="none" stroke="black" d="M1235.55,-544.29C1200.46,-588.28 1110.11,-701.58 1049.67,-777.38"/>
<polygon fill="black" stroke="black" points="1047.26,-774.78 1043.76,-784.78 1052.73,-779.15 1047.26,-774.78"/>
</g>
<!-- RFC4292 -->
<g id="node10" class="node">
<title>RFC4292</title>
<g id="a_node10"><a xlink:href="RFC4292.html" xlink:title="This document defines a portion of the Management Information Base (MIB) for use with network management protocols in the Internet community. &#160;In particular, it describes managed objects related to the forwarding of Internet Protocol (IP) packets in an IP version&#45;independent manner. &#160;This document obsoletes RFC 2096. [STANDARDS&#45;TRACK]" target="_top">
<ellipse fill="none" stroke="black" cx="1176.08" cy="-40.66" rx="111.55" ry="40.66"/>
<text xml:space="preserve" text-anchor="middle" x="1176.08" y="-52.11" font-family="Times,serif" font-size="14.00">RFC4292</text>
<text xml:space="preserve" text-anchor="middle" x="1176.08" y="-35.61" font-family="Times,serif" font-size="14.00">IP Forwarding Table MIB</text>
<text xml:space="preserve" text-anchor="middle" x="1176.08" y="-19.11" font-family="Times,serif" font-size="14.00">2006</text>
</a>
</g>
</g>
<!-- RFC4292&#45;&gt;rev_cites -->
<g id="edge9" class="edge">
<title>RFC4292&#45;&gt;rev_cites</title>
<path fill="none" stroke="black" d="M1182.34,-81.61C1196.93,-177.12 1232.94,-412.79 1245.67,-496.12"/>
<polygon fill="black" stroke="black" points="1242.21,-496.64 1247.18,-505.99 1249.13,-495.58 1242.21,-496.64"/>
</g>
<!-- RFC7381 -->
<g id="node11" class="node">
<title>RFC7381</title>
<g id="a_node11"><a xlink:href="RFC7381.html" xlink:title="Enterprise network administrators worldwide are in various stages of preparing for or deploying IPv6 into their networks. &#160;The administrators face different challenges than operators of Internet access providers and have reasons for different priorities. &#160;The overall problem for many administrators will be to offer Internet&#45; facing services over IPv6 while continuing to support IPv4, and while introducing IPv6 access within the enterprise IT network. &#160;The overall transition will take most networks from an IPv4&#45;only environment to a dual&#45;stack network environment and eventually an IPv6&#45;only operating mode. &#160;This document helps provide a framework for enterprise network architects or administrators who may be faced with many of these challenges as they consider their IPv6 support strategies." target="_top">
<ellipse fill="none" stroke="black" cx="1739.78" cy="-490.19" rx="165.64" ry="40.66"/>
<text xml:space="preserve" text-anchor="middle" x="1739.78" y="-501.64" font-family="Times,serif" font-size="14.00">RFC7381</text>
<text xml:space="preserve" text-anchor="middle" x="1739.78" y="-485.14" font-family="Times,serif" font-size="14.00">Enterprise IPv6 Deployment Guidelines</text>
<text xml:space="preserve" text-anchor="middle" x="1739.78" y="-468.64" font-family="Times,serif" font-size="14.00">2014</text>
</a>
</g>
</g>
<!-- RFC7381&#45;&gt;rev_cites -->
<g id="edge10" class="edge">
<title>RFC7381&#45;&gt;rev_cites</title>
<path fill="none" stroke="black" d="M1580.5,-501.81C1477.44,-509.32 1351.27,-518.52 1288.91,-523.07"/>
<polygon fill="black" stroke="black" points="1288.9,-519.56 1279.18,-523.78 1289.41,-526.54 1288.9,-519.56"/>
</g>
</g>
</svg>
