<?xml version="1.0" encoding="UTF-8" standalone="no"?>
<!DOCTYPE svg PUBLIC "-//W3C//DTD SVG 1.1//EN"
 "http://www.w3.org/Graphics/SVG/1.1/DTD/svg11.dtd">
<!-- Generated by graphviz version 14.1.1 (20251213.1925)
 -->
<!-- Title: Flow Pages: 1 -->
<svg width="1028pt" height="311pt"
 viewBox="0.00 0.00 1028.00 311.00" xmlns="http://www.w3.org/2000/svg" xmlns:xlink="http://www.w3.org/1999/xlink">
<g id="graph0" class="graph" transform="scale(1 1) rotate(0) translate(4 306.98)">
<title>Flow</title>
<polygon fill="white" stroke="none" points="-4,4 -4,-306.98 1023.51,-306.98 1023.51,4 -4,4"/>
<!-- RFC2964 -->
<g id="node1" class="node">
<title>RFC2964</title>
<g id="a_node1"><a xlink:title="This memo identifies specific uses of Hypertext Transfer Protocol (HTTP) State Management protocol which are either (a) not recommended by the IETF, or (b) believed to be harmful, and discouraged. &#160;This memo also details additional privacy considerations which are not covered by the HTTP State Management protocol specification. &#160;This document specifies an Internet Best Current Practices for the Internet Community, and requests discussion and suggestions for improvements.">
<ellipse fill="green" stroke="black" cx="448.77" cy="-193.66" rx="138.06" ry="40.66"/>
<text xml:space="preserve" text-anchor="middle" x="448.77" y="-205.11" font-family="Times,serif" font-size="14.00">RFC2964</text>
<text xml:space="preserve" text-anchor="middle" x="448.77" y="-188.61" font-family="Times,serif" font-size="14.00">Use of HTTP State Management</text>
<text xml:space="preserve" text-anchor="middle" x="448.77" y="-172.11" font-family="Times,serif" font-size="14.00">2000</text>
</a>
</g>
</g>
<!-- obs -->
<g id="node3" class="node">
<title>obs</title>
<polygon fill="lightblue" stroke="black" points="678.08,-265.66 611.83,-265.66 611.83,-229.66 678.08,-229.66 678.08,-265.66"/>
<text xml:space="preserve" text-anchor="middle" x="644.95" y="-242.61" font-family="Times,serif" font-size="14.00">obsoletes</text>
</g>
<!-- RFC2964&#45;&gt;obs -->
<g id="edge2" class="edge">
<title>RFC2964&#45;&gt;obs</title>
<path fill="none" stroke="black" d="M550.27,-221.61C567.97,-226.53 585.52,-231.41 600.56,-235.59"/>
<polygon fill="black" stroke="black" points="599.5,-238.93 610.08,-238.24 601.38,-232.19 599.5,-238.93"/>
</g>
<!-- updates -->
<g id="node4" class="node">
<title>updates</title>
<polygon fill="lightyellow" stroke="black" points="673.58,-211.66 616.33,-211.66 616.33,-175.66 673.58,-175.66 673.58,-211.66"/>
<text xml:space="preserve" text-anchor="middle" x="644.95" y="-188.61" font-family="Times,serif" font-size="14.00">updates</text>
</g>
<!-- RFC2964&#45;&gt;updates -->
<g id="edge3" class="edge">
<title>RFC2964&#45;&gt;updates</title>
<path fill="none" stroke="black" d="M587.27,-193.66C593.39,-193.66 599.24,-193.66 604.72,-193.66"/>
<polygon fill="black" stroke="black" points="604.52,-197.16 614.52,-193.66 604.52,-190.16 604.52,-197.16"/>
</g>
<!-- cites -->
<g id="node6" class="node">
<title>cites</title>
<polygon fill="lightblue" stroke="black" points="671.95,-157.66 617.95,-157.66 617.95,-121.66 671.95,-121.66 671.95,-157.66"/>
<text xml:space="preserve" text-anchor="middle" x="644.95" y="-134.61" font-family="Times,serif" font-size="14.00">cites</text>
</g>
<!-- RFC2964&#45;&gt;cites -->
<g id="edge5" class="edge">
<title>RFC2964&#45;&gt;cites</title>
<path fill="none" stroke="black" d="M550.27,-165.71C570.58,-160.06 590.68,-154.47 607.03,-149.93"/>
<polygon fill="black" stroke="black" points="607.54,-153.42 616.24,-147.37 605.67,-146.67 607.54,-153.42"/>
</g>
<!-- obs_by -->
<g id="node2" class="node">
<title>obs_by</title>
<polygon fill="lightblue" stroke="black" points="285.7,-265.66 219.45,-265.66 219.45,-229.66 285.7,-229.66 285.7,-265.66"/>
<text xml:space="preserve" text-anchor="middle" x="252.58" y="-242.61" font-family="Times,serif" font-size="14.00">obsoletes</text>
</g>
<!-- obs_by&#45;&gt;RFC2964 -->
<g id="edge1" class="edge">
<title>obs_by&#45;&gt;RFC2964</title>
<path fill="none" stroke="black" d="M286.08,-238.62C300.34,-234.65 318,-229.74 336.37,-224.64"/>
<polygon fill="black" stroke="black" points="337.08,-228.07 345.78,-222.02 335.21,-221.33 337.08,-228.07"/>
</g>
<!-- updated_by -->
<g id="node5" class="node">
<title>updated_by</title>
<polygon fill="lightyellow" stroke="black" points="281.2,-211.66 223.95,-211.66 223.95,-175.66 281.2,-175.66 281.2,-211.66"/>
<text xml:space="preserve" text-anchor="middle" x="252.58" y="-188.61" font-family="Times,serif" font-size="14.00">updates</text>
</g>
<!-- updated_by&#45;&gt;RFC2964 -->
<g id="edge4" class="edge">
<title>updated_by&#45;&gt;RFC2964</title>
<path fill="none" stroke="black" d="M281.4,-193.66C286.78,-193.66 292.74,-193.66 299.13,-193.66"/>
<polygon fill="black" stroke="black" points="298.72,-197.16 308.72,-193.66 298.72,-190.16 298.72,-197.16"/>
</g>
<!-- RFC1123 -->
<g id="node7" class="node">
<title>RFC1123</title>
<g id="a_node7"><a xlink:href="RFC1123.html" xlink:title="This RFC is an official specification for the Internet community. &#160;It incorporates by reference, amends, corrects, and supplements the primary protocol standards documents relating to hosts. [STANDARDS&#45;TRACK]" target="_top">
<ellipse fill="none" stroke="black" cx="861.29" cy="-250.66" rx="141.24" ry="52.33"/>
<text xml:space="preserve" text-anchor="middle" x="861.29" y="-270.36" font-family="Times,serif" font-size="14.00">RFC1123</text>
<text xml:space="preserve" text-anchor="middle" x="861.29" y="-253.86" font-family="Times,serif" font-size="14.00">Requirements for Internet Hosts &#45;</text>
<text xml:space="preserve" text-anchor="middle" x="861.29" y="-237.36" font-family="Times,serif" font-size="14.00">Application and Support</text>
<text xml:space="preserve" text-anchor="middle" x="861.29" y="-220.86" font-family="Times,serif" font-size="14.00">1989</text>
</a>
</g>
</g>
<!-- cites&#45;&gt;RFC1123 -->
<g id="edge6" class="edge">
<title>cites&#45;&gt;RFC1123</title>
<path fill="none" stroke="black" d="M668.19,-158.12C671.52,-160.96 674.91,-163.87 678.08,-166.66 689.42,-176.63 690.26,-181.68 703.08,-189.66 715.98,-197.69 730.11,-204.97 744.44,-211.48"/>
<polygon fill="black" stroke="black" points="742.95,-214.65 753.51,-215.47 745.77,-208.24 742.95,-214.65"/>
</g>
<!-- RFC2965 -->
<g id="node8" class="node">
<title>RFC2965</title>
<g id="a_node8"><a xlink:href="RFC2965.html" xlink:title="This document specifies a way to create a stateful session with Hypertext Transfer Protocol (HTTP) requests and responses. [STANDARDS&#45;TRACK]" target="_top">
<ellipse fill="none" stroke="black" cx="861.29" cy="-139.66" rx="158.22" ry="40.66"/>
<text xml:space="preserve" text-anchor="middle" x="861.29" y="-151.11" font-family="Times,serif" font-size="14.00">RFC2965</text>
<text xml:space="preserve" text-anchor="middle" x="861.29" y="-134.61" font-family="Times,serif" font-size="14.00">HTTP State Management Mechanism</text>
<text xml:space="preserve" text-anchor="middle" x="861.29" y="-118.11" font-family="Times,serif" font-size="14.00">2000</text>
</a>
</g>
</g>
<!-- cites&#45;&gt;RFC2965 -->
<g id="edge7" class="edge">
<title>cites&#45;&gt;RFC2965</title>
<path fill="none" stroke="black" d="M672.24,-139.66C677.96,-139.66 684.42,-139.66 691.41,-139.66"/>
<polygon fill="black" stroke="black" points="691.28,-143.16 701.28,-139.66 691.28,-136.16 691.28,-143.16"/>
</g>
<!-- RFC2109 -->
<g id="node9" class="node">
<title>RFC2109</title>
<g id="a_node9"><a xlink:href="RFC2109.html" xlink:title="This document specifies a way to create a stateful session with HTTP requests and responses. &#160;It describes two new headers, Cookie and Set&#45; Cookie, which carry state information between participating origin servers and user agents. &#160;The method described here differs from Netscape&#39;s Cookie proposal, but it can interoperate with HTTP/1.0 user agents that use Netscape&#39;s method. [STANDARDS&#45;TRACK]" target="_top">
<ellipse fill="none" stroke="black" cx="861.29" cy="-40.66" rx="158.22" ry="40.66"/>
<text xml:space="preserve" text-anchor="middle" x="861.29" y="-52.11" font-family="Times,serif" font-size="14.00">RFC2109</text>
<text xml:space="preserve" text-anchor="middle" x="861.29" y="-35.61" font-family="Times,serif" font-size="14.00">HTTP State Management Mechanism</text>
<text xml:space="preserve" text-anchor="middle" x="861.29" y="-19.11" font-family="Times,serif" font-size="14.00">1997</text>
</a>
</g>
</g>
<!-- cites&#45;&gt;RFC2109 -->
<g id="edge8" class="edge">
<title>cites&#45;&gt;RFC2109</title>
<path fill="none" stroke="black" d="M662.98,-121.33C673.63,-110.79 688.13,-98.03 703.08,-89.66 713.88,-83.61 725.53,-78.2 737.43,-73.4"/>
<polygon fill="black" stroke="black" points="738.46,-76.75 746.52,-69.87 735.93,-70.22 738.46,-76.75"/>
</g>
<!-- rev_cites -->
<g id="node10" class="node">
<title>rev_cites</title>
<polygon fill="lightblue" stroke="black" points="279.58,-157.66 225.58,-157.66 225.58,-121.66 279.58,-121.66 279.58,-157.66"/>
<text xml:space="preserve" text-anchor="middle" x="252.58" y="-134.61" font-family="Times,serif" font-size="14.00">cites</text>
</g>
<!-- rev_cites&#45;&gt;RFC2964 -->
<g id="edge9" class="edge">
<title>rev_cites&#45;&gt;RFC2964</title>
<path fill="none" stroke="black" d="M279.77,-146.94C295,-151.18 315.35,-156.84 336.62,-162.75"/>
<polygon fill="black" stroke="black" points="335.43,-166.05 346.01,-165.36 337.31,-159.31 335.43,-166.05"/>
</g>
<!-- RFC8216 -->
<g id="node11" class="node">
<title>RFC8216</title>
<g id="a_node11"><a xlink:href="RFC8216.html" xlink:title="This document describes a protocol for transferring unbounded streams of multimedia data. &#160;It specifies the data format of the files and the actions to be taken by the server (sender) and the clients (receivers) of the streams. &#160;It describes version 7 of this protocol." target="_top">
<ellipse fill="none" stroke="black" cx="97.23" cy="-139.66" rx="97.23" ry="40.66"/>
<text xml:space="preserve" text-anchor="middle" x="97.23" y="-151.11" font-family="Times,serif" font-size="14.00">RFC8216</text>
<text xml:space="preserve" text-anchor="middle" x="97.23" y="-134.61" font-family="Times,serif" font-size="14.00">HTTP Live Streaming</text>
<text xml:space="preserve" text-anchor="middle" x="97.23" y="-118.11" font-family="Times,serif" font-size="14.00">2017</text>
</a>
</g>
</g>
<!-- RFC8216&#45;&gt;rev_cites -->
<g id="edge10" class="edge">
<title>RFC8216&#45;&gt;rev_cites</title>
<path fill="none" stroke="black" d="M194.91,-139.66C201.45,-139.66 207.77,-139.66 213.68,-139.66"/>
<polygon fill="black" stroke="black" points="213.64,-143.16 223.64,-139.66 213.64,-136.16 213.64,-143.16"/>
</g>
</g>
</svg>
