<?xml version="1.0" encoding="UTF-8" standalone="no"?>
<!DOCTYPE svg PUBLIC "-//W3C//DTD SVG 1.1//EN"
 "http://www.w3.org/Graphics/SVG/1.1/DTD/svg11.dtd">
<!-- Generated by graphviz version 14.1.1 (20251213.1925)
 -->
<!-- Title: Flow Pages: 1 -->
<svg width="1714pt" height="1419pt"
 viewBox="0.00 0.00 1714.00 1419.00" xmlns="http://www.w3.org/2000/svg" xmlns:xlink="http://www.w3.org/1999/xlink">
<g id="graph0" class="graph" transform="scale(1 1) rotate(0) translate(4 1415.07)">
<title>Flow</title>
<polygon fill="white" stroke="none" points="-4,4 -4,-1415.07 1709.72,-1415.07 1709.72,4 -4,4"/>
<!-- RFC2138 -->
<g id="node1" class="node">
<title>RFC2138</title>
<g id="a_node1"><a xlink:title="This document describes a protocol for carrying authentication, authorization, and configuration information between a Network Access Server which desires to authenticate its links and a shared Authentication Server. [STANDARDS&#45;TRACK]">
<ellipse fill="green" stroke="black" stroke-width="3" cx="768.85" cy="-842.8" rx="197.46" ry="65.05"/>
<text xml:space="preserve" text-anchor="middle" x="768.85" y="-867.7" font-family="Times,serif" font-size="18.00">RFC2138</text>
<text xml:space="preserve" text-anchor="middle" x="768.85" y="-846.7" font-family="Times,serif" font-size="18.00">Remote Authentication Dial In User</text>
<text xml:space="preserve" text-anchor="middle" x="768.85" y="-825.7" font-family="Times,serif" font-size="18.00">Service (RADIUS)</text>
<text xml:space="preserve" text-anchor="middle" x="768.85" y="-804.7" font-family="Times,serif" font-size="18.00">1997</text>
</a>
</g>
</g>
<!-- obs -->
<g id="node4" class="node">
<title>obs</title>
<polygon fill="lightblue" stroke="black" points="1179.11,-998.06 1112.86,-998.06 1112.86,-962.06 1179.11,-962.06 1179.11,-998.06"/>
<text xml:space="preserve" text-anchor="middle" x="1145.98" y="-975.01" font-family="Times,serif" font-size="14.00">obsoletes</text>
</g>
<!-- RFC2138&#45;&gt;obs -->
<g id="edge3" class="edge">
<title>RFC2138&#45;&gt;obs</title>
<path fill="none" stroke="black" d="M903.41,-891.77C973.08,-917.13 1053.49,-946.4 1101.99,-964.05"/>
<polygon fill="black" stroke="black" points="1100.71,-967.31 1111.3,-967.44 1103.1,-960.73 1100.71,-967.31"/>
</g>
<!-- updates -->
<g id="node6" class="node">
<title>updates</title>
<polygon fill="lightyellow" stroke="black" points="998.14,-1208.36 940.89,-1208.36 940.89,-1172.36 998.14,-1172.36 998.14,-1208.36"/>
<text xml:space="preserve" text-anchor="middle" x="969.52" y="-1185.31" font-family="Times,serif" font-size="14.00">updates</text>
</g>
<!-- RFC2138&#45;&gt;updates -->
<g id="edge5" class="edge">
<title>RFC2138&#45;&gt;updates</title>
<path fill="none" stroke="black" d="M806.36,-907.77C850.48,-984.18 921.72,-1107.57 953.42,-1162.48"/>
<polygon fill="black" stroke="black" points="950.25,-1163.99 958.28,-1170.9 956.31,-1160.49 950.25,-1163.99"/>
</g>
<!-- cites -->
<g id="node8" class="node">
<title>cites</title>
<polygon fill="lightblue" stroke="black" points="726.16,-1256.04 672.16,-1256.04 672.16,-1220.04 726.16,-1220.04 726.16,-1256.04"/>
<text xml:space="preserve" text-anchor="middle" x="699.16" y="-1232.99" font-family="Times,serif" font-size="14.00">cites</text>
</g>
<!-- RFC2138&#45;&gt;cites -->
<g id="edge7" class="edge">
<title>RFC2138&#45;&gt;cites</title>
<path fill="none" stroke="black" d="M757.19,-908.95C741.83,-996.07 715.46,-1145.58 704.35,-1208.63"/>
<polygon fill="black" stroke="black" points="700.95,-1207.76 702.66,-1218.21 707.84,-1208.97 700.95,-1207.76"/>
</g>
<!-- obs_by -->
<g id="node2" class="node">
<title>obs_by</title>
<polygon fill="lightblue" stroke="black" points="494.54,-1118.77 428.29,-1118.77 428.29,-1082.77 494.54,-1082.77 494.54,-1118.77"/>
<text xml:space="preserve" text-anchor="middle" x="461.41" y="-1095.72" font-family="Times,serif" font-size="14.00">obsoletes</text>
</g>
<!-- obs_by&#45;&gt;RFC2138 -->
<g id="edge1" class="edge">
<title>obs_by&#45;&gt;RFC2138</title>
<path fill="none" stroke="black" d="M483.03,-1082.63C524.65,-1047.71 617.85,-969.51 686.56,-911.85"/>
<polygon fill="black" stroke="black" points="688.67,-914.65 694.08,-905.54 684.17,-909.29 688.67,-914.65"/>
</g>
<!-- RFC2865 -->
<g id="node3" class="node">
<title>RFC2865</title>
<g id="a_node3"><a xlink:href="RFC2865.html" xlink:title="This document describes a protocol for carrying authentication, authorization, and configuration information between a Network Access Server which desires to authenticate its links and a shared Authentication Server. [STANDARDS&#45;TRACK]" target="_top">
<ellipse fill="none" stroke="black" cx="153.97" cy="-1358.74" rx="150.79" ry="52.33"/>
<text xml:space="preserve" text-anchor="middle" x="153.97" y="-1378.44" font-family="Times,serif" font-size="14.00">RFC2865</text>
<text xml:space="preserve" text-anchor="middle" x="153.97" y="-1361.94" font-family="Times,serif" font-size="14.00">Remote Authentication Dial In User</text>
<text xml:space="preserve" text-anchor="middle" x="153.97" y="-1345.44" font-family="Times,serif" font-size="14.00">Service (RADIUS)</text>
<text xml:space="preserve" text-anchor="middle" x="153.97" y="-1328.94" font-family="Times,serif" font-size="14.00">2000</text>
</a>
</g>
</g>
<!-- RFC2865&#45;&gt;obs_by -->
<g id="edge2" class="edge">
<title>RFC2865&#45;&gt;obs_by</title>
<path fill="none" stroke="black" d="M211.8,-1310.22C276.78,-1255.7 379.82,-1169.24 430.79,-1126.47"/>
<polygon fill="black" stroke="black" points="432.82,-1129.34 438.23,-1120.23 428.32,-1123.97 432.82,-1129.34"/>
</g>
<!-- RFC2058 -->
<g id="node5" class="node">
<title>RFC2058</title>
<g id="a_node5"><a xlink:href="RFC2058.html" xlink:title="This document describes a protocol for carrying authentication, authorization, and configuration information between a Network Access Server which desires to authenticate its links and a shared Authentication Server. [STANDARDS&#45;TRACK]" target="_top">
<ellipse fill="none" stroke="black" cx="1523.11" cy="-1117.33" rx="150.79" ry="52.33"/>
<text xml:space="preserve" text-anchor="middle" x="1523.11" y="-1137.03" font-family="Times,serif" font-size="14.00">RFC2058</text>
<text xml:space="preserve" text-anchor="middle" x="1523.11" y="-1120.53" font-family="Times,serif" font-size="14.00">Remote Authentication Dial In User</text>
<text xml:space="preserve" text-anchor="middle" x="1523.11" y="-1104.03" font-family="Times,serif" font-size="14.00">Service (RADIUS)</text>
<text xml:space="preserve" text-anchor="middle" x="1523.11" y="-1087.53" font-family="Times,serif" font-size="14.00">1997</text>
</a>
</g>
</g>
<!-- obs&#45;&gt;RFC2058 -->
<g id="edge4" class="edge">
<title>obs&#45;&gt;RFC2058</title>
<path fill="none" stroke="black" d="M1179.45,-992.24C1230.26,-1010.74 1329.27,-1046.77 1408.02,-1075.44"/>
<polygon fill="black" stroke="black" points="1406.48,-1078.6 1417.07,-1078.73 1408.87,-1072.02 1406.48,-1078.6"/>
</g>
<!-- updated_by -->
<g id="node7" class="node">
<title>updated_by</title>
<polygon fill="lightyellow" stroke="black" points="396.14,-860.8 338.89,-860.8 338.89,-824.8 396.14,-824.8 396.14,-860.8"/>
<text xml:space="preserve" text-anchor="middle" x="367.52" y="-837.75" font-family="Times,serif" font-size="14.00">updates</text>
</g>
<!-- updated_by&#45;&gt;RFC2138 -->
<g id="edge6" class="edge">
<title>updated_by&#45;&gt;RFC2138</title>
<path fill="none" stroke="black" d="M396.38,-842.8C431.64,-842.8 494.55,-842.8 558.75,-842.8"/>
<polygon fill="black" stroke="black" points="558.38,-846.3 568.38,-842.8 558.38,-839.3 558.38,-846.3"/>
</g>
<!-- rev_cites -->
<g id="node9" class="node">
<title>rev_cites</title>
<polygon fill="lightblue" stroke="black" points="865.54,-465.56 811.54,-465.56 811.54,-429.56 865.54,-429.56 865.54,-465.56"/>
<text xml:space="preserve" text-anchor="middle" x="838.54" y="-442.51" font-family="Times,serif" font-size="14.00">cites</text>
</g>
<!-- rev_cites&#45;&gt;RFC2138 -->
<g id="edge8" class="edge">
<title>rev_cites&#45;&gt;RFC2138</title>
<path fill="none" stroke="black" d="M835.32,-465.83C826.09,-518.21 799.12,-671.14 782.51,-765.35"/>
<polygon fill="black" stroke="black" points="779.09,-764.59 780.8,-775.04 785.98,-765.8 779.09,-764.59"/>
</g>
<!-- RFC2661 -->
<g id="node10" class="node">
<title>RFC2661</title>
<g id="a_node10"><a xlink:href="RFC2661.html" xlink:title="This document describes the Layer Two Tunneling Protocol (L2TP). [STANDARDS&#45;TRACK]" target="_top">
<ellipse fill="none" stroke="black" cx="153.97" cy="-326.85" rx="153.97" ry="40.66"/>
<text xml:space="preserve" text-anchor="middle" x="153.97" y="-338.3" font-family="Times,serif" font-size="14.00">RFC2661</text>
<text xml:space="preserve" text-anchor="middle" x="153.97" y="-321.8" font-family="Times,serif" font-size="14.00">Layer Two Tunneling Protocol L2TP</text>
<text xml:space="preserve" text-anchor="middle" x="153.97" y="-305.3" font-family="Times,serif" font-size="14.00">1999</text>
</a>
</g>
</g>
<!-- RFC2661&#45;&gt;rev_cites -->
<g id="edge9" class="edge">
<title>RFC2661&#45;&gt;rev_cites</title>
<path fill="none" stroke="black" d="M282.73,-349.56C441.66,-377.58 702.83,-423.63 800.29,-440.82"/>
<polygon fill="black" stroke="black" points="799.4,-444.21 809.86,-442.5 800.62,-437.32 799.4,-444.21"/>
</g>
<!-- RFC2896 -->
<g id="node11" class="node">
<title>RFC2896</title>
<g id="a_node11"><a xlink:href="RFC2896.html" xlink:title="This memo contains various protocol identifier examples, which can be used to produce valid protocolDirTable ``INDEX`` encodings, as defined by the Remote Network Monitoring MIB and the RMON Protocol Identifier Reference. &#160;This memo provides information for the Internet community." target="_top">
<ellipse fill="none" stroke="black" cx="629.47" cy="-52.33" rx="180.49" ry="52.33"/>
<text xml:space="preserve" text-anchor="middle" x="629.47" y="-72.03" font-family="Times,serif" font-size="14.00">RFC2896</text>
<text xml:space="preserve" text-anchor="middle" x="629.47" y="-55.53" font-family="Times,serif" font-size="14.00">Remote Network Monitoring MIB Protocol</text>
<text xml:space="preserve" text-anchor="middle" x="629.47" y="-39.03" font-family="Times,serif" font-size="14.00">Identifier Macros</text>
<text xml:space="preserve" text-anchor="middle" x="629.47" y="-22.53" font-family="Times,serif" font-size="14.00">2000</text>
</a>
</g>
</g>
<!-- RFC2896&#45;&gt;rev_cites -->
<g id="edge10" class="edge">
<title>RFC2896&#45;&gt;rev_cites</title>
<path fill="none" stroke="black" d="M657.02,-104.4C701.76,-188.99 788.74,-353.41 823.58,-419.27"/>
<polygon fill="black" stroke="black" points="820.42,-420.79 828.19,-427.99 826.61,-417.51 820.42,-420.79"/>
</g>
<!-- RFC2906 -->
<g id="node12" class="node">
<title>RFC2906</title>
<g id="a_node12"><a xlink:href="RFC2906.html" xlink:title="This document specifies the requirements that Authentication Authorization Accounting (AAA) protocols must meet in order to support authorization services in the Internet. &#160;This memo provides information for the Internet community." target="_top">
<ellipse fill="none" stroke="black" cx="1170.19" cy="-147.67" rx="143.37" ry="40.66"/>
<text xml:space="preserve" text-anchor="middle" x="1170.19" y="-159.12" font-family="Times,serif" font-size="14.00">RFC2906</text>
<text xml:space="preserve" text-anchor="middle" x="1170.19" y="-142.62" font-family="Times,serif" font-size="14.00">AAA Authorization Requirements</text>
<text xml:space="preserve" text-anchor="middle" x="1170.19" y="-126.12" font-family="Times,serif" font-size="14.00">2000</text>
</a>
</g>
</g>
<!-- RFC2906&#45;&gt;rev_cites -->
<g id="edge11" class="edge">
<title>RFC2906&#45;&gt;rev_cites</title>
<path fill="none" stroke="black" d="M1126.83,-186.87C1058.02,-249.09 925.66,-368.79 867.34,-421.52"/>
<polygon fill="black" stroke="black" points="865.15,-418.78 860.08,-428.08 869.85,-423.97 865.15,-418.78"/>
</g>
<!-- RFC3198 -->
<g id="node13" class="node">
<title>RFC3198</title>
<g id="a_node13"><a xlink:href="RFC3198.html" xlink:title="This document is a glossary of policy&#45;related terms. &#160;It provides abbreviations, explanations, and recommendations for use of these terms. &#160;The intent is to improve the comprehensibility and consistency of writing that deals with network policy, particularly Internet Standards documents (ISDs). &#160;This memo provides information for the Internet community." target="_top">
<ellipse fill="none" stroke="black" cx="1523.11" cy="-568.27" rx="182.61" ry="40.66"/>
<text xml:space="preserve" text-anchor="middle" x="1523.11" y="-579.72" font-family="Times,serif" font-size="14.00">RFC3198</text>
<text xml:space="preserve" text-anchor="middle" x="1523.11" y="-563.22" font-family="Times,serif" font-size="14.00">Terminology for Policy&#45;Based Management</text>
<text xml:space="preserve" text-anchor="middle" x="1523.11" y="-546.72" font-family="Times,serif" font-size="14.00">2001</text>
</a>
</g>
</g>
<!-- RFC3198&#45;&gt;rev_cites -->
<g id="edge12" class="edge">
<title>RFC3198&#45;&gt;rev_cites</title>
<path fill="none" stroke="black" d="M1379.19,-542.89C1219.54,-514.74 971.98,-471.09 877.23,-454.38"/>
<polygon fill="black" stroke="black" points="877.88,-450.94 867.42,-452.65 876.66,-457.84 877.88,-450.94"/>
</g>
</g>
</svg>
