<?xml version="1.0" encoding="UTF-8" standalone="no"?>
<!DOCTYPE svg PUBLIC "-//W3C//DTD SVG 1.1//EN"
 "http://www.w3.org/Graphics/SVG/1.1/DTD/svg11.dtd">
<!-- Generated by graphviz version 14.1.1 (20251213.1925)
 -->
<!-- Title: Flow Pages: 1 -->
<svg width="948pt" height="1609pt"
 viewBox="0.00 0.00 948.00 1609.00" xmlns="http://www.w3.org/2000/svg" xmlns:xlink="http://www.w3.org/1999/xlink">
<g id="graph0" class="graph" transform="scale(1 1) rotate(0) translate(4 1604.65)">
<title>Flow</title>
<polygon fill="white" stroke="none" points="-4,4 -4,-1604.65 944.06,-1604.65 944.06,4 -4,4"/>
<!-- RFC2256 -->
<g id="node1" class="node">
<title>RFC2256</title>
<g id="a_node1"><a xlink:title="This document provides an overview of the attribute types and object classes defined by the ISO and ITU&#45;T committees in the X.500 documents, in particular those intended for use by directory clients. [STANDARDS&#45;TRACK]">
<ellipse fill="none" stroke="black" cx="668.85" cy="-911.33" rx="179.96" ry="52.33"/>
<text xml:space="preserve" text-anchor="middle" x="668.85" y="-931.03" font-family="Times,serif" font-size="14.00">RFC2256</text>
<text xml:space="preserve" text-anchor="middle" x="668.85" y="-914.53" font-family="Times,serif" font-size="14.00">A Summary of the X.500(96) User Schema</text>
<text xml:space="preserve" text-anchor="middle" x="668.85" y="-898.03" font-family="Times,serif" font-size="14.00">for use with LDAPv3</text>
<text xml:space="preserve" text-anchor="middle" x="668.85" y="-881.53" font-family="Times,serif" font-size="14.00">1997</text>
</a>
</g>
</g>
<!-- obs -->
<g id="node8" class="node">
<title>obs</title>
<polygon fill="none" stroke="black" points="940.06,-983.33 873.81,-983.33 873.81,-947.33 940.06,-947.33 940.06,-983.33"/>
<text xml:space="preserve" text-anchor="middle" x="906.94" y="-960.28" font-family="Times,serif" font-size="14.00">obsoletes</text>
</g>
<!-- RFC2256&#45;&gt;obs -->
<g id="edge7" class="edge">
<title>RFC2256&#45;&gt;obs</title>
<path fill="none" stroke="black" d="M811.27,-943.67C829.9,-947.93 847.71,-952.01 862.76,-955.45"/>
<polygon fill="black" stroke="black" points="861.7,-958.8 872.23,-957.62 863.26,-951.97 861.7,-958.8"/>
</g>
<!-- updates -->
<g id="node9" class="node">
<title>updates</title>
<polygon fill="none" stroke="black" points="935.56,-929.33 878.31,-929.33 878.31,-893.33 935.56,-893.33 935.56,-929.33"/>
<text xml:space="preserve" text-anchor="middle" x="906.94" y="-906.28" font-family="Times,serif" font-size="14.00">updates</text>
</g>
<!-- RFC2256&#45;&gt;updates -->
<g id="edge8" class="edge">
<title>RFC2256&#45;&gt;updates</title>
<path fill="none" stroke="black" d="M849.09,-911.33C855.31,-911.33 861.21,-911.33 866.7,-911.33"/>
<polygon fill="black" stroke="black" points="866.48,-914.83 876.48,-911.33 866.48,-907.83 866.48,-914.83"/>
</g>
<!-- cites -->
<g id="node12" class="node">
<title>cites</title>
<polygon fill="none" stroke="black" points="933.94,-875.33 879.94,-875.33 879.94,-839.33 933.94,-839.33 933.94,-875.33"/>
<text xml:space="preserve" text-anchor="middle" x="906.94" y="-852.28" font-family="Times,serif" font-size="14.00">cites</text>
</g>
<!-- RFC2256&#45;&gt;cites -->
<g id="edge11" class="edge">
<title>RFC2256&#45;&gt;cites</title>
<path fill="none" stroke="black" d="M811.27,-878.98C832.29,-874.17 852.28,-869.6 868.43,-865.91"/>
<polygon fill="black" stroke="black" points="869.02,-869.36 877.99,-863.72 867.46,-862.54 869.02,-869.36"/>
</g>
<!-- obs_by -->
<g id="node2" class="node">
<title>obs_by</title>
<polygon fill="none" stroke="black" points="463.9,-1242.33 397.65,-1242.33 397.65,-1206.33 463.9,-1206.33 463.9,-1242.33"/>
<text xml:space="preserve" text-anchor="middle" x="430.77" y="-1219.28" font-family="Times,serif" font-size="14.00">obsoletes</text>
</g>
<!-- obs_by&#45;&gt;RFC2256 -->
<g id="edge1" class="edge">
<title>obs_by&#45;&gt;RFC2256</title>
<path fill="none" stroke="black" d="M445.48,-1206.14C479.27,-1161.35 567.73,-1044.07 622.35,-971.66"/>
<polygon fill="black" stroke="black" points="625.03,-973.92 628.25,-963.83 619.44,-969.7 625.03,-973.92"/>
</g>
<!-- RFC4517 -->
<g id="node3" class="node">
<title>RFC4517</title>
<g id="a_node3"><a xlink:href="RFC4517.html" xlink:title="Each attribute stored in a Lightweight Directory Access Protocol (LDAP) directory, whose values may be transferred in the LDAP protocol, has a defined syntax that constrains the structure and format of its values. &#160;The comparison semantics for values of a syntax are not part of the syntax definition but are instead provided through separately defined matching rules. &#160;Matching rules specify an argument, an assertion value, which also has a defined syntax. &#160;This document defines a base set of syntaxes and matching rules for use in defining attributes for LDAP directories. [STANDARDS&#45;TRACK]" target="_top">
<ellipse fill="none" stroke="black" cx="186.32" cy="-1548.33" rx="162.99" ry="52.33"/>
<text xml:space="preserve" text-anchor="middle" x="186.32" y="-1568.03" font-family="Times,serif" font-size="14.00">RFC4517</text>
<text xml:space="preserve" text-anchor="middle" x="186.32" y="-1551.53" font-family="Times,serif" font-size="14.00">Lightweight Directory Access Protocol</text>
<text xml:space="preserve" text-anchor="middle" x="186.32" y="-1535.03" font-family="Times,serif" font-size="14.00">(LDAP): Syntaxes and Matching Rules</text>
<text xml:space="preserve" text-anchor="middle" x="186.32" y="-1518.53" font-family="Times,serif" font-size="14.00">2006</text>
</a>
</g>
</g>
<!-- RFC4517&#45;&gt;obs_by -->
<g id="edge2" class="edge">
<title>RFC4517&#45;&gt;obs_by</title>
<path fill="none" stroke="black" d="M324.83,-1520.72C342.8,-1512.16 359.5,-1500.97 372.65,-1486.33 403.32,-1452.14 420.65,-1314.97 426.98,-1253.9"/>
<polygon fill="black" stroke="black" points="430.43,-1254.56 427.95,-1244.26 423.47,-1253.86 430.43,-1254.56"/>
</g>
<!-- RFC4519 -->
<g id="node4" class="node">
<title>RFC4519</title>
<g id="a_node4"><a xlink:href="RFC4519.html" xlink:title="This document is an integral part of the Lightweight Directory Access Protocol (LDAP) technical specification. &#160;It provides a technical specification of attribute types and object classes intended for use by LDAP directory clients for many directory services, such as White Pages. &#160;These objects are widely used as a basis for the schema in many LDAP directories. &#160;This document does not cover attributes used for the administration of directory servers, nor does it include directory objects defined for specific uses in other documents. [STANDARDS&#45;TRACK]" target="_top">
<ellipse fill="none" stroke="black" cx="186.32" cy="-1425.33" rx="164.05" ry="52.33"/>
<text xml:space="preserve" text-anchor="middle" x="186.32" y="-1445.03" font-family="Times,serif" font-size="14.00">RFC4519</text>
<text xml:space="preserve" text-anchor="middle" x="186.32" y="-1428.53" font-family="Times,serif" font-size="14.00">Lightweight Directory Access Protocol</text>
<text xml:space="preserve" text-anchor="middle" x="186.32" y="-1412.03" font-family="Times,serif" font-size="14.00">(LDAP): Schema for User Applications</text>
<text xml:space="preserve" text-anchor="middle" x="186.32" y="-1395.53" font-family="Times,serif" font-size="14.00">2006</text>
</a>
</g>
</g>
<!-- RFC4519&#45;&gt;obs_by -->
<g id="edge3" class="edge">
<title>RFC4519&#45;&gt;obs_by</title>
<path fill="none" stroke="black" d="M323.11,-1396.14C341.21,-1388.01 358.4,-1377.61 372.65,-1364.33 404.3,-1334.79 418.88,-1285.2 425.25,-1253.66"/>
<polygon fill="black" stroke="black" points="428.65,-1254.49 427.03,-1244.02 421.77,-1253.22 428.65,-1254.49"/>
</g>
<!-- RFC4523 -->
<g id="node5" class="node">
<title>RFC4523</title>
<g id="a_node5"><a xlink:href="RFC4523.html" xlink:title="This document describes schema for representing X.509 certificates, X.521 security information, and related elements in directories accessible using the Lightweight Directory Access Protocol (LDAP). &#160;The LDAP definitions for these X.509 and X.521 schema elements replace those provided in RFCs 2252 and 2256. [STANDARDS&#45;TRACK]" target="_top">
<ellipse fill="none" stroke="black" cx="186.32" cy="-1291.33" rx="161.93" ry="63.99"/>
<text xml:space="preserve" text-anchor="middle" x="186.32" y="-1319.28" font-family="Times,serif" font-size="14.00">RFC4523</text>
<text xml:space="preserve" text-anchor="middle" x="186.32" y="-1302.78" font-family="Times,serif" font-size="14.00">Lightweight Directory Access Protocol</text>
<text xml:space="preserve" text-anchor="middle" x="186.32" y="-1286.28" font-family="Times,serif" font-size="14.00">(LDAP) Schema Definitions for X.509</text>
<text xml:space="preserve" text-anchor="middle" x="186.32" y="-1269.78" font-family="Times,serif" font-size="14.00">Certificates</text>
<text xml:space="preserve" text-anchor="middle" x="186.32" y="-1253.28" font-family="Times,serif" font-size="14.00">2006</text>
</a>
</g>
</g>
<!-- RFC4523&#45;&gt;obs_by -->
<g id="edge4" class="edge">
<title>RFC4523&#45;&gt;obs_by</title>
<path fill="none" stroke="black" d="M319.9,-1254.69C344,-1248.03 367.49,-1241.54 386.53,-1236.28"/>
<polygon fill="black" stroke="black" points="387.32,-1239.69 396.02,-1233.65 385.45,-1232.94 387.32,-1239.69"/>
</g>
<!-- RFC4512 -->
<g id="node6" class="node">
<title>RFC4512</title>
<g id="a_node6"><a xlink:href="RFC4512.html" xlink:title="The Lightweight Directory Access Protocol (LDAP) is an Internet protocol for accessing distributed directory services that act in accordance with X.500 data and service models. &#160;This document describes the X.500 Directory Information Models, as used in LDAP. [STANDARDS&#45;TRACK]" target="_top">
<ellipse fill="none" stroke="black" cx="186.32" cy="-1157.33" rx="165.11" ry="52.33"/>
<text xml:space="preserve" text-anchor="middle" x="186.32" y="-1177.03" font-family="Times,serif" font-size="14.00">RFC4512</text>
<text xml:space="preserve" text-anchor="middle" x="186.32" y="-1160.53" font-family="Times,serif" font-size="14.00">Lightweight Directory Access Protocol</text>
<text xml:space="preserve" text-anchor="middle" x="186.32" y="-1144.03" font-family="Times,serif" font-size="14.00">(LDAP): Directory Information Models</text>
<text xml:space="preserve" text-anchor="middle" x="186.32" y="-1127.53" font-family="Times,serif" font-size="14.00">2006</text>
</a>
</g>
</g>
<!-- RFC4512&#45;&gt;obs_by -->
<g id="edge5" class="edge">
<title>RFC4512&#45;&gt;obs_by</title>
<path fill="none" stroke="black" d="M311.74,-1191.71C338.75,-1199.17 365.54,-1206.58 386.75,-1212.44"/>
<polygon fill="black" stroke="black" points="385.59,-1215.75 396.16,-1215.04 387.46,-1209 385.59,-1215.75"/>
</g>
<!-- RFC4510 -->
<g id="node7" class="node">
<title>RFC4510</title>
<g id="a_node7"><a xlink:href="RFC4510.html" xlink:title="The Lightweight Directory Access Protocol (LDAP) is an Internet protocol for accessing distributed directory services that act in accordance with X.500 data and service models. &#160;This document provides a road map of the LDAP Technical Specification. [STANDARDS&#45;TRACK]" target="_top">
<ellipse fill="none" stroke="black" cx="186.32" cy="-1034.33" rx="181.55" ry="52.33"/>
<text xml:space="preserve" text-anchor="middle" x="186.32" y="-1054.03" font-family="Times,serif" font-size="14.00">RFC4510</text>
<text xml:space="preserve" text-anchor="middle" x="186.32" y="-1037.53" font-family="Times,serif" font-size="14.00">Lightweight Directory Access Protocol</text>
<text xml:space="preserve" text-anchor="middle" x="186.32" y="-1021.03" font-family="Times,serif" font-size="14.00">(LDAP): Technical Specification Road Map</text>
<text xml:space="preserve" text-anchor="middle" x="186.32" y="-1004.53" font-family="Times,serif" font-size="14.00">2006</text>
</a>
</g>
</g>
<!-- RFC4510&#45;&gt;obs_by -->
<g id="edge6" class="edge">
<title>RFC4510&#45;&gt;obs_by</title>
<path fill="none" stroke="black" d="M328.39,-1067.33C344.47,-1075.06 359.71,-1084.58 372.65,-1096.33 401.47,-1122.49 416.58,-1165.93 423.85,-1194.84"/>
<polygon fill="black" stroke="black" points="420.41,-1195.47 426.09,-1204.41 427.22,-1193.88 420.41,-1195.47"/>
</g>
<!-- updated_by -->
<g id="node10" class="node">
<title>updated_by</title>
<polygon fill="none" stroke="black" points="459.4,-929.33 402.15,-929.33 402.15,-893.33 459.4,-893.33 459.4,-929.33"/>
<text xml:space="preserve" text-anchor="middle" x="430.77" y="-906.28" font-family="Times,serif" font-size="14.00">updates</text>
</g>
<!-- updated_by&#45;&gt;RFC2256 -->
<g id="edge9" class="edge">
<title>updated_by&#45;&gt;RFC2256</title>
<path fill="none" stroke="black" d="M459.78,-911.33C465.1,-911.33 471.02,-911.33 477.4,-911.33"/>
<polygon fill="black" stroke="black" points="477.04,-914.83 487.04,-911.33 477.04,-907.83 477.04,-914.83"/>
</g>
<!-- RFC3377 -->
<g id="node11" class="node">
<title>RFC3377</title>
<g id="a_node11"><a xlink:href="RFC3377.html" xlink:title="None" target="_top">
<ellipse fill="none" stroke="black" cx="186.32" cy="-911.33" rx="161.4" ry="52.33"/>
<text xml:space="preserve" text-anchor="middle" x="186.32" y="-931.03" font-family="Times,serif" font-size="14.00">RFC3377</text>
<text xml:space="preserve" text-anchor="middle" x="186.32" y="-914.53" font-family="Times,serif" font-size="14.00">Lightweight Directory Access Protocol</text>
<text xml:space="preserve" text-anchor="middle" x="186.32" y="-898.03" font-family="Times,serif" font-size="14.00">(v3): Technical Specification</text>
<text xml:space="preserve" text-anchor="middle" x="186.32" y="-881.53" font-family="Times,serif" font-size="14.00">2002</text>
</a>
</g>
</g>
<!-- RFC3377&#45;&gt;updated_by -->
<g id="edge10" class="edge">
<title>RFC3377&#45;&gt;updated_by</title>
<path fill="none" stroke="black" d="M348.03,-911.33C363.59,-911.33 378.18,-911.33 390.6,-911.33"/>
<polygon fill="black" stroke="black" points="390.29,-914.83 400.29,-911.33 390.29,-907.83 390.29,-914.83"/>
</g>
<!-- rev_cites -->
<g id="node13" class="node">
<title>rev_cites</title>
<polygon fill="none" stroke="black" points="457.77,-572.33 403.77,-572.33 403.77,-536.33 457.77,-536.33 457.77,-572.33"/>
<text xml:space="preserve" text-anchor="middle" x="430.77" y="-549.28" font-family="Times,serif" font-size="14.00">cites</text>
</g>
<!-- RFC3377&#45;&gt;rev_cites -->
<g id="edge17" class="edge">
<title>RFC3377&#45;&gt;rev_cites</title>
<path fill="none" stroke="black" d="M324.68,-884.21C342.78,-875.59 359.56,-864.25 372.65,-849.33 407.2,-809.9 422.71,-650.54 427.78,-583.87"/>
<polygon fill="black" stroke="black" points="431.26,-584.29 428.49,-574.06 424.27,-583.78 431.26,-584.29"/>
</g>
<!-- rev_cites&#45;&gt;RFC2256 -->
<g id="edge12" class="edge">
<title>rev_cites&#45;&gt;RFC2256</title>
<path fill="none" stroke="black" d="M443.8,-572.52C477.24,-623.09 572.46,-767.07 627.4,-850.16"/>
<polygon fill="black" stroke="black" points="624.46,-852.06 632.9,-858.47 630.3,-848.2 624.46,-852.06"/>
</g>
<!-- RFC2307 -->
<g id="node14" class="node">
<title>RFC2307</title>
<g id="a_node14"><a xlink:href="RFC2307.html" xlink:title="This document describes an experimental mechanism for mapping entities related to TCP/IP and the UNIX system into X.500 entries so that they may be resolved with the Lightweight Directory Access Protocol [RFC2251]. &#160;This memo defines an Experimental Protocol for the Internet community. &#160;It does not specify an Internet standard of any kind. &#160;Discussion and suggestions for improvement are requested." target="_top">
<ellipse fill="none" stroke="black" cx="186.32" cy="-788.33" rx="182.61" ry="52.33"/>
<text xml:space="preserve" text-anchor="middle" x="186.32" y="-808.03" font-family="Times,serif" font-size="14.00">RFC2307</text>
<text xml:space="preserve" text-anchor="middle" x="186.32" y="-791.53" font-family="Times,serif" font-size="14.00">An Approach for Using LDAP as a Network</text>
<text xml:space="preserve" text-anchor="middle" x="186.32" y="-775.03" font-family="Times,serif" font-size="14.00">Information Service</text>
<text xml:space="preserve" text-anchor="middle" x="186.32" y="-758.53" font-family="Times,serif" font-size="14.00">1998</text>
</a>
</g>
</g>
<!-- RFC2307&#45;&gt;rev_cites -->
<g id="edge13" class="edge">
<title>RFC2307&#45;&gt;rev_cites</title>
<path fill="none" stroke="black" d="M330.46,-756.06C346,-748.21 360.54,-738.45 372.65,-726.33 411.35,-687.54 423.83,-621.92 427.86,-583.93"/>
<polygon fill="black" stroke="black" points="431.33,-584.42 428.75,-574.15 424.35,-583.79 431.33,-584.42"/>
</g>
<!-- RFC2798 -->
<g id="node15" class="node">
<title>RFC2798</title>
<g id="a_node15"><a xlink:href="RFC2798.html" xlink:title="We define a new object class called inetOrgPerson for use in LDAP and X.500 directory services that extends the X.521 standard organizationalPerson class to meet these needs. &#160;This memo provides information for the Internet community." target="_top">
<ellipse fill="none" stroke="black" cx="186.32" cy="-665.33" rx="160.87" ry="52.33"/>
<text xml:space="preserve" text-anchor="middle" x="186.32" y="-685.03" font-family="Times,serif" font-size="14.00">RFC2798</text>
<text xml:space="preserve" text-anchor="middle" x="186.32" y="-668.53" font-family="Times,serif" font-size="14.00">Definition of the inetOrgPerson LDAP</text>
<text xml:space="preserve" text-anchor="middle" x="186.32" y="-652.03" font-family="Times,serif" font-size="14.00">Object Class</text>
<text xml:space="preserve" text-anchor="middle" x="186.32" y="-635.53" font-family="Times,serif" font-size="14.00">2000</text>
</a>
</g>
</g>
<!-- RFC2798&#45;&gt;rev_cites -->
<g id="edge14" class="edge">
<title>RFC2798&#45;&gt;rev_cites</title>
<path fill="none" stroke="black" d="M311.42,-632.17C332.49,-624.4 353.67,-615.15 372.65,-604.33 384.04,-597.83 395.21,-588.82 404.61,-580.24"/>
<polygon fill="black" stroke="black" points="406.75,-583.03 411.59,-573.61 401.93,-577.96 406.75,-583.03"/>
</g>
<!-- RFC3062 -->
<g id="node16" class="node">
<title>RFC3062</title>
<g id="a_node16"><a xlink:href="RFC3062.html" xlink:title="This document describes an LDAP extended operation to allow modification of user passwords which is not dependent upon the form of the authentication identity nor the password storage mechanism used. [STANDARDS&#45;TRACK]" target="_top">
<ellipse fill="none" stroke="black" cx="186.32" cy="-554.33" rx="186.32" ry="40.66"/>
<text xml:space="preserve" text-anchor="middle" x="186.32" y="-565.78" font-family="Times,serif" font-size="14.00">RFC3062</text>
<text xml:space="preserve" text-anchor="middle" x="186.32" y="-549.28" font-family="Times,serif" font-size="14.00">LDAP Password Modify Extended Operation</text>
<text xml:space="preserve" text-anchor="middle" x="186.32" y="-532.78" font-family="Times,serif" font-size="14.00">2001</text>
</a>
</g>
</g>
<!-- RFC3062&#45;&gt;rev_cites -->
<g id="edge15" class="edge">
<title>RFC3062&#45;&gt;rev_cites</title>
<path fill="none" stroke="black" d="M372.93,-554.33C379.71,-554.33 386.12,-554.33 392.01,-554.33"/>
<polygon fill="black" stroke="black" points="391.84,-557.83 401.84,-554.33 391.84,-550.83 391.84,-557.83"/>
</g>
<!-- RFC3112 -->
<g id="node17" class="node">
<title>RFC3112</title>
<g id="a_node17"><a xlink:href="RFC3112.html" xlink:title="This document describes schema in support of user/password authentication in a LDAP (Lightweight Directory Access Protocol) directory including the authPassword attribute type. &#160;This memo provides information for the Internet community." target="_top">
<ellipse fill="none" stroke="black" cx="186.32" cy="-455.33" rx="167.76" ry="40.66"/>
<text xml:space="preserve" text-anchor="middle" x="186.32" y="-466.78" font-family="Times,serif" font-size="14.00">RFC3112</text>
<text xml:space="preserve" text-anchor="middle" x="186.32" y="-450.28" font-family="Times,serif" font-size="14.00">LDAP Authentication Password Schema</text>
<text xml:space="preserve" text-anchor="middle" x="186.32" y="-433.78" font-family="Times,serif" font-size="14.00">2001</text>
</a>
</g>
</g>
<!-- RFC3112&#45;&gt;rev_cites -->
<g id="edge16" class="edge">
<title>RFC3112&#45;&gt;rev_cites</title>
<path fill="none" stroke="black" d="M316.36,-481.18C335.79,-487.41 355.16,-495.03 372.65,-504.33 384.41,-510.58 395.78,-519.69 405.25,-528.42"/>
<polygon fill="black" stroke="black" points="402.64,-530.77 412.27,-535.2 407.5,-525.73 402.64,-530.77"/>
</g>
<!-- RFC3383 -->
<g id="node18" class="node">
<title>RFC3383</title>
<g id="a_node18"><a xlink:href="RFC3383.html" xlink:title="None" target="_top">
<ellipse fill="none" stroke="black" cx="186.32" cy="-321.33" rx="161.4" ry="75.66"/>
<text xml:space="preserve" text-anchor="middle" x="186.32" y="-357.53" font-family="Times,serif" font-size="14.00">RFC3383</text>
<text xml:space="preserve" text-anchor="middle" x="186.32" y="-341.03" font-family="Times,serif" font-size="14.00">Internet Assigned Numbers Authority</text>
<text xml:space="preserve" text-anchor="middle" x="186.32" y="-324.53" font-family="Times,serif" font-size="14.00">(IANA) Considerations for the</text>
<text xml:space="preserve" text-anchor="middle" x="186.32" y="-308.03" font-family="Times,serif" font-size="14.00">Lightweight Directory Access Protocol</text>
<text xml:space="preserve" text-anchor="middle" x="186.32" y="-291.53" font-family="Times,serif" font-size="14.00">(LDAP)</text>
<text xml:space="preserve" text-anchor="middle" x="186.32" y="-275.03" font-family="Times,serif" font-size="14.00">2002</text>
</a>
</g>
</g>
<!-- RFC3383&#45;&gt;rev_cites -->
<g id="edge18" class="edge">
<title>RFC3383&#45;&gt;rev_cites</title>
<path fill="none" stroke="black" d="M318.48,-364.95C338.41,-375.82 357.38,-389.13 372.65,-405.33 404.29,-438.91 418.94,-491.86 425.31,-524.76"/>
<polygon fill="black" stroke="black" points="421.83,-525.19 427.03,-534.42 428.72,-523.96 421.83,-525.19"/>
</g>
<!-- RFC3384 -->
<g id="node19" class="node">
<title>RFC3384</title>
<g id="a_node19"><a xlink:href="RFC3384.html" xlink:title="None" target="_top">
<ellipse fill="none" stroke="black" cx="186.32" cy="-175.33" rx="161.4" ry="52.33"/>
<text xml:space="preserve" text-anchor="middle" x="186.32" y="-195.03" font-family="Times,serif" font-size="14.00">RFC3384</text>
<text xml:space="preserve" text-anchor="middle" x="186.32" y="-178.53" font-family="Times,serif" font-size="14.00">Lightweight Directory Access Protocol</text>
<text xml:space="preserve" text-anchor="middle" x="186.32" y="-162.03" font-family="Times,serif" font-size="14.00">(version 3) Replication Requirements</text>
<text xml:space="preserve" text-anchor="middle" x="186.32" y="-145.53" font-family="Times,serif" font-size="14.00">2002</text>
</a>
</g>
</g>
<!-- RFC3384&#45;&gt;rev_cites -->
<g id="edge19" class="edge">
<title>RFC3384&#45;&gt;rev_cites</title>
<path fill="none" stroke="black" d="M325.76,-201.96C343.49,-210.45 359.87,-221.62 372.65,-236.33 410.03,-279.36 424.06,-454.5 428.25,-524.86"/>
<polygon fill="black" stroke="black" points="424.74,-524.68 428.8,-534.46 431.73,-524.28 424.74,-524.68"/>
</g>
<!-- RFC3671 -->
<g id="node20" class="node">
<title>RFC3671</title>
<g id="a_node20"><a xlink:href="RFC3671.html" xlink:title="X.500 collective attributes allow common characteristics to be shared between collections of entries. &#160;This document summarizes the X.500 information model for collective attributes and describes use of collective attributes in LDAP (Lightweight Directory Access Protocol). &#160;This document provides schema definitions for collective attributes for use in LDAP." target="_top">
<ellipse fill="none" stroke="black" cx="186.32" cy="-52.33" rx="164.58" ry="52.33"/>
<text xml:space="preserve" text-anchor="middle" x="186.32" y="-72.03" font-family="Times,serif" font-size="14.00">RFC3671</text>
<text xml:space="preserve" text-anchor="middle" x="186.32" y="-55.53" font-family="Times,serif" font-size="14.00">Collective Attributes in the Lightweight</text>
<text xml:space="preserve" text-anchor="middle" x="186.32" y="-39.03" font-family="Times,serif" font-size="14.00">Directory Access Protocol (LDAP)</text>
<text xml:space="preserve" text-anchor="middle" x="186.32" y="-22.53" font-family="Times,serif" font-size="14.00">2003</text>
</a>
</g>
</g>
<!-- RFC3671&#45;&gt;rev_cites -->
<g id="edge20" class="edge">
<title>RFC3671&#45;&gt;rev_cites</title>
<path fill="none" stroke="black" d="M327.36,-79.63C344.63,-88.24 360.47,-99.52 372.65,-114.33 424.36,-177.17 429.62,-436.06 429.88,-524.53"/>
<polygon fill="black" stroke="black" points="426.38,-524.33 429.89,-534.33 433.38,-524.33 426.38,-524.33"/>
</g>
</g>
</svg>
