<?xml version="1.0" encoding="UTF-8" standalone="no"?>
<!DOCTYPE svg PUBLIC "-//W3C//DTD SVG 1.1//EN"
 "http://www.w3.org/Graphics/SVG/1.1/DTD/svg11.dtd">
<!-- Generated by graphviz version 14.1.1 (20251213.1925)
 -->
<!-- Title: Flow Pages: 1 -->
<svg width="1086pt" height="359pt"
 viewBox="0.00 0.00 1086.00 359.00" xmlns="http://www.w3.org/2000/svg" xmlns:xlink="http://www.w3.org/1999/xlink">
<g id="graph0" class="graph" transform="scale(1 1) rotate(0) translate(4 354.65)">
<title>Flow</title>
<polygon fill="white" stroke="none" points="-4,4 -4,-354.65 1081.85,-354.65 1081.85,4 -4,4"/>
<!-- RFC2350 -->
<g id="node1" class="node">
<title>RFC2350</title>
<g id="a_node1"><a xlink:title="None">
<ellipse fill="green" stroke="black" cx="604.15" cy="-229.33" rx="150.26" ry="52.33"/>
<text xml:space="preserve" text-anchor="middle" x="604.15" y="-249.03" font-family="Times,serif" font-size="14.00">RFC2350</text>
<text xml:space="preserve" text-anchor="middle" x="604.15" y="-232.53" font-family="Times,serif" font-size="14.00">Expectations for Computer Security</text>
<text xml:space="preserve" text-anchor="middle" x="604.15" y="-216.03" font-family="Times,serif" font-size="14.00">Incident Response</text>
<text xml:space="preserve" text-anchor="middle" x="604.15" y="-199.53" font-family="Times,serif" font-size="14.00">1998</text>
</a>
</g>
</g>
<!-- obs -->
<g id="node3" class="node">
<title>obs</title>
<polygon fill="lightblue" stroke="black" points="845.66,-301.33 779.41,-301.33 779.41,-265.33 845.66,-265.33 845.66,-301.33"/>
<text xml:space="preserve" text-anchor="middle" x="812.54" y="-278.28" font-family="Times,serif" font-size="14.00">obsoletes</text>
</g>
<!-- RFC2350&#45;&gt;obs -->
<g id="edge2" class="edge">
<title>RFC2350&#45;&gt;obs</title>
<path fill="none" stroke="black" d="M725.21,-260.74C740.57,-264.76 755.42,-268.64 768.35,-272.03"/>
<polygon fill="black" stroke="black" points="767.15,-275.33 777.71,-274.48 768.93,-268.56 767.15,-275.33"/>
</g>
<!-- updates -->
<g id="node4" class="node">
<title>updates</title>
<polygon fill="lightyellow" stroke="black" points="841.16,-247.33 783.91,-247.33 783.91,-211.33 841.16,-211.33 841.16,-247.33"/>
<text xml:space="preserve" text-anchor="middle" x="812.54" y="-224.28" font-family="Times,serif" font-size="14.00">updates</text>
</g>
<!-- RFC2350&#45;&gt;updates -->
<g id="edge3" class="edge">
<title>RFC2350&#45;&gt;updates</title>
<path fill="none" stroke="black" d="M754.87,-229.33C760.97,-229.33 766.79,-229.33 772.22,-229.33"/>
<polygon fill="black" stroke="black" points="771.94,-232.83 781.94,-229.33 771.94,-225.83 771.94,-232.83"/>
</g>
<!-- cites -->
<g id="node6" class="node">
<title>cites</title>
<polygon fill="lightblue" stroke="black" points="839.54,-193.33 785.54,-193.33 785.54,-157.33 839.54,-157.33 839.54,-193.33"/>
<text xml:space="preserve" text-anchor="middle" x="812.54" y="-170.28" font-family="Times,serif" font-size="14.00">cites</text>
</g>
<!-- RFC2350&#45;&gt;cites -->
<g id="edge5" class="edge">
<title>RFC2350&#45;&gt;cites</title>
<path fill="none" stroke="black" d="M725.21,-197.91C743.12,-193.23 760.34,-188.72 774.62,-184.99"/>
<polygon fill="black" stroke="black" points="775.15,-188.47 783.94,-182.55 773.38,-181.69 775.15,-188.47"/>
</g>
<!-- obs_by -->
<g id="node2" class="node">
<title>obs_by</title>
<polygon fill="lightblue" stroke="black" points="428.89,-301.33 362.64,-301.33 362.64,-265.33 428.89,-265.33 428.89,-301.33"/>
<text xml:space="preserve" text-anchor="middle" x="395.77" y="-278.28" font-family="Times,serif" font-size="14.00">obsoletes</text>
</g>
<!-- obs_by&#45;&gt;RFC2350 -->
<g id="edge1" class="edge">
<title>obs_by&#45;&gt;RFC2350</title>
<path fill="none" stroke="black" d="M429.02,-274.89C441.48,-271.63 456.62,-267.67 472.71,-263.46"/>
<polygon fill="black" stroke="black" points="473.14,-266.96 481.93,-261.04 471.37,-260.19 473.14,-266.96"/>
</g>
<!-- updated_by -->
<g id="node5" class="node">
<title>updated_by</title>
<polygon fill="lightyellow" stroke="black" points="424.39,-247.33 367.14,-247.33 367.14,-211.33 424.39,-211.33 424.39,-247.33"/>
<text xml:space="preserve" text-anchor="middle" x="395.77" y="-224.28" font-family="Times,serif" font-size="14.00">updates</text>
</g>
<!-- updated_by&#45;&gt;RFC2350 -->
<g id="edge4" class="edge">
<title>updated_by&#45;&gt;RFC2350</title>
<path fill="none" stroke="black" d="M424.6,-229.33C429.96,-229.33 435.91,-229.33 442.3,-229.33"/>
<polygon fill="black" stroke="black" points="441.92,-232.83 451.92,-229.33 441.92,-225.83 441.92,-232.83"/>
</g>
<!-- RFC1983 -->
<g id="node7" class="node">
<title>RFC1983</title>
<g id="a_node7"><a xlink:href="RFC1983.html" xlink:title="There are many networking glossaries in existence. &#160;This glossary concentrates on terms which are specific to the Internet. &#160;This memo provides information for the Internet community. &#160;This memo does not specify an Internet standard of any kind." target="_top">
<ellipse fill="none" stroke="black" cx="974.26" cy="-225.33" rx="103.59" ry="40.66"/>
<text xml:space="preserve" text-anchor="middle" x="974.26" y="-236.78" font-family="Times,serif" font-size="14.00">RFC1983</text>
<text xml:space="preserve" text-anchor="middle" x="974.26" y="-220.28" font-family="Times,serif" font-size="14.00">Internet Users&#39; Glossary</text>
<text xml:space="preserve" text-anchor="middle" x="974.26" y="-203.78" font-family="Times,serif" font-size="14.00">1996</text>
</a>
</g>
</g>
<!-- cites&#45;&gt;RFC1983 -->
<g id="edge6" class="edge">
<title>cites&#45;&gt;RFC1983</title>
<path fill="none" stroke="black" d="M839.91,-183.58C851.72,-187.28 866.41,-191.88 881.69,-196.66"/>
<polygon fill="black" stroke="black" points="880.3,-199.89 890.89,-199.54 882.39,-193.21 880.3,-199.89"/>
</g>
<!-- RFC2196 -->
<g id="node8" class="node">
<title>RFC2196</title>
<g id="a_node8"><a xlink:href="RFC2196.html" xlink:title="This handbook is a guide to developing computer security policies and procedures for sites that have systems on the Internet. &#160;The purpose of this handbook is to provide practical guidance to administrators trying to secure their information and services. &#160;The subjects covered include policy content and formation, a broad range of technical system and network security topics, and security incident response. &#160;This memo provides information for the Internet community. &#160;It does not specify an Internet standard of any kind." target="_top">
<ellipse fill="none" stroke="black" cx="974.26" cy="-126.33" rx="103.06" ry="40.66"/>
<text xml:space="preserve" text-anchor="middle" x="974.26" y="-137.78" font-family="Times,serif" font-size="14.00">RFC2196</text>
<text xml:space="preserve" text-anchor="middle" x="974.26" y="-121.28" font-family="Times,serif" font-size="14.00">Site Security Handbook</text>
<text xml:space="preserve" text-anchor="middle" x="974.26" y="-104.78" font-family="Times,serif" font-size="14.00">1997</text>
</a>
</g>
</g>
<!-- cites&#45;&gt;RFC2196 -->
<g id="edge7" class="edge">
<title>cites&#45;&gt;RFC2196</title>
<path fill="none" stroke="black" d="M839.91,-167.23C851.65,-163.63 866.23,-159.16 881.41,-154.5"/>
<polygon fill="black" stroke="black" points="882,-157.98 890.54,-151.7 879.95,-151.29 882,-157.98"/>
</g>
<!-- rev_cites -->
<g id="node9" class="node">
<title>rev_cites</title>
<polygon fill="lightblue" stroke="black" points="422.77,-193.33 368.77,-193.33 368.77,-157.33 422.77,-157.33 422.77,-193.33"/>
<text xml:space="preserve" text-anchor="middle" x="395.77" y="-170.28" font-family="Times,serif" font-size="14.00">cites</text>
</g>
<!-- rev_cites&#45;&gt;RFC2350 -->
<g id="edge8" class="edge">
<title>rev_cites&#45;&gt;RFC2350</title>
<path fill="none" stroke="black" d="M422.91,-182.17C436.24,-185.65 453.55,-190.18 472.17,-195.05"/>
<polygon fill="black" stroke="black" points="471.24,-198.43 481.8,-197.57 473.01,-191.66 471.24,-198.43"/>
</g>
<!-- RFC3013 -->
<g id="node10" class="node">
<title>RFC3013</title>
<g id="a_node10"><a xlink:href="RFC3013.html" xlink:title="The purpose of this document is to express what the engineering community as represented by the IETF expects of Internet Service Providers (ISPs) with respect to security. &#160;This document specifies an Internet Best Current Practices for the Internet Community, and requests discussion and suggestions for improvements." target="_top">
<ellipse fill="none" stroke="black" cx="168.82" cy="-298.33" rx="168.82" ry="52.33"/>
<text xml:space="preserve" text-anchor="middle" x="168.82" y="-318.03" font-family="Times,serif" font-size="14.00">RFC3013</text>
<text xml:space="preserve" text-anchor="middle" x="168.82" y="-301.53" font-family="Times,serif" font-size="14.00">Recommended Internet Service Provider</text>
<text xml:space="preserve" text-anchor="middle" x="168.82" y="-285.03" font-family="Times,serif" font-size="14.00">Security Services and Procedures</text>
<text xml:space="preserve" text-anchor="middle" x="168.82" y="-268.53" font-family="Times,serif" font-size="14.00">2000</text>
</a>
</g>
</g>
<!-- RFC3013&#45;&gt;rev_cites -->
<g id="edge9" class="edge">
<title>RFC3013&#45;&gt;rev_cites</title>
<path fill="none" stroke="black" d="M292.93,-262.48C308.75,-255.16 324.12,-246.51 337.64,-236.33 352.63,-225.04 349.82,-216.01 362.64,-202.33 362.91,-202.05 363.17,-201.77 363.44,-201.49"/>
<polygon fill="black" stroke="black" points="365.81,-204.06 370.6,-194.61 360.96,-199.01 365.81,-204.06"/>
</g>
<!-- RFC3227 -->
<g id="node11" class="node">
<title>RFC3227</title>
<g id="a_node11"><a xlink:href="RFC3227.html" xlink:title="A security incident as defined in the Internet Security Glossary, RFC 2828, is a security&#45;relevant system event in which the system&#39;s security policy is disobeyed or otherwise breached. &#160;The purpose of this document is to provide System Administrators with guidelines on the collection and archiving of evidence relevant to such a security incident. &#160;This document specifies an Internet Best Current Practices for the Internet Community, and requests discussion and suggestions for improvements." target="_top">
<ellipse fill="none" stroke="black" cx="168.82" cy="-175.33" rx="163.52" ry="52.33"/>
<text xml:space="preserve" text-anchor="middle" x="168.82" y="-195.03" font-family="Times,serif" font-size="14.00">RFC3227</text>
<text xml:space="preserve" text-anchor="middle" x="168.82" y="-178.53" font-family="Times,serif" font-size="14.00">Guidelines for Evidence Collection and</text>
<text xml:space="preserve" text-anchor="middle" x="168.82" y="-162.03" font-family="Times,serif" font-size="14.00">Archiving</text>
<text xml:space="preserve" text-anchor="middle" x="168.82" y="-145.53" font-family="Times,serif" font-size="14.00">2002</text>
</a>
</g>
</g>
<!-- RFC3227&#45;&gt;rev_cites -->
<g id="edge10" class="edge">
<title>RFC3227&#45;&gt;rev_cites</title>
<path fill="none" stroke="black" d="M332.71,-175.33C341.44,-175.33 349.66,-175.33 357.09,-175.33"/>
<polygon fill="black" stroke="black" points="356.9,-178.83 366.9,-175.33 356.9,-171.83 356.9,-178.83"/>
</g>
<!-- RFC9116 -->
<g id="node12" class="node">
<title>RFC9116</title>
<g id="a_node12"><a xlink:href="RFC9116.html" xlink:title="When security vulnerabilities are discovered by researchers, proper reporting channels are often lacking. &#160;As a result, vulnerabilities may be left unreported. &#160;This document defines a machine&#45;parsable format (security.txt) to help organizations describe their vulnerability disclosure practices to make it easier for researchers to report vulnerabilities." target="_top">
<ellipse fill="none" stroke="black" cx="168.82" cy="-52.33" rx="137" ry="52.33"/>
<text xml:space="preserve" text-anchor="middle" x="168.82" y="-72.03" font-family="Times,serif" font-size="14.00">RFC9116</text>
<text xml:space="preserve" text-anchor="middle" x="168.82" y="-55.53" font-family="Times,serif" font-size="14.00">A File Format to Aid in Security</text>
<text xml:space="preserve" text-anchor="middle" x="168.82" y="-39.03" font-family="Times,serif" font-size="14.00">Vulnerability Disclosure</text>
<text xml:space="preserve" text-anchor="middle" x="168.82" y="-22.53" font-family="Times,serif" font-size="14.00">2022</text>
</a>
</g>
</g>
<!-- RFC9116&#45;&gt;rev_cites -->
<g id="edge11" class="edge">
<title>RFC9116&#45;&gt;rev_cites</title>
<path fill="none" stroke="black" d="M278.62,-84.09C299.07,-92.36 319.66,-102.39 337.64,-114.33 351.42,-123.47 364.25,-136.56 374.25,-148.27"/>
<polygon fill="black" stroke="black" points="371.3,-150.19 380.35,-155.7 376.71,-145.75 371.3,-150.19"/>
</g>
</g>
</svg>
