<?xml version="1.0" encoding="UTF-8" standalone="no"?>
<!DOCTYPE svg PUBLIC "-//W3C//DTD SVG 1.1//EN"
 "http://www.w3.org/Graphics/SVG/1.1/DTD/svg11.dtd">
<!-- Generated by graphviz version 14.1.1 (20251213.1925)
 -->
<!-- Title: Flow Pages: 1 -->
<svg width="602pt" height="654pt"
 viewBox="0.00 0.00 602.00 654.00" xmlns="http://www.w3.org/2000/svg" xmlns:xlink="http://www.w3.org/1999/xlink">
<g id="graph0" class="graph" transform="scale(1 1) rotate(0) translate(4 649.89)">
<title>Flow</title>
<polygon fill="white" stroke="none" points="-4,4 -4,-649.89 598.43,-649.89 598.43,4 -4,4"/>
<!-- RFC2363 -->
<g id="node1" class="node">
<title>RFC2363</title>
<g id="a_node1"><a xlink:title="This document describes the use of ATM Frame User Network Interface (FUNI) for framing PPP encapsulated packets. [STANDARDS&#45;TRACK]">
<ellipse fill="green" stroke="black" stroke-width="3" cx="297.21" cy="-322.94" rx="92.98" ry="50.2"/>
<text xml:space="preserve" text-anchor="middle" x="297.21" y="-337.34" font-family="Times,serif" font-size="18.00">RFC2363</text>
<text xml:space="preserve" text-anchor="middle" x="297.21" y="-316.34" font-family="Times,serif" font-size="18.00">PPP Over FUNI</text>
<text xml:space="preserve" text-anchor="middle" x="297.21" y="-295.34" font-family="Times,serif" font-size="18.00">1998</text>
</a>
</g>
</g>
<!-- obs -->
<g id="node3" class="node">
<title>obs</title>
<polygon fill="lightblue" stroke="black" points="594.43,-493.42 528.18,-493.42 528.18,-457.42 594.43,-457.42 594.43,-493.42"/>
<text xml:space="preserve" text-anchor="middle" x="561.3" y="-470.37" font-family="Times,serif" font-size="14.00">obsoletes</text>
</g>
<!-- RFC2363&#45;&gt;obs -->
<g id="edge2" class="edge">
<title>RFC2363&#45;&gt;obs</title>
<path fill="none" stroke="black" d="M362.16,-360.44C411.26,-388.79 477.21,-426.87 519.5,-451.28"/>
<polygon fill="black" stroke="black" points="517.73,-454.3 528.14,-456.27 521.23,-448.24 517.73,-454.3"/>
</g>
<!-- updates -->
<g id="node4" class="node">
<title>updates</title>
<polygon fill="lightyellow" stroke="black" points="325.84,-645.89 268.59,-645.89 268.59,-609.89 325.84,-609.89 325.84,-645.89"/>
<text xml:space="preserve" text-anchor="middle" x="297.21" y="-622.84" font-family="Times,serif" font-size="14.00">updates</text>
</g>
<!-- RFC2363&#45;&gt;updates -->
<g id="edge3" class="edge">
<title>RFC2363&#45;&gt;updates</title>
<path fill="none" stroke="black" d="M297.21,-374.33C297.21,-438.6 297.21,-546.49 297.21,-598.33"/>
<polygon fill="black" stroke="black" points="293.71,-598.15 297.21,-608.15 300.71,-598.15 293.71,-598.15"/>
</g>
<!-- cites -->
<g id="node6" class="node">
<title>cites</title>
<polygon fill="lightblue" stroke="black" points="60.13,-493.42 6.13,-493.42 6.13,-457.42 60.13,-457.42 60.13,-493.42"/>
<text xml:space="preserve" text-anchor="middle" x="33.13" y="-470.37" font-family="Times,serif" font-size="14.00">cites</text>
</g>
<!-- RFC2363&#45;&gt;cites -->
<g id="edge5" class="edge">
<title>RFC2363&#45;&gt;cites</title>
<path fill="none" stroke="black" d="M232.27,-360.44C181.34,-389.85 112.26,-429.73 70.29,-453.96"/>
<polygon fill="black" stroke="black" points="68.71,-450.83 61.8,-458.86 72.21,-456.89 68.71,-450.83"/>
</g>
<!-- obs_by -->
<g id="node2" class="node">
<title>obs_by</title>
<polygon fill="lightblue" stroke="black" points="66.25,-188.47 0,-188.47 0,-152.47 66.25,-152.47 66.25,-188.47"/>
<text xml:space="preserve" text-anchor="middle" x="33.12" y="-165.42" font-family="Times,serif" font-size="14.00">obsoletes</text>
</g>
<!-- obs_by&#45;&gt;RFC2363 -->
<g id="edge1" class="edge">
<title>obs_by&#45;&gt;RFC2363</title>
<path fill="none" stroke="black" d="M64.98,-188.86C103.77,-211.26 170.55,-249.82 222.58,-279.85"/>
<polygon fill="black" stroke="black" points="220.72,-282.82 231.13,-284.79 224.22,-276.76 220.72,-282.82"/>
</g>
<!-- updated_by -->
<g id="node5" class="node">
<title>updated_by</title>
<polygon fill="lightyellow" stroke="black" points="325.84,-36 268.59,-36 268.59,0 325.84,0 325.84,-36"/>
<text xml:space="preserve" text-anchor="middle" x="297.21" y="-12.95" font-family="Times,serif" font-size="14.00">updates</text>
</g>
<!-- updated_by&#45;&gt;RFC2363 -->
<g id="edge4" class="edge">
<title>updated_by&#45;&gt;RFC2363</title>
<path fill="none" stroke="black" d="M297.21,-36.16C297.21,-79.28 297.21,-189.47 297.21,-260.03"/>
<polygon fill="black" stroke="black" points="293.71,-259.91 297.21,-269.91 300.71,-259.91 293.71,-259.91"/>
</g>
<!-- rev_cites -->
<g id="node7" class="node">
<title>rev_cites</title>
<polygon fill="lightblue" stroke="black" points="588.3,-188.47 534.3,-188.47 534.3,-152.47 588.3,-152.47 588.3,-188.47"/>
<text xml:space="preserve" text-anchor="middle" x="561.3" y="-165.42" font-family="Times,serif" font-size="14.00">cites</text>
</g>
<!-- rev_cites&#45;&gt;RFC2363 -->
<g id="edge6" class="edge">
<title>rev_cites&#45;&gt;RFC2363</title>
<path fill="none" stroke="black" d="M534.04,-186.22C496.14,-208.1 426.09,-248.54 371.97,-279.78"/>
<polygon fill="black" stroke="black" points="370.28,-276.72 363.37,-284.75 373.78,-282.78 370.28,-276.72"/>
</g>
</g>
</svg>
