<?xml version="1.0" encoding="UTF-8" standalone="no"?>
<!DOCTYPE svg PUBLIC "-//W3C//DTD SVG 1.1//EN"
 "http://www.w3.org/Graphics/SVG/1.1/DTD/svg11.dtd">
<!-- Generated by graphviz version 14.1.1 (20251213.1925)
 -->
<!-- Title: Flow Pages: 1 -->
<svg width="956pt" height="152pt"
 viewBox="0.00 0.00 956.00 152.00" xmlns="http://www.w3.org/2000/svg" xmlns:xlink="http://www.w3.org/1999/xlink">
<g id="graph0" class="graph" transform="scale(1 1) rotate(0) translate(4 148)">
<title>Flow</title>
<polygon fill="white" stroke="none" points="-4,4 -4,-148 952.45,-148 952.45,4 -4,4"/>
<!-- RFC2877 -->
<g id="node1" class="node">
<title>RFC2877</title>
<g id="a_node1"><a xlink:title="This memo describes the interface to the IBM 5250 Telnet server that allows client Telnet to request a Telnet terminal or printer session using a specific device name. &#160;This memo provides information for the Internet community.">
<ellipse fill="green" stroke="black" cx="530.44" cy="-72" rx="115.79" ry="40.66"/>
<text xml:space="preserve" text-anchor="middle" x="530.44" y="-83.45" font-family="Times,serif" font-size="14.00">RFC2877</text>
<text xml:space="preserve" text-anchor="middle" x="530.44" y="-66.95" font-family="Times,serif" font-size="14.00">5250 Telnet Enhancements</text>
<text xml:space="preserve" text-anchor="middle" x="530.44" y="-50.45" font-family="Times,serif" font-size="14.00">2000</text>
</a>
</g>
</g>
<!-- obs -->
<g id="node4" class="node">
<title>obs</title>
<polygon fill="lightblue" stroke="black" points="737.48,-144 671.23,-144 671.23,-108 737.48,-108 737.48,-144"/>
<text xml:space="preserve" text-anchor="middle" x="704.35" y="-120.95" font-family="Times,serif" font-size="14.00">obsoletes</text>
</g>
<!-- RFC2877&#45;&gt;obs -->
<g id="edge3" class="edge">
<title>RFC2877&#45;&gt;obs</title>
<path fill="none" stroke="black" d="M617.65,-99.08C632.42,-103.72 647.18,-108.36 660.19,-112.44"/>
<polygon fill="black" stroke="black" points="659.09,-115.77 669.68,-115.42 661.19,-109.09 659.09,-115.77"/>
</g>
<!-- updates -->
<g id="node5" class="node">
<title>updates</title>
<polygon fill="lightyellow" stroke="black" points="732.98,-90 675.73,-90 675.73,-54 732.98,-54 732.98,-90"/>
<text xml:space="preserve" text-anchor="middle" x="704.35" y="-66.95" font-family="Times,serif" font-size="14.00">updates</text>
</g>
<!-- RFC2877&#45;&gt;updates -->
<g id="edge4" class="edge">
<title>RFC2877&#45;&gt;updates</title>
<path fill="none" stroke="black" d="M646.58,-72C652.67,-72 658.53,-72 664.02,-72"/>
<polygon fill="black" stroke="black" points="663.9,-75.5 673.9,-72 663.9,-68.5 663.9,-75.5"/>
</g>
<!-- cites -->
<g id="node8" class="node">
<title>cites</title>
<polygon fill="lightblue" stroke="black" points="731.35,-36 677.35,-36 677.35,0 731.35,0 731.35,-36"/>
<text xml:space="preserve" text-anchor="middle" x="704.35" y="-12.95" font-family="Times,serif" font-size="14.00">cites</text>
</g>
<!-- RFC2877&#45;&gt;cites -->
<g id="edge7" class="edge">
<title>RFC2877&#45;&gt;cites</title>
<path fill="none" stroke="black" d="M617.65,-44.92C634.7,-39.56 651.74,-34.21 666.09,-29.71"/>
<polygon fill="black" stroke="black" points="667.02,-33.08 675.52,-26.74 664.93,-26.4 667.02,-33.08"/>
</g>
<!-- obs_by -->
<g id="node2" class="node">
<title>obs_by</title>
<polygon fill="lightblue" stroke="black" points="389.65,-144 323.4,-144 323.4,-108 389.65,-108 389.65,-144"/>
<text xml:space="preserve" text-anchor="middle" x="356.52" y="-120.95" font-family="Times,serif" font-size="14.00">obsoletes</text>
</g>
<!-- obs_by&#45;&gt;RFC2877 -->
<g id="edge1" class="edge">
<title>obs_by&#45;&gt;RFC2877</title>
<path fill="none" stroke="black" d="M389.86,-115.84C402.27,-111.95 417.16,-107.27 432.52,-102.44"/>
<polygon fill="black" stroke="black" points="433.27,-105.88 441.76,-99.54 431.17,-99.2 433.27,-105.88"/>
</g>
<!-- RFC4777 -->
<g id="node3" class="node">
<title>RFC4777</title>
<g id="a_node3"><a xlink:href="RFC4777.html" xlink:title="This document describes the interface to the Telnet server on IBM&#39;s iSeries line of midrange business computers. This interface allows Telnet clients to request a Telnet terminal or printer session using specific session attributes related to device names, encryption, language support, auto&#45;sign&#45;on, response codes, session association, etc. These support functions are implemented primarily using the Telnet Environment option negotiation RFC 1572 to define new USERVAR variables that will be recognized by iSeries Telnet server. This memo provides information for the Internet community." target="_top">
<ellipse fill="none" stroke="black" cx="149.2" cy="-99" rx="149.2" ry="40.66"/>
<text xml:space="preserve" text-anchor="middle" x="149.2" y="-110.45" font-family="Times,serif" font-size="14.00">RFC4777</text>
<text xml:space="preserve" text-anchor="middle" x="149.2" y="-93.95" font-family="Times,serif" font-size="14.00">IBM&#39;s iSeries Telnet Enhancements</text>
<text xml:space="preserve" text-anchor="middle" x="149.2" y="-77.45" font-family="Times,serif" font-size="14.00">2006</text>
</a>
</g>
</g>
<!-- RFC4777&#45;&gt;obs_by -->
<g id="edge2" class="edge">
<title>RFC4777&#45;&gt;obs_by</title>
<path fill="none" stroke="black" d="M284.29,-116.63C294.12,-117.93 303.53,-119.16 312.1,-120.29"/>
<polygon fill="black" stroke="black" points="311.36,-123.72 321.73,-121.56 312.27,-116.78 311.36,-123.72"/>
</g>
<!-- rev_cites -->
<g id="node9" class="node">
<title>rev_cites</title>
<polygon fill="lightblue" stroke="black" points="383.52,-90 329.52,-90 329.52,-54 383.52,-54 383.52,-90"/>
<text xml:space="preserve" text-anchor="middle" x="356.52" y="-66.95" font-family="Times,serif" font-size="14.00">cites</text>
</g>
<!-- RFC4777&#45;&gt;rev_cites -->
<g id="edge9" class="edge">
<title>RFC4777&#45;&gt;rev_cites</title>
<path fill="none" stroke="black" d="M284.29,-81.37C296.43,-79.77 307.92,-78.26 317.99,-76.94"/>
<polygon fill="black" stroke="black" points="318.15,-80.44 327.61,-75.67 317.24,-73.5 318.15,-80.44"/>
</g>
<!-- RFC1205 -->
<g id="node6" class="node">
<title>RFC1205</title>
<g id="a_node6"><a xlink:href="RFC1205.html" xlink:title="This RFC is being distributed in order to document the interface to the IBM 5250 Telnet implementation. &#160;This memo provides information for the Internet community. &#160;It does not specify any standard." target="_top">
<ellipse fill="none" stroke="black" cx="855.46" cy="-72" rx="92.98" ry="40.66"/>
<text xml:space="preserve" text-anchor="middle" x="855.46" y="-83.45" font-family="Times,serif" font-size="14.00">RFC1205</text>
<text xml:space="preserve" text-anchor="middle" x="855.46" y="-66.95" font-family="Times,serif" font-size="14.00">5250 Telnet interface</text>
<text xml:space="preserve" text-anchor="middle" x="855.46" y="-50.45" font-family="Times,serif" font-size="14.00">1991</text>
</a>
</g>
</g>
<!-- updates&#45;&gt;RFC1205 -->
<g id="edge5" class="edge">
<title>updates&#45;&gt;RFC1205</title>
<path fill="none" stroke="black" d="M733.4,-72C738.72,-72 744.58,-72 750.74,-72"/>
<polygon fill="black" stroke="black" points="750.63,-75.5 760.63,-72 750.63,-68.5 750.63,-75.5"/>
</g>
<!-- updated_by -->
<g id="node7" class="node">
<title>updated_by</title>
<polygon fill="lightyellow" stroke="black" points="385.15,-36 327.9,-36 327.9,0 385.15,0 385.15,-36"/>
<text xml:space="preserve" text-anchor="middle" x="356.52" y="-12.95" font-family="Times,serif" font-size="14.00">updates</text>
</g>
<!-- updated_by&#45;&gt;RFC2877 -->
<g id="edge6" class="edge">
<title>updated_by&#45;&gt;RFC2877</title>
<path fill="none" stroke="black" d="M385.53,-26.8C398.69,-30.93 415.24,-36.13 432.38,-41.51"/>
<polygon fill="black" stroke="black" points="431.08,-44.77 441.67,-44.43 433.18,-38.1 431.08,-44.77"/>
</g>
<!-- rev_cites&#45;&gt;RFC2877 -->
<g id="edge8" class="edge">
<title>rev_cites&#45;&gt;RFC2877</title>
<path fill="none" stroke="black" d="M384.01,-72C389.76,-72 396.2,-72 403.09,-72"/>
<polygon fill="black" stroke="black" points="402.75,-75.5 412.75,-72 402.75,-68.5 402.75,-75.5"/>
</g>
</g>
</svg>
