<?xml version="1.0" encoding="UTF-8" standalone="no"?>
<!DOCTYPE svg PUBLIC "-//W3C//DTD SVG 1.1//EN"
 "http://www.w3.org/Graphics/SVG/1.1/DTD/svg11.dtd">
<!-- Generated by graphviz version 14.1.1 (20251213.1925)
 -->
<!-- Title: Flow Pages: 1 -->
<svg width="2028pt" height="1088pt"
 viewBox="0.00 0.00 2028.00 1088.00" xmlns="http://www.w3.org/2000/svg" xmlns:xlink="http://www.w3.org/1999/xlink">
<g id="graph0" class="graph" transform="scale(1 1) rotate(0) translate(4 1083.8)">
<title>Flow</title>
<polygon fill="white" stroke="none" points="-4,4 -4,-1083.8 2024.29,-1083.8 2024.29,4 -4,4"/>
<!-- RFC2197 -->
<g id="node1" class="node">
<title>RFC2197</title>
<g id="a_node1"><a xlink:title="This memo defines an extension to the SMTP service whereby a server can indicate the extent of its ability to accept multiple commands in a single TCP send operation. [STANDARDS&#45;TRACK]">
<ellipse fill="green" stroke="black" stroke-width="3" cx="1010.14" cy="-539.9" rx="215.49" ry="65.05"/>
<text xml:space="preserve" text-anchor="middle" x="1010.14" y="-564.8" font-family="Times,serif" font-size="18.00">RFC2197</text>
<text xml:space="preserve" text-anchor="middle" x="1010.14" y="-543.8" font-family="Times,serif" font-size="18.00">SMTP Service Extension for Command</text>
<text xml:space="preserve" text-anchor="middle" x="1010.14" y="-522.8" font-family="Times,serif" font-size="18.00">Pipelining</text>
<text xml:space="preserve" text-anchor="middle" x="1010.14" y="-501.8" font-family="Times,serif" font-size="18.00">1997</text>
</a>
</g>
</g>
<!-- obs -->
<g id="node4" class="node">
<title>obs</title>
<polygon fill="lightblue" stroke="black" points="1465.52,-801.69 1399.27,-801.69 1399.27,-765.69 1465.52,-765.69 1465.52,-801.69"/>
<text xml:space="preserve" text-anchor="middle" x="1432.4" y="-778.64" font-family="Times,serif" font-size="14.00">obsoletes</text>
</g>
<!-- RFC2197&#45;&gt;obs -->
<g id="edge3" class="edge">
<title>RFC2197&#45;&gt;obs</title>
<path fill="none" stroke="black" d="M1111.82,-598.6C1201.23,-650.23 1326.85,-722.75 1391.06,-759.82"/>
<polygon fill="black" stroke="black" points="1389.1,-762.73 1399.51,-764.7 1392.6,-756.67 1389.1,-762.73"/>
</g>
<!-- updates -->
<g id="node6" class="node">
<title>updates</title>
<polygon fill="lightyellow" stroke="black" points="1038.77,-1045.48 981.52,-1045.48 981.52,-1009.48 1038.77,-1009.48 1038.77,-1045.48"/>
<text xml:space="preserve" text-anchor="middle" x="1010.14" y="-1022.43" font-family="Times,serif" font-size="14.00">updates</text>
</g>
<!-- RFC2197&#45;&gt;updates -->
<g id="edge5" class="edge">
<title>RFC2197&#45;&gt;updates</title>
<path fill="none" stroke="black" d="M1010.14,-606.42C1010.14,-713.77 1010.14,-920.96 1010.14,-997.83"/>
<polygon fill="black" stroke="black" points="1006.64,-997.5 1010.14,-1007.5 1013.64,-997.5 1006.64,-997.5"/>
</g>
<!-- cites -->
<g id="node8" class="node">
<title>cites</title>
<polygon fill="lightblue" stroke="black" points="614.89,-801.69 560.89,-801.69 560.89,-765.69 614.89,-765.69 614.89,-801.69"/>
<text xml:space="preserve" text-anchor="middle" x="587.89" y="-778.64" font-family="Times,serif" font-size="14.00">cites</text>
</g>
<!-- RFC2197&#45;&gt;cites -->
<g id="edge7" class="edge">
<title>RFC2197&#45;&gt;cites</title>
<path fill="none" stroke="black" d="M908.47,-598.6C817.16,-651.32 688.1,-725.83 625.23,-762.13"/>
<polygon fill="black" stroke="black" points="623.58,-759.04 616.67,-767.07 627.08,-765.1 623.58,-759.04"/>
</g>
<!-- obs_by -->
<g id="node2" class="node">
<title>obs_by</title>
<polygon fill="lightblue" stroke="black" points="621.02,-314.11 554.77,-314.11 554.77,-278.11 621.02,-278.11 621.02,-314.11"/>
<text xml:space="preserve" text-anchor="middle" x="587.89" y="-291.06" font-family="Times,serif" font-size="14.00">obsoletes</text>
</g>
<!-- obs_by&#45;&gt;RFC2197 -->
<g id="edge1" class="edge">
<title>obs_by&#45;&gt;RFC2197</title>
<path fill="none" stroke="black" d="M619.63,-314.44C678.07,-348.18 805.27,-421.62 898.69,-475.55"/>
<polygon fill="black" stroke="black" points="896.75,-478.48 907.16,-480.44 900.25,-472.41 896.75,-478.48"/>
</g>
<!-- RFC2920 -->
<g id="node3" class="node">
<title>RFC2920</title>
<g id="a_node3"><a xlink:href="RFC2920.html" xlink:title="This memo defines an extension to the Simple Mail Transfer Protocol (SMTP) service whereby a server can indicate the extent of its ability to accept multiple commands in a single Transmission Control Protocol (TCP) send operation. [STANDARDS&#45;TRACK]" target="_top">
<ellipse fill="none" stroke="black" cx="165.64" cy="-52.33" rx="165.64" ry="52.33"/>
<text xml:space="preserve" text-anchor="middle" x="165.64" y="-72.03" font-family="Times,serif" font-size="14.00">RFC2920</text>
<text xml:space="preserve" text-anchor="middle" x="165.64" y="-55.53" font-family="Times,serif" font-size="14.00">SMTP Service Extension for Command</text>
<text xml:space="preserve" text-anchor="middle" x="165.64" y="-39.03" font-family="Times,serif" font-size="14.00">Pipelining</text>
<text xml:space="preserve" text-anchor="middle" x="165.64" y="-22.53" font-family="Times,serif" font-size="14.00">2000</text>
</a>
</g>
</g>
<!-- RFC2920&#45;&gt;obs_by -->
<g id="edge2" class="edge">
<title>RFC2920&#45;&gt;obs_by</title>
<path fill="none" stroke="black" d="M245.56,-98.47C335.12,-150.17 476.86,-232.01 546.5,-272.22"/>
<polygon fill="black" stroke="black" points="544.52,-275.11 554.93,-277.08 548.02,-269.05 544.52,-275.11"/>
</g>
<!-- RFC1854 -->
<g id="node5" class="node">
<title>RFC1854</title>
<g id="a_node5"><a xlink:href="RFC1854.html" xlink:title="This memo defines an extension to the SMTP service whereby a server can indicate the extent of its ability to accept multiple commands in a single TCP send operation. [STANDARDS&#45;TRACK]" target="_top">
<ellipse fill="none" stroke="black" cx="1854.65" cy="-1027.48" rx="165.64" ry="52.33"/>
<text xml:space="preserve" text-anchor="middle" x="1854.65" y="-1047.18" font-family="Times,serif" font-size="14.00">RFC1854</text>
<text xml:space="preserve" text-anchor="middle" x="1854.65" y="-1030.68" font-family="Times,serif" font-size="14.00">SMTP Service Extension for Command</text>
<text xml:space="preserve" text-anchor="middle" x="1854.65" y="-1014.18" font-family="Times,serif" font-size="14.00">Pipelining</text>
<text xml:space="preserve" text-anchor="middle" x="1854.65" y="-997.68" font-family="Times,serif" font-size="14.00">1995</text>
</a>
</g>
</g>
<!-- obs&#45;&gt;RFC1854 -->
<g id="edge4" class="edge">
<title>obs&#45;&gt;RFC1854</title>
<path fill="none" stroke="black" d="M1464.13,-802.01C1527.21,-838.43 1670.37,-921.08 1764.71,-975.55"/>
<polygon fill="black" stroke="black" points="1762.82,-978.5 1773.23,-980.47 1766.32,-972.44 1762.82,-978.5"/>
</g>
<!-- updated_by -->
<g id="node7" class="node">
<title>updated_by</title>
<polygon fill="lightyellow" stroke="black" points="1038.77,-70.33 981.52,-70.33 981.52,-34.33 1038.77,-34.33 1038.77,-70.33"/>
<text xml:space="preserve" text-anchor="middle" x="1010.14" y="-47.28" font-family="Times,serif" font-size="14.00">updates</text>
</g>
<!-- updated_by&#45;&gt;RFC2197 -->
<g id="edge6" class="edge">
<title>updated_by&#45;&gt;RFC2197</title>
<path fill="none" stroke="black" d="M1010.14,-70.55C1010.14,-133.79 1010.14,-346.26 1010.14,-462.43"/>
<polygon fill="black" stroke="black" points="1006.64,-462.2 1010.14,-472.2 1013.64,-462.2 1006.64,-462.2"/>
</g>
<!-- rev_cites -->
<g id="node9" class="node">
<title>rev_cites</title>
<polygon fill="lightblue" stroke="black" points="1459.4,-314.11 1405.4,-314.11 1405.4,-278.11 1459.4,-278.11 1459.4,-314.11"/>
<text xml:space="preserve" text-anchor="middle" x="1432.4" y="-291.06" font-family="Times,serif" font-size="14.00">cites</text>
</g>
<!-- rev_cites&#45;&gt;RFC2197 -->
<g id="edge8" class="edge">
<title>rev_cites&#45;&gt;RFC2197</title>
<path fill="none" stroke="black" d="M1405.02,-311.92C1348.74,-344.41 1217.33,-420.28 1121.51,-475.6"/>
<polygon fill="black" stroke="black" points="1119.99,-472.44 1113.08,-480.47 1123.49,-478.5 1119.99,-472.44"/>
</g>
</g>
</svg>
