<?xml version="1.0" encoding="UTF-8" standalone="no"?>
<!DOCTYPE svg PUBLIC "-//W3C//DTD SVG 1.1//EN"
 "http://www.w3.org/Graphics/SVG/1.1/DTD/svg11.dtd">
<!-- Generated by graphviz version 14.1.1 (20251213.1925)
 -->
<!-- Title: Flow Pages: 1 -->
<svg width="1761pt" height="1457pt"
 viewBox="0.00 0.00 1761.00 1457.00" xmlns="http://www.w3.org/2000/svg" xmlns:xlink="http://www.w3.org/1999/xlink">
<g id="graph0" class="graph" transform="scale(1 1) rotate(0) translate(4 1453.48)">
<title>Flow</title>
<polygon fill="white" stroke="none" points="-4,4 -4,-1453.48 1756.88,-1453.48 1756.88,4 -4,4"/>
<!-- RFC2167 -->
<g id="node1" class="node">
<title>RFC2167</title>
<g id="a_node1"><a xlink:title="This memo describes Version 1.5 of the client/server interaction of RWhois. &#160;RWhois provides a distributed system for the discovery, retrieval, and maintenance of directory information. &#160;This memo provides information for the Internet community. &#160;This memo does not specify an Internet standard of any kind.">
<ellipse fill="green" stroke="black" stroke-width="3" cx="888.64" cy="-652.52" rx="217.08" ry="50.2"/>
<text xml:space="preserve" text-anchor="middle" x="888.64" y="-666.92" font-family="Times,serif" font-size="18.00">RFC2167</text>
<text xml:space="preserve" text-anchor="middle" x="888.64" y="-645.92" font-family="Times,serif" font-size="18.00">Referral Whois (RWhois) Protocol V1.5</text>
<text xml:space="preserve" text-anchor="middle" x="888.64" y="-624.92" font-family="Times,serif" font-size="18.00">1997</text>
</a>
</g>
</g>
<!-- obs -->
<g id="node3" class="node">
<title>obs</title>
<polygon fill="lightblue" stroke="black" points="1281.41,-787.38 1215.16,-787.38 1215.16,-751.38 1281.41,-751.38 1281.41,-787.38"/>
<text xml:space="preserve" text-anchor="middle" x="1248.28" y="-764.33" font-family="Times,serif" font-size="14.00">obsoletes</text>
</g>
<!-- RFC2167&#45;&gt;obs -->
<g id="edge2" class="edge">
<title>RFC2167&#45;&gt;obs</title>
<path fill="none" stroke="black" d="M1017.21,-694.3C1082.41,-715.48 1157.42,-739.85 1203.84,-754.94"/>
<polygon fill="black" stroke="black" points="1202.69,-758.24 1213.28,-758 1204.85,-751.58 1202.69,-758.24"/>
</g>
<!-- updates -->
<g id="node5" class="node">
<title>updates</title>
<polygon fill="lightyellow" stroke="black" points="1139.54,-976.45 1082.29,-976.45 1082.29,-940.45 1139.54,-940.45 1139.54,-976.45"/>
<text xml:space="preserve" text-anchor="middle" x="1110.91" y="-953.4" font-family="Times,serif" font-size="14.00">updates</text>
</g>
<!-- RFC2167&#45;&gt;updates -->
<g id="edge4" class="edge">
<title>RFC2167&#45;&gt;updates</title>
<path fill="none" stroke="black" d="M925.59,-703.38C973.03,-768.67 1053.64,-879.62 1090.91,-930.93"/>
<polygon fill="black" stroke="black" points="1087.96,-932.82 1096.67,-938.85 1093.62,-928.7 1087.96,-932.82"/>
</g>
<!-- cites -->
<g id="node7" class="node">
<title>cites</title>
<polygon fill="lightblue" stroke="black" points="556,-787.38 502,-787.38 502,-751.38 556,-751.38 556,-787.38"/>
<text xml:space="preserve" text-anchor="middle" x="529" y="-764.33" font-family="Times,serif" font-size="14.00">cites</text>
</g>
<!-- RFC2167&#45;&gt;cites -->
<g id="edge6" class="edge">
<title>RFC2167&#45;&gt;cites</title>
<path fill="none" stroke="black" d="M760.07,-694.3C691.85,-716.46 612.89,-742.12 567.17,-756.97"/>
<polygon fill="black" stroke="black" points="566.16,-753.62 557.73,-760.04 568.32,-760.28 566.16,-753.62"/>
</g>
<!-- obs_by -->
<g id="node2" class="node">
<title>obs_by</title>
<polygon fill="lightblue" stroke="black" points="921.76,-292.37 855.51,-292.37 855.51,-256.37 921.76,-256.37 921.76,-292.37"/>
<text xml:space="preserve" text-anchor="middle" x="888.64" y="-269.32" font-family="Times,serif" font-size="14.00">obsoletes</text>
</g>
<!-- obs_by&#45;&gt;RFC2167 -->
<g id="edge1" class="edge">
<title>obs_by&#45;&gt;RFC2167</title>
<path fill="none" stroke="black" d="M888.64,-292.86C888.64,-346.08 888.64,-501.4 888.64,-589.54"/>
<polygon fill="black" stroke="black" points="885.14,-589.48 888.64,-599.48 892.14,-589.48 885.14,-589.48"/>
</g>
<!-- RFC1714 -->
<g id="node4" class="node">
<title>RFC1714</title>
<g id="a_node4"><a xlink:href="RFC1714.html" xlink:title="This memo describes version 1.0 of the client/server interaction of RWhois. &#160;RWhois provides a distributed system for the display of hierarchical information. &#160;This memo provides information for the Internet community. &#160;This memo does not specify an Internet standard of any kind." target="_top">
<ellipse fill="none" stroke="black" cx="1607.93" cy="-886.23" rx="144.96" ry="40.66"/>
<text xml:space="preserve" text-anchor="middle" x="1607.93" y="-897.68" font-family="Times,serif" font-size="14.00">RFC1714</text>
<text xml:space="preserve" text-anchor="middle" x="1607.93" y="-881.18" font-family="Times,serif" font-size="14.00">Referral Whois Protocol (RWhois)</text>
<text xml:space="preserve" text-anchor="middle" x="1607.93" y="-864.68" font-family="Times,serif" font-size="14.00">1994</text>
</a>
</g>
</g>
<!-- obs&#45;&gt;RFC1714 -->
<g id="edge3" class="edge">
<title>obs&#45;&gt;RFC1714</title>
<path fill="none" stroke="black" d="M1281.8,-780.27C1331.49,-796.41 1426.9,-827.41 1501.75,-851.73"/>
<polygon fill="black" stroke="black" points="1500.6,-855.04 1511.19,-854.8 1502.76,-848.38 1500.6,-855.04"/>
</g>
<!-- updated_by -->
<g id="node6" class="node">
<title>updated_by</title>
<polygon fill="lightyellow" stroke="black" points="1139.54,-364.59 1082.29,-364.59 1082.29,-328.59 1139.54,-328.59 1139.54,-364.59"/>
<text xml:space="preserve" text-anchor="middle" x="1110.91" y="-341.54" font-family="Times,serif" font-size="14.00">updates</text>
</g>
<!-- updated_by&#45;&gt;RFC2167 -->
<g id="edge5" class="edge">
<title>updated_by&#45;&gt;RFC2167</title>
<path fill="none" stroke="black" d="M1097.67,-364.81C1065.79,-408.7 983.58,-521.85 932.27,-592.47"/>
<polygon fill="black" stroke="black" points="929.49,-590.34 926.44,-600.49 935.15,-594.46 929.49,-590.34"/>
</g>
<!-- cites&#45;&gt;RFC1714 -->
<g id="edge11" class="edge">
<title>cites&#45;&gt;RFC1714</title>
<path fill="none" stroke="black" d="M556.48,-772.35C681.59,-785.9 1202.32,-842.3 1460.91,-870.31"/>
<polygon fill="black" stroke="black" points="1460.44,-873.78 1470.76,-871.38 1461.19,-866.82 1460.44,-873.78"/>
</g>
<!-- RFC1034 -->
<g id="node8" class="node">
<title>RFC1034</title>
<g id="a_node8"><a xlink:href="RFC1034.html" xlink:title="This RFC is the revised basic definition of The Domain Name System. &#160;It obsoletes RFC&#45;882. &#160;This memo describes the domain style names and their used for host address look up and electronic mail forwarding. &#160;It discusses the clients and servers in the domain name system and the protocol used between them." target="_top">
<ellipse fill="none" stroke="black" cx="888.64" cy="-1408.83" rx="164.05" ry="40.66"/>
<text xml:space="preserve" text-anchor="middle" x="888.64" y="-1420.28" font-family="Times,serif" font-size="14.00">RFC1034</text>
<text xml:space="preserve" text-anchor="middle" x="888.64" y="-1403.78" font-family="Times,serif" font-size="14.00">Domain names &#45; concepts and facilities</text>
<text xml:space="preserve" text-anchor="middle" x="888.64" y="-1387.28" font-family="Times,serif" font-size="14.00">1987</text>
</a>
</g>
</g>
<!-- cites&#45;&gt;RFC1034 -->
<g id="edge7" class="edge">
<title>cites&#45;&gt;RFC1034</title>
<path fill="none" stroke="black" d="M539.37,-787.82C587.02,-872.54 785.72,-1225.83 860.24,-1358.33"/>
<polygon fill="black" stroke="black" points="857.11,-1359.91 865.07,-1366.91 863.21,-1356.48 857.11,-1359.91"/>
</g>
<!-- RFC2119 -->
<g id="node9" class="node">
<title>RFC2119</title>
<g id="a_node9"><a xlink:href="RFC2119.html" xlink:title="In many standards track documents several words are used to signify the requirements in the specification. &#160;These words are often capitalized. &#160;This document defines these words as they should be interpreted in IETF documents. &#160;This document specifies an Internet Best Current Practices for the Internet Community, and requests discussion and suggestions for improvements." target="_top">
<ellipse fill="none" stroke="black" cx="444.1" cy="-1264.38" rx="160.34" ry="52.33"/>
<text xml:space="preserve" text-anchor="middle" x="444.1" y="-1284.08" font-family="Times,serif" font-size="14.00">RFC2119</text>
<text xml:space="preserve" text-anchor="middle" x="444.1" y="-1267.58" font-family="Times,serif" font-size="14.00">Key words for use in RFCs to Indicate</text>
<text xml:space="preserve" text-anchor="middle" x="444.1" y="-1251.08" font-family="Times,serif" font-size="14.00">Requirement Levels</text>
<text xml:space="preserve" text-anchor="middle" x="444.1" y="-1234.58" font-family="Times,serif" font-size="14.00">1997</text>
</a>
</g>
</g>
<!-- cites&#45;&gt;RFC2119 -->
<g id="edge8" class="edge">
<title>cites&#45;&gt;RFC2119</title>
<path fill="none" stroke="black" d="M525.87,-787.58C514.45,-854.19 474.57,-1086.69 455.04,-1200.56"/>
<polygon fill="black" stroke="black" points="451.6,-1199.92 453.36,-1210.37 458.5,-1201.11 451.6,-1199.92"/>
</g>
<!-- RFC1991 -->
<g id="node10" class="node">
<title>RFC1991</title>
<g id="a_node10"><a xlink:href="RFC1991.html" xlink:title="This document describes the format of PGP files, i.e., messages that have been encrypted and/or signed with PGP. &#160;This memo provides information for the Internet community. &#160;This memo does not specify an Internet standard of any kind." target="_top">
<ellipse fill="none" stroke="black" cx="169.35" cy="-886.23" rx="139.65" ry="40.66"/>
<text xml:space="preserve" text-anchor="middle" x="169.35" y="-897.68" font-family="Times,serif" font-size="14.00">RFC1991</text>
<text xml:space="preserve" text-anchor="middle" x="169.35" y="-881.18" font-family="Times,serif" font-size="14.00">PGP Message Exchange Formats</text>
<text xml:space="preserve" text-anchor="middle" x="169.35" y="-864.68" font-family="Times,serif" font-size="14.00">1996</text>
</a>
</g>
</g>
<!-- cites&#45;&gt;RFC1991 -->
<g id="edge9" class="edge">
<title>cites&#45;&gt;RFC1991</title>
<path fill="none" stroke="black" d="M501.67,-778.26C453.76,-793.82 352.27,-826.8 273.98,-852.24"/>
<polygon fill="black" stroke="black" points="272.96,-848.89 264.53,-855.31 275.12,-855.55 272.96,-848.89"/>
</g>
<!-- RFC2052 -->
<g id="node11" class="node">
<title>RFC2052</title>
<g id="a_node11"><a xlink:href="RFC2052.html" xlink:title="This document describes a DNS RR which specifies the location of the server(s) for a specific protocol and domain (like a more general form of MX). &#160;This memo defines an Experimental Protocol for the Internet community." target="_top">
<ellipse fill="none" stroke="black" cx="169.35" cy="-418.81" rx="169.35" ry="52.33"/>
<text xml:space="preserve" text-anchor="middle" x="169.35" y="-438.51" font-family="Times,serif" font-size="14.00">RFC2052</text>
<text xml:space="preserve" text-anchor="middle" x="169.35" y="-422.01" font-family="Times,serif" font-size="14.00">A DNS RR for specifying the location of</text>
<text xml:space="preserve" text-anchor="middle" x="169.35" y="-405.51" font-family="Times,serif" font-size="14.00">services (DNS SRV)</text>
<text xml:space="preserve" text-anchor="middle" x="169.35" y="-389.01" font-family="Times,serif" font-size="14.00">1996</text>
</a>
</g>
</g>
<!-- cites&#45;&gt;RFC2052 -->
<g id="edge10" class="edge">
<title>cites&#45;&gt;RFC2052</title>
<path fill="none" stroke="black" d="M510.17,-751.02C458.34,-700.51 311.96,-557.82 228.87,-476.83"/>
<polygon fill="black" stroke="black" points="231.47,-474.48 221.87,-470 226.59,-479.49 231.47,-474.48"/>
</g>
<!-- RFC1738 -->
<g id="node12" class="node">
<title>RFC1738</title>
<g id="a_node12"><a xlink:href="RFC1738.html" xlink:title="This document specifies a Uniform Resource Locator (URL), the syntax and semantics of formalized information for location and access of resources via the Internet. [STANDARDS&#45;TRACK]" target="_top">
<ellipse fill="none" stroke="black" cx="444.1" cy="-40.66" rx="147.08" ry="40.66"/>
<text xml:space="preserve" text-anchor="middle" x="444.1" y="-52.11" font-family="Times,serif" font-size="14.00">RFC1738</text>
<text xml:space="preserve" text-anchor="middle" x="444.1" y="-35.61" font-family="Times,serif" font-size="14.00">Uniform Resource Locators (URL)</text>
<text xml:space="preserve" text-anchor="middle" x="444.1" y="-19.11" font-family="Times,serif" font-size="14.00">1994</text>
</a>
</g>
</g>
<!-- cites&#45;&gt;RFC1738 -->
<g id="edge12" class="edge">
<title>cites&#45;&gt;RFC1738</title>
<path fill="none" stroke="black" d="M526.85,-751C516.05,-658.28 467.38,-240.51 450.16,-92.69"/>
<polygon fill="black" stroke="black" points="453.69,-92.72 449.05,-83.2 446.73,-93.53 453.69,-92.72"/>
</g>
<!-- rev_cites -->
<g id="node13" class="node">
<title>rev_cites</title>
<polygon fill="lightblue" stroke="black" points="1275.28,-553.67 1221.28,-553.67 1221.28,-517.67 1275.28,-517.67 1275.28,-553.67"/>
<text xml:space="preserve" text-anchor="middle" x="1248.28" y="-530.62" font-family="Times,serif" font-size="14.00">cites</text>
</g>
<!-- rev_cites&#45;&gt;RFC2167 -->
<g id="edge13" class="edge">
<title>rev_cites&#45;&gt;RFC2167</title>
<path fill="none" stroke="black" d="M1220.96,-544.55C1179.87,-557.89 1099.38,-584.05 1027.9,-607.27"/>
<polygon fill="black" stroke="black" points="1026.84,-603.94 1018.41,-610.36 1029.01,-610.59 1026.84,-603.94"/>
</g>
</g>
</svg>
