<?xml version="1.0" encoding="UTF-8" standalone="no"?>
<!DOCTYPE svg PUBLIC "-//W3C//DTD SVG 1.1//EN"
 "http://www.w3.org/Graphics/SVG/1.1/DTD/svg11.dtd">
<!-- Generated by graphviz version 14.1.1 (20251213.1925)
 -->
<!-- Title: Flow Pages: 1 -->
<svg width="1739pt" height="857pt"
 viewBox="0.00 0.00 1739.00 857.00" xmlns="http://www.w3.org/2000/svg" xmlns:xlink="http://www.w3.org/1999/xlink">
<g id="graph0" class="graph" transform="scale(1 1) rotate(0) translate(4 852.79)">
<title>Flow</title>
<polygon fill="white" stroke="none" points="-4,4 -4,-852.79 1734.53,-852.79 1734.53,4 -4,4"/>
<!-- RFC2763 -->
<g id="node1" class="node">
<title>RFC2763</title>
<g id="a_node1"><a xlink:title="This document defines a new TLV which allows the IS&#45;IS routers to flood their name to system ID mapping information across the IS&#45;IS network. &#160;This memo provides information for the Internet community.">
<ellipse fill="green" stroke="black" stroke-width="3" cx="865.27" cy="-441.56" rx="248.9" ry="65.05"/>
<text xml:space="preserve" text-anchor="middle" x="865.27" y="-466.46" font-family="Times,serif" font-size="18.00">RFC2763</text>
<text xml:space="preserve" text-anchor="middle" x="865.27" y="-445.46" font-family="Times,serif" font-size="18.00">Dynamic Hostname Exchange Mechanism for</text>
<text xml:space="preserve" text-anchor="middle" x="865.27" y="-424.46" font-family="Times,serif" font-size="18.00">IS&#45;IS</text>
<text xml:space="preserve" text-anchor="middle" x="865.27" y="-403.46" font-family="Times,serif" font-size="18.00">2000</text>
</a>
</g>
</g>
<!-- obs -->
<g id="node4" class="node">
<title>obs</title>
<polygon fill="lightblue" stroke="black" points="1235.48,-654.17 1169.23,-654.17 1169.23,-618.17 1235.48,-618.17 1235.48,-654.17"/>
<text xml:space="preserve" text-anchor="middle" x="1202.35" y="-631.12" font-family="Times,serif" font-size="14.00">obsoletes</text>
</g>
<!-- RFC2763&#45;&gt;obs -->
<g id="edge3" class="edge">
<title>RFC2763&#45;&gt;obs</title>
<path fill="none" stroke="black" d="M969.61,-501.8C1034.1,-539.04 1113.34,-584.78 1160.74,-612.15"/>
<polygon fill="black" stroke="black" points="1158.92,-615.14 1169.33,-617.11 1162.42,-609.08 1158.92,-615.14"/>
</g>
<!-- updates -->
<g id="node5" class="node">
<title>updates</title>
<polygon fill="lightyellow" stroke="black" points="893.89,-848.79 836.64,-848.79 836.64,-812.79 893.89,-812.79 893.89,-848.79"/>
<text xml:space="preserve" text-anchor="middle" x="865.27" y="-825.74" font-family="Times,serif" font-size="14.00">updates</text>
</g>
<!-- RFC2763&#45;&gt;updates -->
<g id="edge4" class="edge">
<title>RFC2763&#45;&gt;updates</title>
<path fill="none" stroke="black" d="M865.27,-508.03C865.27,-593.73 865.27,-739.1 865.27,-801.22"/>
<polygon fill="black" stroke="black" points="861.77,-800.98 865.27,-810.98 868.77,-800.98 861.77,-800.98"/>
</g>
<!-- cites -->
<g id="node7" class="node">
<title>cites</title>
<polygon fill="lightblue" stroke="black" points="555.18,-654.17 501.18,-654.17 501.18,-618.17 555.18,-618.17 555.18,-654.17"/>
<text xml:space="preserve" text-anchor="middle" x="528.18" y="-631.12" font-family="Times,serif" font-size="14.00">cites</text>
</g>
<!-- RFC2763&#45;&gt;cites -->
<g id="edge6" class="edge">
<title>RFC2763&#45;&gt;cites</title>
<path fill="none" stroke="black" d="M760.92,-501.8C694.27,-540.28 611.87,-587.86 565.14,-614.84"/>
<polygon fill="black" stroke="black" points="563.67,-611.64 556.76,-619.68 567.17,-617.71 563.67,-611.64"/>
</g>
<!-- obs_by -->
<g id="node2" class="node">
<title>obs_by</title>
<polygon fill="lightblue" stroke="black" points="561.31,-264.94 495.06,-264.94 495.06,-228.94 561.31,-228.94 561.31,-264.94"/>
<text xml:space="preserve" text-anchor="middle" x="528.18" y="-241.89" font-family="Times,serif" font-size="14.00">obsoletes</text>
</g>
<!-- obs_by&#45;&gt;RFC2763 -->
<g id="edge1" class="edge">
<title>obs_by&#45;&gt;RFC2763</title>
<path fill="none" stroke="black" d="M560.2,-265.43C603.66,-290.52 683.63,-336.69 750.79,-375.47"/>
<polygon fill="black" stroke="black" points="748.88,-378.4 759.29,-380.37 752.38,-372.34 748.88,-378.4"/>
</g>
<!-- RFC5301 -->
<g id="node3" class="node">
<title>RFC5301</title>
<g id="a_node3"><a xlink:href="RFC5301.html" xlink:title="RFC 2763 defined a simple and dynamic mechanism for routers running IS&#45;IS to learn about symbolic hostnames. RFC 2763 defined a new TLV that allows the IS&#45;IS routers to flood their name&#45;to&#45;systemID mapping information across the IS&#45;IS network. This document obsoletes RFC 2763. This document moves the capability provided by RFC 2763 to the Standards Track. [STANDARDS&#45;TRACK]" target="_top">
<ellipse fill="none" stroke="black" cx="191.1" cy="-52.33" rx="191.1" ry="52.33"/>
<text xml:space="preserve" text-anchor="middle" x="191.1" y="-72.03" font-family="Times,serif" font-size="14.00">RFC5301</text>
<text xml:space="preserve" text-anchor="middle" x="191.1" y="-55.53" font-family="Times,serif" font-size="14.00">Dynamic Hostname Exchange Mechanism for</text>
<text xml:space="preserve" text-anchor="middle" x="191.1" y="-39.03" font-family="Times,serif" font-size="14.00">IS&#45;IS</text>
<text xml:space="preserve" text-anchor="middle" x="191.1" y="-22.53" font-family="Times,serif" font-size="14.00">2008</text>
</a>
</g>
</g>
<!-- RFC5301&#45;&gt;obs_by -->
<g id="edge2" class="edge">
<title>RFC5301&#45;&gt;obs_by</title>
<path fill="none" stroke="black" d="M273.56,-99.93C341.12,-138.94 433.92,-192.52 486.81,-223.06"/>
<polygon fill="black" stroke="black" points="484.8,-225.94 495.21,-227.91 488.3,-219.87 484.8,-225.94"/>
</g>
<!-- rev_cites -->
<g id="node8" class="node">
<title>rev_cites</title>
<polygon fill="lightblue" stroke="black" points="1229.35,-264.94 1175.35,-264.94 1175.35,-228.94 1229.35,-228.94 1229.35,-264.94"/>
<text xml:space="preserve" text-anchor="middle" x="1202.35" y="-241.89" font-family="Times,serif" font-size="14.00">cites</text>
</g>
<!-- RFC5301&#45;&gt;rev_cites -->
<g id="edge8" class="edge">
<title>RFC5301&#45;&gt;rev_cites</title>
<path fill="none" stroke="black" d="M347.99,-82.52C587.64,-128.64 1031.04,-213.97 1163.81,-239.53"/>
<polygon fill="black" stroke="black" points="1163.01,-242.93 1173.49,-241.39 1164.33,-236.06 1163.01,-242.93"/>
</g>
<!-- updated_by -->
<g id="node6" class="node">
<title>updated_by</title>
<polygon fill="lightyellow" stroke="black" points="893.89,-70.33 836.64,-70.33 836.64,-34.33 893.89,-34.33 893.89,-70.33"/>
<text xml:space="preserve" text-anchor="middle" x="865.27" y="-47.28" font-family="Times,serif" font-size="14.00">updates</text>
</g>
<!-- updated_by&#45;&gt;RFC2763 -->
<g id="edge5" class="edge">
<title>updated_by&#45;&gt;RFC2763</title>
<path fill="none" stroke="black" d="M865.27,-70.58C865.27,-122.16 865.27,-271.27 865.27,-363.99"/>
<polygon fill="black" stroke="black" points="861.77,-363.77 865.27,-373.77 868.77,-363.77 861.77,-363.77"/>
</g>
<!-- rev_cites&#45;&gt;RFC2763 -->
<g id="edge7" class="edge">
<title>rev_cites&#45;&gt;RFC2763</title>
<path fill="none" stroke="black" d="M1175.05,-262.7C1132.84,-287.08 1049.31,-335.3 979.62,-375.54"/>
<polygon fill="black" stroke="black" points="978.11,-372.37 971.2,-380.4 981.61,-378.43 978.11,-372.37"/>
</g>
<!-- RFC5642 -->
<g id="node9" class="node">
<title>RFC5642</title>
<g id="a_node9"><a xlink:href="RFC5642.html" xlink:title="This document defines a new OSPF Router Information (RI) TLV that allows OSPF routers to flood their hostname&#45;to&#45;Router&#45;ID mapping information across an OSPF network to provide a simple and dynamic mechanism for routers running OSPF to learn about symbolic hostnames, just like for routers running IS&#45;IS. &#160;This mechanism is applicable to both OSPFv2 and OSPFv3. [STANDARDS&#45;TRACK]" target="_top">
<ellipse fill="none" stroke="black" cx="1539.44" cy="-52.33" rx="191.1" ry="52.33"/>
<text xml:space="preserve" text-anchor="middle" x="1539.44" y="-72.03" font-family="Times,serif" font-size="14.00">RFC5642</text>
<text xml:space="preserve" text-anchor="middle" x="1539.44" y="-55.53" font-family="Times,serif" font-size="14.00">Dynamic Hostname Exchange Mechanism for</text>
<text xml:space="preserve" text-anchor="middle" x="1539.44" y="-39.03" font-family="Times,serif" font-size="14.00">OSPF</text>
<text xml:space="preserve" text-anchor="middle" x="1539.44" y="-22.53" font-family="Times,serif" font-size="14.00">2009</text>
</a>
</g>
</g>
<!-- RFC5642&#45;&gt;rev_cites -->
<g id="edge9" class="edge">
<title>RFC5642&#45;&gt;rev_cites</title>
<path fill="none" stroke="black" d="M1456.98,-99.93C1387.54,-140.02 1291.46,-195.5 1239.43,-225.54"/>
<polygon fill="black" stroke="black" points="1237.85,-222.41 1230.94,-230.44 1241.35,-228.47 1237.85,-222.41"/>
</g>
</g>
</svg>
