<?xml version="1.0" encoding="UTF-8" standalone="no"?>
<!DOCTYPE svg PUBLIC "-//W3C//DTD SVG 1.1//EN"
 "http://www.w3.org/Graphics/SVG/1.1/DTD/svg11.dtd">
<!-- Generated by graphviz version 14.1.1 (20251213.1925)
 -->
<!-- Title: Flow Pages: 1 -->
<svg width="2030pt" height="1353pt"
 viewBox="0.00 0.00 2030.00 1353.00" xmlns="http://www.w3.org/2000/svg" xmlns:xlink="http://www.w3.org/1999/xlink">
<g id="graph0" class="graph" transform="scale(1 1) rotate(0) translate(4 1349.41)">
<title>Flow</title>
<polygon fill="white" stroke="none" points="-4,4 -4,-1349.41 2025.95,-1349.41 2025.95,4 -4,4"/>
<!-- RFC2533 -->
<g id="node1" class="node">
<title>RFC2533</title>
<g id="a_node1"><a xlink:title="This document introduces and describes a syntax that can be used to define feature sets which are formed from combinations and relations involving individual media features. [STANDARDS&#45;TRACK]">
<ellipse fill="green" stroke="black" stroke-width="3" cx="1032.47" cy="-898.49" rx="213.9" ry="65.05"/>
<text xml:space="preserve" text-anchor="middle" x="1032.47" y="-923.39" font-family="Times,serif" font-size="18.00">RFC2533</text>
<text xml:space="preserve" text-anchor="middle" x="1032.47" y="-902.39" font-family="Times,serif" font-size="18.00">A Syntax for Describing Media Feature</text>
<text xml:space="preserve" text-anchor="middle" x="1032.47" y="-881.39" font-family="Times,serif" font-size="18.00">Sets</text>
<text xml:space="preserve" text-anchor="middle" x="1032.47" y="-860.39" font-family="Times,serif" font-size="18.00">1999</text>
</a>
</g>
</g>
<!-- obs -->
<g id="node3" class="node">
<title>obs</title>
<polygon fill="lightblue" stroke="black" points="1474.86,-1065.46 1408.61,-1065.46 1408.61,-1029.46 1474.86,-1029.46 1474.86,-1065.46"/>
<text xml:space="preserve" text-anchor="middle" x="1441.74" y="-1042.41" font-family="Times,serif" font-size="14.00">obsoletes</text>
</g>
<!-- RFC2533&#45;&gt;obs -->
<g id="edge2" class="edge">
<title>RFC2533&#45;&gt;obs</title>
<path fill="none" stroke="black" d="M1171.6,-949.13C1250.51,-977.86 1343.96,-1011.87 1397.69,-1031.43"/>
<polygon fill="black" stroke="black" points="1396.2,-1034.61 1406.79,-1034.74 1398.59,-1028.03 1396.2,-1034.61"/>
</g>
<!-- updates -->
<g id="node4" class="node">
<title>updates</title>
<polygon fill="lightyellow" stroke="black" points="1278.86,-1293.68 1221.61,-1293.68 1221.61,-1257.68 1278.86,-1257.68 1278.86,-1293.68"/>
<text xml:space="preserve" text-anchor="middle" x="1250.23" y="-1270.63" font-family="Times,serif" font-size="14.00">updates</text>
</g>
<!-- RFC2533&#45;&gt;updates -->
<g id="edge3" class="edge">
<title>RFC2533&#45;&gt;updates</title>
<path fill="none" stroke="black" d="M1070.15,-963.76C1118.27,-1047.11 1199.42,-1187.67 1233.92,-1247.43"/>
<polygon fill="black" stroke="black" points="1230.83,-1249.07 1238.86,-1255.98 1236.89,-1245.57 1230.83,-1249.07"/>
</g>
<!-- cites -->
<g id="node8" class="node">
<title>cites</title>
<polygon fill="lightblue" stroke="black" points="983.84,-1345.41 929.84,-1345.41 929.84,-1309.41 983.84,-1309.41 983.84,-1345.41"/>
<text xml:space="preserve" text-anchor="middle" x="956.84" y="-1322.36" font-family="Times,serif" font-size="14.00">cites</text>
</g>
<!-- RFC2533&#45;&gt;cites -->
<g id="edge7" class="edge">
<title>RFC2533&#45;&gt;cites</title>
<path fill="none" stroke="black" d="M1020.82,-964.57C1004.12,-1059.23 974.1,-1229.53 962.05,-1297.86"/>
<polygon fill="black" stroke="black" points="958.63,-1297.08 960.34,-1307.54 965.52,-1298.3 958.63,-1297.08"/>
</g>
<!-- obs_by -->
<g id="node2" class="node">
<title>obs_by</title>
<polygon fill="lightblue" stroke="black" points="731.95,-1196.45 665.7,-1196.45 665.7,-1160.45 731.95,-1160.45 731.95,-1196.45"/>
<text xml:space="preserve" text-anchor="middle" x="698.83" y="-1173.4" font-family="Times,serif" font-size="14.00">obsoletes</text>
</g>
<!-- obs_by&#45;&gt;RFC2533 -->
<g id="edge1" class="edge">
<title>obs_by&#45;&gt;RFC2533</title>
<path fill="none" stroke="black" d="M720.72,-1160.08C766.37,-1121.78 873.77,-1031.66 949.71,-967.94"/>
<polygon fill="black" stroke="black" points="951.77,-970.77 957.18,-961.66 947.27,-965.41 951.77,-970.77"/>
</g>
<!-- updated_by -->
<g id="node5" class="node">
<title>updated_by</title>
<polygon fill="lightyellow" stroke="black" points="651.82,-767.53 594.57,-767.53 594.57,-731.53 651.82,-731.53 651.82,-767.53"/>
<text xml:space="preserve" text-anchor="middle" x="623.2" y="-744.48" font-family="Times,serif" font-size="14.00">updates</text>
</g>
<!-- updated_by&#45;&gt;RFC2533 -->
<g id="edge4" class="edge">
<title>updated_by&#45;&gt;RFC2533</title>
<path fill="none" stroke="black" d="M652.3,-760.13C700.03,-777.5 798.07,-813.18 882.63,-843.96"/>
<polygon fill="black" stroke="black" points="881.39,-847.23 891.98,-847.36 883.78,-840.65 881.39,-847.23"/>
</g>
<!-- RFC2738 -->
<g id="node6" class="node">
<title>RFC2738</title>
<g id="a_node6"><a xlink:href="RFC2738.html" xlink:title="In RFC 2533, A Syntax for Describing Media Feature Sets, an expression format is presented for describing media feature capabilities using simple media feature tags. &#160;This memo contains two corrections to that specification: one fixes an error in the formal syntax specification, and the other fixes an error in the rules for reducing feature comparison predicates. [STANDARDS&#45;TRACK]" target="_top">
<ellipse fill="none" stroke="black" cx="161.4" cy="-898.49" rx="161.4" ry="52.33"/>
<text xml:space="preserve" text-anchor="middle" x="161.4" y="-918.19" font-family="Times,serif" font-size="14.00">RFC2738</text>
<text xml:space="preserve" text-anchor="middle" x="161.4" y="-901.69" font-family="Times,serif" font-size="14.00">Corrections to A Syntax for Describing</text>
<text xml:space="preserve" text-anchor="middle" x="161.4" y="-885.19" font-family="Times,serif" font-size="14.00">Media Feature Sets</text>
<text xml:space="preserve" text-anchor="middle" x="161.4" y="-868.69" font-family="Times,serif" font-size="14.00">1999</text>
</a>
</g>
</g>
<!-- RFC2738&#45;&gt;updated_by -->
<g id="edge5" class="edge">
<title>RFC2738&#45;&gt;updated_by</title>
<path fill="none" stroke="black" d="M276.44,-861.39C376.65,-829.06 516.15,-784.06 583.58,-762.31"/>
<polygon fill="black" stroke="black" points="584.27,-765.77 592.72,-759.37 582.12,-759.1 584.27,-765.77"/>
</g>
<!-- RFC2938 -->
<g id="node7" class="node">
<title>RFC2938</title>
<g id="a_node7"><a xlink:href="RFC2938.html" xlink:title="This document describes an abbreviated format for a composite media feature set, based upon a hash of the feature expression describing that composite. [STANDARDS&#45;TRACK]" target="_top">
<ellipse fill="none" stroke="black" cx="365.19" cy="-338.58" rx="160.87" ry="40.66"/>
<text xml:space="preserve" text-anchor="middle" x="365.19" y="-350.03" font-family="Times,serif" font-size="14.00">RFC2938</text>
<text xml:space="preserve" text-anchor="middle" x="365.19" y="-333.53" font-family="Times,serif" font-size="14.00">Identifying Composite Media Features</text>
<text xml:space="preserve" text-anchor="middle" x="365.19" y="-317.03" font-family="Times,serif" font-size="14.00">2000</text>
</a>
</g>
</g>
<!-- RFC2938&#45;&gt;updated_by -->
<g id="edge6" class="edge">
<title>RFC2938&#45;&gt;updated_by</title>
<path fill="none" stroke="black" d="M390.63,-379.11C442.86,-462.29 560.99,-650.45 605.65,-721.59"/>
<polygon fill="black" stroke="black" points="602.61,-723.32 610.89,-729.92 608.53,-719.59 602.61,-723.32"/>
</g>
<!-- rev_cites -->
<g id="node9" class="node">
<title>rev_cites</title>
<polygon fill="lightblue" stroke="black" points="1277.23,-539.31 1223.23,-539.31 1223.23,-503.31 1277.23,-503.31 1277.23,-539.31"/>
<text xml:space="preserve" text-anchor="middle" x="1250.23" y="-516.26" font-family="Times,serif" font-size="14.00">cites</text>
</g>
<!-- rev_cites&#45;&gt;RFC2533 -->
<g id="edge8" class="edge">
<title>rev_cites&#45;&gt;RFC2533</title>
<path fill="none" stroke="black" d="M1239.58,-539.76C1210.32,-590.44 1127.46,-733.96 1075.85,-823.35"/>
<polygon fill="black" stroke="black" points="1072.91,-821.45 1070.94,-831.86 1078.97,-824.95 1072.91,-821.45"/>
</g>
<!-- RFC2532 -->
<g id="node10" class="node">
<title>RFC2532</title>
<g id="a_node10"><a xlink:href="RFC2532.html" xlink:title="This document describes extensions to Simple Mode of Facsimile Using Internet Mail, and describes additional features, including transmission of enhanced document characteristics (higher resolution, color) and confirmation of delivery and processing. [STANDARDS&#45;TRACK]" target="_top">
<ellipse fill="none" stroke="black" cx="881.21" cy="-40.66" rx="166.7" ry="40.66"/>
<text xml:space="preserve" text-anchor="middle" x="881.21" y="-52.11" font-family="Times,serif" font-size="14.00">RFC2532</text>
<text xml:space="preserve" text-anchor="middle" x="881.21" y="-35.61" font-family="Times,serif" font-size="14.00">Extended Facsimile Using Internet Mail</text>
<text xml:space="preserve" text-anchor="middle" x="881.21" y="-19.11" font-family="Times,serif" font-size="14.00">1999</text>
</a>
</g>
</g>
<!-- RFC2532&#45;&gt;rev_cites -->
<g id="edge9" class="edge">
<title>RFC2532&#45;&gt;rev_cites</title>
<path fill="none" stroke="black" d="M912.04,-80.81C985.11,-175.99 1167.36,-413.37 1229.27,-494"/>
<polygon fill="black" stroke="black" points="1226.42,-496.04 1235.29,-501.84 1231.97,-491.78 1226.42,-496.04"/>
</g>
<!-- RFC4249 -->
<g id="node11" class="node">
<title>RFC4249</title>
<g id="a_node11"><a xlink:href="RFC4249.html" xlink:title="Implementation of generators and parsers of header fields requires certain information about those fields. &#160;Interoperability is most likely when all such information is explicitly provided by the technical specification of the fields. &#160;Lacking such explicit information, implementers may guess, and interoperability may suffer. &#160;This memo identifies information useful to implementers of header field generators and parsers. &#160;This memo provides information for the Internet community." target="_top">
<ellipse fill="none" stroke="black" cx="1468" cy="-144.13" rx="182.61" ry="63.99"/>
<text xml:space="preserve" text-anchor="middle" x="1468" y="-172.08" font-family="Times,serif" font-size="14.00">RFC4249</text>
<text xml:space="preserve" text-anchor="middle" x="1468" y="-155.58" font-family="Times,serif" font-size="14.00">Implementer&#45;Friendly Specification of</text>
<text xml:space="preserve" text-anchor="middle" x="1468" y="-139.08" font-family="Times,serif" font-size="14.00">Message and MIME&#45;Part Header Fields and</text>
<text xml:space="preserve" text-anchor="middle" x="1468" y="-122.58" font-family="Times,serif" font-size="14.00">Field Components</text>
<text xml:space="preserve" text-anchor="middle" x="1468" y="-106.08" font-family="Times,serif" font-size="14.00">2006</text>
</a>
</g>
</g>
<!-- RFC4249&#45;&gt;rev_cites -->
<g id="edge10" class="edge">
<title>RFC4249&#45;&gt;rev_cites</title>
<path fill="none" stroke="black" d="M1431.55,-207.26C1383.58,-290.35 1301.27,-432.91 1266.5,-493.14"/>
<polygon fill="black" stroke="black" points="1263.49,-491.35 1261.52,-501.76 1269.56,-494.85 1263.49,-491.35"/>
</g>
<!-- RFC7904 -->
<g id="node12" class="node">
<title>RFC7904</title>
<g id="a_node12"><a xlink:href="RFC7904.html" xlink:title="This document defines a SIP Usage for REsource LOcation And Discovery (RELOAD). &#160;The SIP Usage provides the functionality of a SIP proxy or registrar in a fully distributed system and includes a lookup service for Address of Records (AORs) stored in the overlay. &#160;It also defines Globally Routable User Agent URIs (GRUUs) that allow the registrations to map an AOR to a specific node reachable through the overlay. &#160;After such initial contact of a Peer, the RELOAD AppAttach method is used to establish a direct connection between nodes through which SIP messages are exchanged." target="_top">
<ellipse fill="none" stroke="black" cx="1851" cy="-600.57" rx="170.94" ry="52.33"/>
<text xml:space="preserve" text-anchor="middle" x="1851" y="-620.27" font-family="Times,serif" font-size="14.00">RFC7904</text>
<text xml:space="preserve" text-anchor="middle" x="1851" y="-603.77" font-family="Times,serif" font-size="14.00">A SIP Usage for REsource LOcation And</text>
<text xml:space="preserve" text-anchor="middle" x="1851" y="-587.27" font-family="Times,serif" font-size="14.00">Discovery (RELOAD)</text>
<text xml:space="preserve" text-anchor="middle" x="1851" y="-570.77" font-family="Times,serif" font-size="14.00">2016</text>
</a>
</g>
</g>
<!-- RFC7904&#45;&gt;rev_cites -->
<g id="edge11" class="edge">
<title>RFC7904&#45;&gt;rev_cites</title>
<path fill="none" stroke="black" d="M1693.55,-579.8C1556.87,-561.76 1368.69,-536.94 1288.7,-526.39"/>
<polygon fill="black" stroke="black" points="1289.58,-522.97 1279.21,-525.13 1288.66,-529.91 1289.58,-522.97"/>
</g>
</g>
</svg>
