<?xml version="1.0" encoding="UTF-8" standalone="no"?>
<!DOCTYPE svg PUBLIC "-//W3C//DTD SVG 1.1//EN"
 "http://www.w3.org/Graphics/SVG/1.1/DTD/svg11.dtd">
<!-- Generated by graphviz version 14.1.1 (20251213.1925)
 -->
<!-- Title: Flow Pages: 1 -->
<svg width="1160pt" height="1172pt"
 viewBox="0.00 0.00 1160.00 1172.00" xmlns="http://www.w3.org/2000/svg" xmlns:xlink="http://www.w3.org/1999/xlink">
<g id="graph0" class="graph" transform="scale(1 1) rotate(0) translate(4 1167.65)">
<title>Flow</title>
<polygon fill="white" stroke="none" points="-4,4 -4,-1167.65 1156.09,-1167.65 1156.09,4 -4,4"/>
<!-- RFC2808 -->
<g id="node1" class="node">
<title>RFC2808</title>
<g id="a_node1"><a xlink:title="This document defines a SASL (Simple Authentication and Security Layer) authentication mechanism using SecurID (a hardware token card product (or software emulation thereof) produced by RSA Security Inc., which is used for end&#45;user authentication), thereby providing a means for such tokens to be used in SASL environments. &#160;This mechanism is only is only for authentication, and has no effect on the protocol encoding and is not designed to provide integrity or confidentiality services. &#160;This memo provides information for the Internet community.">
<ellipse fill="none" stroke="black" cx="532.03" cy="-629.33" rx="143.9" ry="40.66"/>
<text xml:space="preserve" text-anchor="middle" x="532.03" y="-640.78" font-family="Times,serif" font-size="14.00">RFC2808</text>
<text xml:space="preserve" text-anchor="middle" x="532.03" y="-624.28" font-family="Times,serif" font-size="14.00">The SecurID(r) SASL Mechanism</text>
<text xml:space="preserve" text-anchor="middle" x="532.03" y="-607.78" font-family="Times,serif" font-size="14.00">2000</text>
</a>
</g>
</g>
<!-- obs -->
<g id="node3" class="node">
<title>obs</title>
<polygon fill="none" stroke="black" points="767.18,-701.33 700.93,-701.33 700.93,-665.33 767.18,-665.33 767.18,-701.33"/>
<text xml:space="preserve" text-anchor="middle" x="734.05" y="-678.28" font-family="Times,serif" font-size="14.00">obsoletes</text>
</g>
<!-- RFC2808&#45;&gt;obs -->
<g id="edge2" class="edge">
<title>RFC2808&#45;&gt;obs</title>
<path fill="none" stroke="black" d="M637.14,-657.43C655.78,-662.46 674.23,-667.45 689.89,-671.67"/>
<polygon fill="black" stroke="black" points="688.74,-674.99 699.3,-674.22 690.56,-668.23 688.74,-674.99"/>
</g>
<!-- updates -->
<g id="node4" class="node">
<title>updates</title>
<polygon fill="none" stroke="black" points="762.68,-647.33 705.43,-647.33 705.43,-611.33 762.68,-611.33 762.68,-647.33"/>
<text xml:space="preserve" text-anchor="middle" x="734.05" y="-624.28" font-family="Times,serif" font-size="14.00">updates</text>
</g>
<!-- RFC2808&#45;&gt;updates -->
<g id="edge3" class="edge">
<title>RFC2808&#45;&gt;updates</title>
<path fill="none" stroke="black" d="M676.27,-629.33C682.42,-629.33 688.31,-629.33 693.8,-629.33"/>
<polygon fill="black" stroke="black" points="693.63,-632.83 703.63,-629.33 693.63,-625.83 693.63,-632.83"/>
</g>
<!-- cites -->
<g id="node6" class="node">
<title>cites</title>
<polygon fill="none" stroke="black" points="761.05,-593.33 707.05,-593.33 707.05,-557.33 761.05,-557.33 761.05,-593.33"/>
<text xml:space="preserve" text-anchor="middle" x="734.05" y="-570.28" font-family="Times,serif" font-size="14.00">cites</text>
</g>
<!-- RFC2808&#45;&gt;cites -->
<g id="edge5" class="edge">
<title>RFC2808&#45;&gt;cites</title>
<path fill="none" stroke="black" d="M637.14,-601.22C658.12,-595.56 678.86,-589.96 695.65,-585.42"/>
<polygon fill="black" stroke="black" points="696.4,-588.85 705.14,-582.86 694.58,-582.09 696.4,-588.85"/>
</g>
<!-- obs_by -->
<g id="node2" class="node">
<title>obs_by</title>
<polygon fill="none" stroke="black" points="363.13,-701.33 296.88,-701.33 296.88,-665.33 363.13,-665.33 363.13,-701.33"/>
<text xml:space="preserve" text-anchor="middle" x="330.01" y="-678.28" font-family="Times,serif" font-size="14.00">obsoletes</text>
</g>
<!-- obs_by&#45;&gt;RFC2808 -->
<g id="edge1" class="edge">
<title>obs_by&#45;&gt;RFC2808</title>
<path fill="none" stroke="black" d="M363.59,-674.53C378.37,-670.54 396.83,-665.55 416.05,-660.37"/>
<polygon fill="black" stroke="black" points="416.9,-663.76 425.64,-657.78 415.08,-657 416.9,-663.76"/>
</g>
<!-- updated_by -->
<g id="node5" class="node">
<title>updated_by</title>
<polygon fill="none" stroke="black" points="358.63,-647.33 301.38,-647.33 301.38,-611.33 358.63,-611.33 358.63,-647.33"/>
<text xml:space="preserve" text-anchor="middle" x="330.01" y="-624.28" font-family="Times,serif" font-size="14.00">updates</text>
</g>
<!-- updated_by&#45;&gt;RFC2808 -->
<g id="edge4" class="edge">
<title>updated_by&#45;&gt;RFC2808</title>
<path fill="none" stroke="black" d="M358.82,-629.33C364.18,-629.33 370.14,-629.33 376.52,-629.33"/>
<polygon fill="black" stroke="black" points="376.13,-632.83 386.13,-629.33 376.13,-625.83 376.13,-632.83"/>
</g>
<!-- RFC2222 -->
<g id="node7" class="node">
<title>RFC2222</title>
<g id="a_node7"><a xlink:href="RFC2222.html" xlink:title="This document describes a method for adding authentication support to connection&#45;based protocols. [STANDARDS&#45;TRACK]" target="_top">
<ellipse fill="none" stroke="black" cx="972.13" cy="-1111.33" rx="173.59" ry="52.33"/>
<text xml:space="preserve" text-anchor="middle" x="972.13" y="-1131.03" font-family="Times,serif" font-size="14.00">RFC2222</text>
<text xml:space="preserve" text-anchor="middle" x="972.13" y="-1114.53" font-family="Times,serif" font-size="14.00">Simple Authentication and Security Layer</text>
<text xml:space="preserve" text-anchor="middle" x="972.13" y="-1098.03" font-family="Times,serif" font-size="14.00">(SASL)</text>
<text xml:space="preserve" text-anchor="middle" x="972.13" y="-1081.53" font-family="Times,serif" font-size="14.00">1997</text>
</a>
</g>
</g>
<!-- cites&#45;&gt;RFC2222 -->
<g id="edge6" class="edge">
<title>cites&#45;&gt;RFC2222</title>
<path fill="none" stroke="black" d="M761.11,-593.64C763.5,-596.29 765.61,-599.2 767.18,-602.33 811.69,-691.3 732.24,-969.92 792.18,-1049.33 799.91,-1059.58 809.45,-1068.14 820.07,-1075.3"/>
<polygon fill="black" stroke="black" points="818.03,-1078.15 828.37,-1080.44 821.71,-1072.2 818.03,-1078.15"/>
</g>
<!-- RFC2119 -->
<g id="node8" class="node">
<title>RFC2119</title>
<g id="a_node8"><a xlink:href="RFC2119.html" xlink:title="In many standards track documents several words are used to signify the requirements in the specification. &#160;These words are often capitalized. &#160;This document defines these words as they should be interpreted in IETF documents. &#160;This document specifies an Internet Best Current Practices for the Internet Community, and requests discussion and suggestions for improvements." target="_top">
<ellipse fill="none" stroke="black" cx="972.13" cy="-988.33" rx="160.34" ry="52.33"/>
<text xml:space="preserve" text-anchor="middle" x="972.13" y="-1008.03" font-family="Times,serif" font-size="14.00">RFC2119</text>
<text xml:space="preserve" text-anchor="middle" x="972.13" y="-991.53" font-family="Times,serif" font-size="14.00">Key words for use in RFCs to Indicate</text>
<text xml:space="preserve" text-anchor="middle" x="972.13" y="-975.03" font-family="Times,serif" font-size="14.00">Requirement Levels</text>
<text xml:space="preserve" text-anchor="middle" x="972.13" y="-958.53" font-family="Times,serif" font-size="14.00">1997</text>
</a>
</g>
</g>
<!-- cites&#45;&gt;RFC2119 -->
<g id="edge7" class="edge">
<title>cites&#45;&gt;RFC2119</title>
<path fill="none" stroke="black" d="M761.05,-593.67C763.45,-596.32 765.58,-599.22 767.18,-602.33 800.16,-666.56 748.06,-869.15 792.18,-926.33 801.22,-938.05 812.62,-947.56 825.26,-955.29"/>
<polygon fill="black" stroke="black" points="823.4,-958.26 833.84,-960.11 826.83,-952.16 823.4,-958.26"/>
</g>
<!-- RFC2060 -->
<g id="node9" class="node">
<title>RFC2060</title>
<g id="a_node9"><a xlink:href="RFC2060.html" xlink:title="The Internet Message Access Protocol, Version 4rev1 (IMAP4rev1) allows a client to access and manipulate electronic mail messages on a server. [STANDARDS&#45;TRACK]" target="_top">
<ellipse fill="none" stroke="black" cx="972.13" cy="-865.33" rx="147.61" ry="52.33"/>
<text xml:space="preserve" text-anchor="middle" x="972.13" y="-885.03" font-family="Times,serif" font-size="14.00">RFC2060</text>
<text xml:space="preserve" text-anchor="middle" x="972.13" y="-868.53" font-family="Times,serif" font-size="14.00">Internet Message Access Protocol &#45;</text>
<text xml:space="preserve" text-anchor="middle" x="972.13" y="-852.03" font-family="Times,serif" font-size="14.00">Version 4rev1</text>
<text xml:space="preserve" text-anchor="middle" x="972.13" y="-835.53" font-family="Times,serif" font-size="14.00">1996</text>
</a>
</g>
</g>
<!-- cites&#45;&gt;RFC2060 -->
<g id="edge8" class="edge">
<title>cites&#45;&gt;RFC2060</title>
<path fill="none" stroke="black" d="M760.9,-593.75C763.33,-596.38 765.51,-599.25 767.18,-602.33 810.16,-681.42 735.53,-733.36 792.18,-803.33 802.95,-816.64 816.75,-827.1 831.9,-835.32"/>
<polygon fill="black" stroke="black" points="830.17,-838.37 840.68,-839.73 833.31,-832.11 830.17,-838.37"/>
</g>
<!-- RFC2244 -->
<g id="node10" class="node">
<title>RFC2244</title>
<g id="a_node10"><a xlink:href="RFC2244.html" xlink:title="The Application Configuration Access Protocol (ACAP) is designed to support remote storage and access of program option, configuration and preference information. [STANDARDS&#45;TRACK]" target="_top">
<ellipse fill="none" stroke="black" cx="972.13" cy="-742.33" rx="177.84" ry="52.33"/>
<text xml:space="preserve" text-anchor="middle" x="972.13" y="-762.03" font-family="Times,serif" font-size="14.00">RFC2244</text>
<text xml:space="preserve" text-anchor="middle" x="972.13" y="-745.53" font-family="Times,serif" font-size="14.00">ACAP &#45;&#45; Application Configuration Access</text>
<text xml:space="preserve" text-anchor="middle" x="972.13" y="-729.03" font-family="Times,serif" font-size="14.00">Protocol</text>
<text xml:space="preserve" text-anchor="middle" x="972.13" y="-712.53" font-family="Times,serif" font-size="14.00">1997</text>
</a>
</g>
</g>
<!-- cites&#45;&gt;RFC2244 -->
<g id="edge9" class="edge">
<title>cites&#45;&gt;RFC2244</title>
<path fill="none" stroke="black" d="M760.05,-593.76C762.69,-596.42 765.15,-599.3 767.18,-602.33 787.64,-632.94 766.42,-655 792.18,-681.33 800.96,-690.31 811.12,-697.97 822.05,-704.5"/>
<polygon fill="black" stroke="black" points="820.08,-707.41 830.52,-709.22 823.49,-701.3 820.08,-707.41"/>
</g>
<!-- RFC1734 -->
<g id="node11" class="node">
<title>RFC1734</title>
<g id="a_node11"><a xlink:href="RFC1734.html" xlink:title="This document describes the optional AUTH command, for indicating an authentication mechanism to the server, performing an authentication protocol exchange, and optionally negotiating a protection mechanism for subsequent protocol interactions. [STANDARDS&#45;TRACK]" target="_top">
<ellipse fill="none" stroke="black" cx="972.13" cy="-631.33" rx="141.24" ry="40.66"/>
<text xml:space="preserve" text-anchor="middle" x="972.13" y="-642.78" font-family="Times,serif" font-size="14.00">RFC1734</text>
<text xml:space="preserve" text-anchor="middle" x="972.13" y="-626.28" font-family="Times,serif" font-size="14.00">POP3 AUTHentication command</text>
<text xml:space="preserve" text-anchor="middle" x="972.13" y="-609.78" font-family="Times,serif" font-size="14.00">1994</text>
</a>
</g>
</g>
<!-- cites&#45;&gt;RFC1734 -->
<g id="edge10" class="edge">
<title>cites&#45;&gt;RFC1734</title>
<path fill="none" stroke="black" d="M761.22,-581.53C783.48,-586.81 817.15,-594.8 851.05,-602.84"/>
<polygon fill="black" stroke="black" points="850.03,-606.2 860.57,-605.1 851.65,-599.39 850.03,-606.2"/>
</g>
<!-- RFC2251 -->
<g id="node12" class="node">
<title>RFC2251</title>
<g id="a_node12"><a xlink:href="RFC2251.html" xlink:title="The protocol described in this document is designed to provide access to directories supporting the X.500 models, while not incurring the resource requirements of the X.500 Directory Access Protocol (DAP). [STANDARDS&#45;TRACK]" target="_top">
<ellipse fill="none" stroke="black" cx="972.13" cy="-520.33" rx="161.4" ry="52.33"/>
<text xml:space="preserve" text-anchor="middle" x="972.13" y="-540.03" font-family="Times,serif" font-size="14.00">RFC2251</text>
<text xml:space="preserve" text-anchor="middle" x="972.13" y="-523.53" font-family="Times,serif" font-size="14.00">Lightweight Directory Access Protocol</text>
<text xml:space="preserve" text-anchor="middle" x="972.13" y="-507.03" font-family="Times,serif" font-size="14.00">(v3)</text>
<text xml:space="preserve" text-anchor="middle" x="972.13" y="-490.53" font-family="Times,serif" font-size="14.00">1997</text>
</a>
</g>
</g>
<!-- cites&#45;&gt;RFC2251 -->
<g id="edge11" class="edge">
<title>cites&#45;&gt;RFC2251</title>
<path fill="none" stroke="black" d="M761.22,-569.23C778.68,-565.16 803.16,-559.46 829.27,-553.38"/>
<polygon fill="black" stroke="black" points="829.72,-556.87 838.66,-551.19 828.13,-550.05 829.72,-556.87"/>
</g>
<!-- RFC2279 -->
<g id="node13" class="node">
<title>RFC2279</title>
<g id="a_node13"><a xlink:href="RFC2279.html" xlink:title="UTF&#45;8, the object of this memo, has the characteristic of preserving the full US&#45;ASCII range, providing compatibility with file systems, parsers and other software that rely on US&#45;ASCII values but are transparent to other values. &#160;This memo updates and replaces RFC 2044, in particular addressing the question of versions of the relevant standards. [STANDARDS&#45;TRACK]" target="_top">
<ellipse fill="none" stroke="black" cx="972.13" cy="-397.33" rx="163.52" ry="52.33"/>
<text xml:space="preserve" text-anchor="middle" x="972.13" y="-417.03" font-family="Times,serif" font-size="14.00">RFC2279</text>
<text xml:space="preserve" text-anchor="middle" x="972.13" y="-400.53" font-family="Times,serif" font-size="14.00">UTF&#45;8, a transformation format of ISO</text>
<text xml:space="preserve" text-anchor="middle" x="972.13" y="-384.03" font-family="Times,serif" font-size="14.00">10646</text>
<text xml:space="preserve" text-anchor="middle" x="972.13" y="-367.53" font-family="Times,serif" font-size="14.00">1998</text>
</a>
</g>
</g>
<!-- cites&#45;&gt;RFC2279 -->
<g id="edge12" class="edge">
<title>cites&#45;&gt;RFC2279</title>
<path fill="none" stroke="black" d="M739.39,-556.95C746.31,-531.52 762.22,-485.77 792.18,-459.33 803.58,-449.26 816.71,-440.8 830.56,-433.71"/>
<polygon fill="black" stroke="black" points="831.92,-436.94 839.4,-429.43 828.88,-430.63 831.92,-436.94"/>
</g>
<!-- RFC2234 -->
<g id="node14" class="node">
<title>RFC2234</title>
<g id="a_node14"><a xlink:href="RFC2234.html" xlink:title="In the early days of the Arpanet, each specification contained its own definition of ABNF. &#160;This included the email specifications, RFC733 and then RFC822 which have come to be the common citations for defining ABNF. &#160;The current document separates out that definition, to permit selective reference. &#160;Predictably, it also provides some modifications and enhancements. [STANDARDS&#45;TRACK]" target="_top">
<ellipse fill="none" stroke="black" cx="972.13" cy="-274.33" rx="179.96" ry="52.33"/>
<text xml:space="preserve" text-anchor="middle" x="972.13" y="-294.03" font-family="Times,serif" font-size="14.00">RFC2234</text>
<text xml:space="preserve" text-anchor="middle" x="972.13" y="-277.53" font-family="Times,serif" font-size="14.00">Augmented BNF for Syntax Specifications:</text>
<text xml:space="preserve" text-anchor="middle" x="972.13" y="-261.03" font-family="Times,serif" font-size="14.00">ABNF</text>
<text xml:space="preserve" text-anchor="middle" x="972.13" y="-244.53" font-family="Times,serif" font-size="14.00">1997</text>
</a>
</g>
</g>
<!-- cites&#45;&gt;RFC2234 -->
<g id="edge13" class="edge">
<title>cites&#45;&gt;RFC2234</title>
<path fill="none" stroke="black" d="M737.14,-557.1C743.2,-507.1 762.32,-369.29 792.18,-336.33 800.46,-327.18 810.15,-319.39 820.67,-312.74"/>
<polygon fill="black" stroke="black" points="822.38,-315.8 829.24,-307.72 818.85,-309.76 822.38,-315.8"/>
</g>
<!-- RFC2289 -->
<g id="node15" class="node">
<title>RFC2289</title>
<g id="a_node15"><a xlink:href="RFC2289.html" xlink:title="This document describes a one&#45;time password authentication system (OTP). &#160;The system provides authentication for system access (login) and other applications requiring authentication that is secure against passive attacks based on replaying captured reusable passwords. [STANDARDS&#45;TRACK]" target="_top">
<ellipse fill="none" stroke="black" cx="972.13" cy="-163.33" rx="130.64" ry="40.66"/>
<text xml:space="preserve" text-anchor="middle" x="972.13" y="-174.78" font-family="Times,serif" font-size="14.00">RFC2289</text>
<text xml:space="preserve" text-anchor="middle" x="972.13" y="-158.28" font-family="Times,serif" font-size="14.00">A One&#45;Time Password System</text>
<text xml:space="preserve" text-anchor="middle" x="972.13" y="-141.78" font-family="Times,serif" font-size="14.00">1998</text>
</a>
</g>
</g>
<!-- cites&#45;&gt;RFC2289 -->
<g id="edge14" class="edge">
<title>cites&#45;&gt;RFC2289</title>
<path fill="none" stroke="black" d="M735.4,-557.19C737.06,-491.21 746.06,-265.12 792.18,-213.33 804.82,-199.13 821.12,-188.82 838.73,-181.35"/>
<polygon fill="black" stroke="black" points="839.77,-184.71 847.83,-177.83 837.24,-178.18 839.77,-184.71"/>
</g>
<!-- RFC2026 -->
<g id="node16" class="node">
<title>RFC2026</title>
<g id="a_node16"><a xlink:href="RFC2026.html" xlink:title="This memo documents the process used by the Internet community for the standardization of protocols and procedures. &#160;It defines the stages in the standardization process, the requirements for moving a document between stages and the types of documents used during this process. &#160;This document specifies an Internet Best Current Practices for the Internet Community, and requests discussion and suggestions for improvements." target="_top">
<ellipse fill="none" stroke="black" cx="972.13" cy="-52.33" rx="139.65" ry="52.33"/>
<text xml:space="preserve" text-anchor="middle" x="972.13" y="-72.03" font-family="Times,serif" font-size="14.00">RFC2026</text>
<text xml:space="preserve" text-anchor="middle" x="972.13" y="-55.53" font-family="Times,serif" font-size="14.00">The Internet Standards Process &#45;&#45;</text>
<text xml:space="preserve" text-anchor="middle" x="972.13" y="-39.03" font-family="Times,serif" font-size="14.00">Revision 3</text>
<text xml:space="preserve" text-anchor="middle" x="972.13" y="-22.53" font-family="Times,serif" font-size="14.00">1996</text>
</a>
</g>
</g>
<!-- cites&#45;&gt;RFC2026 -->
<g id="edge15" class="edge">
<title>cites&#45;&gt;RFC2026</title>
<path fill="none" stroke="black" d="M734.81,-556.99C734.18,-479.91 735.52,-183.01 792.18,-113.33 803.75,-99.09 818.8,-88.16 835.26,-79.78"/>
<polygon fill="black" stroke="black" points="836.75,-82.95 844.3,-75.52 833.77,-76.61 836.75,-82.95"/>
</g>
<!-- rev_cites -->
<g id="node17" class="node">
<title>rev_cites</title>
<polygon fill="none" stroke="black" points="357.01,-593.33 303.01,-593.33 303.01,-557.33 357.01,-557.33 357.01,-593.33"/>
<text xml:space="preserve" text-anchor="middle" x="330.01" y="-570.28" font-family="Times,serif" font-size="14.00">cites</text>
</g>
<!-- rev_cites&#45;&gt;RFC2808 -->
<g id="edge16" class="edge">
<title>rev_cites&#45;&gt;RFC2808</title>
<path fill="none" stroke="black" d="M357.16,-582.39C372.81,-586.61 393.92,-592.31 416.02,-598.28"/>
<polygon fill="black" stroke="black" points="414.91,-601.6 425.47,-600.83 416.73,-594.84 414.91,-601.6"/>
</g>
<!-- RFC6560 -->
<g id="node18" class="node">
<title>RFC6560</title>
<g id="a_node18"><a xlink:href="RFC6560.html" xlink:title="The Kerberos protocol provides a framework authenticating a client using the exchange of pre&#45;authentication data. &#160;This document describes the use of this framework to carry out One&#45;Time Password (OTP) authentication. [STANDARDS&#45;TRACK]" target="_top">
<ellipse fill="none" stroke="black" cx="135.94" cy="-575.33" rx="135.94" ry="52.33"/>
<text xml:space="preserve" text-anchor="middle" x="135.94" y="-595.03" font-family="Times,serif" font-size="14.00">RFC6560</text>
<text xml:space="preserve" text-anchor="middle" x="135.94" y="-578.53" font-family="Times,serif" font-size="14.00">One&#45;Time Password (OTP) Pre&#45;</text>
<text xml:space="preserve" text-anchor="middle" x="135.94" y="-562.03" font-family="Times,serif" font-size="14.00">Authentication</text>
<text xml:space="preserve" text-anchor="middle" x="135.94" y="-545.53" font-family="Times,serif" font-size="14.00">2012</text>
</a>
</g>
</g>
<!-- RFC6560&#45;&gt;rev_cites -->
<g id="edge17" class="edge">
<title>RFC6560&#45;&gt;rev_cites</title>
<path fill="none" stroke="black" d="M272.16,-575.33C278.9,-575.33 285.32,-575.33 291.26,-575.33"/>
<polygon fill="black" stroke="black" points="291.22,-578.83 301.22,-575.33 291.22,-571.83 291.22,-578.83"/>
</g>
</g>
</svg>
