<?xml version="1.0" encoding="UTF-8" standalone="no"?>
<!DOCTYPE svg PUBLIC "-//W3C//DTD SVG 1.1//EN"
 "http://www.w3.org/Graphics/SVG/1.1/DTD/svg11.dtd">
<!-- Generated by graphviz version 14.1.1 (20251213.1925)
 -->
<!-- Title: Flow Pages: 1 -->
<svg width="1302pt" height="627pt"
 viewBox="0.00 0.00 1302.00 627.00" xmlns="http://www.w3.org/2000/svg" xmlns:xlink="http://www.w3.org/1999/xlink">
<g id="graph0" class="graph" transform="scale(1 1) rotate(0) translate(4 622.65)">
<title>Flow</title>
<polygon fill="white" stroke="none" points="-4,4 -4,-622.65 1298.22,-622.65 1298.22,4 -4,4"/>
<!-- RFC2254 -->
<g id="node1" class="node">
<title>RFC2254</title>
<g id="a_node1"><a xlink:title="This document defines a human&#45;readable string format for representing LDAP search filters. [STANDARDS&#45;TRACK]">
<ellipse fill="green" stroke="black" cx="659.84" cy="-298.33" rx="178.37" ry="52.33"/>
<text xml:space="preserve" text-anchor="middle" x="659.84" y="-318.03" font-family="Times,serif" font-size="14.00">RFC2254</text>
<text xml:space="preserve" text-anchor="middle" x="659.84" y="-301.53" font-family="Times,serif" font-size="14.00">The String Representation of LDAP Search</text>
<text xml:space="preserve" text-anchor="middle" x="659.84" y="-285.03" font-family="Times,serif" font-size="14.00">Filters</text>
<text xml:space="preserve" text-anchor="middle" x="659.84" y="-268.53" font-family="Times,serif" font-size="14.00">1997</text>
</a>
</g>
</g>
<!-- obs -->
<g id="node5" class="node">
<title>obs</title>
<polygon fill="lightblue" stroke="black" points="929.46,-370.33 863.21,-370.33 863.21,-334.33 929.46,-334.33 929.46,-370.33"/>
<text xml:space="preserve" text-anchor="middle" x="896.33" y="-347.28" font-family="Times,serif" font-size="14.00">obsoletes</text>
</g>
<!-- RFC2254&#45;&gt;obs -->
<g id="edge4" class="edge">
<title>RFC2254&#45;&gt;obs</title>
<path fill="none" stroke="black" d="M800.97,-330.6C819.36,-334.83 836.97,-338.89 851.9,-342.32"/>
<polygon fill="black" stroke="black" points="850.75,-345.65 861.28,-344.48 852.32,-338.83 850.75,-345.65"/>
</g>
<!-- updates -->
<g id="node7" class="node">
<title>updates</title>
<polygon fill="lightyellow" stroke="black" points="924.96,-316.33 867.71,-316.33 867.71,-280.33 924.96,-280.33 924.96,-316.33"/>
<text xml:space="preserve" text-anchor="middle" x="896.33" y="-293.28" font-family="Times,serif" font-size="14.00">updates</text>
</g>
<!-- RFC2254&#45;&gt;updates -->
<g id="edge6" class="edge">
<title>RFC2254&#45;&gt;updates</title>
<path fill="none" stroke="black" d="M838.57,-298.33C844.77,-298.33 850.66,-298.33 856.14,-298.33"/>
<polygon fill="black" stroke="black" points="855.91,-301.83 865.91,-298.33 855.91,-294.83 855.91,-301.83"/>
</g>
<!-- cites -->
<g id="node10" class="node">
<title>cites</title>
<polygon fill="lightblue" stroke="black" points="923.33,-262.33 869.33,-262.33 869.33,-226.33 923.33,-226.33 923.33,-262.33"/>
<text xml:space="preserve" text-anchor="middle" x="896.33" y="-239.28" font-family="Times,serif" font-size="14.00">cites</text>
</g>
<!-- RFC2254&#45;&gt;cites -->
<g id="edge9" class="edge">
<title>RFC2254&#45;&gt;cites</title>
<path fill="none" stroke="black" d="M800.97,-266.06C821.9,-261.24 841.83,-256.65 857.93,-252.94"/>
<polygon fill="black" stroke="black" points="858.5,-256.4 867.46,-250.75 856.93,-249.58 858.5,-256.4"/>
</g>
<!-- obs_by -->
<g id="node2" class="node">
<title>obs_by</title>
<polygon fill="lightblue" stroke="black" points="456.47,-450.33 390.22,-450.33 390.22,-414.33 456.47,-414.33 456.47,-450.33"/>
<text xml:space="preserve" text-anchor="middle" x="423.35" y="-427.28" font-family="Times,serif" font-size="14.00">obsoletes</text>
</g>
<!-- obs_by&#45;&gt;RFC2254 -->
<g id="edge1" class="edge">
<title>obs_by&#45;&gt;RFC2254</title>
<path fill="none" stroke="black" d="M456.46,-413.97C484.96,-397.69 528.03,-373.08 567.12,-350.74"/>
<polygon fill="black" stroke="black" points="568.7,-353.87 575.65,-345.87 565.23,-347.79 568.7,-353.87"/>
</g>
<!-- RFC4510 -->
<g id="node3" class="node">
<title>RFC4510</title>
<g id="a_node3"><a xlink:href="RFC4510.html" xlink:title="The Lightweight Directory Access Protocol (LDAP) is an Internet protocol for accessing distributed directory services that act in accordance with X.500 data and service models. &#160;This document provides a road map of the LDAP Technical Specification. [STANDARDS&#45;TRACK]" target="_top">
<ellipse fill="none" stroke="black" cx="182.61" cy="-566.33" rx="181.55" ry="52.33"/>
<text xml:space="preserve" text-anchor="middle" x="182.61" y="-586.03" font-family="Times,serif" font-size="14.00">RFC4510</text>
<text xml:space="preserve" text-anchor="middle" x="182.61" y="-569.53" font-family="Times,serif" font-size="14.00">Lightweight Directory Access Protocol</text>
<text xml:space="preserve" text-anchor="middle" x="182.61" y="-553.03" font-family="Times,serif" font-size="14.00">(LDAP): Technical Specification Road Map</text>
<text xml:space="preserve" text-anchor="middle" x="182.61" y="-536.53" font-family="Times,serif" font-size="14.00">2006</text>
</a>
</g>
</g>
<!-- RFC4510&#45;&gt;obs_by -->
<g id="edge2" class="edge">
<title>RFC4510&#45;&gt;obs_by</title>
<path fill="none" stroke="black" d="M317.94,-531.28C334.61,-524.08 350.83,-515.5 365.22,-505.33 381.93,-493.51 396.13,-475.43 406.2,-460.21"/>
<polygon fill="black" stroke="black" points="409,-462.33 411.39,-452 403.08,-458.58 409,-462.33"/>
</g>
<!-- RFC4515 -->
<g id="node4" class="node">
<title>RFC4515</title>
<g id="a_node4"><a xlink:href="RFC4515.html" xlink:title="Lightweight Directory Access Protocol (LDAP) search filters are transmitted in the LDAP protocol using a binary representation that is appropriate for use on the network. &#160;This document defines a human&#45;readable string representation of LDAP search filters that is appropriate for use in LDAP URLs (RFC 4516) and in other applications. [STANDARDS&#45;TRACK]" target="_top">
<ellipse fill="none" stroke="black" cx="182.61" cy="-432.33" rx="170.41" ry="63.99"/>
<text xml:space="preserve" text-anchor="middle" x="182.61" y="-460.28" font-family="Times,serif" font-size="14.00">RFC4515</text>
<text xml:space="preserve" text-anchor="middle" x="182.61" y="-443.78" font-family="Times,serif" font-size="14.00">Lightweight Directory Access Protocol</text>
<text xml:space="preserve" text-anchor="middle" x="182.61" y="-427.28" font-family="Times,serif" font-size="14.00">(LDAP): String Representation of Search</text>
<text xml:space="preserve" text-anchor="middle" x="182.61" y="-410.78" font-family="Times,serif" font-size="14.00">Filters</text>
<text xml:space="preserve" text-anchor="middle" x="182.61" y="-394.28" font-family="Times,serif" font-size="14.00">2006</text>
</a>
</g>
</g>
<!-- RFC4515&#45;&gt;obs_by -->
<g id="edge3" class="edge">
<title>RFC4515&#45;&gt;obs_by</title>
<path fill="none" stroke="black" d="M353.29,-432.33C362.17,-432.33 370.58,-432.33 378.29,-432.33"/>
<polygon fill="black" stroke="black" points="378.27,-435.83 388.27,-432.33 378.27,-428.83 378.27,-435.83"/>
</g>
<!-- RFC1960 -->
<g id="node6" class="node">
<title>RFC1960</title>
<g id="a_node6"><a xlink:href="RFC1960.html" xlink:title="The Lightweight Directory Access Protocol (LDAP) [1] defines a network representation of a search filter transmitted to an LDAP server. &#160;Some applications may find it useful to have a common way of representing these search filters in a human&#45;readable form. &#160;This document defines a human&#45;readable string format for representing LDAP search filters. [STANDARDS&#45;TRACK]" target="_top">
<ellipse fill="none" stroke="black" cx="1124.34" cy="-352.33" rx="169.88" ry="52.33"/>
<text xml:space="preserve" text-anchor="middle" x="1124.34" y="-372.03" font-family="Times,serif" font-size="14.00">RFC1960</text>
<text xml:space="preserve" text-anchor="middle" x="1124.34" y="-355.53" font-family="Times,serif" font-size="14.00">A String Representation of LDAP Search</text>
<text xml:space="preserve" text-anchor="middle" x="1124.34" y="-339.03" font-family="Times,serif" font-size="14.00">Filters</text>
<text xml:space="preserve" text-anchor="middle" x="1124.34" y="-322.53" font-family="Times,serif" font-size="14.00">1996</text>
</a>
</g>
</g>
<!-- obs&#45;&gt;RFC1960 -->
<g id="edge5" class="edge">
<title>obs&#45;&gt;RFC1960</title>
<path fill="none" stroke="black" d="M929.71,-352.33C933.83,-352.33 938.25,-352.33 942.91,-352.33"/>
<polygon fill="black" stroke="black" points="942.68,-355.83 952.68,-352.33 942.68,-348.83 942.68,-355.83"/>
</g>
<!-- updated_by -->
<g id="node8" class="node">
<title>updated_by</title>
<polygon fill="lightyellow" stroke="black" points="451.97,-316.33 394.72,-316.33 394.72,-280.33 451.97,-280.33 451.97,-316.33"/>
<text xml:space="preserve" text-anchor="middle" x="423.35" y="-293.28" font-family="Times,serif" font-size="14.00">updates</text>
</g>
<!-- updated_by&#45;&gt;RFC2254 -->
<g id="edge7" class="edge">
<title>updated_by&#45;&gt;RFC2254</title>
<path fill="none" stroke="black" d="M452.17,-298.33C457.53,-298.33 463.51,-298.33 469.95,-298.33"/>
<polygon fill="black" stroke="black" points="469.7,-301.83 479.7,-298.33 469.7,-294.83 469.7,-301.83"/>
</g>
<!-- RFC3377 -->
<g id="node9" class="node">
<title>RFC3377</title>
<g id="a_node9"><a xlink:href="RFC3377.html" xlink:title="None" target="_top">
<ellipse fill="none" stroke="black" cx="182.61" cy="-298.33" rx="161.4" ry="52.33"/>
<text xml:space="preserve" text-anchor="middle" x="182.61" y="-318.03" font-family="Times,serif" font-size="14.00">RFC3377</text>
<text xml:space="preserve" text-anchor="middle" x="182.61" y="-301.53" font-family="Times,serif" font-size="14.00">Lightweight Directory Access Protocol</text>
<text xml:space="preserve" text-anchor="middle" x="182.61" y="-285.03" font-family="Times,serif" font-size="14.00">(v3): Technical Specification</text>
<text xml:space="preserve" text-anchor="middle" x="182.61" y="-268.53" font-family="Times,serif" font-size="14.00">2002</text>
</a>
</g>
</g>
<!-- RFC3377&#45;&gt;updated_by -->
<g id="edge8" class="edge">
<title>RFC3377&#45;&gt;updated_by</title>
<path fill="none" stroke="black" d="M344.51,-298.33C358.6,-298.33 371.82,-298.33 383.22,-298.33"/>
<polygon fill="black" stroke="black" points="382.88,-301.83 392.88,-298.33 382.88,-294.83 382.88,-301.83"/>
</g>
<!-- rev_cites -->
<g id="node11" class="node">
<title>rev_cites</title>
<polygon fill="lightblue" stroke="black" points="450.35,-228.33 396.35,-228.33 396.35,-192.33 450.35,-192.33 450.35,-228.33"/>
<text xml:space="preserve" text-anchor="middle" x="423.35" y="-205.28" font-family="Times,serif" font-size="14.00">cites</text>
</g>
<!-- RFC3377&#45;&gt;rev_cites -->
<g id="edge12" class="edge">
<title>RFC3377&#45;&gt;rev_cites</title>
<path fill="none" stroke="black" d="M297.58,-261.33C320.15,-253.47 343.55,-244.93 365.22,-236.33 371.93,-233.66 379,-230.63 385.79,-227.61"/>
<polygon fill="black" stroke="black" points="387.09,-230.86 394.75,-223.54 384.2,-224.48 387.09,-230.86"/>
</g>
<!-- rev_cites&#45;&gt;RFC2254 -->
<g id="edge10" class="edge">
<title>rev_cites&#45;&gt;RFC2254</title>
<path fill="none" stroke="black" d="M450.79,-220.25C472.57,-228.42 505.11,-240.64 538.04,-252.99"/>
<polygon fill="black" stroke="black" points="536.72,-256.23 547.31,-256.47 539.18,-249.68 536.72,-256.23"/>
</g>
<!-- RFC2307 -->
<g id="node12" class="node">
<title>RFC2307</title>
<g id="a_node12"><a xlink:href="RFC2307.html" xlink:title="This document describes an experimental mechanism for mapping entities related to TCP/IP and the UNIX system into X.500 entries so that they may be resolved with the Lightweight Directory Access Protocol [RFC2251]. &#160;This memo defines an Experimental Protocol for the Internet community. &#160;It does not specify an Internet standard of any kind. &#160;Discussion and suggestions for improvement are requested." target="_top">
<ellipse fill="none" stroke="black" cx="182.61" cy="-175.33" rx="182.61" ry="52.33"/>
<text xml:space="preserve" text-anchor="middle" x="182.61" y="-195.03" font-family="Times,serif" font-size="14.00">RFC2307</text>
<text xml:space="preserve" text-anchor="middle" x="182.61" y="-178.53" font-family="Times,serif" font-size="14.00">An Approach for Using LDAP as a Network</text>
<text xml:space="preserve" text-anchor="middle" x="182.61" y="-162.03" font-family="Times,serif" font-size="14.00">Information Service</text>
<text xml:space="preserve" text-anchor="middle" x="182.61" y="-145.53" font-family="Times,serif" font-size="14.00">1998</text>
</a>
</g>
</g>
<!-- RFC2307&#45;&gt;rev_cites -->
<g id="edge11" class="edge">
<title>RFC2307&#45;&gt;rev_cites</title>
<path fill="none" stroke="black" d="M345.82,-199.11C360.09,-201.2 373.42,-203.15 384.82,-204.82"/>
<polygon fill="black" stroke="black" points="384.07,-208.25 394.47,-206.24 385.08,-201.33 384.07,-208.25"/>
</g>
<!-- RFC3384 -->
<g id="node13" class="node">
<title>RFC3384</title>
<g id="a_node13"><a xlink:href="RFC3384.html" xlink:title="None" target="_top">
<ellipse fill="none" stroke="black" cx="182.61" cy="-52.33" rx="161.4" ry="52.33"/>
<text xml:space="preserve" text-anchor="middle" x="182.61" y="-72.03" font-family="Times,serif" font-size="14.00">RFC3384</text>
<text xml:space="preserve" text-anchor="middle" x="182.61" y="-55.53" font-family="Times,serif" font-size="14.00">Lightweight Directory Access Protocol</text>
<text xml:space="preserve" text-anchor="middle" x="182.61" y="-39.03" font-family="Times,serif" font-size="14.00">(version 3) Replication Requirements</text>
<text xml:space="preserve" text-anchor="middle" x="182.61" y="-22.53" font-family="Times,serif" font-size="14.00">2002</text>
</a>
</g>
</g>
<!-- RFC3384&#45;&gt;rev_cites -->
<g id="edge13" class="edge">
<title>RFC3384&#45;&gt;rev_cites</title>
<path fill="none" stroke="black" d="M312.67,-83.56C331.47,-91.64 349.7,-101.73 365.22,-114.33 387.03,-132.01 402.44,-160.39 411.71,-181.72"/>
<polygon fill="black" stroke="black" points="408.38,-182.82 415.43,-190.74 414.85,-180.16 408.38,-182.82"/>
</g>
</g>
</svg>
