<?xml version="1.0" encoding="UTF-8" standalone="no"?>
<!DOCTYPE svg PUBLIC "-//W3C//DTD SVG 1.1//EN"
 "http://www.w3.org/Graphics/SVG/1.1/DTD/svg11.dtd">
<!-- Generated by graphviz version 14.1.1 (20251213.1925)
 -->
<!-- Title: Flow Pages: 1 -->
<svg width="1667pt" height="1657pt"
 viewBox="0.00 0.00 1667.00 1657.00" xmlns="http://www.w3.org/2000/svg" xmlns:xlink="http://www.w3.org/1999/xlink">
<g id="graph0" class="graph" transform="scale(1 1) rotate(0) translate(4 1653.2)">
<title>Flow</title>
<polygon fill="white" stroke="none" points="-4,4 -4,-1653.2 1663.48,-1653.2 1663.48,4 -4,4"/>
<!-- RFC2200 -->
<g id="node1" class="node">
<title>RFC2200</title>
<g id="a_node1"><a xlink:title="A discussion of the standardization process and the RFC document series is presented first, followed by an explanation of the terms. &#160;Sections 6.2 &#45; 6.10 contain the lists of protocols in each stage of standardization. &#160;Finally are pointers to references and contacts for further information. [STANDARDS&#45;TRACK]">
<ellipse fill="green" stroke="black" stroke-width="3" cx="705.12" cy="-738.43" rx="195.34" ry="50.2"/>
<text xml:space="preserve" text-anchor="middle" x="705.12" y="-752.83" font-family="Times,serif" font-size="18.00">RFC2200</text>
<text xml:space="preserve" text-anchor="middle" x="705.12" y="-731.83" font-family="Times,serif" font-size="18.00">Internet Official Protocol Standards</text>
<text xml:space="preserve" text-anchor="middle" x="705.12" y="-710.83" font-family="Times,serif" font-size="18.00">1997</text>
</a>
</g>
</g>
<!-- obs -->
<g id="node4" class="node">
<title>obs</title>
<polygon fill="lightblue" stroke="black" points="1016.48,-1105.32 950.23,-1105.32 950.23,-1069.32 1016.48,-1069.32 1016.48,-1105.32"/>
<text xml:space="preserve" text-anchor="middle" x="983.35" y="-1082.27" font-family="Times,serif" font-size="14.00">obsoletes</text>
</g>
<!-- RFC2200&#45;&gt;obs -->
<g id="edge3" class="edge">
<title>RFC2200&#45;&gt;obs</title>
<path fill="none" stroke="black" d="M745.28,-788.79C805.01,-863.69 915.2,-1001.86 961.72,-1060.2"/>
<polygon fill="black" stroke="black" points="958.97,-1062.35 967.94,-1067.99 964.44,-1057.99 958.97,-1062.35"/>
</g>
<!-- updates -->
<g id="node7" class="node">
<title>updates</title>
<polygon fill="lightyellow" stroke="black" points="455.52,-1105.32 398.27,-1105.32 398.27,-1069.32 455.52,-1069.32 455.52,-1105.32"/>
<text xml:space="preserve" text-anchor="middle" x="426.9" y="-1082.27" font-family="Times,serif" font-size="14.00">updates</text>
</g>
<!-- RFC2200&#45;&gt;updates -->
<g id="edge6" class="edge">
<title>RFC2200&#45;&gt;updates</title>
<path fill="none" stroke="black" d="M664.96,-788.79C605.24,-863.69 495.05,-1001.86 448.52,-1060.2"/>
<polygon fill="black" stroke="black" points="445.81,-1057.99 442.31,-1067.99 451.28,-1062.35 445.81,-1057.99"/>
</g>
<!-- cites -->
<g id="node9" class="node">
<title>cites</title>
<polygon fill="lightblue" stroke="black" points="285.88,-756.43 231.88,-756.43 231.88,-720.43 285.88,-720.43 285.88,-756.43"/>
<text xml:space="preserve" text-anchor="middle" x="258.88" y="-733.38" font-family="Times,serif" font-size="14.00">cites</text>
</g>
<!-- RFC2200&#45;&gt;cites -->
<g id="edge8" class="edge">
<title>RFC2200&#45;&gt;cites</title>
<path fill="none" stroke="black" d="M508.42,-738.43C428.94,-738.43 344.92,-738.43 297.48,-738.43"/>
<polygon fill="black" stroke="black" points="297.74,-734.93 287.74,-738.43 297.74,-741.93 297.74,-734.93"/>
</g>
<!-- obs_by -->
<g id="node2" class="node">
<title>obs_by</title>
<polygon fill="lightblue" stroke="black" points="460.02,-407.54 393.77,-407.54 393.77,-371.54 460.02,-371.54 460.02,-407.54"/>
<text xml:space="preserve" text-anchor="middle" x="426.9" y="-384.49" font-family="Times,serif" font-size="14.00">obsoletes</text>
</g>
<!-- obs_by&#45;&gt;RFC2200 -->
<g id="edge1" class="edge">
<title>obs_by&#45;&gt;RFC2200</title>
<path fill="none" stroke="black" d="M441.46,-407.81C481.33,-457.8 593.51,-598.47 657.97,-679.3"/>
<polygon fill="black" stroke="black" points="654.91,-681.07 663.88,-686.71 660.38,-676.71 654.91,-681.07"/>
</g>
<!-- RFC2300 -->
<g id="node3" class="node">
<title>RFC2300</title>
<g id="a_node3"><a xlink:href="RFC2300.html" xlink:title="A discussion of the standardization process and the RFC document series is presented first, followed by an explanation of the terms. &#160;Sections 6.2 &#45; 6.10 contain the lists of protocols in each stage of standardization. &#160;Finally are pointers to references and contacts for further information. [STANDARDS&#45;TRACK]" target="_top">
<ellipse fill="none" stroke="black" cx="148.67" cy="-40.66" rx="148.67" ry="40.66"/>
<text xml:space="preserve" text-anchor="middle" x="148.67" y="-52.11" font-family="Times,serif" font-size="14.00">RFC2300</text>
<text xml:space="preserve" text-anchor="middle" x="148.67" y="-35.61" font-family="Times,serif" font-size="14.00">Internet Official Protocol Standards</text>
<text xml:space="preserve" text-anchor="middle" x="148.67" y="-19.11" font-family="Times,serif" font-size="14.00">1998</text>
</a>
</g>
</g>
<!-- RFC2300&#45;&gt;obs_by -->
<g id="edge2" class="edge">
<title>RFC2300&#45;&gt;obs_by</title>
<path fill="none" stroke="black" d="M180.59,-80.68C237.88,-152.52 356.73,-301.55 405.4,-362.59"/>
<polygon fill="black" stroke="black" points="402.41,-364.45 411.38,-370.09 407.88,-360.09 402.41,-364.45"/>
</g>
<!-- RFC1250 -->
<g id="node5" class="node">
<title>RFC1250</title>
<g id="a_node5"><a xlink:href="RFC1250.html" xlink:title="This memo describes the state of standardization of protocols used in the Internet as determined by the Internet Activities Board (IAB). &#160;This memo provides information for the Internet community. &#160;It does not specify an Internet standard." target="_top">
<ellipse fill="none" stroke="black" cx="1509.22" cy="-1125.67" rx="135.41" ry="40.66"/>
<text xml:space="preserve" text-anchor="middle" x="1509.22" y="-1137.12" font-family="Times,serif" font-size="14.00">RFC1250</text>
<text xml:space="preserve" text-anchor="middle" x="1509.22" y="-1120.62" font-family="Times,serif" font-size="14.00">IAB Official Protocol Standards</text>
<text xml:space="preserve" text-anchor="middle" x="1509.22" y="-1104.12" font-family="Times,serif" font-size="14.00">1991</text>
</a>
</g>
</g>
<!-- obs&#45;&gt;RFC1250 -->
<g id="edge4" class="edge">
<title>obs&#45;&gt;RFC1250</title>
<path fill="none" stroke="black" d="M1016.65,-1089.74C1085.38,-1094.76 1246.52,-1106.51 1365.88,-1115.21"/>
<polygon fill="black" stroke="black" points="1365.56,-1118.7 1375.79,-1115.93 1366.07,-1111.72 1365.56,-1118.7"/>
</g>
<!-- RFC2000 -->
<g id="node6" class="node">
<title>RFC2000</title>
<g id="a_node6"><a xlink:href="RFC2000.html" xlink:title="This memo describes the state of standardization of protocols used in the Internet as determined by the Internet Architecture Board (IAB). &#160;This memo is an Internet Standard." target="_top">
<ellipse fill="none" stroke="black" cx="903.72" cy="-1608.54" rx="148.67" ry="40.66"/>
<text xml:space="preserve" text-anchor="middle" x="903.72" y="-1619.99" font-family="Times,serif" font-size="14.00">RFC2000</text>
<text xml:space="preserve" text-anchor="middle" x="903.72" y="-1603.49" font-family="Times,serif" font-size="14.00">Internet Official Protocol Standards</text>
<text xml:space="preserve" text-anchor="middle" x="903.72" y="-1586.99" font-family="Times,serif" font-size="14.00">1997</text>
</a>
</g>
</g>
<!-- obs&#45;&gt;RFC2000 -->
<g id="edge5" class="edge">
<title>obs&#45;&gt;RFC2000</title>
<path fill="none" stroke="black" d="M980.56,-1105.56C969.57,-1177.51 928.99,-1443.14 911.65,-1556.6"/>
<polygon fill="black" stroke="black" points="908.23,-1555.83 910.18,-1566.25 915.15,-1556.89 908.23,-1555.83"/>
</g>
<!-- updated_by -->
<g id="node8" class="node">
<title>updated_by</title>
<polygon fill="lightyellow" stroke="black" points="833.05,-321.38 775.8,-321.38 775.8,-285.38 833.05,-285.38 833.05,-321.38"/>
<text xml:space="preserve" text-anchor="middle" x="804.42" y="-298.33" font-family="Times,serif" font-size="14.00">updates</text>
</g>
<!-- updated_by&#45;&gt;RFC2200 -->
<g id="edge7" class="edge">
<title>updated_by&#45;&gt;RFC2200</title>
<path fill="none" stroke="black" d="M800.22,-321.79C786.47,-382.04 742.38,-575.19 719.39,-675.94"/>
<polygon fill="black" stroke="black" points="716.04,-674.87 717.23,-685.4 722.87,-676.43 716.04,-674.87"/>
</g>
<!-- rev_cites -->
<g id="node10" class="node">
<title>rev_cites</title>
<polygon fill="lightblue" stroke="black" points="1134.17,-562.81 1080.17,-562.81 1080.17,-526.81 1134.17,-526.81 1134.17,-562.81"/>
<text xml:space="preserve" text-anchor="middle" x="1107.17" y="-539.76" font-family="Times,serif" font-size="14.00">cites</text>
</g>
<!-- rev_cites&#45;&gt;RFC2200 -->
<g id="edge9" class="edge">
<title>rev_cites&#45;&gt;RFC2200</title>
<path fill="none" stroke="black" d="M1079.86,-557.97C1025.23,-584.28 899.99,-644.59 809.3,-688.26"/>
<polygon fill="black" stroke="black" points="807.83,-685.08 800.34,-692.58 810.87,-691.39 807.83,-685.08"/>
</g>
<!-- RFC7101 -->
<g id="node11" class="node">
<title>RFC7101</title>
<g id="a_node11"><a xlink:href="RFC7101.html" xlink:title="At one time, the RFC Editor published snapshots of the Internet Official Protocol Standards. &#160;These documents were known as xx00 documents, the last of which was published in May 2008. &#160;These snapshots have been replaced by a web page, so the RFC Editor will no longer be publishing these snapshots as RFCs. &#160;As a result, the RFC Editor will classify unpublished RFC xx00 numbers through 7000 as never issued. &#160;Starting with the RFC number 7100, xx00 numbers will be available for assignment." target="_top">
<ellipse fill="none" stroke="black" cx="1509.22" cy="-351.2" rx="150.26" ry="52.33"/>
<text xml:space="preserve" text-anchor="middle" x="1509.22" y="-370.9" font-family="Times,serif" font-size="14.00">RFC7101</text>
<text xml:space="preserve" text-anchor="middle" x="1509.22" y="-354.4" font-family="Times,serif" font-size="14.00">List of Internet Official Protocol</text>
<text xml:space="preserve" text-anchor="middle" x="1509.22" y="-337.9" font-family="Times,serif" font-size="14.00">Standards: Replaced by a Web Page</text>
<text xml:space="preserve" text-anchor="middle" x="1509.22" y="-321.4" font-family="Times,serif" font-size="14.00">2013</text>
</a>
</g>
</g>
<!-- RFC7101&#45;&gt;rev_cites -->
<g id="edge10" class="edge">
<title>RFC7101&#45;&gt;rev_cites</title>
<path fill="none" stroke="black" d="M1420.99,-393.69C1334.68,-435.25 1207.35,-496.57 1144.74,-526.72"/>
<polygon fill="black" stroke="black" points="1143.4,-523.48 1135.91,-530.98 1146.44,-529.79 1143.4,-523.48"/>
</g>
</g>
</svg>
