<?xml version="1.0" encoding="UTF-8" standalone="no"?>
<!DOCTYPE svg PUBLIC "-//W3C//DTD SVG 1.1//EN"
 "http://www.w3.org/Graphics/SVG/1.1/DTD/svg11.dtd">
<!-- Generated by graphviz version 14.1.1 (20251213.1925)
 -->
<!-- Title: Flow Pages: 1 -->
<svg width="905pt" height="175pt"
 viewBox="0.00 0.00 905.00 175.00" xmlns="http://www.w3.org/2000/svg" xmlns:xlink="http://www.w3.org/1999/xlink">
<g id="graph0" class="graph" transform="scale(1 1) rotate(0) translate(4 170.66)">
<title>Flow</title>
<polygon fill="white" stroke="none" points="-4,4 -4,-170.66 900.58,-170.66 900.58,4 -4,4"/>
<!-- RFC2322 -->
<g id="node1" class="node">
<title>RFC2322</title>
<g id="a_node1"><a xlink:title="This RFC describes a protocol to dynamically hand out ip&#45;numbers on field networks and small events that don&#39;t necessarily have a clear organisational body. &#160;This memo provides information for the Internet community. &#160;It does not specify an Internet standard of any kind.">
<ellipse fill="green" stroke="black" cx="635.44" cy="-94.66" rx="169.88" ry="40.66"/>
<text xml:space="preserve" text-anchor="middle" x="635.44" y="-106.11" font-family="Times,serif" font-size="14.00">RFC2322</text>
<text xml:space="preserve" text-anchor="middle" x="635.44" y="-89.61" font-family="Times,serif" font-size="14.00">Management of IP numbers by peg&#45;dhcp</text>
<text xml:space="preserve" text-anchor="middle" x="635.44" y="-73.11" font-family="Times,serif" font-size="14.00">1998</text>
</a>
</g>
</g>
<!-- obs -->
<g id="node3" class="node">
<title>obs</title>
<polygon fill="lightblue" stroke="black" points="896.58,-166.66 830.33,-166.66 830.33,-130.66 896.58,-130.66 896.58,-166.66"/>
<text xml:space="preserve" text-anchor="middle" x="863.45" y="-143.61" font-family="Times,serif" font-size="14.00">obsoletes</text>
</g>
<!-- RFC2322&#45;&gt;obs -->
<g id="edge2" class="edge">
<title>RFC2322&#45;&gt;obs</title>
<path fill="none" stroke="black" d="M757.06,-123.48C779.15,-128.75 800.84,-133.94 818.76,-138.22"/>
<polygon fill="black" stroke="black" points="817.94,-141.62 828.48,-140.54 819.56,-134.81 817.94,-141.62"/>
</g>
<!-- updates -->
<g id="node4" class="node">
<title>updates</title>
<polygon fill="lightyellow" stroke="black" points="892.08,-112.66 834.83,-112.66 834.83,-76.66 892.08,-76.66 892.08,-112.66"/>
<text xml:space="preserve" text-anchor="middle" x="863.45" y="-89.61" font-family="Times,serif" font-size="14.00">updates</text>
</g>
<!-- RFC2322&#45;&gt;updates -->
<g id="edge3" class="edge">
<title>RFC2322&#45;&gt;updates</title>
<path fill="none" stroke="black" d="M805.71,-94.66C811.89,-94.66 817.76,-94.66 823.22,-94.66"/>
<polygon fill="black" stroke="black" points="822.98,-98.16 832.98,-94.66 822.98,-91.16 822.98,-98.16"/>
</g>
<!-- cites -->
<g id="node6" class="node">
<title>cites</title>
<polygon fill="lightblue" stroke="black" points="890.45,-58.66 836.45,-58.66 836.45,-22.66 890.45,-22.66 890.45,-58.66"/>
<text xml:space="preserve" text-anchor="middle" x="863.45" y="-35.61" font-family="Times,serif" font-size="14.00">cites</text>
</g>
<!-- RFC2322&#45;&gt;cites -->
<g id="edge5" class="edge">
<title>RFC2322&#45;&gt;cites</title>
<path fill="none" stroke="black" d="M757.06,-65.84C781.79,-59.93 806.04,-54.14 825.03,-49.6"/>
<polygon fill="black" stroke="black" points="825.75,-53.03 834.66,-47.3 824.12,-46.22 825.75,-53.03"/>
</g>
<!-- obs_by -->
<g id="node2" class="node">
<title>obs_by</title>
<polygon fill="lightblue" stroke="black" points="440.56,-166.66 374.31,-166.66 374.31,-130.66 440.56,-130.66 440.56,-166.66"/>
<text xml:space="preserve" text-anchor="middle" x="407.44" y="-143.61" font-family="Times,serif" font-size="14.00">obsoletes</text>
</g>
<!-- obs_by&#45;&gt;RFC2322 -->
<g id="edge1" class="edge">
<title>obs_by&#45;&gt;RFC2322</title>
<path fill="none" stroke="black" d="M440.82,-140.92C457.78,-136.87 479.8,-131.61 502.89,-126.09"/>
<polygon fill="black" stroke="black" points="503.54,-129.54 512.45,-123.81 501.91,-122.73 503.54,-129.54"/>
</g>
<!-- updated_by -->
<g id="node5" class="node">
<title>updated_by</title>
<polygon fill="lightyellow" stroke="black" points="436.06,-112.66 378.81,-112.66 378.81,-76.66 436.06,-76.66 436.06,-112.66"/>
<text xml:space="preserve" text-anchor="middle" x="407.44" y="-89.61" font-family="Times,serif" font-size="14.00">updates</text>
</g>
<!-- updated_by&#45;&gt;RFC2322 -->
<g id="edge4" class="edge">
<title>updated_by&#45;&gt;RFC2322</title>
<path fill="none" stroke="black" d="M436.15,-94.66C441.51,-94.66 447.48,-94.66 453.92,-94.66"/>
<polygon fill="black" stroke="black" points="453.64,-98.16 463.64,-94.66 453.64,-91.16 453.64,-98.16"/>
</g>
<!-- rev_cites -->
<g id="node7" class="node">
<title>rev_cites</title>
<polygon fill="lightblue" stroke="black" points="434.44,-58.66 380.44,-58.66 380.44,-22.66 434.44,-22.66 434.44,-58.66"/>
<text xml:space="preserve" text-anchor="middle" x="407.44" y="-35.61" font-family="Times,serif" font-size="14.00">cites</text>
</g>
<!-- rev_cites&#45;&gt;RFC2322 -->
<g id="edge6" class="edge">
<title>rev_cites&#45;&gt;RFC2322</title>
<path fill="none" stroke="black" d="M434.8,-46.96C452.38,-51.16 476.94,-57.03 502.85,-63.22"/>
<polygon fill="black" stroke="black" points="502,-66.61 512.54,-65.53 503.63,-59.8 502,-66.61"/>
</g>
<!-- RFC3819 -->
<g id="node8" class="node">
<title>RFC3819</title>
<g id="a_node8"><a xlink:href="RFC3819.html" xlink:title="This document provides advice to the designers of digital communication equipment, link&#45;layer protocols, and packet&#45;switched local networks (collectively referred to as subnetworks), who wish to support the Internet protocols but may be unfamiliar with the Internet architecture and the implications of their design choices on the performance and efficiency of the Internet. &#160;This document specifies an Internet Best Current Practices for the Internet Community, and requests discussion and suggestions for improvements." target="_top">
<ellipse fill="none" stroke="black" cx="174.66" cy="-40.66" rx="174.66" ry="40.66"/>
<text xml:space="preserve" text-anchor="middle" x="174.66" y="-52.11" font-family="Times,serif" font-size="14.00">RFC3819</text>
<text xml:space="preserve" text-anchor="middle" x="174.66" y="-35.61" font-family="Times,serif" font-size="14.00">Advice for Internet Subnetwork Designers</text>
<text xml:space="preserve" text-anchor="middle" x="174.66" y="-19.11" font-family="Times,serif" font-size="14.00">2004</text>
</a>
</g>
</g>
<!-- RFC3819&#45;&gt;rev_cites -->
<g id="edge7" class="edge">
<title>RFC3819&#45;&gt;rev_cites</title>
<path fill="none" stroke="black" d="M349.68,-40.66C356.42,-40.66 362.8,-40.66 368.67,-40.66"/>
<polygon fill="black" stroke="black" points="368.47,-44.16 378.47,-40.66 368.47,-37.16 368.47,-44.16"/>
</g>
</g>
</svg>
