<?xml version="1.0" encoding="UTF-8" standalone="no"?>
<!DOCTYPE svg PUBLIC "-//W3C//DTD SVG 1.1//EN"
 "http://www.w3.org/Graphics/SVG/1.1/DTD/svg11.dtd">
<!-- Generated by graphviz version 14.1.1 (20251213.1925)
 -->
<!-- Title: Flow Pages: 1 -->
<svg width="769pt" height="847pt"
 viewBox="0.00 0.00 769.00 847.00" xmlns="http://www.w3.org/2000/svg" xmlns:xlink="http://www.w3.org/1999/xlink">
<g id="graph0" class="graph" transform="scale(1 1) rotate(0) translate(4 842.74)">
<title>Flow</title>
<polygon fill="white" stroke="none" points="-4,4 -4,-842.74 765.45,-842.74 765.45,4 -4,4"/>
<!-- RFC2758 -->
<g id="node1" class="node">
<title>RFC2758</title>
<g id="a_node1"><a xlink:title="This memo defines a Management Information Base (MIB) for performance monitoring of Service Level Agreements (SLAs) defined via policy definitions. &#160;This memo defines an Experimental Protocol for the Internet community.">
<ellipse fill="green" stroke="black" stroke-width="3" cx="380.72" cy="-419.37" rx="216.55" ry="79.9"/>
<text xml:space="preserve" text-anchor="middle" x="380.72" y="-454.77" font-family="Times,serif" font-size="18.00">RFC2758</text>
<text xml:space="preserve" text-anchor="middle" x="380.72" y="-433.77" font-family="Times,serif" font-size="18.00">Definitions of Managed Objects for</text>
<text xml:space="preserve" text-anchor="middle" x="380.72" y="-412.77" font-family="Times,serif" font-size="18.00">Service Level Agreements Performance</text>
<text xml:space="preserve" text-anchor="middle" x="380.72" y="-391.77" font-family="Times,serif" font-size="18.00">Monitoring</text>
<text xml:space="preserve" text-anchor="middle" x="380.72" y="-370.77" font-family="Times,serif" font-size="18.00">2000</text>
</a>
</g>
</g>
<!-- obs -->
<g id="node3" class="node">
<title>obs</title>
<polygon fill="lightblue" stroke="black" points="761.45,-638.06 695.2,-638.06 695.2,-602.06 761.45,-602.06 761.45,-638.06"/>
<text xml:space="preserve" text-anchor="middle" x="728.32" y="-615.01" font-family="Times,serif" font-size="14.00">obsoletes</text>
</g>
<!-- RFC2758&#45;&gt;obs -->
<g id="edge2" class="edge">
<title>RFC2758&#45;&gt;obs</title>
<path fill="none" stroke="black" d="M498.89,-487.6C563.85,-525.1 640.39,-569.29 686.6,-595.97"/>
<polygon fill="black" stroke="black" points="684.82,-598.98 695.23,-600.95 688.32,-592.92 684.82,-598.98"/>
</g>
<!-- updates -->
<g id="node4" class="node">
<title>updates</title>
<polygon fill="lightyellow" stroke="black" points="409.35,-838.74 352.1,-838.74 352.1,-802.74 409.35,-802.74 409.35,-838.74"/>
<text xml:space="preserve" text-anchor="middle" x="380.72" y="-815.69" font-family="Times,serif" font-size="14.00">updates</text>
</g>
<!-- RFC2758&#45;&gt;updates -->
<g id="edge3" class="edge">
<title>RFC2758&#45;&gt;updates</title>
<path fill="none" stroke="black" d="M380.72,-500.6C380.72,-590.39 380.72,-730.35 380.72,-791.02"/>
<polygon fill="black" stroke="black" points="377.22,-790.88 380.72,-800.88 384.22,-790.88 377.22,-790.88"/>
</g>
<!-- cites -->
<g id="node6" class="node">
<title>cites</title>
<polygon fill="lightblue" stroke="black" points="60.13,-638.06 6.13,-638.06 6.13,-602.06 60.13,-602.06 60.13,-638.06"/>
<text xml:space="preserve" text-anchor="middle" x="33.13" y="-615.01" font-family="Times,serif" font-size="14.00">cites</text>
</g>
<!-- RFC2758&#45;&gt;cites -->
<g id="edge5" class="edge">
<title>RFC2758&#45;&gt;cites</title>
<path fill="none" stroke="black" d="M262.56,-487.6C195.41,-526.37 115.87,-572.29 70.27,-598.61"/>
<polygon fill="black" stroke="black" points="68.75,-595.45 61.84,-603.48 72.25,-601.51 68.75,-595.45"/>
</g>
<!-- obs_by -->
<g id="node2" class="node">
<title>obs_by</title>
<polygon fill="lightblue" stroke="black" points="66.25,-236.69 0,-236.69 0,-200.69 66.25,-200.69 66.25,-236.69"/>
<text xml:space="preserve" text-anchor="middle" x="33.13" y="-213.64" font-family="Times,serif" font-size="14.00">obsoletes</text>
</g>
<!-- obs_by&#45;&gt;RFC2758 -->
<g id="edge1" class="edge">
<title>obs_by&#45;&gt;RFC2758</title>
<path fill="none" stroke="black" d="M64.89,-237.03C107.3,-261.51 184.94,-306.34 252.63,-345.42"/>
<polygon fill="black" stroke="black" points="250.82,-348.41 261.23,-350.38 254.32,-342.35 250.82,-348.41"/>
</g>
<!-- updated_by -->
<g id="node5" class="node">
<title>updated_by</title>
<polygon fill="lightyellow" stroke="black" points="409.35,-36 352.1,-36 352.1,0 409.35,0 409.35,-36"/>
<text xml:space="preserve" text-anchor="middle" x="380.72" y="-12.95" font-family="Times,serif" font-size="14.00">updates</text>
</g>
<!-- updated_by&#45;&gt;RFC2758 -->
<g id="edge4" class="edge">
<title>updated_by&#45;&gt;RFC2758</title>
<path fill="none" stroke="black" d="M380.72,-36.29C380.72,-86.69 380.72,-230.22 380.72,-326.56"/>
<polygon fill="black" stroke="black" points="377.22,-326.55 380.72,-336.55 384.22,-326.55 377.22,-326.55"/>
</g>
<!-- rev_cites -->
<g id="node7" class="node">
<title>rev_cites</title>
<polygon fill="lightblue" stroke="black" points="755.32,-236.69 701.32,-236.69 701.32,-200.69 755.32,-200.69 755.32,-236.69"/>
<text xml:space="preserve" text-anchor="middle" x="728.32" y="-213.64" font-family="Times,serif" font-size="14.00">cites</text>
</g>
<!-- rev_cites&#45;&gt;RFC2758 -->
<g id="edge6" class="edge">
<title>rev_cites&#45;&gt;RFC2758</title>
<path fill="none" stroke="black" d="M701.05,-234.43C659.78,-258.26 578.82,-305 508.63,-345.53"/>
<polygon fill="black" stroke="black" points="507.02,-342.41 500.11,-350.44 510.52,-348.48 507.02,-342.41"/>
</g>
</g>
</svg>
