<?xml version="1.0" encoding="UTF-8" standalone="no"?>
<!DOCTYPE svg PUBLIC "-//W3C//DTD SVG 1.1//EN"
 "http://www.w3.org/Graphics/SVG/1.1/DTD/svg11.dtd">
<!-- Generated by graphviz version 14.1.1 (20251213.1925)
 -->
<!-- Title: Flow Pages: 1 -->
<svg width="1219pt" height="851pt"
 viewBox="0.00 0.00 1219.00 851.00" xmlns="http://www.w3.org/2000/svg" xmlns:xlink="http://www.w3.org/1999/xlink">
<g id="graph0" class="graph" transform="scale(1 1) rotate(0) translate(4 846.77)">
<title>Flow</title>
<polygon fill="white" stroke="none" points="-4,4 -4,-846.77 1214.69,-846.77 1214.69,4 -4,4"/>
<!-- RFC2809 -->
<g id="node1" class="node">
<title>RFC2809</title>
<g id="a_node1"><a xlink:title="This document discusses implementation issues arising in the provisioning of compulsory tunneling in dial&#45;up networks using the L2TP (Layer Two Tunneling Protocol) protocol. &#160;This memo provides information for the Internet community.">
<ellipse fill="green" stroke="black" stroke-width="3" cx="367.6" cy="-438.55" rx="205.94" ry="65.05"/>
<text xml:space="preserve" text-anchor="middle" x="367.6" y="-463.45" font-family="Times,serif" font-size="18.00">RFC2809</text>
<text xml:space="preserve" text-anchor="middle" x="367.6" y="-442.45" font-family="Times,serif" font-size="18.00">Implementation of L2TP Compulsory</text>
<text xml:space="preserve" text-anchor="middle" x="367.6" y="-421.45" font-family="Times,serif" font-size="18.00">Tunneling via RADIUS</text>
<text xml:space="preserve" text-anchor="middle" x="367.6" y="-400.45" font-family="Times,serif" font-size="18.00">2000</text>
</a>
</g>
</g>
<!-- obs -->
<g id="node3" class="node">
<title>obs</title>
<polygon fill="lightblue" stroke="black" points="735.21,-649.66 668.96,-649.66 668.96,-613.66 735.21,-613.66 735.21,-649.66"/>
<text xml:space="preserve" text-anchor="middle" x="702.08" y="-626.61" font-family="Times,serif" font-size="14.00">obsoletes</text>
</g>
<!-- RFC2809&#45;&gt;obs -->
<g id="edge2" class="edge">
<title>RFC2809&#45;&gt;obs</title>
<path fill="none" stroke="black" d="M467.96,-496.49C532.45,-533.72 612.83,-580.13 660.67,-607.75"/>
<polygon fill="black" stroke="black" points="658.64,-610.62 669.05,-612.59 662.14,-604.56 658.64,-610.62"/>
</g>
<!-- updates -->
<g id="node4" class="node">
<title>updates</title>
<polygon fill="lightyellow" stroke="black" points="396.23,-842.77 338.98,-842.77 338.98,-806.77 396.23,-806.77 396.23,-842.77"/>
<text xml:space="preserve" text-anchor="middle" x="367.6" y="-819.72" font-family="Times,serif" font-size="14.00">updates</text>
</g>
<!-- RFC2809&#45;&gt;updates -->
<g id="edge3" class="edge">
<title>RFC2809&#45;&gt;updates</title>
<path fill="none" stroke="black" d="M367.6,-504.94C367.6,-589.87 367.6,-733.32 367.6,-795.06"/>
<polygon fill="black" stroke="black" points="364.1,-794.76 367.6,-804.76 371.1,-794.76 364.1,-794.76"/>
</g>
<!-- cites -->
<g id="node6" class="node">
<title>cites</title>
<polygon fill="lightblue" stroke="black" points="60.13,-649.66 6.13,-649.66 6.13,-613.66 60.13,-613.66 60.13,-649.66"/>
<text xml:space="preserve" text-anchor="middle" x="33.13" y="-626.61" font-family="Times,serif" font-size="14.00">cites</text>
</g>
<!-- RFC2809&#45;&gt;cites -->
<g id="edge5" class="edge">
<title>RFC2809&#45;&gt;cites</title>
<path fill="none" stroke="black" d="M267.25,-496.49C200.74,-534.89 117.33,-583.04 70.15,-610.28"/>
<polygon fill="black" stroke="black" points="68.59,-607.14 61.68,-615.17 72.09,-613.2 68.59,-607.14"/>
</g>
<!-- obs_by -->
<g id="node2" class="node">
<title>obs_by</title>
<polygon fill="lightblue" stroke="black" points="66.25,-263.44 0,-263.44 0,-227.44 66.25,-227.44 66.25,-263.44"/>
<text xml:space="preserve" text-anchor="middle" x="33.13" y="-240.39" font-family="Times,serif" font-size="14.00">obsoletes</text>
</g>
<!-- obs_by&#45;&gt;RFC2809 -->
<g id="edge1" class="edge">
<title>obs_by&#45;&gt;RFC2809</title>
<path fill="none" stroke="black" d="M64.89,-263.78C108.72,-289.08 189.96,-335.98 257.25,-374.83"/>
<polygon fill="black" stroke="black" points="255.35,-377.78 265.76,-379.75 258.85,-371.72 255.35,-377.78"/>
</g>
<!-- updated_by -->
<g id="node5" class="node">
<title>updated_by</title>
<polygon fill="lightyellow" stroke="black" points="396.23,-70.33 338.98,-70.33 338.98,-34.33 396.23,-34.33 396.23,-70.33"/>
<text xml:space="preserve" text-anchor="middle" x="367.6" y="-47.28" font-family="Times,serif" font-size="14.00">updates</text>
</g>
<!-- updated_by&#45;&gt;RFC2809 -->
<g id="edge4" class="edge">
<title>updated_by&#45;&gt;RFC2809</title>
<path fill="none" stroke="black" d="M367.6,-70.69C367.6,-121.95 367.6,-268.77 367.6,-360.68"/>
<polygon fill="black" stroke="black" points="364.1,-360.64 367.6,-370.64 371.1,-360.64 364.1,-360.64"/>
</g>
<!-- rev_cites -->
<g id="node7" class="node">
<title>rev_cites</title>
<polygon fill="lightblue" stroke="black" points="729.08,-263.44 675.08,-263.44 675.08,-227.44 729.08,-227.44 729.08,-263.44"/>
<text xml:space="preserve" text-anchor="middle" x="702.08" y="-240.39" font-family="Times,serif" font-size="14.00">cites</text>
</g>
<!-- rev_cites&#45;&gt;RFC2809 -->
<g id="edge6" class="edge">
<title>rev_cites&#45;&gt;RFC2809</title>
<path fill="none" stroke="black" d="M674.71,-261.24C632.09,-285.85 547.54,-334.66 477.92,-374.85"/>
<polygon fill="black" stroke="black" points="476.43,-371.68 469.52,-379.71 479.93,-377.74 476.43,-371.68"/>
</g>
<!-- RFC3931 -->
<g id="node8" class="node">
<title>RFC3931</title>
<g id="a_node8"><a xlink:href="RFC3931.html" xlink:title="This document describes version 3 of the Layer Two Tunneling Protocol (L2TPv3). &#160;L2TPv3 defines the base control protocol and encapsulation for tunneling multiple Layer 2 connections between two IP nodes. &#160;Additional documents detail the specifics for each data link type being emulated. [STANDARDS&#45;TRACK]" target="_top">
<ellipse fill="none" stroke="black" cx="1036.56" cy="-52.33" rx="174.13" ry="52.33"/>
<text xml:space="preserve" text-anchor="middle" x="1036.56" y="-72.03" font-family="Times,serif" font-size="14.00">RFC3931</text>
<text xml:space="preserve" text-anchor="middle" x="1036.56" y="-55.53" font-family="Times,serif" font-size="14.00">Layer Two Tunneling Protocol &#45; Version 3</text>
<text xml:space="preserve" text-anchor="middle" x="1036.56" y="-39.03" font-family="Times,serif" font-size="14.00">(L2TPv3)</text>
<text xml:space="preserve" text-anchor="middle" x="1036.56" y="-22.53" font-family="Times,serif" font-size="14.00">2005</text>
</a>
</g>
</g>
<!-- RFC3931&#45;&gt;rev_cites -->
<g id="edge7" class="edge">
<title>RFC3931&#45;&gt;rev_cites</title>
<path fill="none" stroke="black" d="M955.59,-99.07C886.72,-138.84 790.95,-194.13 739.07,-224.08"/>
<polygon fill="black" stroke="black" points="737.52,-220.94 730.6,-228.97 741.02,-227 737.52,-220.94"/>
</g>
</g>
</svg>
