<?xml version="1.0" encoding="UTF-8" standalone="no"?>
<!DOCTYPE svg PUBLIC "-//W3C//DTD SVG 1.1//EN"
 "http://www.w3.org/Graphics/SVG/1.1/DTD/svg11.dtd">
<!-- Generated by graphviz version 14.1.1 (20251213.1925)
 -->
<!-- Title: Flow Pages: 1 -->
<svg width="1961pt" height="993pt"
 viewBox="0.00 0.00 1961.00 993.00" xmlns="http://www.w3.org/2000/svg" xmlns:xlink="http://www.w3.org/1999/xlink">
<g id="graph0" class="graph" transform="scale(1 1) rotate(0) translate(4 989.29)">
<title>Flow</title>
<polygon fill="white" stroke="none" points="-4,4 -4,-989.29 1957.16,-989.29 1957.16,4 -4,4"/>
<!-- RFC2095 -->
<g id="node1" class="node">
<title>RFC2095</title>
<g id="a_node1"><a xlink:title="This specification provides a simple challenge&#45;response authentication protocol that is suitable for use with IMAP4. [STANDARDS&#45;TRACK]">
<ellipse fill="green" stroke="black" stroke-width="3" cx="980.82" cy="-509.81" rx="245.19" ry="65.05"/>
<text xml:space="preserve" text-anchor="middle" x="980.82" y="-534.71" font-family="Times,serif" font-size="18.00">RFC2095</text>
<text xml:space="preserve" text-anchor="middle" x="980.82" y="-513.71" font-family="Times,serif" font-size="18.00">IMAP/POP AUTHorize Extension for Simple</text>
<text xml:space="preserve" text-anchor="middle" x="980.82" y="-492.71" font-family="Times,serif" font-size="18.00">Challenge/Response</text>
<text xml:space="preserve" text-anchor="middle" x="980.82" y="-471.71" font-family="Times,serif" font-size="18.00">1997</text>
</a>
</g>
</g>
<!-- obs -->
<g id="node4" class="node">
<title>obs</title>
<polygon fill="lightblue" stroke="black" points="1410.14,-756.55 1343.89,-756.55 1343.89,-720.55 1410.14,-720.55 1410.14,-756.55"/>
<text xml:space="preserve" text-anchor="middle" x="1377.01" y="-733.5" font-family="Times,serif" font-size="14.00">obsoletes</text>
</g>
<!-- RFC2095&#45;&gt;obs -->
<g id="edge3" class="edge">
<title>RFC2095&#45;&gt;obs</title>
<path fill="none" stroke="black" d="M1085.18,-570.05C1167.1,-617.35 1276.82,-680.7 1335.63,-714.66"/>
<polygon fill="black" stroke="black" points="1333.59,-717.52 1344,-719.49 1337.09,-711.46 1333.59,-717.52"/>
</g>
<!-- updates -->
<g id="node5" class="node">
<title>updates</title>
<polygon fill="lightyellow" stroke="black" points="1009.45,-985.29 952.2,-985.29 952.2,-949.29 1009.45,-949.29 1009.45,-985.29"/>
<text xml:space="preserve" text-anchor="middle" x="980.82" y="-962.24" font-family="Times,serif" font-size="14.00">updates</text>
</g>
<!-- RFC2095&#45;&gt;updates -->
<g id="edge4" class="edge">
<title>RFC2095&#45;&gt;updates</title>
<path fill="none" stroke="black" d="M980.82,-576.33C980.82,-677.3 980.82,-865.14 980.82,-937.66"/>
<polygon fill="black" stroke="black" points="977.32,-937.53 980.82,-947.53 984.32,-937.53 977.32,-937.53"/>
</g>
<!-- cites -->
<g id="node7" class="node">
<title>cites</title>
<polygon fill="lightblue" stroke="black" points="611.63,-756.55 557.63,-756.55 557.63,-720.55 611.63,-720.55 611.63,-756.55"/>
<text xml:space="preserve" text-anchor="middle" x="584.63" y="-733.5" font-family="Times,serif" font-size="14.00">cites</text>
</g>
<!-- RFC2095&#45;&gt;cites -->
<g id="edge6" class="edge">
<title>RFC2095&#45;&gt;cites</title>
<path fill="none" stroke="black" d="M876.47,-570.05C792.56,-618.5 679.47,-683.79 621.81,-717.08"/>
<polygon fill="black" stroke="black" points="620.26,-713.93 613.35,-721.97 623.76,-720 620.26,-713.93"/>
</g>
<!-- obs_by -->
<g id="node2" class="node">
<title>obs_by</title>
<polygon fill="lightblue" stroke="black" points="617.76,-299.07 551.51,-299.07 551.51,-263.07 617.76,-263.07 617.76,-299.07"/>
<text xml:space="preserve" text-anchor="middle" x="584.63" y="-276.02" font-family="Times,serif" font-size="14.00">obsoletes</text>
</g>
<!-- obs_by&#45;&gt;RFC2095 -->
<g id="edge1" class="edge">
<title>obs_by&#45;&gt;RFC2095</title>
<path fill="none" stroke="black" d="M616.39,-299.4C670.05,-330.38 781.18,-394.54 866.69,-443.91"/>
<polygon fill="black" stroke="black" points="864.74,-446.83 875.15,-448.8 868.24,-440.77 864.74,-446.83"/>
</g>
<!-- RFC2195 -->
<g id="node3" class="node">
<title>RFC2195</title>
<g id="a_node3"><a xlink:href="RFC2195.html" xlink:title="This specification provides a simple challenge&#45;response authentication protocol that is suitable for use with IMAP4. [STANDARDS&#45;TRACK]" target="_top">
<ellipse fill="none" stroke="black" cx="188.44" cy="-52.33" rx="188.44" ry="52.33"/>
<text xml:space="preserve" text-anchor="middle" x="188.44" y="-72.03" font-family="Times,serif" font-size="14.00">RFC2195</text>
<text xml:space="preserve" text-anchor="middle" x="188.44" y="-55.53" font-family="Times,serif" font-size="14.00">IMAP/POP AUTHorize Extension for Simple</text>
<text xml:space="preserve" text-anchor="middle" x="188.44" y="-39.03" font-family="Times,serif" font-size="14.00">Challenge/Response</text>
<text xml:space="preserve" text-anchor="middle" x="188.44" y="-22.53" font-family="Times,serif" font-size="14.00">1997</text>
</a>
</g>
</g>
<!-- RFC2195&#45;&gt;obs_by -->
<g id="edge2" class="edge">
<title>RFC2195&#45;&gt;obs_by</title>
<path fill="none" stroke="black" d="M270.53,-99.72C353.58,-147.67 478.62,-219.86 543.02,-257.04"/>
<polygon fill="black" stroke="black" points="541.1,-259.98 551.51,-261.94 544.6,-253.91 541.1,-259.98"/>
</g>
<!-- updated_by -->
<g id="node6" class="node">
<title>updated_by</title>
<polygon fill="lightyellow" stroke="black" points="1009.45,-70.33 952.2,-70.33 952.2,-34.33 1009.45,-34.33 1009.45,-70.33"/>
<text xml:space="preserve" text-anchor="middle" x="980.82" y="-47.28" font-family="Times,serif" font-size="14.00">updates</text>
</g>
<!-- updated_by&#45;&gt;RFC2095 -->
<g id="edge5" class="edge">
<title>updated_by&#45;&gt;RFC2095</title>
<path fill="none" stroke="black" d="M980.82,-70.54C980.82,-130.33 980.82,-322.98 980.82,-432.26"/>
<polygon fill="black" stroke="black" points="977.32,-432.02 980.82,-442.02 984.32,-432.02 977.32,-432.02"/>
</g>
<!-- rev_cites -->
<g id="node8" class="node">
<title>rev_cites</title>
<polygon fill="lightblue" stroke="black" points="1404.01,-299.07 1350.01,-299.07 1350.01,-263.07 1404.01,-263.07 1404.01,-299.07"/>
<text xml:space="preserve" text-anchor="middle" x="1377.01" y="-276.02" font-family="Times,serif" font-size="14.00">cites</text>
</g>
<!-- rev_cites&#45;&gt;RFC2095 -->
<g id="edge7" class="edge">
<title>rev_cites&#45;&gt;RFC2095</title>
<path fill="none" stroke="black" d="M1349.78,-296.79C1298.05,-326.66 1182.87,-393.15 1094.87,-443.96"/>
<polygon fill="black" stroke="black" points="1093.31,-440.82 1086.4,-448.85 1096.81,-446.88 1093.31,-440.82"/>
</g>
<!-- RFC2945 -->
<g id="node9" class="node">
<title>RFC2945</title>
<g id="a_node9"><a xlink:href="RFC2945.html" xlink:title="This document describes a cryptographically strong network authentication mechanism known as the Secure Remote Password (SRP) protocol. [STANDARDS&#45;TRACK]" target="_top">
<ellipse fill="none" stroke="black" cx="1773.2" cy="-52.33" rx="179.96" ry="52.33"/>
<text xml:space="preserve" text-anchor="middle" x="1773.2" y="-72.03" font-family="Times,serif" font-size="14.00">RFC2945</text>
<text xml:space="preserve" text-anchor="middle" x="1773.2" y="-55.53" font-family="Times,serif" font-size="14.00">The SRP Authentication and Key Exchange</text>
<text xml:space="preserve" text-anchor="middle" x="1773.2" y="-39.03" font-family="Times,serif" font-size="14.00">System</text>
<text xml:space="preserve" text-anchor="middle" x="1773.2" y="-22.53" font-family="Times,serif" font-size="14.00">2000</text>
</a>
</g>
</g>
<!-- RFC2945&#45;&gt;rev_cites -->
<g id="edge8" class="edge">
<title>RFC2945&#45;&gt;rev_cites</title>
<path fill="none" stroke="black" d="M1692.07,-99.17C1607.15,-148.2 1477.55,-223.02 1414.32,-259.53"/>
<polygon fill="black" stroke="black" points="1412.62,-256.47 1405.71,-264.5 1416.12,-262.53 1412.62,-256.47"/>
</g>
</g>
</svg>
