<?xml version="1.0" encoding="UTF-8" standalone="no"?>
<!DOCTYPE svg PUBLIC "-//W3C//DTD SVG 1.1//EN"
 "http://www.w3.org/Graphics/SVG/1.1/DTD/svg11.dtd">
<!-- Generated by graphviz version 14.1.1 (20251213.1925)
 -->
<!-- Title: Flow Pages: 1 -->
<svg width="1153pt" height="608pt"
 viewBox="0.00 0.00 1153.00 608.00" xmlns="http://www.w3.org/2000/svg" xmlns:xlink="http://www.w3.org/1999/xlink">
<g id="graph0" class="graph" transform="scale(1 1) rotate(0) translate(4 604.32)">
<title>Flow</title>
<polygon fill="white" stroke="none" points="-4,4 -4,-604.32 1148.67,-604.32 1148.67,4 -4,4"/>
<!-- RFC2772 -->
<g id="node1" class="node">
<title>RFC2772</title>
<g id="a_node1"><a xlink:title="This document provides a set of guidelines for all 6bone routing equipment operators to use as a reference for efficient and stable deployment of 6bone routing systems. &#160;This memo provides information for the Internet community.">
<ellipse fill="none" stroke="black" cx="553.24" cy="-454.66" rx="154.5" ry="40.66"/>
<text xml:space="preserve" text-anchor="middle" x="553.24" y="-466.11" font-family="Times,serif" font-size="14.00">RFC2772</text>
<text xml:space="preserve" text-anchor="middle" x="553.24" y="-449.61" font-family="Times,serif" font-size="14.00">6Bone Backbone Routing Guidelines</text>
<text xml:space="preserve" text-anchor="middle" x="553.24" y="-433.11" font-family="Times,serif" font-size="14.00">2000</text>
</a>
</g>
</g>
<!-- obs -->
<g id="node3" class="node">
<title>obs</title>
<polygon fill="none" stroke="black" points="798.99,-551.66 732.74,-551.66 732.74,-515.66 798.99,-515.66 798.99,-551.66"/>
<text xml:space="preserve" text-anchor="middle" x="765.87" y="-528.61" font-family="Times,serif" font-size="14.00">obsoletes</text>
</g>
<!-- RFC2772&#45;&gt;obs -->
<g id="edge2" class="edge">
<title>RFC2772&#45;&gt;obs</title>
<path fill="none" stroke="black" d="M643.26,-488.05C670.47,-498.25 699.17,-509.02 721.85,-517.52"/>
<polygon fill="black" stroke="black" points="720.46,-520.74 731.05,-520.97 722.91,-514.18 720.46,-520.74"/>
</g>
<!-- updates -->
<g id="node5" class="node">
<title>updates</title>
<polygon fill="none" stroke="black" points="794.49,-472.66 737.24,-472.66 737.24,-436.66 794.49,-436.66 794.49,-472.66"/>
<text xml:space="preserve" text-anchor="middle" x="765.87" y="-449.61" font-family="Times,serif" font-size="14.00">updates</text>
</g>
<!-- RFC2772&#45;&gt;updates -->
<g id="edge4" class="edge">
<title>RFC2772&#45;&gt;updates</title>
<path fill="none" stroke="black" d="M708.15,-454.66C714.27,-454.66 720.11,-454.66 725.55,-454.66"/>
<polygon fill="black" stroke="black" points="725.28,-458.16 735.28,-454.66 725.28,-451.16 725.28,-458.16"/>
</g>
<!-- cites -->
<g id="node8" class="node">
<title>cites</title>
<polygon fill="none" stroke="black" points="792.87,-367.66 738.87,-367.66 738.87,-331.66 792.87,-331.66 792.87,-367.66"/>
<text xml:space="preserve" text-anchor="middle" x="765.87" y="-344.61" font-family="Times,serif" font-size="14.00">cites</text>
</g>
<!-- RFC2772&#45;&gt;cites -->
<g id="edge7" class="edge">
<title>RFC2772&#45;&gt;cites</title>
<path fill="none" stroke="black" d="M626.73,-418.52C661.02,-401.43 700.47,-381.76 728.42,-367.83"/>
<polygon fill="black" stroke="black" points="729.78,-371.06 737.17,-363.47 726.66,-364.8 729.78,-371.06"/>
</g>
<!-- obs_by -->
<g id="node2" class="node">
<title>obs_by</title>
<polygon fill="none" stroke="black" points="373.74,-526.66 307.49,-526.66 307.49,-490.66 373.74,-490.66 373.74,-526.66"/>
<text xml:space="preserve" text-anchor="middle" x="340.61" y="-503.61" font-family="Times,serif" font-size="14.00">obsoletes</text>
</g>
<!-- obs_by&#45;&gt;RFC2772 -->
<g id="edge1" class="edge">
<title>obs_by&#45;&gt;RFC2772</title>
<path fill="none" stroke="black" d="M374.06,-500.34C389.79,-496.31 409.76,-491.19 430.61,-485.84"/>
<polygon fill="black" stroke="black" points="431.29,-489.28 440.1,-483.41 429.55,-482.5 431.29,-489.28"/>
</g>
<!-- RFC2546 -->
<g id="node4" class="node">
<title>RFC2546</title>
<g id="a_node4"><a xlink:href="RFC2546.html" xlink:title="This memo identifies guidelines on how 6Bone sites might operate, so that the 6Bone can remain a quality experimentation environment and to avoid pathological situations that have been encountered in the past. &#160;It defines the &#39;best current practice&#39; acceptable in the 6Bone for the configuration of both Interior Gateway Protocols and Exterior Gateway Protocols. &#160;This memo provides information for the Internet community." target="_top">
<ellipse fill="none" stroke="black" cx="984.33" cy="-559.66" rx="103.06" ry="40.66"/>
<text xml:space="preserve" text-anchor="middle" x="984.33" y="-571.11" font-family="Times,serif" font-size="14.00">RFC2546</text>
<text xml:space="preserve" text-anchor="middle" x="984.33" y="-554.61" font-family="Times,serif" font-size="14.00">6Bone Routing Practice</text>
<text xml:space="preserve" text-anchor="middle" x="984.33" y="-538.11" font-family="Times,serif" font-size="14.00">1999</text>
</a>
</g>
</g>
<!-- obs&#45;&gt;RFC2546 -->
<g id="edge3" class="edge">
<title>obs&#45;&gt;RFC2546</title>
<path fill="none" stroke="black" d="M799.28,-537.55C819.49,-539.98 846.79,-543.26 874.18,-546.55"/>
<polygon fill="black" stroke="black" points="873.63,-550.01 883.98,-547.73 874.47,-543.06 873.63,-550.01"/>
</g>
<!-- updated_by -->
<g id="node6" class="node">
<title>updated_by</title>
<polygon fill="none" stroke="black" points="369.24,-472.66 311.99,-472.66 311.99,-436.66 369.24,-436.66 369.24,-472.66"/>
<text xml:space="preserve" text-anchor="middle" x="340.61" y="-449.61" font-family="Times,serif" font-size="14.00">updates</text>
</g>
<!-- updated_by&#45;&gt;RFC2772 -->
<g id="edge5" class="edge">
<title>updated_by&#45;&gt;RFC2772</title>
<path fill="none" stroke="black" d="M369.58,-454.66C374.96,-454.66 380.94,-454.66 387.35,-454.66"/>
<polygon fill="black" stroke="black" points="387.02,-458.16 397.02,-454.66 387.02,-451.16 387.02,-458.16"/>
</g>
<!-- RFC3152 -->
<g id="node7" class="node">
<title>RFC3152</title>
<g id="a_node7"><a xlink:href="RFC3152.html" xlink:title="This document discusses the need for delegation of the IP6.ARPA DNS zone, and specifies a plan for the technical operation thereof. &#160;This document specifies an Internet Best Current Practices for the Internet Community, and requests discussion and suggestions for improvements." target="_top">
<ellipse fill="none" stroke="black" cx="141.24" cy="-454.66" rx="107.83" ry="40.66"/>
<text xml:space="preserve" text-anchor="middle" x="141.24" y="-466.11" font-family="Times,serif" font-size="14.00">RFC3152</text>
<text xml:space="preserve" text-anchor="middle" x="141.24" y="-449.61" font-family="Times,serif" font-size="14.00">Delegation of IP6.ARPA</text>
<text xml:space="preserve" text-anchor="middle" x="141.24" y="-433.11" font-family="Times,serif" font-size="14.00">2001</text>
</a>
</g>
</g>
<!-- RFC3152&#45;&gt;updated_by -->
<g id="edge6" class="edge">
<title>RFC3152&#45;&gt;updated_by</title>
<path fill="none" stroke="black" d="M249.3,-454.66C267.61,-454.66 285.53,-454.66 300.52,-454.66"/>
<polygon fill="black" stroke="black" points="300.35,-458.16 310.35,-454.66 300.35,-451.16 300.35,-458.16"/>
</g>
<!-- rev_cites -->
<g id="node14" class="node">
<title>rev_cites</title>
<polygon fill="none" stroke="black" points="367.61,-418.66 313.61,-418.66 313.61,-382.66 367.61,-382.66 367.61,-418.66"/>
<text xml:space="preserve" text-anchor="middle" x="340.61" y="-395.61" font-family="Times,serif" font-size="14.00">cites</text>
</g>
<!-- RFC3152&#45;&gt;rev_cites -->
<g id="edge15" class="edge">
<title>RFC3152&#45;&gt;rev_cites</title>
<path fill="none" stroke="black" d="M229.39,-430.82C255,-423.81 281.67,-416.51 302.36,-410.85"/>
<polygon fill="black" stroke="black" points="303.01,-414.3 311.73,-408.29 301.17,-407.55 303.01,-414.3"/>
</g>
<!-- cites&#45;&gt;RFC2546 -->
<g id="edge12" class="edge">
<title>cites&#45;&gt;RFC2546</title>
<path fill="none" stroke="black" d="M775.05,-368.06C781.87,-383.74 791.64,-406.96 798.99,-427.66 811.9,-463.96 796.83,-483.34 823.99,-510.66 838.28,-525.03 856.68,-535.21 875.87,-542.41"/>
<polygon fill="black" stroke="black" points="874.56,-545.66 885.15,-545.61 876.84,-539.04 874.56,-545.66"/>
</g>
<!-- RFC2283 -->
<g id="node9" class="node">
<title>RFC2283</title>
<g id="a_node9"><a xlink:href="RFC2283.html" xlink:title="This document defines extensions to BGP&#45;4 to enable it to carry routing information for multiple Network Layer protocols (e.g., IPv6, IPX, etc...). &#160;The extensions are backward compatible &#45; a router that supports the extensions can interoperate with a router that doesn&#39;t support the extensions. [STANDARDS&#45;TRACK]" target="_top">
<ellipse fill="none" stroke="black" cx="984.33" cy="-460.66" rx="152.38" ry="40.66"/>
<text xml:space="preserve" text-anchor="middle" x="984.33" y="-472.11" font-family="Times,serif" font-size="14.00">RFC2283</text>
<text xml:space="preserve" text-anchor="middle" x="984.33" y="-455.61" font-family="Times,serif" font-size="14.00">Multiprotocol Extensions for BGP&#45;4</text>
<text xml:space="preserve" text-anchor="middle" x="984.33" y="-439.11" font-family="Times,serif" font-size="14.00">1998</text>
</a>
</g>
</g>
<!-- cites&#45;&gt;RFC2283 -->
<g id="edge8" class="edge">
<title>cites&#45;&gt;RFC2283</title>
<path fill="none" stroke="black" d="M779.95,-368.09C790.44,-381.63 806.31,-399.54 823.99,-410.66 835.12,-417.65 847.29,-423.73 859.8,-429.01"/>
<polygon fill="black" stroke="black" points="858.39,-432.21 868.97,-432.69 861,-425.72 858.39,-432.21"/>
</g>
<!-- RFC2119 -->
<g id="node10" class="node">
<title>RFC2119</title>
<g id="a_node10"><a xlink:href="RFC2119.html" xlink:title="In many standards track documents several words are used to signify the requirements in the specification. &#160;These words are often capitalized. &#160;This document defines these words as they should be interpreted in IETF documents. &#160;This document specifies an Internet Best Current Practices for the Internet Community, and requests discussion and suggestions for improvements." target="_top">
<ellipse fill="none" stroke="black" cx="984.33" cy="-349.66" rx="160.34" ry="52.33"/>
<text xml:space="preserve" text-anchor="middle" x="984.33" y="-369.36" font-family="Times,serif" font-size="14.00">RFC2119</text>
<text xml:space="preserve" text-anchor="middle" x="984.33" y="-352.86" font-family="Times,serif" font-size="14.00">Key words for use in RFCs to Indicate</text>
<text xml:space="preserve" text-anchor="middle" x="984.33" y="-336.36" font-family="Times,serif" font-size="14.00">Requirement Levels</text>
<text xml:space="preserve" text-anchor="middle" x="984.33" y="-319.86" font-family="Times,serif" font-size="14.00">1997</text>
</a>
</g>
</g>
<!-- cites&#45;&gt;RFC2119 -->
<g id="edge9" class="edge">
<title>cites&#45;&gt;RFC2119</title>
<path fill="none" stroke="black" d="M792.98,-349.66C798.74,-349.66 805.24,-349.66 812.29,-349.66"/>
<polygon fill="black" stroke="black" points="812.28,-353.16 822.28,-349.66 812.28,-346.16 812.28,-353.16"/>
</g>
<!-- RFC2373 -->
<g id="node11" class="node">
<title>RFC2373</title>
<g id="a_node11"><a xlink:href="RFC2373.html" xlink:title="This specification defines the addressing architecture of the IP Version 6 protocol [IPV6]. [STANDARDS&#45;TRACK]" target="_top">
<ellipse fill="none" stroke="black" cx="984.33" cy="-238.66" rx="153.97" ry="40.66"/>
<text xml:space="preserve" text-anchor="middle" x="984.33" y="-250.11" font-family="Times,serif" font-size="14.00">RFC2373</text>
<text xml:space="preserve" text-anchor="middle" x="984.33" y="-233.61" font-family="Times,serif" font-size="14.00">IP Version 6 Addressing Architecture</text>
<text xml:space="preserve" text-anchor="middle" x="984.33" y="-217.11" font-family="Times,serif" font-size="14.00">1998</text>
</a>
</g>
</g>
<!-- cites&#45;&gt;RFC2373 -->
<g id="edge10" class="edge">
<title>cites&#45;&gt;RFC2373</title>
<path fill="none" stroke="black" d="M779.95,-331.23C790.44,-317.69 806.31,-299.78 823.99,-288.66 835.02,-281.73 847.08,-275.69 859.48,-270.45"/>
<polygon fill="black" stroke="black" points="860.59,-273.77 868.55,-266.79 857.97,-267.28 860.59,-273.77"/>
</g>
<!-- RFC2471 -->
<g id="node12" class="node">
<title>RFC2471</title>
<g id="a_node12"><a xlink:href="RFC2471.html" xlink:title="This document describes an allocation plan for IPv6 addresses to be used in testing IPv6 prototype software. &#160;This memo defines an Experimental Protocol for the Internet community." target="_top">
<ellipse fill="none" stroke="black" cx="984.33" cy="-139.66" rx="135.94" ry="40.66"/>
<text xml:space="preserve" text-anchor="middle" x="984.33" y="-151.11" font-family="Times,serif" font-size="14.00">RFC2471</text>
<text xml:space="preserve" text-anchor="middle" x="984.33" y="-134.61" font-family="Times,serif" font-size="14.00">IPv6 Testing Address Allocation</text>
<text xml:space="preserve" text-anchor="middle" x="984.33" y="-118.11" font-family="Times,serif" font-size="14.00">1998</text>
</a>
</g>
</g>
<!-- cites&#45;&gt;RFC2471 -->
<g id="edge11" class="edge">
<title>cites&#45;&gt;RFC2471</title>
<path fill="none" stroke="black" d="M768.14,-331.37C771.43,-298.18 783.09,-227.85 823.99,-188.66 833.71,-179.35 845.15,-171.81 857.37,-165.69"/>
<polygon fill="black" stroke="black" points="858.8,-168.89 866.42,-161.52 855.87,-162.53 858.8,-168.89"/>
</g>
<!-- RFC2080 -->
<g id="node13" class="node">
<title>RFC2080</title>
<g id="a_node13"><a xlink:href="RFC2080.html" xlink:title="This document specifies a routing protocol for an IPv6 internet. &#160;It is based on protocols and algorithms currently in wide use in the IPv4 Internet [STANDARDS&#45;TRACK]" target="_top">
<ellipse fill="none" stroke="black" cx="984.33" cy="-40.66" rx="70.18" ry="40.66"/>
<text xml:space="preserve" text-anchor="middle" x="984.33" y="-52.11" font-family="Times,serif" font-size="14.00">RFC2080</text>
<text xml:space="preserve" text-anchor="middle" x="984.33" y="-35.61" font-family="Times,serif" font-size="14.00">RIPng for IPv6</text>
<text xml:space="preserve" text-anchor="middle" x="984.33" y="-19.11" font-family="Times,serif" font-size="14.00">1997</text>
</a>
</g>
</g>
<!-- cites&#45;&gt;RFC2080 -->
<g id="edge13" class="edge">
<title>cites&#45;&gt;RFC2080</title>
<path fill="none" stroke="black" d="M768.52,-331.33C773.66,-278.17 791.04,-125.44 823.99,-89.66 844.51,-67.39 874.87,-55.13 903.61,-48.43"/>
<polygon fill="black" stroke="black" points="903.98,-51.93 913.04,-46.44 902.53,-45.08 903.98,-51.93"/>
</g>
<!-- rev_cites&#45;&gt;RFC2772 -->
<g id="edge14" class="edge">
<title>rev_cites&#45;&gt;RFC2772</title>
<path fill="none" stroke="black" d="M367.86,-407.39C384.31,-411.61 406.83,-417.38 430.47,-423.44"/>
<polygon fill="black" stroke="black" points="429.38,-426.77 439.93,-425.87 431.12,-419.99 429.38,-426.77"/>
</g>
<!-- RFC3879 -->
<g id="node15" class="node">
<title>RFC3879</title>
<g id="a_node15"><a xlink:href="RFC3879.html" xlink:title="This document describes the issues surrounding the use of IPv6 site&#45;local unicast addresses in their original form, and formally deprecates them. &#160;This deprecation does not prevent their continued use until a replacement has been standardized and implemented. [STANDARDS&#45;TRACK]" target="_top">
<ellipse fill="none" stroke="black" cx="141.24" cy="-355.66" rx="141.24" ry="40.66"/>
<text xml:space="preserve" text-anchor="middle" x="141.24" y="-367.11" font-family="Times,serif" font-size="14.00">RFC3879</text>
<text xml:space="preserve" text-anchor="middle" x="141.24" y="-350.61" font-family="Times,serif" font-size="14.00">Deprecating Site Local Addresses</text>
<text xml:space="preserve" text-anchor="middle" x="141.24" y="-334.11" font-family="Times,serif" font-size="14.00">2004</text>
</a>
</g>
</g>
<!-- RFC3879&#45;&gt;rev_cites -->
<g id="edge16" class="edge">
<title>RFC3879&#45;&gt;rev_cites</title>
<path fill="none" stroke="black" d="M253.04,-380.92C270.79,-384.97 288.01,-388.89 302.36,-392.16"/>
<polygon fill="black" stroke="black" points="301.2,-395.49 311.73,-394.3 302.75,-388.66 301.2,-395.49"/>
</g>
</g>
</svg>
