<?xml version="1.0" encoding="UTF-8" standalone="no"?>
<!DOCTYPE svg PUBLIC "-//W3C//DTD SVG 1.1//EN"
 "http://www.w3.org/Graphics/SVG/1.1/DTD/svg11.dtd">
<!-- Generated by graphviz version 14.1.1 (20251213.1925)
 -->
<!-- Title: Flow Pages: 1 -->
<svg width="536pt" height="152pt"
 viewBox="0.00 0.00 536.00 152.00" xmlns="http://www.w3.org/2000/svg" xmlns:xlink="http://www.w3.org/1999/xlink">
<g id="graph0" class="graph" transform="scale(1 1) rotate(0) translate(4 148)">
<title>Flow</title>
<polygon fill="white" stroke="none" points="-4,4 -4,-148 531.57,-148 531.57,4 -4,4"/>
<!-- RFC2306 -->
<g id="node1" class="node">
<title>RFC2306</title>
<g id="a_node1"><a xlink:title="This document describes in detail the definition of TIFF&#45;F that is used to store facsimile images. &#160;This memo provides information for the Internet community. &#160;It does not specify an Internet standard of any kind.">
<ellipse fill="none" stroke="black" cx="263.78" cy="-72" rx="172.53" ry="52.33"/>
<text xml:space="preserve" text-anchor="middle" x="263.78" y="-91.7" font-family="Times,serif" font-size="14.00">RFC2306</text>
<text xml:space="preserve" text-anchor="middle" x="263.78" y="-75.2" font-family="Times,serif" font-size="14.00">Tag Image File Format (TIFF) &#45; F Profile</text>
<text xml:space="preserve" text-anchor="middle" x="263.78" y="-58.7" font-family="Times,serif" font-size="14.00">for Facsimile</text>
<text xml:space="preserve" text-anchor="middle" x="263.78" y="-42.2" font-family="Times,serif" font-size="14.00">1998</text>
</a>
</g>
</g>
<!-- obs -->
<g id="node3" class="node">
<title>obs</title>
<polygon fill="none" stroke="black" points="527.57,-144 461.32,-144 461.32,-108 527.57,-108 527.57,-144"/>
<text xml:space="preserve" text-anchor="middle" x="494.44" y="-120.95" font-family="Times,serif" font-size="14.00">obsoletes</text>
</g>
<!-- RFC2306&#45;&gt;obs -->
<g id="edge2" class="edge">
<title>RFC2306&#45;&gt;obs</title>
<path fill="none" stroke="black" d="M400.77,-104.11C418.48,-108.3 435.46,-112.31 449.95,-115.73"/>
<polygon fill="black" stroke="black" points="448.99,-119.1 459.52,-117.99 450.59,-112.28 448.99,-119.1"/>
</g>
<!-- updates -->
<g id="node4" class="node">
<title>updates</title>
<polygon fill="none" stroke="black" points="523.07,-90 465.82,-90 465.82,-54 523.07,-54 523.07,-90"/>
<text xml:space="preserve" text-anchor="middle" x="494.44" y="-66.95" font-family="Times,serif" font-size="14.00">updates</text>
</g>
<!-- RFC2306&#45;&gt;updates -->
<g id="edge3" class="edge">
<title>RFC2306&#45;&gt;updates</title>
<path fill="none" stroke="black" d="M436.63,-72C442.82,-72 448.7,-72 454.18,-72"/>
<polygon fill="black" stroke="black" points="453.95,-75.5 463.95,-72 453.95,-68.5 453.95,-75.5"/>
</g>
<!-- cites -->
<g id="node6" class="node">
<title>cites</title>
<polygon fill="none" stroke="black" points="521.44,-36 467.44,-36 467.44,0 521.44,0 521.44,-36"/>
<text xml:space="preserve" text-anchor="middle" x="494.44" y="-12.95" font-family="Times,serif" font-size="14.00">cites</text>
</g>
<!-- RFC2306&#45;&gt;cites -->
<g id="edge5" class="edge">
<title>RFC2306&#45;&gt;cites</title>
<path fill="none" stroke="black" d="M400.77,-39.89C421.14,-35.07 440.56,-30.49 456.32,-26.77"/>
<polygon fill="black" stroke="black" points="456.7,-30.27 465.62,-24.57 455.09,-23.46 456.7,-30.27"/>
</g>
<!-- obs_by -->
<g id="node2" class="node">
<title>obs_by</title>
<polygon fill="none" stroke="black" points="66.25,-144 0,-144 0,-108 66.25,-108 66.25,-144"/>
<text xml:space="preserve" text-anchor="middle" x="33.12" y="-120.95" font-family="Times,serif" font-size="14.00">obsoletes</text>
</g>
<!-- obs_by&#45;&gt;RFC2306 -->
<g id="edge1" class="edge">
<title>obs_by&#45;&gt;RFC2306</title>
<path fill="none" stroke="black" d="M66.4,-118.38C80.19,-115.12 97.35,-111.07 115.74,-106.73"/>
<polygon fill="black" stroke="black" points="116.29,-110.19 125.22,-104.49 114.68,-103.38 116.29,-110.19"/>
</g>
<!-- updated_by -->
<g id="node5" class="node">
<title>updated_by</title>
<polygon fill="none" stroke="black" points="61.75,-90 4.5,-90 4.5,-54 61.75,-54 61.75,-90"/>
<text xml:space="preserve" text-anchor="middle" x="33.12" y="-66.95" font-family="Times,serif" font-size="14.00">updates</text>
</g>
<!-- updated_by&#45;&gt;RFC2306 -->
<g id="edge4" class="edge">
<title>updated_by&#45;&gt;RFC2306</title>
<path fill="none" stroke="black" d="M62.16,-72C67.51,-72 73.46,-72 79.87,-72"/>
<polygon fill="black" stroke="black" points="79.54,-75.5 89.54,-72 79.54,-68.5 79.54,-75.5"/>
</g>
<!-- rev_cites -->
<g id="node7" class="node">
<title>rev_cites</title>
<polygon fill="none" stroke="black" points="60.12,-36 6.12,-36 6.12,0 60.12,0 60.12,-36"/>
<text xml:space="preserve" text-anchor="middle" x="33.12" y="-12.95" font-family="Times,serif" font-size="14.00">cites</text>
</g>
<!-- rev_cites&#45;&gt;RFC2306 -->
<g id="edge6" class="edge">
<title>rev_cites&#45;&gt;RFC2306</title>
<path fill="none" stroke="black" d="M60.36,-24.19C74.94,-27.64 94.38,-32.23 115.45,-37.21"/>
<polygon fill="black" stroke="black" points="114.59,-40.6 125.13,-39.49 116.2,-33.79 114.59,-40.6"/>
</g>
</g>
</svg>
