<?xml version="1.0" encoding="UTF-8" standalone="no"?>
<!DOCTYPE svg PUBLIC "-//W3C//DTD SVG 1.1//EN"
 "http://www.w3.org/Graphics/SVG/1.1/DTD/svg11.dtd">
<!-- Generated by graphviz version 14.1.1 (20251213.1925)
 -->
<!-- Title: Flow Pages: 1 -->
<svg width="1236pt" height="404pt"
 viewBox="0.00 0.00 1236.00 404.00" xmlns="http://www.w3.org/2000/svg" xmlns:xlink="http://www.w3.org/1999/xlink">
<g id="graph0" class="graph" transform="scale(1 1) rotate(0) translate(4 400.32)">
<title>Flow</title>
<polygon fill="white" stroke="none" points="-4,4 -4,-400.32 1232.46,-400.32 1232.46,4 -4,4"/>
<!-- RFC2997 -->
<g id="node1" class="node">
<title>RFC2997</title>
<g id="a_node1"><a xlink:title="The Null Service allows applications to identify themselves to network Quality of Service (QoS) policy agents, using RSVP signaling. &#160;However, it does not require them to specify resource requirements. &#160;QoS policy agents in the network respond by applying QoS policies appropriate for the application (as determined by the network administrator). &#160;This mode of RSVP usage is particularly applicable to networks that combine differentiated service (diffserv) QoS mechanisms with RSVP signaling. &#160;In this environment, QoS policy agents may direct the signaled application&#39;s traffic to a particular diffserv class of service. [STANDARDS&#45;TRACK]">
<ellipse fill="none" stroke="black" cx="603.62" cy="-263.99" rx="159.28" ry="40.66"/>
<text xml:space="preserve" text-anchor="middle" x="603.62" y="-275.44" font-family="Times,serif" font-size="14.00">RFC2997</text>
<text xml:space="preserve" text-anchor="middle" x="603.62" y="-258.94" font-family="Times,serif" font-size="14.00">Specification of the Null Service Type</text>
<text xml:space="preserve" text-anchor="middle" x="603.62" y="-242.44" font-family="Times,serif" font-size="14.00">2000</text>
</a>
</g>
</g>
<!-- obs -->
<g id="node3" class="node">
<title>obs</title>
<polygon fill="none" stroke="black" points="854.15,-335.99 787.9,-335.99 787.9,-299.99 854.15,-299.99 854.15,-335.99"/>
<text xml:space="preserve" text-anchor="middle" x="821.02" y="-312.94" font-family="Times,serif" font-size="14.00">obsoletes</text>
</g>
<!-- RFC2997&#45;&gt;obs -->
<g id="edge2" class="edge">
<title>RFC2997&#45;&gt;obs</title>
<path fill="none" stroke="black" d="M718.32,-292.5C739.22,-297.74 759.83,-302.9 776.96,-307.2"/>
<polygon fill="black" stroke="black" points="775.68,-310.48 786.23,-309.52 777.38,-303.69 775.68,-310.48"/>
</g>
<!-- updates -->
<g id="node4" class="node">
<title>updates</title>
<polygon fill="none" stroke="black" points="849.65,-281.99 792.4,-281.99 792.4,-245.99 849.65,-245.99 849.65,-281.99"/>
<text xml:space="preserve" text-anchor="middle" x="821.02" y="-258.94" font-family="Times,serif" font-size="14.00">updates</text>
</g>
<!-- RFC2997&#45;&gt;updates -->
<g id="edge3" class="edge">
<title>RFC2997&#45;&gt;updates</title>
<path fill="none" stroke="black" d="M763.15,-263.99C769.3,-263.99 775.16,-263.99 780.63,-263.99"/>
<polygon fill="black" stroke="black" points="780.4,-267.49 790.4,-263.99 780.4,-260.49 780.4,-267.49"/>
</g>
<!-- cites -->
<g id="node6" class="node">
<title>cites</title>
<polygon fill="none" stroke="black" points="848.02,-227.99 794.02,-227.99 794.02,-191.99 848.02,-191.99 848.02,-227.99"/>
<text xml:space="preserve" text-anchor="middle" x="821.02" y="-204.94" font-family="Times,serif" font-size="14.00">cites</text>
</g>
<!-- RFC2997&#45;&gt;cites -->
<g id="edge5" class="edge">
<title>RFC2997&#45;&gt;cites</title>
<path fill="none" stroke="black" d="M718.32,-235.49C741.66,-229.64 764.62,-223.88 782.8,-219.32"/>
<polygon fill="black" stroke="black" points="783.43,-222.78 792.27,-216.95 781.72,-215.99 783.43,-222.78"/>
</g>
<!-- obs_by -->
<g id="node2" class="node">
<title>obs_by</title>
<polygon fill="none" stroke="black" points="419.35,-335.99 353.1,-335.99 353.1,-299.99 419.35,-299.99 419.35,-335.99"/>
<text xml:space="preserve" text-anchor="middle" x="386.22" y="-312.94" font-family="Times,serif" font-size="14.00">obsoletes</text>
</g>
<!-- obs_by&#45;&gt;RFC2997 -->
<g id="edge1" class="edge">
<title>obs_by&#45;&gt;RFC2997</title>
<path fill="none" stroke="black" d="M419.47,-309.91C435.63,-305.86 456.36,-300.66 478.01,-295.23"/>
<polygon fill="black" stroke="black" points="478.74,-298.66 487.58,-292.83 477.03,-291.87 478.74,-298.66"/>
</g>
<!-- updated_by -->
<g id="node5" class="node">
<title>updated_by</title>
<polygon fill="none" stroke="black" points="414.85,-281.99 357.6,-281.99 357.6,-245.99 414.85,-245.99 414.85,-281.99"/>
<text xml:space="preserve" text-anchor="middle" x="386.22" y="-258.94" font-family="Times,serif" font-size="14.00">updates</text>
</g>
<!-- updated_by&#45;&gt;RFC2997 -->
<g id="edge4" class="edge">
<title>updated_by&#45;&gt;RFC2997</title>
<path fill="none" stroke="black" d="M414.94,-263.99C420.33,-263.99 426.33,-263.99 432.78,-263.99"/>
<polygon fill="black" stroke="black" points="432.52,-267.49 442.52,-263.99 432.52,-260.49 432.52,-267.49"/>
</g>
<!-- RFC2216 -->
<g id="node7" class="node">
<title>RFC2216</title>
<g id="a_node7"><a xlink:href="RFC2216.html" xlink:title="This document defines a framework for specifying services provided by network elements, and available to applications, in an internetwork which offers multiple qualities of service. &#160;The document first provides some necessary context &#45;&#45; including relevant definitions and suggested data formats &#45;&#45; and then specifies a template which service specification documents should follow. &#160;This memo provides information for the Internet community. &#160;It does not specify an Internet standard of any kind." target="_top">
<ellipse fill="none" stroke="black" cx="1053.8" cy="-332.99" rx="164.05" ry="52.33"/>
<text xml:space="preserve" text-anchor="middle" x="1053.8" y="-352.69" font-family="Times,serif" font-size="14.00">RFC2216</text>
<text xml:space="preserve" text-anchor="middle" x="1053.8" y="-336.19" font-family="Times,serif" font-size="14.00">Network Element Service Specification</text>
<text xml:space="preserve" text-anchor="middle" x="1053.8" y="-319.69" font-family="Times,serif" font-size="14.00">Template</text>
<text xml:space="preserve" text-anchor="middle" x="1053.8" y="-303.19" font-family="Times,serif" font-size="14.00">1997</text>
</a>
</g>
</g>
<!-- cites&#45;&gt;RFC2216 -->
<g id="edge6" class="edge">
<title>cites&#45;&gt;RFC2216</title>
<path fill="none" stroke="black" d="M845.1,-228.23C848.25,-231.05 851.36,-234.02 854.15,-236.99 866.97,-250.68 864.1,-259.79 879.15,-270.99 891.13,-279.91 904.52,-287.64 918.4,-294.32"/>
<polygon fill="black" stroke="black" points="916.66,-297.37 927.21,-298.36 919.58,-291.01 916.66,-297.37"/>
</g>
<!-- RFC2210 -->
<g id="node8" class="node">
<title>RFC2210</title>
<g id="a_node8"><a xlink:href="RFC2210.html" xlink:title="This note describes the use of the RSVP resource reservation protocol with the Controlled&#45;Load and Guaranteed QoS control services. [STANDARDS&#45;TRACK]" target="_top">
<ellipse fill="none" stroke="black" cx="1053.8" cy="-209.99" rx="164.05" ry="52.33"/>
<text xml:space="preserve" text-anchor="middle" x="1053.8" y="-229.69" font-family="Times,serif" font-size="14.00">RFC2210</text>
<text xml:space="preserve" text-anchor="middle" x="1053.8" y="-213.19" font-family="Times,serif" font-size="14.00">The Use of RSVP with IETF Integrated</text>
<text xml:space="preserve" text-anchor="middle" x="1053.8" y="-196.69" font-family="Times,serif" font-size="14.00">Services</text>
<text xml:space="preserve" text-anchor="middle" x="1053.8" y="-180.19" font-family="Times,serif" font-size="14.00">1997</text>
</a>
</g>
</g>
<!-- cites&#45;&gt;RFC2210 -->
<g id="edge7" class="edge">
<title>cites&#45;&gt;RFC2210</title>
<path fill="none" stroke="black" d="M848.5,-209.99C856.93,-209.99 866.98,-209.99 878.02,-209.99"/>
<polygon fill="black" stroke="black" points="877.86,-213.49 887.86,-209.99 877.86,-206.49 877.86,-213.49"/>
</g>
<!-- RFC2205 -->
<g id="node9" class="node">
<title>RFC2205</title>
<g id="a_node9"><a xlink:href="RFC2205.html" xlink:title="This memo describes version 1 of RSVP, a resource reservation setup protocol designed for an integrated services Internet. &#160;RSVP provides receiver&#45;initiated setup of resource reservations for multicast or unicast data flows, with good scaling and robustness properties. [STANDARDS&#45;TRACK]" target="_top">
<ellipse fill="none" stroke="black" cx="1053.8" cy="-86.99" rx="174.66" ry="52.33"/>
<text xml:space="preserve" text-anchor="middle" x="1053.8" y="-106.69" font-family="Times,serif" font-size="14.00">RFC2205</text>
<text xml:space="preserve" text-anchor="middle" x="1053.8" y="-90.19" font-family="Times,serif" font-size="14.00">Resource ReSerVation Protocol (RSVP) &#45;&#45;</text>
<text xml:space="preserve" text-anchor="middle" x="1053.8" y="-73.69" font-family="Times,serif" font-size="14.00">Version 1 Functional Specification</text>
<text xml:space="preserve" text-anchor="middle" x="1053.8" y="-57.19" font-family="Times,serif" font-size="14.00">1997</text>
</a>
</g>
</g>
<!-- cites&#45;&gt;RFC2205 -->
<g id="edge8" class="edge">
<title>cites&#45;&gt;RFC2205</title>
<path fill="none" stroke="black" d="M835.23,-191.76C845.79,-178.32 861.68,-160.45 879.15,-148.99 891.09,-141.16 904.15,-134.17 917.57,-127.97"/>
<polygon fill="black" stroke="black" points="918.79,-131.26 926.51,-124 915.95,-124.86 918.79,-131.26"/>
</g>
<!-- rev_cites -->
<g id="node10" class="node">
<title>rev_cites</title>
<polygon fill="none" stroke="black" points="413.22,-227.99 359.22,-227.99 359.22,-191.99 413.22,-191.99 413.22,-227.99"/>
<text xml:space="preserve" text-anchor="middle" x="386.22" y="-204.94" font-family="Times,serif" font-size="14.00">cites</text>
</g>
<!-- rev_cites&#45;&gt;RFC2997 -->
<g id="edge9" class="edge">
<title>rev_cites&#45;&gt;RFC2997</title>
<path fill="none" stroke="black" d="M413.63,-216.61C430.47,-220.83 453.63,-226.64 477.98,-232.75"/>
<polygon fill="black" stroke="black" points="476.83,-236.07 487.38,-235.1 478.54,-229.28 476.83,-236.07"/>
</g>
<!-- RFC4094 -->
<g id="node11" class="node">
<title>RFC4094</title>
<g id="a_node11"><a xlink:href="RFC4094.html" xlink:title="This document reviews some of the existing Quality of Service (QoS) signaling protocols for an IP network. &#160;The goal here is to learn from them and to avoid common misconceptions. &#160;Further, we need to avoid mistakes during the design and implementation of any new protocol in this area. &#160;This memo provides information for the Internet community." target="_top">
<ellipse fill="none" stroke="black" cx="164.05" cy="-343.99" rx="164.05" ry="52.33"/>
<text xml:space="preserve" text-anchor="middle" x="164.05" y="-363.69" font-family="Times,serif" font-size="14.00">RFC4094</text>
<text xml:space="preserve" text-anchor="middle" x="164.05" y="-347.19" font-family="Times,serif" font-size="14.00">Analysis of Existing Quality&#45;of&#45;Service</text>
<text xml:space="preserve" text-anchor="middle" x="164.05" y="-330.69" font-family="Times,serif" font-size="14.00">Signaling Protocols</text>
<text xml:space="preserve" text-anchor="middle" x="164.05" y="-314.19" font-family="Times,serif" font-size="14.00">2005</text>
</a>
</g>
</g>
<!-- RFC4094&#45;&gt;rev_cites -->
<g id="edge10" class="edge">
<title>RFC4094&#45;&gt;rev_cites</title>
<path fill="none" stroke="black" d="M287.63,-309.37C302.2,-302.11 316.12,-293.4 328.1,-282.99 345.66,-267.73 338.38,-255.02 353.1,-236.99 353.25,-236.8 353.41,-236.61 353.57,-236.42"/>
<polygon fill="black" stroke="black" points="356,-238.94 360.38,-229.3 350.94,-234.1 356,-238.94"/>
</g>
<!-- RFC5975 -->
<g id="node12" class="node">
<title>RFC5975</title>
<g id="a_node12"><a xlink:href="RFC5975.html" xlink:title="The Quality&#45;of&#45;Service (QoS) NSIS signaling layer protocol (NSLP) is used to signal QoS reservations and is independent of a specific QoS model (QOSM) such as IntServ or Diffserv. &#160;Rather, all information specific to a QOSM is encapsulated in a separate object, the QSPEC. &#160;This document defines a template for the QSPEC including a number of QSPEC parameters. &#160;The QSPEC parameters provide a common language to be reused in several QOSMs and thereby aim to ensure the extensibility and interoperability of QoS NSLP. &#160;While the base protocol is QOSM&#45;agnostic, the parameters that can be carried in the QSPEC object are possibly closely coupled to specific models. &#160;The node initiating the NSIS signaling adds an Initiator QSPEC, which indicates the QSPEC parameters that must be interpreted by the downstream nodes less the reservation fails, thereby ensuring the intention of the NSIS initiator is preserved along the signaling path. &#160;This document defines an Experimental Protocol for the Internet community." target="_top">
<ellipse fill="none" stroke="black" cx="164.05" cy="-209.99" rx="162.46" ry="63.99"/>
<text xml:space="preserve" text-anchor="middle" x="164.05" y="-237.94" font-family="Times,serif" font-size="14.00">RFC5975</text>
<text xml:space="preserve" text-anchor="middle" x="164.05" y="-221.44" font-family="Times,serif" font-size="14.00">QSPEC Template for the Quality&#45;of&#45;</text>
<text xml:space="preserve" text-anchor="middle" x="164.05" y="-204.94" font-family="Times,serif" font-size="14.00">Service NSIS Signaling Layer Protocol</text>
<text xml:space="preserve" text-anchor="middle" x="164.05" y="-188.44" font-family="Times,serif" font-size="14.00">(NSLP)</text>
<text xml:space="preserve" text-anchor="middle" x="164.05" y="-171.94" font-family="Times,serif" font-size="14.00">2010</text>
</a>
</g>
</g>
<!-- RFC5975&#45;&gt;rev_cites -->
<g id="edge11" class="edge">
<title>RFC5975&#45;&gt;rev_cites</title>
<path fill="none" stroke="black" d="M326.8,-209.99C334.09,-209.99 340.99,-209.99 347.32,-209.99"/>
<polygon fill="black" stroke="black" points="347.23,-213.49 357.23,-209.99 347.23,-206.49 347.23,-213.49"/>
</g>
<!-- RFC6001 -->
<g id="node13" class="node">
<title>RFC6001</title>
<g id="a_node13"><a xlink:href="RFC6001.html" xlink:title="There are specific requirements for the support of networks comprising Label Switching Routers (LSRs) participating in different data plane switching layers controlled by a single Generalized Multi&#45;Protocol Label Switching (GMPLS) control plane instance, referred to as GMPLS Multi&#45;Layer Networks / Multi&#45;Region Networks (MLN/MRN). This document defines extensions to GMPLS routing and signaling protocols so as to support the operation of GMPLS Multi&#45;Layer / Multi&#45;Region Networks. It covers the elements of a single GMPLS control plane instance controlling multiple Label Switched Path (LSP) regions or layers within a single Traffic Engineering (TE) domain. [STANDARDS&#45;TRACK]" target="_top">
<ellipse fill="none" stroke="black" cx="164.05" cy="-63.99" rx="161.93" ry="63.99"/>
<text xml:space="preserve" text-anchor="middle" x="164.05" y="-91.94" font-family="Times,serif" font-size="14.00">RFC6001</text>
<text xml:space="preserve" text-anchor="middle" x="164.05" y="-75.44" font-family="Times,serif" font-size="14.00">Generalized MPLS (GMPLS) Protocol</text>
<text xml:space="preserve" text-anchor="middle" x="164.05" y="-58.94" font-family="Times,serif" font-size="14.00">Extensions for Multi&#45;Layer and Multi&#45;</text>
<text xml:space="preserve" text-anchor="middle" x="164.05" y="-42.44" font-family="Times,serif" font-size="14.00">Region Networks (MLN/MRN)</text>
<text xml:space="preserve" text-anchor="middle" x="164.05" y="-25.94" font-family="Times,serif" font-size="14.00">2010</text>
</a>
</g>
</g>
<!-- RFC6001&#45;&gt;rev_cites -->
<g id="edge12" class="edge">
<title>RFC6001&#45;&gt;rev_cites</title>
<path fill="none" stroke="black" d="M282.21,-108C298.37,-116.44 314.17,-126.1 328.1,-136.99 344.11,-149.52 358.23,-167.46 368.43,-182.42"/>
<polygon fill="black" stroke="black" points="365.29,-184.03 373.71,-190.47 371.15,-180.19 365.29,-184.03"/>
</g>
</g>
</svg>
