<?xml version="1.0" encoding="UTF-8" standalone="no"?>
<!DOCTYPE svg PUBLIC "-//W3C//DTD SVG 1.1//EN"
 "http://www.w3.org/Graphics/SVG/1.1/DTD/svg11.dtd">
<!-- Generated by graphviz version 14.1.1 (20251213.1925)
 -->
<!-- Title: Flow Pages: 1 -->
<svg width="543pt" height="152pt"
 viewBox="0.00 0.00 543.00 152.00" xmlns="http://www.w3.org/2000/svg" xmlns:xlink="http://www.w3.org/1999/xlink">
<g id="graph0" class="graph" transform="scale(1 1) rotate(0) translate(4 148)">
<title>Flow</title>
<polygon fill="white" stroke="none" points="-4,4 -4,-148 538.99,-148 538.99,4 -4,4"/>
<!-- RFC2029 -->
<g id="node1" class="node">
<title>RFC2029</title>
<g id="a_node1"><a xlink:title="This memo describes a packetization scheme for the CellB video encoding. &#160;The scheme proposed allows applications to transport CellB video flows over protocols used by RTP. &#160;This document is meant for implementors of video applications that want to use RTP and CellB. [STANDARDS&#45;TRACK]">
<ellipse fill="none" stroke="black" cx="267.5" cy="-72" rx="176.25" ry="52.33"/>
<text xml:space="preserve" text-anchor="middle" x="267.5" y="-91.7" font-family="Times,serif" font-size="14.00">RFC2029</text>
<text xml:space="preserve" text-anchor="middle" x="267.5" y="-75.2" font-family="Times,serif" font-size="14.00">RTP Payload Format of Sun&#39;s CellB Video</text>
<text xml:space="preserve" text-anchor="middle" x="267.5" y="-58.7" font-family="Times,serif" font-size="14.00">Encoding</text>
<text xml:space="preserve" text-anchor="middle" x="267.5" y="-42.2" font-family="Times,serif" font-size="14.00">1996</text>
</a>
</g>
</g>
<!-- obs -->
<g id="node3" class="node">
<title>obs</title>
<polygon fill="none" stroke="black" points="534.99,-144 468.74,-144 468.74,-108 534.99,-108 534.99,-144"/>
<text xml:space="preserve" text-anchor="middle" x="501.87" y="-120.95" font-family="Times,serif" font-size="14.00">obsoletes</text>
</g>
<!-- RFC2029&#45;&gt;obs -->
<g id="edge2" class="edge">
<title>RFC2029&#45;&gt;obs</title>
<path fill="none" stroke="black" d="M407.36,-104.27C425.41,-108.46 442.7,-112.48 457.39,-115.9"/>
<polygon fill="black" stroke="black" points="456.58,-119.3 467.11,-118.16 458.16,-112.48 456.58,-119.3"/>
</g>
<!-- updates -->
<g id="node4" class="node">
<title>updates</title>
<polygon fill="none" stroke="black" points="530.49,-90 473.24,-90 473.24,-54 530.49,-54 530.49,-90"/>
<text xml:space="preserve" text-anchor="middle" x="501.87" y="-66.95" font-family="Times,serif" font-size="14.00">updates</text>
</g>
<!-- RFC2029&#45;&gt;updates -->
<g id="edge3" class="edge">
<title>RFC2029&#45;&gt;updates</title>
<path fill="none" stroke="black" d="M444.02,-72C450.23,-72 456.13,-72 461.61,-72"/>
<polygon fill="black" stroke="black" points="461.39,-75.5 471.39,-72 461.39,-68.5 461.39,-75.5"/>
</g>
<!-- cites -->
<g id="node6" class="node">
<title>cites</title>
<polygon fill="none" stroke="black" points="528.87,-36 474.87,-36 474.87,0 528.87,0 528.87,-36"/>
<text xml:space="preserve" text-anchor="middle" x="501.87" y="-12.95" font-family="Times,serif" font-size="14.00">cites</text>
</g>
<!-- RFC2029&#45;&gt;cites -->
<g id="edge5" class="edge">
<title>RFC2029&#45;&gt;cites</title>
<path fill="none" stroke="black" d="M407.36,-39.73C428.1,-34.91 447.85,-30.32 463.8,-26.61"/>
<polygon fill="black" stroke="black" points="464.28,-30.09 473.23,-24.42 462.7,-23.28 464.28,-30.09"/>
</g>
<!-- obs_by -->
<g id="node2" class="node">
<title>obs_by</title>
<polygon fill="none" stroke="black" points="66.25,-144 0,-144 0,-108 66.25,-108 66.25,-144"/>
<text xml:space="preserve" text-anchor="middle" x="33.12" y="-120.95" font-family="Times,serif" font-size="14.00">obsoletes</text>
</g>
<!-- obs_by&#45;&gt;RFC2029 -->
<g id="edge1" class="edge">
<title>obs_by&#45;&gt;RFC2029</title>
<path fill="none" stroke="black" d="M66.44,-118.49C80.4,-115.25 97.84,-111.19 116.55,-106.85"/>
<polygon fill="black" stroke="black" points="117.28,-110.27 126.22,-104.6 115.69,-103.45 117.28,-110.27"/>
</g>
<!-- updated_by -->
<g id="node5" class="node">
<title>updated_by</title>
<polygon fill="none" stroke="black" points="61.75,-90 4.5,-90 4.5,-54 61.75,-54 61.75,-90"/>
<text xml:space="preserve" text-anchor="middle" x="33.12" y="-66.95" font-family="Times,serif" font-size="14.00">updates</text>
</g>
<!-- updated_by&#45;&gt;RFC2029 -->
<g id="edge4" class="edge">
<title>updated_by&#45;&gt;RFC2029</title>
<path fill="none" stroke="black" d="M62.15,-72C67.49,-72 73.43,-72 79.82,-72"/>
<polygon fill="black" stroke="black" points="79.48,-75.5 89.48,-72 79.48,-68.5 79.48,-75.5"/>
</g>
<!-- rev_cites -->
<g id="node7" class="node">
<title>rev_cites</title>
<polygon fill="none" stroke="black" points="60.12,-36 6.12,-36 6.12,0 60.12,0 60.12,-36"/>
<text xml:space="preserve" text-anchor="middle" x="33.12" y="-12.95" font-family="Times,serif" font-size="14.00">cites</text>
</g>
<!-- rev_cites&#45;&gt;RFC2029 -->
<g id="edge6" class="edge">
<title>rev_cites&#45;&gt;RFC2029</title>
<path fill="none" stroke="black" d="M60.33,-24.09C75.15,-27.53 95.01,-32.15 116.57,-37.16"/>
<polygon fill="black" stroke="black" points="115.62,-40.53 126.15,-39.39 117.2,-33.71 115.62,-40.53"/>
</g>
</g>
</svg>
