<?xml version="1.0" encoding="UTF-8" standalone="no"?>
<!DOCTYPE svg PUBLIC "-//W3C//DTD SVG 1.1//EN"
 "http://www.w3.org/Graphics/SVG/1.1/DTD/svg11.dtd">
<!-- Generated by graphviz version 14.1.1 (20251213.1925)
 -->
<!-- Title: Flow Pages: 1 -->
<svg width="1143pt" height="1041pt"
 viewBox="0.00 0.00 1143.00 1041.00" xmlns="http://www.w3.org/2000/svg" xmlns:xlink="http://www.w3.org/1999/xlink">
<g id="graph0" class="graph" transform="scale(1 1) rotate(0) translate(4 1037.01)">
<title>Flow</title>
<polygon fill="white" stroke="none" points="-4,4 -4,-1037.01 1138.84,-1037.01 1138.84,4 -4,4"/>
<!-- RFC2442 -->
<g id="node1" class="node">
<title>RFC2442</title>
<g id="a_node1"><a xlink:title="This document defines a MIME content type suitable for tunneling an ESMTP transaction through any MIME&#45;capable transport. &#160;This memo provides information for the Internet community">
<ellipse fill="green" stroke="black" stroke-width="3" cx="366.26" cy="-690.23" rx="165.64" ry="50.2"/>
<text xml:space="preserve" text-anchor="middle" x="366.26" y="-704.63" font-family="Times,serif" font-size="18.00">RFC2442</text>
<text xml:space="preserve" text-anchor="middle" x="366.26" y="-683.63" font-family="Times,serif" font-size="18.00">The Batch SMTP Media Type</text>
<text xml:space="preserve" text-anchor="middle" x="366.26" y="-662.63" font-family="Times,serif" font-size="18.00">1998</text>
</a>
</g>
</g>
<!-- obs -->
<g id="node3" class="node">
<title>obs</title>
<polygon fill="lightblue" stroke="black" points="699.53,-852.77 633.28,-852.77 633.28,-816.77 699.53,-816.77 699.53,-852.77"/>
<text xml:space="preserve" text-anchor="middle" x="666.41" y="-829.72" font-family="Times,serif" font-size="14.00">obsoletes</text>
</g>
<!-- RFC2442&#45;&gt;obs -->
<g id="edge2" class="edge">
<title>RFC2442&#45;&gt;obs</title>
<path fill="none" stroke="black" d="M456.32,-733.59C511.35,-760.1 579.28,-792.81 622.72,-813.73"/>
<polygon fill="black" stroke="black" points="621.06,-816.81 631.58,-818 624.09,-810.51 621.06,-816.81"/>
</g>
<!-- updates -->
<g id="node4" class="node">
<title>updates</title>
<polygon fill="lightyellow" stroke="black" points="469.02,-1033.01 411.77,-1033.01 411.77,-997.01 469.02,-997.01 469.02,-1033.01"/>
<text xml:space="preserve" text-anchor="middle" x="440.39" y="-1009.96" font-family="Times,serif" font-size="14.00">updates</text>
</g>
<!-- RFC2442&#45;&gt;updates -->
<g id="edge3" class="edge">
<title>RFC2442&#45;&gt;updates</title>
<path fill="none" stroke="black" d="M378.01,-741.69C393.72,-810.51 421.05,-930.25 433.66,-985.51"/>
<polygon fill="black" stroke="black" points="430.21,-986.15 435.85,-995.12 437.04,-984.59 430.21,-986.15"/>
</g>
<!-- cites -->
<g id="node6" class="node">
<title>cites</title>
<polygon fill="lightblue" stroke="black" points="185.55,-968.68 131.55,-968.68 131.55,-932.68 185.55,-932.68 185.55,-968.68"/>
<text xml:space="preserve" text-anchor="middle" x="158.55" y="-945.63" font-family="Times,serif" font-size="14.00">cites</text>
</g>
<!-- RFC2442&#45;&gt;cites -->
<g id="edge5" class="edge">
<title>RFC2442&#45;&gt;cites</title>
<path fill="none" stroke="black" d="M326.46,-740.14C282.89,-794.77 214.65,-880.34 180.12,-923.64"/>
<polygon fill="black" stroke="black" points="177.53,-921.28 174.03,-931.28 183,-925.65 177.53,-921.28"/>
</g>
<!-- obs_by -->
<g id="node2" class="node">
<title>obs_by</title>
<polygon fill="lightblue" stroke="black" points="66.25,-708.23 0,-708.23 0,-672.23 66.25,-672.23 66.25,-708.23"/>
<text xml:space="preserve" text-anchor="middle" x="33.13" y="-685.18" font-family="Times,serif" font-size="14.00">obsoletes</text>
</g>
<!-- obs_by&#45;&gt;RFC2442 -->
<g id="edge1" class="edge">
<title>obs_by&#45;&gt;RFC2442</title>
<path fill="none" stroke="black" d="M66.59,-690.23C96.07,-690.23 141.47,-690.23 188.09,-690.23"/>
<polygon fill="black" stroke="black" points="187.81,-693.73 197.81,-690.23 187.81,-686.73 187.81,-693.73"/>
</g>
<!-- updated_by -->
<g id="node5" class="node">
<title>updated_by</title>
<polygon fill="lightyellow" stroke="black" points="187.18,-447.77 129.93,-447.77 129.93,-411.77 187.18,-411.77 187.18,-447.77"/>
<text xml:space="preserve" text-anchor="middle" x="158.55" y="-424.72" font-family="Times,serif" font-size="14.00">updates</text>
</g>
<!-- updated_by&#45;&gt;RFC2442 -->
<g id="edge4" class="edge">
<title>updated_by&#45;&gt;RFC2442</title>
<path fill="none" stroke="black" d="M173.16,-448.09C203.07,-485.59 272.41,-572.53 319.32,-631.37"/>
<polygon fill="black" stroke="black" points="316.45,-633.37 325.42,-639.01 321.92,-629.01 316.45,-633.37"/>
</g>
<!-- rev_cites -->
<g id="node7" class="node">
<title>rev_cites</title>
<polygon fill="lightblue" stroke="black" points="600.97,-447.77 546.97,-447.77 546.97,-411.77 600.97,-411.77 600.97,-447.77"/>
<text xml:space="preserve" text-anchor="middle" x="573.97" y="-424.72" font-family="Times,serif" font-size="14.00">cites</text>
</g>
<!-- rev_cites&#45;&gt;RFC2442 -->
<g id="edge6" class="edge">
<title>rev_cites&#45;&gt;RFC2442</title>
<path fill="none" stroke="black" d="M559.36,-448.09C529.46,-485.59 460.12,-572.53 413.2,-631.37"/>
<polygon fill="black" stroke="black" points="410.6,-629.01 407.1,-639.01 416.08,-633.37 410.6,-629.01"/>
</g>
<!-- RFC5598 -->
<g id="node8" class="node">
<title>RFC5598</title>
<g id="a_node8"><a xlink:href="RFC5598.html" xlink:title="Over its thirty&#45;five&#45;year history, Internet Mail has changed significantly in scale and complexity, as it has become a global infrastructure service. &#160;These changes have been evolutionary, rather than revolutionary, reflecting a strong desire to preserve both its installed base and its usefulness. &#160;To collaborate productively on this large and complex system, all participants need to work from a common view of it and use a common language to describe its components and the interactions among them. &#160;But the many differences in perspective currently make it difficult to know exactly what another participant means. &#160;To serve as the necessary common frame of reference, this document describes the enhanced Internet Mail architecture, reflecting the current service. &#160;This memo provides information for the Internet community." target="_top">
<ellipse fill="none" stroke="black" cx="514.52" cy="-40.66" rx="112.08" ry="40.66"/>
<text xml:space="preserve" text-anchor="middle" x="514.52" y="-52.11" font-family="Times,serif" font-size="14.00">RFC5598</text>
<text xml:space="preserve" text-anchor="middle" x="514.52" y="-35.61" font-family="Times,serif" font-size="14.00">Internet Mail Architecture</text>
<text xml:space="preserve" text-anchor="middle" x="514.52" y="-19.11" font-family="Times,serif" font-size="14.00">2009</text>
</a>
</g>
</g>
<!-- RFC5598&#45;&gt;rev_cites -->
<g id="edge7" class="edge">
<title>RFC5598&#45;&gt;rev_cites</title>
<path fill="none" stroke="black" d="M520.77,-81.56C532.81,-160.35 558.94,-331.42 569.46,-400.23"/>
<polygon fill="black" stroke="black" points="565.97,-400.62 570.94,-409.98 572.89,-399.56 565.97,-400.62"/>
</g>
<!-- RFC8494 -->
<g id="node9" class="node">
<title>RFC8494</title>
<g id="a_node9"><a xlink:href="RFC8494.html" xlink:title="Allied Communications Publication (ACP) 142 defines P_MUL, which is a protocol for reliable multicast suitable for bandwidth&#45;constrained and delayed acknowledgement (Emissions Control or EMCON) environments running over UDP. This document defines MULE (Multicast Email), an application protocol for transferring Internet Mail messages (as described in RFC 5322) over P_MUL (as defined in ACP 142). MULE enables transfer between Message Transfer Agents (MTAs). It doesn&#39;t provide a service similar to SMTP Submission (as described in RFC 6409). This document explains how MULE can be used in conjunction with SMTP (RFC 5321), including some common SMTP extensions, to provide an alternate MTA&#45;to&#45;MTA transfer mechanism. This is not an IETF specification; it describes an existing implementation. It is provided in order to facilitate interoperable implementations and third&#45;party diagnostics." target="_top">
<ellipse fill="none" stroke="black" cx="966.55" cy="-401.14" rx="168.29" ry="52.33"/>
<text xml:space="preserve" text-anchor="middle" x="966.55" y="-420.84" font-family="Times,serif" font-size="14.00">RFC8494</text>
<text xml:space="preserve" text-anchor="middle" x="966.55" y="-404.34" font-family="Times,serif" font-size="14.00">Multicast Email (MULE) over Allied</text>
<text xml:space="preserve" text-anchor="middle" x="966.55" y="-387.84" font-family="Times,serif" font-size="14.00">Communications Publication (ACP) 142</text>
<text xml:space="preserve" text-anchor="middle" x="966.55" y="-371.34" font-family="Times,serif" font-size="14.00">2018</text>
</a>
</g>
</g>
<!-- RFC8494&#45;&gt;rev_cites -->
<g id="edge8" class="edge">
<title>RFC8494&#45;&gt;rev_cites</title>
<path fill="none" stroke="black" d="M802.34,-413.12C732.47,-418.21 657.03,-423.71 612.73,-426.94"/>
<polygon fill="black" stroke="black" points="612.58,-423.44 602.86,-427.66 613.09,-430.43 612.58,-423.44"/>
</g>
</g>
</svg>
