<?xml version="1.0" encoding="UTF-8" standalone="no"?>
<!DOCTYPE svg PUBLIC "-//W3C//DTD SVG 1.1//EN"
 "http://www.w3.org/Graphics/SVG/1.1/DTD/svg11.dtd">
<!-- Generated by graphviz version 14.1.1 (20251213.1925)
 -->
<!-- Title: Flow Pages: 1 -->
<svg width="1488pt" height="1024pt"
 viewBox="0.00 0.00 1488.00 1024.00" xmlns="http://www.w3.org/2000/svg" xmlns:xlink="http://www.w3.org/1999/xlink">
<g id="graph0" class="graph" transform="scale(1 1) rotate(0) translate(4 1019.96)">
<title>Flow</title>
<polygon fill="white" stroke="none" points="-4,4 -4,-1019.96 1484.44,-1019.96 1484.44,4 -4,4"/>
<!-- RFC2192 -->
<g id="node1" class="node">
<title>RFC2192</title>
<g id="a_node1"><a xlink:title="This document defines a URL scheme for referencing objects on an IMAP server. [STANDARDS&#45;TRACK]">
<ellipse fill="green" stroke="black" stroke-width="3" cx="736.44" cy="-682.75" rx="114.73" ry="50.2"/>
<text xml:space="preserve" text-anchor="middle" x="736.44" y="-697.15" font-family="Times,serif" font-size="18.00">RFC2192</text>
<text xml:space="preserve" text-anchor="middle" x="736.44" y="-676.15" font-family="Times,serif" font-size="18.00">IMAP URL Scheme</text>
<text xml:space="preserve" text-anchor="middle" x="736.44" y="-655.15" font-family="Times,serif" font-size="18.00">1997</text>
</a>
</g>
</g>
<!-- obs -->
<g id="node4" class="node">
<title>obs</title>
<polygon fill="lightblue" stroke="black" points="1060.86,-841.03 994.61,-841.03 994.61,-805.03 1060.86,-805.03 1060.86,-841.03"/>
<text xml:space="preserve" text-anchor="middle" x="1027.74" y="-817.98" font-family="Times,serif" font-size="14.00">obsoletes</text>
</g>
<!-- RFC2192&#45;&gt;obs -->
<g id="edge3" class="edge">
<title>RFC2192&#45;&gt;obs</title>
<path fill="none" stroke="black" d="M815.27,-720.71C869.55,-746.85 939.65,-780.61 984.16,-802.05"/>
<polygon fill="black" stroke="black" points="982.46,-805.11 992.99,-806.3 985.5,-798.81 982.46,-805.11"/>
</g>
<!-- updates -->
<g id="node5" class="node">
<title>updates</title>
<polygon fill="lightyellow" stroke="black" points="837.01,-1015.96 779.76,-1015.96 779.76,-979.96 837.01,-979.96 837.01,-1015.96"/>
<text xml:space="preserve" text-anchor="middle" x="808.38" y="-992.91" font-family="Times,serif" font-size="14.00">updates</text>
</g>
<!-- RFC2192&#45;&gt;updates -->
<g id="edge4" class="edge">
<title>RFC2192&#45;&gt;updates</title>
<path fill="none" stroke="black" d="M748.16,-734.1C763.37,-800.75 789.42,-914.88 801.66,-968.5"/>
<polygon fill="black" stroke="black" points="798.21,-969.13 803.85,-978.1 805.04,-967.58 798.21,-969.13"/>
</g>
<!-- cites -->
<g id="node7" class="node">
<title>cites</title>
<polygon fill="lightblue" stroke="black" points="561.85,-953.53 507.85,-953.53 507.85,-917.53 561.85,-917.53 561.85,-953.53"/>
<text xml:space="preserve" text-anchor="middle" x="534.85" y="-930.48" font-family="Times,serif" font-size="14.00">cites</text>
</g>
<!-- RFC2192&#45;&gt;cites -->
<g id="edge6" class="edge">
<title>RFC2192&#45;&gt;cites</title>
<path fill="none" stroke="black" d="M697.81,-731.19C655.83,-783.83 590.24,-866.08 556.5,-908.38"/>
<polygon fill="black" stroke="black" points="553.86,-906.08 550.36,-916.08 559.33,-910.45 553.86,-906.08"/>
</g>
<!-- obs_by -->
<g id="node2" class="node">
<title>obs_by</title>
<polygon fill="lightblue" stroke="black" points="446.25,-700.75 380,-700.75 380,-664.75 446.25,-664.75 446.25,-700.75"/>
<text xml:space="preserve" text-anchor="middle" x="413.12" y="-677.7" font-family="Times,serif" font-size="14.00">obsoletes</text>
</g>
<!-- obs_by&#45;&gt;RFC2192 -->
<g id="edge1" class="edge">
<title>obs_by&#45;&gt;RFC2192</title>
<path fill="none" stroke="black" d="M446.5,-682.75C484.85,-682.75 550.08,-682.75 608.96,-682.75"/>
<polygon fill="black" stroke="black" points="608.75,-686.25 618.75,-682.75 608.75,-679.25 608.75,-686.25"/>
</g>
<!-- RFC5092 -->
<g id="node3" class="node">
<title>RFC5092</title>
<g id="a_node3"><a xlink:href="RFC5092.html" xlink:title="IMAP (RFC 3501) is a rich protocol for accessing remote message stores. It provides an ideal mechanism for accessing public mailing list archives as well as private and shared message stores. This document defines a URL scheme for referencing objects on an IMAP server. This document obsoletes RFC 2192. It also updates RFC 4467. [STANDARDS&#45;TRACK]" target="_top">
<ellipse fill="none" stroke="black" cx="89.8" cy="-682.75" rx="89.8" ry="40.66"/>
<text xml:space="preserve" text-anchor="middle" x="89.8" y="-694.2" font-family="Times,serif" font-size="14.00">RFC5092</text>
<text xml:space="preserve" text-anchor="middle" x="89.8" y="-677.7" font-family="Times,serif" font-size="14.00">IMAP URL Scheme</text>
<text xml:space="preserve" text-anchor="middle" x="89.8" y="-661.2" font-family="Times,serif" font-size="14.00">2007</text>
</a>
</g>
</g>
<!-- RFC5092&#45;&gt;obs_by -->
<g id="edge2" class="edge">
<title>RFC5092&#45;&gt;obs_by</title>
<path fill="none" stroke="black" d="M179.86,-682.75C241.32,-682.75 320.07,-682.75 368.53,-682.75"/>
<polygon fill="black" stroke="black" points="368.37,-686.25 378.37,-682.75 368.37,-679.25 368.37,-686.25"/>
</g>
<!-- updated_by -->
<g id="node6" class="node">
<title>updated_by</title>
<polygon fill="lightyellow" stroke="black" points="563.48,-447.97 506.23,-447.97 506.23,-411.97 563.48,-411.97 563.48,-447.97"/>
<text xml:space="preserve" text-anchor="middle" x="534.85" y="-424.92" font-family="Times,serif" font-size="14.00">updates</text>
</g>
<!-- updated_by&#45;&gt;RFC2192 -->
<g id="edge5" class="edge">
<title>updated_by&#45;&gt;RFC2192</title>
<path fill="none" stroke="black" d="M549.35,-448.15C578.49,-484.68 645.23,-568.37 690.59,-625.25"/>
<polygon fill="black" stroke="black" points="687.76,-627.32 696.73,-632.96 693.23,-622.96 687.76,-627.32"/>
</g>
<!-- rev_cites -->
<g id="node8" class="node">
<title>rev_cites</title>
<polygon fill="lightblue" stroke="black" points="965.02,-447.97 911.02,-447.97 911.02,-411.97 965.02,-411.97 965.02,-447.97"/>
<text xml:space="preserve" text-anchor="middle" x="938.02" y="-424.92" font-family="Times,serif" font-size="14.00">cites</text>
</g>
<!-- rev_cites&#45;&gt;RFC2192 -->
<g id="edge7" class="edge">
<title>rev_cites&#45;&gt;RFC2192</title>
<path fill="none" stroke="black" d="M923.53,-448.15C894.39,-484.68 827.65,-568.37 782.29,-625.25"/>
<polygon fill="black" stroke="black" points="779.64,-622.96 776.15,-632.96 785.12,-627.32 779.64,-622.96"/>
</g>
<!-- RFC3987 -->
<g id="node9" class="node">
<title>RFC3987</title>
<g id="a_node9"><a xlink:href="RFC3987.html" xlink:title="This document defines a new protocol element, the Internationalized Resource Identifier (IRI), as a complement of the Uniform Resource Identifier (URI). An IRI is a sequence of characters from the Universal Character Set (Unicode/ISO 10646). A mapping from IRIs to URIs is defined, which means that IRIs can be used instead of URIs, where appropriate, to identify resources. The approach of defining a new protocol element was chosen instead of extending or changing the definition of URIs. This was done in order to allow a clear distinction and to avoid incompatibilities with existing software. Guidelines are provided for the use and deployment of IRIs in various protocols, formats, and software components that currently deal with URIs." target="_top">
<ellipse fill="none" stroke="black" cx="880.33" cy="-52.33" rx="156.09" ry="52.33"/>
<text xml:space="preserve" text-anchor="middle" x="880.33" y="-72.03" font-family="Times,serif" font-size="14.00">RFC3987</text>
<text xml:space="preserve" text-anchor="middle" x="880.33" y="-55.53" font-family="Times,serif" font-size="14.00">Internationalized Resource Identifiers</text>
<text xml:space="preserve" text-anchor="middle" x="880.33" y="-39.03" font-family="Times,serif" font-size="14.00">(IRIs)</text>
<text xml:space="preserve" text-anchor="middle" x="880.33" y="-22.53" font-family="Times,serif" font-size="14.00">2005</text>
</a>
</g>
</g>
<!-- RFC3987&#45;&gt;rev_cites -->
<g id="edge8" class="edge">
<title>RFC3987&#45;&gt;rev_cites</title>
<path fill="none" stroke="black" d="M888.35,-104.84C900.66,-185.37 923.78,-336.76 933.52,-400.49"/>
<polygon fill="black" stroke="black" points="930.03,-400.83 935,-410.19 936.95,-399.77 930.03,-400.83"/>
</g>
<!-- RFC4468 -->
<g id="node10" class="node">
<title>RFC4468</title>
<g id="a_node10"><a xlink:href="RFC4468.html" xlink:title="The submission profile of Simple Mail Transfer Protocol (SMTP) provides a standard way for an email client to submit a complete message for delivery. &#160;This specification extends the submission profile by adding a new BURL command that can be used to fetch submission data from an Internet Message Access Protocol (IMAP) server. &#160;This permits a mail client to inject content from an IMAP server into the SMTP infrastructure without downloading it to the client and uploading it back to the server. [STANDARDS&#45;TRACK]" target="_top">
<ellipse fill="none" stroke="black" cx="1319.04" cy="-402.18" rx="161.4" ry="40.66"/>
<text xml:space="preserve" text-anchor="middle" x="1319.04" y="-413.63" font-family="Times,serif" font-size="14.00">RFC4468</text>
<text xml:space="preserve" text-anchor="middle" x="1319.04" y="-397.13" font-family="Times,serif" font-size="14.00">Message Submission BURL Extension</text>
<text xml:space="preserve" text-anchor="middle" x="1319.04" y="-380.63" font-family="Times,serif" font-size="14.00">2006</text>
</a>
</g>
</g>
<!-- RFC4468&#45;&gt;rev_cites -->
<g id="edge9" class="edge">
<title>RFC4468&#45;&gt;rev_cites</title>
<path fill="none" stroke="black" d="M1163.52,-413.53C1095.09,-418.52 1020.44,-423.96 976.5,-427.16"/>
<polygon fill="black" stroke="black" points="976.45,-423.66 966.73,-427.88 976.96,-430.64 976.45,-423.66"/>
</g>
</g>
</svg>
