<?xml version="1.0" encoding="UTF-8" standalone="no"?>
<!DOCTYPE svg PUBLIC "-//W3C//DTD SVG 1.1//EN"
 "http://www.w3.org/Graphics/SVG/1.1/DTD/svg11.dtd">
<!-- Generated by graphviz version 14.1.1 (20251213.1925)
 -->
<!-- Title: Flow Pages: 1 -->
<svg width="1212pt" height="335pt"
 viewBox="0.00 0.00 1212.00 335.00" xmlns="http://www.w3.org/2000/svg" xmlns:xlink="http://www.w3.org/1999/xlink">
<g id="graph0" class="graph" transform="scale(1 1) rotate(0) translate(4 330.65)">
<title>Flow</title>
<polygon fill="white" stroke="none" points="-4,4 -4,-330.65 1208.06,-330.65 1208.06,4 -4,4"/>
<!-- RFC2553 -->
<g id="node1" class="node">
<title>RFC2553</title>
<g id="a_node1"><a xlink:title="TCP/IP applications written using the sockets API have in the past enjoyed a high degree of portability and we would like the same portability with IPv6 applications. &#160;But changes are required to the sockets API to support IPv6 and this memo describes these changes. &#160;These include a new socket address structure to carry IPv6 addresses, new address conversion functions, and some new socket options. &#160;This memo provides information for the Internet community.">
<ellipse fill="none" stroke="black" cx="619.53" cy="-177.33" rx="156.09" ry="52.33"/>
<text xml:space="preserve" text-anchor="middle" x="619.53" y="-197.03" font-family="Times,serif" font-size="14.00">RFC2553</text>
<text xml:space="preserve" text-anchor="middle" x="619.53" y="-180.53" font-family="Times,serif" font-size="14.00">Basic Socket Interface Extensions for</text>
<text xml:space="preserve" text-anchor="middle" x="619.53" y="-164.03" font-family="Times,serif" font-size="14.00">IPv6</text>
<text xml:space="preserve" text-anchor="middle" x="619.53" y="-147.53" font-family="Times,serif" font-size="14.00">1999</text>
</a>
</g>
</g>
<!-- obs -->
<g id="node4" class="node">
<title>obs</title>
<polygon fill="none" stroke="black" points="866.88,-249.33 800.63,-249.33 800.63,-213.33 866.88,-213.33 866.88,-249.33"/>
<text xml:space="preserve" text-anchor="middle" x="833.75" y="-226.28" font-family="Times,serif" font-size="14.00">obsoletes</text>
</g>
<!-- RFC2553&#45;&gt;obs -->
<g id="edge3" class="edge">
<title>RFC2553&#45;&gt;obs</title>
<path fill="none" stroke="black" d="M744.9,-208.97C760.72,-213 775.97,-216.88 789.21,-220.25"/>
<polygon fill="black" stroke="black" points="788.26,-223.62 798.81,-222.69 789.98,-216.83 788.26,-223.62"/>
</g>
<!-- updates -->
<g id="node6" class="node">
<title>updates</title>
<polygon fill="none" stroke="black" points="862.38,-195.33 805.13,-195.33 805.13,-159.33 862.38,-159.33 862.38,-195.33"/>
<text xml:space="preserve" text-anchor="middle" x="833.75" y="-172.28" font-family="Times,serif" font-size="14.00">updates</text>
</g>
<!-- RFC2553&#45;&gt;updates -->
<g id="edge5" class="edge">
<title>RFC2553&#45;&gt;updates</title>
<path fill="none" stroke="black" d="M775.88,-177.33C782.09,-177.33 788.02,-177.33 793.53,-177.33"/>
<polygon fill="black" stroke="black" points="793.4,-180.83 803.4,-177.33 793.4,-173.83 793.4,-180.83"/>
</g>
<!-- cites -->
<g id="node9" class="node">
<title>cites</title>
<polygon fill="none" stroke="black" points="860.75,-141.33 806.75,-141.33 806.75,-105.33 860.75,-105.33 860.75,-141.33"/>
<text xml:space="preserve" text-anchor="middle" x="833.75" y="-118.28" font-family="Times,serif" font-size="14.00">cites</text>
</g>
<!-- RFC2553&#45;&gt;cites -->
<g id="edge8" class="edge">
<title>RFC2553&#45;&gt;cites</title>
<path fill="none" stroke="black" d="M744.9,-145.68C763.32,-140.99 780.98,-136.5 795.57,-132.79"/>
<polygon fill="black" stroke="black" points="796.28,-136.22 805.11,-130.36 794.55,-129.43 796.28,-136.22"/>
</g>
<!-- obs_by -->
<g id="node2" class="node">
<title>obs_by</title>
<polygon fill="none" stroke="black" points="438.44,-277.33 372.19,-277.33 372.19,-241.33 438.44,-241.33 438.44,-277.33"/>
<text xml:space="preserve" text-anchor="middle" x="405.31" y="-254.28" font-family="Times,serif" font-size="14.00">obsoletes</text>
</g>
<!-- obs_by&#45;&gt;RFC2553 -->
<g id="edge1" class="edge">
<title>obs_by&#45;&gt;RFC2553</title>
<path fill="none" stroke="black" d="M438.55,-246.87C456.91,-239.78 481.13,-230.42 505.84,-220.87"/>
<polygon fill="black" stroke="black" points="506.96,-224.19 515.03,-217.32 504.44,-217.66 506.96,-224.19"/>
</g>
<!-- RFC3493 -->
<g id="node3" class="node">
<title>RFC3493</title>
<g id="a_node3"><a xlink:href="RFC3493.html" xlink:title="The de facto standard Application Program Interface (API) for TCP/IP applications is the sockets interface. &#160;Although this API was developed for Unix in the early 1980s it has also been implemented on a wide variety of non&#45;Unix systems. &#160;TCP/IP applications written using the sockets API have in the past enjoyed a high degree of portability and we would like the same portability with IPv6 applications. &#160;But changes are required to the sockets API to support IPv6 and this memo describes these changes. &#160;These include a new socket address structure to carry IPv6 addresses, new address conversion functions, and some new socket options. &#160;These extensions are designed to provide access to the basic IPv6 features required by TCP and UDP applications, including multicasting, while introducing a minimum of change into the system and providing complete compatibility for existing IPv4 applications. &#160;Additional extensions for advanced IPv6 features (raw sockets and access to the IPv6 extension headers) are defined in another document. &#160;This memo provides information for the Internet community." target="_top">
<ellipse fill="none" stroke="black" cx="173.59" cy="-274.33" rx="156.09" ry="52.33"/>
<text xml:space="preserve" text-anchor="middle" x="173.59" y="-294.03" font-family="Times,serif" font-size="14.00">RFC3493</text>
<text xml:space="preserve" text-anchor="middle" x="173.59" y="-277.53" font-family="Times,serif" font-size="14.00">Basic Socket Interface Extensions for</text>
<text xml:space="preserve" text-anchor="middle" x="173.59" y="-261.03" font-family="Times,serif" font-size="14.00">IPv6</text>
<text xml:space="preserve" text-anchor="middle" x="173.59" y="-244.53" font-family="Times,serif" font-size="14.00">2003</text>
</a>
</g>
</g>
<!-- RFC3493&#45;&gt;obs_by -->
<g id="edge2" class="edge">
<title>RFC3493&#45;&gt;obs_by</title>
<path fill="none" stroke="black" d="M327.18,-264.36C339.09,-263.58 350.4,-262.85 360.5,-262.19"/>
<polygon fill="black" stroke="black" points="360.5,-265.69 370.25,-261.55 360.04,-258.71 360.5,-265.69"/>
</g>
<!-- RFC2133 -->
<g id="node5" class="node">
<title>RFC2133</title>
<g id="a_node5"><a xlink:href="RFC2133.html" xlink:title="This memo defines a set of extensions to the socket interface to support the larger address size and new features of IPv6. &#160;This memo provides information for the Internet community. &#160;This memo does not specify an Internet standard of any kind." target="_top">
<ellipse fill="none" stroke="black" cx="1047.97" cy="-231.33" rx="156.09" ry="52.33"/>
<text xml:space="preserve" text-anchor="middle" x="1047.97" y="-251.03" font-family="Times,serif" font-size="14.00">RFC2133</text>
<text xml:space="preserve" text-anchor="middle" x="1047.97" y="-234.53" font-family="Times,serif" font-size="14.00">Basic Socket Interface Extensions for</text>
<text xml:space="preserve" text-anchor="middle" x="1047.97" y="-218.03" font-family="Times,serif" font-size="14.00">IPv6</text>
<text xml:space="preserve" text-anchor="middle" x="1047.97" y="-201.53" font-family="Times,serif" font-size="14.00">1997</text>
</a>
</g>
</g>
<!-- obs&#45;&gt;RFC2133 -->
<g id="edge4" class="edge">
<title>obs&#45;&gt;RFC2133</title>
<path fill="none" stroke="black" d="M866.98,-231.33C871.16,-231.33 875.63,-231.33 880.35,-231.33"/>
<polygon fill="black" stroke="black" points="880.25,-234.83 890.25,-231.33 880.25,-227.83 880.25,-234.83"/>
</g>
<!-- updated_by -->
<g id="node7" class="node">
<title>updated_by</title>
<polygon fill="none" stroke="black" points="433.94,-195.33 376.69,-195.33 376.69,-159.33 433.94,-159.33 433.94,-195.33"/>
<text xml:space="preserve" text-anchor="middle" x="405.31" y="-172.28" font-family="Times,serif" font-size="14.00">updates</text>
</g>
<!-- updated_by&#45;&gt;RFC2553 -->
<g id="edge6" class="edge">
<title>updated_by&#45;&gt;RFC2553</title>
<path fill="none" stroke="black" d="M434.06,-177.33C439.46,-177.33 445.47,-177.33 451.92,-177.33"/>
<polygon fill="black" stroke="black" points="451.68,-180.83 461.68,-177.33 451.68,-173.83 451.68,-180.83"/>
</g>
<!-- RFC3152 -->
<g id="node8" class="node">
<title>RFC3152</title>
<g id="a_node8"><a xlink:href="RFC3152.html" xlink:title="This document discusses the need for delegation of the IP6.ARPA DNS zone, and specifies a plan for the technical operation thereof. &#160;This document specifies an Internet Best Current Practices for the Internet Community, and requests discussion and suggestions for improvements." target="_top">
<ellipse fill="none" stroke="black" cx="173.59" cy="-163.33" rx="107.83" ry="40.66"/>
<text xml:space="preserve" text-anchor="middle" x="173.59" y="-174.78" font-family="Times,serif" font-size="14.00">RFC3152</text>
<text xml:space="preserve" text-anchor="middle" x="173.59" y="-158.28" font-family="Times,serif" font-size="14.00">Delegation of IP6.ARPA</text>
<text xml:space="preserve" text-anchor="middle" x="173.59" y="-141.78" font-family="Times,serif" font-size="14.00">2001</text>
</a>
</g>
</g>
<!-- RFC3152&#45;&gt;updated_by -->
<g id="edge7" class="edge">
<title>RFC3152&#45;&gt;updated_by</title>
<path fill="none" stroke="black" d="M280.38,-169.77C310.6,-171.61 341.66,-173.51 365.13,-174.94"/>
<polygon fill="black" stroke="black" points="364.63,-178.41 374.82,-175.53 365.06,-171.43 364.63,-178.41"/>
</g>
<!-- rev_cites -->
<g id="node10" class="node">
<title>rev_cites</title>
<polygon fill="none" stroke="black" points="432.31,-141.33 378.31,-141.33 378.31,-105.33 432.31,-105.33 432.31,-141.33"/>
<text xml:space="preserve" text-anchor="middle" x="405.31" y="-118.28" font-family="Times,serif" font-size="14.00">cites</text>
</g>
<!-- RFC3152&#45;&gt;rev_cites -->
<g id="edge10" class="edge">
<title>RFC3152&#45;&gt;rev_cites</title>
<path fill="none" stroke="black" d="M272.02,-146.36C305.53,-140.53 341.06,-134.34 366.86,-129.85"/>
<polygon fill="black" stroke="black" points="367.24,-133.33 376.49,-128.17 366.04,-126.44 367.24,-133.33"/>
</g>
<!-- rev_cites&#45;&gt;RFC2553 -->
<g id="edge9" class="edge">
<title>rev_cites&#45;&gt;RFC2553</title>
<path fill="none" stroke="black" d="M432.76,-130.06C446.39,-133.52 464.14,-138.04 483.26,-142.91"/>
<polygon fill="black" stroke="black" points="482.31,-146.28 492.87,-145.35 484.04,-139.49 482.31,-146.28"/>
</g>
<!-- RFC4001 -->
<g id="node11" class="node">
<title>RFC4001</title>
<g id="a_node11"><a xlink:href="RFC4001.html" xlink:title="This MIB module defines textual conventions to represent commonly used Internet network layer addressing information. &#160;The intent is that these textual conventions will be imported and used in MIB modules that would otherwise define their own representations. [STANDARDS&#45;TRACK]" target="_top">
<ellipse fill="none" stroke="black" cx="173.59" cy="-52.33" rx="173.59" ry="52.33"/>
<text xml:space="preserve" text-anchor="middle" x="173.59" y="-72.03" font-family="Times,serif" font-size="14.00">RFC4001</text>
<text xml:space="preserve" text-anchor="middle" x="173.59" y="-55.53" font-family="Times,serif" font-size="14.00">Textual Conventions for Internet Network</text>
<text xml:space="preserve" text-anchor="middle" x="173.59" y="-39.03" font-family="Times,serif" font-size="14.00">Addresses</text>
<text xml:space="preserve" text-anchor="middle" x="173.59" y="-22.53" font-family="Times,serif" font-size="14.00">2005</text>
</a>
</g>
</g>
<!-- RFC4001&#45;&gt;rev_cites -->
<g id="edge11" class="edge">
<title>RFC4001&#45;&gt;rev_cites</title>
<path fill="none" stroke="black" d="M295.85,-89.8C321.81,-97.83 347.34,-105.72 367.1,-111.83"/>
<polygon fill="black" stroke="black" points="366,-115.15 376.59,-114.76 368.07,-108.46 366,-115.15"/>
</g>
</g>
</svg>
