<?xml version="1.0" encoding="UTF-8" standalone="no"?>
<!DOCTYPE svg PUBLIC "-//W3C//DTD SVG 1.1//EN"
 "http://www.w3.org/Graphics/SVG/1.1/DTD/svg11.dtd">
<!-- Generated by graphviz version 14.1.1 (20251213.1925)
 -->
<!-- Title: Flow Pages: 1 -->
<svg width="867pt" height="335pt"
 viewBox="0.00 0.00 867.00 335.00" xmlns="http://www.w3.org/2000/svg" xmlns:xlink="http://www.w3.org/1999/xlink">
<g id="graph0" class="graph" transform="scale(1 1) rotate(0) translate(4 330.65)">
<title>Flow</title>
<polygon fill="white" stroke="none" points="-4,4 -4,-330.65 863.45,-330.65 863.45,4 -4,4"/>
<!-- RFC2610 -->
<g id="node1" class="node">
<title>RFC2610</title>
<g id="a_node1"><a xlink:title="The Dynamic Host Configuration Protocol provides a framework for passing configuration information to hosts on a TCP/IP network. &#160;Entities using the Service Location Protocol need to find out the address of Directory Agents in order to transact messages. &#160;Another option provides an assignment of scope for configuration of SLP User and Service Agents. [STANDARDS&#45;TRACK]">
<ellipse fill="none" stroke="black" cx="617.41" cy="-217.33" rx="150.79" ry="52.33"/>
<text xml:space="preserve" text-anchor="middle" x="617.41" y="-237.03" font-family="Times,serif" font-size="14.00">RFC2610</text>
<text xml:space="preserve" text-anchor="middle" x="617.41" y="-220.53" font-family="Times,serif" font-size="14.00">DHCP Options for Service Location</text>
<text xml:space="preserve" text-anchor="middle" x="617.41" y="-204.03" font-family="Times,serif" font-size="14.00">Protocol</text>
<text xml:space="preserve" text-anchor="middle" x="617.41" y="-187.53" font-family="Times,serif" font-size="14.00">1999</text>
</a>
</g>
</g>
<!-- obs -->
<g id="node3" class="node">
<title>obs</title>
<polygon fill="none" stroke="black" points="859.45,-289.33 793.2,-289.33 793.2,-253.33 859.45,-253.33 859.45,-289.33"/>
<text xml:space="preserve" text-anchor="middle" x="826.33" y="-266.28" font-family="Times,serif" font-size="14.00">obsoletes</text>
</g>
<!-- RFC2610&#45;&gt;obs -->
<g id="edge2" class="edge">
<title>RFC2610&#45;&gt;obs</title>
<path fill="none" stroke="black" d="M738.78,-248.74C754.18,-252.76 769.07,-256.64 782.03,-260.03"/>
<polygon fill="black" stroke="black" points="780.86,-263.34 791.42,-262.48 782.63,-256.56 780.86,-263.34"/>
</g>
<!-- updates -->
<g id="node4" class="node">
<title>updates</title>
<polygon fill="none" stroke="black" points="854.95,-235.33 797.7,-235.33 797.7,-199.33 854.95,-199.33 854.95,-235.33"/>
<text xml:space="preserve" text-anchor="middle" x="826.33" y="-212.28" font-family="Times,serif" font-size="14.00">updates</text>
</g>
<!-- RFC2610&#45;&gt;updates -->
<g id="edge3" class="edge">
<title>RFC2610&#45;&gt;updates</title>
<path fill="none" stroke="black" d="M768.51,-217.33C774.7,-217.33 780.6,-217.33 786.11,-217.33"/>
<polygon fill="black" stroke="black" points="785.95,-220.83 795.95,-217.33 785.95,-213.83 785.95,-220.83"/>
</g>
<!-- cites -->
<g id="node6" class="node">
<title>cites</title>
<polygon fill="none" stroke="black" points="853.33,-181.33 799.33,-181.33 799.33,-145.33 853.33,-145.33 853.33,-181.33"/>
<text xml:space="preserve" text-anchor="middle" x="826.33" y="-158.28" font-family="Times,serif" font-size="14.00">cites</text>
</g>
<!-- RFC2610&#45;&gt;cites -->
<g id="edge5" class="edge">
<title>RFC2610&#45;&gt;cites</title>
<path fill="none" stroke="black" d="M738.78,-185.91C756.73,-181.23 774,-176.72 788.31,-172.99"/>
<polygon fill="black" stroke="black" points="788.86,-176.46 797.66,-170.55 787.1,-169.69 788.86,-176.46"/>
</g>
<!-- obs_by -->
<g id="node2" class="node">
<title>obs_by</title>
<polygon fill="none" stroke="black" points="441.62,-289.33 375.37,-289.33 375.37,-253.33 441.62,-253.33 441.62,-289.33"/>
<text xml:space="preserve" text-anchor="middle" x="408.5" y="-266.28" font-family="Times,serif" font-size="14.00">obsoletes</text>
</g>
<!-- obs_by&#45;&gt;RFC2610 -->
<g id="edge1" class="edge">
<title>obs_by&#45;&gt;RFC2610</title>
<path fill="none" stroke="black" d="M441.83,-262.89C454.11,-259.68 468.98,-255.8 484.81,-251.67"/>
<polygon fill="black" stroke="black" points="485.64,-255.07 494.43,-249.16 483.87,-248.3 485.64,-255.07"/>
</g>
<!-- updated_by -->
<g id="node5" class="node">
<title>updated_by</title>
<polygon fill="none" stroke="black" points="437.12,-235.33 379.87,-235.33 379.87,-199.33 437.12,-199.33 437.12,-235.33"/>
<text xml:space="preserve" text-anchor="middle" x="408.5" y="-212.28" font-family="Times,serif" font-size="14.00">updates</text>
</g>
<!-- updated_by&#45;&gt;RFC2610 -->
<g id="edge4" class="edge">
<title>updated_by&#45;&gt;RFC2610</title>
<path fill="none" stroke="black" d="M437.4,-217.33C442.77,-217.33 448.74,-217.33 455.14,-217.33"/>
<polygon fill="black" stroke="black" points="454.79,-220.83 464.79,-217.33 454.79,-213.83 454.79,-220.83"/>
</g>
<!-- rev_cites -->
<g id="node7" class="node">
<title>rev_cites</title>
<polygon fill="none" stroke="black" points="435.5,-181.33 381.5,-181.33 381.5,-145.33 435.5,-145.33 435.5,-181.33"/>
<text xml:space="preserve" text-anchor="middle" x="408.5" y="-158.28" font-family="Times,serif" font-size="14.00">cites</text>
</g>
<!-- rev_cites&#45;&gt;RFC2610 -->
<g id="edge6" class="edge">
<title>rev_cites&#45;&gt;RFC2610</title>
<path fill="none" stroke="black" d="M435.7,-170.17C449.07,-173.65 466.42,-178.18 485.09,-183.05"/>
<polygon fill="black" stroke="black" points="484.19,-186.44 494.75,-185.57 485.95,-179.66 484.19,-186.44"/>
</g>
<!-- RFC3528 -->
<g id="node8" class="node">
<title>RFC3528</title>
<g id="a_node8"><a xlink:href="RFC3528.html" xlink:title="This document describes the Mesh&#45;enhanced Service Location Protocol (mSLP). &#160;mSLP enhances the Service Location Protocol (SLP) with a scope&#45;based fully&#45;meshed peering Directory Agent (DA) architecture. &#160;Peer DAs exchange new service registrations in shared scopes via anti&#45; entropy and direct forwarding. &#160;mSLP improves the reliability and consistency of SLP DA services, and simplifies Service Agent (SA) registrations in systems with multiple DAs. &#160;mSLP is backward compatible with SLPv2 and can be deployed incrementally. &#160;This memo defines an Experimental Protocol for the Internet community." target="_top">
<ellipse fill="none" stroke="black" cx="175.19" cy="-274.33" rx="175.19" ry="52.33"/>
<text xml:space="preserve" text-anchor="middle" x="175.19" y="-294.03" font-family="Times,serif" font-size="14.00">RFC3528</text>
<text xml:space="preserve" text-anchor="middle" x="175.19" y="-277.53" font-family="Times,serif" font-size="14.00">Mesh&#45;enhanced Service Location Protocol</text>
<text xml:space="preserve" text-anchor="middle" x="175.19" y="-261.03" font-family="Times,serif" font-size="14.00">(mSLP)</text>
<text xml:space="preserve" text-anchor="middle" x="175.19" y="-244.53" font-family="Times,serif" font-size="14.00">2003</text>
</a>
</g>
</g>
<!-- RFC3528&#45;&gt;rev_cites -->
<g id="edge7" class="edge">
<title>RFC3528&#45;&gt;rev_cites</title>
<path fill="none" stroke="black" d="M300.84,-237.71C317.99,-230.67 334.98,-222.56 350.37,-213.33 363.32,-205.56 364.03,-200.3 375.37,-190.33 375.77,-189.98 376.17,-189.63 376.57,-189.27"/>
<polygon fill="black" stroke="black" points="378.82,-191.95 384.12,-182.78 374.26,-186.65 378.82,-191.95"/>
</g>
<!-- RFC5887 -->
<g id="node9" class="node">
<title>RFC5887</title>
<g id="a_node9"><a xlink:href="RFC5887.html" xlink:title="This document reviews the existing mechanisms for site renumbering for both IPv4 and IPv6, and it identifies operational issues with those mechanisms. &#160;It also summarises current technical proposals for additional mechanisms. &#160;Finally, there is a gap analysis identifying possible areas for future work. &#160;This document is not an Internet Standards Track specification; it is published for informational purposes." target="_top">
<ellipse fill="none" stroke="black" cx="175.19" cy="-163.33" rx="132.76" ry="40.66"/>
<text xml:space="preserve" text-anchor="middle" x="175.19" y="-174.78" font-family="Times,serif" font-size="14.00">RFC5887</text>
<text xml:space="preserve" text-anchor="middle" x="175.19" y="-158.28" font-family="Times,serif" font-size="14.00">Renumbering Still Needs Work</text>
<text xml:space="preserve" text-anchor="middle" x="175.19" y="-141.78" font-family="Times,serif" font-size="14.00">2010</text>
</a>
</g>
</g>
<!-- RFC5887&#45;&gt;rev_cites -->
<g id="edge8" class="edge">
<title>RFC5887&#45;&gt;rev_cites</title>
<path fill="none" stroke="black" d="M308.39,-163.33C330.81,-163.33 352.39,-163.33 369.65,-163.33"/>
<polygon fill="black" stroke="black" points="369.62,-166.83 379.62,-163.33 369.62,-159.83 369.62,-166.83"/>
</g>
<!-- RFC6632 -->
<g id="node10" class="node">
<title>RFC6632</title>
<g id="a_node10"><a xlink:href="RFC6632.html" xlink:title="This document gives an overview of the IETF network management standards and summarizes existing and ongoing development of IETF Standards Track network management protocols and data models. &#160;The document refers to other overview documents, where they exist and classifies the standards for easy orientation. &#160;The purpose of this document is, on the one hand, to help system developers and users to select appropriate standard management protocols and data models to address relevant management needs. &#160;On the other hand, the document can be used as an overview and guideline by other Standard Development Organizations or bodies planning to use IETF management technologies and data models. &#160;This document does not cover Operations, Administration, and Maintenance (OAM) technologies on the data&#45;path, e.g., OAM of tunnels, MPLS Transport Profile (MPLS&#45;TP) OAM, and pseudowire as well as the corresponding management models. &#160;This document is not an Internet Standards Track specification; it is published for informational purposes." target="_top">
<ellipse fill="none" stroke="black" cx="175.19" cy="-52.33" rx="147.08" ry="52.33"/>
<text xml:space="preserve" text-anchor="middle" x="175.19" y="-72.03" font-family="Times,serif" font-size="14.00">RFC6632</text>
<text xml:space="preserve" text-anchor="middle" x="175.19" y="-55.53" font-family="Times,serif" font-size="14.00">An Overview of the IETF Network</text>
<text xml:space="preserve" text-anchor="middle" x="175.19" y="-39.03" font-family="Times,serif" font-size="14.00">Management Standards</text>
<text xml:space="preserve" text-anchor="middle" x="175.19" y="-22.53" font-family="Times,serif" font-size="14.00">2012</text>
</a>
</g>
</g>
<!-- RFC6632&#45;&gt;rev_cites -->
<g id="edge9" class="edge">
<title>RFC6632&#45;&gt;rev_cites</title>
<path fill="none" stroke="black" d="M290.04,-85.12C310.75,-93.04 331.69,-102.43 350.37,-113.33 361.7,-119.93 372.86,-128.96 382.26,-137.53"/>
<polygon fill="black" stroke="black" points="379.59,-139.82 389.26,-144.14 384.4,-134.73 379.59,-139.82"/>
</g>
</g>
</svg>
