<?xml version="1.0" encoding="UTF-8" standalone="no"?>
<!DOCTYPE svg PUBLIC "-//W3C//DTD SVG 1.1//EN"
 "http://www.w3.org/Graphics/SVG/1.1/DTD/svg11.dtd">
<!-- Generated by graphviz version 14.1.1 (20251213.1925)
 -->
<!-- Title: Flow Pages: 1 -->
<svg width="831pt" height="941pt"
 viewBox="0.00 0.00 831.00 941.00" xmlns="http://www.w3.org/2000/svg" xmlns:xlink="http://www.w3.org/1999/xlink">
<g id="graph0" class="graph" transform="scale(1 1) rotate(0) translate(4 936.98)">
<title>Flow</title>
<polygon fill="white" stroke="none" points="-4,4 -4,-936.98 827.39,-936.98 827.39,4 -4,4"/>
<!-- RFC2725 -->
<g id="node1" class="node">
<title>RFC2725</title>
<g id="a_node1"><a xlink:title="The implementation and deployment of a routing policy system must maintain some degree of integrity to be of any operational use. &#160;This document addresses the need to assure integrity of the data by providing an authentication and authorization model. [STANDARDS&#45;TRACK]">
<ellipse fill="none" stroke="black" cx="597.26" cy="-688.66" rx="134.88" ry="40.66"/>
<text xml:space="preserve" text-anchor="middle" x="597.26" y="-700.11" font-family="Times,serif" font-size="14.00">RFC2725</text>
<text xml:space="preserve" text-anchor="middle" x="597.26" y="-683.61" font-family="Times,serif" font-size="14.00">Routing Policy System Security</text>
<text xml:space="preserve" text-anchor="middle" x="597.26" y="-667.11" font-family="Times,serif" font-size="14.00">1999</text>
</a>
</g>
</g>
<!-- obs -->
<g id="node3" class="node">
<title>obs</title>
<polygon fill="none" stroke="black" points="823.39,-760.66 757.14,-760.66 757.14,-724.66 823.39,-724.66 823.39,-760.66"/>
<text xml:space="preserve" text-anchor="middle" x="790.27" y="-737.61" font-family="Times,serif" font-size="14.00">obsoletes</text>
</g>
<!-- RFC2725&#45;&gt;obs -->
<g id="edge2" class="edge">
<title>RFC2725&#45;&gt;obs</title>
<path fill="none" stroke="black" d="M696.84,-716.53C714.14,-721.42 731.31,-726.27 746.06,-730.44"/>
<polygon fill="black" stroke="black" points="744.81,-733.73 755.38,-733.08 746.71,-726.99 744.81,-733.73"/>
</g>
<!-- updates -->
<g id="node4" class="node">
<title>updates</title>
<polygon fill="none" stroke="black" points="818.89,-706.66 761.64,-706.66 761.64,-670.66 818.89,-670.66 818.89,-706.66"/>
<text xml:space="preserve" text-anchor="middle" x="790.27" y="-683.61" font-family="Times,serif" font-size="14.00">updates</text>
</g>
<!-- RFC2725&#45;&gt;updates -->
<g id="edge3" class="edge">
<title>RFC2725&#45;&gt;updates</title>
<path fill="none" stroke="black" d="M732.47,-688.66C738.59,-688.66 744.45,-688.66 749.93,-688.66"/>
<polygon fill="black" stroke="black" points="749.74,-692.16 759.74,-688.66 749.74,-685.16 749.74,-692.16"/>
</g>
<!-- cites -->
<g id="node7" class="node">
<title>cites</title>
<polygon fill="none" stroke="black" points="817.27,-652.66 763.27,-652.66 763.27,-616.66 817.27,-616.66 817.27,-652.66"/>
<text xml:space="preserve" text-anchor="middle" x="790.27" y="-629.61" font-family="Times,serif" font-size="14.00">cites</text>
</g>
<!-- RFC2725&#45;&gt;cites -->
<g id="edge6" class="edge">
<title>RFC2725&#45;&gt;cites</title>
<path fill="none" stroke="black" d="M696.84,-660.79C716.51,-655.23 736.01,-649.71 751.99,-645.2"/>
<polygon fill="black" stroke="black" points="752.83,-648.6 761.5,-642.51 750.92,-641.86 752.83,-648.6"/>
</g>
<!-- obs_by -->
<g id="node2" class="node">
<title>obs_by</title>
<polygon fill="none" stroke="black" points="437.38,-760.66 371.13,-760.66 371.13,-724.66 437.38,-724.66 437.38,-760.66"/>
<text xml:space="preserve" text-anchor="middle" x="404.25" y="-737.61" font-family="Times,serif" font-size="14.00">obsoletes</text>
</g>
<!-- obs_by&#45;&gt;RFC2725 -->
<g id="edge1" class="edge">
<title>obs_by&#45;&gt;RFC2725</title>
<path fill="none" stroke="black" d="M437.66,-733.5C451.65,-729.54 468.91,-724.66 486.84,-719.59"/>
<polygon fill="black" stroke="black" points="487.64,-723.01 496.31,-716.92 485.73,-716.27 487.64,-723.01"/>
</g>
<!-- updated_by -->
<g id="node5" class="node">
<title>updated_by</title>
<polygon fill="none" stroke="black" points="432.88,-706.66 375.63,-706.66 375.63,-670.66 432.88,-670.66 432.88,-706.66"/>
<text xml:space="preserve" text-anchor="middle" x="404.25" y="-683.61" font-family="Times,serif" font-size="14.00">updates</text>
</g>
<!-- updated_by&#45;&gt;RFC2725 -->
<g id="edge4" class="edge">
<title>updated_by&#45;&gt;RFC2725</title>
<path fill="none" stroke="black" d="M433.03,-688.66C438.46,-688.66 444.5,-688.66 450.96,-688.66"/>
<polygon fill="black" stroke="black" points="450.69,-692.16 460.69,-688.66 450.69,-685.16 450.69,-692.16"/>
</g>
<!-- RFC4012 -->
<g id="node6" class="node">
<title>RFC4012</title>
<g id="a_node6"><a xlink:href="RFC4012.html" xlink:title="This memo introduces a new set of simple extensions to the Routing Policy Specification Language (RPSL), enabling the language to document routing policies for the IPv6 and multicast address families currently used in the Internet. [STANDARDS&#45;TRACK]" target="_top">
<ellipse fill="none" stroke="black" cx="173.06" cy="-880.66" rx="162.46" ry="52.33"/>
<text xml:space="preserve" text-anchor="middle" x="173.06" y="-900.36" font-family="Times,serif" font-size="14.00">RFC4012</text>
<text xml:space="preserve" text-anchor="middle" x="173.06" y="-883.86" font-family="Times,serif" font-size="14.00">Routing Policy Specification Language</text>
<text xml:space="preserve" text-anchor="middle" x="173.06" y="-867.36" font-family="Times,serif" font-size="14.00">next generation (RPSLng)</text>
<text xml:space="preserve" text-anchor="middle" x="173.06" y="-850.86" font-family="Times,serif" font-size="14.00">2005</text>
</a>
</g>
</g>
<!-- RFC4012&#45;&gt;updated_by -->
<g id="edge5" class="edge">
<title>RFC4012&#45;&gt;updated_by</title>
<path fill="none" stroke="black" d="M305.43,-850.19C320.66,-842.26 334.78,-832.26 346.13,-819.66 375.76,-786.74 350.18,-759.98 372.35,-716.75"/>
<polygon fill="black" stroke="black" points="375.29,-718.67 377.29,-708.26 369.24,-715.15 375.29,-718.67"/>
</g>
<!-- rev_cites -->
<g id="node8" class="node">
<title>rev_cites</title>
<polygon fill="none" stroke="black" points="431.25,-460.66 377.25,-460.66 377.25,-424.66 431.25,-424.66 431.25,-460.66"/>
<text xml:space="preserve" text-anchor="middle" x="404.25" y="-437.61" font-family="Times,serif" font-size="14.00">cites</text>
</g>
<!-- rev_cites&#45;&gt;RFC2725 -->
<g id="edge7" class="edge">
<title>rev_cites&#45;&gt;RFC2725</title>
<path fill="none" stroke="black" d="M419.61,-461.15C448.79,-498.72 515.84,-585.08 558.43,-639.94"/>
<polygon fill="black" stroke="black" points="555.48,-641.84 564.38,-647.59 561.01,-637.55 555.48,-641.84"/>
</g>
<!-- RFC5943 -->
<g id="node9" class="node">
<title>RFC5943</title>
<g id="a_node9"><a xlink:href="RFC5943.html" xlink:title="The deployment of new IP connectivity typically results in intermittent reachability for numerous reasons that are outside the scope of this document. &#160;In order to aid in the debugging of these persistent problems, this document proposes the creation of a new Routing Policy Specification Language attribute that allows a network to advertise an IP address that is reachable and can be used as a target for diagnostic tests (e.g., pings). [STANDARDS&#45;TRACK]" target="_top">
<ellipse fill="none" stroke="black" cx="173.06" cy="-746.66" rx="172.53" ry="63.99"/>
<text xml:space="preserve" text-anchor="middle" x="173.06" y="-774.61" font-family="Times,serif" font-size="14.00">RFC5943</text>
<text xml:space="preserve" text-anchor="middle" x="173.06" y="-758.11" font-family="Times,serif" font-size="14.00">A Dedicated Routing Policy Specification</text>
<text xml:space="preserve" text-anchor="middle" x="173.06" y="-741.61" font-family="Times,serif" font-size="14.00">Language Interface Identifier for</text>
<text xml:space="preserve" text-anchor="middle" x="173.06" y="-725.11" font-family="Times,serif" font-size="14.00">Operational Testing</text>
<text xml:space="preserve" text-anchor="middle" x="173.06" y="-708.61" font-family="Times,serif" font-size="14.00">2010</text>
</a>
</g>
</g>
<!-- RFC5943&#45;&gt;rev_cites -->
<g id="edge8" class="edge">
<title>RFC5943&#45;&gt;rev_cites</title>
<path fill="none" stroke="black" d="M306.86,-705.93C321.58,-697.14 335.18,-686.5 346.13,-673.66 395.81,-615.39 403.5,-520.39 403.95,-472.4"/>
<polygon fill="black" stroke="black" points="407.45,-472.5 403.94,-462.51 400.45,-472.52 407.45,-472.5"/>
</g>
<!-- RFC7682 -->
<g id="node10" class="node">
<title>RFC7682</title>
<g id="a_node10"><a xlink:href="RFC7682.html" xlink:title="The purpose of this document is to catalog issues that influenced the efficacy of Internet Routing Registries (IRRs) for inter&#45;domain routing policy specification and application in the global routing system over the past two decades. &#160;Additionally, it provides a discussion regarding which of these issues are still problematic in practice, and which are simply artifacts that are no longer applicable but continue to stifle inter&#45;provider policy&#45;based filtering adoption and IRR utility to this day." target="_top">
<ellipse fill="none" stroke="black" cx="173.06" cy="-600.66" rx="155.03" ry="63.99"/>
<text xml:space="preserve" text-anchor="middle" x="173.06" y="-628.61" font-family="Times,serif" font-size="14.00">RFC7682</text>
<text xml:space="preserve" text-anchor="middle" x="173.06" y="-612.11" font-family="Times,serif" font-size="14.00">Considerations for Internet Routing</text>
<text xml:space="preserve" text-anchor="middle" x="173.06" y="-595.61" font-family="Times,serif" font-size="14.00">Registries (IRRs) and Routing Policy</text>
<text xml:space="preserve" text-anchor="middle" x="173.06" y="-579.11" font-family="Times,serif" font-size="14.00">Configuration</text>
<text xml:space="preserve" text-anchor="middle" x="173.06" y="-562.61" font-family="Times,serif" font-size="14.00">2015</text>
</a>
</g>
</g>
<!-- RFC7682&#45;&gt;rev_cites -->
<g id="edge9" class="edge">
<title>RFC7682&#45;&gt;rev_cites</title>
<path fill="none" stroke="black" d="M294.01,-560.5C312.52,-551.35 330.61,-540.47 346.13,-527.66 364.81,-512.23 379.79,-489.15 389.71,-470.93"/>
<polygon fill="black" stroke="black" points="392.75,-472.68 394.26,-462.2 386.54,-469.45 392.75,-472.68"/>
</g>
<!-- RFC7909 -->
<g id="node11" class="node">
<title>RFC7909</title>
<g id="a_node11"><a xlink:href="RFC7909.html" xlink:title="This document describes a method that allows parties to electronically sign Routing Policy Specification Language objects and validate such electronic signatures. &#160;This allows relying parties to detect accidental or malicious modifications of such objects. &#160;It also allows parties who run Internet Routing Registries or similar databases, but do not yet have authentication (based on Routing Policy System Security) of the maintainers of certain objects, to verify that the additions or modifications of such database objects are done by the legitimate holder(s) of the Internet resources mentioned in those objects. &#160;This document updates RFCs 2622 and 4012 to add the signature attribute to supported RPSL objects." target="_top">
<ellipse fill="none" stroke="black" cx="173.06" cy="-442.66" rx="170.41" ry="75.66"/>
<text xml:space="preserve" text-anchor="middle" x="173.06" y="-478.86" font-family="Times,serif" font-size="14.00">RFC7909</text>
<text xml:space="preserve" text-anchor="middle" x="173.06" y="-462.36" font-family="Times,serif" font-size="14.00">Securing Routing Policy Specification</text>
<text xml:space="preserve" text-anchor="middle" x="173.06" y="-445.86" font-family="Times,serif" font-size="14.00">Language (RPSL) Objects with Resource</text>
<text xml:space="preserve" text-anchor="middle" x="173.06" y="-429.36" font-family="Times,serif" font-size="14.00">Public Key Infrastructure (RPKI)</text>
<text xml:space="preserve" text-anchor="middle" x="173.06" y="-412.86" font-family="Times,serif" font-size="14.00">Signatures</text>
<text xml:space="preserve" text-anchor="middle" x="173.06" y="-396.36" font-family="Times,serif" font-size="14.00">2016</text>
</a>
</g>
</g>
<!-- RFC7909&#45;&gt;rev_cites -->
<g id="edge10" class="edge">
<title>RFC7909&#45;&gt;rev_cites</title>
<path fill="none" stroke="black" d="M343.93,-442.66C351.71,-442.66 359.05,-442.66 365.73,-442.66"/>
<polygon fill="black" stroke="black" points="365.5,-446.16 375.5,-442.66 365.5,-439.16 365.5,-446.16"/>
</g>
<!-- RFC8211 -->
<g id="node12" class="node">
<title>RFC8211</title>
<g id="a_node12"><a xlink:href="RFC8211.html" xlink:title="This document analyzes actions by or against a Certification Authority (CA) or an independent repository manager in the RPKI that can adversely affect the Internet Number Resources (INRs) associated with that CA or its subordinate CAs. &#160;The analysis is done from the perspective of an affected INR holder. &#160;The analysis is based on examination of the data items in the RPKI repository, as controlled by a CA (or an independent repository manager) and fetched by Relying Parties (RPs). &#160;The analysis does not purport to be comprehensive; it does represent an orderly way to analyze a number of ways that errors by or attacks against a CA or repository manager can affect the RPKI and routing decisions based on RPKI data." target="_top">
<ellipse fill="none" stroke="black" cx="173.06" cy="-273.66" rx="173.06" ry="75.66"/>
<text xml:space="preserve" text-anchor="middle" x="173.06" y="-309.86" font-family="Times,serif" font-size="14.00">RFC8211</text>
<text xml:space="preserve" text-anchor="middle" x="173.06" y="-293.36" font-family="Times,serif" font-size="14.00">Adverse Actions by a Certification</text>
<text xml:space="preserve" text-anchor="middle" x="173.06" y="-276.86" font-family="Times,serif" font-size="14.00">Authority (CA) or Repository Manager in</text>
<text xml:space="preserve" text-anchor="middle" x="173.06" y="-260.36" font-family="Times,serif" font-size="14.00">the Resource Public Key Infrastructure</text>
<text xml:space="preserve" text-anchor="middle" x="173.06" y="-243.86" font-family="Times,serif" font-size="14.00">(RPKI)</text>
<text xml:space="preserve" text-anchor="middle" x="173.06" y="-227.36" font-family="Times,serif" font-size="14.00">2017</text>
</a>
</g>
</g>
<!-- RFC8211&#45;&gt;rev_cites -->
<g id="edge11" class="edge">
<title>RFC8211&#45;&gt;rev_cites</title>
<path fill="none" stroke="black" d="M300.22,-325.48C316.54,-334.92 332.34,-345.65 346.13,-357.66 364.28,-373.47 379.22,-396.34 389.26,-414.38"/>
<polygon fill="black" stroke="black" points="386.07,-415.84 393.87,-423.01 392.24,-412.54 386.07,-415.84"/>
</g>
<!-- RFC9092 -->
<g id="node13" class="node">
<title>RFC9092</title>
<g id="a_node13"><a xlink:href="RFC9092.html" xlink:title="This document specifies how to augment the Routing Policy Specification Language inetnum: class to refer specifically to geofeed data comma&#45;separated values (CSV) files and describes an optional scheme that uses the Routing Public Key Infrastructure to authenticate the geofeed data CSV files." target="_top">
<ellipse fill="none" stroke="black" cx="173.06" cy="-139.66" rx="138.59" ry="40.66"/>
<text xml:space="preserve" text-anchor="middle" x="173.06" y="-151.11" font-family="Times,serif" font-size="14.00">RFC9092</text>
<text xml:space="preserve" text-anchor="middle" x="173.06" y="-134.61" font-family="Times,serif" font-size="14.00">Finding and Using Geofeed Data</text>
<text xml:space="preserve" text-anchor="middle" x="173.06" y="-118.11" font-family="Times,serif" font-size="14.00">2021</text>
</a>
</g>
</g>
<!-- RFC9092&#45;&gt;rev_cites -->
<g id="edge12" class="edge">
<title>RFC9092&#45;&gt;rev_cites</title>
<path fill="none" stroke="black" d="M298.39,-157.49C316.26,-164.74 333.01,-174.78 346.13,-188.66 376.63,-220.92 393.96,-353.26 400.37,-413.07"/>
<polygon fill="black" stroke="black" points="396.87,-413.25 401.38,-422.84 403.83,-412.53 396.87,-413.25"/>
</g>
<!-- RFC9632 -->
<g id="node14" class="node">
<title>RFC9632</title>
<g id="a_node14"><a xlink:href="RFC9632.html" xlink:title="This document specifies how to augment the Routing Policy Specification Language (RPSL) inetnum: class to refer specifically to geofeed comma&#45;separated values (CSV) data files and describes an optional scheme that uses the Resource Public Key Infrastructure (RPKI) to authenticate the geofeed data files. &#160;This document obsoletes RFC 9092." target="_top">
<ellipse fill="none" stroke="black" cx="173.06" cy="-40.66" rx="138.59" ry="40.66"/>
<text xml:space="preserve" text-anchor="middle" x="173.06" y="-52.11" font-family="Times,serif" font-size="14.00">RFC9632</text>
<text xml:space="preserve" text-anchor="middle" x="173.06" y="-35.61" font-family="Times,serif" font-size="14.00">Finding and Using Geofeed Data</text>
<text xml:space="preserve" text-anchor="middle" x="173.06" y="-19.11" font-family="Times,serif" font-size="14.00">2024</text>
</a>
</g>
</g>
<!-- RFC9632&#45;&gt;rev_cites -->
<g id="edge13" class="edge">
<title>RFC9632&#45;&gt;rev_cites</title>
<path fill="none" stroke="black" d="M299.13,-57.82C316.91,-65.14 333.43,-75.38 346.13,-89.66 388.72,-137.55 399.77,-337.78 402.45,-413.49"/>
<polygon fill="black" stroke="black" points="398.93,-413.14 402.76,-423.02 405.93,-412.91 398.93,-413.14"/>
</g>
</g>
</svg>
