<?xml version="1.0" encoding="UTF-8" standalone="no"?>
<!DOCTYPE svg PUBLIC "-//W3C//DTD SVG 1.1//EN"
 "http://www.w3.org/Graphics/SVG/1.1/DTD/svg11.dtd">
<!-- Generated by graphviz version 14.1.1 (20251213.1925)
 -->
<!-- Title: Flow Pages: 1 -->
<svg width="913pt" height="212pt"
 viewBox="0.00 0.00 913.00 212.00" xmlns="http://www.w3.org/2000/svg" xmlns:xlink="http://www.w3.org/1999/xlink">
<g id="graph0" class="graph" transform="scale(1 1) rotate(0) translate(4 207.98)">
<title>Flow</title>
<polygon fill="white" stroke="none" points="-4,4 -4,-207.98 909.06,-207.98 909.06,4 -4,4"/>
<!-- RFC2303 -->
<g id="node1" class="node">
<title>RFC2303</title>
<g id="a_node1"><a xlink:title="This memo describes the MINIMAL addressing method to encode PSTN addresses into e&#45;mail addresses and the standard extension mechanism to allow definition of further standard elements. [STANDARDS&#45;TRACK]">
<ellipse fill="none" stroke="black" cx="640.22" cy="-96.66" rx="173.59" ry="52.33"/>
<text xml:space="preserve" text-anchor="middle" x="640.22" y="-116.36" font-family="Times,serif" font-size="14.00">RFC2303</text>
<text xml:space="preserve" text-anchor="middle" x="640.22" y="-99.86" font-family="Times,serif" font-size="14.00">Minimal PSTN address format in Internet</text>
<text xml:space="preserve" text-anchor="middle" x="640.22" y="-83.36" font-family="Times,serif" font-size="14.00">Mail</text>
<text xml:space="preserve" text-anchor="middle" x="640.22" y="-66.86" font-family="Times,serif" font-size="14.00">1998</text>
</a>
</g>
</g>
<!-- obs -->
<g id="node4" class="node">
<title>obs</title>
<polygon fill="none" stroke="black" points="905.06,-168.66 838.81,-168.66 838.81,-132.66 905.06,-132.66 905.06,-168.66"/>
<text xml:space="preserve" text-anchor="middle" x="871.94" y="-145.61" font-family="Times,serif" font-size="14.00">obsoletes</text>
</g>
<!-- RFC2303&#45;&gt;obs -->
<g id="edge3" class="edge">
<title>RFC2303&#45;&gt;obs</title>
<path fill="none" stroke="black" d="M778.16,-128.85C795.9,-133.02 812.91,-137.02 827.41,-140.43"/>
<polygon fill="black" stroke="black" points="826.46,-143.8 837,-142.68 828.06,-136.99 826.46,-143.8"/>
</g>
<!-- updates -->
<g id="node5" class="node">
<title>updates</title>
<polygon fill="none" stroke="black" points="900.56,-114.66 843.31,-114.66 843.31,-78.66 900.56,-78.66 900.56,-114.66"/>
<text xml:space="preserve" text-anchor="middle" x="871.94" y="-91.61" font-family="Times,serif" font-size="14.00">updates</text>
</g>
<!-- RFC2303&#45;&gt;updates -->
<g id="edge4" class="edge">
<title>RFC2303&#45;&gt;updates</title>
<path fill="none" stroke="black" d="M814.15,-96.66C820.34,-96.66 826.23,-96.66 831.7,-96.66"/>
<polygon fill="black" stroke="black" points="831.47,-100.16 841.47,-96.66 831.47,-93.16 831.47,-100.16"/>
</g>
<!-- cites -->
<g id="node7" class="node">
<title>cites</title>
<polygon fill="none" stroke="black" points="898.94,-60.66 844.94,-60.66 844.94,-24.66 898.94,-24.66 898.94,-60.66"/>
<text xml:space="preserve" text-anchor="middle" x="871.94" y="-37.61" font-family="Times,serif" font-size="14.00">cites</text>
</g>
<!-- RFC2303&#45;&gt;cites -->
<g id="edge6" class="edge">
<title>RFC2303&#45;&gt;cites</title>
<path fill="none" stroke="black" d="M778.16,-64.47C798.57,-59.67 818.02,-55.1 833.79,-51.39"/>
<polygon fill="black" stroke="black" points="834.17,-54.9 843.1,-49.2 832.57,-48.08 834.17,-54.9"/>
</g>
<!-- obs_by -->
<g id="node2" class="node">
<title>obs_by</title>
<polygon fill="none" stroke="black" points="441.62,-168.66 375.37,-168.66 375.37,-132.66 441.62,-132.66 441.62,-168.66"/>
<text xml:space="preserve" text-anchor="middle" x="408.5" y="-145.61" font-family="Times,serif" font-size="14.00">obsoletes</text>
</g>
<!-- obs_by&#45;&gt;RFC2303 -->
<g id="edge1" class="edge">
<title>obs_by&#45;&gt;RFC2303</title>
<path fill="none" stroke="black" d="M441.92,-143.04C455.72,-139.79 472.88,-135.76 491.28,-131.43"/>
<polygon fill="black" stroke="black" points="491.83,-134.9 500.76,-129.2 490.23,-128.09 491.83,-134.9"/>
</g>
<!-- RFC3191 -->
<g id="node3" class="node">
<title>RFC3191</title>
<g id="a_node3"><a xlink:href="RFC3191.html" xlink:title="This memo describes a simple method of encoding Global Switched Telephone Network (GSTN) addresses (commonly called telephone numbers) in the local&#45;part of Internet email addresses, along with an extension mechanism to allow encoding of additional standard attributes needed for email gateways to GSTN&#45;based services. [STANDARDS&#45;TRACK]" target="_top">
<ellipse fill="none" stroke="black" cx="175.19" cy="-151.66" rx="175.19" ry="52.33"/>
<text xml:space="preserve" text-anchor="middle" x="175.19" y="-171.36" font-family="Times,serif" font-size="14.00">RFC3191</text>
<text xml:space="preserve" text-anchor="middle" x="175.19" y="-154.86" font-family="Times,serif" font-size="14.00">Minimal GSTN address format in Internet</text>
<text xml:space="preserve" text-anchor="middle" x="175.19" y="-138.36" font-family="Times,serif" font-size="14.00">Mail</text>
<text xml:space="preserve" text-anchor="middle" x="175.19" y="-121.86" font-family="Times,serif" font-size="14.00">2001</text>
</a>
</g>
</g>
<!-- RFC3191&#45;&gt;obs_by -->
<g id="edge2" class="edge">
<title>RFC3191&#45;&gt;obs_by</title>
<path fill="none" stroke="black" d="M350.62,-150.9C355.16,-150.88 359.54,-150.87 363.72,-150.85"/>
<polygon fill="black" stroke="black" points="363.4,-154.35 373.38,-150.81 363.37,-147.35 363.4,-154.35"/>
</g>
<!-- updated_by -->
<g id="node6" class="node">
<title>updated_by</title>
<polygon fill="none" stroke="black" points="437.12,-114.66 379.87,-114.66 379.87,-78.66 437.12,-78.66 437.12,-114.66"/>
<text xml:space="preserve" text-anchor="middle" x="408.5" y="-91.61" font-family="Times,serif" font-size="14.00">updates</text>
</g>
<!-- updated_by&#45;&gt;RFC2303 -->
<g id="edge5" class="edge">
<title>updated_by&#45;&gt;RFC2303</title>
<path fill="none" stroke="black" d="M437.21,-96.66C442.56,-96.66 448.52,-96.66 454.95,-96.66"/>
<polygon fill="black" stroke="black" points="454.66,-100.16 464.66,-96.66 454.66,-93.16 454.66,-100.16"/>
</g>
<!-- rev_cites -->
<g id="node8" class="node">
<title>rev_cites</title>
<polygon fill="none" stroke="black" points="435.5,-59.66 381.5,-59.66 381.5,-23.66 435.5,-23.66 435.5,-59.66"/>
<text xml:space="preserve" text-anchor="middle" x="408.5" y="-36.61" font-family="Times,serif" font-size="14.00">cites</text>
</g>
<!-- rev_cites&#45;&gt;RFC2303 -->
<g id="edge7" class="edge">
<title>rev_cites&#45;&gt;RFC2303</title>
<path fill="none" stroke="black" d="M435.85,-47.97C450.72,-51.53 470.61,-56.29 492.15,-61.45"/>
<polygon fill="black" stroke="black" points="491.18,-64.81 501.72,-63.74 492.81,-58.01 491.18,-64.81"/>
</g>
<!-- RFC2806 -->
<g id="node9" class="node">
<title>RFC2806</title>
<g id="a_node9"><a xlink:href="RFC2806.html" xlink:title="This document specifies URL (Uniform Resource Locator) schemes tel, fax and modem for specifying the location of a terminal in the phone network and the connection types (modes of operation) that can be used to connect to that entity. [STANDARDS&#45;TRACK]" target="_top">
<ellipse fill="none" stroke="black" cx="175.19" cy="-40.66" rx="112.61" ry="40.66"/>
<text xml:space="preserve" text-anchor="middle" x="175.19" y="-52.11" font-family="Times,serif" font-size="14.00">RFC2806</text>
<text xml:space="preserve" text-anchor="middle" x="175.19" y="-35.61" font-family="Times,serif" font-size="14.00">URLs for Telephone Calls</text>
<text xml:space="preserve" text-anchor="middle" x="175.19" y="-19.11" font-family="Times,serif" font-size="14.00">2000</text>
</a>
</g>
</g>
<!-- RFC2806&#45;&gt;rev_cites -->
<g id="edge8" class="edge">
<title>RFC2806&#45;&gt;rev_cites</title>
<path fill="none" stroke="black" d="M288.11,-41.14C317.63,-41.27 347.48,-41.4 369.94,-41.5"/>
<polygon fill="black" stroke="black" points="369.77,-45 379.78,-41.54 369.8,-38 369.77,-45"/>
</g>
</g>
</svg>
