<?xml version="1.0" encoding="UTF-8" standalone="no"?>
<!DOCTYPE svg PUBLIC "-//W3C//DTD SVG 1.1//EN"
 "http://www.w3.org/Graphics/SVG/1.1/DTD/svg11.dtd">
<!-- Generated by graphviz version 14.1.1 (20251213.1925)
 -->
<!-- Title: Flow Pages: 1 -->
<svg width="1296pt" height="1095pt"
 viewBox="0.00 0.00 1296.00 1095.00" xmlns="http://www.w3.org/2000/svg" xmlns:xlink="http://www.w3.org/1999/xlink">
<g id="graph0" class="graph" transform="scale(1 1) rotate(0) translate(4 1090.65)">
<title>Flow</title>
<polygon fill="white" stroke="none" points="-4,4 -4,-1090.65 1291.86,-1090.65 1291.86,4 -4,4"/>
<!-- RFC2831 -->
<g id="node1" class="node">
<title>RFC2831</title>
<g id="a_node1"><a xlink:title="This specification defines how HTTP Digest Authentication can be used as a SASL mechanism for any protocol that has a SASL (Simple Authentication and Security Layer) profile. [STANDARDS&#45;TRACK]">
<ellipse fill="none" stroke="black" cx="630.67" cy="-620.33" rx="164.05" ry="52.33"/>
<text xml:space="preserve" text-anchor="middle" x="630.67" y="-640.03" font-family="Times,serif" font-size="14.00">RFC2831</text>
<text xml:space="preserve" text-anchor="middle" x="630.67" y="-623.53" font-family="Times,serif" font-size="14.00">Using Digest Authentication as a SASL</text>
<text xml:space="preserve" text-anchor="middle" x="630.67" y="-607.03" font-family="Times,serif" font-size="14.00">Mechanism</text>
<text xml:space="preserve" text-anchor="middle" x="630.67" y="-590.53" font-family="Times,serif" font-size="14.00">2000</text>
</a>
</g>
</g>
<!-- obs -->
<g id="node4" class="node">
<title>obs</title>
<polygon fill="none" stroke="black" points="885.97,-692.33 819.72,-692.33 819.72,-656.33 885.97,-656.33 885.97,-692.33"/>
<text xml:space="preserve" text-anchor="middle" x="852.84" y="-669.28" font-family="Times,serif" font-size="14.00">obsoletes</text>
</g>
<!-- RFC2831&#45;&gt;obs -->
<g id="edge3" class="edge">
<title>RFC2831&#45;&gt;obs</title>
<path fill="none" stroke="black" d="M761.66,-652.21C778.38,-656.31 794.48,-660.26 808.33,-663.65"/>
<polygon fill="black" stroke="black" points="807.38,-667.02 817.92,-666.01 809.04,-660.22 807.38,-667.02"/>
</g>
<!-- updates -->
<g id="node5" class="node">
<title>updates</title>
<polygon fill="none" stroke="black" points="881.47,-638.33 824.22,-638.33 824.22,-602.33 881.47,-602.33 881.47,-638.33"/>
<text xml:space="preserve" text-anchor="middle" x="852.84" y="-615.28" font-family="Times,serif" font-size="14.00">updates</text>
</g>
<!-- RFC2831&#45;&gt;updates -->
<g id="edge4" class="edge">
<title>RFC2831&#45;&gt;updates</title>
<path fill="none" stroke="black" d="M795.14,-620.33C801.3,-620.33 807.15,-620.33 812.61,-620.33"/>
<polygon fill="black" stroke="black" points="812.35,-623.83 822.35,-620.33 812.35,-616.83 812.35,-623.83"/>
</g>
<!-- cites -->
<g id="node7" class="node">
<title>cites</title>
<polygon fill="none" stroke="black" points="879.84,-584.33 825.84,-584.33 825.84,-548.33 879.84,-548.33 879.84,-584.33"/>
<text xml:space="preserve" text-anchor="middle" x="852.84" y="-561.28" font-family="Times,serif" font-size="14.00">cites</text>
</g>
<!-- RFC2831&#45;&gt;cites -->
<g id="edge6" class="edge">
<title>RFC2831&#45;&gt;cites</title>
<path fill="none" stroke="black" d="M761.66,-588.45C780.95,-583.71 799.39,-579.19 814.52,-575.48"/>
<polygon fill="black" stroke="black" points="815.05,-578.95 823.93,-573.17 813.38,-572.16 815.05,-578.95"/>
</g>
<!-- obs_by -->
<g id="node2" class="node">
<title>obs_by</title>
<polygon fill="none" stroke="black" points="441.62,-805.33 375.37,-805.33 375.37,-769.33 441.62,-769.33 441.62,-805.33"/>
<text xml:space="preserve" text-anchor="middle" x="408.5" y="-782.28" font-family="Times,serif" font-size="14.00">obsoletes</text>
</g>
<!-- obs_by&#45;&gt;RFC2831 -->
<g id="edge1" class="edge">
<title>obs_by&#45;&gt;RFC2831</title>
<path fill="none" stroke="black" d="M433.48,-769.14C462.92,-746.8 514.22,-707.89 556.98,-675.46"/>
<polygon fill="black" stroke="black" points="558.91,-678.39 564.76,-669.56 554.68,-672.82 558.91,-678.39"/>
</g>
<!-- RFC6331 -->
<g id="node3" class="node">
<title>RFC6331</title>
<g id="a_node3"><a xlink:href="RFC6331.html" xlink:title="This memo describes problems with the DIGEST&#45;MD5 Simple Authentication and Security Layer (SASL) mechanism as specified in RFC 2831. &#160;It marks DIGEST&#45;MD5 as OBSOLETE in the IANA Registry of SASL mechanisms and moves RFC 2831 to Historic status. &#160;This document is not an Internet Standards Track specification; it is published for informational purposes." target="_top">
<ellipse fill="none" stroke="black" cx="175.19" cy="-844.33" rx="145.49" ry="40.66"/>
<text xml:space="preserve" text-anchor="middle" x="175.19" y="-855.78" font-family="Times,serif" font-size="14.00">RFC6331</text>
<text xml:space="preserve" text-anchor="middle" x="175.19" y="-839.28" font-family="Times,serif" font-size="14.00">Moving DIGEST&#45;MD5 to Historic</text>
<text xml:space="preserve" text-anchor="middle" x="175.19" y="-822.78" font-family="Times,serif" font-size="14.00">2011</text>
</a>
</g>
</g>
<!-- RFC6331&#45;&gt;obs_by -->
<g id="edge2" class="edge">
<title>RFC6331&#45;&gt;obs_by</title>
<path fill="none" stroke="black" d="M285.41,-817.41C313.2,-810.56 341.49,-803.59 363.83,-798.09"/>
<polygon fill="black" stroke="black" points="364.59,-801.5 373.46,-795.71 362.92,-794.71 364.59,-801.5"/>
</g>
<!-- rev_cites -->
<g id="node17" class="node">
<title>rev_cites</title>
<polygon fill="none" stroke="black" points="435.5,-638.33 381.5,-638.33 381.5,-602.33 435.5,-602.33 435.5,-638.33"/>
<text xml:space="preserve" text-anchor="middle" x="408.5" y="-615.28" font-family="Times,serif" font-size="14.00">cites</text>
</g>
<!-- RFC6331&#45;&gt;rev_cites -->
<g id="edge20" class="edge">
<title>RFC6331&#45;&gt;rev_cites</title>
<path fill="none" stroke="black" d="M302.24,-824.31C319.98,-817.12 336.77,-807.42 350.37,-794.33 371.3,-774.17 391.46,-694.13 401.28,-649.96"/>
<polygon fill="black" stroke="black" points="404.68,-650.79 403.39,-640.28 397.84,-649.3 404.68,-650.79"/>
</g>
<!-- updated_by -->
<g id="node6" class="node">
<title>updated_by</title>
<polygon fill="none" stroke="black" points="437.12,-584.33 379.87,-584.33 379.87,-548.33 437.12,-548.33 437.12,-584.33"/>
<text xml:space="preserve" text-anchor="middle" x="408.5" y="-561.28" font-family="Times,serif" font-size="14.00">updates</text>
</g>
<!-- updated_by&#45;&gt;RFC2831 -->
<g id="edge5" class="edge">
<title>updated_by&#45;&gt;RFC2831</title>
<path fill="none" stroke="black" d="M437.38,-573.17C451.34,-576.59 469.4,-581.02 488.85,-585.79"/>
<polygon fill="black" stroke="black" points="487.77,-589.13 498.32,-588.11 489.44,-582.33 487.77,-589.13"/>
</g>
<!-- RFC2222 -->
<g id="node8" class="node">
<title>RFC2222</title>
<g id="a_node8"><a xlink:href="RFC2222.html" xlink:title="This document describes a method for adding authentication support to connection&#45;based protocols. [STANDARDS&#45;TRACK]" target="_top">
<ellipse fill="none" stroke="black" cx="1099.41" cy="-1034.33" rx="173.59" ry="52.33"/>
<text xml:space="preserve" text-anchor="middle" x="1099.41" y="-1054.03" font-family="Times,serif" font-size="14.00">RFC2222</text>
<text xml:space="preserve" text-anchor="middle" x="1099.41" y="-1037.53" font-family="Times,serif" font-size="14.00">Simple Authentication and Security Layer</text>
<text xml:space="preserve" text-anchor="middle" x="1099.41" y="-1021.03" font-family="Times,serif" font-size="14.00">(SASL)</text>
<text xml:space="preserve" text-anchor="middle" x="1099.41" y="-1004.53" font-family="Times,serif" font-size="14.00">1997</text>
</a>
</g>
</g>
<!-- cites&#45;&gt;RFC2222 -->
<g id="edge7" class="edge">
<title>cites&#45;&gt;RFC2222</title>
<path fill="none" stroke="black" d="M879.87,-584.66C882.27,-587.31 884.39,-590.21 885.97,-593.33 924.11,-668.62 859.31,-905.57 910.97,-972.33 919.74,-983.66 930.65,-992.95 942.76,-1000.55"/>
<polygon fill="black" stroke="black" points="941,-1003.58 951.41,-1005.54 944.5,-997.51 941,-1003.58"/>
</g>
<!-- RFC2195 -->
<g id="node9" class="node">
<title>RFC2195</title>
<g id="a_node9"><a xlink:href="RFC2195.html" xlink:title="This specification provides a simple challenge&#45;response authentication protocol that is suitable for use with IMAP4. [STANDARDS&#45;TRACK]" target="_top">
<ellipse fill="none" stroke="black" cx="1099.41" cy="-911.33" rx="188.44" ry="52.33"/>
<text xml:space="preserve" text-anchor="middle" x="1099.41" y="-931.03" font-family="Times,serif" font-size="14.00">RFC2195</text>
<text xml:space="preserve" text-anchor="middle" x="1099.41" y="-914.53" font-family="Times,serif" font-size="14.00">IMAP/POP AUTHorize Extension for Simple</text>
<text xml:space="preserve" text-anchor="middle" x="1099.41" y="-898.03" font-family="Times,serif" font-size="14.00">Challenge/Response</text>
<text xml:space="preserve" text-anchor="middle" x="1099.41" y="-881.53" font-family="Times,serif" font-size="14.00">1997</text>
</a>
</g>
</g>
<!-- cites&#45;&gt;RFC2195 -->
<g id="edge8" class="edge">
<title>cites&#45;&gt;RFC2195</title>
<path fill="none" stroke="black" d="M879.78,-584.71C882.19,-587.35 884.34,-590.23 885.97,-593.33 912.69,-644.1 875.04,-805.58 910.97,-850.33 918.44,-859.63 927.35,-867.53 937.17,-874.23"/>
<polygon fill="black" stroke="black" points="935.24,-877.15 945.57,-879.5 938.96,-871.22 935.24,-877.15"/>
</g>
<!-- RFC1321 -->
<g id="node10" class="node">
<title>RFC1321</title>
<g id="a_node10"><a xlink:href="RFC1321.html" xlink:title="This document describes the MD5 message&#45;digest algorithm. &#160;The algorithm takes as input a message of arbitrary length and produces as output a 128&#45;bit fingerprint or message digest of the input. &#160;This memo provides information for the Internet community. &#160;It does not specify an Internet standard." target="_top">
<ellipse fill="none" stroke="black" cx="1099.41" cy="-800.33" rx="156.62" ry="40.66"/>
<text xml:space="preserve" text-anchor="middle" x="1099.41" y="-811.78" font-family="Times,serif" font-size="14.00">RFC1321</text>
<text xml:space="preserve" text-anchor="middle" x="1099.41" y="-795.28" font-family="Times,serif" font-size="14.00">The MD5 Message&#45;Digest Algorithm</text>
<text xml:space="preserve" text-anchor="middle" x="1099.41" y="-778.78" font-family="Times,serif" font-size="14.00">1992</text>
</a>
</g>
</g>
<!-- cites&#45;&gt;RFC1321 -->
<g id="edge9" class="edge">
<title>cites&#45;&gt;RFC1321</title>
<path fill="none" stroke="black" d="M879.59,-584.81C882.04,-587.43 884.25,-590.28 885.97,-593.33 920.76,-654.82 863.64,-697.86 910.97,-750.33 921.32,-761.8 933.97,-770.76 947.78,-777.75"/>
<polygon fill="black" stroke="black" points="946.1,-780.83 956.65,-781.86 949.05,-774.48 946.1,-780.83"/>
</g>
<!-- RFC2104 -->
<g id="node11" class="node">
<title>RFC2104</title>
<g id="a_node11"><a xlink:href="RFC2104.html" xlink:title="This document describes HMAC, a mechanism for message authentication using cryptographic hash functions. &#160;HMAC can be used with any iterative cryptographic hash function, e.g., MD5, SHA&#45;1, in combination with a secret shared key. &#160;The cryptographic strength of HMAC depends on the properties of the underlying hash function. &#160;This memo provides information for the Internet community. &#160;This memo does not specify an Internet standard of any kind" target="_top">
<ellipse fill="none" stroke="black" cx="1099.41" cy="-689.33" rx="156.09" ry="52.33"/>
<text xml:space="preserve" text-anchor="middle" x="1099.41" y="-709.03" font-family="Times,serif" font-size="14.00">RFC2104</text>
<text xml:space="preserve" text-anchor="middle" x="1099.41" y="-692.53" font-family="Times,serif" font-size="14.00">HMAC: Keyed&#45;Hashing for Message</text>
<text xml:space="preserve" text-anchor="middle" x="1099.41" y="-676.03" font-family="Times,serif" font-size="14.00">Authentication</text>
<text xml:space="preserve" text-anchor="middle" x="1099.41" y="-659.53" font-family="Times,serif" font-size="14.00">1997</text>
</a>
</g>
</g>
<!-- cites&#45;&gt;RFC2104 -->
<g id="edge10" class="edge">
<title>cites&#45;&gt;RFC2104</title>
<path fill="none" stroke="black" d="M876.92,-584.56C880.07,-587.38 883.18,-590.35 885.97,-593.33 898.79,-607.01 895.79,-616.3 910.97,-627.33 926.04,-638.27 943.16,-647.36 960.77,-654.89"/>
<polygon fill="black" stroke="black" points="959.21,-658.04 969.79,-658.58 961.86,-651.56 959.21,-658.04"/>
</g>
<!-- RFC2119 -->
<g id="node12" class="node">
<title>RFC2119</title>
<g id="a_node12"><a xlink:href="RFC2119.html" xlink:title="In many standards track documents several words are used to signify the requirements in the specification. &#160;These words are often capitalized. &#160;This document defines these words as they should be interpreted in IETF documents. &#160;This document specifies an Internet Best Current Practices for the Internet Community, and requests discussion and suggestions for improvements." target="_top">
<ellipse fill="none" stroke="black" cx="1099.41" cy="-566.33" rx="160.34" ry="52.33"/>
<text xml:space="preserve" text-anchor="middle" x="1099.41" y="-586.03" font-family="Times,serif" font-size="14.00">RFC2119</text>
<text xml:space="preserve" text-anchor="middle" x="1099.41" y="-569.53" font-family="Times,serif" font-size="14.00">Key words for use in RFCs to Indicate</text>
<text xml:space="preserve" text-anchor="middle" x="1099.41" y="-553.03" font-family="Times,serif" font-size="14.00">Requirement Levels</text>
<text xml:space="preserve" text-anchor="middle" x="1099.41" y="-536.53" font-family="Times,serif" font-size="14.00">1997</text>
</a>
</g>
</g>
<!-- cites&#45;&gt;RFC2119 -->
<g id="edge11" class="edge">
<title>cites&#45;&gt;RFC2119</title>
<path fill="none" stroke="black" d="M880.02,-566.33C892.72,-566.33 909.17,-566.33 927.33,-566.33"/>
<polygon fill="black" stroke="black" points="927.33,-569.83 937.33,-566.33 927.33,-562.83 927.33,-569.83"/>
</g>
<!-- RFC2078 -->
<g id="node13" class="node">
<title>RFC2078</title>
<g id="a_node13"><a xlink:href="RFC2078.html" xlink:title="The Generic Security Service Application Program Interface (GSS&#45;API), as defined in RFC&#45;1508, provides security services to callers in a generic fashion, supportable with a range of underlying mechanisms and technologies and hence allowing source&#45;level portability of applications to different environments. [STANDARDS&#45;TRACK]" target="_top">
<ellipse fill="none" stroke="black" cx="1099.41" cy="-443.33" rx="154.5" ry="52.33"/>
<text xml:space="preserve" text-anchor="middle" x="1099.41" y="-463.03" font-family="Times,serif" font-size="14.00">RFC2078</text>
<text xml:space="preserve" text-anchor="middle" x="1099.41" y="-446.53" font-family="Times,serif" font-size="14.00">Generic Security Service Application</text>
<text xml:space="preserve" text-anchor="middle" x="1099.41" y="-430.03" font-family="Times,serif" font-size="14.00">Program Interface, Version 2</text>
<text xml:space="preserve" text-anchor="middle" x="1099.41" y="-413.53" font-family="Times,serif" font-size="14.00">1997</text>
</a>
</g>
</g>
<!-- cites&#45;&gt;RFC2078 -->
<g id="edge12" class="edge">
<title>cites&#45;&gt;RFC2078</title>
<path fill="none" stroke="black" d="M866.97,-547.98C877.49,-534.47 893.37,-516.58 910.97,-505.33 927.34,-494.86 945.65,-485.99 964.24,-478.52"/>
<polygon fill="black" stroke="black" points="965.42,-481.82 973.49,-474.94 962.9,-475.29 965.42,-481.82"/>
</g>
<!-- RFC2060 -->
<g id="node14" class="node">
<title>RFC2060</title>
<g id="a_node14"><a xlink:href="RFC2060.html" xlink:title="The Internet Message Access Protocol, Version 4rev1 (IMAP4rev1) allows a client to access and manipulate electronic mail messages on a server. [STANDARDS&#45;TRACK]" target="_top">
<ellipse fill="none" stroke="black" cx="1099.41" cy="-320.33" rx="147.61" ry="52.33"/>
<text xml:space="preserve" text-anchor="middle" x="1099.41" y="-340.03" font-family="Times,serif" font-size="14.00">RFC2060</text>
<text xml:space="preserve" text-anchor="middle" x="1099.41" y="-323.53" font-family="Times,serif" font-size="14.00">Internet Message Access Protocol &#45;</text>
<text xml:space="preserve" text-anchor="middle" x="1099.41" y="-307.03" font-family="Times,serif" font-size="14.00">Version 4rev1</text>
<text xml:space="preserve" text-anchor="middle" x="1099.41" y="-290.53" font-family="Times,serif" font-size="14.00">1996</text>
</a>
</g>
</g>
<!-- cites&#45;&gt;RFC2060 -->
<g id="edge13" class="edge">
<title>cites&#45;&gt;RFC2060</title>
<path fill="none" stroke="black" d="M854.25,-547.89C856.05,-511.27 865.27,-428.87 910.97,-382.33 924.42,-368.63 940.95,-357.95 958.58,-349.64"/>
<polygon fill="black" stroke="black" points="959.95,-352.86 967.69,-345.62 957.13,-346.46 959.95,-352.86"/>
</g>
<!-- RFC2047 -->
<g id="node15" class="node">
<title>RFC2047</title>
<g id="a_node15"><a xlink:href="RFC2047.html" xlink:title="This particular document is the third document in the series. &#160;It describes extensions to RFC 822 to allow non&#45;US&#45;ASCII text data in Internet mail header fields. [STANDARDS&#45;TRACK]" target="_top">
<ellipse fill="none" stroke="black" cx="1099.41" cy="-186.33" rx="168.29" ry="63.99"/>
<text xml:space="preserve" text-anchor="middle" x="1099.41" y="-214.28" font-family="Times,serif" font-size="14.00">RFC2047</text>
<text xml:space="preserve" text-anchor="middle" x="1099.41" y="-197.78" font-family="Times,serif" font-size="14.00">MIME (Multipurpose Internet Mail</text>
<text xml:space="preserve" text-anchor="middle" x="1099.41" y="-181.28" font-family="Times,serif" font-size="14.00">Extensions) Part Three: Message Header</text>
<text xml:space="preserve" text-anchor="middle" x="1099.41" y="-164.78" font-family="Times,serif" font-size="14.00">Extensions for Non&#45;ASCII Text</text>
<text xml:space="preserve" text-anchor="middle" x="1099.41" y="-148.28" font-family="Times,serif" font-size="14.00">1996</text>
</a>
</g>
</g>
<!-- cites&#45;&gt;RFC2047 -->
<g id="edge14" class="edge">
<title>cites&#45;&gt;RFC2047</title>
<path fill="none" stroke="black" d="M854.96,-547.85C858.91,-488.51 873.97,-304 910.97,-259.33 921.57,-246.53 934.7,-235.97 949.06,-227.25"/>
<polygon fill="black" stroke="black" points="950.39,-230.52 957.34,-222.54 946.92,-224.44 950.39,-230.52"/>
</g>
<!-- RFC2052 -->
<g id="node16" class="node">
<title>RFC2052</title>
<g id="a_node16"><a xlink:href="RFC2052.html" xlink:title="This document describes a DNS RR which specifies the location of the server(s) for a specific protocol and domain (like a more general form of MX). &#160;This memo defines an Experimental Protocol for the Internet community." target="_top">
<ellipse fill="none" stroke="black" cx="1099.41" cy="-52.33" rx="169.35" ry="52.33"/>
<text xml:space="preserve" text-anchor="middle" x="1099.41" y="-72.03" font-family="Times,serif" font-size="14.00">RFC2052</text>
<text xml:space="preserve" text-anchor="middle" x="1099.41" y="-55.53" font-family="Times,serif" font-size="14.00">A DNS RR for specifying the location of</text>
<text xml:space="preserve" text-anchor="middle" x="1099.41" y="-39.03" font-family="Times,serif" font-size="14.00">services (DNS SRV)</text>
<text xml:space="preserve" text-anchor="middle" x="1099.41" y="-22.53" font-family="Times,serif" font-size="14.00">1996</text>
</a>
</g>
</g>
<!-- cites&#45;&gt;RFC2052 -->
<g id="edge15" class="edge">
<title>cites&#45;&gt;RFC2052</title>
<path fill="none" stroke="black" d="M853.63,-548.07C853.12,-472 854.91,-181.14 910.97,-113.33 920.35,-101.98 931.88,-92.72 944.56,-85.17"/>
<polygon fill="black" stroke="black" points="946.06,-88.34 953.14,-80.45 942.69,-82.2 946.06,-88.34"/>
</g>
<!-- rev_cites&#45;&gt;RFC2831 -->
<g id="edge16" class="edge">
<title>rev_cites&#45;&gt;RFC2831</title>
<path fill="none" stroke="black" d="M435.62,-620.33C441.44,-620.33 448.04,-620.33 455.2,-620.33"/>
<polygon fill="black" stroke="black" points="454.94,-623.83 464.94,-620.33 454.94,-616.83 454.94,-623.83"/>
</g>
<!-- RFC4876 -->
<g id="node18" class="node">
<title>RFC4876</title>
<g id="a_node18"><a xlink:href="RFC4876.html" xlink:title="This document consists of two primary components, a schema for agents that make use of the Lightweight Directory Access protocol (LDAP) and a proposed use case of that schema, for distributed configuration of similar directory user agents. &#160;A set of attribute types and an object class are proposed. &#160;In the proposed use case, directory user agents (DUAs) can use this schema to determine directory data location and access parameters for specific services they support. &#160;In addition, in the proposed use case, attribute and object class mapping allows DUAs to reconfigure their expected (default) schema to match that of the end user&#39;s environment. &#160;This document is intended to be a skeleton for future documents that describe configuration of specific DUA services. &#160;This memo provides information for the Internet community." target="_top">
<ellipse fill="none" stroke="black" cx="175.19" cy="-721.33" rx="161.4" ry="63.99"/>
<text xml:space="preserve" text-anchor="middle" x="175.19" y="-749.28" font-family="Times,serif" font-size="14.00">RFC4876</text>
<text xml:space="preserve" text-anchor="middle" x="175.19" y="-732.78" font-family="Times,serif" font-size="14.00">A Configuration Profile Schema for</text>
<text xml:space="preserve" text-anchor="middle" x="175.19" y="-716.28" font-family="Times,serif" font-size="14.00">Lightweight Directory Access Protocol</text>
<text xml:space="preserve" text-anchor="middle" x="175.19" y="-699.78" font-family="Times,serif" font-size="14.00">(LDAP)&#45;Based Agents</text>
<text xml:space="preserve" text-anchor="middle" x="175.19" y="-683.28" font-family="Times,serif" font-size="14.00">2007</text>
</a>
</g>
</g>
<!-- RFC4876&#45;&gt;rev_cites -->
<g id="edge17" class="edge">
<title>RFC4876&#45;&gt;rev_cites</title>
<path fill="none" stroke="black" d="M288.58,-675.37C309.23,-666.6 330.52,-657.34 350.37,-648.33 357.2,-645.23 364.42,-641.8 371.34,-638.44"/>
<polygon fill="black" stroke="black" points="372.4,-641.82 379.84,-634.28 369.32,-635.54 372.4,-641.82"/>
</g>
<!-- RFC5178 -->
<g id="node19" class="node">
<title>RFC5178</title>
<g id="a_node19"><a xlink:href="RFC5178.html" xlink:title="This document describes domain&#45;name&#45;based service principal names and the corresponding name type for the Generic Security Service Application Programming Interface (GSS&#45;API). Internationalization of the GSS&#45;API is also covered. Domain&#45;based service names are similar to host&#45;based service names, but using a domain name (not necessarily an Internet domain name) in addition to a hostname. The primary purpose of domain&#45;based names is to provide a measure of protection to applications that utilize insecure service discovery protocols. This is achieved by providing a way to name clustered services after the domain which they service, thereby allowing their clients to authorize the service&#39;s servers based on authentication of their service names. [STANDARDS&#45;TRACK]" target="_top">
<ellipse fill="none" stroke="black" cx="175.19" cy="-563.33" rx="162.99" ry="75.66"/>
<text xml:space="preserve" text-anchor="middle" x="175.19" y="-599.53" font-family="Times,serif" font-size="14.00">RFC5178</text>
<text xml:space="preserve" text-anchor="middle" x="175.19" y="-583.03" font-family="Times,serif" font-size="14.00">Generic Security Service Application</text>
<text xml:space="preserve" text-anchor="middle" x="175.19" y="-566.53" font-family="Times,serif" font-size="14.00">Program Interface (GSS&#45;API)</text>
<text xml:space="preserve" text-anchor="middle" x="175.19" y="-550.03" font-family="Times,serif" font-size="14.00">Internationalization and Domain&#45;Based</text>
<text xml:space="preserve" text-anchor="middle" x="175.19" y="-533.53" font-family="Times,serif" font-size="14.00">Service Names and Name Type</text>
<text xml:space="preserve" text-anchor="middle" x="175.19" y="-517.03" font-family="Times,serif" font-size="14.00">2008</text>
</a>
</g>
</g>
<!-- RFC5178&#45;&gt;rev_cites -->
<g id="edge18" class="edge">
<title>RFC5178&#45;&gt;rev_cites</title>
<path fill="none" stroke="black" d="M319.72,-598.7C338.33,-603.28 355.92,-607.62 370.4,-611.18"/>
<polygon fill="black" stroke="black" points="369.28,-614.51 379.83,-613.51 370.96,-607.72 369.28,-614.51"/>
</g>
<!-- RFC5572 -->
<g id="node20" class="node">
<title>RFC5572</title>
<g id="a_node20"><a xlink:href="RFC5572.html" xlink:title="A tunnel broker with the Tunnel Setup Protocol (TSP) enables the establishment of tunnels of various inner protocols, such as IPv6 or IPv4, inside various outer protocols packets, such as IPv4, IPv6, or UDP over IPv4 for IPv4 NAT traversal. &#160;The control protocol (TSP) is used by the tunnel client to negotiate the tunnel with the broker. &#160;A mobile node implementing TSP can be connected to both IPv4 and IPv6 networks whether it is on IPv4 only, IPv4 behind a NAT, or on IPv6 only. &#160;A tunnel broker may terminate the tunnels on remote tunnel servers or on itself. &#160;This document describes the TSP within the model of the tunnel broker model. &#160;This document defines an Experimental Protocol for the Internet community." target="_top">
<ellipse fill="none" stroke="black" cx="175.19" cy="-417.33" rx="175.19" ry="52.33"/>
<text xml:space="preserve" text-anchor="middle" x="175.19" y="-437.03" font-family="Times,serif" font-size="14.00">RFC5572</text>
<text xml:space="preserve" text-anchor="middle" x="175.19" y="-420.53" font-family="Times,serif" font-size="14.00">IPv6 Tunnel Broker with the Tunnel Setup</text>
<text xml:space="preserve" text-anchor="middle" x="175.19" y="-404.03" font-family="Times,serif" font-size="14.00">Protocol (TSP)</text>
<text xml:space="preserve" text-anchor="middle" x="175.19" y="-387.53" font-family="Times,serif" font-size="14.00">2010</text>
</a>
</g>
</g>
<!-- RFC5572&#45;&gt;rev_cites -->
<g id="edge19" class="edge">
<title>RFC5572&#45;&gt;rev_cites</title>
<path fill="none" stroke="black" d="M313.7,-449.64C327.43,-457.26 340.08,-466.68 350.37,-478.33 382.85,-515.06 352.65,-544.63 376.67,-592.29"/>
<polygon fill="black" stroke="black" points="373.49,-593.79 381.48,-600.76 379.58,-590.33 373.49,-593.79"/>
</g>
<!-- RFC7617 -->
<g id="node21" class="node">
<title>RFC7617</title>
<g id="a_node21"><a xlink:href="RFC7617.html" xlink:title="This document defines the Basic Hypertext Transfer Protocol (HTTP) authentication scheme, which transmits credentials as user&#45;id/ password pairs, encoded using Base64." target="_top">
<ellipse fill="none" stroke="black" cx="175.19" cy="-306.33" rx="172" ry="40.66"/>
<text xml:space="preserve" text-anchor="middle" x="175.19" y="-317.78" font-family="Times,serif" font-size="14.00">RFC7617</text>
<text xml:space="preserve" text-anchor="middle" x="175.19" y="-301.28" font-family="Times,serif" font-size="14.00">The &#39;Basic&#39; HTTP Authentication Scheme</text>
<text xml:space="preserve" text-anchor="middle" x="175.19" y="-284.78" font-family="Times,serif" font-size="14.00">2015</text>
</a>
</g>
</g>
<!-- RFC7617&#45;&gt;rev_cites -->
<g id="edge21" class="edge">
<title>RFC7617&#45;&gt;rev_cites</title>
<path fill="none" stroke="black" d="M316.74,-329.68C329.48,-336.52 341.07,-345.24 350.37,-356.33 382.49,-394.6 354.14,-529.96 376.91,-591.65"/>
<polygon fill="black" stroke="black" points="373.63,-592.9 380.96,-600.56 380,-590 373.63,-592.9"/>
</g>
</g>
</svg>
