<?xml version="1.0" encoding="UTF-8" standalone="no"?>
<!DOCTYPE svg PUBLIC "-//W3C//DTD SVG 1.1//EN"
 "http://www.w3.org/Graphics/SVG/1.1/DTD/svg11.dtd">
<!-- Generated by graphviz version 14.1.1 (20251213.1925)
 -->
<!-- Title: Flow Pages: 1 -->
<svg width="1924pt" height="1700pt"
 viewBox="0.00 0.00 1924.00 1700.00" xmlns="http://www.w3.org/2000/svg" xmlns:xlink="http://www.w3.org/1999/xlink">
<g id="graph0" class="graph" transform="scale(1 1) rotate(0) translate(4 1695.89)">
<title>Flow</title>
<polygon fill="white" stroke="none" points="-4,4 -4,-1695.89 1919.87,-1695.89 1919.87,4 -4,4"/>
<!-- RFC2255 -->
<g id="node1" class="node">
<title>RFC2255</title>
<g id="a_node1"><a xlink:title="This document describes a format for an LDAP Uniform Resource Locator. [STANDARDS&#45;TRACK]">
<ellipse fill="green" stroke="black" stroke-width="3" cx="957.67" cy="-857.61" rx="135.94" ry="50.2"/>
<text xml:space="preserve" text-anchor="middle" x="957.67" y="-872.01" font-family="Times,serif" font-size="18.00">RFC2255</text>
<text xml:space="preserve" text-anchor="middle" x="957.67" y="-851.01" font-family="Times,serif" font-size="18.00">The LDAP URL Format</text>
<text xml:space="preserve" text-anchor="middle" x="957.67" y="-830.01" font-family="Times,serif" font-size="18.00">1997</text>
</a>
</g>
</g>
<!-- obs -->
<g id="node5" class="node">
<title>obs</title>
<polygon fill="lightblue" stroke="black" points="1381.77,-980.37 1315.52,-980.37 1315.52,-944.37 1381.77,-944.37 1381.77,-980.37"/>
<text xml:space="preserve" text-anchor="middle" x="1348.64" y="-957.32" font-family="Times,serif" font-size="14.00">obsoletes</text>
</g>
<!-- RFC2255&#45;&gt;obs -->
<g id="edge4" class="edge">
<title>RFC2255&#45;&gt;obs</title>
<path fill="none" stroke="black" d="M1069.44,-887.56C1147.56,-908.49 1247.67,-935.32 1304.33,-950.5"/>
<polygon fill="black" stroke="black" points="1303.37,-953.87 1313.94,-953.07 1305.18,-947.1 1303.37,-953.87"/>
</g>
<!-- updates -->
<g id="node7" class="node">
<title>updates</title>
<polygon fill="lightyellow" stroke="black" points="1272.51,-1161.83 1215.26,-1161.83 1215.26,-1125.83 1272.51,-1125.83 1272.51,-1161.83"/>
<text xml:space="preserve" text-anchor="middle" x="1243.88" y="-1138.78" font-family="Times,serif" font-size="14.00">updates</text>
</g>
<!-- RFC2255&#45;&gt;updates -->
<g id="edge6" class="edge">
<title>RFC2255&#45;&gt;updates</title>
<path fill="none" stroke="black" d="M1005.9,-905.84C1066.76,-966.71 1169.31,-1069.25 1217.44,-1117.38"/>
<polygon fill="black" stroke="black" points="1214.88,-1119.78 1224.43,-1124.37 1219.83,-1114.83 1214.88,-1119.78"/>
</g>
<!-- cites -->
<g id="node10" class="node">
<title>cites</title>
<polygon fill="lightblue" stroke="black" points="1089.43,-1266.59 1035.43,-1266.59 1035.43,-1230.59 1089.43,-1230.59 1089.43,-1266.59"/>
<text xml:space="preserve" text-anchor="middle" x="1062.43" y="-1243.54" font-family="Times,serif" font-size="14.00">cites</text>
</g>
<!-- RFC2255&#45;&gt;cites -->
<g id="edge9" class="edge">
<title>RFC2255&#45;&gt;cites</title>
<path fill="none" stroke="black" d="M971.36,-908.73C993.6,-991.71 1036.85,-1153.13 1054.57,-1219.26"/>
<polygon fill="black" stroke="black" points="1051.12,-1219.89 1057.09,-1228.64 1057.88,-1218.08 1051.12,-1219.89"/>
</g>
<!-- obs_by -->
<g id="node2" class="node">
<title>obs_by</title>
<polygon fill="lightblue" stroke="black" points="788.41,-1226.15 722.16,-1226.15 722.16,-1190.15 788.41,-1190.15 788.41,-1226.15"/>
<text xml:space="preserve" text-anchor="middle" x="755.28" y="-1203.1" font-family="Times,serif" font-size="14.00">obsoletes</text>
</g>
<!-- obs_by&#45;&gt;RFC2255 -->
<g id="edge1" class="edge">
<title>obs_by&#45;&gt;RFC2255</title>
<path fill="none" stroke="black" d="M765.88,-1189.8C794.8,-1139.71 876.04,-999 922.99,-917.68"/>
<polygon fill="black" stroke="black" points="925.81,-919.79 927.78,-909.38 919.75,-916.29 925.81,-919.79"/>
</g>
<!-- RFC4510 -->
<g id="node3" class="node">
<title>RFC4510</title>
<g id="a_node3"><a xlink:href="RFC4510.html" xlink:title="The Lightweight Directory Access Protocol (LDAP) is an Internet protocol for accessing distributed directory services that act in accordance with X.500 data and service models. &#160;This document provides a road map of the LDAP Technical Specification. [STANDARDS&#45;TRACK]" target="_top">
<ellipse fill="none" stroke="black" cx="748.14" cy="-1639.56" rx="181.55" ry="52.33"/>
<text xml:space="preserve" text-anchor="middle" x="748.14" y="-1659.26" font-family="Times,serif" font-size="14.00">RFC4510</text>
<text xml:space="preserve" text-anchor="middle" x="748.14" y="-1642.76" font-family="Times,serif" font-size="14.00">Lightweight Directory Access Protocol</text>
<text xml:space="preserve" text-anchor="middle" x="748.14" y="-1626.26" font-family="Times,serif" font-size="14.00">(LDAP): Technical Specification Road Map</text>
<text xml:space="preserve" text-anchor="middle" x="748.14" y="-1609.76" font-family="Times,serif" font-size="14.00">2006</text>
</a>
</g>
</g>
<!-- RFC4510&#45;&gt;obs_by -->
<g id="edge2" class="edge">
<title>RFC4510&#45;&gt;obs_by</title>
<path fill="none" stroke="black" d="M749.01,-1587.1C750.53,-1495.61 753.6,-1309.76 754.8,-1237.67"/>
<polygon fill="black" stroke="black" points="758.29,-1237.91 754.96,-1227.85 751.29,-1237.79 758.29,-1237.91"/>
</g>
<!-- RFC4516 -->
<g id="node4" class="node">
<title>RFC4516</title>
<g id="a_node4"><a xlink:href="RFC4516.html" xlink:title="This document describes a format for a Lightweight Directory Access Protocol (LDAP) Uniform Resource Locator (URL). &#160;An LDAP URL describes an LDAP search operation that is used to retrieve information from an LDAP directory, or, in the context of an LDAP referral or reference, an LDAP URL describes a service where an LDAP operation may be progressed. [STANDARDS&#45;TRACK]" target="_top">
<ellipse fill="none" stroke="black" cx="385.24" cy="-1430.04" rx="161.4" ry="52.33"/>
<text xml:space="preserve" text-anchor="middle" x="385.24" y="-1449.74" font-family="Times,serif" font-size="14.00">RFC4516</text>
<text xml:space="preserve" text-anchor="middle" x="385.24" y="-1433.24" font-family="Times,serif" font-size="14.00">Lightweight Directory Access Protocol</text>
<text xml:space="preserve" text-anchor="middle" x="385.24" y="-1416.74" font-family="Times,serif" font-size="14.00">(LDAP): Uniform Resource Locator</text>
<text xml:space="preserve" text-anchor="middle" x="385.24" y="-1400.24" font-family="Times,serif" font-size="14.00">2006</text>
</a>
</g>
</g>
<!-- RFC4516&#45;&gt;obs_by -->
<g id="edge3" class="edge">
<title>RFC4516&#45;&gt;obs_by</title>
<path fill="none" stroke="black" d="M462.36,-1383.8C539.41,-1337.6 654.83,-1268.39 715.21,-1232.18"/>
<polygon fill="black" stroke="black" points="716.69,-1235.37 723.47,-1227.23 713.09,-1229.37 716.69,-1235.37"/>
</g>
<!-- RFC1959 -->
<g id="node6" class="node">
<title>RFC1959</title>
<g id="a_node6"><a xlink:href="RFC1959.html" xlink:title="This document describes a format for an LDAP Uniform Resource Locator which will allow Internet clients to have direct access to the LDAP protocol. [STANDARDS&#45;TRACK]" target="_top">
<ellipse fill="none" stroke="black" cx="1739.62" cy="-1067.14" rx="102" ry="40.66"/>
<text xml:space="preserve" text-anchor="middle" x="1739.62" y="-1078.59" font-family="Times,serif" font-size="14.00">RFC1959</text>
<text xml:space="preserve" text-anchor="middle" x="1739.62" y="-1062.09" font-family="Times,serif" font-size="14.00">An LDAP URL Format</text>
<text xml:space="preserve" text-anchor="middle" x="1739.62" y="-1045.59" font-family="Times,serif" font-size="14.00">1996</text>
</a>
</g>
</g>
<!-- obs&#45;&gt;RFC1959 -->
<g id="edge5" class="edge">
<title>obs&#45;&gt;RFC1959</title>
<path fill="none" stroke="black" d="M1381.98,-971.31C1439.3,-986.66 1558.56,-1018.62 1643.6,-1041.41"/>
<polygon fill="black" stroke="black" points="1642.55,-1044.75 1653.11,-1043.96 1644.36,-1037.99 1642.55,-1044.75"/>
</g>
<!-- updated_by -->
<g id="node8" class="node">
<title>updated_by</title>
<polygon fill="lightyellow" stroke="black" points="595.32,-980.37 538.07,-980.37 538.07,-944.37 595.32,-944.37 595.32,-980.37"/>
<text xml:space="preserve" text-anchor="middle" x="566.69" y="-957.32" font-family="Times,serif" font-size="14.00">updates</text>
</g>
<!-- updated_by&#45;&gt;RFC2255 -->
<g id="edge7" class="edge">
<title>updated_by&#45;&gt;RFC2255</title>
<path fill="none" stroke="black" d="M595.76,-954.59C645.77,-941.18 750.84,-913.03 834.95,-890.5"/>
<polygon fill="black" stroke="black" points="835.66,-893.93 844.42,-887.96 833.85,-887.17 835.66,-893.93"/>
</g>
<!-- RFC3377 -->
<g id="node9" class="node">
<title>RFC3377</title>
<g id="a_node9"><a xlink:href="RFC3377.html" xlink:title="None" target="_top">
<ellipse fill="none" stroke="black" cx="175.72" cy="-1067.14" rx="161.4" ry="52.33"/>
<text xml:space="preserve" text-anchor="middle" x="175.72" y="-1086.84" font-family="Times,serif" font-size="14.00">RFC3377</text>
<text xml:space="preserve" text-anchor="middle" x="175.72" y="-1070.34" font-family="Times,serif" font-size="14.00">Lightweight Directory Access Protocol</text>
<text xml:space="preserve" text-anchor="middle" x="175.72" y="-1053.84" font-family="Times,serif" font-size="14.00">(v3): Technical Specification</text>
<text xml:space="preserve" text-anchor="middle" x="175.72" y="-1037.34" font-family="Times,serif" font-size="14.00">2002</text>
</a>
</g>
</g>
<!-- RFC3377&#45;&gt;updated_by -->
<g id="edge8" class="edge">
<title>RFC3377&#45;&gt;updated_by</title>
<path fill="none" stroke="black" d="M300.77,-1033.63C378.82,-1012.71 474.17,-987.16 526.87,-973.04"/>
<polygon fill="black" stroke="black" points="527.54,-976.49 536.3,-970.52 525.73,-969.73 527.54,-976.49"/>
</g>
<!-- rev_cites -->
<g id="node11" class="node">
<title>rev_cites</title>
<polygon fill="lightblue" stroke="black" points="984.67,-470.84 930.67,-470.84 930.67,-434.84 984.67,-434.84 984.67,-470.84"/>
<text xml:space="preserve" text-anchor="middle" x="957.67" y="-447.79" font-family="Times,serif" font-size="14.00">cites</text>
</g>
<!-- RFC3377&#45;&gt;rev_cites -->
<g id="edge13" class="edge">
<title>RFC3377&#45;&gt;rev_cites</title>
<path fill="none" stroke="black" d="M237.73,-1018.42C395.29,-894.64 806.91,-571.28 925.35,-478.23"/>
<polygon fill="black" stroke="black" points="927.43,-481.05 933.13,-472.12 923.1,-475.55 927.43,-481.05"/>
</g>
<!-- rev_cites&#45;&gt;RFC2255 -->
<g id="edge10" class="edge">
<title>rev_cites&#45;&gt;RFC2255</title>
<path fill="none" stroke="black" d="M957.67,-471.29C957.67,-527.85 957.67,-700.74 957.67,-794.9"/>
<polygon fill="black" stroke="black" points="954.17,-794.74 957.67,-804.74 961.17,-794.74 954.17,-794.74"/>
</g>
<!-- RFC3088 -->
<g id="node12" class="node">
<title>RFC3088</title>
<g id="a_node12"><a xlink:href="RFC3088.html" xlink:title="The OpenLDAP Project is operating an experimental LDAP (Lightweight Directory Access Protocol) referral service known as the OpenLDAP Root Service. &#160;The automated system generates referrals based upon service location information published in DNS SRV RRs (Domain Name System location of services resource records). &#160;This document describes this service. &#160;This memo defines an Experimental Protocol for the Internet community." target="_top">
<ellipse fill="none" stroke="black" cx="175.72" cy="-648.09" rx="175.72" ry="52.33"/>
<text xml:space="preserve" text-anchor="middle" x="175.72" y="-667.79" font-family="Times,serif" font-size="14.00">RFC3088</text>
<text xml:space="preserve" text-anchor="middle" x="175.72" y="-651.29" font-family="Times,serif" font-size="14.00">OpenLDAP Root Service An experimental</text>
<text xml:space="preserve" text-anchor="middle" x="175.72" y="-634.79" font-family="Times,serif" font-size="14.00">LDAP referral service</text>
<text xml:space="preserve" text-anchor="middle" x="175.72" y="-618.29" font-family="Times,serif" font-size="14.00">2001</text>
</a>
</g>
</g>
<!-- RFC3088&#45;&gt;rev_cites -->
<g id="edge11" class="edge">
<title>RFC3088&#45;&gt;rev_cites</title>
<path fill="none" stroke="black" d="M311.03,-614.3C494.07,-568.6 810.24,-489.66 919.34,-462.41"/>
<polygon fill="black" stroke="black" points="920.1,-465.83 928.96,-460.01 918.41,-459.04 920.1,-465.83"/>
</g>
<!-- RFC3296 -->
<g id="node13" class="node">
<title>RFC3296</title>
<g id="a_node13"><a xlink:href="RFC3296.html" xlink:title="This document details schema and protocol elements for representing and managing named subordinate references in Lightweight Directory Access Protocol (LDAP) Directories. [STANDARDS&#45;TRACK]" target="_top">
<ellipse fill="none" stroke="black" cx="385.24" cy="-285.18" rx="161.4" ry="63.99"/>
<text xml:space="preserve" text-anchor="middle" x="385.24" y="-313.13" font-family="Times,serif" font-size="14.00">RFC3296</text>
<text xml:space="preserve" text-anchor="middle" x="385.24" y="-296.63" font-family="Times,serif" font-size="14.00">Named Subordinate References in</text>
<text xml:space="preserve" text-anchor="middle" x="385.24" y="-280.13" font-family="Times,serif" font-size="14.00">Lightweight Directory Access Protocol</text>
<text xml:space="preserve" text-anchor="middle" x="385.24" y="-263.63" font-family="Times,serif" font-size="14.00">(LDAP) Directories</text>
<text xml:space="preserve" text-anchor="middle" x="385.24" y="-247.13" font-family="Times,serif" font-size="14.00">2002</text>
</a>
</g>
</g>
<!-- RFC3296&#45;&gt;rev_cites -->
<g id="edge12" class="edge">
<title>RFC3296&#45;&gt;rev_cites</title>
<path fill="none" stroke="black" d="M515.49,-323.33C645.94,-361.54 838.62,-417.98 919.61,-441.7"/>
<polygon fill="black" stroke="black" points="918.25,-444.95 928.83,-444.4 920.22,-438.23 918.25,-444.95"/>
</g>
<!-- RFC3383 -->
<g id="node14" class="node">
<title>RFC3383</title>
<g id="a_node14"><a xlink:href="RFC3383.html" xlink:title="None" target="_top">
<ellipse fill="none" stroke="black" cx="748.14" cy="-75.66" rx="161.4" ry="75.66"/>
<text xml:space="preserve" text-anchor="middle" x="748.14" y="-111.86" font-family="Times,serif" font-size="14.00">RFC3383</text>
<text xml:space="preserve" text-anchor="middle" x="748.14" y="-95.36" font-family="Times,serif" font-size="14.00">Internet Assigned Numbers Authority</text>
<text xml:space="preserve" text-anchor="middle" x="748.14" y="-78.86" font-family="Times,serif" font-size="14.00">(IANA) Considerations for the</text>
<text xml:space="preserve" text-anchor="middle" x="748.14" y="-62.36" font-family="Times,serif" font-size="14.00">Lightweight Directory Access Protocol</text>
<text xml:space="preserve" text-anchor="middle" x="748.14" y="-45.86" font-family="Times,serif" font-size="14.00">(LDAP)</text>
<text xml:space="preserve" text-anchor="middle" x="748.14" y="-29.36" font-family="Times,serif" font-size="14.00">2002</text>
</a>
</g>
</g>
<!-- RFC3383&#45;&gt;rev_cites -->
<g id="edge14" class="edge">
<title>RFC3383&#45;&gt;rev_cites</title>
<path fill="none" stroke="black" d="M789.04,-149.28C835.79,-233.44 909.98,-367 942.05,-424.73"/>
<polygon fill="black" stroke="black" points="938.88,-426.24 946.8,-433.28 945,-422.84 938.88,-426.24"/>
</g>
<!-- RFC3384 -->
<g id="node15" class="node">
<title>RFC3384</title>
<g id="a_node15"><a xlink:href="RFC3384.html" xlink:title="None" target="_top">
<ellipse fill="none" stroke="black" cx="1167.19" cy="-75.66" rx="161.4" ry="52.33"/>
<text xml:space="preserve" text-anchor="middle" x="1167.19" y="-95.36" font-family="Times,serif" font-size="14.00">RFC3384</text>
<text xml:space="preserve" text-anchor="middle" x="1167.19" y="-78.86" font-family="Times,serif" font-size="14.00">Lightweight Directory Access Protocol</text>
<text xml:space="preserve" text-anchor="middle" x="1167.19" y="-62.36" font-family="Times,serif" font-size="14.00">(version 3) Replication Requirements</text>
<text xml:space="preserve" text-anchor="middle" x="1167.19" y="-45.86" font-family="Times,serif" font-size="14.00">2002</text>
</a>
</g>
</g>
<!-- RFC3384&#45;&gt;rev_cites -->
<g id="edge15" class="edge">
<title>RFC3384&#45;&gt;rev_cites</title>
<path fill="none" stroke="black" d="M1138.5,-127.32C1093.68,-207.99 1008.57,-361.21 973.44,-424.45"/>
<polygon fill="black" stroke="black" points="970.39,-422.73 968.6,-433.17 976.51,-426.13 970.39,-422.73"/>
</g>
<!-- RFC3673 -->
<g id="node16" class="node">
<title>RFC3673</title>
<g id="a_node16"><a xlink:href="RFC3673.html" xlink:title="The Lightweight Directory Access Protocol (LDAP) supports a mechanism for requesting the return of all user attributes but not all operational attributes. &#160;This document describes an LDAP extension which clients may use to request the return of all operational attributes." target="_top">
<ellipse fill="none" stroke="black" cx="1530.1" cy="-285.18" rx="161.4" ry="63.99"/>
<text xml:space="preserve" text-anchor="middle" x="1530.1" y="-313.13" font-family="Times,serif" font-size="14.00">RFC3673</text>
<text xml:space="preserve" text-anchor="middle" x="1530.1" y="-296.63" font-family="Times,serif" font-size="14.00">Lightweight Directory Access Protocol</text>
<text xml:space="preserve" text-anchor="middle" x="1530.1" y="-280.13" font-family="Times,serif" font-size="14.00">version 3 (LDAPv3): All Operational</text>
<text xml:space="preserve" text-anchor="middle" x="1530.1" y="-263.63" font-family="Times,serif" font-size="14.00">Attributes</text>
<text xml:space="preserve" text-anchor="middle" x="1530.1" y="-247.13" font-family="Times,serif" font-size="14.00">2003</text>
</a>
</g>
</g>
<!-- RFC3673&#45;&gt;rev_cites -->
<g id="edge16" class="edge">
<title>RFC3673&#45;&gt;rev_cites</title>
<path fill="none" stroke="black" d="M1399.85,-323.33C1269.39,-361.54 1076.72,-417.98 995.72,-441.7"/>
<polygon fill="black" stroke="black" points="995.12,-438.23 986.51,-444.4 997.09,-444.95 995.12,-438.23"/>
</g>
<!-- RFC3744 -->
<g id="node17" class="node">
<title>RFC3744</title>
<g id="a_node17"><a xlink:href="RFC3744.html" xlink:title="This document specifies a set of methods, headers, message bodies, properties, and reports that define Access Control extensions to the WebDAV Distributed Authoring Protocol. &#160;This protocol permits a client to read and modify access control lists that instruct a server whether to allow or deny operations upon a resource (such as HyperText Transfer Protocol (HTTP) method invocations) by a given principal. &#160;A lightweight representation of principals as Web resources supports integration of a wide range of user management repositories. &#160;Search operations allow discovery and manipulation of principals using human names. [STANDARDS&#45;TRACK]" target="_top">
<ellipse fill="none" stroke="black" cx="1739.62" cy="-648.09" rx="176.25" ry="52.33"/>
<text xml:space="preserve" text-anchor="middle" x="1739.62" y="-667.79" font-family="Times,serif" font-size="14.00">RFC3744</text>
<text xml:space="preserve" text-anchor="middle" x="1739.62" y="-651.29" font-family="Times,serif" font-size="14.00">Web Distributed Authoring and Versioning</text>
<text xml:space="preserve" text-anchor="middle" x="1739.62" y="-634.79" font-family="Times,serif" font-size="14.00">(WebDAV) Access Control Protocol</text>
<text xml:space="preserve" text-anchor="middle" x="1739.62" y="-618.29" font-family="Times,serif" font-size="14.00">2004</text>
</a>
</g>
</g>
<!-- RFC3744&#45;&gt;rev_cites -->
<g id="edge17" class="edge">
<title>RFC3744&#45;&gt;rev_cites</title>
<path fill="none" stroke="black" d="M1604.31,-614.3C1421.27,-568.6 1105.1,-489.66 995.99,-462.41"/>
<polygon fill="black" stroke="black" points="996.93,-459.04 986.38,-460.01 995.23,-465.83 996.93,-459.04"/>
</g>
</g>
</svg>
