<?xml version="1.0" encoding="UTF-8" standalone="no"?>
<!DOCTYPE svg PUBLIC "-//W3C//DTD SVG 1.1//EN"
 "http://www.w3.org/Graphics/SVG/1.1/DTD/svg11.dtd">
<!-- Generated by graphviz version 14.1.1 (20251213.1925)
 -->
<!-- Title: Flow Pages: 1 -->
<svg width="1423pt" height="1010pt"
 viewBox="0.00 0.00 1423.00 1010.00" xmlns="http://www.w3.org/2000/svg" xmlns:xlink="http://www.w3.org/1999/xlink">
<g id="graph0" class="graph" transform="scale(1 1) rotate(0) translate(4 1006.42)">
<title>Flow</title>
<polygon fill="white" stroke="none" points="-4,4 -4,-1006.42 1419.15,-1006.42 1419.15,4 -4,4"/>
<!-- RFC2250 -->
<g id="node1" class="node">
<title>RFC2250</title>
<g id="a_node1"><a xlink:title="This memo describes a packetization scheme for MPEG video and audio streams. [STANDARDS&#45;TRACK] The purpose of this document is to express the general Internet community&#39;s expectations of Computer Security Incident Response Teams (CSIRTs). &#160;It is not possible to define a set of requirements that would be appropriate for all teams, but it is possible and helpful to list and describe the general set of topics and issues which are of concern and interest to constituent communities. &#160;This document specifies an Internet Best Current Practices for the Internet Community, and requests discussion and suggestions for improvements.">
<ellipse fill="green" stroke="black" stroke-width="3" cx="426.92" cy="-507.04" rx="259.51" ry="50.2"/>
<text xml:space="preserve" text-anchor="middle" x="426.92" y="-521.44" font-family="Times,serif" font-size="18.00">RFC2250</text>
<text xml:space="preserve" text-anchor="middle" x="426.92" y="-500.44" font-family="Times,serif" font-size="18.00">RTP Payload Format for MPEG1/MPEG2 Video</text>
<text xml:space="preserve" text-anchor="middle" x="426.92" y="-479.44" font-family="Times,serif" font-size="18.00">1998</text>
</a>
</g>
</g>
<!-- obs -->
<g id="node3" class="node">
<title>obs</title>
<polygon fill="lightblue" stroke="black" points="853.84,-752.4 787.59,-752.4 787.59,-716.4 853.84,-716.4 853.84,-752.4"/>
<text xml:space="preserve" text-anchor="middle" x="820.72" y="-729.35" font-family="Times,serif" font-size="14.00">obsoletes</text>
</g>
<!-- RFC2250&#45;&gt;obs -->
<g id="edge2" class="edge">
<title>RFC2250&#45;&gt;obs</title>
<path fill="none" stroke="black" d="M511.4,-555.82C593.99,-603.5 716.27,-674.09 779.5,-710.6"/>
<polygon fill="black" stroke="black" points="777.4,-713.43 787.81,-715.4 780.9,-707.37 777.4,-713.43"/>
</g>
<!-- updates -->
<g id="node5" class="node">
<title>updates</title>
<polygon fill="lightyellow" stroke="black" points="455.55,-979.76 398.3,-979.76 398.3,-943.76 455.55,-943.76 455.55,-979.76"/>
<text xml:space="preserve" text-anchor="middle" x="426.92" y="-956.71" font-family="Times,serif" font-size="14.00">updates</text>
</g>
<!-- RFC2250&#45;&gt;updates -->
<g id="edge4" class="edge">
<title>RFC2250&#45;&gt;updates</title>
<path fill="none" stroke="black" d="M426.92,-558.32C426.92,-653.81 426.92,-856.06 426.92,-932.06"/>
<polygon fill="black" stroke="black" points="423.42,-932.03 426.92,-942.03 430.42,-932.03 423.42,-932.03"/>
</g>
<!-- cites -->
<g id="node7" class="node">
<title>cites</title>
<polygon fill="lightblue" stroke="black" points="60.13,-752.4 6.13,-752.4 6.13,-716.4 60.13,-716.4 60.13,-752.4"/>
<text xml:space="preserve" text-anchor="middle" x="33.13" y="-729.35" font-family="Times,serif" font-size="14.00">cites</text>
</g>
<!-- RFC2250&#45;&gt;cites -->
<g id="edge6" class="edge">
<title>RFC2250&#45;&gt;cites</title>
<path fill="none" stroke="black" d="M342.44,-555.82C257.88,-604.64 131.72,-677.48 69.92,-713.16"/>
<polygon fill="black" stroke="black" points="68.44,-709.97 61.53,-718 71.94,-716.03 68.44,-709.97"/>
</g>
<!-- obs_by -->
<g id="node2" class="node">
<title>obs_by</title>
<polygon fill="lightblue" stroke="black" points="66.25,-297.68 0,-297.68 0,-261.68 66.25,-261.68 66.25,-297.68"/>
<text xml:space="preserve" text-anchor="middle" x="33.13" y="-274.63" font-family="Times,serif" font-size="14.00">obsoletes</text>
</g>
<!-- obs_by&#45;&gt;RFC2250 -->
<g id="edge1" class="edge">
<title>obs_by&#45;&gt;RFC2250</title>
<path fill="none" stroke="black" d="M65.02,-298.1C122.58,-331.33 245.9,-402.53 332.52,-452.54"/>
<polygon fill="black" stroke="black" points="330.65,-455.5 341.06,-457.47 334.15,-449.44 330.65,-455.5"/>
</g>
<!-- RFC2038 -->
<g id="node4" class="node">
<title>RFC2038</title>
<g id="a_node4"><a xlink:href="RFC2038.html" xlink:title="This memo describes a packetization scheme for MPEG video and audio streams. &#160;The scheme proposed can be used to transport such a video or audio flow over the transport protocols supported by RTP. [STANDARDS&#45;TRACK]" target="_top">
<ellipse fill="none" stroke="black" cx="1214.51" cy="-961.76" rx="200.64" ry="40.66"/>
<text xml:space="preserve" text-anchor="middle" x="1214.51" y="-973.21" font-family="Times,serif" font-size="14.00">RFC2038</text>
<text xml:space="preserve" text-anchor="middle" x="1214.51" y="-956.71" font-family="Times,serif" font-size="14.00">RTP Payload Format for MPEG1/MPEG2 Video</text>
<text xml:space="preserve" text-anchor="middle" x="1214.51" y="-940.21" font-family="Times,serif" font-size="14.00">1996</text>
</a>
</g>
</g>
<!-- obs&#45;&gt;RFC2038 -->
<g id="edge3" class="edge">
<title>obs&#45;&gt;RFC2038</title>
<path fill="none" stroke="black" d="M852.61,-752.81C914.23,-788.39 1051.2,-867.47 1137.84,-917.49"/>
<polygon fill="black" stroke="black" points="1135.9,-920.41 1146.31,-922.38 1139.4,-914.35 1135.9,-920.41"/>
</g>
<!-- updated_by -->
<g id="node6" class="node">
<title>updated_by</title>
<polygon fill="lightyellow" stroke="black" points="455.55,-70.33 398.3,-70.33 398.3,-34.33 455.55,-34.33 455.55,-70.33"/>
<text xml:space="preserve" text-anchor="middle" x="426.92" y="-47.28" font-family="Times,serif" font-size="14.00">updates</text>
</g>
<!-- updated_by&#45;&gt;RFC2250 -->
<g id="edge5" class="edge">
<title>updated_by&#45;&gt;RFC2250</title>
<path fill="none" stroke="black" d="M426.92,-70.71C426.92,-133.17 426.92,-339.12 426.92,-444.19"/>
<polygon fill="black" stroke="black" points="423.42,-444.05 426.92,-454.05 430.42,-444.05 423.42,-444.05"/>
</g>
<!-- rev_cites -->
<g id="node8" class="node">
<title>rev_cites</title>
<polygon fill="lightblue" stroke="black" points="847.72,-297.68 793.72,-297.68 793.72,-261.68 847.72,-261.68 847.72,-297.68"/>
<text xml:space="preserve" text-anchor="middle" x="820.72" y="-274.63" font-family="Times,serif" font-size="14.00">cites</text>
</g>
<!-- rev_cites&#45;&gt;RFC2250 -->
<g id="edge7" class="edge">
<title>rev_cites&#45;&gt;RFC2250</title>
<path fill="none" stroke="black" d="M793.34,-295.49C737.94,-327.47 610.28,-401.18 521.32,-452.54"/>
<polygon fill="black" stroke="black" points="519.71,-449.43 512.8,-457.46 523.21,-455.49 519.71,-449.43"/>
</g>
<!-- RFC6469 -->
<g id="node9" class="node">
<title>RFC6469</title>
<g id="a_node9"><a xlink:href="RFC6469.html" xlink:title="This document specifies the packetization scheme for encapsulating the compressed digital video data streams commonly known as DV into a payload format for the Real&#45;Time Transport Protocol (RTP). &#160;This document obsoletes RFC 3189. [STANDARDS&#45;TRACK]" target="_top">
<ellipse fill="none" stroke="black" cx="1214.51" cy="-52.33" rx="173.06" ry="52.33"/>
<text xml:space="preserve" text-anchor="middle" x="1214.51" y="-72.03" font-family="Times,serif" font-size="14.00">RFC6469</text>
<text xml:space="preserve" text-anchor="middle" x="1214.51" y="-55.53" font-family="Times,serif" font-size="14.00">RTP Payload Format for DV (IEC 61834)</text>
<text xml:space="preserve" text-anchor="middle" x="1214.51" y="-39.03" font-family="Times,serif" font-size="14.00">Video</text>
<text xml:space="preserve" text-anchor="middle" x="1214.51" y="-22.53" font-family="Times,serif" font-size="14.00">2011</text>
</a>
</g>
</g>
<!-- RFC6469&#45;&gt;rev_cites -->
<g id="edge8" class="edge">
<title>RFC6469&#45;&gt;rev_cites</title>
<path fill="none" stroke="black" d="M1133.87,-98.88C1049.46,-147.62 920.64,-221.99 857.8,-258.27"/>
<polygon fill="black" stroke="black" points="856.15,-255.18 849.24,-263.21 859.65,-261.24 856.15,-255.18"/>
</g>
</g>
</svg>
