<?xml version="1.0" encoding="UTF-8" standalone="no"?>
<!DOCTYPE svg PUBLIC "-//W3C//DTD SVG 1.1//EN"
 "http://www.w3.org/Graphics/SVG/1.1/DTD/svg11.dtd">
<!-- Generated by graphviz version 14.1.1 (20251213.1925)
 -->
<!-- Title: Flow Pages: 1 -->
<svg width="1076pt" height="1154pt"
 viewBox="0.00 0.00 1076.00 1154.00" xmlns="http://www.w3.org/2000/svg" xmlns:xlink="http://www.w3.org/1999/xlink">
<g id="graph0" class="graph" transform="scale(1 1) rotate(0) translate(4 1150.12)">
<title>Flow</title>
<polygon fill="white" stroke="none" points="-4,4 -4,-1150.12 1071.88,-1150.12 1071.88,4 -4,4"/>
<!-- RFC2348 -->
<g id="node1" class="node">
<title>RFC2348</title>
<g id="a_node1"><a xlink:title="The Trivial File Transfer Protocol is a simple, lock&#45;step, file transfer protocol which allows a client to get or put a file onto a remote host. &#160;This document describes a TFTP option which allows the client and server to negotiate a blocksize more applicable to the network medium. [STANDARDS&#45;TRACK]">
<ellipse fill="green" stroke="black" stroke-width="3" cx="340.51" cy="-395.59" rx="133.82" ry="50.2"/>
<text xml:space="preserve" text-anchor="middle" x="340.51" y="-409.99" font-family="Times,serif" font-size="18.00">RFC2348</text>
<text xml:space="preserve" text-anchor="middle" x="340.51" y="-388.99" font-family="Times,serif" font-size="18.00">TFTP Blocksize Option</text>
<text xml:space="preserve" text-anchor="middle" x="340.51" y="-367.99" font-family="Times,serif" font-size="18.00">1998</text>
</a>
</g>
</g>
<!-- obs -->
<g id="node3" class="node">
<title>obs</title>
<polygon fill="lightblue" stroke="black" points="681.02,-591.06 614.77,-591.06 614.77,-555.06 681.02,-555.06 681.02,-591.06"/>
<text xml:space="preserve" text-anchor="middle" x="647.89" y="-568.01" font-family="Times,serif" font-size="14.00">obsoletes</text>
</g>
<!-- RFC2348&#45;&gt;obs -->
<g id="edge2" class="edge">
<title>RFC2348&#45;&gt;obs</title>
<path fill="none" stroke="black" d="M414.92,-438.55C474.97,-473.22 557.25,-520.73 606.25,-549.02"/>
<polygon fill="black" stroke="black" points="604.46,-552.03 614.87,-554 607.96,-545.97 604.46,-552.03"/>
</g>
<!-- updates -->
<g id="node5" class="node">
<title>updates</title>
<polygon fill="lightyellow" stroke="black" points="369.13,-768.53 311.88,-768.53 311.88,-732.53 369.13,-732.53 369.13,-768.53"/>
<text xml:space="preserve" text-anchor="middle" x="340.51" y="-745.48" font-family="Times,serif" font-size="14.00">updates</text>
</g>
<!-- RFC2348&#45;&gt;updates -->
<g id="edge4" class="edge">
<title>RFC2348&#45;&gt;updates</title>
<path fill="none" stroke="black" d="M340.51,-447.2C340.51,-522.57 340.51,-660.33 340.51,-720.77"/>
<polygon fill="black" stroke="black" points="337.01,-720.6 340.51,-730.6 344.01,-720.6 337.01,-720.6"/>
</g>
<!-- cites -->
<g id="node8" class="node">
<title>cites</title>
<polygon fill="lightblue" stroke="black" points="60.13,-591.06 6.13,-591.06 6.13,-555.06 60.13,-555.06 60.13,-591.06"/>
<text xml:space="preserve" text-anchor="middle" x="33.13" y="-568.01" font-family="Times,serif" font-size="14.00">cites</text>
</g>
<!-- RFC2348&#45;&gt;cites -->
<g id="edge7" class="edge">
<title>RFC2348&#45;&gt;cites</title>
<path fill="none" stroke="black" d="M266.1,-438.55C204.06,-474.37 118.29,-523.89 70.01,-551.77"/>
<polygon fill="black" stroke="black" points="68.51,-548.59 61.6,-556.62 72.01,-554.65 68.51,-548.59"/>
</g>
<!-- obs_by -->
<g id="node2" class="node">
<title>obs_by</title>
<polygon fill="lightblue" stroke="black" points="66.25,-236.13 0,-236.13 0,-200.13 66.25,-200.13 66.25,-236.13"/>
<text xml:space="preserve" text-anchor="middle" x="33.13" y="-213.08" font-family="Times,serif" font-size="14.00">obsoletes</text>
</g>
<!-- obs_by&#45;&gt;RFC2348 -->
<g id="edge1" class="edge">
<title>obs_by&#45;&gt;RFC2348</title>
<path fill="none" stroke="black" d="M65.15,-236.62C109.96,-262.49 192.96,-310.41 256.17,-346.9"/>
<polygon fill="black" stroke="black" points="254.41,-349.93 264.82,-351.9 257.91,-343.86 254.41,-349.93"/>
</g>
<!-- RFC1783 -->
<g id="node4" class="node">
<title>RFC1783</title>
<g id="a_node4"><a xlink:href="RFC1783.html" xlink:title="This document describes a TFTP option which allows the client and server to negotiate a blocksize more applicable to the network medium. [STANDARDS&#45;TRACK]" target="_top">
<ellipse fill="none" stroke="black" cx="955.27" cy="-750.53" rx="102.53" ry="40.66"/>
<text xml:space="preserve" text-anchor="middle" x="955.27" y="-761.98" font-family="Times,serif" font-size="14.00">RFC1783</text>
<text xml:space="preserve" text-anchor="middle" x="955.27" y="-745.48" font-family="Times,serif" font-size="14.00">TFTP Blocksize Option</text>
<text xml:space="preserve" text-anchor="middle" x="955.27" y="-728.98" font-family="Times,serif" font-size="14.00">1995</text>
</a>
</g>
</g>
<!-- obs&#45;&gt;RFC1783 -->
<g id="edge3" class="edge">
<title>obs&#45;&gt;RFC1783</title>
<path fill="none" stroke="black" d="M679.92,-591.55C728.69,-619.71 822.73,-674 887.22,-711.24"/>
<polygon fill="black" stroke="black" points="885.18,-714.1 895.59,-716.07 888.68,-708.04 885.18,-714.1"/>
</g>
<!-- RFC1350 -->
<g id="node6" class="node">
<title>RFC1350</title>
<g id="a_node6"><a xlink:href="RFC1350.html" xlink:title="TFTP is a very simple protocol used to transfer files. &#160;It is from this that its name comes, Trivial File Transfer Protocol or TFTP. &#160;Each nonterminal packet is acknowledged separately. &#160;This document describes the protocol and its types of packets. &#160;The document also explains the reasons behind some of the design decisions. [STANDARDS&#45;TRACK]" target="_top">
<ellipse fill="none" stroke="black" cx="340.51" cy="-1105.47" rx="135.41" ry="40.66"/>
<text xml:space="preserve" text-anchor="middle" x="340.51" y="-1116.92" font-family="Times,serif" font-size="14.00">RFC1350</text>
<text xml:space="preserve" text-anchor="middle" x="340.51" y="-1100.42" font-family="Times,serif" font-size="14.00">The TFTP Protocol (Revision 2)</text>
<text xml:space="preserve" text-anchor="middle" x="340.51" y="-1083.92" font-family="Times,serif" font-size="14.00">1992</text>
</a>
</g>
</g>
<!-- updates&#45;&gt;RFC1350 -->
<g id="edge5" class="edge">
<title>updates&#45;&gt;RFC1350</title>
<path fill="none" stroke="black" d="M340.51,-768.62C340.51,-820.66 340.51,-972.19 340.51,-1053.11"/>
<polygon fill="black" stroke="black" points="337.01,-1053 340.51,-1063 344.01,-1053 337.01,-1053"/>
</g>
<!-- updated_by -->
<g id="node7" class="node">
<title>updated_by</title>
<polygon fill="lightyellow" stroke="black" points="369.13,-58.66 311.88,-58.66 311.88,-22.66 369.13,-22.66 369.13,-58.66"/>
<text xml:space="preserve" text-anchor="middle" x="340.51" y="-35.61" font-family="Times,serif" font-size="14.00">updates</text>
</g>
<!-- updated_by&#45;&gt;RFC2348 -->
<g id="edge6" class="edge">
<title>updated_by&#45;&gt;RFC2348</title>
<path fill="none" stroke="black" d="M340.51,-58.75C340.51,-108.6 340.51,-249.76 340.51,-332.67"/>
<polygon fill="black" stroke="black" points="337.01,-332.46 340.51,-342.46 344.01,-332.46 337.01,-332.46"/>
</g>
<!-- rev_cites -->
<g id="node9" class="node">
<title>rev_cites</title>
<polygon fill="lightblue" stroke="black" points="674.89,-236.13 620.89,-236.13 620.89,-200.13 674.89,-200.13 674.89,-236.13"/>
<text xml:space="preserve" text-anchor="middle" x="647.89" y="-213.08" font-family="Times,serif" font-size="14.00">cites</text>
</g>
<!-- rev_cites&#45;&gt;RFC2348 -->
<g id="edge8" class="edge">
<title>rev_cites&#45;&gt;RFC2348</title>
<path fill="none" stroke="black" d="M620.61,-233.88C577.15,-258.97 490.41,-309.05 424.9,-346.87"/>
<polygon fill="black" stroke="black" points="423.21,-343.8 416.3,-351.83 426.71,-349.86 423.21,-343.8"/>
</g>
<!-- RFC7440 -->
<g id="node10" class="node">
<title>RFC7440</title>
<g id="a_node10"><a xlink:href="RFC7440.html" xlink:title="The Trivial File Transfer Protocol (RFC 1350) is a simple, lockstep, file transfer protocol that allows a client to get or put a file onto a remote host. One of its primary uses is in the early stages of nodes booting from a Local Area Network (LAN). TFTP has been used for this application because it is very simple to implement. The employment of a lockstep scheme limits throughput when used on a LAN. This document describes a TFTP option that allows the client and server to negotiate a window size of consecutive blocks to send as an alternative for replacing the single&#45;block lockstep schema. The TFTP option mechanism employed is described in TFTP Option Extension (RFC 2347)." target="_top">
<ellipse fill="none" stroke="black" cx="955.27" cy="-40.66" rx="112.61" ry="40.66"/>
<text xml:space="preserve" text-anchor="middle" x="955.27" y="-52.11" font-family="Times,serif" font-size="14.00">RFC7440</text>
<text xml:space="preserve" text-anchor="middle" x="955.27" y="-35.61" font-family="Times,serif" font-size="14.00">TFTP Windowsize Option</text>
<text xml:space="preserve" text-anchor="middle" x="955.27" y="-19.11" font-family="Times,serif" font-size="14.00">2015</text>
</a>
</g>
</g>
<!-- RFC7440&#45;&gt;rev_cites -->
<g id="edge9" class="edge">
<title>RFC7440&#45;&gt;rev_cites</title>
<path fill="none" stroke="black" d="M895.28,-75.3C832.87,-111.33 737.14,-166.6 684.95,-196.73"/>
<polygon fill="black" stroke="black" points="683.34,-193.62 676.43,-201.65 686.84,-199.68 683.34,-193.62"/>
</g>
</g>
</svg>
