<?xml version="1.0" encoding="UTF-8" standalone="no"?>
<!DOCTYPE svg PUBLIC "-//W3C//DTD SVG 1.1//EN"
 "http://www.w3.org/Graphics/SVG/1.1/DTD/svg11.dtd">
<!-- Generated by graphviz version 14.1.1 (20251213.1925)
 -->
<!-- Title: Flow Pages: 1 -->
<svg width="807pt" height="335pt"
 viewBox="0.00 0.00 807.00 335.00" xmlns="http://www.w3.org/2000/svg" xmlns:xlink="http://www.w3.org/1999/xlink">
<g id="graph0" class="graph" transform="scale(1 1) rotate(0) translate(4 330.98)">
<title>Flow</title>
<polygon fill="white" stroke="none" points="-4,4 -4,-330.98 802.99,-330.98 802.99,4 -4,4"/>
<!-- RFC2484 -->
<g id="node1" class="node">
<title>RFC2484</title>
<g id="a_node1"><a xlink:title="The Point&#45;to&#45;Point Protocol (PPP) provides a standard method for transporting multi&#45;protocol datagrams over point&#45;to&#45;point links. &#160;PPP also defines an extensible Link Control Protocol (LCP), which allows negotiation of an Authentication Protocol for authenticating its peer before allowing Network Layer protocols to transmit over the link. [STANDARDS&#45;TRACK]">
<ellipse fill="green" stroke="black" cx="214.99" cy="-151.66" rx="123.74" ry="52.33"/>
<text xml:space="preserve" text-anchor="middle" x="214.99" y="-171.36" font-family="Times,serif" font-size="14.00">RFC2484</text>
<text xml:space="preserve" text-anchor="middle" x="214.99" y="-154.86" font-family="Times,serif" font-size="14.00">PPP LCP Internationalization</text>
<text xml:space="preserve" text-anchor="middle" x="214.99" y="-138.36" font-family="Times,serif" font-size="14.00">Configuration Option</text>
<text xml:space="preserve" text-anchor="middle" x="214.99" y="-121.86" font-family="Times,serif" font-size="14.00">1999</text>
</a>
</g>
</g>
<!-- obs -->
<g id="node3" class="node">
<title>obs</title>
<polygon fill="lightblue" stroke="black" points="429.99,-223.66 363.74,-223.66 363.74,-187.66 429.99,-187.66 429.99,-223.66"/>
<text xml:space="preserve" text-anchor="middle" x="396.86" y="-200.61" font-family="Times,serif" font-size="14.00">obsoletes</text>
</g>
<!-- RFC2484&#45;&gt;obs -->
<g id="edge2" class="edge">
<title>RFC2484&#45;&gt;obs</title>
<path fill="none" stroke="black" d="M316.71,-181.89C329.22,-185.65 341.45,-189.32 352.41,-192.61"/>
<polygon fill="black" stroke="black" points="351.29,-195.93 361.88,-195.46 353.31,-189.23 351.29,-195.93"/>
</g>
<!-- updates -->
<g id="node4" class="node">
<title>updates</title>
<polygon fill="lightyellow" stroke="black" points="425.49,-169.66 368.24,-169.66 368.24,-133.66 425.49,-133.66 425.49,-169.66"/>
<text xml:space="preserve" text-anchor="middle" x="396.86" y="-146.61" font-family="Times,serif" font-size="14.00">updates</text>
</g>
<!-- RFC2484&#45;&gt;updates -->
<g id="edge3" class="edge">
<title>RFC2484&#45;&gt;updates</title>
<path fill="none" stroke="black" d="M338.95,-151.66C345.09,-151.66 350.99,-151.66 356.52,-151.66"/>
<polygon fill="black" stroke="black" points="356.44,-155.16 366.44,-151.66 356.44,-148.16 356.44,-155.16"/>
</g>
<!-- cites -->
<g id="node9" class="node">
<title>cites</title>
<polygon fill="lightblue" stroke="black" points="423.86,-115.66 369.86,-115.66 369.86,-79.66 423.86,-79.66 423.86,-115.66"/>
<text xml:space="preserve" text-anchor="middle" x="396.86" y="-92.61" font-family="Times,serif" font-size="14.00">cites</text>
</g>
<!-- RFC2484&#45;&gt;cites -->
<g id="edge8" class="edge">
<title>RFC2484&#45;&gt;cites</title>
<path fill="none" stroke="black" d="M316.71,-121.42C331.7,-116.92 346.29,-112.54 358.78,-108.79"/>
<polygon fill="black" stroke="black" points="359.58,-112.2 368.15,-105.98 357.57,-105.5 359.58,-112.2"/>
</g>
<!-- obs_by -->
<g id="node2" class="node">
<title>obs_by</title>
<polygon fill="lightblue" stroke="black" points="66.25,-223.66 0,-223.66 0,-187.66 66.25,-187.66 66.25,-223.66"/>
<text xml:space="preserve" text-anchor="middle" x="33.12" y="-200.61" font-family="Times,serif" font-size="14.00">obsoletes</text>
</g>
<!-- obs_by&#45;&gt;RFC2484 -->
<g id="edge1" class="edge">
<title>obs_by&#45;&gt;RFC2484</title>
<path fill="none" stroke="black" d="M66.7,-195.88C77.22,-192.72 89.53,-189.02 102.48,-185.14"/>
<polygon fill="black" stroke="black" points="103.46,-188.5 112.04,-182.27 101.45,-181.79 103.46,-188.5"/>
</g>
<!-- RFC2284 -->
<g id="node5" class="node">
<title>RFC2284</title>
<g id="a_node5"><a xlink:href="RFC2284.html" xlink:title="The Point&#45;to&#45;Point Protocol (PPP) provides a standard method for transporting multi&#45;protocol datagrams over point&#45;to&#45;point links. &#160;PPP also defines an extensible Link Control Protocol, which allows negotiation of an Authentication Protocol for authenticating its peer before allowing Network Layer protocols to transmit over the link. &#160;This document defines the PPP Extensible Authentication Protocol. [STANDARDS&#45;TRACK]" target="_top">
<ellipse fill="none" stroke="black" cx="626.99" cy="-274.66" rx="163.52" ry="52.33"/>
<text xml:space="preserve" text-anchor="middle" x="626.99" y="-294.36" font-family="Times,serif" font-size="14.00">RFC2284</text>
<text xml:space="preserve" text-anchor="middle" x="626.99" y="-277.86" font-family="Times,serif" font-size="14.00">PPP Extensible Authentication Protocol</text>
<text xml:space="preserve" text-anchor="middle" x="626.99" y="-261.36" font-family="Times,serif" font-size="14.00">(EAP)</text>
<text xml:space="preserve" text-anchor="middle" x="626.99" y="-244.86" font-family="Times,serif" font-size="14.00">1998</text>
</a>
</g>
</g>
<!-- updates&#45;&gt;RFC2284 -->
<g id="edge4" class="edge">
<title>updates&#45;&gt;RFC2284</title>
<path fill="none" stroke="black" d="M420.94,-169.9C424.09,-172.72 427.2,-175.68 429.99,-178.66 442.81,-192.34 439.97,-201.42 454.99,-212.66 466.57,-221.33 479.49,-228.88 492.89,-235.43"/>
<polygon fill="black" stroke="black" points="491.3,-238.56 501.85,-239.62 494.27,-232.21 491.3,-238.56"/>
</g>
<!-- RFC1994 -->
<g id="node6" class="node">
<title>RFC1994</title>
<g id="a_node6"><a xlink:href="RFC1994.html" xlink:title="This document defines a method for Authentication using PPP, which uses a random Challenge, with a cryptographically hashed Response which depends upon the Challenge and a secret key. [STANDARDS&#45;TRACK]" target="_top">
<ellipse fill="none" stroke="black" cx="626.99" cy="-151.66" rx="172" ry="52.33"/>
<text xml:space="preserve" text-anchor="middle" x="626.99" y="-171.36" font-family="Times,serif" font-size="14.00">RFC1994</text>
<text xml:space="preserve" text-anchor="middle" x="626.99" y="-154.86" font-family="Times,serif" font-size="14.00">PPP Challenge Handshake Authentication</text>
<text xml:space="preserve" text-anchor="middle" x="626.99" y="-138.36" font-family="Times,serif" font-size="14.00">Protocol (CHAP)</text>
<text xml:space="preserve" text-anchor="middle" x="626.99" y="-121.86" font-family="Times,serif" font-size="14.00">1996</text>
</a>
</g>
</g>
<!-- updates&#45;&gt;RFC1994 -->
<g id="edge5" class="edge">
<title>updates&#45;&gt;RFC1994</title>
<path fill="none" stroke="black" d="M425.84,-151.66C431.17,-151.66 437.11,-151.66 443.5,-151.66"/>
<polygon fill="black" stroke="black" points="443.14,-155.16 453.14,-151.66 443.14,-148.16 443.14,-155.16"/>
</g>
<!-- RFC1570 -->
<g id="node7" class="node">
<title>RFC1570</title>
<g id="a_node7"><a xlink:href="RFC1570.html" xlink:title="The Point&#45;to&#45;Point Protocol (PPP) provides a standard method for transporting multi&#45;protocol datagrams over point&#45;to&#45;point links. &#160;PPP defines an extensible Link Control Protocol (LCP) for establishing, configuring, and testing the data&#45;link connection. &#160;This document defines several additional LCP features which have been suggested over the past few years. [STANDARDS&#45;TRACK]" target="_top">
<ellipse fill="none" stroke="black" cx="626.99" cy="-40.66" rx="90.86" ry="40.66"/>
<text xml:space="preserve" text-anchor="middle" x="626.99" y="-52.11" font-family="Times,serif" font-size="14.00">RFC1570</text>
<text xml:space="preserve" text-anchor="middle" x="626.99" y="-35.61" font-family="Times,serif" font-size="14.00">PPP LCP Extensions</text>
<text xml:space="preserve" text-anchor="middle" x="626.99" y="-19.11" font-family="Times,serif" font-size="14.00">1994</text>
</a>
</g>
</g>
<!-- updates&#45;&gt;RFC1570 -->
<g id="edge6" class="edge">
<title>updates&#45;&gt;RFC1570</title>
<path fill="none" stroke="black" d="M420.94,-133.42C424.09,-130.6 427.2,-127.64 429.99,-124.66 442.81,-110.97 439.62,-101.41 454.99,-90.66 477.05,-75.22 503.89,-64.5 529.69,-57.07"/>
<polygon fill="black" stroke="black" points="530.48,-60.48 539.21,-54.48 528.65,-53.73 530.48,-60.48"/>
</g>
<!-- updated_by -->
<g id="node8" class="node">
<title>updated_by</title>
<polygon fill="lightyellow" stroke="black" points="61.75,-169.66 4.5,-169.66 4.5,-133.66 61.75,-133.66 61.75,-169.66"/>
<text xml:space="preserve" text-anchor="middle" x="33.12" y="-146.61" font-family="Times,serif" font-size="14.00">updates</text>
</g>
<!-- updated_by&#45;&gt;RFC2484 -->
<g id="edge7" class="edge">
<title>updated_by&#45;&gt;RFC2484</title>
<path fill="none" stroke="black" d="M62.23,-151.66C67.48,-151.66 73.27,-151.66 79.44,-151.66"/>
<polygon fill="black" stroke="black" points="79.4,-155.16 89.4,-151.66 79.4,-148.16 79.4,-155.16"/>
</g>
<!-- rev_cites -->
<g id="node10" class="node">
<title>rev_cites</title>
<polygon fill="lightblue" stroke="black" points="60.12,-115.66 6.12,-115.66 6.12,-79.66 60.12,-79.66 60.12,-115.66"/>
<text xml:space="preserve" text-anchor="middle" x="33.12" y="-92.61" font-family="Times,serif" font-size="14.00">cites</text>
</g>
<!-- rev_cites&#45;&gt;RFC2484 -->
<g id="edge9" class="edge">
<title>rev_cites&#45;&gt;RFC2484</title>
<path fill="none" stroke="black" d="M60.28,-105.51C72,-109.03 86.69,-113.44 102.31,-118.13"/>
<polygon fill="black" stroke="black" points="101.22,-121.46 111.8,-120.98 103.23,-114.75 101.22,-121.46"/>
</g>
</g>
</svg>
