<?xml version="1.0" encoding="UTF-8" standalone="no"?>
<!DOCTYPE svg PUBLIC "-//W3C//DTD SVG 1.1//EN"
 "http://www.w3.org/Graphics/SVG/1.1/DTD/svg11.dtd">
<!-- Generated by graphviz version 14.1.1 (20251213.1925)
 -->
<!-- Title: Flow Pages: 1 -->
<svg width="1639pt" height="1459pt"
 viewBox="0.00 0.00 1639.00 1459.00" xmlns="http://www.w3.org/2000/svg" xmlns:xlink="http://www.w3.org/1999/xlink">
<g id="graph0" class="graph" transform="scale(1 1) rotate(0) translate(4 1455.04)">
<title>Flow</title>
<polygon fill="white" stroke="none" points="-4,4 -4,-1455.04 1635,-1455.04 1635,4 -4,4"/>
<!-- RFC2590 -->
<g id="node1" class="node">
<title>RFC2590</title>
<g id="a_node1"><a xlink:title="This memo describes mechanisms for the transmission of IPv6 packets over Frame Relay networks. [STANDARDS&#45;TRACK]">
<ellipse fill="green" stroke="black" stroke-width="3" cx="848.91" cy="-725.52" rx="225.04" ry="65.05"/>
<text xml:space="preserve" text-anchor="middle" x="848.91" y="-750.42" font-family="Times,serif" font-size="18.00">RFC2590</text>
<text xml:space="preserve" text-anchor="middle" x="848.91" y="-729.42" font-family="Times,serif" font-size="18.00">Transmission of IPv6 Packets over Frame</text>
<text xml:space="preserve" text-anchor="middle" x="848.91" y="-708.42" font-family="Times,serif" font-size="18.00">Relay Networks Specification</text>
<text xml:space="preserve" text-anchor="middle" x="848.91" y="-687.42" font-family="Times,serif" font-size="18.00">1999</text>
</a>
</g>
</g>
<!-- obs -->
<g id="node3" class="node">
<title>obs</title>
<polygon fill="lightblue" stroke="black" points="1218.63,-882.94 1152.38,-882.94 1152.38,-846.94 1218.63,-846.94 1218.63,-882.94"/>
<text xml:space="preserve" text-anchor="middle" x="1185.51" y="-859.89" font-family="Times,serif" font-size="14.00">obsoletes</text>
</g>
<!-- RFC2590&#45;&gt;obs -->
<g id="edge2" class="edge">
<title>RFC2590&#45;&gt;obs</title>
<path fill="none" stroke="black" d="M979.53,-779.62C1036.87,-803.37 1100.35,-829.67 1141.48,-846.71"/>
<polygon fill="black" stroke="black" points="1139.97,-849.87 1150.55,-850.46 1142.65,-843.4 1139.97,-849.87"/>
</g>
<!-- updates -->
<g id="node4" class="node">
<title>updates</title>
<polygon fill="lightyellow" stroke="black" points="1016.96,-1080.12 959.71,-1080.12 959.71,-1044.12 1016.96,-1044.12 1016.96,-1080.12"/>
<text xml:space="preserve" text-anchor="middle" x="988.33" y="-1057.07" font-family="Times,serif" font-size="14.00">updates</text>
</g>
<!-- RFC2590&#45;&gt;updates -->
<g id="edge3" class="edge">
<title>RFC2590&#45;&gt;updates</title>
<path fill="none" stroke="black" d="M876.12,-791.22C906.53,-864.63 954.38,-980.15 976.45,-1033.44"/>
<polygon fill="black" stroke="black" points="973.12,-1034.53 980.18,-1042.43 979.59,-1031.85 973.12,-1034.53"/>
</g>
<!-- cites -->
<g id="node7" class="node">
<title>cites</title>
<polygon fill="lightblue" stroke="black" points="736.49,-1080.12 682.49,-1080.12 682.49,-1044.12 736.49,-1044.12 736.49,-1080.12"/>
<text xml:space="preserve" text-anchor="middle" x="709.49" y="-1057.07" font-family="Times,serif" font-size="14.00">cites</text>
</g>
<!-- RFC2590&#45;&gt;cites -->
<g id="edge6" class="edge">
<title>RFC2590&#45;&gt;cites</title>
<path fill="none" stroke="black" d="M821.7,-791.22C791.29,-864.63 743.44,-980.15 721.36,-1033.44"/>
<polygon fill="black" stroke="black" points="718.23,-1031.85 717.64,-1042.43 724.7,-1034.53 718.23,-1031.85"/>
</g>
<!-- obs_by -->
<g id="node2" class="node">
<title>obs_by</title>
<polygon fill="lightblue" stroke="black" points="545.44,-882.94 479.19,-882.94 479.19,-846.94 545.44,-846.94 545.44,-882.94"/>
<text xml:space="preserve" text-anchor="middle" x="512.31" y="-859.89" font-family="Times,serif" font-size="14.00">obsoletes</text>
</g>
<!-- obs_by&#45;&gt;RFC2590 -->
<g id="edge1" class="edge">
<title>obs_by&#45;&gt;RFC2590</title>
<path fill="none" stroke="black" d="M545.82,-851.06C583.78,-835.34 648.15,-808.68 707.82,-783.96"/>
<polygon fill="black" stroke="black" points="708.83,-787.33 716.73,-780.27 706.15,-780.86 708.83,-787.33"/>
</g>
<!-- updated_by -->
<g id="node5" class="node">
<title>updated_by</title>
<polygon fill="lightyellow" stroke="black" points="540.94,-604.1 483.69,-604.1 483.69,-568.1 540.94,-568.1 540.94,-604.1"/>
<text xml:space="preserve" text-anchor="middle" x="512.31" y="-581.05" font-family="Times,serif" font-size="14.00">updates</text>
</g>
<!-- updated_by&#45;&gt;RFC2590 -->
<g id="edge4" class="edge">
<title>updated_by&#45;&gt;RFC2590</title>
<path fill="none" stroke="black" d="M541.3,-598.1C578.46,-613.5 645.52,-641.27 707.55,-666.97"/>
<polygon fill="black" stroke="black" points="705.89,-670.07 716.46,-670.66 708.57,-663.6 705.89,-670.07"/>
</g>
<!-- RFC8064 -->
<g id="node6" class="node">
<title>RFC8064</title>
<g id="a_node6"><a xlink:href="RFC8064.html" xlink:title="This document changes the recommended default Interface Identifier (IID) generation scheme for cases where Stateless Address Autoconfiguration (SLAAC) is used to generate a stable IPv6 address. &#160;It recommends using the mechanism specified in RFC 7217 in such cases, and recommends against embedding stable link&#45;layer addresses in IPv6 IIDs. &#160;It formally updates RFC 2464, RFC 2467, RFC 2470, RFC 2491, RFC 2492, RFC 2497, RFC 2590, RFC 3146, RFC 3572, RFC 4291, RFC 4338, RFC 4391, RFC 5072, and RFC 5121. &#160;This document does not change any existing recommendations concerning the use of temporary addresses as specified in RFC 4941." target="_top">
<ellipse fill="none" stroke="black" cx="175.72" cy="-446.67" rx="175.72" ry="52.33"/>
<text xml:space="preserve" text-anchor="middle" x="175.72" y="-466.37" font-family="Times,serif" font-size="14.00">RFC8064</text>
<text xml:space="preserve" text-anchor="middle" x="175.72" y="-449.87" font-family="Times,serif" font-size="14.00">Recommendation on Stable IPv6 Interface</text>
<text xml:space="preserve" text-anchor="middle" x="175.72" y="-433.37" font-family="Times,serif" font-size="14.00">Identifiers</text>
<text xml:space="preserve" text-anchor="middle" x="175.72" y="-416.87" font-family="Times,serif" font-size="14.00">2017</text>
</a>
</g>
</g>
<!-- RFC8064&#45;&gt;updated_by -->
<g id="edge5" class="edge">
<title>RFC8064&#45;&gt;updated_by</title>
<path fill="none" stroke="black" d="M278.99,-489.45C344.61,-516.63 425.81,-550.27 473.07,-569.84"/>
<polygon fill="black" stroke="black" points="471.49,-572.98 482.07,-573.57 474.17,-566.51 471.49,-572.98"/>
</g>
<!-- rev_cites -->
<g id="node9" class="node">
<title>rev_cites</title>
<polygon fill="lightblue" stroke="black" points="1015.33,-406.92 961.33,-406.92 961.33,-370.92 1015.33,-370.92 1015.33,-406.92"/>
<text xml:space="preserve" text-anchor="middle" x="988.33" y="-383.87" font-family="Times,serif" font-size="14.00">cites</text>
</g>
<!-- RFC8064&#45;&gt;rev_cites -->
<g id="edge11" class="edge">
<title>RFC8064&#45;&gt;rev_cites</title>
<path fill="none" stroke="black" d="M347.06,-434.5C540.75,-420.73 843,-399.25 949.56,-391.68"/>
<polygon fill="black" stroke="black" points="949.75,-395.17 959.48,-390.97 949.26,-388.19 949.75,-395.17"/>
</g>
<!-- RFC2119 -->
<g id="node8" class="node">
<title>RFC2119</title>
<g id="a_node8"><a xlink:href="RFC2119.html" xlink:title="In many standards track documents several words are used to signify the requirements in the specification. &#160;These words are often capitalized. &#160;This document defines these words as they should be interpreted in IETF documents. &#160;This document specifies an Internet Best Current Practices for the Internet Community, and requests discussion and suggestions for improvements." target="_top">
<ellipse fill="none" stroke="black" cx="570.06" cy="-1398.71" rx="160.34" ry="52.33"/>
<text xml:space="preserve" text-anchor="middle" x="570.06" y="-1418.41" font-family="Times,serif" font-size="14.00">RFC2119</text>
<text xml:space="preserve" text-anchor="middle" x="570.06" y="-1401.91" font-family="Times,serif" font-size="14.00">Key words for use in RFCs to Indicate</text>
<text xml:space="preserve" text-anchor="middle" x="570.06" y="-1385.41" font-family="Times,serif" font-size="14.00">Requirement Levels</text>
<text xml:space="preserve" text-anchor="middle" x="570.06" y="-1368.91" font-family="Times,serif" font-size="14.00">1997</text>
</a>
</g>
</g>
<!-- cites&#45;&gt;RFC2119 -->
<g id="edge7" class="edge">
<title>cites&#45;&gt;RFC2119</title>
<path fill="none" stroke="black" d="M701.99,-1080.21C682.31,-1127.72 628.47,-1257.71 595.97,-1336.16"/>
<polygon fill="black" stroke="black" points="592.9,-1334.43 592.31,-1345 599.37,-1337.1 592.9,-1334.43"/>
</g>
<!-- rev_cites&#45;&gt;RFC2590 -->
<g id="edge8" class="edge">
<title>rev_cites&#45;&gt;RFC2590</title>
<path fill="none" stroke="black" d="M980.84,-407.02C962.27,-451.84 913.28,-570.11 880.51,-649.22"/>
<polygon fill="black" stroke="black" points="877.37,-647.66 876.78,-658.23 883.84,-650.34 877.37,-647.66"/>
</g>
<!-- RFC6434 -->
<g id="node10" class="node">
<title>RFC6434</title>
<g id="a_node10"><a xlink:href="RFC6434.html" xlink:title="This document defines requirements for IPv6 nodes. &#160;It is expected that IPv6 will be deployed in a wide range of devices and situations. &#160;Specifying the requirements for IPv6 nodes allows IPv6 to function well and interoperate in a large number of situations and deployments. &#160;This document is not an Internet Standards Track specification; it is published for informational purposes." target="_top">
<ellipse fill="none" stroke="black" cx="570.06" cy="-52.33" rx="108.89" ry="40.66"/>
<text xml:space="preserve" text-anchor="middle" x="570.06" y="-63.78" font-family="Times,serif" font-size="14.00">RFC6434</text>
<text xml:space="preserve" text-anchor="middle" x="570.06" y="-47.28" font-family="Times,serif" font-size="14.00">IPv6 Node Requirements</text>
<text xml:space="preserve" text-anchor="middle" x="570.06" y="-30.78" font-family="Times,serif" font-size="14.00">2011</text>
</a>
</g>
</g>
<!-- RFC6434&#45;&gt;rev_cites -->
<g id="edge9" class="edge">
<title>RFC6434&#45;&gt;rev_cites</title>
<path fill="none" stroke="black" d="M616.02,-89.31C701.7,-158.26 883.76,-304.77 956.92,-363.65"/>
<polygon fill="black" stroke="black" points="954.53,-366.22 964.52,-369.76 958.92,-360.76 954.53,-366.22"/>
</g>
<!-- RFC7421 -->
<g id="node11" class="node">
<title>RFC7421</title>
<g id="a_node11"><a xlink:href="RFC7421.html" xlink:title="The IPv6 unicast addressing format includes a separation between the prefix used to route packets to a subnet and the interface identifier used to specify a given interface connected to that subnet. &#160;Currently, the interface identifier is defined as 64 bits long for almost every case, leaving 64 bits for the subnet prefix. &#160;This document describes the advantages of this fixed boundary and analyzes the issues that would be involved in treating it as a variable boundary." target="_top">
<ellipse fill="none" stroke="black" cx="1127.76" cy="-52.33" rx="166.17" ry="52.33"/>
<text xml:space="preserve" text-anchor="middle" x="1127.76" y="-72.03" font-family="Times,serif" font-size="14.00">RFC7421</text>
<text xml:space="preserve" text-anchor="middle" x="1127.76" y="-55.53" font-family="Times,serif" font-size="14.00">Analysis of the 64&#45;bit Boundary in IPv6</text>
<text xml:space="preserve" text-anchor="middle" x="1127.76" y="-39.03" font-family="Times,serif" font-size="14.00">Addressing</text>
<text xml:space="preserve" text-anchor="middle" x="1127.76" y="-22.53" font-family="Times,serif" font-size="14.00">2015</text>
</a>
</g>
</g>
<!-- RFC7421&#45;&gt;rev_cites -->
<g id="edge10" class="edge">
<title>RFC7421&#45;&gt;rev_cites</title>
<path fill="none" stroke="black" d="M1106.12,-104.55C1076.29,-176.57 1023.56,-303.87 1000.13,-360.45"/>
<polygon fill="black" stroke="black" points="997.02,-358.8 996.43,-369.38 1003.49,-361.48 997.02,-358.8"/>
</g>
<!-- RFC8504 -->
<g id="node12" class="node">
<title>RFC8504</title>
<g id="a_node12"><a xlink:href="RFC8504.html" xlink:title="This document defines requirements for IPv6 nodes. It is expected that IPv6 will be deployed in a wide range of devices and situations. Specifying the requirements for IPv6 nodes allows IPv6 to function well and interoperate in a large number of situations and deployments. This document obsoletes RFC 6434, and in turn RFC 4294." target="_top">
<ellipse fill="none" stroke="black" cx="1522.1" cy="-446.67" rx="108.89" ry="40.66"/>
<text xml:space="preserve" text-anchor="middle" x="1522.1" y="-458.12" font-family="Times,serif" font-size="14.00">RFC8504</text>
<text xml:space="preserve" text-anchor="middle" x="1522.1" y="-441.62" font-family="Times,serif" font-size="14.00">IPv6 Node Requirements</text>
<text xml:space="preserve" text-anchor="middle" x="1522.1" y="-425.12" font-family="Times,serif" font-size="14.00">2019</text>
</a>
</g>
</g>
<!-- RFC8504&#45;&gt;rev_cites -->
<g id="edge12" class="edge">
<title>RFC8504&#45;&gt;rev_cites</title>
<path fill="none" stroke="black" d="M1417.28,-435.33C1297.6,-422.38 1107.95,-401.86 1027,-393.11"/>
<polygon fill="black" stroke="black" points="1027.47,-389.64 1017.15,-392.04 1026.72,-396.6 1027.47,-389.64"/>
</g>
</g>
</svg>
