<?xml version="1.0" encoding="UTF-8" standalone="no"?>
<!DOCTYPE svg PUBLIC "-//W3C//DTD SVG 1.1//EN"
 "http://www.w3.org/Graphics/SVG/1.1/DTD/svg11.dtd">
<!-- Generated by graphviz version 14.1.1 (20251213.1925)
 -->
<!-- Title: Flow Pages: 1 -->
<svg width="1831pt" height="1548pt"
 viewBox="0.00 0.00 1831.00 1548.00" xmlns="http://www.w3.org/2000/svg" xmlns:xlink="http://www.w3.org/1999/xlink">
<g id="graph0" class="graph" transform="scale(1 1) rotate(0) translate(4 1544.38)">
<title>Flow</title>
<polygon fill="white" stroke="none" points="-4,4 -4,-1544.38 1826.65,-1544.38 1826.65,4 -4,4"/>
<!-- RFC2452 -->
<g id="node1" class="node">
<title>RFC2452</title>
<g id="a_node1"><a xlink:title="This document is one in the series of documents that define various MIB objects for IPv6. &#160;Specifically, this document is the MIB module which defines managed objects for implementations of the Transmission Control Protocol (TCP) over IP Version 6 (IPv6). [STANDARDS&#45;TRACK]">
<ellipse fill="green" stroke="black" stroke-width="3" cx="929.75" cy="-718.66" rx="236.7" ry="65.05"/>
<text xml:space="preserve" text-anchor="middle" x="929.75" y="-743.56" font-family="Times,serif" font-size="18.00">RFC2452</text>
<text xml:space="preserve" text-anchor="middle" x="929.75" y="-722.56" font-family="Times,serif" font-size="18.00">IP Version 6 Management Information Base</text>
<text xml:space="preserve" text-anchor="middle" x="929.75" y="-701.56" font-family="Times,serif" font-size="18.00">for the Transmission Control Protocol</text>
<text xml:space="preserve" text-anchor="middle" x="929.75" y="-680.56" font-family="Times,serif" font-size="18.00">1998</text>
</a>
</g>
</g>
<!-- obs -->
<g id="node5" class="node">
<title>obs</title>
<polygon fill="lightblue" stroke="black" points="1324.38,-868.24 1258.13,-868.24 1258.13,-832.24 1324.38,-832.24 1324.38,-868.24"/>
<text xml:space="preserve" text-anchor="middle" x="1291.26" y="-845.19" font-family="Times,serif" font-size="14.00">obsoletes</text>
</g>
<!-- RFC2452&#45;&gt;obs -->
<g id="edge4" class="edge">
<title>RFC2452&#45;&gt;obs</title>
<path fill="none" stroke="black" d="M1074.71,-771.42C1136.51,-793.91 1204.13,-818.52 1247.08,-834.16"/>
<polygon fill="black" stroke="black" points="1245.69,-837.38 1256.29,-837.51 1248.09,-830.8 1245.69,-837.38"/>
</g>
<!-- updates -->
<g id="node6" class="node">
<title>updates</title>
<polygon fill="lightyellow" stroke="black" points="1150.73,-1069.83 1093.48,-1069.83 1093.48,-1033.83 1150.73,-1033.83 1150.73,-1069.83"/>
<text xml:space="preserve" text-anchor="middle" x="1122.11" y="-1046.78" font-family="Times,serif" font-size="14.00">updates</text>
</g>
<!-- RFC2452&#45;&gt;updates -->
<g id="edge5" class="edge">
<title>RFC2452&#45;&gt;updates</title>
<path fill="none" stroke="black" d="M967.53,-784.08C1009.58,-856.93 1075.61,-971.3 1105.92,-1023.79"/>
<polygon fill="black" stroke="black" points="1102.7,-1025.21 1110.73,-1032.12 1108.76,-1021.71 1102.7,-1025.21"/>
</g>
<!-- cites -->
<g id="node8" class="node">
<title>cites</title>
<polygon fill="lightblue" stroke="black" points="764.4,-1069.83 710.4,-1069.83 710.4,-1033.83 764.4,-1033.83 764.4,-1069.83"/>
<text xml:space="preserve" text-anchor="middle" x="737.4" y="-1046.78" font-family="Times,serif" font-size="14.00">cites</text>
</g>
<!-- RFC2452&#45;&gt;cites -->
<g id="edge7" class="edge">
<title>RFC2452&#45;&gt;cites</title>
<path fill="none" stroke="black" d="M891.98,-784.08C849.92,-856.93 783.89,-971.3 753.59,-1023.79"/>
<polygon fill="black" stroke="black" points="750.74,-1021.71 748.77,-1032.12 756.81,-1025.21 750.74,-1021.71"/>
</g>
<!-- obs_by -->
<g id="node2" class="node">
<title>obs_by</title>
<polygon fill="lightblue" stroke="black" points="601.37,-605.08 535.12,-605.08 535.12,-569.08 601.37,-569.08 601.37,-605.08"/>
<text xml:space="preserve" text-anchor="middle" x="568.25" y="-582.03" font-family="Times,serif" font-size="14.00">obsoletes</text>
</g>
<!-- obs_by&#45;&gt;RFC2452 -->
<g id="edge1" class="edge">
<title>obs_by&#45;&gt;RFC2452</title>
<path fill="none" stroke="black" d="M601.61,-599.22C641.18,-613.63 709.92,-638.65 774.29,-662.07"/>
<polygon fill="black" stroke="black" points="772.98,-665.32 783.57,-665.45 775.37,-658.74 772.98,-665.32"/>
</g>
<!-- RFC4022 -->
<g id="node3" class="node">
<title>RFC4022</title>
<g id="a_node3"><a xlink:href="RFC4022.html" xlink:title="This memo defines a portion of the Management Information Base (MIB) for use with network management protocols in the Internet community. &#160;In particular, it describes managed objects used for implementations of the Transmission Control Protocol (TCP) in an IP version independent manner. &#160;This memo obsoletes RFCs 2452 and 2012. [STANDARDS&#45;TRACK]" target="_top">
<ellipse fill="none" stroke="black" cx="160.34" cy="-718.66" rx="160.34" ry="52.33"/>
<text xml:space="preserve" text-anchor="middle" x="160.34" y="-738.36" font-family="Times,serif" font-size="14.00">RFC4022</text>
<text xml:space="preserve" text-anchor="middle" x="160.34" y="-721.86" font-family="Times,serif" font-size="14.00">Management Information Base for the</text>
<text xml:space="preserve" text-anchor="middle" x="160.34" y="-705.36" font-family="Times,serif" font-size="14.00">Transmission Control Protocol (TCP)</text>
<text xml:space="preserve" text-anchor="middle" x="160.34" y="-688.86" font-family="Times,serif" font-size="14.00">2005</text>
</a>
</g>
</g>
<!-- RFC4022&#45;&gt;obs_by -->
<g id="edge2" class="edge">
<title>RFC4022&#45;&gt;obs_by</title>
<path fill="none" stroke="black" d="M275.05,-681.66C357.84,-654.95 465.08,-620.36 524.22,-601.28"/>
<polygon fill="black" stroke="black" points="525.15,-604.66 533.59,-598.26 523,-598 525.15,-604.66"/>
</g>
<!-- rev_cites -->
<g id="node11" class="node">
<title>rev_cites</title>
<polygon fill="lightblue" stroke="black" points="1251.46,-489.37 1197.46,-489.37 1197.46,-453.37 1251.46,-453.37 1251.46,-489.37"/>
<text xml:space="preserve" text-anchor="middle" x="1224.46" y="-466.32" font-family="Times,serif" font-size="14.00">cites</text>
</g>
<!-- RFC4022&#45;&gt;rev_cites -->
<g id="edge11" class="edge">
<title>RFC4022&#45;&gt;rev_cites</title>
<path fill="none" stroke="black" d="M291.62,-688.15C534.62,-631.68 1042.82,-513.58 1186.11,-480.28"/>
<polygon fill="black" stroke="black" points="1186.89,-483.7 1195.84,-478.02 1185.31,-476.88 1186.89,-483.7"/>
</g>
<!-- RFC8096 -->
<g id="node4" class="node">
<title>RFC8096</title>
<g id="a_node4"><a xlink:href="RFC8096.html" xlink:title="In 2005&#45;2006, the IPv6 MIB update group published updated versions of the IP&#45;MIB, UDP&#45;MIB, TCP&#45;MIB, and IP&#45;FORWARD&#45;MIB modules, which use the InetAddressType/InetAddress construct to handle IPv4 and IPv6 in the same table. &#160;This document contains versions of the obsoleted IPV6&#45;MIB, IPV6&#45;TC, IPV6&#45;ICMP&#45;MIB, IPV6&#45;TCP&#45;MIB, and IPV6&#45;UDP&#45;MIB modules for the purpose of updating MIB module repositories. &#160;This document obsoletes RFCs 2452, 2454, 2465, and 2466 (i.e., the RFCs containing these MIBs) and reclassifies them as Historic." target="_top">
<ellipse fill="none" stroke="black" cx="340.35" cy="-224.09" rx="155.56" ry="52.33"/>
<text xml:space="preserve" text-anchor="middle" x="340.35" y="-243.79" font-family="Times,serif" font-size="14.00">RFC8096</text>
<text xml:space="preserve" text-anchor="middle" x="340.35" y="-227.29" font-family="Times,serif" font-size="14.00">The IPv6&#45;Specific MIB Modules Are</text>
<text xml:space="preserve" text-anchor="middle" x="340.35" y="-210.79" font-family="Times,serif" font-size="14.00">Obsolete</text>
<text xml:space="preserve" text-anchor="middle" x="340.35" y="-194.29" font-family="Times,serif" font-size="14.00">2017</text>
</a>
</g>
</g>
<!-- RFC8096&#45;&gt;obs_by -->
<g id="edge3" class="edge">
<title>RFC8096&#45;&gt;obs_by</title>
<path fill="none" stroke="black" d="M372.76,-275.71C421.66,-353.61 512.65,-498.53 550.75,-559.22"/>
<polygon fill="black" stroke="black" points="547.73,-560.99 556.01,-567.6 553.66,-557.27 547.73,-560.99"/>
</g>
<!-- RFC8096&#45;&gt;rev_cites -->
<g id="edge14" class="edge">
<title>RFC8096&#45;&gt;rev_cites</title>
<path fill="none" stroke="black" d="M460.5,-257.7C662.87,-314.3 1061.8,-425.88 1186.37,-460.72"/>
<polygon fill="black" stroke="black" points="1185.19,-464.03 1195.77,-463.35 1187.08,-457.28 1185.19,-464.03"/>
</g>
<!-- updated_by -->
<g id="node7" class="node">
<title>updated_by</title>
<polygon fill="lightyellow" stroke="black" points="891.57,-357.8 834.32,-357.8 834.32,-321.8 891.57,-321.8 891.57,-357.8"/>
<text xml:space="preserve" text-anchor="middle" x="862.95" y="-334.75" font-family="Times,serif" font-size="14.00">updates</text>
</g>
<!-- updated_by&#45;&gt;RFC2452 -->
<g id="edge6" class="edge">
<title>updated_by&#45;&gt;RFC2452</title>
<path fill="none" stroke="black" d="M866.17,-358.07C875.04,-408.39 900.23,-551.22 916.11,-641.28"/>
<polygon fill="black" stroke="black" points="912.65,-641.81 917.83,-651.05 919.54,-640.59 912.65,-641.81"/>
</g>
<!-- RFC2274 -->
<g id="node9" class="node">
<title>RFC2274</title>
<g id="a_node9"><a xlink:href="RFC2274.html" xlink:title="This document describes the User&#45;based Security Model (USM) for SNMP version 3 for use in the SNMP architecture [RFC2261]. &#160;It defines the Elements of Procedure for providing SNMP message level security. &#160;This document also includes a MIB for remotely monitoring/managing the configuration parameters for this Security Model. [STANDARDS&#45;TRACK]" target="_top">
<ellipse fill="none" stroke="black" cx="796.14" cy="-1476.39" rx="160.87" ry="63.99"/>
<text xml:space="preserve" text-anchor="middle" x="796.14" y="-1504.34" font-family="Times,serif" font-size="14.00">RFC2274</text>
<text xml:space="preserve" text-anchor="middle" x="796.14" y="-1487.84" font-family="Times,serif" font-size="14.00">User&#45;based Security Model (USM) for</text>
<text xml:space="preserve" text-anchor="middle" x="796.14" y="-1471.34" font-family="Times,serif" font-size="14.00">version 3 of the Simple Network</text>
<text xml:space="preserve" text-anchor="middle" x="796.14" y="-1454.84" font-family="Times,serif" font-size="14.00">Management Protocol (SNMPv3)</text>
<text xml:space="preserve" text-anchor="middle" x="796.14" y="-1438.34" font-family="Times,serif" font-size="14.00">1998</text>
</a>
</g>
</g>
<!-- cites&#45;&gt;RFC2274 -->
<g id="edge8" class="edge">
<title>cites&#45;&gt;RFC2274</title>
<path fill="none" stroke="black" d="M739.92,-1070.07C747.72,-1126.39 771.71,-1299.79 785.71,-1400.95"/>
<polygon fill="black" stroke="black" points="782.23,-1401.38 787.07,-1410.81 789.17,-1400.42 782.23,-1401.38"/>
</g>
<!-- RFC2275 -->
<g id="node10" class="node">
<title>RFC2275</title>
<g id="a_node10"><a xlink:href="RFC2275.html" xlink:title="This document describes the View&#45;based Access Control Model for use in the SNMP architecture [RFC2261]. &#160;It defines the Elements of Procedure for controlling access to management information. &#160;This document also includes a MIB for remotely managing the configuration parameters for the View&#45;based Access Control Model. [STANDARDS&#45;TRACK]" target="_top">
<ellipse fill="none" stroke="black" cx="340.35" cy="-1213.23" rx="183.14" ry="63.99"/>
<text xml:space="preserve" text-anchor="middle" x="340.35" y="-1241.18" font-family="Times,serif" font-size="14.00">RFC2275</text>
<text xml:space="preserve" text-anchor="middle" x="340.35" y="-1224.68" font-family="Times,serif" font-size="14.00">View&#45;based Access Control Model (VACM)</text>
<text xml:space="preserve" text-anchor="middle" x="340.35" y="-1208.18" font-family="Times,serif" font-size="14.00">for the Simple Network Management</text>
<text xml:space="preserve" text-anchor="middle" x="340.35" y="-1191.68" font-family="Times,serif" font-size="14.00">Protocol (SNMP)</text>
<text xml:space="preserve" text-anchor="middle" x="340.35" y="-1175.18" font-family="Times,serif" font-size="14.00">1998</text>
</a>
</g>
</g>
<!-- cites&#45;&gt;RFC2275 -->
<g id="edge9" class="edge">
<title>cites&#45;&gt;RFC2275</title>
<path fill="none" stroke="black" d="M710.11,-1062.92C661.33,-1082.75 556.28,-1125.45 470.57,-1160.29"/>
<polygon fill="black" stroke="black" points="469.3,-1157.03 461.36,-1164.04 471.94,-1163.52 469.3,-1157.03"/>
</g>
<!-- rev_cites&#45;&gt;RFC2452 -->
<g id="edge10" class="edge">
<title>rev_cites&#45;&gt;RFC2452</title>
<path fill="none" stroke="black" d="M1202.79,-489.56C1163.41,-522.6 1078.22,-594.08 1013.39,-648.48"/>
<polygon fill="black" stroke="black" points="1011.36,-645.61 1005.95,-654.72 1015.86,-650.98 1011.36,-645.61"/>
</g>
<!-- RFC4614 -->
<g id="node12" class="node">
<title>RFC4614</title>
<g id="a_node12"><a xlink:href="RFC4614.html" xlink:title="This document contains a roadmap to the Requests for Comments (RFC) documents relating to the Internet&#39;s Transmission Control Protocol (TCP). &#160;This roadmap provides a brief summary of the documents defining TCP and various TCP extensions that have accumulated in the RFC series. &#160;This serves as a guide and quick reference for both TCP implementers and other parties who desire information contained in the TCP&#45;related RFCs. &#160;This memo provides information for the Internet community." target="_top">
<ellipse fill="none" stroke="black" cx="1314.46" cy="-52.33" rx="169.88" ry="52.33"/>
<text xml:space="preserve" text-anchor="middle" x="1314.46" y="-72.03" font-family="Times,serif" font-size="14.00">RFC4614</text>
<text xml:space="preserve" text-anchor="middle" x="1314.46" y="-55.53" font-family="Times,serif" font-size="14.00">A Roadmap for Transmission Control</text>
<text xml:space="preserve" text-anchor="middle" x="1314.46" y="-39.03" font-family="Times,serif" font-size="14.00">Protocol (TCP) Specification Documents</text>
<text xml:space="preserve" text-anchor="middle" x="1314.46" y="-22.53" font-family="Times,serif" font-size="14.00">2006</text>
</a>
</g>
</g>
<!-- RFC4614&#45;&gt;rev_cites -->
<g id="edge12" class="edge">
<title>RFC4614&#45;&gt;rev_cites</title>
<path fill="none" stroke="black" d="M1303.15,-104.97C1284.01,-194.12 1245.82,-371.92 1230.76,-442"/>
<polygon fill="black" stroke="black" points="1227.39,-441.05 1228.71,-451.56 1234.23,-442.52 1227.39,-441.05"/>
</g>
<!-- RFC7414 -->
<g id="node13" class="node">
<title>RFC7414</title>
<g id="a_node13"><a xlink:href="RFC7414.html" xlink:title="This document contains a roadmap to the Request for Comments (RFC) documents relating to the Internet&#39;s Transmission Control Protocol (TCP). This roadmap provides a brief summary of the documents defining TCP and various TCP extensions that have accumulated in the RFC series. This serves as a guide and quick reference for both TCP implementers and other parties who desire information contained in the TCP&#45;related RFCs. This document obsoletes RFC 4614." target="_top">
<ellipse fill="none" stroke="black" cx="1652.77" cy="-455.5" rx="169.88" ry="52.33"/>
<text xml:space="preserve" text-anchor="middle" x="1652.77" y="-475.2" font-family="Times,serif" font-size="14.00">RFC7414</text>
<text xml:space="preserve" text-anchor="middle" x="1652.77" y="-458.7" font-family="Times,serif" font-size="14.00">A Roadmap for Transmission Control</text>
<text xml:space="preserve" text-anchor="middle" x="1652.77" y="-442.2" font-family="Times,serif" font-size="14.00">Protocol (TCP) Specification Documents</text>
<text xml:space="preserve" text-anchor="middle" x="1652.77" y="-425.7" font-family="Times,serif" font-size="14.00">2015</text>
</a>
</g>
</g>
<!-- RFC7414&#45;&gt;rev_cites -->
<g id="edge13" class="edge">
<title>RFC7414&#45;&gt;rev_cites</title>
<path fill="none" stroke="black" d="M1483.79,-461.76C1402.96,-464.76 1313.12,-468.09 1263.24,-469.94"/>
<polygon fill="black" stroke="black" points="1263.13,-466.44 1253.26,-470.31 1263.38,-473.43 1263.13,-466.44"/>
</g>
</g>
</svg>
