<?xml version="1.0" encoding="UTF-8" standalone="no"?>
<!DOCTYPE svg PUBLIC "-//W3C//DTD SVG 1.1//EN"
 "http://www.w3.org/Graphics/SVG/1.1/DTD/svg11.dtd">
<!-- Generated by graphviz version 14.1.1 (20251213.1925)
 -->
<!-- Title: Flow Pages: 1 -->
<svg width="1853pt" height="1236pt"
 viewBox="0.00 0.00 1853.00 1236.00" xmlns="http://www.w3.org/2000/svg" xmlns:xlink="http://www.w3.org/1999/xlink">
<g id="graph0" class="graph" transform="scale(1 1) rotate(0) translate(4 1232.01)">
<title>Flow</title>
<polygon fill="white" stroke="none" points="-4,4 -4,-1232.01 1848.64,-1232.01 1848.64,4 -4,4"/>
<!-- RFC2032 -->
<g id="node1" class="node">
<title>RFC2032</title>
<g id="a_node1"><a xlink:title="This memo describes a scheme to packetize an H.261 video stream for transport using the Real&#45;time Transport Protocol, RTP, with any of the underlying protocols that carry RTP. [STANDARDS&#45;TRACK]">
<ellipse fill="green" stroke="black" stroke-width="3" cx="949.85" cy="-824.11" rx="204.35" ry="65.05"/>
<text xml:space="preserve" text-anchor="middle" x="949.85" y="-849.01" font-family="Times,serif" font-size="18.00">RFC2032</text>
<text xml:space="preserve" text-anchor="middle" x="949.85" y="-828.01" font-family="Times,serif" font-size="18.00">RTP Payload Format for H.261 Video</text>
<text xml:space="preserve" text-anchor="middle" x="949.85" y="-807.01" font-family="Times,serif" font-size="18.00">Streams</text>
<text xml:space="preserve" text-anchor="middle" x="949.85" y="-786.01" font-family="Times,serif" font-size="18.00">1996</text>
</a>
</g>
</g>
<!-- obs -->
<g id="node4" class="node">
<title>obs</title>
<polygon fill="lightblue" stroke="black" points="1339.6,-1013.85 1273.35,-1013.85 1273.35,-977.85 1339.6,-977.85 1339.6,-1013.85"/>
<text xml:space="preserve" text-anchor="middle" x="1306.47" y="-990.8" font-family="Times,serif" font-size="14.00">obsoletes</text>
</g>
<!-- RFC2032&#45;&gt;obs -->
<g id="edge3" class="edge">
<title>RFC2032&#45;&gt;obs</title>
<path fill="none" stroke="black" d="M1064.16,-879.16C1131.73,-911.7 1213.44,-951.05 1262.61,-974.73"/>
<polygon fill="black" stroke="black" points="1261,-977.84 1271.53,-979.03 1264.04,-971.53 1261,-977.84"/>
</g>
<!-- updates -->
<g id="node5" class="node">
<title>updates</title>
<polygon fill="lightyellow" stroke="black" points="1066.55,-1228.01 1009.3,-1228.01 1009.3,-1192.01 1066.55,-1192.01 1066.55,-1228.01"/>
<text xml:space="preserve" text-anchor="middle" x="1037.93" y="-1204.96" font-family="Times,serif" font-size="14.00">updates</text>
</g>
<!-- RFC2032&#45;&gt;updates -->
<g id="edge4" class="edge">
<title>RFC2032&#45;&gt;updates</title>
<path fill="none" stroke="black" d="M964.99,-890.45C984.36,-975.3 1017.07,-1118.64 1031.15,-1180.32"/>
<polygon fill="black" stroke="black" points="1027.74,-1181.08 1033.37,-1190.05 1034.56,-1179.53 1027.74,-1181.08"/>
</g>
<!-- cites -->
<g id="node7" class="node">
<title>cites</title>
<polygon fill="lightblue" stroke="black" points="730.06,-1151.58 676.06,-1151.58 676.06,-1115.58 730.06,-1115.58 730.06,-1151.58"/>
<text xml:space="preserve" text-anchor="middle" x="703.06" y="-1128.53" font-family="Times,serif" font-size="14.00">cites</text>
</g>
<!-- RFC2032&#45;&gt;cites -->
<g id="edge6" class="edge">
<title>RFC2032&#45;&gt;cites</title>
<path fill="none" stroke="black" d="M898.72,-888.23C845.11,-955.45 763.41,-1057.9 724.77,-1106.36"/>
<polygon fill="black" stroke="black" points="722.08,-1104.12 718.58,-1114.12 727.55,-1108.48 722.08,-1104.12"/>
</g>
<!-- obs_by -->
<g id="node2" class="node">
<title>obs_by</title>
<polygon fill="lightblue" stroke="black" points="587.16,-842.11 520.91,-842.11 520.91,-806.11 587.16,-806.11 587.16,-842.11"/>
<text xml:space="preserve" text-anchor="middle" x="554.03" y="-819.06" font-family="Times,serif" font-size="14.00">obsoletes</text>
</g>
<!-- obs_by&#45;&gt;RFC2032 -->
<g id="edge1" class="edge">
<title>obs_by&#45;&gt;RFC2032</title>
<path fill="none" stroke="black" d="M587.44,-824.11C620.99,-824.11 675.74,-824.11 732.64,-824.11"/>
<polygon fill="black" stroke="black" points="732.53,-827.61 742.53,-824.11 732.53,-820.61 732.53,-827.61"/>
</g>
<!-- RFC4587 -->
<g id="node3" class="node">
<title>RFC4587</title>
<g id="a_node3"><a xlink:href="RFC4587.html" xlink:title="This memo describes a scheme to packetize an H.261 video stream for transport using the Real&#45;time Transport Protocol, RTP, with any of the underlying protocols that carry RTP. The memo also describes the syntax and semantics of the Session Description Protocol (SDP) parameters needed to support the H.261 video codec. A media type registration is included for this payload format. This specification obsoletes RFC 2032. [STANDARDS&#45;TRACK]" target="_top">
<ellipse fill="none" stroke="black" cx="158.22" cy="-824.11" rx="158.22" ry="52.33"/>
<text xml:space="preserve" text-anchor="middle" x="158.22" y="-843.81" font-family="Times,serif" font-size="14.00">RFC4587</text>
<text xml:space="preserve" text-anchor="middle" x="158.22" y="-827.31" font-family="Times,serif" font-size="14.00">RTP Payload Format for H.261 Video</text>
<text xml:space="preserve" text-anchor="middle" x="158.22" y="-810.81" font-family="Times,serif" font-size="14.00">Streams</text>
<text xml:space="preserve" text-anchor="middle" x="158.22" y="-794.31" font-family="Times,serif" font-size="14.00">2006</text>
</a>
</g>
</g>
<!-- RFC4587&#45;&gt;obs_by -->
<g id="edge2" class="edge">
<title>RFC4587&#45;&gt;obs_by</title>
<path fill="none" stroke="black" d="M316.93,-824.11C386.32,-824.11 462.42,-824.11 509.21,-824.11"/>
<polygon fill="black" stroke="black" points="508.94,-827.61 518.94,-824.11 508.94,-820.61 508.94,-827.61"/>
</g>
<!-- updated_by -->
<g id="node6" class="node">
<title>updated_by</title>
<polygon fill="lightyellow" stroke="black" points="731.69,-532.65 674.44,-532.65 674.44,-496.65 731.69,-496.65 731.69,-532.65"/>
<text xml:space="preserve" text-anchor="middle" x="703.06" y="-509.6" font-family="Times,serif" font-size="14.00">updates</text>
</g>
<!-- updated_by&#45;&gt;RFC2032 -->
<g id="edge5" class="edge">
<title>updated_by&#45;&gt;RFC2032</title>
<path fill="none" stroke="black" d="M717.76,-533.08C751.22,-575.03 834.56,-679.54 891.7,-751.2"/>
<polygon fill="black" stroke="black" points="888.62,-752.95 897.59,-758.58 894.09,-748.58 888.62,-752.95"/>
</g>
<!-- rev_cites -->
<g id="node8" class="node">
<title>rev_cites</title>
<polygon fill="lightblue" stroke="black" points="1223.64,-532.65 1169.64,-532.65 1169.64,-496.65 1223.64,-496.65 1223.64,-532.65"/>
<text xml:space="preserve" text-anchor="middle" x="1196.64" y="-509.6" font-family="Times,serif" font-size="14.00">cites</text>
</g>
<!-- rev_cites&#45;&gt;RFC2032 -->
<g id="edge7" class="edge">
<title>rev_cites&#45;&gt;RFC2032</title>
<path fill="none" stroke="black" d="M1181.94,-533.08C1148.49,-575.03 1065.14,-679.54 1008,-751.2"/>
<polygon fill="black" stroke="black" points="1005.61,-748.58 1002.11,-758.58 1011.08,-752.95 1005.61,-748.58"/>
</g>
<!-- RFC4629 -->
<g id="node9" class="node">
<title>RFC4629</title>
<g id="a_node9"><a xlink:href="RFC4629.html" xlink:title="This document describes a scheme to packetize an H.263 video stream for transport using the Real&#45;time Transport Protocol (RTP) with any of the underlying protocols that carry RTP. The document also describes the syntax and semantics of the Session Description Protocol (SDP) parameters needed to support the H.263 video codec. The document obsoletes RFC 2429 and updates the H263&#45;1998 and H263&#45;2000 MIME media type in RFC 3555. [STANDARDS&#45;TRACK]" target="_top">
<ellipse fill="none" stroke="black" cx="1126.01" cy="-52.33" rx="179.96" ry="52.33"/>
<text xml:space="preserve" text-anchor="middle" x="1126.01" y="-72.03" font-family="Times,serif" font-size="14.00">RFC4629</text>
<text xml:space="preserve" text-anchor="middle" x="1126.01" y="-55.53" font-family="Times,serif" font-size="14.00">RTP Payload Format for ITU&#45;T Rec. H.263</text>
<text xml:space="preserve" text-anchor="middle" x="1126.01" y="-39.03" font-family="Times,serif" font-size="14.00">Video</text>
<text xml:space="preserve" text-anchor="middle" x="1126.01" y="-22.53" font-family="Times,serif" font-size="14.00">2007</text>
</a>
</g>
</g>
<!-- RFC4629&#45;&gt;rev_cites -->
<g id="edge8" class="edge">
<title>RFC4629&#45;&gt;rev_cites</title>
<path fill="none" stroke="black" d="M1134.04,-104.91C1148.94,-202.41 1180.39,-408.28 1192.11,-485"/>
<polygon fill="black" stroke="black" points="1188.62,-485.32 1193.59,-494.68 1195.54,-484.26 1188.62,-485.32"/>
</g>
<!-- RFC5104 -->
<g id="node10" class="node">
<title>RFC5104</title>
<g id="a_node10"><a xlink:href="RFC5104.html" xlink:title="This document specifies a few extensions to the messages defined in the Audio&#45;Visual Profile with Feedback (AVPF). They are helpful primarily in conversational multimedia scenarios where centralized multipoint functionalities are in use. However, some are also usable in smaller multicast environments and point&#45;to&#45;point calls. The extensions discussed are messages related to the ITU&#45;T Rec. H.271 Video Back Channel, Full Intra Request, Temporary Maximum Media Stream Bit Rate, and Temporal&#45;Spatial Trade&#45;off. [STANDARDS&#45;TRACK]" target="_top">
<ellipse fill="none" stroke="black" cx="1663.09" cy="-480.64" rx="181.55" ry="52.33"/>
<text xml:space="preserve" text-anchor="middle" x="1663.09" y="-500.34" font-family="Times,serif" font-size="14.00">RFC5104</text>
<text xml:space="preserve" text-anchor="middle" x="1663.09" y="-483.84" font-family="Times,serif" font-size="14.00">Codec Control Messages in the RTP Audio&#45;</text>
<text xml:space="preserve" text-anchor="middle" x="1663.09" y="-467.34" font-family="Times,serif" font-size="14.00">Visual Profile with Feedback (AVPF)</text>
<text xml:space="preserve" text-anchor="middle" x="1663.09" y="-450.84" font-family="Times,serif" font-size="14.00">2008</text>
</a>
</g>
</g>
<!-- RFC5104&#45;&gt;rev_cites -->
<g id="edge9" class="edge">
<title>RFC5104&#45;&gt;rev_cites</title>
<path fill="none" stroke="black" d="M1486.75,-493.5C1394.69,-500.21 1290.04,-507.84 1235.07,-511.85"/>
<polygon fill="black" stroke="black" points="1235.02,-508.34 1225.3,-512.56 1235.53,-515.32 1235.02,-508.34"/>
</g>
</g>
</svg>
