<?xml version="1.0" encoding="UTF-8" standalone="no"?>
<!DOCTYPE svg PUBLIC "-//W3C//DTD SVG 1.1//EN"
 "http://www.w3.org/Graphics/SVG/1.1/DTD/svg11.dtd">
<!-- Generated by graphviz version 14.1.1 (20251213.1925)
 -->
<!-- Title: Flow Pages: 1 -->
<svg width="1239pt" height="903pt"
 viewBox="0.00 0.00 1239.00 903.00" xmlns="http://www.w3.org/2000/svg" xmlns:xlink="http://www.w3.org/1999/xlink">
<g id="graph0" class="graph" transform="scale(1 1) rotate(0) translate(4 898.7)">
<title>Flow</title>
<polygon fill="white" stroke="none" points="-4,4 -4,-898.7 1234.56,-898.7 1234.56,4 -4,4"/>
<!-- RFC2220 -->
<g id="node1" class="node">
<title>RFC2220</title>
<g id="a_node1"><a xlink:title="This memorandum provides a mechanism for representing objects which are files of Machine&#45;Readable Cataloging records (MARC). &#160;The MARC formats are standards for the representation and communication of bibliographic and related information. &#160;A MARC record contains metadata for an information resource following MARC format specifications. &#160;This memo provides information for the Internet community. &#160;It does not specify an Internet standard of any kind.">
<ellipse fill="green" stroke="black" stroke-width="3" cx="374.93" cy="-482.01" rx="206.48" ry="50.2"/>
<text xml:space="preserve" text-anchor="middle" x="374.93" y="-496.41" font-family="Times,serif" font-size="18.00">RFC2220</text>
<text xml:space="preserve" text-anchor="middle" x="374.93" y="-475.41" font-family="Times,serif" font-size="18.00">The Application/MARC Content&#45;type</text>
<text xml:space="preserve" text-anchor="middle" x="374.93" y="-454.41" font-family="Times,serif" font-size="18.00">1997</text>
</a>
</g>
</g>
<!-- obs -->
<g id="node3" class="node">
<title>obs</title>
<polygon fill="lightblue" stroke="black" points="749.87,-697.36 683.62,-697.36 683.62,-661.36 749.87,-661.36 749.87,-697.36"/>
<text xml:space="preserve" text-anchor="middle" x="716.74" y="-674.31" font-family="Times,serif" font-size="14.00">obsoletes</text>
</g>
<!-- RFC2220&#45;&gt;obs -->
<g id="edge2" class="edge">
<title>RFC2220&#45;&gt;obs</title>
<path fill="none" stroke="black" d="M456.81,-529.28C525.46,-568.92 620.7,-623.91 674.79,-655.13"/>
<polygon fill="black" stroke="black" points="672.99,-658.14 683.4,-660.11 676.49,-652.08 672.99,-658.14"/>
</g>
<!-- updates -->
<g id="node4" class="node">
<title>updates</title>
<polygon fill="lightyellow" stroke="black" points="403.56,-894.7 346.31,-894.7 346.31,-858.7 403.56,-858.7 403.56,-894.7"/>
<text xml:space="preserve" text-anchor="middle" x="374.93" y="-871.65" font-family="Times,serif" font-size="14.00">updates</text>
</g>
<!-- RFC2220&#45;&gt;updates -->
<g id="edge3" class="edge">
<title>RFC2220&#45;&gt;updates</title>
<path fill="none" stroke="black" d="M374.93,-533.61C374.93,-617.41 374.93,-780.43 374.93,-847.15"/>
<polygon fill="black" stroke="black" points="371.43,-846.93 374.93,-856.93 378.43,-846.93 371.43,-846.93"/>
</g>
<!-- cites -->
<g id="node6" class="node">
<title>cites</title>
<polygon fill="lightblue" stroke="black" points="60.13,-697.36 6.13,-697.36 6.13,-661.36 60.13,-661.36 60.13,-697.36"/>
<text xml:space="preserve" text-anchor="middle" x="33.13" y="-674.31" font-family="Times,serif" font-size="14.00">cites</text>
</g>
<!-- RFC2220&#45;&gt;cites -->
<g id="edge5" class="edge">
<title>RFC2220&#45;&gt;cites</title>
<path fill="none" stroke="black" d="M293.06,-529.28C222.18,-570.2 122.96,-627.49 69.95,-658.1"/>
<polygon fill="black" stroke="black" points="68.52,-654.88 61.61,-662.91 72.02,-660.94 68.52,-654.88"/>
</g>
<!-- obs_by -->
<g id="node2" class="node">
<title>obs_by</title>
<polygon fill="lightblue" stroke="black" points="66.25,-302.67 0,-302.67 0,-266.67 66.25,-266.67 66.25,-302.67"/>
<text xml:space="preserve" text-anchor="middle" x="33.13" y="-279.62" font-family="Times,serif" font-size="14.00">obsoletes</text>
</g>
<!-- obs_by&#45;&gt;RFC2220 -->
<g id="edge1" class="edge">
<title>obs_by&#45;&gt;RFC2220</title>
<path fill="none" stroke="black" d="M64.97,-303.06C114.3,-331.54 211.03,-387.38 283.37,-429.15"/>
<polygon fill="black" stroke="black" points="281.24,-431.96 291.65,-433.93 284.74,-425.9 281.24,-431.96"/>
</g>
<!-- updated_by -->
<g id="node5" class="node">
<title>updated_by</title>
<polygon fill="lightyellow" stroke="black" points="403.56,-105.33 346.31,-105.33 346.31,-69.33 403.56,-69.33 403.56,-105.33"/>
<text xml:space="preserve" text-anchor="middle" x="374.93" y="-82.28" font-family="Times,serif" font-size="14.00">updates</text>
</g>
<!-- updated_by&#45;&gt;RFC2220 -->
<g id="edge4" class="edge">
<title>updated_by&#45;&gt;RFC2220</title>
<path fill="none" stroke="black" d="M374.93,-105.57C374.93,-160.68 374.93,-327.24 374.93,-419.26"/>
<polygon fill="black" stroke="black" points="371.43,-419.12 374.93,-429.12 378.43,-419.12 371.43,-419.12"/>
</g>
<!-- rev_cites -->
<g id="node7" class="node">
<title>rev_cites</title>
<polygon fill="lightblue" stroke="black" points="743.74,-302.67 689.74,-302.67 689.74,-266.67 743.74,-266.67 743.74,-302.67"/>
<text xml:space="preserve" text-anchor="middle" x="716.74" y="-279.62" font-family="Times,serif" font-size="14.00">cites</text>
</g>
<!-- rev_cites&#45;&gt;RFC2220 -->
<g id="edge6" class="edge">
<title>rev_cites&#45;&gt;RFC2220</title>
<path fill="none" stroke="black" d="M689.35,-300.49C641.67,-328.02 541.39,-385.91 466.83,-428.96"/>
<polygon fill="black" stroke="black" points="465.17,-425.87 458.26,-433.9 468.67,-431.94 465.17,-425.87"/>
</g>
<!-- RFC6207 -->
<g id="node8" class="node">
<title>RFC6207</title>
<g id="a_node8"><a xlink:href="RFC6207.html" xlink:title="This document specifies media types for the following formats: MODS (Metadata Object Description Schema), MADS (Metadata Authority Description Schema), METS (Metadata Encoding and Transmission Standard), MARCXML (MARC21 XML Schema), and the SRU (Search/Retrieve via URL Response Format) protocol response XML schema. &#160;These are all XML schemas providing representations of various forms of information including metadata and search results. &#160;This document is not an Internet Standards Track specification; it is published for informational purposes." target="_top">
<ellipse fill="none" stroke="black" cx="1058.55" cy="-87.33" rx="172" ry="87.33"/>
<text xml:space="preserve" text-anchor="middle" x="1058.55" y="-131.78" font-family="Times,serif" font-size="14.00">RFC6207</text>
<text xml:space="preserve" text-anchor="middle" x="1058.55" y="-115.28" font-family="Times,serif" font-size="14.00">The Media Types application/mods+xml,</text>
<text xml:space="preserve" text-anchor="middle" x="1058.55" y="-98.78" font-family="Times,serif" font-size="14.00">application/mads+xml,</text>
<text xml:space="preserve" text-anchor="middle" x="1058.55" y="-82.28" font-family="Times,serif" font-size="14.00">application/mets+xml,</text>
<text xml:space="preserve" text-anchor="middle" x="1058.55" y="-65.78" font-family="Times,serif" font-size="14.00">application/marcxml+xml, and</text>
<text xml:space="preserve" text-anchor="middle" x="1058.55" y="-49.28" font-family="Times,serif" font-size="14.00">application/sru+xml</text>
<text xml:space="preserve" text-anchor="middle" x="1058.55" y="-32.78" font-family="Times,serif" font-size="14.00">2011</text>
</a>
</g>
</g>
<!-- RFC6207&#45;&gt;rev_cites -->
<g id="edge7" class="edge">
<title>RFC6207&#45;&gt;rev_cites</title>
<path fill="none" stroke="black" d="M944.73,-153.04C878.47,-191.3 799.28,-237.02 753.81,-263.27"/>
<polygon fill="black" stroke="black" points="752.31,-260.09 745.4,-268.12 755.81,-266.15 752.31,-260.09"/>
</g>
</g>
</svg>
