<?xml version="1.0" encoding="UTF-8" standalone="no"?>
<!DOCTYPE svg PUBLIC "-//W3C//DTD SVG 1.1//EN"
 "http://www.w3.org/Graphics/SVG/1.1/DTD/svg11.dtd">
<!-- Generated by graphviz version 14.1.1 (20251213.1925)
 -->
<!-- Title: Flow Pages: 1 -->
<svg width="861pt" height="247pt"
 viewBox="0.00 0.00 861.00 247.00" xmlns="http://www.w3.org/2000/svg" xmlns:xlink="http://www.w3.org/1999/xlink">
<g id="graph0" class="graph" transform="scale(1 1) rotate(0) translate(4 243.33)">
<title>Flow</title>
<polygon fill="white" stroke="none" points="-4,4 -4,-243.33 857.09,-243.33 857.09,4 -4,4"/>
<!-- RFC2803 -->
<g id="node1" class="node">
<title>RFC2803</title>
<g id="a_node1"><a xlink:title="This memo defines a clear and unambiguous definition of digest (hash) values of the XML objects regardless of the surface string variation of XML. &#160;This memo provides information for the Internet community.">
<ellipse fill="green" stroke="black" cx="600.97" cy="-167.33" rx="160.87" ry="40.66"/>
<text xml:space="preserve" text-anchor="middle" x="600.97" y="-178.78" font-family="Times,serif" font-size="14.00">RFC2803</text>
<text xml:space="preserve" text-anchor="middle" x="600.97" y="-162.28" font-family="Times,serif" font-size="14.00">Digest Values for DOM (DOMHASH)</text>
<text xml:space="preserve" text-anchor="middle" x="600.97" y="-145.78" font-family="Times,serif" font-size="14.00">2000</text>
</a>
</g>
</g>
<!-- obs -->
<g id="node3" class="node">
<title>obs</title>
<polygon fill="lightblue" stroke="black" points="853.09,-239.33 786.84,-239.33 786.84,-203.33 853.09,-203.33 853.09,-239.33"/>
<text xml:space="preserve" text-anchor="middle" x="819.96" y="-216.28" font-family="Times,serif" font-size="14.00">obsoletes</text>
</g>
<!-- RFC2803&#45;&gt;obs -->
<g id="edge2" class="edge">
<title>RFC2803&#45;&gt;obs</title>
<path fill="none" stroke="black" d="M716.82,-195.91C737.84,-201.14 758.53,-206.29 775.74,-210.57"/>
<polygon fill="black" stroke="black" points="774.5,-213.87 785.05,-212.89 776.19,-207.07 774.5,-213.87"/>
</g>
<!-- updates -->
<g id="node4" class="node">
<title>updates</title>
<polygon fill="lightyellow" stroke="black" points="848.59,-185.33 791.34,-185.33 791.34,-149.33 848.59,-149.33 848.59,-185.33"/>
<text xml:space="preserve" text-anchor="middle" x="819.96" y="-162.28" font-family="Times,serif" font-size="14.00">updates</text>
</g>
<!-- RFC2803&#45;&gt;updates -->
<g id="edge3" class="edge">
<title>RFC2803&#45;&gt;updates</title>
<path fill="none" stroke="black" d="M762.23,-167.33C768.38,-167.33 774.23,-167.33 779.68,-167.33"/>
<polygon fill="black" stroke="black" points="779.43,-170.83 789.43,-167.33 779.43,-163.83 779.43,-170.83"/>
</g>
<!-- cites -->
<g id="node6" class="node">
<title>cites</title>
<polygon fill="lightblue" stroke="black" points="846.96,-131.33 792.96,-131.33 792.96,-95.33 846.96,-95.33 846.96,-131.33"/>
<text xml:space="preserve" text-anchor="middle" x="819.96" y="-108.28" font-family="Times,serif" font-size="14.00">cites</text>
</g>
<!-- RFC2803&#45;&gt;cites -->
<g id="edge5" class="edge">
<title>RFC2803&#45;&gt;cites</title>
<path fill="none" stroke="black" d="M716.82,-138.74C740.28,-132.91 763.35,-127.17 781.6,-122.62"/>
<polygon fill="black" stroke="black" points="782.26,-126.07 791.12,-120.26 780.57,-119.27 782.26,-126.07"/>
</g>
<!-- obs_by -->
<g id="node2" class="node">
<title>obs_by</title>
<polygon fill="lightblue" stroke="black" points="415.1,-239.33 348.85,-239.33 348.85,-203.33 415.1,-203.33 415.1,-239.33"/>
<text xml:space="preserve" text-anchor="middle" x="381.98" y="-216.28" font-family="Times,serif" font-size="14.00">obsoletes</text>
</g>
<!-- obs_by&#45;&gt;RFC2803 -->
<g id="edge1" class="edge">
<title>obs_by&#45;&gt;RFC2803</title>
<path fill="none" stroke="black" d="M415.47,-213.24C431.65,-209.21 452.36,-204.06 474.03,-198.67"/>
<polygon fill="black" stroke="black" points="474.75,-202.09 483.61,-196.28 473.06,-195.3 474.75,-202.09"/>
</g>
<!-- updated_by -->
<g id="node5" class="node">
<title>updated_by</title>
<polygon fill="lightyellow" stroke="black" points="410.6,-185.33 353.35,-185.33 353.35,-149.33 410.6,-149.33 410.6,-185.33"/>
<text xml:space="preserve" text-anchor="middle" x="381.98" y="-162.28" font-family="Times,serif" font-size="14.00">updates</text>
</g>
<!-- updated_by&#45;&gt;RFC2803 -->
<g id="edge4" class="edge">
<title>updated_by&#45;&gt;RFC2803</title>
<path fill="none" stroke="black" d="M410.9,-167.33C416.26,-167.33 422.21,-167.33 428.61,-167.33"/>
<polygon fill="black" stroke="black" points="428.25,-170.83 438.25,-167.33 428.25,-163.83 428.25,-170.83"/>
</g>
<!-- rev_cites -->
<g id="node7" class="node">
<title>rev_cites</title>
<polygon fill="lightblue" stroke="black" points="408.98,-131.33 354.98,-131.33 354.98,-95.33 408.98,-95.33 408.98,-131.33"/>
<text xml:space="preserve" text-anchor="middle" x="381.98" y="-108.28" font-family="Times,serif" font-size="14.00">cites</text>
</g>
<!-- rev_cites&#45;&gt;RFC2803 -->
<g id="edge6" class="edge">
<title>rev_cites&#45;&gt;RFC2803</title>
<path fill="none" stroke="black" d="M409.15,-119.84C426.14,-124.07 449.66,-129.92 474.39,-136.07"/>
<polygon fill="black" stroke="black" points="473.42,-139.44 483.97,-138.46 475.11,-132.65 473.42,-139.44"/>
</g>
<!-- RFC2802 -->
<g id="node8" class="node">
<title>RFC2802</title>
<g id="a_node8"><a xlink:href="RFC2802.html" xlink:title="This document describes the syntax and procedures for the computation and verification of digital signatures for use within Version 1.0 of the Internet Open Trading Protocol (IOTP). &#160;This memo provides information for the Internet community." target="_top">
<ellipse fill="none" stroke="black" cx="161.93" cy="-175.33" rx="160.87" ry="52.33"/>
<text xml:space="preserve" text-anchor="middle" x="161.93" y="-195.03" font-family="Times,serif" font-size="14.00">RFC2802</text>
<text xml:space="preserve" text-anchor="middle" x="161.93" y="-178.53" font-family="Times,serif" font-size="14.00">Digital Signatures for the v1.0 Internet</text>
<text xml:space="preserve" text-anchor="middle" x="161.93" y="-162.03" font-family="Times,serif" font-size="14.00">Open Trading Protocol (IOTP)</text>
<text xml:space="preserve" text-anchor="middle" x="161.93" y="-145.53" font-family="Times,serif" font-size="14.00">2000</text>
</a>
</g>
</g>
<!-- RFC2802&#45;&gt;rev_cites -->
<g id="edge7" class="edge">
<title>RFC2802&#45;&gt;rev_cites</title>
<path fill="none" stroke="black" d="M284.07,-140.88C305.73,-134.72 326.75,-128.75 343.64,-123.94"/>
<polygon fill="black" stroke="black" points="344.52,-127.33 353.18,-121.23 342.61,-120.6 344.52,-127.33"/>
</g>
<!-- RFC3504 -->
<g id="node9" class="node">
<title>RFC3504</title>
<g id="a_node9"><a xlink:href="RFC3504.html" xlink:title="Since the publication of the RFCs specifying Version 1.0 of the Internet Open Trading Protocol (IOTP), some errors have been noted. &#160;This informational document lists these errors and provides corrections for them. &#160;This memo provides information for the Internet community." target="_top">
<ellipse fill="none" stroke="black" cx="161.93" cy="-52.33" rx="161.93" ry="52.33"/>
<text xml:space="preserve" text-anchor="middle" x="161.93" y="-72.03" font-family="Times,serif" font-size="14.00">RFC3504</text>
<text xml:space="preserve" text-anchor="middle" x="161.93" y="-55.53" font-family="Times,serif" font-size="14.00">Internet Open Trading Protocol (IOTP)</text>
<text xml:space="preserve" text-anchor="middle" x="161.93" y="-39.03" font-family="Times,serif" font-size="14.00">Version 1, Errata</text>
<text xml:space="preserve" text-anchor="middle" x="161.93" y="-22.53" font-family="Times,serif" font-size="14.00">2003</text>
</a>
</g>
</g>
<!-- RFC3504&#45;&gt;rev_cites -->
<g id="edge8" class="edge">
<title>RFC3504&#45;&gt;rev_cites</title>
<path fill="none" stroke="black" d="M285.34,-86.57C306.64,-92.53 327.24,-98.29 343.84,-102.94"/>
<polygon fill="black" stroke="black" points="342.61,-106.23 353.19,-105.55 344.5,-99.49 342.61,-106.23"/>
</g>
</g>
</svg>
