<?xml version="1.0" encoding="UTF-8" standalone="no"?>
<!DOCTYPE svg PUBLIC "-//W3C//DTD SVG 1.1//EN"
 "http://www.w3.org/Graphics/SVG/1.1/DTD/svg11.dtd">
<!-- Generated by graphviz version 14.1.1 (20251213.1925)
 -->
<!-- Title: Flow Pages: 1 -->
<svg width="1133pt" height="1019pt"
 viewBox="0.00 0.00 1133.00 1019.00" xmlns="http://www.w3.org/2000/svg" xmlns:xlink="http://www.w3.org/1999/xlink">
<g id="graph0" class="graph" transform="scale(1 1) rotate(0) translate(4 1014.56)">
<title>Flow</title>
<polygon fill="white" stroke="none" points="-4,4 -4,-1014.56 1128.94,-1014.56 1128.94,4 -4,4"/>
<!-- RFC2083 -->
<g id="node1" class="node">
<title>RFC2083</title>
<g id="a_node1"><a xlink:title="This document describes PNG (Portable Network Graphics), an extensible file format for the lossless, portable, well&#45;compressed storage of raster images. PNG provides a patent&#45;free replacement for GIF and can also replace many common uses of TIFF. Indexed&#45;color, grayscale, and truecolor images are supported, plus an optional alpha channel. Sample depths range from 1 to 16 bits. PNG is designed to work well in online viewing applications, such as the World Wide Web, so it is fully streamable with a progressive display option. PNG is robust, providing both full file integrity checking and simple detection of common transmission errors. Also, PNG can store gamma and chromaticity data for improved color matching on heterogeneous platforms. This specification defines the Internet Media Type image/png.">
<ellipse fill="green" stroke="black" stroke-width="3" cx="406.19" cy="-679.15" rx="187.91" ry="65.05"/>
<text xml:space="preserve" text-anchor="middle" x="406.19" y="-704.05" font-family="Times,serif" font-size="18.00">RFC2083</text>
<text xml:space="preserve" text-anchor="middle" x="406.19" y="-683.05" font-family="Times,serif" font-size="18.00">PNG (Portable Network Graphics)</text>
<text xml:space="preserve" text-anchor="middle" x="406.19" y="-662.05" font-family="Times,serif" font-size="18.00">Specification Version 1.0</text>
<text xml:space="preserve" text-anchor="middle" x="406.19" y="-641.05" font-family="Times,serif" font-size="18.00">1997</text>
</a>
</g>
</g>
<!-- obs -->
<g id="node3" class="node">
<title>obs</title>
<polygon fill="lightblue" stroke="black" points="752.73,-826.97 686.48,-826.97 686.48,-790.97 752.73,-790.97 752.73,-826.97"/>
<text xml:space="preserve" text-anchor="middle" x="719.6" y="-803.92" font-family="Times,serif" font-size="14.00">obsoletes</text>
</g>
<!-- RFC2083&#45;&gt;obs -->
<g id="edge2" class="edge">
<title>RFC2083&#45;&gt;obs</title>
<path fill="none" stroke="black" d="M528.71,-729.9C580.65,-751.42 637.86,-775.12 675.98,-790.9"/>
<polygon fill="black" stroke="black" points="674.23,-793.97 684.81,-794.56 676.91,-787.5 674.23,-793.97"/>
</g>
<!-- updates -->
<g id="node4" class="node">
<title>updates</title>
<polygon fill="lightyellow" stroke="black" points="564.63,-1010.56 507.38,-1010.56 507.38,-974.56 564.63,-974.56 564.63,-1010.56"/>
<text xml:space="preserve" text-anchor="middle" x="536.01" y="-987.51" font-family="Times,serif" font-size="14.00">updates</text>
</g>
<!-- RFC2083&#45;&gt;updates -->
<g id="edge3" class="edge">
<title>RFC2083&#45;&gt;updates</title>
<path fill="none" stroke="black" d="M433.4,-744.85C461.34,-812.3 503.53,-914.15 524.01,-963.6"/>
<polygon fill="black" stroke="black" points="520.74,-964.86 527.8,-972.76 527.21,-962.18 520.74,-964.86"/>
</g>
<!-- cites -->
<g id="node6" class="node">
<title>cites</title>
<polygon fill="lightblue" stroke="black" points="303.37,-1010.56 249.37,-1010.56 249.37,-974.56 303.37,-974.56 303.37,-1010.56"/>
<text xml:space="preserve" text-anchor="middle" x="276.37" y="-987.51" font-family="Times,serif" font-size="14.00">cites</text>
</g>
<!-- RFC2083&#45;&gt;cites -->
<g id="edge5" class="edge">
<title>RFC2083&#45;&gt;cites</title>
<path fill="none" stroke="black" d="M378.97,-744.85C351.04,-812.3 308.85,-914.15 288.37,-963.6"/>
<polygon fill="black" stroke="black" points="285.17,-962.18 284.57,-972.76 291.63,-964.86 285.17,-962.18"/>
</g>
<!-- obs_by -->
<g id="node2" class="node">
<title>obs_by</title>
<polygon fill="lightblue" stroke="black" points="125.9,-826.97 59.65,-826.97 59.65,-790.97 125.9,-790.97 125.9,-826.97"/>
<text xml:space="preserve" text-anchor="middle" x="92.77" y="-803.92" font-family="Times,serif" font-size="14.00">obsoletes</text>
</g>
<!-- obs_by&#45;&gt;RFC2083 -->
<g id="edge1" class="edge">
<title>obs_by&#45;&gt;RFC2083</title>
<path fill="none" stroke="black" d="M126.32,-795.08C161.62,-780.45 219.47,-756.49 273.43,-734.14"/>
<polygon fill="black" stroke="black" points="274.51,-737.48 282.41,-730.42 271.83,-731.02 274.51,-737.48"/>
</g>
<!-- updated_by -->
<g id="node5" class="node">
<title>updated_by</title>
<polygon fill="lightyellow" stroke="black" points="121.4,-567.33 64.15,-567.33 64.15,-531.33 121.4,-531.33 121.4,-567.33"/>
<text xml:space="preserve" text-anchor="middle" x="92.77" y="-544.28" font-family="Times,serif" font-size="14.00">updates</text>
</g>
<!-- updated_by&#45;&gt;RFC2083 -->
<g id="edge4" class="edge">
<title>updated_by&#45;&gt;RFC2083</title>
<path fill="none" stroke="black" d="M121.7,-561.31C156.44,-575.7 217.09,-600.83 273.5,-624.19"/>
<polygon fill="black" stroke="black" points="272,-627.36 282.58,-627.95 274.68,-620.89 272,-627.36"/>
</g>
<!-- rev_cites -->
<g id="node7" class="node">
<title>rev_cites</title>
<polygon fill="lightblue" stroke="black" points="563.01,-383.74 509.01,-383.74 509.01,-347.74 563.01,-347.74 563.01,-383.74"/>
<text xml:space="preserve" text-anchor="middle" x="536.01" y="-360.69" font-family="Times,serif" font-size="14.00">cites</text>
</g>
<!-- rev_cites&#45;&gt;RFC2083 -->
<g id="edge6" class="edge">
<title>rev_cites&#45;&gt;RFC2083</title>
<path fill="none" stroke="black" d="M528.47,-383.94C511.19,-425.66 467.9,-530.15 437.77,-602.9"/>
<polygon fill="black" stroke="black" points="434.6,-601.42 434,-612 441.06,-604.1 434.6,-601.42"/>
</g>
<!-- RFC9559 -->
<g id="node8" class="node">
<title>RFC9559</title>
<g id="a_node8"><a xlink:href="RFC9559.html" xlink:title="This document defines the Matroska audiovisual data container structure, including definitions of its structural elements, terminology, vocabulary, and application. This document updates RFC 8794 to permit the use of a previously reserved Extensible Binary Meta Language (EBML) Element ID." target="_top">
<ellipse fill="none" stroke="black" cx="146.55" cy="-52.33" rx="146.55" ry="52.33"/>
<text xml:space="preserve" text-anchor="middle" x="146.55" y="-72.03" font-family="Times,serif" font-size="14.00">RFC9559</text>
<text xml:space="preserve" text-anchor="middle" x="146.55" y="-55.53" font-family="Times,serif" font-size="14.00">Matroska Media Container Format</text>
<text xml:space="preserve" text-anchor="middle" x="146.55" y="-39.03" font-family="Times,serif" font-size="14.00">Specification</text>
<text xml:space="preserve" text-anchor="middle" x="146.55" y="-22.53" font-family="Times,serif" font-size="14.00">2024</text>
</a>
</g>
</g>
<!-- RFC9559&#45;&gt;rev_cites -->
<g id="edge7" class="edge">
<title>RFC9559&#45;&gt;rev_cites</title>
<path fill="none" stroke="black" d="M206.12,-100.27C289.97,-167.74 439.78,-288.3 504.64,-340.5"/>
<polygon fill="black" stroke="black" points="502.05,-342.91 512.04,-346.45 506.44,-337.45 502.05,-342.91"/>
</g>
<!-- RFC9639 -->
<g id="node9" class="node">
<title>RFC9639</title>
<g id="a_node9"><a xlink:href="RFC9639.html" xlink:title="This document defines the Free Lossless Audio Codec (FLAC) format and its streamable subset. &#160;FLAC is designed to reduce the amount of computer storage space needed to store digital audio signals. &#160;It does this losslessly, i.e., it does so without losing information. &#160;FLAC is free in the sense that its specification is open and its reference implementation is open source. &#160;Compared to other lossless audio coding formats, FLAC is a format with low complexity and can be encoded and decoded with little computing resources. &#160;Decoding of FLAC has been implemented independently for many different platforms, and both encoding and decoding can be implemented without needing floating&#45;point arithmetic." target="_top">
<ellipse fill="none" stroke="black" cx="665.83" cy="-52.33" rx="149.73" ry="40.66"/>
<text xml:space="preserve" text-anchor="middle" x="665.83" y="-63.78" font-family="Times,serif" font-size="14.00">RFC9639</text>
<text xml:space="preserve" text-anchor="middle" x="665.83" y="-47.28" font-family="Times,serif" font-size="14.00">Free Lossless Audio Codec (FLAC)</text>
<text xml:space="preserve" text-anchor="middle" x="665.83" y="-30.78" font-family="Times,serif" font-size="14.00">2024</text>
</a>
</g>
</g>
<!-- RFC9639&#45;&gt;rev_cites -->
<g id="edge8" class="edge">
<title>RFC9639&#45;&gt;rev_cites</title>
<path fill="none" stroke="black" d="M648.99,-92.98C622.35,-157.28 571.15,-280.91 547.95,-336.91"/>
<polygon fill="black" stroke="black" points="544.74,-335.5 544.15,-346.08 551.21,-338.18 544.74,-335.5"/>
</g>
<!-- RFC9649 -->
<g id="node10" class="node">
<title>RFC9649</title>
<g id="a_node10"><a xlink:href="RFC9649.html" xlink:title="This document defines the WebP image format and registers a media type supporting its use." target="_top">
<ellipse fill="none" stroke="black" cx="1033.01" cy="-419.51" rx="91.92" ry="40.66"/>
<text xml:space="preserve" text-anchor="middle" x="1033.01" y="-430.96" font-family="Times,serif" font-size="14.00">RFC9649</text>
<text xml:space="preserve" text-anchor="middle" x="1033.01" y="-414.46" font-family="Times,serif" font-size="14.00">WebP Image Format</text>
<text xml:space="preserve" text-anchor="middle" x="1033.01" y="-397.96" font-family="Times,serif" font-size="14.00">2024</text>
</a>
</g>
</g>
<!-- RFC9649&#45;&gt;rev_cites -->
<g id="edge9" class="edge">
<title>RFC9649&#45;&gt;rev_cites</title>
<path fill="none" stroke="black" d="M943.3,-409.81C833.72,-397.95 653.28,-378.43 574.65,-369.92"/>
<polygon fill="black" stroke="black" points="575.19,-366.46 564.87,-368.86 574.44,-373.42 575.19,-366.46"/>
</g>
</g>
</svg>
