<?xml version="1.0" encoding="UTF-8" standalone="no"?>
<!DOCTYPE svg PUBLIC "-//W3C//DTD SVG 1.1//EN"
 "http://www.w3.org/Graphics/SVG/1.1/DTD/svg11.dtd">
<!-- Generated by graphviz version 14.1.1 (20251213.1925)
 -->
<!-- Title: Flow Pages: 1 -->
<svg width="492pt" height="152pt"
 viewBox="0.00 0.00 492.00 152.00" xmlns="http://www.w3.org/2000/svg" xmlns:xlink="http://www.w3.org/1999/xlink">
<g id="graph0" class="graph" transform="scale(1 1) rotate(0) translate(4 148)">
<title>Flow</title>
<polygon fill="white" stroke="none" points="-4,4 -4,-148 488.08,-148 488.08,4 -4,4"/>
<!-- RFC2009 -->
<g id="node1" class="node">
<title>RFC2009</title>
<g id="a_node1"><a xlink:title="This document describes a possible experiment with geographic addresses. &#160;It uses several specific IP addresses and domain names in the discussion as concrete examples to aid in understanding the concepts. &#160;This memo defines an Experimental Protocol for the Internet community.">
<ellipse fill="green" stroke="black" cx="242.04" cy="-72" rx="150.79" ry="40.66"/>
<text xml:space="preserve" text-anchor="middle" x="242.04" y="-83.45" font-family="Times,serif" font-size="14.00">RFC2009</text>
<text xml:space="preserve" text-anchor="middle" x="242.04" y="-66.95" font-family="Times,serif" font-size="14.00">GPS&#45;Based Addressing and Routing</text>
<text xml:space="preserve" text-anchor="middle" x="242.04" y="-50.45" font-family="Times,serif" font-size="14.00">1996</text>
</a>
</g>
</g>
<!-- obs -->
<g id="node3" class="node">
<title>obs</title>
<polygon fill="lightblue" stroke="black" points="484.08,-144 417.83,-144 417.83,-108 484.08,-108 484.08,-144"/>
<text xml:space="preserve" text-anchor="middle" x="450.96" y="-120.95" font-family="Times,serif" font-size="14.00">obsoletes</text>
</g>
<!-- RFC2009&#45;&gt;obs -->
<g id="edge2" class="edge">
<title>RFC2009&#45;&gt;obs</title>
<path fill="none" stroke="black" d="M351.65,-100.34C371.15,-105.43 390.41,-110.46 406.64,-114.7"/>
<polygon fill="black" stroke="black" points="405.34,-117.97 415.9,-117.11 407.1,-111.2 405.34,-117.97"/>
</g>
<!-- updates -->
<g id="node4" class="node">
<title>updates</title>
<polygon fill="lightyellow" stroke="black" points="479.58,-90 422.33,-90 422.33,-54 479.58,-54 479.58,-90"/>
<text xml:space="preserve" text-anchor="middle" x="450.96" y="-66.95" font-family="Times,serif" font-size="14.00">updates</text>
</g>
<!-- RFC2009&#45;&gt;updates -->
<g id="edge3" class="edge">
<title>RFC2009&#45;&gt;updates</title>
<path fill="none" stroke="black" d="M393.14,-72C399.33,-72 405.23,-72 410.74,-72"/>
<polygon fill="black" stroke="black" points="410.58,-75.5 420.58,-72 410.58,-68.5 410.58,-75.5"/>
</g>
<!-- cites -->
<g id="node6" class="node">
<title>cites</title>
<polygon fill="lightblue" stroke="black" points="477.96,-36 423.96,-36 423.96,0 477.96,0 477.96,-36"/>
<text xml:space="preserve" text-anchor="middle" x="450.96" y="-12.95" font-family="Times,serif" font-size="14.00">cites</text>
</g>
<!-- RFC2009&#45;&gt;cites -->
<g id="edge5" class="edge">
<title>RFC2009&#45;&gt;cites</title>
<path fill="none" stroke="black" d="M351.65,-43.66C373.74,-37.89 395.52,-32.21 412.94,-27.66"/>
<polygon fill="black" stroke="black" points="413.46,-31.14 422.25,-25.23 411.69,-24.37 413.46,-31.14"/>
</g>
<!-- obs_by -->
<g id="node2" class="node">
<title>obs_by</title>
<polygon fill="lightblue" stroke="black" points="66.25,-144 0,-144 0,-108 66.25,-108 66.25,-144"/>
<text xml:space="preserve" text-anchor="middle" x="33.12" y="-120.95" font-family="Times,serif" font-size="14.00">obsoletes</text>
</g>
<!-- obs_by&#45;&gt;RFC2009 -->
<g id="edge1" class="edge">
<title>obs_by&#45;&gt;RFC2009</title>
<path fill="none" stroke="black" d="M66.46,-117.56C81.87,-113.54 101.37,-108.45 121.71,-103.14"/>
<polygon fill="black" stroke="black" points="122.48,-106.56 131.27,-100.65 120.71,-99.79 122.48,-106.56"/>
</g>
<!-- updated_by -->
<g id="node5" class="node">
<title>updated_by</title>
<polygon fill="lightyellow" stroke="black" points="61.75,-90 4.5,-90 4.5,-54 61.75,-54 61.75,-90"/>
<text xml:space="preserve" text-anchor="middle" x="33.12" y="-66.95" font-family="Times,serif" font-size="14.00">updates</text>
</g>
<!-- updated_by&#45;&gt;RFC2009 -->
<g id="edge4" class="edge">
<title>updated_by&#45;&gt;RFC2009</title>
<path fill="none" stroke="black" d="M62.03,-72C67.4,-72 73.37,-72 79.77,-72"/>
<polygon fill="black" stroke="black" points="79.42,-75.5 89.42,-72 79.42,-68.5 79.42,-75.5"/>
</g>
<!-- rev_cites -->
<g id="node7" class="node">
<title>rev_cites</title>
<polygon fill="lightblue" stroke="black" points="60.12,-36 6.12,-36 6.12,0 60.12,0 60.12,-36"/>
<text xml:space="preserve" text-anchor="middle" x="33.12" y="-12.95" font-family="Times,serif" font-size="14.00">cites</text>
</g>
<!-- rev_cites&#45;&gt;RFC2009 -->
<g id="edge6" class="edge">
<title>rev_cites&#45;&gt;RFC2009</title>
<path fill="none" stroke="black" d="M60.33,-24.84C76.48,-29.05 98.46,-34.79 121.53,-40.81"/>
<polygon fill="black" stroke="black" points="120.53,-44.17 131.09,-43.31 122.3,-37.39 120.53,-44.17"/>
</g>
</g>
</svg>
