<?xml version="1.0" encoding="UTF-8" standalone="no"?>
<!DOCTYPE svg PUBLIC "-//W3C//DTD SVG 1.1//EN"
 "http://www.w3.org/Graphics/SVG/1.1/DTD/svg11.dtd">
<!-- Generated by graphviz version 14.1.1 (20251213.1925)
 -->
<!-- Title: Flow Pages: 1 -->
<svg width="991pt" height="458pt"
 viewBox="0.00 0.00 991.00 458.00" xmlns="http://www.w3.org/2000/svg" xmlns:xlink="http://www.w3.org/1999/xlink">
<g id="graph0" class="graph" transform="scale(1 1) rotate(0) translate(4 453.98)">
<title>Flow</title>
<polygon fill="white" stroke="none" points="-4,4 -4,-453.98 987.45,-453.98 987.45,4 -4,4"/>
<!-- RFC2615 -->
<g id="node1" class="node">
<title>RFC2615</title>
<g id="a_node1"><a xlink:title="This document describes the use of PPP over Synchronous Optical Network (SONET) and Synchronous Digital Hierarchy (SDH) circuits. [STANDARDS&#45;TRACK]">
<ellipse fill="none" stroke="black" cx="562.79" cy="-266.66" rx="101.47" ry="40.66"/>
<text xml:space="preserve" text-anchor="middle" x="562.79" y="-278.11" font-family="Times,serif" font-size="14.00">RFC2615</text>
<text xml:space="preserve" text-anchor="middle" x="562.79" y="-261.61" font-family="Times,serif" font-size="14.00">PPP over SONET/SDH</text>
<text xml:space="preserve" text-anchor="middle" x="562.79" y="-245.11" font-family="Times,serif" font-size="14.00">1999</text>
</a>
</g>
</g>
<!-- obs -->
<g id="node3" class="node">
<title>obs</title>
<polygon fill="none" stroke="black" points="755.51,-338.66 689.26,-338.66 689.26,-302.66 755.51,-302.66 755.51,-338.66"/>
<text xml:space="preserve" text-anchor="middle" x="722.38" y="-315.61" font-family="Times,serif" font-size="14.00">obsoletes</text>
</g>
<!-- RFC2615&#45;&gt;obs -->
<g id="edge2" class="edge">
<title>RFC2615&#45;&gt;obs</title>
<path fill="none" stroke="black" d="M640.74,-293.03C653.65,-297.45 666.62,-301.89 678.27,-305.89"/>
<polygon fill="black" stroke="black" points="676.97,-309.14 687.57,-309.07 679.24,-302.52 676.97,-309.14"/>
</g>
<!-- updates -->
<g id="node5" class="node">
<title>updates</title>
<polygon fill="none" stroke="black" points="751.01,-284.66 693.76,-284.66 693.76,-248.66 751.01,-248.66 751.01,-284.66"/>
<text xml:space="preserve" text-anchor="middle" x="722.38" y="-261.61" font-family="Times,serif" font-size="14.00">updates</text>
</g>
<!-- RFC2615&#45;&gt;updates -->
<g id="edge4" class="edge">
<title>RFC2615&#45;&gt;updates</title>
<path fill="none" stroke="black" d="M664.49,-266.66C670.56,-266.66 676.44,-266.66 681.97,-266.66"/>
<polygon fill="black" stroke="black" points="681.94,-270.16 691.94,-266.66 681.94,-263.16 681.94,-270.16"/>
</g>
<!-- cites -->
<g id="node7" class="node">
<title>cites</title>
<polygon fill="none" stroke="black" points="749.38,-230.66 695.38,-230.66 695.38,-194.66 749.38,-194.66 749.38,-230.66"/>
<text xml:space="preserve" text-anchor="middle" x="722.38" y="-207.61" font-family="Times,serif" font-size="14.00">cites</text>
</g>
<!-- RFC2615&#45;&gt;cites -->
<g id="edge6" class="edge">
<title>RFC2615&#45;&gt;cites</title>
<path fill="none" stroke="black" d="M640.74,-240.29C655.85,-235.11 671.05,-229.91 684.11,-225.43"/>
<polygon fill="black" stroke="black" points="685.23,-228.75 693.56,-222.19 682.96,-222.12 685.23,-228.75"/>
</g>
<!-- obs_by -->
<g id="node2" class="node">
<title>obs_by</title>
<polygon fill="none" stroke="black" points="436.32,-338.66 370.07,-338.66 370.07,-302.66 436.32,-302.66 436.32,-338.66"/>
<text xml:space="preserve" text-anchor="middle" x="403.19" y="-315.61" font-family="Times,serif" font-size="14.00">obsoletes</text>
</g>
<!-- obs_by&#45;&gt;RFC2615 -->
<g id="edge1" class="edge">
<title>obs_by&#45;&gt;RFC2615</title>
<path fill="none" stroke="black" d="M436.47,-309.6C447.55,-305.8 460.55,-301.35 473.9,-296.77"/>
<polygon fill="black" stroke="black" points="474.9,-300.13 483.22,-293.58 472.63,-293.51 474.9,-300.13"/>
</g>
<!-- RFC1619 -->
<g id="node4" class="node">
<title>RFC1619</title>
<g id="a_node4"><a xlink:href="RFC1619.html" xlink:title="This document describes the use of PPP over Synchronous Optical Network (SONET) and Synchronous Digital Heirarchy (SDH) circuits. [STANDARDS&#45;TRACK]" target="_top">
<ellipse fill="none" stroke="black" cx="881.98" cy="-320.66" rx="101.47" ry="40.66"/>
<text xml:space="preserve" text-anchor="middle" x="881.98" y="-332.11" font-family="Times,serif" font-size="14.00">RFC1619</text>
<text xml:space="preserve" text-anchor="middle" x="881.98" y="-315.61" font-family="Times,serif" font-size="14.00">PPP over SONET/SDH</text>
<text xml:space="preserve" text-anchor="middle" x="881.98" y="-299.11" font-family="Times,serif" font-size="14.00">1994</text>
</a>
</g>
</g>
<!-- obs&#45;&gt;RFC1619 -->
<g id="edge3" class="edge">
<title>obs&#45;&gt;RFC1619</title>
<path fill="none" stroke="black" d="M755.65,-320.66C759.86,-320.66 764.34,-320.66 769.01,-320.66"/>
<polygon fill="black" stroke="black" points="768.7,-324.16 778.7,-320.66 768.7,-317.16 768.7,-324.16"/>
</g>
<!-- updated_by -->
<g id="node6" class="node">
<title>updated_by</title>
<polygon fill="none" stroke="black" points="431.82,-284.66 374.57,-284.66 374.57,-248.66 431.82,-248.66 431.82,-284.66"/>
<text xml:space="preserve" text-anchor="middle" x="403.19" y="-261.61" font-family="Times,serif" font-size="14.00">updates</text>
</g>
<!-- updated_by&#45;&gt;RFC2615 -->
<g id="edge5" class="edge">
<title>updated_by&#45;&gt;RFC2615</title>
<path fill="none" stroke="black" d="M432.01,-266.66C437.5,-266.66 443.57,-266.66 449.99,-266.66"/>
<polygon fill="black" stroke="black" points="449.59,-270.16 459.59,-266.66 449.59,-263.16 449.59,-270.16"/>
</g>
<!-- rev_cites -->
<g id="node8" class="node">
<title>rev_cites</title>
<polygon fill="none" stroke="black" points="430.19,-230.66 376.19,-230.66 376.19,-194.66 430.19,-194.66 430.19,-230.66"/>
<text xml:space="preserve" text-anchor="middle" x="403.19" y="-207.61" font-family="Times,serif" font-size="14.00">cites</text>
</g>
<!-- rev_cites&#45;&gt;RFC2615 -->
<g id="edge7" class="edge">
<title>rev_cites&#45;&gt;RFC2615</title>
<path fill="none" stroke="black" d="M430.57,-221.7C442.86,-225.91 458.27,-231.19 474.16,-236.63"/>
<polygon fill="black" stroke="black" points="472.62,-239.8 483.21,-239.73 474.89,-233.18 472.62,-239.8"/>
</g>
<!-- RFC4814 -->
<g id="node9" class="node">
<title>RFC4814</title>
<g id="a_node9"><a xlink:href="RFC4814.html" xlink:title="Test engineers take pains to declare all factors that affect a given measurement, including intended load, packet length, test duration, and traffic orientation. &#160;However, current benchmarking practice overlooks two factors that have a profound impact on test results. &#160;First, existing methodologies do not require the reporting of addresses or other test traffic contents, even though these fields can affect test results. &#160;Second, stuff bits and bytes inserted in test traffic by some link&#45;layer technologies add significant and variable overhead, which in turn affects test results. &#160;This document describes the effects of these factors; recommends guidelines for test traffic contents; and offers formulas for determining the probability of bit&#45; and byte&#45;stuffing in test traffic. &#160;This memo provides information for the Internet community." target="_top">
<ellipse fill="none" stroke="black" cx="172.53" cy="-397.66" rx="172.53" ry="52.33"/>
<text xml:space="preserve" text-anchor="middle" x="172.53" y="-417.36" font-family="Times,serif" font-size="14.00">RFC4814</text>
<text xml:space="preserve" text-anchor="middle" x="172.53" y="-400.86" font-family="Times,serif" font-size="14.00">Hash and Stuffing: Overlooked Factors in</text>
<text xml:space="preserve" text-anchor="middle" x="172.53" y="-384.36" font-family="Times,serif" font-size="14.00">Network Device Benchmarking</text>
<text xml:space="preserve" text-anchor="middle" x="172.53" y="-367.86" font-family="Times,serif" font-size="14.00">2007</text>
</a>
</g>
</g>
<!-- RFC4814&#45;&gt;rev_cites -->
<g id="edge8" class="edge">
<title>RFC4814&#45;&gt;rev_cites</title>
<path fill="none" stroke="black" d="M307.27,-364.56C321.36,-356.85 334.4,-347.36 345.07,-335.66 372.63,-305.44 350.31,-280.75 371.3,-240.65"/>
<polygon fill="black" stroke="black" points="374.17,-242.67 376.27,-232.29 368.15,-239.1 374.17,-242.67"/>
</g>
<!-- RFC4840 -->
<g id="node10" class="node">
<title>RFC4840</title>
<g id="a_node10"><a xlink:href="RFC4840.html" xlink:title="This document describes architectural and operational issues that arise from link&#45;layer protocols supporting multiple Internet Protocol encapsulation methods. &#160;This memo provides information for the Internet community." target="_top">
<ellipse fill="none" stroke="black" cx="172.53" cy="-274.66" rx="138.06" ry="52.33"/>
<text xml:space="preserve" text-anchor="middle" x="172.53" y="-294.36" font-family="Times,serif" font-size="14.00">RFC4840</text>
<text xml:space="preserve" text-anchor="middle" x="172.53" y="-277.86" font-family="Times,serif" font-size="14.00">Multiple Encapsulation Methods</text>
<text xml:space="preserve" text-anchor="middle" x="172.53" y="-261.36" font-family="Times,serif" font-size="14.00">Considered Harmful</text>
<text xml:space="preserve" text-anchor="middle" x="172.53" y="-244.86" font-family="Times,serif" font-size="14.00">2007</text>
</a>
</g>
</g>
<!-- RFC4840&#45;&gt;rev_cites -->
<g id="edge9" class="edge">
<title>RFC4840&#45;&gt;rev_cites</title>
<path fill="none" stroke="black" d="M285.52,-244.29C314.1,-236.54 342.88,-228.74 364.7,-222.82"/>
<polygon fill="black" stroke="black" points="365.56,-226.22 374.3,-220.22 363.73,-219.46 365.56,-226.22"/>
</g>
<!-- RFC5704 -->
<g id="node11" class="node">
<title>RFC5704</title>
<g id="a_node11"><a xlink:href="RFC5704.html" xlink:title="This document identifies problems that may result from the absence of formal coordination and joint development on protocols of mutual interest between standards development organizations (SDOs). Some of these problems may cause significant harm to the Internet. The document suggests that a robust procedure is required prevent this from occurring in the future. The IAB has selected a number of case studies, such as Transport MPLS (T&#45;MPLS), as recent examples to describe the hazard to the Internet architecture that results from uncoordinated adaptation of a protocol. This experience has resulted in a considerable improvement in the relationship between the IETF and the ITU&#45;T. In particular, this was achieved via the establishment of the Joint working team on MPLS&#45;TP. In addition, the leadership of the two organizations agreed to improve inter&#45;organizational working practices so as to avoid conflict in the future between ITU&#45;T Recommendations and IETF RFCs. Whilst we use ITU&#45;T &#45; IETF interactions in these case studies, the scope of the document extends to all SDOs that have an overlapping protocol interest with the IETF. This memo provides information for the Internet community." target="_top">
<ellipse fill="none" stroke="black" cx="172.53" cy="-151.66" rx="157.68" ry="52.33"/>
<text xml:space="preserve" text-anchor="middle" x="172.53" y="-171.36" font-family="Times,serif" font-size="14.00">RFC5704</text>
<text xml:space="preserve" text-anchor="middle" x="172.53" y="-154.86" font-family="Times,serif" font-size="14.00">Uncoordinated Protocol Development</text>
<text xml:space="preserve" text-anchor="middle" x="172.53" y="-138.36" font-family="Times,serif" font-size="14.00">Considered Harmful</text>
<text xml:space="preserve" text-anchor="middle" x="172.53" y="-121.86" font-family="Times,serif" font-size="14.00">2009</text>
</a>
</g>
</g>
<!-- RFC5704&#45;&gt;rev_cites -->
<g id="edge10" class="edge">
<title>RFC5704&#45;&gt;rev_cites</title>
<path fill="none" stroke="black" d="M296.23,-184.39C321.27,-191.07 345.76,-197.6 364.88,-202.71"/>
<polygon fill="black" stroke="black" points="363.74,-206.02 374.31,-205.22 365.55,-199.26 363.74,-206.02"/>
</g>
<!-- RFC6272 -->
<g id="node12" class="node">
<title>RFC6272</title>
<g id="a_node12"><a xlink:href="RFC6272.html" xlink:title="This note identifies the key infrastructure protocols of the Internet Protocol Suite for use in the Smart Grid. &#160;The target audience is those people seeking guidance on how to construct an appropriate Internet Protocol Suite profile for the Smart Grid. &#160;In practice, such a profile would consist of selecting what is needed for Smart Grid deployment from the picture presented here. &#160;This document is not an Internet Standards Track specification; it is published for informational purposes." target="_top">
<ellipse fill="none" stroke="black" cx="172.53" cy="-40.66" rx="153.97" ry="40.66"/>
<text xml:space="preserve" text-anchor="middle" x="172.53" y="-52.11" font-family="Times,serif" font-size="14.00">RFC6272</text>
<text xml:space="preserve" text-anchor="middle" x="172.53" y="-35.61" font-family="Times,serif" font-size="14.00">Internet Protocols for the Smart Grid</text>
<text xml:space="preserve" text-anchor="middle" x="172.53" y="-19.11" font-family="Times,serif" font-size="14.00">2011</text>
</a>
</g>
</g>
<!-- RFC6272&#45;&gt;rev_cites -->
<g id="edge11" class="edge">
<title>RFC6272&#45;&gt;rev_cites</title>
<path fill="none" stroke="black" d="M299.88,-63.84C316.25,-70.61 331.87,-79.36 345.07,-90.66 373.2,-114.75 388.39,-155.73 395.88,-183.48"/>
<polygon fill="black" stroke="black" points="392.44,-184.15 398.27,-193 399.23,-182.45 392.44,-184.15"/>
</g>
</g>
</svg>
