<?xml version="1.0" encoding="UTF-8" standalone="no"?>
<!DOCTYPE svg PUBLIC "-//W3C//DTD SVG 1.1//EN"
 "http://www.w3.org/Graphics/SVG/1.1/DTD/svg11.dtd">
<!-- Generated by graphviz version 14.1.1 (20251213.1925)
 -->
<!-- Title: Flow Pages: 1 -->
<svg width="1283pt" height="755pt"
 viewBox="0.00 0.00 1283.00 755.00" xmlns="http://www.w3.org/2000/svg" xmlns:xlink="http://www.w3.org/1999/xlink">
<g id="graph0" class="graph" transform="scale(1 1) rotate(0) translate(4 750.98)">
<title>Flow</title>
<polygon fill="white" stroke="none" points="-4,4 -4,-750.98 1279.13,-750.98 1279.13,4 -4,4"/>
<!-- RFC2374 -->
<g id="node1" class="node">
<title>RFC2374</title>
<g id="a_node1"><a xlink:title="This document defines an IPv6 aggregatable global unicast address format for use in the Internet. [STANDARDS&#45;TRACK]">
<ellipse fill="green" stroke="black" cx="659.31" cy="-545.33" rx="157.68" ry="52.33"/>
<text xml:space="preserve" text-anchor="middle" x="659.31" y="-565.03" font-family="Times,serif" font-size="14.00">RFC2374</text>
<text xml:space="preserve" text-anchor="middle" x="659.31" y="-548.53" font-family="Times,serif" font-size="14.00">An IPv6 Aggregatable Global Unicast</text>
<text xml:space="preserve" text-anchor="middle" x="659.31" y="-532.03" font-family="Times,serif" font-size="14.00">Address Format</text>
<text xml:space="preserve" text-anchor="middle" x="659.31" y="-515.53" font-family="Times,serif" font-size="14.00">1998</text>
</a>
</g>
</g>
<!-- obs -->
<g id="node4" class="node">
<title>obs</title>
<polygon fill="lightblue" stroke="black" points="908.24,-621.33 841.99,-621.33 841.99,-585.33 908.24,-585.33 908.24,-621.33"/>
<text xml:space="preserve" text-anchor="middle" x="875.12" y="-598.28" font-family="Times,serif" font-size="14.00">obsoletes</text>
</g>
<!-- RFC2374&#45;&gt;obs -->
<g id="edge3" class="edge">
<title>RFC2374&#45;&gt;obs</title>
<path fill="none" stroke="black" d="M782.2,-578.39C799.52,-583.09 816.3,-587.64 830.68,-591.54"/>
<polygon fill="black" stroke="black" points="829.63,-594.88 840.2,-594.12 831.46,-588.13 829.63,-594.88"/>
</g>
<!-- updates -->
<g id="node6" class="node">
<title>updates</title>
<polygon fill="lightyellow" stroke="black" points="903.74,-563.33 846.49,-563.33 846.49,-527.33 903.74,-527.33 903.74,-563.33"/>
<text xml:space="preserve" text-anchor="middle" x="875.12" y="-540.28" font-family="Times,serif" font-size="14.00">updates</text>
</g>
<!-- RFC2374&#45;&gt;updates -->
<g id="edge5" class="edge">
<title>RFC2374&#45;&gt;updates</title>
<path fill="none" stroke="black" d="M817.38,-545.33C823.51,-545.33 829.36,-545.33 834.81,-545.33"/>
<polygon fill="black" stroke="black" points="834.55,-548.83 844.55,-545.33 834.55,-541.83 834.55,-548.83"/>
</g>
<!-- cites -->
<g id="node8" class="node">
<title>cites</title>
<polygon fill="lightblue" stroke="black" points="902.12,-502.33 848.12,-502.33 848.12,-466.33 902.12,-466.33 902.12,-502.33"/>
<text xml:space="preserve" text-anchor="middle" x="875.12" y="-479.28" font-family="Times,serif" font-size="14.00">cites</text>
</g>
<!-- RFC2374&#45;&gt;cites -->
<g id="edge7" class="edge">
<title>RFC2374&#45;&gt;cites</title>
<path fill="none" stroke="black" d="M779.72,-511.26C800.54,-505.32 820.73,-499.56 837.06,-494.9"/>
<polygon fill="black" stroke="black" points="837.59,-498.39 846.24,-492.28 835.67,-491.66 837.59,-498.39"/>
</g>
<!-- obs_by -->
<g id="node2" class="node">
<title>obs_by</title>
<polygon fill="lightblue" stroke="black" points="476.62,-670.33 410.37,-670.33 410.37,-634.33 476.62,-634.33 476.62,-670.33"/>
<text xml:space="preserve" text-anchor="middle" x="443.5" y="-647.28" font-family="Times,serif" font-size="14.00">obsoletes</text>
</g>
<!-- obs_by&#45;&gt;RFC2374 -->
<g id="edge1" class="edge">
<title>obs_by&#45;&gt;RFC2374</title>
<path fill="none" stroke="black" d="M476.97,-636.07C499.43,-624.83 530.6,-609.24 560.76,-594.14"/>
<polygon fill="black" stroke="black" points="562.2,-597.33 569.58,-589.73 559.07,-591.07 562.2,-597.33"/>
</g>
<!-- RFC3587 -->
<g id="node3" class="node">
<title>RFC3587</title>
<g id="a_node3"><a xlink:href="RFC3587.html" xlink:title="This document obsoletes RFC 2374, An IPv6 Aggregatable Global Unicast Address Format. &#160;It defined an IPv6 address allocation structure that includes Top Level Aggregator (TLA) and Next Level Aggregator (NLA). &#160;This document makes RFC 2374 and the TLA/NLA structure historic. &#160;This memo provides information for the Internet community." target="_top">
<ellipse fill="none" stroke="black" cx="192.69" cy="-706.33" rx="153.97" ry="40.66"/>
<text xml:space="preserve" text-anchor="middle" x="192.69" y="-717.78" font-family="Times,serif" font-size="14.00">RFC3587</text>
<text xml:space="preserve" text-anchor="middle" x="192.69" y="-701.28" font-family="Times,serif" font-size="14.00">IPv6 Global Unicast Address Format</text>
<text xml:space="preserve" text-anchor="middle" x="192.69" y="-684.78" font-family="Times,serif" font-size="14.00">2003</text>
</a>
</g>
</g>
<!-- RFC3587&#45;&gt;obs_by -->
<g id="edge2" class="edge">
<title>RFC3587&#45;&gt;obs_by</title>
<path fill="none" stroke="black" d="M312.63,-680.51C343.44,-673.82 374.71,-667.04 398.84,-661.8"/>
<polygon fill="black" stroke="black" points="399.57,-665.23 408.6,-659.68 398.08,-658.38 399.57,-665.23"/>
</g>
<!-- RFC2073 -->
<g id="node5" class="node">
<title>RFC2073</title>
<g id="a_node5"><a xlink:href="RFC2073.html" xlink:title="This document defines an IPv6 provider&#45;based unicast address format for use in the Internet. [STANDARDS&#45;TRACK]" target="_top">
<ellipse fill="none" stroke="black" cx="1104.19" cy="-607.33" rx="170.94" ry="52.33"/>
<text xml:space="preserve" text-anchor="middle" x="1104.19" y="-627.03" font-family="Times,serif" font-size="14.00">RFC2073</text>
<text xml:space="preserve" text-anchor="middle" x="1104.19" y="-610.53" font-family="Times,serif" font-size="14.00">An IPv6 Provider&#45;Based Unicast Address</text>
<text xml:space="preserve" text-anchor="middle" x="1104.19" y="-594.03" font-family="Times,serif" font-size="14.00">Format</text>
<text xml:space="preserve" text-anchor="middle" x="1104.19" y="-577.53" font-family="Times,serif" font-size="14.00">1997</text>
</a>
</g>
</g>
<!-- obs&#45;&gt;RFC2073 -->
<g id="edge4" class="edge">
<title>obs&#45;&gt;RFC2073</title>
<path fill="none" stroke="black" d="M908.65,-603.9C912.79,-603.97 917.23,-604.05 921.91,-604.13"/>
<polygon fill="black" stroke="black" points="921.67,-607.63 931.73,-604.31 921.79,-600.63 921.67,-607.63"/>
</g>
<!-- updated_by -->
<g id="node7" class="node">
<title>updated_by</title>
<polygon fill="lightyellow" stroke="black" points="472.12,-563.33 414.87,-563.33 414.87,-527.33 472.12,-527.33 472.12,-563.33"/>
<text xml:space="preserve" text-anchor="middle" x="443.5" y="-540.28" font-family="Times,serif" font-size="14.00">updates</text>
</g>
<!-- updated_by&#45;&gt;RFC2374 -->
<g id="edge6" class="edge">
<title>updated_by&#45;&gt;RFC2374</title>
<path fill="none" stroke="black" d="M472.45,-545.33C477.82,-545.33 483.78,-545.33 490.19,-545.33"/>
<polygon fill="black" stroke="black" points="489.85,-548.83 499.85,-545.33 489.85,-541.83 489.85,-548.83"/>
</g>
<!-- RFC2119 -->
<g id="node9" class="node">
<title>RFC2119</title>
<g id="a_node9"><a xlink:href="RFC2119.html" xlink:title="In many standards track documents several words are used to signify the requirements in the specification. &#160;These words are often capitalized. &#160;This document defines these words as they should be interpreted in IETF documents. &#160;This document specifies an Internet Best Current Practices for the Internet Community, and requests discussion and suggestions for improvements." target="_top">
<ellipse fill="none" stroke="black" cx="1104.19" cy="-484.33" rx="160.34" ry="52.33"/>
<text xml:space="preserve" text-anchor="middle" x="1104.19" y="-504.03" font-family="Times,serif" font-size="14.00">RFC2119</text>
<text xml:space="preserve" text-anchor="middle" x="1104.19" y="-487.53" font-family="Times,serif" font-size="14.00">Key words for use in RFCs to Indicate</text>
<text xml:space="preserve" text-anchor="middle" x="1104.19" y="-471.03" font-family="Times,serif" font-size="14.00">Requirement Levels</text>
<text xml:space="preserve" text-anchor="middle" x="1104.19" y="-454.53" font-family="Times,serif" font-size="14.00">1997</text>
</a>
</g>
</g>
<!-- cites&#45;&gt;RFC2119 -->
<g id="edge8" class="edge">
<title>cites&#45;&gt;RFC2119</title>
<path fill="none" stroke="black" d="M902.61,-484.33C911.03,-484.33 921.05,-484.33 932.06,-484.33"/>
<polygon fill="black" stroke="black" points="931.85,-487.83 941.85,-484.33 931.85,-480.83 931.85,-487.83"/>
</g>
<!-- RFC2050 -->
<g id="node10" class="node">
<title>RFC2050</title>
<g id="a_node10"><a xlink:href="RFC2050.html" xlink:title="This document describes the registry system for the distribution of globally unique Internet address space and registry operations. &#160;Particularly this document describes the rules and guidelines governing the distribution of this address space. &#160;This document specifies an Internet Best Current Practices for the Internet Community, and requests discussion and suggestions for improvements." target="_top">
<ellipse fill="none" stroke="black" cx="1104.19" cy="-361.33" rx="129.58" ry="52.33"/>
<text xml:space="preserve" text-anchor="middle" x="1104.19" y="-381.03" font-family="Times,serif" font-size="14.00">RFC2050</text>
<text xml:space="preserve" text-anchor="middle" x="1104.19" y="-364.53" font-family="Times,serif" font-size="14.00">Internet Registry IP Allocation</text>
<text xml:space="preserve" text-anchor="middle" x="1104.19" y="-348.03" font-family="Times,serif" font-size="14.00">Guidelines</text>
<text xml:space="preserve" text-anchor="middle" x="1104.19" y="-331.53" font-family="Times,serif" font-size="14.00">1996</text>
</a>
</g>
</g>
<!-- cites&#45;&gt;RFC2050 -->
<g id="edge9" class="edge">
<title>cites&#45;&gt;RFC2050</title>
<path fill="none" stroke="black" d="M889.57,-465.85C900.14,-452.46 915.93,-434.77 933.24,-423.33 949.64,-412.49 968.17,-403.25 986.81,-395.47"/>
<polygon fill="black" stroke="black" points="988.1,-398.72 996.07,-391.74 985.49,-392.23 988.1,-398.72"/>
</g>
<!-- rev_cites -->
<g id="node11" class="node">
<title>rev_cites</title>
<polygon fill="lightblue" stroke="black" points="470.5,-403.33 416.5,-403.33 416.5,-367.33 470.5,-367.33 470.5,-403.33"/>
<text xml:space="preserve" text-anchor="middle" x="443.5" y="-380.28" font-family="Times,serif" font-size="14.00">cites</text>
</g>
<!-- rev_cites&#45;&gt;RFC2374 -->
<g id="edge10" class="edge">
<title>rev_cites&#45;&gt;RFC2374</title>
<path fill="none" stroke="black" d="M469.02,-403.68C497.17,-424.74 544.65,-460.27 585.01,-490.47"/>
<polygon fill="black" stroke="black" points="582.72,-493.13 592.82,-496.32 586.91,-487.53 582.72,-493.13"/>
</g>
<!-- RFC2770 -->
<g id="node12" class="node">
<title>RFC2770</title>
<g id="a_node12"><a xlink:href="RFC2770.html" xlink:title="This describes an experimental policy for use of the class D address space using 233/8 as the experimental statically assigned subset of the class D address space. &#160;This memo defines an Experimental Protocol for the Internet community." target="_top">
<ellipse fill="none" stroke="black" cx="192.69" cy="-607.33" rx="116.32" ry="40.66"/>
<text xml:space="preserve" text-anchor="middle" x="192.69" y="-618.78" font-family="Times,serif" font-size="14.00">RFC2770</text>
<text xml:space="preserve" text-anchor="middle" x="192.69" y="-602.28" font-family="Times,serif" font-size="14.00">GLOP Addressing in 233/8</text>
<text xml:space="preserve" text-anchor="middle" x="192.69" y="-585.78" font-family="Times,serif" font-size="14.00">2000</text>
</a>
</g>
</g>
<!-- RFC2770&#45;&gt;rev_cites -->
<g id="edge11" class="edge">
<title>RFC2770&#45;&gt;rev_cites</title>
<path fill="none" stroke="black" d="M305.95,-597.34C334.73,-589.96 363.66,-577.66 385.37,-557.33 406.36,-537.67 426.49,-458.43 436.3,-414.69"/>
<polygon fill="black" stroke="black" points="439.68,-415.62 438.4,-405.11 432.84,-414.12 439.68,-415.62"/>
</g>
<!-- RFC3177 -->
<g id="node13" class="node">
<title>RFC3177</title>
<g id="a_node13"><a xlink:href="RFC3177.html" xlink:title="This document provides recommendations to the addressing registries (APNIC, ARIN and RIPE&#45;NCC) on policies for assigning IPv6 address blocks to end sites. &#160;In particular, it recommends the assignment of /48 in the general case, /64 when it is known that one and only one subnet is needed and /128 when it is absolutely known that one and only one device is connecting." target="_top">
<ellipse fill="none" stroke="black" cx="192.69" cy="-496.33" rx="192.69" ry="52.33"/>
<text xml:space="preserve" text-anchor="middle" x="192.69" y="-516.03" font-family="Times,serif" font-size="14.00">RFC3177</text>
<text xml:space="preserve" text-anchor="middle" x="192.69" y="-499.53" font-family="Times,serif" font-size="14.00">IAB/IESG Recommendations on IPv6 Address</text>
<text xml:space="preserve" text-anchor="middle" x="192.69" y="-483.03" font-family="Times,serif" font-size="14.00">Allocations to Sites</text>
<text xml:space="preserve" text-anchor="middle" x="192.69" y="-466.53" font-family="Times,serif" font-size="14.00">2001</text>
</a>
</g>
</g>
<!-- RFC3177&#45;&gt;rev_cites -->
<g id="edge12" class="edge">
<title>RFC3177&#45;&gt;rev_cites</title>
<path fill="none" stroke="black" d="M332.2,-459.82C350.59,-452.81 368.8,-444.68 385.37,-435.33 396.8,-428.88 407.98,-419.89 417.37,-411.31"/>
<polygon fill="black" stroke="black" points="419.52,-414.09 424.35,-404.67 414.7,-409.02 419.52,-414.09"/>
</g>
<!-- RFC3180 -->
<g id="node14" class="node">
<title>RFC3180</title>
<g id="a_node14"><a xlink:href="RFC3180.html" xlink:title="This document defines the policy for the use of 233/8 for statically e assigned multicast addresses. &#160;This document specifies an Internet Best Current Practices for the Internet Community, and requests discussion and suggestions for improvements." target="_top">
<ellipse fill="none" stroke="black" cx="192.69" cy="-385.33" rx="116.32" ry="40.66"/>
<text xml:space="preserve" text-anchor="middle" x="192.69" y="-396.78" font-family="Times,serif" font-size="14.00">RFC3180</text>
<text xml:space="preserve" text-anchor="middle" x="192.69" y="-380.28" font-family="Times,serif" font-size="14.00">GLOP Addressing in 233/8</text>
<text xml:space="preserve" text-anchor="middle" x="192.69" y="-363.78" font-family="Times,serif" font-size="14.00">2001</text>
</a>
</g>
</g>
<!-- RFC3180&#45;&gt;rev_cites -->
<g id="edge13" class="edge">
<title>RFC3180&#45;&gt;rev_cites</title>
<path fill="none" stroke="black" d="M309.35,-385.33C343.75,-385.33 379.05,-385.33 404.65,-385.33"/>
<polygon fill="black" stroke="black" points="404.53,-388.83 414.53,-385.33 404.53,-381.83 404.53,-388.83"/>
</g>
<!-- RFC3513 -->
<g id="node15" class="node">
<title>RFC3513</title>
<g id="a_node15"><a xlink:href="RFC3513.html" xlink:title="This specification defines the addressing architecture of the IP Version 6 (IPv6) protocol. &#160;The document includes the IPv6 addressing model, text representations of IPv6 addresses, definition of IPv6 unicast addresses, anycast addresses, and multicast addresses, and an IPv6 node&#39;s required addresses. [STANDARDS&#45;TRACK]" target="_top">
<ellipse fill="none" stroke="black" cx="192.69" cy="-274.33" rx="141.77" ry="52.33"/>
<text xml:space="preserve" text-anchor="middle" x="192.69" y="-294.03" font-family="Times,serif" font-size="14.00">RFC3513</text>
<text xml:space="preserve" text-anchor="middle" x="192.69" y="-277.53" font-family="Times,serif" font-size="14.00">Internet Protocol Version 6 (IPv6)</text>
<text xml:space="preserve" text-anchor="middle" x="192.69" y="-261.03" font-family="Times,serif" font-size="14.00">Addressing Architecture</text>
<text xml:space="preserve" text-anchor="middle" x="192.69" y="-244.53" font-family="Times,serif" font-size="14.00">2003</text>
</a>
</g>
</g>
<!-- RFC3513&#45;&gt;rev_cites -->
<g id="edge14" class="edge">
<title>RFC3513&#45;&gt;rev_cites</title>
<path fill="none" stroke="black" d="M311.44,-303.39C336.66,-311.89 362.56,-322.46 385.37,-335.33 396.8,-341.77 407.98,-350.76 417.37,-359.35"/>
<polygon fill="black" stroke="black" points="414.7,-361.63 424.35,-365.99 419.52,-356.56 414.7,-361.63"/>
</g>
<!-- RFC3675 -->
<g id="node16" class="node">
<title>RFC3675</title>
<g id="a_node16"><a xlink:href="RFC3675.html" xlink:title="Periodically there are proposals to mandate the use of a special top level name or an IP address bit to flag adult or unsafe material or the like. &#160;This document explains why this is an ill considered idea from the legal, philosophical, and particularly, the technical points of view." target="_top">
<ellipse fill="none" stroke="black" cx="192.69" cy="-163.33" rx="116.85" ry="40.66"/>
<text xml:space="preserve" text-anchor="middle" x="192.69" y="-174.78" font-family="Times,serif" font-size="14.00">RFC3675</text>
<text xml:space="preserve" text-anchor="middle" x="192.69" y="-158.28" font-family="Times,serif" font-size="14.00">.sex Considered Dangerous</text>
<text xml:space="preserve" text-anchor="middle" x="192.69" y="-141.78" font-family="Times,serif" font-size="14.00">2004</text>
</a>
</g>
</g>
<!-- RFC3675&#45;&gt;rev_cites -->
<g id="edge15" class="edge">
<title>RFC3675&#45;&gt;rev_cites</title>
<path fill="none" stroke="black" d="M305.95,-173.31C334.73,-180.69 363.66,-192.99 385.37,-213.33 425.47,-250.88 437.45,-317.22 441.01,-355.61"/>
<polygon fill="black" stroke="black" points="437.51,-355.81 441.78,-365.51 444.49,-355.27 437.51,-355.81"/>
</g>
<!-- RFC9414 -->
<g id="node17" class="node">
<title>RFC9414</title>
<g id="a_node17"><a xlink:href="RFC9414.html" xlink:title="This document analyzes the timeline of the specification and implementation of different types of transient numeric identifiers used in IETF protocols and how the security and privacy properties of such protocols have been affected as a result of it. &#160;It provides empirical evidence that advice in this area is warranted. &#160;This document is a product of the Privacy Enhancements and Assessments Research Group (PEARG) in the IRTF." target="_top">
<ellipse fill="none" stroke="black" cx="192.69" cy="-52.33" rx="174.13" ry="52.33"/>
<text xml:space="preserve" text-anchor="middle" x="192.69" y="-72.03" font-family="Times,serif" font-size="14.00">RFC9414</text>
<text xml:space="preserve" text-anchor="middle" x="192.69" y="-55.53" font-family="Times,serif" font-size="14.00">Unfortunate History of Transient Numeric</text>
<text xml:space="preserve" text-anchor="middle" x="192.69" y="-39.03" font-family="Times,serif" font-size="14.00">Identifiers</text>
<text xml:space="preserve" text-anchor="middle" x="192.69" y="-22.53" font-family="Times,serif" font-size="14.00">2023</text>
</a>
</g>
</g>
<!-- RFC9414&#45;&gt;rev_cites -->
<g id="edge16" class="edge">
<title>RFC9414&#45;&gt;rev_cites</title>
<path fill="none" stroke="black" d="M340.24,-80.43C357.18,-88.73 372.85,-99.46 385.37,-113.33 417.45,-148.82 434.11,-292.5 439.99,-355.49"/>
<polygon fill="black" stroke="black" points="436.5,-355.81 440.89,-365.45 443.47,-355.18 436.5,-355.81"/>
</g>
</g>
</svg>
