<?xml version="1.0" encoding="UTF-8" standalone="no"?>
<!DOCTYPE svg PUBLIC "-//W3C//DTD SVG 1.1//EN"
 "http://www.w3.org/Graphics/SVG/1.1/DTD/svg11.dtd">
<!-- Generated by graphviz version 14.1.1 (20251213.1925)
 -->
<!-- Title: Flow Pages: 1 -->
<svg width="874pt" height="247pt"
 viewBox="0.00 0.00 874.00 247.00" xmlns="http://www.w3.org/2000/svg" xmlns:xlink="http://www.w3.org/1999/xlink">
<g id="graph0" class="graph" transform="scale(1 1) rotate(0) translate(4 243.33)">
<title>Flow</title>
<polygon fill="white" stroke="none" points="-4,4 -4,-243.33 869.82,-243.33 869.82,4 -4,4"/>
<!-- RFC2776 -->
<g id="node1" class="node">
<title>RFC2776</title>
<g id="a_node1"><a xlink:title="This document defines a protocol, the Multicast&#45;Scope Zone Announcement Protocol (MZAP), for discovering the multicast administrative scope zones that are relevant at a particular location. [STANDARDS&#45;TRACK]">
<ellipse fill="none" stroke="black" cx="616.88" cy="-167.33" rx="157.68" ry="52.33"/>
<text xml:space="preserve" text-anchor="middle" x="616.88" y="-187.03" font-family="Times,serif" font-size="14.00">RFC2776</text>
<text xml:space="preserve" text-anchor="middle" x="616.88" y="-170.53" font-family="Times,serif" font-size="14.00">Multicast&#45;Scope Zone Announcement</text>
<text xml:space="preserve" text-anchor="middle" x="616.88" y="-154.03" font-family="Times,serif" font-size="14.00">Protocol (MZAP)</text>
<text xml:space="preserve" text-anchor="middle" x="616.88" y="-137.53" font-family="Times,serif" font-size="14.00">2000</text>
</a>
</g>
</g>
<!-- obs -->
<g id="node3" class="node">
<title>obs</title>
<polygon fill="none" stroke="black" points="865.82,-239.33 799.57,-239.33 799.57,-203.33 865.82,-203.33 865.82,-239.33"/>
<text xml:space="preserve" text-anchor="middle" x="832.69" y="-216.28" font-family="Times,serif" font-size="14.00">obsoletes</text>
</g>
<!-- RFC2776&#45;&gt;obs -->
<g id="edge2" class="edge">
<title>RFC2776&#45;&gt;obs</title>
<path fill="none" stroke="black" d="M743.18,-198.97C759.42,-203.07 775.07,-207.03 788.58,-210.44"/>
<polygon fill="black" stroke="black" points="787.37,-213.74 797.92,-212.8 789.08,-206.95 787.37,-213.74"/>
</g>
<!-- updates -->
<g id="node4" class="node">
<title>updates</title>
<polygon fill="none" stroke="black" points="861.32,-185.33 804.07,-185.33 804.07,-149.33 861.32,-149.33 861.32,-185.33"/>
<text xml:space="preserve" text-anchor="middle" x="832.69" y="-162.28" font-family="Times,serif" font-size="14.00">updates</text>
</g>
<!-- RFC2776&#45;&gt;updates -->
<g id="edge3" class="edge">
<title>RFC2776&#45;&gt;updates</title>
<path fill="none" stroke="black" d="M774.96,-167.33C781.09,-167.33 786.93,-167.33 792.38,-167.33"/>
<polygon fill="black" stroke="black" points="792.12,-170.83 802.12,-167.33 792.12,-163.83 792.12,-170.83"/>
</g>
<!-- cites -->
<g id="node6" class="node">
<title>cites</title>
<polygon fill="none" stroke="black" points="859.69,-131.33 805.69,-131.33 805.69,-95.33 859.69,-95.33 859.69,-131.33"/>
<text xml:space="preserve" text-anchor="middle" x="832.69" y="-108.28" font-family="Times,serif" font-size="14.00">cites</text>
</g>
<!-- RFC2776&#45;&gt;cites -->
<g id="edge5" class="edge">
<title>RFC2776&#45;&gt;cites</title>
<path fill="none" stroke="black" d="M743.18,-135.68C761.74,-130.99 779.53,-126.5 794.23,-122.79"/>
<polygon fill="black" stroke="black" points="795.01,-126.2 803.85,-120.36 793.3,-119.41 795.01,-126.2"/>
</g>
<!-- obs_by -->
<g id="node2" class="node">
<title>obs_by</title>
<polygon fill="none" stroke="black" points="434.2,-239.33 367.95,-239.33 367.95,-203.33 434.2,-203.33 434.2,-239.33"/>
<text xml:space="preserve" text-anchor="middle" x="401.07" y="-216.28" font-family="Times,serif" font-size="14.00">obsoletes</text>
</g>
<!-- obs_by&#45;&gt;RFC2776 -->
<g id="edge1" class="edge">
<title>obs_by&#45;&gt;RFC2776</title>
<path fill="none" stroke="black" d="M434.54,-213.12C447.29,-209.91 462.84,-205.98 479.41,-201.79"/>
<polygon fill="black" stroke="black" points="480.13,-205.22 488.97,-199.38 478.42,-198.43 480.13,-205.22"/>
</g>
<!-- updated_by -->
<g id="node5" class="node">
<title>updated_by</title>
<polygon fill="none" stroke="black" points="429.7,-185.33 372.45,-185.33 372.45,-149.33 429.7,-149.33 429.7,-185.33"/>
<text xml:space="preserve" text-anchor="middle" x="401.07" y="-162.28" font-family="Times,serif" font-size="14.00">updates</text>
</g>
<!-- updated_by&#45;&gt;RFC2776 -->
<g id="edge4" class="edge">
<title>updated_by&#45;&gt;RFC2776</title>
<path fill="none" stroke="black" d="M430.02,-167.33C435.39,-167.33 441.36,-167.33 447.76,-167.33"/>
<polygon fill="black" stroke="black" points="447.43,-170.83 457.43,-167.33 447.43,-163.83 447.43,-170.83"/>
</g>
<!-- rev_cites -->
<g id="node7" class="node">
<title>rev_cites</title>
<polygon fill="none" stroke="black" points="428.07,-131.33 374.07,-131.33 374.07,-95.33 428.07,-95.33 428.07,-131.33"/>
<text xml:space="preserve" text-anchor="middle" x="401.07" y="-108.28" font-family="Times,serif" font-size="14.00">cites</text>
</g>
<!-- rev_cites&#45;&gt;RFC2776 -->
<g id="edge6" class="edge">
<title>rev_cites&#45;&gt;RFC2776</title>
<path fill="none" stroke="black" d="M428.29,-119.95C442.12,-123.44 460.26,-128.02 479.81,-132.96"/>
<polygon fill="black" stroke="black" points="478.77,-136.31 489.32,-135.36 480.49,-129.52 478.77,-136.31"/>
</g>
<!-- RFC2907 -->
<g id="node8" class="node">
<title>RFC2907</title>
<g id="a_node8"><a xlink:href="RFC2907.html" xlink:title="This document defines a new option to the Multicast Address Dynamic Client Allocation Protocol (MADCAP) to support nested scoping. [STANDARDS&#45;TRACK]" target="_top">
<ellipse fill="none" stroke="black" cx="171.47" cy="-175.33" rx="171.47" ry="52.33"/>
<text xml:space="preserve" text-anchor="middle" x="171.47" y="-195.03" font-family="Times,serif" font-size="14.00">RFC2907</text>
<text xml:space="preserve" text-anchor="middle" x="171.47" y="-178.53" font-family="Times,serif" font-size="14.00">MADCAP Multicast Scope Nesting State</text>
<text xml:space="preserve" text-anchor="middle" x="171.47" y="-162.03" font-family="Times,serif" font-size="14.00">Option</text>
<text xml:space="preserve" text-anchor="middle" x="171.47" y="-145.53" font-family="Times,serif" font-size="14.00">2000</text>
</a>
</g>
</g>
<!-- RFC2907&#45;&gt;rev_cites -->
<g id="edge7" class="edge">
<title>RFC2907&#45;&gt;rev_cites</title>
<path fill="none" stroke="black" d="M300.57,-140.43C323.46,-134.2 345.56,-128.18 363.1,-123.4"/>
<polygon fill="black" stroke="black" points="363.73,-126.85 372.46,-120.85 361.89,-120.1 363.73,-126.85"/>
</g>
<!-- RFC6308 -->
<g id="node9" class="node">
<title>RFC6308</title>
<g id="a_node9"><a xlink:href="RFC6308.html" xlink:title="The lack of up&#45;to&#45;date documentation on IP multicast address allocation and assignment procedures has caused a great deal of confusion. &#160;To clarify the situation, this memo describes the allocation and assignment techniques and mechanisms currently (as of this writing) in use. &#160;This document is not an Internet Standards Track specification; it is published for informational purposes." target="_top">
<ellipse fill="none" stroke="black" cx="171.47" cy="-52.33" rx="145.49" ry="52.33"/>
<text xml:space="preserve" text-anchor="middle" x="171.47" y="-72.03" font-family="Times,serif" font-size="14.00">RFC6308</text>
<text xml:space="preserve" text-anchor="middle" x="171.47" y="-55.53" font-family="Times,serif" font-size="14.00">Overview of the Internet Multicast</text>
<text xml:space="preserve" text-anchor="middle" x="171.47" y="-39.03" font-family="Times,serif" font-size="14.00">Addressing Architecture</text>
<text xml:space="preserve" text-anchor="middle" x="171.47" y="-22.53" font-family="Times,serif" font-size="14.00">2011</text>
</a>
</g>
</g>
<!-- RFC6308&#45;&gt;rev_cites -->
<g id="edge8" class="edge">
<title>RFC6308&#45;&gt;rev_cites</title>
<path fill="none" stroke="black" d="M288.94,-83.54C315.76,-90.73 342.38,-97.86 362.85,-103.35"/>
<polygon fill="black" stroke="black" points="361.81,-106.69 372.38,-105.9 363.62,-99.93 361.81,-106.69"/>
</g>
</g>
</svg>
