<?xml version="1.0" encoding="UTF-8" standalone="no"?>
<!DOCTYPE svg PUBLIC "-//W3C//DTD SVG 1.1//EN"
 "http://www.w3.org/Graphics/SVG/1.1/DTD/svg11.dtd">
<!-- Generated by graphviz version 14.1.1 (20251213.1925)
 -->
<!-- Title: Flow Pages: 1 -->
<svg width="897pt" height="458pt"
 viewBox="0.00 0.00 897.00 458.00" xmlns="http://www.w3.org/2000/svg" xmlns:xlink="http://www.w3.org/1999/xlink">
<g id="graph0" class="graph" transform="scale(1 1) rotate(0) translate(4 453.65)">
<title>Flow</title>
<polygon fill="white" stroke="none" points="-4,4 -4,-453.65 893.15,-453.65 893.15,4 -4,4"/>
<!-- RFC2389 -->
<g id="node1" class="node">
<title>RFC2389</title>
<g id="a_node1"><a xlink:title="This document provides a mechanism by which clients of the FTP protocol can discover which new features are supported by a particular FTP server. [STANDARDS&#45;TRACK]">
<ellipse fill="green" stroke="black" cx="637.03" cy="-284.33" rx="160.87" ry="52.33"/>
<text xml:space="preserve" text-anchor="middle" x="637.03" y="-304.03" font-family="Times,serif" font-size="14.00">RFC2389</text>
<text xml:space="preserve" text-anchor="middle" x="637.03" y="-287.53" font-family="Times,serif" font-size="14.00">Feature negotiation mechanism for the</text>
<text xml:space="preserve" text-anchor="middle" x="637.03" y="-271.03" font-family="Times,serif" font-size="14.00">File Transfer Protocol</text>
<text xml:space="preserve" text-anchor="middle" x="637.03" y="-254.53" font-family="Times,serif" font-size="14.00">1998</text>
</a>
</g>
</g>
<!-- obs -->
<g id="node3" class="node">
<title>obs</title>
<polygon fill="lightblue" stroke="black" points="889.15,-356.33 822.9,-356.33 822.9,-320.33 889.15,-320.33 889.15,-356.33"/>
<text xml:space="preserve" text-anchor="middle" x="856.03" y="-333.28" font-family="Times,serif" font-size="14.00">obsoletes</text>
</g>
<!-- RFC2389&#45;&gt;obs -->
<g id="edge2" class="edge">
<title>RFC2389&#45;&gt;obs</title>
<path fill="none" stroke="black" d="M765.83,-316.13C782.22,-320.21 798,-324.13 811.61,-327.52"/>
<polygon fill="black" stroke="black" points="810.48,-330.85 821.03,-329.87 812.17,-324.06 810.48,-330.85"/>
</g>
<!-- updates -->
<g id="node4" class="node">
<title>updates</title>
<polygon fill="lightyellow" stroke="black" points="884.65,-302.33 827.4,-302.33 827.4,-266.33 884.65,-266.33 884.65,-302.33"/>
<text xml:space="preserve" text-anchor="middle" x="856.03" y="-279.28" font-family="Times,serif" font-size="14.00">updates</text>
</g>
<!-- RFC2389&#45;&gt;updates -->
<g id="edge3" class="edge">
<title>RFC2389&#45;&gt;updates</title>
<path fill="none" stroke="black" d="M798.3,-284.33C804.44,-284.33 810.29,-284.33 815.75,-284.33"/>
<polygon fill="black" stroke="black" points="815.49,-287.83 825.49,-284.33 815.49,-280.83 815.49,-287.83"/>
</g>
<!-- cites -->
<g id="node6" class="node">
<title>cites</title>
<polygon fill="lightblue" stroke="black" points="883.03,-248.33 829.03,-248.33 829.03,-212.33 883.03,-212.33 883.03,-248.33"/>
<text xml:space="preserve" text-anchor="middle" x="856.03" y="-225.28" font-family="Times,serif" font-size="14.00">cites</text>
</g>
<!-- RFC2389&#45;&gt;cites -->
<g id="edge5" class="edge">
<title>RFC2389&#45;&gt;cites</title>
<path fill="none" stroke="black" d="M765.83,-252.52C784.89,-247.78 803.13,-243.24 818.09,-239.52"/>
<polygon fill="black" stroke="black" points="818.53,-243.02 827.39,-237.2 816.84,-236.22 818.53,-243.02"/>
</g>
<!-- obs_by -->
<g id="node2" class="node">
<title>obs_by</title>
<polygon fill="lightblue" stroke="black" points="451.17,-356.33 384.92,-356.33 384.92,-320.33 451.17,-320.33 451.17,-356.33"/>
<text xml:space="preserve" text-anchor="middle" x="418.04" y="-333.28" font-family="Times,serif" font-size="14.00">obsoletes</text>
</g>
<!-- obs_by&#45;&gt;RFC2389 -->
<g id="edge1" class="edge">
<title>obs_by&#45;&gt;RFC2389</title>
<path fill="none" stroke="black" d="M451.53,-330.24C464.55,-327 480.51,-323.03 497.54,-318.79"/>
<polygon fill="black" stroke="black" points="497.93,-322.3 506.79,-316.49 496.24,-315.51 497.93,-322.3"/>
</g>
<!-- updated_by -->
<g id="node5" class="node">
<title>updated_by</title>
<polygon fill="lightyellow" stroke="black" points="446.67,-302.33 389.42,-302.33 389.42,-266.33 446.67,-266.33 446.67,-302.33"/>
<text xml:space="preserve" text-anchor="middle" x="418.04" y="-279.28" font-family="Times,serif" font-size="14.00">updates</text>
</g>
<!-- updated_by&#45;&gt;RFC2389 -->
<g id="edge4" class="edge">
<title>updated_by&#45;&gt;RFC2389</title>
<path fill="none" stroke="black" d="M446.97,-284.33C452.32,-284.33 458.27,-284.33 464.67,-284.33"/>
<polygon fill="black" stroke="black" points="464.32,-287.83 474.32,-284.33 464.32,-280.83 464.32,-287.83"/>
</g>
<!-- rev_cites -->
<g id="node7" class="node">
<title>rev_cites</title>
<polygon fill="lightblue" stroke="black" points="445.04,-248.33 391.04,-248.33 391.04,-212.33 445.04,-212.33 445.04,-248.33"/>
<text xml:space="preserve" text-anchor="middle" x="418.04" y="-225.28" font-family="Times,serif" font-size="14.00">cites</text>
</g>
<!-- rev_cites&#45;&gt;RFC2389 -->
<g id="edge6" class="edge">
<title>rev_cites&#45;&gt;RFC2389</title>
<path fill="none" stroke="black" d="M445.22,-236.84C459.2,-240.32 477.6,-244.9 497.47,-249.84"/>
<polygon fill="black" stroke="black" points="496.62,-253.24 507.17,-252.26 498.31,-246.45 496.62,-253.24"/>
</g>
<!-- RFC2640 -->
<g id="node8" class="node">
<title>RFC2640</title>
<g id="a_node8"><a xlink:href="RFC2640.html" xlink:title="This document addresses the internationalization (I18n) of FTP, which includes supporting the multiple character sets and languages found throughout the Internet community. &#160;This is achieved by extending the FTP specification and giving recommendations for proper internationalization support. [STANDARDS&#45;TRACK]" target="_top">
<ellipse fill="none" stroke="black" cx="179.96" cy="-397.33" rx="128.52" ry="52.33"/>
<text xml:space="preserve" text-anchor="middle" x="179.96" y="-417.03" font-family="Times,serif" font-size="14.00">RFC2640</text>
<text xml:space="preserve" text-anchor="middle" x="179.96" y="-400.53" font-family="Times,serif" font-size="14.00">Internationalization of the File</text>
<text xml:space="preserve" text-anchor="middle" x="179.96" y="-384.03" font-family="Times,serif" font-size="14.00">Transfer Protocol</text>
<text xml:space="preserve" text-anchor="middle" x="179.96" y="-367.53" font-family="Times,serif" font-size="14.00">1999</text>
</a>
</g>
</g>
<!-- RFC2640&#45;&gt;rev_cites -->
<g id="edge7" class="edge">
<title>RFC2640&#45;&gt;rev_cites</title>
<path fill="none" stroke="black" d="M297.02,-375.36C320.21,-366.45 342.7,-353.92 359.92,-336.33 383.46,-312.26 367.75,-291.77 385.95,-258.49"/>
<polygon fill="black" stroke="black" points="388.91,-260.37 391.24,-250.04 382.97,-256.66 388.91,-260.37"/>
</g>
<!-- RFC5797 -->
<g id="node9" class="node">
<title>RFC5797</title>
<g id="a_node9"><a xlink:href="RFC5797.html" xlink:title="Every version of the FTP specification has added a few new commands, with the early ones summarized in RFC 959. &#160;RFC 2389 established a mechanism for specifying and negotiating FTP extensions. &#160;The number of extensions, both those supported by the mechanism and some that are not, continues to increase. &#160;An IANA registry of FTP Command and Feature names is established to reduce the likelihood of conflict of names and the consequent ambiguity. &#160;This specification establishes that registry. [STANDARDS&#45;TRACK]" target="_top">
<ellipse fill="none" stroke="black" cx="179.96" cy="-286.33" rx="162.99" ry="40.66"/>
<text xml:space="preserve" text-anchor="middle" x="179.96" y="-297.78" font-family="Times,serif" font-size="14.00">RFC5797</text>
<text xml:space="preserve" text-anchor="middle" x="179.96" y="-281.28" font-family="Times,serif" font-size="14.00">FTP Command and Extension Registry</text>
<text xml:space="preserve" text-anchor="middle" x="179.96" y="-264.78" font-family="Times,serif" font-size="14.00">2010</text>
</a>
</g>
</g>
<!-- RFC5797&#45;&gt;rev_cites -->
<g id="edge8" class="edge">
<title>RFC5797&#45;&gt;rev_cites</title>
<path fill="none" stroke="black" d="M299.35,-258.24C328.6,-251.3 357.83,-244.37 379.84,-239.15"/>
<polygon fill="black" stroke="black" points="380.57,-242.57 389.5,-236.86 378.96,-235.76 380.57,-242.57"/>
</g>
<!-- RFC6384 -->
<g id="node10" class="node">
<title>RFC6384</title>
<g id="a_node10"><a xlink:href="RFC6384.html" xlink:title="The File Transfer Protocol (FTP) has a very long history, and despite the fact that today other options exist to perform file transfers, FTP is still in common use. As such, in situations where some client computers only have IPv6 connectivity while many servers are still IPv4&#45;only and IPv6&#45;to&#45;IPv4 translators are used to bridge that gap, it is important that FTP is made to work through these translators to the best possible extent. FTP has an active and a passive mode, both as original commands that are IPv4&#45;specific and as extended, IP version agnostic commands. The only FTP mode that works without changes through an IPv6&#45;to&#45;IPv4 translator is extended passive. However, many existing FTP servers do not support this mode, and some clients do not ask for it. This document specifies a middlebox that may solve this mismatch. [STANDARDS&#45;TRACK]" target="_top">
<ellipse fill="none" stroke="black" cx="179.96" cy="-175.33" rx="179.43" ry="52.33"/>
<text xml:space="preserve" text-anchor="middle" x="179.96" y="-195.03" font-family="Times,serif" font-size="14.00">RFC6384</text>
<text xml:space="preserve" text-anchor="middle" x="179.96" y="-178.53" font-family="Times,serif" font-size="14.00">An FTP Application Layer Gateway (ALG)</text>
<text xml:space="preserve" text-anchor="middle" x="179.96" y="-162.03" font-family="Times,serif" font-size="14.00">for IPv6&#45;to&#45;IPv4 Translation</text>
<text xml:space="preserve" text-anchor="middle" x="179.96" y="-145.53" font-family="Times,serif" font-size="14.00">2011</text>
</a>
</g>
</g>
<!-- RFC6384&#45;&gt;rev_cites -->
<g id="edge9" class="edge">
<title>RFC6384&#45;&gt;rev_cites</title>
<path fill="none" stroke="black" d="M321.02,-207.96C342.8,-213.03 363.54,-217.86 380.14,-221.73"/>
<polygon fill="black" stroke="black" points="378.92,-225.04 389.46,-223.9 380.51,-218.22 378.92,-225.04"/>
</g>
<!-- RFC7151 -->
<g id="node11" class="node">
<title>RFC7151</title>
<g id="a_node11"><a xlink:href="RFC7151.html" xlink:title="The File Transfer Protocol, as defined in RFC 959, does not provide a way for FTP clients and servers to differentiate between multiple DNS names that are registered for a single IP address. &#160;This document defines a new FTP command that provides a mechanism for FTP clients and servers to identify individual virtual hosts on an FTP server." target="_top">
<ellipse fill="none" stroke="black" cx="179.96" cy="-52.33" rx="179.96" ry="52.33"/>
<text xml:space="preserve" text-anchor="middle" x="179.96" y="-72.03" font-family="Times,serif" font-size="14.00">RFC7151</text>
<text xml:space="preserve" text-anchor="middle" x="179.96" y="-55.53" font-family="Times,serif" font-size="14.00">File Transfer Protocol HOST Command for</text>
<text xml:space="preserve" text-anchor="middle" x="179.96" y="-39.03" font-family="Times,serif" font-size="14.00">Virtual Hosts</text>
<text xml:space="preserve" text-anchor="middle" x="179.96" y="-22.53" font-family="Times,serif" font-size="14.00">2014</text>
</a>
</g>
</g>
<!-- RFC7151&#45;&gt;rev_cites -->
<g id="edge10" class="edge">
<title>RFC7151&#45;&gt;rev_cites</title>
<path fill="none" stroke="black" d="M317.26,-86.57C332.68,-94.09 347.35,-103.23 359.92,-114.33 386.01,-137.36 401.45,-175.05 409.57,-201.19"/>
<polygon fill="black" stroke="black" points="406.13,-201.87 412.28,-210.49 412.85,-199.91 406.13,-201.87"/>
</g>
</g>
</svg>
