<?xml version="1.0" encoding="UTF-8" standalone="no"?>
<!DOCTYPE svg PUBLIC "-//W3C//DTD SVG 1.1//EN"
 "http://www.w3.org/Graphics/SVG/1.1/DTD/svg11.dtd">
<!-- Generated by graphviz version 14.1.1 (20251213.1925)
 -->
<!-- Title: Flow Pages: 1 -->
<svg width="1221pt" height="860pt"
 viewBox="0.00 0.00 1221.00 860.00" xmlns="http://www.w3.org/2000/svg" xmlns:xlink="http://www.w3.org/1999/xlink">
<g id="graph0" class="graph" transform="scale(1 1) rotate(0) translate(4 856.44)">
<title>Flow</title>
<polygon fill="white" stroke="none" points="-4,4 -4,-856.44 1217.18,-856.44 1217.18,4 -4,4"/>
<!-- RFC2379 -->
<g id="node1" class="node">
<title>RFC2379</title>
<g id="a_node1"><a xlink:title="This memo presents specific implementation guidelines for running RSVP over ATM switched virtual circuits (SVCs). &#160;This document specifies an Internet Best Current Practices for the Internet Community, and requests discussion and suggestions for improvements.">
<ellipse fill="green" stroke="black" stroke-width="3" cx="371.79" cy="-443.39" rx="241.48" ry="50.2"/>
<text xml:space="preserve" text-anchor="middle" x="371.79" y="-457.79" font-family="Times,serif" font-size="18.00">RFC2379</text>
<text xml:space="preserve" text-anchor="middle" x="371.79" y="-436.79" font-family="Times,serif" font-size="18.00">RSVP over ATM Implementation Guidelines</text>
<text xml:space="preserve" text-anchor="middle" x="371.79" y="-415.79" font-family="Times,serif" font-size="18.00">1998</text>
</a>
</g>
</g>
<!-- obs -->
<g id="node3" class="node">
<title>obs</title>
<polygon fill="lightblue" stroke="black" points="743.58,-656.91 677.33,-656.91 677.33,-620.91 743.58,-620.91 743.58,-656.91"/>
<text xml:space="preserve" text-anchor="middle" x="710.46" y="-633.86" font-family="Times,serif" font-size="14.00">obsoletes</text>
</g>
<!-- RFC2379&#45;&gt;obs -->
<g id="edge2" class="edge">
<title>RFC2379&#45;&gt;obs</title>
<path fill="none" stroke="black" d="M455.51,-491.72C523.41,-530.92 616.24,-584.52 669.11,-615.04"/>
<polygon fill="black" stroke="black" points="667.1,-617.92 677.51,-619.89 670.6,-611.86 667.1,-617.92"/>
</g>
<!-- updates -->
<g id="node4" class="node">
<title>updates</title>
<polygon fill="lightyellow" stroke="black" points="400.42,-852.44 343.17,-852.44 343.17,-816.44 400.42,-816.44 400.42,-852.44"/>
<text xml:space="preserve" text-anchor="middle" x="371.79" y="-829.39" font-family="Times,serif" font-size="14.00">updates</text>
</g>
<!-- RFC2379&#45;&gt;updates -->
<g id="edge3" class="edge">
<title>RFC2379&#45;&gt;updates</title>
<path fill="none" stroke="black" d="M371.79,-494.91C371.79,-577.89 371.79,-738.52 371.79,-804.77"/>
<polygon fill="black" stroke="black" points="368.29,-804.49 371.79,-814.49 375.29,-804.49 368.29,-804.49"/>
</g>
<!-- cites -->
<g id="node6" class="node">
<title>cites</title>
<polygon fill="lightblue" stroke="black" points="60.13,-656.91 6.13,-656.91 6.13,-620.91 60.13,-620.91 60.13,-656.91"/>
<text xml:space="preserve" text-anchor="middle" x="33.13" y="-633.86" font-family="Times,serif" font-size="14.00">cites</text>
</g>
<!-- RFC2379&#45;&gt;cites -->
<g id="edge5" class="edge">
<title>RFC2379&#45;&gt;cites</title>
<path fill="none" stroke="black" d="M288.08,-491.72C218.3,-532.01 122.19,-587.49 70.18,-617.52"/>
<polygon fill="black" stroke="black" points="68.6,-614.39 61.69,-622.42 72.1,-620.45 68.6,-614.39"/>
</g>
<!-- obs_by -->
<g id="node2" class="node">
<title>obs_by</title>
<polygon fill="lightblue" stroke="black" points="66.25,-265.86 0,-265.86 0,-229.86 66.25,-229.86 66.25,-265.86"/>
<text xml:space="preserve" text-anchor="middle" x="33.13" y="-242.81" font-family="Times,serif" font-size="14.00">obsoletes</text>
</g>
<!-- obs_by&#45;&gt;RFC2379 -->
<g id="edge1" class="edge">
<title>obs_by&#45;&gt;RFC2379</title>
<path fill="none" stroke="black" d="M64.99,-266.25C113.27,-294.13 206.87,-348.17 278.05,-389.26"/>
<polygon fill="black" stroke="black" points="276.21,-392.24 286.62,-394.21 279.71,-386.18 276.21,-392.24"/>
</g>
<!-- updated_by -->
<g id="node5" class="node">
<title>updated_by</title>
<polygon fill="lightyellow" stroke="black" points="400.42,-70.33 343.17,-70.33 343.17,-34.33 400.42,-34.33 400.42,-70.33"/>
<text xml:space="preserve" text-anchor="middle" x="371.79" y="-47.28" font-family="Times,serif" font-size="14.00">updates</text>
</g>
<!-- updated_by&#45;&gt;RFC2379 -->
<g id="edge4" class="edge">
<title>updated_by&#45;&gt;RFC2379</title>
<path fill="none" stroke="black" d="M371.79,-70.66C371.79,-125.4 371.79,-289.46 371.79,-380.61"/>
<polygon fill="black" stroke="black" points="368.29,-380.37 371.79,-390.37 375.29,-380.37 368.29,-380.37"/>
</g>
<!-- rev_cites -->
<g id="node7" class="node">
<title>rev_cites</title>
<polygon fill="lightblue" stroke="black" points="737.46,-265.86 683.46,-265.86 683.46,-229.86 737.46,-229.86 737.46,-265.86"/>
<text xml:space="preserve" text-anchor="middle" x="710.46" y="-242.81" font-family="Times,serif" font-size="14.00">cites</text>
</g>
<!-- rev_cites&#45;&gt;RFC2379 -->
<g id="edge6" class="edge">
<title>rev_cites&#45;&gt;RFC2379</title>
<path fill="none" stroke="black" d="M683.03,-263.69C636.24,-290.71 538.92,-346.89 465.49,-389.29"/>
<polygon fill="black" stroke="black" points="463.97,-386.12 457.06,-394.16 467.47,-392.19 463.97,-386.12"/>
</g>
<!-- RFC4094 -->
<g id="node8" class="node">
<title>RFC4094</title>
<g id="a_node8"><a xlink:href="RFC4094.html" xlink:title="This document reviews some of the existing Quality of Service (QoS) signaling protocols for an IP network. &#160;The goal here is to learn from them and to avoid common misconceptions. &#160;Further, we need to avoid mistakes during the design and implementation of any new protocol in this area. &#160;This memo provides information for the Internet community." target="_top">
<ellipse fill="none" stroke="black" cx="1049.13" cy="-52.33" rx="164.05" ry="52.33"/>
<text xml:space="preserve" text-anchor="middle" x="1049.13" y="-72.03" font-family="Times,serif" font-size="14.00">RFC4094</text>
<text xml:space="preserve" text-anchor="middle" x="1049.13" y="-55.53" font-family="Times,serif" font-size="14.00">Analysis of Existing Quality&#45;of&#45;Service</text>
<text xml:space="preserve" text-anchor="middle" x="1049.13" y="-39.03" font-family="Times,serif" font-size="14.00">Signaling Protocols</text>
<text xml:space="preserve" text-anchor="middle" x="1049.13" y="-22.53" font-family="Times,serif" font-size="14.00">2005</text>
</a>
</g>
</g>
<!-- RFC4094&#45;&gt;rev_cites -->
<g id="edge7" class="edge">
<title>RFC4094&#45;&gt;rev_cites</title>
<path fill="none" stroke="black" d="M969.3,-98.42C899.26,-138.85 800.57,-195.83 747.57,-226.43"/>
<polygon fill="black" stroke="black" points="745.82,-223.4 738.91,-231.43 749.32,-229.46 745.82,-223.4"/>
</g>
</g>
</svg>
