<?xml version="1.0" encoding="UTF-8" standalone="no"?>
<!DOCTYPE svg PUBLIC "-//W3C//DTD SVG 1.1//EN"
 "http://www.w3.org/Graphics/SVG/1.1/DTD/svg11.dtd">
<!-- Generated by graphviz version 14.1.1 (20251213.1925)
 -->
<!-- Title: Flow Pages: 1 -->
<svg width="774pt" height="852pt"
 viewBox="0.00 0.00 774.00 852.00" xmlns="http://www.w3.org/2000/svg" xmlns:xlink="http://www.w3.org/1999/xlink">
<g id="graph0" class="graph" transform="scale(1 1) rotate(0) translate(4 848.08)">
<title>Flow</title>
<polygon fill="white" stroke="none" points="-4,4 -4,-848.08 770.07,-848.08 770.07,4 -4,4"/>
<!-- RFC2097 -->
<g id="node1" class="node">
<title>RFC2097</title>
<g id="a_node1"><a xlink:title="This document defines the Network Control Protocol for establishing and configuring the NBF protocol over PPP. &#160;The NBFCP protocol is only applicable for an end system to connect to a peer system or the LAN that peer system is connected to. [STANDARDS&#45;TRACK]">
<ellipse fill="green" stroke="black" stroke-width="3" cx="383.04" cy="-422.04" rx="235.64" ry="65.05"/>
<text xml:space="preserve" text-anchor="middle" x="383.04" y="-446.94" font-family="Times,serif" font-size="18.00">RFC2097</text>
<text xml:space="preserve" text-anchor="middle" x="383.04" y="-425.94" font-family="Times,serif" font-size="18.00">The PPP NetBIOS Frames Control Protocol</text>
<text xml:space="preserve" text-anchor="middle" x="383.04" y="-404.94" font-family="Times,serif" font-size="18.00">(NBFCP)</text>
<text xml:space="preserve" text-anchor="middle" x="383.04" y="-383.94" font-family="Times,serif" font-size="18.00">1997</text>
</a>
</g>
</g>
<!-- obs -->
<g id="node3" class="node">
<title>obs</title>
<polygon fill="lightblue" stroke="black" points="766.07,-642.06 699.82,-642.06 699.82,-606.06 766.07,-606.06 766.07,-642.06"/>
<text xml:space="preserve" text-anchor="middle" x="732.95" y="-619.01" font-family="Times,serif" font-size="14.00">obsoletes</text>
</g>
<!-- RFC2097&#45;&gt;obs -->
<g id="edge2" class="edge">
<title>RFC2097&#45;&gt;obs</title>
<path fill="none" stroke="black" d="M486.6,-481.83C555.04,-521.35 641.07,-571.02 691.24,-599.99"/>
<polygon fill="black" stroke="black" points="689.36,-602.94 699.77,-604.91 692.86,-596.88 689.36,-602.94"/>
</g>
<!-- updates -->
<g id="node4" class="node">
<title>updates</title>
<polygon fill="lightyellow" stroke="black" points="411.66,-844.08 354.41,-844.08 354.41,-808.08 411.66,-808.08 411.66,-844.08"/>
<text xml:space="preserve" text-anchor="middle" x="383.04" y="-821.03" font-family="Times,serif" font-size="14.00">updates</text>
</g>
<!-- RFC2097&#45;&gt;updates -->
<g id="edge3" class="edge">
<title>RFC2097&#45;&gt;updates</title>
<path fill="none" stroke="black" d="M383.04,-488.31C383.04,-577.27 383.04,-731.62 383.04,-796.26"/>
<polygon fill="black" stroke="black" points="379.54,-796.08 383.04,-806.08 386.54,-796.08 379.54,-796.08"/>
</g>
<!-- cites -->
<g id="node6" class="node">
<title>cites</title>
<polygon fill="lightblue" stroke="black" points="60.13,-642.06 6.13,-642.06 6.13,-606.06 60.13,-606.06 60.13,-642.06"/>
<text xml:space="preserve" text-anchor="middle" x="33.13" y="-619.01" font-family="Times,serif" font-size="14.00">cites</text>
</g>
<!-- RFC2097&#45;&gt;cites -->
<g id="edge5" class="edge">
<title>RFC2097&#45;&gt;cites</title>
<path fill="none" stroke="black" d="M279.47,-481.83C208.92,-522.57 119.67,-574.1 70.28,-602.61"/>
<polygon fill="black" stroke="black" points="68.59,-599.55 61.68,-607.58 72.09,-605.61 68.59,-599.55"/>
</g>
<!-- obs_by -->
<g id="node2" class="node">
<title>obs_by</title>
<polygon fill="lightblue" stroke="black" points="66.25,-238.02 0,-238.02 0,-202.02 66.25,-202.02 66.25,-238.02"/>
<text xml:space="preserve" text-anchor="middle" x="33.13" y="-214.97" font-family="Times,serif" font-size="14.00">obsoletes</text>
</g>
<!-- obs_by&#45;&gt;RFC2097 -->
<g id="edge1" class="edge">
<title>obs_by&#45;&gt;RFC2097</title>
<path fill="none" stroke="black" d="M65.1,-238.48C111.2,-265.1 198.64,-315.58 270.17,-356.88"/>
<polygon fill="black" stroke="black" points="267.98,-359.66 278.39,-361.63 271.48,-353.6 267.98,-359.66"/>
</g>
<!-- updated_by -->
<g id="node5" class="node">
<title>updated_by</title>
<polygon fill="lightyellow" stroke="black" points="411.66,-36 354.41,-36 354.41,0 411.66,0 411.66,-36"/>
<text xml:space="preserve" text-anchor="middle" x="383.04" y="-12.95" font-family="Times,serif" font-size="14.00">updates</text>
</g>
<!-- updated_by&#45;&gt;RFC2097 -->
<g id="edge4" class="edge">
<title>updated_by&#45;&gt;RFC2097</title>
<path fill="none" stroke="black" d="M383.04,-36.41C383.04,-89.96 383.04,-247.97 383.04,-344.31"/>
<polygon fill="black" stroke="black" points="379.54,-344.23 383.04,-354.23 386.54,-344.23 379.54,-344.23"/>
</g>
<!-- rev_cites -->
<g id="node7" class="node">
<title>rev_cites</title>
<polygon fill="lightblue" stroke="black" points="759.95,-238.02 705.95,-238.02 705.95,-202.02 759.95,-202.02 759.95,-238.02"/>
<text xml:space="preserve" text-anchor="middle" x="732.95" y="-214.97" font-family="Times,serif" font-size="14.00">cites</text>
</g>
<!-- rev_cites&#45;&gt;RFC2097 -->
<g id="edge6" class="edge">
<title>rev_cites&#45;&gt;RFC2097</title>
<path fill="none" stroke="black" d="M705.49,-235.87C660.85,-261.64 570.1,-314.04 496.21,-356.7"/>
<polygon fill="black" stroke="black" points="494.59,-353.59 487.68,-361.62 498.09,-359.65 494.59,-353.59"/>
</g>
</g>
</svg>
