<?xml version="1.0" encoding="UTF-8" standalone="no"?>
<!DOCTYPE svg PUBLIC "-//W3C//DTD SVG 1.1//EN"
 "http://www.w3.org/Graphics/SVG/1.1/DTD/svg11.dtd">
<!-- Generated by graphviz version 14.1.1 (20251213.1925)
 -->
<!-- Title: Flow Pages: 1 -->
<svg width="910pt" height="335pt"
 viewBox="0.00 0.00 910.00 335.00" xmlns="http://www.w3.org/2000/svg" xmlns:xlink="http://www.w3.org/1999/xlink">
<g id="graph0" class="graph" transform="scale(1 1) rotate(0) translate(4 330.98)">
<title>Flow</title>
<polygon fill="white" stroke="none" points="-4,4 -4,-330.98 905.88,-330.98 905.88,4 -4,4"/>
<!-- RFC3452 -->
<g id="node1" class="node">
<title>RFC3452</title>
<g id="a_node1"><a xlink:title="This document generally describes how to use Forward Error Correction (FEC) codes to efficiently provide and/or augment reliability for data transport. &#160;The primary focus of this document is the application of FEC codes to one&#45;to&#45;many reliable data transport using IP multicast. &#160;This document describes what information is needed to identify a specific FEC code, what information needs to be communicated out&#45;of&#45;band to use the FEC code, and what information is needed in data packets to identify the encoding symbols they carry. &#160;The procedures for specifying FEC codes and registering them with the Internet Assigned Numbers Authority (IANA) are also described. &#160;This document should be read in conjunction with and uses the terminology of the companion document titled, The Use of Forward Error Correction (FEC) in Reliable Multicast. &#160;This memo defines an Experimental Protocol for the Internet community.">
<ellipse fill="green" stroke="black" cx="638.09" cy="-124.66" rx="172.53" ry="52.33"/>
<text xml:space="preserve" text-anchor="middle" x="638.09" y="-144.36" font-family="Times,serif" font-size="14.00">RFC3452</text>
<text xml:space="preserve" text-anchor="middle" x="638.09" y="-127.86" font-family="Times,serif" font-size="14.00">Forward Error Correction (FEC) Building</text>
<text xml:space="preserve" text-anchor="middle" x="638.09" y="-111.36" font-family="Times,serif" font-size="14.00">Block</text>
<text xml:space="preserve" text-anchor="middle" x="638.09" y="-94.86" font-family="Times,serif" font-size="14.00">2002</text>
</a>
</g>
</g>
<!-- obs -->
<g id="node5" class="node">
<title>obs</title>
<polygon fill="lightblue" stroke="black" points="901.88,-196.66 835.63,-196.66 835.63,-160.66 901.88,-160.66 901.88,-196.66"/>
<text xml:space="preserve" text-anchor="middle" x="868.75" y="-173.61" font-family="Times,serif" font-size="14.00">obsoletes</text>
</g>
<!-- RFC3452&#45;&gt;obs -->
<g id="edge4" class="edge">
<title>RFC3452&#45;&gt;obs</title>
<path fill="none" stroke="black" d="M775.08,-156.77C792.79,-160.95 809.78,-164.97 824.26,-168.39"/>
<polygon fill="black" stroke="black" points="823.3,-171.76 833.83,-170.65 824.91,-164.94 823.3,-171.76"/>
</g>
<!-- updates -->
<g id="node6" class="node">
<title>updates</title>
<polygon fill="lightyellow" stroke="black" points="897.38,-142.66 840.13,-142.66 840.13,-106.66 897.38,-106.66 897.38,-142.66"/>
<text xml:space="preserve" text-anchor="middle" x="868.75" y="-119.61" font-family="Times,serif" font-size="14.00">updates</text>
</g>
<!-- RFC3452&#45;&gt;updates -->
<g id="edge5" class="edge">
<title>RFC3452&#45;&gt;updates</title>
<path fill="none" stroke="black" d="M810.94,-124.66C817.13,-124.66 823.01,-124.66 828.49,-124.66"/>
<polygon fill="black" stroke="black" points="828.26,-128.16 838.26,-124.66 828.26,-121.16 828.26,-128.16"/>
</g>
<!-- cites -->
<g id="node8" class="node">
<title>cites</title>
<polygon fill="lightblue" stroke="black" points="895.75,-88.66 841.75,-88.66 841.75,-52.66 895.75,-52.66 895.75,-88.66"/>
<text xml:space="preserve" text-anchor="middle" x="868.75" y="-65.61" font-family="Times,serif" font-size="14.00">cites</text>
</g>
<!-- RFC3452&#45;&gt;cites -->
<g id="edge7" class="edge">
<title>RFC3452&#45;&gt;cites</title>
<path fill="none" stroke="black" d="M775.08,-92.54C795.45,-87.73 814.87,-83.15 830.63,-79.43"/>
<polygon fill="black" stroke="black" points="831.01,-82.93 839.94,-77.23 829.4,-76.12 831.01,-82.93"/>
</g>
<!-- obs_by -->
<g id="node2" class="node">
<title>obs_by</title>
<polygon fill="lightblue" stroke="black" points="440.56,-196.66 374.31,-196.66 374.31,-160.66 440.56,-160.66 440.56,-196.66"/>
<text xml:space="preserve" text-anchor="middle" x="407.44" y="-173.61" font-family="Times,serif" font-size="14.00">obsoletes</text>
</g>
<!-- obs_by&#45;&gt;RFC3452 -->
<g id="edge1" class="edge">
<title>obs_by&#45;&gt;RFC3452</title>
<path fill="none" stroke="black" d="M440.71,-171.04C454.5,-167.78 471.66,-163.73 490.05,-159.39"/>
<polygon fill="black" stroke="black" points="490.6,-162.85 499.53,-157.15 488.99,-156.04 490.6,-162.85"/>
</g>
<!-- RFC5052 -->
<g id="node3" class="node">
<title>RFC5052</title>
<g id="a_node3"><a xlink:href="RFC5052.html" xlink:title="This document describes how to use Forward Error Correction (FEC) codes to efficiently provide and/or augment reliability for bulk data transfer over IP multicast. &#160;This document defines a framework for the definition of the information that needs to be communicated in order to use an FEC code for bulk data transfer, in addition to the encoded data itself, and for definition of formats and codes for communication of that information. &#160;Both information communicated with the encoded data itself and information that needs to be communicated &#39;out&#45;of&#45;band&#39; are considered. &#160;The procedures for specifying new FEC codes, defining the information communication requirements associated with those codes and registering them with the Internet Assigned Numbers Authority (IANA) are also described. &#160;The requirements on Content Delivery Protocols that wish to use FEC codes defined within this framework are also defined. &#160;The companion document titled The Use of Forward Error Correction (FEC) in Reliable Multicast describes some applications of FEC codes for delivering content. &#160;This document obsoletes RFC 3452. [STANDARDS&#45;TRACK]" target="_top">
<ellipse fill="none" stroke="black" cx="174.66" cy="-274.66" rx="172.53" ry="52.33"/>
<text xml:space="preserve" text-anchor="middle" x="174.66" y="-294.36" font-family="Times,serif" font-size="14.00">RFC5052</text>
<text xml:space="preserve" text-anchor="middle" x="174.66" y="-277.86" font-family="Times,serif" font-size="14.00">Forward Error Correction (FEC) Building</text>
<text xml:space="preserve" text-anchor="middle" x="174.66" y="-261.36" font-family="Times,serif" font-size="14.00">Block</text>
<text xml:space="preserve" text-anchor="middle" x="174.66" y="-244.86" font-family="Times,serif" font-size="14.00">2007</text>
</a>
</g>
</g>
<!-- RFC5052&#45;&gt;obs_by -->
<g id="edge2" class="edge">
<title>RFC5052&#45;&gt;obs_by</title>
<path fill="none" stroke="black" d="M293.21,-236.19C312.22,-228.98 331.5,-221.04 349.31,-212.66 355.62,-209.69 362.12,-206.23 368.39,-202.68"/>
<polygon fill="black" stroke="black" points="369.8,-205.91 376.66,-197.84 366.26,-199.87 369.8,-205.91"/>
</g>
<!-- RFC5445 -->
<g id="node4" class="node">
<title>RFC5445</title>
<g id="a_node4"><a xlink:href="RFC5445.html" xlink:title="This document provides Forward Error Correction (FEC) Scheme specifications according to the Reliable Multicast Transport (RMT) FEC building block for the Compact No&#45;Code FEC Scheme, the Small Block, Large Block, and Expandable FEC Scheme, the Small Block Systematic FEC Scheme, and the Compact FEC Scheme. &#160;This document obsoletes RFC 3695 and assumes responsibility for the FEC Schemes defined in RFC 3452. [STANDARDS&#45;TRACK]" target="_top">
<ellipse fill="none" stroke="black" cx="174.66" cy="-151.66" rx="160.34" ry="52.33"/>
<text xml:space="preserve" text-anchor="middle" x="174.66" y="-171.36" font-family="Times,serif" font-size="14.00">RFC5445</text>
<text xml:space="preserve" text-anchor="middle" x="174.66" y="-154.86" font-family="Times,serif" font-size="14.00">Basic Forward Error Correction (FEC)</text>
<text xml:space="preserve" text-anchor="middle" x="174.66" y="-138.36" font-family="Times,serif" font-size="14.00">Schemes</text>
<text xml:space="preserve" text-anchor="middle" x="174.66" y="-121.86" font-family="Times,serif" font-size="14.00">2009</text>
</a>
</g>
</g>
<!-- RFC5445&#45;&gt;obs_by -->
<g id="edge3" class="edge">
<title>RFC5445&#45;&gt;obs_by</title>
<path fill="none" stroke="black" d="M326.04,-169.25C339.15,-170.79 351.59,-172.24 362.6,-173.53"/>
<polygon fill="black" stroke="black" points="362.1,-177 372.44,-174.68 362.92,-170.04 362.1,-177"/>
</g>
<!-- rev_cites -->
<g id="node9" class="node">
<title>rev_cites</title>
<polygon fill="lightblue" stroke="black" points="434.44,-142.66 380.44,-142.66 380.44,-106.66 434.44,-106.66 434.44,-142.66"/>
<text xml:space="preserve" text-anchor="middle" x="407.44" y="-119.61" font-family="Times,serif" font-size="14.00">cites</text>
</g>
<!-- RFC5445&#45;&gt;rev_cites -->
<g id="edge10" class="edge">
<title>RFC5445&#45;&gt;rev_cites</title>
<path fill="none" stroke="black" d="M326.04,-134.06C341.78,-132.22 356.56,-130.49 369.04,-129.03"/>
<polygon fill="black" stroke="black" points="369.24,-132.53 378.77,-127.9 368.43,-125.58 369.24,-132.53"/>
</g>
<!-- updated_by -->
<g id="node7" class="node">
<title>updated_by</title>
<polygon fill="lightyellow" stroke="black" points="436.06,-88.66 378.81,-88.66 378.81,-52.66 436.06,-52.66 436.06,-88.66"/>
<text xml:space="preserve" text-anchor="middle" x="407.44" y="-65.61" font-family="Times,serif" font-size="14.00">updates</text>
</g>
<!-- updated_by&#45;&gt;RFC3452 -->
<g id="edge6" class="edge">
<title>updated_by&#45;&gt;RFC3452</title>
<path fill="none" stroke="black" d="M436.47,-77.28C450.88,-80.68 469.65,-85.12 489.93,-89.91"/>
<polygon fill="black" stroke="black" points="488.99,-93.28 499.52,-92.17 490.6,-86.47 488.99,-93.28"/>
</g>
<!-- rev_cites&#45;&gt;RFC3452 -->
<g id="edge8" class="edge">
<title>rev_cites&#45;&gt;RFC3452</title>
<path fill="none" stroke="black" d="M434.67,-124.66C440.36,-124.66 446.8,-124.66 453.79,-124.66"/>
<polygon fill="black" stroke="black" points="453.67,-128.16 463.67,-124.66 453.67,-121.16 453.67,-128.16"/>
</g>
<!-- RFC3819 -->
<g id="node10" class="node">
<title>RFC3819</title>
<g id="a_node10"><a xlink:href="RFC3819.html" xlink:title="This document provides advice to the designers of digital communication equipment, link&#45;layer protocols, and packet&#45;switched local networks (collectively referred to as subnetworks), who wish to support the Internet protocols but may be unfamiliar with the Internet architecture and the implications of their design choices on the performance and efficiency of the Internet. &#160;This document specifies an Internet Best Current Practices for the Internet Community, and requests discussion and suggestions for improvements." target="_top">
<ellipse fill="none" stroke="black" cx="174.66" cy="-40.66" rx="174.66" ry="40.66"/>
<text xml:space="preserve" text-anchor="middle" x="174.66" y="-52.11" font-family="Times,serif" font-size="14.00">RFC3819</text>
<text xml:space="preserve" text-anchor="middle" x="174.66" y="-35.61" font-family="Times,serif" font-size="14.00">Advice for Internet Subnetwork Designers</text>
<text xml:space="preserve" text-anchor="middle" x="174.66" y="-19.11" font-family="Times,serif" font-size="14.00">2004</text>
</a>
</g>
</g>
<!-- RFC3819&#45;&gt;rev_cites -->
<g id="edge9" class="edge">
<title>RFC3819&#45;&gt;rev_cites</title>
<path fill="none" stroke="black" d="M294.79,-70.55C313.32,-76.46 332.04,-83.18 349.31,-90.66 356.36,-93.71 363.6,-97.47 370.45,-101.37"/>
<polygon fill="black" stroke="black" points="368.47,-104.26 378.86,-106.33 372.03,-98.23 368.47,-104.26"/>
</g>
</g>
</svg>
