<?xml version="1.0" encoding="UTF-8" standalone="no"?>
<!DOCTYPE svg PUBLIC "-//W3C//DTD SVG 1.1//EN"
 "http://www.w3.org/Graphics/SVG/1.1/DTD/svg11.dtd">
<!-- Generated by graphviz version 14.1.1 (20251213.1925)
 -->
<!-- Title: Flow Pages: 1 -->
<svg width="564pt" height="152pt"
 viewBox="0.00 0.00 564.00 152.00" xmlns="http://www.w3.org/2000/svg" xmlns:xlink="http://www.w3.org/1999/xlink">
<g id="graph0" class="graph" transform="scale(1 1) rotate(0) translate(4 148)">
<title>Flow</title>
<polygon fill="white" stroke="none" points="-4,4 -4,-148 560.21,-148 560.21,4 -4,4"/>
<!-- RFC3367 -->
<g id="node1" class="node">
<title>RFC3367</title>
<g id="a_node1"><a xlink:title="None">
<ellipse fill="none" stroke="black" cx="278.1" cy="-72" rx="186.85" ry="40.66"/>
<text xml:space="preserve" text-anchor="middle" x="278.1" y="-83.45" font-family="Times,serif" font-size="14.00">RFC3367</text>
<text xml:space="preserve" text-anchor="middle" x="278.1" y="-66.95" font-family="Times,serif" font-size="14.00">Common Name Resolution Protocol (CNRP)</text>
<text xml:space="preserve" text-anchor="middle" x="278.1" y="-50.45" font-family="Times,serif" font-size="14.00">2002</text>
</a>
</g>
</g>
<!-- obs -->
<g id="node3" class="node">
<title>obs</title>
<polygon fill="none" stroke="black" points="556.21,-144 489.96,-144 489.96,-108 556.21,-108 556.21,-144"/>
<text xml:space="preserve" text-anchor="middle" x="523.08" y="-120.95" font-family="Times,serif" font-size="14.00">obsoletes</text>
</g>
<!-- RFC3367&#45;&gt;obs -->
<g id="edge2" class="edge">
<title>RFC3367&#45;&gt;obs</title>
<path fill="none" stroke="black" d="M410.19,-101.13C434.81,-106.6 458.9,-111.96 478.38,-116.29"/>
<polygon fill="black" stroke="black" points="477.58,-119.7 488.11,-118.45 479.1,-112.86 477.58,-119.7"/>
</g>
<!-- updates -->
<g id="node4" class="node">
<title>updates</title>
<polygon fill="none" stroke="black" points="551.71,-90 494.46,-90 494.46,-54 551.71,-54 551.71,-90"/>
<text xml:space="preserve" text-anchor="middle" x="523.08" y="-66.95" font-family="Times,serif" font-size="14.00">updates</text>
</g>
<!-- RFC3367&#45;&gt;updates -->
<g id="edge3" class="edge">
<title>RFC3367&#45;&gt;updates</title>
<path fill="none" stroke="black" d="M465.42,-72C471.57,-72 477.4,-72 482.82,-72"/>
<polygon fill="black" stroke="black" points="482.48,-75.5 492.48,-72 482.47,-68.5 482.48,-75.5"/>
</g>
<!-- cites -->
<g id="node6" class="node">
<title>cites</title>
<polygon fill="none" stroke="black" points="550.08,-36 496.08,-36 496.08,0 550.08,0 550.08,-36"/>
<text xml:space="preserve" text-anchor="middle" x="523.08" y="-12.95" font-family="Times,serif" font-size="14.00">cites</text>
</g>
<!-- RFC3367&#45;&gt;cites -->
<g id="edge5" class="edge">
<title>RFC3367&#45;&gt;cites</title>
<path fill="none" stroke="black" d="M410.19,-42.87C437.68,-36.76 464.5,-30.8 484.99,-26.24"/>
<polygon fill="black" stroke="black" points="485.51,-29.71 494.51,-24.13 483.99,-22.88 485.51,-29.71"/>
</g>
<!-- obs_by -->
<g id="node2" class="node">
<title>obs_by</title>
<polygon fill="none" stroke="black" points="66.25,-144 0,-144 0,-108 66.25,-108 66.25,-144"/>
<text xml:space="preserve" text-anchor="middle" x="33.12" y="-120.95" font-family="Times,serif" font-size="14.00">obsoletes</text>
</g>
<!-- obs_by&#45;&gt;RFC3367 -->
<g id="edge1" class="edge">
<title>obs_by&#45;&gt;RFC3367</title>
<path fill="none" stroke="black" d="M66.64,-118.77C85.03,-114.69 109.43,-109.26 135.1,-103.56"/>
<polygon fill="black" stroke="black" points="135.68,-107.02 144.68,-101.43 134.16,-100.18 135.68,-107.02"/>
</g>
<!-- updated_by -->
<g id="node5" class="node">
<title>updated_by</title>
<polygon fill="none" stroke="black" points="61.75,-90 4.5,-90 4.5,-54 61.75,-54 61.75,-90"/>
<text xml:space="preserve" text-anchor="middle" x="33.12" y="-66.95" font-family="Times,serif" font-size="14.00">updates</text>
</g>
<!-- updated_by&#45;&gt;RFC3367 -->
<g id="edge4" class="edge">
<title>updated_by&#45;&gt;RFC3367</title>
<path fill="none" stroke="black" d="M62,-72C67.35,-72 73.31,-72 79.75,-72"/>
<polygon fill="black" stroke="black" points="79.5,-75.5 89.5,-72 79.5,-68.5 79.5,-75.5"/>
</g>
<!-- rev_cites -->
<g id="node7" class="node">
<title>rev_cites</title>
<polygon fill="none" stroke="black" points="60.12,-36 6.12,-36 6.12,0 60.12,0 60.12,-36"/>
<text xml:space="preserve" text-anchor="middle" x="33.12" y="-12.95" font-family="Times,serif" font-size="14.00">cites</text>
</g>
<!-- rev_cites&#45;&gt;RFC3367 -->
<g id="edge6" class="edge">
<title>rev_cites&#45;&gt;RFC3367</title>
<path fill="none" stroke="black" d="M60.59,-23.88C79.46,-28.08 106.46,-34.08 135.02,-40.42"/>
<polygon fill="black" stroke="black" points="134.03,-43.79 144.55,-42.54 135.55,-36.96 134.03,-43.79"/>
</g>
</g>
</svg>
