<?xml version="1.0" encoding="UTF-8" standalone="no"?>
<!DOCTYPE svg PUBLIC "-//W3C//DTD SVG 1.1//EN"
 "http://www.w3.org/Graphics/SVG/1.1/DTD/svg11.dtd">
<!-- Generated by graphviz version 14.1.1 (20251213.1925)
 -->
<!-- Title: Flow Pages: 1 -->
<svg width="854pt" height="749pt"
 viewBox="0.00 0.00 854.00 749.00" xmlns="http://www.w3.org/2000/svg" xmlns:xlink="http://www.w3.org/1999/xlink">
<g id="graph0" class="graph" transform="scale(1 1) rotate(0) translate(4 744.65)">
<title>Flow</title>
<polygon fill="white" stroke="none" points="-4,4 -4,-744.65 849.66,-744.65 849.66,4 -4,4"/>
<!-- RFC3205 -->
<g id="node1" class="node">
<title>RFC3205</title>
<g id="a_node1"><a xlink:title="Recently there has been widespread interest in using Hypertext Transfer Protocol (HTTP) as a substrate for other applications&#45;level protocols. &#160;This document recommends technical particulars of such use, including use of default ports, URL schemes, and HTTP security mechanisms. &#160;This document specifies an Internet Best Current Practices for the Internet Community, and requests discussion and suggestions for improvements.">
<ellipse fill="none" stroke="black" cx="609.46" cy="-454.99" rx="144.96" ry="40.66"/>
<text xml:space="preserve" text-anchor="middle" x="609.46" y="-466.44" font-family="Times,serif" font-size="14.00">RFC3205</text>
<text xml:space="preserve" text-anchor="middle" x="609.46" y="-449.94" font-family="Times,serif" font-size="14.00">On the use of HTTP as a Substrate</text>
<text xml:space="preserve" text-anchor="middle" x="609.46" y="-433.44" font-family="Times,serif" font-size="14.00">2002</text>
</a>
</g>
</g>
<!-- obs -->
<g id="node4" class="node">
<title>obs</title>
<polygon fill="none" stroke="black" points="845.66,-526.99 779.41,-526.99 779.41,-490.99 845.66,-490.99 845.66,-526.99"/>
<text xml:space="preserve" text-anchor="middle" x="812.54" y="-503.94" font-family="Times,serif" font-size="14.00">obsoletes</text>
</g>
<!-- RFC3205&#45;&gt;obs -->
<g id="edge3" class="edge">
<title>RFC3205&#45;&gt;obs</title>
<path fill="none" stroke="black" d="M715.41,-483.18C734.11,-488.2 752.61,-493.17 768.3,-497.38"/>
<polygon fill="black" stroke="black" points="767.17,-500.7 777.74,-499.92 768.99,-493.94 767.17,-500.7"/>
</g>
<!-- updates -->
<g id="node5" class="node">
<title>updates</title>
<polygon fill="none" stroke="black" points="841.16,-472.99 783.91,-472.99 783.91,-436.99 841.16,-436.99 841.16,-472.99"/>
<text xml:space="preserve" text-anchor="middle" x="812.54" y="-449.94" font-family="Times,serif" font-size="14.00">updates</text>
</g>
<!-- RFC3205&#45;&gt;updates -->
<g id="edge4" class="edge">
<title>RFC3205&#45;&gt;updates</title>
<path fill="none" stroke="black" d="M754.72,-454.99C760.89,-454.99 766.77,-454.99 772.27,-454.99"/>
<polygon fill="black" stroke="black" points="772.11,-458.49 782.11,-454.99 772.11,-451.49 772.11,-458.49"/>
</g>
<!-- cites -->
<g id="node7" class="node">
<title>cites</title>
<polygon fill="none" stroke="black" points="839.54,-418.99 785.54,-418.99 785.54,-382.99 839.54,-382.99 839.54,-418.99"/>
<text xml:space="preserve" text-anchor="middle" x="812.54" y="-395.94" font-family="Times,serif" font-size="14.00">cites</text>
</g>
<!-- RFC3205&#45;&gt;cites -->
<g id="edge6" class="edge">
<title>RFC3205&#45;&gt;cites</title>
<path fill="none" stroke="black" d="M715.41,-426.81C736.46,-421.16 757.25,-415.57 774.08,-411.05"/>
<polygon fill="black" stroke="black" points="774.84,-414.47 783.59,-408.5 773.02,-407.71 774.84,-414.47"/>
</g>
<!-- obs_by -->
<g id="node2" class="node">
<title>obs_by</title>
<polygon fill="none" stroke="black" points="439.5,-621.99 373.25,-621.99 373.25,-585.99 439.5,-585.99 439.5,-621.99"/>
<text xml:space="preserve" text-anchor="middle" x="406.38" y="-598.94" font-family="Times,serif" font-size="14.00">obsoletes</text>
</g>
<!-- obs_by&#45;&gt;RFC3205 -->
<g id="edge1" class="edge">
<title>obs_by&#45;&gt;RFC3205</title>
<path fill="none" stroke="black" d="M432.03,-585.72C460.67,-564.5 508.96,-528.72 547.78,-499.96"/>
<polygon fill="black" stroke="black" points="549.75,-502.85 555.7,-494.08 545.58,-497.23 549.75,-502.85"/>
</g>
<!-- RFC9205 -->
<g id="node3" class="node">
<title>RFC9205</title>
<g id="a_node3"><a xlink:href="RFC9205.html" xlink:title="Applications often use HTTP as a substrate to create HTTP&#45;based APIs. This document specifies best practices for writing specifications that use HTTP to define new application protocols. It is written primarily to guide IETF efforts to define application protocols using HTTP for deployment on the Internet but might be applicable in other situations. This document obsoletes RFC 3205." target="_top">
<ellipse fill="none" stroke="black" cx="174.13" cy="-699.99" rx="129.58" ry="40.66"/>
<text xml:space="preserve" text-anchor="middle" x="174.13" y="-711.44" font-family="Times,serif" font-size="14.00">RFC9205</text>
<text xml:space="preserve" text-anchor="middle" x="174.13" y="-694.94" font-family="Times,serif" font-size="14.00">Building Protocols with HTTP</text>
<text xml:space="preserve" text-anchor="middle" x="174.13" y="-678.44" font-family="Times,serif" font-size="14.00">2022</text>
</a>
</g>
</g>
<!-- RFC9205&#45;&gt;obs_by -->
<g id="edge2" class="edge">
<title>RFC9205&#45;&gt;obs_by</title>
<path fill="none" stroke="black" d="M280.7,-676.73C303.64,-669.71 327.29,-660.89 348.25,-649.99 358.56,-644.63 368.78,-637.24 377.67,-629.96"/>
<polygon fill="black" stroke="black" points="379.92,-632.64 385.24,-623.47 375.37,-627.32 379.92,-632.64"/>
</g>
<!-- rev_cites -->
<g id="node8" class="node">
<title>rev_cites</title>
<polygon fill="none" stroke="black" points="433.38,-472.99 379.38,-472.99 379.38,-436.99 433.38,-436.99 433.38,-472.99"/>
<text xml:space="preserve" text-anchor="middle" x="406.38" y="-449.94" font-family="Times,serif" font-size="14.00">cites</text>
</g>
<!-- RFC9205&#45;&gt;rev_cites -->
<g id="edge13" class="edge">
<title>RFC9205&#45;&gt;rev_cites</title>
<path fill="none" stroke="black" d="M292.82,-683.32C313.33,-675.88 332.96,-665.23 348.25,-649.99 354.25,-644.02 383.38,-537.34 397.57,-484.36"/>
<polygon fill="black" stroke="black" points="400.93,-485.35 400.13,-474.79 394.16,-483.54 400.93,-485.35"/>
</g>
<!-- updated_by -->
<g id="node6" class="node">
<title>updated_by</title>
<polygon fill="none" stroke="black" points="435,-418.99 377.75,-418.99 377.75,-382.99 435,-382.99 435,-418.99"/>
<text xml:space="preserve" text-anchor="middle" x="406.38" y="-395.94" font-family="Times,serif" font-size="14.00">updates</text>
</g>
<!-- updated_by&#45;&gt;RFC3205 -->
<g id="edge5" class="edge">
<title>updated_by&#45;&gt;RFC3205</title>
<path fill="none" stroke="black" d="M435.33,-408.5C450.84,-412.67 471.29,-418.16 492.67,-423.9"/>
<polygon fill="black" stroke="black" points="491.55,-427.22 502.11,-426.43 493.36,-420.46 491.55,-427.22"/>
</g>
<!-- rev_cites&#45;&gt;RFC3205 -->
<g id="edge7" class="edge">
<title>rev_cites&#45;&gt;RFC3205</title>
<path fill="none" stroke="black" d="M433.66,-454.99C439.39,-454.99 445.85,-454.99 452.81,-454.99"/>
<polygon fill="black" stroke="black" points="452.64,-458.49 462.64,-454.99 452.64,-451.49 452.64,-458.49"/>
</g>
<!-- RFC3426 -->
<g id="node9" class="node">
<title>RFC3426</title>
<g id="a_node9"><a xlink:href="RFC3426.html" xlink:title="This document suggests general architectural and policy questions that the IETF community has to address when working on new standards and protocols. &#160;We note that this document contains questions to be addressed, as opposed to guidelines or architectural principles to be followed. &#160;This memo provides information for the Internet community." target="_top">
<ellipse fill="none" stroke="black" cx="174.13" cy="-588.99" rx="137.53" ry="52.33"/>
<text xml:space="preserve" text-anchor="middle" x="174.13" y="-608.69" font-family="Times,serif" font-size="14.00">RFC3426</text>
<text xml:space="preserve" text-anchor="middle" x="174.13" y="-592.19" font-family="Times,serif" font-size="14.00">General Architectural and Policy</text>
<text xml:space="preserve" text-anchor="middle" x="174.13" y="-575.69" font-family="Times,serif" font-size="14.00">Considerations</text>
<text xml:space="preserve" text-anchor="middle" x="174.13" y="-559.19" font-family="Times,serif" font-size="14.00">2002</text>
</a>
</g>
</g>
<!-- RFC3426&#45;&gt;rev_cites -->
<g id="edge8" class="edge">
<title>RFC3426&#45;&gt;rev_cites</title>
<path fill="none" stroke="black" d="M288.25,-559.61C309.28,-551.31 330.26,-540.91 348.25,-527.99 364.87,-516.06 379.07,-497.97 389.16,-482.79"/>
<polygon fill="black" stroke="black" points="391.95,-484.92 394.36,-474.6 386.05,-481.16 391.95,-484.92"/>
</g>
<!-- RFC4387 -->
<g id="node10" class="node">
<title>RFC4387</title>
<g id="a_node10"><a xlink:href="RFC4387.html" xlink:title="The protocol conventions described in this document satisfy some of the operational requirements of the Internet Public Key Infrastructure (PKI). &#160;This document specifies the conventions for using the Hypertext Transfer Protocol (HTTP/HTTPS) as an interface mechanism to obtain certificates and certificate revocation lists (CRLs) from PKI repositories. &#160;Additional mechanisms addressing PKIX operational requirements are specified in separate documents. [STANDARDS&#45;TRACK]" target="_top">
<ellipse fill="none" stroke="black" cx="174.13" cy="-454.99" rx="167.76" ry="63.99"/>
<text xml:space="preserve" text-anchor="middle" x="174.13" y="-482.94" font-family="Times,serif" font-size="14.00">RFC4387</text>
<text xml:space="preserve" text-anchor="middle" x="174.13" y="-466.44" font-family="Times,serif" font-size="14.00">Internet X.509 Public Key Infrastructure</text>
<text xml:space="preserve" text-anchor="middle" x="174.13" y="-449.94" font-family="Times,serif" font-size="14.00">Operational Protocols: Certificate Store</text>
<text xml:space="preserve" text-anchor="middle" x="174.13" y="-433.44" font-family="Times,serif" font-size="14.00">Access via HTTP</text>
<text xml:space="preserve" text-anchor="middle" x="174.13" y="-416.94" font-family="Times,serif" font-size="14.00">2006</text>
</a>
</g>
</g>
<!-- RFC4387&#45;&gt;rev_cites -->
<g id="edge9" class="edge">
<title>RFC4387&#45;&gt;rev_cites</title>
<path fill="none" stroke="black" d="M342.15,-454.99C351.35,-454.99 359.98,-454.99 367.74,-454.99"/>
<polygon fill="black" stroke="black" points="367.65,-458.49 377.65,-454.99 367.65,-451.49 367.65,-458.49"/>
</g>
<!-- RFC6046 -->
<g id="node11" class="node">
<title>RFC6046</title>
<g id="a_node11"><a xlink:href="RFC6046.html" xlink:title="The Incident Object Description Exchange Format (IODEF) defines a common XML format for document exchange, and Real&#45;time Inter&#45;network Defense (RID) defines extensions to IODEF intended for the cooperative handling of security incidents within consortia of network operators and enterprises. &#160;This document specifies a transport protocol for RID based upon the passing of RID messages over HTTP/TLS (Transport Layer Security). &#160;This document is not an Internet Standards Track specification; it is published for informational purposes." target="_top">
<ellipse fill="none" stroke="black" cx="174.13" cy="-320.99" rx="155.03" ry="52.33"/>
<text xml:space="preserve" text-anchor="middle" x="174.13" y="-340.69" font-family="Times,serif" font-size="14.00">RFC6046</text>
<text xml:space="preserve" text-anchor="middle" x="174.13" y="-324.19" font-family="Times,serif" font-size="14.00">Transport of Real&#45;time Inter&#45;network</text>
<text xml:space="preserve" text-anchor="middle" x="174.13" y="-307.69" font-family="Times,serif" font-size="14.00">Defense (RID) Messages</text>
<text xml:space="preserve" text-anchor="middle" x="174.13" y="-291.19" font-family="Times,serif" font-size="14.00">2010</text>
</a>
</g>
</g>
<!-- RFC6046&#45;&gt;rev_cites -->
<g id="edge10" class="edge">
<title>RFC6046&#45;&gt;rev_cites</title>
<path fill="none" stroke="black" d="M299.48,-352.1C317.03,-359.98 333.94,-369.8 348.25,-381.99 365.96,-397.09 358.53,-409.97 373.25,-427.99 373.41,-428.18 373.56,-428.37 373.72,-428.56"/>
<polygon fill="black" stroke="black" points="371.1,-430.88 380.54,-435.69 376.15,-426.04 371.1,-430.88"/>
</g>
<!-- RFC6546 -->
<g id="node12" class="node">
<title>RFC6546</title>
<g id="a_node12"><a xlink:href="RFC6546.html" xlink:title="The Incident Object Description Exchange Format (IODEF) defines a common XML format for document exchange, and Real&#45;time Inter&#45;network Defense (RID) defines extensions to IODEF intended for the cooperative handling of security incidents within consortia of network operators and enterprises. &#160;This document specifies an application&#45;layer protocol for RID based upon the passing of RID messages over HTTP/TLS. [STANDARDS&#45;TRACK]" target="_top">
<ellipse fill="none" stroke="black" cx="174.13" cy="-197.99" rx="174.13" ry="52.33"/>
<text xml:space="preserve" text-anchor="middle" x="174.13" y="-217.69" font-family="Times,serif" font-size="14.00">RFC6546</text>
<text xml:space="preserve" text-anchor="middle" x="174.13" y="-201.19" font-family="Times,serif" font-size="14.00">Transport of Real&#45;time Inter&#45;network</text>
<text xml:space="preserve" text-anchor="middle" x="174.13" y="-184.69" font-family="Times,serif" font-size="14.00">Defense (RID) Messages over HTTP/TLS</text>
<text xml:space="preserve" text-anchor="middle" x="174.13" y="-168.19" font-family="Times,serif" font-size="14.00">2012</text>
</a>
</g>
</g>
<!-- RFC6546&#45;&gt;rev_cites -->
<g id="edge11" class="edge">
<title>RFC6546&#45;&gt;rev_cites</title>
<path fill="none" stroke="black" d="M312.18,-230.33C325.86,-238.17 338.32,-247.9 348.25,-259.99 393.99,-315.72 341.56,-358.14 374.38,-426.68"/>
<polygon fill="black" stroke="black" points="371.11,-427.99 378.89,-435.19 377.3,-424.72 371.11,-427.99"/>
</g>
<!-- RFC8095 -->
<g id="node13" class="node">
<title>RFC8095</title>
<g id="a_node13"><a xlink:href="RFC8095.html" xlink:title="This document describes, surveys, and classifies the protocol mechanisms provided by existing IETF protocols, as background for determining a common set of transport services. &#160;It examines the Transmission Control Protocol (TCP), Multipath TCP, the Stream Control Transmission Protocol (SCTP), the User Datagram Protocol (UDP), UDP&#45;Lite, the Datagram Congestion Control Protocol (DCCP), the Internet Control Message Protocol (ICMP), the Real&#45;Time Transport Protocol (RTP), File Delivery over Unidirectional Transport / Asynchronous Layered Coding (FLUTE/ALC) for Reliable Multicast, NACK&#45; Oriented Reliable Multicast (NORM), Transport Layer Security (TLS), Datagram TLS (DTLS), and the Hypertext Transport Protocol (HTTP), when HTTP is used as a pseudotransport. &#160;This survey provides background for the definition of transport services within the TAPS working group." target="_top">
<ellipse fill="none" stroke="black" cx="174.13" cy="-63.99" rx="155.03" ry="63.99"/>
<text xml:space="preserve" text-anchor="middle" x="174.13" y="-91.94" font-family="Times,serif" font-size="14.00">RFC8095</text>
<text xml:space="preserve" text-anchor="middle" x="174.13" y="-75.44" font-family="Times,serif" font-size="14.00">Services Provided by IETF Transport</text>
<text xml:space="preserve" text-anchor="middle" x="174.13" y="-58.94" font-family="Times,serif" font-size="14.00">Protocols and Congestion Control</text>
<text xml:space="preserve" text-anchor="middle" x="174.13" y="-42.44" font-family="Times,serif" font-size="14.00">Mechanisms</text>
<text xml:space="preserve" text-anchor="middle" x="174.13" y="-25.94" font-family="Times,serif" font-size="14.00">2017</text>
</a>
</g>
</g>
<!-- RFC8095&#45;&gt;rev_cites -->
<g id="edge12" class="edge">
<title>RFC8095&#45;&gt;rev_cites</title>
<path fill="none" stroke="black" d="M303.94,-99.01C321.11,-108.75 336.74,-121.16 348.25,-136.99 384.63,-187.03 347.21,-353.71 374.84,-426.59"/>
<polygon fill="black" stroke="black" points="371.46,-427.6 378.78,-435.25 377.83,-424.7 371.46,-427.6"/>
</g>
</g>
</svg>
