<?xml version="1.0" encoding="UTF-8" standalone="no"?>
<!DOCTYPE svg PUBLIC "-//W3C//DTD SVG 1.1//EN"
 "http://www.w3.org/Graphics/SVG/1.1/DTD/svg11.dtd">
<!-- Generated by graphviz version 14.1.1 (20251213.1925)
 -->
<!-- Title: Flow Pages: 1 -->
<svg width="802pt" height="186pt"
 viewBox="0.00 0.00 802.00 186.00" xmlns="http://www.w3.org/2000/svg" xmlns:xlink="http://www.w3.org/1999/xlink">
<g id="graph0" class="graph" transform="scale(1 1) rotate(0) translate(4 182.33)">
<title>Flow</title>
<polygon fill="white" stroke="none" points="-4,4 -4,-182.33 797.69,-182.33 797.69,4 -4,4"/>
<!-- RFC3827 -->
<g id="node1" class="node">
<title>RFC3827</title>
<g id="a_node1"><a xlink:title="The snoop file format provides a way to store and exchange datalink layer packet traces. &#160;This document describes extensions to this file format to support new media. &#160;This memo provides information for the Internet community.">
<ellipse fill="green" stroke="black" cx="231.43" cy="-106.33" rx="140.18" ry="40.66"/>
<text xml:space="preserve" text-anchor="middle" x="231.43" y="-117.78" font-family="Times,serif" font-size="14.00">RFC3827</text>
<text xml:space="preserve" text-anchor="middle" x="231.43" y="-101.28" font-family="Times,serif" font-size="14.00">Additional Snoop Datalink Types</text>
<text xml:space="preserve" text-anchor="middle" x="231.43" y="-84.78" font-family="Times,serif" font-size="14.00">2004</text>
</a>
</g>
</g>
<!-- obs -->
<g id="node3" class="node">
<title>obs</title>
<polygon fill="lightblue" stroke="black" points="462.87,-178.33 396.62,-178.33 396.62,-142.33 462.87,-142.33 462.87,-178.33"/>
<text xml:space="preserve" text-anchor="middle" x="429.74" y="-155.28" font-family="Times,serif" font-size="14.00">obsoletes</text>
</g>
<!-- RFC3827&#45;&gt;obs -->
<g id="edge2" class="edge">
<title>RFC3827&#45;&gt;obs</title>
<path fill="none" stroke="black" d="M334.33,-134.35C352.51,-139.36 370.52,-144.31 385.85,-148.53"/>
<polygon fill="black" stroke="black" points="384.48,-151.78 395.06,-151.06 386.34,-145.03 384.48,-151.78"/>
</g>
<!-- updates -->
<g id="node4" class="node">
<title>updates</title>
<polygon fill="lightyellow" stroke="black" points="458.37,-124.33 401.12,-124.33 401.12,-88.33 458.37,-88.33 458.37,-124.33"/>
<text xml:space="preserve" text-anchor="middle" x="429.74" y="-101.28" font-family="Times,serif" font-size="14.00">updates</text>
</g>
<!-- RFC3827&#45;&gt;updates -->
<g id="edge3" class="edge">
<title>RFC3827&#45;&gt;updates</title>
<path fill="none" stroke="black" d="M371.96,-106.33C378.1,-106.33 383.97,-106.33 389.46,-106.33"/>
<polygon fill="black" stroke="black" points="389.28,-109.83 399.28,-106.33 389.28,-102.83 389.28,-109.83"/>
</g>
<!-- cites -->
<g id="node6" class="node">
<title>cites</title>
<polygon fill="lightblue" stroke="black" points="456.74,-70.33 402.74,-70.33 402.74,-34.33 456.74,-34.33 456.74,-70.33"/>
<text xml:space="preserve" text-anchor="middle" x="429.74" y="-47.28" font-family="Times,serif" font-size="14.00">cites</text>
</g>
<!-- RFC3827&#45;&gt;cites -->
<g id="edge5" class="edge">
<title>RFC3827&#45;&gt;cites</title>
<path fill="none" stroke="black" d="M334.33,-78.3C354.81,-72.66 375.07,-67.09 391.54,-62.56"/>
<polygon fill="black" stroke="black" points="392.12,-66.03 400.84,-60 390.27,-59.28 392.12,-66.03"/>
</g>
<!-- obs_by -->
<g id="node2" class="node">
<title>obs_by</title>
<polygon fill="lightblue" stroke="black" points="66.25,-178.33 0,-178.33 0,-142.33 66.25,-142.33 66.25,-178.33"/>
<text xml:space="preserve" text-anchor="middle" x="33.12" y="-155.28" font-family="Times,serif" font-size="14.00">obsoletes</text>
</g>
<!-- obs_by&#45;&gt;RFC3827 -->
<g id="edge1" class="edge">
<title>obs_by&#45;&gt;RFC3827</title>
<path fill="none" stroke="black" d="M66.54,-151.41C81.02,-147.43 99.02,-142.47 117.75,-137.32"/>
<polygon fill="black" stroke="black" points="118.66,-140.7 127.37,-134.68 116.8,-133.95 118.66,-140.7"/>
</g>
<!-- updated_by -->
<g id="node5" class="node">
<title>updated_by</title>
<polygon fill="lightyellow" stroke="black" points="61.75,-124.33 4.5,-124.33 4.5,-88.33 61.75,-88.33 61.75,-124.33"/>
<text xml:space="preserve" text-anchor="middle" x="33.12" y="-101.28" font-family="Times,serif" font-size="14.00">updates</text>
</g>
<!-- updated_by&#45;&gt;RFC3827 -->
<g id="edge4" class="edge">
<title>updated_by&#45;&gt;RFC3827</title>
<path fill="none" stroke="black" d="M61.83,-106.33C67.25,-106.33 73.27,-106.33 79.72,-106.33"/>
<polygon fill="black" stroke="black" points="79.44,-109.83 89.44,-106.33 79.44,-102.83 79.44,-109.83"/>
</g>
<!-- RFC1761 -->
<g id="node7" class="node">
<title>RFC1761</title>
<g id="a_node7"><a xlink:href="RFC1761.html" xlink:title="This paper describes the file format used by snoop, a packet monitoring and capture program developed by Sun. &#160;This paper is provided so that people can write compatible programs to generate and interpret snoop packet capture files. &#160;This memo provides information for the Internet community. &#160;This memo does not specify an Internet standard of any kind." target="_top">
<ellipse fill="none" stroke="black" cx="640.78" cy="-52.33" rx="152.91" ry="52.33"/>
<text xml:space="preserve" text-anchor="middle" x="640.78" y="-72.03" font-family="Times,serif" font-size="14.00">RFC1761</text>
<text xml:space="preserve" text-anchor="middle" x="640.78" y="-55.53" font-family="Times,serif" font-size="14.00">Snoop Version 2 Packet Capture File</text>
<text xml:space="preserve" text-anchor="middle" x="640.78" y="-39.03" font-family="Times,serif" font-size="14.00">Format</text>
<text xml:space="preserve" text-anchor="middle" x="640.78" y="-22.53" font-family="Times,serif" font-size="14.00">1995</text>
</a>
</g>
</g>
<!-- cites&#45;&gt;RFC1761 -->
<g id="edge6" class="edge">
<title>cites&#45;&gt;RFC1761</title>
<path fill="none" stroke="black" d="M457.22,-52.33C462.91,-52.33 469.33,-52.33 476.26,-52.33"/>
<polygon fill="black" stroke="black" points="476.02,-55.83 486.02,-52.33 476.02,-48.83 476.02,-55.83"/>
</g>
<!-- rev_cites -->
<g id="node8" class="node">
<title>rev_cites</title>
<polygon fill="lightblue" stroke="black" points="60.12,-70.33 6.12,-70.33 6.12,-34.33 60.12,-34.33 60.12,-70.33"/>
<text xml:space="preserve" text-anchor="middle" x="33.12" y="-47.28" font-family="Times,serif" font-size="14.00">cites</text>
</g>
<!-- rev_cites&#45;&gt;RFC3827 -->
<g id="edge7" class="edge">
<title>rev_cites&#45;&gt;RFC3827</title>
<path fill="none" stroke="black" d="M60.6,-59.61C75.91,-63.82 96.33,-69.44 117.7,-75.32"/>
<polygon fill="black" stroke="black" points="116.56,-78.63 127.13,-77.91 118.42,-71.88 116.56,-78.63"/>
</g>
</g>
</svg>
