<?xml version="1.0" encoding="UTF-8" standalone="no"?>
<!DOCTYPE svg PUBLIC "-//W3C//DTD SVG 1.1//EN"
 "http://www.w3.org/Graphics/SVG/1.1/DTD/svg11.dtd">
<!-- Generated by graphviz version 14.1.1 (20251213.1925)
 -->
<!-- Title: Flow Pages: 1 -->
<svg width="1157pt" height="809pt"
 viewBox="0.00 0.00 1157.00 809.00" xmlns="http://www.w3.org/2000/svg" xmlns:xlink="http://www.w3.org/1999/xlink">
<g id="graph0" class="graph" transform="scale(1 1) rotate(0) translate(4 804.69)">
<title>Flow</title>
<polygon fill="white" stroke="none" points="-4,4 -4,-804.69 1153.13,-804.69 1153.13,4 -4,4"/>
<!-- RFC3120 -->
<g id="node1" class="node">
<title>RFC3120</title>
<g id="a_node1"><a xlink:title="This document describes a URN (Uniform Resource Name) namespace that is engineered by the Organization for the Advancement of Structured Information Standards (OASIS) for naming persistent resources stored in the XML.org repository (such as XML (Extensible Markup Language) Document Type Definitions, XML Schemas, Namespaces, Stylesheets, and other documents). &#160;This memo provides information for the Internet community.">
<ellipse fill="green" stroke="black" stroke-width="3" cx="349.38" cy="-417.51" rx="181.55" ry="50.2"/>
<text xml:space="preserve" text-anchor="middle" x="349.38" y="-431.91" font-family="Times,serif" font-size="18.00">RFC3120</text>
<text xml:space="preserve" text-anchor="middle" x="349.38" y="-410.91" font-family="Times,serif" font-size="18.00">A URN Namespace for XML.org</text>
<text xml:space="preserve" text-anchor="middle" x="349.38" y="-389.91" font-family="Times,serif" font-size="18.00">2001</text>
</a>
</g>
</g>
<!-- obs -->
<g id="node3" class="node">
<title>obs</title>
<polygon fill="lightblue" stroke="black" points="698.76,-618.1 632.51,-618.1 632.51,-582.1 698.76,-582.1 698.76,-618.1"/>
<text xml:space="preserve" text-anchor="middle" x="665.64" y="-595.05" font-family="Times,serif" font-size="14.00">obsoletes</text>
</g>
<!-- RFC3120&#45;&gt;obs -->
<g id="edge2" class="edge">
<title>RFC3120&#45;&gt;obs</title>
<path fill="none" stroke="black" d="M429.6,-463.82C491.57,-499.6 574.83,-547.67 624.11,-576.12"/>
<polygon fill="black" stroke="black" points="622.07,-578.98 632.48,-580.95 625.57,-572.92 622.07,-578.98"/>
</g>
<!-- updates -->
<g id="node4" class="node">
<title>updates</title>
<polygon fill="lightyellow" stroke="black" points="378.01,-800.69 320.76,-800.69 320.76,-764.69 378.01,-764.69 378.01,-800.69"/>
<text xml:space="preserve" text-anchor="middle" x="349.38" y="-777.64" font-family="Times,serif" font-size="14.00">updates</text>
</g>
<!-- RFC3120&#45;&gt;updates -->
<g id="edge3" class="edge">
<title>RFC3120&#45;&gt;updates</title>
<path fill="none" stroke="black" d="M349.38,-469.06C349.38,-546.65 349.38,-690.99 349.38,-753.06"/>
<polygon fill="black" stroke="black" points="345.88,-752.82 349.38,-762.82 352.88,-752.82 345.88,-752.82"/>
</g>
<!-- cites -->
<g id="node6" class="node">
<title>cites</title>
<polygon fill="lightblue" stroke="black" points="60.13,-618.1 6.13,-618.1 6.13,-582.1 60.13,-582.1 60.13,-618.1"/>
<text xml:space="preserve" text-anchor="middle" x="33.13" y="-595.05" font-family="Times,serif" font-size="14.00">cites</text>
</g>
<!-- RFC3120&#45;&gt;cites -->
<g id="edge5" class="edge">
<title>RFC3120&#45;&gt;cites</title>
<path fill="none" stroke="black" d="M269.17,-463.82C205.27,-500.71 118.75,-550.66 70.18,-578.71"/>
<polygon fill="black" stroke="black" points="68.63,-575.56 61.72,-583.59 72.13,-581.62 68.63,-575.56"/>
</g>
<!-- obs_by -->
<g id="node2" class="node">
<title>obs_by</title>
<polygon fill="lightblue" stroke="black" points="66.25,-252.92 0,-252.92 0,-216.92 66.25,-216.92 66.25,-252.92"/>
<text xml:space="preserve" text-anchor="middle" x="33.13" y="-229.87" font-family="Times,serif" font-size="14.00">obsoletes</text>
</g>
<!-- obs_by&#45;&gt;RFC3120 -->
<g id="edge1" class="edge">
<title>obs_by&#45;&gt;RFC3120</title>
<path fill="none" stroke="black" d="M64.9,-253.26C109.89,-279.24 193.95,-327.77 259.07,-365.37"/>
<polygon fill="black" stroke="black" points="257.22,-368.34 267.63,-370.31 260.72,-362.28 257.22,-368.34"/>
</g>
<!-- updated_by -->
<g id="node5" class="node">
<title>updated_by</title>
<polygon fill="lightyellow" stroke="black" points="378.01,-70.33 320.76,-70.33 320.76,-34.33 378.01,-34.33 378.01,-70.33"/>
<text xml:space="preserve" text-anchor="middle" x="349.38" y="-47.28" font-family="Times,serif" font-size="14.00">updates</text>
</g>
<!-- updated_by&#45;&gt;RFC3120 -->
<g id="edge4" class="edge">
<title>updated_by&#45;&gt;RFC3120</title>
<path fill="none" stroke="black" d="M349.38,-70.69C349.38,-122.13 349.38,-269.45 349.38,-354.63"/>
<polygon fill="black" stroke="black" points="345.88,-354.45 349.38,-364.45 352.88,-354.45 345.88,-354.45"/>
</g>
<!-- rev_cites -->
<g id="node7" class="node">
<title>rev_cites</title>
<polygon fill="lightblue" stroke="black" points="692.64,-252.92 638.64,-252.92 638.64,-216.92 692.64,-216.92 692.64,-252.92"/>
<text xml:space="preserve" text-anchor="middle" x="665.64" y="-229.87" font-family="Times,serif" font-size="14.00">cites</text>
</g>
<!-- rev_cites&#45;&gt;RFC3120 -->
<g id="edge6" class="edge">
<title>rev_cites&#45;&gt;RFC3120</title>
<path fill="none" stroke="black" d="M638.4,-250.64C594.63,-275.91 506.72,-326.67 439.29,-365.6"/>
<polygon fill="black" stroke="black" points="437.71,-362.47 430.8,-370.5 441.21,-368.53 437.71,-362.47"/>
</g>
<!-- RFC7462 -->
<g id="node8" class="node">
<title>RFC7462</title>
<g id="a_node8"><a xlink:href="RFC7462.html" xlink:title="The Session Initiation Protocol (SIP) supports the capability to provide a reference to a specific rendering to be used by the User Agent (UA) as an alerting signal (e.g., a ring tone or ringback tone) when the user is alerted. This is done using the Alert&#45;Info header field. However, the reference (typically a URL) addresses only a specific network resource with specific rendering properties. There is currently no support for standard identifiers for describing the semantics of the alerting situation or the characteristics of the alerting signal, without being tied to a particular rendering. To overcome these limitations and support new applications, a new family of URNs for use in Alert&#45;Info header fields (and situations with similar requirements) is defined in this specification. This document normatively updates RFC 3261, which defines the Session Initiation Protocol (SIP). It changes the usage of the Alert&#45;Info header field defined in RFC 3261 by additionally allowing its use in any non&#45;100 provisional response to INVITE. This document also permits proxies to add or remove an Alert&#45;Info header field and to add or remove Alert&#45;Info header field values." target="_top">
<ellipse fill="none" stroke="black" cx="981.9" cy="-52.33" rx="167.23" ry="52.33"/>
<text xml:space="preserve" text-anchor="middle" x="981.9" y="-72.03" font-family="Times,serif" font-size="14.00">RFC7462</text>
<text xml:space="preserve" text-anchor="middle" x="981.9" y="-55.53" font-family="Times,serif" font-size="14.00">URNs for the Alert&#45;Info Header Field of</text>
<text xml:space="preserve" text-anchor="middle" x="981.9" y="-39.03" font-family="Times,serif" font-size="14.00">the Session Initiation Protocol (SIP)</text>
<text xml:space="preserve" text-anchor="middle" x="981.9" y="-22.53" font-family="Times,serif" font-size="14.00">2015</text>
</a>
</g>
</g>
<!-- RFC7462&#45;&gt;rev_cites -->
<g id="edge7" class="edge">
<title>RFC7462&#45;&gt;rev_cites</title>
<path fill="none" stroke="black" d="M901.68,-98.64C837.79,-135.53 751.26,-185.48 702.69,-213.53"/>
<polygon fill="black" stroke="black" points="701.14,-210.38 694.23,-218.41 704.64,-216.44 701.14,-210.38"/>
</g>
</g>
</svg>
