<?xml version="1.0" encoding="UTF-8" standalone="no"?>
<!DOCTYPE svg PUBLIC "-//W3C//DTD SVG 1.1//EN"
 "http://www.w3.org/Graphics/SVG/1.1/DTD/svg11.dtd">
<!-- Generated by graphviz version 14.1.1 (20251213.1925)
 -->
<!-- Title: Flow Pages: 1 -->
<svg width="1286pt" height="1170pt"
 viewBox="0.00 0.00 1286.00 1170.00" xmlns="http://www.w3.org/2000/svg" xmlns:xlink="http://www.w3.org/1999/xlink">
<g id="graph0" class="graph" transform="scale(1 1) rotate(0) translate(4 1166.09)">
<title>Flow</title>
<polygon fill="white" stroke="none" points="-4,4 -4,-1166.09 1282.33,-1166.09 1282.33,4 -4,4"/>
<!-- RFC3378 -->
<g id="node1" class="node">
<title>RFC3378</title>
<g id="a_node1"><a xlink:title="None">
<ellipse fill="green" stroke="black" stroke-width="3" cx="881.29" cy="-381.92" rx="225.57" ry="65.05"/>
<text xml:space="preserve" text-anchor="middle" x="881.29" y="-406.82" font-family="Times,serif" font-size="18.00">RFC3378</text>
<text xml:space="preserve" text-anchor="middle" x="881.29" y="-385.82" font-family="Times,serif" font-size="18.00">EtherIP: Tunneling Ethernet Frames in IP</text>
<text xml:space="preserve" text-anchor="middle" x="881.29" y="-364.82" font-family="Times,serif" font-size="18.00">Datagrams</text>
<text xml:space="preserve" text-anchor="middle" x="881.29" y="-343.82" font-family="Times,serif" font-size="18.00">2002</text>
</a>
</g>
</g>
<!-- obs -->
<g id="node3" class="node">
<title>obs</title>
<polygon fill="lightblue" stroke="black" points="1278.33,-550.66 1212.08,-550.66 1212.08,-514.66 1278.33,-514.66 1278.33,-550.66"/>
<text xml:space="preserve" text-anchor="middle" x="1245.21" y="-527.61" font-family="Times,serif" font-size="14.00">obsoletes</text>
</g>
<!-- RFC3378&#45;&gt;obs -->
<g id="edge2" class="edge">
<title>RFC3378&#45;&gt;obs</title>
<path fill="none" stroke="black" d="M1012.41,-436.24C1078.6,-463.65 1154.55,-495.11 1201.2,-514.44"/>
<polygon fill="black" stroke="black" points="1199.86,-517.67 1210.44,-518.26 1202.54,-511.2 1199.86,-517.67"/>
</g>
<!-- updates -->
<g id="node4" class="node">
<title>updates</title>
<polygon fill="lightyellow" stroke="black" points="1060.65,-763.85 1003.4,-763.85 1003.4,-727.85 1060.65,-727.85 1060.65,-763.85"/>
<text xml:space="preserve" text-anchor="middle" x="1032.03" y="-740.8" font-family="Times,serif" font-size="14.00">updates</text>
</g>
<!-- RFC3378&#45;&gt;updates -->
<g id="edge3" class="edge">
<title>RFC3378&#45;&gt;updates</title>
<path fill="none" stroke="black" d="M908.59,-447.83C941.75,-527.9 996.24,-659.44 1020.15,-717.17"/>
<polygon fill="black" stroke="black" points="1016.87,-718.4 1023.93,-726.3 1023.34,-715.72 1016.87,-718.4"/>
</g>
<!-- cites -->
<g id="node6" class="node">
<title>cites</title>
<polygon fill="lightblue" stroke="black" points="544.36,-550.66 490.36,-550.66 490.36,-514.66 544.36,-514.66 544.36,-550.66"/>
<text xml:space="preserve" text-anchor="middle" x="517.36" y="-527.61" font-family="Times,serif" font-size="14.00">cites</text>
</g>
<!-- RFC3378&#45;&gt;cites -->
<g id="edge5" class="edge">
<title>RFC3378&#45;&gt;cites</title>
<path fill="none" stroke="black" d="M750.16,-436.24C680.96,-464.9 601.08,-497.99 555.18,-517"/>
<polygon fill="black" stroke="black" points="554.11,-513.65 546.21,-520.71 556.79,-520.12 554.11,-513.65"/>
</g>
<!-- obs_by -->
<g id="node2" class="node">
<title>obs_by</title>
<polygon fill="lightblue" stroke="black" points="763.67,-36 697.42,-36 697.42,0 763.67,0 763.67,-36"/>
<text xml:space="preserve" text-anchor="middle" x="730.55" y="-12.95" font-family="Times,serif" font-size="14.00">obsoletes</text>
</g>
<!-- obs_by&#45;&gt;RFC3378 -->
<g id="edge1" class="edge">
<title>obs_by&#45;&gt;RFC3378</title>
<path fill="none" stroke="black" d="M738.12,-36.3C758.24,-84.86 813.88,-219.19 849.58,-305.37"/>
<polygon fill="black" stroke="black" points="846.3,-306.6 853.36,-314.5 852.77,-303.92 846.3,-306.6"/>
</g>
<!-- updated_by -->
<g id="node5" class="node">
<title>updated_by</title>
<polygon fill="lightyellow" stroke="black" points="1060.65,-36 1003.4,-36 1003.4,0 1060.65,0 1060.65,-36"/>
<text xml:space="preserve" text-anchor="middle" x="1032.03" y="-12.95" font-family="Times,serif" font-size="14.00">updates</text>
</g>
<!-- updated_by&#45;&gt;RFC3378 -->
<g id="edge4" class="edge">
<title>updated_by&#45;&gt;RFC3378</title>
<path fill="none" stroke="black" d="M1024.45,-36.3C1004.33,-84.86 948.69,-219.19 912.99,-305.37"/>
<polygon fill="black" stroke="black" points="909.81,-303.92 909.22,-314.5 916.28,-306.6 909.81,-303.92"/>
</g>
<!-- RFC2119 -->
<g id="node7" class="node">
<title>RFC2119</title>
<g id="a_node7"><a xlink:href="RFC2119.html" xlink:title="In many standards track documents several words are used to signify the requirements in the specification. &#160;These words are often capitalized. &#160;This document defines these words as they should be interpreted in IETF documents. &#160;This document specifies an Internet Best Current Practices for the Internet Community, and requests discussion and suggestions for improvements." target="_top">
<ellipse fill="none" stroke="black" cx="579.8" cy="-1109.77" rx="160.34" ry="52.33"/>
<text xml:space="preserve" text-anchor="middle" x="579.8" y="-1129.47" font-family="Times,serif" font-size="14.00">RFC2119</text>
<text xml:space="preserve" text-anchor="middle" x="579.8" y="-1112.97" font-family="Times,serif" font-size="14.00">Key words for use in RFCs to Indicate</text>
<text xml:space="preserve" text-anchor="middle" x="579.8" y="-1096.47" font-family="Times,serif" font-size="14.00">Requirement Levels</text>
<text xml:space="preserve" text-anchor="middle" x="579.8" y="-1079.97" font-family="Times,serif" font-size="14.00">1997</text>
</a>
</g>
</g>
<!-- cites&#45;&gt;RFC2119 -->
<g id="edge6" class="edge">
<title>cites&#45;&gt;RFC2119</title>
<path fill="none" stroke="black" d="M519.34,-550.89C527.5,-626.3 558.85,-916.08 572.91,-1046.05"/>
<polygon fill="black" stroke="black" points="569.42,-1046.3 573.97,-1055.86 576.38,-1045.55 569.42,-1046.3"/>
</g>
<!-- RFC2338 -->
<g id="node8" class="node">
<title>RFC2338</title>
<g id="a_node8"><a xlink:href="RFC2338.html" xlink:title="This memo defines the Virtual Router Redundancy Protocol (VRRP). &#160;VRRP specifies an election protocol that dynamically assigns responsibility for a virtual router to one of the VRRP routers on a LAN. [STANDARDS&#45;TRACK]" target="_top">
<ellipse fill="none" stroke="black" cx="153.44" cy="-683.41" rx="152.38" ry="40.66"/>
<text xml:space="preserve" text-anchor="middle" x="153.44" y="-694.86" font-family="Times,serif" font-size="14.00">RFC2338</text>
<text xml:space="preserve" text-anchor="middle" x="153.44" y="-678.36" font-family="Times,serif" font-size="14.00">Virtual Router Redundancy Protocol</text>
<text xml:space="preserve" text-anchor="middle" x="153.44" y="-661.86" font-family="Times,serif" font-size="14.00">1998</text>
</a>
</g>
</g>
<!-- cites&#45;&gt;RFC2338 -->
<g id="edge7" class="edge">
<title>cites&#45;&gt;RFC2338</title>
<path fill="none" stroke="black" d="M490.01,-543.99C439.05,-565.1 327.42,-611.34 246.66,-644.79"/>
<polygon fill="black" stroke="black" points="245.78,-641.37 237.88,-648.43 248.46,-647.84 245.78,-641.37"/>
</g>
<!-- RFC2401 -->
<g id="node9" class="node">
<title>RFC2401</title>
<g id="a_node9"><a xlink:href="RFC2401.html" xlink:title="This memo specifies the base architecture for IPsec compliant systems. [STANDARDS&#45;TRACK]" target="_top">
<ellipse fill="none" stroke="black" cx="153.44" cy="-80.44" rx="153.44" ry="52.33"/>
<text xml:space="preserve" text-anchor="middle" x="153.44" y="-100.14" font-family="Times,serif" font-size="14.00">RFC2401</text>
<text xml:space="preserve" text-anchor="middle" x="153.44" y="-83.64" font-family="Times,serif" font-size="14.00">Security Architecture for the Internet</text>
<text xml:space="preserve" text-anchor="middle" x="153.44" y="-67.14" font-family="Times,serif" font-size="14.00">Protocol</text>
<text xml:space="preserve" text-anchor="middle" x="153.44" y="-50.64" font-family="Times,serif" font-size="14.00">1998</text>
</a>
</g>
</g>
<!-- cites&#45;&gt;RFC2401 -->
<g id="edge8" class="edge">
<title>cites&#45;&gt;RFC2401</title>
<path fill="none" stroke="black" d="M502.65,-514.38C452.19,-451.68 284.73,-243.58 201.4,-140.03"/>
<polygon fill="black" stroke="black" points="204.28,-138.03 195.28,-132.43 198.82,-142.41 204.28,-138.03"/>
</g>
<!-- rev_cites -->
<g id="node10" class="node">
<title>rev_cites</title>
<polygon fill="lightblue" stroke="black" points="1272.21,-249.18 1218.21,-249.18 1218.21,-213.18 1272.21,-213.18 1272.21,-249.18"/>
<text xml:space="preserve" text-anchor="middle" x="1245.21" y="-226.13" font-family="Times,serif" font-size="14.00">cites</text>
</g>
<!-- rev_cites&#45;&gt;RFC3378 -->
<g id="edge9" class="edge">
<title>rev_cites&#45;&gt;RFC3378</title>
<path fill="none" stroke="black" d="M1217.86,-242.51C1176.5,-259.64 1095.19,-293.32 1022.85,-323.28"/>
<polygon fill="black" stroke="black" points="1021.55,-320.04 1013.65,-327.1 1024.23,-326.5 1021.55,-320.04"/>
</g>
</g>
</svg>
