<?xml version="1.0" encoding="UTF-8" standalone="no"?>
<!DOCTYPE svg PUBLIC "-//W3C//DTD SVG 1.1//EN"
 "http://www.w3.org/Graphics/SVG/1.1/DTD/svg11.dtd">
<!-- Generated by graphviz version 14.1.1 (20251213.1925)
 -->
<!-- Title: Flow Pages: 1 -->
<svg width="889pt" height="230pt"
 viewBox="0.00 0.00 889.00 230.00" xmlns="http://www.w3.org/2000/svg" xmlns:xlink="http://www.w3.org/1999/xlink">
<g id="graph0" class="graph" transform="scale(1 1) rotate(0) translate(4 225.66)">
<title>Flow</title>
<polygon fill="white" stroke="none" points="-4,4 -4,-225.66 884.67,-225.66 884.67,4 -4,4"/>
<!-- RFC3176 -->
<g id="node1" class="node">
<title>RFC3176</title>
<g id="a_node1"><a xlink:title="This memo defines InMon Corporation&#39;s sFlow system. &#160;sFlow is a technology for monitoring traffic in data networks containing switches and routers. &#160;In particular, it defines the sampling mechanisms implemented in an sFlow Agent for monitoring traffic, the sFlow MIB for controlling the sFlow Agent, and the format of sample data used by the sFlow Agent when forwarding data to a central data collector. &#160;This memo provides information for the Internet community.">
<ellipse fill="green" stroke="black" cx="614.23" cy="-149.66" rx="175.19" ry="63.99"/>
<text xml:space="preserve" text-anchor="middle" x="614.23" y="-177.61" font-family="Times,serif" font-size="14.00">RFC3176</text>
<text xml:space="preserve" text-anchor="middle" x="614.23" y="-161.11" font-family="Times,serif" font-size="14.00">InMon Corporation&#39;s sFlow: A Method for</text>
<text xml:space="preserve" text-anchor="middle" x="614.23" y="-144.61" font-family="Times,serif" font-size="14.00">Monitoring Traffic in Switched and</text>
<text xml:space="preserve" text-anchor="middle" x="614.23" y="-128.11" font-family="Times,serif" font-size="14.00">Routed Networks</text>
<text xml:space="preserve" text-anchor="middle" x="614.23" y="-111.61" font-family="Times,serif" font-size="14.00">2001</text>
</a>
</g>
</g>
<!-- obs -->
<g id="node3" class="node">
<title>obs</title>
<polygon fill="lightblue" stroke="black" points="880.67,-221.66 814.42,-221.66 814.42,-185.66 880.67,-185.66 880.67,-221.66"/>
<text xml:space="preserve" text-anchor="middle" x="847.54" y="-198.61" font-family="Times,serif" font-size="14.00">obsoletes</text>
</g>
<!-- RFC3176&#45;&gt;obs -->
<g id="edge2" class="edge">
<title>RFC3176&#45;&gt;obs</title>
<path fill="none" stroke="black" d="M762.71,-184.09C777.24,-187.48 791.06,-190.71 803.12,-193.52"/>
<polygon fill="black" stroke="black" points="802.11,-196.88 812.64,-195.74 803.7,-190.06 802.11,-196.88"/>
</g>
<!-- updates -->
<g id="node4" class="node">
<title>updates</title>
<polygon fill="lightyellow" stroke="black" points="876.17,-167.66 818.92,-167.66 818.92,-131.66 876.17,-131.66 876.17,-167.66"/>
<text xml:space="preserve" text-anchor="middle" x="847.54" y="-144.61" font-family="Times,serif" font-size="14.00">updates</text>
</g>
<!-- RFC3176&#45;&gt;updates -->
<g id="edge3" class="edge">
<title>RFC3176&#45;&gt;updates</title>
<path fill="none" stroke="black" d="M789.66,-149.66C795.86,-149.66 801.76,-149.66 807.25,-149.66"/>
<polygon fill="black" stroke="black" points="807.04,-153.16 817.04,-149.66 807.04,-146.16 807.04,-153.16"/>
</g>
<!-- cites -->
<g id="node6" class="node">
<title>cites</title>
<polygon fill="lightblue" stroke="black" points="874.54,-113.66 820.54,-113.66 820.54,-77.66 874.54,-77.66 874.54,-113.66"/>
<text xml:space="preserve" text-anchor="middle" x="847.54" y="-90.61" font-family="Times,serif" font-size="14.00">cites</text>
</g>
<!-- RFC3176&#45;&gt;cites -->
<g id="edge5" class="edge">
<title>RFC3176&#45;&gt;cites</title>
<path fill="none" stroke="black" d="M762.71,-115.23C779.74,-111.25 795.78,-107.51 809.18,-104.38"/>
<polygon fill="black" stroke="black" points="809.81,-107.83 818.75,-102.15 808.22,-101.01 809.81,-107.83"/>
</g>
<!-- obs_by -->
<g id="node2" class="node">
<title>obs_by</title>
<polygon fill="lightblue" stroke="black" points="414.04,-221.66 347.79,-221.66 347.79,-185.66 414.04,-185.66 414.04,-221.66"/>
<text xml:space="preserve" text-anchor="middle" x="380.92" y="-198.61" font-family="Times,serif" font-size="14.00">obsoletes</text>
</g>
<!-- obs_by&#45;&gt;RFC3176 -->
<g id="edge1" class="edge">
<title>obs_by&#45;&gt;RFC3176</title>
<path fill="none" stroke="black" d="M414.08,-196.15C425.62,-193.46 439.53,-190.21 454.57,-186.7"/>
<polygon fill="black" stroke="black" points="455.29,-190.12 464.23,-184.44 453.7,-183.31 455.29,-190.12"/>
</g>
<!-- updated_by -->
<g id="node5" class="node">
<title>updated_by</title>
<polygon fill="lightyellow" stroke="black" points="409.54,-167.66 352.29,-167.66 352.29,-131.66 409.54,-131.66 409.54,-167.66"/>
<text xml:space="preserve" text-anchor="middle" x="380.92" y="-144.61" font-family="Times,serif" font-size="14.00">updates</text>
</g>
<!-- updated_by&#45;&gt;RFC3176 -->
<g id="edge4" class="edge">
<title>updated_by&#45;&gt;RFC3176</title>
<path fill="none" stroke="black" d="M409.82,-149.66C415.21,-149.66 421.21,-149.66 427.69,-149.66"/>
<polygon fill="black" stroke="black" points="427.48,-153.16 437.48,-149.66 427.48,-146.16 427.48,-153.16"/>
</g>
<!-- rev_cites -->
<g id="node7" class="node">
<title>rev_cites</title>
<polygon fill="lightblue" stroke="black" points="407.92,-113.66 353.92,-113.66 353.92,-77.66 407.92,-77.66 407.92,-113.66"/>
<text xml:space="preserve" text-anchor="middle" x="380.92" y="-90.61" font-family="Times,serif" font-size="14.00">cites</text>
</g>
<!-- rev_cites&#45;&gt;RFC3176 -->
<g id="edge6" class="edge">
<title>rev_cites&#45;&gt;RFC3176</title>
<path fill="none" stroke="black" d="M408,-101.75C420.64,-104.7 436.94,-108.5 454.84,-112.68"/>
<polygon fill="black" stroke="black" points="453.84,-116.04 464.38,-114.91 455.43,-109.23 453.84,-116.04"/>
</g>
<!-- RFC5474 -->
<g id="node8" class="node">
<title>RFC5474</title>
<g id="a_node8"><a xlink:href="RFC5474.html" xlink:title="This document specifies a framework for the PSAMP (Packet SAMPling) protocol. &#160;The functions of this protocol are to select packets from a stream according to a set of standardized Selectors, to form a stream of reports on the selected packets, and to export the reports to a Collector. &#160;This framework details the components of this architecture, then describes some generic requirements, motivated by the dual aims of ubiquitous deployment and utility of the reports for applications. &#160;Detailed requirements for selection, reporting, and exporting are described, along with configuration requirements of the PSAMP functions. &#160;This memo provides information for the Internet community." target="_top">
<ellipse fill="none" stroke="black" cx="161.4" cy="-151.66" rx="161.4" ry="52.33"/>
<text xml:space="preserve" text-anchor="middle" x="161.4" y="-171.36" font-family="Times,serif" font-size="14.00">RFC5474</text>
<text xml:space="preserve" text-anchor="middle" x="161.4" y="-154.86" font-family="Times,serif" font-size="14.00">A Framework for Packet Selection and</text>
<text xml:space="preserve" text-anchor="middle" x="161.4" y="-138.36" font-family="Times,serif" font-size="14.00">Reporting</text>
<text xml:space="preserve" text-anchor="middle" x="161.4" y="-121.86" font-family="Times,serif" font-size="14.00">2009</text>
</a>
</g>
</g>
<!-- RFC5474&#45;&gt;rev_cites -->
<g id="edge7" class="edge">
<title>RFC5474&#45;&gt;rev_cites</title>
<path fill="none" stroke="black" d="M288.62,-119.16C308.18,-114.13 326.97,-109.29 342.37,-105.33"/>
<polygon fill="black" stroke="black" points="343.16,-108.74 351.97,-102.85 341.41,-101.96 343.16,-108.74"/>
</g>
<!-- RFC9232 -->
<g id="node9" class="node">
<title>RFC9232</title>
<g id="a_node9"><a xlink:href="RFC9232.html" xlink:title="Network telemetry is a technology for gaining network insight and facilitating efficient and automated network management. &#160;It encompasses various techniques for remote data generation, collection, correlation, and consumption. &#160;This document describes an architectural framework for network telemetry, motivated by challenges that are encountered as part of the operation of networks and by the requirements that ensue. &#160;This document clarifies the terminology and classifies the modules and components of a network telemetry system from different perspectives. &#160;The framework and taxonomy help to set a common ground for the collection of related work and provide guidance for related technique and standard developments." target="_top">
<ellipse fill="none" stroke="black" cx="161.4" cy="-40.66" rx="133.82" ry="40.66"/>
<text xml:space="preserve" text-anchor="middle" x="161.4" y="-52.11" font-family="Times,serif" font-size="14.00">RFC9232</text>
<text xml:space="preserve" text-anchor="middle" x="161.4" y="-35.61" font-family="Times,serif" font-size="14.00">Network Telemetry Framework</text>
<text xml:space="preserve" text-anchor="middle" x="161.4" y="-19.11" font-family="Times,serif" font-size="14.00">2022</text>
</a>
</g>
</g>
<!-- RFC9232&#45;&gt;rev_cites -->
<g id="edge8" class="edge">
<title>RFC9232&#45;&gt;rev_cites</title>
<path fill="none" stroke="black" d="M265.11,-66.63C292.89,-73.65 321.21,-80.81 342.77,-86.26"/>
<polygon fill="black" stroke="black" points="341.67,-89.6 352.23,-88.66 343.39,-82.81 341.67,-89.6"/>
</g>
</g>
</svg>
