<?xml version="1.0" encoding="UTF-8" standalone="no"?>
<!DOCTYPE svg PUBLIC "-//W3C//DTD SVG 1.1//EN"
 "http://www.w3.org/Graphics/SVG/1.1/DTD/svg11.dtd">
<!-- Generated by graphviz version 14.1.1 (20251213.1925)
 -->
<!-- Title: Flow Pages: 1 -->
<svg width="746pt" height="1229pt"
 viewBox="0.00 0.00 746.00 1229.00" xmlns="http://www.w3.org/2000/svg" xmlns:xlink="http://www.w3.org/1999/xlink">
<g id="graph0" class="graph" transform="scale(1 1) rotate(0) translate(4 1225.33)">
<title>Flow</title>
<polygon fill="white" stroke="none" points="-4,4 -4,-1225.33 741.52,-1225.33 741.52,4 -4,4"/>
<!-- RFC3938 -->
<g id="node1" class="node">
<title>RFC3938</title>
<g id="a_node1"><a xlink:title="The Message&#45;Context header defined in RFC 3458 describes the context of a message (for example: fax&#45;message or voice&#45;message). This specification extends the Message&#45;Context header with one additional context value: video&#45;message. A receiving user agent (UA) may use this information as a hint to optimally present the message. [STANDARDS&#45;TRACK]">
<ellipse fill="green" stroke="black" stroke-width="3" cx="368.76" cy="-405.56" rx="183.67" ry="50.2"/>
<text xml:space="preserve" text-anchor="middle" x="368.76" y="-419.96" font-family="Times,serif" font-size="18.00">RFC3938</text>
<text xml:space="preserve" text-anchor="middle" x="368.76" y="-398.96" font-family="Times,serif" font-size="18.00">Video&#45;Message Message&#45;Context</text>
<text xml:space="preserve" text-anchor="middle" x="368.76" y="-377.96" font-family="Times,serif" font-size="18.00">2004</text>
</a>
</g>
</g>
<!-- obs -->
<g id="node3" class="node">
<title>obs</title>
<polygon fill="lightblue" stroke="black" points="737.52,-617.34 671.27,-617.34 671.27,-581.34 737.52,-581.34 737.52,-617.34"/>
<text xml:space="preserve" text-anchor="middle" x="704.39" y="-594.29" font-family="Times,serif" font-size="14.00">obsoletes</text>
</g>
<!-- RFC3938&#45;&gt;obs -->
<g id="edge2" class="edge">
<title>RFC3938&#45;&gt;obs</title>
<path fill="none" stroke="black" d="M449.15,-451.97C516.38,-490.79 609.58,-544.6 662.76,-575.3"/>
<polygon fill="black" stroke="black" points="660.81,-578.21 671.22,-580.18 664.31,-572.15 660.81,-578.21"/>
</g>
<!-- updates -->
<g id="node4" class="node">
<title>updates</title>
<polygon fill="lightyellow" stroke="black" points="397.38,-811.11 340.13,-811.11 340.13,-775.11 397.38,-775.11 397.38,-811.11"/>
<text xml:space="preserve" text-anchor="middle" x="368.76" y="-788.06" font-family="Times,serif" font-size="14.00">updates</text>
</g>
<!-- RFC3938&#45;&gt;updates -->
<g id="edge3" class="edge">
<title>RFC3938&#45;&gt;updates</title>
<path fill="none" stroke="black" d="M368.76,-457.02C368.76,-539.4 368.76,-698.27 368.76,-763.77"/>
<polygon fill="black" stroke="black" points="365.26,-763.37 368.76,-773.37 372.26,-763.37 365.26,-763.37"/>
</g>
<!-- cites -->
<g id="node7" class="node">
<title>cites</title>
<polygon fill="lightblue" stroke="black" points="60.13,-617.34 6.13,-617.34 6.13,-581.34 60.13,-581.34 60.13,-617.34"/>
<text xml:space="preserve" text-anchor="middle" x="33.13" y="-594.29" font-family="Times,serif" font-size="14.00">cites</text>
</g>
<!-- RFC3938&#45;&gt;cites -->
<g id="edge6" class="edge">
<title>RFC3938&#45;&gt;cites</title>
<path fill="none" stroke="black" d="M288.37,-451.97C219.28,-491.86 122.76,-547.58 70.43,-577.8"/>
<polygon fill="black" stroke="black" points="68.8,-574.7 61.89,-582.73 72.3,-580.76 68.8,-574.7"/>
</g>
<!-- obs_by -->
<g id="node2" class="node">
<title>obs_by</title>
<polygon fill="lightblue" stroke="black" points="66.25,-229.78 0,-229.78 0,-193.78 66.25,-193.78 66.25,-229.78"/>
<text xml:space="preserve" text-anchor="middle" x="33.12" y="-206.73" font-family="Times,serif" font-size="14.00">obsoletes</text>
</g>
<!-- obs_by&#45;&gt;RFC3938 -->
<g id="edge1" class="edge">
<title>obs_by&#45;&gt;RFC3938</title>
<path fill="none" stroke="black" d="M65,-230.18C113.53,-258.2 207.74,-312.6 278.44,-353.41"/>
<polygon fill="black" stroke="black" points="276.54,-356.35 286.95,-358.32 280.04,-350.29 276.54,-356.35"/>
</g>
<!-- RFC3458 -->
<g id="node5" class="node">
<title>RFC3458</title>
<g id="a_node5"><a xlink:href="RFC3458.html" xlink:title="This memo describes a new RFC 2822 message header, Message&#45;Context. &#160;This header provides information about the context and presentation characteristics of a message. &#160;A receiving user agent (UA) may use this information as a hint to optimally present the message. [STANDARDS&#45;TRACK]" target="_top">
<ellipse fill="none" stroke="black" cx="368.76" cy="-1180.67" rx="145.49" ry="40.66"/>
<text xml:space="preserve" text-anchor="middle" x="368.76" y="-1192.12" font-family="Times,serif" font-size="14.00">RFC3458</text>
<text xml:space="preserve" text-anchor="middle" x="368.76" y="-1175.62" font-family="Times,serif" font-size="14.00">Message Context for Internet Mail</text>
<text xml:space="preserve" text-anchor="middle" x="368.76" y="-1159.12" font-family="Times,serif" font-size="14.00">2003</text>
</a>
</g>
</g>
<!-- updates&#45;&gt;RFC3458 -->
<g id="edge4" class="edge">
<title>updates&#45;&gt;RFC3458</title>
<path fill="none" stroke="black" d="M368.76,-811.55C368.76,-868.12 368.76,-1040.77 368.76,-1128.43"/>
<polygon fill="black" stroke="black" points="365.26,-1128.19 368.76,-1138.19 372.26,-1128.19 365.26,-1128.19"/>
</g>
<!-- updated_by -->
<g id="node6" class="node">
<title>updated_by</title>
<polygon fill="lightyellow" stroke="black" points="397.38,-36 340.13,-36 340.13,0 397.38,0 397.38,-36"/>
<text xml:space="preserve" text-anchor="middle" x="368.76" y="-12.95" font-family="Times,serif" font-size="14.00">updates</text>
</g>
<!-- updated_by&#45;&gt;RFC3938 -->
<g id="edge5" class="edge">
<title>updated_by&#45;&gt;RFC3938</title>
<path fill="none" stroke="black" d="M368.76,-36.43C368.76,-90.76 368.76,-252.12 368.76,-342.47"/>
<polygon fill="black" stroke="black" points="365.26,-342.42 368.76,-352.42 372.26,-342.42 365.26,-342.42"/>
</g>
<!-- rev_cites -->
<g id="node8" class="node">
<title>rev_cites</title>
<polygon fill="lightblue" stroke="black" points="731.39,-229.78 677.39,-229.78 677.39,-193.78 731.39,-193.78 731.39,-229.78"/>
<text xml:space="preserve" text-anchor="middle" x="704.39" y="-206.73" font-family="Times,serif" font-size="14.00">cites</text>
</g>
<!-- rev_cites&#45;&gt;RFC3938 -->
<g id="edge7" class="edge">
<title>rev_cites&#45;&gt;RFC3938</title>
<path fill="none" stroke="black" d="M676.93,-227.64C629.88,-254.8 531.9,-311.37 458.98,-353.47"/>
<polygon fill="black" stroke="black" points="457.54,-350.26 450.63,-358.29 461.04,-356.32 457.54,-350.26"/>
</g>
</g>
</svg>
