<?xml version="1.0" encoding="UTF-8" standalone="no"?>
<!DOCTYPE svg PUBLIC "-//W3C//DTD SVG 1.1//EN"
 "http://www.w3.org/Graphics/SVG/1.1/DTD/svg11.dtd">
<!-- Generated by graphviz version 14.1.1 (20251213.1925)
 -->
<!-- Title: Flow Pages: 1 -->
<svg width="1412pt" height="742pt"
 viewBox="0.00 0.00 1412.00 742.00" xmlns="http://www.w3.org/2000/svg" xmlns:xlink="http://www.w3.org/1999/xlink">
<g id="graph0" class="graph" transform="scale(1 1) rotate(0) translate(4 737.93)">
<title>Flow</title>
<polygon fill="white" stroke="none" points="-4,4 -4,-737.93 1408.25,-737.93 1408.25,4 -4,4"/>
<!-- RFC3926 -->
<g id="node1" class="node">
<title>RFC3926</title>
<g id="a_node1"><a xlink:title="This document defines FLUTE, a protocol for the unidirectional delivery of files over the Internet, which is particularly suited to multicast networks. &#160;The specification builds on Asynchronous Layered Coding, the base protocol designed for massively scalable multicast distribution. &#160;This memo defines an Experimental Protocol for the Internet community.">
<ellipse fill="green" stroke="black" stroke-width="3" cx="684.62" cy="-389.96" rx="156.09" ry="65.05"/>
<text xml:space="preserve" text-anchor="middle" x="684.62" y="-414.86" font-family="Times,serif" font-size="18.00">RFC3926</text>
<text xml:space="preserve" text-anchor="middle" x="684.62" y="-393.86" font-family="Times,serif" font-size="18.00">FLUTE &#45; File Delivery over</text>
<text xml:space="preserve" text-anchor="middle" x="684.62" y="-372.86" font-family="Times,serif" font-size="18.00">Unidirectional Transport</text>
<text xml:space="preserve" text-anchor="middle" x="684.62" y="-351.86" font-family="Times,serif" font-size="18.00">2004</text>
</a>
</g>
</g>
<!-- obs -->
<g id="node4" class="node">
<title>obs</title>
<polygon fill="lightblue" stroke="black" points="1000.05,-570.94 933.8,-570.94 933.8,-534.94 1000.05,-534.94 1000.05,-570.94"/>
<text xml:space="preserve" text-anchor="middle" x="966.92" y="-547.89" font-family="Times,serif" font-size="14.00">obsoletes</text>
</g>
<!-- RFC3926&#45;&gt;obs -->
<g id="edge3" class="edge">
<title>RFC3926&#45;&gt;obs</title>
<path fill="none" stroke="black" d="M777.45,-443.55C827.31,-472.34 886.32,-506.41 925.08,-528.79"/>
<polygon fill="black" stroke="black" points="923.24,-531.77 933.65,-533.74 926.74,-525.71 923.24,-531.77"/>
</g>
<!-- updates -->
<g id="node5" class="node">
<title>updates</title>
<polygon fill="lightyellow" stroke="black" points="713.25,-733.93 656,-733.93 656,-697.93 713.25,-697.93 713.25,-733.93"/>
<text xml:space="preserve" text-anchor="middle" x="684.62" y="-710.88" font-family="Times,serif" font-size="14.00">updates</text>
</g>
<!-- RFC3926&#45;&gt;updates -->
<g id="edge4" class="edge">
<title>RFC3926&#45;&gt;updates</title>
<path fill="none" stroke="black" d="M684.62,-456.32C684.62,-526.63 684.62,-634.49 684.62,-686.23"/>
<polygon fill="black" stroke="black" points="681.12,-686.03 684.62,-696.03 688.12,-686.03 681.12,-686.03"/>
</g>
<!-- cites -->
<g id="node7" class="node">
<title>cites</title>
<polygon fill="lightblue" stroke="black" points="429.33,-570.94 375.33,-570.94 375.33,-534.94 429.33,-534.94 429.33,-570.94"/>
<text xml:space="preserve" text-anchor="middle" x="402.33" y="-547.89" font-family="Times,serif" font-size="14.00">cites</text>
</g>
<!-- RFC3926&#45;&gt;cites -->
<g id="edge6" class="edge">
<title>RFC3926&#45;&gt;cites</title>
<path fill="none" stroke="black" d="M591.8,-443.55C539.87,-473.53 478.02,-509.24 439.46,-531.51"/>
<polygon fill="black" stroke="black" points="437.92,-528.35 431.01,-536.38 441.42,-534.42 437.92,-528.35"/>
</g>
<!-- obs_by -->
<g id="node2" class="node">
<title>obs_by</title>
<polygon fill="lightblue" stroke="black" points="435.45,-244.98 369.2,-244.98 369.2,-208.98 435.45,-208.98 435.45,-244.98"/>
<text xml:space="preserve" text-anchor="middle" x="402.33" y="-221.93" font-family="Times,serif" font-size="14.00">obsoletes</text>
</g>
<!-- obs_by&#45;&gt;RFC3926 -->
<g id="edge1" class="edge">
<title>obs_by&#45;&gt;RFC3926</title>
<path fill="none" stroke="black" d="M434.16,-245.36C469.93,-266.01 529.83,-300.59 582.09,-330.76"/>
<polygon fill="black" stroke="black" points="580.02,-333.61 590.44,-335.58 583.52,-327.55 580.02,-333.61"/>
</g>
<!-- RFC6726 -->
<g id="node3" class="node">
<title>RFC6726</title>
<g id="a_node3"><a xlink:href="RFC6726.html" xlink:title="This document defines File Delivery over Unidirectional Transport (FLUTE), a protocol for the unidirectional delivery of files over the Internet, which is particularly suited to multicast networks. &#160;The specification builds on Asynchronous Layered Coding, the base protocol designed for massively scalable multicast distribution. &#160;This document obsoletes RFC 3926. [STANDARDS&#45;TRACK]" target="_top">
<ellipse fill="none" stroke="black" cx="120.03" cy="-63.99" rx="120.03" ry="52.33"/>
<text xml:space="preserve" text-anchor="middle" x="120.03" y="-83.69" font-family="Times,serif" font-size="14.00">RFC6726</text>
<text xml:space="preserve" text-anchor="middle" x="120.03" y="-67.19" font-family="Times,serif" font-size="14.00">FLUTE &#45; File Delivery over</text>
<text xml:space="preserve" text-anchor="middle" x="120.03" y="-50.69" font-family="Times,serif" font-size="14.00">Unidirectional Transport</text>
<text xml:space="preserve" text-anchor="middle" x="120.03" y="-34.19" font-family="Times,serif" font-size="14.00">2012</text>
</a>
</g>
</g>
<!-- RFC6726&#45;&gt;obs_by -->
<g id="edge2" class="edge">
<title>RFC6726&#45;&gt;obs_by</title>
<path fill="none" stroke="black" d="M192.73,-105.97C246.08,-136.77 316.64,-177.51 360.75,-202.97"/>
<polygon fill="black" stroke="black" points="358.84,-205.91 369.25,-207.88 362.34,-199.85 358.84,-205.91"/>
</g>
<!-- rev_cites -->
<g id="node8" class="node">
<title>rev_cites</title>
<polygon fill="lightblue" stroke="black" points="993.92,-244.98 939.92,-244.98 939.92,-208.98 993.92,-208.98 993.92,-244.98"/>
<text xml:space="preserve" text-anchor="middle" x="966.92" y="-221.93" font-family="Times,serif" font-size="14.00">cites</text>
</g>
<!-- RFC6726&#45;&gt;rev_cites -->
<g id="edge8" class="edge">
<title>RFC6726&#45;&gt;rev_cites</title>
<path fill="none" stroke="black" d="M230.31,-85.22C421.69,-122.05 806.55,-196.11 928.76,-219.63"/>
<polygon fill="black" stroke="black" points="927.78,-223.01 938.26,-221.46 929.11,-216.14 927.78,-223.01"/>
</g>
<!-- updated_by -->
<g id="node6" class="node">
<title>updated_by</title>
<polygon fill="lightyellow" stroke="black" points="713.25,-81.99 656,-81.99 656,-45.99 713.25,-45.99 713.25,-81.99"/>
<text xml:space="preserve" text-anchor="middle" x="684.62" y="-58.94" font-family="Times,serif" font-size="14.00">updates</text>
</g>
<!-- updated_by&#45;&gt;RFC3926 -->
<g id="edge5" class="edge">
<title>updated_by&#45;&gt;RFC3926</title>
<path fill="none" stroke="black" d="M684.62,-82.45C684.62,-125.82 684.62,-236.25 684.62,-312.25"/>
<polygon fill="black" stroke="black" points="681.12,-312.15 684.62,-322.15 688.12,-312.15 681.12,-312.15"/>
</g>
<!-- rev_cites&#45;&gt;RFC3926 -->
<g id="edge7" class="edge">
<title>rev_cites&#45;&gt;RFC3926</title>
<path fill="none" stroke="black" d="M939.6,-242.75C904.55,-262.99 841.78,-299.23 787.29,-330.69"/>
<polygon fill="black" stroke="black" points="785.79,-327.51 778.88,-335.54 789.29,-333.57 785.79,-327.51"/>
</g>
<!-- RFC8095 -->
<g id="node9" class="node">
<title>RFC8095</title>
<g id="a_node9"><a xlink:href="RFC8095.html" xlink:title="This document describes, surveys, and classifies the protocol mechanisms provided by existing IETF protocols, as background for determining a common set of transport services. &#160;It examines the Transmission Control Protocol (TCP), Multipath TCP, the Stream Control Transmission Protocol (SCTP), the User Datagram Protocol (UDP), UDP&#45;Lite, the Datagram Congestion Control Protocol (DCCP), the Internet Control Message Protocol (ICMP), the Real&#45;Time Transport Protocol (RTP), File Delivery over Unidirectional Transport / Asynchronous Layered Coding (FLUTE/ALC) for Reliable Multicast, NACK&#45; Oriented Reliable Multicast (NORM), Transport Layer Security (TLS), Datagram TLS (DTLS), and the Hypertext Transport Protocol (HTTP), when HTTP is used as a pseudotransport. &#160;This survey provides background for the definition of transport services within the TAPS working group." target="_top">
<ellipse fill="none" stroke="black" cx="1249.22" cy="-63.99" rx="155.03" ry="63.99"/>
<text xml:space="preserve" text-anchor="middle" x="1249.22" y="-91.94" font-family="Times,serif" font-size="14.00">RFC8095</text>
<text xml:space="preserve" text-anchor="middle" x="1249.22" y="-75.44" font-family="Times,serif" font-size="14.00">Services Provided by IETF Transport</text>
<text xml:space="preserve" text-anchor="middle" x="1249.22" y="-58.94" font-family="Times,serif" font-size="14.00">Protocols and Congestion Control</text>
<text xml:space="preserve" text-anchor="middle" x="1249.22" y="-42.44" font-family="Times,serif" font-size="14.00">Mechanisms</text>
<text xml:space="preserve" text-anchor="middle" x="1249.22" y="-25.94" font-family="Times,serif" font-size="14.00">2017</text>
</a>
</g>
</g>
<!-- RFC8095&#45;&gt;rev_cites -->
<g id="edge9" class="edge">
<title>RFC8095&#45;&gt;rev_cites</title>
<path fill="none" stroke="black" d="M1158.73,-116.23C1106.32,-146.49 1043.17,-182.95 1004.03,-205.55"/>
<polygon fill="black" stroke="black" points="1002.36,-202.48 995.45,-210.51 1005.86,-208.54 1002.36,-202.48"/>
</g>
</g>
</svg>
