<?xml version="1.0" encoding="UTF-8" standalone="no"?>
<!DOCTYPE svg PUBLIC "-//W3C//DTD SVG 1.1//EN"
 "http://www.w3.org/Graphics/SVG/1.1/DTD/svg11.dtd">
<!-- Generated by graphviz version 14.1.1 (20251213.1925)
 -->
<!-- Title: Flow Pages: 1 -->
<svg width="1402pt" height="1281pt"
 viewBox="0.00 0.00 1402.00 1281.00" xmlns="http://www.w3.org/2000/svg" xmlns:xlink="http://www.w3.org/1999/xlink">
<g id="graph0" class="graph" transform="scale(1 1) rotate(0) translate(4 1276.88)">
<title>Flow</title>
<polygon fill="white" stroke="none" points="-4,4 -4,-1276.88 1398.42,-1276.88 1398.42,4 -4,4"/>
<!-- RFC3408 -->
<g id="node1" class="node">
<title>RFC3408</title>
<g id="a_node1"><a xlink:title="This document defines an additional mode of the link&#45;layer assisted RObust Header Compression (ROHC) profile, also known as the zero&#45;byte profile, beyond the two defined in RFC 3242. &#160;Zero&#45;byte header compression exists in order to prevent the single&#45;octet ROHC header from pushing a packet voice stream into the next higher fixed packet size for the radio. &#160;It is usable in certain widely deployed older air interfaces. &#160;This document adds the zero&#45;byte operation for ROHC Bidirectional Reliable mode (R&#45;mode) to the ones specified for Unidirectional (U&#45;mode) and Bidirectional Optimistic (O&#45;mode) modes of header compression in RFC 3242. [STANDARDS&#45;TRACK]">
<ellipse fill="green" stroke="black" stroke-width="3" cx="964.34" cy="-414.96" rx="239.89" ry="94.75"/>
<text xml:space="preserve" text-anchor="middle" x="964.34" y="-460.86" font-family="Times,serif" font-size="18.00">RFC3408</text>
<text xml:space="preserve" text-anchor="middle" x="964.34" y="-439.86" font-family="Times,serif" font-size="18.00">Zero&#45;byte Support for Bidirectional</text>
<text xml:space="preserve" text-anchor="middle" x="964.34" y="-418.86" font-family="Times,serif" font-size="18.00">Reliable Mode (R&#45;mode) in Extended Link&#45;</text>
<text xml:space="preserve" text-anchor="middle" x="964.34" y="-397.86" font-family="Times,serif" font-size="18.00">Layer Assisted RObust Header Compression</text>
<text xml:space="preserve" text-anchor="middle" x="964.34" y="-376.86" font-family="Times,serif" font-size="18.00">(ROHC) Profile</text>
<text xml:space="preserve" text-anchor="middle" x="964.34" y="-355.86" font-family="Times,serif" font-size="18.00">2002</text>
</a>
</g>
</g>
<!-- obs -->
<g id="node3" class="node">
<title>obs</title>
<polygon fill="lightblue" stroke="black" points="1394.42,-597.39 1328.17,-597.39 1328.17,-561.39 1394.42,-561.39 1394.42,-597.39"/>
<text xml:space="preserve" text-anchor="middle" x="1361.3" y="-574.34" font-family="Times,serif" font-size="14.00">obsoletes</text>
</g>
<!-- RFC3408&#45;&gt;obs -->
<g id="edge2" class="edge">
<title>RFC3408&#45;&gt;obs</title>
<path fill="none" stroke="black" d="M1131.53,-484.22C1199.46,-512.35 1272.4,-542.57 1317.45,-561.22"/>
<polygon fill="black" stroke="black" points="1316.02,-564.42 1326.6,-565.02 1318.7,-557.96 1316.02,-564.42"/>
</g>
<!-- updates -->
<g id="node4" class="node">
<title>updates</title>
<polygon fill="lightyellow" stroke="black" points="1157.39,-829.92 1100.14,-829.92 1100.14,-793.92 1157.39,-793.92 1157.39,-829.92"/>
<text xml:space="preserve" text-anchor="middle" x="1128.76" y="-806.87" font-family="Times,serif" font-size="14.00">updates</text>
</g>
<!-- RFC3408&#45;&gt;updates -->
<g id="edge3" class="edge">
<title>RFC3408&#45;&gt;updates</title>
<path fill="none" stroke="black" d="M1003.62,-509.79C1040.5,-598.84 1093.41,-726.57 1116.83,-783.11"/>
<polygon fill="black" stroke="black" points="1113.6,-784.45 1120.66,-792.35 1120.06,-781.77 1113.6,-784.45"/>
</g>
<!-- cites -->
<g id="node6" class="node">
<title>cites</title>
<polygon fill="lightblue" stroke="black" points="594.38,-597.39 540.38,-597.39 540.38,-561.39 594.38,-561.39 594.38,-597.39"/>
<text xml:space="preserve" text-anchor="middle" x="567.38" y="-574.34" font-family="Times,serif" font-size="14.00">cites</text>
</g>
<!-- RFC3408&#45;&gt;cites -->
<g id="edge5" class="edge">
<title>RFC3408&#45;&gt;cites</title>
<path fill="none" stroke="black" d="M797.14,-484.22C726.04,-513.67 649.44,-545.4 605.09,-563.77"/>
<polygon fill="black" stroke="black" points="603.84,-560.5 595.94,-567.56 606.51,-566.97 603.84,-560.5"/>
</g>
<!-- obs_by -->
<g id="node2" class="node">
<title>obs_by</title>
<polygon fill="lightblue" stroke="black" points="833.04,-36 766.79,-36 766.79,0 833.04,0 833.04,-36"/>
<text xml:space="preserve" text-anchor="middle" x="799.91" y="-12.95" font-family="Times,serif" font-size="14.00">obsoletes</text>
</g>
<!-- obs_by&#45;&gt;RFC3408 -->
<g id="edge1" class="edge">
<title>obs_by&#45;&gt;RFC3408</title>
<path fill="none" stroke="black" d="M807.51,-36.35C827.3,-84.12 881.58,-215.16 920.74,-309.7"/>
<polygon fill="black" stroke="black" points="917.43,-310.87 924.49,-318.77 923.9,-308.19 917.43,-310.87"/>
</g>
<!-- updated_by -->
<g id="node5" class="node">
<title>updated_by</title>
<polygon fill="lightyellow" stroke="black" points="1157.39,-36 1100.14,-36 1100.14,0 1157.39,0 1157.39,-36"/>
<text xml:space="preserve" text-anchor="middle" x="1128.76" y="-12.95" font-family="Times,serif" font-size="14.00">updates</text>
</g>
<!-- updated_by&#45;&gt;RFC3408 -->
<g id="edge4" class="edge">
<title>updated_by&#45;&gt;RFC3408</title>
<path fill="none" stroke="black" d="M1121.16,-36.35C1101.38,-84.12 1047.1,-215.16 1007.94,-309.7"/>
<polygon fill="black" stroke="black" points="1004.77,-308.19 1004.18,-318.77 1011.24,-310.87 1004.77,-308.19"/>
</g>
<!-- RFC3242 -->
<g id="node7" class="node">
<title>RFC3242</title>
<g id="a_node7"><a xlink:href="RFC3242.html" xlink:title="This document defines a ROHC (Robust Header Compression) profile for compression of IP/UDP/RTP (Internet Protocol/User Datagram Protocol/Real&#45;Time Transport Protocol) packets, utilizing functionality provided by the lower layers to increase compression efficiency by completely eliminating the header for most packets during optimal operation. &#160;The profile is built as an extension to the ROHC RTP profile. &#160;It defines additional mechanisms needed in ROHC, states requirements on the assisting layer to guarantee transparency, and specifies general logic for compression and decompression making use of this header&#45;free packet. [STANDARDS&#45;TRACK]" target="_top">
<ellipse fill="none" stroke="black" cx="635.48" cy="-1208.89" rx="171.47" ry="63.99"/>
<text xml:space="preserve" text-anchor="middle" x="635.48" y="-1236.84" font-family="Times,serif" font-size="14.00">RFC3242</text>
<text xml:space="preserve" text-anchor="middle" x="635.48" y="-1220.34" font-family="Times,serif" font-size="14.00">RObust Header Compression (ROHC): A</text>
<text xml:space="preserve" text-anchor="middle" x="635.48" y="-1203.84" font-family="Times,serif" font-size="14.00">Link&#45;Layer Assisted Profile for</text>
<text xml:space="preserve" text-anchor="middle" x="635.48" y="-1187.34" font-family="Times,serif" font-size="14.00">IP/UDP/RTP</text>
<text xml:space="preserve" text-anchor="middle" x="635.48" y="-1170.84" font-family="Times,serif" font-size="14.00">2002</text>
</a>
</g>
</g>
<!-- cites&#45;&gt;RFC3242 -->
<g id="edge6" class="edge">
<title>cites&#45;&gt;RFC3242</title>
<path fill="none" stroke="black" d="M569.38,-597.89C577.91,-676.78 611.55,-987.71 627.29,-1133.14"/>
<polygon fill="black" stroke="black" points="623.81,-1133.51 628.36,-1143.07 630.77,-1132.76 623.81,-1133.51"/>
</g>
<!-- RFC3095 -->
<g id="node8" class="node">
<title>RFC3095</title>
<g id="a_node8"><a xlink:href="RFC3095.html" xlink:title="This document specifies a highly robust and efficient header compression scheme for RTP/UDP/IP (Real&#45;Time Transport Protocol, User Datagram Protocol, Internet Protocol), UDP/IP, and ESP/IP (Encapsulating Security Payload) headers. [STANDARDS&#45;TRACK]" target="_top">
<ellipse fill="none" stroke="black" cx="170.41" cy="-743.82" rx="170.41" ry="63.99"/>
<text xml:space="preserve" text-anchor="middle" x="170.41" y="-771.77" font-family="Times,serif" font-size="14.00">RFC3095</text>
<text xml:space="preserve" text-anchor="middle" x="170.41" y="-755.27" font-family="Times,serif" font-size="14.00">RObust Header Compression (ROHC):</text>
<text xml:space="preserve" text-anchor="middle" x="170.41" y="-738.77" font-family="Times,serif" font-size="14.00">Framework and four profiles: RTP, UDP,</text>
<text xml:space="preserve" text-anchor="middle" x="170.41" y="-722.27" font-family="Times,serif" font-size="14.00">ESP, and uncompressed</text>
<text xml:space="preserve" text-anchor="middle" x="170.41" y="-705.77" font-family="Times,serif" font-size="14.00">2001</text>
</a>
</g>
</g>
<!-- cites&#45;&gt;RFC3095 -->
<g id="edge7" class="edge">
<title>cites&#45;&gt;RFC3095</title>
<path fill="none" stroke="black" d="M540.09,-590.69C490.43,-611.26 382.44,-655.99 295.93,-691.83"/>
<polygon fill="black" stroke="black" points="294.79,-688.51 286.89,-695.57 297.47,-694.98 294.79,-688.51"/>
</g>
<!-- RFC2119 -->
<g id="node9" class="node">
<title>RFC2119</title>
<g id="a_node9"><a xlink:href="RFC2119.html" xlink:title="In many standards track documents several words are used to signify the requirements in the specification. &#160;These words are often capitalized. &#160;This document defines these words as they should be interpreted in IETF documents. &#160;This document specifies an Internet Best Current Practices for the Internet Community, and requests discussion and suggestions for improvements." target="_top">
<ellipse fill="none" stroke="black" cx="170.41" cy="-86.11" rx="160.34" ry="52.33"/>
<text xml:space="preserve" text-anchor="middle" x="170.41" y="-105.81" font-family="Times,serif" font-size="14.00">RFC2119</text>
<text xml:space="preserve" text-anchor="middle" x="170.41" y="-89.31" font-family="Times,serif" font-size="14.00">Key words for use in RFCs to Indicate</text>
<text xml:space="preserve" text-anchor="middle" x="170.41" y="-72.81" font-family="Times,serif" font-size="14.00">Requirement Levels</text>
<text xml:space="preserve" text-anchor="middle" x="170.41" y="-56.31" font-family="Times,serif" font-size="14.00">1997</text>
</a>
</g>
</g>
<!-- cites&#45;&gt;RFC2119 -->
<g id="edge8" class="edge">
<title>cites&#45;&gt;RFC2119</title>
<path fill="none" stroke="black" d="M552.54,-560.95C498.2,-493.43 308.56,-257.78 218.55,-145.92"/>
<polygon fill="black" stroke="black" points="221.4,-143.89 212.41,-138.29 215.95,-148.28 221.4,-143.89"/>
</g>
<!-- rev_cites -->
<g id="node10" class="node">
<title>rev_cites</title>
<polygon fill="lightblue" stroke="black" points="1388.3,-268.54 1334.3,-268.54 1334.3,-232.54 1388.3,-232.54 1388.3,-268.54"/>
<text xml:space="preserve" text-anchor="middle" x="1361.3" y="-245.49" font-family="Times,serif" font-size="14.00">cites</text>
</g>
<!-- rev_cites&#45;&gt;RFC3408 -->
<g id="edge9" class="edge">
<title>rev_cites&#45;&gt;RFC3408</title>
<path fill="none" stroke="black" d="M1334.01,-261.84C1293.95,-278.43 1215.89,-310.76 1141.8,-341.46"/>
<polygon fill="black" stroke="black" points="1140.67,-338.14 1132.77,-345.2 1143.35,-344.6 1140.67,-338.14"/>
</g>
</g>
</svg>
