<?xml version="1.0" encoding="UTF-8" standalone="no"?>
<!DOCTYPE svg PUBLIC "-//W3C//DTD SVG 1.1//EN"
 "http://www.w3.org/Graphics/SVG/1.1/DTD/svg11.dtd">
<!-- Generated by graphviz version 14.1.1 (20251213.1925)
 -->
<!-- Title: Flow Pages: 1 -->
<svg width="853pt" height="405pt"
 viewBox="0.00 0.00 853.00 405.00" xmlns="http://www.w3.org/2000/svg" xmlns:xlink="http://www.w3.org/1999/xlink">
<g id="graph0" class="graph" transform="scale(1 1) rotate(0) translate(4 401.32)">
<title>Flow</title>
<polygon fill="white" stroke="none" points="-4,4 -4,-401.32 848.6,-401.32 848.6,4 -4,4"/>
<!-- RFC3105 -->
<g id="node1" class="node">
<title>RFC3105</title>
<g id="a_node1"><a xlink:title="This document contains an SLP service type template that describes the advertisements made by RSIP servers for their services. &#160;This memo defines an Experimental Protocol for the Internet community.">
<ellipse fill="green" stroke="black" cx="612.11" cy="-287.66" rx="141.24" ry="40.66"/>
<text xml:space="preserve" text-anchor="middle" x="612.11" y="-299.11" font-family="Times,serif" font-size="14.00">RFC3105</text>
<text xml:space="preserve" text-anchor="middle" x="612.11" y="-282.61" font-family="Times,serif" font-size="14.00">Finding an RSIP Server with SLP</text>
<text xml:space="preserve" text-anchor="middle" x="612.11" y="-266.11" font-family="Times,serif" font-size="14.00">2001</text>
</a>
</g>
</g>
<!-- obs -->
<g id="node3" class="node">
<title>obs</title>
<polygon fill="lightblue" stroke="black" points="844.6,-359.66 778.35,-359.66 778.35,-323.66 844.6,-323.66 844.6,-359.66"/>
<text xml:space="preserve" text-anchor="middle" x="811.48" y="-336.61" font-family="Times,serif" font-size="14.00">obsoletes</text>
</g>
<!-- RFC3105&#45;&gt;obs -->
<g id="edge2" class="edge">
<title>RFC3105&#45;&gt;obs</title>
<path fill="none" stroke="black" d="M715.55,-315.69C733.83,-320.69 751.94,-325.64 767.36,-329.86"/>
<polygon fill="black" stroke="black" points="766.05,-333.13 776.62,-332.4 767.89,-326.38 766.05,-333.13"/>
</g>
<!-- updates -->
<g id="node4" class="node">
<title>updates</title>
<polygon fill="lightyellow" stroke="black" points="840.1,-305.66 782.85,-305.66 782.85,-269.66 840.1,-269.66 840.1,-305.66"/>
<text xml:space="preserve" text-anchor="middle" x="811.48" y="-282.61" font-family="Times,serif" font-size="14.00">updates</text>
</g>
<!-- RFC3105&#45;&gt;updates -->
<g id="edge3" class="edge">
<title>RFC3105&#45;&gt;updates</title>
<path fill="none" stroke="black" d="M753.66,-287.66C759.8,-287.66 765.68,-287.66 771.17,-287.66"/>
<polygon fill="black" stroke="black" points="771.01,-291.16 781.01,-287.66 771.01,-284.16 771.01,-291.16"/>
</g>
<!-- cites -->
<g id="node6" class="node">
<title>cites</title>
<polygon fill="lightblue" stroke="black" points="838.48,-251.66 784.48,-251.66 784.48,-215.66 838.48,-215.66 838.48,-251.66"/>
<text xml:space="preserve" text-anchor="middle" x="811.48" y="-228.61" font-family="Times,serif" font-size="14.00">cites</text>
</g>
<!-- RFC3105&#45;&gt;cites -->
<g id="edge5" class="edge">
<title>RFC3105&#45;&gt;cites</title>
<path fill="none" stroke="black" d="M715.55,-259.63C736.3,-253.96 756.82,-248.34 773.44,-243.79"/>
<polygon fill="black" stroke="black" points="774.11,-247.24 782.83,-241.23 772.26,-240.49 774.11,-247.24"/>
</g>
<!-- obs_by -->
<g id="node2" class="node">
<title>obs_by</title>
<polygon fill="lightblue" stroke="black" points="445.86,-359.66 379.61,-359.66 379.61,-323.66 445.86,-323.66 445.86,-359.66"/>
<text xml:space="preserve" text-anchor="middle" x="412.74" y="-336.61" font-family="Times,serif" font-size="14.00">obsoletes</text>
</g>
<!-- obs_by&#45;&gt;RFC3105 -->
<g id="edge1" class="edge">
<title>obs_by&#45;&gt;RFC3105</title>
<path fill="none" stroke="black" d="M446.33,-332.74C460.79,-328.79 478.76,-323.87 497.46,-318.76"/>
<polygon fill="black" stroke="black" points="498.35,-322.14 507.07,-316.13 496.5,-315.39 498.35,-322.14"/>
</g>
<!-- updated_by -->
<g id="node5" class="node">
<title>updated_by</title>
<polygon fill="lightyellow" stroke="black" points="441.36,-305.66 384.11,-305.66 384.11,-269.66 441.36,-269.66 441.36,-305.66"/>
<text xml:space="preserve" text-anchor="middle" x="412.74" y="-282.61" font-family="Times,serif" font-size="14.00">updates</text>
</g>
<!-- updated_by&#45;&gt;RFC3105 -->
<g id="edge4" class="edge">
<title>updated_by&#45;&gt;RFC3105</title>
<path fill="none" stroke="black" d="M441.6,-287.66C446.98,-287.66 452.95,-287.66 459.34,-287.66"/>
<polygon fill="black" stroke="black" points="458.96,-291.16 468.96,-287.66 458.96,-284.16 458.96,-291.16"/>
</g>
<!-- rev_cites -->
<g id="node7" class="node">
<title>rev_cites</title>
<polygon fill="lightblue" stroke="black" points="439.74,-251.66 385.74,-251.66 385.74,-215.66 439.74,-215.66 439.74,-251.66"/>
<text xml:space="preserve" text-anchor="middle" x="412.74" y="-228.61" font-family="Times,serif" font-size="14.00">cites</text>
</g>
<!-- rev_cites&#45;&gt;RFC3105 -->
<g id="edge6" class="edge">
<title>rev_cites&#45;&gt;RFC3105</title>
<path fill="none" stroke="black" d="M439.95,-240.83C455.38,-245.05 476.07,-250.72 497.74,-256.64"/>
<polygon fill="black" stroke="black" points="496.75,-260 507.32,-259.26 498.6,-253.25 496.75,-260"/>
</g>
<!-- RFC3102 -->
<g id="node8" class="node">
<title>RFC3102</title>
<g id="a_node8"><a xlink:href="RFC3102.html" xlink:title="This document examines the general framework of Realm Specific IP (RSIP). &#160;RSIP is intended as a alternative to NAT in which the end&#45;to&#45; end integrity of packets is maintained. &#160;We focus on implementation issues, deployment scenarios, and interaction with other layer&#45;three protocols. &#160;This memo defines an Experimental Protocol for the Internet community." target="_top">
<ellipse fill="none" stroke="black" cx="177.31" cy="-356.66" rx="131.7" ry="40.66"/>
<text xml:space="preserve" text-anchor="middle" x="177.31" y="-368.11" font-family="Times,serif" font-size="14.00">RFC3102</text>
<text xml:space="preserve" text-anchor="middle" x="177.31" y="-351.61" font-family="Times,serif" font-size="14.00">Realm Specific IP: Framework</text>
<text xml:space="preserve" text-anchor="middle" x="177.31" y="-335.11" font-family="Times,serif" font-size="14.00">2001</text>
</a>
</g>
</g>
<!-- RFC3102&#45;&gt;rev_cites -->
<g id="edge7" class="edge">
<title>RFC3102&#45;&gt;rev_cites</title>
<path fill="none" stroke="black" d="M294.73,-337.86C316.16,-330.61 337.22,-320.57 354.61,-306.66 372.79,-292.13 364.9,-278.68 379.61,-260.66 379.77,-260.47 379.93,-260.28 380.09,-260.09"/>
<polygon fill="black" stroke="black" points="382.52,-262.61 386.9,-252.97 377.46,-257.77 382.52,-262.61"/>
</g>
<!-- RFC3822 -->
<g id="node9" class="node">
<title>RFC3822</title>
<g id="a_node9"><a xlink:href="RFC3822.html" xlink:title="This document defines the use of Service Location Protocol version 2 (SLPv2) by Fibre Channel over TCP/IP (FCIP) Entities. [STANDARDS&#45;TRACK]" target="_top">
<ellipse fill="none" stroke="black" cx="177.31" cy="-233.66" rx="177.31" ry="63.99"/>
<text xml:space="preserve" text-anchor="middle" x="177.31" y="-261.61" font-family="Times,serif" font-size="14.00">RFC3822</text>
<text xml:space="preserve" text-anchor="middle" x="177.31" y="-245.11" font-family="Times,serif" font-size="14.00">Finding Fibre Channel over TCP/IP (FCIP)</text>
<text xml:space="preserve" text-anchor="middle" x="177.31" y="-228.61" font-family="Times,serif" font-size="14.00">Entities Using Service Location Protocol</text>
<text xml:space="preserve" text-anchor="middle" x="177.31" y="-212.11" font-family="Times,serif" font-size="14.00">version 2 (SLPv2)</text>
<text xml:space="preserve" text-anchor="middle" x="177.31" y="-195.61" font-family="Times,serif" font-size="14.00">2004</text>
</a>
</g>
</g>
<!-- RFC3822&#45;&gt;rev_cites -->
<g id="edge8" class="edge">
<title>RFC3822&#45;&gt;rev_cites</title>
<path fill="none" stroke="black" d="M354.93,-233.66C361.69,-233.66 368.07,-233.66 373.95,-233.66"/>
<polygon fill="black" stroke="black" points="373.76,-237.16 383.76,-233.66 373.76,-230.16 373.76,-237.16"/>
</g>
<!-- RFC4018 -->
<g id="node10" class="node">
<title>RFC4018</title>
<g id="a_node10"><a xlink:href="RFC4018.html" xlink:title="The iSCSI protocol provides a way for hosts to access SCSI devices over an IP network. &#160;This document defines the use of the Service Location Protocol (SLP) by iSCSI hosts, devices, and management services, along with the SLP service type templates that describe the services they provide. [PROPOSED STANDARD]" target="_top">
<ellipse fill="none" stroke="black" cx="177.31" cy="-75.66" rx="175.19" ry="75.66"/>
<text xml:space="preserve" text-anchor="middle" x="177.31" y="-111.86" font-family="Times,serif" font-size="14.00">RFC4018</text>
<text xml:space="preserve" text-anchor="middle" x="177.31" y="-95.36" font-family="Times,serif" font-size="14.00">Finding Internet Small Computer Systems</text>
<text xml:space="preserve" text-anchor="middle" x="177.31" y="-78.86" font-family="Times,serif" font-size="14.00">Interface (iSCSI) Targets and Name</text>
<text xml:space="preserve" text-anchor="middle" x="177.31" y="-62.36" font-family="Times,serif" font-size="14.00">Servers by Using Service Location</text>
<text xml:space="preserve" text-anchor="middle" x="177.31" y="-45.86" font-family="Times,serif" font-size="14.00">Protocol version 2 (SLPv2)</text>
<text xml:space="preserve" text-anchor="middle" x="177.31" y="-29.36" font-family="Times,serif" font-size="14.00">2005</text>
</a>
</g>
</g>
<!-- RFC4018&#45;&gt;rev_cites -->
<g id="edge9" class="edge">
<title>RFC4018&#45;&gt;rev_cites</title>
<path fill="none" stroke="black" d="M304.94,-127.87C322.42,-137.56 339.53,-148.51 354.61,-160.66 370.34,-173.33 384.38,-191.12 394.6,-205.97"/>
<polygon fill="black" stroke="black" points="391.46,-207.57 399.91,-213.96 397.29,-203.69 391.46,-207.57"/>
</g>
</g>
</svg>
