<?xml version="1.0" encoding="UTF-8" standalone="no"?>
<!DOCTYPE svg PUBLIC "-//W3C//DTD SVG 1.1//EN"
 "http://www.w3.org/Graphics/SVG/1.1/DTD/svg11.dtd">
<!-- Generated by graphviz version 14.1.1 (20251213.1925)
 -->
<!-- Title: Flow Pages: 1 -->
<svg width="1070pt" height="265pt"
 viewBox="0.00 0.00 1070.00 265.00" xmlns="http://www.w3.org/2000/svg" xmlns:xlink="http://www.w3.org/1999/xlink">
<g id="graph0" class="graph" transform="scale(1 1) rotate(0) translate(4 260.99)">
<title>Flow</title>
<polygon fill="white" stroke="none" points="-4,4 -4,-260.99 1065.94,-260.99 1065.94,4 -4,4"/>
<!-- RFC3512 -->
<g id="node1" class="node">
<title>RFC3512</title>
<g id="a_node1"><a xlink:title="This document is written for readers interested in the Internet Standard Management Framework and its protocol, the Simple Network Management Protocol (SNMP). &#160;In particular, it offers guidance in the effective use of SNMP for configuration management. &#160;This information is relevant to vendors that build network elements, management application developers, and those that acquire and deploy this technology in their networks. &#160;This memo provides information for the Internet community.">
<ellipse fill="none" stroke="black" cx="575.52" cy="-184.99" rx="167.23" ry="63.99"/>
<text xml:space="preserve" text-anchor="middle" x="575.52" y="-212.94" font-family="Times,serif" font-size="14.00">RFC3512</text>
<text xml:space="preserve" text-anchor="middle" x="575.52" y="-196.44" font-family="Times,serif" font-size="14.00">Configuring Networks and Devices with</text>
<text xml:space="preserve" text-anchor="middle" x="575.52" y="-179.94" font-family="Times,serif" font-size="14.00">Simple Network Management Protocol</text>
<text xml:space="preserve" text-anchor="middle" x="575.52" y="-163.44" font-family="Times,serif" font-size="14.00">(SNMP)</text>
<text xml:space="preserve" text-anchor="middle" x="575.52" y="-146.94" font-family="Times,serif" font-size="14.00">2003</text>
</a>
</g>
</g>
<!-- obs -->
<g id="node3" class="node">
<title>obs</title>
<polygon fill="none" stroke="black" points="834,-256.99 767.75,-256.99 767.75,-220.99 834,-220.99 834,-256.99"/>
<text xml:space="preserve" text-anchor="middle" x="800.87" y="-233.94" font-family="Times,serif" font-size="14.00">obsoletes</text>
</g>
<!-- RFC3512&#45;&gt;obs -->
<g id="edge2" class="edge">
<title>RFC3512&#45;&gt;obs</title>
<path fill="none" stroke="black" d="M717.65,-219.12C731.59,-222.49 744.87,-225.7 756.53,-228.52"/>
<polygon fill="black" stroke="black" points="755.61,-231.89 766.15,-230.84 757.26,-225.09 755.61,-231.89"/>
</g>
<!-- updates -->
<g id="node4" class="node">
<title>updates</title>
<polygon fill="none" stroke="black" points="829.5,-202.99 772.25,-202.99 772.25,-166.99 829.5,-166.99 829.5,-202.99"/>
<text xml:space="preserve" text-anchor="middle" x="800.87" y="-179.94" font-family="Times,serif" font-size="14.00">updates</text>
</g>
<!-- RFC3512&#45;&gt;updates -->
<g id="edge3" class="edge">
<title>RFC3512&#45;&gt;updates</title>
<path fill="none" stroke="black" d="M743.22,-184.99C749.38,-184.99 755.24,-184.99 760.69,-184.99"/>
<polygon fill="black" stroke="black" points="760.43,-188.49 770.43,-184.99 760.43,-181.49 760.43,-188.49"/>
</g>
<!-- cites -->
<g id="node6" class="node">
<title>cites</title>
<polygon fill="none" stroke="black" points="827.87,-148.99 773.87,-148.99 773.87,-112.99 827.87,-112.99 827.87,-148.99"/>
<text xml:space="preserve" text-anchor="middle" x="800.87" y="-125.94" font-family="Times,serif" font-size="14.00">cites</text>
</g>
<!-- RFC3512&#45;&gt;cites -->
<g id="edge5" class="edge">
<title>RFC3512&#45;&gt;cites</title>
<path fill="none" stroke="black" d="M717.65,-150.87C734.18,-146.88 749.77,-143.11 762.85,-139.94"/>
<polygon fill="black" stroke="black" points="763.29,-143.44 772.18,-137.69 761.64,-136.64 763.29,-143.44"/>
</g>
<!-- obs_by -->
<g id="node2" class="node">
<title>obs_by</title>
<polygon fill="none" stroke="black" points="383.29,-256.99 317.04,-256.99 317.04,-220.99 383.29,-220.99 383.29,-256.99"/>
<text xml:space="preserve" text-anchor="middle" x="350.16" y="-233.94" font-family="Times,serif" font-size="14.00">obsoletes</text>
</g>
<!-- obs_by&#45;&gt;RFC3512 -->
<g id="edge1" class="edge">
<title>obs_by&#45;&gt;RFC3512</title>
<path fill="none" stroke="black" d="M383.64,-231.14C394.73,-228.46 407.96,-225.26 422.22,-221.81"/>
<polygon fill="black" stroke="black" points="422.93,-225.24 431.83,-219.49 421.28,-218.44 422.93,-225.24"/>
</g>
<!-- updated_by -->
<g id="node5" class="node">
<title>updated_by</title>
<polygon fill="none" stroke="black" points="378.79,-202.99 321.54,-202.99 321.54,-166.99 378.79,-166.99 378.79,-202.99"/>
<text xml:space="preserve" text-anchor="middle" x="350.16" y="-179.94" font-family="Times,serif" font-size="14.00">updates</text>
</g>
<!-- updated_by&#45;&gt;RFC3512 -->
<g id="edge4" class="edge">
<title>updated_by&#45;&gt;RFC3512</title>
<path fill="none" stroke="black" d="M379,-184.99C384.39,-184.99 390.4,-184.99 396.87,-184.99"/>
<polygon fill="black" stroke="black" points="396.65,-188.49 406.65,-184.99 396.65,-181.49 396.65,-188.49"/>
</g>
<!-- RFC2737 -->
<g id="node7" class="node">
<title>RFC2737</title>
<g id="a_node7"><a xlink:href="RFC2737.html" xlink:title="This memo defines a portion of the Management Information Base (M for use with network management protocols in the Internet communi In particular, it describes managed objects used for managing multiple logical and physical entities managed by a single SNMP agent. [STANDARDS&#45;TRACK]" target="_top">
<ellipse fill="none" stroke="black" cx="960.47" cy="-130.99" rx="101.47" ry="40.66"/>
<text xml:space="preserve" text-anchor="middle" x="960.47" y="-142.44" font-family="Times,serif" font-size="14.00">RFC2737</text>
<text xml:space="preserve" text-anchor="middle" x="960.47" y="-125.94" font-family="Times,serif" font-size="14.00">Entity MIB (Version 2)</text>
<text xml:space="preserve" text-anchor="middle" x="960.47" y="-109.44" font-family="Times,serif" font-size="14.00">1999</text>
</a>
</g>
</g>
<!-- cites&#45;&gt;RFC2737 -->
<g id="edge6" class="edge">
<title>cites&#45;&gt;RFC2737</title>
<path fill="none" stroke="black" d="M828.25,-130.99C834.06,-130.99 840.56,-130.99 847.48,-130.99"/>
<polygon fill="black" stroke="black" points="847.15,-134.49 857.15,-130.99 847.15,-127.49 847.15,-134.49"/>
</g>
<!-- rev_cites -->
<g id="node8" class="node">
<title>rev_cites</title>
<polygon fill="none" stroke="black" points="377.16,-148.99 323.16,-148.99 323.16,-112.99 377.16,-112.99 377.16,-148.99"/>
<text xml:space="preserve" text-anchor="middle" x="350.16" y="-125.94" font-family="Times,serif" font-size="14.00">cites</text>
</g>
<!-- rev_cites&#45;&gt;RFC3512 -->
<g id="edge7" class="edge">
<title>rev_cites&#45;&gt;RFC3512</title>
<path fill="none" stroke="black" d="M377.66,-137.4C389.91,-140.36 405.52,-144.14 422.58,-148.26"/>
<polygon fill="black" stroke="black" points="421.36,-151.57 431.91,-150.52 423.01,-144.76 421.36,-151.57"/>
</g>
<!-- RFC3747 -->
<g id="node9" class="node">
<title>RFC3747</title>
<g id="a_node9"><a xlink:href="RFC3747.html" xlink:title="This memo describes a MIB module that provides a conceptual layer between high&#45;level network&#45;wide policy definitions that effect configuration of the Differentiated Services (diffserv) subsystem and the instance&#45;specific information that would include such details as the parameters for all the queues associated with each interface in a system. &#160;This essentially provides an interface for configuring differentiated services at a conceptually higher layer than that of the Differentiated Services MIB. [PROPOSED STANDARD]" target="_top">
<ellipse fill="none" stroke="black" cx="146.02" cy="-197.99" rx="117.38" ry="52.33"/>
<text xml:space="preserve" text-anchor="middle" x="146.02" y="-217.69" font-family="Times,serif" font-size="14.00">RFC3747</text>
<text xml:space="preserve" text-anchor="middle" x="146.02" y="-201.19" font-family="Times,serif" font-size="14.00">The Differentiated Services</text>
<text xml:space="preserve" text-anchor="middle" x="146.02" y="-184.69" font-family="Times,serif" font-size="14.00">Configuration MIB</text>
<text xml:space="preserve" text-anchor="middle" x="146.02" y="-168.19" font-family="Times,serif" font-size="14.00">2004</text>
</a>
</g>
</g>
<!-- RFC3747&#45;&gt;rev_cites -->
<g id="edge8" class="edge">
<title>RFC3747&#45;&gt;rev_cites</title>
<path fill="none" stroke="black" d="M240.99,-166.85C266.27,-158.47 292.15,-149.89 312.26,-143.23"/>
<polygon fill="black" stroke="black" points="313.26,-146.58 321.65,-140.11 311.05,-139.94 313.26,-146.58"/>
</g>
<!-- RFC4149 -->
<g id="node10" class="node">
<title>RFC4149</title>
<g id="a_node10"><a xlink:href="RFC4149.html" xlink:title="This memo defines a portion of the Management Information Base (MIB) for use with network management protocols in the Internet community. &#160;In particular, it describes objects for configuring Synthetic Sources for Performance Monitoring (SSPM) algorithms. [STANDARDS&#45;TRACK]" target="_top">
<ellipse fill="none" stroke="black" cx="146.02" cy="-63.99" rx="146.02" ry="63.99"/>
<text xml:space="preserve" text-anchor="middle" x="146.02" y="-91.94" font-family="Times,serif" font-size="14.00">RFC4149</text>
<text xml:space="preserve" text-anchor="middle" x="146.02" y="-75.44" font-family="Times,serif" font-size="14.00">Definition of Managed Objects for</text>
<text xml:space="preserve" text-anchor="middle" x="146.02" y="-58.94" font-family="Times,serif" font-size="14.00">Synthetic Sources for Performance</text>
<text xml:space="preserve" text-anchor="middle" x="146.02" y="-42.44" font-family="Times,serif" font-size="14.00">Monitoring Algorithms</text>
<text xml:space="preserve" text-anchor="middle" x="146.02" y="-25.94" font-family="Times,serif" font-size="14.00">2005</text>
</a>
</g>
</g>
<!-- RFC4149&#45;&gt;rev_cites -->
<g id="edge9" class="edge">
<title>RFC4149&#45;&gt;rev_cites</title>
<path fill="none" stroke="black" d="M263.14,-102.48C280.78,-108.33 297.78,-113.96 311.96,-118.66"/>
<polygon fill="black" stroke="black" points="310.64,-121.91 321.23,-121.74 312.84,-115.27 310.64,-121.91"/>
</g>
</g>
</svg>
