<?xml version="1.0" encoding="UTF-8" standalone="no"?>
<!DOCTYPE svg PUBLIC "-//W3C//DTD SVG 1.1//EN"
 "http://www.w3.org/Graphics/SVG/1.1/DTD/svg11.dtd">
<!-- Generated by graphviz version 14.1.1 (20251213.1925)
 -->
<!-- Title: Flow Pages: 1 -->
<svg width="949pt" height="597pt"
 viewBox="0.00 0.00 949.00 597.00" xmlns="http://www.w3.org/2000/svg" xmlns:xlink="http://www.w3.org/1999/xlink">
<g id="graph0" class="graph" transform="scale(1 1) rotate(0) translate(4 592.65)">
<title>Flow</title>
<polygon fill="white" stroke="none" points="-4,4 -4,-592.65 945.12,-592.65 945.12,4 -4,4"/>
<!-- RFC3617 -->
<g id="node1" class="node">
<title>RFC3617</title>
<g id="a_node1"><a xlink:title="The Trivial File Transfer Protocol (TFTP) is a very simple TRIVIAL protocol that has been in use on the Internet for quite a long time. &#160;While this document discourages its continued use, largely due to security concerns, we do define a Uniform Resource Identifier (URI) scheme, as well as discuss the protocol&#39;s applicability.">
<ellipse fill="none" stroke="black" cx="669.91" cy="-318.66" rx="179.96" ry="63.99"/>
<text xml:space="preserve" text-anchor="middle" x="669.91" y="-346.61" font-family="Times,serif" font-size="14.00">RFC3617</text>
<text xml:space="preserve" text-anchor="middle" x="669.91" y="-330.11" font-family="Times,serif" font-size="14.00">Uniform Resource Identifier (URI) Scheme</text>
<text xml:space="preserve" text-anchor="middle" x="669.91" y="-313.61" font-family="Times,serif" font-size="14.00">and Applicability Statement for the</text>
<text xml:space="preserve" text-anchor="middle" x="669.91" y="-297.11" font-family="Times,serif" font-size="14.00">Trivial File Transfer Protocol (TFTP)</text>
<text xml:space="preserve" text-anchor="middle" x="669.91" y="-280.61" font-family="Times,serif" font-size="14.00">2003</text>
</a>
</g>
</g>
<!-- obs -->
<g id="node3" class="node">
<title>obs</title>
<polygon fill="none" stroke="black" points="941.12,-390.66 874.87,-390.66 874.87,-354.66 941.12,-354.66 941.12,-390.66"/>
<text xml:space="preserve" text-anchor="middle" x="908" y="-367.61" font-family="Times,serif" font-size="14.00">obsoletes</text>
</g>
<!-- RFC3617&#45;&gt;obs -->
<g id="edge2" class="edge">
<title>RFC3617&#45;&gt;obs</title>
<path fill="none" stroke="black" d="M822.1,-353.24C836.98,-356.64 851.1,-359.87 863.4,-362.69"/>
<polygon fill="black" stroke="black" points="862.59,-366.09 873.12,-364.91 864.15,-359.27 862.59,-366.09"/>
</g>
<!-- updates -->
<g id="node4" class="node">
<title>updates</title>
<polygon fill="none" stroke="black" points="936.62,-336.66 879.37,-336.66 879.37,-300.66 936.62,-300.66 936.62,-336.66"/>
<text xml:space="preserve" text-anchor="middle" x="908" y="-313.61" font-family="Times,serif" font-size="14.00">updates</text>
</g>
<!-- RFC3617&#45;&gt;updates -->
<g id="edge3" class="edge">
<title>RFC3617&#45;&gt;updates</title>
<path fill="none" stroke="black" d="M850.15,-318.66C856.37,-318.66 862.27,-318.66 867.76,-318.66"/>
<polygon fill="black" stroke="black" points="867.55,-322.16 877.54,-318.66 867.54,-315.16 867.55,-322.16"/>
</g>
<!-- cites -->
<g id="node6" class="node">
<title>cites</title>
<polygon fill="none" stroke="black" points="935,-282.66 881,-282.66 881,-246.66 935,-246.66 935,-282.66"/>
<text xml:space="preserve" text-anchor="middle" x="908" y="-259.61" font-family="Times,serif" font-size="14.00">cites</text>
</g>
<!-- RFC3617&#45;&gt;cites -->
<g id="edge5" class="edge">
<title>RFC3617&#45;&gt;cites</title>
<path fill="none" stroke="black" d="M822.1,-284.08C839.69,-280.05 856.22,-276.27 869.93,-273.14"/>
<polygon fill="black" stroke="black" points="870.31,-276.64 879.27,-271 868.74,-269.82 870.31,-276.64"/>
</g>
<!-- obs_by -->
<g id="node2" class="node">
<title>obs_by</title>
<polygon fill="none" stroke="black" points="464.96,-390.66 398.71,-390.66 398.71,-354.66 464.96,-354.66 464.96,-390.66"/>
<text xml:space="preserve" text-anchor="middle" x="431.83" y="-367.61" font-family="Times,serif" font-size="14.00">obsoletes</text>
</g>
<!-- obs_by&#45;&gt;RFC3617 -->
<g id="edge1" class="edge">
<title>obs_by&#45;&gt;RFC3617</title>
<path fill="none" stroke="black" d="M465.16,-365.26C477.01,-362.55 491.36,-359.27 506.9,-355.72"/>
<polygon fill="black" stroke="black" points="507.39,-359.2 516.36,-353.55 505.83,-352.37 507.39,-359.2"/>
</g>
<!-- updated_by -->
<g id="node5" class="node">
<title>updated_by</title>
<polygon fill="none" stroke="black" points="460.46,-336.66 403.21,-336.66 403.21,-300.66 460.46,-300.66 460.46,-336.66"/>
<text xml:space="preserve" text-anchor="middle" x="431.83" y="-313.61" font-family="Times,serif" font-size="14.00">updates</text>
</g>
<!-- updated_by&#45;&gt;RFC3617 -->
<g id="edge4" class="edge">
<title>updated_by&#45;&gt;RFC3617</title>
<path fill="none" stroke="black" d="M460.84,-318.66C466.16,-318.66 472.08,-318.66 478.46,-318.66"/>
<polygon fill="black" stroke="black" points="478.1,-322.16 488.1,-318.66 478.1,-315.16 478.1,-322.16"/>
</g>
<!-- rev_cites -->
<g id="node7" class="node">
<title>rev_cites</title>
<polygon fill="none" stroke="black" points="458.83,-282.66 404.83,-282.66 404.83,-246.66 458.83,-246.66 458.83,-282.66"/>
<text xml:space="preserve" text-anchor="middle" x="431.83" y="-259.61" font-family="Times,serif" font-size="14.00">cites</text>
</g>
<!-- rev_cites&#45;&gt;RFC3617 -->
<g id="edge6" class="edge">
<title>rev_cites&#45;&gt;RFC3617</title>
<path fill="none" stroke="black" d="M459,-270.64C471.78,-273.57 488.33,-277.35 506.53,-281.52"/>
<polygon fill="black" stroke="black" points="505.72,-284.92 516.25,-283.74 507.29,-278.1 505.72,-284.92"/>
</g>
<!-- RFC4088 -->
<g id="node8" class="node">
<title>RFC4088</title>
<g id="a_node8"><a xlink:href="RFC4088.html" xlink:title="The Simple Network Management Protocol (SNMP) and the Internet Standard Management Framework are widely used for the management of communication devices, creating a need to specify SNMP access (including access to SNMP MIB object instances) from non&#45;SNMP management environments. For example, when out&#45;of&#45;band IP management is used via a separate management interface (e.g., for a device that does not support in&#45;band IP access), a uniform way to indicate how to contact the device for management is needed. Uniform Resource Identifiers (URIs) fit this need well, as they allow a single text string to indicate a management access communication endpoint for a wide variety of IP&#45;based protocols. This document defines a URI scheme so that SNMP can be designated as the protocol used for management. The scheme also allows a URI to designate one or more MIB object instances. [STANDARDS&#45;TRACK]" target="_top">
<ellipse fill="none" stroke="black" cx="186.85" cy="-524.66" rx="179.96" ry="63.99"/>
<text xml:space="preserve" text-anchor="middle" x="186.85" y="-552.61" font-family="Times,serif" font-size="14.00">RFC4088</text>
<text xml:space="preserve" text-anchor="middle" x="186.85" y="-536.11" font-family="Times,serif" font-size="14.00">Uniform Resource Identifier (URI) Scheme</text>
<text xml:space="preserve" text-anchor="middle" x="186.85" y="-519.61" font-family="Times,serif" font-size="14.00">for the Simple Network Management</text>
<text xml:space="preserve" text-anchor="middle" x="186.85" y="-503.11" font-family="Times,serif" font-size="14.00">Protocol (SNMP)</text>
<text xml:space="preserve" text-anchor="middle" x="186.85" y="-486.61" font-family="Times,serif" font-size="14.00">2005</text>
</a>
</g>
</g>
<!-- RFC4088&#45;&gt;rev_cites -->
<g id="edge7" class="edge">
<title>RFC4088&#45;&gt;rev_cites</title>
<path fill="none" stroke="black" d="M331.88,-486.53C347.79,-477.3 362.32,-465.86 373.71,-451.66 416.61,-398.13 368.33,-358.24 399.83,-292.96"/>
<polygon fill="black" stroke="black" points="402.73,-294.94 404.36,-284.47 396.56,-291.64 402.73,-294.94"/>
</g>
<!-- RFC4639 -->
<g id="node9" class="node">
<title>RFC4639</title>
<g id="a_node9"><a xlink:href="RFC4639.html" xlink:title="This memo defines a portion of the Management Information Base (MIB) for use with network management protocols in the Internet community. In particular, it defines a basic set of managed objects for Simple Network Management Protocol (SNMP)&#45;based management of Data Over Cable Service Interface Specification (DOCSIS)&#45;compliant Cable Modems and Cable Modem Termination Systems. This memo obsoletes RFC 2669. [STANDARDS&#45;TRACK]" target="_top">
<ellipse fill="none" stroke="black" cx="186.85" cy="-355.66" rx="186.85" ry="87.33"/>
<text xml:space="preserve" text-anchor="middle" x="186.85" y="-400.11" font-family="Times,serif" font-size="14.00">RFC4639</text>
<text xml:space="preserve" text-anchor="middle" x="186.85" y="-383.61" font-family="Times,serif" font-size="14.00">Cable Device Management Information Base</text>
<text xml:space="preserve" text-anchor="middle" x="186.85" y="-367.11" font-family="Times,serif" font-size="14.00">for Data&#45;Over&#45;Cable Service Interface</text>
<text xml:space="preserve" text-anchor="middle" x="186.85" y="-350.61" font-family="Times,serif" font-size="14.00">Specification (DOCSIS) Compliant Cable</text>
<text xml:space="preserve" text-anchor="middle" x="186.85" y="-334.11" font-family="Times,serif" font-size="14.00">Modems and Cable Modem Termination</text>
<text xml:space="preserve" text-anchor="middle" x="186.85" y="-317.61" font-family="Times,serif" font-size="14.00">Systems</text>
<text xml:space="preserve" text-anchor="middle" x="186.85" y="-301.11" font-family="Times,serif" font-size="14.00">2006</text>
</a>
</g>
</g>
<!-- RFC4639&#45;&gt;rev_cites -->
<g id="edge8" class="edge">
<title>RFC4639&#45;&gt;rev_cites</title>
<path fill="none" stroke="black" d="M333.4,-301.15C355.79,-292.76 377.04,-284.81 393.95,-278.47"/>
<polygon fill="black" stroke="black" points="394.84,-281.87 402.98,-275.09 392.39,-275.32 394.84,-281.87"/>
</g>
<!-- RFC4682 -->
<g id="node10" class="node">
<title>RFC4682</title>
<g id="a_node10"><a xlink:href="RFC4682.html" xlink:title="This memo defines a portion of the Management Information Base (MIB) for use with network management protocols in the Internet community. &#160;In particular, it defines a basic set of managed objects for Simple Network Management Protocol (SNMP)&#45;based management of PacketCable&#45; and IPCablecom&#45;compliant Multimedia Terminal Adapter devices. [STANDARDS&#45;TRACK]" target="_top">
<ellipse fill="none" stroke="black" cx="186.85" cy="-174.66" rx="173.06" ry="75.66"/>
<text xml:space="preserve" text-anchor="middle" x="186.85" y="-210.86" font-family="Times,serif" font-size="14.00">RFC4682</text>
<text xml:space="preserve" text-anchor="middle" x="186.85" y="-194.36" font-family="Times,serif" font-size="14.00">Multimedia Terminal Adapter (MTA)</text>
<text xml:space="preserve" text-anchor="middle" x="186.85" y="-177.86" font-family="Times,serif" font-size="14.00">Management Information Base for</text>
<text xml:space="preserve" text-anchor="middle" x="186.85" y="-161.36" font-family="Times,serif" font-size="14.00">PacketCable&#45; and IPCablecom&#45;Compliant</text>
<text xml:space="preserve" text-anchor="middle" x="186.85" y="-144.86" font-family="Times,serif" font-size="14.00">Devices</text>
<text xml:space="preserve" text-anchor="middle" x="186.85" y="-128.36" font-family="Times,serif" font-size="14.00">2006</text>
</a>
</g>
</g>
<!-- RFC4682&#45;&gt;rev_cites -->
<g id="edge9" class="edge">
<title>RFC4682&#45;&gt;rev_cites</title>
<path fill="none" stroke="black" d="M319.65,-223.48C346.95,-233.59 373.55,-243.44 393.88,-250.97"/>
<polygon fill="black" stroke="black" points="392.49,-254.19 403.08,-254.38 394.92,-247.62 392.49,-254.19"/>
</g>
<!-- RFC5970 -->
<g id="node11" class="node">
<title>RFC5970</title>
<g id="a_node11"><a xlink:href="RFC5970.html" xlink:title="The Dynamic Host Configuration Protocol for IPv6 (DHCPv6) provides a framework for passing configuration information to nodes on a network. &#160;This document describes new options for DHCPv6 that SHOULD be used for booting a node from the network. [STANDARDS&#45;TRACK]" target="_top">
<ellipse fill="none" stroke="black" cx="186.85" cy="-40.66" rx="150.26" ry="40.66"/>
<text xml:space="preserve" text-anchor="middle" x="186.85" y="-52.11" font-family="Times,serif" font-size="14.00">RFC5970</text>
<text xml:space="preserve" text-anchor="middle" x="186.85" y="-35.61" font-family="Times,serif" font-size="14.00">DHCPv6 Options for Network Boot</text>
<text xml:space="preserve" text-anchor="middle" x="186.85" y="-19.11" font-family="Times,serif" font-size="14.00">2010</text>
</a>
</g>
</g>
<!-- RFC5970&#45;&gt;rev_cites -->
<g id="edge10" class="edge">
<title>RFC5970&#45;&gt;rev_cites</title>
<path fill="none" stroke="black" d="M322.26,-58.68C341.2,-65.92 359.15,-75.92 373.71,-89.66 414.48,-128.14 426.2,-196.07 429.53,-235.01"/>
<polygon fill="black" stroke="black" points="426.03,-235.09 430.23,-244.82 433.01,-234.59 426.03,-235.09"/>
</g>
</g>
</svg>
