<?xml version="1.0" encoding="UTF-8" standalone="no"?>
<!DOCTYPE svg PUBLIC "-//W3C//DTD SVG 1.1//EN"
 "http://www.w3.org/Graphics/SVG/1.1/DTD/svg11.dtd">
<!-- Generated by graphviz version 14.1.1 (20251213.1925)
 -->
<!-- Title: Flow Pages: 1 -->
<svg width="1312pt" height="1237pt"
 viewBox="0.00 0.00 1312.00 1237.00" xmlns="http://www.w3.org/2000/svg" xmlns:xlink="http://www.w3.org/1999/xlink">
<g id="graph0" class="graph" transform="scale(1 1) rotate(0) translate(4 1233.37)">
<title>Flow</title>
<polygon fill="white" stroke="none" points="-4,4 -4,-1233.37 1308.32,-1233.37 1308.32,4 -4,4"/>
<!-- RFC3335 -->
<g id="node1" class="node">
<title>RFC3335</title>
<g id="a_node1"><a xlink:title="None">
<ellipse fill="green" stroke="black" stroke-width="3" cx="425.42" cy="-828.91" rx="232.99" ry="65.05"/>
<text xml:space="preserve" text-anchor="middle" x="425.42" y="-853.81" font-family="Times,serif" font-size="18.00">RFC3335</text>
<text xml:space="preserve" text-anchor="middle" x="425.42" y="-832.81" font-family="Times,serif" font-size="18.00">MIME&#45;based Secure Peer&#45;to&#45;Peer Business</text>
<text xml:space="preserve" text-anchor="middle" x="425.42" y="-811.81" font-family="Times,serif" font-size="18.00">Data Interchange over the Internet</text>
<text xml:space="preserve" text-anchor="middle" x="425.42" y="-790.81" font-family="Times,serif" font-size="18.00">2002</text>
</a>
</g>
</g>
<!-- obs -->
<g id="node3" class="node">
<title>obs</title>
<polygon fill="lightblue" stroke="black" points="811.99,-1017.12 745.74,-1017.12 745.74,-981.12 811.99,-981.12 811.99,-1017.12"/>
<text xml:space="preserve" text-anchor="middle" x="778.87" y="-994.07" font-family="Times,serif" font-size="14.00">obsoletes</text>
</g>
<!-- RFC3335&#45;&gt;obs -->
<g id="edge2" class="edge">
<title>RFC3335&#45;&gt;obs</title>
<path fill="none" stroke="black" d="M544.1,-886.06C609.91,-917.76 687.81,-955.27 735.26,-978.12"/>
<polygon fill="black" stroke="black" points="733.59,-981.21 744.12,-982.39 736.63,-974.9 733.59,-981.21"/>
</g>
<!-- updates -->
<g id="node4" class="node">
<title>updates</title>
<polygon fill="lightyellow" stroke="black" points="541.34,-1229.37 484.09,-1229.37 484.09,-1193.37 541.34,-1193.37 541.34,-1229.37"/>
<text xml:space="preserve" text-anchor="middle" x="512.71" y="-1206.32" font-family="Times,serif" font-size="14.00">updates</text>
</g>
<!-- RFC3335&#45;&gt;updates -->
<g id="edge3" class="edge">
<title>RFC3335&#45;&gt;updates</title>
<path fill="none" stroke="black" d="M440.53,-895.09C459.74,-979.28 492.1,-1121.03 506.02,-1182.02"/>
<polygon fill="black" stroke="black" points="502.57,-1182.66 508.21,-1191.63 509.39,-1181.1 502.57,-1182.66"/>
</g>
<!-- cites -->
<g id="node6" class="node">
<title>cites</title>
<polygon fill="lightblue" stroke="black" points="207.83,-1153.62 153.83,-1153.62 153.83,-1117.62 207.83,-1117.62 207.83,-1153.62"/>
<text xml:space="preserve" text-anchor="middle" x="180.83" y="-1130.57" font-family="Times,serif" font-size="14.00">cites</text>
</g>
<!-- RFC3335&#45;&gt;cites -->
<g id="edge5" class="edge">
<title>RFC3335&#45;&gt;cites</title>
<path fill="none" stroke="black" d="M373.85,-893.58C320.76,-960.15 240.59,-1060.68 202.46,-1108.5"/>
<polygon fill="black" stroke="black" points="199.85,-1106.15 196.36,-1116.15 205.33,-1110.51 199.85,-1106.15"/>
</g>
<!-- obs_by -->
<g id="node2" class="node">
<title>obs_by</title>
<polygon fill="lightblue" stroke="black" points="66.25,-846.91 0,-846.91 0,-810.91 66.25,-810.91 66.25,-846.91"/>
<text xml:space="preserve" text-anchor="middle" x="33.13" y="-823.86" font-family="Times,serif" font-size="14.00">obsoletes</text>
</g>
<!-- obs_by&#45;&gt;RFC3335 -->
<g id="edge1" class="edge">
<title>obs_by&#45;&gt;RFC3335</title>
<path fill="none" stroke="black" d="M66.57,-828.91C93.82,-828.91 135.01,-828.91 179.89,-828.91"/>
<polygon fill="black" stroke="black" points="179.86,-832.41 189.86,-828.91 179.86,-825.41 179.86,-832.41"/>
</g>
<!-- updated_by -->
<g id="node5" class="node">
<title>updated_by</title>
<polygon fill="lightyellow" stroke="black" points="209.45,-540.2 152.2,-540.2 152.2,-504.2 209.45,-504.2 209.45,-540.2"/>
<text xml:space="preserve" text-anchor="middle" x="180.83" y="-517.15" font-family="Times,serif" font-size="14.00">updates</text>
</g>
<!-- updated_by&#45;&gt;RFC3335 -->
<g id="edge4" class="edge">
<title>updated_by&#45;&gt;RFC3335</title>
<path fill="none" stroke="black" d="M195.4,-540.47C228.34,-581.78 310.09,-684.29 366.68,-755.26"/>
<polygon fill="black" stroke="black" points="363.89,-757.36 372.86,-763 369.36,-753 363.89,-757.36"/>
</g>
<!-- rev_cites -->
<g id="node7" class="node">
<title>rev_cites</title>
<polygon fill="lightblue" stroke="black" points="697.01,-540.2 643.01,-540.2 643.01,-504.2 697.01,-504.2 697.01,-540.2"/>
<text xml:space="preserve" text-anchor="middle" x="670.01" y="-517.15" font-family="Times,serif" font-size="14.00">cites</text>
</g>
<!-- rev_cites&#45;&gt;RFC3335 -->
<g id="edge6" class="edge">
<title>rev_cites&#45;&gt;RFC3335</title>
<path fill="none" stroke="black" d="M655.44,-540.47C622.5,-581.78 540.75,-684.29 484.16,-755.26"/>
<polygon fill="black" stroke="black" points="481.48,-753 477.98,-763 486.95,-757.36 481.48,-753"/>
</g>
<!-- RFC6017 -->
<g id="node8" class="node">
<title>RFC6017</title>
<g id="a_node8"><a xlink:href="RFC6017.html" xlink:title="With the maturity of the Electronic Data Interchange &#45; Internet Integration (EDIINT) standards of AS1, AS2, and AS3, applications and additional features are being built upon the basic secure transport functionality. &#160;These features are not necessarily supported by all EDIINT applications and could cause potential problems with implementations. &#160;The EDIINT&#45;Features header field provides a means to resolve these problems and support new functionality. &#160;This document is not an Internet Standards Track specification; it is published for informational purposes." target="_top">
<ellipse fill="none" stroke="black" cx="600.01" cy="-63.99" rx="159.28" ry="63.99"/>
<text xml:space="preserve" text-anchor="middle" x="600.01" y="-91.94" font-family="Times,serif" font-size="14.00">RFC6017</text>
<text xml:space="preserve" text-anchor="middle" x="600.01" y="-75.44" font-family="Times,serif" font-size="14.00">Electronic Data Interchange &#45; Internet</text>
<text xml:space="preserve" text-anchor="middle" x="600.01" y="-58.94" font-family="Times,serif" font-size="14.00">Integration (EDIINT) Features Header</text>
<text xml:space="preserve" text-anchor="middle" x="600.01" y="-42.44" font-family="Times,serif" font-size="14.00">Field</text>
<text xml:space="preserve" text-anchor="middle" x="600.01" y="-25.94" font-family="Times,serif" font-size="14.00">2010</text>
</a>
</g>
</g>
<!-- RFC6017&#45;&gt;rev_cites -->
<g id="edge7" class="edge">
<title>RFC6017&#45;&gt;rev_cites</title>
<path fill="none" stroke="black" d="M609.82,-128.19C625.18,-228.75 654.32,-419.47 665.49,-492.62"/>
<polygon fill="black" stroke="black" points="661.99,-492.86 666.96,-502.21 668.91,-491.8 661.99,-492.86"/>
</g>
<!-- RFC6362 -->
<g id="node9" class="node">
<title>RFC6362</title>
<g id="a_node9"><a xlink:href="RFC6362.html" xlink:title="The Electronic Data Interchange &#45; Internet Integration (EDIINT) AS1, AS2, and AS3 messages were designed specifically for the transport of EDI documents. &#160;Since multiple interchanges could be placed within a single EDI document, there was not a need for sending multiple EDI documents in a single message. &#160;As adoption of EDIINT grew, other uses developed aside from single EDI document transport. &#160;Some transactions required multiple attachments to be interpreted together and stored in a single message. &#160;This Informational RFC describes how multiple documents, including non&#45;EDI payloads, can be attached and transmitted in a single EDIINT transport message. &#160;The attachments are stored within the MIME multipart/related structure. &#160;A minimal list of content&#45;types to be supported as attachments is provided. &#160;This document is not an Internet Standards Track specification; it is published for informational purposes." target="_top">
<ellipse fill="none" stroke="black" cx="1132.31" cy="-488.49" rx="172" ry="63.99"/>
<text xml:space="preserve" text-anchor="middle" x="1132.31" y="-516.44" font-family="Times,serif" font-size="14.00">RFC6362</text>
<text xml:space="preserve" text-anchor="middle" x="1132.31" y="-499.94" font-family="Times,serif" font-size="14.00">Multiple Attachments for Electronic Data</text>
<text xml:space="preserve" text-anchor="middle" x="1132.31" y="-483.44" font-family="Times,serif" font-size="14.00">Interchange &#45; Internet Integration</text>
<text xml:space="preserve" text-anchor="middle" x="1132.31" y="-466.94" font-family="Times,serif" font-size="14.00">(EDIINT)</text>
<text xml:space="preserve" text-anchor="middle" x="1132.31" y="-450.44" font-family="Times,serif" font-size="14.00">2011</text>
</a>
</g>
</g>
<!-- RFC6362&#45;&gt;rev_cites -->
<g id="edge8" class="edge">
<title>RFC6362&#45;&gt;rev_cites</title>
<path fill="none" stroke="black" d="M963.12,-500.83C870.89,-507.55 764.44,-515.32 708.68,-519.38"/>
<polygon fill="black" stroke="black" points="708.48,-515.89 698.76,-520.11 708.99,-522.87 708.48,-515.89"/>
</g>
</g>
</svg>
