<?xml version="1.0" encoding="UTF-8" standalone="no"?>
<!DOCTYPE svg PUBLIC "-//W3C//DTD SVG 1.1//EN"
 "http://www.w3.org/Graphics/SVG/1.1/DTD/svg11.dtd">
<!-- Generated by graphviz version 14.1.1 (20251213.1925)
 -->
<!-- Title: Flow Pages: 1 -->
<svg width="1207pt" height="335pt"
 viewBox="0.00 0.00 1207.00 335.00" xmlns="http://www.w3.org/2000/svg" xmlns:xlink="http://www.w3.org/1999/xlink">
<g id="graph0" class="graph" transform="scale(1 1) rotate(0) translate(4 330.98)">
<title>Flow</title>
<polygon fill="white" stroke="none" points="-4,4 -4,-330.98 1202.76,-330.98 1202.76,4 -4,4"/>
<!-- RFC3236 -->
<g id="node1" class="node">
<title>RFC3236</title>
<g id="a_node1"><a xlink:title="This document defines the &#39;application/xhtml+xml&#39; MIME media type for XHTML based markup languages; it is not intended to obsolete any previous IETF documents, in particular RFC 2854 which registers &#39;text/html&#39;. &#160;This memo provides information for the Internet community.">
<ellipse fill="green" stroke="black" cx="605.21" cy="-205.66" rx="170.41" ry="40.66"/>
<text xml:space="preserve" text-anchor="middle" x="605.21" y="-217.11" font-family="Times,serif" font-size="14.00">RFC3236</text>
<text xml:space="preserve" text-anchor="middle" x="605.21" y="-200.61" font-family="Times,serif" font-size="14.00">The &#39;application/xhtml+xml&#39; Media Type</text>
<text xml:space="preserve" text-anchor="middle" x="605.21" y="-184.11" font-family="Times,serif" font-size="14.00">2002</text>
</a>
</g>
</g>
<!-- obs -->
<g id="node3" class="node">
<title>obs</title>
<polygon fill="lightblue" stroke="black" points="866.88,-277.66 800.63,-277.66 800.63,-241.66 866.88,-241.66 866.88,-277.66"/>
<text xml:space="preserve" text-anchor="middle" x="833.75" y="-254.61" font-family="Times,serif" font-size="14.00">obsoletes</text>
</g>
<!-- RFC3236&#45;&gt;obs -->
<g id="edge2" class="edge">
<title>RFC3236&#45;&gt;obs</title>
<path fill="none" stroke="black" d="M727.11,-234.48C749.36,-239.78 771.21,-244.99 789.21,-249.28"/>
<polygon fill="black" stroke="black" points="788.16,-252.63 798.7,-251.54 789.79,-245.82 788.16,-252.63"/>
</g>
<!-- updates -->
<g id="node4" class="node">
<title>updates</title>
<polygon fill="lightyellow" stroke="black" points="862.38,-223.66 805.13,-223.66 805.13,-187.66 862.38,-187.66 862.38,-223.66"/>
<text xml:space="preserve" text-anchor="middle" x="833.75" y="-200.61" font-family="Times,serif" font-size="14.00">updates</text>
</g>
<!-- RFC3236&#45;&gt;updates -->
<g id="edge3" class="edge">
<title>RFC3236&#45;&gt;updates</title>
<path fill="none" stroke="black" d="M775.88,-205.66C782.07,-205.66 787.96,-205.66 793.43,-205.66"/>
<polygon fill="black" stroke="black" points="793.22,-209.16 803.22,-205.66 793.22,-202.16 793.22,-209.16"/>
</g>
<!-- cites -->
<g id="node6" class="node">
<title>cites</title>
<polygon fill="lightblue" stroke="black" points="860.75,-169.66 806.75,-169.66 806.75,-133.66 860.75,-133.66 860.75,-169.66"/>
<text xml:space="preserve" text-anchor="middle" x="833.75" y="-146.61" font-family="Times,serif" font-size="14.00">cites</text>
</g>
<!-- RFC3236&#45;&gt;cites -->
<g id="edge5" class="edge">
<title>RFC3236&#45;&gt;cites</title>
<path fill="none" stroke="black" d="M727.11,-176.84C751.91,-170.93 776.21,-165.14 795.25,-160.6"/>
<polygon fill="black" stroke="black" points="795.99,-164.02 804.9,-158.3 794.36,-157.21 795.99,-164.02"/>
</g>
<!-- obs_by -->
<g id="node2" class="node">
<title>obs_by</title>
<polygon fill="lightblue" stroke="black" points="409.8,-277.66 343.55,-277.66 343.55,-241.66 409.8,-241.66 409.8,-277.66"/>
<text xml:space="preserve" text-anchor="middle" x="376.68" y="-254.61" font-family="Times,serif" font-size="14.00">obsoletes</text>
</g>
<!-- obs_by&#45;&gt;RFC3236 -->
<g id="edge1" class="edge">
<title>obs_by&#45;&gt;RFC3236</title>
<path fill="none" stroke="black" d="M410.13,-251.92C427.14,-247.87 449.21,-242.61 472.35,-237.09"/>
<polygon fill="black" stroke="black" points="473.02,-240.53 481.94,-234.81 471.4,-233.72 473.02,-240.53"/>
</g>
<!-- updated_by -->
<g id="node5" class="node">
<title>updated_by</title>
<polygon fill="lightyellow" stroke="black" points="405.3,-223.66 348.05,-223.66 348.05,-187.66 405.3,-187.66 405.3,-223.66"/>
<text xml:space="preserve" text-anchor="middle" x="376.68" y="-200.61" font-family="Times,serif" font-size="14.00">updates</text>
</g>
<!-- updated_by&#45;&gt;RFC3236 -->
<g id="edge4" class="edge">
<title>updated_by&#45;&gt;RFC3236</title>
<path fill="none" stroke="black" d="M405.45,-205.66C410.83,-205.66 416.82,-205.66 423.27,-205.66"/>
<polygon fill="black" stroke="black" points="423.02,-209.16 433.02,-205.66 423.02,-202.16 423.02,-209.16"/>
</g>
<!-- RFC2396 -->
<g id="node7" class="node">
<title>RFC2396</title>
<g id="a_node7"><a xlink:href="RFC2396.html" xlink:title="This document defines a grammar that is a superset of all valid URI, such that an implementation can parse the common components of a URI reference without knowing the scheme&#45;specific requirements of every possible identifier type. [STANDARDS&#45;TRACK]" target="_top">
<ellipse fill="none" stroke="black" cx="1045.32" cy="-274.66" rx="152.91" ry="52.33"/>
<text xml:space="preserve" text-anchor="middle" x="1045.32" y="-294.36" font-family="Times,serif" font-size="14.00">RFC2396</text>
<text xml:space="preserve" text-anchor="middle" x="1045.32" y="-277.86" font-family="Times,serif" font-size="14.00">Uniform Resource Identifiers (URI):</text>
<text xml:space="preserve" text-anchor="middle" x="1045.32" y="-261.36" font-family="Times,serif" font-size="14.00">Generic Syntax</text>
<text xml:space="preserve" text-anchor="middle" x="1045.32" y="-244.86" font-family="Times,serif" font-size="14.00">1998</text>
</a>
</g>
</g>
<!-- cites&#45;&gt;RFC2396 -->
<g id="edge6" class="edge">
<title>cites&#45;&gt;RFC2396</title>
<path fill="none" stroke="black" d="M857.83,-169.9C860.98,-172.72 864.09,-175.68 866.88,-178.66 879.7,-192.34 877.08,-201.14 891.88,-212.66 901.73,-220.33 912.66,-227.19 924.01,-233.29"/>
<polygon fill="black" stroke="black" points="922.24,-236.31 932.74,-237.76 925.44,-230.08 922.24,-236.31"/>
</g>
<!-- RFC2732 -->
<g id="node8" class="node">
<title>RFC2732</title>
<g id="a_node8"><a xlink:href="RFC2732.html" xlink:title="This document defines the format for literal IPv6 Addresses in URL&#39;s for implementation in World Wide Web browsers. [STANDARDS&#45;TRACK]" target="_top">
<ellipse fill="none" stroke="black" cx="1045.32" cy="-151.66" rx="153.44" ry="52.33"/>
<text xml:space="preserve" text-anchor="middle" x="1045.32" y="-171.36" font-family="Times,serif" font-size="14.00">RFC2732</text>
<text xml:space="preserve" text-anchor="middle" x="1045.32" y="-154.86" font-family="Times,serif" font-size="14.00">Format for Literal IPv6 Addresses in</text>
<text xml:space="preserve" text-anchor="middle" x="1045.32" y="-138.36" font-family="Times,serif" font-size="14.00">URL&#39;s</text>
<text xml:space="preserve" text-anchor="middle" x="1045.32" y="-121.86" font-family="Times,serif" font-size="14.00">1999</text>
</a>
</g>
</g>
<!-- cites&#45;&gt;RFC2732 -->
<g id="edge7" class="edge">
<title>cites&#45;&gt;RFC2732</title>
<path fill="none" stroke="black" d="M860.87,-151.66C866.63,-151.66 873.14,-151.66 880.18,-151.66"/>
<polygon fill="black" stroke="black" points="880.14,-155.16 890.14,-151.66 880.14,-148.16 880.14,-155.16"/>
</g>
<!-- RFC2854 -->
<g id="node9" class="node">
<title>RFC2854</title>
<g id="a_node9"><a xlink:href="RFC2854.html" xlink:title="This document summarizes the history of HTML development, and defines the text/html MIME type by pointing to the relevant W3C recommendations. &#160;This memo provides information for the Internet community." target="_top">
<ellipse fill="none" stroke="black" cx="1045.32" cy="-40.66" rx="116.32" ry="40.66"/>
<text xml:space="preserve" text-anchor="middle" x="1045.32" y="-52.11" font-family="Times,serif" font-size="14.00">RFC2854</text>
<text xml:space="preserve" text-anchor="middle" x="1045.32" y="-35.61" font-family="Times,serif" font-size="14.00">The &#39;text/html&#39; Media Type</text>
<text xml:space="preserve" text-anchor="middle" x="1045.32" y="-19.11" font-family="Times,serif" font-size="14.00">2000</text>
</a>
</g>
</g>
<!-- cites&#45;&gt;RFC2854 -->
<g id="edge8" class="edge">
<title>cites&#45;&gt;RFC2854</title>
<path fill="none" stroke="black" d="M847.87,-133.3C858.39,-119.79 874.26,-101.89 891.88,-90.66 906.13,-81.57 922.2,-73.98 938.42,-67.69"/>
<polygon fill="black" stroke="black" points="939.5,-71.02 947.66,-64.27 937.07,-64.46 939.5,-71.02"/>
</g>
<!-- rev_cites -->
<g id="node10" class="node">
<title>rev_cites</title>
<polygon fill="lightblue" stroke="black" points="403.68,-169.66 349.68,-169.66 349.68,-133.66 403.68,-133.66 403.68,-169.66"/>
<text xml:space="preserve" text-anchor="middle" x="376.68" y="-146.61" font-family="Times,serif" font-size="14.00">cites</text>
</g>
<!-- rev_cites&#45;&gt;RFC3236 -->
<g id="edge9" class="edge">
<title>rev_cites&#45;&gt;RFC3236</title>
<path fill="none" stroke="black" d="M404.11,-157.96C421.72,-162.16 446.34,-168.03 472.31,-174.22"/>
<polygon fill="black" stroke="black" points="471.49,-177.62 482.03,-176.53 473.11,-170.81 471.49,-177.62"/>
</g>
<!-- RFC4329 -->
<g id="node11" class="node">
<title>RFC4329</title>
<g id="a_node11"><a xlink:href="RFC4329.html" xlink:title="This document describes the registration of media types for the ECMAScript and JavaScript programming languages and conformance requirements for implementations of these types. &#160;This memo provides information for the Internet community." target="_top">
<ellipse fill="none" stroke="black" cx="159.28" cy="-201.66" rx="99.35" ry="40.66"/>
<text xml:space="preserve" text-anchor="middle" x="159.28" y="-213.11" font-family="Times,serif" font-size="14.00">RFC4329</text>
<text xml:space="preserve" text-anchor="middle" x="159.28" y="-196.61" font-family="Times,serif" font-size="14.00">Scripting Media Types</text>
<text xml:space="preserve" text-anchor="middle" x="159.28" y="-180.11" font-family="Times,serif" font-size="14.00">2006</text>
</a>
</g>
</g>
<!-- RFC4329&#45;&gt;rev_cites -->
<g id="edge10" class="edge">
<title>RFC4329&#45;&gt;rev_cites</title>
<path fill="none" stroke="black" d="M246.34,-181.68C278.45,-174.23 313.24,-166.15 338.64,-160.26"/>
<polygon fill="black" stroke="black" points="339.18,-163.72 348.13,-158.05 337.6,-156.9 339.18,-163.72"/>
</g>
<!-- RFC9239 -->
<g id="node12" class="node">
<title>RFC9239</title>
<g id="a_node12"><a xlink:href="RFC9239.html" xlink:title="This document describes the registration of media types for the ECMAScript and JavaScript programming languages and conformance requirements for implementations of these types. &#160;This document obsoletes RFC 4329 (Scripting Media Types), replacing the previous registrations with information and requirements aligned with common usage and implementation experiences." target="_top">
<ellipse fill="none" stroke="black" cx="159.28" cy="-102.66" rx="159.28" ry="40.66"/>
<text xml:space="preserve" text-anchor="middle" x="159.28" y="-114.11" font-family="Times,serif" font-size="14.00">RFC9239</text>
<text xml:space="preserve" text-anchor="middle" x="159.28" y="-97.61" font-family="Times,serif" font-size="14.00">Updates to ECMAScript Media Types</text>
<text xml:space="preserve" text-anchor="middle" x="159.28" y="-81.11" font-family="Times,serif" font-size="14.00">2022</text>
</a>
</g>
</g>
<!-- RFC9239&#45;&gt;rev_cites -->
<g id="edge11" class="edge">
<title>RFC9239&#45;&gt;rev_cites</title>
<path fill="none" stroke="black" d="M279.32,-129.74C300.82,-134.63 321.71,-139.38 338.52,-143.21"/>
<polygon fill="black" stroke="black" points="337.45,-146.55 347.98,-145.36 339,-139.73 337.45,-146.55"/>
</g>
</g>
</svg>
