<?xml version="1.0" encoding="UTF-8" standalone="no"?>
<!DOCTYPE svg PUBLIC "-//W3C//DTD SVG 1.1//EN"
 "http://www.w3.org/Graphics/SVG/1.1/DTD/svg11.dtd">
<!-- Generated by graphviz version 14.1.1 (20251213.1925)
 -->
<!-- Title: Flow Pages: 1 -->
<svg width="1246pt" height="1107pt"
 viewBox="0.00 0.00 1246.00 1107.00" xmlns="http://www.w3.org/2000/svg" xmlns:xlink="http://www.w3.org/1999/xlink">
<g id="graph0" class="graph" transform="scale(1 1) rotate(0) translate(4 1102.89)">
<title>Flow</title>
<polygon fill="white" stroke="none" points="-4,4 -4,-1102.89 1241.91,-1102.89 1241.91,4 -4,4"/>
<!-- RFC3906 -->
<g id="node1" class="node">
<title>RFC3906</title>
<g id="a_node1"><a xlink:title="This document describes how conventional hop&#45;by&#45;hop link&#45;state routing protocols interact with new Traffic Engineering capabilities to create Interior Gateway Protocol (IGP) shortcuts. &#160;In particular, this document describes how Dijkstra&#39;s Shortest Path First (SPF) algorithm can be adapted so that link&#45;state IGPs will calculate IP routes to forward traffic over tunnels that are set up by Traffic Engineering. &#160;This memo provides information for the Internet community.">
<ellipse fill="green" stroke="black" stroke-width="3" cx="449.67" cy="-738.04" rx="212.31" ry="79.9"/>
<text xml:space="preserve" text-anchor="middle" x="449.67" y="-773.44" font-family="Times,serif" font-size="18.00">RFC3906</text>
<text xml:space="preserve" text-anchor="middle" x="449.67" y="-752.44" font-family="Times,serif" font-size="18.00">Calculating Interior Gateway Protocol</text>
<text xml:space="preserve" text-anchor="middle" x="449.67" y="-731.44" font-family="Times,serif" font-size="18.00">(IGP) Routes Over Traffic Engineering</text>
<text xml:space="preserve" text-anchor="middle" x="449.67" y="-710.44" font-family="Times,serif" font-size="18.00">Tunnels</text>
<text xml:space="preserve" text-anchor="middle" x="449.67" y="-689.44" font-family="Times,serif" font-size="18.00">2004</text>
</a>
</g>
</g>
<!-- obs -->
<g id="node3" class="node">
<title>obs</title>
<polygon fill="lightblue" stroke="black" points="825.65,-898.05 759.4,-898.05 759.4,-862.05 825.65,-862.05 825.65,-898.05"/>
<text xml:space="preserve" text-anchor="middle" x="792.53" y="-875" font-family="Times,serif" font-size="14.00">obsoletes</text>
</g>
<!-- RFC3906&#45;&gt;obs -->
<g id="edge2" class="edge">
<title>RFC3906&#45;&gt;obs</title>
<path fill="none" stroke="black" d="M594.08,-797.85C649.78,-820.93 709.39,-845.62 748.58,-861.85"/>
<polygon fill="black" stroke="black" points="747.09,-865.02 757.67,-865.62 749.77,-858.55 747.09,-865.02"/>
</g>
<!-- updates -->
<g id="node4" class="node">
<title>updates</title>
<polygon fill="lightyellow" stroke="black" points="620.31,-1098.89 563.06,-1098.89 563.06,-1062.89 620.31,-1062.89 620.31,-1098.89"/>
<text xml:space="preserve" text-anchor="middle" x="591.69" y="-1075.84" font-family="Times,serif" font-size="14.00">updates</text>
</g>
<!-- RFC3906&#45;&gt;updates -->
<g id="edge3" class="edge">
<title>RFC3906&#45;&gt;updates</title>
<path fill="none" stroke="black" d="M482.97,-818.42C513.99,-893.31 558.54,-1000.86 579.68,-1051.9"/>
<polygon fill="black" stroke="black" points="576.42,-1053.17 583.48,-1061.07 582.88,-1050.49 576.42,-1053.17"/>
</g>
<!-- cites -->
<g id="node6" class="node">
<title>cites</title>
<polygon fill="lightblue" stroke="black" points="334.66,-1098.89 280.66,-1098.89 280.66,-1062.89 334.66,-1062.89 334.66,-1098.89"/>
<text xml:space="preserve" text-anchor="middle" x="307.66" y="-1075.84" font-family="Times,serif" font-size="14.00">cites</text>
</g>
<!-- RFC3906&#45;&gt;cites -->
<g id="edge5" class="edge">
<title>RFC3906&#45;&gt;cites</title>
<path fill="none" stroke="black" d="M416.37,-818.42C385.35,-893.31 340.81,-1000.86 319.67,-1051.9"/>
<polygon fill="black" stroke="black" points="316.46,-1050.49 315.87,-1061.07 322.93,-1053.17 316.46,-1050.49"/>
</g>
<!-- obs_by -->
<g id="node2" class="node">
<title>obs_by</title>
<polygon fill="lightblue" stroke="black" points="139.94,-898.05 73.69,-898.05 73.69,-862.05 139.94,-862.05 139.94,-898.05"/>
<text xml:space="preserve" text-anchor="middle" x="106.81" y="-875" font-family="Times,serif" font-size="14.00">obsoletes</text>
</g>
<!-- obs_by&#45;&gt;RFC3906 -->
<g id="edge1" class="edge">
<title>obs_by&#45;&gt;RFC3906</title>
<path fill="none" stroke="black" d="M140.31,-866.18C176.56,-851.17 236.94,-826.15 294.79,-802.19"/>
<polygon fill="black" stroke="black" points="295.88,-805.53 303.78,-798.47 293.2,-799.06 295.88,-805.53"/>
</g>
<!-- updated_by -->
<g id="node5" class="node">
<title>updated_by</title>
<polygon fill="lightyellow" stroke="black" points="135.44,-614.02 78.19,-614.02 78.19,-578.02 135.44,-578.02 135.44,-614.02"/>
<text xml:space="preserve" text-anchor="middle" x="106.81" y="-590.97" font-family="Times,serif" font-size="14.00">updates</text>
</g>
<!-- updated_by&#45;&gt;RFC3906 -->
<g id="edge4" class="edge">
<title>updated_by&#45;&gt;RFC3906</title>
<path fill="none" stroke="black" d="M135.75,-608.01C171.31,-622.74 234.37,-648.86 294.69,-673.84"/>
<polygon fill="black" stroke="black" points="293.15,-676.99 303.73,-677.59 295.83,-670.53 293.15,-676.99"/>
</g>
<!-- rev_cites -->
<g id="node7" class="node">
<title>rev_cites</title>
<polygon fill="lightblue" stroke="black" points="618.69,-413.18 564.69,-413.18 564.69,-377.18 618.69,-377.18 618.69,-413.18"/>
<text xml:space="preserve" text-anchor="middle" x="591.69" y="-390.13" font-family="Times,serif" font-size="14.00">cites</text>
</g>
<!-- rev_cites&#45;&gt;RFC3906 -->
<g id="edge6" class="edge">
<title>rev_cites&#45;&gt;RFC3906</title>
<path fill="none" stroke="black" d="M584.05,-413.62C566.13,-456.88 520.39,-567.3 487.25,-647.33"/>
<polygon fill="black" stroke="black" points="484.03,-645.93 483.44,-656.51 490.5,-648.61 484.03,-645.93"/>
</g>
<!-- RFC8333 -->
<g id="node8" class="node">
<title>RFC8333</title>
<g id="a_node8"><a xlink:href="RFC8333.html" xlink:title="This document describes a mechanism for link&#45;state routing protocols that prevents local transient forwarding loops in case of link failure. This mechanism proposes a two&#45;step convergence by introducing a delay between the convergence of the node adjacent to the topology change and the network&#45;wide convergence. Because this mechanism delays the IGP convergence, it may only be used for planned maintenance or when Fast Reroute (FRR) protects the traffic during the time between the link failure and the IGP convergence. The mechanism is limited to the link&#45;down event in order to keep the mechanism simple. Simulations using real network topologies have been performed and show that local loops are a significant portion (&gt;50%) of the total forwarding loops." target="_top">
<ellipse fill="none" stroke="black" cx="165.64" cy="-52.33" rx="165.64" ry="52.33"/>
<text xml:space="preserve" text-anchor="middle" x="165.64" y="-72.03" font-family="Times,serif" font-size="14.00">RFC8333</text>
<text xml:space="preserve" text-anchor="middle" x="165.64" y="-55.53" font-family="Times,serif" font-size="14.00">Micro&#45;loop Prevention by Introducing a</text>
<text xml:space="preserve" text-anchor="middle" x="165.64" y="-39.03" font-family="Times,serif" font-size="14.00">Local Convergence Delay</text>
<text xml:space="preserve" text-anchor="middle" x="165.64" y="-22.53" font-family="Times,serif" font-size="14.00">2018</text>
</a>
</g>
</g>
<!-- RFC8333&#45;&gt;rev_cites -->
<g id="edge7" class="edge">
<title>RFC8333&#45;&gt;rev_cites</title>
<path fill="none" stroke="black" d="M226.68,-101.45C318.73,-175.52 489.76,-313.16 560.16,-369.81"/>
<polygon fill="black" stroke="black" points="557.86,-372.45 567.84,-375.99 562.25,-367 557.86,-372.45"/>
</g>
<!-- RFC8687 -->
<g id="node9" class="node">
<title>RFC8687</title>
<g id="a_node9"><a xlink:href="RFC8687.html" xlink:title="When using Traffic Engineering (TE) in a dual&#45;stack IPv4/IPv6 network, the Multiprotocol Label Switching (MPLS) TE Label Switched Path (LSP) infrastructure may be duplicated, even if the destination IPv4 and IPv6 addresses belong to the same remote router. In order to achieve an integrated MPLS TE LSP infrastructure, OSPF routes must be computed over MPLS TE tunnels created using information propagated in another OSPF instance. This issue is solved by advertising cross&#45;address family (X&#45;AF) OSPF TE information. This document describes an update to RFC 5786 that allows for the easy identification of a router&#39;s local X&#45;AF IP addresses." target="_top">
<ellipse fill="none" stroke="black" cx="733.7" cy="-52.33" rx="176.25" ry="52.33"/>
<text xml:space="preserve" text-anchor="middle" x="733.7" y="-72.03" font-family="Times,serif" font-size="14.00">RFC8687</text>
<text xml:space="preserve" text-anchor="middle" x="733.7" y="-55.53" font-family="Times,serif" font-size="14.00">OSPF Routing with Cross&#45;Address Family</text>
<text xml:space="preserve" text-anchor="middle" x="733.7" y="-39.03" font-family="Times,serif" font-size="14.00">Traffic Engineering Tunnels</text>
<text xml:space="preserve" text-anchor="middle" x="733.7" y="-22.53" font-family="Times,serif" font-size="14.00">2019</text>
</a>
</g>
</g>
<!-- RFC8687&#45;&gt;rev_cites -->
<g id="edge8" class="edge">
<title>RFC8687&#45;&gt;rev_cites</title>
<path fill="none" stroke="black" d="M712.13,-104.4C681.8,-177.63 627.57,-308.56 603.62,-366.38"/>
<polygon fill="black" stroke="black" points="600.42,-364.96 599.83,-375.53 606.89,-367.63 600.42,-364.96"/>
</g>
<!-- RFC9350 -->
<g id="node10" class="node">
<title>RFC9350</title>
<g id="a_node10"><a xlink:href="RFC9350.html" xlink:title="IGP protocols historically compute the best paths over the network based on the IGP metric assigned to the links. &#160;Many network deployments use RSVP&#45;TE or Segment Routing &#45; Traffic Engineering (SR&#45;TE) to steer traffic over a path that is computed using different metrics or constraints than the shortest IGP path. &#160;This document specifies a solution that allows IGPs themselves to compute constraint&#45;based paths over the network. &#160;This document also specifies a way of using Segment Routing (SR) Prefix&#45;SIDs and SRv6 locators to steer packets along the constraint&#45;based paths." target="_top">
<ellipse fill="none" stroke="black" cx="1135.38" cy="-454.01" rx="102.53" ry="40.66"/>
<text xml:space="preserve" text-anchor="middle" x="1135.38" y="-465.46" font-family="Times,serif" font-size="14.00">RFC9350</text>
<text xml:space="preserve" text-anchor="middle" x="1135.38" y="-448.96" font-family="Times,serif" font-size="14.00">IGP Flexible Algorithm</text>
<text xml:space="preserve" text-anchor="middle" x="1135.38" y="-432.46" font-family="Times,serif" font-size="14.00">2023</text>
</a>
</g>
</g>
<!-- RFC9350&#45;&gt;rev_cites -->
<g id="edge9" class="edge">
<title>RFC9350&#45;&gt;rev_cites</title>
<path fill="none" stroke="black" d="M1035.98,-443.25C914.21,-430.08 713.82,-408.4 630.21,-399.35"/>
<polygon fill="black" stroke="black" points="630.8,-395.89 620.48,-398.3 630.04,-402.85 630.8,-395.89"/>
</g>
</g>
</svg>
