<?xml version="1.0" encoding="UTF-8" standalone="no"?>
<!DOCTYPE svg PUBLIC "-//W3C//DTD SVG 1.1//EN"
 "http://www.w3.org/Graphics/SVG/1.1/DTD/svg11.dtd">
<!-- Generated by graphviz version 14.1.1 (20251213.1925)
 -->
<!-- Title: Flow Pages: 1 -->
<svg width="1232pt" height="865pt"
 viewBox="0.00 0.00 1232.00 865.00" xmlns="http://www.w3.org/2000/svg" xmlns:xlink="http://www.w3.org/1999/xlink">
<g id="graph0" class="graph" transform="scale(1 1) rotate(0) translate(4 860.86)">
<title>Flow</title>
<polygon fill="white" stroke="none" points="-4,4 -4,-860.86 1228.43,-860.86 1228.43,4 -4,4"/>
<!-- RFC3213 -->
<g id="node1" class="node">
<title>RFC3213</title>
<g id="a_node1"><a xlink:title="This document discusses the applicability of Constraint&#45;Based LSP Setup using LDP. &#160;It discusses possible network applications, extensions to Label Distribution Protocol (LDP) required to implement constraint&#45;based routing, guidelines for deployment and known limitations of the protocol. &#160;This document is a prerequisite to advancing CR&#45;LDP on the standards track. &#160;This memo provides information for the Internet community.">
<ellipse fill="green" stroke="black" stroke-width="3" cx="368.65" cy="-451.42" rx="201.17" ry="50.2"/>
<text xml:space="preserve" text-anchor="middle" x="368.65" y="-465.82" font-family="Times,serif" font-size="18.00">RFC3213</text>
<text xml:space="preserve" text-anchor="middle" x="368.65" y="-444.82" font-family="Times,serif" font-size="18.00">Applicability Statement for CR&#45;LDP</text>
<text xml:space="preserve" text-anchor="middle" x="368.65" y="-423.82" font-family="Times,serif" font-size="18.00">2002</text>
</a>
</g>
</g>
<!-- obs -->
<g id="node3" class="node">
<title>obs</title>
<polygon fill="lightblue" stroke="black" points="737.3,-663.14 671.05,-663.14 671.05,-627.14 737.3,-627.14 737.3,-663.14"/>
<text xml:space="preserve" text-anchor="middle" x="704.18" y="-640.09" font-family="Times,serif" font-size="14.00">obsoletes</text>
</g>
<!-- RFC3213&#45;&gt;obs -->
<g id="edge2" class="edge">
<title>RFC3213&#45;&gt;obs</title>
<path fill="none" stroke="black" d="M450.3,-498.57C517.36,-537.28 609.61,-590.54 662.46,-621.05"/>
<polygon fill="black" stroke="black" points="660.45,-623.93 670.86,-625.9 663.95,-617.87 660.45,-623.93"/>
</g>
<!-- updates -->
<g id="node4" class="node">
<title>updates</title>
<polygon fill="lightyellow" stroke="black" points="397.28,-856.86 340.03,-856.86 340.03,-820.86 397.28,-820.86 397.28,-856.86"/>
<text xml:space="preserve" text-anchor="middle" x="368.65" y="-833.81" font-family="Times,serif" font-size="14.00">updates</text>
</g>
<!-- RFC3213&#45;&gt;updates -->
<g id="edge3" class="edge">
<title>RFC3213&#45;&gt;updates</title>
<path fill="none" stroke="black" d="M368.65,-502.87C368.65,-585.06 368.65,-743.38 368.65,-809.12"/>
<polygon fill="black" stroke="black" points="365.15,-809.11 368.65,-819.11 372.15,-809.11 365.15,-809.11"/>
</g>
<!-- cites -->
<g id="node6" class="node">
<title>cites</title>
<polygon fill="lightblue" stroke="black" points="60.13,-663.14 6.13,-663.14 6.13,-627.14 60.13,-627.14 60.13,-663.14"/>
<text xml:space="preserve" text-anchor="middle" x="33.13" y="-640.09" font-family="Times,serif" font-size="14.00">cites</text>
</g>
<!-- RFC3213&#45;&gt;cites -->
<g id="edge5" class="edge">
<title>RFC3213&#45;&gt;cites</title>
<path fill="none" stroke="black" d="M287,-498.57C217.9,-538.46 122.05,-593.8 70.13,-623.78"/>
<polygon fill="black" stroke="black" points="68.57,-620.63 61.66,-628.67 72.07,-626.7 68.57,-620.63"/>
</g>
<!-- obs_by -->
<g id="node2" class="node">
<title>obs_by</title>
<polygon fill="lightblue" stroke="black" points="66.25,-275.71 0,-275.71 0,-239.71 66.25,-239.71 66.25,-275.71"/>
<text xml:space="preserve" text-anchor="middle" x="33.13" y="-252.66" font-family="Times,serif" font-size="14.00">obsoletes</text>
</g>
<!-- obs_by&#45;&gt;RFC3213 -->
<g id="edge1" class="edge">
<title>obs_by&#45;&gt;RFC3213</title>
<path fill="none" stroke="black" d="M64.99,-276.11C113.19,-303.93 206.48,-357.79 277,-398.51"/>
<polygon fill="black" stroke="black" points="275.07,-401.44 285.48,-403.4 278.57,-395.37 275.07,-401.44"/>
</g>
<!-- updated_by -->
<g id="node5" class="node">
<title>updated_by</title>
<polygon fill="lightyellow" stroke="black" points="397.28,-81.99 340.03,-81.99 340.03,-45.99 397.28,-45.99 397.28,-81.99"/>
<text xml:space="preserve" text-anchor="middle" x="368.65" y="-58.94" font-family="Times,serif" font-size="14.00">updates</text>
</g>
<!-- updated_by&#45;&gt;RFC3213 -->
<g id="edge4" class="edge">
<title>updated_by&#45;&gt;RFC3213</title>
<path fill="none" stroke="black" d="M368.65,-82.42C368.65,-136.73 368.65,-298.04 368.65,-388.36"/>
<polygon fill="black" stroke="black" points="365.15,-388.3 368.65,-398.3 372.15,-388.3 365.15,-388.3"/>
</g>
<!-- rev_cites -->
<g id="node7" class="node">
<title>rev_cites</title>
<polygon fill="lightblue" stroke="black" points="731.18,-275.71 677.18,-275.71 677.18,-239.71 731.18,-239.71 731.18,-275.71"/>
<text xml:space="preserve" text-anchor="middle" x="704.18" y="-252.66" font-family="Times,serif" font-size="14.00">cites</text>
</g>
<!-- rev_cites&#45;&gt;RFC3213 -->
<g id="edge6" class="edge">
<title>rev_cites&#45;&gt;RFC3213</title>
<path fill="none" stroke="black" d="M676.72,-273.56C629.91,-300.59 532.67,-356.73 459.89,-398.75"/>
<polygon fill="black" stroke="black" points="458.46,-395.53 451.55,-403.56 461.96,-401.59 458.46,-395.53"/>
</g>
<!-- RFC3468 -->
<g id="node8" class="node">
<title>RFC3468</title>
<g id="a_node8"><a xlink:href="RFC3468.html" xlink:title="This document documents the consensus reached by the Multiprotocol Label Switching (MPLS) Working Group within the IETF to focus its efforts on Resource Reservation Protocol (RSVP)&#45;TE: Extensions to RSVP for Label&#45; Switched Paths (LSP) Tunnels (RFC 3209) as the MPLS signalling protocol for traffic engineering applications and to undertake no new efforts relating to Constraint&#45;Based LSP Setup using Label Distribution Protocol (LDP) (RFC 3212). &#160;The recommendations of section 6 have been accepted by the IESG. &#160;This memo provides information for the Internet community." target="_top">
<ellipse fill="none" stroke="black" cx="1039.7" cy="-63.99" rx="184.73" ry="63.99"/>
<text xml:space="preserve" text-anchor="middle" x="1039.7" y="-91.94" font-family="Times,serif" font-size="14.00">RFC3468</text>
<text xml:space="preserve" text-anchor="middle" x="1039.7" y="-75.44" font-family="Times,serif" font-size="14.00">The Multiprotocol Label Switching (MPLS)</text>
<text xml:space="preserve" text-anchor="middle" x="1039.7" y="-58.94" font-family="Times,serif" font-size="14.00">Working Group decision on MPLS signaling</text>
<text xml:space="preserve" text-anchor="middle" x="1039.7" y="-42.44" font-family="Times,serif" font-size="14.00">protocols</text>
<text xml:space="preserve" text-anchor="middle" x="1039.7" y="-25.94" font-family="Times,serif" font-size="14.00">2003</text>
</a>
</g>
</g>
<!-- RFC3468&#45;&gt;rev_cites -->
<g id="edge7" class="edge">
<title>RFC3468&#45;&gt;rev_cites</title>
<path fill="none" stroke="black" d="M944.45,-118.99C876.8,-158.04 789.68,-208.35 741.1,-236.39"/>
<polygon fill="black" stroke="black" points="739.56,-233.24 732.65,-241.27 743.06,-239.3 739.56,-233.24"/>
</g>
</g>
</svg>
