<?xml version="1.0" encoding="UTF-8" standalone="no"?>
<!DOCTYPE svg PUBLIC "-//W3C//DTD SVG 1.1//EN"
 "http://www.w3.org/Graphics/SVG/1.1/DTD/svg11.dtd">
<!-- Generated by graphviz version 14.1.1 (20251213.1925)
 -->
<!-- Title: Flow Pages: 1 -->
<svg width="531pt" height="159pt"
 viewBox="0.00 0.00 531.00 159.00" xmlns="http://www.w3.org/2000/svg" xmlns:xlink="http://www.w3.org/1999/xlink">
<g id="graph0" class="graph" transform="scale(1 1) rotate(0) translate(4 155.32)">
<title>Flow</title>
<polygon fill="white" stroke="none" points="-4,4 -4,-155.32 527.33,-155.32 527.33,4 -4,4"/>
<!-- RFC3033 -->
<g id="node1" class="node">
<title>RFC3033</title>
<g id="a_node1"><a xlink:title="The purpose of this document is to specify the assignment of the information field and protocol identifier in the Q.2941 Generic Identifier and Q.2957 User&#45;to&#45;user Signaling for the Internet protocol. [STANDARDS&#45;TRACK]">
<ellipse fill="green" stroke="black" cx="261.66" cy="-75.66" rx="170.41" ry="75.66"/>
<text xml:space="preserve" text-anchor="middle" x="261.66" y="-111.86" font-family="Times,serif" font-size="14.00">RFC3033</text>
<text xml:space="preserve" text-anchor="middle" x="261.66" y="-95.36" font-family="Times,serif" font-size="14.00">The Assignment of the Information Field</text>
<text xml:space="preserve" text-anchor="middle" x="261.66" y="-78.86" font-family="Times,serif" font-size="14.00">and Protocol Identifier in the Q.2941</text>
<text xml:space="preserve" text-anchor="middle" x="261.66" y="-62.36" font-family="Times,serif" font-size="14.00">Generic Identifier and Q.2957 User&#45;to&#45;</text>
<text xml:space="preserve" text-anchor="middle" x="261.66" y="-45.86" font-family="Times,serif" font-size="14.00">user Signaling for the Internet Protocol</text>
<text xml:space="preserve" text-anchor="middle" x="261.66" y="-29.36" font-family="Times,serif" font-size="14.00">2001</text>
</a>
</g>
</g>
<!-- obs -->
<g id="node3" class="node">
<title>obs</title>
<polygon fill="lightblue" stroke="black" points="523.33,-147.66 457.08,-147.66 457.08,-111.66 523.33,-111.66 523.33,-147.66"/>
<text xml:space="preserve" text-anchor="middle" x="490.2" y="-124.61" font-family="Times,serif" font-size="14.00">obsoletes</text>
</g>
<!-- RFC3033&#45;&gt;obs -->
<g id="edge2" class="edge">
<title>RFC3033&#45;&gt;obs</title>
<path fill="none" stroke="black" d="M412.51,-111.38C424.46,-114.23 435.81,-116.93 445.93,-119.35"/>
<polygon fill="black" stroke="black" points="444.79,-122.67 455.33,-121.59 446.42,-115.86 444.79,-122.67"/>
</g>
<!-- updates -->
<g id="node4" class="node">
<title>updates</title>
<polygon fill="lightyellow" stroke="black" points="518.83,-93.66 461.58,-93.66 461.58,-57.66 518.83,-57.66 518.83,-93.66"/>
<text xml:space="preserve" text-anchor="middle" x="490.2" y="-70.61" font-family="Times,serif" font-size="14.00">updates</text>
</g>
<!-- RFC3033&#45;&gt;updates -->
<g id="edge3" class="edge">
<title>RFC3033&#45;&gt;updates</title>
<path fill="none" stroke="black" d="M432.33,-75.66C438.52,-75.66 444.4,-75.66 449.88,-75.66"/>
<polygon fill="black" stroke="black" points="449.66,-79.16 459.66,-75.66 449.66,-72.16 449.66,-79.16"/>
</g>
<!-- cites -->
<g id="node6" class="node">
<title>cites</title>
<polygon fill="lightblue" stroke="black" points="517.2,-39.66 463.2,-39.66 463.2,-3.66 517.2,-3.66 517.2,-39.66"/>
<text xml:space="preserve" text-anchor="middle" x="490.2" y="-16.61" font-family="Times,serif" font-size="14.00">cites</text>
</g>
<!-- RFC3033&#45;&gt;cites -->
<g id="edge5" class="edge">
<title>RFC3033&#45;&gt;cites</title>
<path fill="none" stroke="black" d="M412.51,-39.94C426.95,-36.5 440.5,-33.27 452.07,-30.51"/>
<polygon fill="black" stroke="black" points="452.56,-33.99 461.48,-28.27 450.94,-27.18 452.56,-33.99"/>
</g>
<!-- obs_by -->
<g id="node2" class="node">
<title>obs_by</title>
<polygon fill="lightblue" stroke="black" points="66.25,-147.66 0,-147.66 0,-111.66 66.25,-111.66 66.25,-147.66"/>
<text xml:space="preserve" text-anchor="middle" x="33.12" y="-124.61" font-family="Times,serif" font-size="14.00">obsoletes</text>
</g>
<!-- obs_by&#45;&gt;RFC3033 -->
<g id="edge1" class="edge">
<title>obs_by&#45;&gt;RFC3033</title>
<path fill="none" stroke="black" d="M66.58,-121.92C76.33,-119.6 87.74,-116.88 100.06,-113.94"/>
<polygon fill="black" stroke="black" points="100.72,-117.38 109.64,-111.66 99.1,-110.57 100.72,-117.38"/>
</g>
<!-- updated_by -->
<g id="node5" class="node">
<title>updated_by</title>
<polygon fill="lightyellow" stroke="black" points="61.75,-93.66 4.5,-93.66 4.5,-57.66 61.75,-57.66 61.75,-93.66"/>
<text xml:space="preserve" text-anchor="middle" x="33.12" y="-70.61" font-family="Times,serif" font-size="14.00">updates</text>
</g>
<!-- updated_by&#45;&gt;RFC3033 -->
<g id="edge4" class="edge">
<title>updated_by&#45;&gt;RFC3033</title>
<path fill="none" stroke="black" d="M61.9,-75.66C67.28,-75.66 73.26,-75.66 79.71,-75.66"/>
<polygon fill="black" stroke="black" points="79.47,-79.16 89.47,-75.66 79.47,-72.16 79.47,-79.16"/>
</g>
<!-- rev_cites -->
<g id="node7" class="node">
<title>rev_cites</title>
<polygon fill="lightblue" stroke="black" points="60.12,-39.66 6.12,-39.66 6.12,-3.66 60.12,-3.66 60.12,-39.66"/>
<text xml:space="preserve" text-anchor="middle" x="33.12" y="-16.61" font-family="Times,serif" font-size="14.00">cites</text>
</g>
<!-- rev_cites&#45;&gt;RFC3033 -->
<g id="edge6" class="edge">
<title>rev_cites&#45;&gt;RFC3033</title>
<path fill="none" stroke="black" d="M60.56,-27.96C71.45,-30.56 85.02,-33.79 99.94,-37.35"/>
<polygon fill="black" stroke="black" points="99,-40.72 109.54,-39.64 100.62,-33.91 99,-40.72"/>
</g>
</g>
</svg>
