<?xml version="1.0" encoding="UTF-8" standalone="no"?>
<!DOCTYPE svg PUBLIC "-//W3C//DTD SVG 1.1//EN"
 "http://www.w3.org/Graphics/SVG/1.1/DTD/svg11.dtd">
<!-- Generated by graphviz version 14.1.1 (20251213.1925)
 -->
<!-- Title: Flow Pages: 1 -->
<svg width="981pt" height="750pt"
 viewBox="0.00 0.00 981.00 750.00" xmlns="http://www.w3.org/2000/svg" xmlns:xlink="http://www.w3.org/1999/xlink">
<g id="graph0" class="graph" transform="scale(1 1) rotate(0) translate(4 745.65)">
<title>Flow</title>
<polygon fill="white" stroke="none" points="-4,4 -4,-745.65 976.94,-745.65 976.94,4 -4,4"/>
<!-- RFC3874 -->
<g id="node1" class="node">
<title>RFC3874</title>
<g id="a_node1"><a xlink:title="This document specifies a 224&#45;bit one&#45;way hash function, called SHA&#45;224. &#160;SHA&#45;224 is based on SHA&#45;256, but it uses a different initial value and the result is truncated to 224 bits. &#160;This memo provides information for the Internet community.">
<ellipse fill="none" stroke="black" cx="695.37" cy="-419.33" rx="186.32" ry="40.66"/>
<text xml:space="preserve" text-anchor="middle" x="695.37" y="-430.78" font-family="Times,serif" font-size="14.00">RFC3874</text>
<text xml:space="preserve" text-anchor="middle" x="695.37" y="-414.28" font-family="Times,serif" font-size="14.00">A 224&#45;bit One&#45;way Hash Function: SHA&#45;224</text>
<text xml:space="preserve" text-anchor="middle" x="695.37" y="-397.78" font-family="Times,serif" font-size="14.00">2004</text>
</a>
</g>
</g>
<!-- obs -->
<g id="node3" class="node">
<title>obs</title>
<polygon fill="none" stroke="black" points="972.94,-491.33 906.69,-491.33 906.69,-455.33 972.94,-455.33 972.94,-491.33"/>
<text xml:space="preserve" text-anchor="middle" x="939.82" y="-468.28" font-family="Times,serif" font-size="14.00">obsoletes</text>
</g>
<!-- RFC3874&#45;&gt;obs -->
<g id="edge2" class="edge">
<title>RFC3874&#45;&gt;obs</title>
<path fill="none" stroke="black" d="M827.17,-448.46C851.74,-453.93 875.77,-459.28 895.21,-463.61"/>
<polygon fill="black" stroke="black" points="894.39,-467.02 904.91,-465.77 895.91,-460.18 894.39,-467.02"/>
</g>
<!-- updates -->
<g id="node4" class="node">
<title>updates</title>
<polygon fill="none" stroke="black" points="968.44,-437.33 911.19,-437.33 911.19,-401.33 968.44,-401.33 968.44,-437.33"/>
<text xml:space="preserve" text-anchor="middle" x="939.82" y="-414.28" font-family="Times,serif" font-size="14.00">updates</text>
</g>
<!-- RFC3874&#45;&gt;updates -->
<g id="edge3" class="edge">
<title>RFC3874&#45;&gt;updates</title>
<path fill="none" stroke="black" d="M881.97,-419.33C888.21,-419.33 894.13,-419.33 899.62,-419.33"/>
<polygon fill="black" stroke="black" points="899.41,-422.83 909.41,-419.33 899.41,-415.83 899.41,-422.83"/>
</g>
<!-- cites -->
<g id="node6" class="node">
<title>cites</title>
<polygon fill="none" stroke="black" points="966.82,-383.33 912.82,-383.33 912.82,-347.33 966.82,-347.33 966.82,-383.33"/>
<text xml:space="preserve" text-anchor="middle" x="939.82" y="-360.28" font-family="Times,serif" font-size="14.00">cites</text>
</g>
<!-- RFC3874&#45;&gt;cites -->
<g id="edge5" class="edge">
<title>RFC3874&#45;&gt;cites</title>
<path fill="none" stroke="black" d="M827.17,-390.19C854.28,-384.15 880.75,-378.26 901.11,-373.73"/>
<polygon fill="black" stroke="black" points="901.87,-377.14 910.87,-371.55 900.34,-370.31 901.87,-377.14"/>
</g>
<!-- obs_by -->
<g id="node2" class="node">
<title>obs_by</title>
<polygon fill="none" stroke="black" points="484.05,-491.33 417.8,-491.33 417.8,-455.33 484.05,-455.33 484.05,-491.33"/>
<text xml:space="preserve" text-anchor="middle" x="450.92" y="-468.28" font-family="Times,serif" font-size="14.00">obsoletes</text>
</g>
<!-- obs_by&#45;&gt;RFC3874 -->
<g id="edge1" class="edge">
<title>obs_by&#45;&gt;RFC3874</title>
<path fill="none" stroke="black" d="M484.37,-466.1C502.72,-462.01 527.07,-456.59 552.68,-450.89"/>
<polygon fill="black" stroke="black" points="553.24,-454.35 562.24,-448.76 551.71,-447.51 553.24,-454.35"/>
</g>
<!-- updated_by -->
<g id="node5" class="node">
<title>updated_by</title>
<polygon fill="none" stroke="black" points="479.55,-437.33 422.3,-437.33 422.3,-401.33 479.55,-401.33 479.55,-437.33"/>
<text xml:space="preserve" text-anchor="middle" x="450.92" y="-414.28" font-family="Times,serif" font-size="14.00">updates</text>
</g>
<!-- updated_by&#45;&gt;RFC3874 -->
<g id="edge4" class="edge">
<title>updated_by&#45;&gt;RFC3874</title>
<path fill="none" stroke="black" d="M479.73,-419.33C485.07,-419.33 491.03,-419.33 497.45,-419.33"/>
<polygon fill="black" stroke="black" points="497.17,-422.83 507.17,-419.33 497.17,-415.83 497.17,-422.83"/>
</g>
<!-- rev_cites -->
<g id="node7" class="node">
<title>rev_cites</title>
<polygon fill="none" stroke="black" points="477.92,-383.33 423.92,-383.33 423.92,-347.33 477.92,-347.33 477.92,-383.33"/>
<text xml:space="preserve" text-anchor="middle" x="450.92" y="-360.28" font-family="Times,serif" font-size="14.00">cites</text>
</g>
<!-- rev_cites&#45;&gt;RFC3874 -->
<g id="edge6" class="edge">
<title>rev_cites&#45;&gt;RFC3874</title>
<path fill="none" stroke="black" d="M478.33,-371.21C497.16,-375.4 524.1,-381.4 552.6,-387.75"/>
<polygon fill="black" stroke="black" points="551.58,-391.11 562.1,-389.87 553.1,-384.28 551.58,-391.11"/>
</g>
<!-- RFC4051 -->
<g id="node8" class="node">
<title>RFC4051</title>
<g id="a_node8"><a xlink:href="RFC4051.html" xlink:title="A number of Uniform Resource Identifiers (URIs) intended for use with XML Digital Signatures, Encryption, and Canonicalization are defined. &#160;These URIs identify algorithms and types of keying information. [STANDARDS&#45;TRACK]" target="_top">
<ellipse fill="none" stroke="black" cx="196.4" cy="-689.33" rx="184.73" ry="52.33"/>
<text xml:space="preserve" text-anchor="middle" x="196.4" y="-709.03" font-family="Times,serif" font-size="14.00">RFC4051</text>
<text xml:space="preserve" text-anchor="middle" x="196.4" y="-692.53" font-family="Times,serif" font-size="14.00">Additional XML Security Uniform Resource</text>
<text xml:space="preserve" text-anchor="middle" x="196.4" y="-676.03" font-family="Times,serif" font-size="14.00">Identifiers (URIs)</text>
<text xml:space="preserve" text-anchor="middle" x="196.4" y="-659.53" font-family="Times,serif" font-size="14.00">2005</text>
</a>
</g>
</g>
<!-- RFC4051&#45;&gt;rev_cites -->
<g id="edge7" class="edge">
<title>RFC4051&#45;&gt;rev_cites</title>
<path fill="none" stroke="black" d="M351.01,-660.52C366.94,-652.09 381.43,-641.25 392.8,-627.33 424.13,-588.95 396.64,-455.11 419.36,-393.92"/>
<polygon fill="black" stroke="black" points="422.42,-395.65 423.39,-385.1 416.05,-392.74 422.42,-395.65"/>
</g>
<!-- RFC4634 -->
<g id="node9" class="node">
<title>RFC4634</title>
<g id="a_node9"><a xlink:href="RFC4634.html" xlink:title="The United States of America has adopted a suite of Secure Hash Algorithms (SHAs), including four beyond SHA&#45;1, as part of a Federal Information Processing Standard (FIPS), specifically SHA&#45;224 (RFC 3874), SHA&#45;256, SHA&#45;384, and SHA&#45;512. The purpose of this document is to make source code performing these hash functions conveniently available to the Internet community. The sample code supports input strings of arbitrary bit length. SHA&#45;1&#39;s sample code from RFC 3174 has also been updated to handle input strings of arbitrary bit length. Most of the text herein was adapted by the authors from FIPS 180&#45;2. Code to perform SHA&#45;based HMACs, with arbitrary bit length text, is also included. This memo provides information for the Internet community." target="_top">
<ellipse fill="none" stroke="black" cx="196.4" cy="-566.33" rx="196.4" ry="52.33"/>
<text xml:space="preserve" text-anchor="middle" x="196.4" y="-586.03" font-family="Times,serif" font-size="14.00">RFC4634</text>
<text xml:space="preserve" text-anchor="middle" x="196.4" y="-569.53" font-family="Times,serif" font-size="14.00">US Secure Hash Algorithms (SHA and HMAC&#45;</text>
<text xml:space="preserve" text-anchor="middle" x="196.4" y="-553.03" font-family="Times,serif" font-size="14.00">SHA)</text>
<text xml:space="preserve" text-anchor="middle" x="196.4" y="-536.53" font-family="Times,serif" font-size="14.00">2006</text>
</a>
</g>
</g>
<!-- RFC4634&#45;&gt;rev_cites -->
<g id="edge8" class="edge">
<title>RFC4634&#45;&gt;rev_cites</title>
<path fill="none" stroke="black" d="M353.81,-534.83C368.35,-527.05 381.74,-517.37 392.8,-505.33 425.35,-469.89 395.54,-440.36 419.02,-393.52"/>
<polygon fill="black" stroke="black" points="422.02,-395.33 423.91,-384.9 415.93,-391.87 422.02,-395.33"/>
</g>
<!-- RFC4635 -->
<g id="node10" class="node">
<title>RFC4635</title>
<g id="a_node10"><a xlink:href="RFC4635.html" xlink:title="Use of the Domain Name System TSIG resource record requires specification of a cryptographic message authentication code. &#160;Currently, identifiers have been specified only for HMAC MD5 (Hashed Message Authentication Code, Message Digest 5) and GSS (Generic Security Service) TSIG algorithms. &#160;This document standardizes identifiers and implementation requirements for additional HMAC SHA (Secure Hash Algorithm) TSIG algorithms and standardizes how to specify and handle the truncation of HMAC values in TSIG. [STANDARDS&#45;TRACK]" target="_top">
<ellipse fill="none" stroke="black" cx="196.4" cy="-432.33" rx="191.63" ry="63.99"/>
<text xml:space="preserve" text-anchor="middle" x="196.4" y="-460.28" font-family="Times,serif" font-size="14.00">RFC4635</text>
<text xml:space="preserve" text-anchor="middle" x="196.4" y="-443.78" font-family="Times,serif" font-size="14.00">HMAC SHA (Hashed Message Authentication</text>
<text xml:space="preserve" text-anchor="middle" x="196.4" y="-427.28" font-family="Times,serif" font-size="14.00">Code, Secure Hash Algorithm) TSIG</text>
<text xml:space="preserve" text-anchor="middle" x="196.4" y="-410.78" font-family="Times,serif" font-size="14.00">Algorithm Identifiers</text>
<text xml:space="preserve" text-anchor="middle" x="196.4" y="-394.28" font-family="Times,serif" font-size="14.00">2006</text>
</a>
</g>
</g>
<!-- RFC4635&#45;&gt;rev_cites -->
<g id="edge9" class="edge">
<title>RFC4635&#45;&gt;rev_cites</title>
<path fill="none" stroke="black" d="M347.21,-392.58C371.55,-386.12 394.67,-379.99 412.8,-375.18"/>
<polygon fill="black" stroke="black" points="413.44,-378.63 422.21,-372.68 411.65,-371.86 413.44,-378.63"/>
</g>
<!-- RFC5754 -->
<g id="node11" class="node">
<title>RFC5754</title>
<g id="a_node11"><a xlink:href="RFC5754.html" xlink:title="This document describes the conventions for using the Secure Hash Algorithm (SHA) message digest algorithms (SHA&#45;224, SHA&#45;256, SHA&#45;384, SHA&#45;512) with the Cryptographic Message Syntax (CMS). &#160;It also describes the conventions for using these algorithms with the CMS and the Digital Signature Algorithm (DSA), Rivest Shamir Adleman (RSA), and Elliptic Curve DSA (ECDSA) signature algorithms. &#160;Further, it provides SMIMECapabilities attribute values for each algorithm. [STANDARDS&#45;TRACK]" target="_top">
<ellipse fill="none" stroke="black" cx="196.4" cy="-298.33" rx="184.2" ry="52.33"/>
<text xml:space="preserve" text-anchor="middle" x="196.4" y="-318.03" font-family="Times,serif" font-size="14.00">RFC5754</text>
<text xml:space="preserve" text-anchor="middle" x="196.4" y="-301.53" font-family="Times,serif" font-size="14.00">Using SHA2 Algorithms with Cryptographic</text>
<text xml:space="preserve" text-anchor="middle" x="196.4" y="-285.03" font-family="Times,serif" font-size="14.00">Message Syntax</text>
<text xml:space="preserve" text-anchor="middle" x="196.4" y="-268.53" font-family="Times,serif" font-size="14.00">2010</text>
</a>
</g>
</g>
<!-- RFC5754&#45;&gt;rev_cites -->
<g id="edge10" class="edge">
<title>RFC5754&#45;&gt;rev_cites</title>
<path fill="none" stroke="black" d="M332.16,-334.08C361.85,-341.96 390.91,-349.67 412.73,-355.46"/>
<polygon fill="black" stroke="black" points="411.73,-358.81 422.3,-358 413.53,-352.05 411.73,-358.81"/>
</g>
<!-- RFC6234 -->
<g id="node12" class="node">
<title>RFC6234</title>
<g id="a_node12"><a xlink:href="RFC6234.html" xlink:title="Federal Information Processing Standard, FIPS" target="_top">
<ellipse fill="none" stroke="black" cx="196.4" cy="-175.33" rx="186.32" ry="52.33"/>
<text xml:space="preserve" text-anchor="middle" x="196.4" y="-195.03" font-family="Times,serif" font-size="14.00">RFC6234</text>
<text xml:space="preserve" text-anchor="middle" x="196.4" y="-178.53" font-family="Times,serif" font-size="14.00">US Secure Hash Algorithms (SHA and SHA&#45;</text>
<text xml:space="preserve" text-anchor="middle" x="196.4" y="-162.03" font-family="Times,serif" font-size="14.00">based HMAC and HKDF)</text>
<text xml:space="preserve" text-anchor="middle" x="196.4" y="-145.53" font-family="Times,serif" font-size="14.00">2011</text>
</a>
</g>
</g>
<!-- RFC6234&#45;&gt;rev_cites -->
<g id="edge11" class="edge">
<title>RFC6234&#45;&gt;rev_cites</title>
<path fill="none" stroke="black" d="M345.1,-206.97C362.43,-214.93 378.86,-224.88 392.8,-237.33 421.99,-263.4 437.05,-307.24 444.21,-336.22"/>
<polygon fill="black" stroke="black" points="440.76,-336.83 446.4,-345.8 447.58,-335.27 440.76,-336.83"/>
</g>
<!-- RFC8945 -->
<g id="node13" class="node">
<title>RFC8945</title>
<g id="a_node13"><a xlink:href="RFC8945.html" xlink:title="This document describes a protocol for transaction&#45;level authentication using shared secrets and one&#45;way hashing. It can be used to authenticate dynamic updates to a DNS zone as coming from an approved client or to authenticate responses as coming from an approved name server. No recommendation is made here for distributing the shared secrets; it is expected that a network administrator will statically configure name servers and clients using some out&#45;of&#45;band mechanism. This document obsoletes RFCs 2845 and 4635." target="_top">
<ellipse fill="none" stroke="black" cx="196.4" cy="-52.33" rx="159.81" ry="52.33"/>
<text xml:space="preserve" text-anchor="middle" x="196.4" y="-72.03" font-family="Times,serif" font-size="14.00">RFC8945</text>
<text xml:space="preserve" text-anchor="middle" x="196.4" y="-55.53" font-family="Times,serif" font-size="14.00">Secret Key Transaction Authentication</text>
<text xml:space="preserve" text-anchor="middle" x="196.4" y="-39.03" font-family="Times,serif" font-size="14.00">for DNS (TSIG)</text>
<text xml:space="preserve" text-anchor="middle" x="196.4" y="-22.53" font-family="Times,serif" font-size="14.00">2020</text>
</a>
</g>
</g>
<!-- RFC8945&#45;&gt;rev_cites -->
<g id="edge12" class="edge">
<title>RFC8945&#45;&gt;rev_cites</title>
<path fill="none" stroke="black" d="M337.73,-76.98C358.39,-85.88 377.74,-97.95 392.8,-114.33 422.45,-146.56 440.18,-276.56 446.87,-335.73"/>
<polygon fill="black" stroke="black" points="443.36,-335.84 447.93,-345.4 450.31,-335.07 443.36,-335.84"/>
</g>
</g>
</svg>
