<?xml version="1.0" encoding="UTF-8" standalone="no"?>
<!DOCTYPE svg PUBLIC "-//W3C//DTD SVG 1.1//EN"
 "http://www.w3.org/Graphics/SVG/1.1/DTD/svg11.dtd">
<!-- Generated by graphviz version 14.1.1 (20251213.1925)
 -->
<!-- Title: Flow Pages: 1 -->
<svg width="831pt" height="186pt"
 viewBox="0.00 0.00 831.00 186.00" xmlns="http://www.w3.org/2000/svg" xmlns:xlink="http://www.w3.org/1999/xlink">
<g id="graph0" class="graph" transform="scale(1 1) rotate(0) translate(4 182.33)">
<title>Flow</title>
<polygon fill="white" stroke="none" points="-4,4 -4,-182.33 827.39,-182.33 827.39,4 -4,4"/>
<!-- RFC3589 -->
<g id="node1" class="node">
<title>RFC3589</title>
<g id="a_node1"><a xlink:title="This document describes the IANA&#39;s allocation of a block of Diameter Command Codes for the Third Generation Partnership Project (3GPP) Release 5. &#160;This document does not pass judgment on the usage of these command codes. &#160;Further more, these command codes are for use for Release 5. &#160;For future releases, these codes cannot be reused, but must be allocated according to the Diameter Base specification. &#160;This memo provides information for the Internet community.">
<ellipse fill="none" stroke="black" cx="571.27" cy="-106.33" rx="160.87" ry="63.99"/>
<text xml:space="preserve" text-anchor="middle" x="571.27" y="-134.28" font-family="Times,serif" font-size="14.00">RFC3589</text>
<text xml:space="preserve" text-anchor="middle" x="571.27" y="-117.78" font-family="Times,serif" font-size="14.00">Diameter Command Codes for Third</text>
<text xml:space="preserve" text-anchor="middle" x="571.27" y="-101.28" font-family="Times,serif" font-size="14.00">Generation Partnership Project (3GPP)</text>
<text xml:space="preserve" text-anchor="middle" x="571.27" y="-84.78" font-family="Times,serif" font-size="14.00">Release 5</text>
<text xml:space="preserve" text-anchor="middle" x="571.27" y="-68.28" font-family="Times,serif" font-size="14.00">2003</text>
</a>
</g>
</g>
<!-- obs -->
<g id="node3" class="node">
<title>obs</title>
<polygon fill="none" stroke="black" points="823.39,-178.33 757.14,-178.33 757.14,-142.33 823.39,-142.33 823.39,-178.33"/>
<text xml:space="preserve" text-anchor="middle" x="790.27" y="-155.28" font-family="Times,serif" font-size="14.00">obsoletes</text>
</g>
<!-- RFC3589&#45;&gt;obs -->
<g id="edge2" class="edge">
<title>RFC3589&#45;&gt;obs</title>
<path fill="none" stroke="black" d="M708.47,-140.22C721.74,-143.52 734.42,-146.68 745.63,-149.47"/>
<polygon fill="black" stroke="black" points="744.74,-152.85 755.29,-151.87 746.43,-146.06 744.74,-152.85"/>
</g>
<!-- updates -->
<g id="node4" class="node">
<title>updates</title>
<polygon fill="none" stroke="black" points="818.89,-124.33 761.64,-124.33 761.64,-88.33 818.89,-88.33 818.89,-124.33"/>
<text xml:space="preserve" text-anchor="middle" x="790.27" y="-101.28" font-family="Times,serif" font-size="14.00">updates</text>
</g>
<!-- RFC3589&#45;&gt;updates -->
<g id="edge3" class="edge">
<title>RFC3589&#45;&gt;updates</title>
<path fill="none" stroke="black" d="M732.54,-106.33C738.68,-106.33 744.53,-106.33 749.99,-106.33"/>
<polygon fill="black" stroke="black" points="749.73,-109.83 759.73,-106.33 749.73,-102.83 749.73,-109.83"/>
</g>
<!-- cites -->
<g id="node6" class="node">
<title>cites</title>
<polygon fill="none" stroke="black" points="817.27,-70.33 763.27,-70.33 763.27,-34.33 817.27,-34.33 817.27,-70.33"/>
<text xml:space="preserve" text-anchor="middle" x="790.27" y="-47.28" font-family="Times,serif" font-size="14.00">cites</text>
</g>
<!-- RFC3589&#45;&gt;cites -->
<g id="edge5" class="edge">
<title>RFC3589&#45;&gt;cites</title>
<path fill="none" stroke="black" d="M708.47,-72.43C724.37,-68.47 739.43,-64.73 752.14,-61.57"/>
<polygon fill="black" stroke="black" points="752.78,-65.01 761.64,-59.2 751.09,-58.22 752.78,-65.01"/>
</g>
<!-- obs_by -->
<g id="node2" class="node">
<title>obs_by</title>
<polygon fill="none" stroke="black" points="385.41,-178.33 319.16,-178.33 319.16,-142.33 385.41,-142.33 385.41,-178.33"/>
<text xml:space="preserve" text-anchor="middle" x="352.28" y="-155.28" font-family="Times,serif" font-size="14.00">obsoletes</text>
</g>
<!-- obs_by&#45;&gt;RFC3589 -->
<g id="edge1" class="edge">
<title>obs_by&#45;&gt;RFC3589</title>
<path fill="none" stroke="black" d="M385.77,-152.24C396.5,-149.57 409.22,-146.41 422.89,-143"/>
<polygon fill="black" stroke="black" points="423.71,-146.41 432.57,-140.6 422.02,-139.61 423.71,-146.41"/>
</g>
<!-- updated_by -->
<g id="node5" class="node">
<title>updated_by</title>
<polygon fill="none" stroke="black" points="380.91,-124.33 323.66,-124.33 323.66,-88.33 380.91,-88.33 380.91,-124.33"/>
<text xml:space="preserve" text-anchor="middle" x="352.28" y="-101.28" font-family="Times,serif" font-size="14.00">updates</text>
</g>
<!-- updated_by&#45;&gt;RFC3589 -->
<g id="edge4" class="edge">
<title>updated_by&#45;&gt;RFC3589</title>
<path fill="none" stroke="black" d="M381.21,-106.33C386.56,-106.33 392.51,-106.33 398.91,-106.33"/>
<polygon fill="black" stroke="black" points="398.56,-109.83 408.56,-106.33 398.56,-102.83 398.56,-109.83"/>
</g>
<!-- rev_cites -->
<g id="node7" class="node">
<title>rev_cites</title>
<polygon fill="none" stroke="black" points="379.28,-70.33 325.28,-70.33 325.28,-34.33 379.28,-34.33 379.28,-70.33"/>
<text xml:space="preserve" text-anchor="middle" x="352.28" y="-47.28" font-family="Times,serif" font-size="14.00">cites</text>
</g>
<!-- rev_cites&#45;&gt;RFC3589 -->
<g id="edge6" class="edge">
<title>rev_cites&#45;&gt;RFC3589</title>
<path fill="none" stroke="black" d="M379.46,-58.84C391.38,-61.81 406.53,-65.58 423.06,-69.69"/>
<polygon fill="black" stroke="black" points="422.08,-73.05 432.63,-72.07 423.77,-66.26 422.08,-73.05"/>
</g>
<!-- RFC6632 -->
<g id="node8" class="node">
<title>RFC6632</title>
<g id="a_node8"><a xlink:href="RFC6632.html" xlink:title="This document gives an overview of the IETF network management standards and summarizes existing and ongoing development of IETF Standards Track network management protocols and data models. &#160;The document refers to other overview documents, where they exist and classifies the standards for easy orientation. &#160;The purpose of this document is, on the one hand, to help system developers and users to select appropriate standard management protocols and data models to address relevant management needs. &#160;On the other hand, the document can be used as an overview and guideline by other Standard Development Organizations or bodies planning to use IETF management technologies and data models. &#160;This document does not cover Operations, Administration, and Maintenance (OAM) technologies on the data&#45;path, e.g., OAM of tunnels, MPLS Transport Profile (MPLS&#45;TP) OAM, and pseudowire as well as the corresponding management models. &#160;This document is not an Internet Standards Track specification; it is published for informational purposes." target="_top">
<ellipse fill="none" stroke="black" cx="147.08" cy="-52.33" rx="147.08" ry="52.33"/>
<text xml:space="preserve" text-anchor="middle" x="147.08" y="-72.03" font-family="Times,serif" font-size="14.00">RFC6632</text>
<text xml:space="preserve" text-anchor="middle" x="147.08" y="-55.53" font-family="Times,serif" font-size="14.00">An Overview of the IETF Network</text>
<text xml:space="preserve" text-anchor="middle" x="147.08" y="-39.03" font-family="Times,serif" font-size="14.00">Management Standards</text>
<text xml:space="preserve" text-anchor="middle" x="147.08" y="-22.53" font-family="Times,serif" font-size="14.00">2012</text>
</a>
</g>
</g>
<!-- RFC6632&#45;&gt;rev_cites -->
<g id="edge7" class="edge">
<title>RFC6632&#45;&gt;rev_cites</title>
<path fill="none" stroke="black" d="M294.41,-52.33C301.12,-52.33 307.51,-52.33 313.42,-52.33"/>
<polygon fill="black" stroke="black" points="313.31,-55.83 323.31,-52.33 313.31,-48.83 313.31,-55.83"/>
</g>
</g>
</svg>
