<?xml version="1.0" encoding="UTF-8" standalone="no"?>
<!DOCTYPE svg PUBLIC "-//W3C//DTD SVG 1.1//EN"
 "http://www.w3.org/Graphics/SVG/1.1/DTD/svg11.dtd">
<!-- Generated by graphviz version 14.1.1 (20251213.1925)
 -->
<!-- Title: Flow Pages: 1 -->
<svg width="1369pt" height="973pt"
 viewBox="0.00 0.00 1369.00 973.00" xmlns="http://www.w3.org/2000/svg" xmlns:xlink="http://www.w3.org/1999/xlink">
<g id="graph0" class="graph" transform="scale(1 1) rotate(0) translate(4 968.79)">
<title>Flow</title>
<polygon fill="white" stroke="none" points="-4,4 -4,-968.79 1364.7,-968.79 1364.7,4 -4,4"/>
<!-- RFC3302 -->
<g id="node1" class="node">
<title>RFC3302</title>
<g id="a_node1"><a xlink:title="None">
<ellipse fill="green" stroke="black" stroke-width="3" cx="420.44" cy="-465.23" rx="216.02" ry="65.05"/>
<text xml:space="preserve" text-anchor="middle" x="420.44" y="-490.13" font-family="Times,serif" font-size="18.00">RFC3302</text>
<text xml:space="preserve" text-anchor="middle" x="420.44" y="-469.13" font-family="Times,serif" font-size="18.00">Tag Image File Format (TIFF) &#45;</text>
<text xml:space="preserve" text-anchor="middle" x="420.44" y="-448.13" font-family="Times,serif" font-size="18.00">image/tiff MIME Sub&#45;type Registration</text>
<text xml:space="preserve" text-anchor="middle" x="420.44" y="-427.13" font-family="Times,serif" font-size="18.00">2002</text>
</a>
</g>
</g>
<!-- obs -->
<g id="node3" class="node">
<title>obs</title>
<polygon fill="lightblue" stroke="black" points="840.87,-706.84 774.62,-706.84 774.62,-670.84 840.87,-670.84 840.87,-706.84"/>
<text xml:space="preserve" text-anchor="middle" x="807.75" y="-683.79" font-family="Times,serif" font-size="14.00">obsoletes</text>
</g>
<!-- RFC3302&#45;&gt;obs -->
<g id="edge2" class="edge">
<title>RFC3302&#45;&gt;obs</title>
<path fill="none" stroke="black" d="M522.2,-523.98C601.7,-569.88 708.09,-631.31 765.97,-664.72"/>
<polygon fill="black" stroke="black" points="764.13,-667.7 774.54,-669.67 767.63,-661.64 764.13,-667.7"/>
</g>
<!-- updates -->
<g id="node5" class="node">
<title>updates</title>
<polygon fill="lightyellow" stroke="black" points="449.06,-930.46 391.81,-930.46 391.81,-894.46 449.06,-894.46 449.06,-930.46"/>
<text xml:space="preserve" text-anchor="middle" x="420.44" y="-907.41" font-family="Times,serif" font-size="14.00">updates</text>
</g>
<!-- RFC3302&#45;&gt;updates -->
<g id="edge4" class="edge">
<title>RFC3302&#45;&gt;updates</title>
<path fill="none" stroke="black" d="M420.44,-531.7C420.44,-630.61 420.44,-812.46 420.44,-883.21"/>
<polygon fill="black" stroke="black" points="416.94,-882.83 420.44,-892.83 423.94,-882.83 416.94,-882.83"/>
</g>
<!-- cites -->
<g id="node7" class="node">
<title>cites</title>
<polygon fill="lightblue" stroke="black" points="60.13,-706.84 6.13,-706.84 6.13,-670.84 60.13,-670.84 60.13,-706.84"/>
<text xml:space="preserve" text-anchor="middle" x="33.13" y="-683.79" font-family="Times,serif" font-size="14.00">cites</text>
</g>
<!-- RFC3302&#45;&gt;cites -->
<g id="edge6" class="edge">
<title>RFC3302&#45;&gt;cites</title>
<path fill="none" stroke="black" d="M318.68,-523.98C237.02,-571.13 126.99,-634.65 70.31,-667.38"/>
<polygon fill="black" stroke="black" points="68.59,-664.33 61.68,-672.36 72.09,-670.39 68.59,-664.33"/>
</g>
<!-- obs_by -->
<g id="node2" class="node">
<title>obs_by</title>
<polygon fill="lightblue" stroke="black" points="66.25,-259.61 0,-259.61 0,-223.61 66.25,-223.61 66.25,-259.61"/>
<text xml:space="preserve" text-anchor="middle" x="33.13" y="-236.56" font-family="Times,serif" font-size="14.00">obsoletes</text>
</g>
<!-- obs_by&#45;&gt;RFC3302 -->
<g id="edge1" class="edge">
<title>obs_by&#45;&gt;RFC3302</title>
<path fill="none" stroke="black" d="M65.15,-260.1C117.97,-290.6 225.79,-352.85 308.87,-400.82"/>
<polygon fill="black" stroke="black" points="306.9,-403.72 317.31,-405.69 310.4,-397.66 306.9,-403.72"/>
</g>
<!-- RFC2302 -->
<g id="node4" class="node">
<title>RFC2302</title>
<g id="a_node4"><a xlink:href="RFC2302.html" xlink:title="This document describes the registration of the MIME sub&#45;type image/tiff. [STANDARDS&#45;TRACK]" target="_top">
<ellipse fill="none" stroke="black" cx="1195.06" cy="-912.46" rx="165.64" ry="52.33"/>
<text xml:space="preserve" text-anchor="middle" x="1195.06" y="-932.16" font-family="Times,serif" font-size="14.00">RFC2302</text>
<text xml:space="preserve" text-anchor="middle" x="1195.06" y="-915.66" font-family="Times,serif" font-size="14.00">Tag Image File Format (TIFF) &#45;</text>
<text xml:space="preserve" text-anchor="middle" x="1195.06" y="-899.16" font-family="Times,serif" font-size="14.00">image/tiff MIME Sub&#45;type Registration</text>
<text xml:space="preserve" text-anchor="middle" x="1195.06" y="-882.66" font-family="Times,serif" font-size="14.00">1998</text>
</a>
</g>
</g>
<!-- obs&#45;&gt;RFC2302 -->
<g id="edge3" class="edge">
<title>obs&#45;&gt;RFC2302</title>
<path fill="none" stroke="black" d="M839.77,-707.33C897.31,-740.55 1020.07,-811.43 1105.06,-860.5"/>
<polygon fill="black" stroke="black" points="1103.25,-863.49 1113.66,-865.46 1106.75,-857.43 1103.25,-863.49"/>
</g>
<!-- updated_by -->
<g id="node6" class="node">
<title>updated_by</title>
<polygon fill="lightyellow" stroke="black" points="449.06,-36 391.81,-36 391.81,0 449.06,0 449.06,-36"/>
<text xml:space="preserve" text-anchor="middle" x="420.44" y="-12.95" font-family="Times,serif" font-size="14.00">updates</text>
</g>
<!-- updated_by&#45;&gt;RFC3302 -->
<g id="edge5" class="edge">
<title>updated_by&#45;&gt;RFC3302</title>
<path fill="none" stroke="black" d="M420.44,-36.37C420.44,-95.12 420.44,-280.89 420.44,-387.67"/>
<polygon fill="black" stroke="black" points="416.94,-387.51 420.44,-397.51 423.94,-387.51 416.94,-387.51"/>
</g>
<!-- rev_cites -->
<g id="node8" class="node">
<title>rev_cites</title>
<polygon fill="lightblue" stroke="black" points="834.75,-259.61 780.75,-259.61 780.75,-223.61 834.75,-223.61 834.75,-259.61"/>
<text xml:space="preserve" text-anchor="middle" x="807.75" y="-236.56" font-family="Times,serif" font-size="14.00">cites</text>
</g>
<!-- rev_cites&#45;&gt;RFC3302 -->
<g id="edge7" class="edge">
<title>rev_cites&#45;&gt;RFC3302</title>
<path fill="none" stroke="black" d="M780.51,-257.34C729.61,-286.73 617.46,-351.48 531.75,-400.96"/>
<polygon fill="black" stroke="black" points="530.18,-397.83 523.27,-405.86 533.69,-403.89 530.18,-397.83"/>
</g>
</g>
</svg>
