<?xml version="1.0" encoding="UTF-8" standalone="no"?>
<!DOCTYPE svg PUBLIC "-//W3C//DTD SVG 1.1//EN"
 "http://www.w3.org/Graphics/SVG/1.1/DTD/svg11.dtd">
<!-- Generated by graphviz version 14.1.1 (20251213.1925)
 -->
<!-- Title: Flow Pages: 1 -->
<svg width="1275pt" height="557pt"
 viewBox="0.00 0.00 1275.00 557.00" xmlns="http://www.w3.org/2000/svg" xmlns:xlink="http://www.w3.org/1999/xlink">
<g id="graph0" class="graph" transform="scale(1 1) rotate(0) translate(4 552.98)">
<title>Flow</title>
<polygon fill="white" stroke="none" points="-4,4 -4,-552.98 1270.64,-552.98 1270.64,4 -4,4"/>
<!-- RFC3355 -->
<g id="node1" class="node">
<title>RFC3355</title>
<g id="a_node1"><a xlink:title="None">
<ellipse fill="green" stroke="black" cx="628.02" cy="-352.33" rx="163.52" ry="52.33"/>
<text xml:space="preserve" text-anchor="middle" x="628.02" y="-372.03" font-family="Times,serif" font-size="14.00">RFC3355</text>
<text xml:space="preserve" text-anchor="middle" x="628.02" y="-355.53" font-family="Times,serif" font-size="14.00">Layer Two Tunnelling Protocol (L2TP)</text>
<text xml:space="preserve" text-anchor="middle" x="628.02" y="-339.03" font-family="Times,serif" font-size="14.00">Over ATM Adaptation Layer 5 (AAL5)</text>
<text xml:space="preserve" text-anchor="middle" x="628.02" y="-322.53" font-family="Times,serif" font-size="14.00">2002</text>
</a>
</g>
</g>
<!-- obs -->
<g id="node3" class="node">
<title>obs</title>
<polygon fill="lightblue" stroke="black" points="882.79,-424.33 816.54,-424.33 816.54,-388.33 882.79,-388.33 882.79,-424.33"/>
<text xml:space="preserve" text-anchor="middle" x="849.66" y="-401.28" font-family="Times,serif" font-size="14.00">obsoletes</text>
</g>
<!-- RFC3355&#45;&gt;obs -->
<g id="edge2" class="edge">
<title>RFC3355&#45;&gt;obs</title>
<path fill="none" stroke="black" d="M758.69,-384.21C775.38,-388.31 791.44,-392.26 805.25,-395.65"/>
<polygon fill="black" stroke="black" points="804.27,-399.02 814.82,-398.01 805.94,-392.22 804.27,-399.02"/>
</g>
<!-- updates -->
<g id="node4" class="node">
<title>updates</title>
<polygon fill="lightyellow" stroke="black" points="878.29,-370.33 821.04,-370.33 821.04,-334.33 878.29,-334.33 878.29,-370.33"/>
<text xml:space="preserve" text-anchor="middle" x="849.66" y="-347.28" font-family="Times,serif" font-size="14.00">updates</text>
</g>
<!-- RFC3355&#45;&gt;updates -->
<g id="edge3" class="edge">
<title>RFC3355&#45;&gt;updates</title>
<path fill="none" stroke="black" d="M791.81,-352.33C797.98,-352.33 803.85,-352.33 809.31,-352.33"/>
<polygon fill="black" stroke="black" points="809.08,-355.83 819.08,-352.33 809.08,-348.83 809.08,-355.83"/>
</g>
<!-- cites -->
<g id="node6" class="node">
<title>cites</title>
<polygon fill="lightblue" stroke="black" points="876.66,-316.33 822.66,-316.33 822.66,-280.33 876.66,-280.33 876.66,-316.33"/>
<text xml:space="preserve" text-anchor="middle" x="849.66" y="-293.28" font-family="Times,serif" font-size="14.00">cites</text>
</g>
<!-- RFC3355&#45;&gt;cites -->
<g id="edge5" class="edge">
<title>RFC3355&#45;&gt;cites</title>
<path fill="none" stroke="black" d="M758.69,-320.45C777.93,-315.71 796.34,-311.19 811.43,-307.48"/>
<polygon fill="black" stroke="black" points="811.94,-310.96 820.81,-305.17 810.26,-304.16 811.94,-310.96"/>
</g>
<!-- obs_by -->
<g id="node2" class="node">
<title>obs_by</title>
<polygon fill="lightblue" stroke="black" points="439.5,-424.33 373.25,-424.33 373.25,-388.33 439.5,-388.33 439.5,-424.33"/>
<text xml:space="preserve" text-anchor="middle" x="406.38" y="-401.28" font-family="Times,serif" font-size="14.00">obsoletes</text>
</g>
<!-- obs_by&#45;&gt;RFC3355 -->
<g id="edge1" class="edge">
<title>obs_by&#45;&gt;RFC3355</title>
<path fill="none" stroke="black" d="M439.78,-398.36C453.03,-395.1 469.32,-391.1 486.73,-386.82"/>
<polygon fill="black" stroke="black" points="487.35,-390.27 496.22,-384.48 485.68,-383.47 487.35,-390.27"/>
</g>
<!-- updated_by -->
<g id="node5" class="node">
<title>updated_by</title>
<polygon fill="lightyellow" stroke="black" points="435,-370.33 377.75,-370.33 377.75,-334.33 435,-334.33 435,-370.33"/>
<text xml:space="preserve" text-anchor="middle" x="406.38" y="-347.28" font-family="Times,serif" font-size="14.00">updates</text>
</g>
<!-- updated_by&#45;&gt;RFC3355 -->
<g id="edge4" class="edge">
<title>updated_by&#45;&gt;RFC3355</title>
<path fill="none" stroke="black" d="M435.19,-352.33C440.59,-352.33 446.6,-352.33 453.07,-352.33"/>
<polygon fill="black" stroke="black" points="452.85,-355.83 462.85,-352.33 452.85,-348.83 452.85,-355.83"/>
</g>
<!-- RFC1661 -->
<g id="node7" class="node">
<title>RFC1661</title>
<g id="a_node7"><a xlink:href="RFC1661.html" xlink:title="This document defines the PPP organization and methodology, and the PPP encapsulation, together with an extensible option negotiation mechanism which is able to negotiate a rich assortment of configuration parameters and provides additional management functions. [STANDARDS&#45;TRACK]" target="_top">
<ellipse fill="none" stroke="black" cx="1087.22" cy="-508.33" rx="142.84" ry="40.66"/>
<text xml:space="preserve" text-anchor="middle" x="1087.22" y="-519.78" font-family="Times,serif" font-size="14.00">RFC1661</text>
<text xml:space="preserve" text-anchor="middle" x="1087.22" y="-503.28" font-family="Times,serif" font-size="14.00">The Point&#45;to&#45;Point Protocol (PPP)</text>
<text xml:space="preserve" text-anchor="middle" x="1087.22" y="-486.78" font-family="Times,serif" font-size="14.00">1994</text>
</a>
</g>
</g>
<!-- cites&#45;&gt;RFC1661 -->
<g id="edge6" class="edge">
<title>cites&#45;&gt;RFC1661</title>
<path fill="none" stroke="black" d="M876.02,-316.53C878.61,-319.23 880.95,-322.18 882.79,-325.33 913.32,-377.65 866.78,-414.74 907.79,-459.33 918.65,-471.14 932.08,-480.21 946.64,-487.16"/>
<polygon fill="black" stroke="black" points="944.94,-490.23 955.51,-491.03 947.74,-483.82 944.94,-490.23"/>
</g>
<!-- RFC2661 -->
<g id="node8" class="node">
<title>RFC2661</title>
<g id="a_node8"><a xlink:href="RFC2661.html" xlink:title="This document describes the Layer Two Tunneling Protocol (L2TP). [STANDARDS&#45;TRACK]" target="_top">
<ellipse fill="none" stroke="black" cx="1087.22" cy="-409.33" rx="153.97" ry="40.66"/>
<text xml:space="preserve" text-anchor="middle" x="1087.22" y="-420.78" font-family="Times,serif" font-size="14.00">RFC2661</text>
<text xml:space="preserve" text-anchor="middle" x="1087.22" y="-404.28" font-family="Times,serif" font-size="14.00">Layer Two Tunneling Protocol L2TP</text>
<text xml:space="preserve" text-anchor="middle" x="1087.22" y="-387.78" font-family="Times,serif" font-size="14.00">1999</text>
</a>
</g>
</g>
<!-- cites&#45;&gt;RFC2661 -->
<g id="edge7" class="edge">
<title>cites&#45;&gt;RFC2661</title>
<path fill="none" stroke="black" d="M873.74,-316.56C876.89,-319.38 880,-322.35 882.79,-325.33 895.61,-339.01 892.36,-348.66 907.79,-359.33 920.79,-368.32 935.38,-375.7 950.47,-381.76"/>
<polygon fill="black" stroke="black" points="948.97,-384.94 959.57,-385.21 951.46,-378.39 948.97,-384.94"/>
</g>
<!-- RFC2119 -->
<g id="node9" class="node">
<title>RFC2119</title>
<g id="a_node9"><a xlink:href="RFC2119.html" xlink:title="In many standards track documents several words are used to signify the requirements in the specification. &#160;These words are often capitalized. &#160;This document defines these words as they should be interpreted in IETF documents. &#160;This document specifies an Internet Best Current Practices for the Internet Community, and requests discussion and suggestions for improvements." target="_top">
<ellipse fill="none" stroke="black" cx="1087.22" cy="-298.33" rx="160.34" ry="52.33"/>
<text xml:space="preserve" text-anchor="middle" x="1087.22" y="-318.03" font-family="Times,serif" font-size="14.00">RFC2119</text>
<text xml:space="preserve" text-anchor="middle" x="1087.22" y="-301.53" font-family="Times,serif" font-size="14.00">Key words for use in RFCs to Indicate</text>
<text xml:space="preserve" text-anchor="middle" x="1087.22" y="-285.03" font-family="Times,serif" font-size="14.00">Requirement Levels</text>
<text xml:space="preserve" text-anchor="middle" x="1087.22" y="-268.53" font-family="Times,serif" font-size="14.00">1997</text>
</a>
</g>
</g>
<!-- cites&#45;&gt;RFC2119 -->
<g id="edge8" class="edge">
<title>cites&#45;&gt;RFC2119</title>
<path fill="none" stroke="black" d="M876.77,-298.33C887.37,-298.33 900.55,-298.33 915.12,-298.33"/>
<polygon fill="black" stroke="black" points="914.99,-301.83 924.99,-298.33 914.99,-294.83 914.99,-301.83"/>
</g>
<!-- RFC2684 -->
<g id="node10" class="node">
<title>RFC2684</title>
<g id="a_node10"><a xlink:href="RFC2684.html" xlink:title="This memo replaces RFC 1483. &#160;It describes two encapsulations methods for carrying network interconnect traffic over AAL type 5 over ATM. [STANDARDS&#45;TRACK]" target="_top">
<ellipse fill="none" stroke="black" cx="1087.22" cy="-175.33" rx="164.05" ry="52.33"/>
<text xml:space="preserve" text-anchor="middle" x="1087.22" y="-195.03" font-family="Times,serif" font-size="14.00">RFC2684</text>
<text xml:space="preserve" text-anchor="middle" x="1087.22" y="-178.53" font-family="Times,serif" font-size="14.00">Multiprotocol Encapsulation over ATM</text>
<text xml:space="preserve" text-anchor="middle" x="1087.22" y="-162.03" font-family="Times,serif" font-size="14.00">Adaptation Layer 5</text>
<text xml:space="preserve" text-anchor="middle" x="1087.22" y="-145.53" font-family="Times,serif" font-size="14.00">1999</text>
</a>
</g>
</g>
<!-- cites&#45;&gt;RFC2684 -->
<g id="edge9" class="edge">
<title>cites&#45;&gt;RFC2684</title>
<path fill="none" stroke="black" d="M863.84,-280.05C874.38,-266.59 890.27,-248.71 907.79,-237.33 921.55,-228.38 936.74,-220.57 952.29,-213.78"/>
<polygon fill="black" stroke="black" points="953.29,-217.16 961.15,-210.05 950.58,-210.71 953.29,-217.16"/>
</g>
<!-- RFC2331 -->
<g id="node11" class="node">
<title>RFC2331</title>
<g id="a_node11"><a xlink:href="RFC2331.html" xlink:title="This memo describes how to efficiently use the ATM call control signalling procedures defined in UNI Signalling 4.0 to support IP over ATM environments as described in RFC 2225 and in RFC 2332. [STANDARDS&#45;TRACK]" target="_top">
<ellipse fill="none" stroke="black" cx="1087.22" cy="-52.33" rx="179.43" ry="52.33"/>
<text xml:space="preserve" text-anchor="middle" x="1087.22" y="-72.03" font-family="Times,serif" font-size="14.00">RFC2331</text>
<text xml:space="preserve" text-anchor="middle" x="1087.22" y="-55.53" font-family="Times,serif" font-size="14.00">ATM Signalling Support for IP over ATM &#45;</text>
<text xml:space="preserve" text-anchor="middle" x="1087.22" y="-39.03" font-family="Times,serif" font-size="14.00">UNI Signalling 4.0 Update</text>
<text xml:space="preserve" text-anchor="middle" x="1087.22" y="-22.53" font-family="Times,serif" font-size="14.00">1998</text>
</a>
</g>
</g>
<!-- cites&#45;&gt;RFC2331 -->
<g id="edge10" class="edge">
<title>cites&#45;&gt;RFC2331</title>
<path fill="none" stroke="black" d="M851.12,-279.95C853.03,-243.43 862.44,-161.21 907.79,-114.33 916.52,-105.3 926.62,-97.59 937.5,-91"/>
<polygon fill="black" stroke="black" points="938.95,-94.2 945.93,-86.24 935.5,-88.11 938.95,-94.2"/>
</g>
<!-- rev_cites -->
<g id="node12" class="node">
<title>rev_cites</title>
<polygon fill="lightblue" stroke="black" points="433.38,-316.33 379.38,-316.33 379.38,-280.33 433.38,-280.33 433.38,-316.33"/>
<text xml:space="preserve" text-anchor="middle" x="406.38" y="-293.28" font-family="Times,serif" font-size="14.00">cites</text>
</g>
<!-- rev_cites&#45;&gt;RFC3355 -->
<g id="edge11" class="edge">
<title>rev_cites&#45;&gt;RFC3355</title>
<path fill="none" stroke="black" d="M433.87,-304.84C447.99,-308.31 466.57,-312.88 486.63,-317.81"/>
<polygon fill="black" stroke="black" points="485.55,-321.15 496.1,-320.14 487.22,-314.35 485.55,-321.15"/>
</g>
<!-- RFC3931 -->
<g id="node13" class="node">
<title>RFC3931</title>
<g id="a_node13"><a xlink:href="RFC3931.html" xlink:title="This document describes version 3 of the Layer Two Tunneling Protocol (L2TPv3). &#160;L2TPv3 defines the base control protocol and encapsulation for tunneling multiple Layer 2 connections between two IP nodes. &#160;Additional documents detail the specifics for each data link type being emulated. [STANDARDS&#45;TRACK]" target="_top">
<ellipse fill="none" stroke="black" cx="174.13" cy="-298.33" rx="174.13" ry="52.33"/>
<text xml:space="preserve" text-anchor="middle" x="174.13" y="-318.03" font-family="Times,serif" font-size="14.00">RFC3931</text>
<text xml:space="preserve" text-anchor="middle" x="174.13" y="-301.53" font-family="Times,serif" font-size="14.00">Layer Two Tunneling Protocol &#45; Version 3</text>
<text xml:space="preserve" text-anchor="middle" x="174.13" y="-285.03" font-family="Times,serif" font-size="14.00">(L2TPv3)</text>
<text xml:space="preserve" text-anchor="middle" x="174.13" y="-268.53" font-family="Times,serif" font-size="14.00">2005</text>
</a>
</g>
</g>
<!-- RFC3931&#45;&gt;rev_cites -->
<g id="edge12" class="edge">
<title>RFC3931&#45;&gt;rev_cites</title>
<path fill="none" stroke="black" d="M348.46,-298.33C355.29,-298.33 361.75,-298.33 367.69,-298.33"/>
<polygon fill="black" stroke="black" points="367.61,-301.83 377.61,-298.33 367.61,-294.83 367.61,-301.83"/>
</g>
</g>
</svg>
