<?xml version="1.0" encoding="UTF-8" standalone="no"?>
<!DOCTYPE svg PUBLIC "-//W3C//DTD SVG 1.1//EN"
 "http://www.w3.org/Graphics/SVG/1.1/DTD/svg11.dtd">
<!-- Generated by graphviz version 14.1.1 (20251213.1925)
 -->
<!-- Title: Flow Pages: 1 -->
<svg width="832pt" height="159pt"
 viewBox="0.00 0.00 832.00 159.00" xmlns="http://www.w3.org/2000/svg" xmlns:xlink="http://www.w3.org/1999/xlink">
<g id="graph0" class="graph" transform="scale(1 1) rotate(0) translate(4 155.33)">
<title>Flow</title>
<polygon fill="white" stroke="none" points="-4,4 -4,-155.33 828.45,-155.33 828.45,4 -4,4"/>
<!-- RFC3685 -->
<g id="node1" class="node">
<title>RFC3685</title>
<g id="a_node1"><a xlink:title="The SIEVE mail filtering language spamtest and virustest extensions permit users to use simple, portable commands for spam and virus tests on email messages. &#160;Each extension provides a new test using matches against numeric &#39;scores&#39;. &#160;It is the responsibility of the underlying SIEVE implementation to do the actual checks that result in values returned by the tests. [PROPOSED STANDARD]">
<ellipse fill="none" stroke="black" cx="576.05" cy="-72" rx="157.15" ry="52.33"/>
<text xml:space="preserve" text-anchor="middle" x="576.05" y="-91.7" font-family="Times,serif" font-size="14.00">RFC3685</text>
<text xml:space="preserve" text-anchor="middle" x="576.05" y="-75.2" font-family="Times,serif" font-size="14.00">SIEVE Email Filtering: Spamtest and</text>
<text xml:space="preserve" text-anchor="middle" x="576.05" y="-58.7" font-family="Times,serif" font-size="14.00">VirusTest Extensions</text>
<text xml:space="preserve" text-anchor="middle" x="576.05" y="-42.2" font-family="Times,serif" font-size="14.00">2004</text>
</a>
</g>
</g>
<!-- obs -->
<g id="node4" class="node">
<title>obs</title>
<polygon fill="none" stroke="black" points="824.45,-144 758.2,-144 758.2,-108 824.45,-108 824.45,-144"/>
<text xml:space="preserve" text-anchor="middle" x="791.33" y="-120.95" font-family="Times,serif" font-size="14.00">obsoletes</text>
</g>
<!-- RFC3685&#45;&gt;obs -->
<g id="edge3" class="edge">
<title>RFC3685&#45;&gt;obs</title>
<path fill="none" stroke="black" d="M702.04,-103.65C718.23,-107.75 733.84,-111.7 747.32,-115.11"/>
<polygon fill="black" stroke="black" points="746.08,-118.41 756.63,-117.47 747.8,-111.62 746.08,-118.41"/>
</g>
<!-- updates -->
<g id="node5" class="node">
<title>updates</title>
<polygon fill="none" stroke="black" points="819.95,-90 762.7,-90 762.7,-54 819.95,-54 819.95,-90"/>
<text xml:space="preserve" text-anchor="middle" x="791.33" y="-66.95" font-family="Times,serif" font-size="14.00">updates</text>
</g>
<!-- RFC3685&#45;&gt;updates -->
<g id="edge4" class="edge">
<title>RFC3685&#45;&gt;updates</title>
<path fill="none" stroke="black" d="M733.45,-72C739.67,-72 745.59,-72 751.11,-72"/>
<polygon fill="black" stroke="black" points="750.98,-75.5 760.98,-72 750.98,-68.5 750.98,-75.5"/>
</g>
<!-- cites -->
<g id="node7" class="node">
<title>cites</title>
<polygon fill="none" stroke="black" points="818.33,-36 764.33,-36 764.33,0 818.33,0 818.33,-36"/>
<text xml:space="preserve" text-anchor="middle" x="791.33" y="-12.95" font-family="Times,serif" font-size="14.00">cites</text>
</g>
<!-- RFC3685&#45;&gt;cites -->
<g id="edge6" class="edge">
<title>RFC3685&#45;&gt;cites</title>
<path fill="none" stroke="black" d="M702.04,-40.35C720.55,-35.67 738.29,-31.17 752.96,-27.46"/>
<polygon fill="black" stroke="black" points="753.71,-30.88 762.55,-25.03 752,-24.09 753.71,-30.88"/>
</g>
<!-- obs_by -->
<g id="node2" class="node">
<title>obs_by</title>
<polygon fill="none" stroke="black" points="393.89,-144 327.64,-144 327.64,-108 393.89,-108 393.89,-144"/>
<text xml:space="preserve" text-anchor="middle" x="360.77" y="-120.95" font-family="Times,serif" font-size="14.00">obsoletes</text>
</g>
<!-- obs_by&#45;&gt;RFC3685 -->
<g id="edge1" class="edge">
<title>obs_by&#45;&gt;RFC3685</title>
<path fill="none" stroke="black" d="M394.16,-117.8C406.87,-114.58 422.38,-110.65 438.92,-106.47"/>
<polygon fill="black" stroke="black" points="439.61,-109.9 448.45,-104.05 437.89,-103.12 439.61,-109.9"/>
</g>
<!-- RFC5235 -->
<g id="node3" class="node">
<title>RFC5235</title>
<g id="a_node3"><a xlink:href="RFC5235.html" xlink:title="The Sieve email filtering language spamtest, spamtestplus, and virustest extensions permit users to use simple, portable commands for spam and virus tests on email messages. &#160;Each extension provides a new test using matches against numeric scores. &#160;It is the responsibility of the underlying Sieve implementation to do the actual checks that result in proper input to the tests. [STANDARDS&#45;TRACK]" target="_top">
<ellipse fill="none" stroke="black" cx="151.32" cy="-99" rx="151.32" ry="52.33"/>
<text xml:space="preserve" text-anchor="middle" x="151.32" y="-118.7" font-family="Times,serif" font-size="14.00">RFC5235</text>
<text xml:space="preserve" text-anchor="middle" x="151.32" y="-102.2" font-family="Times,serif" font-size="14.00">Sieve Email Filtering: Spamtest and</text>
<text xml:space="preserve" text-anchor="middle" x="151.32" y="-85.7" font-family="Times,serif" font-size="14.00">Virustest Extensions</text>
<text xml:space="preserve" text-anchor="middle" x="151.32" y="-69.2" font-family="Times,serif" font-size="14.00">2008</text>
</a>
</g>
</g>
<!-- RFC5235&#45;&gt;obs_by -->
<g id="edge2" class="edge">
<title>RFC5235&#45;&gt;obs_by</title>
<path fill="none" stroke="black" d="M293.56,-117.38C301.46,-118.41 309.03,-119.4 316.04,-120.31"/>
<polygon fill="black" stroke="black" points="315.41,-123.76 325.78,-121.58 316.31,-116.81 315.41,-123.76"/>
</g>
<!-- rev_cites -->
<g id="node8" class="node">
<title>rev_cites</title>
<polygon fill="none" stroke="black" points="387.77,-90 333.77,-90 333.77,-54 387.77,-54 387.77,-90"/>
<text xml:space="preserve" text-anchor="middle" x="360.77" y="-66.95" font-family="Times,serif" font-size="14.00">cites</text>
</g>
<!-- RFC5235&#45;&gt;rev_cites -->
<g id="edge8" class="edge">
<title>RFC5235&#45;&gt;rev_cites</title>
<path fill="none" stroke="black" d="M293.56,-80.62C303.92,-79.27 313.7,-78 322.4,-76.86"/>
<polygon fill="black" stroke="black" points="322.6,-80.37 332.06,-75.61 321.69,-73.43 322.6,-80.37"/>
</g>
<!-- updated_by -->
<g id="node6" class="node">
<title>updated_by</title>
<polygon fill="none" stroke="black" points="389.39,-36 332.14,-36 332.14,0 389.39,0 389.39,-36"/>
<text xml:space="preserve" text-anchor="middle" x="360.77" y="-12.95" font-family="Times,serif" font-size="14.00">updates</text>
</g>
<!-- updated_by&#45;&gt;RFC3685 -->
<g id="edge5" class="edge">
<title>updated_by&#45;&gt;RFC3685</title>
<path fill="none" stroke="black" d="M389.65,-25.06C403.15,-28.48 420.45,-32.86 439.04,-37.56"/>
<polygon fill="black" stroke="black" points="438.1,-40.94 448.65,-40 439.82,-34.15 438.1,-40.94"/>
</g>
<!-- rev_cites&#45;&gt;RFC3685 -->
<g id="edge7" class="edge">
<title>rev_cites&#45;&gt;RFC3685</title>
<path fill="none" stroke="black" d="M387.92,-72C393.69,-72 400.2,-72 407.26,-72"/>
<polygon fill="black" stroke="black" points="407.25,-75.5 417.25,-72 407.25,-68.5 407.25,-75.5"/>
</g>
</g>
</svg>
