<?xml version="1.0" encoding="UTF-8" standalone="no"?>
<!DOCTYPE svg PUBLIC "-//W3C//DTD SVG 1.1//EN"
 "http://www.w3.org/Graphics/SVG/1.1/DTD/svg11.dtd">
<!-- Generated by graphviz version 14.1.1 (20251213.1925)
 -->
<!-- Title: Flow Pages: 1 -->
<svg width="1233pt" height="864pt"
 viewBox="0.00 0.00 1233.00 864.00" xmlns="http://www.w3.org/2000/svg" xmlns:xlink="http://www.w3.org/1999/xlink">
<g id="graph0" class="graph" transform="scale(1 1) rotate(0) translate(4 860.31)">
<title>Flow</title>
<polygon fill="white" stroke="none" points="-4,4 -4,-860.31 1229.1,-860.31 1229.1,4 -4,4"/>
<!-- RFC3745 -->
<g id="node1" class="node">
<title>RFC3745</title>
<g id="a_node1"><a xlink:title="This document serves to register and document the standard MIME types associated with the ISO/IEC 15444 standards, commonly known as JPEG 2000 (Joint Photographic Experts Group). [STANDARDS&#45;TRACK]">
<ellipse fill="green" stroke="black" stroke-width="3" cx="373.47" cy="-445.32" rx="223.98" ry="65.05"/>
<text xml:space="preserve" text-anchor="middle" x="373.47" y="-470.22" font-family="Times,serif" font-size="18.00">RFC3745</text>
<text xml:space="preserve" text-anchor="middle" x="373.47" y="-449.22" font-family="Times,serif" font-size="18.00">MIME Type Registrations for JPEG 2000</text>
<text xml:space="preserve" text-anchor="middle" x="373.47" y="-428.22" font-family="Times,serif" font-size="18.00">(ISO/IEC 15444)</text>
<text xml:space="preserve" text-anchor="middle" x="373.47" y="-407.22" font-family="Times,serif" font-size="18.00">2004</text>
</a>
</g>
</g>
<!-- obs -->
<g id="node3" class="node">
<title>obs</title>
<polygon fill="lightblue" stroke="black" points="746.94,-659.82 680.69,-659.82 680.69,-623.82 746.94,-623.82 746.94,-659.82"/>
<text xml:space="preserve" text-anchor="middle" x="713.81" y="-636.77" font-family="Times,serif" font-size="14.00">obsoletes</text>
</g>
<!-- RFC3745&#45;&gt;obs -->
<g id="edge2" class="edge">
<title>RFC3745&#45;&gt;obs</title>
<path fill="none" stroke="black" d="M476.04,-504.54C541.83,-542.52 623.7,-589.79 672.19,-617.79"/>
<polygon fill="black" stroke="black" points="670.3,-620.73 680.71,-622.7 673.8,-614.67 670.3,-620.73"/>
</g>
<!-- updates -->
<g id="node4" class="node">
<title>updates</title>
<polygon fill="lightyellow" stroke="black" points="402.09,-856.31 344.84,-856.31 344.84,-820.31 402.09,-820.31 402.09,-856.31"/>
<text xml:space="preserve" text-anchor="middle" x="373.47" y="-833.26" font-family="Times,serif" font-size="14.00">updates</text>
</g>
<!-- RFC3745&#45;&gt;updates -->
<g id="edge3" class="edge">
<title>RFC3745&#45;&gt;updates</title>
<path fill="none" stroke="black" d="M373.47,-511.54C373.47,-598.08 373.47,-745.99 373.47,-808.76"/>
<polygon fill="black" stroke="black" points="369.97,-808.62 373.47,-818.62 376.97,-808.62 369.97,-808.62"/>
</g>
<!-- cites -->
<g id="node6" class="node">
<title>cites</title>
<polygon fill="lightblue" stroke="black" points="60.13,-659.82 6.13,-659.82 6.13,-623.82 60.13,-623.82 60.13,-659.82"/>
<text xml:space="preserve" text-anchor="middle" x="33.13" y="-636.77" font-family="Times,serif" font-size="14.00">cites</text>
</g>
<!-- RFC3745&#45;&gt;cites -->
<g id="edge5" class="edge">
<title>RFC3745&#45;&gt;cites</title>
<path fill="none" stroke="black" d="M270.89,-504.54C203.06,-543.71 118.12,-592.75 70.31,-620.35"/>
<polygon fill="black" stroke="black" points="68.62,-617.28 61.71,-625.31 72.12,-623.34 68.62,-617.28"/>
</g>
<!-- obs_by -->
<g id="node2" class="node">
<title>obs_by</title>
<polygon fill="lightblue" stroke="black" points="66.25,-266.82 0,-266.82 0,-230.82 66.25,-230.82 66.25,-266.82"/>
<text xml:space="preserve" text-anchor="middle" x="33.13" y="-243.77" font-family="Times,serif" font-size="14.00">obsoletes</text>
</g>
<!-- obs_by&#45;&gt;RFC3745 -->
<g id="edge1" class="edge">
<title>obs_by&#45;&gt;RFC3745</title>
<path fill="none" stroke="black" d="M65.14,-267.31C109.71,-293.04 192.71,-340.96 261.37,-380.6"/>
<polygon fill="black" stroke="black" points="259.24,-383.41 269.65,-385.38 262.74,-377.35 259.24,-383.41"/>
</g>
<!-- updated_by -->
<g id="node5" class="node">
<title>updated_by</title>
<polygon fill="lightyellow" stroke="black" points="402.09,-70.33 344.84,-70.33 344.84,-34.33 402.09,-34.33 402.09,-70.33"/>
<text xml:space="preserve" text-anchor="middle" x="373.47" y="-47.28" font-family="Times,serif" font-size="14.00">updates</text>
</g>
<!-- updated_by&#45;&gt;RFC3745 -->
<g id="edge4" class="edge">
<title>updated_by&#45;&gt;RFC3745</title>
<path fill="none" stroke="black" d="M373.47,-70.75C373.47,-122.91 373.47,-273.8 373.47,-367.39"/>
<polygon fill="black" stroke="black" points="369.97,-367.28 373.47,-377.28 376.97,-367.28 369.97,-367.28"/>
</g>
<!-- rev_cites -->
<g id="node7" class="node">
<title>rev_cites</title>
<polygon fill="lightblue" stroke="black" points="740.81,-266.82 686.81,-266.82 686.81,-230.82 740.81,-230.82 740.81,-266.82"/>
<text xml:space="preserve" text-anchor="middle" x="713.81" y="-243.77" font-family="Times,serif" font-size="14.00">cites</text>
</g>
<!-- rev_cites&#45;&gt;RFC3745 -->
<g id="edge6" class="edge">
<title>rev_cites&#45;&gt;RFC3745</title>
<path fill="none" stroke="black" d="M686.53,-264.57C643.37,-289.49 556.93,-339.4 485.79,-380.47"/>
<polygon fill="black" stroke="black" points="484.08,-377.42 477.17,-385.45 487.58,-383.48 484.08,-377.42"/>
</g>
<!-- RFC9828 -->
<g id="node8" class="node">
<title>RFC9828</title>
<g id="a_node8"><a xlink:href="RFC9828.html" xlink:title="This document defines the RTP payload format for the streaming of a video signal encoded as a sequence of JPEG 2000 codestreams. &#160;The format allows sub&#45;codestream latency, such that the first RTP packet for a given image can be emitted before the entire image is available to or encoded by the sender." target="_top">
<ellipse fill="none" stroke="black" cx="1054.15" cy="-52.33" rx="170.94" ry="52.33"/>
<text xml:space="preserve" text-anchor="middle" x="1054.15" y="-72.03" font-family="Times,serif" font-size="14.00">RFC9828</text>
<text xml:space="preserve" text-anchor="middle" x="1054.15" y="-55.53" font-family="Times,serif" font-size="14.00">RTP Payload Format for JPEG 2000</text>
<text xml:space="preserve" text-anchor="middle" x="1054.15" y="-39.03" font-family="Times,serif" font-size="14.00">Streaming with Sub&#45;Codestream Latency</text>
<text xml:space="preserve" text-anchor="middle" x="1054.15" y="-22.53" font-family="Times,serif" font-size="14.00">2025</text>
</a>
</g>
</g>
<!-- RFC9828&#45;&gt;rev_cites -->
<g id="edge7" class="edge">
<title>RFC9828&#45;&gt;rev_cites</title>
<path fill="none" stroke="black" d="M973.5,-98.89C902.95,-139.62 803.72,-196.91 750.67,-227.54"/>
<polygon fill="black" stroke="black" points="749.23,-224.33 742.32,-232.36 752.73,-230.39 749.23,-224.33"/>
</g>
</g>
</svg>
