<?xml version="1.0" encoding="UTF-8" standalone="no"?>
<!DOCTYPE svg PUBLIC "-//W3C//DTD SVG 1.1//EN"
 "http://www.w3.org/Graphics/SVG/1.1/DTD/svg11.dtd">
<!-- Generated by graphviz version 14.1.1 (20251213.1925)
 -->
<!-- Title: Flow Pages: 1 -->
<svg width="1340pt" height="1364pt"
 viewBox="0.00 0.00 1340.00 1364.00" xmlns="http://www.w3.org/2000/svg" xmlns:xlink="http://www.w3.org/1999/xlink">
<g id="graph0" class="graph" transform="scale(1 1) rotate(0) translate(4 1359.88)">
<title>Flow</title>
<polygon fill="white" stroke="none" points="-4,4 -4,-1359.88 1336.24,-1359.88 1336.24,4 -4,4"/>
<!-- RFC3485 -->
<g id="node1" class="node">
<title>RFC3485</title>
<g id="a_node1"><a xlink:title="The Session Initiation Protocol (SIP) is a text&#45;based protocol for initiating and managing communication sessions. &#160;The protocol can be compressed by using Signaling Compression (SigComp). &#160;Similarly, the Session Description Protocol (SDP) is a text&#45;based protocol intended for describing multimedia sessions for the purposes of session announcement, session invitation, and other forms of multimedia session initiation. &#160;This memo defines the SIP/SDP&#45;specific static dictionary that SigComp may use in order to achieve higher efficiency. &#160;The dictionary is compression algorithm independent. [STANDARDS&#45;TRACK]">
<ellipse fill="green" stroke="black" stroke-width="3" cx="404.23" cy="-909.36" rx="216.02" ry="94.75"/>
<text xml:space="preserve" text-anchor="middle" x="404.23" y="-955.26" font-family="Times,serif" font-size="18.00">RFC3485</text>
<text xml:space="preserve" text-anchor="middle" x="404.23" y="-934.26" font-family="Times,serif" font-size="18.00">The Session Initiation Protocol (SIP)</text>
<text xml:space="preserve" text-anchor="middle" x="404.23" y="-913.26" font-family="Times,serif" font-size="18.00">and Session Description Protocol (SDP)</text>
<text xml:space="preserve" text-anchor="middle" x="404.23" y="-892.26" font-family="Times,serif" font-size="18.00">Static Dictionary for Signaling</text>
<text xml:space="preserve" text-anchor="middle" x="404.23" y="-871.26" font-family="Times,serif" font-size="18.00">Compression (SigComp)</text>
<text xml:space="preserve" text-anchor="middle" x="404.23" y="-850.26" font-family="Times,serif" font-size="18.00">2003</text>
</a>
</g>
</g>
<!-- obs -->
<g id="node3" class="node">
<title>obs</title>
<polygon fill="lightblue" stroke="black" points="808.46,-1141.62 742.21,-1141.62 742.21,-1105.62 808.46,-1105.62 808.46,-1141.62"/>
<text xml:space="preserve" text-anchor="middle" x="775.34" y="-1118.57" font-family="Times,serif" font-size="14.00">obsoletes</text>
</g>
<!-- RFC3485&#45;&gt;obs -->
<g id="edge2" class="edge">
<title>RFC3485&#45;&gt;obs</title>
<path fill="none" stroke="black" d="M536.38,-985.65C605.64,-1025.64 685.75,-1071.9 733.39,-1099.4"/>
<polygon fill="black" stroke="black" points="731.62,-1102.42 742.03,-1104.39 735.12,-1096.36 731.62,-1102.42"/>
</g>
<!-- updates -->
<g id="node4" class="node">
<title>updates</title>
<polygon fill="lightyellow" stroke="black" points="432.86,-1355.88 375.61,-1355.88 375.61,-1319.88 432.86,-1319.88 432.86,-1355.88"/>
<text xml:space="preserve" text-anchor="middle" x="404.23" y="-1332.83" font-family="Times,serif" font-size="14.00">updates</text>
</g>
<!-- RFC3485&#45;&gt;updates -->
<g id="edge3" class="edge">
<title>RFC3485&#45;&gt;updates</title>
<path fill="none" stroke="black" d="M404.23,-1005.53C404.23,-1102.69 404.23,-1246.97 404.23,-1308.43"/>
<polygon fill="black" stroke="black" points="400.73,-1308.07 404.23,-1318.07 407.73,-1308.07 400.73,-1308.07"/>
</g>
<!-- cites -->
<g id="node7" class="node">
<title>cites</title>
<polygon fill="lightblue" stroke="black" points="60.13,-1141.62 6.13,-1141.62 6.13,-1105.62 60.13,-1105.62 60.13,-1141.62"/>
<text xml:space="preserve" text-anchor="middle" x="33.13" y="-1118.57" font-family="Times,serif" font-size="14.00">cites</text>
</g>
<!-- RFC3485&#45;&gt;cites -->
<g id="edge6" class="edge">
<title>RFC3485&#45;&gt;cites</title>
<path fill="none" stroke="black" d="M272.09,-985.65C200.3,-1027.1 116.86,-1075.27 70,-1102.33"/>
<polygon fill="black" stroke="black" points="68.51,-1099.15 61.6,-1107.18 72.01,-1105.21 68.51,-1099.15"/>
</g>
<!-- obs_by -->
<g id="node2" class="node">
<title>obs_by</title>
<polygon fill="lightblue" stroke="black" points="66.25,-713.1 0,-713.1 0,-677.1 66.25,-677.1 66.25,-713.1"/>
<text xml:space="preserve" text-anchor="middle" x="33.13" y="-690.05" font-family="Times,serif" font-size="14.00">obsoletes</text>
</g>
<!-- obs_by&#45;&gt;RFC3485 -->
<g id="edge1" class="edge">
<title>obs_by&#45;&gt;RFC3485</title>
<path fill="none" stroke="black" d="M65.09,-713.55C108.92,-738.86 190.47,-785.95 262.63,-827.6"/>
<polygon fill="black" stroke="black" points="260.56,-830.45 270.97,-832.42 264.06,-824.39 260.56,-830.45"/>
</g>
<!-- updated_by -->
<g id="node5" class="node">
<title>updated_by</title>
<polygon fill="lightyellow" stroke="black" points="432.86,-498.84 375.61,-498.84 375.61,-462.84 432.86,-462.84 432.86,-498.84"/>
<text xml:space="preserve" text-anchor="middle" x="404.23" y="-475.79" font-family="Times,serif" font-size="14.00">updates</text>
</g>
<!-- updated_by&#45;&gt;RFC3485 -->
<g id="edge4" class="edge">
<title>updated_by&#45;&gt;RFC3485</title>
<path fill="none" stroke="black" d="M404.23,-499.26C404.23,-550.6 404.23,-698.35 404.23,-801.7"/>
<polygon fill="black" stroke="black" points="400.73,-801.61 404.23,-811.61 407.73,-801.61 400.73,-801.61"/>
</g>
<!-- RFC4896 -->
<g id="node6" class="node">
<title>RFC4896</title>
<g id="a_node6"><a xlink:href="RFC4896.html" xlink:title="This document describes common misinterpretations and some ambiguities in the Signaling Compression Protocol (SigComp), and offers guidance to developers to resolve any resultant problems. &#160;SigComp defines a scheme for compressing messages generated by application protocols such as the Session Initiation Protocol (SIP). &#160;This document updates the following RFCs: RFC 3320, RFC 3321, and RFC 3485. [STANDARDS&#45;TRACK]" target="_top">
<ellipse fill="none" stroke="black" cx="404.23" cy="-52.33" rx="147.08" ry="52.33"/>
<text xml:space="preserve" text-anchor="middle" x="404.23" y="-72.03" font-family="Times,serif" font-size="14.00">RFC4896</text>
<text xml:space="preserve" text-anchor="middle" x="404.23" y="-55.53" font-family="Times,serif" font-size="14.00">Signaling Compression (SigComp)</text>
<text xml:space="preserve" text-anchor="middle" x="404.23" y="-39.03" font-family="Times,serif" font-size="14.00">Corrections and Clarifications</text>
<text xml:space="preserve" text-anchor="middle" x="404.23" y="-22.53" font-family="Times,serif" font-size="14.00">2007</text>
</a>
</g>
</g>
<!-- RFC4896&#45;&gt;updated_by -->
<g id="edge5" class="edge">
<title>RFC4896&#45;&gt;updated_by</title>
<path fill="none" stroke="black" d="M404.23,-104.87C404.23,-195.72 404.23,-379.29 404.23,-451.1"/>
<polygon fill="black" stroke="black" points="400.73,-450.88 404.23,-460.88 407.73,-450.88 400.73,-450.88"/>
</g>
<!-- rev_cites -->
<g id="node8" class="node">
<title>rev_cites</title>
<polygon fill="lightblue" stroke="black" points="802.34,-713.1 748.34,-713.1 748.34,-677.1 802.34,-677.1 802.34,-713.1"/>
<text xml:space="preserve" text-anchor="middle" x="775.34" y="-690.05" font-family="Times,serif" font-size="14.00">cites</text>
</g>
<!-- rev_cites&#45;&gt;RFC3485 -->
<g id="edge7" class="edge">
<title>rev_cites&#45;&gt;RFC3485</title>
<path fill="none" stroke="black" d="M748.05,-710.86C705.59,-735.37 620.82,-784.31 546.08,-827.47"/>
<polygon fill="black" stroke="black" points="544.77,-824.18 537.86,-832.21 548.27,-830.24 544.77,-824.18"/>
</g>
<!-- RFC5049 -->
<g id="node9" class="node">
<title>RFC5049</title>
<g id="a_node9"><a xlink:href="RFC5049.html" xlink:title="This document describes some specifics that apply when Signaling Compression (SigComp) is applied to the Session Initiation Protocol (SIP), such as default minimum values of SigComp parameters, compartment and state management, and a few issues on SigComp over TCP. &#160;Any implementation of SigComp for use with SIP must conform to this document and SigComp, and in addition, support the SIP and Session Description Protocol (SDP) static dictionary. [STANDARDS&#45;TRACK]" target="_top">
<ellipse fill="none" stroke="black" cx="1146.45" cy="-480.84" rx="185.79" ry="52.33"/>
<text xml:space="preserve" text-anchor="middle" x="1146.45" y="-500.54" font-family="Times,serif" font-size="14.00">RFC5049</text>
<text xml:space="preserve" text-anchor="middle" x="1146.45" y="-484.04" font-family="Times,serif" font-size="14.00">Applying Signaling Compression (SigComp)</text>
<text xml:space="preserve" text-anchor="middle" x="1146.45" y="-467.54" font-family="Times,serif" font-size="14.00">to the Session Initiation Protocol (SIP)</text>
<text xml:space="preserve" text-anchor="middle" x="1146.45" y="-451.04" font-family="Times,serif" font-size="14.00">2007</text>
</a>
</g>
</g>
<!-- RFC5049&#45;&gt;rev_cites -->
<g id="edge8" class="edge">
<title>RFC5049&#45;&gt;rev_cites</title>
<path fill="none" stroke="black" d="M1064.54,-528.13C986.01,-573.47 871.01,-639.86 812.5,-673.64"/>
<polygon fill="black" stroke="black" points="810.82,-670.58 803.91,-678.61 814.32,-676.64 810.82,-670.58"/>
</g>
</g>
</svg>
