<?xml version="1.0" encoding="UTF-8" standalone="no"?>
<!DOCTYPE svg PUBLIC "-//W3C//DTD SVG 1.1//EN"
 "http://www.w3.org/Graphics/SVG/1.1/DTD/svg11.dtd">
<!-- Generated by graphviz version 14.1.1 (20251213.1925)
 -->
<!-- Title: Flow Pages: 1 -->
<svg width="1238pt" height="902pt"
 viewBox="0.00 0.00 1238.00 902.00" xmlns="http://www.w3.org/2000/svg" xmlns:xlink="http://www.w3.org/1999/xlink">
<g id="graph0" class="graph" transform="scale(1 1) rotate(0) translate(4 897.53)">
<title>Flow</title>
<polygon fill="white" stroke="none" points="-4,4 -4,-897.53 1234.22,-897.53 1234.22,4 -4,4"/>
<!-- RFC3676 -->
<g id="node1" class="node">
<title>RFC3676</title>
<g id="a_node1"><a xlink:title="This specification establishes two parameters (Format and DelSP) to be used with the Text/Plain media type. &#160;In the presence of these parameters, trailing whitespace is used to indicate flowed lines and a canonical quote indicator is used to indicate quoted lines. &#160;This results in an encoding which appears as normal Text/Plain in older implementations, since it is in fact normal Text/Plain, yet provides for superior wrapping/flowing, and quoting. &#160;This document supersedes the one specified in RFC 2646, The Text/Plain Format Parameter, and adds the DelSp parameter to accommodate languages/coded character sets in which ASCII spaces are not used or appear rarely. [STANDARDS&#45;TRACK]">
<ellipse fill="green" stroke="black" stroke-width="3" cx="379.77" cy="-452.6" rx="184.73" ry="65.05"/>
<text xml:space="preserve" text-anchor="middle" x="379.77" y="-477.5" font-family="Times,serif" font-size="18.00">RFC3676</text>
<text xml:space="preserve" text-anchor="middle" x="379.77" y="-456.5" font-family="Times,serif" font-size="18.00">The Text/Plain Format and DelSp</text>
<text xml:space="preserve" text-anchor="middle" x="379.77" y="-435.5" font-family="Times,serif" font-size="18.00">Parameters</text>
<text xml:space="preserve" text-anchor="middle" x="379.77" y="-414.5" font-family="Times,serif" font-size="18.00">2004</text>
</a>
</g>
</g>
<!-- obs -->
<g id="node3" class="node">
<title>obs</title>
<polygon fill="lightblue" stroke="black" points="759.54,-670.73 693.29,-670.73 693.29,-634.73 759.54,-634.73 759.54,-670.73"/>
<text xml:space="preserve" text-anchor="middle" x="726.42" y="-647.68" font-family="Times,serif" font-size="14.00">obsoletes</text>
</g>
<!-- RFC3676&#45;&gt;obs -->
<g id="edge2" class="edge">
<title>RFC3676&#45;&gt;obs</title>
<path fill="none" stroke="black" d="M477.72,-509.15C546.22,-548.7 634.25,-599.52 685.1,-628.88"/>
<polygon fill="black" stroke="black" points="683.04,-631.73 693.45,-633.7 686.54,-625.67 683.04,-631.73"/>
</g>
<!-- updates -->
<g id="node5" class="node">
<title>updates</title>
<polygon fill="lightyellow" stroke="black" points="408.4,-870.87 351.15,-870.87 351.15,-834.87 408.4,-834.87 408.4,-870.87"/>
<text xml:space="preserve" text-anchor="middle" x="379.77" y="-847.82" font-family="Times,serif" font-size="14.00">updates</text>
</g>
<!-- RFC3676&#45;&gt;updates -->
<g id="edge4" class="edge">
<title>RFC3676&#45;&gt;updates</title>
<path fill="none" stroke="black" d="M379.77,-519.14C379.77,-607.48 379.77,-759.73 379.77,-823.47"/>
<polygon fill="black" stroke="black" points="376.27,-823.13 379.77,-833.13 383.27,-823.13 376.27,-823.13"/>
</g>
<!-- cites -->
<g id="node7" class="node">
<title>cites</title>
<polygon fill="lightblue" stroke="black" points="60.13,-670.73 6.13,-670.73 6.13,-634.73 60.13,-634.73 60.13,-670.73"/>
<text xml:space="preserve" text-anchor="middle" x="33.13" y="-647.68" font-family="Times,serif" font-size="14.00">cites</text>
</g>
<!-- RFC3676&#45;&gt;cites -->
<g id="edge6" class="edge">
<title>RFC3676&#45;&gt;cites</title>
<path fill="none" stroke="black" d="M281.83,-509.15C211.4,-549.81 120.35,-602.37 70.26,-631.29"/>
<polygon fill="black" stroke="black" points="68.73,-628.13 61.82,-636.17 72.23,-634.2 68.73,-628.13"/>
</g>
<!-- obs_by -->
<g id="node2" class="node">
<title>obs_by</title>
<polygon fill="lightblue" stroke="black" points="66.25,-270.46 0,-270.46 0,-234.46 66.25,-234.46 66.25,-270.46"/>
<text xml:space="preserve" text-anchor="middle" x="33.13" y="-247.41" font-family="Times,serif" font-size="14.00">obsoletes</text>
</g>
<!-- obs_by&#45;&gt;RFC3676 -->
<g id="edge1" class="edge">
<title>obs_by&#45;&gt;RFC3676</title>
<path fill="none" stroke="black" d="M65.12,-270.93C111.7,-297.83 200.42,-349.05 271.82,-390.27"/>
<polygon fill="black" stroke="black" points="270.05,-393.29 280.46,-395.26 273.55,-387.23 270.05,-393.29"/>
</g>
<!-- RFC2646 -->
<g id="node4" class="node">
<title>RFC2646</title>
<g id="a_node4"><a xlink:href="RFC2646.html" xlink:title="This memo proposes a new parameter to be used with Text/Plain, and, in the presence of this parameter, the use of trailing whitespace to indicate flowed lines. &#160;This results in an encoding which appears as normal Text/Plain in older implementations, since it is in fact normal Text/Plain. [STANDARDS&#45;TRACK]" target="_top">
<ellipse fill="none" stroke="black" cx="1073.06" cy="-852.87" rx="140.71" ry="40.66"/>
<text xml:space="preserve" text-anchor="middle" x="1073.06" y="-864.32" font-family="Times,serif" font-size="14.00">RFC2646</text>
<text xml:space="preserve" text-anchor="middle" x="1073.06" y="-847.82" font-family="Times,serif" font-size="14.00">The Text/Plain Format Parameter</text>
<text xml:space="preserve" text-anchor="middle" x="1073.06" y="-831.32" font-family="Times,serif" font-size="14.00">1999</text>
</a>
</g>
</g>
<!-- obs&#45;&gt;RFC2646 -->
<g id="edge3" class="edge">
<title>obs&#45;&gt;RFC2646</title>
<path fill="none" stroke="black" d="M758.41,-671.2C812.94,-702.69 925.25,-767.53 999.87,-810.61"/>
<polygon fill="black" stroke="black" points="997.96,-813.55 1008.37,-815.52 1001.46,-807.49 997.96,-813.55"/>
</g>
<!-- updated_by -->
<g id="node6" class="node">
<title>updated_by</title>
<polygon fill="lightyellow" stroke="black" points="408.4,-70.33 351.15,-70.33 351.15,-34.33 408.4,-34.33 408.4,-70.33"/>
<text xml:space="preserve" text-anchor="middle" x="379.77" y="-47.28" font-family="Times,serif" font-size="14.00">updates</text>
</g>
<!-- updated_by&#45;&gt;RFC3676 -->
<g id="edge5" class="edge">
<title>updated_by&#45;&gt;RFC3676</title>
<path fill="none" stroke="black" d="M379.77,-70.56C379.77,-123.47 379.77,-279.29 379.77,-374.8"/>
<polygon fill="black" stroke="black" points="376.27,-374.62 379.77,-384.62 383.27,-374.62 376.27,-374.62"/>
</g>
<!-- rev_cites -->
<g id="node8" class="node">
<title>rev_cites</title>
<polygon fill="lightblue" stroke="black" points="753.42,-270.46 699.42,-270.46 699.42,-234.46 753.42,-234.46 753.42,-270.46"/>
<text xml:space="preserve" text-anchor="middle" x="726.42" y="-247.41" font-family="Times,serif" font-size="14.00">cites</text>
</g>
<!-- rev_cites&#45;&gt;RFC3676 -->
<g id="edge7" class="edge">
<title>rev_cites&#45;&gt;RFC3676</title>
<path fill="none" stroke="black" d="M698.93,-268.33C653.72,-294.44 561.32,-347.78 487.53,-390.38"/>
<polygon fill="black" stroke="black" points="485.93,-387.27 479.02,-395.3 489.43,-393.33 485.93,-387.27"/>
</g>
<!-- RFC7252 -->
<g id="node9" class="node">
<title>RFC7252</title>
<g id="a_node9"><a xlink:href="RFC7252.html" xlink:title="The Constrained Application Protocol (CoAP) is a specialized web transfer protocol for use with constrained nodes and constrained (e.g., low&#45;power, lossy) networks. The nodes often have 8&#45;bit microcontrollers with small amounts of ROM and RAM, while constrained networks such as IPv6 over Low&#45;Power Wireless Personal Area Networks (6LoWPANs) often have high packet error rates and a typical throughput of 10s of kbit/s. The protocol is designed for machine&#45; to&#45;machine (M2M) applications such as smart energy and building automation. CoAP provides a request/response interaction model between application endpoints, supports built&#45;in discovery of services and resources, and includes key concepts of the Web such as URIs and Internet media types. CoAP is designed to easily interface with HTTP for integration with the Web while meeting specialized requirements such as multicast support, very low overhead, and simplicity for constrained environments." target="_top">
<ellipse fill="none" stroke="black" cx="1073.06" cy="-52.33" rx="157.15" ry="52.33"/>
<text xml:space="preserve" text-anchor="middle" x="1073.06" y="-72.03" font-family="Times,serif" font-size="14.00">RFC7252</text>
<text xml:space="preserve" text-anchor="middle" x="1073.06" y="-55.53" font-family="Times,serif" font-size="14.00">The Constrained Application Protocol</text>
<text xml:space="preserve" text-anchor="middle" x="1073.06" y="-39.03" font-family="Times,serif" font-size="14.00">(CoAP)</text>
<text xml:space="preserve" text-anchor="middle" x="1073.06" y="-22.53" font-family="Times,serif" font-size="14.00">2014</text>
</a>
</g>
</g>
<!-- RFC7252&#45;&gt;rev_cites -->
<g id="edge8" class="edge">
<title>RFC7252&#45;&gt;rev_cites</title>
<path fill="none" stroke="black" d="M993.97,-97.99C921.88,-139.61 818.55,-199.27 763.79,-230.88"/>
<polygon fill="black" stroke="black" points="762.05,-227.84 755.14,-235.88 765.55,-233.91 762.05,-227.84"/>
</g>
</g>
</svg>
