<?xml version="1.0" encoding="UTF-8" standalone="no"?>
<!DOCTYPE svg PUBLIC "-//W3C//DTD SVG 1.1//EN"
 "http://www.w3.org/Graphics/SVG/1.1/DTD/svg11.dtd">
<!-- Generated by graphviz version 14.1.1 (20251213.1925)
 -->
<!-- Title: Flow Pages: 1 -->
<svg width="1235pt" height="1216pt"
 viewBox="0.00 0.00 1235.00 1216.00" xmlns="http://www.w3.org/2000/svg" xmlns:xlink="http://www.w3.org/1999/xlink">
<g id="graph0" class="graph" transform="scale(1 1) rotate(0) translate(4 1212.32)">
<title>Flow</title>
<polygon fill="white" stroke="none" points="-4,4 -4,-1212.32 1231.4,-1212.32 1231.4,4 -4,4"/>
<!-- RFC3606 -->
<g id="node1" class="node">
<title>RFC3606</title>
<g id="a_node1"><a xlink:title="This memo defines objects used for managing ATM&#45;based interfaces, devices, and services, in addition to those defined in RFC 2515, the ATM&#45;MIB, to provide additional support for the management of ATM Switched Virtual Connections (SVCs) and ATM Permanent Virtual Connections (PVCs).">
<ellipse fill="green" stroke="black" cx="569.68" cy="-687.33" rx="159.28" ry="52.33"/>
<text xml:space="preserve" text-anchor="middle" x="569.68" y="-707.03" font-family="Times,serif" font-size="14.00">RFC3606</text>
<text xml:space="preserve" text-anchor="middle" x="569.68" y="-690.53" font-family="Times,serif" font-size="14.00">Definitions of Supplemental Managed</text>
<text xml:space="preserve" text-anchor="middle" x="569.68" y="-674.03" font-family="Times,serif" font-size="14.00">Objects for ATM Interface</text>
<text xml:space="preserve" text-anchor="middle" x="569.68" y="-657.53" font-family="Times,serif" font-size="14.00">2003</text>
</a>
</g>
</g>
<!-- obs -->
<g id="node3" class="node">
<title>obs</title>
<polygon fill="lightblue" stroke="black" points="820.21,-759.33 753.96,-759.33 753.96,-723.33 820.21,-723.33 820.21,-759.33"/>
<text xml:space="preserve" text-anchor="middle" x="787.08" y="-736.28" font-family="Times,serif" font-size="14.00">obsoletes</text>
</g>
<!-- RFC3606&#45;&gt;obs -->
<g id="edge2" class="edge">
<title>RFC3606&#45;&gt;obs</title>
<path fill="none" stroke="black" d="M697.23,-719.05C713.54,-723.14 729.26,-727.08 742.82,-730.48"/>
<polygon fill="black" stroke="black" points="741.65,-733.79 752.2,-732.83 743.35,-727 741.65,-733.79"/>
</g>
<!-- updates -->
<g id="node4" class="node">
<title>updates</title>
<polygon fill="lightyellow" stroke="black" points="815.71,-705.33 758.46,-705.33 758.46,-669.33 815.71,-669.33 815.71,-705.33"/>
<text xml:space="preserve" text-anchor="middle" x="787.08" y="-682.28" font-family="Times,serif" font-size="14.00">updates</text>
</g>
<!-- RFC3606&#45;&gt;updates -->
<g id="edge3" class="edge">
<title>RFC3606&#45;&gt;updates</title>
<path fill="none" stroke="black" d="M729.21,-687.33C735.36,-687.33 741.22,-687.33 746.69,-687.33"/>
<polygon fill="black" stroke="black" points="746.45,-690.83 756.45,-687.33 746.45,-683.83 746.45,-690.83"/>
</g>
<!-- cites -->
<g id="node6" class="node">
<title>cites</title>
<polygon fill="lightblue" stroke="black" points="814.08,-651.33 760.08,-651.33 760.08,-615.33 814.08,-615.33 814.08,-651.33"/>
<text xml:space="preserve" text-anchor="middle" x="787.08" y="-628.28" font-family="Times,serif" font-size="14.00">cites</text>
</g>
<!-- RFC3606&#45;&gt;cites -->
<g id="edge5" class="edge">
<title>RFC3606&#45;&gt;cites</title>
<path fill="none" stroke="black" d="M697.23,-655.6C715.87,-650.93 733.74,-646.45 748.49,-642.75"/>
<polygon fill="black" stroke="black" points="749.3,-646.15 758.15,-640.33 747.6,-639.36 749.3,-646.15"/>
</g>
<!-- obs_by -->
<g id="node2" class="node">
<title>obs_by</title>
<polygon fill="lightblue" stroke="black" points="385.41,-759.33 319.16,-759.33 319.16,-723.33 385.41,-723.33 385.41,-759.33"/>
<text xml:space="preserve" text-anchor="middle" x="352.28" y="-736.28" font-family="Times,serif" font-size="14.00">obsoletes</text>
</g>
<!-- obs_by&#45;&gt;RFC3606 -->
<g id="edge1" class="edge">
<title>obs_by&#45;&gt;RFC3606</title>
<path fill="none" stroke="black" d="M385.53,-733.24C398.55,-729.98 414.53,-725.97 431.58,-721.7"/>
<polygon fill="black" stroke="black" points="432,-725.2 440.85,-719.37 430.3,-718.41 432,-725.2"/>
</g>
<!-- updated_by -->
<g id="node5" class="node">
<title>updated_by</title>
<polygon fill="lightyellow" stroke="black" points="380.91,-705.33 323.66,-705.33 323.66,-669.33 380.91,-669.33 380.91,-705.33"/>
<text xml:space="preserve" text-anchor="middle" x="352.28" y="-682.28" font-family="Times,serif" font-size="14.00">updates</text>
</g>
<!-- updated_by&#45;&gt;RFC3606 -->
<g id="edge4" class="edge">
<title>updated_by&#45;&gt;RFC3606</title>
<path fill="none" stroke="black" d="M381,-687.33C386.39,-687.33 392.38,-687.33 398.84,-687.33"/>
<polygon fill="black" stroke="black" points="398.58,-690.83 408.58,-687.33 398.58,-683.83 398.58,-690.83"/>
</g>
<!-- RFC3410 -->
<g id="node7" class="node">
<title>RFC3410</title>
<g id="a_node7"><a xlink:href="RFC3410.html" xlink:title="The purpose of this document is to provide an overview of the third version of the Internet&#45;Standard Management Framework, termed the SNMP version 3 Framework (SNMPv3). &#160;This Framework is derived from and builds upon both the original Internet&#45;Standard Management Framework (SNMPv1) and the second Internet&#45;Standard Management Framework (SNMPv2). &#160;The architecture is designed to be modular to allow the evolution of the Framework over time. &#160;The document explains why using SNMPv3 instead of SNMPv1 or SNMPv2 is strongly recommended. &#160;The document also recommends that RFCs 1157, 1441, 1901, 1909 and 1910 be retired by moving them to Historic status. &#160;This document obsoletes RFC 2570. &#160;This memo provides information for the Internet community." target="_top">
<ellipse fill="none" stroke="black" cx="1036.3" cy="-1144.33" rx="137" ry="63.99"/>
<text xml:space="preserve" text-anchor="middle" x="1036.3" y="-1172.28" font-family="Times,serif" font-size="14.00">RFC3410</text>
<text xml:space="preserve" text-anchor="middle" x="1036.3" y="-1155.78" font-family="Times,serif" font-size="14.00">Introduction and Applicability</text>
<text xml:space="preserve" text-anchor="middle" x="1036.3" y="-1139.28" font-family="Times,serif" font-size="14.00">Statements for Internet&#45;Standard</text>
<text xml:space="preserve" text-anchor="middle" x="1036.3" y="-1122.78" font-family="Times,serif" font-size="14.00">Management Framework</text>
<text xml:space="preserve" text-anchor="middle" x="1036.3" y="-1106.28" font-family="Times,serif" font-size="14.00">2002</text>
</a>
</g>
</g>
<!-- cites&#45;&gt;RFC3410 -->
<g id="edge6" class="edge">
<title>cites&#45;&gt;RFC3410</title>
<path fill="none" stroke="black" d="M814.13,-651.65C816.52,-654.3 818.64,-657.2 820.21,-660.33 861.35,-742.06 791.12,-997.52 845.21,-1071.33 859.1,-1090.28 878.59,-1104.31 899.84,-1114.7"/>
<polygon fill="black" stroke="black" points="898.13,-1117.77 908.68,-1118.74 901.04,-1111.4 898.13,-1117.77"/>
</g>
<!-- RFC2578 -->
<g id="node8" class="node">
<title>RFC2578</title>
<g id="a_node8"><a xlink:href="RFC2578.html" xlink:title="It is the purpose of this document, the Structure of Management Information Version 2 (SMIv2), to define that adapted subset, and to assign a set of associated administrative values. [STANDARDS&#45;TRACK]" target="_top">
<ellipse fill="none" stroke="black" cx="1036.3" cy="-1010.33" rx="159.28" ry="52.33"/>
<text xml:space="preserve" text-anchor="middle" x="1036.3" y="-1030.03" font-family="Times,serif" font-size="14.00">RFC2578</text>
<text xml:space="preserve" text-anchor="middle" x="1036.3" y="-1013.53" font-family="Times,serif" font-size="14.00">Structure of Management Information</text>
<text xml:space="preserve" text-anchor="middle" x="1036.3" y="-997.03" font-family="Times,serif" font-size="14.00">Version 2 (SMIv2)</text>
<text xml:space="preserve" text-anchor="middle" x="1036.3" y="-980.53" font-family="Times,serif" font-size="14.00">1999</text>
</a>
</g>
</g>
<!-- cites&#45;&gt;RFC2578 -->
<g id="edge7" class="edge">
<title>cites&#45;&gt;RFC2578</title>
<path fill="none" stroke="black" d="M814.05,-651.69C816.46,-654.33 818.6,-657.22 820.21,-660.33 849.92,-717.53 805.01,-898.93 845.21,-949.33 855.85,-962.66 869.42,-973.13 884.41,-981.33"/>
<polygon fill="black" stroke="black" points="882.59,-984.33 893.09,-985.72 885.75,-978.08 882.59,-984.33"/>
</g>
<!-- RFC2579 -->
<g id="node9" class="node">
<title>RFC2579</title>
<g id="a_node9"><a xlink:href="RFC2579.html" xlink:title="It is the purpose of this document to define the initial set of textual conventions available to all MIB modules. [STANDARDS&#45;TRACK]" target="_top">
<ellipse fill="none" stroke="black" cx="1036.3" cy="-899.33" rx="134.88" ry="40.66"/>
<text xml:space="preserve" text-anchor="middle" x="1036.3" y="-910.78" font-family="Times,serif" font-size="14.00">RFC2579</text>
<text xml:space="preserve" text-anchor="middle" x="1036.3" y="-894.28" font-family="Times,serif" font-size="14.00">Textual Conventions for SMIv2</text>
<text xml:space="preserve" text-anchor="middle" x="1036.3" y="-877.78" font-family="Times,serif" font-size="14.00">1999</text>
</a>
</g>
</g>
<!-- cites&#45;&gt;RFC2579 -->
<g id="edge8" class="edge">
<title>cites&#45;&gt;RFC2579</title>
<path fill="none" stroke="black" d="M813.91,-651.76C816.35,-654.39 818.53,-657.26 820.21,-660.33 861.14,-735.02 788.75,-786.56 845.21,-850.33 858.84,-865.72 876.6,-876.58 895.79,-884.19"/>
<polygon fill="black" stroke="black" points="894.56,-887.47 905.16,-887.57 896.94,-880.88 894.56,-887.47"/>
</g>
<!-- RFC2580 -->
<g id="node10" class="node">
<title>RFC2580</title>
<g id="a_node10"><a xlink:href="RFC2580.html" xlink:title="Collections of related objects are defined in MIB modules. &#160;It may be useful to define the acceptable lower&#45;bounds of implementation, along with the actual level of implementation achieved. &#160;It is the purpose of this document to define the notation used for these purposes. [STANDARDS&#45;TRACK]" target="_top">
<ellipse fill="none" stroke="black" cx="1036.3" cy="-800.33" rx="152.38" ry="40.66"/>
<text xml:space="preserve" text-anchor="middle" x="1036.3" y="-811.78" font-family="Times,serif" font-size="14.00">RFC2580</text>
<text xml:space="preserve" text-anchor="middle" x="1036.3" y="-795.28" font-family="Times,serif" font-size="14.00">Conformance Statements for SMIv2</text>
<text xml:space="preserve" text-anchor="middle" x="1036.3" y="-778.78" font-family="Times,serif" font-size="14.00">1999</text>
</a>
</g>
</g>
<!-- cites&#45;&gt;RFC2580 -->
<g id="edge9" class="edge">
<title>cites&#45;&gt;RFC2580</title>
<path fill="none" stroke="black" d="M813.18,-651.69C815.81,-654.36 818.24,-657.26 820.21,-660.33 842.66,-695.25 815.65,-721.17 845.21,-750.33 857.37,-762.32 872.03,-771.53 887.76,-778.6"/>
<polygon fill="black" stroke="black" points="886.26,-781.76 896.84,-782.36 888.94,-775.29 886.26,-781.76"/>
</g>
<!-- RFC2515 -->
<g id="node11" class="node">
<title>RFC2515</title>
<g id="a_node11"><a xlink:href="RFC2515.html" xlink:title="This memo defines a portion of the Management Information Base (MIB) for use with network management protocols in the Internet community. &#160;In particular, it describes objects used for managing ATM&#45;based interfaces, devices, networks and services. [STANDARDS&#45;TRACK]" target="_top">
<ellipse fill="none" stroke="black" cx="1036.3" cy="-689.33" rx="172" ry="52.33"/>
<text xml:space="preserve" text-anchor="middle" x="1036.3" y="-709.03" font-family="Times,serif" font-size="14.00">RFC2515</text>
<text xml:space="preserve" text-anchor="middle" x="1036.3" y="-692.53" font-family="Times,serif" font-size="14.00">Definitions of Managed Objects for ATM</text>
<text xml:space="preserve" text-anchor="middle" x="1036.3" y="-676.03" font-family="Times,serif" font-size="14.00">Management</text>
<text xml:space="preserve" text-anchor="middle" x="1036.3" y="-659.53" font-family="Times,serif" font-size="14.00">1999</text>
</a>
</g>
</g>
<!-- cites&#45;&gt;RFC2515 -->
<g id="edge10" class="edge">
<title>cites&#45;&gt;RFC2515</title>
<path fill="none" stroke="black" d="M814.54,-639.32C832.79,-643.45 858.68,-649.32 886.34,-655.58"/>
<polygon fill="black" stroke="black" points="885.44,-658.97 895.96,-657.76 886.98,-652.14 885.44,-658.97"/>
</g>
<!-- RFC2863 -->
<g id="node12" class="node">
<title>RFC2863</title>
<g id="a_node12"><a xlink:href="RFC2863.html" xlink:title="This memo discusses the &#39;interfaces&#39; group of MIB&#45;II, especially the experience gained from the definition of numerous media&#45;specific MIB modules for use in conjunction with the &#39;interfaces&#39; group for managing various sub&#45;layers beneath the internetwork&#45;layer. &#160;It specifies clarifications to, and extensions of, the architectural issues within the MIB&#45;II model of the &#39;interfaces&#39; group. [STANDARDS&#45;TRACK]" target="_top">
<ellipse fill="none" stroke="black" cx="1036.3" cy="-578.33" rx="114.73" ry="40.66"/>
<text xml:space="preserve" text-anchor="middle" x="1036.3" y="-589.78" font-family="Times,serif" font-size="14.00">RFC2863</text>
<text xml:space="preserve" text-anchor="middle" x="1036.3" y="-573.28" font-family="Times,serif" font-size="14.00">The Interfaces Group MIB</text>
<text xml:space="preserve" text-anchor="middle" x="1036.3" y="-556.78" font-family="Times,serif" font-size="14.00">2000</text>
</a>
</g>
</g>
<!-- cites&#45;&gt;RFC2863 -->
<g id="edge11" class="edge">
<title>cites&#45;&gt;RFC2863</title>
<path fill="none" stroke="black" d="M814.54,-627.44C841.7,-621.4 885.75,-611.6 927.4,-602.33"/>
<polygon fill="black" stroke="black" points="928.01,-605.78 937.01,-600.19 926.49,-598.95 928.01,-605.78"/>
</g>
<!-- RFC2496 -->
<g id="node13" class="node">
<title>RFC2496</title>
<g id="a_node13"><a xlink:href="RFC2496.html" xlink:title="This memo defines a portion of the Management Information Base (MIB) for use with network management protocols in the Internet community. &#160;In particular, it describes objects used for managing DS3 and E3 interfaces. &#160;This document is a companion document with Definitions of Managed Objects for the DS0 (RFC 2494), DS1/E1/DS2/E2 (RFC 2495), and the work in progress SONET/SDH Interface Types. [STANDARDS&#45;TRACK]" target="_top">
<ellipse fill="none" stroke="black" cx="1036.3" cy="-467.33" rx="159.81" ry="52.33"/>
<text xml:space="preserve" text-anchor="middle" x="1036.3" y="-487.03" font-family="Times,serif" font-size="14.00">RFC2496</text>
<text xml:space="preserve" text-anchor="middle" x="1036.3" y="-470.53" font-family="Times,serif" font-size="14.00">Definitions of Managed Object for the</text>
<text xml:space="preserve" text-anchor="middle" x="1036.3" y="-454.03" font-family="Times,serif" font-size="14.00">DS3/E3 Interface Type</text>
<text xml:space="preserve" text-anchor="middle" x="1036.3" y="-437.53" font-family="Times,serif" font-size="14.00">1999</text>
</a>
</g>
</g>
<!-- cites&#45;&gt;RFC2496 -->
<g id="edge12" class="edge">
<title>cites&#45;&gt;RFC2496</title>
<path fill="none" stroke="black" d="M793.35,-615C801,-591.59 817.39,-551.35 845.21,-528.33 858.92,-516.98 874.77,-507.73 891.36,-500.19"/>
<polygon fill="black" stroke="black" points="892.58,-503.48 900.38,-496.31 889.81,-497.05 892.58,-503.48"/>
</g>
<!-- RFC3592 -->
<g id="node14" class="node">
<title>RFC3592</title>
<g id="a_node14"><a xlink:href="RFC3592.html" xlink:title="This memo defines a portion of the Management Information Base (MIB) for use with network management protocols in TCP/IP&#45;based internets. &#160;In particular, it defines objects for managing Synchronous Optical Network/Synchronous Digital Hierarchy (SONET/SDH) interfaces. &#160;This document is a companion to the documents that define Managed Objects for the DS1/E1/DS2/E2 and DS3/E3 Interface Types. &#160;This memo replaces RFC 2558. &#160;Changes relative to RFC 2558 are summarized in the MIB module&#39;s REVISION clause. [STANDARDS&#45;TRACK]" target="_top">
<ellipse fill="none" stroke="black" cx="1036.3" cy="-321.33" rx="180.49" ry="75.66"/>
<text xml:space="preserve" text-anchor="middle" x="1036.3" y="-357.53" font-family="Times,serif" font-size="14.00">RFC3592</text>
<text xml:space="preserve" text-anchor="middle" x="1036.3" y="-341.03" font-family="Times,serif" font-size="14.00">Definitions of Managed Objects for the</text>
<text xml:space="preserve" text-anchor="middle" x="1036.3" y="-324.53" font-family="Times,serif" font-size="14.00">Synchronous Optical Network/Synchronous</text>
<text xml:space="preserve" text-anchor="middle" x="1036.3" y="-308.03" font-family="Times,serif" font-size="14.00">Digital Hierarchy (SONET/SDH) Interface</text>
<text xml:space="preserve" text-anchor="middle" x="1036.3" y="-291.53" font-family="Times,serif" font-size="14.00">Type</text>
<text xml:space="preserve" text-anchor="middle" x="1036.3" y="-275.03" font-family="Times,serif" font-size="14.00">2003</text>
</a>
</g>
</g>
<!-- cites&#45;&gt;RFC3592 -->
<g id="edge13" class="edge">
<title>cites&#45;&gt;RFC3592</title>
<path fill="none" stroke="black" d="M787.59,-615.06C787.42,-573.14 792.68,-468.88 845.21,-406.33 855.98,-393.49 869.09,-382.52 883.32,-373.16"/>
<polygon fill="black" stroke="black" points="884.91,-376.29 891.54,-368.03 881.21,-370.35 884.91,-376.29"/>
</g>
<!-- RFC1694 -->
<g id="node15" class="node">
<title>RFC1694</title>
<g id="a_node15"><a xlink:href="RFC1694.html" xlink:title="This memo defines a portion of the Management Information Base (MIB) for use with network management protocols in TCP/IP&#45;based internets. &#160;In particular, it defines objects for managing objects for SMDS access interfaces. [STANDARDS&#45;TRACK]" target="_top">
<ellipse fill="none" stroke="black" cx="1036.3" cy="-175.33" rx="178.37" ry="52.33"/>
<text xml:space="preserve" text-anchor="middle" x="1036.3" y="-195.03" font-family="Times,serif" font-size="14.00">RFC1694</text>
<text xml:space="preserve" text-anchor="middle" x="1036.3" y="-178.53" font-family="Times,serif" font-size="14.00">Definitions of Managed Objects for SMDS</text>
<text xml:space="preserve" text-anchor="middle" x="1036.3" y="-162.03" font-family="Times,serif" font-size="14.00">Interfaces using SMIv2</text>
<text xml:space="preserve" text-anchor="middle" x="1036.3" y="-145.53" font-family="Times,serif" font-size="14.00">1994</text>
</a>
</g>
</g>
<!-- cites&#45;&gt;RFC1694 -->
<g id="edge14" class="edge">
<title>cites&#45;&gt;RFC1694</title>
<path fill="none" stroke="black" d="M788.23,-614.98C789.15,-544.83 795.88,-294.7 845.21,-236.33 854.21,-225.67 865.08,-216.86 877.01,-209.58"/>
<polygon fill="black" stroke="black" points="878.48,-212.76 885.47,-204.8 875.04,-206.67 878.48,-212.76"/>
</g>
<!-- RFC2514 -->
<g id="node16" class="node">
<title>RFC2514</title>
<g id="a_node16"><a xlink:href="RFC2514.html" xlink:title="This memo describes Textual Conventions and OBJECT&#45;IDENTITIES used for managing ATM&#45;based interfaces, devices, networks and services. [STANDARDS&#45;TRACK]" target="_top">
<ellipse fill="none" stroke="black" cx="1036.3" cy="-52.33" rx="191.1" ry="52.33"/>
<text xml:space="preserve" text-anchor="middle" x="1036.3" y="-72.03" font-family="Times,serif" font-size="14.00">RFC2514</text>
<text xml:space="preserve" text-anchor="middle" x="1036.3" y="-55.53" font-family="Times,serif" font-size="14.00">Definitions of Textual Conventions and</text>
<text xml:space="preserve" text-anchor="middle" x="1036.3" y="-39.03" font-family="Times,serif" font-size="14.00">OBJECT&#45;IDENTITIES for ATM Management</text>
<text xml:space="preserve" text-anchor="middle" x="1036.3" y="-22.53" font-family="Times,serif" font-size="14.00">1999</text>
</a>
</g>
</g>
<!-- cites&#45;&gt;RFC2514 -->
<g id="edge15" class="edge">
<title>cites&#45;&gt;RFC2514</title>
<path fill="none" stroke="black" d="M788.94,-614.96C793.16,-527.3 812.94,-154.02 845.21,-114.33 853.09,-104.63 862.51,-96.44 872.88,-89.52"/>
<polygon fill="black" stroke="black" points="874.68,-92.52 881.37,-84.3 871.01,-86.56 874.68,-92.52"/>
</g>
<!-- rev_cites -->
<g id="node17" class="node">
<title>rev_cites</title>
<polygon fill="lightblue" stroke="black" points="379.28,-651.33 325.28,-651.33 325.28,-615.33 379.28,-615.33 379.28,-651.33"/>
<text xml:space="preserve" text-anchor="middle" x="352.28" y="-628.28" font-family="Times,serif" font-size="14.00">cites</text>
</g>
<!-- rev_cites&#45;&gt;RFC3606 -->
<g id="edge16" class="edge">
<title>rev_cites&#45;&gt;RFC3606</title>
<path fill="none" stroke="black" d="M379.69,-639.95C393.53,-643.42 411.65,-647.96 431.19,-652.86"/>
<polygon fill="black" stroke="black" points="430.16,-656.21 440.71,-655.24 431.86,-649.42 430.16,-656.21"/>
</g>
<!-- RFC6632 -->
<g id="node18" class="node">
<title>RFC6632</title>
<g id="a_node18"><a xlink:href="RFC6632.html" xlink:title="This document gives an overview of the IETF network management standards and summarizes existing and ongoing development of IETF Standards Track network management protocols and data models. &#160;The document refers to other overview documents, where they exist and classifies the standards for easy orientation. &#160;The purpose of this document is, on the one hand, to help system developers and users to select appropriate standard management protocols and data models to address relevant management needs. &#160;On the other hand, the document can be used as an overview and guideline by other Standard Development Organizations or bodies planning to use IETF management technologies and data models. &#160;This document does not cover Operations, Administration, and Maintenance (OAM) technologies on the data&#45;path, e.g., OAM of tunnels, MPLS Transport Profile (MPLS&#45;TP) OAM, and pseudowire as well as the corresponding management models. &#160;This document is not an Internet Standards Track specification; it is published for informational purposes." target="_top">
<ellipse fill="none" stroke="black" cx="147.08" cy="-633.33" rx="147.08" ry="52.33"/>
<text xml:space="preserve" text-anchor="middle" x="147.08" y="-653.03" font-family="Times,serif" font-size="14.00">RFC6632</text>
<text xml:space="preserve" text-anchor="middle" x="147.08" y="-636.53" font-family="Times,serif" font-size="14.00">An Overview of the IETF Network</text>
<text xml:space="preserve" text-anchor="middle" x="147.08" y="-620.03" font-family="Times,serif" font-size="14.00">Management Standards</text>
<text xml:space="preserve" text-anchor="middle" x="147.08" y="-603.53" font-family="Times,serif" font-size="14.00">2012</text>
</a>
</g>
</g>
<!-- RFC6632&#45;&gt;rev_cites -->
<g id="edge17" class="edge">
<title>RFC6632&#45;&gt;rev_cites</title>
<path fill="none" stroke="black" d="M294.41,-633.33C301.12,-633.33 307.51,-633.33 313.42,-633.33"/>
<polygon fill="black" stroke="black" points="313.31,-636.83 323.31,-633.33 313.31,-629.83 313.31,-636.83"/>
</g>
</g>
</svg>
