<?xml version="1.0" encoding="UTF-8" standalone="no"?>
<!DOCTYPE svg PUBLIC "-//W3C//DTD SVG 1.1//EN"
 "http://www.w3.org/Graphics/SVG/1.1/DTD/svg11.dtd">
<!-- Generated by graphviz version 14.1.1 (20251213.1925)
 -->
<!-- Title: Flow Pages: 1 -->
<svg width="870pt" height="335pt"
 viewBox="0.00 0.00 870.00 335.00" xmlns="http://www.w3.org/2000/svg" xmlns:xlink="http://www.w3.org/1999/xlink">
<g id="graph0" class="graph" transform="scale(1 1) rotate(0) translate(4 330.98)">
<title>Flow</title>
<polygon fill="white" stroke="none" points="-4,4 -4,-330.98 865.57,-330.98 865.57,4 -4,4"/>
<!-- RFC3571 -->
<g id="node1" class="node">
<title>RFC3571</title>
<g id="a_node1"><a xlink:title="This document describes a portion of the Policy Information Base (PIB) to control policy usage collection and reporting in a device. &#160;The provisioning classes specified here allow a Policy Decision Point (PDP) to select which policy objects should collect usage information, what information should be collected and when it should be reported. &#160;This PIB requires the presence of other PIBs (defined elsewhere) that provide the policy objects from which usage information is collected. &#160;This memo provides information for the Internet community.">
<ellipse fill="green" stroke="black" cx="257.95" cy="-205.66" rx="166.7" ry="52.33"/>
<text xml:space="preserve" text-anchor="middle" x="257.95" y="-225.36" font-family="Times,serif" font-size="14.00">RFC3571</text>
<text xml:space="preserve" text-anchor="middle" x="257.95" y="-208.86" font-family="Times,serif" font-size="14.00">Framework Policy Information Base for</text>
<text xml:space="preserve" text-anchor="middle" x="257.95" y="-192.36" font-family="Times,serif" font-size="14.00">Usage Feedback</text>
<text xml:space="preserve" text-anchor="middle" x="257.95" y="-175.86" font-family="Times,serif" font-size="14.00">2003</text>
</a>
</g>
</g>
<!-- obs -->
<g id="node3" class="node">
<title>obs</title>
<polygon fill="lightblue" stroke="black" points="515.9,-277.66 449.65,-277.66 449.65,-241.66 515.9,-241.66 515.9,-277.66"/>
<text xml:space="preserve" text-anchor="middle" x="482.78" y="-254.61" font-family="Times,serif" font-size="14.00">obsoletes</text>
</g>
<!-- RFC3571&#45;&gt;obs -->
<g id="edge2" class="edge">
<title>RFC3571&#45;&gt;obs</title>
<path fill="none" stroke="black" d="M390.82,-237.62C408.03,-241.79 424.55,-245.79 438.69,-249.22"/>
<polygon fill="black" stroke="black" points="437.47,-252.52 448.01,-251.48 439.12,-245.72 437.47,-252.52"/>
</g>
<!-- updates -->
<g id="node4" class="node">
<title>updates</title>
<polygon fill="lightyellow" stroke="black" points="511.4,-223.66 454.15,-223.66 454.15,-187.66 511.4,-187.66 511.4,-223.66"/>
<text xml:space="preserve" text-anchor="middle" x="482.78" y="-200.61" font-family="Times,serif" font-size="14.00">updates</text>
</g>
<!-- RFC3571&#45;&gt;updates -->
<g id="edge3" class="edge">
<title>RFC3571&#45;&gt;updates</title>
<path fill="none" stroke="black" d="M424.97,-205.66C431.14,-205.66 437.01,-205.66 442.48,-205.66"/>
<polygon fill="black" stroke="black" points="442.25,-209.16 452.25,-205.66 442.25,-202.16 442.25,-209.16"/>
</g>
<!-- cites -->
<g id="node6" class="node">
<title>cites</title>
<polygon fill="lightblue" stroke="black" points="509.78,-169.66 455.78,-169.66 455.78,-133.66 509.78,-133.66 509.78,-169.66"/>
<text xml:space="preserve" text-anchor="middle" x="482.78" y="-146.61" font-family="Times,serif" font-size="14.00">cites</text>
</g>
<!-- RFC3571&#45;&gt;cites -->
<g id="edge5" class="edge">
<title>RFC3571&#45;&gt;cites</title>
<path fill="none" stroke="black" d="M390.82,-173.7C410.44,-168.95 429.18,-164.4 444.5,-160.69"/>
<polygon fill="black" stroke="black" points="445.14,-164.14 454.04,-158.38 443.49,-157.33 445.14,-164.14"/>
</g>
<!-- obs_by -->
<g id="node2" class="node">
<title>obs_by</title>
<polygon fill="lightblue" stroke="black" points="66.25,-277.66 0,-277.66 0,-241.66 66.25,-241.66 66.25,-277.66"/>
<text xml:space="preserve" text-anchor="middle" x="33.12" y="-254.61" font-family="Times,serif" font-size="14.00">obsoletes</text>
</g>
<!-- obs_by&#45;&gt;RFC3571 -->
<g id="edge1" class="edge">
<title>obs_by&#45;&gt;RFC3571</title>
<path fill="none" stroke="black" d="M66.53,-251.81C79.92,-248.56 96.45,-244.55 114.14,-240.27"/>
<polygon fill="black" stroke="black" points="114.91,-243.68 123.81,-237.93 113.26,-236.88 114.91,-243.68"/>
</g>
<!-- updated_by -->
<g id="node5" class="node">
<title>updated_by</title>
<polygon fill="lightyellow" stroke="black" points="61.75,-223.66 4.5,-223.66 4.5,-187.66 61.75,-187.66 61.75,-223.66"/>
<text xml:space="preserve" text-anchor="middle" x="33.12" y="-200.61" font-family="Times,serif" font-size="14.00">updates</text>
</g>
<!-- updated_by&#45;&gt;RFC3571 -->
<g id="edge4" class="edge">
<title>updated_by&#45;&gt;RFC3571</title>
<path fill="none" stroke="black" d="M61.9,-205.66C67.28,-205.66 73.27,-205.66 79.73,-205.66"/>
<polygon fill="black" stroke="black" points="79.48,-209.16 89.48,-205.66 79.48,-202.16 79.48,-209.16"/>
</g>
<!-- RFC2119 -->
<g id="node7" class="node">
<title>RFC2119</title>
<g id="a_node7"><a xlink:href="RFC2119.html" xlink:title="In many standards track documents several words are used to signify the requirements in the specification. &#160;These words are often capitalized. &#160;This document defines these words as they should be interpreted in IETF documents. &#160;This document specifies an Internet Best Current Practices for the Internet Community, and requests discussion and suggestions for improvements." target="_top">
<ellipse fill="none" stroke="black" cx="701.24" cy="-274.66" rx="160.34" ry="52.33"/>
<text xml:space="preserve" text-anchor="middle" x="701.24" y="-294.36" font-family="Times,serif" font-size="14.00">RFC2119</text>
<text xml:space="preserve" text-anchor="middle" x="701.24" y="-277.86" font-family="Times,serif" font-size="14.00">Key words for use in RFCs to Indicate</text>
<text xml:space="preserve" text-anchor="middle" x="701.24" y="-261.36" font-family="Times,serif" font-size="14.00">Requirement Levels</text>
<text xml:space="preserve" text-anchor="middle" x="701.24" y="-244.86" font-family="Times,serif" font-size="14.00">1997</text>
</a>
</g>
</g>
<!-- cites&#45;&gt;RFC2119 -->
<g id="edge6" class="edge">
<title>cites&#45;&gt;RFC2119</title>
<path fill="none" stroke="black" d="M506.85,-169.9C510,-172.72 513.11,-175.68 515.9,-178.66 528.73,-192.34 526.01,-201.25 540.9,-212.66 551.12,-220.49 562.44,-227.44 574.21,-233.6"/>
<polygon fill="black" stroke="black" points="572.32,-236.56 582.83,-237.9 575.45,-230.3 572.32,-236.56"/>
</g>
<!-- RFC2578 -->
<g id="node8" class="node">
<title>RFC2578</title>
<g id="a_node8"><a xlink:href="RFC2578.html" xlink:title="It is the purpose of this document, the Structure of Management Information Version 2 (SMIv2), to define that adapted subset, and to assign a set of associated administrative values. [STANDARDS&#45;TRACK]" target="_top">
<ellipse fill="none" stroke="black" cx="701.24" cy="-151.66" rx="159.28" ry="52.33"/>
<text xml:space="preserve" text-anchor="middle" x="701.24" y="-171.36" font-family="Times,serif" font-size="14.00">RFC2578</text>
<text xml:space="preserve" text-anchor="middle" x="701.24" y="-154.86" font-family="Times,serif" font-size="14.00">Structure of Management Information</text>
<text xml:space="preserve" text-anchor="middle" x="701.24" y="-138.36" font-family="Times,serif" font-size="14.00">Version 2 (SMIv2)</text>
<text xml:space="preserve" text-anchor="middle" x="701.24" y="-121.86" font-family="Times,serif" font-size="14.00">1999</text>
</a>
</g>
</g>
<!-- cites&#45;&gt;RFC2578 -->
<g id="edge7" class="edge">
<title>cites&#45;&gt;RFC2578</title>
<path fill="none" stroke="black" d="M509.89,-151.66C515.93,-151.66 522.8,-151.66 530.26,-151.66"/>
<polygon fill="black" stroke="black" points="530.07,-155.16 540.07,-151.66 530.07,-148.16 530.07,-155.16"/>
</g>
<!-- RFC2579 -->
<g id="node9" class="node">
<title>RFC2579</title>
<g id="a_node9"><a xlink:href="RFC2579.html" xlink:title="It is the purpose of this document to define the initial set of textual conventions available to all MIB modules. [STANDARDS&#45;TRACK]" target="_top">
<ellipse fill="none" stroke="black" cx="701.24" cy="-40.66" rx="134.88" ry="40.66"/>
<text xml:space="preserve" text-anchor="middle" x="701.24" y="-52.11" font-family="Times,serif" font-size="14.00">RFC2579</text>
<text xml:space="preserve" text-anchor="middle" x="701.24" y="-35.61" font-family="Times,serif" font-size="14.00">Textual Conventions for SMIv2</text>
<text xml:space="preserve" text-anchor="middle" x="701.24" y="-19.11" font-family="Times,serif" font-size="14.00">1999</text>
</a>
</g>
</g>
<!-- cites&#45;&gt;RFC2579 -->
<g id="edge8" class="edge">
<title>cites&#45;&gt;RFC2579</title>
<path fill="none" stroke="black" d="M496.85,-133.23C507.35,-119.69 523.21,-101.78 540.9,-90.66 554.06,-82.39 568.7,-75.38 583.62,-69.49"/>
<polygon fill="black" stroke="black" points="584.45,-72.92 592.57,-66.11 581.98,-66.37 584.45,-72.92"/>
</g>
<!-- rev_cites -->
<g id="node10" class="node">
<title>rev_cites</title>
<polygon fill="lightblue" stroke="black" points="60.12,-169.66 6.12,-169.66 6.12,-133.66 60.12,-133.66 60.12,-169.66"/>
<text xml:space="preserve" text-anchor="middle" x="33.12" y="-146.61" font-family="Times,serif" font-size="14.00">cites</text>
</g>
<!-- rev_cites&#45;&gt;RFC3571 -->
<g id="edge9" class="edge">
<title>rev_cites&#45;&gt;RFC3571</title>
<path fill="none" stroke="black" d="M60.56,-158.07C74.83,-161.52 93.67,-166.09 114.05,-171.03"/>
<polygon fill="black" stroke="black" points="113.15,-174.41 123.69,-173.36 114.8,-167.61 113.15,-174.41"/>
</g>
</g>
</svg>
