<?xml version="1.0" encoding="UTF-8" standalone="no"?>
<!DOCTYPE svg PUBLIC "-//W3C//DTD SVG 1.1//EN"
 "http://www.w3.org/Graphics/SVG/1.1/DTD/svg11.dtd">
<!-- Generated by graphviz version 14.1.1 (20251213.1925)
 -->
<!-- Title: Flow Pages: 1 -->
<svg width="1233pt" height="1136pt"
 viewBox="0.00 0.00 1233.00 1136.00" xmlns="http://www.w3.org/2000/svg" xmlns:xlink="http://www.w3.org/1999/xlink">
<g id="graph0" class="graph" transform="scale(1 1) rotate(0) translate(4 1131.64)">
<title>Flow</title>
<polygon fill="white" stroke="none" points="-4,4 -4,-1131.64 1228.93,-1131.64 1228.93,4 -4,4"/>
<!-- RFC3818 -->
<g id="node1" class="node">
<title>RFC3818</title>
<g id="a_node1"><a xlink:title="The charter of the Point&#45;to&#45;Point Protocol (PPP) Extensions working group (pppext) includes the responsibility to actively advance PPP&#39;s most useful extensions to full standard, while defending against further enhancements of questionable value. In support of that charter, the allocation of PPP protocol and other assigned numbers will no longer be first come first served. This document specifies an Internet Best Current Practices for the Internet Community, and requests discussion and suggestions for improvements.">
<ellipse fill="green" stroke="black" stroke-width="3" cx="394.63" cy="-757.2" rx="208.07" ry="65.05"/>
<text xml:space="preserve" text-anchor="middle" x="394.63" y="-782.1" font-family="Times,serif" font-size="18.00">RFC3818</text>
<text xml:space="preserve" text-anchor="middle" x="394.63" y="-761.1" font-family="Times,serif" font-size="18.00">IANA Considerations for the Point&#45;to&#45;</text>
<text xml:space="preserve" text-anchor="middle" x="394.63" y="-740.1" font-family="Times,serif" font-size="18.00">Point Protocol (PPP)</text>
<text xml:space="preserve" text-anchor="middle" x="394.63" y="-719.1" font-family="Times,serif" font-size="18.00">2004</text>
</a>
</g>
</g>
<!-- obs -->
<g id="node3" class="node">
<title>obs</title>
<polygon fill="lightblue" stroke="black" points="753.46,-932.05 687.21,-932.05 687.21,-896.05 753.46,-896.05 753.46,-932.05"/>
<text xml:space="preserve" text-anchor="middle" x="720.33" y="-909" font-family="Times,serif" font-size="14.00">obsoletes</text>
</g>
<!-- RFC3818&#45;&gt;obs -->
<g id="edge2" class="edge">
<title>RFC3818&#45;&gt;obs</title>
<path fill="none" stroke="black" d="M509.92,-812.72C567.61,-840.51 634.04,-872.5 676.57,-892.98"/>
<polygon fill="black" stroke="black" points="674.95,-896.09 685.48,-897.27 677.99,-889.78 674.95,-896.09"/>
</g>
<!-- updates -->
<g id="node4" class="node">
<title>updates</title>
<polygon fill="lightyellow" stroke="black" points="503.69,-1127.64 446.44,-1127.64 446.44,-1091.64 503.69,-1091.64 503.69,-1127.64"/>
<text xml:space="preserve" text-anchor="middle" x="475.07" y="-1104.59" font-family="Times,serif" font-size="14.00">updates</text>
</g>
<!-- RFC3818&#45;&gt;updates -->
<g id="edge3" class="edge">
<title>RFC3818&#45;&gt;updates</title>
<path fill="none" stroke="black" d="M409.76,-823.5C427.35,-900.57 455.6,-1024.34 468.39,-1080.39"/>
<polygon fill="black" stroke="black" points="464.9,-1080.83 470.54,-1089.8 471.73,-1079.28 464.9,-1080.83"/>
</g>
<!-- cites -->
<g id="node6" class="node">
<title>cites</title>
<polygon fill="lightblue" stroke="black" points="196.23,-1057.84 142.23,-1057.84 142.23,-1021.84 196.23,-1021.84 196.23,-1057.84"/>
<text xml:space="preserve" text-anchor="middle" x="169.23" y="-1034.79" font-family="Times,serif" font-size="14.00">cites</text>
</g>
<!-- RFC3818&#45;&gt;cites -->
<g id="edge5" class="edge">
<title>RFC3818&#45;&gt;cites</title>
<path fill="none" stroke="black" d="M343.2,-821.69C295.15,-881.95 225.74,-968.99 190.9,-1012.67"/>
<polygon fill="black" stroke="black" points="188.26,-1010.37 184.76,-1020.37 193.73,-1014.74 188.26,-1010.37"/>
</g>
<!-- obs_by -->
<g id="node2" class="node">
<title>obs_by</title>
<polygon fill="lightblue" stroke="black" points="66.25,-775.2 0,-775.2 0,-739.2 66.25,-739.2 66.25,-775.2"/>
<text xml:space="preserve" text-anchor="middle" x="33.13" y="-752.15" font-family="Times,serif" font-size="14.00">obsoletes</text>
</g>
<!-- obs_by&#45;&gt;RFC3818 -->
<g id="edge1" class="edge">
<title>obs_by&#45;&gt;RFC3818</title>
<path fill="none" stroke="black" d="M66.49,-757.2C92.72,-757.2 131.77,-757.2 173.87,-757.2"/>
<polygon fill="black" stroke="black" points="173.71,-760.7 183.71,-757.2 173.71,-753.7 173.71,-760.7"/>
</g>
<!-- updated_by -->
<g id="node5" class="node">
<title>updated_by</title>
<polygon fill="lightyellow" stroke="black" points="197.86,-492.57 140.61,-492.57 140.61,-456.57 197.86,-456.57 197.86,-492.57"/>
<text xml:space="preserve" text-anchor="middle" x="169.23" y="-469.52" font-family="Times,serif" font-size="14.00">updates</text>
</g>
<!-- updated_by&#45;&gt;RFC3818 -->
<g id="edge4" class="edge">
<title>updated_by&#45;&gt;RFC3818</title>
<path fill="none" stroke="black" d="M183.68,-492.68C213.84,-530.5 284.96,-619.68 336.29,-684.06"/>
<polygon fill="black" stroke="black" points="333.48,-686.15 342.46,-691.78 338.96,-681.78 333.48,-686.15"/>
</g>
<!-- rev_cites -->
<g id="node7" class="node">
<title>rev_cites</title>
<polygon fill="lightblue" stroke="black" points="647.02,-492.57 593.02,-492.57 593.02,-456.57 647.02,-456.57 647.02,-492.57"/>
<text xml:space="preserve" text-anchor="middle" x="620.02" y="-469.52" font-family="Times,serif" font-size="14.00">cites</text>
</g>
<!-- rev_cites&#45;&gt;RFC3818 -->
<g id="edge6" class="edge">
<title>rev_cites&#45;&gt;RFC3818</title>
<path fill="none" stroke="black" d="M605.58,-492.68C575.42,-530.5 504.3,-619.68 452.96,-684.06"/>
<polygon fill="black" stroke="black" points="450.3,-681.78 446.8,-691.78 455.77,-686.15 450.3,-681.78"/>
</g>
<!-- RFC5505 -->
<g id="node8" class="node">
<title>RFC5505</title>
<g id="a_node8"><a xlink:href="RFC5505.html" xlink:title="This document describes principles of Internet host configuration. &#160;It covers issues relating to configuration of Internet&#45;layer parameters, as well as parameters affecting higher&#45;layer protocols. &#160;This memo provides information for the Internet community." target="_top">
<ellipse fill="none" stroke="black" cx="555.51" cy="-52.33" rx="113.14" ry="52.33"/>
<text xml:space="preserve" text-anchor="middle" x="555.51" y="-72.03" font-family="Times,serif" font-size="14.00">RFC5505</text>
<text xml:space="preserve" text-anchor="middle" x="555.51" y="-55.53" font-family="Times,serif" font-size="14.00">Principles of Internet Host</text>
<text xml:space="preserve" text-anchor="middle" x="555.51" y="-39.03" font-family="Times,serif" font-size="14.00">Configuration</text>
<text xml:space="preserve" text-anchor="middle" x="555.51" y="-22.53" font-family="Times,serif" font-size="14.00">2009</text>
</a>
</g>
</g>
<!-- RFC5505&#45;&gt;rev_cites -->
<g id="edge7" class="edge">
<title>RFC5505&#45;&gt;rev_cites</title>
<path fill="none" stroke="black" d="M563.55,-104.95C577.28,-194.81 604.8,-374.96 615.56,-445.4"/>
<polygon fill="black" stroke="black" points="612.06,-445.63 617.03,-454.98 618.98,-444.57 612.06,-445.63"/>
</g>
<!-- RFC5718 -->
<g id="node9" class="node">
<title>RFC5718</title>
<g id="a_node9"><a xlink:href="RFC5718.html" xlink:title="The Generic Associated Channel (G&#45;ACh) has been defined as a generalization of the pseudowire (PW) associated control channel to enable the realization of a control/communication channel that is associated with Multiprotocol Label Switching (MPLS) Label Switched Paths (LSPs), MPLS PWs, MPLS LSP segments, and MPLS sections between adjacent MPLS&#45;capable devices. The MPLS Transport Profile (MPLS&#45;TP) is a profile of the MPLS architecture that identifies elements of the MPLS toolkit that may be combined to build a carrier&#45;grade packet transport network based on MPLS packet switching technology. This document describes how the G&#45;ACh may be used to provide the infrastructure that forms part of the Management Communication Network (MCN) and a Signaling Communication Network (SCN). Collectively, the MCN and SCN may be referred to as the Data Communication Network (DCN). This document explains how MCN and SCN messages are encapsulated, carried on the G&#45;ACh, and demultiplexed for delivery to the management or signaling/routing control plane components on an MPLS&#45;TP node. [STANDARDS&#45;TRACK]" target="_top">
<ellipse fill="none" stroke="black" cx="1046.03" cy="-443.5" rx="178.9" ry="52.33"/>
<text xml:space="preserve" text-anchor="middle" x="1046.03" y="-463.2" font-family="Times,serif" font-size="14.00">RFC5718</text>
<text xml:space="preserve" text-anchor="middle" x="1046.03" y="-446.7" font-family="Times,serif" font-size="14.00">An In&#45;Band Data Communication Network</text>
<text xml:space="preserve" text-anchor="middle" x="1046.03" y="-430.2" font-family="Times,serif" font-size="14.00">For the MPLS Transport Profile</text>
<text xml:space="preserve" text-anchor="middle" x="1046.03" y="-413.7" font-family="Times,serif" font-size="14.00">2010</text>
</a>
</g>
</g>
<!-- RFC5718&#45;&gt;rev_cites -->
<g id="edge8" class="edge">
<title>RFC5718&#45;&gt;rev_cites</title>
<path fill="none" stroke="black" d="M872.14,-456.18C793.29,-461.93 707.03,-468.23 658.61,-471.76"/>
<polygon fill="black" stroke="black" points="658.66,-468.24 648.94,-472.46 659.17,-475.22 658.66,-468.24"/>
</g>
</g>
</svg>
