<?xml version="1.0" encoding="UTF-8" standalone="no"?>
<!DOCTYPE svg PUBLIC "-//W3C//DTD SVG 1.1//EN"
 "http://www.w3.org/Graphics/SVG/1.1/DTD/svg11.dtd">
<!-- Generated by graphviz version 14.1.1 (20251213.1925)
 -->
<!-- Title: Flow Pages: 1 -->
<svg width="842pt" height="247pt"
 viewBox="0.00 0.00 842.00 247.00" xmlns="http://www.w3.org/2000/svg" xmlns:xlink="http://www.w3.org/1999/xlink">
<g id="graph0" class="graph" transform="scale(1 1) rotate(0) translate(4 243.33)">
<title>Flow</title>
<polygon fill="white" stroke="none" points="-4,4 -4,-243.33 838,-243.33 838,4 -4,4"/>
<!-- RFC3361 -->
<g id="node1" class="node">
<title>RFC3361</title>
<g id="a_node1"><a xlink:title="None">
<ellipse fill="green" stroke="black" cx="584" cy="-167.33" rx="158.75" ry="63.99"/>
<text xml:space="preserve" text-anchor="middle" x="584" y="-195.28" font-family="Times,serif" font-size="14.00">RFC3361</text>
<text xml:space="preserve" text-anchor="middle" x="584" y="-178.78" font-family="Times,serif" font-size="14.00">Dynamic Host Configuration Protocol</text>
<text xml:space="preserve" text-anchor="middle" x="584" y="-162.28" font-family="Times,serif" font-size="14.00">(DHCP&#45;for&#45;IPv4) Option for Session</text>
<text xml:space="preserve" text-anchor="middle" x="584" y="-145.78" font-family="Times,serif" font-size="14.00">Initiation Protocol (SIP) Servers</text>
<text xml:space="preserve" text-anchor="middle" x="584" y="-129.28" font-family="Times,serif" font-size="14.00">2002</text>
</a>
</g>
</g>
<!-- obs -->
<g id="node3" class="node">
<title>obs</title>
<polygon fill="lightblue" stroke="black" points="834,-239.33 767.75,-239.33 767.75,-203.33 834,-203.33 834,-239.33"/>
<text xml:space="preserve" text-anchor="middle" x="800.87" y="-216.28" font-family="Times,serif" font-size="14.00">obsoletes</text>
</g>
<!-- RFC3361&#45;&gt;obs -->
<g id="edge2" class="edge">
<title>RFC3361&#45;&gt;obs</title>
<path fill="none" stroke="black" d="M719.56,-201.14C732.74,-204.45 745.34,-207.62 756.49,-210.42"/>
<polygon fill="black" stroke="black" points="755.52,-213.79 766.08,-212.83 757.23,-207 755.52,-213.79"/>
</g>
<!-- updates -->
<g id="node4" class="node">
<title>updates</title>
<polygon fill="lightyellow" stroke="black" points="829.5,-185.33 772.25,-185.33 772.25,-149.33 829.5,-149.33 829.5,-185.33"/>
<text xml:space="preserve" text-anchor="middle" x="800.87" y="-162.28" font-family="Times,serif" font-size="14.00">updates</text>
</g>
<!-- RFC3361&#45;&gt;updates -->
<g id="edge3" class="edge">
<title>RFC3361&#45;&gt;updates</title>
<path fill="none" stroke="black" d="M743.14,-167.33C749.27,-167.33 755.12,-167.33 760.57,-167.33"/>
<polygon fill="black" stroke="black" points="760.31,-170.83 770.31,-167.33 760.31,-163.83 760.31,-170.83"/>
</g>
<!-- cites -->
<g id="node6" class="node">
<title>cites</title>
<polygon fill="lightblue" stroke="black" points="827.87,-131.33 773.87,-131.33 773.87,-95.33 827.87,-95.33 827.87,-131.33"/>
<text xml:space="preserve" text-anchor="middle" x="800.87" y="-108.28" font-family="Times,serif" font-size="14.00">cites</text>
</g>
<!-- RFC3361&#45;&gt;cites -->
<g id="edge5" class="edge">
<title>RFC3361&#45;&gt;cites</title>
<path fill="none" stroke="black" d="M719.56,-133.51C735.23,-129.57 750.07,-125.84 762.64,-122.68"/>
<polygon fill="black" stroke="black" points="763.18,-126.15 772.03,-120.32 761.48,-119.37 763.18,-126.15"/>
</g>
<!-- obs_by -->
<g id="node2" class="node">
<title>obs_by</title>
<polygon fill="lightblue" stroke="black" points="400.26,-239.33 334.01,-239.33 334.01,-203.33 400.26,-203.33 400.26,-239.33"/>
<text xml:space="preserve" text-anchor="middle" x="367.13" y="-216.28" font-family="Times,serif" font-size="14.00">obsoletes</text>
</g>
<!-- obs_by&#45;&gt;RFC3361 -->
<g id="edge1" class="edge">
<title>obs_by&#45;&gt;RFC3361</title>
<path fill="none" stroke="black" d="M400.3,-213.24C411.01,-210.55 423.74,-207.35 437.41,-203.92"/>
<polygon fill="black" stroke="black" points="438.24,-207.31 447.09,-201.48 436.54,-200.53 438.24,-207.31"/>
</g>
<!-- updated_by -->
<g id="node5" class="node">
<title>updated_by</title>
<polygon fill="lightyellow" stroke="black" points="395.76,-185.33 338.51,-185.33 338.51,-149.33 395.76,-149.33 395.76,-185.33"/>
<text xml:space="preserve" text-anchor="middle" x="367.13" y="-162.28" font-family="Times,serif" font-size="14.00">updates</text>
</g>
<!-- updated_by&#45;&gt;RFC3361 -->
<g id="edge4" class="edge">
<title>updated_by&#45;&gt;RFC3361</title>
<path fill="none" stroke="black" d="M396.22,-167.33C401.54,-167.33 407.45,-167.33 413.79,-167.33"/>
<polygon fill="black" stroke="black" points="413.33,-170.83 423.33,-167.33 413.33,-163.83 413.33,-170.83"/>
</g>
<!-- rev_cites -->
<g id="node7" class="node">
<title>rev_cites</title>
<polygon fill="lightblue" stroke="black" points="394.13,-131.33 340.13,-131.33 340.13,-95.33 394.13,-95.33 394.13,-131.33"/>
<text xml:space="preserve" text-anchor="middle" x="367.13" y="-108.28" font-family="Times,serif" font-size="14.00">cites</text>
</g>
<!-- rev_cites&#45;&gt;RFC3361 -->
<g id="edge6" class="edge">
<title>rev_cites&#45;&gt;RFC3361</title>
<path fill="none" stroke="black" d="M394.48,-119.95C406.34,-122.93 421.35,-126.7 437.7,-130.81"/>
<polygon fill="black" stroke="black" points="436.6,-134.14 447.15,-133.18 438.3,-127.35 436.6,-134.14"/>
</g>
<!-- RFC6080 -->
<g id="node8" class="node">
<title>RFC6080</title>
<g id="a_node8"><a xlink:href="RFC6080.html" xlink:title="This document specifies a framework to enable configuration of Session Initiation Protocol (SIP) user agents (UAs) in SIP deployments. &#160;The framework provides a means to deliver profile data that user agents need to be functional, automatically and with minimal or no User and Administrative intervention. &#160;The framework describes how SIP user agents can discover sources, request profiles, and receive notifications related to profile modifications. &#160;As part of this framework, a new SIP event package is defined for notification of profile changes. &#160;The framework provides minimal data retrieval options to ensure interoperability. &#160;The framework does not include specification of the profile data within its scope. [STANDARDS&#45;TRACK]" target="_top">
<ellipse fill="none" stroke="black" cx="154.5" cy="-175.33" rx="154.5" ry="52.33"/>
<text xml:space="preserve" text-anchor="middle" x="154.5" y="-195.03" font-family="Times,serif" font-size="14.00">RFC6080</text>
<text xml:space="preserve" text-anchor="middle" x="154.5" y="-178.53" font-family="Times,serif" font-size="14.00">A Framework for Session Initiation</text>
<text xml:space="preserve" text-anchor="middle" x="154.5" y="-162.03" font-family="Times,serif" font-size="14.00">Protocol User Agent Profile Delivery</text>
<text xml:space="preserve" text-anchor="middle" x="154.5" y="-145.53" font-family="Times,serif" font-size="14.00">2011</text>
</a>
</g>
</g>
<!-- RFC6080&#45;&gt;rev_cites -->
<g id="edge7" class="edge">
<title>RFC6080&#45;&gt;rev_cites</title>
<path fill="none" stroke="black" d="M272.21,-140.97C292.88,-134.89 312.96,-128.98 329.2,-124.2"/>
<polygon fill="black" stroke="black" points="329.75,-127.68 338.35,-121.5 327.77,-120.97 329.75,-127.68"/>
</g>
<!-- RFC8825 -->
<g id="node9" class="node">
<title>RFC8825</title>
<g id="a_node9"><a xlink:href="RFC8825.html" xlink:title="This document gives an overview and context of a protocol suite intended for use with real&#45;time applications that can be deployed in browsers &#45;&#45; real&#45;time communication on the Web. It intends to serve as a starting and coordination point to make sure that (1) all the parts that are needed to achieve this goal are findable and (2) the parts that belong in the Internet protocol suite are fully specified and on the right publication track. This document is an applicability statement &#45;&#45; it does not itself specify any protocol, but it specifies which other specifications implementations are supposed to follow to be compliant with Web Real&#45;Time Communication (WebRTC)." target="_top">
<ellipse fill="none" stroke="black" cx="154.5" cy="-52.33" rx="148.14" ry="52.33"/>
<text xml:space="preserve" text-anchor="middle" x="154.5" y="-72.03" font-family="Times,serif" font-size="14.00">RFC8825</text>
<text xml:space="preserve" text-anchor="middle" x="154.5" y="-55.53" font-family="Times,serif" font-size="14.00">Overview: Real&#45;Time Protocols for</text>
<text xml:space="preserve" text-anchor="middle" x="154.5" y="-39.03" font-family="Times,serif" font-size="14.00">Browser&#45;Based Applications</text>
<text xml:space="preserve" text-anchor="middle" x="154.5" y="-22.53" font-family="Times,serif" font-size="14.00">2021</text>
</a>
</g>
</g>
<!-- RFC8825&#45;&gt;rev_cites -->
<g id="edge8" class="edge">
<title>RFC8825&#45;&gt;rev_cites</title>
<path fill="none" stroke="black" d="M270.06,-85.5C291.39,-91.68 312.2,-97.71 328.97,-102.56"/>
<polygon fill="black" stroke="black" points="327.86,-105.89 338.44,-105.31 329.81,-99.16 327.86,-105.89"/>
</g>
</g>
</svg>
