<?xml version="1.0" encoding="UTF-8" standalone="no"?>
<!DOCTYPE svg PUBLIC "-//W3C//DTD SVG 1.1//EN"
 "http://www.w3.org/Graphics/SVG/1.1/DTD/svg11.dtd">
<!-- Generated by graphviz version 14.1.1 (20251213.1925)
 -->
<!-- Title: Flow Pages: 1 -->
<svg width="825pt" height="186pt"
 viewBox="0.00 0.00 825.00 186.00" xmlns="http://www.w3.org/2000/svg" xmlns:xlink="http://www.w3.org/1999/xlink">
<g id="graph0" class="graph" transform="scale(1 1) rotate(0) translate(4 182.33)">
<title>Flow</title>
<polygon fill="white" stroke="none" points="-4,4 -4,-182.33 821.03,-182.33 821.03,4 -4,4"/>
<!-- RFC3854 -->
<g id="node1" class="node">
<title>RFC3854</title>
<g id="a_node1"><a xlink:title="This document describes a protocol for adding cryptographic signature and encryption services to X.400 content with Secure/Multipurpose Internet Mail Extensions (S/MIME). [STANDARDS&#45;TRACK]">
<ellipse fill="green" stroke="black" cx="580.29" cy="-106.33" rx="145.49" ry="63.99"/>
<text xml:space="preserve" text-anchor="middle" x="580.29" y="-134.28" font-family="Times,serif" font-size="14.00">RFC3854</text>
<text xml:space="preserve" text-anchor="middle" x="580.29" y="-117.78" font-family="Times,serif" font-size="14.00">Securing X.400 Content with</text>
<text xml:space="preserve" text-anchor="middle" x="580.29" y="-101.28" font-family="Times,serif" font-size="14.00">Secure/Multipurpose Internet Mail</text>
<text xml:space="preserve" text-anchor="middle" x="580.29" y="-84.78" font-family="Times,serif" font-size="14.00">Extensions (S/MIME)</text>
<text xml:space="preserve" text-anchor="middle" x="580.29" y="-68.28" font-family="Times,serif" font-size="14.00">2004</text>
</a>
</g>
</g>
<!-- obs -->
<g id="node3" class="node">
<title>obs</title>
<polygon fill="lightblue" stroke="black" points="817.03,-178.33 750.78,-178.33 750.78,-142.33 817.03,-142.33 817.03,-178.33"/>
<text xml:space="preserve" text-anchor="middle" x="783.9" y="-155.28" font-family="Times,serif" font-size="14.00">obsoletes</text>
</g>
<!-- RFC3854&#45;&gt;obs -->
<g id="edge2" class="edge">
<title>RFC3854&#45;&gt;obs</title>
<path fill="none" stroke="black" d="M705.24,-139.53C717.42,-142.79 729.12,-145.92 739.58,-148.72"/>
<polygon fill="black" stroke="black" points="738.37,-152.02 748.94,-151.23 740.19,-145.26 738.37,-152.02"/>
</g>
<!-- updates -->
<g id="node4" class="node">
<title>updates</title>
<polygon fill="lightyellow" stroke="black" points="812.53,-124.33 755.28,-124.33 755.28,-88.33 812.53,-88.33 812.53,-124.33"/>
<text xml:space="preserve" text-anchor="middle" x="783.9" y="-101.28" font-family="Times,serif" font-size="14.00">updates</text>
</g>
<!-- RFC3854&#45;&gt;updates -->
<g id="edge3" class="edge">
<title>RFC3854&#45;&gt;updates</title>
<path fill="none" stroke="black" d="M726.2,-106.33C732.36,-106.33 738.24,-106.33 743.72,-106.33"/>
<polygon fill="black" stroke="black" points="743.54,-109.83 753.54,-106.33 743.54,-102.83 743.54,-109.83"/>
</g>
<!-- cites -->
<g id="node6" class="node">
<title>cites</title>
<polygon fill="lightblue" stroke="black" points="810.9,-70.33 756.9,-70.33 756.9,-34.33 810.9,-34.33 810.9,-70.33"/>
<text xml:space="preserve" text-anchor="middle" x="783.9" y="-47.28" font-family="Times,serif" font-size="14.00">cites</text>
</g>
<!-- RFC3854&#45;&gt;cites -->
<g id="edge5" class="edge">
<title>RFC3854&#45;&gt;cites</title>
<path fill="none" stroke="black" d="M705.24,-73.13C719.9,-69.2 733.87,-65.46 745.81,-62.26"/>
<polygon fill="black" stroke="black" points="746.39,-65.73 755.14,-59.76 744.57,-58.97 746.39,-65.73"/>
</g>
<!-- obs_by -->
<g id="node2" class="node">
<title>obs_by</title>
<polygon fill="lightblue" stroke="black" points="409.8,-178.33 343.55,-178.33 343.55,-142.33 409.8,-142.33 409.8,-178.33"/>
<text xml:space="preserve" text-anchor="middle" x="376.68" y="-155.28" font-family="Times,serif" font-size="14.00">obsoletes</text>
</g>
<!-- obs_by&#45;&gt;RFC3854 -->
<g id="edge1" class="edge">
<title>obs_by&#45;&gt;RFC3854</title>
<path fill="none" stroke="black" d="M410.07,-151.65C420.16,-148.95 431.97,-145.78 444.59,-142.4"/>
<polygon fill="black" stroke="black" points="445.15,-145.88 453.9,-139.91 443.34,-139.12 445.15,-145.88"/>
</g>
<!-- updated_by -->
<g id="node5" class="node">
<title>updated_by</title>
<polygon fill="lightyellow" stroke="black" points="405.3,-124.33 348.05,-124.33 348.05,-88.33 405.3,-88.33 405.3,-124.33"/>
<text xml:space="preserve" text-anchor="middle" x="376.68" y="-101.28" font-family="Times,serif" font-size="14.00">updates</text>
</g>
<!-- updated_by&#45;&gt;RFC3854 -->
<g id="edge4" class="edge">
<title>updated_by&#45;&gt;RFC3854</title>
<path fill="none" stroke="black" d="M405.71,-106.33C410.92,-106.33 416.68,-106.33 422.84,-106.33"/>
<polygon fill="black" stroke="black" points="422.83,-109.83 432.83,-106.33 422.83,-102.83 422.83,-109.83"/>
</g>
<!-- rev_cites -->
<g id="node7" class="node">
<title>rev_cites</title>
<polygon fill="lightblue" stroke="black" points="403.68,-70.33 349.68,-70.33 349.68,-34.33 403.68,-34.33 403.68,-70.33"/>
<text xml:space="preserve" text-anchor="middle" x="376.68" y="-47.28" font-family="Times,serif" font-size="14.00">cites</text>
</g>
<!-- rev_cites&#45;&gt;RFC3854 -->
<g id="edge6" class="edge">
<title>rev_cites&#45;&gt;RFC3854</title>
<path fill="none" stroke="black" d="M404.03,-59.39C415.31,-62.41 429.39,-66.18 444.64,-70.26"/>
<polygon fill="black" stroke="black" points="443.34,-73.54 453.9,-72.74 445.15,-66.77 443.34,-73.54"/>
</g>
<!-- RFC7114 -->
<g id="node8" class="node">
<title>RFC7114</title>
<g id="a_node8"><a xlink:href="RFC7114.html" xlink:title="Secure/Multipurpose Internet Mail Extensions (S/MIME) defined the Content&#45;Type parameter smime&#45;type. &#160;As the list of defined values for that parameter has increased, it has become clear that a registry is needed to document these values. &#160;This document creates the registry, registers the current values, and specifies the policies for registration of new values." target="_top">
<ellipse fill="none" stroke="black" cx="159.28" cy="-52.33" rx="159.28" ry="52.33"/>
<text xml:space="preserve" text-anchor="middle" x="159.28" y="-72.03" font-family="Times,serif" font-size="14.00">RFC7114</text>
<text xml:space="preserve" text-anchor="middle" x="159.28" y="-55.53" font-family="Times,serif" font-size="14.00">Creation of a Registry for smime&#45;type</text>
<text xml:space="preserve" text-anchor="middle" x="159.28" y="-39.03" font-family="Times,serif" font-size="14.00">Parameter Values</text>
<text xml:space="preserve" text-anchor="middle" x="159.28" y="-22.53" font-family="Times,serif" font-size="14.00">2014</text>
</a>
</g>
</g>
<!-- RFC7114&#45;&gt;rev_cites -->
<g id="edge7" class="edge">
<title>RFC7114&#45;&gt;rev_cites</title>
<path fill="none" stroke="black" d="M318.8,-52.33C325.57,-52.33 331.99,-52.33 337.91,-52.33"/>
<polygon fill="black" stroke="black" points="337.81,-55.83 347.81,-52.33 337.81,-48.83 337.81,-55.83"/>
</g>
</g>
</svg>
