<?xml version="1.0" encoding="UTF-8" standalone="no"?>
<!DOCTYPE svg PUBLIC "-//W3C//DTD SVG 1.1//EN"
 "http://www.w3.org/Graphics/SVG/1.1/DTD/svg11.dtd">
<!-- Generated by graphviz version 14.1.1 (20251213.1925)
 -->
<!-- Title: Flow Pages: 1 -->
<svg width="1283pt" height="1759pt"
 viewBox="0.00 0.00 1283.00 1759.00" xmlns="http://www.w3.org/2000/svg" xmlns:xlink="http://www.w3.org/1999/xlink">
<g id="graph0" class="graph" transform="scale(1 1) rotate(0) translate(4 1754.66)">
<title>Flow</title>
<polygon fill="white" stroke="none" points="-4,4 -4,-1754.66 1279.3,-1754.66 1279.3,4 -4,4"/>
<!-- RFC3459 -->
<g id="node1" class="node">
<title>RFC3459</title>
<g id="a_node1"><a xlink:title="This document describes the use of a mechanism for identifying body parts that a sender deems critical in a multi&#45;part Internet mail message. &#160;The mechanism described is a parameter to Content&#45;Disposition, as described by RFC 3204. &#160;By knowing what parts of a message the sender deems critical, a content gateway can intelligently handle multi&#45;part messages when providing gateway services to systems of lesser capability. &#160;Critical content can help a content gateway to decide what parts to forward. &#160;It can indicate how hard a gateway should try to deliver a body part. &#160;It can help the gateway to pick body parts that are safe to silently delete when a system of lesser capability receives a message. &#160;In addition, critical content can help the gateway chose the notification strategy for the receiving system. &#160;Likewise, if the sender expects the destination to do some processing on a body part, critical content allows the sender to mark body parts that the receiver must process. [STANDARDS&#45;TRACK]">
<ellipse fill="green" stroke="black" stroke-width="3" cx="389.5" cy="-875.33" rx="214.43" ry="65.05"/>
<text xml:space="preserve" text-anchor="middle" x="389.5" y="-900.23" font-family="Times,serif" font-size="18.00">RFC3459</text>
<text xml:space="preserve" text-anchor="middle" x="389.5" y="-879.23" font-family="Times,serif" font-size="18.00">Critical Content Multi&#45;purpose Internet</text>
<text xml:space="preserve" text-anchor="middle" x="389.5" y="-858.23" font-family="Times,serif" font-size="18.00">Mail Extensions (MIME) Parameter</text>
<text xml:space="preserve" text-anchor="middle" x="389.5" y="-837.23" font-family="Times,serif" font-size="18.00">2003</text>
</a>
</g>
</g>
<!-- obs -->
<g id="node3" class="node">
<title>obs</title>
<polygon fill="lightblue" stroke="black" points="778.99,-1099.08 712.74,-1099.08 712.74,-1063.08 778.99,-1063.08 778.99,-1099.08"/>
<text xml:space="preserve" text-anchor="middle" x="745.87" y="-1076.03" font-family="Times,serif" font-size="14.00">obsoletes</text>
</g>
<!-- RFC3459&#45;&gt;obs -->
<g id="edge2" class="edge">
<title>RFC3459&#45;&gt;obs</title>
<path fill="none" stroke="black" d="M491.14,-934.01C561.73,-974.77 652.11,-1026.95 704.05,-1056.94"/>
<polygon fill="black" stroke="black" points="702.19,-1059.9 712.6,-1061.87 705.69,-1053.84 702.19,-1059.9"/>
</g>
<!-- updates -->
<g id="node4" class="node">
<title>updates</title>
<polygon fill="lightyellow" stroke="black" points="418.12,-1304.83 360.87,-1304.83 360.87,-1268.83 418.12,-1268.83 418.12,-1304.83"/>
<text xml:space="preserve" text-anchor="middle" x="389.5" y="-1281.78" font-family="Times,serif" font-size="14.00">updates</text>
</g>
<!-- RFC3459&#45;&gt;updates -->
<g id="edge3" class="edge">
<title>RFC3459&#45;&gt;updates</title>
<path fill="none" stroke="black" d="M389.5,-941.44C389.5,-1032.15 389.5,-1191.42 389.5,-1257.16"/>
<polygon fill="black" stroke="black" points="386,-1257.15 389.5,-1267.15 393,-1257.15 386,-1257.15"/>
</g>
<!-- cites -->
<g id="node8" class="node">
<title>cites</title>
<polygon fill="lightblue" stroke="black" points="60.13,-1099.08 6.13,-1099.08 6.13,-1063.08 60.13,-1063.08 60.13,-1099.08"/>
<text xml:space="preserve" text-anchor="middle" x="33.13" y="-1076.03" font-family="Times,serif" font-size="14.00">cites</text>
</g>
<!-- RFC3459&#45;&gt;cites -->
<g id="edge7" class="edge">
<title>RFC3459&#45;&gt;cites</title>
<path fill="none" stroke="black" d="M287.85,-934.01C215.1,-976.02 121.33,-1030.16 70.28,-1059.63"/>
<polygon fill="black" stroke="black" points="68.58,-1056.57 61.67,-1064.6 72.08,-1062.63 68.58,-1056.57"/>
</g>
<!-- obs_by -->
<g id="node2" class="node">
<title>obs_by</title>
<polygon fill="lightblue" stroke="black" points="66.25,-687.58 0,-687.58 0,-651.58 66.25,-651.58 66.25,-687.58"/>
<text xml:space="preserve" text-anchor="middle" x="33.13" y="-664.53" font-family="Times,serif" font-size="14.00">obsoletes</text>
</g>
<!-- obs_by&#45;&gt;RFC3459 -->
<g id="edge1" class="edge">
<title>obs_by&#45;&gt;RFC3459</title>
<path fill="none" stroke="black" d="M65.06,-688.02C112.64,-715.49 204.45,-768.49 278.3,-811.13"/>
<polygon fill="black" stroke="black" points="276.41,-814.08 286.82,-816.05 279.91,-808.02 276.41,-814.08"/>
</g>
<!-- RFC3204 -->
<g id="node5" class="node">
<title>RFC3204</title>
<g id="a_node5"><a xlink:href="RFC3204.html" xlink:title="This document describes MIME types for application/ISUP and application/QSIG objects for use in SIP applications, according to the rules defined in RFC 2048. &#160;These types can be used to identify ISUP and QSIG objects within a SIP message such as INVITE or INFO, as might be implemented when using SIP in an environment where part of the call involves interworking to the PSTN. [STANDARDS&#45;TRACK]" target="_top">
<ellipse fill="none" stroke="black" cx="389.5" cy="-1698.33" rx="165.64" ry="52.33"/>
<text xml:space="preserve" text-anchor="middle" x="389.5" y="-1718.03" font-family="Times,serif" font-size="14.00">RFC3204</text>
<text xml:space="preserve" text-anchor="middle" x="389.5" y="-1701.53" font-family="Times,serif" font-size="14.00">MIME media types for ISUP and QSIG</text>
<text xml:space="preserve" text-anchor="middle" x="389.5" y="-1685.03" font-family="Times,serif" font-size="14.00">Objects</text>
<text xml:space="preserve" text-anchor="middle" x="389.5" y="-1668.53" font-family="Times,serif" font-size="14.00">2001</text>
</a>
</g>
</g>
<!-- updates&#45;&gt;RFC3204 -->
<g id="edge4" class="edge">
<title>updates&#45;&gt;RFC3204</title>
<path fill="none" stroke="black" d="M389.5,-1305.31C389.5,-1362.49 389.5,-1538.44 389.5,-1634.36"/>
<polygon fill="black" stroke="black" points="386,-1634.13 389.5,-1644.13 393,-1634.13 386,-1634.13"/>
</g>
<!-- updated_by -->
<g id="node6" class="node">
<title>updated_by</title>
<polygon fill="lightyellow" stroke="black" points="418.12,-481.83 360.87,-481.83 360.87,-445.83 418.12,-445.83 418.12,-481.83"/>
<text xml:space="preserve" text-anchor="middle" x="389.5" y="-458.78" font-family="Times,serif" font-size="14.00">updates</text>
</g>
<!-- updated_by&#45;&gt;RFC3459 -->
<g id="edge5" class="edge">
<title>updated_by&#45;&gt;RFC3459</title>
<path fill="none" stroke="black" d="M389.5,-482.31C389.5,-536.84 389.5,-699.38 389.5,-797.53"/>
<polygon fill="black" stroke="black" points="386,-797.36 389.5,-807.36 393,-797.36 386,-797.36"/>
</g>
<!-- RFC5621 -->
<g id="node7" class="node">
<title>RFC5621</title>
<g id="a_node7"><a xlink:href="RFC5621.html" xlink:title="This document specifies how message bodies are handled in SIP. &#160;Additionally, this document specifies SIP user agent support for MIME (Multipurpose Internet Mail Extensions) in message bodies. [STANDARDS&#45;TRACK]" target="_top">
<ellipse fill="none" stroke="black" cx="389.5" cy="-52.33" rx="162.99" ry="52.33"/>
<text xml:space="preserve" text-anchor="middle" x="389.5" y="-72.03" font-family="Times,serif" font-size="14.00">RFC5621</text>
<text xml:space="preserve" text-anchor="middle" x="389.5" y="-55.53" font-family="Times,serif" font-size="14.00">Message Body Handling in the Session</text>
<text xml:space="preserve" text-anchor="middle" x="389.5" y="-39.03" font-family="Times,serif" font-size="14.00">Initiation Protocol (SIP)</text>
<text xml:space="preserve" text-anchor="middle" x="389.5" y="-22.53" font-family="Times,serif" font-size="14.00">2009</text>
</a>
</g>
</g>
<!-- RFC5621&#45;&gt;updated_by -->
<g id="edge6" class="edge">
<title>RFC5621&#45;&gt;updated_by</title>
<path fill="none" stroke="black" d="M389.5,-104.86C389.5,-192.34 389.5,-365.08 389.5,-434.21"/>
<polygon fill="black" stroke="black" points="386,-433.99 389.5,-443.99 393,-433.99 386,-433.99"/>
</g>
<!-- rev_cites -->
<g id="node9" class="node">
<title>rev_cites</title>
<polygon fill="lightblue" stroke="black" points="772.87,-687.58 718.87,-687.58 718.87,-651.58 772.87,-651.58 772.87,-687.58"/>
<text xml:space="preserve" text-anchor="middle" x="745.87" y="-664.53" font-family="Times,serif" font-size="14.00">cites</text>
</g>
<!-- RFC5621&#45;&gt;rev_cites -->
<g id="edge9" class="edge">
<title>RFC5621&#45;&gt;rev_cites</title>
<path fill="none" stroke="black" d="M419.42,-104.16C491.69,-229.33 673.87,-544.88 729.49,-641.21"/>
<polygon fill="black" stroke="black" points="726.41,-642.88 734.44,-649.79 732.47,-639.38 726.41,-642.88"/>
</g>
<!-- rev_cites&#45;&gt;RFC3459 -->
<g id="edge8" class="edge">
<title>rev_cites&#45;&gt;RFC3459</title>
<path fill="none" stroke="black" d="M718.49,-685.38C672.46,-711.96 577.11,-767.01 500.85,-811.04"/>
<polygon fill="black" stroke="black" points="499.4,-807.83 492.49,-815.86 502.9,-813.89 499.4,-807.83"/>
</g>
<!-- RFC7852 -->
<g id="node10" class="node">
<title>RFC7852</title>
<g id="a_node10"><a xlink:href="RFC7852.html" xlink:title="When an emergency call is sent to a Public Safety Answering Point (PSAP), the originating device, the access network provider to which the device is connected, and all service providers in the path of the call have information about the call, the caller, or the location, which is helpful for the PSAP to have in handling the emergency. This document describes data structures and mechanisms to convey such data to the PSAP. The intent is that every emergency call carry as much of the information described here as possible using the mechanisms described here. The mechanisms permit the data to be conveyed by reference (as an external resource) or by value (within the body of a SIP message or a location object). This follows the tradition of prior emergency services standardization work where data can be conveyed by value within the call signaling (i.e., in the body of the SIP message) or by reference." target="_top">
<ellipse fill="none" stroke="black" cx="1102.24" cy="-463.83" rx="173.06" ry="52.33"/>
<text xml:space="preserve" text-anchor="middle" x="1102.24" y="-483.53" font-family="Times,serif" font-size="14.00">RFC7852</text>
<text xml:space="preserve" text-anchor="middle" x="1102.24" y="-467.03" font-family="Times,serif" font-size="14.00">Additional Data Related to an Emergency</text>
<text xml:space="preserve" text-anchor="middle" x="1102.24" y="-450.53" font-family="Times,serif" font-size="14.00">Call</text>
<text xml:space="preserve" text-anchor="middle" x="1102.24" y="-434.03" font-family="Times,serif" font-size="14.00">2016</text>
</a>
</g>
</g>
<!-- RFC7852&#45;&gt;rev_cites -->
<g id="edge10" class="edge">
<title>RFC7852&#45;&gt;rev_cites</title>
<path fill="none" stroke="black" d="M1021.37,-510.52C946.75,-553.6 839.27,-615.65 783.17,-648.04"/>
<polygon fill="black" stroke="black" points="781.53,-644.95 774.62,-652.98 785.03,-651.01 781.53,-644.95"/>
</g>
</g>
</svg>
