<?xml version="1.0" encoding="UTF-8" standalone="no"?>
<!DOCTYPE svg PUBLIC "-//W3C//DTD SVG 1.1//EN"
 "http://www.w3.org/Graphics/SVG/1.1/DTD/svg11.dtd">
<!-- Generated by graphviz version 14.1.1 (20251213.1925)
 -->
<!-- Title: Flow Pages: 1 -->
<svg width="925pt" height="306pt"
 viewBox="0.00 0.00 925.00 306.00" xmlns="http://www.w3.org/2000/svg" xmlns:xlink="http://www.w3.org/1999/xlink">
<g id="graph0" class="graph" transform="scale(1 1) rotate(0) translate(4 301.65)">
<title>Flow</title>
<polygon fill="white" stroke="none" points="-4,4 -4,-301.65 920.73,-301.65 920.73,4 -4,4"/>
<!-- RFC3276 -->
<g id="node1" class="node">
<title>RFC3276</title>
<g id="a_node1"><a xlink:title="This document defines a portion of the Management Information Base (MIB) module for use with network management protocols in the Internet community. &#160;In particular, it describes objects used for managing High Bit&#45;Rate DSL &#45; 2nd generation (HDSL2) and Single&#45;Pair High&#45;Speed Digital Subscriber Line (SHDSL) interfaces. [STANDARDS&#45;TRACK]">
<ellipse fill="none" stroke="black" cx="646.05" cy="-167.99" rx="179.43" ry="75.66"/>
<text xml:space="preserve" text-anchor="middle" x="646.05" y="-204.19" font-family="Times,serif" font-size="14.00">RFC3276</text>
<text xml:space="preserve" text-anchor="middle" x="646.05" y="-187.69" font-family="Times,serif" font-size="14.00">Definitions of Managed Objects for High</text>
<text xml:space="preserve" text-anchor="middle" x="646.05" y="-171.19" font-family="Times,serif" font-size="14.00">Bit&#45;Rate DSL &#45; 2nd generation (HDSL2)</text>
<text xml:space="preserve" text-anchor="middle" x="646.05" y="-154.69" font-family="Times,serif" font-size="14.00">and Single&#45;Pair High&#45;Speed Digital</text>
<text xml:space="preserve" text-anchor="middle" x="646.05" y="-138.19" font-family="Times,serif" font-size="14.00">Subscriber Line (SHDSL) Lines Processing</text>
<text xml:space="preserve" text-anchor="middle" x="646.05" y="-121.69" font-family="Times,serif" font-size="14.00">2002</text>
</a>
</g>
</g>
<!-- obs -->
<g id="node4" class="node">
<title>obs</title>
<polygon fill="none" stroke="black" points="916.73,-239.99 850.48,-239.99 850.48,-203.99 916.73,-203.99 916.73,-239.99"/>
<text xml:space="preserve" text-anchor="middle" x="883.6" y="-216.94" font-family="Times,serif" font-size="14.00">obsoletes</text>
</g>
<!-- RFC3276&#45;&gt;obs -->
<g id="edge3" class="edge">
<title>RFC3276&#45;&gt;obs</title>
<path fill="none" stroke="black" d="M804.17,-204.01C816.81,-206.91 828.77,-209.65 839.36,-212.08"/>
<polygon fill="black" stroke="black" points="838.29,-215.42 848.82,-214.25 839.85,-208.6 838.29,-215.42"/>
</g>
<!-- updates -->
<g id="node5" class="node">
<title>updates</title>
<polygon fill="none" stroke="black" points="912.23,-185.99 854.98,-185.99 854.98,-149.99 912.23,-149.99 912.23,-185.99"/>
<text xml:space="preserve" text-anchor="middle" x="883.6" y="-162.94" font-family="Times,serif" font-size="14.00">updates</text>
</g>
<!-- RFC3276&#45;&gt;updates -->
<g id="edge4" class="edge">
<title>RFC3276&#45;&gt;updates</title>
<path fill="none" stroke="black" d="M825.88,-167.99C832.09,-167.99 837.98,-167.99 843.45,-167.99"/>
<polygon fill="black" stroke="black" points="843.21,-171.49 853.21,-167.99 843.21,-164.49 843.21,-171.49"/>
</g>
<!-- cites -->
<g id="node7" class="node">
<title>cites</title>
<polygon fill="none" stroke="black" points="910.6,-131.99 856.6,-131.99 856.6,-95.99 910.6,-95.99 910.6,-131.99"/>
<text xml:space="preserve" text-anchor="middle" x="883.6" y="-108.94" font-family="Times,serif" font-size="14.00">cites</text>
</g>
<!-- RFC3276&#45;&gt;cites -->
<g id="edge6" class="edge">
<title>RFC3276&#45;&gt;cites</title>
<path fill="none" stroke="black" d="M804.17,-131.97C819.1,-128.55 833.09,-125.34 844.99,-122.62"/>
<polygon fill="black" stroke="black" points="845.72,-126.04 854.69,-120.39 844.16,-119.22 845.72,-126.04"/>
</g>
<!-- obs_by -->
<g id="node2" class="node">
<title>obs_by</title>
<polygon fill="none" stroke="black" points="441.62,-239.99 375.37,-239.99 375.37,-203.99 441.62,-203.99 441.62,-239.99"/>
<text xml:space="preserve" text-anchor="middle" x="408.5" y="-216.94" font-family="Times,serif" font-size="14.00">obsoletes</text>
</g>
<!-- obs_by&#45;&gt;RFC3276 -->
<g id="edge1" class="edge">
<title>obs_by&#45;&gt;RFC3276</title>
<path fill="none" stroke="black" d="M441.76,-214.6C451.85,-212.28 463.75,-209.56 476.66,-206.6"/>
<polygon fill="black" stroke="black" points="477.28,-210.04 486.25,-204.4 475.72,-203.22 477.28,-210.04"/>
</g>
<!-- RFC4319 -->
<g id="node3" class="node">
<title>RFC4319</title>
<g id="a_node3"><a xlink:href="RFC4319.html" xlink:title="This document defines a Management Information Base (MIB) module for use with network management protocols in the Internet community. &#160;In particular, it describes objects used for managing High Bit&#45;Rate Digital Subscriber Line (DSL) &#45; 2nd generation (HDSL2) and Single&#45;Pair High&#45;Speed Digital Subscriber Line (SHDSL) interfaces. &#160;This document introduces extensions to several objects and textual conventions defined in HDSL2&#45;SHDSL&#45;Line MIB (RFC 3276). &#160;This document obsoletes RFC 3276. [STANDARDS&#45;TRACK]" target="_top">
<ellipse fill="none" stroke="black" cx="175.19" cy="-221.99" rx="170.94" ry="75.66"/>
<text xml:space="preserve" text-anchor="middle" x="175.19" y="-258.19" font-family="Times,serif" font-size="14.00">RFC4319</text>
<text xml:space="preserve" text-anchor="middle" x="175.19" y="-241.69" font-family="Times,serif" font-size="14.00">Definitions of Managed Objects for High</text>
<text xml:space="preserve" text-anchor="middle" x="175.19" y="-225.19" font-family="Times,serif" font-size="14.00">Bit&#45;Rate DSL &#45; 2nd generation (HDSL2)</text>
<text xml:space="preserve" text-anchor="middle" x="175.19" y="-208.69" font-family="Times,serif" font-size="14.00">and Single&#45;Pair High&#45;Speed Digital</text>
<text xml:space="preserve" text-anchor="middle" x="175.19" y="-192.19" font-family="Times,serif" font-size="14.00">Subscriber Line (SHDSL) Lines</text>
<text xml:space="preserve" text-anchor="middle" x="175.19" y="-175.69" font-family="Times,serif" font-size="14.00">2005</text>
</a>
</g>
</g>
<!-- RFC4319&#45;&gt;obs_by -->
<g id="edge2" class="edge">
<title>RFC4319&#45;&gt;obs_by</title>
<path fill="none" stroke="black" d="M346.42,-221.99C352.47,-221.99 358.27,-221.99 363.71,-221.99"/>
<polygon fill="black" stroke="black" points="363.52,-225.49 373.52,-221.99 363.52,-218.49 363.52,-225.49"/>
</g>
<!-- rev_cites -->
<g id="node8" class="node">
<title>rev_cites</title>
<polygon fill="none" stroke="black" points="435.5,-185.99 381.5,-185.99 381.5,-149.99 435.5,-149.99 435.5,-185.99"/>
<text xml:space="preserve" text-anchor="middle" x="408.5" y="-162.94" font-family="Times,serif" font-size="14.00">cites</text>
</g>
<!-- RFC4319&#45;&gt;rev_cites -->
<g id="edge9" class="edge">
<title>RFC4319&#45;&gt;rev_cites</title>
<path fill="none" stroke="black" d="M326.92,-186.8C342.86,-183.08 357.81,-179.59 370.41,-176.65"/>
<polygon fill="black" stroke="black" points="370.85,-180.14 379.8,-174.46 369.26,-173.32 370.85,-180.14"/>
</g>
<!-- updated_by -->
<g id="node6" class="node">
<title>updated_by</title>
<polygon fill="none" stroke="black" points="437.12,-131.99 379.87,-131.99 379.87,-95.99 437.12,-95.99 437.12,-131.99"/>
<text xml:space="preserve" text-anchor="middle" x="408.5" y="-108.94" font-family="Times,serif" font-size="14.00">updates</text>
</g>
<!-- updated_by&#45;&gt;RFC3276 -->
<g id="edge5" class="edge">
<title>updated_by&#45;&gt;RFC3276</title>
<path fill="none" stroke="black" d="M437.44,-120.4C448.38,-122.91 461.85,-126 476.65,-129.39"/>
<polygon fill="black" stroke="black" points="475.63,-132.74 486.16,-131.57 477.19,-125.92 475.63,-132.74"/>
</g>
<!-- rev_cites&#45;&gt;RFC3276 -->
<g id="edge7" class="edge">
<title>rev_cites&#45;&gt;RFC3276</title>
<path fill="none" stroke="black" d="M435.6,-167.99C441.41,-167.99 448,-167.99 455.16,-167.99"/>
<polygon fill="black" stroke="black" points="454.94,-171.49 464.94,-167.99 454.94,-164.49 454.94,-171.49"/>
</g>
<!-- RFC3705 -->
<g id="node9" class="node">
<title>RFC3705</title>
<g id="a_node9"><a xlink:href="RFC3705.html" xlink:title="This document presents a set of High Capacity Textual Conventions for use in MIB modules which require performance history based upon 15 minute intervals. &#160;The Textual Conventions defined in this document extend the conventions presented in RFC 3593 to 64 bit resolution using the conventions presented in RFC 2856. [STANDARDS&#45;TRACK]" target="_top">
<ellipse fill="none" stroke="black" cx="175.19" cy="-63.99" rx="175.19" ry="63.99"/>
<text xml:space="preserve" text-anchor="middle" x="175.19" y="-91.94" font-family="Times,serif" font-size="14.00">RFC3705</text>
<text xml:space="preserve" text-anchor="middle" x="175.19" y="-75.44" font-family="Times,serif" font-size="14.00">High Capacity Textual Conventions for</text>
<text xml:space="preserve" text-anchor="middle" x="175.19" y="-58.94" font-family="Times,serif" font-size="14.00">MIB Modules Using Performance History</text>
<text xml:space="preserve" text-anchor="middle" x="175.19" y="-42.44" font-family="Times,serif" font-size="14.00">Based on 15 Minute Intervals</text>
<text xml:space="preserve" text-anchor="middle" x="175.19" y="-25.94" font-family="Times,serif" font-size="14.00">2004</text>
</a>
</g>
</g>
<!-- RFC3705&#45;&gt;rev_cites -->
<g id="edge8" class="edge">
<title>RFC3705&#45;&gt;rev_cites</title>
<path fill="none" stroke="black" d="M294.02,-111.48C313.01,-119.68 332.34,-128.35 350.37,-136.99 357.21,-140.27 364.39,-143.96 371.27,-147.63"/>
<polygon fill="black" stroke="black" points="369.26,-150.52 379.72,-152.2 372.59,-144.36 369.26,-150.52"/>
</g>
</g>
</svg>
