<?xml version="1.0" encoding="UTF-8" standalone="no"?>
<!DOCTYPE svg PUBLIC "-//W3C//DTD SVG 1.1//EN"
 "http://www.w3.org/Graphics/SVG/1.1/DTD/svg11.dtd">
<!-- Generated by graphviz version 14.1.1 (20251213.1925)
 -->
<!-- Title: Flow Pages: 1 -->
<svg width="1246pt" height="554pt"
 viewBox="0.00 0.00 1246.00 554.00" xmlns="http://www.w3.org/2000/svg" xmlns:xlink="http://www.w3.org/1999/xlink">
<g id="graph0" class="graph" transform="scale(1 1) rotate(0) translate(4 549.65)">
<title>Flow</title>
<polygon fill="white" stroke="none" points="-4,4 -4,-549.65 1242.01,-549.65 1242.01,4 -4,4"/>
<!-- RFC3934 -->
<g id="node1" class="node">
<title>RFC3934</title>
<g id="a_node1"><a xlink:title="This document is an update to RFC 2418 that gives WG chairs explicit responsibility for managing WG mailing lists. &#160;In particular, it gives WG chairs the authority to temporarily suspend the mailing list posting privileges of disruptive individuals. &#160;This document specifies an Internet Best Current Practices for the Internet Community, and requests discussion and suggestions for improvements.">
<ellipse fill="green" stroke="black" cx="642.87" cy="-362.66" rx="151.85" ry="52.33"/>
<text xml:space="preserve" text-anchor="middle" x="642.87" y="-382.36" font-family="Times,serif" font-size="14.00">RFC3934</text>
<text xml:space="preserve" text-anchor="middle" x="642.87" y="-365.86" font-family="Times,serif" font-size="14.00">Updates to RFC 2418 Regarding the</text>
<text xml:space="preserve" text-anchor="middle" x="642.87" y="-349.36" font-family="Times,serif" font-size="14.00">Management of IETF Mailing Lists</text>
<text xml:space="preserve" text-anchor="middle" x="642.87" y="-332.86" font-family="Times,serif" font-size="14.00">2004</text>
</a>
</g>
</g>
<!-- obs -->
<g id="node3" class="node">
<title>obs</title>
<polygon fill="lightblue" stroke="black" points="885.97,-434.66 819.72,-434.66 819.72,-398.66 885.97,-398.66 885.97,-434.66"/>
<text xml:space="preserve" text-anchor="middle" x="852.84" y="-411.61" font-family="Times,serif" font-size="14.00">obsoletes</text>
</g>
<!-- RFC3934&#45;&gt;obs -->
<g id="edge2" class="edge">
<title>RFC3934&#45;&gt;obs</title>
<path fill="none" stroke="black" d="M765.15,-394.15C780.59,-398.16 795.51,-402.03 808.49,-405.4"/>
<polygon fill="black" stroke="black" points="807.34,-408.72 817.9,-407.84 809.1,-401.94 807.34,-408.72"/>
</g>
<!-- updates -->
<g id="node4" class="node">
<title>updates</title>
<polygon fill="lightyellow" stroke="black" points="881.47,-380.66 824.22,-380.66 824.22,-344.66 881.47,-344.66 881.47,-380.66"/>
<text xml:space="preserve" text-anchor="middle" x="852.84" y="-357.61" font-family="Times,serif" font-size="14.00">updates</text>
</g>
<!-- RFC3934&#45;&gt;updates -->
<g id="edge3" class="edge">
<title>RFC3934&#45;&gt;updates</title>
<path fill="none" stroke="black" d="M795.01,-362.66C801.21,-362.66 807.11,-362.66 812.62,-362.66"/>
<polygon fill="black" stroke="black" points="812.47,-366.16 822.47,-362.66 812.47,-359.16 812.47,-366.16"/>
</g>
<!-- cites -->
<g id="node7" class="node">
<title>cites</title>
<polygon fill="lightblue" stroke="black" points="879.84,-292.66 825.84,-292.66 825.84,-256.66 879.84,-256.66 879.84,-292.66"/>
<text xml:space="preserve" text-anchor="middle" x="852.84" y="-269.61" font-family="Times,serif" font-size="14.00">cites</text>
</g>
<!-- RFC3934&#45;&gt;cites -->
<g id="edge6" class="edge">
<title>RFC3934&#45;&gt;cites</title>
<path fill="none" stroke="black" d="M739.94,-322.01C766.77,-310.66 794.3,-299.01 815.35,-290.1"/>
<polygon fill="black" stroke="black" points="816.48,-293.42 824.33,-286.3 813.75,-286.98 816.48,-293.42"/>
</g>
<!-- obs_by -->
<g id="node2" class="node">
<title>obs_by</title>
<polygon fill="lightblue" stroke="black" points="466.02,-434.66 399.77,-434.66 399.77,-398.66 466.02,-398.66 466.02,-434.66"/>
<text xml:space="preserve" text-anchor="middle" x="432.89" y="-411.61" font-family="Times,serif" font-size="14.00">obsoletes</text>
</g>
<!-- obs_by&#45;&gt;RFC3934 -->
<g id="edge1" class="edge">
<title>obs_by&#45;&gt;RFC3934</title>
<path fill="none" stroke="black" d="M466.39,-408.22C478.85,-404.98 493.97,-401.06 510.05,-396.88"/>
<polygon fill="black" stroke="black" points="510.47,-400.39 519.27,-394.49 508.71,-393.62 510.47,-400.39"/>
</g>
<!-- RFC2418 -->
<g id="node5" class="node">
<title>RFC2418</title>
<g id="a_node5"><a xlink:href="RFC2418.html" xlink:title="This document describes the guidelines and procedures for formation and operation of IETF working groups. &#160;This document specifies an Internet Best Current Practices for the Internet Community, and requests discussion and suggestions for improvements." target="_top">
<ellipse fill="none" stroke="black" cx="1074.49" cy="-397.66" rx="155.03" ry="52.33"/>
<text xml:space="preserve" text-anchor="middle" x="1074.49" y="-417.36" font-family="Times,serif" font-size="14.00">RFC2418</text>
<text xml:space="preserve" text-anchor="middle" x="1074.49" y="-400.86" font-family="Times,serif" font-size="14.00">IETF Working Group Guidelines and</text>
<text xml:space="preserve" text-anchor="middle" x="1074.49" y="-384.36" font-family="Times,serif" font-size="14.00">Procedures</text>
<text xml:space="preserve" text-anchor="middle" x="1074.49" y="-367.86" font-family="Times,serif" font-size="14.00">1998</text>
</a>
</g>
</g>
<!-- updates&#45;&gt;RFC2418 -->
<g id="edge4" class="edge">
<title>updates&#45;&gt;RFC2418</title>
<path fill="none" stroke="black" d="M881.66,-367.09C892.99,-368.9 907.03,-371.13 922.32,-373.57"/>
<polygon fill="black" stroke="black" points="921.74,-377.02 932.16,-375.14 922.84,-370.11 921.74,-377.02"/>
</g>
<!-- updated_by -->
<g id="node6" class="node">
<title>updated_by</title>
<polygon fill="lightyellow" stroke="black" points="461.52,-380.66 404.27,-380.66 404.27,-344.66 461.52,-344.66 461.52,-380.66"/>
<text xml:space="preserve" text-anchor="middle" x="432.89" y="-357.61" font-family="Times,serif" font-size="14.00">updates</text>
</g>
<!-- updated_by&#45;&gt;RFC3934 -->
<g id="edge5" class="edge">
<title>updated_by&#45;&gt;RFC3934</title>
<path fill="none" stroke="black" d="M461.94,-362.66C467.14,-362.66 472.89,-362.66 479.06,-362.66"/>
<polygon fill="black" stroke="black" points="479.05,-366.16 489.05,-362.66 479.05,-359.16 479.05,-366.16"/>
</g>
<!-- cites&#45;&gt;RFC2418 -->
<g id="edge7" class="edge">
<title>cites&#45;&gt;RFC2418</title>
<path fill="none" stroke="black" d="M867.34,-293.06C877.94,-306.41 893.74,-324.09 910.97,-335.66 922.96,-343.71 936.13,-350.91 949.64,-357.31"/>
<polygon fill="black" stroke="black" points="948.09,-360.45 958.64,-361.41 951,-354.08 948.09,-360.45"/>
</g>
<!-- RFC2026 -->
<g id="node8" class="node">
<title>RFC2026</title>
<g id="a_node8"><a xlink:href="RFC2026.html" xlink:title="This memo documents the process used by the Internet community for the standardization of protocols and procedures. &#160;It defines the stages in the standardization process, the requirements for moving a document between stages and the types of documents used during this process. &#160;This document specifies an Internet Best Current Practices for the Internet Community, and requests discussion and suggestions for improvements." target="_top">
<ellipse fill="none" stroke="black" cx="1074.49" cy="-274.66" rx="139.65" ry="52.33"/>
<text xml:space="preserve" text-anchor="middle" x="1074.49" y="-294.36" font-family="Times,serif" font-size="14.00">RFC2026</text>
<text xml:space="preserve" text-anchor="middle" x="1074.49" y="-277.86" font-family="Times,serif" font-size="14.00">The Internet Standards Process &#45;&#45;</text>
<text xml:space="preserve" text-anchor="middle" x="1074.49" y="-261.36" font-family="Times,serif" font-size="14.00">Revision 3</text>
<text xml:space="preserve" text-anchor="middle" x="1074.49" y="-244.86" font-family="Times,serif" font-size="14.00">1996</text>
</a>
</g>
</g>
<!-- cites&#45;&gt;RFC2026 -->
<g id="edge8" class="edge">
<title>cites&#45;&gt;RFC2026</title>
<path fill="none" stroke="black" d="M880.34,-274.66C892.11,-274.66 906.98,-274.66 923.23,-274.66"/>
<polygon fill="black" stroke="black" points="923.16,-278.16 933.16,-274.66 923.16,-271.16 923.16,-278.16"/>
</g>
<!-- RFC3683 -->
<g id="node9" class="node">
<title>RFC3683</title>
<g id="a_node9"><a xlink:href="RFC3683.html" xlink:title="All self&#45;governing bodies have ways of managing the scope of participant interaction. &#160;The IETF uses a consensus&#45;driven process for developing computer&#45;communications standards in an open fashion. &#160;An important part of this consensus&#45;driven process is the pervasive use of mailing lists for discussion. &#160;Notably, in a small number of cases, a participant has engaged in a denial&#45;of&#45;service attack to disrupt the consensus&#45;driven process. &#160;Regrettably, as these bad faith attacks become more common, the IETF needs to establish a practice that reduces or eliminates these attacks. &#160;This memo recommends such a practice for use by the IETF. &#160;This document specifies an Internet Best Current Practices for the Internet Community, and requests discussion and suggestions for improvements." target="_top">
<ellipse fill="none" stroke="black" cx="1074.49" cy="-151.66" rx="163.52" ry="52.33"/>
<text xml:space="preserve" text-anchor="middle" x="1074.49" y="-171.36" font-family="Times,serif" font-size="14.00">RFC3683</text>
<text xml:space="preserve" text-anchor="middle" x="1074.49" y="-154.86" font-family="Times,serif" font-size="14.00">A Practice for Revoking Posting Rights</text>
<text xml:space="preserve" text-anchor="middle" x="1074.49" y="-138.36" font-family="Times,serif" font-size="14.00">to IETF Mailing Lists</text>
<text xml:space="preserve" text-anchor="middle" x="1074.49" y="-121.86" font-family="Times,serif" font-size="14.00">2004</text>
</a>
</g>
</g>
<!-- cites&#45;&gt;RFC3683 -->
<g id="edge9" class="edge">
<title>cites&#45;&gt;RFC3683</title>
<path fill="none" stroke="black" d="M867.34,-256.26C877.94,-242.9 893.74,-225.22 910.97,-213.66 922.24,-206.09 934.58,-199.26 947.24,-193.16"/>
<polygon fill="black" stroke="black" points="948.49,-196.44 956.08,-189.05 945.54,-190.09 948.49,-196.44"/>
</g>
<!-- RFC2629 -->
<g id="node10" class="node">
<title>RFC2629</title>
<g id="a_node10"><a xlink:href="RFC2629.html" xlink:title="This memo presents a technique for using XML (Extensible Markup Language) as a source format for documents in the Internet&#45;Drafts (I&#45;Ds) and Request for Comments (RFC) series. &#160;This memo provides information for the Internet community." target="_top">
<ellipse fill="none" stroke="black" cx="1074.49" cy="-40.66" rx="149.2" ry="40.66"/>
<text xml:space="preserve" text-anchor="middle" x="1074.49" y="-52.11" font-family="Times,serif" font-size="14.00">RFC2629</text>
<text xml:space="preserve" text-anchor="middle" x="1074.49" y="-35.61" font-family="Times,serif" font-size="14.00">Writing I&#45;Ds and RFCs using XML</text>
<text xml:space="preserve" text-anchor="middle" x="1074.49" y="-19.11" font-family="Times,serif" font-size="14.00">1999</text>
</a>
</g>
</g>
<!-- cites&#45;&gt;RFC2629 -->
<g id="edge10" class="edge">
<title>cites&#45;&gt;RFC2629</title>
<path fill="none" stroke="black" d="M854.15,-256.42C855.77,-219.79 864.67,-136.84 910.97,-90.66 919.69,-81.96 929.89,-74.77 940.84,-68.82"/>
<polygon fill="black" stroke="black" points="942.36,-71.98 949.75,-64.38 939.24,-65.71 942.36,-71.98"/>
</g>
<!-- rev_cites -->
<g id="node11" class="node">
<title>rev_cites</title>
<polygon fill="lightblue" stroke="black" points="459.89,-326.66 405.89,-326.66 405.89,-290.66 459.89,-290.66 459.89,-326.66"/>
<text xml:space="preserve" text-anchor="middle" x="432.89" y="-303.61" font-family="Times,serif" font-size="14.00">cites</text>
</g>
<!-- rev_cites&#45;&gt;RFC3934 -->
<g id="edge11" class="edge">
<title>rev_cites&#45;&gt;RFC3934</title>
<path fill="none" stroke="black" d="M460.23,-315.5C473.57,-318.96 490.87,-323.45 509.49,-328.29"/>
<polygon fill="black" stroke="black" points="508.56,-331.66 519.12,-330.79 510.32,-324.89 508.56,-331.66"/>
</g>
<!-- RFC4633 -->
<g id="node12" class="node">
<title>RFC4633</title>
<g id="a_node12"><a xlink:href="RFC4633.html" xlink:title="Discussion in the community has begun to question whether RFC 3683 and RFC 3934 provide the appropriate flexibility for managing Internet Engineering Task Force (IETF) mailing lists. &#160;This document is an RFC 3933 experiment designed to allow the community to experiment with a broader set of tools for mailing list management while trying to determine what the long&#45;term guidelines should be. &#160;This memo defines an Experimental Protocol for the Internet community." target="_top">
<ellipse fill="none" stroke="black" cx="187.38" cy="-481.66" rx="187.38" ry="63.99"/>
<text xml:space="preserve" text-anchor="middle" x="187.38" y="-509.61" font-family="Times,serif" font-size="14.00">RFC4633</text>
<text xml:space="preserve" text-anchor="middle" x="187.38" y="-493.11" font-family="Times,serif" font-size="14.00">Experiment in Long&#45;Term Suspensions From</text>
<text xml:space="preserve" text-anchor="middle" x="187.38" y="-476.61" font-family="Times,serif" font-size="14.00">Internet Engineering Task Force (IETF)</text>
<text xml:space="preserve" text-anchor="middle" x="187.38" y="-460.11" font-family="Times,serif" font-size="14.00">Mailing Lists</text>
<text xml:space="preserve" text-anchor="middle" x="187.38" y="-443.61" font-family="Times,serif" font-size="14.00">2006</text>
</a>
</g>
</g>
<!-- RFC4633&#45;&gt;rev_cites -->
<g id="edge12" class="edge">
<title>RFC4633&#45;&gt;rev_cites</title>
<path fill="none" stroke="black" d="M331.94,-440.82C347.74,-432.06 362.51,-421.46 374.77,-408.66 396.35,-386.11 383.29,-367.57 400.82,-336.66"/>
<polygon fill="black" stroke="black" points="403.67,-338.71 406.14,-328.41 397.78,-334.91 403.67,-338.71"/>
</g>
<!-- RFC4693 -->
<g id="node13" class="node">
<title>RFC4693</title>
<g id="a_node13"><a xlink:href="RFC4693.html" xlink:title="This document describes a new document series intended for use as a repository for IETF operations documents, which should be more ephemeral than RFCs, but more referenceable than Internet&#45;Drafts, and with more clear handling procedures than a random Web page. It proposes to establish this series as an RFC 3933 process experiment. This memo defines an Experimental Protocol for the Internet community." target="_top">
<ellipse fill="none" stroke="black" cx="187.38" cy="-358.66" rx="104.12" ry="40.66"/>
<text xml:space="preserve" text-anchor="middle" x="187.38" y="-370.11" font-family="Times,serif" font-size="14.00">RFC4693</text>
<text xml:space="preserve" text-anchor="middle" x="187.38" y="-353.61" font-family="Times,serif" font-size="14.00">IETF Operational Notes</text>
<text xml:space="preserve" text-anchor="middle" x="187.38" y="-337.11" font-family="Times,serif" font-size="14.00">2006</text>
</a>
</g>
</g>
<!-- RFC4693&#45;&gt;rev_cites -->
<g id="edge13" class="edge">
<title>RFC4693&#45;&gt;rev_cites</title>
<path fill="none" stroke="black" d="M280.1,-339.83C319.79,-331.68 364.02,-322.6 394.45,-316.35"/>
<polygon fill="black" stroke="black" points="394.82,-319.84 403.91,-314.4 393.41,-312.99 394.82,-319.84"/>
</g>
<!-- RFC7154 -->
<g id="node14" class="node">
<title>RFC7154</title>
<g id="a_node14"><a xlink:href="RFC7154.html" xlink:title="This document provides a set of guidelines for personal interaction in the Internet Engineering Task Force. The guidelines recognize the diversity of IETF participants, emphasize the value of mutual respect, and stress the broad applicability of our work. This document is an updated version of the guidelines for conduct originally published in RFC 3184." target="_top">
<ellipse fill="none" stroke="black" cx="187.38" cy="-259.66" rx="124.27" ry="40.66"/>
<text xml:space="preserve" text-anchor="middle" x="187.38" y="-271.11" font-family="Times,serif" font-size="14.00">RFC7154</text>
<text xml:space="preserve" text-anchor="middle" x="187.38" y="-254.61" font-family="Times,serif" font-size="14.00">IETF Guidelines for Conduct</text>
<text xml:space="preserve" text-anchor="middle" x="187.38" y="-238.11" font-family="Times,serif" font-size="14.00">2014</text>
</a>
</g>
</g>
<!-- RFC7154&#45;&gt;rev_cites -->
<g id="edge14" class="edge">
<title>RFC7154&#45;&gt;rev_cites</title>
<path fill="none" stroke="black" d="M294.13,-280.94C329.91,-288.14 367.56,-295.71 394.44,-301.12"/>
<polygon fill="black" stroke="black" points="393.65,-304.53 404.15,-303.08 395.03,-297.67 393.65,-304.53"/>
</g>
<!-- RFC7776 -->
<g id="node15" class="node">
<title>RFC7776</title>
<g id="a_node15"><a xlink:href="RFC7776.html" xlink:title="IETF Participants must not engage in harassment while at IETF meetings, virtual meetings, or social events or while participating in mailing lists. This document lays out procedures for managing and enforcing this policy. This document updates RFC 2418 by defining new working group guidelines and procedures. This document updates RFC 7437 by allowing the Ombudsteam to form a recall petition without further signatories." target="_top">
<ellipse fill="none" stroke="black" cx="187.38" cy="-160.66" rx="144.43" ry="40.66"/>
<text xml:space="preserve" text-anchor="middle" x="187.38" y="-172.11" font-family="Times,serif" font-size="14.00">RFC7776</text>
<text xml:space="preserve" text-anchor="middle" x="187.38" y="-155.61" font-family="Times,serif" font-size="14.00">IETF Anti&#45;Harassment Procedures</text>
<text xml:space="preserve" text-anchor="middle" x="187.38" y="-139.11" font-family="Times,serif" font-size="14.00">2016</text>
</a>
</g>
</g>
<!-- RFC7776&#45;&gt;rev_cites -->
<g id="edge15" class="edge">
<title>RFC7776&#45;&gt;rev_cites</title>
<path fill="none" stroke="black" d="M315.47,-179.58C336.65,-186.65 357.35,-196.36 374.77,-209.66 397.97,-227.38 413.37,-257.44 422.28,-279.79"/>
<polygon fill="black" stroke="black" points="418.92,-280.81 425.71,-288.95 425.48,-278.36 418.92,-280.81"/>
</g>
</g>
</svg>
