<?xml version="1.0" encoding="UTF-8" standalone="no"?>
<!DOCTYPE svg PUBLIC "-//W3C//DTD SVG 1.1//EN"
 "http://www.w3.org/Graphics/SVG/1.1/DTD/svg11.dtd">
<!-- Generated by graphviz version 14.1.1 (20251213.1925)
 -->
<!-- Title: Flow Pages: 1 -->
<svg width="1219pt" height="347pt"
 viewBox="0.00 0.00 1219.00 347.00" xmlns="http://www.w3.org/2000/svg" xmlns:xlink="http://www.w3.org/1999/xlink">
<g id="graph0" class="graph" transform="scale(1 1) rotate(0) translate(4 342.65)">
<title>Flow</title>
<polygon fill="white" stroke="none" points="-4,4 -4,-342.65 1215.49,-342.65 1215.49,4 -4,4"/>
<!-- RFC3385 -->
<g id="node1" class="node">
<title>RFC3385</title>
<g id="a_node1"><a xlink:title="None">
<ellipse fill="green" stroke="black" cx="641.81" cy="-217.33" rx="174.13" ry="63.99"/>
<text xml:space="preserve" text-anchor="middle" x="641.81" y="-245.28" font-family="Times,serif" font-size="14.00">RFC3385</text>
<text xml:space="preserve" text-anchor="middle" x="641.81" y="-228.78" font-family="Times,serif" font-size="14.00">Internet Protocol Small Computer System</text>
<text xml:space="preserve" text-anchor="middle" x="641.81" y="-212.28" font-family="Times,serif" font-size="14.00">Interface (iSCSI) Cyclic Redundancy</text>
<text xml:space="preserve" text-anchor="middle" x="641.81" y="-195.78" font-family="Times,serif" font-size="14.00">Check (CRC)/Checksum Considerations</text>
<text xml:space="preserve" text-anchor="middle" x="641.81" y="-179.28" font-family="Times,serif" font-size="14.00">2002</text>
</a>
</g>
</g>
<!-- obs -->
<g id="node3" class="node">
<title>obs</title>
<polygon fill="lightblue" stroke="black" points="907.18,-289.33 840.93,-289.33 840.93,-253.33 907.18,-253.33 907.18,-289.33"/>
<text xml:space="preserve" text-anchor="middle" x="874.06" y="-266.28" font-family="Times,serif" font-size="14.00">obsoletes</text>
</g>
<!-- RFC3385&#45;&gt;obs -->
<g id="edge2" class="edge">
<title>RFC3385&#45;&gt;obs</title>
<path fill="none" stroke="black" d="M789.28,-251.68C803.8,-255.08 817.6,-258.32 829.65,-261.15"/>
<polygon fill="black" stroke="black" points="828.63,-264.5 839.17,-263.38 830.23,-257.69 828.63,-264.5"/>
</g>
<!-- updates -->
<g id="node4" class="node">
<title>updates</title>
<polygon fill="lightyellow" stroke="black" points="902.68,-235.33 845.43,-235.33 845.43,-199.33 902.68,-199.33 902.68,-235.33"/>
<text xml:space="preserve" text-anchor="middle" x="874.06" y="-212.28" font-family="Times,serif" font-size="14.00">updates</text>
</g>
<!-- RFC3385&#45;&gt;updates -->
<g id="edge3" class="edge">
<title>RFC3385&#45;&gt;updates</title>
<path fill="none" stroke="black" d="M816.14,-217.33C822.35,-217.33 828.25,-217.33 833.73,-217.33"/>
<polygon fill="black" stroke="black" points="833.53,-220.83 843.53,-217.33 833.53,-213.83 833.53,-220.83"/>
</g>
<!-- cites -->
<g id="node6" class="node">
<title>cites</title>
<polygon fill="lightblue" stroke="black" points="901.06,-181.33 847.06,-181.33 847.06,-145.33 901.06,-145.33 901.06,-181.33"/>
<text xml:space="preserve" text-anchor="middle" x="874.06" y="-158.28" font-family="Times,serif" font-size="14.00">cites</text>
</g>
<!-- RFC3385&#45;&gt;cites -->
<g id="edge5" class="edge">
<title>RFC3385&#45;&gt;cites</title>
<path fill="none" stroke="black" d="M789.28,-182.97C806.29,-178.98 822.32,-175.23 835.7,-172.09"/>
<polygon fill="black" stroke="black" points="836.34,-175.53 845.28,-169.84 834.74,-168.72 836.34,-175.53"/>
</g>
<!-- obs_by -->
<g id="node2" class="node">
<title>obs_by</title>
<polygon fill="lightblue" stroke="black" points="442.68,-289.33 376.43,-289.33 376.43,-253.33 442.68,-253.33 442.68,-289.33"/>
<text xml:space="preserve" text-anchor="middle" x="409.56" y="-266.28" font-family="Times,serif" font-size="14.00">obsoletes</text>
</g>
<!-- obs_by&#45;&gt;RFC3385 -->
<g id="edge1" class="edge">
<title>obs_by&#45;&gt;RFC3385</title>
<path fill="none" stroke="black" d="M443.06,-263.7C454.53,-261.01 468.31,-257.78 483.2,-254.29"/>
<polygon fill="black" stroke="black" points="483.81,-257.74 492.74,-252.05 482.21,-250.93 483.81,-257.74"/>
</g>
<!-- updated_by -->
<g id="node5" class="node">
<title>updated_by</title>
<polygon fill="lightyellow" stroke="black" points="438.18,-235.33 380.93,-235.33 380.93,-199.33 438.18,-199.33 438.18,-235.33"/>
<text xml:space="preserve" text-anchor="middle" x="409.56" y="-212.28" font-family="Times,serif" font-size="14.00">updates</text>
</g>
<!-- updated_by&#45;&gt;RFC3385 -->
<g id="edge4" class="edge">
<title>updated_by&#45;&gt;RFC3385</title>
<path fill="none" stroke="black" d="M438.33,-217.33C443.69,-217.33 449.67,-217.33 456.11,-217.33"/>
<polygon fill="black" stroke="black" points="455.86,-220.83 465.86,-217.33 455.86,-213.83 455.86,-220.83"/>
</g>
<!-- RFC2026 -->
<g id="node7" class="node">
<title>RFC2026</title>
<g id="a_node7"><a xlink:href="RFC2026.html" xlink:title="This memo documents the process used by the Internet community for the standardization of protocols and procedures. &#160;It defines the stages in the standardization process, the requirements for moving a document between stages and the types of documents used during this process. &#160;This document specifies an Internet Best Current Practices for the Internet Community, and requests discussion and suggestions for improvements." target="_top">
<ellipse fill="none" stroke="black" cx="1071.84" cy="-274.33" rx="139.65" ry="52.33"/>
<text xml:space="preserve" text-anchor="middle" x="1071.84" y="-294.03" font-family="Times,serif" font-size="14.00">RFC2026</text>
<text xml:space="preserve" text-anchor="middle" x="1071.84" y="-277.53" font-family="Times,serif" font-size="14.00">The Internet Standards Process &#45;&#45;</text>
<text xml:space="preserve" text-anchor="middle" x="1071.84" y="-261.03" font-family="Times,serif" font-size="14.00">Revision 3</text>
<text xml:space="preserve" text-anchor="middle" x="1071.84" y="-244.53" font-family="Times,serif" font-size="14.00">1996</text>
</a>
</g>
</g>
<!-- cites&#45;&gt;RFC2026 -->
<g id="edge6" class="edge">
<title>cites&#45;&gt;RFC2026</title>
<path fill="none" stroke="black" d="M897.29,-181.79C900.62,-184.62 904.01,-187.54 907.18,-190.33 918.52,-200.3 919.55,-205.06 932.18,-213.33 942.12,-219.83 952.88,-225.93 963.84,-231.58"/>
<polygon fill="black" stroke="black" points="962.09,-234.62 972.6,-235.96 965.22,-228.36 962.09,-234.62"/>
</g>
<!-- RFC1146 -->
<g id="node8" class="node">
<title>RFC1146</title>
<g id="a_node8"><a xlink:href="RFC1146.html" xlink:title="This memo is suggests a pair of TCP options to allow use of alternate data checksum algorithms in the TCP header. &#160;The use of these options is experimental, and not recommended for production use. &#160;Note: This RFC corrects errors introduced in the editing process in RFC 1145." target="_top">
<ellipse fill="none" stroke="black" cx="1071.84" cy="-163.33" rx="135.94" ry="40.66"/>
<text xml:space="preserve" text-anchor="middle" x="1071.84" y="-174.78" font-family="Times,serif" font-size="14.00">RFC1146</text>
<text xml:space="preserve" text-anchor="middle" x="1071.84" y="-158.28" font-family="Times,serif" font-size="14.00">TCP alternate checksum options</text>
<text xml:space="preserve" text-anchor="middle" x="1071.84" y="-141.78" font-family="Times,serif" font-size="14.00">1990</text>
</a>
</g>
</g>
<!-- cites&#45;&gt;RFC1146 -->
<g id="edge7" class="edge">
<title>cites&#45;&gt;RFC1146</title>
<path fill="none" stroke="black" d="M901.46,-163.33C908.21,-163.33 915.96,-163.33 924.34,-163.33"/>
<polygon fill="black" stroke="black" points="924.18,-166.83 934.18,-163.33 924.18,-159.83 924.18,-166.83"/>
</g>
<!-- RFC1950 -->
<g id="node9" class="node">
<title>RFC1950</title>
<g id="a_node9"><a xlink:href="RFC1950.html" xlink:title="This specification defines a lossless compressed data format. &#160;This memo provides information for the Internet community. &#160;This memo does not specify an Internet standard of any kind." target="_top">
<ellipse fill="none" stroke="black" cx="1071.84" cy="-52.33" rx="134.35" ry="52.33"/>
<text xml:space="preserve" text-anchor="middle" x="1071.84" y="-72.03" font-family="Times,serif" font-size="14.00">RFC1950</text>
<text xml:space="preserve" text-anchor="middle" x="1071.84" y="-55.53" font-family="Times,serif" font-size="14.00">ZLIB Compressed Data Format</text>
<text xml:space="preserve" text-anchor="middle" x="1071.84" y="-39.03" font-family="Times,serif" font-size="14.00">Specification version 3.3</text>
<text xml:space="preserve" text-anchor="middle" x="1071.84" y="-22.53" font-family="Times,serif" font-size="14.00">1996</text>
</a>
</g>
</g>
<!-- cites&#45;&gt;RFC1950 -->
<g id="edge8" class="edge">
<title>cites&#45;&gt;RFC1950</title>
<path fill="none" stroke="black" d="M893.2,-144.88C903.89,-134.69 918.06,-122.31 932.18,-113.33 942.74,-106.61 954.15,-100.28 965.75,-94.43"/>
<polygon fill="black" stroke="black" points="967.18,-97.63 974.61,-90.09 964.1,-91.35 967.18,-97.63"/>
</g>
<!-- rev_cites -->
<g id="node10" class="node">
<title>rev_cites</title>
<polygon fill="lightblue" stroke="black" points="436.56,-181.33 382.56,-181.33 382.56,-145.33 436.56,-145.33 436.56,-181.33"/>
<text xml:space="preserve" text-anchor="middle" x="409.56" y="-158.28" font-family="Times,serif" font-size="14.00">cites</text>
</g>
<!-- rev_cites&#45;&gt;RFC3385 -->
<g id="edge9" class="edge">
<title>rev_cites&#45;&gt;RFC3385</title>
<path fill="none" stroke="black" d="M436.97,-169.52C449.49,-172.46 465.56,-176.23 483.18,-180.36"/>
<polygon fill="black" stroke="black" points="482.33,-183.75 492.86,-182.63 483.92,-176.94 482.33,-183.75"/>
</g>
<!-- RFC3720 -->
<g id="node11" class="node">
<title>RFC3720</title>
<g id="a_node11"><a xlink:href="RFC3720.html" xlink:title="This document describes a transport protocol for Internet Small Computer Systems Interface (iSCSI) that works on top of TCP. &#160;The iSCSI protocol aims to be fully compliant with the standardized SCSI architecture model. &#160;SCSI is a popular family of protocols that enable systems to communicate with I/O devices, especially storage devices. &#160;SCSI protocols are request/response application protocols with a common standardized architecture model and basic command set, as well as standardized command sets for different device classes (disks, tapes, media&#45;changers etc.). &#160;As system interconnects move from the classical bus structure to a network structure, SCSI has to be mapped to network transport protocols. &#160;IP networks now meet the performance requirements of fast system interconnects and as such are good candidates to carry SCSI. [STANDARDS&#45;TRACK]" target="_top">
<ellipse fill="none" stroke="black" cx="175.72" cy="-286.33" rx="142.84" ry="52.33"/>
<text xml:space="preserve" text-anchor="middle" x="175.72" y="-306.03" font-family="Times,serif" font-size="14.00">RFC3720</text>
<text xml:space="preserve" text-anchor="middle" x="175.72" y="-289.53" font-family="Times,serif" font-size="14.00">Internet Small Computer Systems</text>
<text xml:space="preserve" text-anchor="middle" x="175.72" y="-273.03" font-family="Times,serif" font-size="14.00">Interface (iSCSI)</text>
<text xml:space="preserve" text-anchor="middle" x="175.72" y="-256.53" font-family="Times,serif" font-size="14.00">2004</text>
</a>
</g>
</g>
<!-- RFC3720&#45;&gt;rev_cites -->
<g id="edge10" class="edge">
<title>RFC3720&#45;&gt;rev_cites</title>
<path fill="none" stroke="black" d="M293.03,-256.06C313.6,-247.71 333.99,-237.28 351.43,-224.33 366.49,-213.14 363.61,-204.01 376.43,-190.33 376.69,-190.05 376.96,-189.77 377.22,-189.49"/>
<polygon fill="black" stroke="black" points="379.6,-192.06 384.39,-182.61 374.75,-187.01 379.6,-192.06"/>
</g>
<!-- RFC7143 -->
<g id="node12" class="node">
<title>RFC7143</title>
<g id="a_node12"><a xlink:href="RFC7143.html" xlink:title="This document describes a transport protocol for SCSI that works on top of TCP. The iSCSI protocol aims to be fully compliant with the standardized SCSI Architecture Model (SAM&#45;2). RFC 3720 defined the original iSCSI protocol. RFC 3721 discusses iSCSI naming examples and discovery techniques. Subsequently, RFC 3980 added an additional naming format to the iSCSI protocol. RFC 4850 followed up by adding a new public extension key to iSCSI. RFC 5048 offered a number of clarifications as well as a few improvements and corrections to the original iSCSI protocol. This document obsoletes RFCs 3720, 3980, 4850, and 5048 by consolidating them into a single document and making additional updates to the consolidated specification. This document also updates RFC 3721. The text in this document thus supersedes the text in all the noted RFCs wherever there is a difference in semantics." target="_top">
<ellipse fill="none" stroke="black" cx="175.72" cy="-163.33" rx="175.72" ry="52.33"/>
<text xml:space="preserve" text-anchor="middle" x="175.72" y="-183.03" font-family="Times,serif" font-size="14.00">RFC7143</text>
<text xml:space="preserve" text-anchor="middle" x="175.72" y="-166.53" font-family="Times,serif" font-size="14.00">Internet Small Computer System Interface</text>
<text xml:space="preserve" text-anchor="middle" x="175.72" y="-150.03" font-family="Times,serif" font-size="14.00">(iSCSI) Protocol (Consolidated)</text>
<text xml:space="preserve" text-anchor="middle" x="175.72" y="-133.53" font-family="Times,serif" font-size="14.00">2014</text>
</a>
</g>
</g>
<!-- RFC7143&#45;&gt;rev_cites -->
<g id="edge11" class="edge">
<title>RFC7143&#45;&gt;rev_cites</title>
<path fill="none" stroke="black" d="M351.84,-163.33C358.58,-163.33 364.95,-163.33 370.82,-163.33"/>
<polygon fill="black" stroke="black" points="370.61,-166.83 380.61,-163.33 370.61,-159.83 370.61,-166.83"/>
</g>
<!-- RFC9868 -->
<g id="node13" class="node">
<title>RFC9868</title>
<g id="a_node13"><a xlink:href="RFC9868.html" xlink:title="Transport protocols are extended through the use of transport header options. &#160;This document updates RFC 768 (UDP) by indicating the location, syntax, and semantics for UDP transport layer options within the surplus area after the end of the UDP user data but before the end of the IP datagram." target="_top">
<ellipse fill="none" stroke="black" cx="175.72" cy="-52.33" rx="116.85" ry="40.66"/>
<text xml:space="preserve" text-anchor="middle" x="175.72" y="-63.78" font-family="Times,serif" font-size="14.00">RFC9868</text>
<text xml:space="preserve" text-anchor="middle" x="175.72" y="-47.28" font-family="Times,serif" font-size="14.00">Transport Options for UDP</text>
<text xml:space="preserve" text-anchor="middle" x="175.72" y="-30.78" font-family="Times,serif" font-size="14.00">2025</text>
</a>
</g>
</g>
<!-- RFC9868&#45;&gt;rev_cites -->
<g id="edge12" class="edge">
<title>RFC9868&#45;&gt;rev_cites</title>
<path fill="none" stroke="black" d="M279,-71.66C303.81,-78.98 329.49,-88.92 351.43,-102.33 365.74,-111.07 378.77,-124.34 388.76,-136.28"/>
<polygon fill="black" stroke="black" points="385.85,-138.25 394.83,-143.87 391.32,-133.88 385.85,-138.25"/>
</g>
</g>
</svg>
