<?xml version="1.0" encoding="UTF-8" standalone="no"?>
<!DOCTYPE svg PUBLIC "-//W3C//DTD SVG 1.1//EN"
 "http://www.w3.org/Graphics/SVG/1.1/DTD/svg11.dtd">
<!-- Generated by graphviz version 14.1.1 (20251213.1925)
 -->
<!-- Title: Flow Pages: 1 -->
<svg width="860pt" height="186pt"
 viewBox="0.00 0.00 860.00 186.00" xmlns="http://www.w3.org/2000/svg" xmlns:xlink="http://www.w3.org/1999/xlink">
<g id="graph0" class="graph" transform="scale(1 1) rotate(0) translate(4 182.33)">
<title>Flow</title>
<polygon fill="white" stroke="none" points="-4,4 -4,-182.33 856.03,-182.33 856.03,4 -4,4"/>
<!-- RFC3707 -->
<g id="node1" class="node">
<title>RFC3707</title>
<g id="a_node1"><a xlink:title="Internet registries expose administrative and operational data via varying directory services. &#160;This document defines functional requirements for the directory services of domain registries and the common base requirements for extending the use of these services for other types of Internet registries. &#160;This memo provides information for the Internet community.">
<ellipse fill="green" stroke="black" cx="594.08" cy="-106.33" rx="166.7" ry="52.33"/>
<text xml:space="preserve" text-anchor="middle" x="594.08" y="-126.03" font-family="Times,serif" font-size="14.00">RFC3707</text>
<text xml:space="preserve" text-anchor="middle" x="594.08" y="-109.53" font-family="Times,serif" font-size="14.00">Cross Registry Internet Service Protocol</text>
<text xml:space="preserve" text-anchor="middle" x="594.08" y="-93.03" font-family="Times,serif" font-size="14.00">(CRISP) Requirements</text>
<text xml:space="preserve" text-anchor="middle" x="594.08" y="-76.53" font-family="Times,serif" font-size="14.00">2004</text>
</a>
</g>
</g>
<!-- obs -->
<g id="node3" class="node">
<title>obs</title>
<polygon fill="lightblue" stroke="black" points="852.03,-178.33 785.78,-178.33 785.78,-142.33 852.03,-142.33 852.03,-178.33"/>
<text xml:space="preserve" text-anchor="middle" x="818.9" y="-155.28" font-family="Times,serif" font-size="14.00">obsoletes</text>
</g>
<!-- RFC3707&#45;&gt;obs -->
<g id="edge2" class="edge">
<title>RFC3707&#45;&gt;obs</title>
<path fill="none" stroke="black" d="M726.95,-138.28C744.15,-142.45 760.68,-146.46 774.82,-149.88"/>
<polygon fill="black" stroke="black" points="773.6,-153.19 784.14,-152.14 775.24,-146.39 773.6,-153.19"/>
</g>
<!-- updates -->
<g id="node4" class="node">
<title>updates</title>
<polygon fill="lightyellow" stroke="black" points="847.53,-124.33 790.28,-124.33 790.28,-88.33 847.53,-88.33 847.53,-124.33"/>
<text xml:space="preserve" text-anchor="middle" x="818.9" y="-101.28" font-family="Times,serif" font-size="14.00">updates</text>
</g>
<!-- RFC3707&#45;&gt;updates -->
<g id="edge3" class="edge">
<title>RFC3707&#45;&gt;updates</title>
<path fill="none" stroke="black" d="M761.1,-106.33C767.27,-106.33 773.14,-106.33 778.61,-106.33"/>
<polygon fill="black" stroke="black" points="778.37,-109.83 788.37,-106.33 778.37,-102.83 778.37,-109.83"/>
</g>
<!-- cites -->
<g id="node6" class="node">
<title>cites</title>
<polygon fill="lightblue" stroke="black" points="845.9,-70.33 791.9,-70.33 791.9,-34.33 845.9,-34.33 845.9,-70.33"/>
<text xml:space="preserve" text-anchor="middle" x="818.9" y="-47.28" font-family="Times,serif" font-size="14.00">cites</text>
</g>
<!-- RFC3707&#45;&gt;cites -->
<g id="edge5" class="edge">
<title>RFC3707&#45;&gt;cites</title>
<path fill="none" stroke="black" d="M726.95,-74.37C746.57,-69.61 765.31,-65.07 780.63,-61.36"/>
<polygon fill="black" stroke="black" points="781.27,-64.81 790.16,-59.05 779.62,-58 781.27,-64.81"/>
</g>
<!-- obs_by -->
<g id="node2" class="node">
<title>obs_by</title>
<polygon fill="lightblue" stroke="black" points="402.38,-178.33 336.13,-178.33 336.13,-142.33 402.38,-142.33 402.38,-178.33"/>
<text xml:space="preserve" text-anchor="middle" x="369.25" y="-155.28" font-family="Times,serif" font-size="14.00">obsoletes</text>
</g>
<!-- obs_by&#45;&gt;RFC3707 -->
<g id="edge1" class="edge">
<title>obs_by&#45;&gt;RFC3707</title>
<path fill="none" stroke="black" d="M402.65,-152.47C416.05,-149.23 432.58,-145.22 450.26,-140.94"/>
<polygon fill="black" stroke="black" points="451.04,-144.35 459.93,-138.59 449.39,-137.55 451.04,-144.35"/>
</g>
<!-- updated_by -->
<g id="node5" class="node">
<title>updated_by</title>
<polygon fill="lightyellow" stroke="black" points="397.88,-124.33 340.63,-124.33 340.63,-88.33 397.88,-88.33 397.88,-124.33"/>
<text xml:space="preserve" text-anchor="middle" x="369.25" y="-101.28" font-family="Times,serif" font-size="14.00">updates</text>
</g>
<!-- updated_by&#45;&gt;RFC3707 -->
<g id="edge4" class="edge">
<title>updated_by&#45;&gt;RFC3707</title>
<path fill="none" stroke="black" d="M398.02,-106.33C403.4,-106.33 409.4,-106.33 415.85,-106.33"/>
<polygon fill="black" stroke="black" points="415.61,-109.83 425.61,-106.33 415.61,-102.83 415.61,-109.83"/>
</g>
<!-- rev_cites -->
<g id="node7" class="node">
<title>rev_cites</title>
<polygon fill="lightblue" stroke="black" points="396.25,-70.33 342.25,-70.33 342.25,-34.33 396.25,-34.33 396.25,-70.33"/>
<text xml:space="preserve" text-anchor="middle" x="369.25" y="-47.28" font-family="Times,serif" font-size="14.00">cites</text>
</g>
<!-- rev_cites&#45;&gt;RFC3707 -->
<g id="edge6" class="edge">
<title>rev_cites&#45;&gt;RFC3707</title>
<path fill="none" stroke="black" d="M396.69,-58.73C410.95,-62.19 429.8,-66.76 450.17,-71.69"/>
<polygon fill="black" stroke="black" points="449.28,-75.08 459.82,-74.03 450.93,-68.28 449.28,-75.08"/>
</g>
<!-- RFC7481 -->
<g id="node8" class="node">
<title>RFC7481</title>
<g id="a_node8"><a xlink:href="RFC7481.html" xlink:title="The Registration Data Access Protocol (RDAP) provides RESTful web services to retrieve registration metadata from Domain Name and Regional Internet Registries. &#160;This document describes information security services, including access control, authentication, authorization, availability, data confidentiality, and data integrity for RDAP." target="_top">
<ellipse fill="none" stroke="black" cx="155.56" cy="-52.33" rx="155.56" ry="52.33"/>
<text xml:space="preserve" text-anchor="middle" x="155.56" y="-72.03" font-family="Times,serif" font-size="14.00">RFC7481</text>
<text xml:space="preserve" text-anchor="middle" x="155.56" y="-55.53" font-family="Times,serif" font-size="14.00">Security Services for the Registration</text>
<text xml:space="preserve" text-anchor="middle" x="155.56" y="-39.03" font-family="Times,serif" font-size="14.00">Data Access Protocol (RDAP)</text>
<text xml:space="preserve" text-anchor="middle" x="155.56" y="-22.53" font-family="Times,serif" font-size="14.00">2015</text>
</a>
</g>
</g>
<!-- RFC7481&#45;&gt;rev_cites -->
<g id="edge7" class="edge">
<title>RFC7481&#45;&gt;rev_cites</title>
<path fill="none" stroke="black" d="M311.52,-52.33C318.26,-52.33 324.66,-52.33 330.56,-52.33"/>
<polygon fill="black" stroke="black" points="330.43,-55.83 340.43,-52.33 330.43,-48.83 330.43,-55.83"/>
</g>
</g>
</svg>
