<?xml version="1.0" encoding="UTF-8" standalone="no"?>
<!DOCTYPE svg PUBLIC "-//W3C//DTD SVG 1.1//EN"
 "http://www.w3.org/Graphics/SVG/1.1/DTD/svg11.dtd">
<!-- Generated by graphviz version 14.1.1 (20251213.1925)
 -->
<!-- Title: Flow Pages: 1 -->
<svg width="879pt" height="186pt"
 viewBox="0.00 0.00 879.00 186.00" xmlns="http://www.w3.org/2000/svg" xmlns:xlink="http://www.w3.org/1999/xlink">
<g id="graph0" class="graph" transform="scale(1 1) rotate(0) translate(4 182.33)">
<title>Flow</title>
<polygon fill="white" stroke="none" points="-4,4 -4,-182.33 875.12,-182.33 875.12,4 -4,4"/>
<!-- RFC3259 -->
<g id="node1" class="node">
<title>RFC3259</title>
<g id="a_node1"><a xlink:title="The local Message Bus (Mbus) is a light&#45;weight message&#45;oriented coordination protocol for group communication between application components. &#160;The Mbus provides automatic location of communication peers, subject based addressing, reliable message transfer and different types of communication schemes. &#160;The protocol is layered on top of IP multicast and is specified for IPv4 and IPv6. &#160;The IP multicast scope is limited to link&#45;local multicast. &#160;This document specifies the Mbus protocol, i.e., message syntax, addressing and transport mechanisms. &#160;This memo provides information for the Internet community.">
<ellipse fill="none" stroke="black" cx="616.88" cy="-106.33" rx="162.99" ry="40.66"/>
<text xml:space="preserve" text-anchor="middle" x="616.88" y="-117.78" font-family="Times,serif" font-size="14.00">RFC3259</text>
<text xml:space="preserve" text-anchor="middle" x="616.88" y="-101.28" font-family="Times,serif" font-size="14.00">A Message Bus for Local Coordination</text>
<text xml:space="preserve" text-anchor="middle" x="616.88" y="-84.78" font-family="Times,serif" font-size="14.00">2002</text>
</a>
</g>
</g>
<!-- obs -->
<g id="node3" class="node">
<title>obs</title>
<polygon fill="none" stroke="black" points="871.12,-178.33 804.87,-178.33 804.87,-142.33 871.12,-142.33 871.12,-178.33"/>
<text xml:space="preserve" text-anchor="middle" x="837.99" y="-155.28" font-family="Times,serif" font-size="14.00">obsoletes</text>
</g>
<!-- RFC3259&#45;&gt;obs -->
<g id="edge2" class="edge">
<title>RFC3259&#45;&gt;obs</title>
<path fill="none" stroke="black" d="M734.17,-134.99C755.52,-140.25 776.52,-145.42 793.92,-149.71"/>
<polygon fill="black" stroke="black" points="792.78,-153.03 803.33,-152.03 794.46,-146.24 792.78,-153.03"/>
</g>
<!-- updates -->
<g id="node4" class="node">
<title>updates</title>
<polygon fill="none" stroke="black" points="866.62,-124.33 809.37,-124.33 809.37,-88.33 866.62,-88.33 866.62,-124.33"/>
<text xml:space="preserve" text-anchor="middle" x="837.99" y="-101.28" font-family="Times,serif" font-size="14.00">updates</text>
</g>
<!-- RFC3259&#45;&gt;updates -->
<g id="edge3" class="edge">
<title>RFC3259&#45;&gt;updates</title>
<path fill="none" stroke="black" d="M780.28,-106.33C786.43,-106.33 792.29,-106.33 797.74,-106.33"/>
<polygon fill="black" stroke="black" points="797.48,-109.83 807.48,-106.33 797.48,-102.83 797.48,-109.83"/>
</g>
<!-- cites -->
<g id="node6" class="node">
<title>cites</title>
<polygon fill="none" stroke="black" points="864.99,-70.33 810.99,-70.33 810.99,-34.33 864.99,-34.33 864.99,-70.33"/>
<text xml:space="preserve" text-anchor="middle" x="837.99" y="-47.28" font-family="Times,serif" font-size="14.00">cites</text>
</g>
<!-- RFC3259&#45;&gt;cites -->
<g id="edge5" class="edge">
<title>RFC3259&#45;&gt;cites</title>
<path fill="none" stroke="black" d="M734.17,-77.67C757.98,-71.8 781.36,-66.04 799.8,-61.49"/>
<polygon fill="black" stroke="black" points="800.53,-64.92 809.41,-59.12 798.86,-58.12 800.53,-64.92"/>
</g>
<!-- obs_by -->
<g id="node2" class="node">
<title>obs_by</title>
<polygon fill="none" stroke="black" points="428.89,-178.33 362.64,-178.33 362.64,-142.33 428.89,-142.33 428.89,-178.33"/>
<text xml:space="preserve" text-anchor="middle" x="395.77" y="-155.28" font-family="Times,serif" font-size="14.00">obsoletes</text>
</g>
<!-- obs_by&#45;&gt;RFC3259 -->
<g id="edge1" class="edge">
<title>obs_by&#45;&gt;RFC3259</title>
<path fill="none" stroke="black" d="M429.1,-152.36C445.57,-148.3 466.78,-143.07 488.96,-137.6"/>
<polygon fill="black" stroke="black" points="489.57,-141.06 498.44,-135.27 487.9,-134.26 489.57,-141.06"/>
</g>
<!-- updated_by -->
<g id="node5" class="node">
<title>updated_by</title>
<polygon fill="none" stroke="black" points="424.39,-124.33 367.14,-124.33 367.14,-88.33 424.39,-88.33 424.39,-124.33"/>
<text xml:space="preserve" text-anchor="middle" x="395.77" y="-101.28" font-family="Times,serif" font-size="14.00">updates</text>
</g>
<!-- updated_by&#45;&gt;RFC3259 -->
<g id="edge4" class="edge">
<title>updated_by&#45;&gt;RFC3259</title>
<path fill="none" stroke="black" d="M424.52,-106.33C429.9,-106.33 435.9,-106.33 442.36,-106.33"/>
<polygon fill="black" stroke="black" points="442.11,-109.83 452.11,-106.33 442.11,-102.83 442.11,-109.83"/>
</g>
<!-- rev_cites -->
<g id="node7" class="node">
<title>rev_cites</title>
<polygon fill="none" stroke="black" points="422.77,-70.33 368.77,-70.33 368.77,-34.33 422.77,-34.33 422.77,-70.33"/>
<text xml:space="preserve" text-anchor="middle" x="395.77" y="-47.28" font-family="Times,serif" font-size="14.00">cites</text>
</g>
<!-- rev_cites&#45;&gt;RFC3259 -->
<g id="edge6" class="edge">
<title>rev_cites&#45;&gt;RFC3259</title>
<path fill="none" stroke="black" d="M423.2,-58.84C440.25,-63.04 463.83,-68.85 488.64,-74.97"/>
<polygon fill="black" stroke="black" points="487.71,-78.34 498.25,-77.34 489.38,-71.55 487.71,-78.34"/>
</g>
<!-- RFC9804 -->
<g id="node8" class="node">
<title>RFC9804</title>
<g id="a_node8"><a xlink:href="RFC9804.html" xlink:title="This memo specifies the data structure representation that was devised to support Simple Public Key Infrastructure (SPKI) certificates, as detailed in RFC 2692, with the intent that it be more widely applicable. &#160;It has been and is being used elsewhere. &#160;There are multiple implementations in a variety of programming languages. &#160;Uses of this representation are referred to in this document as S&#45;expressions. &#160;This memo makes precise the encodings of these SPKI S&#45;expressions: It gives a canonical form for them, describes two transport representations, and also describes an advanced format for display to people." target="_top">
<ellipse fill="none" stroke="black" cx="168.82" cy="-52.33" rx="168.82" ry="52.33"/>
<text xml:space="preserve" text-anchor="middle" x="168.82" y="-72.03" font-family="Times,serif" font-size="14.00">RFC9804</text>
<text xml:space="preserve" text-anchor="middle" x="168.82" y="-55.53" font-family="Times,serif" font-size="14.00">Simple Public Key Infrastructure (SPKI)</text>
<text xml:space="preserve" text-anchor="middle" x="168.82" y="-39.03" font-family="Times,serif" font-size="14.00">S&#45;Expressions</text>
<text xml:space="preserve" text-anchor="middle" x="168.82" y="-22.53" font-family="Times,serif" font-size="14.00">2025</text>
</a>
</g>
</g>
<!-- RFC9804&#45;&gt;rev_cites -->
<g id="edge7" class="edge">
<title>RFC9804&#45;&gt;rev_cites</title>
<path fill="none" stroke="black" d="M338,-52.33C344.8,-52.33 351.23,-52.33 357.15,-52.33"/>
<polygon fill="black" stroke="black" points="357.04,-55.83 367.04,-52.33 357.04,-48.83 357.04,-55.83"/>
</g>
</g>
</svg>
