<?xml version="1.0" encoding="UTF-8" standalone="no"?>
<!DOCTYPE svg PUBLIC "-//W3C//DTD SVG 1.1//EN"
 "http://www.w3.org/Graphics/SVG/1.1/DTD/svg11.dtd">
<!-- Generated by graphviz version 14.1.1 (20251213.1925)
 -->
<!-- Title: Flow Pages: 1 -->
<svg width="1213pt" height="856pt"
 viewBox="0.00 0.00 1213.00 856.00" xmlns="http://www.w3.org/2000/svg" xmlns:xlink="http://www.w3.org/1999/xlink">
<g id="graph0" class="graph" transform="scale(1 1) rotate(0) translate(4 852.09)">
<title>Flow</title>
<polygon fill="white" stroke="none" points="-4,4 -4,-852.09 1208.87,-852.09 1208.87,4 -4,4"/>
<!-- RFC3538 -->
<g id="node1" class="node">
<title>RFC3538</title>
<g id="a_node1"><a xlink:title="This document describes detailed Input/Output parameters for the Internet Open Trading Protocol (IOTP) Payment Application Programming Interface (API). &#160;It also describes procedures in the Payment Bridge for the use of SET (SET Secure Electronic Transaction) as the payment protocol within Version 1.0 of the IOTP. &#160;This memo provides information for the Internet community.">
<ellipse fill="green" stroke="black" stroke-width="3" cx="834.96" cy="-406.88" rx="209.66" ry="79.9"/>
<text xml:space="preserve" text-anchor="middle" x="834.96" y="-442.28" font-family="Times,serif" font-size="18.00">RFC3538</text>
<text xml:space="preserve" text-anchor="middle" x="834.96" y="-421.28" font-family="Times,serif" font-size="18.00">Secure Electronic Transaction (SET)</text>
<text xml:space="preserve" text-anchor="middle" x="834.96" y="-400.28" font-family="Times,serif" font-size="18.00">Supplement for the v1.0 Internet Open</text>
<text xml:space="preserve" text-anchor="middle" x="834.96" y="-379.28" font-family="Times,serif" font-size="18.00">Trading Protocol (IOTP)</text>
<text xml:space="preserve" text-anchor="middle" x="834.96" y="-358.28" font-family="Times,serif" font-size="18.00">2003</text>
</a>
</g>
</g>
<!-- obs -->
<g id="node3" class="node">
<title>obs</title>
<polygon fill="lightblue" stroke="black" points="1204.87,-619.32 1138.62,-619.32 1138.62,-583.32 1204.87,-583.32 1204.87,-619.32"/>
<text xml:space="preserve" text-anchor="middle" x="1171.74" y="-596.27" font-family="Times,serif" font-size="14.00">obsoletes</text>
</g>
<!-- RFC3538&#45;&gt;obs -->
<g id="edge2" class="edge">
<title>RFC3538&#45;&gt;obs</title>
<path fill="none" stroke="black" d="M951.81,-474.34C1013.67,-510.06 1085.81,-551.71 1130.13,-577.3"/>
<polygon fill="black" stroke="black" points="1128.24,-580.25 1138.65,-582.22 1131.74,-574.19 1128.24,-580.25"/>
</g>
<!-- updates -->
<g id="node4" class="node">
<title>updates</title>
<polygon fill="lightyellow" stroke="black" points="863.59,-813.77 806.34,-813.77 806.34,-777.77 863.59,-777.77 863.59,-813.77"/>
<text xml:space="preserve" text-anchor="middle" x="834.96" y="-790.72" font-family="Times,serif" font-size="14.00">updates</text>
</g>
<!-- RFC3538&#45;&gt;updates -->
<g id="edge3" class="edge">
<title>RFC3538&#45;&gt;updates</title>
<path fill="none" stroke="black" d="M834.96,-487.93C834.96,-574.59 834.96,-707.44 834.96,-766.14"/>
<polygon fill="black" stroke="black" points="831.46,-765.98 834.96,-775.98 838.46,-765.98 831.46,-765.98"/>
</g>
<!-- cites -->
<g id="node6" class="node">
<title>cites</title>
<polygon fill="lightblue" stroke="black" points="525.18,-619.32 471.18,-619.32 471.18,-583.32 525.18,-583.32 525.18,-619.32"/>
<text xml:space="preserve" text-anchor="middle" x="498.18" y="-596.27" font-family="Times,serif" font-size="14.00">cites</text>
</g>
<!-- RFC3538&#45;&gt;cites -->
<g id="edge5" class="edge">
<title>RFC3538&#45;&gt;cites</title>
<path fill="none" stroke="black" d="M718.12,-474.34C654.1,-511.31 579.07,-554.62 535.26,-579.91"/>
<polygon fill="black" stroke="black" points="533.57,-576.85 526.66,-584.88 537.07,-582.91 533.57,-576.85"/>
</g>
<!-- obs_by -->
<g id="node2" class="node">
<title>obs_by</title>
<polygon fill="lightblue" stroke="black" points="531.3,-230.44 465.05,-230.44 465.05,-194.44 531.3,-194.44 531.3,-230.44"/>
<text xml:space="preserve" text-anchor="middle" x="498.18" y="-207.39" font-family="Times,serif" font-size="14.00">obsoletes</text>
</g>
<!-- obs_by&#45;&gt;RFC3538 -->
<g id="edge1" class="edge">
<title>obs_by&#45;&gt;RFC3538</title>
<path fill="none" stroke="black" d="M530.17,-230.91C570.93,-254.44 643.82,-296.53 708.1,-333.64"/>
<polygon fill="black" stroke="black" points="706.2,-336.59 716.62,-338.56 709.7,-330.52 706.2,-336.59"/>
</g>
<!-- updated_by -->
<g id="node5" class="node">
<title>updated_by</title>
<polygon fill="lightyellow" stroke="black" points="863.59,-36 806.34,-36 806.34,0 863.59,0 863.59,-36"/>
<text xml:space="preserve" text-anchor="middle" x="834.96" y="-12.95" font-family="Times,serif" font-size="14.00">updates</text>
</g>
<!-- updated_by&#45;&gt;RFC3538 -->
<g id="edge4" class="edge">
<title>updated_by&#45;&gt;RFC3538</title>
<path fill="none" stroke="black" d="M834.96,-36.5C834.96,-85.54 834.96,-221.52 834.96,-314.34"/>
<polygon fill="black" stroke="black" points="831.46,-314.2 834.96,-324.2 838.46,-314.2 831.46,-314.2"/>
</g>
<!-- RFC2801 -->
<g id="node7" class="node">
<title>RFC2801</title>
<g id="a_node7"><a xlink:href="RFC2801.html" xlink:title="This document discusses the Internet Open Trading Protocol (IOTP) and its provision of an interoperable framework for Internet commerce. &#160;This memo provides information for the Internet community." target="_top">
<ellipse fill="none" stroke="black" cx="161.4" cy="-795.77" rx="161.4" ry="52.33"/>
<text xml:space="preserve" text-anchor="middle" x="161.4" y="-815.47" font-family="Times,serif" font-size="14.00">RFC2801</text>
<text xml:space="preserve" text-anchor="middle" x="161.4" y="-798.97" font-family="Times,serif" font-size="14.00">Internet Open Trading Protocol &#45; IOTP</text>
<text xml:space="preserve" text-anchor="middle" x="161.4" y="-782.47" font-family="Times,serif" font-size="14.00">Version 1.0</text>
<text xml:space="preserve" text-anchor="middle" x="161.4" y="-765.97" font-family="Times,serif" font-size="14.00">2000</text>
</a>
</g>
</g>
<!-- cites&#45;&gt;RFC2801 -->
<g id="edge6" class="edge">
<title>cites&#45;&gt;RFC2801</title>
<path fill="none" stroke="black" d="M470.9,-617.07C423.55,-644.41 324.15,-701.8 250.71,-744.2"/>
<polygon fill="black" stroke="black" points="249.21,-741.03 242.3,-749.06 252.71,-747.09 249.21,-741.03"/>
</g>
<!-- rev_cites -->
<g id="node8" class="node">
<title>rev_cites</title>
<polygon fill="lightblue" stroke="black" points="1198.74,-230.44 1144.74,-230.44 1144.74,-194.44 1198.74,-194.44 1198.74,-230.44"/>
<text xml:space="preserve" text-anchor="middle" x="1171.74" y="-207.39" font-family="Times,serif" font-size="14.00">cites</text>
</g>
<!-- rev_cites&#45;&gt;RFC3538 -->
<g id="edge7" class="edge">
<title>rev_cites&#45;&gt;RFC3538</title>
<path fill="none" stroke="black" d="M1144.47,-228.19C1104.84,-251.07 1028.78,-294.98 961.98,-333.55"/>
<polygon fill="black" stroke="black" points="960.42,-330.41 953.51,-338.44 963.92,-336.47 960.42,-330.41"/>
</g>
</g>
</svg>
