<?xml version="1.0" encoding="UTF-8" standalone="no"?>
<!DOCTYPE svg PUBLIC "-//W3C//DTD SVG 1.1//EN"
 "http://www.w3.org/Graphics/SVG/1.1/DTD/svg11.dtd">
<!-- Generated by graphviz version 14.1.1 (20251213.1925)
 -->
<!-- Title: Flow Pages: 1 -->
<svg width="1230pt" height="1150pt"
 viewBox="0.00 0.00 1230.00 1150.00" xmlns="http://www.w3.org/2000/svg" xmlns:xlink="http://www.w3.org/1999/xlink">
<g id="graph0" class="graph" transform="scale(1 1) rotate(0) translate(4 1146.38)">
<title>Flow</title>
<polygon fill="white" stroke="none" points="-4,4 -4,-1146.38 1226.08,-1146.38 1226.08,4 -4,4"/>
<!-- RFC3081 -->
<g id="node1" class="node">
<title>RFC3081</title>
<g id="a_node1"><a xlink:title="This memo describes how a BEEP (Blocks Extensible Exchange Protocol) session is mapped onto a single TCP (Transmission Control Protocol) connection. [STANDARDS&#45;TRACK]">
<ellipse fill="green" stroke="black" stroke-width="3" cx="399.67" cy="-767.03" rx="191.1" ry="50.2"/>
<text xml:space="preserve" text-anchor="middle" x="399.67" y="-781.43" font-family="Times,serif" font-size="18.00">RFC3081</text>
<text xml:space="preserve" text-anchor="middle" x="399.67" y="-760.43" font-family="Times,serif" font-size="18.00">Mapping the BEEP Core onto TCP</text>
<text xml:space="preserve" text-anchor="middle" x="399.67" y="-739.43" font-family="Times,serif" font-size="18.00">2001</text>
</a>
</g>
</g>
<!-- obs -->
<g id="node3" class="node">
<title>obs</title>
<polygon fill="lightblue" stroke="black" points="763.03,-944.07 696.78,-944.07 696.78,-908.07 763.03,-908.07 763.03,-944.07"/>
<text xml:space="preserve" text-anchor="middle" x="729.91" y="-921.02" font-family="Times,serif" font-size="14.00">obsoletes</text>
</g>
<!-- RFC3081&#45;&gt;obs -->
<g id="edge2" class="edge">
<title>RFC3081&#45;&gt;obs</title>
<path fill="none" stroke="black" d="M493.42,-812.18C556.66,-842.63 637.21,-881.42 686.1,-904.97"/>
<polygon fill="black" stroke="black" points="684.44,-908.05 694.97,-909.24 687.48,-901.75 684.44,-908.05"/>
</g>
<!-- updates -->
<g id="node4" class="node">
<title>updates</title>
<polygon fill="lightyellow" stroke="black" points="509.85,-1142.38 452.6,-1142.38 452.6,-1106.38 509.85,-1106.38 509.85,-1142.38"/>
<text xml:space="preserve" text-anchor="middle" x="481.23" y="-1119.33" font-family="Times,serif" font-size="14.00">updates</text>
</g>
<!-- RFC3081&#45;&gt;updates -->
<g id="edge3" class="edge">
<title>RFC3081&#45;&gt;updates</title>
<path fill="none" stroke="black" d="M411.44,-818.61C428.81,-894.72 460.74,-1034.61 474.56,-1095.16"/>
<polygon fill="black" stroke="black" points="471.1,-1095.73 476.74,-1104.7 477.92,-1094.17 471.1,-1095.73"/>
</g>
<!-- cites -->
<g id="node6" class="node">
<title>cites</title>
<polygon fill="lightblue" stroke="black" points="198.13,-1071.6 144.13,-1071.6 144.13,-1035.6 198.13,-1035.6 198.13,-1071.6"/>
<text xml:space="preserve" text-anchor="middle" x="171.13" y="-1048.55" font-family="Times,serif" font-size="14.00">cites</text>
</g>
<!-- RFC3081&#45;&gt;cites -->
<g id="edge5" class="edge">
<title>RFC3081&#45;&gt;cites</title>
<path fill="none" stroke="black" d="M359.6,-817.27C311.11,-878.07 231.23,-978.24 192.93,-1026.27"/>
<polygon fill="black" stroke="black" points="190.29,-1023.97 186.79,-1033.97 195.76,-1028.33 190.29,-1023.97"/>
</g>
<!-- obs_by -->
<g id="node2" class="node">
<title>obs_by</title>
<polygon fill="lightblue" stroke="black" points="66.25,-785.03 0,-785.03 0,-749.03 66.25,-749.03 66.25,-785.03"/>
<text xml:space="preserve" text-anchor="middle" x="33.13" y="-761.98" font-family="Times,serif" font-size="14.00">obsoletes</text>
</g>
<!-- obs_by&#45;&gt;RFC3081 -->
<g id="edge1" class="edge">
<title>obs_by&#45;&gt;RFC3081</title>
<path fill="none" stroke="black" d="M66.62,-767.03C97.35,-767.03 145.61,-767.03 195.95,-767.03"/>
<polygon fill="black" stroke="black" points="195.89,-770.53 205.89,-767.03 195.89,-763.53 195.89,-770.53"/>
</g>
<!-- updated_by -->
<g id="node5" class="node">
<title>updated_by</title>
<polygon fill="lightyellow" stroke="black" points="199.76,-498.46 142.51,-498.46 142.51,-462.46 199.76,-462.46 199.76,-498.46"/>
<text xml:space="preserve" text-anchor="middle" x="171.13" y="-475.41" font-family="Times,serif" font-size="14.00">updates</text>
</g>
<!-- updated_by&#45;&gt;RFC3081 -->
<g id="edge4" class="edge">
<title>updated_by&#45;&gt;RFC3081</title>
<path fill="none" stroke="black" d="M185.78,-498.82C218.82,-540.26 300.37,-642.52 352.69,-708.12"/>
<polygon fill="black" stroke="black" points="349.64,-709.91 358.61,-715.55 355.11,-705.55 349.64,-709.91"/>
</g>
<!-- rev_cites -->
<g id="node7" class="node">
<title>rev_cites</title>
<polygon fill="lightblue" stroke="black" points="655.2,-498.46 601.2,-498.46 601.2,-462.46 655.2,-462.46 655.2,-498.46"/>
<text xml:space="preserve" text-anchor="middle" x="628.2" y="-475.41" font-family="Times,serif" font-size="14.00">cites</text>
</g>
<!-- rev_cites&#45;&gt;RFC3081 -->
<g id="edge6" class="edge">
<title>rev_cites&#45;&gt;RFC3081</title>
<path fill="none" stroke="black" d="M613.56,-498.82C580.51,-540.26 498.96,-642.52 446.64,-708.12"/>
<polygon fill="black" stroke="black" points="444.22,-705.55 440.72,-715.55 449.69,-709.91 444.22,-705.55"/>
</g>
<!-- RFC3760 -->
<g id="node8" class="node">
<title>RFC3760</title>
<g id="a_node8"><a xlink:href="RFC3760.html" xlink:title="As the number, and more particularly the number of different types, of devices connecting to the Internet increases, credential mobility becomes an issue for IETF standardization. &#160;This document responds to the requirements on protocols for secure exchange of credentials listed in RFC 3157, by presenting an abstract protocol framework. &#160;This memo provides information for the Internet community." target="_top">
<ellipse fill="none" stroke="black" cx="562.79" cy="-52.33" rx="176.25" ry="52.33"/>
<text xml:space="preserve" text-anchor="middle" x="562.79" y="-72.03" font-family="Times,serif" font-size="14.00">RFC3760</text>
<text xml:space="preserve" text-anchor="middle" x="562.79" y="-55.53" font-family="Times,serif" font-size="14.00">Securely Available Credentials (SACRED)</text>
<text xml:space="preserve" text-anchor="middle" x="562.79" y="-39.03" font-family="Times,serif" font-size="14.00">&#45; Credential Server Framework</text>
<text xml:space="preserve" text-anchor="middle" x="562.79" y="-22.53" font-family="Times,serif" font-size="14.00">2004</text>
</a>
</g>
</g>
<!-- RFC3760&#45;&gt;rev_cites -->
<g id="edge7" class="edge">
<title>RFC3760&#45;&gt;rev_cites</title>
<path fill="none" stroke="black" d="M570.81,-104.82C584.68,-195.59 612.7,-378.99 623.66,-450.73"/>
<polygon fill="black" stroke="black" points="620.19,-451.17 625.16,-460.53 627.11,-450.11 620.19,-451.17"/>
</g>
<!-- RFC5573 -->
<g id="node9" class="node">
<title>RFC5573</title>
<g id="a_node9"><a xlink:href="RFC5573.html" xlink:title="The Blocks Extensible Exchange Protocol (BEEP) provides a protocol framework for the development of application protocols. &#160;This document describes a BEEP feature that enables asynchrony for individual channels. &#160;This memo defines an Experimental Protocol for the Internet community." target="_top">
<ellipse fill="none" stroke="black" cx="1060.15" cy="-448.96" rx="161.93" ry="52.33"/>
<text xml:space="preserve" text-anchor="middle" x="1060.15" y="-468.66" font-family="Times,serif" font-size="14.00">RFC5573</text>
<text xml:space="preserve" text-anchor="middle" x="1060.15" y="-452.16" font-family="Times,serif" font-size="14.00">Asynchronous Channels for the Blocks</text>
<text xml:space="preserve" text-anchor="middle" x="1060.15" y="-435.66" font-family="Times,serif" font-size="14.00">Extensible Exchange Protocol (BEEP)</text>
<text xml:space="preserve" text-anchor="middle" x="1060.15" y="-419.16" font-family="Times,serif" font-size="14.00">2009</text>
</a>
</g>
</g>
<!-- RFC5573&#45;&gt;rev_cites -->
<g id="edge8" class="edge">
<title>RFC5573&#45;&gt;rev_cites</title>
<path fill="none" stroke="black" d="M901.76,-460.51C817.1,-466.68 719.71,-473.78 666.99,-477.63"/>
<polygon fill="black" stroke="black" points="666.74,-474.14 657.03,-478.35 667.25,-481.12 666.74,-474.14"/>
</g>
</g>
</svg>
