<?xml version="1.0" encoding="UTF-8" standalone="no"?>
<!DOCTYPE svg PUBLIC "-//W3C//DTD SVG 1.1//EN"
 "http://www.w3.org/Graphics/SVG/1.1/DTD/svg11.dtd">
<!-- Generated by graphviz version 14.1.1 (20251213.1925)
 -->
<!-- Title: Flow Pages: 1 -->
<svg width="1169pt" height="282pt"
 viewBox="0.00 0.00 1169.00 282.00" xmlns="http://www.w3.org/2000/svg" xmlns:xlink="http://www.w3.org/1999/xlink">
<g id="graph0" class="graph" transform="scale(1 1) rotate(0) translate(4 277.65)">
<title>Flow</title>
<polygon fill="white" stroke="none" points="-4,4 -4,-277.65 1164.58,-277.65 1164.58,4 -4,4"/>
<!-- RFC3965 -->
<g id="node1" class="node">
<title>RFC3965</title>
<g id="a_node1"><a xlink:title="This specification provides for simple mode carriage of facsimile data using Internet mail. Extensions to this document will follow. The current specification employs standard protocols and file formats such as TCP/IP, Internet mail protocols, Multipurpose Internet Mail Extensions (MIME), and Tagged Image File Format (TIFF) for Facsimile. It can send images not only to other Internet&#45;aware facsimile devices but also to Internet&#45;native systems, such as PCs with common email readers which can handle MIME mail and TIFF for Facsimile data. The specification facilitates communication among existing facsimile devices, Internet mail agents, and the gateways which connect them. This document is a revision of RFC 2305. There have been no technical changes. [STANDARDS&#45;TRACK]">
<ellipse fill="green" stroke="black" cx="595.14" cy="-167.33" rx="149.73" ry="52.33"/>
<text xml:space="preserve" text-anchor="middle" x="595.14" y="-187.03" font-family="Times,serif" font-size="14.00">RFC3965</text>
<text xml:space="preserve" text-anchor="middle" x="595.14" y="-170.53" font-family="Times,serif" font-size="14.00">A Simple Mode of Facsimile Using</text>
<text xml:space="preserve" text-anchor="middle" x="595.14" y="-154.03" font-family="Times,serif" font-size="14.00">Internet Mail</text>
<text xml:space="preserve" text-anchor="middle" x="595.14" y="-137.53" font-family="Times,serif" font-size="14.00">2004</text>
</a>
</g>
</g>
<!-- obs -->
<g id="node3" class="node">
<title>obs</title>
<polygon fill="lightblue" stroke="black" points="836.12,-239.33 769.87,-239.33 769.87,-203.33 836.12,-203.33 836.12,-239.33"/>
<text xml:space="preserve" text-anchor="middle" x="802.99" y="-216.28" font-family="Times,serif" font-size="14.00">obsoletes</text>
</g>
<!-- RFC3965&#45;&gt;obs -->
<g id="edge2" class="edge">
<title>RFC3965&#45;&gt;obs</title>
<path fill="none" stroke="black" d="M715.88,-198.74C731.21,-202.76 746.02,-206.64 758.91,-210.03"/>
<polygon fill="black" stroke="black" points="757.69,-213.32 768.25,-212.47 759.47,-206.55 757.69,-213.32"/>
</g>
<!-- updates -->
<g id="node5" class="node">
<title>updates</title>
<polygon fill="lightyellow" stroke="black" points="831.62,-185.33 774.37,-185.33 774.37,-149.33 831.62,-149.33 831.62,-185.33"/>
<text xml:space="preserve" text-anchor="middle" x="802.99" y="-162.28" font-family="Times,serif" font-size="14.00">updates</text>
</g>
<!-- RFC3965&#45;&gt;updates -->
<g id="edge4" class="edge">
<title>RFC3965&#45;&gt;updates</title>
<path fill="none" stroke="black" d="M745.2,-167.33C751.38,-167.33 757.28,-167.33 762.78,-167.33"/>
<polygon fill="black" stroke="black" points="762.62,-170.83 772.62,-167.33 762.62,-163.83 762.62,-170.83"/>
</g>
<!-- cites -->
<g id="node7" class="node">
<title>cites</title>
<polygon fill="lightblue" stroke="black" points="829.99,-131.33 775.99,-131.33 775.99,-95.33 829.99,-95.33 829.99,-131.33"/>
<text xml:space="preserve" text-anchor="middle" x="802.99" y="-108.28" font-family="Times,serif" font-size="14.00">cites</text>
</g>
<!-- RFC3965&#45;&gt;cites -->
<g id="edge6" class="edge">
<title>RFC3965&#45;&gt;cites</title>
<path fill="none" stroke="black" d="M715.88,-135.91C733.61,-131.26 750.66,-126.79 764.83,-123.07"/>
<polygon fill="black" stroke="black" points="765.3,-126.57 774.08,-120.65 763.52,-119.8 765.3,-126.57"/>
</g>
<!-- obs_by -->
<g id="node2" class="node">
<title>obs_by</title>
<polygon fill="lightblue" stroke="black" points="420.41,-239.33 354.16,-239.33 354.16,-203.33 420.41,-203.33 420.41,-239.33"/>
<text xml:space="preserve" text-anchor="middle" x="387.28" y="-216.28" font-family="Times,serif" font-size="14.00">obsoletes</text>
</g>
<!-- obs_by&#45;&gt;RFC3965 -->
<g id="edge1" class="edge">
<title>obs_by&#45;&gt;RFC3965</title>
<path fill="none" stroke="black" d="M420.9,-212.77C433.15,-209.56 447.95,-205.67 463.67,-201.55"/>
<polygon fill="black" stroke="black" points="464.43,-204.97 473.22,-199.05 462.66,-198.2 464.43,-204.97"/>
</g>
<!-- RFC2305 -->
<g id="node4" class="node">
<title>RFC2305</title>
<g id="a_node4"><a xlink:href="RFC2305.html" xlink:title="This specification provides for simple mode carriage of facsimile data over the Internet. [STANDARDS&#45;TRACK]" target="_top">
<ellipse fill="none" stroke="black" cx="1010.85" cy="-221.33" rx="149.73" ry="52.33"/>
<text xml:space="preserve" text-anchor="middle" x="1010.85" y="-241.03" font-family="Times,serif" font-size="14.00">RFC2305</text>
<text xml:space="preserve" text-anchor="middle" x="1010.85" y="-224.53" font-family="Times,serif" font-size="14.00">A Simple Mode of Facsimile Using</text>
<text xml:space="preserve" text-anchor="middle" x="1010.85" y="-208.03" font-family="Times,serif" font-size="14.00">Internet Mail</text>
<text xml:space="preserve" text-anchor="middle" x="1010.85" y="-191.53" font-family="Times,serif" font-size="14.00">1998</text>
</a>
</g>
</g>
<!-- obs&#45;&gt;RFC2305 -->
<g id="edge3" class="edge">
<title>obs&#45;&gt;RFC2305</title>
<path fill="none" stroke="black" d="M836.61,-221.33C840.58,-221.33 844.81,-221.33 849.26,-221.33"/>
<polygon fill="black" stroke="black" points="849.21,-224.83 859.21,-221.33 849.21,-217.83 849.21,-224.83"/>
</g>
<!-- updated_by -->
<g id="node6" class="node">
<title>updated_by</title>
<polygon fill="lightyellow" stroke="black" points="415.91,-185.33 358.66,-185.33 358.66,-149.33 415.91,-149.33 415.91,-185.33"/>
<text xml:space="preserve" text-anchor="middle" x="387.28" y="-162.28" font-family="Times,serif" font-size="14.00">updates</text>
</g>
<!-- updated_by&#45;&gt;RFC3965 -->
<g id="edge5" class="edge">
<title>updated_by&#45;&gt;RFC3965</title>
<path fill="none" stroke="black" d="M416.05,-167.33C421.46,-167.33 427.48,-167.33 433.95,-167.33"/>
<polygon fill="black" stroke="black" points="433.7,-170.83 443.7,-167.33 433.7,-163.83 433.7,-170.83"/>
</g>
<!-- rev_cites -->
<g id="node8" class="node">
<title>rev_cites</title>
<polygon fill="lightblue" stroke="black" points="414.28,-131.33 360.28,-131.33 360.28,-95.33 414.28,-95.33 414.28,-131.33"/>
<text xml:space="preserve" text-anchor="middle" x="387.28" y="-108.28" font-family="Times,serif" font-size="14.00">cites</text>
</g>
<!-- rev_cites&#45;&gt;RFC3965 -->
<g id="edge7" class="edge">
<title>rev_cites&#45;&gt;RFC3965</title>
<path fill="none" stroke="black" d="M414.77,-120.27C428.03,-123.75 445.15,-128.24 463.55,-133.07"/>
<polygon fill="black" stroke="black" points="462.49,-136.41 473.05,-135.56 464.27,-129.64 462.49,-136.41"/>
</g>
<!-- RFC4142 -->
<g id="node9" class="node">
<title>RFC4142</title>
<g id="a_node9"><a xlink:href="RFC4142.html" xlink:title="Classic facsimile document exchange represents both a set of technical specifications and a class of service. &#160;Previous work has replicated some of that service class as a profile within Internet mail. &#160;The current specification defines full mode carriage of facsimile data over the Internet, building upon that previous work and adding the remaining functionality necessary for achieving reliability and capability negotiation for Internet mail, on a par with classic T.30 facsimile. &#160;These additional features are designed to provide the highest level of interoperability with the standards&#45;compliant email infrastructure and mail user agents, while providing a level of service that approximates what is currently enjoyed by fax users. [PROPOSED STANDARD]" target="_top">
<ellipse fill="none" stroke="black" cx="164.58" cy="-175.33" rx="164.58" ry="52.33"/>
<text xml:space="preserve" text-anchor="middle" x="164.58" y="-195.03" font-family="Times,serif" font-size="14.00">RFC4142</text>
<text xml:space="preserve" text-anchor="middle" x="164.58" y="-178.53" font-family="Times,serif" font-size="14.00">Full&#45;mode Fax Profile for Internet Mail</text>
<text xml:space="preserve" text-anchor="middle" x="164.58" y="-162.03" font-family="Times,serif" font-size="14.00">(FFPIM)</text>
<text xml:space="preserve" text-anchor="middle" x="164.58" y="-145.53" font-family="Times,serif" font-size="14.00">2005</text>
</a>
</g>
</g>
<!-- RFC4142&#45;&gt;rev_cites -->
<g id="edge8" class="edge">
<title>RFC4142&#45;&gt;rev_cites</title>
<path fill="none" stroke="black" d="M288.84,-140.7C310.66,-134.57 331.8,-128.63 348.78,-123.86"/>
<polygon fill="black" stroke="black" points="349.69,-127.24 358.37,-121.17 347.79,-120.5 349.69,-127.24"/>
</g>
<!-- RFC4143 -->
<g id="node10" class="node">
<title>RFC4143</title>
<g id="a_node10"><a xlink:href="RFC4143.html" xlink:title="This document describes the functional specification and definition of the ENUM Naming Authority Pointer (NAPTR) record for IFax service. &#160;IFax is facsimile using Internet mail. &#160;For this use, the Domain Name System (DNS) returns the email address of the referenced IFax system. &#160;This mechanism allows email&#45;based fax communication to use telephone numbers instead of requiring the sender to already know the recipient email address. [STANDARDS&#45;TRACK]" target="_top">
<ellipse fill="none" stroke="black" cx="164.58" cy="-52.33" rx="159.28" ry="52.33"/>
<text xml:space="preserve" text-anchor="middle" x="164.58" y="-72.03" font-family="Times,serif" font-size="14.00">RFC4143</text>
<text xml:space="preserve" text-anchor="middle" x="164.58" y="-55.53" font-family="Times,serif" font-size="14.00">Facsimile Using Internet Mail (IFAX)</text>
<text xml:space="preserve" text-anchor="middle" x="164.58" y="-39.03" font-family="Times,serif" font-size="14.00">Service of ENUM</text>
<text xml:space="preserve" text-anchor="middle" x="164.58" y="-22.53" font-family="Times,serif" font-size="14.00">2005</text>
</a>
</g>
</g>
<!-- RFC4143&#45;&gt;rev_cites -->
<g id="edge9" class="edge">
<title>RFC4143&#45;&gt;rev_cites</title>
<path fill="none" stroke="black" d="M287.55,-86.04C309.96,-92.23 331.72,-98.25 349.08,-103.04"/>
<polygon fill="black" stroke="black" points="347.79,-106.32 358.36,-105.61 349.66,-99.57 347.79,-106.32"/>
</g>
</g>
</svg>
