<?xml version="1.0" encoding="UTF-8" standalone="no"?>
<!DOCTYPE svg PUBLIC "-//W3C//DTD SVG 1.1//EN"
 "http://www.w3.org/Graphics/SVG/1.1/DTD/svg11.dtd">
<!-- Generated by graphviz version 14.1.1 (20251213.1925)
 -->
<!-- Title: Flow Pages: 1 -->
<svg width="1330pt" height="1084pt"
 viewBox="0.00 0.00 1330.00 1084.00" xmlns="http://www.w3.org/2000/svg" xmlns:xlink="http://www.w3.org/1999/xlink">
<g id="graph0" class="graph" transform="scale(1 1) rotate(0) translate(4 1079.98)">
<title>Flow</title>
<polygon fill="white" stroke="none" points="-4,4 -4,-1079.98 1325.91,-1079.98 1325.91,4 -4,4"/>
<!-- RFC3881 -->
<g id="node1" class="node">
<title>RFC3881</title>
<g id="a_node1"><a xlink:title="This document defines the format of data to be collected and minimum set of attributes that need to be captured for security auditing in healthcare application systems. &#160;The format is defined as an XML schema, which is intended as a reference for healthcare standards developers and application designers. &#160;It consolidates several previous documents on security auditing of healthcare data. &#160;This memo provides information for the Internet community.">
<ellipse fill="green" stroke="black" stroke-width="3" cx="936.01" cy="-399.73" rx="226.1" ry="79.9"/>
<text xml:space="preserve" text-anchor="middle" x="936.01" y="-435.13" font-family="Times,serif" font-size="18.00">RFC3881</text>
<text xml:space="preserve" text-anchor="middle" x="936.01" y="-414.13" font-family="Times,serif" font-size="18.00">Security Audit and Access Accountability</text>
<text xml:space="preserve" text-anchor="middle" x="936.01" y="-393.13" font-family="Times,serif" font-size="18.00">Message XML Data Definitions for</text>
<text xml:space="preserve" text-anchor="middle" x="936.01" y="-372.13" font-family="Times,serif" font-size="18.00">Healthcare Applications</text>
<text xml:space="preserve" text-anchor="middle" x="936.01" y="-351.13" font-family="Times,serif" font-size="18.00">2004</text>
</a>
</g>
</g>
<!-- obs -->
<g id="node3" class="node">
<title>obs</title>
<polygon fill="lightblue" stroke="black" points="1321.91,-587.62 1255.66,-587.62 1255.66,-551.62 1321.91,-551.62 1321.91,-587.62"/>
<text xml:space="preserve" text-anchor="middle" x="1288.79" y="-564.57" font-family="Times,serif" font-size="14.00">obsoletes</text>
</g>
<!-- RFC3881&#45;&gt;obs -->
<g id="edge2" class="edge">
<title>RFC3881&#45;&gt;obs</title>
<path fill="none" stroke="black" d="M1071.65,-465.05C1133.18,-494.69 1201.72,-527.69 1245.02,-548.55"/>
<polygon fill="black" stroke="black" points="1243.31,-551.6 1253.84,-552.79 1246.35,-545.3 1243.31,-551.6"/>
</g>
<!-- updates -->
<g id="node4" class="node">
<title>updates</title>
<polygon fill="lightyellow" stroke="black" points="1051.76,-799.47 994.51,-799.47 994.51,-763.47 1051.76,-763.47 1051.76,-799.47"/>
<text xml:space="preserve" text-anchor="middle" x="1023.14" y="-776.42" font-family="Times,serif" font-size="14.00">updates</text>
</g>
<!-- RFC3881&#45;&gt;updates -->
<g id="edge3" class="edge">
<title>RFC3881&#45;&gt;updates</title>
<path fill="none" stroke="black" d="M954.49,-480.69C973.89,-565.69 1003.36,-694.8 1016.46,-752.19"/>
<polygon fill="black" stroke="black" points="1013.02,-752.86 1018.66,-761.83 1019.85,-751.31 1013.02,-752.86"/>
</g>
<!-- cites -->
<g id="node6" class="node">
<title>cites</title>
<polygon fill="lightblue" stroke="black" points="610.24,-587.62 556.24,-587.62 556.24,-551.62 610.24,-551.62 610.24,-587.62"/>
<text xml:space="preserve" text-anchor="middle" x="583.24" y="-564.57" font-family="Times,serif" font-size="14.00">cites</text>
</g>
<!-- RFC3881&#45;&gt;cites -->
<g id="edge5" class="edge">
<title>RFC3881&#45;&gt;cites</title>
<path fill="none" stroke="black" d="M800.38,-465.05C735.75,-496.17 663.4,-531.02 620.67,-551.6"/>
<polygon fill="black" stroke="black" points="619.32,-548.36 611.83,-555.85 622.36,-554.67 619.32,-548.36"/>
</g>
<!-- obs_by -->
<g id="node2" class="node">
<title>obs_by</title>
<polygon fill="lightblue" stroke="black" points="725.01,-111.61 658.76,-111.61 658.76,-75.61 725.01,-75.61 725.01,-111.61"/>
<text xml:space="preserve" text-anchor="middle" x="691.88" y="-88.56" font-family="Times,serif" font-size="14.00">obsoletes</text>
</g>
<!-- obs_by&#45;&gt;RFC3881 -->
<g id="edge1" class="edge">
<title>obs_by&#45;&gt;RFC3881</title>
<path fill="none" stroke="black" d="M706.42,-111.84C737.28,-150.54 811.06,-243.05 866.72,-312.84"/>
<polygon fill="black" stroke="black" points="863.84,-314.84 872.81,-320.48 869.31,-310.48 863.84,-314.84"/>
</g>
<!-- updated_by -->
<g id="node5" class="node">
<title>updated_by</title>
<polygon fill="lightyellow" stroke="black" points="1051.76,-36 994.51,-36 994.51,0 1051.76,0 1051.76,-36"/>
<text xml:space="preserve" text-anchor="middle" x="1023.14" y="-12.95" font-family="Times,serif" font-size="14.00">updates</text>
</g>
<!-- updated_by&#45;&gt;RFC3881 -->
<g id="edge4" class="edge">
<title>updated_by&#45;&gt;RFC3881</title>
<path fill="none" stroke="black" d="M1018.94,-36.41C1007.94,-84.59 977.73,-216.94 956.98,-307.85"/>
<polygon fill="black" stroke="black" points="953.59,-307 954.77,-317.53 960.41,-308.56 953.59,-307"/>
</g>
<!-- RFC1305 -->
<g id="node7" class="node">
<title>RFC1305</title>
<g id="a_node7"><a xlink:href="RFC1305.html" xlink:title="This document describes the Network Time Protocol (NTP), specifies its formal structure and summarizes information useful for its implementation." target="_top">
<ellipse fill="none" stroke="black" cx="447.76" cy="-1011.98" rx="148.14" ry="63.99"/>
<text xml:space="preserve" text-anchor="middle" x="447.76" y="-1039.93" font-family="Times,serif" font-size="14.00">RFC1305</text>
<text xml:space="preserve" text-anchor="middle" x="447.76" y="-1023.43" font-family="Times,serif" font-size="14.00">Network Time Protocol (Version 3)</text>
<text xml:space="preserve" text-anchor="middle" x="447.76" y="-1006.93" font-family="Times,serif" font-size="14.00">Specification, Implementation and</text>
<text xml:space="preserve" text-anchor="middle" x="447.76" y="-990.43" font-family="Times,serif" font-size="14.00">Analysis</text>
<text xml:space="preserve" text-anchor="middle" x="447.76" y="-973.93" font-family="Times,serif" font-size="14.00">1992</text>
</a>
</g>
</g>
<!-- cites&#45;&gt;RFC1305 -->
<g id="edge6" class="edge">
<title>cites&#45;&gt;RFC1305</title>
<path fill="none" stroke="black" d="M577.59,-588.06C559.57,-646.89 502.77,-832.36 470.59,-937.44"/>
<polygon fill="black" stroke="black" points="467.29,-936.26 467.71,-946.84 473.98,-938.3 467.29,-936.26"/>
</g>
<!-- RFC2396 -->
<g id="node8" class="node">
<title>RFC2396</title>
<g id="a_node8"><a xlink:href="RFC2396.html" xlink:title="This document defines a grammar that is a superset of all valid URI, such that an implementation can parse the common components of a URI reference without knowing the scheme&#45;specific requirements of every possible identifier type. [STANDARDS&#45;TRACK]" target="_top">
<ellipse fill="none" stroke="black" cx="152.91" cy="-399.73" rx="152.91" ry="52.33"/>
<text xml:space="preserve" text-anchor="middle" x="152.91" y="-419.43" font-family="Times,serif" font-size="14.00">RFC2396</text>
<text xml:space="preserve" text-anchor="middle" x="152.91" y="-402.93" font-family="Times,serif" font-size="14.00">Uniform Resource Identifiers (URI):</text>
<text xml:space="preserve" text-anchor="middle" x="152.91" y="-386.43" font-family="Times,serif" font-size="14.00">Generic Syntax</text>
<text xml:space="preserve" text-anchor="middle" x="152.91" y="-369.93" font-family="Times,serif" font-size="14.00">1998</text>
</a>
</g>
</g>
<!-- cites&#45;&gt;RFC2396 -->
<g id="edge7" class="edge">
<title>cites&#45;&gt;RFC2396</title>
<path fill="none" stroke="black" d="M555.99,-558.86C498.59,-536.2 362.44,-482.45 264.24,-443.68"/>
<polygon fill="black" stroke="black" points="265.66,-440.48 255.07,-440.06 263.09,-446.99 265.66,-440.48"/>
</g>
<!-- rev_cites -->
<g id="node9" class="node">
<title>rev_cites</title>
<polygon fill="lightblue" stroke="black" points="1315.79,-247.85 1261.79,-247.85 1261.79,-211.85 1315.79,-211.85 1315.79,-247.85"/>
<text xml:space="preserve" text-anchor="middle" x="1288.79" y="-224.8" font-family="Times,serif" font-size="14.00">cites</text>
</g>
<!-- rev_cites&#45;&gt;RFC3881 -->
<g id="edge8" class="edge">
<title>rev_cites&#45;&gt;RFC3881</title>
<path fill="none" stroke="black" d="M1261.4,-243.04C1222.67,-261.68 1149.1,-297.11 1081.7,-329.57"/>
<polygon fill="black" stroke="black" points="1080.23,-326.4 1072.74,-333.89 1083.27,-332.7 1080.23,-326.4"/>
</g>
</g>
</svg>
