<?xml version="1.0" encoding="UTF-8" standalone="no"?>
<!DOCTYPE svg PUBLIC "-//W3C//DTD SVG 1.1//EN"
 "http://www.w3.org/Graphics/SVG/1.1/DTD/svg11.dtd">
<!-- Generated by graphviz version 14.1.1 (20251213.1925)
 -->
<!-- Title: Flow Pages: 1 -->
<svg width="913pt" height="359pt"
 viewBox="0.00 0.00 913.00 359.00" xmlns="http://www.w3.org/2000/svg" xmlns:xlink="http://www.w3.org/1999/xlink">
<g id="graph0" class="graph" transform="scale(1 1) rotate(0) translate(4 354.65)">
<title>Flow</title>
<polygon fill="white" stroke="none" points="-4,4 -4,-354.65 909.06,-354.65 909.06,4 -4,4"/>
<!-- RFC3982 -->
<g id="node1" class="node">
<title>RFC3982</title>
<g id="a_node1"><a xlink:title="This document describes an Internet Registry Information Service (IRIS) registry schema for registered DNS information. &#160;The schema extends the necessary query and result operations of IRIS to provide the functional information service needs for syntaxes and results used by domain registries and registrars. [STANDARDS&#45;TRACK]">
<ellipse fill="none" stroke="black" cx="640.75" cy="-229.33" rx="173.06" ry="63.99"/>
<text xml:space="preserve" text-anchor="middle" x="640.75" y="-257.28" font-family="Times,serif" font-size="14.00">RFC3982</text>
<text xml:space="preserve" text-anchor="middle" x="640.75" y="-240.78" font-family="Times,serif" font-size="14.00">IRIS: &#160;A Domain Registry (dreg) Type for</text>
<text xml:space="preserve" text-anchor="middle" x="640.75" y="-224.28" font-family="Times,serif" font-size="14.00">the Internet Registry Information</text>
<text xml:space="preserve" text-anchor="middle" x="640.75" y="-207.78" font-family="Times,serif" font-size="14.00">Service (IRIS)</text>
<text xml:space="preserve" text-anchor="middle" x="640.75" y="-191.28" font-family="Times,serif" font-size="14.00">2005</text>
</a>
</g>
</g>
<!-- obs -->
<g id="node3" class="node">
<title>obs</title>
<polygon fill="none" stroke="black" points="905.06,-301.33 838.81,-301.33 838.81,-265.33 905.06,-265.33 905.06,-301.33"/>
<text xml:space="preserve" text-anchor="middle" x="871.94" y="-278.28" font-family="Times,serif" font-size="14.00">obsoletes</text>
</g>
<!-- RFC3982&#45;&gt;obs -->
<g id="edge2" class="edge">
<title>RFC3982&#45;&gt;obs</title>
<path fill="none" stroke="black" d="M787.54,-263.68C802,-267.08 815.73,-270.32 827.73,-273.15"/>
<polygon fill="black" stroke="black" points="826.66,-276.49 837.19,-275.38 828.26,-269.68 826.66,-276.49"/>
</g>
<!-- updates -->
<g id="node4" class="node">
<title>updates</title>
<polygon fill="none" stroke="black" points="900.56,-247.33 843.31,-247.33 843.31,-211.33 900.56,-211.33 900.56,-247.33"/>
<text xml:space="preserve" text-anchor="middle" x="871.94" y="-224.28" font-family="Times,serif" font-size="14.00">updates</text>
</g>
<!-- RFC3982&#45;&gt;updates -->
<g id="edge3" class="edge">
<title>RFC3982&#45;&gt;updates</title>
<path fill="none" stroke="black" d="M814.28,-229.33C820.46,-229.33 826.33,-229.33 831.79,-229.33"/>
<polygon fill="black" stroke="black" points="831.53,-232.83 841.53,-229.33 831.53,-225.83 831.53,-232.83"/>
</g>
<!-- cites -->
<g id="node6" class="node">
<title>cites</title>
<polygon fill="none" stroke="black" points="898.94,-193.33 844.94,-193.33 844.94,-157.33 898.94,-157.33 898.94,-193.33"/>
<text xml:space="preserve" text-anchor="middle" x="871.94" y="-170.28" font-family="Times,serif" font-size="14.00">cites</text>
</g>
<!-- RFC3982&#45;&gt;cites -->
<g id="edge5" class="edge">
<title>RFC3982&#45;&gt;cites</title>
<path fill="none" stroke="black" d="M787.54,-194.97C804.48,-190.98 820.43,-187.23 833.76,-184.09"/>
<polygon fill="black" stroke="black" points="834.35,-187.54 843.28,-181.84 832.74,-180.73 834.35,-187.54"/>
</g>
<!-- obs_by -->
<g id="node2" class="node">
<title>obs_by</title>
<polygon fill="none" stroke="black" points="442.68,-301.33 376.43,-301.33 376.43,-265.33 442.68,-265.33 442.68,-301.33"/>
<text xml:space="preserve" text-anchor="middle" x="409.56" y="-278.28" font-family="Times,serif" font-size="14.00">obsoletes</text>
</g>
<!-- obs_by&#45;&gt;RFC3982 -->
<g id="edge1" class="edge">
<title>obs_by&#45;&gt;RFC3982</title>
<path fill="none" stroke="black" d="M442.91,-275.7C454.43,-272.99 468.29,-269.72 483.25,-266.2"/>
<polygon fill="black" stroke="black" points="483.92,-269.64 492.86,-263.94 482.32,-262.82 483.92,-269.64"/>
</g>
<!-- updated_by -->
<g id="node5" class="node">
<title>updated_by</title>
<polygon fill="none" stroke="black" points="438.18,-247.33 380.93,-247.33 380.93,-211.33 438.18,-211.33 438.18,-247.33"/>
<text xml:space="preserve" text-anchor="middle" x="409.56" y="-224.28" font-family="Times,serif" font-size="14.00">updates</text>
</g>
<!-- updated_by&#45;&gt;RFC3982 -->
<g id="edge4" class="edge">
<title>updated_by&#45;&gt;RFC3982</title>
<path fill="none" stroke="black" d="M438.66,-229.33C444.02,-229.33 449.98,-229.33 456.4,-229.33"/>
<polygon fill="black" stroke="black" points="456.1,-232.83 466.1,-229.33 456.1,-225.83 456.1,-232.83"/>
</g>
<!-- rev_cites -->
<g id="node7" class="node">
<title>rev_cites</title>
<polygon fill="none" stroke="black" points="436.56,-193.33 382.56,-193.33 382.56,-157.33 436.56,-157.33 436.56,-193.33"/>
<text xml:space="preserve" text-anchor="middle" x="409.56" y="-170.28" font-family="Times,serif" font-size="14.00">cites</text>
</g>
<!-- rev_cites&#45;&gt;RFC3982 -->
<g id="edge6" class="edge">
<title>rev_cites&#45;&gt;RFC3982</title>
<path fill="none" stroke="black" d="M436.85,-181.52C449.31,-184.46 465.31,-188.23 482.85,-192.36"/>
<polygon fill="black" stroke="black" points="481.94,-195.74 492.47,-194.63 483.54,-188.93 481.94,-195.74"/>
</g>
<!-- RFC4690 -->
<g id="node8" class="node">
<title>RFC4690</title>
<g id="a_node8"><a xlink:href="RFC4690.html" xlink:title="This note describes issues raised by the deployment and use of Internationalized Domain Names. &#160;It describes problems both at the time of registration and for use of those names in the DNS. &#160;It recommends that IETF should update the RFCs relating to IDNs and a framework to be followed in doing so, as well as summarizing and identifying some work that is required outside the IETF. &#160;In particular, it proposes that some changes be investigated for the Internationalizing Domain Names in Applications (IDNA) standard and its supporting tables, based on experience gained since those standards were completed. &#160;This memo provides information for the Internet community." target="_top">
<ellipse fill="none" stroke="black" cx="175.72" cy="-298.33" rx="169.35" ry="52.33"/>
<text xml:space="preserve" text-anchor="middle" x="175.72" y="-318.03" font-family="Times,serif" font-size="14.00">RFC4690</text>
<text xml:space="preserve" text-anchor="middle" x="175.72" y="-301.53" font-family="Times,serif" font-size="14.00">Review and Recommendations for</text>
<text xml:space="preserve" text-anchor="middle" x="175.72" y="-285.03" font-family="Times,serif" font-size="14.00">Internationalized Domain Names (IDNs)</text>
<text xml:space="preserve" text-anchor="middle" x="175.72" y="-268.53" font-family="Times,serif" font-size="14.00">2006</text>
</a>
</g>
</g>
<!-- RFC4690&#45;&gt;rev_cites -->
<g id="edge7" class="edge">
<title>RFC4690&#45;&gt;rev_cites</title>
<path fill="none" stroke="black" d="M303.51,-263.61C320.46,-256.09 336.96,-247.07 351.43,-236.33 366.49,-225.14 363.61,-216.01 376.43,-202.33 376.69,-202.05 376.96,-201.77 377.22,-201.49"/>
<polygon fill="black" stroke="black" points="379.6,-204.06 384.39,-194.61 374.75,-199.01 379.6,-204.06"/>
</g>
<!-- RFC5901 -->
<g id="node9" class="node">
<title>RFC5901</title>
<g id="a_node9"><a xlink:href="RFC5901.html" xlink:title="This document extends the Incident Object Description Exchange Format (IODEF) defined in RFC 5070 to support the reporting of phishing events, which is a particular type of fraud. &#160;These extensions are flexible enough to support information gleaned from activities throughout the entire electronic fraud cycle &#45;&#45; from receipt of the phishing lure to the disablement of the collection site. &#160;Both simple reporting and complete forensic reporting are possible, as is consolidating multiple incidents. [STANDARDS&#45;TRACK]" target="_top">
<ellipse fill="none" stroke="black" cx="175.72" cy="-175.33" rx="175.19" ry="52.33"/>
<text xml:space="preserve" text-anchor="middle" x="175.72" y="-195.03" font-family="Times,serif" font-size="14.00">RFC5901</text>
<text xml:space="preserve" text-anchor="middle" x="175.72" y="-178.53" font-family="Times,serif" font-size="14.00">Extensions to the IODEF&#45;Document Class</text>
<text xml:space="preserve" text-anchor="middle" x="175.72" y="-162.03" font-family="Times,serif" font-size="14.00">for Reporting Phishing</text>
<text xml:space="preserve" text-anchor="middle" x="175.72" y="-145.53" font-family="Times,serif" font-size="14.00">2010</text>
</a>
</g>
</g>
<!-- RFC5901&#45;&gt;rev_cites -->
<g id="edge8" class="edge">
<title>RFC5901&#45;&gt;rev_cites</title>
<path fill="none" stroke="black" d="M351.25,-175.33C358.12,-175.33 364.63,-175.33 370.61,-175.33"/>
<polygon fill="black" stroke="black" points="370.61,-178.83 380.61,-175.33 370.61,-171.83 370.61,-178.83"/>
</g>
<!-- RFC7970 -->
<g id="node10" class="node">
<title>RFC7970</title>
<g id="a_node10"><a xlink:href="RFC7970.html" xlink:title="The Incident Object Description Exchange Format (IODEF) defines a data representation for security incident reports and indicators commonly exchanged by operational security teams for mitigation and watch and warning. &#160;This document describes an updated information model for the IODEF and provides an associated data model specified with the XML schema. &#160;This new information and data model obsoletes RFCs 5070 and 6685." target="_top">
<ellipse fill="none" stroke="black" cx="175.72" cy="-52.33" rx="175.72" ry="52.33"/>
<text xml:space="preserve" text-anchor="middle" x="175.72" y="-72.03" font-family="Times,serif" font-size="14.00">RFC7970</text>
<text xml:space="preserve" text-anchor="middle" x="175.72" y="-55.53" font-family="Times,serif" font-size="14.00">The Incident Object Description Exchange</text>
<text xml:space="preserve" text-anchor="middle" x="175.72" y="-39.03" font-family="Times,serif" font-size="14.00">Format Version 2</text>
<text xml:space="preserve" text-anchor="middle" x="175.72" y="-22.53" font-family="Times,serif" font-size="14.00">2016</text>
</a>
</g>
</g>
<!-- RFC7970&#45;&gt;rev_cites -->
<g id="edge9" class="edge">
<title>RFC7970&#45;&gt;rev_cites</title>
<path fill="none" stroke="black" d="M302.85,-88.84C319.81,-96.09 336.49,-104.54 351.43,-114.33 365.36,-123.44 378.28,-136.64 388.3,-148.43"/>
<polygon fill="black" stroke="black" points="385.37,-150.38 394.4,-155.91 390.79,-145.95 385.37,-150.38"/>
</g>
</g>
</svg>
