<?xml version="1.0" encoding="UTF-8" standalone="no"?>
<!DOCTYPE svg PUBLIC "-//W3C//DTD SVG 1.1//EN"
 "http://www.w3.org/Graphics/SVG/1.1/DTD/svg11.dtd">
<!-- Generated by graphviz version 14.1.1 (20251213.1925)
 -->
<!-- Title: Flow Pages: 1 -->
<svg width="1434pt" height="1810pt"
 viewBox="0.00 0.00 1434.00 1810.00" xmlns="http://www.w3.org/2000/svg" xmlns:xlink="http://www.w3.org/1999/xlink">
<g id="graph0" class="graph" transform="scale(1 1) rotate(0) translate(4 1805.9)">
<title>Flow</title>
<polygon fill="white" stroke="none" points="-4,4 -4,-1805.9 1430.19,-1805.9 1430.19,4 -4,4"/>
<!-- RFC3191 -->
<g id="node1" class="node">
<title>RFC3191</title>
<g id="a_node1"><a xlink:title="This memo describes a simple method of encoding Global Switched Telephone Network (GSTN) addresses (commonly called telephone numbers) in the local&#45;part of Internet email addresses, along with an extension mechanism to allow encoding of additional standard attributes needed for email gateways to GSTN&#45;based services. [STANDARDS&#45;TRACK]">
<ellipse fill="green" stroke="black" stroke-width="3" cx="468.35" cy="-900.95" rx="227.69" ry="65.05"/>
<text xml:space="preserve" text-anchor="middle" x="468.35" y="-925.85" font-family="Times,serif" font-size="18.00">RFC3191</text>
<text xml:space="preserve" text-anchor="middle" x="468.35" y="-904.85" font-family="Times,serif" font-size="18.00">Minimal GSTN address format in Internet</text>
<text xml:space="preserve" text-anchor="middle" x="468.35" y="-883.85" font-family="Times,serif" font-size="18.00">Mail</text>
<text xml:space="preserve" text-anchor="middle" x="468.35" y="-862.85" font-family="Times,serif" font-size="18.00">2001</text>
</a>
</g>
</g>
<!-- obs -->
<g id="node3" class="node">
<title>obs</title>
<polygon fill="lightblue" stroke="black" points="893.6,-1107.79 827.35,-1107.79 827.35,-1071.79 893.6,-1071.79 893.6,-1107.79"/>
<text xml:space="preserve" text-anchor="middle" x="860.47" y="-1084.74" font-family="Times,serif" font-size="14.00">obsoletes</text>
</g>
<!-- RFC3191&#45;&gt;obs -->
<g id="edge2" class="edge">
<title>RFC3191&#45;&gt;obs</title>
<path fill="none" stroke="black" d="M586.53,-957.86C664.28,-995.31 761.54,-1042.14 816.78,-1068.75"/>
<polygon fill="black" stroke="black" points="815.03,-1071.79 825.55,-1072.97 818.06,-1065.48 815.03,-1071.79"/>
</g>
<!-- updates -->
<g id="node5" class="node">
<title>updates</title>
<polygon fill="lightyellow" stroke="black" points="593.82,-1343.26 536.57,-1343.26 536.57,-1307.26 593.82,-1307.26 593.82,-1343.26"/>
<text xml:space="preserve" text-anchor="middle" x="565.2" y="-1320.21" font-family="Times,serif" font-size="14.00">updates</text>
</g>
<!-- RFC3191&#45;&gt;updates -->
<g id="edge4" class="edge">
<title>RFC3191&#45;&gt;updates</title>
<path fill="none" stroke="black" d="M483.48,-967.25C504.91,-1061.14 543.2,-1228.89 558.56,-1296.17"/>
<polygon fill="black" stroke="black" points="555.09,-1296.72 560.73,-1305.69 561.92,-1295.16 555.09,-1296.72"/>
</g>
<!-- cites -->
<g id="node8" class="node">
<title>cites</title>
<polygon fill="lightblue" stroke="black" points="223.99,-1259.22 169.99,-1259.22 169.99,-1223.22 223.99,-1223.22 223.99,-1259.22"/>
<text xml:space="preserve" text-anchor="middle" x="196.99" y="-1236.17" font-family="Times,serif" font-size="14.00">cites</text>
</g>
<!-- RFC3191&#45;&gt;cites -->
<g id="edge7" class="edge">
<title>RFC3191&#45;&gt;cites</title>
<path fill="none" stroke="black" d="M416.67,-965.75C356.9,-1040.7 261.29,-1160.6 218.69,-1214.02"/>
<polygon fill="black" stroke="black" points="216.05,-1211.71 212.55,-1221.71 221.52,-1216.08 216.05,-1211.71"/>
</g>
<!-- obs_by -->
<g id="node2" class="node">
<title>obs_by</title>
<polygon fill="lightblue" stroke="black" points="66.25,-918.95 0,-918.95 0,-882.95 66.25,-882.95 66.25,-918.95"/>
<text xml:space="preserve" text-anchor="middle" x="33.13" y="-895.9" font-family="Times,serif" font-size="14.00">obsoletes</text>
</g>
<!-- obs_by&#45;&gt;RFC3191 -->
<g id="edge1" class="edge">
<title>obs_by&#45;&gt;RFC3191</title>
<path fill="none" stroke="black" d="M66.55,-900.95C102.82,-900.95 164.16,-900.95 228.14,-900.95"/>
<polygon fill="black" stroke="black" points="227.75,-904.45 237.75,-900.95 227.75,-897.45 227.75,-904.45"/>
</g>
<!-- RFC2303 -->
<g id="node4" class="node">
<title>RFC2303</title>
<g id="a_node4"><a xlink:href="RFC2303.html" xlink:title="This memo describes the MINIMAL addressing method to encode PSTN addresses into e&#45;mail addresses and the standard extension mechanism to allow definition of further standard elements. [STANDARDS&#45;TRACK]" target="_top">
<ellipse fill="none" stroke="black" cx="1252.6" cy="-1278.62" rx="173.59" ry="52.33"/>
<text xml:space="preserve" text-anchor="middle" x="1252.6" y="-1298.32" font-family="Times,serif" font-size="14.00">RFC2303</text>
<text xml:space="preserve" text-anchor="middle" x="1252.6" y="-1281.82" font-family="Times,serif" font-size="14.00">Minimal PSTN address format in Internet</text>
<text xml:space="preserve" text-anchor="middle" x="1252.6" y="-1265.32" font-family="Times,serif" font-size="14.00">Mail</text>
<text xml:space="preserve" text-anchor="middle" x="1252.6" y="-1248.82" font-family="Times,serif" font-size="14.00">1998</text>
</a>
</g>
</g>
<!-- obs&#45;&gt;RFC2303 -->
<g id="edge3" class="edge">
<title>obs&#45;&gt;RFC2303</title>
<path fill="none" stroke="black" d="M893.91,-1105.89C949.97,-1132.89 1065.11,-1188.34 1149.88,-1229.16"/>
<polygon fill="black" stroke="black" points="1148.17,-1232.22 1158.7,-1233.41 1151.21,-1225.91 1148.17,-1232.22"/>
</g>
<!-- RFC2846 -->
<g id="node6" class="node">
<title>RFC2846</title>
<g id="a_node6"><a xlink:href="RFC2846.html" xlink:title="This memo defines a full syntax for a specific application in which there is a need to represent GSTN (Global Switched Telephone Network) addressing and Internet addressing. [STANDARDS&#45;TRACK]" target="_top">
<ellipse fill="none" stroke="black" cx="662.04" cy="-1749.58" rx="159.28" ry="52.33"/>
<text xml:space="preserve" text-anchor="middle" x="662.04" y="-1769.28" font-family="Times,serif" font-size="14.00">RFC2846</text>
<text xml:space="preserve" text-anchor="middle" x="662.04" y="-1752.78" font-family="Times,serif" font-size="14.00">GSTN Address Element Extensions in</text>
<text xml:space="preserve" text-anchor="middle" x="662.04" y="-1736.28" font-family="Times,serif" font-size="14.00">E&#45;mail Services</text>
<text xml:space="preserve" text-anchor="middle" x="662.04" y="-1719.78" font-family="Times,serif" font-size="14.00">2000</text>
</a>
</g>
</g>
<!-- updates&#45;&gt;RFC2846 -->
<g id="edge5" class="edge">
<title>updates&#45;&gt;RFC2846</title>
<path fill="none" stroke="black" d="M569.36,-1343.5C582.73,-1402.07 625.02,-1587.38 647.57,-1686.15"/>
<polygon fill="black" stroke="black" points="644.11,-1686.73 649.75,-1695.7 650.93,-1685.17 644.11,-1686.73"/>
</g>
<!-- updated_by -->
<g id="node7" class="node">
<title>updated_by</title>
<polygon fill="lightyellow" stroke="black" points="225.62,-578.68 168.37,-578.68 168.37,-542.68 225.62,-542.68 225.62,-578.68"/>
<text xml:space="preserve" text-anchor="middle" x="196.99" y="-555.63" font-family="Times,serif" font-size="14.00">updates</text>
</g>
<!-- updated_by&#45;&gt;RFC3191 -->
<g id="edge6" class="edge">
<title>updated_by&#45;&gt;RFC3191</title>
<path fill="none" stroke="black" d="M211.58,-578.97C248.33,-625.06 346.32,-747.93 410.06,-827.86"/>
<polygon fill="black" stroke="black" points="406.98,-829.6 415.95,-835.24 412.45,-825.24 406.98,-829.6"/>
</g>
<!-- rev_cites -->
<g id="node9" class="node">
<title>rev_cites</title>
<polygon fill="lightblue" stroke="black" points="766.71,-578.68 712.71,-578.68 712.71,-542.68 766.71,-542.68 766.71,-578.68"/>
<text xml:space="preserve" text-anchor="middle" x="739.71" y="-555.63" font-family="Times,serif" font-size="14.00">cites</text>
</g>
<!-- rev_cites&#45;&gt;RFC3191 -->
<g id="edge8" class="edge">
<title>rev_cites&#45;&gt;RFC3191</title>
<path fill="none" stroke="black" d="M725.12,-578.97C688.37,-625.06 590.38,-747.93 526.64,-827.86"/>
<polygon fill="black" stroke="black" points="524.25,-825.24 520.75,-835.24 529.72,-829.6 524.25,-825.24"/>
</g>
<!-- RFC3939 -->
<g id="node10" class="node">
<title>RFC3939</title>
<g id="a_node10"><a xlink:href="RFC3939.html" xlink:title="This document describes a method for identifying the originating calling party in the headers of a stored voice mail message. &#160;Two new header fields are defined for this purpose: Caller_ID and Called_Name. &#160;Caller_id is used to store sufficient information for the recipient to callback, or reply to, the sender of the message. &#160;Caller&#45;name provides the name of the person sending the message. [STANDARDS&#45;TRACK]" target="_top">
<ellipse fill="none" stroke="black" cx="662.04" cy="-52.33" rx="151.32" ry="52.33"/>
<text xml:space="preserve" text-anchor="middle" x="662.04" y="-72.03" font-family="Times,serif" font-size="14.00">RFC3939</text>
<text xml:space="preserve" text-anchor="middle" x="662.04" y="-55.53" font-family="Times,serif" font-size="14.00">Calling Line Identification for Voice</text>
<text xml:space="preserve" text-anchor="middle" x="662.04" y="-39.03" font-family="Times,serif" font-size="14.00">Mail Messages</text>
<text xml:space="preserve" text-anchor="middle" x="662.04" y="-22.53" font-family="Times,serif" font-size="14.00">2004</text>
</a>
</g>
</g>
<!-- RFC3939&#45;&gt;rev_cites -->
<g id="edge9" class="edge">
<title>RFC3939&#45;&gt;rev_cites</title>
<path fill="none" stroke="black" d="M670.06,-104.81C686.26,-210.85 722.43,-447.58 735.16,-530.94"/>
<polygon fill="black" stroke="black" points="731.7,-531.46 736.67,-540.82 738.62,-530.4 731.7,-531.46"/>
</g>
<!-- RFC3966 -->
<g id="node11" class="node">
<title>RFC3966</title>
<g id="a_node11"><a xlink:href="RFC3966.html" xlink:title="This document specifies the URI (Uniform Resource Identifier) scheme tel. &#160;The tel URI describes resources identified by telephone numbers. &#160;This document obsoletes RFC 2806. [STANDARDS&#45;TRACK]" target="_top">
<ellipse fill="none" stroke="black" cx="1252.6" cy="-523.28" rx="151.85" ry="40.66"/>
<text xml:space="preserve" text-anchor="middle" x="1252.6" y="-534.73" font-family="Times,serif" font-size="14.00">RFC3966</text>
<text xml:space="preserve" text-anchor="middle" x="1252.6" y="-518.23" font-family="Times,serif" font-size="14.00">The tel URI for Telephone Numbers</text>
<text xml:space="preserve" text-anchor="middle" x="1252.6" y="-501.73" font-family="Times,serif" font-size="14.00">2004</text>
</a>
</g>
</g>
<!-- RFC3966&#45;&gt;rev_cites -->
<g id="edge10" class="edge">
<title>RFC3966&#45;&gt;rev_cites</title>
<path fill="none" stroke="black" d="M1105.62,-534C993.41,-542.18 846.78,-552.87 778.2,-557.87"/>
<polygon fill="black" stroke="black" points="778.34,-554.35 768.62,-558.57 778.85,-561.33 778.34,-554.35"/>
</g>
</g>
</svg>
