<?xml version="1.0" encoding="UTF-8" standalone="no"?>
<!DOCTYPE svg PUBLIC "-//W3C//DTD SVG 1.1//EN"
 "http://www.w3.org/Graphics/SVG/1.1/DTD/svg11.dtd">
<!-- Generated by graphviz version 14.1.1 (20251213.1925)
 -->
<!-- Title: Flow Pages: 1 -->
<svg width="1404pt" height="949pt"
 viewBox="0.00 0.00 1404.00 949.00" xmlns="http://www.w3.org/2000/svg" xmlns:xlink="http://www.w3.org/1999/xlink">
<g id="graph0" class="graph" transform="scale(1 1) rotate(0) translate(4 944.88)">
<title>Flow</title>
<polygon fill="white" stroke="none" points="-4,4 -4,-944.88 1400.02,-944.88 1400.02,4 -4,4"/>
<!-- RFC3230 -->
<g id="node1" class="node">
<title>RFC3230</title>
<g id="a_node1"><a xlink:title="HTTP/1.1 defines a Content&#45;MD5 header that allows a server to include a digest of the response body. &#160;However, this is specifically defined to cover the body of the actual message, not the contents of the full file (which might be quite different, if the response is a Content&#45;Range, or uses a delta encoding). &#160;Also, the Content&#45;MD5 is limited to one specific digest algorithm; other algorithms, such as SHA&#45;1 (Secure Hash Standard), may be more appropriate in some circumstances. &#160;Finally, HTTP/1.1 provides no explicit mechanism by which a client may request a digest. &#160;This document proposes HTTP extensions that solve these problems. [STANDARDS&#45;TRACK]">
<ellipse fill="green" stroke="black" stroke-width="3" cx="642.59" cy="-632.69" rx="143.9" ry="50.2"/>
<text xml:space="preserve" text-anchor="middle" x="642.59" y="-647.09" font-family="Times,serif" font-size="18.00">RFC3230</text>
<text xml:space="preserve" text-anchor="middle" x="642.59" y="-626.09" font-family="Times,serif" font-size="18.00">Instance Digests in HTTP</text>
<text xml:space="preserve" text-anchor="middle" x="642.59" y="-605.09" font-family="Times,serif" font-size="18.00">2002</text>
</a>
</g>
</g>
<!-- obs -->
<g id="node4" class="node">
<title>obs</title>
<polygon fill="lightblue" stroke="black" points="965.9,-770.89 899.65,-770.89 899.65,-734.89 965.9,-734.89 965.9,-770.89"/>
<text xml:space="preserve" text-anchor="middle" x="932.77" y="-747.84" font-family="Times,serif" font-size="14.00">obsoletes</text>
</g>
<!-- RFC3230&#45;&gt;obs -->
<g id="edge3" class="edge">
<title>RFC3230&#45;&gt;obs</title>
<path fill="none" stroke="black" d="M737.21,-671.88C788.26,-693.03 848.85,-718.13 888.91,-734.72"/>
<polygon fill="black" stroke="black" points="887.41,-737.89 897.99,-738.48 890.09,-731.42 887.41,-737.89"/>
</g>
<!-- updates -->
<g id="node5" class="node">
<title>updates</title>
<polygon fill="lightyellow" stroke="black" points="791.41,-940.88 734.16,-940.88 734.16,-904.88 791.41,-904.88 791.41,-940.88"/>
<text xml:space="preserve" text-anchor="middle" x="762.79" y="-917.83" font-family="Times,serif" font-size="14.00">updates</text>
</g>
<!-- RFC3230&#45;&gt;updates -->
<g id="edge4" class="edge">
<title>RFC3230&#45;&gt;updates</title>
<path fill="none" stroke="black" d="M663.67,-683.57C688.96,-744.64 730.51,-844.95 750.84,-894.02"/>
<polygon fill="black" stroke="black" points="747.54,-895.22 754.6,-903.12 754.01,-892.54 747.54,-895.22"/>
</g>
<!-- cites -->
<g id="node7" class="node">
<title>cites</title>
<polygon fill="lightblue" stroke="black" points="549.39,-940.88 495.39,-940.88 495.39,-904.88 549.39,-904.88 549.39,-940.88"/>
<text xml:space="preserve" text-anchor="middle" x="522.39" y="-917.83" font-family="Times,serif" font-size="14.00">cites</text>
</g>
<!-- RFC3230&#45;&gt;cites -->
<g id="edge6" class="edge">
<title>RFC3230&#45;&gt;cites</title>
<path fill="none" stroke="black" d="M621.52,-683.57C596.22,-744.64 554.67,-844.95 534.34,-894.02"/>
<polygon fill="black" stroke="black" points="531.17,-892.54 530.58,-903.12 537.64,-895.22 531.17,-892.54"/>
</g>
<!-- obs_by -->
<g id="node2" class="node">
<title>obs_by</title>
<polygon fill="lightblue" stroke="black" points="385.53,-770.89 319.28,-770.89 319.28,-734.89 385.53,-734.89 385.53,-770.89"/>
<text xml:space="preserve" text-anchor="middle" x="352.41" y="-747.84" font-family="Times,serif" font-size="14.00">obsoletes</text>
</g>
<!-- obs_by&#45;&gt;RFC3230 -->
<g id="edge1" class="edge">
<title>obs_by&#45;&gt;RFC3230</title>
<path fill="none" stroke="black" d="M385.98,-738.98C422.9,-723.69 484.09,-698.34 537.46,-676.24"/>
<polygon fill="black" stroke="black" points="538.72,-679.5 546.62,-672.44 536.04,-673.04 538.72,-679.5"/>
</g>
<!-- RFC9530 -->
<g id="node3" class="node">
<title>RFC9530</title>
<g id="a_node3"><a xlink:href="RFC9530.html" xlink:title="This document defines HTTP fields that support integrity digests. The Content&#45;Digest field can be used for the integrity of HTTP message content. The Repr&#45;Digest field can be used for the integrity of HTTP representations. Want&#45;Content&#45;Digest and Want&#45;Repr&#45;Digest can be used to indicate a sender&#39;s interest and preferences for receiving the respective Integrity fields. This document obsoletes RFC 3230 and the Digest and Want&#45;Digest HTTP fields." target="_top">
<ellipse fill="none" stroke="black" cx="62.23" cy="-873.09" rx="62.23" ry="40.66"/>
<text xml:space="preserve" text-anchor="middle" x="62.23" y="-884.54" font-family="Times,serif" font-size="14.00">RFC9530</text>
<text xml:space="preserve" text-anchor="middle" x="62.23" y="-868.04" font-family="Times,serif" font-size="14.00">Digest Fields</text>
<text xml:space="preserve" text-anchor="middle" x="62.23" y="-851.54" font-family="Times,serif" font-size="14.00">2024</text>
</a>
</g>
</g>
<!-- RFC9530&#45;&gt;obs_by -->
<g id="edge2" class="edge">
<title>RFC9530&#45;&gt;obs_by</title>
<path fill="none" stroke="black" d="M115.11,-851.18C170.51,-828.23 256.54,-792.6 308.37,-771.13"/>
<polygon fill="black" stroke="black" points="309.59,-774.41 317.49,-767.35 306.92,-767.95 309.59,-774.41"/>
</g>
<!-- rev_cites -->
<g id="node8" class="node">
<title>rev_cites</title>
<polygon fill="lightblue" stroke="black" points="789.79,-360.51 735.79,-360.51 735.79,-324.51 789.79,-324.51 789.79,-360.51"/>
<text xml:space="preserve" text-anchor="middle" x="762.79" y="-337.46" font-family="Times,serif" font-size="14.00">cites</text>
</g>
<!-- RFC9530&#45;&gt;rev_cites -->
<g id="edge11" class="edge">
<title>RFC9530&#45;&gt;rev_cites</title>
<path fill="none" stroke="black" d="M103.18,-842.07C229.85,-746.14 613.75,-455.39 729.44,-367.77"/>
<polygon fill="black" stroke="black" points="731.48,-370.61 737.34,-361.78 727.26,-365.03 731.48,-370.61"/>
</g>
<!-- updated_by -->
<g id="node6" class="node">
<title>updated_by</title>
<polygon fill="lightyellow" stroke="black" points="381.03,-530.49 323.78,-530.49 323.78,-494.49 381.03,-494.49 381.03,-530.49"/>
<text xml:space="preserve" text-anchor="middle" x="352.41" y="-507.44" font-family="Times,serif" font-size="14.00">updates</text>
</g>
<!-- updated_by&#45;&gt;RFC3230 -->
<g id="edge5" class="edge">
<title>updated_by&#45;&gt;RFC3230</title>
<path fill="none" stroke="black" d="M381.29,-524.46C417.6,-539.5 481.91,-566.14 537.65,-589.22"/>
<polygon fill="black" stroke="black" points="535.97,-592.32 546.55,-592.91 538.65,-585.85 535.97,-592.32"/>
</g>
<!-- rev_cites&#45;&gt;RFC3230 -->
<g id="edge7" class="edge">
<title>rev_cites&#45;&gt;RFC3230</title>
<path fill="none" stroke="black" d="M755.27,-360.66C738.17,-401.94 695.72,-504.44 668.08,-571.16"/>
<polygon fill="black" stroke="black" points="664.95,-569.57 664.35,-580.15 671.41,-572.25 664.95,-569.57"/>
</g>
<!-- RFC5843 -->
<g id="node9" class="node">
<title>RFC5843</title>
<g id="a_node9"><a xlink:href="RFC5843.html" xlink:title="The IANA registry named Hypertext Transfer Protocol (HTTP) Digest Algorithm Values defines values for digest algorithms used by Instance Digests in HTTP. &#160;Instance Digests in HTTP provide a digest, also known as a checksum or hash, of an entire representation of the current state of a resource. &#160;This document adds new values to the registry and updates previous values. &#160;This document is not an Internet Standards Track specification; it is published for informational purposes." target="_top">
<ellipse fill="none" stroke="black" cx="402.2" cy="-52.33" rx="160.87" ry="52.33"/>
<text xml:space="preserve" text-anchor="middle" x="402.2" y="-72.03" font-family="Times,serif" font-size="14.00">RFC5843</text>
<text xml:space="preserve" text-anchor="middle" x="402.2" y="-55.53" font-family="Times,serif" font-size="14.00">Additional Hash Algorithms for HTTP</text>
<text xml:space="preserve" text-anchor="middle" x="402.2" y="-39.03" font-family="Times,serif" font-size="14.00">Instance Digests</text>
<text xml:space="preserve" text-anchor="middle" x="402.2" y="-22.53" font-family="Times,serif" font-size="14.00">2010</text>
</a>
</g>
</g>
<!-- RFC5843&#45;&gt;rev_cites -->
<g id="edge8" class="edge">
<title>RFC5843&#45;&gt;rev_cites</title>
<path fill="none" stroke="black" d="M462.96,-101.22C540.47,-163.6 671.63,-269.15 731.41,-317.26"/>
<polygon fill="black" stroke="black" points="728.87,-319.71 738.86,-323.25 733.26,-314.25 728.87,-319.71"/>
</g>
<!-- RFC6249 -->
<g id="node10" class="node">
<title>RFC6249</title>
<g id="a_node10"><a xlink:href="RFC6249.html" xlink:title="This document specifies Metalink/HTTP: Mirrors and Cryptographic Hashes in HTTP header fields, a different way to get information that is usually contained in the Metalink XML&#45;based download description format. &#160;Metalink/HTTP describes multiple download locations (mirrors), Peer&#45;to&#45;Peer, cryptographic hashes, digital signatures, and other information using existing standards for HTTP header fields. &#160;Metalink clients can use this information to make file transfers more robust and reliable. &#160;Normative requirements for Metalink/HTTP clients and servers are described here. [STANDARDS&#45;TRACK]" target="_top">
<ellipse fill="none" stroke="black" cx="882.99" cy="-52.33" rx="154.5" ry="40.66"/>
<text xml:space="preserve" text-anchor="middle" x="882.99" y="-63.78" font-family="Times,serif" font-size="14.00">RFC6249</text>
<text xml:space="preserve" text-anchor="middle" x="882.99" y="-47.28" font-family="Times,serif" font-size="14.00">Metalink/HTTP: Mirrors and Hashes</text>
<text xml:space="preserve" text-anchor="middle" x="882.99" y="-30.78" font-family="Times,serif" font-size="14.00">2011</text>
</a>
</g>
</g>
<!-- RFC6249&#45;&gt;rev_cites -->
<g id="edge9" class="edge">
<title>RFC6249&#45;&gt;rev_cites</title>
<path fill="none" stroke="black" d="M866.15,-92.98C841.53,-152.42 796.31,-261.59 774.78,-313.55"/>
<polygon fill="black" stroke="black" points="771.62,-312.05 771.03,-322.62 778.09,-314.72 771.62,-312.05"/>
</g>
<!-- RFC9404 -->
<g id="node11" class="node">
<title>RFC9404</title>
<g id="a_node11"><a xlink:href="RFC9404.html" xlink:title="The JSON Meta Application Protocol (JMAP) base protocol (RFC 8620) provides the ability to upload and download arbitrary binary data via HTTP POST and GET on a defined endpoint. This binary data is called a blob. This extension adds additional ways to create and access blobs by making inline method calls within a standard JMAP request. This extension also adds a reverse lookup mechanism to discover where blobs are referenced within other data types." target="_top">
<ellipse fill="none" stroke="black" cx="1222.96" cy="-392.3" rx="173.06" ry="52.33"/>
<text xml:space="preserve" text-anchor="middle" x="1222.96" y="-412" font-family="Times,serif" font-size="14.00">RFC9404</text>
<text xml:space="preserve" text-anchor="middle" x="1222.96" y="-395.5" font-family="Times,serif" font-size="14.00">JSON Meta Application Protocol (JMAP)</text>
<text xml:space="preserve" text-anchor="middle" x="1222.96" y="-379" font-family="Times,serif" font-size="14.00">Blob Management Extension</text>
<text xml:space="preserve" text-anchor="middle" x="1222.96" y="-362.5" font-family="Times,serif" font-size="14.00">2023</text>
</a>
</g>
</g>
<!-- RFC9404&#45;&gt;rev_cites -->
<g id="edge10" class="edge">
<title>RFC9404&#45;&gt;rev_cites</title>
<path fill="none" stroke="black" d="M1059.42,-374.6C966.57,-364.56 857.9,-352.8 801.38,-346.68"/>
<polygon fill="black" stroke="black" points="801.95,-343.23 791.64,-345.63 801.2,-350.19 801.95,-343.23"/>
</g>
</g>
</svg>
