<?xml version="1.0" encoding="UTF-8" standalone="no"?>
<!DOCTYPE svg PUBLIC "-//W3C//DTD SVG 1.1//EN"
 "http://www.w3.org/Graphics/SVG/1.1/DTD/svg11.dtd">
<!-- Generated by graphviz version 14.1.1 (20251213.1925)
 -->
<!-- Title: Flow Pages: 1 -->
<svg width="854pt" height="186pt"
 viewBox="0.00 0.00 854.00 186.00" xmlns="http://www.w3.org/2000/svg" xmlns:xlink="http://www.w3.org/1999/xlink">
<g id="graph0" class="graph" transform="scale(1 1) rotate(0) translate(4 182.33)">
<title>Flow</title>
<polygon fill="white" stroke="none" points="-4,4 -4,-182.33 849.66,-182.33 849.66,4 -4,4"/>
<!-- RFC3506 -->
<g id="node1" class="node">
<title>RFC3506</title>
<g id="a_node1"><a xlink:title="Crediting loyalty points and collecting digital coupons or gift certificates are common functions in purchasing and trading transactions. &#160;These activities can be generalized using the concept of a voucher, which is a digital representation of the right to claim goods or services. &#160;This document presents a Voucher Trading System (VTS) that circulates vouchers securely and its terminology; it lists design principles and requirements for VTS and the Generic Voucher Language (GVL), with which diverse types of vouchers can be described. &#160;This memo provides information for the Internet community.">
<ellipse fill="green" stroke="black" cx="250" cy="-106.33" rx="158.75" ry="52.33"/>
<text xml:space="preserve" text-anchor="middle" x="250" y="-126.03" font-family="Times,serif" font-size="14.00">RFC3506</text>
<text xml:space="preserve" text-anchor="middle" x="250" y="-109.53" font-family="Times,serif" font-size="14.00">Requirements and Design for Voucher</text>
<text xml:space="preserve" text-anchor="middle" x="250" y="-93.03" font-family="Times,serif" font-size="14.00">Trading System (VTS)</text>
<text xml:space="preserve" text-anchor="middle" x="250" y="-76.53" font-family="Times,serif" font-size="14.00">2003</text>
</a>
</g>
</g>
<!-- obs -->
<g id="node3" class="node">
<title>obs</title>
<polygon fill="lightblue" stroke="black" points="499.99,-178.33 433.74,-178.33 433.74,-142.33 499.99,-142.33 499.99,-178.33"/>
<text xml:space="preserve" text-anchor="middle" x="466.87" y="-155.28" font-family="Times,serif" font-size="14.00">obsoletes</text>
</g>
<!-- RFC3506&#45;&gt;obs -->
<g id="edge2" class="edge">
<title>RFC3506&#45;&gt;obs</title>
<path fill="none" stroke="black" d="M377.23,-138.05C393.5,-142.14 409.18,-146.08 422.71,-149.48"/>
<polygon fill="black" stroke="black" points="421.51,-152.79 432.06,-151.83 423.22,-146 421.51,-152.79"/>
</g>
<!-- updates -->
<g id="node4" class="node">
<title>updates</title>
<polygon fill="lightyellow" stroke="black" points="495.49,-124.33 438.24,-124.33 438.24,-88.33 495.49,-88.33 495.49,-124.33"/>
<text xml:space="preserve" text-anchor="middle" x="466.87" y="-101.28" font-family="Times,serif" font-size="14.00">updates</text>
</g>
<!-- RFC3506&#45;&gt;updates -->
<g id="edge3" class="edge">
<title>RFC3506&#45;&gt;updates</title>
<path fill="none" stroke="black" d="M409.13,-106.33C415.27,-106.33 421.12,-106.33 426.57,-106.33"/>
<polygon fill="black" stroke="black" points="426.31,-109.83 436.31,-106.33 426.31,-102.83 426.31,-109.83"/>
</g>
<!-- cites -->
<g id="node6" class="node">
<title>cites</title>
<polygon fill="lightblue" stroke="black" points="493.87,-70.33 439.87,-70.33 439.87,-34.33 493.87,-34.33 493.87,-70.33"/>
<text xml:space="preserve" text-anchor="middle" x="466.87" y="-47.28" font-family="Times,serif" font-size="14.00">cites</text>
</g>
<!-- RFC3506&#45;&gt;cites -->
<g id="edge5" class="edge">
<title>RFC3506&#45;&gt;cites</title>
<path fill="none" stroke="black" d="M377.23,-74.6C395.83,-69.93 413.65,-65.45 428.37,-61.75"/>
<polygon fill="black" stroke="black" points="429.15,-65.16 438,-59.33 427.45,-58.37 429.15,-65.16"/>
</g>
<!-- obs_by -->
<g id="node2" class="node">
<title>obs_by</title>
<polygon fill="lightblue" stroke="black" points="66.25,-178.33 0,-178.33 0,-142.33 66.25,-142.33 66.25,-178.33"/>
<text xml:space="preserve" text-anchor="middle" x="33.12" y="-155.28" font-family="Times,serif" font-size="14.00">obsoletes</text>
</g>
<!-- obs_by&#45;&gt;RFC3506 -->
<g id="edge1" class="edge">
<title>obs_by&#45;&gt;RFC3506</title>
<path fill="none" stroke="black" d="M66.29,-152.24C79.28,-148.98 95.23,-144.97 112.23,-140.7"/>
<polygon fill="black" stroke="black" points="112.63,-144.21 121.47,-138.37 110.92,-137.42 112.63,-144.21"/>
</g>
<!-- updated_by -->
<g id="node5" class="node">
<title>updated_by</title>
<polygon fill="lightyellow" stroke="black" points="61.75,-124.33 4.5,-124.33 4.5,-88.33 61.75,-88.33 61.75,-124.33"/>
<text xml:space="preserve" text-anchor="middle" x="33.12" y="-101.28" font-family="Times,serif" font-size="14.00">updates</text>
</g>
<!-- updated_by&#45;&gt;RFC3506 -->
<g id="edge4" class="edge">
<title>updated_by&#45;&gt;RFC3506</title>
<path fill="none" stroke="black" d="M62.22,-106.33C67.54,-106.33 73.44,-106.33 79.78,-106.33"/>
<polygon fill="black" stroke="black" points="79.33,-109.83 89.33,-106.33 79.33,-102.83 79.33,-109.83"/>
</g>
<!-- RFC2119 -->
<g id="node7" class="node">
<title>RFC2119</title>
<g id="a_node7"><a xlink:href="RFC2119.html" xlink:title="In many standards track documents several words are used to signify the requirements in the specification. &#160;These words are often capitalized. &#160;This document defines these words as they should be interpreted in IETF documents. &#160;This document specifies an Internet Best Current Practices for the Internet Community, and requests discussion and suggestions for improvements." target="_top">
<ellipse fill="none" stroke="black" cx="685.33" cy="-52.33" rx="160.34" ry="52.33"/>
<text xml:space="preserve" text-anchor="middle" x="685.33" y="-72.03" font-family="Times,serif" font-size="14.00">RFC2119</text>
<text xml:space="preserve" text-anchor="middle" x="685.33" y="-55.53" font-family="Times,serif" font-size="14.00">Key words for use in RFCs to Indicate</text>
<text xml:space="preserve" text-anchor="middle" x="685.33" y="-39.03" font-family="Times,serif" font-size="14.00">Requirement Levels</text>
<text xml:space="preserve" text-anchor="middle" x="685.33" y="-22.53" font-family="Times,serif" font-size="14.00">1997</text>
</a>
</g>
</g>
<!-- cites&#45;&gt;RFC2119 -->
<g id="edge6" class="edge">
<title>cites&#45;&gt;RFC2119</title>
<path fill="none" stroke="black" d="M493.98,-52.33C499.73,-52.33 506.24,-52.33 513.29,-52.33"/>
<polygon fill="black" stroke="black" points="513.28,-55.83 523.28,-52.33 513.28,-48.83 513.28,-55.83"/>
</g>
<!-- rev_cites -->
<g id="node8" class="node">
<title>rev_cites</title>
<polygon fill="lightblue" stroke="black" points="60.12,-70.33 6.12,-70.33 6.12,-34.33 60.12,-34.33 60.12,-70.33"/>
<text xml:space="preserve" text-anchor="middle" x="33.12" y="-47.28" font-family="Times,serif" font-size="14.00">cites</text>
</g>
<!-- rev_cites&#45;&gt;RFC3506 -->
<g id="edge7" class="edge">
<title>rev_cites&#45;&gt;RFC3506</title>
<path fill="none" stroke="black" d="M60.47,-58.95C74.28,-62.42 92.35,-66.96 111.84,-71.86"/>
<polygon fill="black" stroke="black" points="110.78,-75.2 121.33,-74.24 112.49,-68.41 110.78,-75.2"/>
</g>
</g>
</svg>
