<?xml version="1.0" encoding="UTF-8" standalone="no"?>
<!DOCTYPE svg PUBLIC "-//W3C//DTD SVG 1.1//EN"
 "http://www.w3.org/Graphics/SVG/1.1/DTD/svg11.dtd">
<!-- Generated by graphviz version 14.1.1 (20251213.1925)
 -->
<!-- Title: Flow Pages: 1 -->
<svg width="542pt" height="183pt"
 viewBox="0.00 0.00 542.00 183.00" xmlns="http://www.w3.org/2000/svg" xmlns:xlink="http://www.w3.org/1999/xlink">
<g id="graph0" class="graph" transform="scale(1 1) rotate(0) translate(4 178.66)">
<title>Flow</title>
<polygon fill="white" stroke="none" points="-4,4 -4,-178.66 537.93,-178.66 537.93,4 -4,4"/>
<!-- RFC3255 -->
<g id="node1" class="node">
<title>RFC3255</title>
<g id="a_node1"><a xlink:title="This document describes an extension to the mapping of Point&#45;to&#45;Point Protocol (PPP) into Synchronous Optical NETwork/Synchronous Digital Hierarchy (SONET/SDH) to include the use of SONET/SDH SPE/VC virtual concatenation and the use of both high order and low order payloads. [STANDARDS&#45;TRACK]">
<ellipse fill="green" stroke="black" cx="266.97" cy="-87.33" rx="175.72" ry="87.33"/>
<text xml:space="preserve" text-anchor="middle" x="266.97" y="-131.78" font-family="Times,serif" font-size="14.00">RFC3255</text>
<text xml:space="preserve" text-anchor="middle" x="266.97" y="-115.28" font-family="Times,serif" font-size="14.00">Extending Point&#45;to&#45;Point Protocol (PPP)</text>
<text xml:space="preserve" text-anchor="middle" x="266.97" y="-98.78" font-family="Times,serif" font-size="14.00">over Synchronous Optical</text>
<text xml:space="preserve" text-anchor="middle" x="266.97" y="-82.28" font-family="Times,serif" font-size="14.00">NETwork/Synchronous Digital Hierarchy</text>
<text xml:space="preserve" text-anchor="middle" x="266.97" y="-65.78" font-family="Times,serif" font-size="14.00">(SONET/SDH) with virtual concatenation,</text>
<text xml:space="preserve" text-anchor="middle" x="266.97" y="-49.28" font-family="Times,serif" font-size="14.00">high order and low order payloads</text>
<text xml:space="preserve" text-anchor="middle" x="266.97" y="-32.78" font-family="Times,serif" font-size="14.00">2002</text>
</a>
</g>
</g>
<!-- obs -->
<g id="node3" class="node">
<title>obs</title>
<polygon fill="lightblue" stroke="black" points="533.93,-159.33 467.68,-159.33 467.68,-123.33 533.93,-123.33 533.93,-159.33"/>
<text xml:space="preserve" text-anchor="middle" x="500.81" y="-136.28" font-family="Times,serif" font-size="14.00">obsoletes</text>
</g>
<!-- RFC3255&#45;&gt;obs -->
<g id="edge2" class="edge">
<title>RFC3255&#45;&gt;obs</title>
<path fill="none" stroke="black" d="M426.77,-124.32C437.25,-126.76 447.18,-129.07 456.15,-131.16"/>
<polygon fill="black" stroke="black" points="455.35,-134.57 465.88,-133.43 456.94,-127.75 455.35,-134.57"/>
</g>
<!-- updates -->
<g id="node4" class="node">
<title>updates</title>
<polygon fill="lightyellow" stroke="black" points="529.43,-105.33 472.18,-105.33 472.18,-69.33 529.43,-69.33 529.43,-105.33"/>
<text xml:space="preserve" text-anchor="middle" x="500.81" y="-82.28" font-family="Times,serif" font-size="14.00">updates</text>
</g>
<!-- RFC3255&#45;&gt;updates -->
<g id="edge3" class="edge">
<title>RFC3255&#45;&gt;updates</title>
<path fill="none" stroke="black" d="M443.09,-87.33C449.28,-87.33 455.17,-87.33 460.64,-87.33"/>
<polygon fill="black" stroke="black" points="460.39,-90.83 470.39,-87.33 460.39,-83.83 460.39,-90.83"/>
</g>
<!-- cites -->
<g id="node6" class="node">
<title>cites</title>
<polygon fill="lightblue" stroke="black" points="527.81,-51.33 473.81,-51.33 473.81,-15.33 527.81,-15.33 527.81,-51.33"/>
<text xml:space="preserve" text-anchor="middle" x="500.81" y="-28.28" font-family="Times,serif" font-size="14.00">cites</text>
</g>
<!-- RFC3255&#45;&gt;cites -->
<g id="edge5" class="edge">
<title>RFC3255&#45;&gt;cites</title>
<path fill="none" stroke="black" d="M426.77,-50.34C439.68,-47.33 451.76,-44.52 462.23,-42.08"/>
<polygon fill="black" stroke="black" points="462.92,-45.51 471.86,-39.84 461.33,-38.7 462.92,-45.51"/>
</g>
<!-- obs_by -->
<g id="node2" class="node">
<title>obs_by</title>
<polygon fill="lightblue" stroke="black" points="66.25,-159.33 0,-159.33 0,-123.33 66.25,-123.33 66.25,-159.33"/>
<text xml:space="preserve" text-anchor="middle" x="33.12" y="-136.28" font-family="Times,serif" font-size="14.00">obsoletes</text>
</g>
<!-- obs_by&#45;&gt;RFC3255 -->
<g id="edge1" class="edge">
<title>obs_by&#45;&gt;RFC3255</title>
<path fill="none" stroke="black" d="M66.36,-133.82C75.22,-131.75 85.49,-129.36 96.58,-126.78"/>
<polygon fill="black" stroke="black" points="97.04,-130.27 105.99,-124.59 95.45,-123.45 97.04,-130.27"/>
</g>
<!-- updated_by -->
<g id="node5" class="node">
<title>updated_by</title>
<polygon fill="lightyellow" stroke="black" points="61.75,-105.33 4.5,-105.33 4.5,-69.33 61.75,-69.33 61.75,-105.33"/>
<text xml:space="preserve" text-anchor="middle" x="33.12" y="-82.28" font-family="Times,serif" font-size="14.00">updates</text>
</g>
<!-- updated_by&#45;&gt;RFC3255 -->
<g id="edge4" class="edge">
<title>updated_by&#45;&gt;RFC3255</title>
<path fill="none" stroke="black" d="M62.09,-87.33C67.41,-87.33 73.34,-87.33 79.72,-87.33"/>
<polygon fill="black" stroke="black" points="79.35,-90.83 89.35,-87.33 79.35,-83.83 79.35,-90.83"/>
</g>
<!-- rev_cites -->
<g id="node7" class="node">
<title>rev_cites</title>
<polygon fill="lightblue" stroke="black" points="60.12,-51.33 6.12,-51.33 6.12,-15.33 60.12,-15.33 60.12,-51.33"/>
<text xml:space="preserve" text-anchor="middle" x="33.12" y="-28.28" font-family="Times,serif" font-size="14.00">cites</text>
</g>
<!-- rev_cites&#45;&gt;RFC3255 -->
<g id="edge6" class="edge">
<title>rev_cites&#45;&gt;RFC3255</title>
<path fill="none" stroke="black" d="M60.27,-39.42C70.27,-41.75 82.56,-44.61 96.12,-47.77"/>
<polygon fill="black" stroke="black" points="95.24,-51.16 105.78,-50.02 96.83,-44.34 95.24,-51.16"/>
</g>
</g>
</svg>
