<?xml version="1.0" encoding="UTF-8" standalone="no"?>
<!DOCTYPE svg PUBLIC "-//W3C//DTD SVG 1.1//EN"
 "http://www.w3.org/Graphics/SVG/1.1/DTD/svg11.dtd">
<!-- Generated by graphviz version 14.1.1 (20251213.1925)
 -->
<!-- Title: Flow Pages: 1 -->
<svg width="861pt" height="358pt"
 viewBox="0.00 0.00 861.00 358.00" xmlns="http://www.w3.org/2000/svg" xmlns:xlink="http://www.w3.org/1999/xlink">
<g id="graph0" class="graph" transform="scale(1 1) rotate(0) translate(4 354.32)">
<title>Flow</title>
<polygon fill="white" stroke="none" points="-4,4 -4,-354.32 857.09,-354.32 857.09,4 -4,4"/>
<!-- RFC3016 -->
<g id="node1" class="node">
<title>RFC3016</title>
<g id="a_node1"><a xlink:title="This document describes Real&#45;Time Transport Protocol (RTP) payload formats for carrying each of MPEG&#45;4 Audio and MPEG&#45;4 Visual bitstreams without using MPEG&#45;4 Systems. [STANDARDS&#45;TRACK]">
<ellipse fill="green" stroke="black" cx="617.94" cy="-200.99" rx="143.9" ry="52.33"/>
<text xml:space="preserve" text-anchor="middle" x="617.94" y="-220.69" font-family="Times,serif" font-size="14.00">RFC3016</text>
<text xml:space="preserve" text-anchor="middle" x="617.94" y="-204.19" font-family="Times,serif" font-size="14.00">RTP Payload Format for MPEG&#45;4</text>
<text xml:space="preserve" text-anchor="middle" x="617.94" y="-187.69" font-family="Times,serif" font-size="14.00">Audio/Visual Streams</text>
<text xml:space="preserve" text-anchor="middle" x="617.94" y="-171.19" font-family="Times,serif" font-size="14.00">2000</text>
</a>
</g>
</g>
<!-- obs -->
<g id="node4" class="node">
<title>obs</title>
<polygon fill="lightblue" stroke="black" points="853.09,-272.99 786.84,-272.99 786.84,-236.99 853.09,-236.99 853.09,-272.99"/>
<text xml:space="preserve" text-anchor="middle" x="819.96" y="-249.94" font-family="Times,serif" font-size="14.00">obsoletes</text>
</g>
<!-- RFC3016&#45;&gt;obs -->
<g id="edge3" class="edge">
<title>RFC3016&#45;&gt;obs</title>
<path fill="none" stroke="black" d="M734.43,-232.17C749.02,-236.11 763.16,-239.93 775.56,-243.28"/>
<polygon fill="black" stroke="black" points="774.4,-246.59 784.97,-245.82 776.23,-239.83 774.4,-246.59"/>
</g>
<!-- updates -->
<g id="node5" class="node">
<title>updates</title>
<polygon fill="lightyellow" stroke="black" points="848.59,-218.99 791.34,-218.99 791.34,-182.99 848.59,-182.99 848.59,-218.99"/>
<text xml:space="preserve" text-anchor="middle" x="819.96" y="-195.94" font-family="Times,serif" font-size="14.00">updates</text>
</g>
<!-- RFC3016&#45;&gt;updates -->
<g id="edge4" class="edge">
<title>RFC3016&#45;&gt;updates</title>
<path fill="none" stroke="black" d="M762.18,-200.99C768.33,-200.99 774.22,-200.99 779.71,-200.99"/>
<polygon fill="black" stroke="black" points="779.54,-204.49 789.54,-200.99 779.54,-197.49 779.54,-204.49"/>
</g>
<!-- cites -->
<g id="node7" class="node">
<title>cites</title>
<polygon fill="lightblue" stroke="black" points="846.96,-164.99 792.96,-164.99 792.96,-128.99 846.96,-128.99 846.96,-164.99"/>
<text xml:space="preserve" text-anchor="middle" x="819.96" y="-141.94" font-family="Times,serif" font-size="14.00">cites</text>
</g>
<!-- RFC3016&#45;&gt;cites -->
<g id="edge6" class="edge">
<title>RFC3016&#45;&gt;cites</title>
<path fill="none" stroke="black" d="M734.43,-169.82C751.48,-165.21 767.92,-160.77 781.69,-157.06"/>
<polygon fill="black" stroke="black" points="782.39,-160.49 791.13,-154.51 780.56,-153.73 782.39,-160.49"/>
</g>
<!-- obs_by -->
<g id="node2" class="node">
<title>obs_by</title>
<polygon fill="lightblue" stroke="black" points="449.05,-300.99 382.8,-300.99 382.8,-264.99 449.05,-264.99 449.05,-300.99"/>
<text xml:space="preserve" text-anchor="middle" x="415.92" y="-277.94" font-family="Times,serif" font-size="14.00">obsoletes</text>
</g>
<!-- obs_by&#45;&gt;RFC3016 -->
<g id="edge1" class="edge">
<title>obs_by&#45;&gt;RFC3016</title>
<path fill="none" stroke="black" d="M449.5,-269.64C466.51,-262.66 488.4,-253.69 510.69,-244.55"/>
<polygon fill="black" stroke="black" points="511.97,-247.81 519.9,-240.78 509.32,-241.33 511.97,-247.81"/>
</g>
<!-- RFC6416 -->
<g id="node3" class="node">
<title>RFC6416</title>
<g id="a_node3"><a xlink:href="RFC6416.html" xlink:title="This document describes Real&#45;time Transport Protocol (RTP) payload formats for carrying each of MPEG&#45;4 Audio and MPEG&#45;4 Visual bitstreams without using MPEG&#45;4 Systems. This document obsoletes RFC 3016. It contains a summary of changes from RFC 3016 and discusses backward compatibility to RFC 3016. It is a necessary revision of RFC 3016 in order to correct misalignments with the 3GPP Packet&#45; switched Streaming Service (PSS) specification regarding the RTP payload format for MPEG&#45;4 Audio. For the purpose of directly mapping MPEG&#45;4 Audio/Visual bitstreams onto RTP packets, this document provides specifications for the use of RTP header fields and also specifies fragmentation rules. It also provides specifications for Media Type registration and the use of the Session Description Protocol (SDP). The audio payload format described in this document has some limitations related to the signaling of audio codec parameters for the required multiplexing format. Therefore, new system designs should utilize RFC 3640, which does not have these restrictions. Nevertheless, this revision of RFC 3016 is provided to update and complete the specification and to enable interoperable implementations. [STANDARDS&#45;TRACK]" target="_top">
<ellipse fill="none" stroke="black" cx="178.9" cy="-297.99" rx="143.9" ry="52.33"/>
<text xml:space="preserve" text-anchor="middle" x="178.9" y="-317.69" font-family="Times,serif" font-size="14.00">RFC6416</text>
<text xml:space="preserve" text-anchor="middle" x="178.9" y="-301.19" font-family="Times,serif" font-size="14.00">RTP Payload Format for MPEG&#45;4</text>
<text xml:space="preserve" text-anchor="middle" x="178.9" y="-284.69" font-family="Times,serif" font-size="14.00">Audio/Visual Streams</text>
<text xml:space="preserve" text-anchor="middle" x="178.9" y="-268.19" font-family="Times,serif" font-size="14.00">2011</text>
</a>
</g>
</g>
<!-- RFC6416&#45;&gt;obs_by -->
<g id="edge2" class="edge">
<title>RFC6416&#45;&gt;obs_by</title>
<path fill="none" stroke="black" d="M321.02,-288.99C339.17,-287.83 356.54,-286.72 371.3,-285.78"/>
<polygon fill="black" stroke="black" points="371.27,-289.29 381.03,-285.16 370.82,-282.3 371.27,-289.29"/>
</g>
<!-- rev_cites -->
<g id="node8" class="node">
<title>rev_cites</title>
<polygon fill="lightblue" stroke="black" points="442.92,-218.99 388.92,-218.99 388.92,-182.99 442.92,-182.99 442.92,-218.99"/>
<text xml:space="preserve" text-anchor="middle" x="415.92" y="-195.94" font-family="Times,serif" font-size="14.00">cites</text>
</g>
<!-- RFC6416&#45;&gt;rev_cites -->
<g id="edge10" class="edge">
<title>RFC6416&#45;&gt;rev_cites</title>
<path fill="none" stroke="black" d="M290.16,-264.65C312.92,-256.53 336.44,-247.21 357.8,-236.99 364.83,-233.63 372.06,-229.58 378.92,-225.43"/>
<polygon fill="black" stroke="black" points="380.73,-228.43 387.35,-220.16 377.01,-222.5 380.73,-228.43"/>
</g>
<!-- updated_by -->
<g id="node6" class="node">
<title>updated_by</title>
<polygon fill="lightyellow" stroke="black" points="444.55,-164.99 387.3,-164.99 387.3,-128.99 444.55,-128.99 444.55,-164.99"/>
<text xml:space="preserve" text-anchor="middle" x="415.92" y="-141.94" font-family="Times,serif" font-size="14.00">updates</text>
</g>
<!-- updated_by&#45;&gt;RFC3016 -->
<g id="edge5" class="edge">
<title>updated_by&#45;&gt;RFC3016</title>
<path fill="none" stroke="black" d="M444.73,-154.5C457.45,-157.93 473.49,-162.26 490.64,-166.9"/>
<polygon fill="black" stroke="black" points="489.42,-170.19 499.99,-169.42 491.25,-163.43 489.42,-170.19"/>
</g>
<!-- rev_cites&#45;&gt;RFC3016 -->
<g id="edge7" class="edge">
<title>rev_cites&#45;&gt;RFC3016</title>
<path fill="none" stroke="black" d="M443.07,-200.99C448.84,-200.99 455.35,-200.99 462.37,-200.99"/>
<polygon fill="black" stroke="black" points="462.29,-204.49 472.29,-200.99 462.29,-197.49 462.29,-204.49"/>
</g>
<!-- RFC5552 -->
<g id="node9" class="node">
<title>RFC5552</title>
<g id="a_node9"><a xlink:href="RFC5552.html" xlink:title="This document describes a SIP interface to VoiceXML media services. &#160;Commonly, Application Servers controlling Media Servers use this protocol for pure VoiceXML processing capabilities. &#160;This protocol is an adjunct to the full MEDIACTRL protocol and packages mechanism. [STANDARDS&#45;TRACK]" target="_top">
<ellipse fill="none" stroke="black" cx="178.9" cy="-186.99" rx="178.9" ry="40.66"/>
<text xml:space="preserve" text-anchor="middle" x="178.9" y="-198.44" font-family="Times,serif" font-size="14.00">RFC5552</text>
<text xml:space="preserve" text-anchor="middle" x="178.9" y="-181.94" font-family="Times,serif" font-size="14.00">SIP Interface to VoiceXML Media Services</text>
<text xml:space="preserve" text-anchor="middle" x="178.9" y="-165.44" font-family="Times,serif" font-size="14.00">2009</text>
</a>
</g>
</g>
<!-- RFC5552&#45;&gt;rev_cites -->
<g id="edge8" class="edge">
<title>RFC5552&#45;&gt;rev_cites</title>
<path fill="none" stroke="black" d="M352.56,-197.28C361.38,-197.8 369.66,-198.3 377.13,-198.74"/>
<polygon fill="black" stroke="black" points="376.82,-202.23 387.01,-199.33 377.24,-195.24 376.82,-202.23"/>
</g>
<!-- RFC6236 -->
<g id="node10" class="node">
<title>RFC6236</title>
<g id="a_node10"><a xlink:href="RFC6236.html" xlink:title="This document proposes a new generic session setup attribute to make it possible to negotiate different image attributes such as image size. &#160;A possible use case is to make it possible for a %low&#45;end %hand&#45; held terminal to display video without the need to rescale the image, something that may consume large amounts of memory and processing power. &#160;The document also helps to maintain an optimal bitrate for video as only the image size that is desired by the receiver is transmitted. [STANDARDS&#45;TRACK]" target="_top">
<ellipse fill="none" stroke="black" cx="178.9" cy="-63.99" rx="167.23" ry="63.99"/>
<text xml:space="preserve" text-anchor="middle" x="178.9" y="-91.94" font-family="Times,serif" font-size="14.00">RFC6236</text>
<text xml:space="preserve" text-anchor="middle" x="178.9" y="-75.44" font-family="Times,serif" font-size="14.00">Negotiation of Generic Image Attributes</text>
<text xml:space="preserve" text-anchor="middle" x="178.9" y="-58.94" font-family="Times,serif" font-size="14.00">in the Session Description Protocol</text>
<text xml:space="preserve" text-anchor="middle" x="178.9" y="-42.44" font-family="Times,serif" font-size="14.00">(SDP)</text>
<text xml:space="preserve" text-anchor="middle" x="178.9" y="-25.94" font-family="Times,serif" font-size="14.00">2011</text>
</a>
</g>
</g>
<!-- RFC6236&#45;&gt;rev_cites -->
<g id="edge9" class="edge">
<title>RFC6236&#45;&gt;rev_cites</title>
<path fill="none" stroke="black" d="M307.12,-105.29C325.13,-114.16 342.65,-124.67 357.8,-136.99 373.19,-149.52 369.52,-159.24 382.8,-173.99 382.96,-174.18 383.13,-174.36 383.29,-174.54"/>
<polygon fill="black" stroke="black" points="380.75,-176.95 390.32,-181.49 385.67,-171.97 380.75,-176.95"/>
</g>
</g>
</svg>
