<?xml version="1.0" encoding="UTF-8" standalone="no"?>
<!DOCTYPE svg PUBLIC "-//W3C//DTD SVG 1.1//EN"
 "http://www.w3.org/Graphics/SVG/1.1/DTD/svg11.dtd">
<!-- Generated by graphviz version 14.1.1 (20251213.1925)
 -->
<!-- Title: Flow Pages: 1 -->
<svg width="722pt" height="792pt"
 viewBox="0.00 0.00 722.00 792.00" xmlns="http://www.w3.org/2000/svg" xmlns:xlink="http://www.w3.org/1999/xlink">
<g id="graph0" class="graph" transform="scale(1 1) rotate(0) translate(4 788.02)">
<title>Flow</title>
<polygon fill="white" stroke="none" points="-4,4 -4,-788.02 718.06,-788.02 718.06,4 -4,4"/>
<!-- RFC4912 -->
<g id="node1" class="node">
<title>RFC4912</title>
<g id="a_node1"><a xlink:title="Abstract Syntax Notation X (ASN.X) is a semantically equivalent Extensible Markup Language (XML) representation for Abstract Syntax Notation One (ASN.1) specifications. &#160;ASN.X completely avoids the numerous ambiguities inherent in the ASN.1 language; therefore, specifications written in ASN.X are much easier to parse and manage than original ASN.1 specifications. &#160;ASN.X, together with the Robust XML Encoding Rules (RXER), constitutes a schema language for XML documents that offers, through other ASN.1 encoding rules, alternative compact binary encodings for XML instance documents. &#160;This memo defines an Experimental Protocol for the Internet community.">
<ellipse fill="green" stroke="black" stroke-width="3" cx="357.03" cy="-392.01" rx="202.76" ry="50.2"/>
<text xml:space="preserve" text-anchor="middle" x="357.03" y="-406.41" font-family="Times,serif" font-size="18.00">RFC4912</text>
<text xml:space="preserve" text-anchor="middle" x="357.03" y="-385.41" font-family="Times,serif" font-size="18.00">Abstract Syntax Notation X (ASN.X)</text>
<text xml:space="preserve" text-anchor="middle" x="357.03" y="-364.41" font-family="Times,serif" font-size="18.00">2007</text>
</a>
</g>
</g>
<!-- obs -->
<g id="node3" class="node">
<title>obs</title>
<polygon fill="lightblue" stroke="black" points="714.06,-597.02 647.81,-597.02 647.81,-561.02 714.06,-561.02 714.06,-597.02"/>
<text xml:space="preserve" text-anchor="middle" x="680.93" y="-573.97" font-family="Times,serif" font-size="14.00">obsoletes</text>
</g>
<!-- RFC4912&#45;&gt;obs -->
<g id="edge2" class="edge">
<title>RFC4912&#45;&gt;obs</title>
<path fill="none" stroke="black" d="M438.76,-439.2C502.58,-476.05 588.64,-525.73 639.12,-554.88"/>
<polygon fill="black" stroke="black" points="637.31,-557.87 647.72,-559.84 640.81,-551.81 637.31,-557.87"/>
</g>
<!-- updates -->
<g id="node4" class="node">
<title>updates</title>
<polygon fill="lightyellow" stroke="black" points="385.65,-784.02 328.4,-784.02 328.4,-748.02 385.65,-748.02 385.65,-784.02"/>
<text xml:space="preserve" text-anchor="middle" x="357.03" y="-760.97" font-family="Times,serif" font-size="14.00">updates</text>
</g>
<!-- RFC4912&#45;&gt;updates -->
<g id="edge3" class="edge">
<title>RFC4912&#45;&gt;updates</title>
<path fill="none" stroke="black" d="M357.03,-443.62C357.03,-523.09 357.03,-672.87 357.03,-736.37"/>
<polygon fill="black" stroke="black" points="353.53,-736.36 357.03,-746.36 360.53,-736.36 353.53,-736.36"/>
</g>
<!-- cites -->
<g id="node6" class="node">
<title>cites</title>
<polygon fill="lightblue" stroke="black" points="60.13,-597.02 6.13,-597.02 6.13,-561.02 60.13,-561.02 60.13,-597.02"/>
<text xml:space="preserve" text-anchor="middle" x="33.13" y="-573.97" font-family="Times,serif" font-size="14.00">cites</text>
</g>
<!-- RFC4912&#45;&gt;cites -->
<g id="edge5" class="edge">
<title>RFC4912&#45;&gt;cites</title>
<path fill="none" stroke="black" d="M275.29,-439.2C209.37,-477.26 119.72,-529.02 70.06,-557.69"/>
<polygon fill="black" stroke="black" points="68.61,-554.49 61.7,-562.52 72.11,-560.55 68.61,-554.49"/>
</g>
<!-- obs_by -->
<g id="node2" class="node">
<title>obs_by</title>
<polygon fill="lightblue" stroke="black" points="66.25,-223.01 0,-223.01 0,-187.01 66.25,-187.01 66.25,-223.01"/>
<text xml:space="preserve" text-anchor="middle" x="33.13" y="-199.96" font-family="Times,serif" font-size="14.00">obsoletes</text>
</g>
<!-- obs_by&#45;&gt;RFC4912 -->
<g id="edge1" class="edge">
<title>obs_by&#45;&gt;RFC4912</title>
<path fill="none" stroke="black" d="M65.07,-223.45C111.24,-250.1 198.43,-300.45 265.56,-339.2"/>
<polygon fill="black" stroke="black" points="263.59,-342.11 274,-344.07 267.09,-336.04 263.59,-342.11"/>
</g>
<!-- updated_by -->
<g id="node5" class="node">
<title>updated_by</title>
<polygon fill="lightyellow" stroke="black" points="385.65,-36 328.4,-36 328.4,0 385.65,0 385.65,-36"/>
<text xml:space="preserve" text-anchor="middle" x="357.03" y="-12.95" font-family="Times,serif" font-size="14.00">updates</text>
</g>
<!-- updated_by&#45;&gt;RFC4912 -->
<g id="edge4" class="edge">
<title>updated_by&#45;&gt;RFC4912</title>
<path fill="none" stroke="black" d="M357.03,-36.29C357.03,-88.79 357.03,-241.73 357.03,-329.02"/>
<polygon fill="black" stroke="black" points="353.53,-328.86 357.03,-338.86 360.53,-328.86 353.53,-328.86"/>
</g>
<!-- rev_cites -->
<g id="node7" class="node">
<title>rev_cites</title>
<polygon fill="lightblue" stroke="black" points="707.93,-223.01 653.93,-223.01 653.93,-187.01 707.93,-187.01 707.93,-223.01"/>
<text xml:space="preserve" text-anchor="middle" x="680.93" y="-199.96" font-family="Times,serif" font-size="14.00">cites</text>
</g>
<!-- rev_cites&#45;&gt;RFC4912 -->
<g id="edge6" class="edge">
<title>rev_cites&#45;&gt;RFC4912</title>
<path fill="none" stroke="black" d="M653.6,-220.79C608.8,-246.65 517.82,-299.18 448.37,-339.27"/>
<polygon fill="black" stroke="black" points="446.95,-336.06 440.04,-344.09 450.45,-342.12 446.95,-336.06"/>
</g>
</g>
</svg>
