<?xml version="1.0" encoding="UTF-8" standalone="no"?>
<!DOCTYPE svg PUBLIC "-//W3C//DTD SVG 1.1//EN"
 "http://www.w3.org/Graphics/SVG/1.1/DTD/svg11.dtd">
<!-- Generated by graphviz version 14.1.1 (20251213.1925)
 -->
<!-- Title: Flow Pages: 1 -->
<svg width="1821pt" height="1211pt"
 viewBox="0.00 0.00 1821.00 1211.00" xmlns="http://www.w3.org/2000/svg" xmlns:xlink="http://www.w3.org/1999/xlink">
<g id="graph0" class="graph" transform="scale(1 1) rotate(0) translate(4 1207.23)">
<title>Flow</title>
<polygon fill="white" stroke="none" points="-4,4 -4,-1207.23 1817.28,-1207.23 1817.28,4 -4,4"/>
<!-- RFC4049 -->
<g id="node1" class="node">
<title>RFC4049</title>
<g id="a_node1"><a xlink:title="This document specifies a new ASN.1 type for representing time: BinaryTime. &#160;This document also specifies an alternate to the signing&#45;time attribute for use with the Cryptographic Message Syntax(CMS) SignedData and AuthenticatedData content types; the binary&#45;signing&#45;time attribute uses BinaryTime. &#160;CMS and the signing&#45;time attribute are defined in RFC 3852. &#160;This memo defines an Experimental Protocol for the Internet community.">
<ellipse fill="green" stroke="black" stroke-width="3" cx="943.01" cy="-803.71" rx="208.6" ry="65.05"/>
<text xml:space="preserve" text-anchor="middle" x="943.01" y="-828.61" font-family="Times,serif" font-size="18.00">RFC4049</text>
<text xml:space="preserve" text-anchor="middle" x="943.01" y="-807.61" font-family="Times,serif" font-size="18.00">BinaryTime: An Alternate Format for</text>
<text xml:space="preserve" text-anchor="middle" x="943.01" y="-786.61" font-family="Times,serif" font-size="18.00">Representing Date and Time in ASN.1</text>
<text xml:space="preserve" text-anchor="middle" x="943.01" y="-765.61" font-family="Times,serif" font-size="18.00">2005</text>
</a>
</g>
</g>
<!-- obs -->
<g id="node4" class="node">
<title>obs</title>
<polygon fill="lightblue" stroke="black" points="1328.72,-991.5 1262.47,-991.5 1262.47,-955.5 1328.72,-955.5 1328.72,-991.5"/>
<text xml:space="preserve" text-anchor="middle" x="1295.59" y="-968.45" font-family="Times,serif" font-size="14.00">obsoletes</text>
</g>
<!-- RFC4049&#45;&gt;obs -->
<g id="edge3" class="edge">
<title>RFC4049&#45;&gt;obs</title>
<path fill="none" stroke="black" d="M1058.46,-859.31C1124.56,-891.14 1203.66,-929.23 1251.74,-952.38"/>
<polygon fill="black" stroke="black" points="1250.2,-955.53 1260.73,-956.71 1253.24,-949.22 1250.2,-955.53"/>
</g>
<!-- updates -->
<g id="node5" class="node">
<title>updates</title>
<polygon fill="lightyellow" stroke="black" points="1058.72,-1203.23 1001.47,-1203.23 1001.47,-1167.23 1058.72,-1167.23 1058.72,-1203.23"/>
<text xml:space="preserve" text-anchor="middle" x="1030.09" y="-1180.18" font-family="Times,serif" font-size="14.00">updates</text>
</g>
<!-- RFC4049&#45;&gt;updates -->
<g id="edge4" class="edge">
<title>RFC4049&#45;&gt;updates</title>
<path fill="none" stroke="black" d="M958.08,-869.73C977.25,-953.71 1009.52,-1095.12 1023.41,-1155.96"/>
<polygon fill="black" stroke="black" points="1019.96,-1156.56 1025.59,-1165.54 1026.78,-1155.01 1019.96,-1156.56"/>
</g>
<!-- cites -->
<g id="node7" class="node">
<title>cites</title>
<polygon fill="lightblue" stroke="black" points="726.02,-1127.67 672.02,-1127.67 672.02,-1091.67 726.02,-1091.67 726.02,-1127.67"/>
<text xml:space="preserve" text-anchor="middle" x="699.02" y="-1104.62" font-family="Times,serif" font-size="14.00">cites</text>
</g>
<!-- RFC4049&#45;&gt;cites -->
<g id="edge6" class="edge">
<title>RFC4049&#45;&gt;cites</title>
<path fill="none" stroke="black" d="M891.56,-868.22C838.61,-934.62 758.63,-1034.91 720.59,-1082.61"/>
<polygon fill="black" stroke="black" points="718.01,-1080.24 714.51,-1090.24 723.48,-1084.61 718.01,-1080.24"/>
</g>
<!-- obs_by -->
<g id="node2" class="node">
<title>obs_by</title>
<polygon fill="lightblue" stroke="black" points="584.8,-821.71 518.55,-821.71 518.55,-785.71 584.8,-785.71 584.8,-821.71"/>
<text xml:space="preserve" text-anchor="middle" x="551.67" y="-798.66" font-family="Times,serif" font-size="14.00">obsoletes</text>
</g>
<!-- obs_by&#45;&gt;RFC4049 -->
<g id="edge1" class="edge">
<title>obs_by&#45;&gt;RFC4049</title>
<path fill="none" stroke="black" d="M585.04,-803.71C616.96,-803.71 668.08,-803.71 721.82,-803.71"/>
<polygon fill="black" stroke="black" points="721.8,-807.21 731.8,-803.71 721.8,-800.21 721.8,-807.21"/>
</g>
<!-- RFC6019 -->
<g id="node3" class="node">
<title>RFC6019</title>
<g id="a_node3"><a xlink:href="RFC6019.html" xlink:title="This document specifies a new ASN.1 type for representing time: BinaryTime. &#160;This document also specifies an alternate to the signing&#45;time attribute for use with the Cryptographic Message Syntax (CMS) SignedData and AuthenticatedData content types; the binary&#45;signing&#45;time attribute uses BinaryTime. &#160;CMS and the signing&#45;time attribute are defined in RFC 5652. [STANDARDS&#45;TRACK]" target="_top">
<ellipse fill="none" stroke="black" cx="160.34" cy="-803.71" rx="160.34" ry="52.33"/>
<text xml:space="preserve" text-anchor="middle" x="160.34" y="-823.41" font-family="Times,serif" font-size="14.00">RFC6019</text>
<text xml:space="preserve" text-anchor="middle" x="160.34" y="-806.91" font-family="Times,serif" font-size="14.00">BinaryTime: An Alternate Format for</text>
<text xml:space="preserve" text-anchor="middle" x="160.34" y="-790.41" font-family="Times,serif" font-size="14.00">Representing Date and Time in ASN.1</text>
<text xml:space="preserve" text-anchor="middle" x="160.34" y="-773.91" font-family="Times,serif" font-size="14.00">2010</text>
</a>
</g>
</g>
<!-- RFC6019&#45;&gt;obs_by -->
<g id="edge2" class="edge">
<title>RFC6019&#45;&gt;obs_by</title>
<path fill="none" stroke="black" d="M320.92,-803.71C388.31,-803.71 461.43,-803.71 506.91,-803.71"/>
<polygon fill="black" stroke="black" points="506.9,-807.21 516.9,-803.71 506.9,-800.21 506.9,-807.21"/>
</g>
<!-- updated_by -->
<g id="node6" class="node">
<title>updated_by</title>
<polygon fill="lightyellow" stroke="black" points="727.64,-515.75 670.39,-515.75 670.39,-479.75 727.64,-479.75 727.64,-515.75"/>
<text xml:space="preserve" text-anchor="middle" x="699.02" y="-492.7" font-family="Times,serif" font-size="14.00">updates</text>
</g>
<!-- updated_by&#45;&gt;RFC4049 -->
<g id="edge5" class="edge">
<title>updated_by&#45;&gt;RFC4049</title>
<path fill="none" stroke="black" d="M713.55,-515.97C746.46,-557.24 828.2,-659.74 884.67,-730.55"/>
<polygon fill="black" stroke="black" points="881.85,-732.64 890.83,-738.27 887.33,-728.27 881.85,-732.64"/>
</g>
<!-- rev_cites -->
<g id="node8" class="node">
<title>rev_cites</title>
<polygon fill="lightblue" stroke="black" points="1214,-515.75 1160,-515.75 1160,-479.75 1214,-479.75 1214,-515.75"/>
<text xml:space="preserve" text-anchor="middle" x="1187" y="-492.7" font-family="Times,serif" font-size="14.00">cites</text>
</g>
<!-- rev_cites&#45;&gt;RFC4049 -->
<g id="edge7" class="edge">
<title>rev_cites&#45;&gt;RFC4049</title>
<path fill="none" stroke="black" d="M1172.47,-515.97C1139.56,-557.24 1057.82,-659.74 1001.35,-730.55"/>
<polygon fill="black" stroke="black" points="998.69,-728.27 995.19,-738.27 1004.16,-732.64 998.69,-728.27"/>
</g>
<!-- RFC5934 -->
<g id="node9" class="node">
<title>RFC5934</title>
<g id="a_node9"><a xlink:href="RFC5934.html" xlink:title="This document describes a transport independent protocol for the management of trust anchors (TAs) and community identifiers stored in a trust anchor store. &#160;The protocol makes use of the Cryptographic Message Syntax (CMS), and a digital signature is used to provide integrity protection and data origin authentication. &#160;The protocol can be used to manage trust anchor stores containing trust anchors represented as Certificate, TBSCertificate, or TrustAnchorInfo objects. [STANDARDS&#45;TRACK]" target="_top">
<ellipse fill="none" stroke="black" cx="1117.17" cy="-40.66" rx="186.85" ry="40.66"/>
<text xml:space="preserve" text-anchor="middle" x="1117.17" y="-52.11" font-family="Times,serif" font-size="14.00">RFC5934</text>
<text xml:space="preserve" text-anchor="middle" x="1117.17" y="-35.61" font-family="Times,serif" font-size="14.00">Trust Anchor Management Protocol (TAMP)</text>
<text xml:space="preserve" text-anchor="middle" x="1117.17" y="-19.11" font-family="Times,serif" font-size="14.00">2010</text>
</a>
</g>
</g>
<!-- RFC5934&#45;&gt;rev_cites -->
<g id="edge8" class="edge">
<title>RFC5934&#45;&gt;rev_cites</title>
<path fill="none" stroke="black" d="M1123.43,-81.62C1137.31,-172.5 1170.42,-389.17 1182.49,-468.23"/>
<polygon fill="black" stroke="black" points="1178.98,-468.43 1183.95,-477.78 1185.9,-467.37 1178.98,-468.43"/>
</g>
<!-- RFC7107 -->
<g id="node10" class="node">
<title>RFC7107</title>
<g id="a_node10"><a xlink:href="RFC7107.html" xlink:title="When the S/MIME Mail Security Working Group was chartered, an object identifier arc was donated by RSA Data Security for use by that working group. &#160;This document describes the object identifiers that were assigned in that donated arc, transfers control of that arc to IANA, and establishes IANA allocation policies for any future assignments within that arc." target="_top">
<ellipse fill="none" stroke="black" cx="1648.17" cy="-464.12" rx="165.11" ry="52.33"/>
<text xml:space="preserve" text-anchor="middle" x="1648.17" y="-483.82" font-family="Times,serif" font-size="14.00">RFC7107</text>
<text xml:space="preserve" text-anchor="middle" x="1648.17" y="-467.32" font-family="Times,serif" font-size="14.00">Object Identifier Registry for the</text>
<text xml:space="preserve" text-anchor="middle" x="1648.17" y="-450.82" font-family="Times,serif" font-size="14.00">S/MIME Mail Security Working Group</text>
<text xml:space="preserve" text-anchor="middle" x="1648.17" y="-434.32" font-family="Times,serif" font-size="14.00">2014</text>
</a>
</g>
</g>
<!-- RFC7107&#45;&gt;rev_cites -->
<g id="edge9" class="edge">
<title>RFC7107&#45;&gt;rev_cites</title>
<path fill="none" stroke="black" d="M1486.88,-475.88C1393.28,-482.71 1282.88,-490.76 1225.7,-494.93"/>
<polygon fill="black" stroke="black" points="1225.56,-491.43 1215.84,-495.65 1226.07,-498.41 1225.56,-491.43"/>
</g>
</g>
</svg>
