<?xml version="1.0" encoding="UTF-8" standalone="no"?>
<!DOCTYPE svg PUBLIC "-//W3C//DTD SVG 1.1//EN"
 "http://www.w3.org/Graphics/SVG/1.1/DTD/svg11.dtd">
<!-- Generated by graphviz version 14.1.1 (20251213.1925)
 -->
<!-- Title: Flow Pages: 1 -->
<svg width="1268pt" height="854pt"
 viewBox="0.00 0.00 1268.00 854.00" xmlns="http://www.w3.org/2000/svg" xmlns:xlink="http://www.w3.org/1999/xlink">
<g id="graph0" class="graph" transform="scale(1 1) rotate(0) translate(4 849.98)">
<title>Flow</title>
<polygon fill="white" stroke="none" points="-4,4 -4,-849.98 1264.28,-849.98 1264.28,4 -4,4"/>
<!-- RFC4814 -->
<g id="node1" class="node">
<title>RFC4814</title>
<g id="a_node1"><a xlink:title="Test engineers take pains to declare all factors that affect a given measurement, including intended load, packet length, test duration, and traffic orientation. &#160;However, current benchmarking practice overlooks two factors that have a profound impact on test results. &#160;First, existing methodologies do not require the reporting of addresses or other test traffic contents, even though these fields can affect test results. &#160;Second, stuff bits and bytes inserted in test traffic by some link&#45;layer technologies add significant and variable overhead, which in turn affects test results. &#160;This document describes the effects of these factors; recommends guidelines for test traffic contents; and offers formulas for determining the probability of bit&#45; and byte&#45;stuffing in test traffic. &#160;This memo provides information for the Internet community.">
<ellipse fill="none" stroke="black" cx="626.43" cy="-440.66" rx="172.53" ry="52.33"/>
<text xml:space="preserve" text-anchor="middle" x="626.43" y="-460.36" font-family="Times,serif" font-size="14.00">RFC4814</text>
<text xml:space="preserve" text-anchor="middle" x="626.43" y="-443.86" font-family="Times,serif" font-size="14.00">Hash and Stuffing: Overlooked Factors in</text>
<text xml:space="preserve" text-anchor="middle" x="626.43" y="-427.36" font-family="Times,serif" font-size="14.00">Network Device Benchmarking</text>
<text xml:space="preserve" text-anchor="middle" x="626.43" y="-410.86" font-family="Times,serif" font-size="14.00">2007</text>
</a>
</g>
</g>
<!-- obs -->
<g id="node3" class="node">
<title>obs</title>
<polygon fill="none" stroke="black" points="890.21,-512.66 823.96,-512.66 823.96,-476.66 890.21,-476.66 890.21,-512.66"/>
<text xml:space="preserve" text-anchor="middle" x="857.09" y="-489.61" font-family="Times,serif" font-size="14.00">obsoletes</text>
</g>
<!-- RFC4814&#45;&gt;obs -->
<g id="edge2" class="edge">
<title>RFC4814&#45;&gt;obs</title>
<path fill="none" stroke="black" d="M763.41,-472.77C781.12,-476.95 798.11,-480.97 812.59,-484.39"/>
<polygon fill="black" stroke="black" points="811.63,-487.76 822.17,-486.65 813.24,-480.94 811.63,-487.76"/>
</g>
<!-- updates -->
<g id="node4" class="node">
<title>updates</title>
<polygon fill="none" stroke="black" points="885.71,-458.66 828.46,-458.66 828.46,-422.66 885.71,-422.66 885.71,-458.66"/>
<text xml:space="preserve" text-anchor="middle" x="857.09" y="-435.61" font-family="Times,serif" font-size="14.00">updates</text>
</g>
<!-- RFC4814&#45;&gt;updates -->
<g id="edge3" class="edge">
<title>RFC4814&#45;&gt;updates</title>
<path fill="none" stroke="black" d="M799.27,-440.66C805.46,-440.66 811.35,-440.66 816.82,-440.66"/>
<polygon fill="black" stroke="black" points="816.6,-444.16 826.6,-440.66 816.6,-437.16 816.6,-444.16"/>
</g>
<!-- cites -->
<g id="node6" class="node">
<title>cites</title>
<polygon fill="none" stroke="black" points="884.09,-404.66 830.09,-404.66 830.09,-368.66 884.09,-368.66 884.09,-404.66"/>
<text xml:space="preserve" text-anchor="middle" x="857.09" y="-381.61" font-family="Times,serif" font-size="14.00">cites</text>
</g>
<!-- RFC4814&#45;&gt;cites -->
<g id="edge5" class="edge">
<title>RFC4814&#45;&gt;cites</title>
<path fill="none" stroke="black" d="M763.41,-408.54C783.79,-403.73 803.21,-399.15 818.96,-395.43"/>
<polygon fill="black" stroke="black" points="819.34,-398.93 828.27,-393.23 817.73,-392.12 819.34,-398.93"/>
</g>
<!-- obs_by -->
<g id="node2" class="node">
<title>obs_by</title>
<polygon fill="none" stroke="black" points="428.89,-512.66 362.64,-512.66 362.64,-476.66 428.89,-476.66 428.89,-512.66"/>
<text xml:space="preserve" text-anchor="middle" x="395.77" y="-489.61" font-family="Times,serif" font-size="14.00">obsoletes</text>
</g>
<!-- obs_by&#45;&gt;RFC4814 -->
<g id="edge1" class="edge">
<title>obs_by&#45;&gt;RFC4814</title>
<path fill="none" stroke="black" d="M429.04,-487.04C442.83,-483.78 459.99,-479.73 478.38,-475.39"/>
<polygon fill="black" stroke="black" points="478.93,-478.85 487.86,-473.15 477.32,-472.04 478.93,-478.85"/>
</g>
<!-- updated_by -->
<g id="node5" class="node">
<title>updated_by</title>
<polygon fill="none" stroke="black" points="424.39,-458.66 367.14,-458.66 367.14,-422.66 424.39,-422.66 424.39,-458.66"/>
<text xml:space="preserve" text-anchor="middle" x="395.77" y="-435.61" font-family="Times,serif" font-size="14.00">updates</text>
</g>
<!-- updated_by&#45;&gt;RFC4814 -->
<g id="edge4" class="edge">
<title>updated_by&#45;&gt;RFC4814</title>
<path fill="none" stroke="black" d="M424.81,-440.66C430.15,-440.66 436.1,-440.66 442.51,-440.66"/>
<polygon fill="black" stroke="black" points="442.18,-444.16 452.18,-440.66 442.18,-437.16 442.18,-444.16"/>
</g>
<!-- RFC2544 -->
<g id="node7" class="node">
<title>RFC2544</title>
<g id="a_node7"><a xlink:href="RFC2544.html" xlink:title="This document is a republication of RFC 1944 correcting the values for the IP addresses which were assigned to be used as the default addresses for networking test equipment. &#160;This memo provides information for the Internet community." target="_top">
<ellipse fill="none" stroke="black" cx="1087.75" cy="-793.66" rx="172.53" ry="52.33"/>
<text xml:space="preserve" text-anchor="middle" x="1087.75" y="-813.36" font-family="Times,serif" font-size="14.00">RFC2544</text>
<text xml:space="preserve" text-anchor="middle" x="1087.75" y="-796.86" font-family="Times,serif" font-size="14.00">Benchmarking Methodology for Network</text>
<text xml:space="preserve" text-anchor="middle" x="1087.75" y="-780.36" font-family="Times,serif" font-size="14.00">Interconnect Devices</text>
<text xml:space="preserve" text-anchor="middle" x="1087.75" y="-763.86" font-family="Times,serif" font-size="14.00">1999</text>
</a>
</g>
</g>
<!-- cites&#45;&gt;RFC2544 -->
<g id="edge6" class="edge">
<title>cites&#45;&gt;RFC2544</title>
<path fill="none" stroke="black" d="M884.08,-405.01C886.48,-407.66 888.61,-410.55 890.21,-413.66 922.64,-476.69 872.24,-675.28 915.21,-731.66 922.34,-741.01 931.01,-748.95 940.62,-755.7"/>
<polygon fill="black" stroke="black" points="938.53,-758.52 948.83,-760.99 942.32,-752.63 938.53,-758.52"/>
</g>
<!-- RFC2889 -->
<g id="node8" class="node">
<title>RFC2889</title>
<g id="a_node8"><a xlink:href="RFC2889.html" xlink:title="This document is intended to provide methodology for the benchmarking of local area network (LAN) switching devices. &#160;This memo provides information for the Internet community." target="_top">
<ellipse fill="none" stroke="black" cx="1087.75" cy="-670.66" rx="158.75" ry="52.33"/>
<text xml:space="preserve" text-anchor="middle" x="1087.75" y="-690.36" font-family="Times,serif" font-size="14.00">RFC2889</text>
<text xml:space="preserve" text-anchor="middle" x="1087.75" y="-673.86" font-family="Times,serif" font-size="14.00">Benchmarking Methodology for LAN</text>
<text xml:space="preserve" text-anchor="middle" x="1087.75" y="-657.36" font-family="Times,serif" font-size="14.00">Switching Devices</text>
<text xml:space="preserve" text-anchor="middle" x="1087.75" y="-640.86" font-family="Times,serif" font-size="14.00">2000</text>
</a>
</g>
</g>
<!-- cites&#45;&gt;RFC2889 -->
<g id="edge7" class="edge">
<title>cites&#45;&gt;RFC2889</title>
<path fill="none" stroke="black" d="M883.93,-405.09C886.36,-407.72 888.54,-410.59 890.21,-413.66 932.08,-490.35 860.56,-540.48 915.21,-608.66 923.72,-619.27 934.21,-628.07 945.77,-635.37"/>
<polygon fill="black" stroke="black" points="944,-638.39 954.4,-640.39 947.51,-632.33 944,-638.39"/>
</g>
<!-- RFC2119 -->
<g id="node9" class="node">
<title>RFC2119</title>
<g id="a_node9"><a xlink:href="RFC2119.html" xlink:title="In many standards track documents several words are used to signify the requirements in the specification. &#160;These words are often capitalized. &#160;This document defines these words as they should be interpreted in IETF documents. &#160;This document specifies an Internet Best Current Practices for the Internet Community, and requests discussion and suggestions for improvements." target="_top">
<ellipse fill="none" stroke="black" cx="1087.75" cy="-547.66" rx="160.34" ry="52.33"/>
<text xml:space="preserve" text-anchor="middle" x="1087.75" y="-567.36" font-family="Times,serif" font-size="14.00">RFC2119</text>
<text xml:space="preserve" text-anchor="middle" x="1087.75" y="-550.86" font-family="Times,serif" font-size="14.00">Key words for use in RFCs to Indicate</text>
<text xml:space="preserve" text-anchor="middle" x="1087.75" y="-534.36" font-family="Times,serif" font-size="14.00">Requirement Levels</text>
<text xml:space="preserve" text-anchor="middle" x="1087.75" y="-517.86" font-family="Times,serif" font-size="14.00">1997</text>
</a>
</g>
</g>
<!-- cites&#45;&gt;RFC2119 -->
<g id="edge8" class="edge">
<title>cites&#45;&gt;RFC2119</title>
<path fill="none" stroke="black" d="M883.01,-405.13C885.67,-407.79 888.15,-410.65 890.21,-413.66 909.6,-441.95 891.1,-462.27 915.21,-486.66 924.85,-496.41 936.16,-504.62 948.28,-511.51"/>
<polygon fill="black" stroke="black" points="946.35,-514.45 956.83,-516.05 949.64,-508.27 946.35,-514.45"/>
</g>
<!-- RFC3032 -->
<g id="node10" class="node">
<title>RFC3032</title>
<g id="a_node10"><a xlink:href="RFC3032.html" xlink:title="This document specifies the encoding to be used by an LSR in order to transmit labeled packets on Point&#45;to&#45;Point Protocol (PPP) data links, on LAN data links, and possibly on other data links as well. &#160;This document also specifies rules and procedures for processing the various fields of the label stack encoding. [STANDARDS&#45;TRACK]" target="_top">
<ellipse fill="none" stroke="black" cx="1087.75" cy="-436.66" rx="124.27" ry="40.66"/>
<text xml:space="preserve" text-anchor="middle" x="1087.75" y="-448.11" font-family="Times,serif" font-size="14.00">RFC3032</text>
<text xml:space="preserve" text-anchor="middle" x="1087.75" y="-431.61" font-family="Times,serif" font-size="14.00">MPLS Label Stack Encoding</text>
<text xml:space="preserve" text-anchor="middle" x="1087.75" y="-415.11" font-family="Times,serif" font-size="14.00">2001</text>
</a>
</g>
</g>
<!-- cites&#45;&gt;RFC3032 -->
<g id="edge9" class="edge">
<title>cites&#45;&gt;RFC3032</title>
<path fill="none" stroke="black" d="M884.32,-392.39C906.29,-397.2 939.28,-404.41 972.29,-411.63"/>
<polygon fill="black" stroke="black" points="971.47,-415.03 981.99,-413.75 972.97,-408.2 971.47,-415.03"/>
</g>
<!-- RFC1661 -->
<g id="node11" class="node">
<title>RFC1661</title>
<g id="a_node11"><a xlink:href="RFC1661.html" xlink:title="This document defines the PPP organization and methodology, and the PPP encapsulation, together with an extensible option negotiation mechanism which is able to negotiate a rich assortment of configuration parameters and provides additional management functions. [STANDARDS&#45;TRACK]" target="_top">
<ellipse fill="none" stroke="black" cx="1087.75" cy="-337.66" rx="142.84" ry="40.66"/>
<text xml:space="preserve" text-anchor="middle" x="1087.75" y="-349.11" font-family="Times,serif" font-size="14.00">RFC1661</text>
<text xml:space="preserve" text-anchor="middle" x="1087.75" y="-332.61" font-family="Times,serif" font-size="14.00">The Point&#45;to&#45;Point Protocol (PPP)</text>
<text xml:space="preserve" text-anchor="middle" x="1087.75" y="-316.11" font-family="Times,serif" font-size="14.00">1994</text>
</a>
</g>
</g>
<!-- cites&#45;&gt;RFC1661 -->
<g id="edge10" class="edge">
<title>cites&#45;&gt;RFC1661</title>
<path fill="none" stroke="black" d="M884.32,-381.04C903.87,-376.85 932.15,-370.79 961.4,-364.52"/>
<polygon fill="black" stroke="black" points="962.12,-367.94 971.17,-362.43 960.66,-361.1 962.12,-367.94"/>
</g>
<!-- RFC1662 -->
<g id="node12" class="node">
<title>RFC1662</title>
<g id="a_node12"><a xlink:href="RFC1662.html" xlink:title="This document describes the use of HDLC&#45;like framing for PPP encapsulated packets. [STANDARDS&#45;TRACK]" target="_top">
<ellipse fill="none" stroke="black" cx="1087.75" cy="-238.66" rx="118.44" ry="40.66"/>
<text xml:space="preserve" text-anchor="middle" x="1087.75" y="-250.11" font-family="Times,serif" font-size="14.00">RFC1662</text>
<text xml:space="preserve" text-anchor="middle" x="1087.75" y="-233.61" font-family="Times,serif" font-size="14.00">PPP in HDLC&#45;like Framing</text>
<text xml:space="preserve" text-anchor="middle" x="1087.75" y="-217.11" font-family="Times,serif" font-size="14.00">1994</text>
</a>
</g>
</g>
<!-- cites&#45;&gt;RFC1662 -->
<g id="edge11" class="edge">
<title>cites&#45;&gt;RFC1662</title>
<path fill="none" stroke="black" d="M863.81,-368.46C871.77,-346.13 888.31,-308.66 915.21,-287.66 930.97,-275.36 949.69,-266.14 968.87,-259.24"/>
<polygon fill="black" stroke="black" points="969.76,-262.64 978.12,-256.13 967.53,-256 969.76,-262.64"/>
</g>
<!-- RFC2615 -->
<g id="node13" class="node">
<title>RFC2615</title>
<g id="a_node13"><a xlink:href="RFC2615.html" xlink:title="This document describes the use of PPP over Synchronous Optical Network (SONET) and Synchronous Digital Hierarchy (SDH) circuits. [STANDARDS&#45;TRACK]" target="_top">
<ellipse fill="none" stroke="black" cx="1087.75" cy="-139.66" rx="101.47" ry="40.66"/>
<text xml:space="preserve" text-anchor="middle" x="1087.75" y="-151.11" font-family="Times,serif" font-size="14.00">RFC2615</text>
<text xml:space="preserve" text-anchor="middle" x="1087.75" y="-134.61" font-family="Times,serif" font-size="14.00">PPP over SONET/SDH</text>
<text xml:space="preserve" text-anchor="middle" x="1087.75" y="-118.11" font-family="Times,serif" font-size="14.00">1999</text>
</a>
</g>
</g>
<!-- cites&#45;&gt;RFC2615 -->
<g id="edge12" class="edge">
<title>cites&#45;&gt;RFC2615</title>
<path fill="none" stroke="black" d="M857.83,-368.18C858.35,-329.31 865.18,-238.56 915.21,-188.66 932.34,-171.57 955,-160.35 978.2,-153.01"/>
<polygon fill="black" stroke="black" points="979.17,-156.37 987.8,-150.22 977.22,-149.65 979.17,-156.37"/>
</g>
<!-- RFC2661 -->
<g id="node14" class="node">
<title>RFC2661</title>
<g id="a_node14"><a xlink:href="RFC2661.html" xlink:title="This document describes the Layer Two Tunneling Protocol (L2TP). [STANDARDS&#45;TRACK]" target="_top">
<ellipse fill="none" stroke="black" cx="1087.75" cy="-40.66" rx="153.97" ry="40.66"/>
<text xml:space="preserve" text-anchor="middle" x="1087.75" y="-52.11" font-family="Times,serif" font-size="14.00">RFC2661</text>
<text xml:space="preserve" text-anchor="middle" x="1087.75" y="-35.61" font-family="Times,serif" font-size="14.00">Layer Two Tunneling Protocol L2TP</text>
<text xml:space="preserve" text-anchor="middle" x="1087.75" y="-19.11" font-family="Times,serif" font-size="14.00">1999</text>
</a>
</g>
</g>
<!-- cites&#45;&gt;RFC2661 -->
<g id="edge13" class="edge">
<title>cites&#45;&gt;RFC2661</title>
<path fill="none" stroke="black" d="M859.16,-368.24C862.91,-309.96 877.36,-131 915.21,-89.66 923.78,-80.29 934.01,-72.67 945.14,-66.48"/>
<polygon fill="black" stroke="black" points="946.46,-69.73 953.78,-62.07 943.28,-63.49 946.46,-69.73"/>
</g>
<!-- rev_cites -->
<g id="node15" class="node">
<title>rev_cites</title>
<polygon fill="none" stroke="black" points="422.77,-404.66 368.77,-404.66 368.77,-368.66 422.77,-368.66 422.77,-404.66"/>
<text xml:space="preserve" text-anchor="middle" x="395.77" y="-381.61" font-family="Times,serif" font-size="14.00">cites</text>
</g>
<!-- rev_cites&#45;&gt;RFC4814 -->
<g id="edge14" class="edge">
<title>rev_cites&#45;&gt;RFC4814</title>
<path fill="none" stroke="black" d="M423,-392.85C437.58,-396.3 457.02,-400.89 478.1,-405.86"/>
<polygon fill="black" stroke="black" points="477.24,-409.26 487.77,-408.15 478.85,-402.45 477.24,-409.26"/>
</g>
<!-- RFC9313 -->
<g id="node16" class="node">
<title>RFC9313</title>
<g id="a_node16"><a xlink:href="RFC9313.html" xlink:title="Several IPv6 transition technologies have been developed to provide customers with IPv4&#45;as&#45;a&#45;Service (IPv4aaS) for ISPs with an IPv6&#45;only access and/or core network. These technologies have their advantages and disadvantages. Depending on existing topology, skills, strategy, and other preferences, one of these technologies may be the most appropriate solution for a network operator. This document examines the five most prominent IPv4aaS technologies and considers a number of different aspects to provide network operators with an easy&#45;to&#45;use reference to assist in selecting the technology that best suits their needs." target="_top">
<ellipse fill="none" stroke="black" cx="168.82" cy="-453.66" rx="147.61" ry="63.99"/>
<text xml:space="preserve" text-anchor="middle" x="168.82" y="-481.61" font-family="Times,serif" font-size="14.00">RFC9313</text>
<text xml:space="preserve" text-anchor="middle" x="168.82" y="-465.11" font-family="Times,serif" font-size="14.00">Pros and Cons of IPv6 Transition</text>
<text xml:space="preserve" text-anchor="middle" x="168.82" y="-448.61" font-family="Times,serif" font-size="14.00">Technologies for IPv4&#45;as&#45;a&#45;Service</text>
<text xml:space="preserve" text-anchor="middle" x="168.82" y="-432.11" font-family="Times,serif" font-size="14.00">(IPv4aaS)</text>
<text xml:space="preserve" text-anchor="middle" x="168.82" y="-415.61" font-family="Times,serif" font-size="14.00">2022</text>
</a>
</g>
</g>
<!-- RFC9313&#45;&gt;rev_cites -->
<g id="edge15" class="edge">
<title>RFC9313&#45;&gt;rev_cites</title>
<path fill="none" stroke="black" d="M291.18,-417.51C315.41,-410.29 339.09,-403.24 357.68,-397.71"/>
<polygon fill="black" stroke="black" points="358.52,-401.11 367.1,-394.9 356.52,-394.4 358.52,-401.11"/>
</g>
<!-- RFC9693 -->
<g id="node17" class="node">
<title>RFC9693</title>
<g id="a_node17"><a xlink:href="RFC9693.html" xlink:title="RFC 2544 defines a benchmarking methodology for network interconnect devices. &#160;RFC 5180 addresses IPv6 specificities, and it also provides a technology update but excludes IPv6 transition technologies. &#160;RFC 8219 addresses IPv6 transition technologies, including stateful NAT64. &#160;However, none of them discuss how to apply pseudorandom port numbers from RFC 4814 to any stateful NATxy (such as NAT44, NAT64, and NAT66) technologies. &#160;This document discusses why using pseudorandom port numbers with stateful NATxy gateways is a difficult problem. &#160;It recommends a solution that limits the port number ranges and uses two test phases (phase 1 and phase 2). &#160;This document shows how the classic performance measurement procedures (e.g., throughput, frame loss rate, latency, etc.) can be carried out. &#160;New performance metrics and measurement procedures are also defined for measuring the maximum connection establishment rate, connection tear&#45;down rate, and connection tracking table capacity." target="_top">
<ellipse fill="none" stroke="black" cx="168.82" cy="-319.66" rx="168.82" ry="52.33"/>
<text xml:space="preserve" text-anchor="middle" x="168.82" y="-339.36" font-family="Times,serif" font-size="14.00">RFC9693</text>
<text xml:space="preserve" text-anchor="middle" x="168.82" y="-322.86" font-family="Times,serif" font-size="14.00">Benchmarking Methodology for Stateful</text>
<text xml:space="preserve" text-anchor="middle" x="168.82" y="-306.36" font-family="Times,serif" font-size="14.00">NATxy Gateways</text>
<text xml:space="preserve" text-anchor="middle" x="168.82" y="-289.86" font-family="Times,serif" font-size="14.00">2025</text>
</a>
</g>
</g>
<!-- RFC9693&#45;&gt;rev_cites -->
<g id="edge16" class="edge">
<title>RFC9693&#45;&gt;rev_cites</title>
<path fill="none" stroke="black" d="M291.51,-355.9C315.69,-363.1 339.29,-370.13 357.81,-375.65"/>
<polygon fill="black" stroke="black" points="356.62,-378.95 367.2,-378.45 358.62,-372.24 356.62,-378.95"/>
</g>
</g>
</svg>
