<?xml version="1.0" encoding="UTF-8" standalone="no"?>
<!DOCTYPE svg PUBLIC "-//W3C//DTD SVG 1.1//EN"
 "http://www.w3.org/Graphics/SVG/1.1/DTD/svg11.dtd">
<!-- Generated by graphviz version 14.1.1 (20251213.1925)
 -->
<!-- Title: Flow Pages: 1 -->
<svg width="1339pt" height="1253pt"
 viewBox="0.00 0.00 1339.00 1253.00" xmlns="http://www.w3.org/2000/svg" xmlns:xlink="http://www.w3.org/1999/xlink">
<g id="graph0" class="graph" transform="scale(1 1) rotate(0) translate(4 1249)">
<title>Flow</title>
<polygon fill="white" stroke="none" points="-4,4 -4,-1249 1334.99,-1249 1334.99,4 -4,4"/>
<!-- RFC4764 -->
<g id="node1" class="node">
<title>RFC4764</title>
<g id="a_node1"><a xlink:title="This document specifies EAP&#45;PSK, an Extensible Authentication Protocol (EAP) method for mutual authentication and session key derivation using a Pre&#45;Shared Key (PSK). &#160;EAP&#45;PSK provides a protected communication channel when mutual authentication is successful for both parties to communicate over. &#160;This document describes the use of this channel only for protected exchange of result indications, but future EAP&#45;PSK extensions may use the channel for other purposes. &#160;EAP&#45;PSK is designed for authentication over insecure networks such as IEEE 802.11. &#160;This memo defines an Experimental Protocol for the Internet community.">
<ellipse fill="green" stroke="black" stroke-width="3" cx="434.75" cy="-835.44" rx="230.87" ry="79.9"/>
<text xml:space="preserve" text-anchor="middle" x="434.75" y="-870.84" font-family="Times,serif" font-size="18.00">RFC4764</text>
<text xml:space="preserve" text-anchor="middle" x="434.75" y="-849.84" font-family="Times,serif" font-size="18.00">The EAP&#45;PSK Protocol: A Pre&#45;Shared Key</text>
<text xml:space="preserve" text-anchor="middle" x="434.75" y="-828.84" font-family="Times,serif" font-size="18.00">Extensible Authentication Protocol (EAP)</text>
<text xml:space="preserve" text-anchor="middle" x="434.75" y="-807.84" font-family="Times,serif" font-size="18.00">Method</text>
<text xml:space="preserve" text-anchor="middle" x="434.75" y="-786.84" font-family="Times,serif" font-size="18.00">2007</text>
</a>
</g>
</g>
<!-- obs -->
<g id="node3" class="node">
<title>obs</title>
<polygon fill="lightblue" stroke="black" points="829.73,-1027.7 763.48,-1027.7 763.48,-991.7 829.73,-991.7 829.73,-1027.7"/>
<text xml:space="preserve" text-anchor="middle" x="796.6" y="-1004.65" font-family="Times,serif" font-size="14.00">obsoletes</text>
</g>
<!-- RFC4764&#45;&gt;obs -->
<g id="edge2" class="edge">
<title>RFC4764&#45;&gt;obs</title>
<path fill="none" stroke="black" d="M571.29,-901.19C635.62,-932.17 707.92,-966.99 752.87,-988.64"/>
<polygon fill="black" stroke="black" points="751.24,-991.74 761.77,-992.92 754.28,-985.43 751.24,-991.74"/>
</g>
<!-- updates -->
<g id="node4" class="node">
<title>updates</title>
<polygon fill="lightyellow" stroke="black" points="552.75,-1245 495.5,-1245 495.5,-1209 552.75,-1209 552.75,-1245"/>
<text xml:space="preserve" text-anchor="middle" x="524.12" y="-1221.95" font-family="Times,serif" font-size="14.00">updates</text>
</g>
<!-- RFC4764&#45;&gt;updates -->
<g id="edge3" class="edge">
<title>RFC4764&#45;&gt;updates</title>
<path fill="none" stroke="black" d="M453.27,-916.57C473.21,-1003.96 503.9,-1138.4 517.38,-1197.46"/>
<polygon fill="black" stroke="black" points="513.94,-1198.1 519.57,-1207.07 520.76,-1196.54 513.94,-1198.1"/>
</g>
<!-- cites -->
<g id="node6" class="node">
<title>cites</title>
<polygon fill="lightblue" stroke="black" points="211.34,-1167.44 157.34,-1167.44 157.34,-1131.44 211.34,-1131.44 211.34,-1167.44"/>
<text xml:space="preserve" text-anchor="middle" x="184.34" y="-1144.39" font-family="Times,serif" font-size="14.00">cites</text>
</g>
<!-- RFC4764&#45;&gt;cites -->
<g id="edge5" class="edge">
<title>RFC4764&#45;&gt;cites</title>
<path fill="none" stroke="black" d="M372.53,-913.46C318.19,-981.6 242.45,-1076.58 205.84,-1122.48"/>
<polygon fill="black" stroke="black" points="203.29,-1120.06 199.79,-1130.06 208.77,-1124.43 203.29,-1120.06"/>
</g>
<!-- obs_by -->
<g id="node2" class="node">
<title>obs_by</title>
<polygon fill="lightblue" stroke="black" points="66.25,-853.44 0,-853.44 0,-817.44 66.25,-817.44 66.25,-853.44"/>
<text xml:space="preserve" text-anchor="middle" x="33.12" y="-830.39" font-family="Times,serif" font-size="14.00">obsoletes</text>
</g>
<!-- obs_by&#45;&gt;RFC4764 -->
<g id="edge1" class="edge">
<title>obs_by&#45;&gt;RFC4764</title>
<path fill="none" stroke="black" d="M66.68,-835.44C96.12,-835.44 141.86,-835.44 191.2,-835.44"/>
<polygon fill="black" stroke="black" points="190.94,-838.94 200.94,-835.44 190.94,-831.94 190.94,-838.94"/>
</g>
<!-- updated_by -->
<g id="node5" class="node">
<title>updated_by</title>
<polygon fill="lightyellow" stroke="black" points="212.97,-539.43 155.72,-539.43 155.72,-503.43 212.97,-503.43 212.97,-539.43"/>
<text xml:space="preserve" text-anchor="middle" x="184.34" y="-516.38" font-family="Times,serif" font-size="14.00">updates</text>
</g>
<!-- updated_by&#45;&gt;RFC4764 -->
<g id="edge4" class="edge">
<title>updated_by&#45;&gt;RFC4764</title>
<path fill="none" stroke="black" d="M198.89,-539.67C230.63,-579.48 307.89,-676.36 365.39,-748.46"/>
<polygon fill="black" stroke="black" points="362.38,-750.3 371.35,-755.94 367.85,-745.94 362.38,-750.3"/>
</g>
<!-- rev_cites -->
<g id="node7" class="node">
<title>rev_cites</title>
<polygon fill="lightblue" stroke="black" points="712.16,-539.43 658.16,-539.43 658.16,-503.43 712.16,-503.43 712.16,-539.43"/>
<text xml:space="preserve" text-anchor="middle" x="685.16" y="-516.38" font-family="Times,serif" font-size="14.00">cites</text>
</g>
<!-- rev_cites&#45;&gt;RFC4764 -->
<g id="edge6" class="edge">
<title>rev_cites&#45;&gt;RFC4764</title>
<path fill="none" stroke="black" d="M670.62,-539.67C638.87,-579.48 561.61,-676.36 504.11,-748.46"/>
<polygon fill="black" stroke="black" points="501.65,-745.94 498.15,-755.94 507.12,-750.3 501.65,-745.94"/>
</g>
<!-- RFC5247 -->
<g id="node8" class="node">
<title>RFC5247</title>
<g id="a_node8"><a xlink:href="RFC5247.html" xlink:title="The Extensible Authentication Protocol (EAP), defined in RFC 3748, enables extensible network access authentication. &#160;This document specifies the EAP key hierarchy and provides a framework for the transport and usage of keying material and parameters generated by EAP authentication algorithms, known as methods. &#160;It also provides a detailed system&#45;level security analysis, describing the conditions under which the key management guidelines described in RFC 4962 can be satisfied. [STANDARDS&#45;TRACK]" target="_top">
<ellipse fill="none" stroke="black" cx="613.49" cy="-52.33" rx="172.53" ry="52.33"/>
<text xml:space="preserve" text-anchor="middle" x="613.49" y="-72.03" font-family="Times,serif" font-size="14.00">RFC5247</text>
<text xml:space="preserve" text-anchor="middle" x="613.49" y="-55.53" font-family="Times,serif" font-size="14.00">Extensible Authentication Protocol (EAP)</text>
<text xml:space="preserve" text-anchor="middle" x="613.49" y="-39.03" font-family="Times,serif" font-size="14.00">Key Management Framework</text>
<text xml:space="preserve" text-anchor="middle" x="613.49" y="-22.53" font-family="Times,serif" font-size="14.00">2008</text>
</a>
</g>
</g>
<!-- RFC5247&#45;&gt;rev_cites -->
<g id="edge7" class="edge">
<title>RFC5247&#45;&gt;rev_cites</title>
<path fill="none" stroke="black" d="M621.5,-104.77C636.59,-203.49 668.74,-413.98 680.63,-491.75"/>
<polygon fill="black" stroke="black" points="677.15,-492.2 682.12,-501.56 684.07,-491.14 677.15,-492.2"/>
</g>
<!-- RFC9820 -->
<g id="node9" class="node">
<title>RFC9820</title>
<g id="a_node9"><a xlink:href="RFC9820.html" xlink:title="This document specifies an authentication service that uses the Constrained Application Protocol (CoAP) as a transport method to carry the Extensible Authentication Protocol (EAP). &#160;As such, it defines an EAP lower layer based on CoAP called CoAP&#45;EAP. &#160;One of the main goals is to authenticate a CoAP&#45;enabled Internet of Things (IoT) device (EAP peer) that intends to join a security domain managed by a Controller (EAP authenticator). &#160;Secondly, it allows deriving key material to protect CoAP messages exchanged between them based on Object Security for Constrained RESTful Environments (OSCORE), enabling the establishment of a security association between them." target="_top">
<ellipse fill="none" stroke="black" cx="1158.46" cy="-486.92" rx="172.53" ry="75.66"/>
<text xml:space="preserve" text-anchor="middle" x="1158.46" y="-523.12" font-family="Times,serif" font-size="14.00">RFC9820</text>
<text xml:space="preserve" text-anchor="middle" x="1158.46" y="-506.62" font-family="Times,serif" font-size="14.00">Authentication Service Based on the</text>
<text xml:space="preserve" text-anchor="middle" x="1158.46" y="-490.12" font-family="Times,serif" font-size="14.00">Extensible Authentication Protocol (EAP)</text>
<text xml:space="preserve" text-anchor="middle" x="1158.46" y="-473.62" font-family="Times,serif" font-size="14.00">for Use with the Constrained Application</text>
<text xml:space="preserve" text-anchor="middle" x="1158.46" y="-457.12" font-family="Times,serif" font-size="14.00">Protocol (CoAP)</text>
<text xml:space="preserve" text-anchor="middle" x="1158.46" y="-440.62" font-family="Times,serif" font-size="14.00">2025</text>
</a>
</g>
</g>
<!-- RFC9820&#45;&gt;rev_cites -->
<g id="edge8" class="edge">
<title>RFC9820&#45;&gt;rev_cites</title>
<path fill="none" stroke="black" d="M987.92,-499.36C892.46,-506.32 781.39,-514.42 723.98,-518.6"/>
<polygon fill="black" stroke="black" points="723.79,-515.11 714.08,-519.33 724.3,-522.09 723.79,-515.11"/>
</g>
</g>
</svg>
