<?xml version="1.0" encoding="UTF-8" standalone="no"?>
<!DOCTYPE svg PUBLIC "-//W3C//DTD SVG 1.1//EN"
 "http://www.w3.org/Graphics/SVG/1.1/DTD/svg11.dtd">
<!-- Generated by graphviz version 14.1.1 (20251213.1925)
 -->
<!-- Title: Flow Pages: 1 -->
<svg width="1253pt" height="925pt"
 viewBox="0.00 0.00 1253.00 925.00" xmlns="http://www.w3.org/2000/svg" xmlns:xlink="http://www.w3.org/1999/xlink">
<g id="graph0" class="graph" transform="scale(1 1) rotate(0) translate(4 920.98)">
<title>Flow</title>
<polygon fill="white" stroke="none" points="-4,4 -4,-920.98 1249.43,-920.98 1249.43,4 -4,4"/>
<!-- RFC4261 -->
<g id="node1" class="node">
<title>RFC4261</title>
<g id="a_node1"><a xlink:title="This document describes how to use Transport Layer Security (TLS) to secure Common Open Policy Service (COPS) connections over the Internet. This document also updates RFC 2748 by modifying the contents of the Client&#45;Accept message. [STANDARDS&#45;TRACK]">
<ellipse fill="green" stroke="black" cx="585.06" cy="-718.66" rx="184.2" ry="52.33"/>
<text xml:space="preserve" text-anchor="middle" x="585.06" y="-738.36" font-family="Times,serif" font-size="14.00">RFC4261</text>
<text xml:space="preserve" text-anchor="middle" x="585.06" y="-721.86" font-family="Times,serif" font-size="14.00">Common Open Policy Service (COPS) Over</text>
<text xml:space="preserve" text-anchor="middle" x="585.06" y="-705.36" font-family="Times,serif" font-size="14.00">Transport Layer Security (TLS)</text>
<text xml:space="preserve" text-anchor="middle" x="585.06" y="-688.86" font-family="Times,serif" font-size="14.00">2005</text>
</a>
</g>
</g>
<!-- obs -->
<g id="node3" class="node">
<title>obs</title>
<polygon fill="lightblue" stroke="black" points="860.51,-790.66 794.26,-790.66 794.26,-754.66 860.51,-754.66 860.51,-790.66"/>
<text xml:space="preserve" text-anchor="middle" x="827.39" y="-767.61" font-family="Times,serif" font-size="14.00">obsoletes</text>
</g>
<!-- RFC4261&#45;&gt;obs -->
<g id="edge2" class="edge">
<title>RFC4261&#45;&gt;obs</title>
<path fill="none" stroke="black" d="M730.37,-751.08C749.43,-755.37 767.65,-759.46 783,-762.91"/>
<polygon fill="black" stroke="black" points="782.14,-766.3 792.66,-765.08 783.67,-759.47 782.14,-766.3"/>
</g>
<!-- updates -->
<g id="node4" class="node">
<title>updates</title>
<polygon fill="lightyellow" stroke="black" points="856.01,-736.66 798.76,-736.66 798.76,-700.66 856.01,-700.66 856.01,-736.66"/>
<text xml:space="preserve" text-anchor="middle" x="827.39" y="-713.61" font-family="Times,serif" font-size="14.00">updates</text>
</g>
<!-- RFC4261&#45;&gt;updates -->
<g id="edge3" class="edge">
<title>RFC4261&#45;&gt;updates</title>
<path fill="none" stroke="black" d="M769.74,-718.66C775.87,-718.66 781.7,-718.66 787.12,-718.66"/>
<polygon fill="black" stroke="black" points="786.77,-722.16 796.77,-718.66 786.77,-715.16 786.77,-722.16"/>
</g>
<!-- cites -->
<g id="node8" class="node">
<title>cites</title>
<polygon fill="lightblue" stroke="black" points="854.39,-537.66 800.39,-537.66 800.39,-501.66 854.39,-501.66 854.39,-537.66"/>
<text xml:space="preserve" text-anchor="middle" x="827.39" y="-514.61" font-family="Times,serif" font-size="14.00">cites</text>
</g>
<!-- RFC4261&#45;&gt;cites -->
<g id="edge7" class="edge">
<title>RFC4261&#45;&gt;cites</title>
<path fill="none" stroke="black" d="M646.09,-668.96C693.58,-629.63 757.96,-576.32 795.55,-545.19"/>
<polygon fill="black" stroke="black" points="797.42,-548.19 802.89,-539.12 792.96,-542.8 797.42,-548.19"/>
</g>
<!-- obs_by -->
<g id="node2" class="node">
<title>obs_by</title>
<polygon fill="lightblue" stroke="black" points="375.86,-790.66 309.61,-790.66 309.61,-754.66 375.86,-754.66 375.86,-790.66"/>
<text xml:space="preserve" text-anchor="middle" x="342.74" y="-767.61" font-family="Times,serif" font-size="14.00">obsoletes</text>
</g>
<!-- obs_by&#45;&gt;RFC4261 -->
<g id="edge1" class="edge">
<title>obs_by&#45;&gt;RFC4261</title>
<path fill="none" stroke="black" d="M376.15,-765.38C390.63,-762.12 408.86,-758.03 428.47,-753.62"/>
<polygon fill="black" stroke="black" points="429.02,-757.08 438.01,-751.47 427.49,-750.25 429.02,-757.08"/>
</g>
<!-- RFC2748 -->
<g id="node5" class="node">
<title>RFC2748</title>
<g id="a_node5"><a xlink:href="RFC2748.html" xlink:title="This document describes a simple client/server model for supporting policy control over QoS signaling protocols. [STANDARDS&#45;TRACK]" target="_top">
<ellipse fill="none" stroke="black" cx="1065.47" cy="-864.66" rx="179.96" ry="52.33"/>
<text xml:space="preserve" text-anchor="middle" x="1065.47" y="-884.36" font-family="Times,serif" font-size="14.00">RFC2748</text>
<text xml:space="preserve" text-anchor="middle" x="1065.47" y="-867.86" font-family="Times,serif" font-size="14.00">The COPS (Common Open Policy Service)</text>
<text xml:space="preserve" text-anchor="middle" x="1065.47" y="-851.36" font-family="Times,serif" font-size="14.00">Protocol</text>
<text xml:space="preserve" text-anchor="middle" x="1065.47" y="-834.86" font-family="Times,serif" font-size="14.00">2000</text>
</a>
</g>
</g>
<!-- updates&#45;&gt;RFC2748 -->
<g id="edge4" class="edge">
<title>updates&#45;&gt;RFC2748</title>
<path fill="none" stroke="black" d="M852.77,-736.98C855.58,-739.7 858.25,-742.62 860.51,-745.66 877.26,-768.18 864.9,-784.6 885.51,-803.66 894.74,-812.19 905.21,-819.53 916.35,-825.85"/>
<polygon fill="black" stroke="black" points="914.48,-828.83 924.95,-830.44 917.77,-822.65 914.48,-828.83"/>
</g>
<!-- updated_by -->
<g id="node6" class="node">
<title>updated_by</title>
<polygon fill="lightyellow" stroke="black" points="371.36,-736.66 314.11,-736.66 314.11,-700.66 371.36,-700.66 371.36,-736.66"/>
<text xml:space="preserve" text-anchor="middle" x="342.74" y="-713.61" font-family="Times,serif" font-size="14.00">updates</text>
</g>
<!-- updated_by&#45;&gt;RFC4261 -->
<g id="edge5" class="edge">
<title>updated_by&#45;&gt;RFC4261</title>
<path fill="none" stroke="black" d="M371.77,-718.66C377.09,-718.66 383,-718.66 389.38,-718.66"/>
<polygon fill="black" stroke="black" points="389.02,-722.16 399.02,-718.66 389.02,-715.16 389.02,-722.16"/>
</g>
<!-- RFC8996 -->
<g id="node7" class="node">
<title>RFC8996</title>
<g id="a_node7"><a xlink:href="RFC8996.html" xlink:title="This document formally deprecates Transport Layer Security (TLS) versions 1.0 (RFC 2246) and 1.1 (RFC 4346). Accordingly, those documents have been moved to Historic status. These versions lack support for current and recommended cryptographic algorithms and mechanisms, and various government and industry profiles of applications using TLS now mandate avoiding these old TLS versions. TLS version 1.2 became the recommended version for IETF protocols in 2008 (subsequently being obsoleted by TLS version 1.3 in 2018), providing sufficient time to transition away from older versions. Removing support for older versions from implementations reduces the attack surface, reduces opportunity for misconfiguration, and streamlines library and product maintenance. This document also deprecates Datagram TLS (DTLS) version 1.0 (RFC 4347) but not DTLS version 1.2, and there is no DTLS version 1.1. This document updates many RFCs that normatively refer to TLS version 1.0 or TLS version 1.1, as described herein. This document also updates the best practices for TLS usage in RFC 7525; hence, it is part of BCP 195." target="_top">
<ellipse fill="none" stroke="black" cx="142.31" cy="-691.66" rx="142.31" ry="40.66"/>
<text xml:space="preserve" text-anchor="middle" x="142.31" y="-703.11" font-family="Times,serif" font-size="14.00">RFC8996</text>
<text xml:space="preserve" text-anchor="middle" x="142.31" y="-686.61" font-family="Times,serif" font-size="14.00">Deprecating TLS 1.0 and TLS 1.1</text>
<text xml:space="preserve" text-anchor="middle" x="142.31" y="-670.11" font-family="Times,serif" font-size="14.00">2021</text>
</a>
</g>
</g>
<!-- RFC8996&#45;&gt;updated_by -->
<g id="edge6" class="edge">
<title>RFC8996&#45;&gt;updated_by</title>
<path fill="none" stroke="black" d="M271.5,-709.1C282.53,-710.6 293.05,-712.03 302.42,-713.31"/>
<polygon fill="black" stroke="black" points="301.76,-716.75 312.14,-714.63 302.7,-709.81 301.76,-716.75"/>
</g>
<!-- rev_cites -->
<g id="node16" class="node">
<title>rev_cites</title>
<polygon fill="lightblue" stroke="black" points="369.74,-682.66 315.74,-682.66 315.74,-646.66 369.74,-646.66 369.74,-682.66"/>
<text xml:space="preserve" text-anchor="middle" x="342.74" y="-659.61" font-family="Times,serif" font-size="14.00">cites</text>
</g>
<!-- RFC8996&#45;&gt;rev_cites -->
<g id="edge17" class="edge">
<title>RFC8996&#45;&gt;rev_cites</title>
<path fill="none" stroke="black" d="M271.5,-674.22C283.19,-672.63 294.29,-671.11 304.07,-669.78"/>
<polygon fill="black" stroke="black" points="304.37,-673.28 313.8,-668.46 303.42,-666.34 304.37,-673.28"/>
</g>
<!-- cites&#45;&gt;RFC2748 -->
<g id="edge8" class="edge">
<title>cites&#45;&gt;RFC2748</title>
<path fill="none" stroke="black" d="M831.81,-537.92C843.45,-599.88 881.03,-798.56 885.51,-803.66 893.47,-812.72 902.83,-820.44 913.03,-827.02"/>
<polygon fill="black" stroke="black" points="910.93,-829.84 921.31,-831.96 914.52,-823.83 910.93,-829.84"/>
</g>
<!-- RFC2246 -->
<g id="node9" class="node">
<title>RFC2246</title>
<g id="a_node9"><a xlink:href="RFC2246.html" xlink:title="This document specifies Version 1.0 of the Transport Layer Security (TLS) protocol. &#160;The TLS protocol provides communications privacy over the Internet. &#160;The protocol allows client/server applications to communicate in a way that is designed to prevent eavesdropping, tampering, or message forgery." target="_top">
<ellipse fill="none" stroke="black" cx="1065.47" cy="-753.66" rx="126.4" ry="40.66"/>
<text xml:space="preserve" text-anchor="middle" x="1065.47" y="-765.11" font-family="Times,serif" font-size="14.00">RFC2246</text>
<text xml:space="preserve" text-anchor="middle" x="1065.47" y="-748.61" font-family="Times,serif" font-size="14.00">The TLS Protocol Version 1.0</text>
<text xml:space="preserve" text-anchor="middle" x="1065.47" y="-732.11" font-family="Times,serif" font-size="14.00">1999</text>
</a>
</g>
</g>
<!-- cites&#45;&gt;RFC2246 -->
<g id="edge9" class="edge">
<title>cites&#45;&gt;RFC2246</title>
<path fill="none" stroke="black" d="M828.59,-538C830.03,-574.81 838.62,-658.09 885.51,-703.66 899.86,-717.6 917.76,-727.72 936.64,-735.06"/>
<polygon fill="black" stroke="black" points="935.2,-738.26 945.8,-738.34 937.57,-731.67 935.2,-738.26"/>
</g>
<!-- RFC2753 -->
<g id="node10" class="node">
<title>RFC2753</title>
<g id="a_node10"><a xlink:href="RFC2753.html" xlink:title="This document is concerned with specifying a framework for providing policy&#45;based control over admission control decisions. &#160;This memo provides information for the Internet community." target="_top">
<ellipse fill="none" stroke="black" cx="1065.47" cy="-642.66" rx="174.66" ry="52.33"/>
<text xml:space="preserve" text-anchor="middle" x="1065.47" y="-662.36" font-family="Times,serif" font-size="14.00">RFC2753</text>
<text xml:space="preserve" text-anchor="middle" x="1065.47" y="-645.86" font-family="Times,serif" font-size="14.00">A Framework for Policy&#45;based Admission</text>
<text xml:space="preserve" text-anchor="middle" x="1065.47" y="-629.36" font-family="Times,serif" font-size="14.00">Control</text>
<text xml:space="preserve" text-anchor="middle" x="1065.47" y="-612.86" font-family="Times,serif" font-size="14.00">2000</text>
</a>
</g>
</g>
<!-- cites&#45;&gt;RFC2753 -->
<g id="edge10" class="edge">
<title>cites&#45;&gt;RFC2753</title>
<path fill="none" stroke="black" d="M841.56,-537.94C852.11,-551.4 867.99,-569.28 885.51,-580.66 898.16,-588.87 912.02,-596.13 926.26,-602.52"/>
<polygon fill="black" stroke="black" points="924.72,-605.66 935.29,-606.41 927.49,-599.24 924.72,-605.66"/>
</g>
<!-- RFC2119 -->
<g id="node11" class="node">
<title>RFC2119</title>
<g id="a_node11"><a xlink:href="RFC2119.html" xlink:title="In many standards track documents several words are used to signify the requirements in the specification. &#160;These words are often capitalized. &#160;This document defines these words as they should be interpreted in IETF documents. &#160;This document specifies an Internet Best Current Practices for the Internet Community, and requests discussion and suggestions for improvements." target="_top">
<ellipse fill="none" stroke="black" cx="1065.47" cy="-519.66" rx="160.34" ry="52.33"/>
<text xml:space="preserve" text-anchor="middle" x="1065.47" y="-539.36" font-family="Times,serif" font-size="14.00">RFC2119</text>
<text xml:space="preserve" text-anchor="middle" x="1065.47" y="-522.86" font-family="Times,serif" font-size="14.00">Key words for use in RFCs to Indicate</text>
<text xml:space="preserve" text-anchor="middle" x="1065.47" y="-506.36" font-family="Times,serif" font-size="14.00">Requirement Levels</text>
<text xml:space="preserve" text-anchor="middle" x="1065.47" y="-489.86" font-family="Times,serif" font-size="14.00">1997</text>
</a>
</g>
</g>
<!-- cites&#45;&gt;RFC2119 -->
<g id="edge11" class="edge">
<title>cites&#45;&gt;RFC2119</title>
<path fill="none" stroke="black" d="M854.56,-519.66C865.22,-519.66 878.51,-519.66 893.18,-519.66"/>
<polygon fill="black" stroke="black" points="893.14,-523.16 903.14,-519.66 893.14,-516.16 893.14,-523.16"/>
</g>
<!-- RFC2595 -->
<g id="node12" class="node">
<title>RFC2595</title>
<g id="a_node12"><a xlink:href="RFC2595.html" xlink:title="Recognizing that such sites will desire simple password authentication in combination with TLS encryption, this specification defines the PLAIN SASL mechanism for use with protocols which lack a simple password authentication command such as ACAP and SMTP. [STANDARDS&#45;TRACK]" target="_top">
<ellipse fill="none" stroke="black" cx="1065.47" cy="-408.66" rx="170.41" ry="40.66"/>
<text xml:space="preserve" text-anchor="middle" x="1065.47" y="-420.11" font-family="Times,serif" font-size="14.00">RFC2595</text>
<text xml:space="preserve" text-anchor="middle" x="1065.47" y="-403.61" font-family="Times,serif" font-size="14.00">Using TLS with IMAP, POP3 and ACAP</text>
<text xml:space="preserve" text-anchor="middle" x="1065.47" y="-387.11" font-family="Times,serif" font-size="14.00">1999</text>
</a>
</g>
</g>
<!-- cites&#45;&gt;RFC2595 -->
<g id="edge12" class="edge">
<title>cites&#45;&gt;RFC2595</title>
<path fill="none" stroke="black" d="M841.15,-501.35C851.59,-487.69 867.53,-469.57 885.51,-458.66 897.82,-451.19 911.28,-444.81 925.1,-439.36"/>
<polygon fill="black" stroke="black" points="926.19,-442.69 934.32,-435.9 923.73,-436.14 926.19,-442.69"/>
</g>
<!-- RFC3280 -->
<g id="node13" class="node">
<title>RFC3280</title>
<g id="a_node13"><a xlink:href="RFC3280.html" xlink:title="This memo profiles the X.509 v3 certificate and X.509 v2 Certificate Revocation List (CRL) for use in the Internet. [STANDARDS&#45;TRACK]" target="_top">
<ellipse fill="none" stroke="black" cx="1065.47" cy="-285.66" rx="167.76" ry="63.99"/>
<text xml:space="preserve" text-anchor="middle" x="1065.47" y="-313.61" font-family="Times,serif" font-size="14.00">RFC3280</text>
<text xml:space="preserve" text-anchor="middle" x="1065.47" y="-297.11" font-family="Times,serif" font-size="14.00">Internet X.509 Public Key Infrastructure</text>
<text xml:space="preserve" text-anchor="middle" x="1065.47" y="-280.61" font-family="Times,serif" font-size="14.00">Certificate and Certificate Revocation</text>
<text xml:space="preserve" text-anchor="middle" x="1065.47" y="-264.11" font-family="Times,serif" font-size="14.00">List (CRL) Profile</text>
<text xml:space="preserve" text-anchor="middle" x="1065.47" y="-247.61" font-family="Times,serif" font-size="14.00">2002</text>
</a>
</g>
</g>
<!-- cites&#45;&gt;RFC3280 -->
<g id="edge13" class="edge">
<title>cites&#45;&gt;RFC3280</title>
<path fill="none" stroke="black" d="M830.06,-501.2C833.98,-468.36 846.6,-399.42 885.51,-358.66 896.05,-347.62 908.48,-338.21 921.82,-330.18"/>
<polygon fill="black" stroke="black" points="923.39,-333.31 930.35,-325.33 919.93,-327.23 923.39,-333.31"/>
</g>
<!-- RFC2434 -->
<g id="node14" class="node">
<title>RFC2434</title>
<g id="a_node14"><a xlink:href="RFC2434.html" xlink:title="This document discusses issues that should be considered in formulating a policy for assigning values to a name space and provides guidelines to document authors on the specific text that must be included in documents that place demands on the IANA. &#160;This document specifies an Internet Best Current Practices for the Internet Community, and requests discussion and suggestions for improvements." target="_top">
<ellipse fill="none" stroke="black" cx="1065.47" cy="-151.66" rx="136.47" ry="52.33"/>
<text xml:space="preserve" text-anchor="middle" x="1065.47" y="-171.36" font-family="Times,serif" font-size="14.00">RFC2434</text>
<text xml:space="preserve" text-anchor="middle" x="1065.47" y="-154.86" font-family="Times,serif" font-size="14.00">Guidelines for Writing an IANA</text>
<text xml:space="preserve" text-anchor="middle" x="1065.47" y="-138.36" font-family="Times,serif" font-size="14.00">Considerations Section in RFCs</text>
<text xml:space="preserve" text-anchor="middle" x="1065.47" y="-121.86" font-family="Times,serif" font-size="14.00">1998</text>
</a>
</g>
</g>
<!-- cites&#45;&gt;RFC2434 -->
<g id="edge14" class="edge">
<title>cites&#45;&gt;RFC2434</title>
<path fill="none" stroke="black" d="M829.41,-501.54C833.08,-442.45 847.48,-256.63 885.51,-212.66 897.99,-198.24 914.02,-187.22 931.35,-178.8"/>
<polygon fill="black" stroke="black" points="932.63,-182.06 940.3,-174.76 929.75,-175.68 932.63,-182.06"/>
</g>
<!-- RFC2818 -->
<g id="node15" class="node">
<title>RFC2818</title>
<g id="a_node15"><a xlink:href="RFC2818.html" xlink:title="This memo describes how to use Transport Layer Security (TLS) to secure Hypertext Transfer Protocol (HTTP) connections over the Internet. &#160;This memo provides information for the Internet community." target="_top">
<ellipse fill="none" stroke="black" cx="1065.47" cy="-40.66" rx="75.48" ry="40.66"/>
<text xml:space="preserve" text-anchor="middle" x="1065.47" y="-52.11" font-family="Times,serif" font-size="14.00">RFC2818</text>
<text xml:space="preserve" text-anchor="middle" x="1065.47" y="-35.61" font-family="Times,serif" font-size="14.00">HTTP Over TLS</text>
<text xml:space="preserve" text-anchor="middle" x="1065.47" y="-19.11" font-family="Times,serif" font-size="14.00">2000</text>
</a>
</g>
</g>
<!-- cites&#45;&gt;RFC2818 -->
<g id="edge15" class="edge">
<title>cites&#45;&gt;RFC2818</title>
<path fill="none" stroke="black" d="M828.25,-501.31C828.05,-427.51 831.06,-153.33 885.51,-90.66 908.7,-63.97 944.84,-50.97 978.59,-44.83"/>
<polygon fill="black" stroke="black" points="979.11,-48.29 988.43,-43.24 978,-41.38 979.11,-48.29"/>
</g>
<!-- rev_cites&#45;&gt;RFC4261 -->
<g id="edge16" class="edge">
<title>rev_cites&#45;&gt;RFC4261</title>
<path fill="none" stroke="black" d="M369.91,-670.54C385.18,-673.97 405.82,-678.61 428.29,-683.66"/>
<polygon fill="black" stroke="black" points="427.45,-687.06 437.97,-685.83 428.98,-680.23 427.45,-687.06"/>
</g>
</g>
</svg>
