<?xml version="1.0" encoding="UTF-8" standalone="no"?>
<!DOCTYPE svg PUBLIC "-//W3C//DTD SVG 1.1//EN"
 "http://www.w3.org/Graphics/SVG/1.1/DTD/svg11.dtd">
<!-- Generated by graphviz version 14.1.1 (20251213.1925)
 -->
<!-- Title: Flow Pages: 1 -->
<svg width="1189pt" height="1156pt"
 viewBox="0.00 0.00 1189.00 1156.00" xmlns="http://www.w3.org/2000/svg" xmlns:xlink="http://www.w3.org/1999/xlink">
<g id="graph0" class="graph" transform="scale(1 1) rotate(0) translate(4 1151.84)">
<title>Flow</title>
<polygon fill="white" stroke="none" points="-4,4 -4,-1151.84 1185.17,-1151.84 1185.17,4 -4,4"/>
<!-- RFC4703 -->
<g id="node1" class="node">
<title>RFC4703</title>
<g id="a_node1"><a xlink:title="The Dynamic Host Configuration Protocol (DHCP) provides a mechanism for host configuration that includes dynamic assignment of IP addresses and fully qualified domain names. &#160;To maintain accurate name&#45;to&#45;IP&#45;address and IP&#45;address&#45;to&#45;name mappings in the DNS, these dynamically assigned addresses and fully qualified domain names (FQDNs) require updates to the DNS. &#160;This document identifies situations in which conflicts in the use of fully qualified domain names may arise among DHCP clients and servers, and it describes a strategy for the use of the DHCID DNS resource record (RR) in resolving those conflicts. [STANDARDS&#45;TRACK]">
<ellipse fill="green" stroke="black" stroke-width="3" cx="401.53" cy="-770.67" rx="253.67" ry="79.9"/>
<text xml:space="preserve" text-anchor="middle" x="401.53" y="-806.07" font-family="Times,serif" font-size="18.00">RFC4703</text>
<text xml:space="preserve" text-anchor="middle" x="401.53" y="-785.07" font-family="Times,serif" font-size="18.00">Resolution of Fully Qualified Domain</text>
<text xml:space="preserve" text-anchor="middle" x="401.53" y="-764.07" font-family="Times,serif" font-size="18.00">Name (FQDN) Conflicts among Dynamic Host</text>
<text xml:space="preserve" text-anchor="middle" x="401.53" y="-743.07" font-family="Times,serif" font-size="18.00">Configuration Protocol (DHCP) Clients</text>
<text xml:space="preserve" text-anchor="middle" x="401.53" y="-722.07" font-family="Times,serif" font-size="18.00">2006</text>
</a>
</g>
</g>
<!-- obs -->
<g id="node3" class="node">
<title>obs</title>
<polygon fill="lightblue" stroke="black" points="766.58,-948.51 700.33,-948.51 700.33,-912.51 766.58,-912.51 766.58,-948.51"/>
<text xml:space="preserve" text-anchor="middle" x="733.46" y="-925.46" font-family="Times,serif" font-size="14.00">obsoletes</text>
</g>
<!-- RFC4703&#45;&gt;obs -->
<g id="edge2" class="edge">
<title>RFC4703&#45;&gt;obs</title>
<path fill="none" stroke="black" d="M542.3,-838.46C595.43,-864.05 652.1,-891.33 689.81,-909.5"/>
<polygon fill="black" stroke="black" points="688.04,-912.53 698.57,-913.71 691.08,-906.22 688.04,-912.53"/>
</g>
<!-- updates -->
<g id="node4" class="node">
<title>updates</title>
<polygon fill="lightyellow" stroke="black" points="512.14,-1147.84 454.89,-1147.84 454.89,-1111.84 512.14,-1111.84 512.14,-1147.84"/>
<text xml:space="preserve" text-anchor="middle" x="483.51" y="-1124.79" font-family="Times,serif" font-size="14.00">updates</text>
</g>
<!-- RFC4703&#45;&gt;updates -->
<g id="edge3" class="edge">
<title>RFC4703&#45;&gt;updates</title>
<path fill="none" stroke="black" d="M420.03,-851.72C438.08,-930.78 464.54,-1046.73 476.81,-1100.48"/>
<polygon fill="black" stroke="black" points="473.37,-1101.12 479,-1110.09 480.19,-1099.56 473.37,-1101.12"/>
</g>
<!-- cites -->
<g id="node6" class="node">
<title>cites</title>
<polygon fill="lightblue" stroke="black" points="198.83,-1076.7 144.83,-1076.7 144.83,-1040.7 198.83,-1040.7 198.83,-1076.7"/>
<text xml:space="preserve" text-anchor="middle" x="171.83" y="-1053.65" font-family="Times,serif" font-size="14.00">cites</text>
</g>
<!-- RFC4703&#45;&gt;cites -->
<g id="edge5" class="edge">
<title>RFC4703&#45;&gt;cites</title>
<path fill="none" stroke="black" d="M338.77,-849.37C290.46,-909.95 226.56,-990.08 193.58,-1031.43"/>
<polygon fill="black" stroke="black" points="190.91,-1029.17 187.41,-1039.17 196.38,-1033.54 190.91,-1029.17"/>
</g>
<!-- obs_by -->
<g id="node2" class="node">
<title>obs_by</title>
<polygon fill="lightblue" stroke="black" points="66.25,-788.67 0,-788.67 0,-752.67 66.25,-752.67 66.25,-788.67"/>
<text xml:space="preserve" text-anchor="middle" x="33.13" y="-765.62" font-family="Times,serif" font-size="14.00">obsoletes</text>
</g>
<!-- obs_by&#45;&gt;RFC4703 -->
<g id="edge1" class="edge">
<title>obs_by&#45;&gt;RFC4703</title>
<path fill="none" stroke="black" d="M66.47,-770.67C84.45,-770.67 108.47,-770.67 135.43,-770.67"/>
<polygon fill="black" stroke="black" points="135.22,-774.17 145.22,-770.67 135.22,-767.17 135.22,-774.17"/>
</g>
<!-- updated_by -->
<g id="node5" class="node">
<title>updated_by</title>
<polygon fill="lightyellow" stroke="black" points="200.46,-500.64 143.21,-500.64 143.21,-464.64 200.46,-464.64 200.46,-500.64"/>
<text xml:space="preserve" text-anchor="middle" x="171.83" y="-477.59" font-family="Times,serif" font-size="14.00">updates</text>
</g>
<!-- updated_by&#45;&gt;RFC4703 -->
<g id="edge4" class="edge">
<title>updated_by&#45;&gt;RFC4703</title>
<path fill="none" stroke="black" d="M186.55,-501.09C215.3,-537.14 280.58,-618.99 331.71,-683.11"/>
<polygon fill="black" stroke="black" points="328.91,-685.21 337.88,-690.85 334.38,-680.85 328.91,-685.21"/>
</g>
<!-- rev_cites -->
<g id="node7" class="node">
<title>rev_cites</title>
<polygon fill="lightblue" stroke="black" points="658.23,-500.64 604.23,-500.64 604.23,-464.64 658.23,-464.64 658.23,-500.64"/>
<text xml:space="preserve" text-anchor="middle" x="631.23" y="-477.59" font-family="Times,serif" font-size="14.00">cites</text>
</g>
<!-- rev_cites&#45;&gt;RFC4703 -->
<g id="edge6" class="edge">
<title>rev_cites&#45;&gt;RFC4703</title>
<path fill="none" stroke="black" d="M616.51,-501.09C587.76,-537.14 522.49,-618.99 471.36,-683.11"/>
<polygon fill="black" stroke="black" points="468.68,-680.85 465.19,-690.85 474.16,-685.21 468.68,-680.85"/>
</g>
<!-- RFC6853 -->
<g id="node8" class="node">
<title>RFC6853</title>
<g id="a_node8"><a xlink:href="RFC6853.html" xlink:title="This document provides information for those wishing to use DHCPv6 to support their deployment of IPv6. &#160;In particular, it discusses the provision of semi&#45;redundant DHCPv6 services." target="_top">
<ellipse fill="none" stroke="black" cx="565.49" cy="-52.33" rx="147.08" ry="52.33"/>
<text xml:space="preserve" text-anchor="middle" x="565.49" y="-72.03" font-family="Times,serif" font-size="14.00">RFC6853</text>
<text xml:space="preserve" text-anchor="middle" x="565.49" y="-55.53" font-family="Times,serif" font-size="14.00">DHCPv6 Redundancy Deployment</text>
<text xml:space="preserve" text-anchor="middle" x="565.49" y="-39.03" font-family="Times,serif" font-size="14.00">Considerations</text>
<text xml:space="preserve" text-anchor="middle" x="565.49" y="-22.53" font-family="Times,serif" font-size="14.00">2013</text>
</a>
</g>
</g>
<!-- RFC6853&#45;&gt;rev_cites -->
<g id="edge7" class="edge">
<title>RFC6853&#45;&gt;rev_cites</title>
<path fill="none" stroke="black" d="M573.49,-104.66C587.43,-195.92 615.75,-381.28 626.73,-453.2"/>
<polygon fill="black" stroke="black" points="623.26,-453.64 628.23,-463 630.18,-452.59 623.26,-453.64"/>
</g>
<!-- RFC8156 -->
<g id="node9" class="node">
<title>RFC8156</title>
<g id="a_node9"><a xlink:href="RFC8156.html" xlink:title="DHCPv6 as defined in Dynamic Host Configuration Protocol for IPv6 (DHCPv6) (RFC 3315) does not offer server redundancy. &#160;This document defines a protocol implementation to provide DHCPv6 failover, a mechanism for running two servers with the capability for either server to take over clients&#39; leases in case of server failure or network partition. &#160;It meets the requirements for DHCPv6 failover detailed in DHCPv6 Failover Requirements (RFC 7031)." target="_top">
<ellipse fill="none" stroke="black" cx="1065.38" cy="-450.98" rx="115.79" ry="40.66"/>
<text xml:space="preserve" text-anchor="middle" x="1065.38" y="-462.43" font-family="Times,serif" font-size="14.00">RFC8156</text>
<text xml:space="preserve" text-anchor="middle" x="1065.38" y="-445.93" font-family="Times,serif" font-size="14.00">DHCPv6 Failover Protocol</text>
<text xml:space="preserve" text-anchor="middle" x="1065.38" y="-429.43" font-family="Times,serif" font-size="14.00">2017</text>
</a>
</g>
</g>
<!-- RFC8156&#45;&gt;rev_cites -->
<g id="edge8" class="edge">
<title>RFC8156&#45;&gt;rev_cites</title>
<path fill="none" stroke="black" d="M951.6,-459.27C858.6,-466.05 732.63,-475.24 669.97,-479.81"/>
<polygon fill="black" stroke="black" points="669.89,-476.31 660.17,-480.52 670.4,-483.29 669.89,-476.31"/>
</g>
</g>
</svg>
