<?xml version="1.0" encoding="UTF-8" standalone="no"?>
<!DOCTYPE svg PUBLIC "-//W3C//DTD SVG 1.1//EN"
 "http://www.w3.org/Graphics/SVG/1.1/DTD/svg11.dtd">
<!-- Generated by graphviz version 14.1.1 (20251213.1925)
 -->
<!-- Title: Flow Pages: 1 -->
<svg width="852pt" height="186pt"
 viewBox="0.00 0.00 852.00 186.00" xmlns="http://www.w3.org/2000/svg" xmlns:xlink="http://www.w3.org/1999/xlink">
<g id="graph0" class="graph" transform="scale(1 1) rotate(0) translate(4 182.33)">
<title>Flow</title>
<polygon fill="white" stroke="none" points="-4,4 -4,-182.33 847.54,-182.33 847.54,4 -4,4"/>
<!-- RFC4986 -->
<g id="node1" class="node">
<title>RFC4986</title>
<g id="a_node1"><a xlink:title="Every DNS security&#45;aware resolver must have at least one Trust Anchor to use as the basis for validating responses from DNS signed zones. &#160;For various reasons, most DNS security&#45;aware resolvers are expected to have several Trust Anchors. &#160;For some operations, manual monitoring and updating of Trust Anchors may be feasible, but many operations will require automated methods for updating Trust Anchors in their security&#45;aware resolvers. &#160;This document identifies the requirements that must be met by an automated DNS Trust Anchor rollover solution for security&#45;aware DNS resolvers. &#160;This memo provides information for the Internet community.">
<ellipse fill="none" stroke="black" cx="589.3" cy="-106.33" rx="162.99" ry="52.33"/>
<text xml:space="preserve" text-anchor="middle" x="589.3" y="-126.03" font-family="Times,serif" font-size="14.00">RFC4986</text>
<text xml:space="preserve" text-anchor="middle" x="589.3" y="-109.53" font-family="Times,serif" font-size="14.00">Requirements Related to DNS Security</text>
<text xml:space="preserve" text-anchor="middle" x="589.3" y="-93.03" font-family="Times,serif" font-size="14.00">(DNSSEC) Trust Anchor Rollover</text>
<text xml:space="preserve" text-anchor="middle" x="589.3" y="-76.53" font-family="Times,serif" font-size="14.00">2007</text>
</a>
</g>
</g>
<!-- obs -->
<g id="node3" class="node">
<title>obs</title>
<polygon fill="none" stroke="black" points="843.54,-178.33 777.29,-178.33 777.29,-142.33 843.54,-142.33 843.54,-178.33"/>
<text xml:space="preserve" text-anchor="middle" x="810.42" y="-155.28" font-family="Times,serif" font-size="14.00">obsoletes</text>
</g>
<!-- RFC4986&#45;&gt;obs -->
<g id="edge2" class="edge">
<title>RFC4986&#45;&gt;obs</title>
<path fill="none" stroke="black" d="M719.66,-138.21C736.31,-142.31 752.33,-146.26 766.11,-149.65"/>
<polygon fill="black" stroke="black" points="765.11,-153.01 775.65,-152 766.78,-146.21 765.11,-153.01"/>
</g>
<!-- updates -->
<g id="node4" class="node">
<title>updates</title>
<polygon fill="none" stroke="black" points="839.04,-124.33 781.79,-124.33 781.79,-88.33 839.04,-88.33 839.04,-124.33"/>
<text xml:space="preserve" text-anchor="middle" x="810.42" y="-101.28" font-family="Times,serif" font-size="14.00">updates</text>
</g>
<!-- RFC4986&#45;&gt;updates -->
<g id="edge3" class="edge">
<title>RFC4986&#45;&gt;updates</title>
<path fill="none" stroke="black" d="M752.71,-106.33C758.85,-106.33 764.71,-106.33 770.17,-106.33"/>
<polygon fill="black" stroke="black" points="769.91,-109.83 779.91,-106.33 769.91,-102.83 769.91,-109.83"/>
</g>
<!-- cites -->
<g id="node6" class="node">
<title>cites</title>
<polygon fill="none" stroke="black" points="837.42,-70.33 783.42,-70.33 783.42,-34.33 837.42,-34.33 837.42,-70.33"/>
<text xml:space="preserve" text-anchor="middle" x="810.42" y="-47.28" font-family="Times,serif" font-size="14.00">cites</text>
</g>
<!-- RFC4986&#45;&gt;cites -->
<g id="edge5" class="edge">
<title>RFC4986&#45;&gt;cites</title>
<path fill="none" stroke="black" d="M719.66,-74.45C738.86,-69.71 757.22,-65.19 772.27,-61.48"/>
<polygon fill="black" stroke="black" points="772.76,-64.97 781.63,-59.17 771.08,-58.17 772.76,-64.97"/>
</g>
<!-- obs_by -->
<g id="node2" class="node">
<title>obs_by</title>
<polygon fill="none" stroke="black" points="401.32,-178.33 335.07,-178.33 335.07,-142.33 401.32,-142.33 401.32,-178.33"/>
<text xml:space="preserve" text-anchor="middle" x="368.19" y="-155.28" font-family="Times,serif" font-size="14.00">obsoletes</text>
</g>
<!-- obs_by&#45;&gt;RFC4986 -->
<g id="edge1" class="edge">
<title>obs_by&#45;&gt;RFC4986</title>
<path fill="none" stroke="black" d="M401.52,-152.36C414.73,-149.1 430.99,-145.1 448.35,-140.82"/>
<polygon fill="black" stroke="black" points="448.95,-144.27 457.82,-138.48 447.27,-137.48 448.95,-144.27"/>
</g>
<!-- updated_by -->
<g id="node5" class="node">
<title>updated_by</title>
<polygon fill="none" stroke="black" points="396.82,-124.33 339.57,-124.33 339.57,-88.33 396.82,-88.33 396.82,-124.33"/>
<text xml:space="preserve" text-anchor="middle" x="368.19" y="-101.28" font-family="Times,serif" font-size="14.00">updates</text>
</g>
<!-- updated_by&#45;&gt;RFC4986 -->
<g id="edge4" class="edge">
<title>updated_by&#45;&gt;RFC4986</title>
<path fill="none" stroke="black" d="M396.94,-106.33C402.33,-106.33 408.33,-106.33 414.78,-106.33"/>
<polygon fill="black" stroke="black" points="414.53,-109.83 424.53,-106.33 414.53,-102.83 414.53,-109.83"/>
</g>
<!-- rev_cites -->
<g id="node7" class="node">
<title>rev_cites</title>
<polygon fill="none" stroke="black" points="395.19,-70.33 341.19,-70.33 341.19,-34.33 395.19,-34.33 395.19,-70.33"/>
<text xml:space="preserve" text-anchor="middle" x="368.19" y="-47.28" font-family="Times,serif" font-size="14.00">cites</text>
</g>
<!-- rev_cites&#45;&gt;RFC4986 -->
<g id="edge6" class="edge">
<title>rev_cites&#45;&gt;RFC4986</title>
<path fill="none" stroke="black" d="M395.62,-58.84C409.71,-62.31 428.24,-66.88 448.25,-71.81"/>
<polygon fill="black" stroke="black" points="447.15,-75.14 457.7,-74.14 448.82,-68.35 447.15,-75.14"/>
</g>
<!-- RFC5011 -->
<g id="node8" class="node">
<title>RFC5011</title>
<g id="a_node8"><a xlink:href="RFC5011.html" xlink:title="This document describes a means for automated, authenticated, and authorized updating of DNSSEC trust anchors. The method provides protection against N&#45;1 key compromises of N keys in the trust point key set. Based on the trust established by the presence of a current anchor, other anchors may be added at the same place in the hierarchy, and, ultimately, supplant the existing anchor(s). This mechanism will require changes to resolver management behavior (but not resolver resolution behavior), and the addition of a single flag bit to the DNSKEY record. [STANDARDS&#45;TRACK]" target="_top">
<ellipse fill="none" stroke="black" cx="155.03" cy="-52.33" rx="155.03" ry="52.33"/>
<text xml:space="preserve" text-anchor="middle" x="155.03" y="-72.03" font-family="Times,serif" font-size="14.00">RFC5011</text>
<text xml:space="preserve" text-anchor="middle" x="155.03" y="-55.53" font-family="Times,serif" font-size="14.00">Automated Updates of DNS Security</text>
<text xml:space="preserve" text-anchor="middle" x="155.03" y="-39.03" font-family="Times,serif" font-size="14.00">(DNSSEC) Trust Anchors</text>
<text xml:space="preserve" text-anchor="middle" x="155.03" y="-22.53" font-family="Times,serif" font-size="14.00">2007</text>
</a>
</g>
</g>
<!-- RFC5011&#45;&gt;rev_cites -->
<g id="edge7" class="edge">
<title>RFC5011&#45;&gt;rev_cites</title>
<path fill="none" stroke="black" d="M310.33,-52.33C317.08,-52.33 323.49,-52.33 329.4,-52.33"/>
<polygon fill="black" stroke="black" points="329.3,-55.83 339.3,-52.33 329.3,-48.83 329.3,-55.83"/>
</g>
</g>
</svg>
