<?xml version="1.0" encoding="UTF-8" standalone="no"?>
<!DOCTYPE svg PUBLIC "-//W3C//DTD SVG 1.1//EN"
 "http://www.w3.org/Graphics/SVG/1.1/DTD/svg11.dtd">
<!-- Generated by graphviz version 14.1.1 (20251213.1925)
 -->
<!-- Title: Flow Pages: 1 -->
<svg width="762pt" height="359pt"
 viewBox="0.00 0.00 762.00 359.00" xmlns="http://www.w3.org/2000/svg" xmlns:xlink="http://www.w3.org/1999/xlink">
<g id="graph0" class="graph" transform="scale(1 1) rotate(0) translate(4 354.65)">
<title>Flow</title>
<polygon fill="white" stroke="none" points="-4,4 -4,-354.65 758.45,-354.65 758.45,4 -4,4"/>
<!-- RFC4413 -->
<g id="node1" class="node">
<title>RFC4413</title>
<g id="a_node1"><a xlink:title="This memo describes TCP/IP field behavior in the context of header compression. &#160;Header compression is possible because most header fields do not vary randomly from packet to packet. &#160;Many of the fields exhibit static behavior or change in a more or less predictable way. &#160;When a header compression scheme is designed, it is of fundamental importance to understand the behavior of the fields in detail. &#160;An example of this analysis can be seen in RFC 3095. &#160;This memo performs a similar role for the compression of TCP/IP headers. &#160;This memo provides information for the Internet community.">
<ellipse fill="none" stroke="black" cx="563.85" cy="-229.33" rx="99.35" ry="40.66"/>
<text xml:space="preserve" text-anchor="middle" x="563.85" y="-240.78" font-family="Times,serif" font-size="14.00">RFC4413</text>
<text xml:space="preserve" text-anchor="middle" x="563.85" y="-224.28" font-family="Times,serif" font-size="14.00">TCP/IP Field Behavior</text>
<text xml:space="preserve" text-anchor="middle" x="563.85" y="-207.78" font-family="Times,serif" font-size="14.00">2006</text>
</a>
</g>
</g>
<!-- obs -->
<g id="node3" class="node">
<title>obs</title>
<polygon fill="none" stroke="black" points="754.45,-301.33 688.2,-301.33 688.2,-265.33 754.45,-265.33 754.45,-301.33"/>
<text xml:space="preserve" text-anchor="middle" x="721.32" y="-278.28" font-family="Times,serif" font-size="14.00">obsoletes</text>
</g>
<!-- RFC4413&#45;&gt;obs -->
<g id="edge2" class="edge">
<title>RFC4413&#45;&gt;obs</title>
<path fill="none" stroke="black" d="M640.31,-255.53C652.97,-259.93 665.72,-264.36 677.2,-268.35"/>
<polygon fill="black" stroke="black" points="675.75,-271.55 686.34,-271.52 678.04,-264.94 675.75,-271.55"/>
</g>
<!-- updates -->
<g id="node4" class="node">
<title>updates</title>
<polygon fill="none" stroke="black" points="749.95,-247.33 692.7,-247.33 692.7,-211.33 749.95,-211.33 749.95,-247.33"/>
<text xml:space="preserve" text-anchor="middle" x="721.32" y="-224.28" font-family="Times,serif" font-size="14.00">updates</text>
</g>
<!-- RFC4413&#45;&gt;updates -->
<g id="edge3" class="edge">
<title>RFC4413&#45;&gt;updates</title>
<path fill="none" stroke="black" d="M663.31,-229.33C669.37,-229.33 675.26,-229.33 680.79,-229.33"/>
<polygon fill="black" stroke="black" points="680.79,-232.83 690.79,-229.33 680.79,-225.83 680.79,-232.83"/>
</g>
<!-- cites -->
<g id="node6" class="node">
<title>cites</title>
<polygon fill="none" stroke="black" points="748.32,-193.33 694.32,-193.33 694.32,-157.33 748.32,-157.33 748.32,-193.33"/>
<text xml:space="preserve" text-anchor="middle" x="721.32" y="-170.28" font-family="Times,serif" font-size="14.00">cites</text>
</g>
<!-- RFC4413&#45;&gt;cites -->
<g id="edge5" class="edge">
<title>RFC4413&#45;&gt;cites</title>
<path fill="none" stroke="black" d="M640.31,-203.12C655.27,-197.92 670.34,-192.69 683.31,-188.18"/>
<polygon fill="black" stroke="black" points="684.38,-191.52 692.67,-184.93 682.08,-184.9 684.38,-191.52"/>
</g>
<!-- obs_by -->
<g id="node2" class="node">
<title>obs_by</title>
<polygon fill="none" stroke="black" points="439.5,-301.33 373.25,-301.33 373.25,-265.33 439.5,-265.33 439.5,-301.33"/>
<text xml:space="preserve" text-anchor="middle" x="406.38" y="-278.28" font-family="Times,serif" font-size="14.00">obsoletes</text>
</g>
<!-- obs_by&#45;&gt;RFC4413 -->
<g id="edge1" class="edge">
<title>obs_by&#45;&gt;RFC4413</title>
<path fill="none" stroke="black" d="M439.97,-272.01C450.93,-268.2 463.72,-263.76 476.83,-259.2"/>
<polygon fill="black" stroke="black" points="477.66,-262.62 485.96,-256.03 475.36,-256.01 477.66,-262.62"/>
</g>
<!-- updated_by -->
<g id="node5" class="node">
<title>updated_by</title>
<polygon fill="none" stroke="black" points="435,-247.33 377.75,-247.33 377.75,-211.33 435,-211.33 435,-247.33"/>
<text xml:space="preserve" text-anchor="middle" x="406.38" y="-224.28" font-family="Times,serif" font-size="14.00">updates</text>
</g>
<!-- updated_by&#45;&gt;RFC4413 -->
<g id="edge4" class="edge">
<title>updated_by&#45;&gt;RFC4413</title>
<path fill="none" stroke="black" d="M435.17,-229.33C440.65,-229.33 446.71,-229.33 453.12,-229.33"/>
<polygon fill="black" stroke="black" points="452.69,-232.83 462.69,-229.33 452.69,-225.83 452.69,-232.83"/>
</g>
<!-- rev_cites -->
<g id="node7" class="node">
<title>rev_cites</title>
<polygon fill="none" stroke="black" points="433.38,-193.33 379.38,-193.33 379.38,-157.33 433.38,-157.33 433.38,-193.33"/>
<text xml:space="preserve" text-anchor="middle" x="406.38" y="-170.28" font-family="Times,serif" font-size="14.00">cites</text>
</g>
<!-- rev_cites&#45;&gt;RFC4413 -->
<g id="edge6" class="edge">
<title>rev_cites&#45;&gt;RFC4413</title>
<path fill="none" stroke="black" d="M433.75,-184.49C445.86,-188.69 460.97,-193.94 476.55,-199.35"/>
<polygon fill="black" stroke="black" points="475.36,-202.64 485.95,-202.62 477.65,-196.03 475.36,-202.64"/>
</g>
<!-- RFC4987 -->
<g id="node8" class="node">
<title>RFC4987</title>
<g id="a_node8"><a xlink:href="RFC4987.html" xlink:title="This document describes TCP SYN flooding attacks, which have been well&#45;known to the community for several years. &#160;Various countermeasures against these attacks, and the trade&#45;offs of each, are described. &#160;This document archives explanations of the attack and common defense techniques for the benefit of TCP implementers and administrators of TCP servers or networks, but does not make any standards&#45;level recommendations. &#160;This memo provides information for the Internet community." target="_top">
<ellipse fill="none" stroke="black" cx="174.13" cy="-298.33" rx="174.13" ry="52.33"/>
<text xml:space="preserve" text-anchor="middle" x="174.13" y="-318.03" font-family="Times,serif" font-size="14.00">RFC4987</text>
<text xml:space="preserve" text-anchor="middle" x="174.13" y="-301.53" font-family="Times,serif" font-size="14.00">TCP SYN Flooding Attacks and Common</text>
<text xml:space="preserve" text-anchor="middle" x="174.13" y="-285.03" font-family="Times,serif" font-size="14.00">Mitigations</text>
<text xml:space="preserve" text-anchor="middle" x="174.13" y="-268.53" font-family="Times,serif" font-size="14.00">2007</text>
</a>
</g>
</g>
<!-- RFC4987&#45;&gt;rev_cites -->
<g id="edge7" class="edge">
<title>RFC4987&#45;&gt;rev_cites</title>
<path fill="none" stroke="black" d="M302.57,-262.68C318.73,-255.34 334.43,-246.63 348.25,-236.33 363.29,-225.12 360.42,-216.01 373.25,-202.33 373.51,-202.05 373.78,-201.77 374.04,-201.49"/>
<polygon fill="black" stroke="black" points="376.42,-204.06 381.21,-194.61 371.57,-199.01 376.42,-204.06"/>
</g>
<!-- RFC4996 -->
<g id="node9" class="node">
<title>RFC4996</title>
<g id="a_node9"><a xlink:href="RFC4996.html" xlink:title="This document specifies a ROHC (Robust Header Compression) profile for compression of TCP/IP packets. The profile, called ROHC&#45;TCP, provides efficient and robust compression of TCP headers, including frequently used TCP options such as SACK (Selective Acknowledgments) and Timestamps. ROHC&#45;TCP works well when used over links with significant error rates and long round&#45;trip times. For many bandwidth&#45;limited links where header compression is essential, such characteristics are common. [STANDARDS&#45;TRACK]" target="_top">
<ellipse fill="none" stroke="black" cx="174.13" cy="-175.33" rx="171.47" ry="52.33"/>
<text xml:space="preserve" text-anchor="middle" x="174.13" y="-195.03" font-family="Times,serif" font-size="14.00">RFC4996</text>
<text xml:space="preserve" text-anchor="middle" x="174.13" y="-178.53" font-family="Times,serif" font-size="14.00">RObust Header Compression (ROHC): A</text>
<text xml:space="preserve" text-anchor="middle" x="174.13" y="-162.03" font-family="Times,serif" font-size="14.00">Profile for TCP/IP (ROHC&#45;TCP)</text>
<text xml:space="preserve" text-anchor="middle" x="174.13" y="-145.53" font-family="Times,serif" font-size="14.00">2007</text>
</a>
</g>
</g>
<!-- RFC4996&#45;&gt;rev_cites -->
<g id="edge8" class="edge">
<title>RFC4996&#45;&gt;rev_cites</title>
<path fill="none" stroke="black" d="M346.08,-175.33C353.86,-175.33 361.2,-175.33 367.88,-175.33"/>
<polygon fill="black" stroke="black" points="367.64,-178.83 377.64,-175.33 367.64,-171.83 367.64,-178.83"/>
</g>
<!-- RFC6846 -->
<g id="node10" class="node">
<title>RFC6846</title>
<g id="a_node10"><a xlink:href="RFC6846.html" xlink:title="This document specifies a RObust Header Compression (ROHC) profile for compression of TCP/IP packets. The profile, called ROHC&#45;TCP, provides efficient and robust compression of TCP headers, including frequently used TCP options such as selective acknowledgments (SACKs) and Timestamps. ROHC&#45;TCP works well when used over links with significant error rates and long round&#45;trip times. For many bandwidth&#45;limited links where header compression is essential, such characteristics are common. This specification obsoletes RFC 4996. It fixes a technical issue with the SACK compression and clarifies other compression methods used. [STANDARDS&#45;TRACK]" target="_top">
<ellipse fill="none" stroke="black" cx="174.13" cy="-52.33" rx="171.47" ry="52.33"/>
<text xml:space="preserve" text-anchor="middle" x="174.13" y="-72.03" font-family="Times,serif" font-size="14.00">RFC6846</text>
<text xml:space="preserve" text-anchor="middle" x="174.13" y="-55.53" font-family="Times,serif" font-size="14.00">RObust Header Compression (ROHC): A</text>
<text xml:space="preserve" text-anchor="middle" x="174.13" y="-39.03" font-family="Times,serif" font-size="14.00">Profile for TCP/IP (ROHC&#45;TCP)</text>
<text xml:space="preserve" text-anchor="middle" x="174.13" y="-22.53" font-family="Times,serif" font-size="14.00">2013</text>
</a>
</g>
</g>
<!-- RFC6846&#45;&gt;rev_cites -->
<g id="edge9" class="edge">
<title>RFC6846&#45;&gt;rev_cites</title>
<path fill="none" stroke="black" d="M299.2,-88.56C316.32,-95.87 333.17,-104.42 348.25,-114.33 362.17,-123.46 375.09,-136.67 385.1,-148.45"/>
<polygon fill="black" stroke="black" points="382.17,-150.4 391.21,-155.93 387.59,-145.97 382.17,-150.4"/>
</g>
</g>
</svg>
