<?xml version="1.0" encoding="UTF-8" standalone="no"?>
<!DOCTYPE svg PUBLIC "-//W3C//DTD SVG 1.1//EN"
 "http://www.w3.org/Graphics/SVG/1.1/DTD/svg11.dtd">
<!-- Generated by graphviz version 14.1.1 (20251213.1925)
 -->
<!-- Title: Flow Pages: 1 -->
<svg width="829pt" height="175pt"
 viewBox="0.00 0.00 829.00 175.00" xmlns="http://www.w3.org/2000/svg" xmlns:xlink="http://www.w3.org/1999/xlink">
<g id="graph0" class="graph" transform="scale(1 1) rotate(0) translate(4 170.66)">
<title>Flow</title>
<polygon fill="white" stroke="none" points="-4,4 -4,-170.66 825.27,-170.66 825.27,4 -4,4"/>
<!-- RFC4487 -->
<g id="node1" class="node">
<title>RFC4487</title>
<g id="a_node1"><a xlink:title="This document captures the issues that may arise in the deployment of IPv6 networks when they support Mobile IPv6 and firewalls. The issues are not only applicable to firewalls protecting enterprise networks, but are also applicable in 3G mobile networks such as General Packet Radio Service / Universal Mobile Telecommunications System (GPRS/UMTS) and CDMA2000 networks. The goal of this document is to highlight the issues with firewalls and Mobile IPv6 and act as an enabler for further discussion. Issues identified here can be solved by developing appropriate solutions. This memo provides information for the Internet community.">
<ellipse fill="green" stroke="black" cx="577.11" cy="-94.66" rx="152.91" ry="52.33"/>
<text xml:space="preserve" text-anchor="middle" x="577.11" y="-114.36" font-family="Times,serif" font-size="14.00">RFC4487</text>
<text xml:space="preserve" text-anchor="middle" x="577.11" y="-97.86" font-family="Times,serif" font-size="14.00">Mobile IPv6 and Firewalls: Problem</text>
<text xml:space="preserve" text-anchor="middle" x="577.11" y="-81.36" font-family="Times,serif" font-size="14.00">Statement</text>
<text xml:space="preserve" text-anchor="middle" x="577.11" y="-64.86" font-family="Times,serif" font-size="14.00">2006</text>
</a>
</g>
</g>
<!-- obs -->
<g id="node3" class="node">
<title>obs</title>
<polygon fill="lightblue" stroke="black" points="821.27,-166.66 755.02,-166.66 755.02,-130.66 821.27,-130.66 821.27,-166.66"/>
<text xml:space="preserve" text-anchor="middle" x="788.14" y="-143.61" font-family="Times,serif" font-size="14.00">obsoletes</text>
</g>
<!-- RFC4487&#45;&gt;obs -->
<g id="edge2" class="edge">
<title>RFC4487&#45;&gt;obs</title>
<path fill="none" stroke="black" d="M700.01,-126.15C715.67,-130.19 730.79,-134.1 743.92,-137.49"/>
<polygon fill="black" stroke="black" points="742.88,-140.84 753.44,-139.95 744.63,-134.06 742.88,-140.84"/>
</g>
<!-- updates -->
<g id="node4" class="node">
<title>updates</title>
<polygon fill="lightyellow" stroke="black" points="816.77,-112.66 759.52,-112.66 759.52,-76.66 816.77,-76.66 816.77,-112.66"/>
<text xml:space="preserve" text-anchor="middle" x="788.14" y="-89.61" font-family="Times,serif" font-size="14.00">updates</text>
</g>
<!-- RFC4487&#45;&gt;updates -->
<g id="edge3" class="edge">
<title>RFC4487&#45;&gt;updates</title>
<path fill="none" stroke="black" d="M730.3,-94.66C736.5,-94.66 742.41,-94.66 747.92,-94.66"/>
<polygon fill="black" stroke="black" points="747.77,-98.16 757.77,-94.66 747.77,-91.16 747.77,-98.16"/>
</g>
<!-- cites -->
<g id="node6" class="node">
<title>cites</title>
<polygon fill="lightblue" stroke="black" points="815.14,-58.66 761.14,-58.66 761.14,-22.66 815.14,-22.66 815.14,-58.66"/>
<text xml:space="preserve" text-anchor="middle" x="788.14" y="-35.61" font-family="Times,serif" font-size="14.00">cites</text>
</g>
<!-- RFC4487&#45;&gt;cites -->
<g id="edge5" class="edge">
<title>RFC4487&#45;&gt;cites</title>
<path fill="none" stroke="black" d="M700.01,-63.17C718.1,-58.49 735.48,-54 749.9,-50.28"/>
<polygon fill="black" stroke="black" points="750.5,-53.74 759.31,-47.85 748.75,-46.96 750.5,-53.74"/>
</g>
<!-- obs_by -->
<g id="node2" class="node">
<title>obs_by</title>
<polygon fill="lightblue" stroke="black" points="399.2,-166.66 332.95,-166.66 332.95,-130.66 399.2,-130.66 399.2,-166.66"/>
<text xml:space="preserve" text-anchor="middle" x="366.07" y="-143.61" font-family="Times,serif" font-size="14.00">obsoletes</text>
</g>
<!-- obs_by&#45;&gt;RFC4487 -->
<g id="edge1" class="edge">
<title>obs_by&#45;&gt;RFC4487</title>
<path fill="none" stroke="black" d="M399.27,-140.34C411.86,-137.09 427.2,-133.13 443.52,-128.91"/>
<polygon fill="black" stroke="black" points="444.09,-132.38 452.9,-126.49 442.34,-125.6 444.09,-132.38"/>
</g>
<!-- updated_by -->
<g id="node5" class="node">
<title>updated_by</title>
<polygon fill="lightyellow" stroke="black" points="394.7,-112.66 337.45,-112.66 337.45,-76.66 394.7,-76.66 394.7,-112.66"/>
<text xml:space="preserve" text-anchor="middle" x="366.07" y="-89.61" font-family="Times,serif" font-size="14.00">updates</text>
</g>
<!-- updated_by&#45;&gt;RFC4487 -->
<g id="edge4" class="edge">
<title>updated_by&#45;&gt;RFC4487</title>
<path fill="none" stroke="black" d="M394.83,-94.66C400.24,-94.66 406.25,-94.66 412.72,-94.66"/>
<polygon fill="black" stroke="black" points="412.47,-98.16 422.47,-94.66 412.47,-91.16 412.47,-98.16"/>
</g>
<!-- rev_cites -->
<g id="node7" class="node">
<title>rev_cites</title>
<polygon fill="lightblue" stroke="black" points="393.07,-58.66 339.07,-58.66 339.07,-22.66 393.07,-22.66 393.07,-58.66"/>
<text xml:space="preserve" text-anchor="middle" x="366.07" y="-35.61" font-family="Times,serif" font-size="14.00">cites</text>
</g>
<!-- rev_cites&#45;&gt;RFC4487 -->
<g id="edge6" class="edge">
<title>rev_cites&#45;&gt;RFC4487</title>
<path fill="none" stroke="black" d="M393.54,-47.5C407.02,-50.98 424.5,-55.5 443.32,-60.35"/>
<polygon fill="black" stroke="black" points="442.18,-63.68 452.74,-62.79 443.93,-56.9 442.18,-63.68"/>
</g>
<!-- RFC6272 -->
<g id="node8" class="node">
<title>RFC6272</title>
<g id="a_node8"><a xlink:href="RFC6272.html" xlink:title="This note identifies the key infrastructure protocols of the Internet Protocol Suite for use in the Smart Grid. &#160;The target audience is those people seeking guidance on how to construct an appropriate Internet Protocol Suite profile for the Smart Grid. &#160;In practice, such a profile would consist of selecting what is needed for Smart Grid deployment from the picture presented here. &#160;This document is not an Internet Standards Track specification; it is published for informational purposes." target="_top">
<ellipse fill="none" stroke="black" cx="153.97" cy="-40.66" rx="153.97" ry="40.66"/>
<text xml:space="preserve" text-anchor="middle" x="153.97" y="-52.11" font-family="Times,serif" font-size="14.00">RFC6272</text>
<text xml:space="preserve" text-anchor="middle" x="153.97" y="-35.61" font-family="Times,serif" font-size="14.00">Internet Protocols for the Smart Grid</text>
<text xml:space="preserve" text-anchor="middle" x="153.97" y="-19.11" font-family="Times,serif" font-size="14.00">2011</text>
</a>
</g>
</g>
<!-- RFC6272&#45;&gt;rev_cites -->
<g id="edge7" class="edge">
<title>RFC6272&#45;&gt;rev_cites</title>
<path fill="none" stroke="black" d="M308.21,-40.66C314.96,-40.66 321.37,-40.66 327.28,-40.66"/>
<polygon fill="black" stroke="black" points="327.17,-44.16 337.17,-40.66 327.17,-37.16 327.17,-44.16"/>
</g>
</g>
</svg>
