<?xml version="1.0" encoding="UTF-8" standalone="no"?>
<!DOCTYPE svg PUBLIC "-//W3C//DTD SVG 1.1//EN"
 "http://www.w3.org/Graphics/SVG/1.1/DTD/svg11.dtd">
<!-- Generated by graphviz version 14.1.1 (20251213.1925)
 -->
<!-- Title: Flow Pages: 1 -->
<svg width="783pt" height="224pt"
 viewBox="0.00 0.00 783.00 224.00" xmlns="http://www.w3.org/2000/svg" xmlns:xlink="http://www.w3.org/1999/xlink">
<g id="graph0" class="graph" transform="scale(1 1) rotate(0) translate(4 219.66)">
<title>Flow</title>
<polygon fill="white" stroke="none" points="-4,4 -4,-219.66 778.6,-219.66 778.6,4 -4,4"/>
<!-- RFC4584 -->
<g id="node1" class="node">
<title>RFC4584</title>
<g id="a_node1"><a xlink:title="This document describes data structures and API support for Mobile IPv6 as an extension to the Advanced Socket API for IPv6. Just as the Advanced Sockets API for IPv6 gives access to various extension headers and the ICMPv6 protocol, this document specifies the same level of access for Mobile IPv6 components. It specifies a mechanism for applications to retrieve and set information for Mobility Header messages, Home Address destination options, and Routing Header Type 2 extension headers. It also specifies the common data structures and definitions that might be used by certain advanced Mobile IPv6 socket applications. This memo provides information for the Internet community.">
<ellipse fill="green" stroke="black" cx="508.69" cy="-143.66" rx="174.66" ry="40.66"/>
<text xml:space="preserve" text-anchor="middle" x="508.69" y="-155.11" font-family="Times,serif" font-size="14.00">RFC4584</text>
<text xml:space="preserve" text-anchor="middle" x="508.69" y="-138.61" font-family="Times,serif" font-size="14.00">Extension to Sockets API for Mobile IPv6</text>
<text xml:space="preserve" text-anchor="middle" x="508.69" y="-122.11" font-family="Times,serif" font-size="14.00">2006</text>
</a>
</g>
</g>
<!-- obs -->
<g id="node3" class="node">
<title>obs</title>
<polygon fill="lightblue" stroke="black" points="774.6,-215.66 708.35,-215.66 708.35,-179.66 774.6,-179.66 774.6,-215.66"/>
<text xml:space="preserve" text-anchor="middle" x="741.47" y="-192.61" font-family="Times,serif" font-size="14.00">obsoletes</text>
</g>
<!-- RFC4584&#45;&gt;obs -->
<g id="edge2" class="edge">
<title>RFC4584&#45;&gt;obs</title>
<path fill="none" stroke="black" d="M633.19,-172.56C655.98,-177.89 678.35,-183.12 696.71,-187.42"/>
<polygon fill="black" stroke="black" points="695.87,-190.82 706.4,-189.69 697.46,-184 695.87,-190.82"/>
</g>
<!-- updates -->
<g id="node4" class="node">
<title>updates</title>
<polygon fill="lightyellow" stroke="black" points="770.1,-161.66 712.85,-161.66 712.85,-125.66 770.1,-125.66 770.1,-161.66"/>
<text xml:space="preserve" text-anchor="middle" x="741.47" y="-138.61" font-family="Times,serif" font-size="14.00">updates</text>
</g>
<!-- RFC4584&#45;&gt;updates -->
<g id="edge3" class="edge">
<title>RFC4584&#45;&gt;updates</title>
<path fill="none" stroke="black" d="M683.72,-143.66C689.92,-143.66 695.8,-143.66 701.27,-143.66"/>
<polygon fill="black" stroke="black" points="701.03,-147.16 711.03,-143.66 701.03,-140.16 701.03,-147.16"/>
</g>
<!-- cites -->
<g id="node6" class="node">
<title>cites</title>
<polygon fill="lightblue" stroke="black" points="768.47,-107.66 714.47,-107.66 714.47,-71.66 768.47,-71.66 768.47,-107.66"/>
<text xml:space="preserve" text-anchor="middle" x="741.47" y="-84.61" font-family="Times,serif" font-size="14.00">cites</text>
</g>
<!-- RFC4584&#45;&gt;cites -->
<g id="edge5" class="edge">
<title>RFC4584&#45;&gt;cites</title>
<path fill="none" stroke="black" d="M633.19,-114.76C658.69,-108.79 683.66,-102.95 703.09,-98.41"/>
<polygon fill="black" stroke="black" points="703.72,-101.85 712.66,-96.17 702.13,-95.04 703.72,-101.85"/>
</g>
<!-- obs_by -->
<g id="node2" class="node">
<title>obs_by</title>
<polygon fill="lightblue" stroke="black" points="309.04,-215.66 242.79,-215.66 242.79,-179.66 309.04,-179.66 309.04,-215.66"/>
<text xml:space="preserve" text-anchor="middle" x="275.91" y="-192.61" font-family="Times,serif" font-size="14.00">obsoletes</text>
</g>
<!-- obs_by&#45;&gt;RFC4584 -->
<g id="edge1" class="edge">
<title>obs_by&#45;&gt;RFC4584</title>
<path fill="none" stroke="black" d="M309.49,-190.04C326.84,-185.98 349.46,-180.68 373.2,-175.13"/>
<polygon fill="black" stroke="black" points="373.75,-178.59 382.69,-172.91 372.16,-171.78 373.75,-178.59"/>
</g>
<!-- updated_by -->
<g id="node5" class="node">
<title>updated_by</title>
<polygon fill="lightyellow" stroke="black" points="304.54,-161.66 247.29,-161.66 247.29,-125.66 304.54,-125.66 304.54,-161.66"/>
<text xml:space="preserve" text-anchor="middle" x="275.91" y="-138.61" font-family="Times,serif" font-size="14.00">updates</text>
</g>
<!-- updated_by&#45;&gt;RFC4584 -->
<g id="edge4" class="edge">
<title>updated_by&#45;&gt;RFC4584</title>
<path fill="none" stroke="black" d="M304.75,-143.66C310.13,-143.66 316.12,-143.66 322.58,-143.66"/>
<polygon fill="black" stroke="black" points="322.34,-147.16 332.34,-143.66 322.34,-140.16 322.34,-147.16"/>
</g>
<!-- rev_cites -->
<g id="node7" class="node">
<title>rev_cites</title>
<polygon fill="lightblue" stroke="black" points="302.91,-107.66 248.91,-107.66 248.91,-71.66 302.91,-71.66 302.91,-107.66"/>
<text xml:space="preserve" text-anchor="middle" x="275.91" y="-84.61" font-family="Times,serif" font-size="14.00">cites</text>
</g>
<!-- rev_cites&#45;&gt;RFC4584 -->
<g id="edge6" class="edge">
<title>rev_cites&#45;&gt;RFC4584</title>
<path fill="none" stroke="black" d="M303.39,-95.85C321.34,-100.05 346.57,-105.96 373.2,-112.19"/>
<polygon fill="black" stroke="black" points="372.26,-115.56 382.8,-114.43 373.86,-108.75 372.26,-115.56"/>
</g>
<!-- RFC6434 -->
<g id="node8" class="node">
<title>RFC6434</title>
<g id="a_node8"><a xlink:href="RFC6434.html" xlink:title="This document defines requirements for IPv6 nodes. &#160;It is expected that IPv6 will be deployed in a wide range of devices and situations. &#160;Specifying the requirements for IPv6 nodes allows IPv6 to function well and interoperate in a large number of situations and deployments. &#160;This document is not an Internet Standards Track specification; it is published for informational purposes." target="_top">
<ellipse fill="none" stroke="black" cx="108.89" cy="-139.66" rx="108.89" ry="40.66"/>
<text xml:space="preserve" text-anchor="middle" x="108.89" y="-151.11" font-family="Times,serif" font-size="14.00">RFC6434</text>
<text xml:space="preserve" text-anchor="middle" x="108.89" y="-134.61" font-family="Times,serif" font-size="14.00">IPv6 Node Requirements</text>
<text xml:space="preserve" text-anchor="middle" x="108.89" y="-118.11" font-family="Times,serif" font-size="14.00">2011</text>
</a>
</g>
</g>
<!-- RFC6434&#45;&gt;rev_cites -->
<g id="edge7" class="edge">
<title>RFC6434&#45;&gt;rev_cites</title>
<path fill="none" stroke="black" d="M194.34,-114.07C209.55,-109.46 224.67,-104.88 237.64,-100.95"/>
<polygon fill="black" stroke="black" points="238.42,-104.37 246.98,-98.12 236.39,-97.67 238.42,-104.37"/>
</g>
<!-- RFC8504 -->
<g id="node9" class="node">
<title>RFC8504</title>
<g id="a_node9"><a xlink:href="RFC8504.html" xlink:title="This document defines requirements for IPv6 nodes. It is expected that IPv6 will be deployed in a wide range of devices and situations. Specifying the requirements for IPv6 nodes allows IPv6 to function well and interoperate in a large number of situations and deployments. This document obsoletes RFC 6434, and in turn RFC 4294." target="_top">
<ellipse fill="none" stroke="black" cx="108.89" cy="-40.66" rx="108.89" ry="40.66"/>
<text xml:space="preserve" text-anchor="middle" x="108.89" y="-52.11" font-family="Times,serif" font-size="14.00">RFC8504</text>
<text xml:space="preserve" text-anchor="middle" x="108.89" y="-35.61" font-family="Times,serif" font-size="14.00">IPv6 Node Requirements</text>
<text xml:space="preserve" text-anchor="middle" x="108.89" y="-19.11" font-family="Times,serif" font-size="14.00">2019</text>
</a>
</g>
</g>
<!-- RFC8504&#45;&gt;rev_cites -->
<g id="edge8" class="edge">
<title>RFC8504&#45;&gt;rev_cites</title>
<path fill="none" stroke="black" d="M194.82,-65.88C209.97,-70.37 225.01,-74.84 237.89,-78.67"/>
<polygon fill="black" stroke="black" points="236.58,-81.93 247.16,-81.42 238.57,-75.22 236.58,-81.93"/>
</g>
</g>
</svg>
