<?xml version="1.0" encoding="UTF-8" standalone="no"?>
<!DOCTYPE svg PUBLIC "-//W3C//DTD SVG 1.1//EN"
 "http://www.w3.org/Graphics/SVG/1.1/DTD/svg11.dtd">
<!-- Generated by graphviz version 14.1.1 (20251213.1925)
 -->
<!-- Title: Flow Pages: 1 -->
<svg width="1302pt" height="1131pt"
 viewBox="0.00 0.00 1302.00 1131.00" xmlns="http://www.w3.org/2000/svg" xmlns:xlink="http://www.w3.org/1999/xlink">
<g id="graph0" class="graph" transform="scale(1 1) rotate(0) translate(4 1127.38)">
<title>Flow</title>
<polygon fill="white" stroke="none" points="-4,4 -4,-1127.38 1297.88,-1127.38 1297.88,4 -4,4"/>
<!-- RFC4321 -->
<g id="node1" class="node">
<title>RFC4321</title>
<g id="a_node1"><a xlink:title="This document describes several problems that have been identified with the Session Initiation Protocol&#39;s (SIP) non&#45;INVITE transaction. &#160;This memo provides information for the Internet community.">
<ellipse fill="green" stroke="black" stroke-width="3" cx="447.42" cy="-754.36" rx="217.08" ry="79.9"/>
<text xml:space="preserve" text-anchor="middle" x="447.42" y="-789.76" font-family="Times,serif" font-size="18.00">RFC4321</text>
<text xml:space="preserve" text-anchor="middle" x="447.42" y="-768.76" font-family="Times,serif" font-size="18.00">Problems Identified Associated with the</text>
<text xml:space="preserve" text-anchor="middle" x="447.42" y="-747.76" font-family="Times,serif" font-size="18.00">Session Initiation Protocol&#39;s (SIP) Non&#45;</text>
<text xml:space="preserve" text-anchor="middle" x="447.42" y="-726.76" font-family="Times,serif" font-size="18.00">INVITE Transaction</text>
<text xml:space="preserve" text-anchor="middle" x="447.42" y="-705.76" font-family="Times,serif" font-size="18.00">2006</text>
</a>
</g>
</g>
<!-- obs -->
<g id="node3" class="node">
<title>obs</title>
<polygon fill="lightblue" stroke="black" points="831.56,-917.76 765.31,-917.76 765.31,-881.76 831.56,-881.76 831.56,-917.76"/>
<text xml:space="preserve" text-anchor="middle" x="798.44" y="-894.71" font-family="Times,serif" font-size="14.00">obsoletes</text>
</g>
<!-- RFC4321&#45;&gt;obs -->
<g id="edge2" class="edge">
<title>RFC4321&#45;&gt;obs</title>
<path fill="none" stroke="black" d="M593.49,-814.87C651.42,-838.87 713.77,-864.69 754.28,-881.47"/>
<polygon fill="black" stroke="black" points="752.88,-884.68 763.46,-885.27 755.56,-878.21 752.88,-884.68"/>
</g>
<!-- updates -->
<g id="node4" class="node">
<title>updates</title>
<polygon fill="lightyellow" stroke="black" points="621.44,-1123.38 564.19,-1123.38 564.19,-1087.38 621.44,-1087.38 621.44,-1123.38"/>
<text xml:space="preserve" text-anchor="middle" x="592.81" y="-1100.33" font-family="Times,serif" font-size="14.00">updates</text>
</g>
<!-- RFC4321&#45;&gt;updates -->
<g id="edge3" class="edge">
<title>RFC4321&#45;&gt;updates</title>
<path fill="none" stroke="black" d="M480.59,-834.45C512.53,-911.56 559.09,-1023.95 580.81,-1076.41"/>
<polygon fill="black" stroke="black" points="577.54,-1077.65 584.6,-1085.55 584.01,-1074.97 577.54,-1077.65"/>
</g>
<!-- cites -->
<g id="node6" class="node">
<title>cites</title>
<polygon fill="lightblue" stroke="black" points="329.02,-1123.38 275.02,-1123.38 275.02,-1087.38 329.02,-1087.38 329.02,-1123.38"/>
<text xml:space="preserve" text-anchor="middle" x="302.02" y="-1100.33" font-family="Times,serif" font-size="14.00">cites</text>
</g>
<!-- RFC4321&#45;&gt;cites -->
<g id="edge5" class="edge">
<title>RFC4321&#45;&gt;cites</title>
<path fill="none" stroke="black" d="M414.24,-834.45C382.31,-911.56 335.75,-1023.95 314.02,-1076.41"/>
<polygon fill="black" stroke="black" points="310.83,-1074.97 310.24,-1085.55 317.3,-1077.65 310.83,-1074.97"/>
</g>
<!-- obs_by -->
<g id="node2" class="node">
<title>obs_by</title>
<polygon fill="lightblue" stroke="black" points="129.52,-917.76 63.27,-917.76 63.27,-881.76 129.52,-881.76 129.52,-917.76"/>
<text xml:space="preserve" text-anchor="middle" x="96.4" y="-894.71" font-family="Times,serif" font-size="14.00">obsoletes</text>
</g>
<!-- obs_by&#45;&gt;RFC4321 -->
<g id="edge1" class="edge">
<title>obs_by&#45;&gt;RFC4321</title>
<path fill="none" stroke="black" d="M129.74,-885.95C167.19,-870.44 230.66,-844.15 291.07,-819.12"/>
<polygon fill="black" stroke="black" points="292.22,-822.44 300.12,-815.38 289.54,-815.97 292.22,-822.44"/>
</g>
<!-- updated_by -->
<g id="node5" class="node">
<title>updated_by</title>
<polygon fill="lightyellow" stroke="black" points="125.02,-626.97 67.77,-626.97 67.77,-590.97 125.02,-590.97 125.02,-626.97"/>
<text xml:space="preserve" text-anchor="middle" x="96.4" y="-603.92" font-family="Times,serif" font-size="14.00">updates</text>
</g>
<!-- updated_by&#45;&gt;RFC4321 -->
<g id="edge4" class="edge">
<title>updated_by&#45;&gt;RFC4321</title>
<path fill="none" stroke="black" d="M125.42,-620.99C162.14,-636.2 228.18,-663.55 290.94,-689.55"/>
<polygon fill="black" stroke="black" points="289.41,-692.7 299.99,-693.3 292.09,-686.24 289.41,-692.7"/>
</g>
<!-- rev_cites -->
<g id="node7" class="node">
<title>rev_cites</title>
<polygon fill="lightblue" stroke="black" points="619.81,-421.34 565.81,-421.34 565.81,-385.34 619.81,-385.34 619.81,-421.34"/>
<text xml:space="preserve" text-anchor="middle" x="592.81" y="-398.29" font-family="Times,serif" font-size="14.00">cites</text>
</g>
<!-- rev_cites&#45;&gt;RFC4321 -->
<g id="edge6" class="edge">
<title>rev_cites&#45;&gt;RFC4321</title>
<path fill="none" stroke="black" d="M585.2,-421.72C566.84,-466.05 519.12,-581.26 484.99,-663.65"/>
<polygon fill="black" stroke="black" points="481.76,-662.31 481.17,-672.89 488.23,-664.99 481.76,-662.31"/>
</g>
<!-- RFC7614 -->
<g id="node8" class="node">
<title>RFC7614</title>
<g id="a_node8"><a xlink:href="RFC7614.html" xlink:title="The Session Initiation Protocol (SIP) REFER request, as defined by RFC 3515, triggers an implicit SIP&#45;Specific Event Notification framework subscription. &#160;Conflating the start of the subscription with handling the REFER request makes negotiating SUBSCRIBE extensions impossible and complicates avoiding SIP dialog sharing. &#160;This document defines extensions to REFER that remove the implicit subscription and, if desired, replace it with an explicit one." target="_top">
<ellipse fill="none" stroke="black" cx="156.62" cy="-52.33" rx="156.62" ry="52.33"/>
<text xml:space="preserve" text-anchor="middle" x="156.62" y="-72.03" font-family="Times,serif" font-size="14.00">RFC7614</text>
<text xml:space="preserve" text-anchor="middle" x="156.62" y="-55.53" font-family="Times,serif" font-size="14.00">Explicit Subscriptions for the REFER</text>
<text xml:space="preserve" text-anchor="middle" x="156.62" y="-39.03" font-family="Times,serif" font-size="14.00">Method</text>
<text xml:space="preserve" text-anchor="middle" x="156.62" y="-22.53" font-family="Times,serif" font-size="14.00">2015</text>
</a>
</g>
</g>
<!-- RFC7614&#45;&gt;rev_cites -->
<g id="edge7" class="edge">
<title>RFC7614&#45;&gt;rev_cites</title>
<path fill="none" stroke="black" d="M216.82,-100.77C310.95,-176.52 489.66,-320.34 561.63,-378.25"/>
<polygon fill="black" stroke="black" points="559.1,-380.71 569.09,-384.25 563.49,-375.25 559.1,-380.71"/>
</g>
<!-- RFC7996 -->
<g id="node9" class="node">
<title>RFC7996</title>
<g id="a_node9"><a xlink:href="RFC7996.html" xlink:title="This document specifies SVG 1.2 RFC &#45;&#45; an SVG profile for use in diagrams that may appear in RFCs &#45;&#45; and considers some of the issues concerning the creation and use of such diagrams." target="_top">
<ellipse fill="none" stroke="black" cx="738.21" cy="-52.33" rx="168.29" ry="40.66"/>
<text xml:space="preserve" text-anchor="middle" x="738.21" y="-63.78" font-family="Times,serif" font-size="14.00">RFC7996</text>
<text xml:space="preserve" text-anchor="middle" x="738.21" y="-47.28" font-family="Times,serif" font-size="14.00">SVG Drawings for RFCs: SVG 1.2 RFC</text>
<text xml:space="preserve" text-anchor="middle" x="738.21" y="-30.78" font-family="Times,serif" font-size="14.00">2016</text>
</a>
</g>
</g>
<!-- RFC7996&#45;&gt;rev_cites -->
<g id="edge8" class="edge">
<title>RFC7996&#45;&gt;rev_cites</title>
<path fill="none" stroke="black" d="M721.39,-92.94C691.69,-164.63 630.67,-311.95 604.82,-374.37"/>
<polygon fill="black" stroke="black" points="601.58,-373.03 600.99,-383.6 608.05,-375.7 601.58,-373.03"/>
</g>
<!-- RFC8599 -->
<g id="node10" class="node">
<title>RFC8599</title>
<g id="a_node10"><a xlink:href="RFC8599.html" xlink:title="This document describes how a Push Notification Service (PNS) can be used to wake a suspended Session Initiation Protocol (SIP) User Agent (UA) with push notifications, and it also describes how the UA can send binding&#45;refresh REGISTER requests and receive incoming SIP requests in an environment in which the UA may be suspended. &#160;The document defines new SIP URI parameters to exchange PNS information between the UA and the SIP entity that will then request that push notifications be sent to the UA. &#160;It also defines the parameters to trigger such push notification requests. &#160;The document also defines new feature&#45;capability indicators that can be used to indicate support of this mechanism." target="_top">
<ellipse fill="none" stroke="black" cx="1149.46" cy="-463.57" rx="144.43" ry="52.33"/>
<text xml:space="preserve" text-anchor="middle" x="1149.46" y="-483.27" font-family="Times,serif" font-size="14.00">RFC8599</text>
<text xml:space="preserve" text-anchor="middle" x="1149.46" y="-466.77" font-family="Times,serif" font-size="14.00">Push Notification with the Session</text>
<text xml:space="preserve" text-anchor="middle" x="1149.46" y="-450.27" font-family="Times,serif" font-size="14.00">Initiation Protocol (SIP)</text>
<text xml:space="preserve" text-anchor="middle" x="1149.46" y="-433.77" font-family="Times,serif" font-size="14.00">2019</text>
</a>
</g>
</g>
<!-- RFC8599&#45;&gt;rev_cites -->
<g id="edge9" class="edge">
<title>RFC8599&#45;&gt;rev_cites</title>
<path fill="none" stroke="black" d="M1010.79,-448.57C885.21,-434.98 708.44,-415.86 631.32,-407.51"/>
<polygon fill="black" stroke="black" points="632.07,-404.07 621.76,-406.48 631.32,-411.03 632.07,-404.07"/>
</g>
</g>
</svg>
