<?xml version="1.0" encoding="UTF-8" standalone="no"?>
<!DOCTYPE svg PUBLIC "-//W3C//DTD SVG 1.1//EN"
 "http://www.w3.org/Graphics/SVG/1.1/DTD/svg11.dtd">
<!-- Generated by graphviz version 14.1.1 (20251213.1925)
 -->
<!-- Title: Flow Pages: 1 -->
<svg width="861pt" height="1124pt"
 viewBox="0.00 0.00 861.00 1124.00" xmlns="http://www.w3.org/2000/svg" xmlns:xlink="http://www.w3.org/1999/xlink">
<g id="graph0" class="graph" transform="scale(1 1) rotate(0) translate(4 1119.98)">
<title>Flow</title>
<polygon fill="white" stroke="none" points="-4,4 -4,-1119.98 857.09,-1119.98 857.09,4 -4,4"/>
<!-- RFC4965 -->
<g id="node1" class="node">
<title>RFC4965</title>
<g id="a_node1"><a xlink:title="This document describes the collaboration and liaison relationship between the Internet Engineering Task Force (IETF) and the Cable Television Laboratories, Inc. (CableLabs). &#160;This memo provides information for the Internet community.">
<ellipse fill="none" stroke="black" cx="234.62" cy="-587.66" rx="143.37" ry="52.33"/>
<text xml:space="preserve" text-anchor="middle" x="234.62" y="-607.36" font-family="Times,serif" font-size="14.00">RFC4965</text>
<text xml:space="preserve" text-anchor="middle" x="234.62" y="-590.86" font-family="Times,serif" font-size="14.00">CableLabs &#45; IETF Standardization</text>
<text xml:space="preserve" text-anchor="middle" x="234.62" y="-574.36" font-family="Times,serif" font-size="14.00">Collaboration</text>
<text xml:space="preserve" text-anchor="middle" x="234.62" y="-557.86" font-family="Times,serif" font-size="14.00">2007</text>
</a>
</g>
</g>
<!-- obs -->
<g id="node3" class="node">
<title>obs</title>
<polygon fill="none" stroke="black" points="469.23,-659.66 402.98,-659.66 402.98,-623.66 469.23,-623.66 469.23,-659.66"/>
<text xml:space="preserve" text-anchor="middle" x="436.11" y="-636.61" font-family="Times,serif" font-size="14.00">obsoletes</text>
</g>
<!-- RFC4965&#45;&gt;obs -->
<g id="edge2" class="edge">
<title>RFC4965&#45;&gt;obs</title>
<path fill="none" stroke="black" d="M350.5,-618.76C365.09,-622.71 379.24,-626.54 391.66,-629.9"/>
<polygon fill="black" stroke="black" points="390.51,-633.21 401.07,-632.45 392.34,-626.45 390.51,-633.21"/>
</g>
<!-- updates -->
<g id="node4" class="node">
<title>updates</title>
<polygon fill="none" stroke="black" points="464.73,-605.66 407.48,-605.66 407.48,-569.66 464.73,-569.66 464.73,-605.66"/>
<text xml:space="preserve" text-anchor="middle" x="436.11" y="-582.61" font-family="Times,serif" font-size="14.00">updates</text>
</g>
<!-- RFC4965&#45;&gt;updates -->
<g id="edge3" class="edge">
<title>RFC4965&#45;&gt;updates</title>
<path fill="none" stroke="black" d="M378.47,-587.66C384.61,-587.66 390.48,-587.66 395.96,-587.66"/>
<polygon fill="black" stroke="black" points="395.76,-591.16 405.76,-587.66 395.76,-584.16 395.76,-591.16"/>
</g>
<!-- cites -->
<g id="node6" class="node">
<title>cites</title>
<polygon fill="none" stroke="black" points="463.11,-551.66 409.11,-551.66 409.11,-515.66 463.11,-515.66 463.11,-551.66"/>
<text xml:space="preserve" text-anchor="middle" x="436.11" y="-528.61" font-family="Times,serif" font-size="14.00">cites</text>
</g>
<!-- RFC4965&#45;&gt;cites -->
<g id="edge5" class="edge">
<title>RFC4965&#45;&gt;cites</title>
<path fill="none" stroke="black" d="M350.5,-556.56C367.56,-551.94 384,-547.49 397.79,-543.76"/>
<polygon fill="black" stroke="black" points="398.5,-547.19 407.24,-541.2 396.67,-540.44 398.5,-547.19"/>
</g>
<!-- obs_by -->
<g id="node2" class="node">
<title>obs_by</title>
<polygon fill="none" stroke="black" points="66.25,-659.66 0,-659.66 0,-623.66 66.25,-623.66 66.25,-659.66"/>
<text xml:space="preserve" text-anchor="middle" x="33.12" y="-636.61" font-family="Times,serif" font-size="14.00">obsoletes</text>
</g>
<!-- obs_by&#45;&gt;RFC4965 -->
<g id="edge1" class="edge">
<title>obs_by&#45;&gt;RFC4965</title>
<path fill="none" stroke="black" d="M66.62,-632.86C78.44,-629.66 92.61,-625.83 107.64,-621.76"/>
<polygon fill="black" stroke="black" points="108.51,-625.15 117.25,-619.16 106.68,-618.39 108.51,-625.15"/>
</g>
<!-- updated_by -->
<g id="node5" class="node">
<title>updated_by</title>
<polygon fill="none" stroke="black" points="61.75,-605.66 4.5,-605.66 4.5,-569.66 61.75,-569.66 61.75,-605.66"/>
<text xml:space="preserve" text-anchor="middle" x="33.12" y="-582.61" font-family="Times,serif" font-size="14.00">updates</text>
</g>
<!-- updated_by&#45;&gt;RFC4965 -->
<g id="edge4" class="edge">
<title>updated_by&#45;&gt;RFC4965</title>
<path fill="none" stroke="black" d="M61.86,-587.66C67.28,-587.66 73.31,-587.66 79.77,-587.66"/>
<polygon fill="black" stroke="black" points="79.5,-591.16 89.5,-587.66 79.5,-584.16 79.5,-591.16"/>
</g>
<!-- RFC2026 -->
<g id="node7" class="node">
<title>RFC2026</title>
<g id="a_node7"><a xlink:href="RFC2026.html" xlink:title="This memo documents the process used by the Internet community for the standardization of protocols and procedures. &#160;It defines the stages in the standardization process, the requirements for moving a document between stages and the types of documents used during this process. &#160;This document specifies an Internet Best Current Practices for the Internet Community, and requests discussion and suggestions for improvements." target="_top">
<ellipse fill="none" stroke="black" cx="673.66" cy="-1063.66" rx="139.65" ry="52.33"/>
<text xml:space="preserve" text-anchor="middle" x="673.66" y="-1083.36" font-family="Times,serif" font-size="14.00">RFC2026</text>
<text xml:space="preserve" text-anchor="middle" x="673.66" y="-1066.86" font-family="Times,serif" font-size="14.00">The Internet Standards Process &#45;&#45;</text>
<text xml:space="preserve" text-anchor="middle" x="673.66" y="-1050.36" font-family="Times,serif" font-size="14.00">Revision 3</text>
<text xml:space="preserve" text-anchor="middle" x="673.66" y="-1033.86" font-family="Times,serif" font-size="14.00">1996</text>
</a>
</g>
</g>
<!-- cites&#45;&gt;RFC2026 -->
<g id="edge6" class="edge">
<title>cites&#45;&gt;RFC2026</title>
<path fill="none" stroke="black" d="M463.17,-551.97C465.56,-554.63 467.67,-557.53 469.23,-560.66 513.28,-648.63 434.78,-924.28 494.23,-1002.66 505.29,-1017.24 520.03,-1028.36 536.31,-1036.84"/>
<polygon fill="black" stroke="black" points="534.73,-1039.96 545.26,-1041.13 537.76,-1033.65 534.73,-1039.96"/>
</g>
<!-- RFC3978 -->
<g id="node8" class="node">
<title>RFC3978</title>
<g id="a_node8"><a xlink:href="RFC3978.html" xlink:title="The IETF policies about rights in Contributions to the IETF are designed to ensure that such Contributions can be made available to the IETF and Internet communities while permitting the authors to retain as many rights as possible. &#160;This memo details the IETF policies on rights in Contributions to the IETF. &#160;It also describes the objectives that the policies are designed to meet. &#160;This memo updates RFC 2026, and, with RFC 3979, replaces Section 10 of RFC 2026. &#160;This document specifies an Internet Best Current Practices for the Internet Community, and requests discussion and suggestions for improvements." target="_top">
<ellipse fill="none" stroke="black" cx="673.66" cy="-952.66" rx="124.27" ry="40.66"/>
<text xml:space="preserve" text-anchor="middle" x="673.66" y="-964.11" font-family="Times,serif" font-size="14.00">RFC3978</text>
<text xml:space="preserve" text-anchor="middle" x="673.66" y="-947.61" font-family="Times,serif" font-size="14.00">IETF Rights in Contributions</text>
<text xml:space="preserve" text-anchor="middle" x="673.66" y="-931.11" font-family="Times,serif" font-size="14.00">2005</text>
</a>
</g>
</g>
<!-- cites&#45;&gt;RFC3978 -->
<g id="edge7" class="edge">
<title>cites&#45;&gt;RFC3978</title>
<path fill="none" stroke="black" d="M463.12,-552C465.52,-554.65 467.64,-557.54 469.23,-560.66 503.91,-628.52 446,-843.66 494.23,-902.66 507.12,-918.42 524.53,-929.45 543.45,-937.11"/>
<polygon fill="black" stroke="black" points="542.09,-940.34 552.68,-940.51 544.51,-933.77 542.09,-940.34"/>
</g>
<!-- RFC4052 -->
<g id="node9" class="node">
<title>RFC4052</title>
<g id="a_node9"><a xlink:href="RFC4052.html" xlink:title="This document discusses the procedures used by the IAB to establish and maintain liaison relationships between the IETF and other Standards Development Organizations (SDOs), consortia and industry fora. &#160;This document also discusses the appointment and responsibilities of IETF liaison managers and representatives, and the expectations of the IAB for organizations with whom liaison relationships are established. &#160;This document specifies an Internet Best Current Practices for the Internet Community, and requests discussion and suggestions for improvements." target="_top">
<ellipse fill="none" stroke="black" cx="673.66" cy="-841.66" rx="168.29" ry="52.33"/>
<text xml:space="preserve" text-anchor="middle" x="673.66" y="-861.36" font-family="Times,serif" font-size="14.00">RFC4052</text>
<text xml:space="preserve" text-anchor="middle" x="673.66" y="-844.86" font-family="Times,serif" font-size="14.00">IAB Processes for Management of IETF</text>
<text xml:space="preserve" text-anchor="middle" x="673.66" y="-828.36" font-family="Times,serif" font-size="14.00">Liaison Relationships</text>
<text xml:space="preserve" text-anchor="middle" x="673.66" y="-811.86" font-family="Times,serif" font-size="14.00">2005</text>
</a>
</g>
</g>
<!-- cites&#45;&gt;RFC4052 -->
<g id="edge8" class="edge">
<title>cites&#45;&gt;RFC4052</title>
<path fill="none" stroke="black" d="M462.99,-552.07C465.41,-554.7 467.58,-557.58 469.23,-560.66 515.58,-646.97 433.01,-703.18 494.23,-779.66 502.72,-790.26 513.13,-799.05 524.61,-806.35"/>
<polygon fill="black" stroke="black" points="522.79,-809.34 533.19,-811.36 526.33,-803.29 522.79,-809.34"/>
</g>
<!-- RFC4053 -->
<g id="node10" class="node">
<title>RFC4053</title>
<g id="a_node10"><a xlink:href="RFC4053.html" xlink:title="This document describes the procedure for proper handling of incoming liaison statements from other standards development organizations (SDOs), consortia, and industry fora, and for generating liaison statements to be transmitted from IETF to other SDOs, consortia and industry fora. This procedure allows IETF to effectively collaborate with other organizations in the international standards community. The IETF expects that liaison statements might come from a variety of organizations, and it may choose to respond to many of those. The IETF is only obligated to respond if there is an agreed liaison relationship, however. This document specifies an Internet Best Current Practices for the Internet Community, and requests discussion and suggestions for improvements." target="_top">
<ellipse fill="none" stroke="black" cx="673.66" cy="-718.66" rx="139.12" ry="52.33"/>
<text xml:space="preserve" text-anchor="middle" x="673.66" y="-738.36" font-family="Times,serif" font-size="14.00">RFC4053</text>
<text xml:space="preserve" text-anchor="middle" x="673.66" y="-721.86" font-family="Times,serif" font-size="14.00">Procedures for Handling Liaison</text>
<text xml:space="preserve" text-anchor="middle" x="673.66" y="-705.36" font-family="Times,serif" font-size="14.00">Statements to and from the IETF</text>
<text xml:space="preserve" text-anchor="middle" x="673.66" y="-688.86" font-family="Times,serif" font-size="14.00">2005</text>
</a>
</g>
</g>
<!-- cites&#45;&gt;RFC4053 -->
<g id="edge9" class="edge">
<title>cites&#45;&gt;RFC4053</title>
<path fill="none" stroke="black" d="M462.26,-551.99C464.88,-554.67 467.29,-557.58 469.23,-560.66 492.78,-597.94 464.32,-624.27 494.23,-656.66 506.97,-670.46 522.94,-681.18 540.05,-689.52"/>
<polygon fill="black" stroke="black" points="538.32,-692.58 548.87,-693.53 541.22,-686.21 538.32,-692.58"/>
</g>
<!-- RFC4691 -->
<g id="node11" class="node">
<title>RFC4691</title>
<g id="a_node11"><a xlink:href="RFC4691.html" xlink:title="Whenever the IETF decides to enter into a liaison relationship with another organization, such as a Standards Development Organization (SDO), a consortium, or an industrial forum, a liaison manager is appointed. &#160;The procedures used by the IAB to establish and maintain liaison relationships between the IETF and other organizations are described in RFC 4052. &#160;This document expands on the role of liaison managers and liaison representatives, giving guidelines on their mandate and the expectations, tasks, and responsibilities placed on them. &#160;This memo provides information for the Internet community." target="_top">
<ellipse fill="none" stroke="black" cx="673.66" cy="-595.66" rx="170.94" ry="52.33"/>
<text xml:space="preserve" text-anchor="middle" x="673.66" y="-615.36" font-family="Times,serif" font-size="14.00">RFC4691</text>
<text xml:space="preserve" text-anchor="middle" x="673.66" y="-598.86" font-family="Times,serif" font-size="14.00">Guidelines for Acting as an IETF Liaison</text>
<text xml:space="preserve" text-anchor="middle" x="673.66" y="-582.36" font-family="Times,serif" font-size="14.00">to Another Organization</text>
<text xml:space="preserve" text-anchor="middle" x="673.66" y="-565.86" font-family="Times,serif" font-size="14.00">2006</text>
</a>
</g>
</g>
<!-- cites&#45;&gt;RFC4691 -->
<g id="edge10" class="edge">
<title>cites&#45;&gt;RFC4691</title>
<path fill="none" stroke="black" d="M463.22,-540.53C480.85,-545.17 505.66,-551.7 532.06,-558.65"/>
<polygon fill="black" stroke="black" points="531.02,-562 541.58,-561.16 532.8,-555.23 531.02,-562"/>
</g>
<!-- RFC3979 -->
<g id="node12" class="node">
<title>RFC3979</title>
<g id="a_node12"><a xlink:href="RFC3979.html" xlink:title="The IETF policies about Intellectual Property Rights (IPR), such as patent rights, relative to technologies developed in the IETF are designed to ensure that IETF working groups and participants have as much information about any IPR constraints on a technical proposal as possible. &#160;The policies are also intended to benefit the Internet community and the public at large, while respecting the legitimate rights of IPR holders. &#160;This memo details the IETF policies concerning IPR related to technology worked on within the IETF. &#160;It also describes the objectives that the policies are designed to meet. &#160;This memo updates RFC 2026 and, with RFC 3978, replaces Section 10 of RFC 2026. &#160;This memo also updates paragraph 4 of Section 3.2 of RFC 2028, for all purposes, including reference [2] in RFC 2418. &#160;This document specifies an Internet Best Current Practices for the Internet Community, and requests discussion and suggestions for improvements." target="_top">
<ellipse fill="none" stroke="black" cx="673.66" cy="-472.66" rx="150.26" ry="52.33"/>
<text xml:space="preserve" text-anchor="middle" x="673.66" y="-492.36" font-family="Times,serif" font-size="14.00">RFC3979</text>
<text xml:space="preserve" text-anchor="middle" x="673.66" y="-475.86" font-family="Times,serif" font-size="14.00">Intellectual Property Rights in IETF</text>
<text xml:space="preserve" text-anchor="middle" x="673.66" y="-459.36" font-family="Times,serif" font-size="14.00">Technology</text>
<text xml:space="preserve" text-anchor="middle" x="673.66" y="-442.86" font-family="Times,serif" font-size="14.00">2005</text>
</a>
</g>
</g>
<!-- cites&#45;&gt;RFC3979 -->
<g id="edge11" class="edge">
<title>cites&#45;&gt;RFC3979</title>
<path fill="none" stroke="black" d="M463.22,-526.9C482.9,-521.8 511.52,-514.39 541.32,-506.67"/>
<polygon fill="black" stroke="black" points="542.06,-510.09 550.87,-504.2 540.31,-503.32 542.06,-510.09"/>
</g>
<!-- RFC4748 -->
<g id="node13" class="node">
<title>RFC4748</title>
<g id="a_node13"><a xlink:href="RFC4748.html" xlink:title="This document updates RFC 3978 IETF Rights in Contributions to recognize that the IETF Trust is now the proper custodian of all IETF&#45;related intellectual property rights. This document does not constrain how the IETF Trust exercises those rights. This document specifies an Internet Best Current Practices for the Internet Community, and requests discussion and suggestions for improvements." target="_top">
<ellipse fill="none" stroke="black" cx="673.66" cy="-349.66" rx="171.47" ry="52.33"/>
<text xml:space="preserve" text-anchor="middle" x="673.66" y="-369.36" font-family="Times,serif" font-size="14.00">RFC4748</text>
<text xml:space="preserve" text-anchor="middle" x="673.66" y="-352.86" font-family="Times,serif" font-size="14.00">RFC 3978 Update to Recognize the IETF</text>
<text xml:space="preserve" text-anchor="middle" x="673.66" y="-336.36" font-family="Times,serif" font-size="14.00">Trust</text>
<text xml:space="preserve" text-anchor="middle" x="673.66" y="-319.86" font-family="Times,serif" font-size="14.00">2006</text>
</a>
</g>
</g>
<!-- cites&#45;&gt;RFC4748 -->
<g id="edge12" class="edge">
<title>cites&#45;&gt;RFC4748</title>
<path fill="none" stroke="black" d="M440.95,-515.24C447.43,-488.71 462.96,-439.85 494.23,-411.66 504.61,-402.3 516.48,-394.34 529.05,-387.57"/>
<polygon fill="black" stroke="black" points="530.58,-390.72 537.92,-383.08 527.41,-384.48 530.58,-390.72"/>
</g>
<!-- RFC4371 -->
<g id="node14" class="node">
<title>RFC4371</title>
<g id="a_node14"><a xlink:href="RFC4371.html" xlink:title="This document updates BCP 101 to take account of the new IETF Intellectual Property Trust. &#160;This document specifies an Internet Best Current Practices for the Internet Community, and requests discussion and suggestions for improvements." target="_top">
<ellipse fill="none" stroke="black" cx="673.66" cy="-238.66" rx="129.58" ry="40.66"/>
<text xml:space="preserve" text-anchor="middle" x="673.66" y="-250.11" font-family="Times,serif" font-size="14.00">RFC4371</text>
<text xml:space="preserve" text-anchor="middle" x="673.66" y="-233.61" font-family="Times,serif" font-size="14.00">BCP 101 Update for IPR Trust</text>
<text xml:space="preserve" text-anchor="middle" x="673.66" y="-217.11" font-family="Times,serif" font-size="14.00">2006</text>
</a>
</g>
</g>
<!-- cites&#45;&gt;RFC4371 -->
<g id="edge13" class="edge">
<title>cites&#45;&gt;RFC4371</title>
<path fill="none" stroke="black" d="M438.99,-515.25C444.57,-464.06 462.68,-321.64 494.23,-288.66 507.43,-274.86 524.1,-264.78 541.92,-257.42"/>
<polygon fill="black" stroke="black" points="543.01,-260.75 551.12,-253.93 540.53,-254.21 543.01,-260.75"/>
</g>
<!-- RFC3113 -->
<g id="node15" class="node">
<title>RFC3113</title>
<g id="a_node15"><a xlink:href="RFC3113.html" xlink:title="This document describes the standardization collaboration between 3GPP and IETF. &#160;This memo provides information for the Internet community." target="_top">
<ellipse fill="none" stroke="black" cx="673.66" cy="-139.66" rx="174.66" ry="40.66"/>
<text xml:space="preserve" text-anchor="middle" x="673.66" y="-151.11" font-family="Times,serif" font-size="14.00">RFC3113</text>
<text xml:space="preserve" text-anchor="middle" x="673.66" y="-134.61" font-family="Times,serif" font-size="14.00">3GPP&#45;IETF Standardization Collaboration</text>
<text xml:space="preserve" text-anchor="middle" x="673.66" y="-118.11" font-family="Times,serif" font-size="14.00">2001</text>
</a>
</g>
</g>
<!-- cites&#45;&gt;RFC3113 -->
<g id="edge14" class="edge">
<title>cites&#45;&gt;RFC3113</title>
<path fill="none" stroke="black" d="M437.61,-515.48C439.75,-451.46 450.14,-237.59 494.23,-188.66 501.49,-180.6 509.94,-173.81 519.14,-168.11"/>
<polygon fill="black" stroke="black" points="520.69,-171.26 527.67,-163.29 517.24,-165.16 520.69,-171.26"/>
</g>
<!-- RFC3131 -->
<g id="node16" class="node">
<title>RFC3131</title>
<g id="a_node16"><a xlink:href="RFC3131.html" xlink:title="This document describes the standardization collaboration between 3GPP2 and IETF. &#160;This memo provides information for the Internet community." target="_top">
<ellipse fill="none" stroke="black" cx="673.66" cy="-40.66" rx="179.43" ry="40.66"/>
<text xml:space="preserve" text-anchor="middle" x="673.66" y="-52.11" font-family="Times,serif" font-size="14.00">RFC3131</text>
<text xml:space="preserve" text-anchor="middle" x="673.66" y="-35.61" font-family="Times,serif" font-size="14.00">3GPP2&#45;IETF Standardization Collaboration</text>
<text xml:space="preserve" text-anchor="middle" x="673.66" y="-19.11" font-family="Times,serif" font-size="14.00">2001</text>
</a>
</g>
</g>
<!-- cites&#45;&gt;RFC3131 -->
<g id="edge15" class="edge">
<title>cites&#45;&gt;RFC3131</title>
<path fill="none" stroke="black" d="M436.86,-515.18C436.25,-439.56 437.78,-154.63 494.23,-89.66 500.81,-82.08 508.45,-75.63 516.78,-70.13"/>
<polygon fill="black" stroke="black" points="518.39,-73.25 525.16,-65.1 514.79,-67.24 518.39,-73.25"/>
</g>
<!-- rev_cites -->
<g id="node17" class="node">
<title>rev_cites</title>
<polygon fill="none" stroke="black" points="60.12,-551.66 6.12,-551.66 6.12,-515.66 60.12,-515.66 60.12,-551.66"/>
<text xml:space="preserve" text-anchor="middle" x="33.12" y="-528.61" font-family="Times,serif" font-size="14.00">cites</text>
</g>
<!-- rev_cites&#45;&gt;RFC4965 -->
<g id="edge16" class="edge">
<title>rev_cites&#45;&gt;RFC4965</title>
<path fill="none" stroke="black" d="M60.62,-540.83C73.43,-544.3 89.84,-548.74 107.43,-553.5"/>
<polygon fill="black" stroke="black" points="106.49,-556.87 117.06,-556.11 108.32,-550.12 106.49,-556.87"/>
</g>
</g>
</svg>
