<?xml version="1.0" encoding="UTF-8" standalone="no"?>
<!DOCTYPE svg PUBLIC "-//W3C//DTD SVG 1.1//EN"
 "http://www.w3.org/Graphics/SVG/1.1/DTD/svg11.dtd">
<!-- Generated by graphviz version 14.1.1 (20251213.1925)
 -->
<!-- Title: Flow Pages: 1 -->
<svg width="1678pt" height="894pt"
 viewBox="0.00 0.00 1678.00 894.00" xmlns="http://www.w3.org/2000/svg" xmlns:xlink="http://www.w3.org/1999/xlink">
<g id="graph0" class="graph" transform="scale(1 1) rotate(0) translate(4 889.78)">
<title>Flow</title>
<polygon fill="white" stroke="none" points="-4,4 -4,-889.78 1674.39,-889.78 1674.39,4 -4,4"/>
<!-- RFC4951 -->
<g id="node1" class="node">
<title>RFC4951</title>
<g id="a_node1"><a xlink:title="Layer 2 Tunneling Protocol (L2TP) is a connection&#45;oriented protocol that has a shared state between active endpoints. &#160;Some of this shared state is vital for operation, but may be volatile in nature, such as packet sequence numbers used on the L2TP Control Connection. &#160;When failure of one side of a control connection occurs, a new control connection is created and associated with the old connection by exchanging information about the old connection. &#160;Such a mechanism is not intended as a replacement for an active fail over with some mirrored connection states, but as an aid for those parameters that are particularly difficult to have immediately available. &#160;Protocol extensions to L2TP defined in this document are intended to facilitate state recovery, providing additional resiliency in an L2TP network, and improving a remote system&#39;s layer 2 connectivity. [STANDARDS&#45;TRACK]">
<ellipse fill="green" stroke="black" stroke-width="3" cx="826.71" cy="-448.72" rx="194.81" ry="65.05"/>
<text xml:space="preserve" text-anchor="middle" x="826.71" y="-473.62" font-family="Times,serif" font-size="18.00">RFC4951</text>
<text xml:space="preserve" text-anchor="middle" x="826.71" y="-452.62" font-family="Times,serif" font-size="18.00">Fail Over Extensions for Layer 2</text>
<text xml:space="preserve" text-anchor="middle" x="826.71" y="-431.62" font-family="Times,serif" font-size="18.00">Tunneling Protocol (L2TP) failover</text>
<text xml:space="preserve" text-anchor="middle" x="826.71" y="-410.62" font-family="Times,serif" font-size="18.00">2007</text>
</a>
</g>
</g>
<!-- obs -->
<g id="node3" class="node">
<title>obs</title>
<polygon fill="lightblue" stroke="black" points="1193.02,-659.09 1126.77,-659.09 1126.77,-623.09 1193.02,-623.09 1193.02,-659.09"/>
<text xml:space="preserve" text-anchor="middle" x="1159.89" y="-636.04" font-family="Times,serif" font-size="14.00">obsoletes</text>
</g>
<!-- RFC4951&#45;&gt;obs -->
<g id="edge2" class="edge">
<title>RFC4951&#45;&gt;obs</title>
<path fill="none" stroke="black" d="M925.77,-505.92C990.06,-543.04 1070.51,-589.48 1118.41,-617.14"/>
<polygon fill="black" stroke="black" points="1116.4,-620.02 1126.81,-621.98 1119.9,-613.95 1116.4,-620.02"/>
</g>
<!-- updates -->
<g id="node4" class="node">
<title>updates</title>
<polygon fill="lightyellow" stroke="black" points="855.33,-851.45 798.08,-851.45 798.08,-815.45 855.33,-815.45 855.33,-851.45"/>
<text xml:space="preserve" text-anchor="middle" x="826.71" y="-828.4" font-family="Times,serif" font-size="14.00">updates</text>
</g>
<!-- RFC4951&#45;&gt;updates -->
<g id="edge3" class="edge">
<title>RFC4951&#45;&gt;updates</title>
<path fill="none" stroke="black" d="M826.71,-514.86C826.71,-599.45 826.71,-742.36 826.71,-803.86"/>
<polygon fill="black" stroke="black" points="823.21,-803.52 826.71,-813.52 830.21,-803.52 823.21,-803.52"/>
</g>
<!-- cites -->
<g id="node6" class="node">
<title>cites</title>
<polygon fill="lightblue" stroke="black" points="520.52,-659.09 466.52,-659.09 466.52,-623.09 520.52,-623.09 520.52,-659.09"/>
<text xml:space="preserve" text-anchor="middle" x="493.52" y="-636.04" font-family="Times,serif" font-size="14.00">cites</text>
</g>
<!-- RFC4951&#45;&gt;cites -->
<g id="edge5" class="edge">
<title>RFC4951&#45;&gt;cites</title>
<path fill="none" stroke="black" d="M727.64,-505.92C661.34,-544.2 577.86,-592.39 530.61,-619.67"/>
<polygon fill="black" stroke="black" points="529.04,-616.54 522.13,-624.57 532.54,-622.6 529.04,-616.54"/>
</g>
<!-- obs_by -->
<g id="node2" class="node">
<title>obs_by</title>
<polygon fill="lightblue" stroke="black" points="526.65,-274.36 460.4,-274.36 460.4,-238.36 526.65,-238.36 526.65,-274.36"/>
<text xml:space="preserve" text-anchor="middle" x="493.52" y="-251.31" font-family="Times,serif" font-size="14.00">obsoletes</text>
</g>
<!-- obs_by&#45;&gt;RFC4951 -->
<g id="edge1" class="edge">
<title>obs_by&#45;&gt;RFC4951</title>
<path fill="none" stroke="black" d="M525.47,-274.8C569.4,-300.17 650.65,-347.08 717.71,-385.79"/>
<polygon fill="black" stroke="black" points="715.77,-388.71 726.18,-390.68 719.27,-382.65 715.77,-388.71"/>
</g>
<!-- updated_by -->
<g id="node5" class="node">
<title>updated_by</title>
<polygon fill="lightyellow" stroke="black" points="855.33,-81.99 798.08,-81.99 798.08,-45.99 855.33,-45.99 855.33,-81.99"/>
<text xml:space="preserve" text-anchor="middle" x="826.71" y="-58.94" font-family="Times,serif" font-size="14.00">updates</text>
</g>
<!-- updated_by&#45;&gt;RFC4951 -->
<g id="edge4" class="edge">
<title>updated_by&#45;&gt;RFC4951</title>
<path fill="none" stroke="black" d="M826.71,-82.29C826.71,-133.27 826.71,-279.19 826.71,-370.77"/>
<polygon fill="black" stroke="black" points="823.21,-370.69 826.71,-380.69 830.21,-370.69 823.21,-370.69"/>
</g>
<!-- RFC2119 -->
<g id="node7" class="node">
<title>RFC2119</title>
<g id="a_node7"><a xlink:href="RFC2119.html" xlink:title="In many standards track documents several words are used to signify the requirements in the specification. &#160;These words are often capitalized. &#160;This document defines these words as they should be interpreted in IETF documents. &#160;This document specifies an Internet Best Current Practices for the Internet Community, and requests discussion and suggestions for improvements." target="_top">
<ellipse fill="none" stroke="black" cx="160.34" cy="-833.45" rx="160.34" ry="52.33"/>
<text xml:space="preserve" text-anchor="middle" x="160.34" y="-853.15" font-family="Times,serif" font-size="14.00">RFC2119</text>
<text xml:space="preserve" text-anchor="middle" x="160.34" y="-836.65" font-family="Times,serif" font-size="14.00">Key words for use in RFCs to Indicate</text>
<text xml:space="preserve" text-anchor="middle" x="160.34" y="-820.15" font-family="Times,serif" font-size="14.00">Requirement Levels</text>
<text xml:space="preserve" text-anchor="middle" x="160.34" y="-803.65" font-family="Times,serif" font-size="14.00">1997</text>
</a>
</g>
</g>
<!-- cites&#45;&gt;RFC2119 -->
<g id="edge6" class="edge">
<title>cites&#45;&gt;RFC2119</title>
<path fill="none" stroke="black" d="M466.26,-656.83C419.4,-683.88 321.67,-740.31 249.21,-782.14"/>
<polygon fill="black" stroke="black" points="247.83,-778.9 240.92,-786.93 251.33,-784.96 247.83,-778.9"/>
</g>
<!-- rev_cites -->
<g id="node8" class="node">
<title>rev_cites</title>
<polygon fill="lightblue" stroke="black" points="1186.89,-274.36 1132.89,-274.36 1132.89,-238.36 1186.89,-238.36 1186.89,-274.36"/>
<text xml:space="preserve" text-anchor="middle" x="1159.89" y="-251.31" font-family="Times,serif" font-size="14.00">cites</text>
</g>
<!-- rev_cites&#45;&gt;RFC4951 -->
<g id="edge7" class="edge">
<title>rev_cites&#45;&gt;RFC4951</title>
<path fill="none" stroke="black" d="M1132.63,-272.1C1089.95,-296.74 1005.06,-345.75 935.51,-385.9"/>
<polygon fill="black" stroke="black" points="934.03,-382.72 927.12,-390.75 937.53,-388.78 934.03,-382.72"/>
</g>
<!-- RFC5515 -->
<g id="node9" class="node">
<title>RFC5515</title>
<g id="a_node9"><a xlink:href="RFC5515.html" xlink:title="This document describes a set of Layer 2 Tunneling Protocol (L2TP) Attribute Value Pair (AVP) extensions designed to carry the subscriber Access Line identification and characterization information that arrives at the Broadband Remote Access Server (BRAS) with L2TP Access Concentrator (LAC) functionality. &#160;It also describes a mechanism to report connection speed changes, after the initial connection speeds are sent during session establishment. &#160;The primary purpose of this document is to provide a reference for DSL equipment vendors wishing to interoperate with other vendors&#39; products. &#160;The L2TP AVPs defined in this document are applicable to both L2TPv2 and L2TPv3. &#160;This memo provides information for the Internet community." target="_top">
<ellipse fill="none" stroke="black" cx="1493.08" cy="-63.99" rx="177.31" ry="63.99"/>
<text xml:space="preserve" text-anchor="middle" x="1493.08" y="-91.94" font-family="Times,serif" font-size="14.00">RFC5515</text>
<text xml:space="preserve" text-anchor="middle" x="1493.08" y="-75.44" font-family="Times,serif" font-size="14.00">Layer 2 Tunneling Protocol (L2TP) Access</text>
<text xml:space="preserve" text-anchor="middle" x="1493.08" y="-58.94" font-family="Times,serif" font-size="14.00">Line Information Attribute Value Pair</text>
<text xml:space="preserve" text-anchor="middle" x="1493.08" y="-42.44" font-family="Times,serif" font-size="14.00">(AVP) Extensions</text>
<text xml:space="preserve" text-anchor="middle" x="1493.08" y="-25.94" font-family="Times,serif" font-size="14.00">2009</text>
</a>
</g>
</g>
<!-- RFC5515&#45;&gt;rev_cites -->
<g id="edge8" class="edge">
<title>RFC5515&#45;&gt;rev_cites</title>
<path fill="none" stroke="black" d="M1398.49,-118.6C1331.5,-157.28 1245.26,-207.07 1196.95,-234.96"/>
<polygon fill="black" stroke="black" points="1195.46,-231.78 1188.55,-239.82 1198.96,-237.85 1195.46,-231.78"/>
</g>
</g>
</svg>
