<?xml version="1.0" encoding="UTF-8" standalone="no"?>
<!DOCTYPE svg PUBLIC "-//W3C//DTD SVG 1.1//EN"
 "http://www.w3.org/Graphics/SVG/1.1/DTD/svg11.dtd">
<!-- Generated by graphviz version 14.1.1 (20251213.1925)
 -->
<!-- Title: Flow Pages: 1 -->
<svg width="1279pt" height="217pt"
 viewBox="0.00 0.00 1279.00 217.00" xmlns="http://www.w3.org/2000/svg" xmlns:xlink="http://www.w3.org/1999/xlink">
<g id="graph0" class="graph" transform="scale(1 1) rotate(0) translate(4 212.99)">
<title>Flow</title>
<polygon fill="white" stroke="none" points="-4,4 -4,-212.99 1274.89,-212.99 1274.89,4 -4,4"/>
<!-- RFC4227 -->
<g id="node1" class="node">
<title>RFC4227</title>
<g id="a_node1"><a xlink:title="This memo specifies a Simple Object Access Protocol (SOAP) binding to the Blocks Extensible Exchange Protocol (BEEP) core. A SOAP binding describes how SOAP messages are transmitted in the network. The SOAP is an XML&#45;based (eXtensible Markup Language) messaging protocol used to implement a wide variety of distributed messaging models. It defines a message format and describes a variety of message patterns, including, but not limited to, Remote Procedure Calling (RPC), asynchronous event notification, unacknowledged messages, and forwarding via SOAP intermediaries. [STANDARDS&#45;TRACK]">
<ellipse fill="none" stroke="black" cx="641.81" cy="-90.99" rx="170.94" ry="63.99"/>
<text xml:space="preserve" text-anchor="middle" x="641.81" y="-118.94" font-family="Times,serif" font-size="14.00">RFC4227</text>
<text xml:space="preserve" text-anchor="middle" x="641.81" y="-102.44" font-family="Times,serif" font-size="14.00">Using the Simple Object Access Protocol</text>
<text xml:space="preserve" text-anchor="middle" x="641.81" y="-85.94" font-family="Times,serif" font-size="14.00">(SOAP) in Blocks Extensible Exchange</text>
<text xml:space="preserve" text-anchor="middle" x="641.81" y="-69.44" font-family="Times,serif" font-size="14.00">Protocol (BEEP)</text>
<text xml:space="preserve" text-anchor="middle" x="641.81" y="-52.94" font-family="Times,serif" font-size="14.00">2006</text>
</a>
</g>
</g>
<!-- obs -->
<g id="node3" class="node">
<title>obs</title>
<polygon fill="none" stroke="black" points="904,-162.99 837.75,-162.99 837.75,-126.99 904,-126.99 904,-162.99"/>
<text xml:space="preserve" text-anchor="middle" x="870.88" y="-139.94" font-family="Times,serif" font-size="14.00">obsoletes</text>
</g>
<!-- RFC4227&#45;&gt;obs -->
<g id="edge2" class="edge">
<title>RFC4227&#45;&gt;obs</title>
<path fill="none" stroke="black" d="M786.93,-125.27C801.02,-128.62 814.42,-131.81 826.19,-134.6"/>
<polygon fill="black" stroke="black" points="825.36,-138 835.9,-136.91 826.98,-131.19 825.36,-138"/>
</g>
<!-- updates -->
<g id="node5" class="node">
<title>updates</title>
<polygon fill="none" stroke="black" points="899.5,-108.99 842.25,-108.99 842.25,-72.99 899.5,-72.99 899.5,-108.99"/>
<text xml:space="preserve" text-anchor="middle" x="870.88" y="-85.94" font-family="Times,serif" font-size="14.00">updates</text>
</g>
<!-- RFC4227&#45;&gt;updates -->
<g id="edge4" class="edge">
<title>RFC4227&#45;&gt;updates</title>
<path fill="none" stroke="black" d="M813.16,-90.99C819.34,-90.99 825.21,-90.99 830.68,-90.99"/>
<polygon fill="black" stroke="black" points="830.43,-94.49 840.43,-90.99 830.43,-87.49 830.43,-94.49"/>
</g>
<!-- cites -->
<g id="node8" class="node">
<title>cites</title>
<polygon fill="none" stroke="black" points="897.88,-54.99 843.88,-54.99 843.88,-18.99 897.88,-18.99 897.88,-54.99"/>
<text xml:space="preserve" text-anchor="middle" x="870.88" y="-31.94" font-family="Times,serif" font-size="14.00">cites</text>
</g>
<!-- RFC4227&#45;&gt;cites -->
<g id="edge7" class="edge">
<title>RFC4227&#45;&gt;cites</title>
<path fill="none" stroke="black" d="M786.93,-56.72C803.63,-52.75 819.37,-49 832.56,-45.87"/>
<polygon fill="black" stroke="black" points="833.06,-49.35 841.98,-43.63 831.44,-42.54 833.06,-49.35"/>
</g>
<!-- obs_by -->
<g id="node2" class="node">
<title>obs_by</title>
<polygon fill="none" stroke="black" points="445.86,-162.99 379.61,-162.99 379.61,-126.99 445.86,-126.99 445.86,-162.99"/>
<text xml:space="preserve" text-anchor="middle" x="412.74" y="-139.94" font-family="Times,serif" font-size="14.00">obsoletes</text>
</g>
<!-- obs_by&#45;&gt;RFC4227 -->
<g id="edge1" class="edge">
<title>obs_by&#45;&gt;RFC4227</title>
<path fill="none" stroke="black" d="M446.27,-137.26C457.62,-134.56 471.22,-131.32 485.89,-127.83"/>
<polygon fill="black" stroke="black" points="486.35,-131.32 495.27,-125.6 484.73,-124.51 486.35,-131.32"/>
</g>
<!-- RFC3288 -->
<g id="node4" class="node">
<title>RFC3288</title>
<g id="a_node4"><a xlink:href="RFC3288.html" xlink:title="This memo specifies a Simple Object Access Protocol (SOAP) binding to the Blocks Extensible Exchange Protocol core (BEEP). &#160;A SOAP binding describes how SOAP messages are transmitted in the network. [STANDARDS&#45;TRACK]" target="_top">
<ellipse fill="none" stroke="black" cx="1099.94" cy="-144.99" rx="170.94" ry="63.99"/>
<text xml:space="preserve" text-anchor="middle" x="1099.94" y="-172.94" font-family="Times,serif" font-size="14.00">RFC3288</text>
<text xml:space="preserve" text-anchor="middle" x="1099.94" y="-156.44" font-family="Times,serif" font-size="14.00">Using the Simple Object Access Protocol</text>
<text xml:space="preserve" text-anchor="middle" x="1099.94" y="-139.94" font-family="Times,serif" font-size="14.00">(SOAP) in Blocks Extensible Exchange</text>
<text xml:space="preserve" text-anchor="middle" x="1099.94" y="-123.44" font-family="Times,serif" font-size="14.00">Protocol (BEEP)</text>
<text xml:space="preserve" text-anchor="middle" x="1099.94" y="-106.94" font-family="Times,serif" font-size="14.00">2002</text>
</a>
</g>
</g>
<!-- obs&#45;&gt;RFC3288 -->
<g id="edge3" class="edge">
<title>obs&#45;&gt;RFC3288</title>
<path fill="none" stroke="black" d="M904.41,-144.99C908.37,-144.99 912.6,-144.99 917.05,-144.99"/>
<polygon fill="black" stroke="black" points="917.04,-148.49 927.04,-144.99 917.04,-141.49 917.04,-148.49"/>
</g>
<!-- updated_by -->
<g id="node6" class="node">
<title>updated_by</title>
<polygon fill="none" stroke="black" points="441.36,-108.99 384.11,-108.99 384.11,-72.99 441.36,-72.99 441.36,-108.99"/>
<text xml:space="preserve" text-anchor="middle" x="412.74" y="-85.94" font-family="Times,serif" font-size="14.00">updates</text>
</g>
<!-- updated_by&#45;&gt;RFC4227 -->
<g id="edge5" class="edge">
<title>updated_by&#45;&gt;RFC4227</title>
<path fill="none" stroke="black" d="M441.58,-90.99C446.97,-90.99 452.97,-90.99 459.44,-90.99"/>
<polygon fill="black" stroke="black" points="459.21,-94.49 469.21,-90.99 459.21,-87.49 459.21,-94.49"/>
</g>
<!-- RFC8553 -->
<g id="node7" class="node">
<title>RFC8553</title>
<g id="a_node7"><a xlink:href="RFC8553.html" xlink:title="Using an underscore for a prefix creates a space for constrained interoperation of resource records. &#160;Original uses of an underscore character as a domain node name prefix were specified without the benefit of an IANA registry. &#160;This produced an entirely uncoordinated set of name&#45;creation activities, all drawing from the same namespace. &#160;A registry for these names has now been defined by RFC 8552. &#160;However, the existing specifications that use underscored naming need to be modified in order to be in line with the new registry. &#160;This document specifies those changes. &#160;The changes preserve existing software and operational practice, while adapting the specifications for those practices to the newer underscore registry model." target="_top">
<ellipse fill="none" stroke="black" cx="177.31" cy="-63.99" rx="177.31" ry="63.99"/>
<text xml:space="preserve" text-anchor="middle" x="177.31" y="-91.94" font-family="Times,serif" font-size="14.00">RFC8553</text>
<text xml:space="preserve" text-anchor="middle" x="177.31" y="-75.44" font-family="Times,serif" font-size="14.00">DNS Attrleaf Changes: Fixing</text>
<text xml:space="preserve" text-anchor="middle" x="177.31" y="-58.94" font-family="Times,serif" font-size="14.00">Specifications That Use Underscored Node</text>
<text xml:space="preserve" text-anchor="middle" x="177.31" y="-42.44" font-family="Times,serif" font-size="14.00">Names</text>
<text xml:space="preserve" text-anchor="middle" x="177.31" y="-25.94" font-family="Times,serif" font-size="14.00">2019</text>
</a>
</g>
</g>
<!-- RFC8553&#45;&gt;updated_by -->
<g id="edge6" class="edge">
<title>RFC8553&#45;&gt;updated_by</title>
<path fill="none" stroke="black" d="M346.72,-83.47C355.98,-84.54 364.7,-85.55 372.56,-86.46"/>
<polygon fill="black" stroke="black" points="371.95,-89.91 382.28,-87.59 372.75,-82.96 371.95,-89.91"/>
</g>
<!-- rev_cites -->
<g id="node9" class="node">
<title>rev_cites</title>
<polygon fill="none" stroke="black" points="439.74,-54.99 385.74,-54.99 385.74,-18.99 439.74,-18.99 439.74,-54.99"/>
<text xml:space="preserve" text-anchor="middle" x="412.74" y="-31.94" font-family="Times,serif" font-size="14.00">cites</text>
</g>
<!-- RFC8553&#45;&gt;rev_cites -->
<g id="edge9" class="edge">
<title>RFC8553&#45;&gt;rev_cites</title>
<path fill="none" stroke="black" d="M346.72,-44.51C356.57,-43.37 365.81,-42.31 374.05,-41.35"/>
<polygon fill="black" stroke="black" points="374.34,-44.84 383.88,-40.22 373.54,-37.89 374.34,-44.84"/>
</g>
<!-- rev_cites&#45;&gt;RFC4227 -->
<g id="edge8" class="edge">
<title>rev_cites&#45;&gt;RFC4227</title>
<path fill="none" stroke="black" d="M440.23,-43.29C452.63,-46.24 468.49,-50.01 485.86,-54.14"/>
<polygon fill="black" stroke="black" points="484.83,-57.5 495.37,-56.41 486.45,-50.69 484.83,-57.5"/>
</g>
</g>
</svg>
