<?xml version="1.0" encoding="UTF-8" standalone="no"?>
<!DOCTYPE svg PUBLIC "-//W3C//DTD SVG 1.1//EN"
 "http://www.w3.org/Graphics/SVG/1.1/DTD/svg11.dtd">
<!-- Generated by graphviz version 14.1.1 (20251213.1925)
 -->
<!-- Title: Flow Pages: 1 -->
<svg width="894pt" height="186pt"
 viewBox="0.00 0.00 894.00 186.00" xmlns="http://www.w3.org/2000/svg" xmlns:xlink="http://www.w3.org/1999/xlink">
<g id="graph0" class="graph" transform="scale(1 1) rotate(0) translate(4 182.33)">
<title>Flow</title>
<polygon fill="white" stroke="none" points="-4,4 -4,-182.33 889.97,-182.33 889.97,4 -4,4"/>
<!-- RFC4889 -->
<g id="node1" class="node">
<title>RFC4889</title>
<g id="a_node1"><a xlink:title="With current Network Mobility (NEMO) Basic Support, all communications to and from Mobile Network Nodes must go through the Mobile Router and Home Agent (MRHA) tunnel when the mobile network is away. &#160;This results in increased length of packet route and increased packet delay in most cases. &#160;To overcome these limitations, one might have to turn to Route Optimization (RO) for NEMO. &#160;This memo documents various types of Route Optimization in NEMO and explores the benefits and tradeoffs in different aspects of NEMO Route Optimization. &#160;This memo provides information for the Internet community.">
<ellipse fill="green" stroke="black" cx="634.38" cy="-106.33" rx="160.34" ry="52.33"/>
<text xml:space="preserve" text-anchor="middle" x="634.38" y="-126.03" font-family="Times,serif" font-size="14.00">RFC4889</text>
<text xml:space="preserve" text-anchor="middle" x="634.38" y="-109.53" font-family="Times,serif" font-size="14.00">Network Mobility Route Optimization</text>
<text xml:space="preserve" text-anchor="middle" x="634.38" y="-93.03" font-family="Times,serif" font-size="14.00">Solution Space Analysis</text>
<text xml:space="preserve" text-anchor="middle" x="634.38" y="-76.53" font-family="Times,serif" font-size="14.00">2007</text>
</a>
</g>
</g>
<!-- obs -->
<g id="node3" class="node">
<title>obs</title>
<polygon fill="lightblue" stroke="black" points="885.97,-178.33 819.72,-178.33 819.72,-142.33 885.97,-142.33 885.97,-178.33"/>
<text xml:space="preserve" text-anchor="middle" x="852.84" y="-155.28" font-family="Times,serif" font-size="14.00">obsoletes</text>
</g>
<!-- RFC4889&#45;&gt;obs -->
<g id="edge2" class="edge">
<title>RFC4889&#45;&gt;obs</title>
<path fill="none" stroke="black" d="M762.55,-138.05C778.94,-142.14 794.74,-146.08 808.37,-149.48"/>
<polygon fill="black" stroke="black" points="807.25,-152.81 817.8,-151.83 808.95,-146.02 807.25,-152.81"/>
</g>
<!-- updates -->
<g id="node4" class="node">
<title>updates</title>
<polygon fill="lightyellow" stroke="black" points="881.47,-124.33 824.22,-124.33 824.22,-88.33 881.47,-88.33 881.47,-124.33"/>
<text xml:space="preserve" text-anchor="middle" x="852.84" y="-101.28" font-family="Times,serif" font-size="14.00">updates</text>
</g>
<!-- RFC4889&#45;&gt;updates -->
<g id="edge3" class="edge">
<title>RFC4889&#45;&gt;updates</title>
<path fill="none" stroke="black" d="M794.97,-106.33C801.13,-106.33 806.99,-106.33 812.46,-106.33"/>
<polygon fill="black" stroke="black" points="812.23,-109.83 822.23,-106.33 812.23,-102.83 812.23,-109.83"/>
</g>
<!-- cites -->
<g id="node6" class="node">
<title>cites</title>
<polygon fill="lightblue" stroke="black" points="879.84,-70.33 825.84,-70.33 825.84,-34.33 879.84,-34.33 879.84,-70.33"/>
<text xml:space="preserve" text-anchor="middle" x="852.84" y="-47.28" font-family="Times,serif" font-size="14.00">cites</text>
</g>
<!-- RFC4889&#45;&gt;cites -->
<g id="edge5" class="edge">
<title>RFC4889&#45;&gt;cites</title>
<path fill="none" stroke="black" d="M762.55,-74.6C781.62,-69.85 799.88,-65.29 814.86,-61.55"/>
<polygon fill="black" stroke="black" points="815.31,-65.05 824.16,-59.23 813.61,-58.26 815.31,-65.05"/>
</g>
<!-- obs_by -->
<g id="node2" class="node">
<title>obs_by</title>
<polygon fill="lightblue" stroke="black" points="449.05,-178.33 382.8,-178.33 382.8,-142.33 449.05,-142.33 449.05,-178.33"/>
<text xml:space="preserve" text-anchor="middle" x="415.92" y="-155.28" font-family="Times,serif" font-size="14.00">obsoletes</text>
</g>
<!-- obs_by&#45;&gt;RFC4889 -->
<g id="edge1" class="edge">
<title>obs_by&#45;&gt;RFC4889</title>
<path fill="none" stroke="black" d="M449.33,-152.24C462.42,-148.98 478.48,-144.97 495.61,-140.7"/>
<polygon fill="black" stroke="black" points="496.07,-144.19 504.92,-138.37 494.37,-137.4 496.07,-144.19"/>
</g>
<!-- updated_by -->
<g id="node5" class="node">
<title>updated_by</title>
<polygon fill="lightyellow" stroke="black" points="444.55,-124.33 387.3,-124.33 387.3,-88.33 444.55,-88.33 444.55,-124.33"/>
<text xml:space="preserve" text-anchor="middle" x="415.92" y="-101.28" font-family="Times,serif" font-size="14.00">updates</text>
</g>
<!-- updated_by&#45;&gt;RFC4889 -->
<g id="edge4" class="edge">
<title>updated_by&#45;&gt;RFC4889</title>
<path fill="none" stroke="black" d="M444.78,-106.33C450.12,-106.33 456.05,-106.33 462.44,-106.33"/>
<polygon fill="black" stroke="black" points="462.06,-109.83 472.06,-106.33 462.06,-102.83 462.06,-109.83"/>
</g>
<!-- rev_cites -->
<g id="node7" class="node">
<title>rev_cites</title>
<polygon fill="lightblue" stroke="black" points="442.92,-70.33 388.92,-70.33 388.92,-34.33 442.92,-34.33 442.92,-70.33"/>
<text xml:space="preserve" text-anchor="middle" x="415.92" y="-47.28" font-family="Times,serif" font-size="14.00">cites</text>
</g>
<!-- rev_cites&#45;&gt;RFC4889 -->
<g id="edge6" class="edge">
<title>rev_cites&#45;&gt;RFC4889</title>
<path fill="none" stroke="black" d="M443.03,-58.84C456.98,-62.32 475.34,-66.9 495.16,-71.84"/>
<polygon fill="black" stroke="black" points="494.28,-75.23 504.83,-74.26 495.97,-68.44 494.28,-75.23"/>
</g>
<!-- RFC7429 -->
<g id="node8" class="node">
<title>RFC7429</title>
<g id="a_node8"><a xlink:href="RFC7429.html" xlink:title="This document analyzes deployment practices of existing IP mobility protocols in a distributed mobility management environment. &#160;It then identifies existing limitations when compared to the requirements defined for a distributed mobility management solution." target="_top">
<ellipse fill="none" stroke="black" cx="178.9" cy="-52.33" rx="178.9" ry="52.33"/>
<text xml:space="preserve" text-anchor="middle" x="178.9" y="-72.03" font-family="Times,serif" font-size="14.00">RFC7429</text>
<text xml:space="preserve" text-anchor="middle" x="178.9" y="-55.53" font-family="Times,serif" font-size="14.00">Distributed Mobility Management: Current</text>
<text xml:space="preserve" text-anchor="middle" x="178.9" y="-39.03" font-family="Times,serif" font-size="14.00">Practices and Gap Analysis</text>
<text xml:space="preserve" text-anchor="middle" x="178.9" y="-22.53" font-family="Times,serif" font-size="14.00">2015</text>
</a>
</g>
</g>
<!-- RFC7429&#45;&gt;rev_cites -->
<g id="edge7" class="edge">
<title>RFC7429&#45;&gt;rev_cites</title>
<path fill="none" stroke="black" d="M358.03,-52.33C364.79,-52.33 371.19,-52.33 377.08,-52.33"/>
<polygon fill="black" stroke="black" points="376.91,-55.83 386.91,-52.33 376.91,-48.83 376.91,-55.83"/>
</g>
</g>
</svg>
