<?xml version="1.0" encoding="UTF-8" standalone="no"?>
<!DOCTYPE svg PUBLIC "-//W3C//DTD SVG 1.1//EN"
 "http://www.w3.org/Graphics/SVG/1.1/DTD/svg11.dtd">
<!-- Generated by graphviz version 14.1.1 (20251213.1925)
 -->
<!-- Title: Flow Pages: 1 -->
<svg width="1234pt" height="1076pt"
 viewBox="0.00 0.00 1234.00 1076.00" xmlns="http://www.w3.org/2000/svg" xmlns:xlink="http://www.w3.org/1999/xlink">
<g id="graph0" class="graph" transform="scale(1 1) rotate(0) translate(4 1071.98)">
<title>Flow</title>
<polygon fill="white" stroke="none" points="-4,4 -4,-1071.98 1230.34,-1071.98 1230.34,4 -4,4"/>
<!-- RFC4957 -->
<g id="node1" class="node">
<title>RFC4957</title>
<g id="a_node1"><a xlink:title="Certain network access technologies are capable of providing various types of link&#45;layer status information to IP. &#160;Link&#45;layer event notifications can help IP expeditiously detect configuration changes. &#160;This document provides a non&#45;exhaustive catalogue of information available from well&#45;known access technologies. &#160;This memo provides information for the Internet community.">
<ellipse fill="green" stroke="black" cx="609.46" cy="-581.66" rx="146.02" ry="52.33"/>
<text xml:space="preserve" text-anchor="middle" x="609.46" y="-601.36" font-family="Times,serif" font-size="14.00">RFC4957</text>
<text xml:space="preserve" text-anchor="middle" x="609.46" y="-584.86" font-family="Times,serif" font-size="14.00">Link&#45;Layer Event Notifications for</text>
<text xml:space="preserve" text-anchor="middle" x="609.46" y="-568.36" font-family="Times,serif" font-size="14.00">Detecting Network Attachments</text>
<text xml:space="preserve" text-anchor="middle" x="609.46" y="-551.86" font-family="Times,serif" font-size="14.00">2007</text>
</a>
</g>
</g>
<!-- obs -->
<g id="node3" class="node">
<title>obs</title>
<polygon fill="lightblue" stroke="black" points="846.72,-653.66 780.47,-653.66 780.47,-617.66 846.72,-617.66 846.72,-653.66"/>
<text xml:space="preserve" text-anchor="middle" x="813.6" y="-630.61" font-family="Times,serif" font-size="14.00">obsoletes</text>
</g>
<!-- RFC4957&#45;&gt;obs -->
<g id="edge2" class="edge">
<title>RFC4957&#45;&gt;obs</title>
<path fill="none" stroke="black" d="M727.46,-612.91C742.3,-616.88 756.67,-620.72 769.25,-624.08"/>
<polygon fill="black" stroke="black" points="768.23,-627.43 778.79,-626.63 770.03,-620.66 768.23,-627.43"/>
</g>
<!-- updates -->
<g id="node4" class="node">
<title>updates</title>
<polygon fill="lightyellow" stroke="black" points="842.22,-599.66 784.97,-599.66 784.97,-563.66 842.22,-563.66 842.22,-599.66"/>
<text xml:space="preserve" text-anchor="middle" x="813.6" y="-576.61" font-family="Times,serif" font-size="14.00">updates</text>
</g>
<!-- RFC4957&#45;&gt;updates -->
<g id="edge3" class="edge">
<title>RFC4957&#45;&gt;updates</title>
<path fill="none" stroke="black" d="M755.75,-581.66C761.92,-581.66 767.82,-581.66 773.32,-581.66"/>
<polygon fill="black" stroke="black" points="773.16,-585.16 783.16,-581.66 773.16,-578.16 773.16,-585.16"/>
</g>
<!-- cites -->
<g id="node6" class="node">
<title>cites</title>
<polygon fill="lightblue" stroke="black" points="840.6,-545.66 786.6,-545.66 786.6,-509.66 840.6,-509.66 840.6,-545.66"/>
<text xml:space="preserve" text-anchor="middle" x="813.6" y="-522.61" font-family="Times,serif" font-size="14.00">cites</text>
</g>
<!-- RFC4957&#45;&gt;cites -->
<g id="edge5" class="edge">
<title>RFC4957&#45;&gt;cites</title>
<path fill="none" stroke="black" d="M727.46,-550.4C744.78,-545.77 761.47,-541.32 775.41,-537.59"/>
<polygon fill="black" stroke="black" points="776.2,-541 784.96,-535.04 774.4,-534.24 776.2,-541"/>
</g>
<!-- obs_by -->
<g id="node2" class="node">
<title>obs_by</title>
<polygon fill="lightblue" stroke="black" points="438.44,-653.66 372.19,-653.66 372.19,-617.66 438.44,-617.66 438.44,-653.66"/>
<text xml:space="preserve" text-anchor="middle" x="405.31" y="-630.61" font-family="Times,serif" font-size="14.00">obsoletes</text>
</g>
<!-- obs_by&#45;&gt;RFC4957 -->
<g id="edge1" class="edge">
<title>obs_by&#45;&gt;RFC4957</title>
<path fill="none" stroke="black" d="M438.79,-626.98C450.85,-623.76 465.38,-619.88 480.8,-615.76"/>
<polygon fill="black" stroke="black" points="481.37,-619.23 490.13,-613.27 479.56,-612.47 481.37,-619.23"/>
</g>
<!-- updated_by -->
<g id="node5" class="node">
<title>updated_by</title>
<polygon fill="lightyellow" stroke="black" points="433.94,-599.66 376.69,-599.66 376.69,-563.66 433.94,-563.66 433.94,-599.66"/>
<text xml:space="preserve" text-anchor="middle" x="405.31" y="-576.61" font-family="Times,serif" font-size="14.00">updates</text>
</g>
<!-- updated_by&#45;&gt;RFC4957 -->
<g id="edge4" class="edge">
<title>updated_by&#45;&gt;RFC4957</title>
<path fill="none" stroke="black" d="M434.42,-581.66C439.77,-581.66 445.71,-581.66 452.07,-581.66"/>
<polygon fill="black" stroke="black" points="451.62,-585.16 461.62,-581.66 451.62,-578.16 451.62,-585.16"/>
</g>
<!-- RFC4135 -->
<g id="node7" class="node">
<title>RFC4135</title>
<g id="a_node7"><a xlink:href="RFC4135.html" xlink:title="When a host establishes a new link&#45;layer connection, it may or may not have a valid IP configuration for Internet connectivity. &#160;The host may check for link change (i.e., determine whether a link change has occurred), and then, based on the result, it can automatically decide whether its IP configuration is still valid. &#160;During link identity detection, the host may also collect necessary information to initiate a new IP configuration if the IP subnet has changed. &#160;In this memo, this procedure is called Detecting Network Attachment (DNA). &#160;DNA schemes should be precise, sufficiently fast, secure, and of limited signaling. &#160;This memo provides information for the Internet community." target="_top">
<ellipse fill="none" stroke="black" cx="1049.03" cy="-1015.66" rx="177.31" ry="52.33"/>
<text xml:space="preserve" text-anchor="middle" x="1049.03" y="-1035.36" font-family="Times,serif" font-size="14.00">RFC4135</text>
<text xml:space="preserve" text-anchor="middle" x="1049.03" y="-1018.86" font-family="Times,serif" font-size="14.00">Goals of Detecting Network Attachment in</text>
<text xml:space="preserve" text-anchor="middle" x="1049.03" y="-1002.36" font-family="Times,serif" font-size="14.00">IPv6</text>
<text xml:space="preserve" text-anchor="middle" x="1049.03" y="-985.86" font-family="Times,serif" font-size="14.00">2005</text>
</a>
</g>
</g>
<!-- cites&#45;&gt;RFC4135 -->
<g id="edge6" class="edge">
<title>cites&#45;&gt;RFC4135</title>
<path fill="none" stroke="black" d="M840.64,-545.98C843.04,-548.64 845.15,-551.54 846.72,-554.66 886.83,-634.18 817.82,-883.76 871.72,-954.66 878.78,-963.94 887.34,-971.82 896.84,-978.5"/>
<polygon fill="black" stroke="black" points="894.64,-981.25 904.94,-983.73 898.44,-975.37 894.64,-981.25"/>
</g>
<!-- RFC4881 -->
<g id="node8" class="node">
<title>RFC4881</title>
<g id="a_node8"><a xlink:href="RFC4881.html" xlink:title="Mobile IPv4 describes how a Mobile Node can perform IPv4&#45;layer handoffs between subnets served by different Foreign Agents. &#160;In certain cases, the latency involved in these handoffs can be above the threshold required for the support of delay&#45;sensitive or real&#45;time services. &#160;The aim of this document is to present two methods to achieve low&#45;latency Mobile IPv4 handoffs. &#160;In addition, a combination of these two methods is described. &#160;The described techniques allow greater support for real&#45;time services on a Mobile IPv4 network by minimizing the period of time when a Mobile Node is unable to send or receive IPv4 packets due to the delay in the Mobile IPv4 Registration process. &#160;This memo defines an Experimental Protocol for the Internet community." target="_top">
<ellipse fill="none" stroke="black" cx="1049.03" cy="-904.66" rx="162.46" ry="40.66"/>
<text xml:space="preserve" text-anchor="middle" x="1049.03" y="-916.11" font-family="Times,serif" font-size="14.00">RFC4881</text>
<text xml:space="preserve" text-anchor="middle" x="1049.03" y="-899.61" font-family="Times,serif" font-size="14.00">Low&#45;Latency Handoffs in Mobile IPv4</text>
<text xml:space="preserve" text-anchor="middle" x="1049.03" y="-883.11" font-family="Times,serif" font-size="14.00">2007</text>
</a>
</g>
</g>
<!-- cites&#45;&gt;RFC4881 -->
<g id="edge7" class="edge">
<title>cites&#45;&gt;RFC4881</title>
<path fill="none" stroke="black" d="M840.58,-546.02C842.98,-548.66 845.12,-551.55 846.72,-554.66 877.56,-614.27 828.93,-803.95 871.72,-855.66 879.32,-864.84 888.48,-872.38 898.57,-878.57"/>
<polygon fill="black" stroke="black" points="896.76,-881.56 907.2,-883.36 900.16,-875.44 896.76,-881.56"/>
</g>
<!-- RFC4068 -->
<g id="node9" class="node">
<title>RFC4068</title>
<g id="a_node9"><a xlink:href="RFC4068.html" xlink:title="Mobile IPv6 enables a Mobile Node to maintain its connectivity to the Internet when moving from one Access Router to another, a process referred to as handover. &#160;During handover, there is a period during which the Mobile Node is unable to send or receive packets because of link switching delay and IP protocol operations. &#160;This handover latency resulting from standard Mobile IPv6 procedures, namely movement detection, new Care of Address configuration, and Binding Update, is often unacceptable to real&#45;time traffic such as Voice over IP. &#160;Reducing the handover latency could be beneficial to non&#45;real&#45;time, throughput&#45;sensitive applications as well. &#160;This document specifies a protocol to improve handover latency due to Mobile IPv6 procedures. &#160;This document does not address improving the link switching latency. &#160;This memo defines an Experimental Protocol for the Internet community." target="_top">
<ellipse fill="none" stroke="black" cx="1049.03" cy="-805.66" rx="136.47" ry="40.66"/>
<text xml:space="preserve" text-anchor="middle" x="1049.03" y="-817.11" font-family="Times,serif" font-size="14.00">RFC4068</text>
<text xml:space="preserve" text-anchor="middle" x="1049.03" y="-800.61" font-family="Times,serif" font-size="14.00">Fast Handovers for Mobile IPv6</text>
<text xml:space="preserve" text-anchor="middle" x="1049.03" y="-784.11" font-family="Times,serif" font-size="14.00">2005</text>
</a>
</g>
</g>
<!-- cites&#45;&gt;RFC4068 -->
<g id="edge8" class="edge">
<title>cites&#45;&gt;RFC4068</title>
<path fill="none" stroke="black" d="M840.45,-546.08C842.88,-548.72 845.05,-551.59 846.72,-554.66 889.71,-633.75 813.11,-687.34 871.72,-755.66 882.77,-768.53 896.86,-778.21 912.26,-785.47"/>
<polygon fill="black" stroke="black" points="910.58,-788.56 921.15,-789.3 913.35,-782.13 910.58,-788.56"/>
</g>
<!-- RFC2461 -->
<g id="node10" class="node">
<title>RFC2461</title>
<g id="a_node10"><a xlink:href="RFC2461.html" xlink:title="This document specifies the Neighbor Discovery protocol for IP Version 6. [STANDARDS&#45;TRACK]" target="_top">
<ellipse fill="none" stroke="black" cx="1049.03" cy="-694.66" rx="152.91" ry="52.33"/>
<text xml:space="preserve" text-anchor="middle" x="1049.03" y="-714.36" font-family="Times,serif" font-size="14.00">RFC2461</text>
<text xml:space="preserve" text-anchor="middle" x="1049.03" y="-697.86" font-family="Times,serif" font-size="14.00">Neighbor Discovery for IP Version 6</text>
<text xml:space="preserve" text-anchor="middle" x="1049.03" y="-681.36" font-family="Times,serif" font-size="14.00">(IPv6)</text>
<text xml:space="preserve" text-anchor="middle" x="1049.03" y="-664.86" font-family="Times,serif" font-size="14.00">1998</text>
</a>
</g>
</g>
<!-- cites&#45;&gt;RFC2461 -->
<g id="edge9" class="edge">
<title>cites&#45;&gt;RFC2461</title>
<path fill="none" stroke="black" d="M839.59,-546.09C842.24,-548.75 844.7,-551.63 846.72,-554.66 867.19,-585.28 846.03,-607.27 871.72,-633.66 882.54,-644.77 895.48,-653.86 909.37,-661.29"/>
<polygon fill="black" stroke="black" points="907.77,-664.4 918.28,-665.74 910.9,-658.14 907.77,-664.4"/>
</g>
<!-- RFC2462 -->
<g id="node11" class="node">
<title>RFC2462</title>
<g id="a_node11"><a xlink:href="RFC2462.html" xlink:title="This document specifies the steps a host takes in deciding how to autoconfigure its interfaces in IP version 6. [STANDARDS&#45;TRACK]" target="_top">
<ellipse fill="none" stroke="black" cx="1049.03" cy="-583.66" rx="171.47" ry="40.66"/>
<text xml:space="preserve" text-anchor="middle" x="1049.03" y="-595.11" font-family="Times,serif" font-size="14.00">RFC2462</text>
<text xml:space="preserve" text-anchor="middle" x="1049.03" y="-578.61" font-family="Times,serif" font-size="14.00">IPv6 Stateless Address Autoconfiguration</text>
<text xml:space="preserve" text-anchor="middle" x="1049.03" y="-562.11" font-family="Times,serif" font-size="14.00">1998</text>
</a>
</g>
</g>
<!-- cites&#45;&gt;RFC2462 -->
<g id="edge10" class="edge">
<title>cites&#45;&gt;RFC2462</title>
<path fill="none" stroke="black" d="M840.92,-533.97C860.06,-538.56 887.55,-545.16 916.28,-552.05"/>
<polygon fill="black" stroke="black" points="915.32,-555.42 925.86,-554.35 916.95,-548.61 915.32,-555.42"/>
</g>
<!-- RFC3315 -->
<g id="node12" class="node">
<title>RFC3315</title>
<g id="a_node12"><a xlink:href="RFC3315.html" xlink:title="None" target="_top">
<ellipse fill="none" stroke="black" cx="1049.03" cy="-472.66" rx="172.53" ry="52.33"/>
<text xml:space="preserve" text-anchor="middle" x="1049.03" y="-492.36" font-family="Times,serif" font-size="14.00">RFC3315</text>
<text xml:space="preserve" text-anchor="middle" x="1049.03" y="-475.86" font-family="Times,serif" font-size="14.00">Dynamic Host Configuration Protocol for</text>
<text xml:space="preserve" text-anchor="middle" x="1049.03" y="-459.36" font-family="Times,serif" font-size="14.00">IPv6 (DHCPv6)</text>
<text xml:space="preserve" text-anchor="middle" x="1049.03" y="-442.86" font-family="Times,serif" font-size="14.00">2003</text>
</a>
</g>
</g>
<!-- cites&#45;&gt;RFC3315 -->
<g id="edge11" class="edge">
<title>cites&#45;&gt;RFC3315</title>
<path fill="none" stroke="black" d="M840.92,-521.46C856.57,-517.77 877.8,-512.77 900.72,-507.37"/>
<polygon fill="black" stroke="black" points="901.32,-510.82 910.25,-505.12 899.72,-504.01 901.32,-510.82"/>
</g>
<!-- RFC1661 -->
<g id="node13" class="node">
<title>RFC1661</title>
<g id="a_node13"><a xlink:href="RFC1661.html" xlink:title="This document defines the PPP organization and methodology, and the PPP encapsulation, together with an extensible option negotiation mechanism which is able to negotiate a rich assortment of configuration parameters and provides additional management functions. [STANDARDS&#45;TRACK]" target="_top">
<ellipse fill="none" stroke="black" cx="1049.03" cy="-361.66" rx="142.84" ry="40.66"/>
<text xml:space="preserve" text-anchor="middle" x="1049.03" y="-373.11" font-family="Times,serif" font-size="14.00">RFC1661</text>
<text xml:space="preserve" text-anchor="middle" x="1049.03" y="-356.61" font-family="Times,serif" font-size="14.00">The Point&#45;to&#45;Point Protocol (PPP)</text>
<text xml:space="preserve" text-anchor="middle" x="1049.03" y="-340.11" font-family="Times,serif" font-size="14.00">1994</text>
</a>
</g>
</g>
<!-- cites&#45;&gt;RFC1661 -->
<g id="edge12" class="edge">
<title>cites&#45;&gt;RFC1661</title>
<path fill="none" stroke="black" d="M818.62,-509.47C825.23,-483.85 840.86,-437.38 871.72,-411.66 884.46,-401.05 899.31,-392.69 914.88,-386.1"/>
<polygon fill="black" stroke="black" points="915.79,-389.5 923.81,-382.57 913.22,-382.99 915.79,-389.5"/>
</g>
<!-- RFC1332 -->
<g id="node14" class="node">
<title>RFC1332</title>
<g id="a_node14"><a xlink:href="RFC1332.html" xlink:title="The Point&#45;to&#45;Point Protocol (PPP) [1] provides a standard method of encapsulating Network Layer protocol information over point&#45;to&#45;point links. &#160;PPP also defines an extensible Link Control Protocol, and proposes a family of Network Control Protocols (NCPs) for establishing and configuring different network&#45;layer protocols. [STANDARDS&#45;TRACK]" target="_top">
<ellipse fill="none" stroke="black" cx="1049.03" cy="-250.66" rx="143.37" ry="52.33"/>
<text xml:space="preserve" text-anchor="middle" x="1049.03" y="-270.36" font-family="Times,serif" font-size="14.00">RFC1332</text>
<text xml:space="preserve" text-anchor="middle" x="1049.03" y="-253.86" font-family="Times,serif" font-size="14.00">The PPP Internet Protocol Control</text>
<text xml:space="preserve" text-anchor="middle" x="1049.03" y="-237.36" font-family="Times,serif" font-size="14.00">Protocol (IPCP)</text>
<text xml:space="preserve" text-anchor="middle" x="1049.03" y="-220.86" font-family="Times,serif" font-size="14.00">1992</text>
</a>
</g>
</g>
<!-- cites&#45;&gt;RFC1332 -->
<g id="edge13" class="edge">
<title>cites&#45;&gt;RFC1332</title>
<path fill="none" stroke="black" d="M814.03,-509.34C813.77,-468.37 818.95,-368.52 871.72,-311.66 883.38,-299.1 897.75,-289.12 913.22,-281.2"/>
<polygon fill="black" stroke="black" points="914.63,-284.4 922.15,-276.94 911.62,-278.09 914.63,-284.4"/>
</g>
<!-- RFC2472 -->
<g id="node15" class="node">
<title>RFC2472</title>
<g id="a_node15"><a xlink:href="RFC2472.html" xlink:title="This document defines the method for transmission of IP Version 6 packets over PPP links as well as the Network Control Protocol (NCP) for establishing and configuring the IPv6 over PPP. &#160;It also specifies the method of forming IPv6 link&#45;local addresses on PPP links. [STANDARDS&#45;TRACK]" target="_top">
<ellipse fill="none" stroke="black" cx="1049.03" cy="-139.66" rx="96.7" ry="40.66"/>
<text xml:space="preserve" text-anchor="middle" x="1049.03" y="-151.11" font-family="Times,serif" font-size="14.00">RFC2472</text>
<text xml:space="preserve" text-anchor="middle" x="1049.03" y="-134.61" font-family="Times,serif" font-size="14.00">IP Version 6 over PPP</text>
<text xml:space="preserve" text-anchor="middle" x="1049.03" y="-118.11" font-family="Times,serif" font-size="14.00">1998</text>
</a>
</g>
</g>
<!-- cites&#45;&gt;RFC2472 -->
<g id="edge14" class="edge">
<title>cites&#45;&gt;RFC2472</title>
<path fill="none" stroke="black" d="M815.19,-509.43C817.6,-446.2 828.72,-237.62 871.72,-189.66 890.11,-169.15 916.23,-156.8 942.74,-149.42"/>
<polygon fill="black" stroke="black" points="943.39,-152.87 952.23,-147.02 941.68,-146.08 943.39,-152.87"/>
</g>
<!-- RFC3971 -->
<g id="node16" class="node">
<title>RFC3971</title>
<g id="a_node16"><a xlink:href="RFC3971.html" xlink:title="IPv6 nodes use the Neighbor Discovery Protocol (NDP) to discover other nodes on the link, to determine their link&#45;layer addresses to find routers, and to maintain reachability information about the paths to active neighbors. &#160;If not secured, NDP is vulnerable to various attacks. &#160;This document specifies security mechanisms for NDP. &#160;Unlike those in the original NDP specifications, these mechanisms do not use IPsec. [STANDARDS&#45;TRACK]" target="_top">
<ellipse fill="none" stroke="black" cx="1049.03" cy="-40.66" rx="153.44" ry="40.66"/>
<text xml:space="preserve" text-anchor="middle" x="1049.03" y="-52.11" font-family="Times,serif" font-size="14.00">RFC3971</text>
<text xml:space="preserve" text-anchor="middle" x="1049.03" y="-35.61" font-family="Times,serif" font-size="14.00">SEcure Neighbor Discovery (SEND)</text>
<text xml:space="preserve" text-anchor="middle" x="1049.03" y="-19.11" font-family="Times,serif" font-size="14.00">2005</text>
</a>
</g>
</g>
<!-- cites&#45;&gt;RFC3971 -->
<g id="edge15" class="edge">
<title>cites&#45;&gt;RFC3971</title>
<path fill="none" stroke="black" d="M814.4,-509.18C813.96,-434.21 816.13,-153.73 871.72,-89.66 880.51,-79.54 891.19,-71.42 902.89,-64.92"/>
<polygon fill="black" stroke="black" points="904.25,-68.15 911.6,-60.52 901.1,-61.91 904.25,-68.15"/>
</g>
<!-- rev_cites -->
<g id="node17" class="node">
<title>rev_cites</title>
<polygon fill="lightblue" stroke="black" points="432.31,-545.66 378.31,-545.66 378.31,-509.66 432.31,-509.66 432.31,-545.66"/>
<text xml:space="preserve" text-anchor="middle" x="405.31" y="-522.61" font-family="Times,serif" font-size="14.00">cites</text>
</g>
<!-- rev_cites&#45;&gt;RFC4957 -->
<g id="edge16" class="edge">
<title>rev_cites&#45;&gt;RFC4957</title>
<path fill="none" stroke="black" d="M432.74,-534.72C445.74,-538.19 462.46,-542.66 480.41,-547.45"/>
<polygon fill="black" stroke="black" points="479.38,-550.8 489.95,-550 481.19,-544.04 479.38,-550.8"/>
</g>
<!-- RFC6059 -->
<g id="node18" class="node">
<title>RFC6059</title>
<g id="a_node18"><a xlink:href="RFC6059.html" xlink:title="Detecting Network Attachment allows hosts to assess if its existing addressing or routing configuration is valid for a newly connected network. &#160;This document provides simple procedures for Detecting Network Attachment in IPv6 hosts, and procedures for routers to support such services. [STANDARDS&#45;TRACK]" target="_top">
<ellipse fill="none" stroke="black" cx="173.59" cy="-706.66" rx="173.59" ry="52.33"/>
<text xml:space="preserve" text-anchor="middle" x="173.59" y="-726.36" font-family="Times,serif" font-size="14.00">RFC6059</text>
<text xml:space="preserve" text-anchor="middle" x="173.59" y="-709.86" font-family="Times,serif" font-size="14.00">Simple Procedures for Detecting Network</text>
<text xml:space="preserve" text-anchor="middle" x="173.59" y="-693.36" font-family="Times,serif" font-size="14.00">Attachment in IPv6</text>
<text xml:space="preserve" text-anchor="middle" x="173.59" y="-676.86" font-family="Times,serif" font-size="14.00">2010</text>
</a>
</g>
</g>
<!-- RFC6059&#45;&gt;rev_cites -->
<g id="edge17" class="edge">
<title>RFC6059&#45;&gt;rev_cites</title>
<path fill="none" stroke="black" d="M308.97,-673.49C323.17,-665.8 336.36,-656.32 347.19,-644.66 373.34,-616.5 353.26,-593.27 373.52,-555.42"/>
<polygon fill="black" stroke="black" points="376.24,-557.68 378.43,-547.31 370.25,-554.05 376.24,-557.68"/>
</g>
<!-- RFC7227 -->
<g id="node19" class="node">
<title>RFC7227</title>
<g id="a_node19"><a xlink:href="RFC7227.html" xlink:title="This document provides guidance to prospective DHCPv6 option developers to help them create option formats that are easily adoptable by existing DHCPv6 software. &#160;It also provides guidelines for expert reviewers to evaluate new registrations. &#160;This document updates RFC 3315." target="_top">
<ellipse fill="none" stroke="black" cx="173.59" cy="-583.66" rx="160.34" ry="52.33"/>
<text xml:space="preserve" text-anchor="middle" x="173.59" y="-603.36" font-family="Times,serif" font-size="14.00">RFC7227</text>
<text xml:space="preserve" text-anchor="middle" x="173.59" y="-586.86" font-family="Times,serif" font-size="14.00">Guidelines for Creating New DHCPv6</text>
<text xml:space="preserve" text-anchor="middle" x="173.59" y="-570.36" font-family="Times,serif" font-size="14.00">Options</text>
<text xml:space="preserve" text-anchor="middle" x="173.59" y="-553.86" font-family="Times,serif" font-size="14.00">2014</text>
</a>
</g>
</g>
<!-- RFC7227&#45;&gt;rev_cites -->
<g id="edge18" class="edge">
<title>RFC7227&#45;&gt;rev_cites</title>
<path fill="none" stroke="black" d="M302.89,-552.38C326.32,-546.67 349.01,-541.14 366.95,-536.77"/>
<polygon fill="black" stroke="black" points="367.67,-540.19 376.56,-534.43 366.01,-533.39 367.67,-540.19"/>
</g>
<!-- RFC8925 -->
<g id="node20" class="node">
<title>RFC8925</title>
<g id="a_node20"><a xlink:href="RFC8925.html" xlink:title="This document specifies a DHCPv4 option to indicate that a host supports an IPv6&#45;only mode and is willing to forgo obtaining an IPv4 address if the network provides IPv6 connectivity. &#160;It also updates RFC 2563 to specify DHCPv4 server behavior when the server receives a DHCPDISCOVER not containing the Auto&#45;Configure option but containing the new option defined in this document." target="_top">
<ellipse fill="none" stroke="black" cx="173.59" cy="-472.66" rx="170.41" ry="40.66"/>
<text xml:space="preserve" text-anchor="middle" x="173.59" y="-484.11" font-family="Times,serif" font-size="14.00">RFC8925</text>
<text xml:space="preserve" text-anchor="middle" x="173.59" y="-467.61" font-family="Times,serif" font-size="14.00">IPv6&#45;Only Preferred Option for DHCPv4</text>
<text xml:space="preserve" text-anchor="middle" x="173.59" y="-451.11" font-family="Times,serif" font-size="14.00">2020</text>
</a>
</g>
</g>
<!-- RFC8925&#45;&gt;rev_cites -->
<g id="edge19" class="edge">
<title>RFC8925&#45;&gt;rev_cites</title>
<path fill="none" stroke="black" d="M295.17,-501.53C321.25,-507.77 346.94,-513.92 366.83,-518.68"/>
<polygon fill="black" stroke="black" points="365.82,-522.04 376.36,-520.97 367.45,-515.23 365.82,-522.04"/>
</g>
<!-- RFC9816 -->
<g id="node21" class="node">
<title>RFC9816</title>
<g id="a_node21"><a xlink:href="RFC9816.html" xlink:title="This document discusses the usage and applicability of BGP Link State (BGP&#45;LS) Shortest Path First (SPF) extensions in data center networks utilizing Clos or Fat Tree topologies. &#160;The document is intended to provide simplified guidance for the deployment of BGP&#45;LS SPF extensions." target="_top">
<ellipse fill="none" stroke="black" cx="173.59" cy="-349.66" rx="170.94" ry="63.99"/>
<text xml:space="preserve" text-anchor="middle" x="173.59" y="-377.61" font-family="Times,serif" font-size="14.00">RFC9816</text>
<text xml:space="preserve" text-anchor="middle" x="173.59" y="-361.11" font-family="Times,serif" font-size="14.00">Usage and Applicability of BGP Link</text>
<text xml:space="preserve" text-anchor="middle" x="173.59" y="-344.61" font-family="Times,serif" font-size="14.00">State (BGP&#45;LS) Shortest Path First (SPF)</text>
<text xml:space="preserve" text-anchor="middle" x="173.59" y="-328.11" font-family="Times,serif" font-size="14.00">Routing in Data Centers</text>
<text xml:space="preserve" text-anchor="middle" x="173.59" y="-311.61" font-family="Times,serif" font-size="14.00">2025</text>
</a>
</g>
</g>
<!-- RFC9816&#45;&gt;rev_cites -->
<g id="edge20" class="edge">
<title>RFC9816&#45;&gt;rev_cites</title>
<path fill="none" stroke="black" d="M302.63,-392.01C318.69,-400.6 334.05,-410.75 347.19,-422.66 370.05,-443.38 385.62,-475.45 394.67,-498.69"/>
<polygon fill="black" stroke="black" points="391.31,-499.72 398.06,-507.89 397.88,-497.29 391.31,-499.72"/>
</g>
</g>
</svg>
