<?xml version="1.0" encoding="UTF-8" standalone="no"?>
<!DOCTYPE svg PUBLIC "-//W3C//DTD SVG 1.1//EN"
 "http://www.w3.org/Graphics/SVG/1.1/DTD/svg11.dtd">
<!-- Generated by graphviz version 14.1.1 (20251213.1925)
 -->
<!-- Title: Flow Pages: 1 -->
<svg width="1303pt" height="971pt"
 viewBox="0.00 0.00 1303.00 971.00" xmlns="http://www.w3.org/2000/svg" xmlns:xlink="http://www.w3.org/1999/xlink">
<g id="graph0" class="graph" transform="scale(1 1) rotate(0) translate(4 966.65)">
<title>Flow</title>
<polygon fill="white" stroke="none" points="-4,4 -4,-966.65 1299.28,-966.65 1299.28,4 -4,4"/>
<!-- RFC4716 -->
<g id="node1" class="node">
<title>RFC4716</title>
<g id="a_node1"><a xlink:title="This document formally documents an existing public key file format in use for exchanging public keys between different Secure Shell (SSH) implementations. In addition, this document defines a standard textual representation for SSH public key fingerprints. This memo provides information for the Internet community.">
<ellipse fill="none" stroke="black" cx="664.08" cy="-506.33" rx="166.7" ry="52.33"/>
<text xml:space="preserve" text-anchor="middle" x="664.08" y="-526.03" font-family="Times,serif" font-size="14.00">RFC4716</text>
<text xml:space="preserve" text-anchor="middle" x="664.08" y="-509.53" font-family="Times,serif" font-size="14.00">The Secure Shell (SSH) Public Key File</text>
<text xml:space="preserve" text-anchor="middle" x="664.08" y="-493.03" font-family="Times,serif" font-size="14.00">Format</text>
<text xml:space="preserve" text-anchor="middle" x="664.08" y="-476.53" font-family="Times,serif" font-size="14.00">2006</text>
</a>
</g>
</g>
<!-- obs -->
<g id="node3" class="node">
<title>obs</title>
<polygon fill="none" stroke="black" points="922.03,-578.33 855.78,-578.33 855.78,-542.33 922.03,-542.33 922.03,-578.33"/>
<text xml:space="preserve" text-anchor="middle" x="888.91" y="-555.28" font-family="Times,serif" font-size="14.00">obsoletes</text>
</g>
<!-- RFC4716&#45;&gt;obs -->
<g id="edge2" class="edge">
<title>RFC4716&#45;&gt;obs</title>
<path fill="none" stroke="black" d="M796.95,-538.28C814.16,-542.45 830.68,-546.46 844.82,-549.88"/>
<polygon fill="black" stroke="black" points="843.6,-553.19 854.14,-552.14 845.25,-546.39 843.6,-553.19"/>
</g>
<!-- updates -->
<g id="node4" class="node">
<title>updates</title>
<polygon fill="none" stroke="black" points="917.53,-524.33 860.28,-524.33 860.28,-488.33 917.53,-488.33 917.53,-524.33"/>
<text xml:space="preserve" text-anchor="middle" x="888.91" y="-501.28" font-family="Times,serif" font-size="14.00">updates</text>
</g>
<!-- RFC4716&#45;&gt;updates -->
<g id="edge3" class="edge">
<title>RFC4716&#45;&gt;updates</title>
<path fill="none" stroke="black" d="M831.1,-506.33C837.27,-506.33 843.15,-506.33 848.61,-506.33"/>
<polygon fill="black" stroke="black" points="848.38,-509.83 858.38,-506.33 848.38,-502.83 848.38,-509.83"/>
</g>
<!-- cites -->
<g id="node7" class="node">
<title>cites</title>
<polygon fill="none" stroke="black" points="915.91,-470.33 861.91,-470.33 861.91,-434.33 915.91,-434.33 915.91,-470.33"/>
<text xml:space="preserve" text-anchor="middle" x="888.91" y="-447.28" font-family="Times,serif" font-size="14.00">cites</text>
</g>
<!-- RFC4716&#45;&gt;cites -->
<g id="edge6" class="edge">
<title>RFC4716&#45;&gt;cites</title>
<path fill="none" stroke="black" d="M796.95,-474.37C816.57,-469.61 835.31,-465.07 850.63,-461.36"/>
<polygon fill="black" stroke="black" points="851.27,-464.81 860.17,-459.05 849.62,-458 851.27,-464.81"/>
</g>
<!-- obs_by -->
<g id="node2" class="node">
<title>obs_by</title>
<polygon fill="none" stroke="black" points="472.38,-578.33 406.13,-578.33 406.13,-542.33 472.38,-542.33 472.38,-578.33"/>
<text xml:space="preserve" text-anchor="middle" x="439.26" y="-555.28" font-family="Times,serif" font-size="14.00">obsoletes</text>
</g>
<!-- obs_by&#45;&gt;RFC4716 -->
<g id="edge1" class="edge">
<title>obs_by&#45;&gt;RFC4716</title>
<path fill="none" stroke="black" d="M472.66,-552.47C486.05,-549.23 502.58,-545.22 520.27,-540.94"/>
<polygon fill="black" stroke="black" points="521.04,-544.35 529.94,-538.59 519.39,-537.55 521.04,-544.35"/>
</g>
<!-- updated_by -->
<g id="node5" class="node">
<title>updated_by</title>
<polygon fill="none" stroke="black" points="467.88,-524.33 410.63,-524.33 410.63,-488.33 467.88,-488.33 467.88,-524.33"/>
<text xml:space="preserve" text-anchor="middle" x="439.26" y="-501.28" font-family="Times,serif" font-size="14.00">updates</text>
</g>
<!-- updated_by&#45;&gt;RFC4716 -->
<g id="edge4" class="edge">
<title>updated_by&#45;&gt;RFC4716</title>
<path fill="none" stroke="black" d="M468.03,-506.33C473.41,-506.33 479.4,-506.33 485.86,-506.33"/>
<polygon fill="black" stroke="black" points="485.61,-509.83 495.61,-506.33 485.61,-502.83 485.61,-509.83"/>
</g>
<!-- RFC9519 -->
<g id="node6" class="node">
<title>RFC9519</title>
<g id="a_node6"><a xlink:href="RFC9519.html" xlink:title="This specification updates the registration policies for adding new entries to registries within the IANA Secure Shell (SSH) Protocol Parameters group of registries. &#160;Previously, the registration policy was generally IETF Review, as defined in RFC 8126, although a few registries require Standards Action. &#160;This specification changes it from IETF Review to Expert Review. &#160;This document updates RFCs 4250, 4716, 4819, and 8308." target="_top">
<ellipse fill="none" stroke="black" cx="190.57" cy="-529.33" rx="145.49" ry="52.33"/>
<text xml:space="preserve" text-anchor="middle" x="190.57" y="-549.03" font-family="Times,serif" font-size="14.00">RFC9519</text>
<text xml:space="preserve" text-anchor="middle" x="190.57" y="-532.53" font-family="Times,serif" font-size="14.00">Update to the IANA SSH Protocol</text>
<text xml:space="preserve" text-anchor="middle" x="190.57" y="-516.03" font-family="Times,serif" font-size="14.00">Parameters Registry Requirements</text>
<text xml:space="preserve" text-anchor="middle" x="190.57" y="-499.53" font-family="Times,serif" font-size="14.00">2024</text>
</a>
</g>
</g>
<!-- RFC9519&#45;&gt;updated_by -->
<g id="edge5" class="edge">
<title>RFC9519&#45;&gt;updated_by</title>
<path fill="none" stroke="black" d="M331.85,-516.25C356.52,-513.95 380.28,-511.73 399.06,-509.98"/>
<polygon fill="black" stroke="black" points="399.22,-513.48 408.85,-509.07 398.57,-506.51 399.22,-513.48"/>
</g>
<!-- rev_cites -->
<g id="node16" class="node">
<title>rev_cites</title>
<polygon fill="none" stroke="black" points="466.26,-447.33 412.26,-447.33 412.26,-411.33 466.26,-411.33 466.26,-447.33"/>
<text xml:space="preserve" text-anchor="middle" x="439.26" y="-424.28" font-family="Times,serif" font-size="14.00">cites</text>
</g>
<!-- RFC9519&#45;&gt;rev_cites -->
<g id="edge18" class="edge">
<title>RFC9519&#45;&gt;rev_cites</title>
<path fill="none" stroke="black" d="M307.68,-497.81C332.45,-489.48 358.07,-479.61 381.13,-468.33 389.32,-464.32 397.68,-459.25 405.38,-454.12"/>
<polygon fill="black" stroke="black" points="407.26,-457.07 413.49,-448.5 403.28,-451.32 407.26,-457.07"/>
</g>
<!-- RFC2119 -->
<g id="node8" class="node">
<title>RFC2119</title>
<g id="a_node8"><a xlink:href="RFC2119.html" xlink:title="In many standards track documents several words are used to signify the requirements in the specification. &#160;These words are often capitalized. &#160;This document defines these words as they should be interpreted in IETF documents. &#160;This document specifies an Internet Best Current Practices for the Internet Community, and requests discussion and suggestions for improvements." target="_top">
<ellipse fill="none" stroke="black" cx="1121.16" cy="-910.33" rx="160.34" ry="52.33"/>
<text xml:space="preserve" text-anchor="middle" x="1121.16" y="-930.03" font-family="Times,serif" font-size="14.00">RFC2119</text>
<text xml:space="preserve" text-anchor="middle" x="1121.16" y="-913.53" font-family="Times,serif" font-size="14.00">Key words for use in RFCs to Indicate</text>
<text xml:space="preserve" text-anchor="middle" x="1121.16" y="-897.03" font-family="Times,serif" font-size="14.00">Requirement Levels</text>
<text xml:space="preserve" text-anchor="middle" x="1121.16" y="-880.53" font-family="Times,serif" font-size="14.00">1997</text>
</a>
</g>
</g>
<!-- cites&#45;&gt;RFC2119 -->
<g id="edge7" class="edge">
<title>cites&#45;&gt;RFC2119</title>
<path fill="none" stroke="black" d="M915.93,-470.66C918.33,-473.31 920.45,-476.21 922.03,-479.33 959.24,-552.61 897.47,-782.76 947.03,-848.33 955.23,-859.17 965.49,-868.12 976.9,-875.51"/>
<polygon fill="black" stroke="black" points="975.05,-878.48 985.43,-880.58 978.62,-872.46 975.05,-878.48"/>
</g>
<!-- RFC3629 -->
<g id="node9" class="node">
<title>RFC3629</title>
<g id="a_node9"><a xlink:href="RFC3629.html" xlink:title="ISO/IEC 10646&#45;1 defines a large character set called the Universal Character Set (UCS) which encompasses most of the world&#39;s writing systems. &#160;The originally proposed encodings of the UCS, however, were not compatible with many current applications and protocols, and this has led to the development of UTF&#45;8, the object of this memo. &#160;UTF&#45;8 has the characteristic of preserving the full US&#45;ASCII range, providing compatibility with file systems, parsers and other software that rely on US&#45;ASCII values but are transparent to other values. &#160;This memo obsoletes and replaces RFC 2279." target="_top">
<ellipse fill="none" stroke="black" cx="1121.16" cy="-787.33" rx="163.52" ry="52.33"/>
<text xml:space="preserve" text-anchor="middle" x="1121.16" y="-807.03" font-family="Times,serif" font-size="14.00">RFC3629</text>
<text xml:space="preserve" text-anchor="middle" x="1121.16" y="-790.53" font-family="Times,serif" font-size="14.00">UTF&#45;8, a transformation format of ISO</text>
<text xml:space="preserve" text-anchor="middle" x="1121.16" y="-774.03" font-family="Times,serif" font-size="14.00">10646</text>
<text xml:space="preserve" text-anchor="middle" x="1121.16" y="-757.53" font-family="Times,serif" font-size="14.00">2003</text>
</a>
</g>
</g>
<!-- cites&#45;&gt;RFC3629 -->
<g id="edge8" class="edge">
<title>cites&#45;&gt;RFC3629</title>
<path fill="none" stroke="black" d="M915.83,-470.71C918.25,-473.35 920.4,-476.23 922.03,-479.33 947.82,-528.1 912.93,-682.96 947.03,-726.33 955.03,-736.5 964.85,-744.98 975.71,-752.04"/>
<polygon fill="black" stroke="black" points="973.82,-754.99 984.2,-757.12 977.41,-748.99 973.82,-754.99"/>
</g>
<!-- RFC2045 -->
<g id="node10" class="node">
<title>RFC2045</title>
<g id="a_node10"><a xlink:href="RFC2045.html" xlink:title="This initial document specifies the various headers used to describe the structure of MIME messages. [STANDARDS&#45;TRACK]" target="_top">
<ellipse fill="none" stroke="black" cx="1121.16" cy="-653.33" rx="161.4" ry="63.99"/>
<text xml:space="preserve" text-anchor="middle" x="1121.16" y="-681.28" font-family="Times,serif" font-size="14.00">RFC2045</text>
<text xml:space="preserve" text-anchor="middle" x="1121.16" y="-664.78" font-family="Times,serif" font-size="14.00">Multipurpose Internet Mail Extensions</text>
<text xml:space="preserve" text-anchor="middle" x="1121.16" y="-648.28" font-family="Times,serif" font-size="14.00">(MIME) Part One: Format of Internet</text>
<text xml:space="preserve" text-anchor="middle" x="1121.16" y="-631.78" font-family="Times,serif" font-size="14.00">Message Bodies</text>
<text xml:space="preserve" text-anchor="middle" x="1121.16" y="-615.28" font-family="Times,serif" font-size="14.00">1996</text>
</a>
</g>
</g>
<!-- cites&#45;&gt;RFC2045 -->
<g id="edge9" class="edge">
<title>cites&#45;&gt;RFC2045</title>
<path fill="none" stroke="black" d="M915.09,-470.63C917.71,-473.32 920.1,-476.23 922.03,-479.33 946.49,-518.57 916.99,-545.17 947.03,-580.33 956.66,-591.59 968.32,-601.15 980.99,-609.27"/>
<polygon fill="black" stroke="black" points="979.18,-612.27 989.56,-614.41 982.79,-606.27 979.18,-612.27"/>
</g>
<!-- RFC4253 -->
<g id="node11" class="node">
<title>RFC4253</title>
<g id="a_node11"><a xlink:href="RFC4253.html" xlink:title="The Secure Shell (SSH) is a protocol for secure remote login and other secure network services over an insecure network. This document describes the SSH transport layer protocol, which typically runs on top of TCP/IP. The protocol can be used as a basis for a number of secure network services. It provides strong encryption, server authentication, and integrity protection. It may also provide compression. Key exchange method, public key algorithm, symmetric encryption algorithm, message authentication algorithm, and hash algorithm are all negotiated. This document also describes the Diffie&#45;Hellman key exchange method and the minimal set of algorithms that are needed to implement the SSH transport layer protocol. [STANDARDS&#45;TRACK]" target="_top">
<ellipse fill="none" stroke="black" cx="1121.16" cy="-519.33" rx="167.76" ry="52.33"/>
<text xml:space="preserve" text-anchor="middle" x="1121.16" y="-539.03" font-family="Times,serif" font-size="14.00">RFC4253</text>
<text xml:space="preserve" text-anchor="middle" x="1121.16" y="-522.53" font-family="Times,serif" font-size="14.00">The Secure Shell (SSH) Transport Layer</text>
<text xml:space="preserve" text-anchor="middle" x="1121.16" y="-506.03" font-family="Times,serif" font-size="14.00">Protocol</text>
<text xml:space="preserve" text-anchor="middle" x="1121.16" y="-489.53" font-family="Times,serif" font-size="14.00">2006</text>
</a>
</g>
</g>
<!-- cites&#45;&gt;RFC4253 -->
<g id="edge10" class="edge">
<title>cites&#45;&gt;RFC4253</title>
<path fill="none" stroke="black" d="M916.32,-460.01C934.41,-465.28 959.92,-472.7 986.79,-480.52"/>
<polygon fill="black" stroke="black" points="985.52,-483.79 996.1,-483.23 987.47,-477.07 985.52,-483.79"/>
</g>
<!-- RFC1421 -->
<g id="node12" class="node">
<title>RFC1421</title>
<g id="a_node12"><a xlink:href="RFC1421.html" xlink:title="This document defines message encryption and authentication procedures, in order to provide privacy&#45;enhanced mail (PEM) services for electronic mail transfer in the Internet. [STANDARDS&#45;TRACK]" target="_top">
<ellipse fill="none" stroke="black" cx="1121.16" cy="-385.33" rx="174.13" ry="63.99"/>
<text xml:space="preserve" text-anchor="middle" x="1121.16" y="-413.28" font-family="Times,serif" font-size="14.00">RFC1421</text>
<text xml:space="preserve" text-anchor="middle" x="1121.16" y="-396.78" font-family="Times,serif" font-size="14.00">Privacy Enhancement for Internet</text>
<text xml:space="preserve" text-anchor="middle" x="1121.16" y="-380.28" font-family="Times,serif" font-size="14.00">Electronic Mail: Part I: Message</text>
<text xml:space="preserve" text-anchor="middle" x="1121.16" y="-363.78" font-family="Times,serif" font-size="14.00">Encryption and Authentication Procedures</text>
<text xml:space="preserve" text-anchor="middle" x="1121.16" y="-347.28" font-family="Times,serif" font-size="14.00">1993</text>
</a>
</g>
</g>
<!-- cites&#45;&gt;RFC1421 -->
<g id="edge11" class="edge">
<title>cites&#45;&gt;RFC1421</title>
<path fill="none" stroke="black" d="M916.32,-444.64C931.29,-440.28 951.35,-434.45 973.04,-428.13"/>
<polygon fill="black" stroke="black" points="973.74,-431.58 982.36,-425.42 971.78,-424.86 973.74,-431.58"/>
</g>
<!-- RFC2440 -->
<g id="node13" class="node">
<title>RFC2440</title>
<g id="a_node13"><a xlink:href="RFC2440.html" xlink:title="This document is maintained in order to publish all necessary information needed to develop interoperable applications based on the OpenPGP format. [STANDARDS&#45;TRACK]" target="_top">
<ellipse fill="none" stroke="black" cx="1121.16" cy="-262.33" rx="116.32" ry="40.66"/>
<text xml:space="preserve" text-anchor="middle" x="1121.16" y="-273.78" font-family="Times,serif" font-size="14.00">RFC2440</text>
<text xml:space="preserve" text-anchor="middle" x="1121.16" y="-257.28" font-family="Times,serif" font-size="14.00">OpenPGP Message Format</text>
<text xml:space="preserve" text-anchor="middle" x="1121.16" y="-240.78" font-family="Times,serif" font-size="14.00">1998</text>
</a>
</g>
</g>
<!-- cites&#45;&gt;RFC2440 -->
<g id="edge12" class="edge">
<title>cites&#45;&gt;RFC2440</title>
<path fill="none" stroke="black" d="M892.24,-433.97C897.02,-404.08 910.72,-344.97 947.03,-312.33 962.61,-298.32 981.89,-288.22 1001.86,-280.94"/>
<polygon fill="black" stroke="black" points="1002.89,-284.29 1011.24,-277.77 1000.65,-277.66 1002.89,-284.29"/>
</g>
<!-- RFC1321 -->
<g id="node14" class="node">
<title>RFC1321</title>
<g id="a_node14"><a xlink:href="RFC1321.html" xlink:title="This document describes the MD5 message&#45;digest algorithm. &#160;The algorithm takes as input a message of arbitrary length and produces as output a 128&#45;bit fingerprint or message digest of the input. &#160;This memo provides information for the Internet community. &#160;It does not specify an Internet standard." target="_top">
<ellipse fill="none" stroke="black" cx="1121.16" cy="-163.33" rx="156.62" ry="40.66"/>
<text xml:space="preserve" text-anchor="middle" x="1121.16" y="-174.78" font-family="Times,serif" font-size="14.00">RFC1321</text>
<text xml:space="preserve" text-anchor="middle" x="1121.16" y="-158.28" font-family="Times,serif" font-size="14.00">The MD5 Message&#45;Digest Algorithm</text>
<text xml:space="preserve" text-anchor="middle" x="1121.16" y="-141.78" font-family="Times,serif" font-size="14.00">1992</text>
</a>
</g>
</g>
<!-- cites&#45;&gt;RFC1321 -->
<g id="edge13" class="edge">
<title>cites&#45;&gt;RFC1321</title>
<path fill="none" stroke="black" d="M891.89,-433.93C897.67,-383.49 916.13,-244.56 947.03,-212.33 955.81,-203.17 966.16,-195.69 977.36,-189.57"/>
<polygon fill="black" stroke="black" points="978.67,-192.83 986.05,-185.22 975.54,-186.57 978.67,-192.83"/>
</g>
<!-- RFC2434 -->
<g id="node15" class="node">
<title>RFC2434</title>
<g id="a_node15"><a xlink:href="RFC2434.html" xlink:title="This document discusses issues that should be considered in formulating a policy for assigning values to a name space and provides guidelines to document authors on the specific text that must be included in documents that place demands on the IANA. &#160;This document specifies an Internet Best Current Practices for the Internet Community, and requests discussion and suggestions for improvements." target="_top">
<ellipse fill="none" stroke="black" cx="1121.16" cy="-52.33" rx="136.47" ry="52.33"/>
<text xml:space="preserve" text-anchor="middle" x="1121.16" y="-72.03" font-family="Times,serif" font-size="14.00">RFC2434</text>
<text xml:space="preserve" text-anchor="middle" x="1121.16" y="-55.53" font-family="Times,serif" font-size="14.00">Guidelines for Writing an IANA</text>
<text xml:space="preserve" text-anchor="middle" x="1121.16" y="-39.03" font-family="Times,serif" font-size="14.00">Considerations Section in RFCs</text>
<text xml:space="preserve" text-anchor="middle" x="1121.16" y="-22.53" font-family="Times,serif" font-size="14.00">1998</text>
</a>
</g>
</g>
<!-- cites&#45;&gt;RFC2434 -->
<g id="edge14" class="edge">
<title>cites&#45;&gt;RFC2434</title>
<path fill="none" stroke="black" d="M890.6,-434.14C893.34,-371.04 905.44,-162.76 947.03,-113.33 958.5,-99.7 973.21,-89.11 989.21,-80.89"/>
<polygon fill="black" stroke="black" points="990.43,-84.18 997.95,-76.72 987.42,-77.86 990.43,-84.18"/>
</g>
<!-- rev_cites&#45;&gt;RFC4716 -->
<g id="edge15" class="edge">
<title>rev_cites&#45;&gt;RFC4716</title>
<path fill="none" stroke="black" d="M466.69,-438.46C485.55,-444.98 512.41,-454.26 540.23,-463.87"/>
<polygon fill="black" stroke="black" points="538.9,-467.12 549.49,-467.07 541.19,-460.5 538.9,-467.12"/>
</g>
<!-- RFC6594 -->
<g id="node17" class="node">
<title>RFC6594</title>
<g id="a_node17"><a xlink:href="RFC6594.html" xlink:title="This document updates the IANA registries in RFC 4255, which defines SSHFP, a DNS Resource Record (RR) that contains a standard Secure Shell (SSH) key fingerprint used to verify SSH host keys using DNS Security Extensions (DNSSEC). &#160;This document defines additional options supporting SSH public keys applying the Elliptic Curve Digital Signature Algorithm (ECDSA) and the implementation of fingerprints computed using the SHA&#45;256 message digest algorithm in SSHFP Resource Records. [STANDARDS&#45;TRACK]" target="_top">
<ellipse fill="none" stroke="black" cx="190.57" cy="-383.33" rx="176.25" ry="75.66"/>
<text xml:space="preserve" text-anchor="middle" x="190.57" y="-419.53" font-family="Times,serif" font-size="14.00">RFC6594</text>
<text xml:space="preserve" text-anchor="middle" x="190.57" y="-403.03" font-family="Times,serif" font-size="14.00">Use of the SHA&#45;256 Algorithm with RSA,</text>
<text xml:space="preserve" text-anchor="middle" x="190.57" y="-386.53" font-family="Times,serif" font-size="14.00">Digital Signature Algorithm (DSA), and</text>
<text xml:space="preserve" text-anchor="middle" x="190.57" y="-370.03" font-family="Times,serif" font-size="14.00">Elliptic Curve DSA (ECDSA) in SSHFP</text>
<text xml:space="preserve" text-anchor="middle" x="190.57" y="-353.53" font-family="Times,serif" font-size="14.00">Resource Records</text>
<text xml:space="preserve" text-anchor="middle" x="190.57" y="-337.03" font-family="Times,serif" font-size="14.00">2012</text>
</a>
</g>
</g>
<!-- RFC6594&#45;&gt;rev_cites -->
<g id="edge16" class="edge">
<title>RFC6594&#45;&gt;rev_cites</title>
<path fill="none" stroke="black" d="M352.67,-413.37C370.34,-416.66 386.88,-419.75 400.61,-422.31"/>
<polygon fill="black" stroke="black" points="399.95,-425.74 410.42,-424.14 401.24,-418.86 399.95,-425.74"/>
</g>
<!-- RFC7468 -->
<g id="node18" class="node">
<title>RFC7468</title>
<g id="a_node18"><a xlink:href="RFC7468.html" xlink:title="This document describes and discusses the textual encodings of the Public&#45;Key Infrastructure X.509 (PKIX), Public&#45;Key Cryptography Standards (PKCS), and Cryptographic Message Syntax (CMS). &#160;The textual encodings are well&#45;known, are implemented by several applications and libraries, and are widely deployed. &#160;This document articulates the de facto rules by which existing implementations operate and defines them so that future implementations can interoperate." target="_top">
<ellipse fill="none" stroke="black" cx="190.57" cy="-237.33" rx="190.57" ry="52.33"/>
<text xml:space="preserve" text-anchor="middle" x="190.57" y="-257.03" font-family="Times,serif" font-size="14.00">RFC7468</text>
<text xml:space="preserve" text-anchor="middle" x="190.57" y="-240.53" font-family="Times,serif" font-size="14.00">Textual Encodings of PKIX, PKCS, and CMS</text>
<text xml:space="preserve" text-anchor="middle" x="190.57" y="-224.03" font-family="Times,serif" font-size="14.00">Structures</text>
<text xml:space="preserve" text-anchor="middle" x="190.57" y="-207.53" font-family="Times,serif" font-size="14.00">2015</text>
</a>
</g>
</g>
<!-- RFC7468&#45;&gt;rev_cites -->
<g id="edge17" class="edge">
<title>RFC7468&#45;&gt;rev_cites</title>
<path fill="none" stroke="black" d="M338.79,-270.41C354.17,-277.9 368.7,-287.08 381.13,-298.33 410.85,-325.22 425.81,-370.34 432.8,-399.97"/>
<polygon fill="black" stroke="black" points="429.31,-400.37 434.86,-409.4 436.15,-398.88 429.31,-400.37"/>
</g>
</g>
</svg>
