<?xml version="1.0" encoding="UTF-8" standalone="no"?>
<!DOCTYPE svg PUBLIC "-//W3C//DTD SVG 1.1//EN"
 "http://www.w3.org/Graphics/SVG/1.1/DTD/svg11.dtd">
<!-- Generated by graphviz version 14.1.1 (20251213.1925)
 -->
<!-- Title: Flow Pages: 1 -->
<svg width="1384pt" height="982pt"
 viewBox="0.00 0.00 1384.00 982.00" xmlns="http://www.w3.org/2000/svg" xmlns:xlink="http://www.w3.org/1999/xlink">
<g id="graph0" class="graph" transform="scale(1 1) rotate(0) translate(4 977.73)">
<title>Flow</title>
<polygon fill="white" stroke="none" points="-4,4 -4,-977.73 1380.03,-977.73 1380.03,4 -4,4"/>
<!-- RFC4722 -->
<g id="node1" class="node">
<title>RFC4722</title>
<g id="a_node1"><a xlink:title="Media Server Control Markup Language (MSCML) is a markup language used in conjunction with SIP to provide advanced conferencing and interactive voice response (IVR) functions. &#160;MSCML presents an application&#45;level control model, as opposed to device&#45;level control models. &#160;One use of this protocol is for communications between a conference focus and mixer in the IETF SIP Conferencing Framework. &#160;This memo provides information for the Internet community.">
<ellipse fill="green" stroke="black" stroke-width="3" cx="951.72" cy="-504.03" rx="220.79" ry="65.05"/>
<text xml:space="preserve" text-anchor="middle" x="951.72" y="-528.93" font-family="Times,serif" font-size="18.00">RFC4722</text>
<text xml:space="preserve" text-anchor="middle" x="951.72" y="-507.93" font-family="Times,serif" font-size="18.00">Media Server Control Markup Language</text>
<text xml:space="preserve" text-anchor="middle" x="951.72" y="-486.93" font-family="Times,serif" font-size="18.00">(MSCML) and Protocol</text>
<text xml:space="preserve" text-anchor="middle" x="951.72" y="-465.93" font-family="Times,serif" font-size="18.00">2006</text>
</a>
</g>
</g>
<!-- obs -->
<g id="node4" class="node">
<title>obs</title>
<polygon fill="lightblue" stroke="black" points="1376.03,-747.88 1309.78,-747.88 1309.78,-711.88 1376.03,-711.88 1376.03,-747.88"/>
<text xml:space="preserve" text-anchor="middle" x="1342.91" y="-724.83" font-family="Times,serif" font-size="14.00">obsoletes</text>
</g>
<!-- RFC4722&#45;&gt;obs -->
<g id="edge3" class="edge">
<title>RFC4722&#45;&gt;obs</title>
<path fill="none" stroke="black" d="M1053.99,-563.07C1134.67,-609.65 1243.01,-672.2 1301.42,-705.93"/>
<polygon fill="black" stroke="black" points="1299.32,-708.76 1309.73,-710.72 1302.82,-702.69 1299.32,-708.76"/>
</g>
<!-- updates -->
<g id="node5" class="node">
<title>updates</title>
<polygon fill="lightyellow" stroke="black" points="980.35,-973.73 923.1,-973.73 923.1,-937.73 980.35,-937.73 980.35,-973.73"/>
<text xml:space="preserve" text-anchor="middle" x="951.72" y="-950.68" font-family="Times,serif" font-size="14.00">updates</text>
</g>
<!-- RFC4722&#45;&gt;updates -->
<g id="edge4" class="edge">
<title>RFC4722&#45;&gt;updates</title>
<path fill="none" stroke="black" d="M951.72,-570.19C951.72,-669.8 951.72,-854.25 951.72,-926.05"/>
<polygon fill="black" stroke="black" points="948.22,-925.83 951.72,-935.83 955.22,-925.83 948.22,-925.83"/>
</g>
<!-- cites -->
<g id="node7" class="node">
<title>cites</title>
<polygon fill="lightblue" stroke="black" points="587.54,-747.88 533.54,-747.88 533.54,-711.88 587.54,-711.88 587.54,-747.88"/>
<text xml:space="preserve" text-anchor="middle" x="560.54" y="-724.83" font-family="Times,serif" font-size="14.00">cites</text>
</g>
<!-- RFC4722&#45;&gt;cites -->
<g id="edge6" class="edge">
<title>RFC4722&#45;&gt;cites</title>
<path fill="none" stroke="black" d="M849.45,-563.07C766.6,-610.91 654.55,-675.6 597.4,-708.6"/>
<polygon fill="black" stroke="black" points="595.93,-705.4 589.02,-713.43 599.43,-711.46 595.93,-705.4"/>
</g>
<!-- obs_by -->
<g id="node2" class="node">
<title>obs_by</title>
<polygon fill="lightblue" stroke="black" points="593.66,-296.18 527.41,-296.18 527.41,-260.18 593.66,-260.18 593.66,-296.18"/>
<text xml:space="preserve" text-anchor="middle" x="560.54" y="-273.13" font-family="Times,serif" font-size="14.00">obsoletes</text>
</g>
<!-- obs_by&#45;&gt;RFC4722 -->
<g id="edge1" class="edge">
<title>obs_by&#45;&gt;RFC4722</title>
<path fill="none" stroke="black" d="M592.55,-296.66C645.91,-327.47 755.48,-390.73 839.65,-439.32"/>
<polygon fill="black" stroke="black" points="837.8,-442.29 848.21,-444.26 841.3,-436.23 837.8,-442.29"/>
</g>
<!-- RFC5022 -->
<g id="node3" class="node">
<title>RFC5022</title>
<g id="a_node3"><a xlink:href="RFC5022.html" xlink:title="Media Server Control Markup Language (MSCML) is a markup language used in conjunction with SIP to provide advanced conferencing and interactive voice response (IVR) functions. &#160;MSCML presents an application&#45;level control model, as opposed to device&#45;level control models. &#160;One use of this protocol is for communications between a conference focus and mixer in the IETF SIP Conferencing Framework. &#160;This memo provides information for the Internet community." target="_top">
<ellipse fill="none" stroke="black" cx="169.35" cy="-52.33" rx="169.35" ry="52.33"/>
<text xml:space="preserve" text-anchor="middle" x="169.35" y="-72.03" font-family="Times,serif" font-size="14.00">RFC5022</text>
<text xml:space="preserve" text-anchor="middle" x="169.35" y="-55.53" font-family="Times,serif" font-size="14.00">Media Server Control Markup Language</text>
<text xml:space="preserve" text-anchor="middle" x="169.35" y="-39.03" font-family="Times,serif" font-size="14.00">(MSCML) and Protocol</text>
<text xml:space="preserve" text-anchor="middle" x="169.35" y="-22.53" font-family="Times,serif" font-size="14.00">2007</text>
</a>
</g>
</g>
<!-- RFC5022&#45;&gt;obs_by -->
<g id="edge2" class="edge">
<title>RFC5022&#45;&gt;obs_by</title>
<path fill="none" stroke="black" d="M249.46,-98.58C331.15,-145.74 454.71,-217.07 518.75,-254.05"/>
<polygon fill="black" stroke="black" points="516.78,-256.95 527.19,-258.92 520.28,-250.89 516.78,-256.95"/>
</g>
<!-- updated_by -->
<g id="node6" class="node">
<title>updated_by</title>
<polygon fill="lightyellow" stroke="black" points="980.35,-70.33 923.1,-70.33 923.1,-34.33 980.35,-34.33 980.35,-70.33"/>
<text xml:space="preserve" text-anchor="middle" x="951.72" y="-47.28" font-family="Times,serif" font-size="14.00">updates</text>
</g>
<!-- updated_by&#45;&gt;RFC4722 -->
<g id="edge5" class="edge">
<title>updated_by&#45;&gt;RFC4722</title>
<path fill="none" stroke="black" d="M951.72,-70.59C951.72,-129.75 951.72,-318.51 951.72,-426.41"/>
<polygon fill="black" stroke="black" points="948.22,-426.36 951.72,-436.36 955.22,-426.36 948.22,-426.36"/>
</g>
<!-- rev_cites -->
<g id="node8" class="node">
<title>rev_cites</title>
<polygon fill="lightblue" stroke="black" points="1369.91,-296.18 1315.91,-296.18 1315.91,-260.18 1369.91,-260.18 1369.91,-296.18"/>
<text xml:space="preserve" text-anchor="middle" x="1342.91" y="-273.13" font-family="Times,serif" font-size="14.00">cites</text>
</g>
<!-- rev_cites&#45;&gt;RFC4722 -->
<g id="edge7" class="edge">
<title>rev_cites&#45;&gt;RFC4722</title>
<path fill="none" stroke="black" d="M1315.71,-293.88C1264.41,-323.5 1150.71,-389.14 1063.95,-439.24"/>
<polygon fill="black" stroke="black" points="1062.26,-436.17 1055.35,-444.2 1065.76,-442.23 1062.26,-436.17"/>
</g>
</g>
</svg>
