<?xml version="1.0" encoding="UTF-8" standalone="no"?>
<!DOCTYPE svg PUBLIC "-//W3C//DTD SVG 1.1//EN"
 "http://www.w3.org/Graphics/SVG/1.1/DTD/svg11.dtd">
<!-- Generated by graphviz version 14.1.1 (20251213.1925)
 -->
<!-- Title: Flow Pages: 1 -->
<svg width="846pt" height="255pt"
 viewBox="0.00 0.00 846.00 255.00" xmlns="http://www.w3.org/2000/svg" xmlns:xlink="http://www.w3.org/1999/xlink">
<g id="graph0" class="graph" transform="scale(1 1) rotate(0) translate(4 251.33)">
<title>Flow</title>
<polygon fill="white" stroke="none" points="-4,4 -4,-251.33 842.24,-251.33 842.24,4 -4,4"/>
<!-- RFC4238 -->
<g id="node1" class="node">
<title>RFC4238</title>
<g id="a_node1"><a xlink:title="Voice messaging is traditionally addressed using telephone number addressing. &#160;This document describes two techniques for routing voice messages based on a telephone number. &#160;The complete service uses the Voice Profile for Internet Mail (VPIM) Directory service to lookup a VPIM email address with a telephone number and confirm that the address is both valid and associated with the intended recipient. &#160;However, this service will take time to become widely deployed in the near term. &#160;This document also describes a basic send&#45;and&#45;pray service that routes and delivers messages using only the ENUM telephone number resolution service and the existing DNS mail routing facilities. [STANDARDS&#45;TRACK]">
<ellipse fill="green" stroke="black" cx="612.64" cy="-175.33" rx="134.35" ry="40.66"/>
<text xml:space="preserve" text-anchor="middle" x="612.64" y="-186.78" font-family="Times,serif" font-size="14.00">RFC4238</text>
<text xml:space="preserve" text-anchor="middle" x="612.64" y="-170.28" font-family="Times,serif" font-size="14.00">Voice Message Routing Service</text>
<text xml:space="preserve" text-anchor="middle" x="612.64" y="-153.78" font-family="Times,serif" font-size="14.00">2005</text>
</a>
</g>
</g>
<!-- obs -->
<g id="node3" class="node">
<title>obs</title>
<polygon fill="lightblue" stroke="black" points="838.24,-247.33 771.99,-247.33 771.99,-211.33 838.24,-211.33 838.24,-247.33"/>
<text xml:space="preserve" text-anchor="middle" x="805.11" y="-224.28" font-family="Times,serif" font-size="14.00">obsoletes</text>
</g>
<!-- RFC4238&#45;&gt;obs -->
<g id="edge2" class="edge">
<title>RFC4238&#45;&gt;obs</title>
<path fill="none" stroke="black" d="M711.67,-203.12C728.95,-208.02 746.12,-212.88 760.88,-217.07"/>
<polygon fill="black" stroke="black" points="759.63,-220.35 770.21,-219.71 761.54,-213.62 759.63,-220.35"/>
</g>
<!-- updates -->
<g id="node4" class="node">
<title>updates</title>
<polygon fill="lightyellow" stroke="black" points="833.74,-193.33 776.49,-193.33 776.49,-157.33 833.74,-157.33 833.74,-193.33"/>
<text xml:space="preserve" text-anchor="middle" x="805.11" y="-170.28" font-family="Times,serif" font-size="14.00">updates</text>
</g>
<!-- RFC4238&#45;&gt;updates -->
<g id="edge3" class="edge">
<title>RFC4238&#45;&gt;updates</title>
<path fill="none" stroke="black" d="M747.48,-175.33C753.58,-175.33 759.42,-175.33 764.88,-175.33"/>
<polygon fill="black" stroke="black" points="764.67,-178.83 774.67,-175.33 764.67,-171.83 764.67,-178.83"/>
</g>
<!-- cites -->
<g id="node7" class="node">
<title>cites</title>
<polygon fill="lightblue" stroke="black" points="832.11,-139.33 778.11,-139.33 778.11,-103.33 832.11,-103.33 832.11,-139.33"/>
<text xml:space="preserve" text-anchor="middle" x="805.11" y="-116.28" font-family="Times,serif" font-size="14.00">cites</text>
</g>
<!-- RFC4238&#45;&gt;cites -->
<g id="edge6" class="edge">
<title>RFC4238&#45;&gt;cites</title>
<path fill="none" stroke="black" d="M711.67,-147.53C731.32,-141.96 750.82,-136.43 766.81,-131.9"/>
<polygon fill="black" stroke="black" points="767.66,-135.3 776.33,-129.2 765.75,-128.56 767.66,-135.3"/>
</g>
<!-- obs_by -->
<g id="node2" class="node">
<title>obs_by</title>
<polygon fill="lightblue" stroke="black" points="453.29,-247.33 387.04,-247.33 387.04,-211.33 453.29,-211.33 453.29,-247.33"/>
<text xml:space="preserve" text-anchor="middle" x="420.16" y="-224.28" font-family="Times,serif" font-size="14.00">obsoletes</text>
</g>
<!-- obs_by&#45;&gt;RFC4238 -->
<g id="edge1" class="edge">
<title>obs_by&#45;&gt;RFC4238</title>
<path fill="none" stroke="black" d="M453.48,-220.17C467.43,-216.21 484.64,-211.33 502.53,-206.26"/>
<polygon fill="black" stroke="black" points="503.29,-209.68 511.96,-203.59 501.38,-202.95 503.29,-209.68"/>
</g>
<!-- updated_by -->
<g id="node5" class="node">
<title>updated_by</title>
<polygon fill="lightyellow" stroke="black" points="448.79,-193.33 391.54,-193.33 391.54,-157.33 448.79,-157.33 448.79,-193.33"/>
<text xml:space="preserve" text-anchor="middle" x="420.16" y="-170.28" font-family="Times,serif" font-size="14.00">updates</text>
</g>
<!-- updated_by&#45;&gt;RFC4238 -->
<g id="edge4" class="edge">
<title>updated_by&#45;&gt;RFC4238</title>
<path fill="none" stroke="black" d="M449.27,-175.33C454.64,-175.33 460.59,-175.33 466.94,-175.33"/>
<polygon fill="black" stroke="black" points="466.48,-178.83 476.48,-175.33 466.48,-171.83 466.48,-178.83"/>
</g>
<!-- RFC6118 -->
<g id="node6" class="node">
<title>RFC6118</title>
<g id="a_node6"><a xlink:href="RFC6118.html" xlink:title="This document revises all Enumservices that were IANA registered under the now obsolete specification of the Enumservice registry defined in RFC 3761. [STANDARDS&#45;TRACK]" target="_top">
<ellipse fill="none" stroke="black" cx="181.02" cy="-175.33" rx="169.88" ry="52.33"/>
<text xml:space="preserve" text-anchor="middle" x="181.02" y="-195.03" font-family="Times,serif" font-size="14.00">RFC6118</text>
<text xml:space="preserve" text-anchor="middle" x="181.02" y="-178.53" font-family="Times,serif" font-size="14.00">Update of Legacy IANA Registrations of</text>
<text xml:space="preserve" text-anchor="middle" x="181.02" y="-162.03" font-family="Times,serif" font-size="14.00">Enumservices</text>
<text xml:space="preserve" text-anchor="middle" x="181.02" y="-145.53" font-family="Times,serif" font-size="14.00">2011</text>
</a>
</g>
</g>
<!-- RFC6118&#45;&gt;updated_by -->
<g id="edge5" class="edge">
<title>RFC6118&#45;&gt;updated_by</title>
<path fill="none" stroke="black" d="M351.21,-175.33C361.48,-175.33 371.13,-175.33 379.76,-175.33"/>
<polygon fill="black" stroke="black" points="379.71,-178.83 389.71,-175.33 379.71,-171.83 379.71,-178.83"/>
</g>
<!-- rev_cites -->
<g id="node8" class="node">
<title>rev_cites</title>
<polygon fill="lightblue" stroke="black" points="447.16,-139.33 393.16,-139.33 393.16,-103.33 447.16,-103.33 447.16,-139.33"/>
<text xml:space="preserve" text-anchor="middle" x="420.16" y="-116.28" font-family="Times,serif" font-size="14.00">cites</text>
</g>
<!-- RFC6118&#45;&gt;rev_cites -->
<g id="edge9" class="edge">
<title>RFC6118&#45;&gt;rev_cites</title>
<path fill="none" stroke="black" d="M318.59,-144.23C341.79,-138.94 364.05,-133.88 381.7,-129.86"/>
<polygon fill="black" stroke="black" points="382.42,-133.28 391.4,-127.65 380.87,-126.46 382.42,-133.28"/>
</g>
<!-- rev_cites&#45;&gt;RFC4238 -->
<g id="edge7" class="edge">
<title>rev_cites&#45;&gt;RFC4238</title>
<path fill="none" stroke="black" d="M447.65,-128.83C462.53,-133.05 482.22,-138.63 502.76,-144.46"/>
<polygon fill="black" stroke="black" points="501.54,-147.75 512.11,-147.11 503.45,-141.01 501.54,-147.75"/>
</g>
<!-- RFC6117 -->
<g id="node9" class="node">
<title>RFC6117</title>
<g id="a_node9"><a xlink:href="RFC6117.html" xlink:title="This document specifies a revision of the IANA Registration Guidelines for Enumservices, describes corresponding registration procedures, and provides a guideline for creating Enumservice Specifications. [STANDARDS&#45;TRACK]" target="_top">
<ellipse fill="none" stroke="black" cx="181.02" cy="-52.33" rx="181.02" ry="52.33"/>
<text xml:space="preserve" text-anchor="middle" x="181.02" y="-72.03" font-family="Times,serif" font-size="14.00">RFC6117</text>
<text xml:space="preserve" text-anchor="middle" x="181.02" y="-55.53" font-family="Times,serif" font-size="14.00">IANA Registration of Enumservices:</text>
<text xml:space="preserve" text-anchor="middle" x="181.02" y="-39.03" font-family="Times,serif" font-size="14.00">Guide, Template, and IANA Considerations</text>
<text xml:space="preserve" text-anchor="middle" x="181.02" y="-22.53" font-family="Times,serif" font-size="14.00">2011</text>
</a>
</g>
</g>
<!-- RFC6117&#45;&gt;rev_cites -->
<g id="edge8" class="edge">
<title>RFC6117&#45;&gt;rev_cites</title>
<path fill="none" stroke="black" d="M309.62,-89.45C336.01,-97.13 361.8,-104.64 381.72,-110.43"/>
<polygon fill="black" stroke="black" points="380.7,-113.78 391.28,-113.21 382.66,-107.06 380.7,-113.78"/>
</g>
</g>
</svg>
