<?xml version="1.0" encoding="UTF-8" standalone="no"?>
<!DOCTYPE svg PUBLIC "-//W3C//DTD SVG 1.1//EN"
 "http://www.w3.org/Graphics/SVG/1.1/DTD/svg11.dtd">
<!-- Generated by graphviz version 14.1.1 (20251213.1925)
 -->
<!-- Title: Flow Pages: 1 -->
<svg width="959pt" height="241pt"
 viewBox="0.00 0.00 959.00 241.00" xmlns="http://www.w3.org/2000/svg" xmlns:xlink="http://www.w3.org/1999/xlink">
<g id="graph0" class="graph" transform="scale(1 1) rotate(0) translate(4 237.33)">
<title>Flow</title>
<polygon fill="white" stroke="none" points="-4,4 -4,-237.33 954.67,-237.33 954.67,4 -4,4"/>
<!-- RFC4431 -->
<g id="node1" class="node">
<title>RFC4431</title>
<g id="a_node1"><a xlink:title="This document defines a new DNS resource record, called the DNSSEC Lookaside Validation (DLV) RR, for publishing DNSSEC trust anchors outside of the DNS delegation chain. &#160;This memo provides information for the Internet community.">
<ellipse fill="none" stroke="black" cx="681.58" cy="-161.33" rx="177.84" ry="52.33"/>
<text xml:space="preserve" text-anchor="middle" x="681.58" y="-181.03" font-family="Times,serif" font-size="14.00">RFC4431</text>
<text xml:space="preserve" text-anchor="middle" x="681.58" y="-164.53" font-family="Times,serif" font-size="14.00">The DNSSEC Lookaside Validation (DLV)</text>
<text xml:space="preserve" text-anchor="middle" x="681.58" y="-148.03" font-family="Times,serif" font-size="14.00">DNS Resource Record</text>
<text xml:space="preserve" text-anchor="middle" x="681.58" y="-131.53" font-family="Times,serif" font-size="14.00">2006</text>
</a>
</g>
</g>
<!-- obs -->
<g id="node3" class="node">
<title>obs</title>
<polygon fill="none" stroke="black" points="950.67,-233.33 884.42,-233.33 884.42,-197.33 950.67,-197.33 950.67,-233.33"/>
<text xml:space="preserve" text-anchor="middle" x="917.54" y="-210.28" font-family="Times,serif" font-size="14.00">obsoletes</text>
</g>
<!-- RFC4431&#45;&gt;obs -->
<g id="edge2" class="edge">
<title>RFC4431&#45;&gt;obs</title>
<path fill="none" stroke="black" d="M822.39,-193.6C840.75,-197.83 858.32,-201.89 873.21,-205.32"/>
<polygon fill="black" stroke="black" points="872.04,-208.65 882.57,-207.48 873.61,-201.82 872.04,-208.65"/>
</g>
<!-- updates -->
<g id="node4" class="node">
<title>updates</title>
<polygon fill="none" stroke="black" points="946.17,-179.33 888.92,-179.33 888.92,-143.33 946.17,-143.33 946.17,-179.33"/>
<text xml:space="preserve" text-anchor="middle" x="917.54" y="-156.28" font-family="Times,serif" font-size="14.00">updates</text>
</g>
<!-- RFC4431&#45;&gt;updates -->
<g id="edge3" class="edge">
<title>RFC4431&#45;&gt;updates</title>
<path fill="none" stroke="black" d="M859.91,-161.33C866.1,-161.33 871.98,-161.33 877.44,-161.33"/>
<polygon fill="black" stroke="black" points="877.19,-164.83 887.19,-161.33 877.19,-157.83 877.19,-164.83"/>
</g>
<!-- cites -->
<g id="node6" class="node">
<title>cites</title>
<polygon fill="none" stroke="black" points="944.54,-125.33 890.54,-125.33 890.54,-89.33 944.54,-89.33 944.54,-125.33"/>
<text xml:space="preserve" text-anchor="middle" x="917.54" y="-102.28" font-family="Times,serif" font-size="14.00">cites</text>
</g>
<!-- RFC4431&#45;&gt;cites -->
<g id="edge5" class="edge">
<title>RFC4431&#45;&gt;cites</title>
<path fill="none" stroke="black" d="M822.39,-129.06C843.28,-124.24 863.16,-119.65 879.22,-115.94"/>
<polygon fill="black" stroke="black" points="879.77,-119.41 888.73,-113.75 878.2,-112.58 879.77,-119.41"/>
</g>
<!-- obs_by -->
<g id="node2" class="node">
<title>obs_by</title>
<polygon fill="none" stroke="black" points="478.74,-233.33 412.49,-233.33 412.49,-197.33 478.74,-197.33 478.74,-233.33"/>
<text xml:space="preserve" text-anchor="middle" x="445.62" y="-210.28" font-family="Times,serif" font-size="14.00">obsoletes</text>
</g>
<!-- obs_by&#45;&gt;RFC4431 -->
<g id="edge1" class="edge">
<title>obs_by&#45;&gt;RFC4431</title>
<path fill="none" stroke="black" d="M479.15,-207.82C493.16,-204.58 510.64,-200.55 529.4,-196.22"/>
<polygon fill="black" stroke="black" points="530.14,-199.64 539.1,-193.98 528.57,-192.82 530.14,-199.64"/>
</g>
<!-- updated_by -->
<g id="node5" class="node">
<title>updated_by</title>
<polygon fill="none" stroke="black" points="474.24,-179.33 416.99,-179.33 416.99,-143.33 474.24,-143.33 474.24,-179.33"/>
<text xml:space="preserve" text-anchor="middle" x="445.62" y="-156.28" font-family="Times,serif" font-size="14.00">updates</text>
</g>
<!-- updated_by&#45;&gt;RFC4431 -->
<g id="edge4" class="edge">
<title>updated_by&#45;&gt;RFC4431</title>
<path fill="none" stroke="black" d="M474.38,-161.33C479.73,-161.33 485.69,-161.33 492.12,-161.33"/>
<polygon fill="black" stroke="black" points="491.85,-164.83 501.85,-161.33 491.85,-157.83 491.85,-164.83"/>
</g>
<!-- rev_cites -->
<g id="node7" class="node">
<title>rev_cites</title>
<polygon fill="none" stroke="black" points="472.62,-125.33 418.62,-125.33 418.62,-89.33 472.62,-89.33 472.62,-125.33"/>
<text xml:space="preserve" text-anchor="middle" x="445.62" y="-102.28" font-family="Times,serif" font-size="14.00">cites</text>
</g>
<!-- rev_cites&#45;&gt;RFC4431 -->
<g id="edge6" class="edge">
<title>rev_cites&#45;&gt;RFC4431</title>
<path fill="none" stroke="black" d="M473,-113.42C487.93,-116.86 507.93,-121.48 529.63,-126.49"/>
<polygon fill="black" stroke="black" points="528.76,-129.88 539.29,-128.71 530.33,-123.05 528.76,-129.88"/>
</g>
<!-- RFC5074 -->
<g id="node8" class="node">
<title>RFC5074</title>
<g id="a_node8"><a xlink:href="RFC5074.html" xlink:title="DNSSEC Lookaside Validation (DLV) is a mechanism for publishing DNS Security (DNSSEC) trust anchors outside of the DNS delegation chain. &#160;It allows validating resolvers to validate DNSSEC&#45;signed data from zones whose ancestors either aren&#39;t signed or don&#39;t publish Delegation Signer (DS) records for their children. &#160;This memo provides information for the Internet community." target="_top">
<ellipse fill="none" stroke="black" cx="193.75" cy="-163.33" rx="160.34" ry="40.66"/>
<text xml:space="preserve" text-anchor="middle" x="193.75" y="-174.78" font-family="Times,serif" font-size="14.00">RFC5074</text>
<text xml:space="preserve" text-anchor="middle" x="193.75" y="-158.28" font-family="Times,serif" font-size="14.00">DNSSEC Lookaside Validation (DLV)</text>
<text xml:space="preserve" text-anchor="middle" x="193.75" y="-141.78" font-family="Times,serif" font-size="14.00">2007</text>
</a>
</g>
</g>
<!-- RFC5074&#45;&gt;rev_cites -->
<g id="edge7" class="edge">
<title>RFC5074&#45;&gt;rev_cites</title>
<path fill="none" stroke="black" d="M314.93,-136.39C348.6,-128.85 382.74,-121.19 407.53,-115.64"/>
<polygon fill="black" stroke="black" points="408.1,-119.1 417.09,-113.5 406.57,-112.27 408.1,-119.1"/>
</g>
<!-- RFC8749 -->
<g id="node9" class="node">
<title>RFC8749</title>
<g id="a_node9"><a xlink:href="RFC8749.html" xlink:title="This document retires DNSSEC Lookaside Validation (DLV) and reclassifies RFCs 4431 and 5074 as Historic. &#160;Furthermore, this document updates RFC 6698 by excluding the DLV resource record from certificates and updates RFC 6840 by excluding the DLV registries from the trust anchor selection." target="_top">
<ellipse fill="none" stroke="black" cx="193.75" cy="-52.33" rx="193.75" ry="52.33"/>
<text xml:space="preserve" text-anchor="middle" x="193.75" y="-72.03" font-family="Times,serif" font-size="14.00">RFC8749</text>
<text xml:space="preserve" text-anchor="middle" x="193.75" y="-55.53" font-family="Times,serif" font-size="14.00">Moving DNSSEC Lookaside Validation (DLV)</text>
<text xml:space="preserve" text-anchor="middle" x="193.75" y="-39.03" font-family="Times,serif" font-size="14.00">to Historic Status</text>
<text xml:space="preserve" text-anchor="middle" x="193.75" y="-22.53" font-family="Times,serif" font-size="14.00">2020</text>
</a>
</g>
</g>
<!-- RFC8749&#45;&gt;rev_cites -->
<g id="edge8" class="edge">
<title>RFC8749&#45;&gt;rev_cites</title>
<path fill="none" stroke="black" d="M344.79,-85.35C368.08,-90.48 390.16,-95.34 407.61,-99.18"/>
<polygon fill="black" stroke="black" points="406.37,-102.49 416.89,-101.22 407.88,-95.65 406.37,-102.49"/>
</g>
</g>
</svg>
