<?xml version="1.0" encoding="UTF-8" standalone="no"?>
<!DOCTYPE svg PUBLIC "-//W3C//DTD SVG 1.1//EN"
 "http://www.w3.org/Graphics/SVG/1.1/DTD/svg11.dtd">
<!-- Generated by graphviz version 14.1.1 (20251213.1925)
 -->
<!-- Title: Flow Pages: 1 -->
<svg width="1162pt" height="831pt"
 viewBox="0.00 0.00 1162.00 831.00" xmlns="http://www.w3.org/2000/svg" xmlns:xlink="http://www.w3.org/1999/xlink">
<g id="graph0" class="graph" transform="scale(1 1) rotate(0) translate(4 826.94)">
<title>Flow</title>
<polygon fill="white" stroke="none" points="-4,4 -4,-826.94 1157.63,-826.94 1157.63,4 -4,4"/>
<!-- RFC4219 -->
<g id="node1" class="node">
<title>RFC4219</title>
<g id="a_node1"><a xlink:title="This document specifies a set of questions that authors should be prepared to answer as part of a solution to multihoming with IPv6. &#160;The questions do not assume that multihoming is the only problem of interest, nor do they demand a more general solution. &#160;This memo provides information for the Internet community.">
<ellipse fill="green" stroke="black" stroke-width="3" cx="359.02" cy="-428.63" rx="215.49" ry="65.05"/>
<text xml:space="preserve" text-anchor="middle" x="359.02" y="-453.53" font-family="Times,serif" font-size="18.00">RFC4219</text>
<text xml:space="preserve" text-anchor="middle" x="359.02" y="-432.53" font-family="Times,serif" font-size="18.00">Things Multihoming in IPv6 (MULTI6)</text>
<text xml:space="preserve" text-anchor="middle" x="359.02" y="-411.53" font-family="Times,serif" font-size="18.00">Developers Should Think About</text>
<text xml:space="preserve" text-anchor="middle" x="359.02" y="-390.53" font-family="Times,serif" font-size="18.00">2005</text>
</a>
</g>
</g>
<!-- obs -->
<g id="node3" class="node">
<title>obs</title>
<polygon fill="lightblue" stroke="black" points="718.03,-634.79 651.78,-634.79 651.78,-598.79 718.03,-598.79 718.03,-634.79"/>
<text xml:space="preserve" text-anchor="middle" x="684.91" y="-611.74" font-family="Times,serif" font-size="14.00">obsoletes</text>
</g>
<!-- RFC4219&#45;&gt;obs -->
<g id="edge2" class="edge">
<title>RFC4219&#45;&gt;obs</title>
<path fill="none" stroke="black" d="M460.79,-487.39C522.25,-522.88 597.3,-566.21 643.08,-592.63"/>
<polygon fill="black" stroke="black" points="641.22,-595.6 651.63,-597.57 644.72,-589.54 641.22,-595.6"/>
</g>
<!-- updates -->
<g id="node4" class="node">
<title>updates</title>
<polygon fill="lightyellow" stroke="black" points="387.64,-822.94 330.39,-822.94 330.39,-786.94 387.64,-786.94 387.64,-822.94"/>
<text xml:space="preserve" text-anchor="middle" x="359.02" y="-799.89" font-family="Times,serif" font-size="14.00">updates</text>
</g>
<!-- RFC4219&#45;&gt;updates -->
<g id="edge3" class="edge">
<title>RFC4219&#45;&gt;updates</title>
<path fill="none" stroke="black" d="M359.02,-495.04C359.02,-577.75 359.02,-715.47 359.02,-775.48"/>
<polygon fill="black" stroke="black" points="355.52,-775.22 359.02,-785.22 362.52,-775.22 355.52,-775.22"/>
</g>
<!-- cites -->
<g id="node6" class="node">
<title>cites</title>
<polygon fill="lightblue" stroke="black" points="60.13,-634.79 6.13,-634.79 6.13,-598.79 60.13,-598.79 60.13,-634.79"/>
<text xml:space="preserve" text-anchor="middle" x="33.13" y="-611.74" font-family="Times,serif" font-size="14.00">cites</text>
</g>
<!-- RFC4219&#45;&gt;cites -->
<g id="edge5" class="edge">
<title>RFC4219&#45;&gt;cites</title>
<path fill="none" stroke="black" d="M257.24,-487.39C193.66,-524.1 115.53,-569.21 70.32,-595.31"/>
<polygon fill="black" stroke="black" points="68.6,-592.26 61.69,-600.3 72.1,-598.33 68.6,-592.26"/>
</g>
<!-- obs_by -->
<g id="node2" class="node">
<title>obs_by</title>
<polygon fill="lightblue" stroke="black" points="66.25,-258.48 0,-258.48 0,-222.48 66.25,-222.48 66.25,-258.48"/>
<text xml:space="preserve" text-anchor="middle" x="33.13" y="-235.43" font-family="Times,serif" font-size="14.00">obsoletes</text>
</g>
<!-- obs_by&#45;&gt;RFC4219 -->
<g id="edge1" class="edge">
<title>obs_by&#45;&gt;RFC4219</title>
<path fill="none" stroke="black" d="M64.97,-258.86C107.01,-283.14 183.25,-327.15 247.56,-364.28"/>
<polygon fill="black" stroke="black" points="245.64,-367.22 256.05,-369.19 249.14,-361.15 245.64,-367.22"/>
</g>
<!-- updated_by -->
<g id="node5" class="node">
<title>updated_by</title>
<polygon fill="lightyellow" stroke="black" points="387.64,-70.33 330.39,-70.33 330.39,-34.33 387.64,-34.33 387.64,-70.33"/>
<text xml:space="preserve" text-anchor="middle" x="359.02" y="-47.28" font-family="Times,serif" font-size="14.00">updates</text>
</g>
<!-- updated_by&#45;&gt;RFC4219 -->
<g id="edge4" class="edge">
<title>updated_by&#45;&gt;RFC4219</title>
<path fill="none" stroke="black" d="M359.02,-70.73C359.02,-120.77 359.02,-261.55 359.02,-350.9"/>
<polygon fill="black" stroke="black" points="355.52,-350.83 359.02,-360.83 362.52,-350.83 355.52,-350.83"/>
</g>
<!-- rev_cites -->
<g id="node7" class="node">
<title>rev_cites</title>
<polygon fill="lightblue" stroke="black" points="711.91,-258.48 657.91,-258.48 657.91,-222.48 711.91,-222.48 711.91,-258.48"/>
<text xml:space="preserve" text-anchor="middle" x="684.91" y="-235.43" font-family="Times,serif" font-size="14.00">cites</text>
</g>
<!-- rev_cites&#45;&gt;RFC4219 -->
<g id="edge6" class="edge">
<title>rev_cites&#45;&gt;RFC4219</title>
<path fill="none" stroke="black" d="M657.68,-256.2C616.78,-279.81 537.16,-325.78 470.41,-364.32"/>
<polygon fill="black" stroke="black" points="468.88,-361.16 461.97,-369.19 472.38,-367.22 468.88,-361.16"/>
</g>
<!-- RFC5375 -->
<g id="node8" class="node">
<title>RFC5375</title>
<g id="a_node8"><a xlink:href="RFC5375.html" xlink:title="One fundamental aspect of any IP communications infrastructure is its addressing plan. &#160;With its new address architecture and allocation policies, the introduction of IPv6 into a network means that network designers and operators need to reconsider their existing approaches to network addressing. &#160;Lack of guidelines on handling this aspect of network design could slow down the deployment and integration of IPv6. &#160;This document aims to provide the information and recommendations relevant to planning the addressing aspects of IPv6 deployments. &#160;The document also provides IPv6 addressing case studies for both an enterprise and an ISP network. &#160;This memo provides information for the Internet community." target="_top">
<ellipse fill="none" stroke="black" cx="1010.8" cy="-52.33" rx="142.84" ry="52.33"/>
<text xml:space="preserve" text-anchor="middle" x="1010.8" y="-72.03" font-family="Times,serif" font-size="14.00">RFC5375</text>
<text xml:space="preserve" text-anchor="middle" x="1010.8" y="-55.53" font-family="Times,serif" font-size="14.00">IPv6 Unicast Address Assignment</text>
<text xml:space="preserve" text-anchor="middle" x="1010.8" y="-39.03" font-family="Times,serif" font-size="14.00">Considerations</text>
<text xml:space="preserve" text-anchor="middle" x="1010.8" y="-22.53" font-family="Times,serif" font-size="14.00">2008</text>
</a>
</g>
</g>
<!-- RFC5375&#45;&gt;rev_cites -->
<g id="edge7" class="edge">
<title>RFC5375&#45;&gt;rev_cites</title>
<path fill="none" stroke="black" d="M933.98,-96.68C867.12,-135.28 773.1,-189.56 721.82,-219.17"/>
<polygon fill="black" stroke="black" points="720.38,-215.96 713.47,-223.99 723.88,-222.02 720.38,-215.96"/>
</g>
</g>
</svg>
