<?xml version="1.0" encoding="UTF-8" standalone="no"?>
<!DOCTYPE svg PUBLIC "-//W3C//DTD SVG 1.1//EN"
 "http://www.w3.org/Graphics/SVG/1.1/DTD/svg11.dtd">
<!-- Generated by graphviz version 14.1.1 (20251213.1925)
 -->
<!-- Title: Flow Pages: 1 -->
<svg width="1250pt" height="883pt"
 viewBox="0.00 0.00 1250.00 883.00" xmlns="http://www.w3.org/2000/svg" xmlns:xlink="http://www.w3.org/1999/xlink">
<g id="graph0" class="graph" transform="scale(1 1) rotate(0) translate(4 878.69)">
<title>Flow</title>
<polygon fill="white" stroke="none" points="-4,4 -4,-878.69 1245.55,-878.69 1245.55,4 -4,4"/>
<!-- RFC4128 -->
<g id="node1" class="node">
<title>RFC4128</title>
<g id="a_node1"><a xlink:title="Differentiated Services (Diffserv)&#45;aware MPLS Traffic Engineering Requirements, RFC 3564, specifies the requirements and selection criteria for Bandwidth Constraints Models. &#160;Two such models, the Maximum Allocation and the Russian Dolls, are described therein. &#160;This document complements RFC 3564 by presenting the results of a performance evaluation of these two models under various operational conditions: normal load, overload, preemption fully or partially enabled, pure blocking, or complete sharing. &#160;This memo provides information for the Internet community.">
<ellipse fill="green" stroke="black" stroke-width="3" cx="381.43" cy="-454.51" rx="221.85" ry="94.75"/>
<text xml:space="preserve" text-anchor="middle" x="381.43" y="-500.41" font-family="Times,serif" font-size="18.00">RFC4128</text>
<text xml:space="preserve" text-anchor="middle" x="381.43" y="-479.41" font-family="Times,serif" font-size="18.00">Bandwidth Constraints Models for</text>
<text xml:space="preserve" text-anchor="middle" x="381.43" y="-458.41" font-family="Times,serif" font-size="18.00">Differentiated Services (Diffserv)&#45;aware</text>
<text xml:space="preserve" text-anchor="middle" x="381.43" y="-437.41" font-family="Times,serif" font-size="18.00">MPLS Traffic Engineering: Performance</text>
<text xml:space="preserve" text-anchor="middle" x="381.43" y="-416.41" font-family="Times,serif" font-size="18.00">Evaluation</text>
<text xml:space="preserve" text-anchor="middle" x="381.43" y="-395.41" font-family="Times,serif" font-size="18.00">2005</text>
</a>
</g>
</g>
<!-- obs -->
<g id="node3" class="node">
<title>obs</title>
<polygon fill="lightblue" stroke="black" points="762.85,-673.6 696.6,-673.6 696.6,-637.6 762.85,-637.6 762.85,-673.6"/>
<text xml:space="preserve" text-anchor="middle" x="729.73" y="-650.55" font-family="Times,serif" font-size="14.00">obsoletes</text>
</g>
<!-- RFC4128&#45;&gt;obs -->
<g id="edge2" class="edge">
<title>RFC4128&#45;&gt;obs</title>
<path fill="none" stroke="black" d="M514.6,-531.39C576.29,-567.01 645.26,-606.83 688.08,-631.56"/>
<polygon fill="black" stroke="black" points="686.14,-634.48 696.55,-636.45 689.64,-628.42 686.14,-634.48"/>
</g>
<!-- updates -->
<g id="node4" class="node">
<title>updates</title>
<polygon fill="lightyellow" stroke="black" points="410.05,-874.69 352.8,-874.69 352.8,-838.69 410.05,-838.69 410.05,-874.69"/>
<text xml:space="preserve" text-anchor="middle" x="381.43" y="-851.64" font-family="Times,serif" font-size="14.00">updates</text>
</g>
<!-- RFC4128&#45;&gt;updates -->
<g id="edge3" class="edge">
<title>RFC4128&#45;&gt;updates</title>
<path fill="none" stroke="black" d="M381.43,-550.59C381.43,-640.43 381.43,-769.14 381.43,-826.78"/>
<polygon fill="black" stroke="black" points="377.93,-826.77 381.43,-836.77 384.93,-826.77 377.93,-826.77"/>
</g>
<!-- cites -->
<g id="node6" class="node">
<title>cites</title>
<polygon fill="lightblue" stroke="black" points="60.13,-673.6 6.13,-673.6 6.13,-637.6 60.13,-637.6 60.13,-673.6"/>
<text xml:space="preserve" text-anchor="middle" x="33.13" y="-650.55" font-family="Times,serif" font-size="14.00">cites</text>
</g>
<!-- RFC4128&#45;&gt;cites -->
<g id="edge5" class="edge">
<title>RFC4128&#45;&gt;cites</title>
<path fill="none" stroke="black" d="M248.26,-531.39C184.39,-568.27 112.72,-609.65 70.34,-634.12"/>
<polygon fill="black" stroke="black" points="68.69,-631.03 61.78,-639.06 72.19,-637.09 68.69,-631.03"/>
</g>
<!-- obs_by -->
<g id="node2" class="node">
<title>obs_by</title>
<polygon fill="lightblue" stroke="black" points="66.25,-271.42 0,-271.42 0,-235.42 66.25,-235.42 66.25,-271.42"/>
<text xml:space="preserve" text-anchor="middle" x="33.13" y="-248.37" font-family="Times,serif" font-size="14.00">obsoletes</text>
</g>
<!-- obs_by&#45;&gt;RFC4128 -->
<g id="edge1" class="edge">
<title>obs_by&#45;&gt;RFC4128</title>
<path fill="none" stroke="black" d="M64.96,-271.8C104.41,-294.58 174.29,-334.92 238.37,-371.92"/>
<polygon fill="black" stroke="black" points="236.47,-374.86 246.88,-376.83 239.97,-368.8 236.47,-374.86"/>
</g>
<!-- updated_by -->
<g id="node5" class="node">
<title>updated_by</title>
<polygon fill="lightyellow" stroke="black" points="410.05,-70.33 352.8,-70.33 352.8,-34.33 410.05,-34.33 410.05,-70.33"/>
<text xml:space="preserve" text-anchor="middle" x="381.43" y="-47.28" font-family="Times,serif" font-size="14.00">updates</text>
</g>
<!-- updated_by&#45;&gt;RFC4128 -->
<g id="edge4" class="edge">
<title>updated_by&#45;&gt;RFC4128</title>
<path fill="none" stroke="black" d="M381.43,-70.65C381.43,-118.64 381.43,-250.91 381.43,-346.78"/>
<polygon fill="black" stroke="black" points="377.93,-346.77 381.43,-356.77 384.93,-346.77 377.93,-346.77"/>
</g>
<!-- rev_cites -->
<g id="node7" class="node">
<title>rev_cites</title>
<polygon fill="lightblue" stroke="black" points="756.73,-271.42 702.73,-271.42 702.73,-235.42 756.73,-235.42 756.73,-271.42"/>
<text xml:space="preserve" text-anchor="middle" x="729.73" y="-248.37" font-family="Times,serif" font-size="14.00">cites</text>
</g>
<!-- rev_cites&#45;&gt;RFC4128 -->
<g id="edge6" class="edge">
<title>rev_cites&#45;&gt;RFC4128</title>
<path fill="none" stroke="black" d="M702.4,-269.2C663.96,-291.39 591.15,-333.42 524.59,-371.85"/>
<polygon fill="black" stroke="black" points="523.04,-368.71 516.13,-376.74 526.54,-374.77 523.04,-368.71"/>
</g>
<!-- RFC4829 -->
<g id="node8" class="node">
<title>RFC4829</title>
<g id="a_node8"><a xlink:href="RFC4829.html" xlink:title="When the establishment of a higher priority (Traffic Engineering Label Switched Path) TE LSP requires the preemption of a set of lower priority TE LSPs, a node has to make a local decision to select which TE LSPs will be preempted. &#160;The preempted LSPs are then rerouted by their respective %Head&#45;end Label Switch Router (LSR). &#160;This document presents a flexible policy that can be used to achieve different objectives: preempt the lowest priority LSPs; preempt the minimum number of LSPs; preempt the set of TE LSPs that provide the closest amount of bandwidth to the required bandwidth for the preempting TE LSPs (to minimize bandwidth wastage); preempt the LSPs that will have the maximum chance to get rerouted. &#160;Simulation results are given and a comparison among several different policies, with respect to preemption cascading, number of preempted LSPs, priority, wasted bandwidth and blocking probability is also included. &#160;This memo provides information for the Internet community." target="_top">
<ellipse fill="none" stroke="black" cx="1078.03" cy="-52.33" rx="163.52" ry="52.33"/>
<text xml:space="preserve" text-anchor="middle" x="1078.03" y="-72.03" font-family="Times,serif" font-size="14.00">RFC4829</text>
<text xml:space="preserve" text-anchor="middle" x="1078.03" y="-55.53" font-family="Times,serif" font-size="14.00">Label Switched Path (LSP) Preemption</text>
<text xml:space="preserve" text-anchor="middle" x="1078.03" y="-39.03" font-family="Times,serif" font-size="14.00">Policies for MPLS Traffic Engineering</text>
<text xml:space="preserve" text-anchor="middle" x="1078.03" y="-22.53" font-family="Times,serif" font-size="14.00">2007</text>
</a>
</g>
</g>
<!-- RFC4829&#45;&gt;rev_cites -->
<g id="edge7" class="edge">
<title>RFC4829&#45;&gt;rev_cites</title>
<path fill="none" stroke="black" d="M998.56,-98.21C925.79,-140.22 821.33,-200.53 766.51,-232.18"/>
<polygon fill="black" stroke="black" points="765.1,-228.96 758.19,-236.99 768.6,-235.02 765.1,-228.96"/>
</g>
</g>
</svg>
