<?xml version="1.0" encoding="UTF-8" standalone="no"?>
<!DOCTYPE svg PUBLIC "-//W3C//DTD SVG 1.1//EN"
 "http://www.w3.org/Graphics/SVG/1.1/DTD/svg11.dtd">
<!-- Generated by graphviz version 14.1.1 (20251213.1925)
 -->
<!-- Title: Flow Pages: 1 -->
<svg width="1682pt" height="1546pt"
 viewBox="0.00 0.00 1682.00 1546.00" xmlns="http://www.w3.org/2000/svg" xmlns:xlink="http://www.w3.org/1999/xlink">
<g id="graph0" class="graph" transform="scale(1 1) rotate(0) translate(4 1542.3)">
<title>Flow</title>
<polygon fill="white" stroke="none" points="-4,4 -4,-1542.3 1678.04,-1542.3 1678.04,4 -4,4"/>
<!-- RFC4645 -->
<g id="node1" class="node">
<title>RFC4645</title>
<g id="a_node1"><a xlink:title="This memo defined the initial contents of the IANA Language Subtag Registry for use in forming tags for the identification of languages. &#160;Since the contents of this memo only served as a starting point for the registry, its actual contents have been removed before publication to avoid confusion. &#160;This memo provides information for the Internet community.">
<ellipse fill="green" stroke="black" stroke-width="3" cx="853.99" cy="-774.98" rx="182.08" ry="50.2"/>
<text xml:space="preserve" text-anchor="middle" x="853.99" y="-789.38" font-family="Times,serif" font-size="18.00">RFC4645</text>
<text xml:space="preserve" text-anchor="middle" x="853.99" y="-768.38" font-family="Times,serif" font-size="18.00">Initial Language Subtag Registry</text>
<text xml:space="preserve" text-anchor="middle" x="853.99" y="-747.38" font-family="Times,serif" font-size="18.00">2006</text>
</a>
</g>
</g>
<!-- obs -->
<g id="node3" class="node">
<title>obs</title>
<polygon fill="lightblue" stroke="black" points="1230.76,-904.64 1164.51,-904.64 1164.51,-868.64 1230.76,-868.64 1230.76,-904.64"/>
<text xml:space="preserve" text-anchor="middle" x="1197.63" y="-881.59" font-family="Times,serif" font-size="14.00">obsoletes</text>
</g>
<!-- RFC4645&#45;&gt;obs -->
<g id="edge2" class="edge">
<title>RFC4645&#45;&gt;obs</title>
<path fill="none" stroke="black" d="M974.18,-814.04C1036.27,-834.21 1108.28,-857.61 1153.4,-872.27"/>
<polygon fill="black" stroke="black" points="1152.24,-875.57 1162.83,-875.33 1154.4,-868.91 1152.24,-875.57"/>
</g>
<!-- updates -->
<g id="node4" class="node">
<title>updates</title>
<polygon fill="lightyellow" stroke="black" points="1095,-1085.3 1037.75,-1085.3 1037.75,-1049.3 1095,-1049.3 1095,-1085.3"/>
<text xml:space="preserve" text-anchor="middle" x="1066.37" y="-1062.25" font-family="Times,serif" font-size="14.00">updates</text>
</g>
<!-- RFC4645&#45;&gt;updates -->
<g id="edge3" class="edge">
<title>RFC4645&#45;&gt;updates</title>
<path fill="none" stroke="black" d="M890.74,-825.57C935.93,-887.77 1010.99,-991.08 1046.54,-1040.01"/>
<polygon fill="black" stroke="black" points="1043.5,-1041.78 1052.21,-1047.82 1049.17,-1037.67 1043.5,-1041.78"/>
</g>
<!-- cites -->
<g id="node6" class="node">
<title>cites</title>
<polygon fill="lightblue" stroke="black" points="668.6,-1085.3 614.6,-1085.3 614.6,-1049.3 668.6,-1049.3 668.6,-1085.3"/>
<text xml:space="preserve" text-anchor="middle" x="641.6" y="-1062.25" font-family="Times,serif" font-size="14.00">cites</text>
</g>
<!-- RFC4645&#45;&gt;cites -->
<g id="edge5" class="edge">
<title>RFC4645&#45;&gt;cites</title>
<path fill="none" stroke="black" d="M817.24,-825.57C772.05,-887.77 696.98,-991.08 661.44,-1040.01"/>
<polygon fill="black" stroke="black" points="658.81,-1037.67 655.76,-1047.82 664.47,-1041.78 658.81,-1037.67"/>
</g>
<!-- obs_by -->
<g id="node2" class="node">
<title>obs_by</title>
<polygon fill="lightblue" stroke="black" points="543.47,-681.33 477.22,-681.33 477.22,-645.33 543.47,-645.33 543.47,-681.33"/>
<text xml:space="preserve" text-anchor="middle" x="510.34" y="-658.28" font-family="Times,serif" font-size="14.00">obsoletes</text>
</g>
<!-- obs_by&#45;&gt;RFC4645 -->
<g id="edge1" class="edge">
<title>obs_by&#45;&gt;RFC4645</title>
<path fill="none" stroke="black" d="M543.92,-674.24C585.43,-687.72 658.56,-711.48 723.37,-732.54"/>
<polygon fill="black" stroke="black" points="722.08,-735.8 732.67,-735.56 724.24,-729.15 722.08,-735.8"/>
</g>
<!-- updated_by -->
<g id="node5" class="node">
<title>updated_by</title>
<polygon fill="lightyellow" stroke="black" points="670.23,-500.66 612.98,-500.66 612.98,-464.66 670.23,-464.66 670.23,-500.66"/>
<text xml:space="preserve" text-anchor="middle" x="641.6" y="-477.61" font-family="Times,serif" font-size="14.00">updates</text>
</g>
<!-- updated_by&#45;&gt;RFC4645 -->
<g id="edge4" class="edge">
<title>updated_by&#45;&gt;RFC4645</title>
<path fill="none" stroke="black" d="M654.89,-500.95C685.46,-543.03 761.91,-648.25 810.69,-715.39"/>
<polygon fill="black" stroke="black" points="807.78,-717.34 816.49,-723.37 813.44,-713.23 807.78,-717.34"/>
</g>
<!-- RFC4646 -->
<g id="node7" class="node">
<title>RFC4646</title>
<g id="a_node7"><a xlink:href="RFC4646.html" xlink:title="This document describes the structure, content, construction, and semantics of language tags for use in cases where it is desirable to indicate the language used in an information object. &#160;It also describes how to register values for use in language tags and the creation of user&#45;defined extensions for private interchange. &#160;This document, in combination with RFC 4647, replaces RFC 3066, which replaced RFC 1766. &#160;This document specifies an Internet Best Current Practices for the Internet Community, and requests discussion and suggestions for improvements." target="_top">
<ellipse fill="none" stroke="black" cx="853.99" cy="-1497.64" rx="132.76" ry="40.66"/>
<text xml:space="preserve" text-anchor="middle" x="853.99" y="-1509.09" font-family="Times,serif" font-size="14.00">RFC4646</text>
<text xml:space="preserve" text-anchor="middle" x="853.99" y="-1492.59" font-family="Times,serif" font-size="14.00">Tags for Identifying Languages</text>
<text xml:space="preserve" text-anchor="middle" x="853.99" y="-1476.09" font-family="Times,serif" font-size="14.00">2006</text>
</a>
</g>
</g>
<!-- cites&#45;&gt;RFC4646 -->
<g id="edge6" class="edge">
<title>cites&#45;&gt;RFC4646</title>
<path fill="none" stroke="black" d="M650.73,-1085.79C681.42,-1147.98 781.61,-1350.98 828.87,-1446.75"/>
<polygon fill="black" stroke="black" points="825.73,-1448.28 833.29,-1455.7 832,-1445.18 825.73,-1448.28"/>
</g>
<!-- RFC3066 -->
<g id="node8" class="node">
<title>RFC3066</title>
<g id="a_node8"><a xlink:href="RFC3066.html" xlink:title="This document describes a language tag for use in cases where it is desired to indicate the language used in an information object, how to register values for use in this language tag, and a construct for matching such language tags. &#160;This document specifies an Internet Best Current Practices for the Internet Community, and requests discussion and suggestions for improvements." target="_top">
<ellipse fill="none" stroke="black" cx="429.22" cy="-1359.62" rx="166.7" ry="40.66"/>
<text xml:space="preserve" text-anchor="middle" x="429.22" y="-1371.07" font-family="Times,serif" font-size="14.00">RFC3066</text>
<text xml:space="preserve" text-anchor="middle" x="429.22" y="-1354.57" font-family="Times,serif" font-size="14.00">Tags for the Identification of Languages</text>
<text xml:space="preserve" text-anchor="middle" x="429.22" y="-1338.07" font-family="Times,serif" font-size="14.00">2001</text>
</a>
</g>
</g>
<!-- cites&#45;&gt;RFC3066 -->
<g id="edge7" class="edge">
<title>cites&#45;&gt;RFC3066</title>
<path fill="none" stroke="black" d="M628.32,-1085.59C596.14,-1129.88 513.14,-1244.11 465.08,-1310.27"/>
<polygon fill="black" stroke="black" points="462.47,-1307.9 459.43,-1318.05 468.14,-1312.02 462.47,-1307.9"/>
</g>
<!-- RFC1766 -->
<g id="node9" class="node">
<title>RFC1766</title>
<g id="a_node9"><a xlink:href="RFC1766.html" xlink:title="This document describes a language tag for use in cases where it is desired to indicate the language used in an information object. [STANDARDS&#45;TRACK]" target="_top">
<ellipse fill="none" stroke="black" cx="166.7" cy="-998.3" rx="166.7" ry="40.66"/>
<text xml:space="preserve" text-anchor="middle" x="166.7" y="-1009.75" font-family="Times,serif" font-size="14.00">RFC1766</text>
<text xml:space="preserve" text-anchor="middle" x="166.7" y="-993.25" font-family="Times,serif" font-size="14.00">Tags for the Identification of Languages</text>
<text xml:space="preserve" text-anchor="middle" x="166.7" y="-976.75" font-family="Times,serif" font-size="14.00">1995</text>
</a>
</g>
</g>
<!-- cites&#45;&gt;RFC1766 -->
<g id="edge8" class="edge">
<title>cites&#45;&gt;RFC1766</title>
<path fill="none" stroke="black" d="M614.37,-1063.35C558.59,-1055.24 427.72,-1036.22 321.8,-1020.83"/>
<polygon fill="black" stroke="black" points="322.55,-1017.41 312.15,-1019.43 321.54,-1024.33 322.55,-1017.41"/>
</g>
<!-- rev_cites -->
<g id="node10" class="node">
<title>rev_cites</title>
<polygon fill="lightblue" stroke="black" points="1093.37,-500.66 1039.37,-500.66 1039.37,-464.66 1093.37,-464.66 1093.37,-500.66"/>
<text xml:space="preserve" text-anchor="middle" x="1066.37" y="-477.61" font-family="Times,serif" font-size="14.00">cites</text>
</g>
<!-- RFC4646&#45;&gt;rev_cites -->
<g id="edge10" class="edge">
<title>RFC4646&#45;&gt;rev_cites</title>
<path fill="none" stroke="black" d="M862.58,-1456.59C897.71,-1288.67 1030.08,-656.11 1060.23,-512"/>
<polygon fill="black" stroke="black" points="1063.6,-513.02 1062.22,-502.51 1056.74,-511.58 1063.6,-513.02"/>
</g>
<!-- rev_cites&#45;&gt;RFC4645 -->
<g id="edge9" class="edge">
<title>rev_cites&#45;&gt;RFC4645</title>
<path fill="none" stroke="black" d="M1053.09,-500.95C1022.51,-543.03 946.06,-648.25 897.29,-715.39"/>
<polygon fill="black" stroke="black" points="894.53,-713.23 891.49,-723.37 900.19,-717.34 894.53,-713.23"/>
</g>
<!-- RFC4690 -->
<g id="node11" class="node">
<title>RFC4690</title>
<g id="a_node11"><a xlink:href="RFC4690.html" xlink:title="This note describes issues raised by the deployment and use of Internationalized Domain Names. &#160;It describes problems both at the time of registration and for use of those names in the DNS. &#160;It recommends that IETF should update the RFCs relating to IDNs and a framework to be followed in doing so, as well as summarizing and identifying some work that is required outside the IETF. &#160;In particular, it proposes that some changes be investigated for the Internationalizing Domain Names in Applications (IDNA) standard and its supporting tables, based on experience gained since those standards were completed. &#160;This memo provides information for the Internet community." target="_top">
<ellipse fill="none" stroke="black" cx="853.99" cy="-52.33" rx="169.35" ry="52.33"/>
<text xml:space="preserve" text-anchor="middle" x="853.99" y="-72.03" font-family="Times,serif" font-size="14.00">RFC4690</text>
<text xml:space="preserve" text-anchor="middle" x="853.99" y="-55.53" font-family="Times,serif" font-size="14.00">Review and Recommendations for</text>
<text xml:space="preserve" text-anchor="middle" x="853.99" y="-39.03" font-family="Times,serif" font-size="14.00">Internationalized Domain Names (IDNs)</text>
<text xml:space="preserve" text-anchor="middle" x="853.99" y="-22.53" font-family="Times,serif" font-size="14.00">2006</text>
</a>
</g>
</g>
<!-- RFC4690&#45;&gt;rev_cites -->
<g id="edge11" class="edge">
<title>RFC4690&#45;&gt;rev_cites</title>
<path fill="none" stroke="black" d="M879.61,-104.23C924.84,-195.88 1017.37,-383.38 1052.46,-454.48"/>
<polygon fill="black" stroke="black" points="1049.16,-455.7 1056.73,-463.12 1055.44,-452.61 1049.16,-455.7"/>
</g>
<!-- RFC5645 -->
<g id="node12" class="node">
<title>RFC5645</title>
<g id="a_node12"><a xlink:href="RFC5645.html" xlink:title="This memo defines the procedure used to update the IANA Language Subtag Registry, in conjunction with the publication of RFC 5646, for use in forming tags for identifying languages. &#160;This memo provides information for the Internet community." target="_top">
<ellipse fill="none" stroke="black" cx="1278.76" cy="-190.34" rx="167.76" ry="40.66"/>
<text xml:space="preserve" text-anchor="middle" x="1278.76" y="-201.79" font-family="Times,serif" font-size="14.00">RFC5645</text>
<text xml:space="preserve" text-anchor="middle" x="1278.76" y="-185.29" font-family="Times,serif" font-size="14.00">Update to the Language Subtag Registry</text>
<text xml:space="preserve" text-anchor="middle" x="1278.76" y="-168.79" font-family="Times,serif" font-size="14.00">2009</text>
</a>
</g>
</g>
<!-- RFC5645&#45;&gt;rev_cites -->
<g id="edge12" class="edge">
<title>RFC5645&#45;&gt;rev_cites</title>
<path fill="none" stroke="black" d="M1249.45,-230.68C1205.62,-291.01 1124.12,-403.18 1086.44,-455.04"/>
<polygon fill="black" stroke="black" points="1083.66,-452.92 1080.61,-463.07 1089.32,-457.03 1083.66,-452.92"/>
</g>
<!-- RFC5646 -->
<g id="node13" class="node">
<title>RFC5646</title>
<g id="a_node13"><a xlink:href="RFC5646.html" xlink:title="This document describes the structure, content, construction, and semantics of language tags for use in cases where it is desirable to indicate the language used in an information object. &#160;It also describes how to register values for use in language tags and the creation of user&#45;defined extensions for private interchange. &#160;This document specifies an Internet Best Current Practices for the Internet Community, and requests discussion and suggestions for improvements." target="_top">
<ellipse fill="none" stroke="black" cx="1541.28" cy="-551.67" rx="132.76" ry="40.66"/>
<text xml:space="preserve" text-anchor="middle" x="1541.28" y="-563.12" font-family="Times,serif" font-size="14.00">RFC5646</text>
<text xml:space="preserve" text-anchor="middle" x="1541.28" y="-546.62" font-family="Times,serif" font-size="14.00">Tags for Identifying Languages</text>
<text xml:space="preserve" text-anchor="middle" x="1541.28" y="-530.12" font-family="Times,serif" font-size="14.00">2009</text>
</a>
</g>
</g>
<!-- RFC5646&#45;&gt;rev_cites -->
<g id="edge13" class="edge">
<title>RFC5646&#45;&gt;rev_cites</title>
<path fill="none" stroke="black" d="M1420.82,-534.17C1316.66,-519.03 1172.44,-498.07 1104.58,-488.21"/>
<polygon fill="black" stroke="black" points="1105.49,-484.81 1095.09,-486.83 1104.48,-491.74 1105.49,-484.81"/>
</g>
</g>
</svg>
