<?xml version="1.0" encoding="UTF-8" standalone="no"?>
<!DOCTYPE svg PUBLIC "-//W3C//DTD SVG 1.1//EN"
 "http://www.w3.org/Graphics/SVG/1.1/DTD/svg11.dtd">
<!-- Generated by graphviz version 14.1.1 (20251213.1925)
 -->
<!-- Title: Flow Pages: 1 -->
<svg width="1322pt" height="1201pt"
 viewBox="0.00 0.00 1322.00 1201.00" xmlns="http://www.w3.org/2000/svg" xmlns:xlink="http://www.w3.org/1999/xlink">
<g id="graph0" class="graph" transform="scale(1 1) rotate(0) translate(4 1196.94)">
<title>Flow</title>
<polygon fill="white" stroke="none" points="-4,4 -4,-1196.94 1317.51,-1196.94 1317.51,4 -4,4"/>
<!-- RFC4431 -->
<g id="node1" class="node">
<title>RFC4431</title>
<g id="a_node1"><a xlink:title="This document defines a new DNS resource record, called the DNSSEC Lookaside Validation (DLV) RR, for publishing DNSSEC trust anchors outside of the DNS delegation chain. &#160;This memo provides information for the Internet community.">
<ellipse fill="green" stroke="black" stroke-width="3" cx="420.94" cy="-796.84" rx="232.46" ry="65.05"/>
<text xml:space="preserve" text-anchor="middle" x="420.94" y="-821.74" font-family="Times,serif" font-size="18.00">RFC4431</text>
<text xml:space="preserve" text-anchor="middle" x="420.94" y="-800.74" font-family="Times,serif" font-size="18.00">The DNSSEC Lookaside Validation (DLV)</text>
<text xml:space="preserve" text-anchor="middle" x="420.94" y="-779.74" font-family="Times,serif" font-size="18.00">DNS Resource Record</text>
<text xml:space="preserve" text-anchor="middle" x="420.94" y="-758.74" font-family="Times,serif" font-size="18.00">2006</text>
</a>
</g>
</g>
<!-- obs -->
<g id="node3" class="node">
<title>obs</title>
<polygon fill="lightblue" stroke="black" points="803.48,-983.11 737.23,-983.11 737.23,-947.11 803.48,-947.11 803.48,-983.11"/>
<text xml:space="preserve" text-anchor="middle" x="770.35" y="-960.06" font-family="Times,serif" font-size="14.00">obsoletes</text>
</g>
<!-- RFC4431&#45;&gt;obs -->
<g id="edge2" class="edge">
<title>RFC4431&#45;&gt;obs</title>
<path fill="none" stroke="black" d="M539.72,-854.05C604.15,-885.07 679.91,-921.56 726.53,-944.01"/>
<polygon fill="black" stroke="black" points="724.99,-947.15 735.52,-948.34 728.02,-940.84 724.99,-947.15"/>
</g>
<!-- updates -->
<g id="node4" class="node">
<title>updates</title>
<polygon fill="lightyellow" stroke="black" points="535.86,-1192.94 478.61,-1192.94 478.61,-1156.94 535.86,-1156.94 535.86,-1192.94"/>
<text xml:space="preserve" text-anchor="middle" x="507.24" y="-1169.89" font-family="Times,serif" font-size="14.00">updates</text>
</g>
<!-- RFC4431&#45;&gt;updates -->
<g id="edge3" class="edge">
<title>RFC4431&#45;&gt;updates</title>
<path fill="none" stroke="black" d="M436.07,-863.14C455.06,-946.33 486.8,-1085.4 500.55,-1145.64"/>
<polygon fill="black" stroke="black" points="497.08,-1146.15 502.72,-1155.12 503.9,-1144.59 497.08,-1146.15"/>
</g>
<!-- cites -->
<g id="node6" class="node">
<title>cites</title>
<polygon fill="lightblue" stroke="black" points="206.14,-1118.05 152.14,-1118.05 152.14,-1082.05 206.14,-1082.05 206.14,-1118.05"/>
<text xml:space="preserve" text-anchor="middle" x="179.14" y="-1095" font-family="Times,serif" font-size="14.00">cites</text>
</g>
<!-- RFC4431&#45;&gt;cites -->
<g id="edge5" class="edge">
<title>RFC4431&#45;&gt;cites</title>
<path fill="none" stroke="black" d="M369.37,-861.52C316.96,-927.23 238.32,-1025.85 200.69,-1073.03"/>
<polygon fill="black" stroke="black" points="198.18,-1070.57 194.68,-1080.57 203.65,-1074.93 198.18,-1070.57"/>
</g>
<!-- obs_by -->
<g id="node2" class="node">
<title>obs_by</title>
<polygon fill="lightblue" stroke="black" points="66.25,-814.84 0,-814.84 0,-778.84 66.25,-778.84 66.25,-814.84"/>
<text xml:space="preserve" text-anchor="middle" x="33.13" y="-791.79" font-family="Times,serif" font-size="14.00">obsoletes</text>
</g>
<!-- obs_by&#45;&gt;RFC4431 -->
<g id="edge1" class="edge">
<title>obs_by&#45;&gt;RFC4431</title>
<path fill="none" stroke="black" d="M66.53,-796.84C92.98,-796.84 132.57,-796.84 175.83,-796.84"/>
<polygon fill="black" stroke="black" points="175.7,-800.34 185.7,-796.84 175.7,-793.34 175.7,-800.34"/>
</g>
<!-- updated_by -->
<g id="node5" class="node">
<title>updated_by</title>
<polygon fill="lightyellow" stroke="black" points="207.77,-511.64 150.52,-511.64 150.52,-475.64 207.77,-475.64 207.77,-511.64"/>
<text xml:space="preserve" text-anchor="middle" x="179.14" y="-488.59" font-family="Times,serif" font-size="14.00">updates</text>
</g>
<!-- updated_by&#45;&gt;RFC4431 -->
<g id="edge4" class="edge">
<title>updated_by&#45;&gt;RFC4431</title>
<path fill="none" stroke="black" d="M193.54,-511.7C226.01,-552.41 306.44,-653.26 362.37,-723.4"/>
<polygon fill="black" stroke="black" points="359.49,-725.4 368.46,-731.04 364.97,-721.04 359.49,-725.4"/>
</g>
<!-- rev_cites -->
<g id="node7" class="node">
<title>rev_cites</title>
<polygon fill="lightblue" stroke="black" points="689.74,-511.64 635.74,-511.64 635.74,-475.64 689.74,-475.64 689.74,-511.64"/>
<text xml:space="preserve" text-anchor="middle" x="662.74" y="-488.59" font-family="Times,serif" font-size="14.00">cites</text>
</g>
<!-- rev_cites&#45;&gt;RFC4431 -->
<g id="edge6" class="edge">
<title>rev_cites&#45;&gt;RFC4431</title>
<path fill="none" stroke="black" d="M648.34,-511.7C615.87,-552.41 535.44,-653.26 479.51,-723.4"/>
<polygon fill="black" stroke="black" points="476.92,-721.04 473.42,-731.04 482.39,-725.4 476.92,-721.04"/>
</g>
<!-- RFC5074 -->
<g id="node8" class="node">
<title>RFC5074</title>
<g id="a_node8"><a xlink:href="RFC5074.html" xlink:title="DNSSEC Lookaside Validation (DLV) is a mechanism for publishing DNS Security (DNSSEC) trust anchors outside of the DNS delegation chain. &#160;It allows validating resolvers to validate DNSSEC&#45;signed data from zones whose ancestors either aren&#39;t signed or don&#39;t publish Delegation Signer (DS) records for their children. &#160;This memo provides information for the Internet community." target="_top">
<ellipse fill="none" stroke="black" cx="593.54" cy="-40.66" rx="160.34" ry="40.66"/>
<text xml:space="preserve" text-anchor="middle" x="593.54" y="-52.11" font-family="Times,serif" font-size="14.00">RFC5074</text>
<text xml:space="preserve" text-anchor="middle" x="593.54" y="-35.61" font-family="Times,serif" font-size="14.00">DNSSEC Lookaside Validation (DLV)</text>
<text xml:space="preserve" text-anchor="middle" x="593.54" y="-19.11" font-family="Times,serif" font-size="14.00">2007</text>
</a>
</g>
</g>
<!-- RFC5074&#45;&gt;rev_cites -->
<g id="edge7" class="edge">
<title>RFC5074&#45;&gt;rev_cites</title>
<path fill="none" stroke="black" d="M599.8,-81.66C613.6,-171.97 646.34,-386.27 658.28,-464.45"/>
<polygon fill="black" stroke="black" points="654.75,-464.52 659.72,-473.88 661.67,-463.47 654.75,-464.52"/>
</g>
<!-- RFC8749 -->
<g id="node9" class="node">
<title>RFC8749</title>
<g id="a_node9"><a xlink:href="RFC8749.html" xlink:title="This document retires DNSSEC Lookaside Validation (DLV) and reclassifies RFCs 4431 and 5074 as Historic. &#160;Furthermore, this document updates RFC 6698 by excluding the DLV resource record from certificates and updates RFC 6840 by excluding the DLV registries from the trust anchor selection." target="_top">
<ellipse fill="none" stroke="black" cx="1119.76" cy="-460.31" rx="193.75" ry="52.33"/>
<text xml:space="preserve" text-anchor="middle" x="1119.76" y="-480.01" font-family="Times,serif" font-size="14.00">RFC8749</text>
<text xml:space="preserve" text-anchor="middle" x="1119.76" y="-463.51" font-family="Times,serif" font-size="14.00">Moving DNSSEC Lookaside Validation (DLV)</text>
<text xml:space="preserve" text-anchor="middle" x="1119.76" y="-447.01" font-family="Times,serif" font-size="14.00">to Historic Status</text>
<text xml:space="preserve" text-anchor="middle" x="1119.76" y="-430.51" font-family="Times,serif" font-size="14.00">2020</text>
</a>
</g>
</g>
<!-- RFC8749&#45;&gt;rev_cites -->
<g id="edge8" class="edge">
<title>RFC8749&#45;&gt;rev_cites</title>
<path fill="none" stroke="black" d="M932.23,-473.99C846.47,-480.24 752.76,-487.07 701.55,-490.81"/>
<polygon fill="black" stroke="black" points="701.3,-487.32 691.58,-491.53 701.81,-494.3 701.3,-487.32"/>
</g>
</g>
</svg>
