<?xml version="1.0" encoding="UTF-8" standalone="no"?>
<!DOCTYPE svg PUBLIC "-//W3C//DTD SVG 1.1//EN"
 "http://www.w3.org/Graphics/SVG/1.1/DTD/svg11.dtd">
<!-- Generated by graphviz version 14.1.1 (20251213.1925)
 -->
<!-- Title: Flow Pages: 1 -->
<svg width="887pt" height="557pt"
 viewBox="0.00 0.00 887.00 557.00" xmlns="http://www.w3.org/2000/svg" xmlns:xlink="http://www.w3.org/1999/xlink">
<g id="graph0" class="graph" transform="scale(1 1) rotate(0) translate(4 552.65)">
<title>Flow</title>
<polygon fill="white" stroke="none" points="-4,4 -4,-552.65 882.54,-552.65 882.54,4 -4,4"/>
<!-- RFC4702 -->
<g id="node1" class="node">
<title>RFC4702</title>
<g id="a_node1"><a xlink:title="This document describes a Dynamic Host Configuration Protocol for IPv4 (DHCPv4) option that can be used to exchange information about a DHCPv4 client&#39;s fully qualified domain name and about responsibility for updating the DNS RR related to the client&#39;s address assignment. [STANDARDS&#45;TRACK]">
<ellipse fill="none" stroke="black" cx="611.05" cy="-316.33" rx="176.25" ry="63.99"/>
<text xml:space="preserve" text-anchor="middle" x="611.05" y="-344.28" font-family="Times,serif" font-size="14.00">RFC4702</text>
<text xml:space="preserve" text-anchor="middle" x="611.05" y="-327.78" font-family="Times,serif" font-size="14.00">The Dynamic Host Configuration Protocol</text>
<text xml:space="preserve" text-anchor="middle" x="611.05" y="-311.28" font-family="Times,serif" font-size="14.00">(DHCP) Client Fully Qualified Domain</text>
<text xml:space="preserve" text-anchor="middle" x="611.05" y="-294.78" font-family="Times,serif" font-size="14.00">Name (FQDN) Option</text>
<text xml:space="preserve" text-anchor="middle" x="611.05" y="-278.28" font-family="Times,serif" font-size="14.00">2006</text>
</a>
</g>
</g>
<!-- obs -->
<g id="node3" class="node">
<title>obs</title>
<polygon fill="none" stroke="black" points="878.54,-388.33 812.29,-388.33 812.29,-352.33 878.54,-352.33 878.54,-388.33"/>
<text xml:space="preserve" text-anchor="middle" x="845.42" y="-365.28" font-family="Times,serif" font-size="14.00">obsoletes</text>
</g>
<!-- RFC4702&#45;&gt;obs -->
<g id="edge2" class="edge">
<title>RFC4702&#45;&gt;obs</title>
<path fill="none" stroke="black" d="M760.2,-350.75C774.8,-354.15 788.68,-357.37 800.8,-360.19"/>
<polygon fill="black" stroke="black" points="799.84,-363.56 810.37,-362.41 801.42,-356.74 799.84,-363.56"/>
</g>
<!-- updates -->
<g id="node4" class="node">
<title>updates</title>
<polygon fill="none" stroke="black" points="874.04,-334.33 816.79,-334.33 816.79,-298.33 874.04,-298.33 874.04,-334.33"/>
<text xml:space="preserve" text-anchor="middle" x="845.42" y="-311.28" font-family="Times,serif" font-size="14.00">updates</text>
</g>
<!-- RFC4702&#45;&gt;updates -->
<g id="edge3" class="edge">
<title>RFC4702&#45;&gt;updates</title>
<path fill="none" stroke="black" d="M787.57,-316.33C793.78,-316.33 799.68,-316.33 805.16,-316.33"/>
<polygon fill="black" stroke="black" points="804.94,-319.83 814.94,-316.33 804.94,-312.83 804.94,-319.83"/>
</g>
<!-- cites -->
<g id="node6" class="node">
<title>cites</title>
<polygon fill="none" stroke="black" points="872.42,-280.33 818.42,-280.33 818.42,-244.33 872.42,-244.33 872.42,-280.33"/>
<text xml:space="preserve" text-anchor="middle" x="845.42" y="-257.28" font-family="Times,serif" font-size="14.00">cites</text>
</g>
<!-- RFC4702&#45;&gt;cites -->
<g id="edge5" class="edge">
<title>RFC4702&#45;&gt;cites</title>
<path fill="none" stroke="black" d="M760.2,-281.9C777.31,-277.92 793.43,-274.18 806.88,-271.05"/>
<polygon fill="black" stroke="black" points="807.56,-274.48 816.51,-268.81 805.98,-267.67 807.56,-274.48"/>
</g>
<!-- obs_by -->
<g id="node2" class="node">
<title>obs_by</title>
<polygon fill="none" stroke="black" points="409.8,-388.33 343.55,-388.33 343.55,-352.33 409.8,-352.33 409.8,-388.33"/>
<text xml:space="preserve" text-anchor="middle" x="376.68" y="-365.28" font-family="Times,serif" font-size="14.00">obsoletes</text>
</g>
<!-- obs_by&#45;&gt;RFC4702 -->
<g id="edge1" class="edge">
<title>obs_by&#45;&gt;RFC4702</title>
<path fill="none" stroke="black" d="M409.99,-362.82C421.58,-360.12 435.55,-356.88 450.66,-353.36"/>
<polygon fill="black" stroke="black" points="451.43,-356.78 460.38,-351.11 449.84,-349.96 451.43,-356.78"/>
</g>
<!-- updated_by -->
<g id="node5" class="node">
<title>updated_by</title>
<polygon fill="none" stroke="black" points="405.3,-334.33 348.05,-334.33 348.05,-298.33 405.3,-298.33 405.3,-334.33"/>
<text xml:space="preserve" text-anchor="middle" x="376.68" y="-311.28" font-family="Times,serif" font-size="14.00">updates</text>
</g>
<!-- updated_by&#45;&gt;RFC4702 -->
<g id="edge4" class="edge">
<title>updated_by&#45;&gt;RFC4702</title>
<path fill="none" stroke="black" d="M405.71,-316.33C411.04,-316.33 416.98,-316.33 423.37,-316.33"/>
<polygon fill="black" stroke="black" points="423.03,-319.83 433.03,-316.33 423.03,-312.83 423.03,-319.83"/>
</g>
<!-- rev_cites -->
<g id="node7" class="node">
<title>rev_cites</title>
<polygon fill="none" stroke="black" points="403.68,-280.33 349.68,-280.33 349.68,-244.33 403.68,-244.33 403.68,-280.33"/>
<text xml:space="preserve" text-anchor="middle" x="376.68" y="-257.28" font-family="Times,serif" font-size="14.00">cites</text>
</g>
<!-- rev_cites&#45;&gt;RFC4702 -->
<g id="edge6" class="edge">
<title>rev_cites&#45;&gt;RFC4702</title>
<path fill="none" stroke="black" d="M403.88,-268.42C416.52,-271.35 432.82,-275.14 450.72,-279.3"/>
<polygon fill="black" stroke="black" points="449.73,-282.66 460.26,-281.52 451.31,-275.84 449.73,-282.66"/>
</g>
<!-- RFC5986 -->
<g id="node8" class="node">
<title>RFC5986</title>
<g id="a_node8"><a xlink:href="RFC5986.html" xlink:title="Discovery of the correct Location Information Server (LIS) in the local access network is necessary for Devices that wish to acquire location information from the network. &#160;A method is described for the discovery of a LIS in the access network serving a Device. &#160;Dynamic Host Configuration Protocol (DHCP) options for IP versions 4 and 6 are defined that specify a domain name. &#160;This domain name is then used as input to a URI&#45;enabled NAPTR (U&#45;NAPTR) resolution process. [STANDARDS&#45;TRACK]" target="_top">
<ellipse fill="none" stroke="black" cx="159.28" cy="-496.33" rx="133.29" ry="52.33"/>
<text xml:space="preserve" text-anchor="middle" x="159.28" y="-516.03" font-family="Times,serif" font-size="14.00">RFC5986</text>
<text xml:space="preserve" text-anchor="middle" x="159.28" y="-499.53" font-family="Times,serif" font-size="14.00">Discovering the Local Location</text>
<text xml:space="preserve" text-anchor="middle" x="159.28" y="-483.03" font-family="Times,serif" font-size="14.00">Information Server (LIS)</text>
<text xml:space="preserve" text-anchor="middle" x="159.28" y="-466.53" font-family="Times,serif" font-size="14.00">2010</text>
</a>
</g>
</g>
<!-- RFC5986&#45;&gt;rev_cites -->
<g id="edge7" class="edge">
<title>RFC5986&#45;&gt;rev_cites</title>
<path fill="none" stroke="black" d="M273.28,-468.91C290.51,-460.33 306.52,-449.08 318.55,-434.33 357.78,-386.22 315.72,-349.89 344.95,-290.27"/>
<polygon fill="black" stroke="black" points="347.84,-292.29 349.55,-281.83 341.69,-288.94 347.84,-292.29"/>
</g>
<!-- RFC6939 -->
<g id="node9" class="node">
<title>RFC6939</title>
<g id="a_node9"><a xlink:href="RFC6939.html" xlink:title="This document specifies the format and mechanism that is to be used for encoding the client link&#45;layer address in DHCPv6 Relay&#45;Forward messages by defining a new DHCPv6 Client Link&#45;Layer Address option." target="_top">
<ellipse fill="none" stroke="black" cx="159.28" cy="-373.33" rx="153.44" ry="52.33"/>
<text xml:space="preserve" text-anchor="middle" x="159.28" y="-393.03" font-family="Times,serif" font-size="14.00">RFC6939</text>
<text xml:space="preserve" text-anchor="middle" x="159.28" y="-376.53" font-family="Times,serif" font-size="14.00">Client Link&#45;Layer Address Option in</text>
<text xml:space="preserve" text-anchor="middle" x="159.28" y="-360.03" font-family="Times,serif" font-size="14.00">DHCPv6</text>
<text xml:space="preserve" text-anchor="middle" x="159.28" y="-343.53" font-family="Times,serif" font-size="14.00">2013</text>
</a>
</g>
</g>
<!-- RFC6939&#45;&gt;rev_cites -->
<g id="edge8" class="edge">
<title>RFC6939&#45;&gt;rev_cites</title>
<path fill="none" stroke="black" d="M270.57,-337.02C287.15,-329.81 303.67,-321.57 318.55,-312.33 331.38,-304.36 332.21,-299.3 343.55,-289.33 343.95,-288.98 344.35,-288.63 344.75,-288.27"/>
<polygon fill="black" stroke="black" points="347,-290.95 352.3,-281.78 342.44,-285.65 347,-290.95"/>
</g>
<!-- RFC7819 -->
<g id="node10" class="node">
<title>RFC7819</title>
<g id="a_node10"><a xlink:href="RFC7819.html" xlink:title="DHCP is a protocol that is used to provide addressing and configuration information to IPv4 hosts. &#160;This document discusses the various identifiers used by DHCP and the potential privacy issues." target="_top">
<ellipse fill="none" stroke="black" cx="159.28" cy="-262.33" rx="142.31" ry="40.66"/>
<text xml:space="preserve" text-anchor="middle" x="159.28" y="-273.78" font-family="Times,serif" font-size="14.00">RFC7819</text>
<text xml:space="preserve" text-anchor="middle" x="159.28" y="-257.28" font-family="Times,serif" font-size="14.00">Privacy Considerations for DHCP</text>
<text xml:space="preserve" text-anchor="middle" x="159.28" y="-240.78" font-family="Times,serif" font-size="14.00">2016</text>
</a>
</g>
</g>
<!-- RFC7819&#45;&gt;rev_cites -->
<g id="edge9" class="edge">
<title>RFC7819&#45;&gt;rev_cites</title>
<path fill="none" stroke="black" d="M301.85,-262.33C314.94,-262.33 327.29,-262.33 338.01,-262.33"/>
<polygon fill="black" stroke="black" points="337.85,-265.83 347.85,-262.33 337.85,-258.83 337.85,-265.83"/>
</g>
<!-- RFC7844 -->
<g id="node11" class="node">
<title>RFC7844</title>
<g id="a_node11"><a xlink:href="RFC7844.html" xlink:title="Some DHCP options carry unique identifiers. &#160;These identifiers can enable device tracking even if the device administrator takes care of randomizing other potential identifications like link&#45;layer addresses or IPv6 addresses. &#160;The anonymity profiles are designed for clients that wish to remain anonymous to the visited network. &#160;The profiles provide guidelines on the composition of DHCP or DHCPv6 messages, designed to minimize disclosure of identifying information." target="_top">
<ellipse fill="none" stroke="black" cx="159.28" cy="-163.33" rx="158.75" ry="40.66"/>
<text xml:space="preserve" text-anchor="middle" x="159.28" y="-174.78" font-family="Times,serif" font-size="14.00">RFC7844</text>
<text xml:space="preserve" text-anchor="middle" x="159.28" y="-158.28" font-family="Times,serif" font-size="14.00">Anonymity Profiles for DHCP Clients</text>
<text xml:space="preserve" text-anchor="middle" x="159.28" y="-141.78" font-family="Times,serif" font-size="14.00">2016</text>
</a>
</g>
</g>
<!-- RFC7844&#45;&gt;rev_cites -->
<g id="edge10" class="edge">
<title>RFC7844&#45;&gt;rev_cites</title>
<path fill="none" stroke="black" d="M273.4,-191.93C289.01,-197.7 304.49,-204.47 318.55,-212.33 330,-218.73 341.18,-227.71 350.58,-236.29"/>
<polygon fill="black" stroke="black" points="347.9,-238.58 357.56,-242.94 352.73,-233.51 347.9,-238.58"/>
</g>
<!-- RFC9704 -->
<g id="node12" class="node">
<title>RFC9704</title>
<g id="a_node12"><a xlink:href="RFC9704.html" xlink:title="When split&#45;horizon DNS is deployed by a network, certain domain names can be resolved authoritatively by a network&#45;provided DNS resolver. &#160;DNS clients that are not configured to use this resolver by default can use it for these specific domains only. &#160;This specification defines a mechanism for domain owners to inform DNS clients about local resolvers that are authorized to answer authoritatively for certain subdomains." target="_top">
<ellipse fill="none" stroke="black" cx="159.28" cy="-52.33" rx="159.28" ry="52.33"/>
<text xml:space="preserve" text-anchor="middle" x="159.28" y="-72.03" font-family="Times,serif" font-size="14.00">RFC9704</text>
<text xml:space="preserve" text-anchor="middle" x="159.28" y="-55.53" font-family="Times,serif" font-size="14.00">Establishing Local DNS Authority in</text>
<text xml:space="preserve" text-anchor="middle" x="159.28" y="-39.03" font-family="Times,serif" font-size="14.00">Validated Split&#45;Horizon Environments</text>
<text xml:space="preserve" text-anchor="middle" x="159.28" y="-22.53" font-family="Times,serif" font-size="14.00">2025</text>
</a>
</g>
</g>
<!-- RFC9704&#45;&gt;rev_cites -->
<g id="edge11" class="edge">
<title>RFC9704&#45;&gt;rev_cites</title>
<path fill="none" stroke="black" d="M281.4,-86.37C295.03,-93.71 307.84,-102.59 318.55,-113.33 351.24,-146.07 365.59,-199.5 371.62,-232.69"/>
<polygon fill="black" stroke="black" points="368.14,-233.14 373.23,-242.43 375.05,-232 368.14,-233.14"/>
</g>
</g>
</svg>
