<?xml version="1.0" encoding="UTF-8" standalone="no"?>
<!DOCTYPE svg PUBLIC "-//W3C//DTD SVG 1.1//EN"
 "http://www.w3.org/Graphics/SVG/1.1/DTD/svg11.dtd">
<!-- Generated by graphviz version 14.1.1 (20251213.1925)
 -->
<!-- Title: Flow Pages: 1 -->
<svg width="1138pt" height="817pt"
 viewBox="0.00 0.00 1138.00 817.00" xmlns="http://www.w3.org/2000/svg" xmlns:xlink="http://www.w3.org/1999/xlink">
<g id="graph0" class="graph" transform="scale(1 1) rotate(0) translate(4 812.91)">
<title>Flow</title>
<polygon fill="white" stroke="none" points="-4,4 -4,-812.91 1134.11,-812.91 1134.11,4 -4,4"/>
<!-- RFC4367 -->
<g id="node1" class="node">
<title>RFC4367</title>
<g id="a_node1"><a xlink:title="The Domain Name System (DNS) provides an essential service on the Internet, mapping structured names to a variety of data, usually IP addresses. &#160;These names appear in email addresses, Uniform Resource Identifiers (URIs), and other application&#45;layer identifiers that are often rendered to human users. &#160;Because of this, there has been a strong demand to acquire names that have significance to people, through equivalence to registered trademarks, company names, types of services, and so on. &#160;There is a danger in this trend; the humans and automata that consume and use such names will associate specific semantics with some names and thereby make assumptions about the services that are, or should be, provided by the hosts associated with the names. &#160;Those assumptions can often be false, resulting in a variety of failure conditions. &#160;This document discusses this problem in more detail and makes recommendations on how it can be avoided. &#160;This memo provides information for the Internet community.">
<ellipse fill="green" stroke="black" stroke-width="3" cx="352.94" cy="-421.62" rx="205.41" ry="65.05"/>
<text xml:space="preserve" text-anchor="middle" x="352.94" y="-446.52" font-family="Times,serif" font-size="18.00">RFC4367</text>
<text xml:space="preserve" text-anchor="middle" x="352.94" y="-425.52" font-family="Times,serif" font-size="18.00">What&#39;s in a Name: False Assumptions</text>
<text xml:space="preserve" text-anchor="middle" x="352.94" y="-404.52" font-family="Times,serif" font-size="18.00">about DNS Names</text>
<text xml:space="preserve" text-anchor="middle" x="352.94" y="-383.52" font-family="Times,serif" font-size="18.00">2006</text>
</a>
</g>
</g>
<!-- obs -->
<g id="node3" class="node">
<title>obs</title>
<polygon fill="lightblue" stroke="black" points="705.89,-624.27 639.64,-624.27 639.64,-588.27 705.89,-588.27 705.89,-624.27"/>
<text xml:space="preserve" text-anchor="middle" x="672.76" y="-601.22" font-family="Times,serif" font-size="14.00">obsoletes</text>
</g>
<!-- RFC4367&#45;&gt;obs -->
<g id="edge2" class="edge">
<title>RFC4367&#45;&gt;obs</title>
<path fill="none" stroke="black" d="M453.26,-479.54C513.08,-514.07 585.89,-556.11 630.78,-582.03"/>
<polygon fill="black" stroke="black" points="629.02,-585.05 639.43,-587.02 632.52,-578.99 629.02,-585.05"/>
</g>
<!-- updates -->
<g id="node4" class="node">
<title>updates</title>
<polygon fill="lightyellow" stroke="black" points="381.57,-808.91 324.32,-808.91 324.32,-772.91 381.57,-772.91 381.57,-808.91"/>
<text xml:space="preserve" text-anchor="middle" x="352.94" y="-785.86" font-family="Times,serif" font-size="14.00">updates</text>
</g>
<!-- RFC4367&#45;&gt;updates -->
<g id="edge3" class="edge">
<title>RFC4367&#45;&gt;updates</title>
<path fill="none" stroke="black" d="M352.94,-488.07C352.94,-568.91 352.94,-701.91 352.94,-761"/>
<polygon fill="black" stroke="black" points="349.44,-760.93 352.94,-770.93 356.44,-760.93 349.44,-760.93"/>
</g>
<!-- cites -->
<g id="node6" class="node">
<title>cites</title>
<polygon fill="lightblue" stroke="black" points="60.13,-624.27 6.13,-624.27 6.13,-588.27 60.13,-588.27 60.13,-624.27"/>
<text xml:space="preserve" text-anchor="middle" x="33.13" y="-601.22" font-family="Times,serif" font-size="14.00">cites</text>
</g>
<!-- RFC4367&#45;&gt;cites -->
<g id="edge5" class="edge">
<title>RFC4367&#45;&gt;cites</title>
<path fill="none" stroke="black" d="M252.63,-479.54C190.6,-515.35 114.6,-559.23 70.25,-584.83"/>
<polygon fill="black" stroke="black" points="68.7,-581.68 61.79,-589.72 72.2,-587.75 68.7,-581.68"/>
</g>
<!-- obs_by -->
<g id="node2" class="node">
<title>obs_by</title>
<polygon fill="lightblue" stroke="black" points="66.25,-254.97 0,-254.97 0,-218.97 66.25,-218.97 66.25,-254.97"/>
<text xml:space="preserve" text-anchor="middle" x="33.13" y="-231.92" font-family="Times,serif" font-size="14.00">obsoletes</text>
</g>
<!-- obs_by&#45;&gt;RFC4367 -->
<g id="edge1" class="edge">
<title>obs_by&#45;&gt;RFC4367</title>
<path fill="none" stroke="black" d="M64.96,-255.35C106.13,-279.12 179.98,-321.76 242.58,-357.9"/>
<polygon fill="black" stroke="black" points="240.81,-360.92 251.22,-362.89 244.31,-354.86 240.81,-360.92"/>
</g>
<!-- updated_by -->
<g id="node5" class="node">
<title>updated_by</title>
<polygon fill="lightyellow" stroke="black" points="381.57,-70.33 324.32,-70.33 324.32,-34.33 381.57,-34.33 381.57,-70.33"/>
<text xml:space="preserve" text-anchor="middle" x="352.94" y="-47.28" font-family="Times,serif" font-size="14.00">updates</text>
</g>
<!-- updated_by&#45;&gt;RFC4367 -->
<g id="edge4" class="edge">
<title>updated_by&#45;&gt;RFC4367</title>
<path fill="none" stroke="black" d="M352.94,-70.64C352.94,-119.67 352.94,-256.12 352.94,-343.73"/>
<polygon fill="black" stroke="black" points="349.44,-343.71 352.94,-353.71 356.44,-343.71 349.44,-343.71"/>
</g>
<!-- rev_cites -->
<g id="node7" class="node">
<title>rev_cites</title>
<polygon fill="lightblue" stroke="black" points="699.76,-254.97 645.76,-254.97 645.76,-218.97 699.76,-218.97 699.76,-254.97"/>
<text xml:space="preserve" text-anchor="middle" x="672.76" y="-231.92" font-family="Times,serif" font-size="14.00">cites</text>
</g>
<!-- rev_cites&#45;&gt;RFC4367 -->
<g id="edge6" class="edge">
<title>rev_cites&#45;&gt;RFC4367</title>
<path fill="none" stroke="black" d="M645.49,-252.72C605.41,-275.86 528.28,-320.39 463.28,-357.92"/>
<polygon fill="black" stroke="black" points="461.6,-354.85 454.68,-362.88 465.1,-360.91 461.6,-354.85"/>
</g>
<!-- RFC6950 -->
<g id="node8" class="node">
<title>RFC6950</title>
<g id="a_node8"><a xlink:href="RFC6950.html" xlink:title="A number of Internet applications rely on the Domain Name System (DNS) to support their operations. &#160;Many applications use the DNS to locate services for a domain; some, for example, transform identifiers other than domain names into formats that the DNS can process, and then fetch application data or service location data from the DNS. &#160;Proposals incorporating sophisticated application behavior using DNS as a substrate have raised questions about the role of the DNS as an application platform. &#160;This document explores the architectural consequences of using the DNS to implement certain application features, and it provides guidance to future application designers as to the limitations of the DNS as a substrate and the situations in which alternative designs should be considered." target="_top">
<ellipse fill="none" stroke="black" cx="992.58" cy="-52.33" rx="137.53" ry="52.33"/>
<text xml:space="preserve" text-anchor="middle" x="992.58" y="-72.03" font-family="Times,serif" font-size="14.00">RFC6950</text>
<text xml:space="preserve" text-anchor="middle" x="992.58" y="-55.53" font-family="Times,serif" font-size="14.00">Architectural Considerations on</text>
<text xml:space="preserve" text-anchor="middle" x="992.58" y="-39.03" font-family="Times,serif" font-size="14.00">Application Features in the DNS</text>
<text xml:space="preserve" text-anchor="middle" x="992.58" y="-22.53" font-family="Times,serif" font-size="14.00">2013</text>
</a>
</g>
</g>
<!-- RFC6950&#45;&gt;rev_cites -->
<g id="edge7" class="edge">
<title>RFC6950&#45;&gt;rev_cites</title>
<path fill="none" stroke="black" d="M916.38,-96.32C851.22,-133.94 760.22,-186.48 709.91,-215.52"/>
<polygon fill="black" stroke="black" points="708.33,-212.39 701.42,-220.42 711.83,-218.46 708.33,-212.39"/>
</g>
</g>
</svg>
