<?xml version="1.0" encoding="UTF-8" standalone="no"?>
<!DOCTYPE svg PUBLIC "-//W3C//DTD SVG 1.1//EN"
 "http://www.w3.org/Graphics/SVG/1.1/DTD/svg11.dtd">
<!-- Generated by graphviz version 14.1.1 (20251213.1925)
 -->
<!-- Title: Flow Pages: 1 -->
<svg width="477pt" height="152pt"
 viewBox="0.00 0.00 477.00 152.00" xmlns="http://www.w3.org/2000/svg" xmlns:xlink="http://www.w3.org/1999/xlink">
<g id="graph0" class="graph" transform="scale(1 1) rotate(0) translate(4 148)">
<title>Flow</title>
<polygon fill="white" stroke="none" points="-4,4 -4,-148 473.23,-148 473.23,4 -4,4"/>
<!-- RFC4767 -->
<g id="node1" class="node">
<title>RFC4767</title>
<g id="a_node1"><a xlink:title="This memo describes the Intrusion Detection Exchange Protocol (IDXP), an application&#45;level protocol for exchanging data between intrusion detection entities. &#160;IDXP supports mutual&#45;authentication, integrity, and confidentiality over a connection&#45;oriented protocol. &#160;The protocol provides for the exchange of IDMEF messages, unstructured text, and binary data. &#160;The IDMEF message elements are described in RFC 4765, The Intrusion Detection Message Exchange Format (IDMEF), a companion document of the Intrusion Detection Exchange Format Working Group (IDWG) of the IETF. &#160;This memo defines an Experimental Protocol for the Internet community.">
<ellipse fill="none" stroke="black" cx="234.62" cy="-72" rx="143.37" ry="52.33"/>
<text xml:space="preserve" text-anchor="middle" x="234.62" y="-91.7" font-family="Times,serif" font-size="14.00">RFC4767</text>
<text xml:space="preserve" text-anchor="middle" x="234.62" y="-75.2" font-family="Times,serif" font-size="14.00">The Intrusion Detection Exchange</text>
<text xml:space="preserve" text-anchor="middle" x="234.62" y="-58.7" font-family="Times,serif" font-size="14.00">Protocol (IDXP)</text>
<text xml:space="preserve" text-anchor="middle" x="234.62" y="-42.2" font-family="Times,serif" font-size="14.00">2007</text>
</a>
</g>
</g>
<!-- obs -->
<g id="node3" class="node">
<title>obs</title>
<polygon fill="none" stroke="black" points="469.23,-144 402.98,-144 402.98,-108 469.23,-108 469.23,-144"/>
<text xml:space="preserve" text-anchor="middle" x="436.11" y="-120.95" font-family="Times,serif" font-size="14.00">obsoletes</text>
</g>
<!-- RFC4767&#45;&gt;obs -->
<g id="edge2" class="edge">
<title>RFC4767&#45;&gt;obs</title>
<path fill="none" stroke="black" d="M350.5,-103.1C365.09,-107.05 379.24,-110.88 391.66,-114.24"/>
<polygon fill="black" stroke="black" points="390.51,-117.55 401.07,-116.79 392.34,-110.8 390.51,-117.55"/>
</g>
<!-- updates -->
<g id="node4" class="node">
<title>updates</title>
<polygon fill="none" stroke="black" points="464.73,-90 407.48,-90 407.48,-54 464.73,-54 464.73,-90"/>
<text xml:space="preserve" text-anchor="middle" x="436.11" y="-66.95" font-family="Times,serif" font-size="14.00">updates</text>
</g>
<!-- RFC4767&#45;&gt;updates -->
<g id="edge3" class="edge">
<title>RFC4767&#45;&gt;updates</title>
<path fill="none" stroke="black" d="M378.47,-72C384.61,-72 390.48,-72 395.96,-72"/>
<polygon fill="black" stroke="black" points="395.76,-75.5 405.76,-72 395.76,-68.5 395.76,-75.5"/>
</g>
<!-- cites -->
<g id="node6" class="node">
<title>cites</title>
<polygon fill="none" stroke="black" points="463.11,-36 409.11,-36 409.11,0 463.11,0 463.11,-36"/>
<text xml:space="preserve" text-anchor="middle" x="436.11" y="-12.95" font-family="Times,serif" font-size="14.00">cites</text>
</g>
<!-- RFC4767&#45;&gt;cites -->
<g id="edge5" class="edge">
<title>RFC4767&#45;&gt;cites</title>
<path fill="none" stroke="black" d="M350.5,-40.9C367.56,-36.29 384,-31.83 397.79,-28.1"/>
<polygon fill="black" stroke="black" points="398.5,-31.53 407.24,-25.54 396.67,-24.78 398.5,-31.53"/>
</g>
<!-- obs_by -->
<g id="node2" class="node">
<title>obs_by</title>
<polygon fill="none" stroke="black" points="66.25,-144 0,-144 0,-108 66.25,-108 66.25,-144"/>
<text xml:space="preserve" text-anchor="middle" x="33.12" y="-120.95" font-family="Times,serif" font-size="14.00">obsoletes</text>
</g>
<!-- obs_by&#45;&gt;RFC4767 -->
<g id="edge1" class="edge">
<title>obs_by&#45;&gt;RFC4767</title>
<path fill="none" stroke="black" d="M66.62,-117.2C78.44,-114.01 92.61,-110.17 107.64,-106.1"/>
<polygon fill="black" stroke="black" points="108.51,-109.49 117.25,-103.5 106.68,-102.73 108.51,-109.49"/>
</g>
<!-- updated_by -->
<g id="node5" class="node">
<title>updated_by</title>
<polygon fill="none" stroke="black" points="61.75,-90 4.5,-90 4.5,-54 61.75,-54 61.75,-90"/>
<text xml:space="preserve" text-anchor="middle" x="33.12" y="-66.95" font-family="Times,serif" font-size="14.00">updates</text>
</g>
<!-- updated_by&#45;&gt;RFC4767 -->
<g id="edge4" class="edge">
<title>updated_by&#45;&gt;RFC4767</title>
<path fill="none" stroke="black" d="M61.86,-72C67.28,-72 73.31,-72 79.77,-72"/>
<polygon fill="black" stroke="black" points="79.5,-75.5 89.5,-72 79.5,-68.5 79.5,-75.5"/>
</g>
<!-- rev_cites -->
<g id="node7" class="node">
<title>rev_cites</title>
<polygon fill="none" stroke="black" points="60.12,-36 6.12,-36 6.12,0 60.12,0 60.12,-36"/>
<text xml:space="preserve" text-anchor="middle" x="33.12" y="-12.95" font-family="Times,serif" font-size="14.00">cites</text>
</g>
<!-- rev_cites&#45;&gt;RFC4767 -->
<g id="edge6" class="edge">
<title>rev_cites&#45;&gt;RFC4767</title>
<path fill="none" stroke="black" d="M60.62,-25.17C73.43,-28.64 89.84,-33.08 107.43,-37.84"/>
<polygon fill="black" stroke="black" points="106.49,-41.21 117.06,-40.45 108.32,-34.46 106.49,-41.21"/>
</g>
</g>
</svg>
