<?xml version="1.0" encoding="UTF-8" standalone="no"?>
<!DOCTYPE svg PUBLIC "-//W3C//DTD SVG 1.1//EN"
 "http://www.w3.org/Graphics/SVG/1.1/DTD/svg11.dtd">
<!-- Generated by graphviz version 14.1.1 (20251213.1925)
 -->
<!-- Title: Flow Pages: 1 -->
<svg width="1956pt" height="1623pt"
 viewBox="0.00 0.00 1956.00 1623.00" xmlns="http://www.w3.org/2000/svg" xmlns:xlink="http://www.w3.org/1999/xlink">
<g id="graph0" class="graph" transform="scale(1 1) rotate(0) translate(4 1618.99)">
<title>Flow</title>
<polygon fill="white" stroke="none" points="-4,4 -4,-1618.99 1951.55,-1618.99 1951.55,4 -4,4"/>
<!-- RFC4010 -->
<g id="node1" class="node">
<title>RFC4010</title>
<g id="a_node1"><a xlink:title="This document specifies the conventions for using the SEED encryption algorithm for encryption with the Cryptographic Message Syntax (CMS). SEED is added to the set of optional symmetric encryption algorithms in CMS by providing two classes of unique object identifiers (OIDs). One OID class defines the content encryption algorithms and the other defines the key encryption algorithms. [STANDARDS&#45;TRACK]">
<ellipse fill="green" stroke="black" stroke-width="3" cx="995.99" cy="-759.03" rx="228.75" ry="65.05"/>
<text xml:space="preserve" text-anchor="middle" x="995.99" y="-783.93" font-family="Times,serif" font-size="18.00">RFC4010</text>
<text xml:space="preserve" text-anchor="middle" x="995.99" y="-762.93" font-family="Times,serif" font-size="18.00">Use of the SEED Encryption Algorithm in</text>
<text xml:space="preserve" text-anchor="middle" x="995.99" y="-741.93" font-family="Times,serif" font-size="18.00">Cryptographic Message Syntax (CMS)</text>
<text xml:space="preserve" text-anchor="middle" x="995.99" y="-720.93" font-family="Times,serif" font-size="18.00">2005</text>
</a>
</g>
</g>
<!-- obs -->
<g id="node3" class="node">
<title>obs</title>
<polygon fill="lightblue" stroke="black" points="1412.53,-916.58 1346.28,-916.58 1346.28,-880.58 1412.53,-880.58 1412.53,-916.58"/>
<text xml:space="preserve" text-anchor="middle" x="1379.4" y="-893.53" font-family="Times,serif" font-size="14.00">obsoletes</text>
</g>
<!-- RFC4010&#45;&gt;obs -->
<g id="edge2" class="edge">
<title>RFC4010&#45;&gt;obs</title>
<path fill="none" stroke="black" d="M1139.03,-811.09C1208.72,-836.46 1287.6,-865.17 1335.41,-882.57"/>
<polygon fill="black" stroke="black" points="1333.97,-885.77 1344.57,-885.9 1336.37,-879.19 1333.97,-885.77"/>
</g>
<!-- updates -->
<g id="node4" class="node">
<title>updates</title>
<polygon fill="lightyellow" stroke="black" points="1228.63,-1130.38 1171.38,-1130.38 1171.38,-1094.38 1228.63,-1094.38 1228.63,-1130.38"/>
<text xml:space="preserve" text-anchor="middle" x="1200" y="-1107.33" font-family="Times,serif" font-size="14.00">updates</text>
</g>
<!-- RFC4010&#45;&gt;updates -->
<g id="edge3" class="edge">
<title>RFC4010&#45;&gt;updates</title>
<path fill="none" stroke="black" d="M1033.89,-824.67C1078.81,-902.48 1151.64,-1028.62 1183.82,-1084.37"/>
<polygon fill="black" stroke="black" points="1180.73,-1086.01 1188.77,-1092.92 1186.8,-1082.51 1180.73,-1086.01"/>
</g>
<!-- cites -->
<g id="node6" class="node">
<title>cites</title>
<polygon fill="lightblue" stroke="black" points="710.43,-1039.3 656.43,-1039.3 656.43,-1003.3 710.43,-1003.3 710.43,-1039.3"/>
<text xml:space="preserve" text-anchor="middle" x="683.43" y="-1016.25" font-family="Times,serif" font-size="14.00">cites</text>
</g>
<!-- RFC4010&#45;&gt;cites -->
<g id="edge5" class="edge">
<title>RFC4010&#45;&gt;cites</title>
<path fill="none" stroke="black" d="M921.13,-821.85C854.79,-877.52 761.29,-955.97 713.75,-995.86"/>
<polygon fill="black" stroke="black" points="711.72,-992.99 706.31,-1002.1 716.22,-998.36 711.72,-992.99"/>
</g>
<!-- obs_by -->
<g id="node2" class="node">
<title>obs_by</title>
<polygon fill="lightblue" stroke="black" points="716.56,-514.76 650.31,-514.76 650.31,-478.76 716.56,-478.76 716.56,-514.76"/>
<text xml:space="preserve" text-anchor="middle" x="683.43" y="-491.71" font-family="Times,serif" font-size="14.00">obsoletes</text>
</g>
<!-- obs_by&#45;&gt;RFC4010 -->
<g id="edge1" class="edge">
<title>obs_by&#45;&gt;RFC4010</title>
<path fill="none" stroke="black" d="M705.41,-515.21C747.81,-550.78 842.86,-630.54 912.76,-689.19"/>
<polygon fill="black" stroke="black" points="910.08,-691.51 919.99,-695.26 914.58,-686.15 910.08,-691.51"/>
</g>
<!-- updated_by -->
<g id="node5" class="node">
<title>updated_by</title>
<polygon fill="lightyellow" stroke="black" points="953.77,-375.21 896.52,-375.21 896.52,-339.21 953.77,-339.21 953.77,-375.21"/>
<text xml:space="preserve" text-anchor="middle" x="925.14" y="-352.16" font-family="Times,serif" font-size="14.00">updates</text>
</g>
<!-- updated_by&#45;&gt;RFC4010 -->
<g id="edge4" class="edge">
<title>updated_by&#45;&gt;RFC4010</title>
<path fill="none" stroke="black" d="M928.37,-375.52C937.76,-428.76 965.45,-585.81 982.34,-681.62"/>
<polygon fill="black" stroke="black" points="978.85,-681.98 984.03,-691.22 985.74,-680.76 978.85,-681.98"/>
</g>
<!-- RFC2119 -->
<g id="node7" class="node">
<title>RFC2119</title>
<g id="a_node7"><a xlink:href="RFC2119.html" xlink:title="In many standards track documents several words are used to signify the requirements in the specification. &#160;These words are often capitalized. &#160;This document defines these words as they should be interpreted in IETF documents. &#160;This document specifies an Internet Best Current Practices for the Internet Community, and requests discussion and suggestions for improvements." target="_top">
<ellipse fill="none" stroke="black" cx="854.29" cy="-1562.67" rx="160.34" ry="52.33"/>
<text xml:space="preserve" text-anchor="middle" x="854.29" y="-1582.37" font-family="Times,serif" font-size="14.00">RFC2119</text>
<text xml:space="preserve" text-anchor="middle" x="854.29" y="-1565.87" font-family="Times,serif" font-size="14.00">Key words for use in RFCs to Indicate</text>
<text xml:space="preserve" text-anchor="middle" x="854.29" y="-1549.37" font-family="Times,serif" font-size="14.00">Requirement Levels</text>
<text xml:space="preserve" text-anchor="middle" x="854.29" y="-1532.87" font-family="Times,serif" font-size="14.00">1997</text>
</a>
</g>
</g>
<!-- cites&#45;&gt;RFC2119 -->
<g id="edge6" class="edge">
<title>cites&#45;&gt;RFC2119</title>
<path fill="none" stroke="black" d="M689.22,-1039.62C711.93,-1111.61 795.72,-1377.07 834.43,-1499.75"/>
<polygon fill="black" stroke="black" points="831.01,-1500.53 837.36,-1509.02 837.68,-1498.43 831.01,-1500.53"/>
</g>
<!-- RFC3394 -->
<g id="node8" class="node">
<title>RFC3394</title>
<g id="a_node8"><a xlink:href="RFC3394.html" xlink:title="None" target="_top">
<ellipse fill="none" stroke="black" cx="370.87" cy="-1283.57" rx="177.31" ry="52.33"/>
<text xml:space="preserve" text-anchor="middle" x="370.87" y="-1303.27" font-family="Times,serif" font-size="14.00">RFC3394</text>
<text xml:space="preserve" text-anchor="middle" x="370.87" y="-1286.77" font-family="Times,serif" font-size="14.00">Advanced Encryption Standard (AES) Key</text>
<text xml:space="preserve" text-anchor="middle" x="370.87" y="-1270.27" font-family="Times,serif" font-size="14.00">Wrap Algorithm</text>
<text xml:space="preserve" text-anchor="middle" x="370.87" y="-1253.77" font-family="Times,serif" font-size="14.00">2002</text>
</a>
</g>
</g>
<!-- cites&#45;&gt;RFC3394 -->
<g id="edge7" class="edge">
<title>cites&#45;&gt;RFC3394</title>
<path fill="none" stroke="black" d="M661.45,-1039.74C615.79,-1078.06 509.03,-1167.65 438.41,-1226.9"/>
<polygon fill="black" stroke="black" points="436.56,-1223.88 431.15,-1232.99 441.06,-1229.25 436.56,-1223.88"/>
</g>
<!-- RFC3851 -->
<g id="node9" class="node">
<title>RFC3851</title>
<g id="a_node9"><a xlink:href="RFC3851.html" xlink:title="This document defines Secure/Multipurpose Internet Mail Extensions (S/MIME) version 3.1. &#160;S/MIME provides a consistent way to send and receive secure MIME data. &#160;Digital signatures provide authentication, message integrity, and non&#45;repudiation with proof of origin. &#160;Encryption provides data confidentiality. &#160;Compression can be used to reduce data size. &#160;This document obsoletes RFC 2633. [STANDARDS&#45;TRACK]" target="_top">
<ellipse fill="none" stroke="black" cx="179.96" cy="-759.03" rx="179.96" ry="63.99"/>
<text xml:space="preserve" text-anchor="middle" x="179.96" y="-786.98" font-family="Times,serif" font-size="14.00">RFC3851</text>
<text xml:space="preserve" text-anchor="middle" x="179.96" y="-770.48" font-family="Times,serif" font-size="14.00">Secure/Multipurpose Internet Mail</text>
<text xml:space="preserve" text-anchor="middle" x="179.96" y="-753.98" font-family="Times,serif" font-size="14.00">Extensions (S/MIME) Version 3.1 Message</text>
<text xml:space="preserve" text-anchor="middle" x="179.96" y="-737.48" font-family="Times,serif" font-size="14.00">Specification</text>
<text xml:space="preserve" text-anchor="middle" x="179.96" y="-720.98" font-family="Times,serif" font-size="14.00">2004</text>
</a>
</g>
</g>
<!-- cites&#45;&gt;RFC3851 -->
<g id="edge8" class="edge">
<title>cites&#45;&gt;RFC3851</title>
<path fill="none" stroke="black" d="M656.01,-1007.01C588.31,-971.75 410.23,-878.98 292.11,-817.45"/>
<polygon fill="black" stroke="black" points="293.76,-814.37 283.28,-812.85 290.53,-820.58 293.76,-814.37"/>
</g>
<!-- rev_cites -->
<g id="node10" class="node">
<title>rev_cites</title>
<polygon fill="lightblue" stroke="black" points="1335.55,-514.76 1281.55,-514.76 1281.55,-478.76 1335.55,-478.76 1335.55,-514.76"/>
<text xml:space="preserve" text-anchor="middle" x="1308.55" y="-491.71" font-family="Times,serif" font-size="14.00">cites</text>
</g>
<!-- rev_cites&#45;&gt;RFC4010 -->
<g id="edge9" class="edge">
<title>rev_cites&#45;&gt;RFC4010</title>
<path fill="none" stroke="black" d="M1286.57,-515.21C1244.18,-550.78 1149.13,-630.54 1079.23,-689.19"/>
<polygon fill="black" stroke="black" points="1077.4,-686.15 1071.99,-695.26 1081.9,-691.51 1077.4,-686.15"/>
</g>
<!-- RFC6931 -->
<g id="node11" class="node">
<title>RFC6931</title>
<g id="a_node11"><a xlink:href="RFC6931.html" xlink:title="This document expands, updates, and establishes an IANA registry for the list of URIs intended for use with XML digital signatures, encryption, canonicalization, and key management. &#160;These URIs identify algorithms and types of information. &#160;This document obsoletes RFC 4051." target="_top">
<ellipse fill="none" stroke="black" cx="1404.01" cy="-52.33" rx="184.73" ry="52.33"/>
<text xml:space="preserve" text-anchor="middle" x="1404.01" y="-72.03" font-family="Times,serif" font-size="14.00">RFC6931</text>
<text xml:space="preserve" text-anchor="middle" x="1404.01" y="-55.53" font-family="Times,serif" font-size="14.00">Additional XML Security Uniform Resource</text>
<text xml:space="preserve" text-anchor="middle" x="1404.01" y="-39.03" font-family="Times,serif" font-size="14.00">Identifiers (URIs)</text>
<text xml:space="preserve" text-anchor="middle" x="1404.01" y="-22.53" font-family="Times,serif" font-size="14.00">2013</text>
</a>
</g>
</g>
<!-- RFC6931&#45;&gt;rev_cites -->
<g id="edge10" class="edge">
<title>RFC6931&#45;&gt;rev_cites</title>
<path fill="none" stroke="black" d="M1392.78,-104.62C1372.61,-198.51 1330.88,-392.82 1314.93,-467.05"/>
<polygon fill="black" stroke="black" points="1311.51,-466.3 1312.84,-476.81 1318.36,-467.77 1311.51,-466.3"/>
</g>
<!-- RFC9231 -->
<g id="node12" class="node">
<title>RFC9231</title>
<g id="a_node12"><a xlink:href="RFC9231.html" xlink:title="This document updates and corrects the IANA XML Security URIs registry that lists URIs intended for use with XML digital signatures, encryption, canonicalization, and key management. &#160;These URIs identify algorithms and types of information. &#160;This document also obsoletes and corrects three errata against RFC 6931." target="_top">
<ellipse fill="none" stroke="black" cx="1762.81" cy="-479.93" rx="184.73" ry="52.33"/>
<text xml:space="preserve" text-anchor="middle" x="1762.81" y="-499.63" font-family="Times,serif" font-size="14.00">RFC9231</text>
<text xml:space="preserve" text-anchor="middle" x="1762.81" y="-483.13" font-family="Times,serif" font-size="14.00">Additional XML Security Uniform Resource</text>
<text xml:space="preserve" text-anchor="middle" x="1762.81" y="-466.63" font-family="Times,serif" font-size="14.00">Identifiers (URIs)</text>
<text xml:space="preserve" text-anchor="middle" x="1762.81" y="-450.13" font-family="Times,serif" font-size="14.00">2022</text>
</a>
</g>
</g>
<!-- RFC9231&#45;&gt;rev_cites -->
<g id="edge11" class="edge">
<title>RFC9231&#45;&gt;rev_cites</title>
<path fill="none" stroke="black" d="M1579.36,-486.73C1493.23,-489.92 1398.4,-493.43 1346.95,-495.34"/>
<polygon fill="black" stroke="black" points="1347.12,-491.83 1337.26,-495.7 1347.38,-498.83 1347.12,-491.83"/>
</g>
</g>
</svg>
