<?xml version="1.0" encoding="UTF-8" standalone="no"?>
<!DOCTYPE svg PUBLIC "-//W3C//DTD SVG 1.1//EN"
 "http://www.w3.org/Graphics/SVG/1.1/DTD/svg11.dtd">
<!-- Generated by graphviz version 14.1.1 (20251213.1925)
 -->
<!-- Title: Flow Pages: 1 -->
<svg width="1267pt" height="1129pt"
 viewBox="0.00 0.00 1267.00 1129.00" xmlns="http://www.w3.org/2000/svg" xmlns:xlink="http://www.w3.org/1999/xlink">
<g id="graph0" class="graph" transform="scale(1 1) rotate(0) translate(4 1124.76)">
<title>Flow</title>
<polygon fill="white" stroke="none" points="-4,4 -4,-1124.76 1262.53,-1124.76 1262.53,4 -4,4"/>
<!-- RFC4720 -->
<g id="node1" class="node">
<title>RFC4720</title>
<g id="a_node1"><a xlink:title="This document defines a mechanism for preserving Frame Check Sequence (FCS) through Ethernet, Frame Relay, High&#45;Level Data Link Control (HDLC), and PPP pseudowires. [STANDARDS&#45;TRACK]">
<ellipse fill="green" stroke="black" stroke-width="3" cx="472.15" cy="-752.61" rx="247.84" ry="65.05"/>
<text xml:space="preserve" text-anchor="middle" x="472.15" y="-777.51" font-family="Times,serif" font-size="18.00">RFC4720</text>
<text xml:space="preserve" text-anchor="middle" x="472.15" y="-756.51" font-family="Times,serif" font-size="18.00">Pseudowire Emulation Edge&#45;to&#45;Edge (PWE3)</text>
<text xml:space="preserve" text-anchor="middle" x="472.15" y="-735.51" font-family="Times,serif" font-size="18.00">Frame Check Sequence Retention</text>
<text xml:space="preserve" text-anchor="middle" x="472.15" y="-714.51" font-family="Times,serif" font-size="18.00">2006</text>
</a>
</g>
</g>
<!-- obs -->
<g id="node3" class="node">
<title>obs</title>
<polygon fill="lightblue" stroke="black" points="855.42,-915.65 789.17,-915.65 789.17,-879.65 855.42,-879.65 855.42,-915.65"/>
<text xml:space="preserve" text-anchor="middle" x="822.29" y="-892.6" font-family="Times,serif" font-size="14.00">obsoletes</text>
</g>
<!-- RFC4720&#45;&gt;obs -->
<g id="edge2" class="edge">
<title>RFC4720&#45;&gt;obs</title>
<path fill="none" stroke="black" d="M607.02,-808.48C667.81,-833.66 735.43,-861.67 778.38,-879.46"/>
<polygon fill="black" stroke="black" points="777.04,-882.69 787.61,-883.28 779.72,-876.22 777.04,-882.69"/>
</g>
<!-- updates -->
<g id="node4" class="node">
<title>updates</title>
<polygon fill="lightyellow" stroke="black" points="645.81,-1120.76 588.56,-1120.76 588.56,-1084.76 645.81,-1084.76 645.81,-1120.76"/>
<text xml:space="preserve" text-anchor="middle" x="617.18" y="-1097.71" font-family="Times,serif" font-size="14.00">updates</text>
</g>
<!-- RFC4720&#45;&gt;updates -->
<g id="edge3" class="edge">
<title>RFC4720&#45;&gt;updates</title>
<path fill="none" stroke="black" d="M499.43,-818.47C531.21,-895.2 582.29,-1018.53 605.29,-1074.04"/>
<polygon fill="black" stroke="black" points="601.99,-1075.22 609.05,-1083.12 608.45,-1072.54 601.99,-1075.22"/>
</g>
<!-- cites -->
<g id="node6" class="node">
<title>cites</title>
<polygon fill="lightblue" stroke="black" points="354.11,-1120.76 300.11,-1120.76 300.11,-1084.76 354.11,-1084.76 354.11,-1120.76"/>
<text xml:space="preserve" text-anchor="middle" x="327.11" y="-1097.71" font-family="Times,serif" font-size="14.00">cites</text>
</g>
<!-- RFC4720&#45;&gt;cites -->
<g id="edge5" class="edge">
<title>RFC4720&#45;&gt;cites</title>
<path fill="none" stroke="black" d="M444.87,-818.47C413.09,-895.2 362,-1018.53 339.01,-1074.04"/>
<polygon fill="black" stroke="black" points="335.84,-1072.54 335.25,-1083.12 342.31,-1075.22 335.84,-1072.54"/>
</g>
<!-- obs_by -->
<g id="node2" class="node">
<title>obs_by</title>
<polygon fill="lightblue" stroke="black" points="155.13,-915.65 88.88,-915.65 88.88,-879.65 155.13,-879.65 155.13,-915.65"/>
<text xml:space="preserve" text-anchor="middle" x="122" y="-892.6" font-family="Times,serif" font-size="14.00">obsoletes</text>
</g>
<!-- obs_by&#45;&gt;RFC4720 -->
<g id="edge1" class="edge">
<title>obs_by&#45;&gt;RFC4720</title>
<path fill="none" stroke="black" d="M155.58,-883.74C195.22,-867.32 263.78,-838.92 326.98,-812.75"/>
<polygon fill="black" stroke="black" points="328.18,-816.04 336.08,-808.98 325.5,-809.57 328.18,-816.04"/>
</g>
<!-- updated_by -->
<g id="node5" class="node">
<title>updated_by</title>
<polygon fill="lightyellow" stroke="black" points="150.63,-625.58 93.38,-625.58 93.38,-589.58 150.63,-589.58 150.63,-625.58"/>
<text xml:space="preserve" text-anchor="middle" x="122" y="-602.53" font-family="Times,serif" font-size="14.00">updates</text>
</g>
<!-- updated_by&#45;&gt;RFC4720 -->
<g id="edge4" class="edge">
<title>updated_by&#45;&gt;RFC4720</title>
<path fill="none" stroke="black" d="M150.96,-619.57C189.68,-635.61 261.1,-665.2 326.78,-692.4"/>
<polygon fill="black" stroke="black" points="325.29,-695.57 335.86,-696.16 327.96,-689.1 325.29,-695.57"/>
</g>
<!-- rev_cites -->
<g id="node7" class="node">
<title>rev_cites</title>
<polygon fill="lightblue" stroke="black" points="644.18,-420.47 590.18,-420.47 590.18,-384.47 644.18,-384.47 644.18,-420.47"/>
<text xml:space="preserve" text-anchor="middle" x="617.18" y="-397.42" font-family="Times,serif" font-size="14.00">cites</text>
</g>
<!-- rev_cites&#45;&gt;RFC4720 -->
<g id="edge6" class="edge">
<title>rev_cites&#45;&gt;RFC4720</title>
<path fill="none" stroke="black" d="M609.59,-420.8C590.21,-467.58 538.06,-593.49 503.86,-676.06"/>
<polygon fill="black" stroke="black" points="500.64,-674.68 500.05,-685.26 507.11,-677.36 500.64,-674.68"/>
</g>
<!-- RFC5601 -->
<g id="node8" class="node">
<title>RFC5601</title>
<g id="a_node8"><a xlink:href="RFC5601.html" xlink:title="This memo defines a Standards Track portion of the Management Information Base for use with network management protocols in the Internet community. &#160;In particular, it describes managed objects for modeling of Pseudowire Edge&#45;to&#45;Edge services carried over a general Packet Switched Network. [STANDARDS&#45;TRACK]" target="_top">
<ellipse fill="none" stroke="black" cx="182.08" cy="-52.33" rx="182.08" ry="52.33"/>
<text xml:space="preserve" text-anchor="middle" x="182.08" y="-72.03" font-family="Times,serif" font-size="14.00">RFC5601</text>
<text xml:space="preserve" text-anchor="middle" x="182.08" y="-55.53" font-family="Times,serif" font-size="14.00">Pseudowire (PW) Management Information</text>
<text xml:space="preserve" text-anchor="middle" x="182.08" y="-39.03" font-family="Times,serif" font-size="14.00">Base (MIB)</text>
<text xml:space="preserve" text-anchor="middle" x="182.08" y="-22.53" font-family="Times,serif" font-size="14.00">2009</text>
</a>
</g>
</g>
<!-- RFC5601&#45;&gt;rev_cites -->
<g id="edge7" class="edge">
<title>RFC5601&#45;&gt;rev_cites</title>
<path fill="none" stroke="black" d="M243.5,-101.75C337.62,-177.5 514.16,-319.57 585.79,-377.21"/>
<polygon fill="black" stroke="black" points="583.23,-379.64 593.21,-383.18 587.61,-374.18 583.23,-379.64"/>
</g>
<!-- RFC6307 -->
<g id="node9" class="node">
<title>RFC6307</title>
<g id="a_node9"><a xlink:href="RFC6307.html" xlink:title="A Fibre Channel pseudowire (PW) is used to carry Fibre Channel traffic over an MPLS network. &#160;This enables service providers to take advantage of MPLS to offer emulated Fibre Channel services. &#160;This document specifies the encapsulation of Fibre Channel traffic within a pseudowire. &#160;It also specifies the common procedures for using a PW to provide a Fibre Channel service. [STANDARDS&#45;TRACK]" target="_top">
<ellipse fill="none" stroke="black" cx="762.22" cy="-52.33" rx="182.08" ry="52.33"/>
<text xml:space="preserve" text-anchor="middle" x="762.22" y="-72.03" font-family="Times,serif" font-size="14.00">RFC6307</text>
<text xml:space="preserve" text-anchor="middle" x="762.22" y="-55.53" font-family="Times,serif" font-size="14.00">Encapsulation Methods for Transport of</text>
<text xml:space="preserve" text-anchor="middle" x="762.22" y="-39.03" font-family="Times,serif" font-size="14.00">Fibre Channel Traffic over MPLS Networks</text>
<text xml:space="preserve" text-anchor="middle" x="762.22" y="-22.53" font-family="Times,serif" font-size="14.00">2012</text>
</a>
</g>
</g>
<!-- RFC6307&#45;&gt;rev_cites -->
<g id="edge8" class="edge">
<title>RFC6307&#45;&gt;rev_cites</title>
<path fill="none" stroke="black" d="M740.5,-104.75C709.47,-179.66 653.5,-314.8 629.1,-373.71"/>
<polygon fill="black" stroke="black" points="625.96,-372.14 625.37,-382.71 632.43,-374.82 625.96,-372.14"/>
</g>
<!-- RFC8159 -->
<g id="node10" class="node">
<title>RFC8159</title>
<g id="a_node10"><a xlink:href="RFC8159.html" xlink:title="This document describes a tunnel encapsulation for Ethernet over IPv6 with a mandatory 64&#45;bit cookie for connecting Layer 2 (L2) Ethernet attachment circuits identified by IPv6 addresses. &#160;The encapsulation is based on the Layer 2 Tunneling Protocol Version 3 (L2TPv3) over IP and does not use the L2TPv3 control plane." target="_top">
<ellipse fill="none" stroke="black" cx="1172.44" cy="-462.55" rx="86.09" ry="40.66"/>
<text xml:space="preserve" text-anchor="middle" x="1172.44" y="-474" font-family="Times,serif" font-size="14.00">RFC8159</text>
<text xml:space="preserve" text-anchor="middle" x="1172.44" y="-457.5" font-family="Times,serif" font-size="14.00">Keyed IPv6 Tunnel</text>
<text xml:space="preserve" text-anchor="middle" x="1172.44" y="-441" font-family="Times,serif" font-size="14.00">2017</text>
</a>
</g>
</g>
<!-- RFC8159&#45;&gt;rev_cites -->
<g id="edge9" class="edge">
<title>RFC8159&#45;&gt;rev_cites</title>
<path fill="none" stroke="black" d="M1088.11,-453.42C966,-440.21 744.84,-416.28 655.83,-406.65"/>
<polygon fill="black" stroke="black" points="656.24,-403.18 645.92,-405.58 655.49,-410.14 656.24,-403.18"/>
</g>
</g>
</svg>
