<?xml version="1.0" encoding="UTF-8" standalone="no"?>
<!DOCTYPE svg PUBLIC "-//W3C//DTD SVG 1.1//EN"
 "http://www.w3.org/Graphics/SVG/1.1/DTD/svg11.dtd">
<!-- Generated by graphviz version 14.1.1 (20251213.1925)
 -->
<!-- Title: Flow Pages: 1 -->
<svg width="1736pt" height="1736pt"
 viewBox="0.00 0.00 1736.00 1736.00" xmlns="http://www.w3.org/2000/svg" xmlns:xlink="http://www.w3.org/1999/xlink">
<g id="graph0" class="graph" transform="scale(1 1) rotate(0) translate(4 1731.84)">
<title>Flow</title>
<polygon fill="white" stroke="none" points="-4,4 -4,-1731.84 1732.43,-1731.84 1732.43,4 -4,4"/>
<!-- RFC4050 -->
<g id="node1" class="node">
<title>RFC4050</title>
<g id="a_node1"><a xlink:title="This document specifies how to use Elliptic Curve Digital Signature Algorithm (ECDSA) with XML Signatures. &#160;The mechanism specified provides integrity, message authentication, and/or signer authentication services for data of any type, whether located within the XML that includes the signature or included by reference. &#160;This memo provides information for the Internet community.">
<ellipse fill="green" stroke="black" stroke-width="3" cx="785.99" cy="-858.09" rx="205.94" ry="79.9"/>
<text xml:space="preserve" text-anchor="middle" x="785.99" y="-893.49" font-family="Times,serif" font-size="18.00">RFC4050</text>
<text xml:space="preserve" text-anchor="middle" x="785.99" y="-872.49" font-family="Times,serif" font-size="18.00">Using the Elliptic Curve Signature</text>
<text xml:space="preserve" text-anchor="middle" x="785.99" y="-851.49" font-family="Times,serif" font-size="18.00">Algorithm (ECDSA) for XML Digital</text>
<text xml:space="preserve" text-anchor="middle" x="785.99" y="-830.49" font-family="Times,serif" font-size="18.00">Signatures</text>
<text xml:space="preserve" text-anchor="middle" x="785.99" y="-809.49" font-family="Times,serif" font-size="18.00">2005</text>
</a>
</g>
</g>
<!-- obs -->
<g id="node3" class="node">
<title>obs</title>
<polygon fill="lightblue" stroke="black" points="1197.97,-1013.98 1131.72,-1013.98 1131.72,-977.98 1197.97,-977.98 1197.97,-1013.98"/>
<text xml:space="preserve" text-anchor="middle" x="1164.85" y="-990.93" font-family="Times,serif" font-size="14.00">obsoletes</text>
</g>
<!-- RFC4050&#45;&gt;obs -->
<g id="edge2" class="edge">
<title>RFC4050&#45;&gt;obs</title>
<path fill="none" stroke="black" d="M937.9,-913.38C1003.75,-937.35 1075.91,-963.61 1120.78,-979.94"/>
<polygon fill="black" stroke="black" points="1119.57,-983.23 1130.16,-983.36 1121.96,-976.65 1119.57,-983.23"/>
</g>
<!-- updates -->
<g id="node4" class="node">
<title>updates</title>
<polygon fill="lightyellow" stroke="black" points="1016.2,-1225.24 958.95,-1225.24 958.95,-1189.24 1016.2,-1189.24 1016.2,-1225.24"/>
<text xml:space="preserve" text-anchor="middle" x="987.57" y="-1202.19" font-family="Times,serif" font-size="14.00">updates</text>
</g>
<!-- RFC4050&#45;&gt;updates -->
<g id="edge3" class="edge">
<title>RFC4050&#45;&gt;updates</title>
<path fill="none" stroke="black" d="M831.73,-937.32C876.18,-1014.3 941.23,-1126.98 971.27,-1179"/>
<polygon fill="black" stroke="black" points="968.17,-1180.64 976.2,-1187.55 974.23,-1177.14 968.17,-1180.64"/>
</g>
<!-- cites -->
<g id="node6" class="node">
<title>cites</title>
<polygon fill="lightblue" stroke="black" points="611.4,-1225.24 557.4,-1225.24 557.4,-1189.24 611.4,-1189.24 611.4,-1225.24"/>
<text xml:space="preserve" text-anchor="middle" x="584.4" y="-1202.19" font-family="Times,serif" font-size="14.00">cites</text>
</g>
<!-- RFC4050&#45;&gt;cites -->
<g id="edge5" class="edge">
<title>RFC4050&#45;&gt;cites</title>
<path fill="none" stroke="black" d="M740.24,-937.32C695.8,-1014.3 630.74,-1126.98 600.71,-1179"/>
<polygon fill="black" stroke="black" points="597.74,-1177.14 595.77,-1187.55 603.8,-1180.64 597.74,-1177.14"/>
</g>
<!-- obs_by -->
<g id="node2" class="node">
<title>obs_by</title>
<polygon fill="lightblue" stroke="black" points="415.94,-876.09 349.69,-876.09 349.69,-840.09 415.94,-840.09 415.94,-876.09"/>
<text xml:space="preserve" text-anchor="middle" x="382.81" y="-853.04" font-family="Times,serif" font-size="14.00">obsoletes</text>
</g>
<!-- obs_by&#45;&gt;RFC4050 -->
<g id="edge1" class="edge">
<title>obs_by&#45;&gt;RFC4050</title>
<path fill="none" stroke="black" d="M416.15,-858.09C450.8,-858.09 508.18,-858.09 567.53,-858.09"/>
<polygon fill="black" stroke="black" points="567.51,-861.59 577.51,-858.09 567.51,-854.59 567.51,-861.59"/>
</g>
<!-- updated_by -->
<g id="node5" class="node">
<title>updated_by</title>
<polygon fill="lightyellow" stroke="black" points="505.76,-616.93 448.51,-616.93 448.51,-580.93 505.76,-580.93 505.76,-616.93"/>
<text xml:space="preserve" text-anchor="middle" x="477.14" y="-593.88" font-family="Times,serif" font-size="14.00">updates</text>
</g>
<!-- updated_by&#45;&gt;RFC4050 -->
<g id="edge4" class="edge">
<title>updated_by&#45;&gt;RFC4050</title>
<path fill="none" stroke="black" d="M498.86,-617.16C537.96,-649.97 622.42,-720.83 689.66,-777.26"/>
<polygon fill="black" stroke="black" points="687.12,-779.7 697.03,-783.44 691.62,-774.33 687.12,-779.7"/>
</g>
<!-- RFC3279 -->
<g id="node7" class="node">
<title>RFC3279</title>
<g id="a_node7"><a xlink:href="RFC3279.html" xlink:title="This document specifies algorithm identifiers and ASN.1 encoding formats for digital signatures and subject public keys used in the Internet X.509 Public Key Infrastructure (PKI). &#160;Digital signatures are used to sign certificates and certificate revocation list (CRLs). &#160;Certificates include the public key of the named subject. [STANDARDS&#45;TRACK]" target="_top">
<ellipse fill="none" stroke="black" cx="645.97" cy="-1652.18" rx="167.76" ry="75.66"/>
<text xml:space="preserve" text-anchor="middle" x="645.97" y="-1688.38" font-family="Times,serif" font-size="14.00">RFC3279</text>
<text xml:space="preserve" text-anchor="middle" x="645.97" y="-1671.88" font-family="Times,serif" font-size="14.00">Algorithms and Identifiers for the</text>
<text xml:space="preserve" text-anchor="middle" x="645.97" y="-1655.38" font-family="Times,serif" font-size="14.00">Internet X.509 Public Key Infrastructure</text>
<text xml:space="preserve" text-anchor="middle" x="645.97" y="-1638.88" font-family="Times,serif" font-size="14.00">Certificate and Certificate Revocation</text>
<text xml:space="preserve" text-anchor="middle" x="645.97" y="-1622.38" font-family="Times,serif" font-size="14.00">List (CRL) Profile</text>
<text xml:space="preserve" text-anchor="middle" x="645.97" y="-1605.88" font-family="Times,serif" font-size="14.00">2002</text>
</a>
</g>
</g>
<!-- cites&#45;&gt;RFC3279 -->
<g id="edge6" class="edge">
<title>cites&#45;&gt;RFC3279</title>
<path fill="none" stroke="black" d="M586.93,-1225.52C594.77,-1282.22 619.07,-1457.79 633.94,-1565.24"/>
<polygon fill="black" stroke="black" points="630.43,-1565.45 635.27,-1574.88 637.37,-1564.49 630.43,-1565.45"/>
</g>
<!-- RFC3061 -->
<g id="node8" class="node">
<title>RFC3061</title>
<g id="a_node8"><a xlink:href="RFC3061.html" xlink:title="This document describes a Uniform Resource Name (URN) namespace that contains Object Identifiers (OIDs). &#160;This memo provides information for the Internet community." target="_top">
<ellipse fill="none" stroke="black" cx="168.29" cy="-1376.4" rx="168.29" ry="40.66"/>
<text xml:space="preserve" text-anchor="middle" x="168.29" y="-1387.85" font-family="Times,serif" font-size="14.00">RFC3061</text>
<text xml:space="preserve" text-anchor="middle" x="168.29" y="-1371.35" font-family="Times,serif" font-size="14.00">A URN Namespace of Object Identifiers</text>
<text xml:space="preserve" text-anchor="middle" x="168.29" y="-1354.85" font-family="Times,serif" font-size="14.00">2001</text>
</a>
</g>
</g>
<!-- cites&#45;&gt;RFC3061 -->
<g id="edge7" class="edge">
<title>cites&#45;&gt;RFC3061</title>
<path fill="none" stroke="black" d="M557.1,-1218.34C498.89,-1242.01 360.17,-1298.4 265.19,-1337.01"/>
<polygon fill="black" stroke="black" points="264.05,-1333.69 256.1,-1340.7 266.68,-1340.18 264.05,-1333.69"/>
</g>
<!-- rev_cites -->
<g id="node9" class="node">
<title>rev_cites</title>
<polygon fill="lightblue" stroke="black" points="1014.57,-526.93 960.57,-526.93 960.57,-490.93 1014.57,-490.93 1014.57,-526.93"/>
<text xml:space="preserve" text-anchor="middle" x="987.57" y="-503.88" font-family="Times,serif" font-size="14.00">cites</text>
</g>
<!-- rev_cites&#45;&gt;RFC4050 -->
<g id="edge8" class="edge">
<title>rev_cites&#45;&gt;RFC4050</title>
<path fill="none" stroke="black" d="M977.02,-527.21C951.45,-571.5 884.79,-686.95 837.43,-768.98"/>
<polygon fill="black" stroke="black" points="834.48,-767.09 832.51,-777.5 840.55,-770.59 834.48,-767.09"/>
</g>
<!-- RFC5639 -->
<g id="node10" class="node">
<title>RFC5639</title>
<g id="a_node10"><a xlink:href="RFC5639.html" xlink:title="This memo proposes several elliptic curve domain parameters over finite prime fields for use in cryptographic applications. &#160;The domain parameters are consistent with the relevant international standards, and can be used in X.509 certificates and certificate revocation lists (CRLs), for Internet Key Exchange (IKE), Transport Layer Security (TLS), XML signatures, and all applications or protocols based on the cryptographic message syntax (CMS). &#160;This document is not an Internet Standards Track specification; it is published for informational purposes." target="_top">
<ellipse fill="none" stroke="black" cx="645.97" cy="-63.99" rx="158.22" ry="63.99"/>
<text xml:space="preserve" text-anchor="middle" x="645.97" y="-91.94" font-family="Times,serif" font-size="14.00">RFC5639</text>
<text xml:space="preserve" text-anchor="middle" x="645.97" y="-75.44" font-family="Times,serif" font-size="14.00">Elliptic Curve Cryptography (ECC)</text>
<text xml:space="preserve" text-anchor="middle" x="645.97" y="-58.94" font-family="Times,serif" font-size="14.00">Brainpool Standard Curves and Curve</text>
<text xml:space="preserve" text-anchor="middle" x="645.97" y="-42.44" font-family="Times,serif" font-size="14.00">Generation</text>
<text xml:space="preserve" text-anchor="middle" x="645.97" y="-25.94" font-family="Times,serif" font-size="14.00">2010</text>
</a>
</g>
</g>
<!-- RFC5639&#45;&gt;rev_cites -->
<g id="edge9" class="edge">
<title>RFC5639&#45;&gt;rev_cites</title>
<path fill="none" stroke="black" d="M693.11,-125.39C768.43,-223.5 912.9,-411.67 966.71,-481.75"/>
<polygon fill="black" stroke="black" points="963.6,-483.46 972.47,-489.26 969.15,-479.19 963.6,-483.46"/>
</g>
<!-- RFC6931 -->
<g id="node11" class="node">
<title>RFC6931</title>
<g id="a_node11"><a xlink:href="RFC6931.html" xlink:title="This document expands, updates, and establishes an IANA registry for the list of URIs intended for use with XML digital signatures, encryption, canonicalization, and key management. &#160;These URIs identify algorithms and types of information. &#160;This document obsoletes RFC 4051." target="_top">
<ellipse fill="none" stroke="black" cx="1189.16" cy="-159.77" rx="184.73" ry="52.33"/>
<text xml:space="preserve" text-anchor="middle" x="1189.16" y="-179.47" font-family="Times,serif" font-size="14.00">RFC6931</text>
<text xml:space="preserve" text-anchor="middle" x="1189.16" y="-162.97" font-family="Times,serif" font-size="14.00">Additional XML Security Uniform Resource</text>
<text xml:space="preserve" text-anchor="middle" x="1189.16" y="-146.47" font-family="Times,serif" font-size="14.00">Identifiers (URIs)</text>
<text xml:space="preserve" text-anchor="middle" x="1189.16" y="-129.97" font-family="Times,serif" font-size="14.00">2013</text>
</a>
</g>
</g>
<!-- RFC6931&#45;&gt;rev_cites -->
<g id="edge10" class="edge">
<title>RFC6931&#45;&gt;rev_cites</title>
<path fill="none" stroke="black" d="M1159.2,-211.67C1115.95,-286.58 1037.52,-422.42 1003.75,-480.91"/>
<polygon fill="black" stroke="black" points="1000.89,-478.86 998.92,-489.27 1006.96,-482.36 1000.89,-478.86"/>
</g>
<!-- RFC9231 -->
<g id="node12" class="node">
<title>RFC9231</title>
<g id="a_node12"><a xlink:href="RFC9231.html" xlink:title="This document updates and corrects the IANA XML Security URIs registry that lists URIs intended for use with XML digital signatures, encryption, canonicalization, and key management. &#160;These URIs identify algorithms and types of information. &#160;This document also obsoletes and corrects three errata against RFC 6931." target="_top">
<ellipse fill="none" stroke="black" cx="1543.7" cy="-582.3" rx="184.73" ry="52.33"/>
<text xml:space="preserve" text-anchor="middle" x="1543.7" y="-602" font-family="Times,serif" font-size="14.00">RFC9231</text>
<text xml:space="preserve" text-anchor="middle" x="1543.7" y="-585.5" font-family="Times,serif" font-size="14.00">Additional XML Security Uniform Resource</text>
<text xml:space="preserve" text-anchor="middle" x="1543.7" y="-569" font-family="Times,serif" font-size="14.00">Identifiers (URIs)</text>
<text xml:space="preserve" text-anchor="middle" x="1543.7" y="-552.5" font-family="Times,serif" font-size="14.00">2022</text>
</a>
</g>
</g>
<!-- RFC9231&#45;&gt;rev_cites -->
<g id="edge11" class="edge">
<title>RFC9231&#45;&gt;rev_cites</title>
<path fill="none" stroke="black" d="M1375.71,-560.14C1253.34,-543.99 1097.06,-523.37 1025.92,-513.99"/>
<polygon fill="black" stroke="black" points="1026.73,-510.57 1016.35,-512.73 1025.81,-517.51 1026.73,-510.57"/>
</g>
</g>
</svg>
