<?xml version="1.0" encoding="UTF-8" standalone="no"?>
<!DOCTYPE svg PUBLIC "-//W3C//DTD SVG 1.1//EN"
 "http://www.w3.org/Graphics/SVG/1.1/DTD/svg11.dtd">
<!-- Generated by graphviz version 14.1.1 (20251213.1925)
 -->
<!-- Title: Flow Pages: 1 -->
<svg width="838pt" height="247pt"
 viewBox="0.00 0.00 838.00 247.00" xmlns="http://www.w3.org/2000/svg" xmlns:xlink="http://www.w3.org/1999/xlink">
<g id="graph0" class="graph" transform="scale(1 1) rotate(0) translate(4 243.33)">
<title>Flow</title>
<polygon fill="white" stroke="none" points="-4,4 -4,-243.33 833.75,-243.33 833.75,4 -4,4"/>
<!-- RFC4613 -->
<g id="node1" class="node">
<title>RFC4613</title>
<g id="a_node1"><a xlink:title="This document serves to register a media type for Downloadable Sounds. &#160;This memo provides information for the Internet community.">
<ellipse fill="none" stroke="black" cx="241.51" cy="-167.33" rx="150.26" ry="63.99"/>
<text xml:space="preserve" text-anchor="middle" x="241.51" y="-195.28" font-family="Times,serif" font-size="14.00">RFC4613</text>
<text xml:space="preserve" text-anchor="middle" x="241.51" y="-178.78" font-family="Times,serif" font-size="14.00">Media Type Registrations for</text>
<text xml:space="preserve" text-anchor="middle" x="241.51" y="-162.28" font-family="Times,serif" font-size="14.00">Downloadable Sounds for Musical</text>
<text xml:space="preserve" text-anchor="middle" x="241.51" y="-145.78" font-family="Times,serif" font-size="14.00">Instrument Digital Interface (MIDI)</text>
<text xml:space="preserve" text-anchor="middle" x="241.51" y="-129.28" font-family="Times,serif" font-size="14.00">2006</text>
</a>
</g>
</g>
<!-- obs -->
<g id="node3" class="node">
<title>obs</title>
<polygon fill="none" stroke="black" points="483.02,-239.33 416.77,-239.33 416.77,-203.33 483.02,-203.33 483.02,-239.33"/>
<text xml:space="preserve" text-anchor="middle" x="449.9" y="-216.28" font-family="Times,serif" font-size="14.00">obsoletes</text>
</g>
<!-- RFC4613&#45;&gt;obs -->
<g id="edge2" class="edge">
<title>RFC4613&#45;&gt;obs</title>
<path fill="none" stroke="black" d="M370.28,-200.76C382.76,-204.02 394.72,-207.15 405.39,-209.94"/>
<polygon fill="black" stroke="black" points="404.4,-213.3 414.96,-212.45 406.17,-206.53 404.4,-213.3"/>
</g>
<!-- updates -->
<g id="node4" class="node">
<title>updates</title>
<polygon fill="none" stroke="black" points="478.52,-185.33 421.27,-185.33 421.27,-149.33 478.52,-149.33 478.52,-185.33"/>
<text xml:space="preserve" text-anchor="middle" x="449.9" y="-162.28" font-family="Times,serif" font-size="14.00">updates</text>
</g>
<!-- RFC4613&#45;&gt;updates -->
<g id="edge3" class="edge">
<title>RFC4613&#45;&gt;updates</title>
<path fill="none" stroke="black" d="M392.23,-167.33C398.32,-167.33 404.15,-167.33 409.58,-167.33"/>
<polygon fill="black" stroke="black" points="409.3,-170.83 419.3,-167.33 409.3,-163.83 409.3,-170.83"/>
</g>
<!-- cites -->
<g id="node6" class="node">
<title>cites</title>
<polygon fill="none" stroke="black" points="476.9,-131.33 422.9,-131.33 422.9,-95.33 476.9,-95.33 476.9,-131.33"/>
<text xml:space="preserve" text-anchor="middle" x="449.9" y="-108.28" font-family="Times,serif" font-size="14.00">cites</text>
</g>
<!-- RFC4613&#45;&gt;cites -->
<g id="edge5" class="edge">
<title>RFC4613&#45;&gt;cites</title>
<path fill="none" stroke="black" d="M370.28,-133.9C385.28,-129.97 399.54,-126.24 411.7,-123.06"/>
<polygon fill="black" stroke="black" points="412.41,-126.49 421.2,-120.57 410.64,-119.72 412.41,-126.49"/>
</g>
<!-- obs_by -->
<g id="node2" class="node">
<title>obs_by</title>
<polygon fill="none" stroke="black" points="66.25,-239.33 0,-239.33 0,-203.33 66.25,-203.33 66.25,-239.33"/>
<text xml:space="preserve" text-anchor="middle" x="33.12" y="-216.28" font-family="Times,serif" font-size="14.00">obsoletes</text>
</g>
<!-- obs_by&#45;&gt;RFC4613 -->
<g id="edge1" class="edge">
<title>obs_by&#45;&gt;RFC4613</title>
<path fill="none" stroke="black" d="M66.37,-212.89C76.65,-210.2 88.74,-207.04 101.69,-203.65"/>
<polygon fill="black" stroke="black" points="102.49,-207.06 111.27,-201.14 100.71,-200.29 102.49,-207.06"/>
</g>
<!-- updated_by -->
<g id="node5" class="node">
<title>updated_by</title>
<polygon fill="none" stroke="black" points="61.75,-185.33 4.5,-185.33 4.5,-149.33 61.75,-149.33 61.75,-185.33"/>
<text xml:space="preserve" text-anchor="middle" x="33.12" y="-162.28" font-family="Times,serif" font-size="14.00">updates</text>
</g>
<!-- updated_by&#45;&gt;RFC4613 -->
<g id="edge4" class="edge">
<title>updated_by&#45;&gt;RFC4613</title>
<path fill="none" stroke="black" d="M61.96,-167.33C67.32,-167.33 73.27,-167.33 79.66,-167.33"/>
<polygon fill="black" stroke="black" points="79.27,-170.83 89.27,-167.33 79.27,-163.83 79.27,-170.83"/>
</g>
<!-- RFC4288 -->
<g id="node7" class="node">
<title>RFC4288</title>
<g id="a_node7"><a xlink:href="RFC4288.html" xlink:title="This document defines procedures for the specification and registration of media types for use in MIME and other Internet protocols. &#160;This document specifies an Internet Best Current Practices for the Internet Community, and requests discussion and suggestions for improvements." target="_top">
<ellipse fill="none" stroke="black" cx="668.89" cy="-175.33" rx="131.17" ry="52.33"/>
<text xml:space="preserve" text-anchor="middle" x="668.89" y="-195.03" font-family="Times,serif" font-size="14.00">RFC4288</text>
<text xml:space="preserve" text-anchor="middle" x="668.89" y="-178.53" font-family="Times,serif" font-size="14.00">Media Type Specifications and</text>
<text xml:space="preserve" text-anchor="middle" x="668.89" y="-162.03" font-family="Times,serif" font-size="14.00">Registration Procedures</text>
<text xml:space="preserve" text-anchor="middle" x="668.89" y="-145.53" font-family="Times,serif" font-size="14.00">2005</text>
</a>
</g>
</g>
<!-- cites&#45;&gt;RFC4288 -->
<g id="edge6" class="edge">
<title>cites&#45;&gt;RFC4288</title>
<path fill="none" stroke="black" d="M477.07,-120.8C495.88,-126.18 522.69,-133.84 550.3,-141.73"/>
<polygon fill="black" stroke="black" points="549.28,-145.08 559.86,-144.46 551.21,-138.35 549.28,-145.08"/>
</g>
<!-- RFC3548 -->
<g id="node8" class="node">
<title>RFC3548</title>
<g id="a_node8"><a xlink:href="RFC3548.html" xlink:title="This document describes the commonly used base 64, base 32, and base 16 encoding schemes. &#160;It also discusses the use of line&#45;feeds in encoded data, use of padding in encoded data, use of non&#45;alphabet characters in encoded data, and use of different encoding alphabets. &#160;This memo provides information for the Internet community." target="_top">
<ellipse fill="none" stroke="black" cx="668.89" cy="-52.33" rx="160.87" ry="52.33"/>
<text xml:space="preserve" text-anchor="middle" x="668.89" y="-72.03" font-family="Times,serif" font-size="14.00">RFC3548</text>
<text xml:space="preserve" text-anchor="middle" x="668.89" y="-55.53" font-family="Times,serif" font-size="14.00">The Base16, Base32, and Base64 Data</text>
<text xml:space="preserve" text-anchor="middle" x="668.89" y="-39.03" font-family="Times,serif" font-size="14.00">Encodings</text>
<text xml:space="preserve" text-anchor="middle" x="668.89" y="-22.53" font-family="Times,serif" font-size="14.00">2003</text>
</a>
</g>
</g>
<!-- cites&#45;&gt;RFC3548 -->
<g id="edge7" class="edge">
<title>cites&#45;&gt;RFC3548</title>
<path fill="none" stroke="black" d="M477.07,-105.97C492.47,-101.64 513.24,-95.8 535.42,-89.56"/>
<polygon fill="black" stroke="black" points="536.27,-92.96 544.95,-86.89 534.37,-86.22 536.27,-92.96"/>
</g>
<!-- rev_cites -->
<g id="node9" class="node">
<title>rev_cites</title>
<polygon fill="none" stroke="black" points="60.12,-131.33 6.12,-131.33 6.12,-95.33 60.12,-95.33 60.12,-131.33"/>
<text xml:space="preserve" text-anchor="middle" x="33.12" y="-108.28" font-family="Times,serif" font-size="14.00">cites</text>
</g>
<!-- rev_cites&#45;&gt;RFC4613 -->
<g id="edge8" class="edge">
<title>rev_cites&#45;&gt;RFC4613</title>
<path fill="none" stroke="black" d="M60.26,-120.17C71.72,-123.16 86.12,-126.93 101.76,-131.02"/>
<polygon fill="black" stroke="black" points="100.75,-134.38 111.31,-133.52 102.52,-127.6 100.75,-134.38"/>
</g>
</g>
</svg>
