<?xml version="1.0" encoding="UTF-8" standalone="no"?>
<!DOCTYPE svg PUBLIC "-//W3C//DTD SVG 1.1//EN"
 "http://www.w3.org/Graphics/SVG/1.1/DTD/svg11.dtd">
<!-- Generated by graphviz version 14.1.1 (20251213.1925)
 -->
<!-- Title: Flow Pages: 1 -->
<svg width="821pt" height="359pt"
 viewBox="0.00 0.00 821.00 359.00" xmlns="http://www.w3.org/2000/svg" xmlns:xlink="http://www.w3.org/1999/xlink">
<g id="graph0" class="graph" transform="scale(1 1) rotate(0) translate(4 354.65)">
<title>Flow</title>
<polygon fill="white" stroke="none" points="-4,4 -4,-354.65 816.78,-354.65 816.78,4 -4,4"/>
<!-- RFC4620 -->
<g id="node1" class="node">
<title>RFC4620</title>
<g id="a_node1"><a xlink:title="This document describes a protocol for asking an IPv6 node to supply certain network information, such as its hostname or fully&#45;qualified domain name. &#160;IPv6 implementation experience has shown that direct queries for a hostname are useful, and a direct query mechanism for other information has been found useful in serverless environments and for debugging. &#160;This memo defines an Experimental Protocol for the Internet community.">
<ellipse fill="green" stroke="black" cx="587.71" cy="-229.33" rx="133.82" ry="40.66"/>
<text xml:space="preserve" text-anchor="middle" x="587.71" y="-240.78" font-family="Times,serif" font-size="14.00">RFC4620</text>
<text xml:space="preserve" text-anchor="middle" x="587.71" y="-224.28" font-family="Times,serif" font-size="14.00">IPv6 Node Information Queries</text>
<text xml:space="preserve" text-anchor="middle" x="587.71" y="-207.78" font-family="Times,serif" font-size="14.00">2006</text>
</a>
</g>
</g>
<!-- obs -->
<g id="node3" class="node">
<title>obs</title>
<polygon fill="lightblue" stroke="black" points="812.78,-301.33 746.53,-301.33 746.53,-265.33 812.78,-265.33 812.78,-301.33"/>
<text xml:space="preserve" text-anchor="middle" x="779.66" y="-278.28" font-family="Times,serif" font-size="14.00">obsoletes</text>
</g>
<!-- RFC4620&#45;&gt;obs -->
<g id="edge2" class="edge">
<title>RFC4620&#45;&gt;obs</title>
<path fill="none" stroke="black" d="M686.47,-257.12C703.71,-262.02 720.83,-266.88 735.55,-271.07"/>
<polygon fill="black" stroke="black" points="734.27,-274.34 744.84,-273.71 736.18,-267.61 734.27,-274.34"/>
</g>
<!-- updates -->
<g id="node4" class="node">
<title>updates</title>
<polygon fill="lightyellow" stroke="black" points="808.28,-247.33 751.03,-247.33 751.03,-211.33 808.28,-211.33 808.28,-247.33"/>
<text xml:space="preserve" text-anchor="middle" x="779.66" y="-224.28" font-family="Times,serif" font-size="14.00">updates</text>
</g>
<!-- RFC4620&#45;&gt;updates -->
<g id="edge3" class="edge">
<title>RFC4620&#45;&gt;updates</title>
<path fill="none" stroke="black" d="M721.93,-229.33C728.03,-229.33 733.88,-229.33 739.35,-229.33"/>
<polygon fill="black" stroke="black" points="739.16,-232.83 749.16,-229.33 739.16,-225.83 739.16,-232.83"/>
</g>
<!-- cites -->
<g id="node6" class="node">
<title>cites</title>
<polygon fill="lightblue" stroke="black" points="806.66,-193.33 752.66,-193.33 752.66,-157.33 806.66,-157.33 806.66,-193.33"/>
<text xml:space="preserve" text-anchor="middle" x="779.66" y="-170.28" font-family="Times,serif" font-size="14.00">cites</text>
</g>
<!-- RFC4620&#45;&gt;cites -->
<g id="edge5" class="edge">
<title>RFC4620&#45;&gt;cites</title>
<path fill="none" stroke="black" d="M686.47,-201.53C706.07,-195.96 725.52,-190.43 741.46,-185.9"/>
<polygon fill="black" stroke="black" points="742.28,-189.31 750.94,-183.2 740.37,-182.57 742.28,-189.31"/>
</g>
<!-- obs_by -->
<g id="node2" class="node">
<title>obs_by</title>
<polygon fill="lightblue" stroke="black" points="428.89,-301.33 362.64,-301.33 362.64,-265.33 428.89,-265.33 428.89,-301.33"/>
<text xml:space="preserve" text-anchor="middle" x="395.77" y="-278.28" font-family="Times,serif" font-size="14.00">obsoletes</text>
</g>
<!-- obs_by&#45;&gt;RFC4620 -->
<g id="edge1" class="edge">
<title>obs_by&#45;&gt;RFC4620</title>
<path fill="none" stroke="black" d="M428.99,-274.17C442.99,-270.18 460.29,-265.27 478.24,-260.16"/>
<polygon fill="black" stroke="black" points="479.06,-263.57 487.72,-257.47 477.14,-256.84 479.06,-263.57"/>
</g>
<!-- updated_by -->
<g id="node5" class="node">
<title>updated_by</title>
<polygon fill="lightyellow" stroke="black" points="424.39,-247.33 367.14,-247.33 367.14,-211.33 424.39,-211.33 424.39,-247.33"/>
<text xml:space="preserve" text-anchor="middle" x="395.77" y="-224.28" font-family="Times,serif" font-size="14.00">updates</text>
</g>
<!-- updated_by&#45;&gt;RFC4620 -->
<g id="edge4" class="edge">
<title>updated_by&#45;&gt;RFC4620</title>
<path fill="none" stroke="black" d="M424.8,-229.33C430.02,-229.33 435.79,-229.33 441.96,-229.33"/>
<polygon fill="black" stroke="black" points="441.93,-232.83 451.93,-229.33 441.93,-225.83 441.93,-232.83"/>
</g>
<!-- rev_cites -->
<g id="node7" class="node">
<title>rev_cites</title>
<polygon fill="lightblue" stroke="black" points="422.77,-193.33 368.77,-193.33 368.77,-157.33 422.77,-157.33 422.77,-193.33"/>
<text xml:space="preserve" text-anchor="middle" x="395.77" y="-170.28" font-family="Times,serif" font-size="14.00">cites</text>
</g>
<!-- rev_cites&#45;&gt;RFC4620 -->
<g id="edge6" class="edge">
<title>rev_cites&#45;&gt;RFC4620</title>
<path fill="none" stroke="black" d="M423.18,-182.83C437.96,-187.03 457.47,-192.58 477.86,-198.38"/>
<polygon fill="black" stroke="black" points="476.88,-201.74 487.46,-201.11 478.8,-195.01 476.88,-201.74"/>
</g>
<!-- RFC4890 -->
<g id="node8" class="node">
<title>RFC4890</title>
<g id="a_node8"><a xlink:href="RFC4890.html" xlink:title="In networks supporting IPv6, the Internet Control Message Protocol version 6 (ICMPv6) plays a fundamental role with a large number of functions, and a correspondingly large number of message types and options. ICMPv6 is essential to the functioning of IPv6, but there are a number of security risks associated with uncontrolled forwarding of ICMPv6 messages. Filtering strategies designed for the corresponding protocol, ICMP, in IPv4 networks are not directly applicable, because these strategies are intended to accommodate a useful auxiliary protocol that may not be required for correct functioning. This document provides some recommendations for ICMPv6 firewall filter configuration that will allow propagation of ICMPv6 messages that are needed to maintain the functioning of the network but drop messages that are potential security risks. This memo provides information for the Internet community." target="_top">
<ellipse fill="none" stroke="black" cx="168.82" cy="-298.33" rx="168.82" ry="52.33"/>
<text xml:space="preserve" text-anchor="middle" x="168.82" y="-318.03" font-family="Times,serif" font-size="14.00">RFC4890</text>
<text xml:space="preserve" text-anchor="middle" x="168.82" y="-301.53" font-family="Times,serif" font-size="14.00">Recommendations for Filtering ICMPv6</text>
<text xml:space="preserve" text-anchor="middle" x="168.82" y="-285.03" font-family="Times,serif" font-size="14.00">Messages in Firewalls</text>
<text xml:space="preserve" text-anchor="middle" x="168.82" y="-268.53" font-family="Times,serif" font-size="14.00">2007</text>
</a>
</g>
</g>
<!-- RFC4890&#45;&gt;rev_cites -->
<g id="edge7" class="edge">
<title>RFC4890&#45;&gt;rev_cites</title>
<path fill="none" stroke="black" d="M292.93,-262.48C308.75,-255.16 324.12,-246.51 337.64,-236.33 352.63,-225.04 349.82,-216.01 362.64,-202.33 362.91,-202.05 363.17,-201.77 363.44,-201.49"/>
<polygon fill="black" stroke="black" points="365.81,-204.06 370.6,-194.61 360.96,-199.01 365.81,-204.06"/>
</g>
<!-- RFC8117 -->
<g id="node9" class="node">
<title>RFC8117</title>
<g id="a_node9"><a xlink:href="RFC8117.html" xlink:title="Giving a hostname to your computer and publishing it as you roam from one network to another is the Internet&#39;s equivalent of walking around with a name tag affixed to your lapel. This current practice can significantly compromise your privacy, and something should change in order to mitigate these privacy threats. There are several possible remedies, such as fixing a variety of protocols or avoiding disclosing a hostname at all. This document describes some of the protocols that reveal hostnames today and sketches another possible remedy, which is to replace static hostnames by frequently changing randomized values." target="_top">
<ellipse fill="none" stroke="black" cx="168.82" cy="-175.33" rx="161.93" ry="52.33"/>
<text xml:space="preserve" text-anchor="middle" x="168.82" y="-195.03" font-family="Times,serif" font-size="14.00">RFC8117</text>
<text xml:space="preserve" text-anchor="middle" x="168.82" y="-178.53" font-family="Times,serif" font-size="14.00">Current Hostname Practice Considered</text>
<text xml:space="preserve" text-anchor="middle" x="168.82" y="-162.03" font-family="Times,serif" font-size="14.00">Harmful</text>
<text xml:space="preserve" text-anchor="middle" x="168.82" y="-145.53" font-family="Times,serif" font-size="14.00">2017</text>
</a>
</g>
</g>
<!-- RFC8117&#45;&gt;rev_cites -->
<g id="edge8" class="edge">
<title>RFC8117&#45;&gt;rev_cites</title>
<path fill="none" stroke="black" d="M331.21,-175.33C340.42,-175.33 349.08,-175.33 356.87,-175.33"/>
<polygon fill="black" stroke="black" points="356.84,-178.83 366.84,-175.33 356.84,-171.83 356.84,-178.83"/>
</g>
<!-- RFC9359 -->
<g id="node10" class="node">
<title>RFC9359</title>
<g id="a_node10"><a xlink:href="RFC9359.html" xlink:title="This document describes a generic format for use in echo request/reply mechanisms, which can be used within an IOAM&#45;Domain, allowing the IOAM encapsulating node to discover the enabled IOAM capabilities of each IOAM transit and IOAM decapsulating node. &#160;The generic format is intended to be used with a variety of data planes such as IPv6, MPLS, Service Function Chain (SFC), and Bit Index Explicit Replication (BIER)." target="_top">
<ellipse fill="none" stroke="black" cx="168.82" cy="-52.33" rx="166.17" ry="52.33"/>
<text xml:space="preserve" text-anchor="middle" x="168.82" y="-72.03" font-family="Times,serif" font-size="14.00">RFC9359</text>
<text xml:space="preserve" text-anchor="middle" x="168.82" y="-55.53" font-family="Times,serif" font-size="14.00">Echo Request/Reply for Enabled In Situ</text>
<text xml:space="preserve" text-anchor="middle" x="168.82" y="-39.03" font-family="Times,serif" font-size="14.00">OAM (IOAM) Capabilities</text>
<text xml:space="preserve" text-anchor="middle" x="168.82" y="-22.53" font-family="Times,serif" font-size="14.00">2023</text>
</a>
</g>
</g>
<!-- RFC9359&#45;&gt;rev_cites -->
<g id="edge9" class="edge">
<title>RFC9359&#45;&gt;rev_cites</title>
<path fill="none" stroke="black" d="M289.21,-88.53C306.1,-95.88 322.76,-104.45 337.64,-114.33 351.42,-123.47 364.25,-136.56 374.25,-148.27"/>
<polygon fill="black" stroke="black" points="371.3,-150.19 380.35,-155.7 376.71,-145.75 371.3,-150.19"/>
</g>
</g>
</svg>
