<?xml version="1.0" encoding="UTF-8" standalone="no"?>
<!DOCTYPE svg PUBLIC "-//W3C//DTD SVG 1.1//EN"
 "http://www.w3.org/Graphics/SVG/1.1/DTD/svg11.dtd">
<!-- Generated by graphviz version 14.1.1 (20251213.1925)
 -->
<!-- Title: Flow Pages: 1 -->
<svg width="1149pt" height="830pt"
 viewBox="0.00 0.00 1149.00 830.00" xmlns="http://www.w3.org/2000/svg" xmlns:xlink="http://www.w3.org/1999/xlink">
<g id="graph0" class="graph" transform="scale(1 1) rotate(0) translate(4 826.46)">
<title>Flow</title>
<polygon fill="white" stroke="none" points="-4,4 -4,-826.46 1145.34,-826.46 1145.34,4 -4,4"/>
<!-- RFC4839 -->
<g id="node1" class="node">
<title>RFC4839</title>
<g id="a_node1"><a xlink:title="This document serves to register a media type for the Open eBook Publication Structure (OEBPS) Package Files. &#160;This memo provides information for the Internet community.">
<ellipse fill="green" stroke="black" stroke-width="3" cx="782.53" cy="-394.07" rx="211.78" ry="79.9"/>
<text xml:space="preserve" text-anchor="middle" x="782.53" y="-429.47" font-family="Times,serif" font-size="18.00">RFC4839</text>
<text xml:space="preserve" text-anchor="middle" x="782.53" y="-408.47" font-family="Times,serif" font-size="18.00">Media Type Registrations for the Open</text>
<text xml:space="preserve" text-anchor="middle" x="782.53" y="-387.47" font-family="Times,serif" font-size="18.00">eBook Publication Structure (OEBPS)</text>
<text xml:space="preserve" text-anchor="middle" x="782.53" y="-366.47" font-family="Times,serif" font-size="18.00">Package File (OPF)</text>
<text xml:space="preserve" text-anchor="middle" x="782.53" y="-345.47" font-family="Times,serif" font-size="18.00">2007</text>
</a>
</g>
</g>
<!-- obs -->
<g id="node3" class="node">
<title>obs</title>
<polygon fill="lightblue" stroke="black" points="1141.34,-600.1 1075.09,-600.1 1075.09,-564.1 1141.34,-564.1 1141.34,-600.1"/>
<text xml:space="preserve" text-anchor="middle" x="1108.21" y="-577.05" font-family="Times,serif" font-size="14.00">obsoletes</text>
</g>
<!-- RFC4839&#45;&gt;obs -->
<g id="edge2" class="edge">
<title>RFC4839&#45;&gt;obs</title>
<path fill="none" stroke="black" d="M900.11,-461.95C958.18,-495.48 1024.6,-533.82 1066.46,-557.99"/>
<polygon fill="black" stroke="black" points="1064.58,-560.95 1074.99,-562.92 1068.08,-554.88 1064.58,-560.95"/>
</g>
<!-- updates -->
<g id="node4" class="node">
<title>updates</title>
<polygon fill="lightyellow" stroke="black" points="811.16,-788.13 753.91,-788.13 753.91,-752.13 811.16,-752.13 811.16,-788.13"/>
<text xml:space="preserve" text-anchor="middle" x="782.53" y="-765.08" font-family="Times,serif" font-size="14.00">updates</text>
</g>
<!-- RFC4839&#45;&gt;updates -->
<g id="edge3" class="edge">
<title>RFC4839&#45;&gt;updates</title>
<path fill="none" stroke="black" d="M782.53,-475.2C782.53,-558.48 782.53,-683.66 782.53,-740.35"/>
<polygon fill="black" stroke="black" points="779.03,-740.16 782.53,-750.16 786.03,-740.16 779.03,-740.16"/>
</g>
<!-- cites -->
<g id="node6" class="node">
<title>cites</title>
<polygon fill="lightblue" stroke="black" points="483.85,-600.1 429.85,-600.1 429.85,-564.1 483.85,-564.1 483.85,-600.1"/>
<text xml:space="preserve" text-anchor="middle" x="456.85" y="-577.05" font-family="Times,serif" font-size="14.00">cites</text>
</g>
<!-- RFC4839&#45;&gt;cites -->
<g id="edge5" class="edge">
<title>RFC4839&#45;&gt;cites</title>
<path fill="none" stroke="black" d="M664.95,-461.95C604.82,-496.67 535.74,-536.55 494.24,-560.51"/>
<polygon fill="black" stroke="black" points="492.52,-557.46 485.61,-565.49 496.02,-563.52 492.52,-557.46"/>
</g>
<!-- obs_by -->
<g id="node2" class="node">
<title>obs_by</title>
<polygon fill="lightblue" stroke="black" points="489.98,-224.03 423.73,-224.03 423.73,-188.03 489.98,-188.03 489.98,-224.03"/>
<text xml:space="preserve" text-anchor="middle" x="456.85" y="-200.98" font-family="Times,serif" font-size="14.00">obsoletes</text>
</g>
<!-- obs_by&#45;&gt;RFC4839 -->
<g id="edge1" class="edge">
<title>obs_by&#45;&gt;RFC4839</title>
<path fill="none" stroke="black" d="M488.67,-224.4C527.34,-246.73 594.94,-285.76 655.56,-320.76"/>
<polygon fill="black" stroke="black" points="653.5,-323.61 663.91,-325.58 657,-317.55 653.5,-323.61"/>
</g>
<!-- updated_by -->
<g id="node5" class="node">
<title>updated_by</title>
<polygon fill="lightyellow" stroke="black" points="811.16,-36 753.91,-36 753.91,0 811.16,0 811.16,-36"/>
<text xml:space="preserve" text-anchor="middle" x="782.53" y="-12.95" font-family="Times,serif" font-size="14.00">updates</text>
</g>
<!-- updated_by&#45;&gt;RFC4839 -->
<g id="edge4" class="edge">
<title>updated_by&#45;&gt;RFC4839</title>
<path fill="none" stroke="black" d="M782.53,-36.39C782.53,-83.65 782.53,-211.86 782.53,-301.18"/>
<polygon fill="black" stroke="black" points="779.03,-301.18 782.53,-311.18 786.03,-301.18 779.03,-301.18"/>
</g>
<!-- RFC4288 -->
<g id="node7" class="node">
<title>RFC4288</title>
<g id="a_node7"><a xlink:href="RFC4288.html" xlink:title="This document defines procedures for the specification and registration of media types for use in MIME and other Internet protocols. &#160;This document specifies an Internet Best Current Practices for the Internet Community, and requests discussion and suggestions for improvements." target="_top">
<ellipse fill="none" stroke="black" cx="131.17" cy="-770.13" rx="131.17" ry="52.33"/>
<text xml:space="preserve" text-anchor="middle" x="131.17" y="-789.83" font-family="Times,serif" font-size="14.00">RFC4288</text>
<text xml:space="preserve" text-anchor="middle" x="131.17" y="-773.33" font-family="Times,serif" font-size="14.00">Media Type Specifications and</text>
<text xml:space="preserve" text-anchor="middle" x="131.17" y="-756.83" font-family="Times,serif" font-size="14.00">Registration Procedures</text>
<text xml:space="preserve" text-anchor="middle" x="131.17" y="-740.33" font-family="Times,serif" font-size="14.00">2005</text>
</a>
</g>
</g>
<!-- cites&#45;&gt;RFC4288 -->
<g id="edge6" class="edge">
<title>cites&#45;&gt;RFC4288</title>
<path fill="none" stroke="black" d="M429.36,-597.97C382.79,-624.86 286.54,-680.43 215.94,-721.19"/>
<polygon fill="black" stroke="black" points="214.38,-718.05 207.47,-726.08 217.88,-724.11 214.38,-718.05"/>
</g>
<!-- rev_cites -->
<g id="node8" class="node">
<title>rev_cites</title>
<polygon fill="lightblue" stroke="black" points="1135.21,-224.03 1081.21,-224.03 1081.21,-188.03 1135.21,-188.03 1135.21,-224.03"/>
<text xml:space="preserve" text-anchor="middle" x="1108.21" y="-200.98" font-family="Times,serif" font-size="14.00">cites</text>
</g>
<!-- rev_cites&#45;&gt;RFC4839 -->
<g id="edge7" class="edge">
<title>rev_cites&#45;&gt;RFC4839</title>
<path fill="none" stroke="black" d="M1080.73,-221.9C1042.95,-243.71 972.49,-284.39 909.54,-320.74"/>
<polygon fill="black" stroke="black" points="908.14,-317.51 901.22,-325.54 911.64,-323.57 908.14,-317.51"/>
</g>
</g>
</svg>
