<?xml version="1.0" encoding="UTF-8" standalone="no"?>
<!DOCTYPE svg PUBLIC "-//W3C//DTD SVG 1.1//EN"
 "http://www.w3.org/Graphics/SVG/1.1/DTD/svg11.dtd">
<!-- Generated by graphviz version 14.1.1 (20251213.1925)
 -->
<!-- Title: Flow Pages: 1 -->
<svg width="864pt" height="159pt"
 viewBox="0.00 0.00 864.00 159.00" xmlns="http://www.w3.org/2000/svg" xmlns:xlink="http://www.w3.org/1999/xlink">
<g id="graph0" class="graph" transform="scale(1 1) rotate(0) translate(4 155.33)">
<title>Flow</title>
<polygon fill="white" stroke="none" points="-4,4 -4,-155.33 860.27,-155.33 860.27,4 -4,4"/>
<!-- RFC4355 -->
<g id="node1" class="node">
<title>RFC4355</title>
<g id="a_node1"><a xlink:title="This document registers the Enumservices email, fax, sms, ems, and mms using the URI schemes &#39;tel:&#39; and &#39;mailto:&#39; as per the IANA registration process defined in the ENUM specification RFC 3761. [STANDARDS&#45;TRACK]">
<ellipse fill="none" stroke="black" cx="610.52" cy="-79.33" rx="154.5" ry="52.33"/>
<text xml:space="preserve" text-anchor="middle" x="610.52" y="-99.03" font-family="Times,serif" font-size="14.00">RFC4355</text>
<text xml:space="preserve" text-anchor="middle" x="610.52" y="-82.53" font-family="Times,serif" font-size="14.00">IANA Registration for Enumservices</text>
<text xml:space="preserve" text-anchor="middle" x="610.52" y="-66.03" font-family="Times,serif" font-size="14.00">email, fax, mms, ems, and sms</text>
<text xml:space="preserve" text-anchor="middle" x="610.52" y="-49.53" font-family="Times,serif" font-size="14.00">2006</text>
</a>
</g>
</g>
<!-- obs -->
<g id="node3" class="node">
<title>obs</title>
<polygon fill="none" stroke="black" points="856.27,-151.33 790.02,-151.33 790.02,-115.33 856.27,-115.33 856.27,-151.33"/>
<text xml:space="preserve" text-anchor="middle" x="823.15" y="-128.28" font-family="Times,serif" font-size="14.00">obsoletes</text>
</g>
<!-- RFC4355&#45;&gt;obs -->
<g id="edge2" class="edge">
<title>RFC4355&#45;&gt;obs</title>
<path fill="none" stroke="black" d="M734.65,-110.89C750.39,-114.93 765.58,-118.82 778.76,-122.2"/>
<polygon fill="black" stroke="black" points="777.77,-125.56 788.32,-124.65 779.5,-118.78 777.77,-125.56"/>
</g>
<!-- updates -->
<g id="node4" class="node">
<title>updates</title>
<polygon fill="none" stroke="black" points="851.77,-97.33 794.52,-97.33 794.52,-61.33 851.77,-61.33 851.77,-97.33"/>
<text xml:space="preserve" text-anchor="middle" x="823.15" y="-74.28" font-family="Times,serif" font-size="14.00">updates</text>
</g>
<!-- RFC4355&#45;&gt;updates -->
<g id="edge3" class="edge">
<title>RFC4355&#45;&gt;updates</title>
<path fill="none" stroke="black" d="M765.42,-79.33C771.54,-79.33 777.38,-79.33 782.83,-79.33"/>
<polygon fill="black" stroke="black" points="782.56,-82.83 792.56,-79.33 782.56,-75.83 782.56,-82.83"/>
</g>
<!-- cites -->
<g id="node7" class="node">
<title>cites</title>
<polygon fill="none" stroke="black" points="850.15,-43.33 796.15,-43.33 796.15,-7.33 850.15,-7.33 850.15,-43.33"/>
<text xml:space="preserve" text-anchor="middle" x="823.15" y="-20.28" font-family="Times,serif" font-size="14.00">cites</text>
</g>
<!-- RFC4355&#45;&gt;cites -->
<g id="edge6" class="edge">
<title>RFC4355&#45;&gt;cites</title>
<path fill="none" stroke="black" d="M734.65,-47.76C752.84,-43.1 770.29,-38.62 784.76,-34.91"/>
<polygon fill="black" stroke="black" points="785.4,-38.36 794.22,-32.49 783.66,-31.58 785.4,-38.36"/>
</g>
<!-- obs_by -->
<g id="node2" class="node">
<title>obs_by</title>
<polygon fill="none" stroke="black" points="431.01,-151.33 364.76,-151.33 364.76,-115.33 431.01,-115.33 431.01,-151.33"/>
<text xml:space="preserve" text-anchor="middle" x="397.89" y="-128.28" font-family="Times,serif" font-size="14.00">obsoletes</text>
</g>
<!-- obs_by&#45;&gt;RFC4355 -->
<g id="edge1" class="edge">
<title>obs_by&#45;&gt;RFC4355</title>
<path fill="none" stroke="black" d="M431.34,-125.01C443.93,-121.78 459.24,-117.85 475.55,-113.67"/>
<polygon fill="black" stroke="black" points="476.11,-117.14 484.92,-111.27 474.37,-110.36 476.11,-117.14"/>
</g>
<!-- updated_by -->
<g id="node5" class="node">
<title>updated_by</title>
<polygon fill="none" stroke="black" points="426.51,-97.33 369.26,-97.33 369.26,-61.33 426.51,-61.33 426.51,-97.33"/>
<text xml:space="preserve" text-anchor="middle" x="397.89" y="-74.28" font-family="Times,serif" font-size="14.00">updates</text>
</g>
<!-- updated_by&#45;&gt;RFC4355 -->
<g id="edge4" class="edge">
<title>updated_by&#45;&gt;RFC4355</title>
<path fill="none" stroke="black" d="M426.86,-79.33C432.24,-79.33 438.21,-79.33 444.63,-79.33"/>
<polygon fill="black" stroke="black" points="444.3,-82.83 454.3,-79.33 444.3,-75.83 444.3,-82.83"/>
</g>
<!-- RFC6118 -->
<g id="node6" class="node">
<title>RFC6118</title>
<g id="a_node6"><a xlink:href="RFC6118.html" xlink:title="This document revises all Enumservices that were IANA registered under the now obsolete specification of the Enumservice registry defined in RFC 3761. [STANDARDS&#45;TRACK]" target="_top">
<ellipse fill="none" stroke="black" cx="169.88" cy="-52.33" rx="169.88" ry="52.33"/>
<text xml:space="preserve" text-anchor="middle" x="169.88" y="-72.03" font-family="Times,serif" font-size="14.00">RFC6118</text>
<text xml:space="preserve" text-anchor="middle" x="169.88" y="-55.53" font-family="Times,serif" font-size="14.00">Update of Legacy IANA Registrations of</text>
<text xml:space="preserve" text-anchor="middle" x="169.88" y="-39.03" font-family="Times,serif" font-size="14.00">Enumservices</text>
<text xml:space="preserve" text-anchor="middle" x="169.88" y="-22.53" font-family="Times,serif" font-size="14.00">2011</text>
</a>
</g>
</g>
<!-- RFC6118&#45;&gt;updated_by -->
<g id="edge5" class="edge">
<title>RFC6118&#45;&gt;updated_by</title>
<path fill="none" stroke="black" d="M328.77,-71.19C339.22,-72.44 349.05,-73.61 357.83,-74.66"/>
<polygon fill="black" stroke="black" points="357.24,-78.11 367.59,-75.83 358.07,-71.16 357.24,-78.11"/>
</g>
<!-- rev_cites -->
<g id="node8" class="node">
<title>rev_cites</title>
<polygon fill="none" stroke="black" points="424.89,-43.33 370.89,-43.33 370.89,-7.33 424.89,-7.33 424.89,-43.33"/>
<text xml:space="preserve" text-anchor="middle" x="397.89" y="-20.28" font-family="Times,serif" font-size="14.00">cites</text>
</g>
<!-- RFC6118&#45;&gt;rev_cites -->
<g id="edge8" class="edge">
<title>RFC6118&#45;&gt;rev_cites</title>
<path fill="none" stroke="black" d="M328.77,-33.46C339.75,-32.15 350.05,-30.92 359.16,-29.83"/>
<polygon fill="black" stroke="black" points="359.38,-33.33 368.9,-28.67 358.55,-26.38 359.38,-33.33"/>
</g>
<!-- rev_cites&#45;&gt;RFC4355 -->
<g id="edge7" class="edge">
<title>rev_cites&#45;&gt;RFC4355</title>
<path fill="none" stroke="black" d="M425.14,-32.06C438.75,-35.55 456.52,-40.1 475.65,-45.01"/>
<polygon fill="black" stroke="black" points="474.7,-48.38 485.26,-47.47 476.44,-41.59 474.7,-48.38"/>
</g>
</g>
</svg>
