<?xml version="1.0" encoding="UTF-8" standalone="no"?>
<!DOCTYPE svg PUBLIC "-//W3C//DTD SVG 1.1//EN"
 "http://www.w3.org/Graphics/SVG/1.1/DTD/svg11.dtd">
<!-- Generated by graphviz version 14.1.1 (20251213.1925)
 -->
<!-- Title: Flow Pages: 1 -->
<svg width="1312pt" height="1215pt"
 viewBox="0.00 0.00 1312.00 1215.00" xmlns="http://www.w3.org/2000/svg" xmlns:xlink="http://www.w3.org/1999/xlink">
<g id="graph0" class="graph" transform="scale(1 1) rotate(0) translate(4 1210.79)">
<title>Flow</title>
<polygon fill="white" stroke="none" points="-4,4 -4,-1210.79 1308.46,-1210.79 1308.46,4 -4,4"/>
<!-- RFC5344 -->
<g id="node1" class="node">
<title>RFC5344</title>
<g id="a_node1"><a xlink:title="This document describes several use cases of peering of non&#45;VoIP (Voice over IP) services between two or more Service Providers. &#160;These Service Providers create a peering relationship between themselves, thus enabling their users to collaborate with users on the other Service Provider network. &#160;The target of this document is to drive requirements for peering between domains that provide the non&#45;VoIP based collaboration services with presence and, in particular, Instant Messaging (IM). &#160;This memo provides information for the Internet community.">
<ellipse fill="green" stroke="black" stroke-width="3" cx="421.69" cy="-809.97" rx="217.61" ry="65.05"/>
<text xml:space="preserve" text-anchor="middle" x="421.69" y="-834.87" font-family="Times,serif" font-size="18.00">RFC5344</text>
<text xml:space="preserve" text-anchor="middle" x="421.69" y="-813.87" font-family="Times,serif" font-size="18.00">Presence and Instant Messaging Peering</text>
<text xml:space="preserve" text-anchor="middle" x="421.69" y="-792.87" font-family="Times,serif" font-size="18.00">Use Cases</text>
<text xml:space="preserve" text-anchor="middle" x="421.69" y="-771.87" font-family="Times,serif" font-size="18.00">2008</text>
</a>
</g>
</g>
<!-- obs -->
<g id="node3" class="node">
<title>obs</title>
<polygon fill="lightblue" stroke="black" points="804.9,-996.56 738.65,-996.56 738.65,-960.56 804.9,-960.56 804.9,-996.56"/>
<text xml:space="preserve" text-anchor="middle" x="771.77" y="-973.51" font-family="Times,serif" font-size="14.00">obsoletes</text>
</g>
<!-- RFC5344&#45;&gt;obs -->
<g id="edge2" class="edge">
<title>RFC5344&#45;&gt;obs</title>
<path fill="none" stroke="black" d="M538.26,-866.11C603.54,-897.54 681.07,-934.88 728.33,-957.64"/>
<polygon fill="black" stroke="black" points="726.62,-960.7 737.15,-961.89 729.66,-954.39 726.62,-960.7"/>
</g>
<!-- updates -->
<g id="node4" class="node">
<title>updates</title>
<polygon fill="lightyellow" stroke="black" points="536.78,-1206.79 479.53,-1206.79 479.53,-1170.79 536.78,-1170.79 536.78,-1206.79"/>
<text xml:space="preserve" text-anchor="middle" x="508.15" y="-1183.74" font-family="Times,serif" font-size="14.00">updates</text>
</g>
<!-- RFC5344&#45;&gt;updates -->
<g id="edge3" class="edge">
<title>RFC5344&#45;&gt;updates</title>
<path fill="none" stroke="black" d="M436.75,-875.95C455.75,-959.22 487.63,-1098.86 501.43,-1159.36"/>
<polygon fill="black" stroke="black" points="497.97,-1159.92 503.61,-1168.89 504.8,-1158.36 497.97,-1159.92"/>
</g>
<!-- cites -->
<g id="node6" class="node">
<title>cites</title>
<polygon fill="lightblue" stroke="black" points="206.42,-1131.76 152.42,-1131.76 152.42,-1095.76 206.42,-1095.76 206.42,-1131.76"/>
<text xml:space="preserve" text-anchor="middle" x="179.42" y="-1108.71" font-family="Times,serif" font-size="14.00">cites</text>
</g>
<!-- RFC5344&#45;&gt;cites -->
<g id="edge5" class="edge">
<title>RFC5344&#45;&gt;cites</title>
<path fill="none" stroke="black" d="M370.31,-874.39C317.83,-940.2 238.86,-1039.22 201.07,-1086.61"/>
<polygon fill="black" stroke="black" points="198.52,-1084.19 195.03,-1094.19 204,-1088.56 198.52,-1084.19"/>
</g>
<!-- obs_by -->
<g id="node2" class="node">
<title>obs_by</title>
<polygon fill="lightblue" stroke="black" points="66.25,-827.97 0,-827.97 0,-791.97 66.25,-791.97 66.25,-827.97"/>
<text xml:space="preserve" text-anchor="middle" x="33.13" y="-804.92" font-family="Times,serif" font-size="14.00">obsoletes</text>
</g>
<!-- obs_by&#45;&gt;RFC5344 -->
<g id="edge1" class="edge">
<title>obs_by&#45;&gt;RFC5344</title>
<path fill="none" stroke="black" d="M66.59,-809.97C96.2,-809.97 142.24,-809.97 191.48,-809.97"/>
<polygon fill="black" stroke="black" points="191.19,-813.47 201.19,-809.97 191.19,-806.47 191.19,-813.47"/>
</g>
<!-- updated_by -->
<g id="node5" class="node">
<title>updated_by</title>
<polygon fill="lightyellow" stroke="black" points="208.05,-524.18 150.8,-524.18 150.8,-488.18 208.05,-488.18 208.05,-524.18"/>
<text xml:space="preserve" text-anchor="middle" x="179.42" y="-501.13" font-family="Times,serif" font-size="14.00">updates</text>
</g>
<!-- updated_by&#45;&gt;RFC5344 -->
<g id="edge4" class="edge">
<title>updated_by&#45;&gt;RFC5344</title>
<path fill="none" stroke="black" d="M193.85,-524.27C226.43,-565.12 307.21,-666.41 363.26,-736.7"/>
<polygon fill="black" stroke="black" points="360.39,-738.72 369.36,-744.35 365.87,-734.35 360.39,-738.72"/>
</g>
<!-- rev_cites -->
<g id="node7" class="node">
<title>rev_cites</title>
<polygon fill="lightblue" stroke="black" points="690.95,-524.18 636.95,-524.18 636.95,-488.18 690.95,-488.18 690.95,-524.18"/>
<text xml:space="preserve" text-anchor="middle" x="663.95" y="-501.13" font-family="Times,serif" font-size="14.00">cites</text>
</g>
<!-- rev_cites&#45;&gt;RFC5344 -->
<g id="edge6" class="edge">
<title>rev_cites&#45;&gt;RFC5344</title>
<path fill="none" stroke="black" d="M649.52,-524.27C616.94,-565.12 536.17,-666.41 480.12,-736.7"/>
<polygon fill="black" stroke="black" points="477.51,-734.35 474.01,-744.35 482.98,-738.72 477.51,-734.35"/>
</g>
<!-- RFC6271 -->
<g id="node8" class="node">
<title>RFC6271</title>
<g id="a_node8"><a xlink:href="RFC6271.html" xlink:title="This memo captures protocol requirements to enable session peering of voice, presence, instant messaging, and other types of multimedia traffic. &#160;This informational document is intended to link the various use cases described for session peering to protocol solutions. &#160;This document is not an Internet Standards Track specification; it is published for informational purposes." target="_top">
<ellipse fill="none" stroke="black" cx="594.61" cy="-52.33" rx="153.44" ry="52.33"/>
<text xml:space="preserve" text-anchor="middle" x="594.61" y="-72.03" font-family="Times,serif" font-size="14.00">RFC6271</text>
<text xml:space="preserve" text-anchor="middle" x="594.61" y="-55.53" font-family="Times,serif" font-size="14.00">Requirements for SIP&#45;Based Session</text>
<text xml:space="preserve" text-anchor="middle" x="594.61" y="-39.03" font-family="Times,serif" font-size="14.00">Peering</text>
<text xml:space="preserve" text-anchor="middle" x="594.61" y="-22.53" font-family="Times,serif" font-size="14.00">2011</text>
</a>
</g>
</g>
<!-- RFC6271&#45;&gt;rev_cites -->
<g id="edge7" class="edge">
<title>RFC6271&#45;&gt;rev_cites</title>
<path fill="none" stroke="black" d="M602.64,-104.83C617.29,-200.76 647.94,-401.4 659.46,-476.74"/>
<polygon fill="black" stroke="black" points="656,-477.27 660.97,-486.63 662.92,-476.21 656,-477.27"/>
</g>
<!-- RFC6914 -->
<g id="node9" class="node">
<title>RFC6914</title>
<g id="a_node9"><a xlink:href="RFC6914.html" xlink:title="The IETF has produced many specifications related to Presence and Instant Messaging with the Session Initiation Protocol (SIP). &#160;Collectively, these specifications are known as SIP for Instant Messaging and Presence Leveraging Extensions (SIMPLE). &#160;This document serves as a guide to the SIMPLE suite of specifications. &#160;It categorizes the specifications, explains what each is for, and how they relate to each other." target="_top">
<ellipse fill="none" stroke="black" cx="1121.85" cy="-472.79" rx="182.61" ry="75.66"/>
<text xml:space="preserve" text-anchor="middle" x="1121.85" y="-508.99" font-family="Times,serif" font-size="14.00">RFC6914</text>
<text xml:space="preserve" text-anchor="middle" x="1121.85" y="-492.49" font-family="Times,serif" font-size="14.00">SIMPLE Made Simple: An Overview of the</text>
<text xml:space="preserve" text-anchor="middle" x="1121.85" y="-475.99" font-family="Times,serif" font-size="14.00">IETF Specifications for Instant</text>
<text xml:space="preserve" text-anchor="middle" x="1121.85" y="-459.49" font-family="Times,serif" font-size="14.00">Messaging and Presence Using the Session</text>
<text xml:space="preserve" text-anchor="middle" x="1121.85" y="-442.99" font-family="Times,serif" font-size="14.00">Initiation Protocol (SIP)</text>
<text xml:space="preserve" text-anchor="middle" x="1121.85" y="-426.49" font-family="Times,serif" font-size="14.00">2013</text>
</a>
</g>
</g>
<!-- RFC6914&#45;&gt;rev_cites -->
<g id="edge8" class="edge">
<title>RFC6914&#45;&gt;rev_cites</title>
<path fill="none" stroke="black" d="M941.54,-485.93C853.35,-492.36 755.08,-499.53 702.37,-503.38"/>
<polygon fill="black" stroke="black" points="702.44,-499.86 692.72,-504.08 702.95,-506.84 702.44,-499.86"/>
</g>
</g>
</svg>
