<?xml version="1.0" encoding="UTF-8" standalone="no"?>
<!DOCTYPE svg PUBLIC "-//W3C//DTD SVG 1.1//EN"
 "http://www.w3.org/Graphics/SVG/1.1/DTD/svg11.dtd">
<!-- Generated by graphviz version 14.1.1 (20251213.1925)
 -->
<!-- Title: Flow Pages: 1 -->
<svg width="1282pt" height="480pt"
 viewBox="0.00 0.00 1282.00 480.00" xmlns="http://www.w3.org/2000/svg" xmlns:xlink="http://www.w3.org/1999/xlink">
<g id="graph0" class="graph" transform="scale(1 1) rotate(0) translate(4 475.98)">
<title>Flow</title>
<polygon fill="white" stroke="none" points="-4,4 -4,-475.98 1278.07,-475.98 1278.07,4 -4,4"/>
<!-- RFC5002 -->
<g id="node1" class="node">
<title>RFC5002</title>
<g id="a_node1"><a xlink:title="This document specifies the SIP P&#45;Profile&#45;Key P&#45;header. &#160;This header field is used in the 3rd&#45;Generation Partnership Project (3GPP) IMS (IP Multimedia Subsystem) to provide SIP registrars and SIP proxy servers with the key of the profile corresponding to the destination SIP URI of a particular SIP request. &#160;This memo provides information for the Internet community.">
<ellipse fill="green" stroke="black" cx="628.02" cy="-307.33" rx="169.88" ry="52.33"/>
<text xml:space="preserve" text-anchor="middle" x="628.02" y="-327.03" font-family="Times,serif" font-size="14.00">RFC5002</text>
<text xml:space="preserve" text-anchor="middle" x="628.02" y="-310.53" font-family="Times,serif" font-size="14.00">The Session Initiation Protocol (SIP)</text>
<text xml:space="preserve" text-anchor="middle" x="628.02" y="-294.03" font-family="Times,serif" font-size="14.00">P&#45;Profile&#45;Key Private Header (P&#45;Header)</text>
<text xml:space="preserve" text-anchor="middle" x="628.02" y="-277.53" font-family="Times,serif" font-size="14.00">2007</text>
</a>
</g>
</g>
<!-- obs -->
<g id="node3" class="node">
<title>obs</title>
<polygon fill="lightblue" stroke="black" points="889.15,-379.33 822.9,-379.33 822.9,-343.33 889.15,-343.33 889.15,-379.33"/>
<text xml:space="preserve" text-anchor="middle" x="856.03" y="-356.28" font-family="Times,serif" font-size="14.00">obsoletes</text>
</g>
<!-- RFC5002&#45;&gt;obs -->
<g id="edge2" class="edge">
<title>RFC5002&#45;&gt;obs</title>
<path fill="none" stroke="black" d="M763.1,-339.36C780.5,-343.52 797.21,-347.51 811.5,-350.93"/>
<polygon fill="black" stroke="black" points="810.39,-354.26 820.93,-353.18 812.02,-347.45 810.39,-354.26"/>
</g>
<!-- updates -->
<g id="node4" class="node">
<title>updates</title>
<polygon fill="lightyellow" stroke="black" points="884.65,-325.33 827.4,-325.33 827.4,-289.33 884.65,-289.33 884.65,-325.33"/>
<text xml:space="preserve" text-anchor="middle" x="856.03" y="-302.28" font-family="Times,serif" font-size="14.00">updates</text>
</g>
<!-- RFC5002&#45;&gt;updates -->
<g id="edge3" class="edge">
<title>RFC5002&#45;&gt;updates</title>
<path fill="none" stroke="black" d="M798.29,-307.33C804.46,-307.33 810.34,-307.33 815.8,-307.33"/>
<polygon fill="black" stroke="black" points="815.56,-310.83 825.56,-307.33 815.56,-303.83 815.56,-310.83"/>
</g>
<!-- cites -->
<g id="node7" class="node">
<title>cites</title>
<polygon fill="lightblue" stroke="black" points="883.03,-271.33 829.03,-271.33 829.03,-235.33 883.03,-235.33 883.03,-271.33"/>
<text xml:space="preserve" text-anchor="middle" x="856.03" y="-248.28" font-family="Times,serif" font-size="14.00">cites</text>
</g>
<!-- RFC5002&#45;&gt;cites -->
<g id="edge6" class="edge">
<title>RFC5002&#45;&gt;cites</title>
<path fill="none" stroke="black" d="M763.1,-275.29C783.1,-270.51 802.18,-265.95 817.73,-262.24"/>
<polygon fill="black" stroke="black" points="818.49,-265.65 827.41,-259.92 816.87,-258.84 818.49,-265.65"/>
</g>
<!-- obs_by -->
<g id="node2" class="node">
<title>obs_by</title>
<polygon fill="lightblue" stroke="black" points="433.14,-379.33 366.89,-379.33 366.89,-343.33 433.14,-343.33 433.14,-379.33"/>
<text xml:space="preserve" text-anchor="middle" x="400.01" y="-356.28" font-family="Times,serif" font-size="14.00">obsoletes</text>
</g>
<!-- obs_by&#45;&gt;RFC5002 -->
<g id="edge1" class="edge">
<title>obs_by&#45;&gt;RFC5002</title>
<path fill="none" stroke="black" d="M433.39,-353.59C447,-350.34 463.86,-346.31 481.92,-341.99"/>
<polygon fill="black" stroke="black" points="482.6,-345.43 491.51,-339.7 480.97,-338.62 482.6,-345.43"/>
</g>
<!-- updated_by -->
<g id="node5" class="node">
<title>updated_by</title>
<polygon fill="lightyellow" stroke="black" points="428.64,-325.33 371.39,-325.33 371.39,-289.33 428.64,-289.33 428.64,-325.33"/>
<text xml:space="preserve" text-anchor="middle" x="400.01" y="-302.28" font-family="Times,serif" font-size="14.00">updates</text>
</g>
<!-- updated_by&#45;&gt;RFC5002 -->
<g id="edge4" class="edge">
<title>updated_by&#45;&gt;RFC5002</title>
<path fill="none" stroke="black" d="M428.72,-307.33C434.09,-307.33 440.06,-307.33 446.49,-307.33"/>
<polygon fill="black" stroke="black" points="446.22,-310.83 456.22,-307.33 446.22,-303.83 446.22,-310.83"/>
</g>
<!-- RFC8217 -->
<g id="node6" class="node">
<title>RFC8217</title>
<g id="a_node6"><a xlink:href="RFC8217.html" xlink:title="RFC 3261 constrained several SIP header fields whose grammar contains the name&#45;addr / addr&#45;spec alternative to use name&#45;addr when certain characters appear. Unfortunately, it expressed the constraints with prose copied into each header field definition, and at least one header field was missed. Further, the constraint has not been copied into documents defining extension headers whose grammar contains the alternative. This document updates RFC 3261 to state the constraint generically and clarifies that the constraint applies to all SIP header fields where there is a choice between using name&#45;addr or addr&#45;spec. It also updates the RFCs that define extension SIP header fields using the alternative to clarify that the constraint applies (RFCs 3325, 3515, 3892, 4508, 5002, 5318, 5360, and 5502)." target="_top">
<ellipse fill="none" stroke="black" cx="170.94" cy="-280.33" rx="170.94" ry="52.33"/>
<text xml:space="preserve" text-anchor="middle" x="170.94" y="-300.03" font-family="Times,serif" font-size="14.00">RFC8217</text>
<text xml:space="preserve" text-anchor="middle" x="170.94" y="-283.53" font-family="Times,serif" font-size="14.00">Clarifications for When to Use the name&#45;</text>
<text xml:space="preserve" text-anchor="middle" x="170.94" y="-267.03" font-family="Times,serif" font-size="14.00">addr Production in SIP Messages</text>
<text xml:space="preserve" text-anchor="middle" x="170.94" y="-250.53" font-family="Times,serif" font-size="14.00">2017</text>
</a>
</g>
</g>
<!-- RFC8217&#45;&gt;updated_by -->
<g id="edge5" class="edge">
<title>RFC8217&#45;&gt;updated_by</title>
<path fill="none" stroke="black" d="M330.88,-299.23C341.23,-300.46 350.98,-301.61 359.69,-302.65"/>
<polygon fill="black" stroke="black" points="359.04,-306.1 369.38,-303.8 359.87,-299.15 359.04,-306.1"/>
</g>
<!-- rev_cites -->
<g id="node12" class="node">
<title>rev_cites</title>
<polygon fill="lightblue" stroke="black" points="427.01,-271.33 373.01,-271.33 373.01,-235.33 427.01,-235.33 427.01,-271.33"/>
<text xml:space="preserve" text-anchor="middle" x="400.01" y="-248.28" font-family="Times,serif" font-size="14.00">cites</text>
</g>
<!-- RFC8217&#45;&gt;rev_cites -->
<g id="edge12" class="edge">
<title>RFC8217&#45;&gt;rev_cites</title>
<path fill="none" stroke="black" d="M330.88,-261.43C341.87,-260.12 352.18,-258.89 361.29,-257.81"/>
<polygon fill="black" stroke="black" points="361.51,-261.31 371.02,-256.65 360.68,-254.36 361.51,-261.31"/>
</g>
<!-- RFC3261 -->
<g id="node8" class="node">
<title>RFC3261</title>
<g id="a_node8"><a xlink:href="RFC3261.html" xlink:title="This document describes Session Initiation Protocol (SIP), an application&#45;layer control (signaling) protocol for creating, modifying, and terminating sessions with one or more participants. &#160;These sessions include Internet telephone calls, multimedia distribution, and multimedia conferences. [STANDARDS&#45;TRACK]" target="_top">
<ellipse fill="none" stroke="black" cx="1094.11" cy="-431.33" rx="132.23" ry="40.66"/>
<text xml:space="preserve" text-anchor="middle" x="1094.11" y="-442.78" font-family="Times,serif" font-size="14.00">RFC3261</text>
<text xml:space="preserve" text-anchor="middle" x="1094.11" y="-426.28" font-family="Times,serif" font-size="14.00">SIP: Session Initiation Protocol</text>
<text xml:space="preserve" text-anchor="middle" x="1094.11" y="-409.78" font-family="Times,serif" font-size="14.00">2002</text>
</a>
</g>
</g>
<!-- cites&#45;&gt;RFC3261 -->
<g id="edge7" class="edge">
<title>cites&#45;&gt;RFC3261</title>
<path fill="none" stroke="black" d="M882.21,-271.63C884.83,-274.32 887.22,-277.23 889.15,-280.33 913.61,-319.57 881.94,-348.14 914.15,-381.33 927.2,-394.77 943.55,-404.69 961.02,-411.99"/>
<polygon fill="black" stroke="black" points="959.42,-415.13 970.01,-415.45 961.93,-408.59 959.42,-415.13"/>
</g>
<!-- RFC3427 -->
<g id="node9" class="node">
<title>RFC3427</title>
<g id="a_node9"><a xlink:href="RFC3427.html" xlink:title="This memo documents a process intended to apply architectural discipline to the future development of the Session Initiation Protocol (SIP). &#160;There have been concerns with regards to new SIP proposals. &#160;Specifically, that the addition of new SIP features can be damaging towards security and/or greatly increase the complexity of the protocol. &#160;The Transport Area directors, along with the SIP and Session Initiation Proposal Investigation (SIPPING) working group chairs, have provided suggestions for SIP modifications and extensions. &#160;This document specifies an Internet Best Current Practices for the Internet Community, and requests discussion and suggestions for improvements." target="_top">
<ellipse fill="none" stroke="black" cx="1094.11" cy="-320.33" rx="132.23" ry="52.33"/>
<text xml:space="preserve" text-anchor="middle" x="1094.11" y="-340.03" font-family="Times,serif" font-size="14.00">RFC3427</text>
<text xml:space="preserve" text-anchor="middle" x="1094.11" y="-323.53" font-family="Times,serif" font-size="14.00">Change Process for the Session</text>
<text xml:space="preserve" text-anchor="middle" x="1094.11" y="-307.03" font-family="Times,serif" font-size="14.00">Initiation Protocol (SIP)</text>
<text xml:space="preserve" text-anchor="middle" x="1094.11" y="-290.53" font-family="Times,serif" font-size="14.00">2002</text>
</a>
</g>
</g>
<!-- cites&#45;&gt;RFC3427 -->
<g id="edge8" class="edge">
<title>cites&#45;&gt;RFC3427</title>
<path fill="none" stroke="black" d="M883.19,-260.75C905.93,-267.21 940.57,-277.04 975.2,-286.86"/>
<polygon fill="black" stroke="black" points="973.9,-290.13 984.48,-289.5 975.81,-283.4 973.9,-290.13"/>
</g>
<!-- RFC4457 -->
<g id="node10" class="node">
<title>RFC4457</title>
<g id="a_node10"><a xlink:href="RFC4457.html" xlink:title="This document specifies the Session Initiation Protocol (SIP) P&#45;User&#45;Database Private&#45;Header (P&#45;header). &#160;This header field is used in the 3rd&#45;Generation Partnership Project (3GPP) IMS (IP Multimedia Subsystem) to provide SIP registrars and SIP proxy servers with the address of the database that contains the user profile of the user that generated a particular request. &#160;This memo provides information for the Internet community." target="_top">
<ellipse fill="none" stroke="black" cx="1094.11" cy="-186.33" rx="153.44" ry="63.99"/>
<text xml:space="preserve" text-anchor="middle" x="1094.11" y="-214.28" font-family="Times,serif" font-size="14.00">RFC4457</text>
<text xml:space="preserve" text-anchor="middle" x="1094.11" y="-197.78" font-family="Times,serif" font-size="14.00">The Session Initiation Protocol (SIP)</text>
<text xml:space="preserve" text-anchor="middle" x="1094.11" y="-181.28" font-family="Times,serif" font-size="14.00">P&#45;User&#45;Database Private&#45;Header</text>
<text xml:space="preserve" text-anchor="middle" x="1094.11" y="-164.78" font-family="Times,serif" font-size="14.00">(P&#45;Header)</text>
<text xml:space="preserve" text-anchor="middle" x="1094.11" y="-148.28" font-family="Times,serif" font-size="14.00">2006</text>
</a>
</g>
</g>
<!-- cites&#45;&gt;RFC4457 -->
<g id="edge9" class="edge">
<title>cites&#45;&gt;RFC4457</title>
<path fill="none" stroke="black" d="M883.19,-245.9C901.66,-240.66 927.99,-233.19 955.78,-225.3"/>
<polygon fill="black" stroke="black" points="956.36,-228.77 965.03,-222.68 954.45,-222.04 956.36,-228.77"/>
</g>
<!-- RFC4234 -->
<g id="node11" class="node">
<title>RFC4234</title>
<g id="a_node11"><a xlink:href="RFC4234.html" xlink:title="Internet technical specifications often need to define a formal syntax. &#160;Over the years, a modified version of Backus&#45;Naur Form (BNF), called Augmented BNF (ABNF), has been popular among many Internet specifications. &#160;The current specification documents ABNF. &#160;It balances compactness and simplicity, with reasonable representational power. &#160;The differences between standard BNF and ABNF involve naming rules, repetition, alternatives, order&#45;independence, and value ranges. &#160;This specification also supplies additional rule definitions and encoding for a core lexical analyzer of the type common to several Internet specifications. [STANDARDS&#45;TRACK]" target="_top">
<ellipse fill="none" stroke="black" cx="1094.11" cy="-52.33" rx="179.96" ry="52.33"/>
<text xml:space="preserve" text-anchor="middle" x="1094.11" y="-72.03" font-family="Times,serif" font-size="14.00">RFC4234</text>
<text xml:space="preserve" text-anchor="middle" x="1094.11" y="-55.53" font-family="Times,serif" font-size="14.00">Augmented BNF for Syntax Specifications:</text>
<text xml:space="preserve" text-anchor="middle" x="1094.11" y="-39.03" font-family="Times,serif" font-size="14.00">ABNF</text>
<text xml:space="preserve" text-anchor="middle" x="1094.11" y="-22.53" font-family="Times,serif" font-size="14.00">2005</text>
</a>
</g>
</g>
<!-- cites&#45;&gt;RFC4234 -->
<g id="edge10" class="edge">
<title>cites&#45;&gt;RFC4234</title>
<path fill="none" stroke="black" d="M859.53,-235.16C864.57,-205.55 878.62,-146.82 914.15,-113.33 923.29,-104.71 933.71,-97.3 944.8,-90.94"/>
<polygon fill="black" stroke="black" points="946.23,-94.14 953.38,-86.33 942.92,-87.98 946.23,-94.14"/>
</g>
<!-- rev_cites&#45;&gt;RFC5002 -->
<g id="edge11" class="edge">
<title>rev_cites&#45;&gt;RFC5002</title>
<path fill="none" stroke="black" d="M427.38,-259.63C441.86,-263.09 461.07,-267.68 481.88,-272.65"/>
<polygon fill="black" stroke="black" points="480.87,-276.01 491.41,-274.93 482.5,-269.2 480.87,-276.01"/>
</g>
</g>
</svg>
