<?xml version="1.0" encoding="UTF-8" standalone="no"?>
<!DOCTYPE svg PUBLIC "-//W3C//DTD SVG 1.1//EN"
 "http://www.w3.org/Graphics/SVG/1.1/DTD/svg11.dtd">
<!-- Generated by graphviz version 14.1.1 (20251213.1925)
 -->
<!-- Title: Flow Pages: 1 -->
<svg width="963pt" height="544pt"
 viewBox="0.00 0.00 963.00 544.00" xmlns="http://www.w3.org/2000/svg" xmlns:xlink="http://www.w3.org/1999/xlink">
<g id="graph0" class="graph" transform="scale(1 1) rotate(0) translate(4 540.19)">
<title>Flow</title>
<polygon fill="white" stroke="none" points="-4,4 -4,-540.19 959.42,-540.19 959.42,4 -4,4"/>
<!-- RFC5645 -->
<g id="node1" class="node">
<title>RFC5645</title>
<g id="a_node1"><a xlink:title="This memo defines the procedure used to update the IANA Language Subtag Registry, in conjunction with the publication of RFC 5646, for use in forming tags for identifying languages. &#160;This memo provides information for the Internet community.">
<ellipse fill="none" stroke="black" cx="259.01" cy="-274.53" rx="167.76" ry="40.66"/>
<text xml:space="preserve" text-anchor="middle" x="259.01" y="-285.98" font-family="Times,serif" font-size="14.00">RFC5645</text>
<text xml:space="preserve" text-anchor="middle" x="259.01" y="-269.48" font-family="Times,serif" font-size="14.00">Update to the Language Subtag Registry</text>
<text xml:space="preserve" text-anchor="middle" x="259.01" y="-252.98" font-family="Times,serif" font-size="14.00">2009</text>
</a>
</g>
</g>
<!-- obs -->
<g id="node3" class="node">
<title>obs</title>
<polygon fill="none" stroke="black" points="518.02,-373.53 451.77,-373.53 451.77,-337.53 518.02,-337.53 518.02,-373.53"/>
<text xml:space="preserve" text-anchor="middle" x="484.9" y="-350.48" font-family="Times,serif" font-size="14.00">obsoletes</text>
</g>
<!-- RFC5645&#45;&gt;obs -->
<g id="edge2" class="edge">
<title>RFC5645&#45;&gt;obs</title>
<path fill="none" stroke="black" d="M353.66,-308.41C383.8,-319.31 415.75,-330.87 440.46,-339.81"/>
<polygon fill="black" stroke="black" points="439.26,-343.1 449.85,-343.21 441.64,-336.52 439.26,-343.1"/>
</g>
<!-- updates -->
<g id="node4" class="node">
<title>updates</title>
<polygon fill="none" stroke="black" points="513.52,-319.53 456.27,-319.53 456.27,-283.53 513.52,-283.53 513.52,-319.53"/>
<text xml:space="preserve" text-anchor="middle" x="484.9" y="-296.48" font-family="Times,serif" font-size="14.00">updates</text>
</g>
<!-- RFC5645&#45;&gt;updates -->
<g id="edge3" class="edge">
<title>RFC5645&#45;&gt;updates</title>
<path fill="none" stroke="black" d="M409.97,-292.61C422.45,-294.12 434.21,-295.54 444.53,-296.78"/>
<polygon fill="black" stroke="black" points="444.09,-300.25 454.44,-297.98 444.93,-293.3 444.09,-300.25"/>
</g>
<!-- cites -->
<g id="node6" class="node">
<title>cites</title>
<polygon fill="none" stroke="black" points="511.9,-265.53 457.9,-265.53 457.9,-229.53 511.9,-229.53 511.9,-265.53"/>
<text xml:space="preserve" text-anchor="middle" x="484.9" y="-242.48" font-family="Times,serif" font-size="14.00">cites</text>
</g>
<!-- RFC5645&#45;&gt;cites -->
<g id="edge5" class="edge">
<title>RFC5645&#45;&gt;cites</title>
<path fill="none" stroke="black" d="M409.97,-256.44C423.16,-254.85 435.56,-253.36 446.29,-252.06"/>
<polygon fill="black" stroke="black" points="446.64,-255.55 456.15,-250.87 445.81,-248.6 446.64,-255.55"/>
</g>
<!-- obs_by -->
<g id="node2" class="node">
<title>obs_by</title>
<polygon fill="none" stroke="black" points="66.25,-319.53 0,-319.53 0,-283.53 66.25,-283.53 66.25,-319.53"/>
<text xml:space="preserve" text-anchor="middle" x="33.12" y="-296.48" font-family="Times,serif" font-size="14.00">obsoletes</text>
</g>
<!-- obs_by&#45;&gt;RFC5645 -->
<g id="edge1" class="edge">
<title>obs_by&#45;&gt;RFC5645</title>
<path fill="none" stroke="black" d="M66.68,-297.6C75.59,-296.53 85.89,-295.29 96.99,-293.95"/>
<polygon fill="black" stroke="black" points="97.33,-297.43 106.84,-292.76 96.49,-290.48 97.33,-297.43"/>
</g>
<!-- updated_by -->
<g id="node5" class="node">
<title>updated_by</title>
<polygon fill="none" stroke="black" points="61.75,-265.53 4.5,-265.53 4.5,-229.53 61.75,-229.53 61.75,-265.53"/>
<text xml:space="preserve" text-anchor="middle" x="33.12" y="-242.48" font-family="Times,serif" font-size="14.00">updates</text>
</g>
<!-- updated_by&#45;&gt;RFC5645 -->
<g id="edge4" class="edge">
<title>updated_by&#45;&gt;RFC5645</title>
<path fill="none" stroke="black" d="M62.03,-250.89C71.92,-252.09 83.87,-253.53 96.94,-255.1"/>
<polygon fill="black" stroke="black" points="96.31,-258.55 106.65,-256.27 97.14,-251.6 96.31,-258.55"/>
</g>
<!-- RFC4646 -->
<g id="node7" class="node">
<title>RFC4646</title>
<g id="a_node7"><a xlink:href="RFC4646.html" xlink:title="This document describes the structure, content, construction, and semantics of language tags for use in cases where it is desirable to indicate the language used in an information object. &#160;It also describes how to register values for use in language tags and the creation of user&#45;defined extensions for private interchange. &#160;This document, in combination with RFC 4647, replaces RFC 3066, which replaced RFC 1766. &#160;This document specifies an Internet Best Current Practices for the Internet Community, and requests discussion and suggestions for improvements." target="_top">
<ellipse fill="none" stroke="black" cx="709.72" cy="-495.53" rx="132.76" ry="40.66"/>
<text xml:space="preserve" text-anchor="middle" x="709.72" y="-506.98" font-family="Times,serif" font-size="14.00">RFC4646</text>
<text xml:space="preserve" text-anchor="middle" x="709.72" y="-490.48" font-family="Times,serif" font-size="14.00">Tags for Identifying Languages</text>
<text xml:space="preserve" text-anchor="middle" x="709.72" y="-473.98" font-family="Times,serif" font-size="14.00">2006</text>
</a>
</g>
</g>
<!-- cites&#45;&gt;RFC4646 -->
<g id="edge6" class="edge">
<title>cites&#45;&gt;RFC4646</title>
<path fill="none" stroke="black" d="M511.69,-265.99C514.13,-268.61 516.32,-271.47 518.02,-274.53 555.6,-342.02 492.45,-388.14 543.02,-446.53 552.98,-458.02 565.49,-466.89 579.15,-473.71"/>
<polygon fill="black" stroke="black" points="577.36,-476.74 587.91,-477.7 580.26,-470.37 577.36,-476.74"/>
</g>
<!-- RFC4645 -->
<g id="node8" class="node">
<title>RFC4645</title>
<g id="a_node8"><a xlink:href="RFC4645.html" xlink:title="This memo defined the initial contents of the IANA Language Subtag Registry for use in forming tags for the identification of languages. &#160;Since the contents of this memo only served as a starting point for the registry, its actual contents have been removed before publication to avoid confusion. &#160;This memo provides information for the Internet community." target="_top">
<ellipse fill="none" stroke="black" cx="709.72" cy="-396.53" rx="138.59" ry="40.66"/>
<text xml:space="preserve" text-anchor="middle" x="709.72" y="-407.98" font-family="Times,serif" font-size="14.00">RFC4645</text>
<text xml:space="preserve" text-anchor="middle" x="709.72" y="-391.48" font-family="Times,serif" font-size="14.00">Initial Language Subtag Registry</text>
<text xml:space="preserve" text-anchor="middle" x="709.72" y="-374.98" font-family="Times,serif" font-size="14.00">2006</text>
</a>
</g>
</g>
<!-- cites&#45;&gt;RFC4645 -->
<g id="edge7" class="edge">
<title>cites&#45;&gt;RFC4645</title>
<path fill="none" stroke="black" d="M510.82,-266C513.48,-268.66 515.96,-271.52 518.02,-274.53 537.41,-302.81 518.26,-323.8 543.02,-347.53 553.38,-357.45 565.64,-365.38 578.75,-371.71"/>
<polygon fill="black" stroke="black" points="576.97,-374.75 587.53,-375.63 579.82,-368.36 576.97,-374.75"/>
</g>
<!-- RFC5646 -->
<g id="node9" class="node">
<title>RFC5646</title>
<g id="a_node9"><a xlink:href="RFC5646.html" xlink:title="This document describes the structure, content, construction, and semantics of language tags for use in cases where it is desirable to indicate the language used in an information object. &#160;It also describes how to register values for use in language tags and the creation of user&#45;defined extensions for private interchange. &#160;This document specifies an Internet Best Current Practices for the Internet Community, and requests discussion and suggestions for improvements." target="_top">
<ellipse fill="none" stroke="black" cx="709.72" cy="-297.53" rx="132.76" ry="40.66"/>
<text xml:space="preserve" text-anchor="middle" x="709.72" y="-308.98" font-family="Times,serif" font-size="14.00">RFC5646</text>
<text xml:space="preserve" text-anchor="middle" x="709.72" y="-292.48" font-family="Times,serif" font-size="14.00">Tags for Identifying Languages</text>
<text xml:space="preserve" text-anchor="middle" x="709.72" y="-275.98" font-family="Times,serif" font-size="14.00">2009</text>
</a>
</g>
</g>
<!-- cites&#45;&gt;RFC5646 -->
<g id="edge8" class="edge">
<title>cites&#45;&gt;RFC5646</title>
<path fill="none" stroke="black" d="M512.33,-253.46C532.3,-257.94 561.24,-264.43 590.79,-271.07"/>
<polygon fill="black" stroke="black" points="589.69,-274.41 600.21,-273.18 591.22,-267.57 589.69,-274.41"/>
</g>
<!-- RFC1766 -->
<g id="node10" class="node">
<title>RFC1766</title>
<g id="a_node10"><a xlink:href="RFC1766.html" xlink:title="This document describes a language tag for use in cases where it is desired to indicate the language used in an information object. [STANDARDS&#45;TRACK]" target="_top">
<ellipse fill="none" stroke="black" cx="709.72" cy="-198.53" rx="166.7" ry="40.66"/>
<text xml:space="preserve" text-anchor="middle" x="709.72" y="-209.98" font-family="Times,serif" font-size="14.00">RFC1766</text>
<text xml:space="preserve" text-anchor="middle" x="709.72" y="-193.48" font-family="Times,serif" font-size="14.00">Tags for the Identification of Languages</text>
<text xml:space="preserve" text-anchor="middle" x="709.72" y="-176.98" font-family="Times,serif" font-size="14.00">1995</text>
</a>
</g>
</g>
<!-- cites&#45;&gt;RFC1766 -->
<g id="edge9" class="edge">
<title>cites&#45;&gt;RFC1766</title>
<path fill="none" stroke="black" d="M512.33,-241.71C528.41,-238.18 550.29,-233.37 573.62,-228.24"/>
<polygon fill="black" stroke="black" points="574.31,-231.67 583.32,-226.1 572.8,-224.83 574.31,-231.67"/>
</g>
<!-- RFC3066 -->
<g id="node11" class="node">
<title>RFC3066</title>
<g id="a_node11"><a xlink:href="RFC3066.html" xlink:title="This document describes a language tag for use in cases where it is desired to indicate the language used in an information object, how to register values for use in this language tag, and a construct for matching such language tags. &#160;This document specifies an Internet Best Current Practices for the Internet Community, and requests discussion and suggestions for improvements." target="_top">
<ellipse fill="none" stroke="black" cx="709.72" cy="-99.53" rx="166.7" ry="40.66"/>
<text xml:space="preserve" text-anchor="middle" x="709.72" y="-110.98" font-family="Times,serif" font-size="14.00">RFC3066</text>
<text xml:space="preserve" text-anchor="middle" x="709.72" y="-94.48" font-family="Times,serif" font-size="14.00">Tags for the Identification of Languages</text>
<text xml:space="preserve" text-anchor="middle" x="709.72" y="-77.98" font-family="Times,serif" font-size="14.00">2001</text>
</a>
</g>
</g>
<!-- cites&#45;&gt;RFC3066 -->
<g id="edge10" class="edge">
<title>cites&#45;&gt;RFC3066</title>
<path fill="none" stroke="black" d="M491.65,-229.37C499.64,-207.08 516.22,-169.66 543.02,-148.53 551.77,-141.63 561.46,-135.71 571.65,-130.62"/>
<polygon fill="black" stroke="black" points="573.02,-133.84 580.61,-126.44 570.06,-127.49 573.02,-133.84"/>
</g>
<!-- rev_cites -->
<g id="node12" class="node">
<title>rev_cites</title>
<polygon fill="none" stroke="black" points="955.42,-181.53 901.42,-181.53 901.42,-145.53 955.42,-145.53 955.42,-181.53"/>
<text xml:space="preserve" text-anchor="middle" x="928.42" y="-158.48" font-family="Times,serif" font-size="14.00">cites</text>
</g>
<!-- RFC5646&#45;&gt;rev_cites -->
<g id="edge12" class="edge">
<title>RFC5646&#45;&gt;rev_cites</title>
<path fill="none" stroke="black" d="M823.62,-276.5C842.45,-269.64 860.89,-260.56 876.42,-248.53 894.99,-234.15 908.25,-210.95 916.59,-192.42"/>
<polygon fill="black" stroke="black" points="919.79,-193.84 920.45,-183.27 913.34,-191.12 919.79,-193.84"/>
</g>
<!-- rev_cites&#45;&gt;RFC5645 -->
<g id="edge11" class="edge">
<title>rev_cites&#45;&gt;RFC5645</title>
<path fill="none" stroke="black" d="M925.34,-145.4C921.21,-119.02 909.36,-70.87 876.42,-49.53 752.08,31.06 682.92,-0.69 543.02,-49.53 442.97,-84.45 351.79,-171.18 301.3,-226.18"/>
<polygon fill="black" stroke="black" points="299,-223.51 294.87,-233.27 304.18,-228.22 299,-223.51"/>
</g>
</g>
</svg>
