<?xml version="1.0" encoding="UTF-8" standalone="no"?>
<!DOCTYPE svg PUBLIC "-//W3C//DTD SVG 1.1//EN"
 "http://www.w3.org/Graphics/SVG/1.1/DTD/svg11.dtd">
<!-- Generated by graphviz version 14.1.1 (20251213.1925)
 -->
<!-- Title: Flow Pages: 1 -->
<svg width="1226pt" height="849pt"
 viewBox="0.00 0.00 1226.00 849.00" xmlns="http://www.w3.org/2000/svg" xmlns:xlink="http://www.w3.org/1999/xlink">
<g id="graph0" class="graph" transform="scale(1 1) rotate(0) translate(4 844.98)">
<title>Flow</title>
<polygon fill="white" stroke="none" points="-4,4 -4,-844.98 1221.85,-844.98 1221.85,4 -4,4"/>
<!-- RFC5658 -->
<g id="node1" class="node">
<title>RFC5658</title>
<g id="a_node1"><a xlink:title="A typical function of a Session Initiation Protocol (SIP) Proxy is to insert a Record&#45;Route header into initial, dialog&#45;creating requests in order to make subsequent, in&#45;dialog requests pass through it. &#160;This header contains a SIP Uniform Resource Identifier (URI) or SIPS (secure SIP) URI indicating where and how the subsequent requests should be sent to reach the proxy. &#160;These SIP or SIPS URIs can contain IPv4 or IPv6 addresses and URI parameters that could influence the routing such as the transport parameter (for example, transport=tcp), or a compression indication like comp=sigcomp. &#160;When a proxy has to change some of those parameters between its incoming and outgoing interfaces (multi&#45;homed proxies, transport protocol switching, or IPv4 to IPv6 scenarios, etc.), the question arises on what should be put in Record&#45;Route header(s). &#160;It is not possible to make one header have the characteristics of both interfaces at the same time. &#160;This document aims to clarify these scenarios and fix bugs already identified on this topic; it formally recommends the use of the double Record&#45;Route technique as an alternative to the current RFC 3261 text, which describes only a Record&#45;Route rewriting solution. [STANDARDS&#45;TRACK]">
<ellipse fill="none" stroke="black" cx="595.14" cy="-475.33" rx="161.4" ry="52.33"/>
<text xml:space="preserve" text-anchor="middle" x="595.14" y="-495.03" font-family="Times,serif" font-size="14.00">RFC5658</text>
<text xml:space="preserve" text-anchor="middle" x="595.14" y="-478.53" font-family="Times,serif" font-size="14.00">Addressing Record&#45;Route Issues in the</text>
<text xml:space="preserve" text-anchor="middle" x="595.14" y="-462.03" font-family="Times,serif" font-size="14.00">Session Initiation Protocol (SIP)</text>
<text xml:space="preserve" text-anchor="middle" x="595.14" y="-445.53" font-family="Times,serif" font-size="14.00">2009</text>
</a>
</g>
</g>
<!-- obs -->
<g id="node3" class="node">
<title>obs</title>
<polygon fill="none" stroke="black" points="847.79,-547.33 781.54,-547.33 781.54,-511.33 847.79,-511.33 847.79,-547.33"/>
<text xml:space="preserve" text-anchor="middle" x="814.66" y="-524.28" font-family="Times,serif" font-size="14.00">obsoletes</text>
</g>
<!-- RFC5658&#45;&gt;obs -->
<g id="edge2" class="edge">
<title>RFC5658&#45;&gt;obs</title>
<path fill="none" stroke="black" d="M724.24,-507.13C740.67,-511.21 756.49,-515.13 770.14,-518.52"/>
<polygon fill="black" stroke="black" points="769.04,-521.85 779.59,-520.87 770.73,-515.06 769.04,-521.85"/>
</g>
<!-- updates -->
<g id="node4" class="node">
<title>updates</title>
<polygon fill="none" stroke="black" points="843.29,-493.33 786.04,-493.33 786.04,-457.33 843.29,-457.33 843.29,-493.33"/>
<text xml:space="preserve" text-anchor="middle" x="814.66" y="-470.28" font-family="Times,serif" font-size="14.00">updates</text>
</g>
<!-- RFC5658&#45;&gt;updates -->
<g id="edge3" class="edge">
<title>RFC5658&#45;&gt;updates</title>
<path fill="none" stroke="black" d="M756.79,-475.33C762.95,-475.33 768.82,-475.33 774.29,-475.33"/>
<polygon fill="black" stroke="black" points="774.05,-478.83 784.05,-475.33 774.05,-471.83 774.05,-478.83"/>
</g>
<!-- cites -->
<g id="node6" class="node">
<title>cites</title>
<polygon fill="none" stroke="black" points="841.66,-439.33 787.66,-439.33 787.66,-403.33 841.66,-403.33 841.66,-439.33"/>
<text xml:space="preserve" text-anchor="middle" x="814.66" y="-416.28" font-family="Times,serif" font-size="14.00">cites</text>
</g>
<!-- RFC5658&#45;&gt;cites -->
<g id="edge5" class="edge">
<title>RFC5658&#45;&gt;cites</title>
<path fill="none" stroke="black" d="M724.24,-443.52C743.35,-438.78 761.64,-434.24 776.64,-430.52"/>
<polygon fill="black" stroke="black" points="777.1,-434.01 785.96,-428.2 775.41,-427.22 777.1,-434.01"/>
</g>
<!-- obs_by -->
<g id="node2" class="node">
<title>obs_by</title>
<polygon fill="none" stroke="black" points="408.74,-547.33 342.49,-547.33 342.49,-511.33 408.74,-511.33 408.74,-547.33"/>
<text xml:space="preserve" text-anchor="middle" x="375.62" y="-524.28" font-family="Times,serif" font-size="14.00">obsoletes</text>
</g>
<!-- obs_by&#45;&gt;RFC5658 -->
<g id="edge1" class="edge">
<title>obs_by&#45;&gt;RFC5658</title>
<path fill="none" stroke="black" d="M409.18,-521.24C422.23,-518 438.23,-514.03 455.3,-509.79"/>
<polygon fill="black" stroke="black" points="455.72,-513.29 464.58,-507.49 454.03,-506.5 455.72,-513.29"/>
</g>
<!-- updated_by -->
<g id="node5" class="node">
<title>updated_by</title>
<polygon fill="none" stroke="black" points="404.24,-493.33 346.99,-493.33 346.99,-457.33 404.24,-457.33 404.24,-493.33"/>
<text xml:space="preserve" text-anchor="middle" x="375.62" y="-470.28" font-family="Times,serif" font-size="14.00">updates</text>
</g>
<!-- updated_by&#45;&gt;RFC5658 -->
<g id="edge4" class="edge">
<title>updated_by&#45;&gt;RFC5658</title>
<path fill="none" stroke="black" d="M404.61,-475.33C409.97,-475.33 415.94,-475.33 422.35,-475.33"/>
<polygon fill="black" stroke="black" points="422.03,-478.83 432.03,-475.33 422.03,-471.83 422.03,-478.83"/>
</g>
<!-- RFC3261 -->
<g id="node7" class="node">
<title>RFC3261</title>
<g id="a_node7"><a xlink:href="RFC3261.html" xlink:title="This document describes Session Initiation Protocol (SIP), an application&#45;layer control (signaling) protocol for creating, modifying, and terminating sessions with one or more participants. &#160;These sessions include Internet telephone calls, multimedia distribution, and multimedia conferences. [STANDARDS&#45;TRACK]" target="_top">
<ellipse fill="none" stroke="black" cx="1045.32" cy="-800.33" rx="132.23" ry="40.66"/>
<text xml:space="preserve" text-anchor="middle" x="1045.32" y="-811.78" font-family="Times,serif" font-size="14.00">RFC3261</text>
<text xml:space="preserve" text-anchor="middle" x="1045.32" y="-795.28" font-family="Times,serif" font-size="14.00">SIP: Session Initiation Protocol</text>
<text xml:space="preserve" text-anchor="middle" x="1045.32" y="-778.78" font-family="Times,serif" font-size="14.00">2002</text>
</a>
</g>
</g>
<!-- cites&#45;&gt;RFC3261 -->
<g id="edge6" class="edge">
<title>cites&#45;&gt;RFC3261</title>
<path fill="none" stroke="black" d="M841.64,-439.68C844.05,-442.33 846.18,-445.22 847.79,-448.33 878.72,-508.14 830.19,-698.17 872.79,-750.33 883.41,-763.33 897.21,-773.07 912.37,-780.35"/>
<polygon fill="black" stroke="black" points="910.56,-783.38 921.13,-784.18 913.37,-776.96 910.56,-783.38"/>
</g>
<!-- RFC3486 -->
<g id="node8" class="node">
<title>RFC3486</title>
<g id="a_node8"><a xlink:href="RFC3486.html" xlink:title="This document describes a mechanism to signal that compression is desired for one or more Session Initiation Protocol (SIP) messages. &#160;It also states when it is appropriate to send compressed SIP messages to a SIP entity. [STANDARDS&#45;TRACK]" target="_top">
<ellipse fill="none" stroke="black" cx="1045.32" cy="-689.33" rx="146.02" ry="52.33"/>
<text xml:space="preserve" text-anchor="middle" x="1045.32" y="-709.03" font-family="Times,serif" font-size="14.00">RFC3486</text>
<text xml:space="preserve" text-anchor="middle" x="1045.32" y="-692.53" font-family="Times,serif" font-size="14.00">Compressing the Session Initiation</text>
<text xml:space="preserve" text-anchor="middle" x="1045.32" y="-676.03" font-family="Times,serif" font-size="14.00">Protocol (SIP)</text>
<text xml:space="preserve" text-anchor="middle" x="1045.32" y="-659.53" font-family="Times,serif" font-size="14.00">2003</text>
</a>
</g>
</g>
<!-- cites&#45;&gt;RFC3486 -->
<g id="edge7" class="edge">
<title>cites&#45;&gt;RFC3486</title>
<path fill="none" stroke="black" d="M841.47,-439.77C843.91,-442.4 846.09,-445.27 847.79,-448.33 886.86,-519.01 821.78,-565.7 872.79,-628.33 882.58,-640.35 894.93,-650.01 908.49,-657.77"/>
<polygon fill="black" stroke="black" points="906.74,-660.8 917.22,-662.38 910.01,-654.61 906.74,-660.8"/>
</g>
<!-- RFC3608 -->
<g id="node9" class="node">
<title>RFC3608</title>
<g id="a_node9"><a xlink:href="RFC3608.html" xlink:title="This document defines a Session Initiation Protocol (SIP) extension header field used in conjunction with responses to REGISTER requests to provide a mechanism by which a registrar may inform a registering user agent (UA) of a service route that the UA may use to request outbound services from the registrar&#39;s domain." target="_top">
<ellipse fill="none" stroke="black" cx="1045.32" cy="-555.33" rx="172.53" ry="63.99"/>
<text xml:space="preserve" text-anchor="middle" x="1045.32" y="-583.28" font-family="Times,serif" font-size="14.00">RFC3608</text>
<text xml:space="preserve" text-anchor="middle" x="1045.32" y="-566.78" font-family="Times,serif" font-size="14.00">Session Initiation Protocol (SIP)</text>
<text xml:space="preserve" text-anchor="middle" x="1045.32" y="-550.28" font-family="Times,serif" font-size="14.00">Extension Header Field for Service Route</text>
<text xml:space="preserve" text-anchor="middle" x="1045.32" y="-533.78" font-family="Times,serif" font-size="14.00">Discovery During Registration</text>
<text xml:space="preserve" text-anchor="middle" x="1045.32" y="-517.28" font-family="Times,serif" font-size="14.00">2003</text>
</a>
</g>
</g>
<!-- cites&#45;&gt;RFC3608 -->
<g id="edge8" class="edge">
<title>cites&#45;&gt;RFC3608</title>
<path fill="none" stroke="black" d="M838.74,-439.56C841.89,-442.38 845,-445.35 847.79,-448.33 860.61,-462.01 858.08,-470.68 872.79,-482.33 883.91,-491.13 896.25,-499.06 909.07,-506.15"/>
<polygon fill="black" stroke="black" points="907.14,-509.09 917.61,-510.71 910.43,-502.92 907.14,-509.09"/>
</g>
<!-- RFC2119 -->
<g id="node10" class="node">
<title>RFC2119</title>
<g id="a_node10"><a xlink:href="RFC2119.html" xlink:title="In many standards track documents several words are used to signify the requirements in the specification. &#160;These words are often capitalized. &#160;This document defines these words as they should be interpreted in IETF documents. &#160;This document specifies an Internet Best Current Practices for the Internet Community, and requests discussion and suggestions for improvements." target="_top">
<ellipse fill="none" stroke="black" cx="1045.32" cy="-421.33" rx="160.34" ry="52.33"/>
<text xml:space="preserve" text-anchor="middle" x="1045.32" y="-441.03" font-family="Times,serif" font-size="14.00">RFC2119</text>
<text xml:space="preserve" text-anchor="middle" x="1045.32" y="-424.53" font-family="Times,serif" font-size="14.00">Key words for use in RFCs to Indicate</text>
<text xml:space="preserve" text-anchor="middle" x="1045.32" y="-408.03" font-family="Times,serif" font-size="14.00">Requirement Levels</text>
<text xml:space="preserve" text-anchor="middle" x="1045.32" y="-391.53" font-family="Times,serif" font-size="14.00">1997</text>
</a>
</g>
</g>
<!-- cites&#45;&gt;RFC2119 -->
<g id="edge9" class="edge">
<title>cites&#45;&gt;RFC2119</title>
<path fill="none" stroke="black" d="M841.89,-421.33C850.87,-421.33 861.69,-421.33 873.6,-421.33"/>
<polygon fill="black" stroke="black" points="873.31,-424.83 883.31,-421.33 873.31,-417.83 873.31,-424.83"/>
</g>
<!-- RFC5630 -->
<g id="node11" class="node">
<title>RFC5630</title>
<g id="a_node11"><a xlink:href="RFC5630.html" xlink:title="This document provides clarifications and guidelines concerning the use of the SIPS URI scheme in the Session Initiation Protocol (SIP). &#160;It also makes normative changes to SIP. [STANDARDS&#45;TRACK]" target="_top">
<ellipse fill="none" stroke="black" cx="1045.32" cy="-298.33" rx="167.23" ry="52.33"/>
<text xml:space="preserve" text-anchor="middle" x="1045.32" y="-318.03" font-family="Times,serif" font-size="14.00">RFC5630</text>
<text xml:space="preserve" text-anchor="middle" x="1045.32" y="-301.53" font-family="Times,serif" font-size="14.00">The Use of the SIPS URI Scheme in the</text>
<text xml:space="preserve" text-anchor="middle" x="1045.32" y="-285.03" font-family="Times,serif" font-size="14.00">Session Initiation Protocol (SIP)</text>
<text xml:space="preserve" text-anchor="middle" x="1045.32" y="-268.53" font-family="Times,serif" font-size="14.00">2009</text>
</a>
</g>
</g>
<!-- cites&#45;&gt;RFC5630 -->
<g id="edge10" class="edge">
<title>cites&#45;&gt;RFC5630</title>
<path fill="none" stroke="black" d="M829.1,-402.83C839.66,-389.44 855.46,-371.74 872.79,-360.33 885.13,-352.2 898.67,-344.97 912.57,-338.59"/>
<polygon fill="black" stroke="black" points="913.62,-341.95 921.35,-334.7 910.79,-335.55 913.62,-341.95"/>
</g>
<!-- RFC3263 -->
<g id="node12" class="node">
<title>RFC3263</title>
<g id="a_node12"><a xlink:href="RFC3263.html" xlink:title="The Session Initiation Protocol (SIP) uses DNS procedures to allow a client to resolve a SIP Uniform Resource Identifier (URI) into the IP address, port, and transport protocol of the next hop to contact. &#160;It also uses DNS to allow a server to send a response to a backup client if the primary client has failed. &#160;This document describes those DNS procedures in detail. [STANDARDS&#45;TRACK]" target="_top">
<ellipse fill="none" stroke="black" cx="1045.32" cy="-175.33" rx="138.59" ry="52.33"/>
<text xml:space="preserve" text-anchor="middle" x="1045.32" y="-195.03" font-family="Times,serif" font-size="14.00">RFC3263</text>
<text xml:space="preserve" text-anchor="middle" x="1045.32" y="-178.53" font-family="Times,serif" font-size="14.00">Session Initiation Protocol (SIP):</text>
<text xml:space="preserve" text-anchor="middle" x="1045.32" y="-162.03" font-family="Times,serif" font-size="14.00">Locating SIP Servers</text>
<text xml:space="preserve" text-anchor="middle" x="1045.32" y="-145.53" font-family="Times,serif" font-size="14.00">2002</text>
</a>
</g>
</g>
<!-- cites&#45;&gt;RFC3263 -->
<g id="edge11" class="edge">
<title>cites&#45;&gt;RFC3263</title>
<path fill="none" stroke="black" d="M816.17,-403C818.17,-366.56 827.73,-284.49 872.79,-237.33 884.83,-224.72 899.63,-214.66 915.44,-206.65"/>
<polygon fill="black" stroke="black" points="916.51,-210.02 924.04,-202.57 913.5,-203.7 916.51,-210.02"/>
</g>
<!-- RFC3323 -->
<g id="node13" class="node">
<title>RFC3323</title>
<g id="a_node13"><a xlink:href="RFC3323.html" xlink:title="None" target="_top">
<ellipse fill="none" stroke="black" cx="1045.32" cy="-52.33" rx="157.68" ry="52.33"/>
<text xml:space="preserve" text-anchor="middle" x="1045.32" y="-72.03" font-family="Times,serif" font-size="14.00">RFC3323</text>
<text xml:space="preserve" text-anchor="middle" x="1045.32" y="-55.53" font-family="Times,serif" font-size="14.00">A Privacy Mechanism for the Session</text>
<text xml:space="preserve" text-anchor="middle" x="1045.32" y="-39.03" font-family="Times,serif" font-size="14.00">Initiation Protocol (SIP)</text>
<text xml:space="preserve" text-anchor="middle" x="1045.32" y="-22.53" font-family="Times,serif" font-size="14.00">2002</text>
</a>
</g>
</g>
<!-- cites&#45;&gt;RFC3323 -->
<g id="edge12" class="edge">
<title>cites&#45;&gt;RFC3323</title>
<path fill="none" stroke="black" d="M816.71,-403.23C820.48,-344.23 835.15,-158.65 872.79,-114.33 881.84,-103.66 892.88,-94.83 904.95,-87.52"/>
<polygon fill="black" stroke="black" points="906.51,-90.66 913.51,-82.71 903.08,-84.55 906.51,-90.66"/>
</g>
<!-- rev_cites -->
<g id="node14" class="node">
<title>rev_cites</title>
<polygon fill="none" stroke="black" points="402.62,-439.33 348.62,-439.33 348.62,-403.33 402.62,-403.33 402.62,-439.33"/>
<text xml:space="preserve" text-anchor="middle" x="375.62" y="-416.28" font-family="Times,serif" font-size="14.00">cites</text>
</g>
<!-- rev_cites&#45;&gt;RFC5658 -->
<g id="edge13" class="edge">
<title>rev_cites&#45;&gt;RFC5658</title>
<path fill="none" stroke="black" d="M402.85,-427.84C416.77,-431.3 435.07,-435.84 454.83,-440.74"/>
<polygon fill="black" stroke="black" points="453.92,-444.12 464.47,-443.14 455.61,-437.33 453.92,-444.12"/>
</g>
<!-- RFC9248 -->
<g id="node15" class="node">
<title>RFC9248</title>
<g id="a_node15"><a xlink:href="RFC9248.html" xlink:title="Video Relay Service (VRS) is a term used to describe a method by which a hearing person can communicate with a sign language speaker who is deaf, deafblind, or hard of hearing (HoH) or has a speech disability using an interpreter (i.e., a Communications Assistant (CA)) connected via a videophone to the sign language speaker and an audio telephone call to the hearing user. &#160;The CA interprets using sign language on the videophone link and voice on the telephone link. &#160;Often the interpreters may be employed by a company or agency, termed a provider in this document. &#160;The provider also provides a video service that allows users to connect video devices to their service and subsequently to CAs and other sign language speakers. &#160;It is desirable that the videophones used by the sign language speaker conform to a standard so that any device may be used with any provider and that direct video calls between sign language speakers work. &#160;This document describes the interface between a videophone and a provider." target="_top">
<ellipse fill="none" stroke="black" cx="158.75" cy="-421.33" rx="158.75" ry="52.33"/>
<text xml:space="preserve" text-anchor="middle" x="158.75" y="-441.03" font-family="Times,serif" font-size="14.00">RFC9248</text>
<text xml:space="preserve" text-anchor="middle" x="158.75" y="-424.53" font-family="Times,serif" font-size="14.00">Interoperability Profile for Relay User</text>
<text xml:space="preserve" text-anchor="middle" x="158.75" y="-408.03" font-family="Times,serif" font-size="14.00">Equipment</text>
<text xml:space="preserve" text-anchor="middle" x="158.75" y="-391.53" font-family="Times,serif" font-size="14.00">2022</text>
</a>
</g>
</g>
<!-- RFC9248&#45;&gt;rev_cites -->
<g id="edge14" class="edge">
<title>RFC9248&#45;&gt;rev_cites</title>
<path fill="none" stroke="black" d="M317.88,-421.33C324.63,-421.33 331.04,-421.33 336.95,-421.33"/>
<polygon fill="black" stroke="black" points="336.82,-424.83 346.82,-421.33 336.82,-417.83 336.82,-424.83"/>
</g>
</g>
</svg>
