<?xml version="1.0" encoding="UTF-8" standalone="no"?>
<!DOCTYPE svg PUBLIC "-//W3C//DTD SVG 1.1//EN"
 "http://www.w3.org/Graphics/SVG/1.1/DTD/svg11.dtd">
<!-- Generated by graphviz version 14.1.1 (20251213.1925)
 -->
<!-- Title: Flow Pages: 1 -->
<svg width="855pt" height="504pt"
 viewBox="0.00 0.00 855.00 504.00" xmlns="http://www.w3.org/2000/svg" xmlns:xlink="http://www.w3.org/1999/xlink">
<g id="graph0" class="graph" transform="scale(1 1) rotate(0) translate(4 500.32)">
<title>Flow</title>
<polygon fill="white" stroke="none" points="-4,4 -4,-500.32 850.72,-500.32 850.72,4 -4,4"/>
<!-- RFC5877 -->
<g id="node1" class="node">
<title>RFC5877</title>
<g id="a_node1"><a xlink:title="This document specifies a MIME media type used to carry a single attribute certificate as defined in RFC 5755. &#160;This document is not an Internet Standards Track specification; it is published for informational purposes.">
<ellipse fill="green" stroke="black" cx="243.1" cy="-312.99" rx="151.85" ry="52.33"/>
<text xml:space="preserve" text-anchor="middle" x="243.1" y="-332.69" font-family="Times,serif" font-size="14.00">RFC5877</text>
<text xml:space="preserve" text-anchor="middle" x="243.1" y="-316.19" font-family="Times,serif" font-size="14.00">The application/pkix&#45;attr&#45;cert Media</text>
<text xml:space="preserve" text-anchor="middle" x="243.1" y="-299.69" font-family="Times,serif" font-size="14.00">Type for Attribute Certificates</text>
<text xml:space="preserve" text-anchor="middle" x="243.1" y="-283.19" font-family="Times,serif" font-size="14.00">2010</text>
</a>
</g>
</g>
<!-- obs -->
<g id="node3" class="node">
<title>obs</title>
<polygon fill="lightblue" stroke="black" points="486.2,-384.99 419.95,-384.99 419.95,-348.99 486.2,-348.99 486.2,-384.99"/>
<text xml:space="preserve" text-anchor="middle" x="453.08" y="-361.94" font-family="Times,serif" font-size="14.00">obsoletes</text>
</g>
<!-- RFC5877&#45;&gt;obs -->
<g id="edge2" class="edge">
<title>RFC5877&#45;&gt;obs</title>
<path fill="none" stroke="black" d="M365.38,-344.48C380.82,-348.49 395.74,-352.37 408.72,-355.74"/>
<polygon fill="black" stroke="black" points="407.57,-359.05 418.13,-358.18 409.33,-352.28 407.57,-359.05"/>
</g>
<!-- updates -->
<g id="node4" class="node">
<title>updates</title>
<polygon fill="lightyellow" stroke="black" points="481.7,-330.99 424.45,-330.99 424.45,-294.99 481.7,-294.99 481.7,-330.99"/>
<text xml:space="preserve" text-anchor="middle" x="453.08" y="-307.94" font-family="Times,serif" font-size="14.00">updates</text>
</g>
<!-- RFC5877&#45;&gt;updates -->
<g id="edge3" class="edge">
<title>RFC5877&#45;&gt;updates</title>
<path fill="none" stroke="black" d="M395.25,-312.99C401.44,-312.99 407.35,-312.99 412.85,-312.99"/>
<polygon fill="black" stroke="black" points="412.7,-316.49 422.7,-312.99 412.7,-309.49 412.7,-316.49"/>
</g>
<!-- cites -->
<g id="node6" class="node">
<title>cites</title>
<polygon fill="lightblue" stroke="black" points="480.08,-276.99 426.08,-276.99 426.08,-240.99 480.08,-240.99 480.08,-276.99"/>
<text xml:space="preserve" text-anchor="middle" x="453.08" y="-253.94" font-family="Times,serif" font-size="14.00">cites</text>
</g>
<!-- RFC5877&#45;&gt;cites -->
<g id="edge5" class="edge">
<title>RFC5877&#45;&gt;cites</title>
<path fill="none" stroke="black" d="M365.38,-281.5C383.39,-276.83 400.68,-272.34 415.02,-268.62"/>
<polygon fill="black" stroke="black" points="415.58,-272.09 424.38,-266.19 413.82,-265.31 415.58,-272.09"/>
</g>
<!-- obs_by -->
<g id="node2" class="node">
<title>obs_by</title>
<polygon fill="lightblue" stroke="black" points="66.25,-384.99 0,-384.99 0,-348.99 66.25,-348.99 66.25,-384.99"/>
<text xml:space="preserve" text-anchor="middle" x="33.12" y="-361.94" font-family="Times,serif" font-size="14.00">obsoletes</text>
</g>
<!-- obs_by&#45;&gt;RFC5877 -->
<g id="edge1" class="edge">
<title>obs_by&#45;&gt;RFC5877</title>
<path fill="none" stroke="black" d="M66.62,-358.56C79.09,-355.32 94.21,-351.39 110.28,-347.22"/>
<polygon fill="black" stroke="black" points="110.71,-350.73 119.51,-344.82 108.95,-343.95 110.71,-350.73"/>
</g>
<!-- updated_by -->
<g id="node5" class="node">
<title>updated_by</title>
<polygon fill="lightyellow" stroke="black" points="61.75,-330.99 4.5,-330.99 4.5,-294.99 61.75,-294.99 61.75,-330.99"/>
<text xml:space="preserve" text-anchor="middle" x="33.12" y="-307.94" font-family="Times,serif" font-size="14.00">updates</text>
</g>
<!-- updated_by&#45;&gt;RFC5877 -->
<g id="edge4" class="edge">
<title>updated_by&#45;&gt;RFC5877</title>
<path fill="none" stroke="black" d="M62.17,-312.99C67.37,-312.99 73.12,-312.99 79.29,-312.99"/>
<polygon fill="black" stroke="black" points="79.29,-316.49 89.29,-312.99 79.29,-309.49 79.29,-316.49"/>
</g>
<!-- RFC2585 -->
<g id="node7" class="node">
<title>RFC2585</title>
<g id="a_node7"><a xlink:href="RFC2585.html" xlink:title="The protocol conventions described in this document satisfy some of the operational requirements of the Internet Public Key Infrastructure (PKI). &#160;This document specifies the conventions for using the File Transfer Protocol (FTP) and the Hypertext Transfer Protocol (HTTP) to obtain certificates and certificate revocation lists (CRLs) from PKI repositories. [STANDARDS&#45;TRACK]" target="_top">
<ellipse fill="none" stroke="black" cx="678.96" cy="-443.99" rx="167.76" ry="52.33"/>
<text xml:space="preserve" text-anchor="middle" x="678.96" y="-463.69" font-family="Times,serif" font-size="14.00">RFC2585</text>
<text xml:space="preserve" text-anchor="middle" x="678.96" y="-447.19" font-family="Times,serif" font-size="14.00">Internet X.509 Public Key Infrastructure</text>
<text xml:space="preserve" text-anchor="middle" x="678.96" y="-430.69" font-family="Times,serif" font-size="14.00">Operational Protocols: FTP and HTTP</text>
<text xml:space="preserve" text-anchor="middle" x="678.96" y="-414.19" font-family="Times,serif" font-size="14.00">1999</text>
</a>
</g>
</g>
<!-- cites&#45;&gt;RFC2585 -->
<g id="edge6" class="edge">
<title>cites&#45;&gt;RFC2585</title>
<path fill="none" stroke="black" d="M479.23,-277.32C481.85,-280.01 484.26,-282.91 486.2,-285.99 509.75,-323.27 481.64,-349.28 511.2,-381.99 519.29,-390.94 528.79,-398.6 539.08,-405.16"/>
<polygon fill="black" stroke="black" points="537.05,-408.03 547.44,-410.11 540.61,-402 537.05,-408.03"/>
</g>
<!-- RFC5755 -->
<g id="node8" class="node">
<title>RFC5755</title>
<g id="a_node8"><a xlink:href="RFC5755.html" xlink:title="This specification defines a profile for the use of X.509 Attribute Certificates in Internet Protocols. &#160;Attribute certificates may be used in a wide range of applications and environments covering a broad spectrum of interoperability goals and a broader spectrum of operational and assurance requirements. &#160;The goal of this document is to establish a common baseline for generic applications requiring broad interoperability as well as limited special purpose requirements. &#160;The profile places emphasis on attribute certificate support for Internet electronic mail, IPsec, and WWW security applications. &#160;This document obsoletes RFC 3281. [STANDARDS&#45;TRACK]" target="_top">
<ellipse fill="none" stroke="black" cx="678.96" cy="-320.99" rx="134.88" ry="52.33"/>
<text xml:space="preserve" text-anchor="middle" x="678.96" y="-340.69" font-family="Times,serif" font-size="14.00">RFC5755</text>
<text xml:space="preserve" text-anchor="middle" x="678.96" y="-324.19" font-family="Times,serif" font-size="14.00">An Internet Attribute Certificate</text>
<text xml:space="preserve" text-anchor="middle" x="678.96" y="-307.69" font-family="Times,serif" font-size="14.00">Profile for Authorization</text>
<text xml:space="preserve" text-anchor="middle" x="678.96" y="-291.19" font-family="Times,serif" font-size="14.00">2010</text>
</a>
</g>
</g>
<!-- cites&#45;&gt;RFC5755 -->
<g id="edge7" class="edge">
<title>cites&#45;&gt;RFC5755</title>
<path fill="none" stroke="black" d="M480.2,-266.23C499.87,-271.67 528.38,-279.57 557.66,-287.68"/>
<polygon fill="black" stroke="black" points="556.44,-290.97 567.01,-290.27 558.31,-284.23 556.44,-290.97"/>
</g>
<!-- RFC4288 -->
<g id="node9" class="node">
<title>RFC4288</title>
<g id="a_node9"><a xlink:href="RFC4288.html" xlink:title="This document defines procedures for the specification and registration of media types for use in MIME and other Internet protocols. &#160;This document specifies an Internet Best Current Practices for the Internet Community, and requests discussion and suggestions for improvements." target="_top">
<ellipse fill="none" stroke="black" cx="678.96" cy="-197.99" rx="131.17" ry="52.33"/>
<text xml:space="preserve" text-anchor="middle" x="678.96" y="-217.69" font-family="Times,serif" font-size="14.00">RFC4288</text>
<text xml:space="preserve" text-anchor="middle" x="678.96" y="-201.19" font-family="Times,serif" font-size="14.00">Media Type Specifications and</text>
<text xml:space="preserve" text-anchor="middle" x="678.96" y="-184.69" font-family="Times,serif" font-size="14.00">Registration Procedures</text>
<text xml:space="preserve" text-anchor="middle" x="678.96" y="-168.19" font-family="Times,serif" font-size="14.00">2005</text>
</a>
</g>
</g>
<!-- cites&#45;&gt;RFC4288 -->
<g id="edge8" class="edge">
<title>cites&#45;&gt;RFC4288</title>
<path fill="none" stroke="black" d="M480.2,-251.88C500.13,-246.45 529.13,-238.54 558.81,-230.46"/>
<polygon fill="black" stroke="black" points="559.57,-233.88 568.3,-227.87 557.73,-227.12 559.57,-233.88"/>
</g>
<!-- RFC5280 -->
<g id="node10" class="node">
<title>RFC5280</title>
<g id="a_node10"><a xlink:href="RFC5280.html" xlink:title="This memo profiles the X.509 v3 certificate and X.509 v2 certificate revocation list (CRL) for use in the Internet. &#160;An overview of this approach and model is provided as an introduction. &#160;The X.509 v3 certificate format is described in detail, with additional information regarding the format and semantics of Internet name forms. &#160;Standard certificate extensions are described and two Internet&#45;specific extensions are defined. &#160;A set of required certificate extensions is specified. &#160;The X.509 v2 CRL format is described in detail along with standard and Internet&#45;specific extensions. &#160;An algorithm for X.509 certification path validation is described. &#160;An ASN.1 module and examples are provided in the appendices. [STANDARDS&#45;TRACK]" target="_top">
<ellipse fill="none" stroke="black" cx="678.96" cy="-63.99" rx="167.76" ry="63.99"/>
<text xml:space="preserve" text-anchor="middle" x="678.96" y="-91.94" font-family="Times,serif" font-size="14.00">RFC5280</text>
<text xml:space="preserve" text-anchor="middle" x="678.96" y="-75.44" font-family="Times,serif" font-size="14.00">Internet X.509 Public Key Infrastructure</text>
<text xml:space="preserve" text-anchor="middle" x="678.96" y="-58.94" font-family="Times,serif" font-size="14.00">Certificate and Certificate Revocation</text>
<text xml:space="preserve" text-anchor="middle" x="678.96" y="-42.44" font-family="Times,serif" font-size="14.00">List (CRL) Profile</text>
<text xml:space="preserve" text-anchor="middle" x="678.96" y="-25.94" font-family="Times,serif" font-size="14.00">2008</text>
</a>
</g>
</g>
<!-- cites&#45;&gt;RFC5280 -->
<g id="edge9" class="edge">
<title>cites&#45;&gt;RFC5280</title>
<path fill="none" stroke="black" d="M458.22,-240.89C465.06,-214.76 481.06,-166.38 511.2,-136.99 520.66,-127.77 531.48,-119.62 542.95,-112.42"/>
<polygon fill="black" stroke="black" points="544.63,-115.5 551.43,-107.38 541.05,-109.48 544.63,-115.5"/>
</g>
<!-- rev_cites -->
<g id="node11" class="node">
<title>rev_cites</title>
<polygon fill="lightblue" stroke="black" points="60.12,-276.99 6.12,-276.99 6.12,-240.99 60.12,-240.99 60.12,-276.99"/>
<text xml:space="preserve" text-anchor="middle" x="33.12" y="-253.94" font-family="Times,serif" font-size="14.00">cites</text>
</g>
<!-- rev_cites&#45;&gt;RFC5877 -->
<g id="edge10" class="edge">
<title>rev_cites&#45;&gt;RFC5877</title>
<path fill="none" stroke="black" d="M60.47,-265.83C73.81,-269.3 91.11,-273.79 109.72,-278.62"/>
<polygon fill="black" stroke="black" points="108.79,-282 119.35,-281.12 110.55,-275.22 108.79,-282"/>
</g>
</g>
</svg>
