<?xml version="1.0" encoding="UTF-8" standalone="no"?>
<!DOCTYPE svg PUBLIC "-//W3C//DTD SVG 1.1//EN"
 "http://www.w3.org/Graphics/SVG/1.1/DTD/svg11.dtd">
<!-- Generated by graphviz version 14.1.1 (20251213.1925)
 -->
<!-- Title: Flow Pages: 1 -->
<svg width="1403pt" height="1270pt"
 viewBox="0.00 0.00 1403.00 1270.00" xmlns="http://www.w3.org/2000/svg" xmlns:xlink="http://www.w3.org/1999/xlink">
<g id="graph0" class="graph" transform="scale(1 1) rotate(0) translate(4 1266.26)">
<title>Flow</title>
<polygon fill="white" stroke="none" points="-4,4 -4,-1266.26 1399.31,-1266.26 1399.31,4 -4,4"/>
<!-- RFC5032 -->
<g id="node1" class="node">
<title>RFC5032</title>
<g id="a_node1"><a xlink:title="This document describes the WITHIN extension to IMAP SEARCH. &#160;IMAP SEARCH returns messages whose internal date is within or outside a specified interval. &#160;The mechanism described here, OLDER and YOUNGER, differs from BEFORE and SINCE in that the client specifies an interval, rather than a date. &#160;WITHIN is useful for persistent searches where either the device does not have the capacity to perform the search at regular intervals or the network is of limited bandwidth and thus there is a desire to reduce network traffic from sending repeated requests and redundant responses. [STANDARDS&#45;TRACK]">
<ellipse fill="green" stroke="black" stroke-width="3" cx="995.01" cy="-415.31" rx="217.61" ry="65.05"/>
<text xml:space="preserve" text-anchor="middle" x="995.01" y="-440.21" font-family="Times,serif" font-size="18.00">RFC5032</text>
<text xml:space="preserve" text-anchor="middle" x="995.01" y="-419.21" font-family="Times,serif" font-size="18.00">WITHIN Search Extension to the IMAP</text>
<text xml:space="preserve" text-anchor="middle" x="995.01" y="-398.21" font-family="Times,serif" font-size="18.00">Protocol</text>
<text xml:space="preserve" text-anchor="middle" x="995.01" y="-377.21" font-family="Times,serif" font-size="18.00">2007</text>
</a>
</g>
</g>
<!-- obs -->
<g id="node3" class="node">
<title>obs</title>
<polygon fill="lightblue" stroke="black" points="1395.31,-610.13 1329.06,-610.13 1329.06,-574.13 1395.31,-574.13 1395.31,-610.13"/>
<text xml:space="preserve" text-anchor="middle" x="1362.18" y="-587.08" font-family="Times,serif" font-size="14.00">obsoletes</text>
</g>
<!-- RFC5032&#45;&gt;obs -->
<g id="edge2" class="edge">
<title>RFC5032&#45;&gt;obs</title>
<path fill="none" stroke="black" d="M1111.69,-471.5C1182.07,-505.39 1267.65,-546.6 1318.37,-571.03"/>
<polygon fill="black" stroke="black" points="1316.75,-574.13 1327.28,-575.32 1319.79,-567.83 1316.75,-574.13"/>
</g>
<!-- updates -->
<g id="node4" class="node">
<title>updates</title>
<polygon fill="lightyellow" stroke="black" points="1114.32,-830.62 1057.07,-830.62 1057.07,-794.62 1114.32,-794.62 1114.32,-830.62"/>
<text xml:space="preserve" text-anchor="middle" x="1085.7" y="-807.57" font-family="Times,serif" font-size="14.00">updates</text>
</g>
<!-- RFC5032&#45;&gt;updates -->
<g id="edge3" class="edge">
<title>RFC5032&#45;&gt;updates</title>
<path fill="none" stroke="black" d="M1010.09,-481.36C1030.06,-568.84 1064.43,-719.46 1078.93,-782.99"/>
<polygon fill="black" stroke="black" points="1075.51,-783.7 1081.14,-792.67 1082.33,-782.14 1075.51,-783.7"/>
</g>
<!-- cites -->
<g id="node7" class="node">
<title>cites</title>
<polygon fill="lightblue" stroke="black" points="654.84,-610.13 600.84,-610.13 600.84,-574.13 654.84,-574.13 654.84,-610.13"/>
<text xml:space="preserve" text-anchor="middle" x="627.84" y="-587.08" font-family="Times,serif" font-size="14.00">cites</text>
</g>
<!-- RFC5032&#45;&gt;cites -->
<g id="edge6" class="edge">
<title>RFC5032&#45;&gt;cites</title>
<path fill="none" stroke="black" d="M878.33,-471.5C804.97,-506.83 715.1,-550.11 665.4,-574.04"/>
<polygon fill="black" stroke="black" points="663.99,-570.84 656.5,-578.33 667.03,-577.14 663.99,-570.84"/>
</g>
<!-- obs_by -->
<g id="node2" class="node">
<title>obs_by</title>
<polygon fill="lightblue" stroke="black" points="774.05,-114.69 707.8,-114.69 707.8,-78.69 774.05,-78.69 774.05,-114.69"/>
<text xml:space="preserve" text-anchor="middle" x="740.92" y="-91.64" font-family="Times,serif" font-size="14.00">obsoletes</text>
</g>
<!-- obs_by&#45;&gt;RFC5032 -->
<g id="edge1" class="edge">
<title>obs_by&#45;&gt;RFC5032</title>
<path fill="none" stroke="black" d="M755.31,-114.74C789.51,-157.62 877.23,-267.61 936.51,-341.95"/>
<polygon fill="black" stroke="black" points="933.68,-344.02 942.65,-349.65 939.15,-339.65 933.68,-344.02"/>
</g>
<!-- RFC3501 -->
<g id="node5" class="node">
<title>RFC3501</title>
<g id="a_node5"><a xlink:href="RFC3501.html" xlink:title="The Internet Message Access Protocol, Version 4rev1 (IMAP4rev1) allows a client to access and manipulate electronic mail messages on a server. &#160;IMAP4rev1 permits manipulation of mailboxes (remote message folders) in a way that is functionally equivalent to local folders. &#160;IMAP4rev1 also provides the capability for an offline client to resynchronize with the server. &#160;IMAP4rev1 includes operations for creating, deleting, and renaming mailboxes, checking for new messages, permanently removing messages, setting and clearing flags, RFC 2822 and RFC 2045 parsing, searching, and selective fetching of message attributes, texts, and portions thereof. &#160;Messages in IMAP4rev1 are accessed by the use of numbers. &#160;These numbers are either message sequence numbers or unique identifiers. &#160;IMAP4rev1 supports a single server. &#160;A mechanism for accessing configuration information to support multiple IMAP4rev1 servers is discussed in RFC 2244. &#160;IMAP4rev1 does not specify a means of posting mail; this function is handled by a mail transfer protocol such as RFC 2821. [STANDARDS&#45;TRACK]" target="_top">
<ellipse fill="none" stroke="black" cx="1176.38" cy="-1209.93" rx="201.7" ry="52.33"/>
<text xml:space="preserve" text-anchor="middle" x="1176.38" y="-1229.63" font-family="Times,serif" font-size="14.00">RFC3501</text>
<text xml:space="preserve" text-anchor="middle" x="1176.38" y="-1213.13" font-family="Times,serif" font-size="14.00">INTERNET MESSAGE ACCESS PROTOCOL &#45;</text>
<text xml:space="preserve" text-anchor="middle" x="1176.38" y="-1196.63" font-family="Times,serif" font-size="14.00">VERSION 4rev1</text>
<text xml:space="preserve" text-anchor="middle" x="1176.38" y="-1180.13" font-family="Times,serif" font-size="14.00">2003</text>
</a>
</g>
</g>
<!-- updates&#45;&gt;RFC3501 -->
<g id="edge4" class="edge">
<title>updates&#45;&gt;RFC3501</title>
<path fill="none" stroke="black" d="M1089.89,-830.99C1102.53,-886.36 1140.7,-1053.58 1161.86,-1146.3"/>
<polygon fill="black" stroke="black" points="1158.44,-1147.06 1164.08,-1156.03 1165.26,-1145.5 1158.44,-1147.06"/>
</g>
<!-- updated_by -->
<g id="node6" class="node">
<title>updated_by</title>
<polygon fill="lightyellow" stroke="black" points="1114.32,-36 1057.07,-36 1057.07,0 1114.32,0 1114.32,-36"/>
<text xml:space="preserve" text-anchor="middle" x="1085.7" y="-12.95" font-family="Times,serif" font-size="14.00">updates</text>
</g>
<!-- updated_by&#45;&gt;RFC5032 -->
<g id="edge5" class="edge">
<title>updated_by&#45;&gt;RFC5032</title>
<path fill="none" stroke="black" d="M1081.5,-36.37C1069.46,-89.14 1034.23,-243.49 1012.63,-338.13"/>
<polygon fill="black" stroke="black" points="1009.28,-337.08 1010.47,-347.61 1016.1,-338.64 1009.28,-337.08"/>
</g>
<!-- cites&#45;&gt;RFC3501 -->
<g id="edge8" class="edge">
<title>cites&#45;&gt;RFC3501</title>
<path fill="none" stroke="black" d="M644.26,-610.62C716.02,-691.44 1003.9,-1015.68 1123.68,-1150.58"/>
<polygon fill="black" stroke="black" points="1120.72,-1152.51 1129.98,-1157.67 1125.96,-1147.87 1120.72,-1152.51"/>
</g>
<!-- RFC2119 -->
<g id="node8" class="node">
<title>RFC2119</title>
<g id="a_node8"><a xlink:href="RFC2119.html" xlink:title="In many standards track documents several words are used to signify the requirements in the specification. &#160;These words are often capitalized. &#160;This document defines these words as they should be interpreted in IETF documents. &#160;This document specifies an Internet Best Current Practices for the Internet Community, and requests discussion and suggestions for improvements." target="_top">
<ellipse fill="none" stroke="black" cx="486.84" cy="-1052.55" rx="160.34" ry="52.33"/>
<text xml:space="preserve" text-anchor="middle" x="486.84" y="-1072.25" font-family="Times,serif" font-size="14.00">RFC2119</text>
<text xml:space="preserve" text-anchor="middle" x="486.84" y="-1055.75" font-family="Times,serif" font-size="14.00">Key words for use in RFCs to Indicate</text>
<text xml:space="preserve" text-anchor="middle" x="486.84" y="-1039.25" font-family="Times,serif" font-size="14.00">Requirement Levels</text>
<text xml:space="preserve" text-anchor="middle" x="486.84" y="-1022.75" font-family="Times,serif" font-size="14.00">1997</text>
</a>
</g>
</g>
<!-- cites&#45;&gt;RFC2119 -->
<g id="edge7" class="edge">
<title>cites&#45;&gt;RFC2119</title>
<path fill="none" stroke="black" d="M622.23,-610.46C602.94,-673.46 538.75,-883.03 506.17,-989.42"/>
<polygon fill="black" stroke="black" points="502.86,-988.28 503.27,-998.87 509.55,-990.33 502.86,-988.28"/>
</g>
<!-- RFC4234 -->
<g id="node9" class="node">
<title>RFC4234</title>
<g id="a_node9"><a xlink:href="RFC4234.html" xlink:title="Internet technical specifications often need to define a formal syntax. &#160;Over the years, a modified version of Backus&#45;Naur Form (BNF), called Augmented BNF (ABNF), has been popular among many Internet specifications. &#160;The current specification documents ABNF. &#160;It balances compactness and simplicity, with reasonable representational power. &#160;The differences between standard BNF and ABNF involve naming rules, repetition, alternatives, order&#45;independence, and value ranges. &#160;This specification also supplies additional rule definitions and encoding for a core lexical analyzer of the type common to several Internet specifications. [STANDARDS&#45;TRACK]" target="_top">
<ellipse fill="none" stroke="black" cx="179.96" cy="-415.31" rx="179.96" ry="52.33"/>
<text xml:space="preserve" text-anchor="middle" x="179.96" y="-435.01" font-family="Times,serif" font-size="14.00">RFC4234</text>
<text xml:space="preserve" text-anchor="middle" x="179.96" y="-418.51" font-family="Times,serif" font-size="14.00">Augmented BNF for Syntax Specifications:</text>
<text xml:space="preserve" text-anchor="middle" x="179.96" y="-402.01" font-family="Times,serif" font-size="14.00">ABNF</text>
<text xml:space="preserve" text-anchor="middle" x="179.96" y="-385.51" font-family="Times,serif" font-size="14.00">2005</text>
</a>
</g>
</g>
<!-- cites&#45;&gt;RFC4234 -->
<g id="edge9" class="edge">
<title>cites&#45;&gt;RFC4234</title>
<path fill="none" stroke="black" d="M600.5,-581.33C541.74,-558.14 400.45,-502.36 297.81,-461.84"/>
<polygon fill="black" stroke="black" points="299.38,-458.69 288.79,-458.27 296.8,-465.2 299.38,-458.69"/>
</g>
<!-- rev_cites -->
<g id="node10" class="node">
<title>rev_cites</title>
<polygon fill="lightblue" stroke="black" points="1389.18,-256.49 1335.18,-256.49 1335.18,-220.49 1389.18,-220.49 1389.18,-256.49"/>
<text xml:space="preserve" text-anchor="middle" x="1362.18" y="-233.44" font-family="Times,serif" font-size="14.00">cites</text>
</g>
<!-- rev_cites&#45;&gt;RFC5032 -->
<g id="edge10" class="edge">
<title>rev_cites&#45;&gt;RFC5032</title>
<path fill="none" stroke="black" d="M1334.89,-251.64C1290.19,-273.16 1198.68,-317.23 1121.87,-354.22"/>
<polygon fill="black" stroke="black" points="1120.47,-351.01 1112.98,-358.5 1123.51,-357.31 1120.47,-351.01"/>
</g>
</g>
</svg>
