<?xml version="1.0" encoding="UTF-8" standalone="no"?>
<!DOCTYPE svg PUBLIC "-//W3C//DTD SVG 1.1//EN"
 "http://www.w3.org/Graphics/SVG/1.1/DTD/svg11.dtd">
<!-- Generated by graphviz version 14.1.1 (20251213.1925)
 -->
<!-- Title: Flow Pages: 1 -->
<svg width="918pt" height="504pt"
 viewBox="0.00 0.00 918.00 504.00" xmlns="http://www.w3.org/2000/svg" xmlns:xlink="http://www.w3.org/1999/xlink">
<g id="graph0" class="graph" transform="scale(1 1) rotate(0) translate(4 499.65)">
<title>Flow</title>
<polygon fill="white" stroke="none" points="-4,4 -4,-499.65 914.36,-499.65 914.36,4 -4,4"/>
<!-- RFC5106 -->
<g id="node1" class="node">
<title>RFC5106</title>
<g id="a_node1"><a xlink:title="This document specifies EAP&#45;IKEv2, an Extensible Authentication Protocol (EAP) method that is based on the Internet Key Exchange (IKEv2) protocol. &#160;EAP&#45;IKEv2 provides mutual authentication and session key establishment between an EAP peer and an EAP server. &#160;It supports authentication techniques that are based on passwords, high&#45;entropy shared keys, and public key certificates. &#160;EAP&#45;IKEv2 further provides support for cryptographic ciphersuite negotiation, hash function agility, identity confidentiality (in certain modes of operation), fragmentation, and an optional fast reconnect mode. &#160;This memo defines an Experimental Protocol for the Internet community.">
<ellipse fill="green" stroke="black" cx="646.05" cy="-296.33" rx="173.06" ry="63.99"/>
<text xml:space="preserve" text-anchor="middle" x="646.05" y="-324.28" font-family="Times,serif" font-size="14.00">RFC5106</text>
<text xml:space="preserve" text-anchor="middle" x="646.05" y="-307.78" font-family="Times,serif" font-size="14.00">The Extensible Authentication Protocol&#45;</text>
<text xml:space="preserve" text-anchor="middle" x="646.05" y="-291.28" font-family="Times,serif" font-size="14.00">Internet Key Exchange Protocol version 2</text>
<text xml:space="preserve" text-anchor="middle" x="646.05" y="-274.78" font-family="Times,serif" font-size="14.00">(EAP&#45;IKEv2) Method</text>
<text xml:space="preserve" text-anchor="middle" x="646.05" y="-258.28" font-family="Times,serif" font-size="14.00">2008</text>
</a>
</g>
</g>
<!-- obs -->
<g id="node3" class="node">
<title>obs</title>
<polygon fill="lightblue" stroke="black" points="910.36,-368.33 844.11,-368.33 844.11,-332.33 910.36,-332.33 910.36,-368.33"/>
<text xml:space="preserve" text-anchor="middle" x="877.24" y="-345.28" font-family="Times,serif" font-size="14.00">obsoletes</text>
</g>
<!-- RFC5106&#45;&gt;obs -->
<g id="edge2" class="edge">
<title>RFC5106&#45;&gt;obs</title>
<path fill="none" stroke="black" d="M792.85,-330.68C807.3,-334.08 821.03,-337.32 833.03,-340.15"/>
<polygon fill="black" stroke="black" points="831.96,-343.49 842.5,-342.38 833.57,-336.68 831.96,-343.49"/>
</g>
<!-- updates -->
<g id="node4" class="node">
<title>updates</title>
<polygon fill="lightyellow" stroke="black" points="905.86,-314.33 848.61,-314.33 848.61,-278.33 905.86,-278.33 905.86,-314.33"/>
<text xml:space="preserve" text-anchor="middle" x="877.24" y="-291.28" font-family="Times,serif" font-size="14.00">updates</text>
</g>
<!-- RFC5106&#45;&gt;updates -->
<g id="edge3" class="edge">
<title>RFC5106&#45;&gt;updates</title>
<path fill="none" stroke="black" d="M819.59,-296.33C825.76,-296.33 831.63,-296.33 837.1,-296.33"/>
<polygon fill="black" stroke="black" points="836.84,-299.83 846.84,-296.33 836.84,-292.83 836.84,-299.83"/>
</g>
<!-- cites -->
<g id="node6" class="node">
<title>cites</title>
<polygon fill="lightblue" stroke="black" points="904.24,-260.33 850.24,-260.33 850.24,-224.33 904.24,-224.33 904.24,-260.33"/>
<text xml:space="preserve" text-anchor="middle" x="877.24" y="-237.28" font-family="Times,serif" font-size="14.00">cites</text>
</g>
<!-- RFC5106&#45;&gt;cites -->
<g id="edge5" class="edge">
<title>RFC5106&#45;&gt;cites</title>
<path fill="none" stroke="black" d="M792.85,-261.97C809.78,-257.98 825.73,-254.23 839.06,-251.09"/>
<polygon fill="black" stroke="black" points="839.65,-254.54 848.58,-248.84 838.04,-247.73 839.65,-254.54"/>
</g>
<!-- obs_by -->
<g id="node2" class="node">
<title>obs_by</title>
<polygon fill="lightblue" stroke="black" points="447.99,-368.33 381.74,-368.33 381.74,-332.33 447.99,-332.33 447.99,-368.33"/>
<text xml:space="preserve" text-anchor="middle" x="414.86" y="-345.28" font-family="Times,serif" font-size="14.00">obsoletes</text>
</g>
<!-- obs_by&#45;&gt;RFC5106 -->
<g id="edge1" class="edge">
<title>obs_by&#45;&gt;RFC5106</title>
<path fill="none" stroke="black" d="M448.21,-342.7C459.73,-339.99 473.59,-336.72 488.56,-333.2"/>
<polygon fill="black" stroke="black" points="489.23,-336.64 498.16,-330.94 487.62,-329.82 489.23,-336.64"/>
</g>
<!-- updated_by -->
<g id="node5" class="node">
<title>updated_by</title>
<polygon fill="lightyellow" stroke="black" points="443.49,-314.33 386.24,-314.33 386.24,-278.33 443.49,-278.33 443.49,-314.33"/>
<text xml:space="preserve" text-anchor="middle" x="414.86" y="-291.28" font-family="Times,serif" font-size="14.00">updates</text>
</g>
<!-- updated_by&#45;&gt;RFC5106 -->
<g id="edge4" class="edge">
<title>updated_by&#45;&gt;RFC5106</title>
<path fill="none" stroke="black" d="M443.96,-296.33C449.32,-296.33 455.29,-296.33 461.71,-296.33"/>
<polygon fill="black" stroke="black" points="461.41,-299.83 471.41,-296.33 461.41,-292.83 461.41,-299.83"/>
</g>
<!-- rev_cites -->
<g id="node7" class="node">
<title>rev_cites</title>
<polygon fill="lightblue" stroke="black" points="441.86,-260.33 387.86,-260.33 387.86,-224.33 441.86,-224.33 441.86,-260.33"/>
<text xml:space="preserve" text-anchor="middle" x="414.86" y="-237.28" font-family="Times,serif" font-size="14.00">cites</text>
</g>
<!-- rev_cites&#45;&gt;RFC5106 -->
<g id="edge6" class="edge">
<title>rev_cites&#45;&gt;RFC5106</title>
<path fill="none" stroke="black" d="M442.15,-248.52C454.61,-251.46 470.61,-255.23 488.15,-259.36"/>
<polygon fill="black" stroke="black" points="487.24,-262.74 497.78,-261.63 488.85,-255.93 487.24,-262.74"/>
</g>
<!-- RFC5580 -->
<g id="node8" class="node">
<title>RFC5580</title>
<g id="a_node8"><a xlink:href="RFC5580.html" xlink:title="This document describes procedures for conveying access&#45;network ownership and location information based on civic and geospatial location formats in Remote Authentication Dial&#45;In User Service (RADIUS) and Diameter. The distribution of location information is a privacy&#45;sensitive task. Dealing with mechanisms to preserve the user&#39;s privacy is important and is addressed in this document. [STANDARDS&#45;TRACK]" target="_top">
<ellipse fill="none" stroke="black" cx="178.37" cy="-443.33" rx="178.37" ry="52.33"/>
<text xml:space="preserve" text-anchor="middle" x="178.37" y="-463.03" font-family="Times,serif" font-size="14.00">RFC5580</text>
<text xml:space="preserve" text-anchor="middle" x="178.37" y="-446.53" font-family="Times,serif" font-size="14.00">Carrying Location Objects in RADIUS and</text>
<text xml:space="preserve" text-anchor="middle" x="178.37" y="-430.03" font-family="Times,serif" font-size="14.00">Diameter</text>
<text xml:space="preserve" text-anchor="middle" x="178.37" y="-413.53" font-family="Times,serif" font-size="14.00">2009</text>
</a>
</g>
</g>
<!-- RFC5580&#45;&gt;rev_cites -->
<g id="edge7" class="edge">
<title>RFC5580&#45;&gt;rev_cites</title>
<path fill="none" stroke="black" d="M319.76,-411.05C333.59,-403.42 346.33,-393.99 356.74,-382.33 388.78,-346.42 359.42,-317.3 382.95,-270.51"/>
<polygon fill="black" stroke="black" points="385.94,-272.32 387.85,-261.9 379.86,-268.86 385.94,-272.32"/>
</g>
<!-- RFC6023 -->
<g id="node9" class="node">
<title>RFC6023</title>
<g id="a_node9"><a xlink:href="RFC6023.html" xlink:title="This document describes an extension to the Internet Key Exchange version 2 (IKEv2) protocol that allows an IKEv2 Security Association (SA) to be created and authenticated without generating a Child SA. &#160;This document is not an Internet Standards Track specification; it is published for examination, experimental implementation, and evaluation." target="_top">
<ellipse fill="none" stroke="black" cx="178.37" cy="-309.33" rx="175.19" ry="63.99"/>
<text xml:space="preserve" text-anchor="middle" x="178.37" y="-337.28" font-family="Times,serif" font-size="14.00">RFC6023</text>
<text xml:space="preserve" text-anchor="middle" x="178.37" y="-320.78" font-family="Times,serif" font-size="14.00">A Childless Initiation of the Internet</text>
<text xml:space="preserve" text-anchor="middle" x="178.37" y="-304.28" font-family="Times,serif" font-size="14.00">Key Exchange Version 2 (IKEv2) Security</text>
<text xml:space="preserve" text-anchor="middle" x="178.37" y="-287.78" font-family="Times,serif" font-size="14.00">Association (SA)</text>
<text xml:space="preserve" text-anchor="middle" x="178.37" y="-271.28" font-family="Times,serif" font-size="14.00">2010</text>
</a>
</g>
</g>
<!-- RFC6023&#45;&gt;rev_cites -->
<g id="edge8" class="edge">
<title>RFC6023&#45;&gt;rev_cites</title>
<path fill="none" stroke="black" d="M317.13,-269.96C339,-263.72 359.89,-257.75 376.62,-252.97"/>
<polygon fill="black" stroke="black" points="377.39,-256.39 386.04,-250.27 375.47,-249.66 377.39,-256.39"/>
</g>
<!-- RFC6071 -->
<g id="node10" class="node">
<title>RFC6071</title>
<g id="a_node10"><a xlink:href="RFC6071.html" xlink:title="Over the past few years, the number of RFCs that define and use IPsec and Internet Key Exchange (IKE) has greatly proliferated. This is complicated by the fact that these RFCs originate from numerous IETF working groups: the original IPsec WG, its various spin&#45;offs, and other WGs that use IPsec and/or IKE to protect their protocols&#39; traffic. This document is a snapshot of IPsec&#45; and IKE&#45;related RFCs. It includes a brief description of each RFC, along with background information explaining the motivation and context of IPsec&#39;s outgrowths and extensions. It obsoletes RFC 2411, the previous IP Security Document Roadmap. The obsoleted IPsec roadmap (RFC 2411) briefly described the interrelationship of the various classes of base IPsec documents. The major focus of RFC 2411 was to specify the recommended contents of documents specifying additional encryption and authentication algorithms. This document is not an Internet Standards Track specification; it is published for informational purposes." target="_top">
<ellipse fill="none" stroke="black" cx="178.37" cy="-175.33" rx="156.62" ry="52.33"/>
<text xml:space="preserve" text-anchor="middle" x="178.37" y="-195.03" font-family="Times,serif" font-size="14.00">RFC6071</text>
<text xml:space="preserve" text-anchor="middle" x="178.37" y="-178.53" font-family="Times,serif" font-size="14.00">IP Security (IPsec) and Internet Key</text>
<text xml:space="preserve" text-anchor="middle" x="178.37" y="-162.03" font-family="Times,serif" font-size="14.00">Exchange (IKE) Document Roadmap</text>
<text xml:space="preserve" text-anchor="middle" x="178.37" y="-145.53" font-family="Times,serif" font-size="14.00">2011</text>
</a>
</g>
</g>
<!-- RFC6071&#45;&gt;rev_cites -->
<g id="edge9" class="edge">
<title>RFC6071&#45;&gt;rev_cites</title>
<path fill="none" stroke="black" d="M298.33,-209.32C326.78,-217.44 355.09,-225.53 376.56,-231.67"/>
<polygon fill="black" stroke="black" points="375.41,-234.98 385.99,-234.36 377.33,-228.25 375.41,-234.98"/>
</g>
<!-- RFC6973 -->
<g id="node11" class="node">
<title>RFC6973</title>
<g id="a_node11"><a xlink:href="RFC6973.html" xlink:title="This document offers guidance for developing privacy considerations for inclusion in protocol specifications. &#160;It aims to make designers, implementers, and users of Internet protocols aware of privacy&#45;related design choices. &#160;It suggests that whether any individual RFC warrants a specific privacy considerations section will depend on the document&#39;s content." target="_top">
<ellipse fill="none" stroke="black" cx="178.37" cy="-52.33" rx="146.55" ry="52.33"/>
<text xml:space="preserve" text-anchor="middle" x="178.37" y="-72.03" font-family="Times,serif" font-size="14.00">RFC6973</text>
<text xml:space="preserve" text-anchor="middle" x="178.37" y="-55.53" font-family="Times,serif" font-size="14.00">Privacy Considerations for Internet</text>
<text xml:space="preserve" text-anchor="middle" x="178.37" y="-39.03" font-family="Times,serif" font-size="14.00">Protocols</text>
<text xml:space="preserve" text-anchor="middle" x="178.37" y="-22.53" font-family="Times,serif" font-size="14.00">2013</text>
</a>
</g>
</g>
<!-- RFC6973&#45;&gt;rev_cites -->
<g id="edge10" class="edge">
<title>RFC6973&#45;&gt;rev_cites</title>
<path fill="none" stroke="black" d="M302.18,-80.39C322.01,-88.91 341.13,-99.97 356.74,-114.33 385.39,-140.68 400.53,-184.07 407.87,-212.92"/>
<polygon fill="black" stroke="black" points="404.42,-213.54 410.12,-222.47 411.23,-211.93 404.42,-213.54"/>
</g>
</g>
</svg>
