<?xml version="1.0" encoding="UTF-8" standalone="no"?>
<!DOCTYPE svg PUBLIC "-//W3C//DTD SVG 1.1//EN"
 "http://www.w3.org/Graphics/SVG/1.1/DTD/svg11.dtd">
<!-- Generated by graphviz version 14.1.1 (20251213.1925)
 -->
<!-- Title: Flow Pages: 1 -->
<svg width="1028pt" height="2122pt"
 viewBox="0.00 0.00 1028.00 2122.00" xmlns="http://www.w3.org/2000/svg" xmlns:xlink="http://www.w3.org/1999/xlink">
<g id="graph0" class="graph" transform="scale(1 1) rotate(0) translate(4 2118.31)">
<title>Flow</title>
<polygon fill="white" stroke="none" points="-4,4 -4,-2118.31 1024.12,-2118.31 1024.12,4 -4,4"/>
<!-- RFC5874 -->
<g id="node1" class="node">
<title>RFC5874</title>
<g id="a_node1"><a xlink:title="This specification defines a document format that can be used to indicate that a change has occurred in a document managed by the Extensible Markup Language (XML) Configuration Access Protocol (XCAP). &#160;This format reports which document has changed and its former and new entity tags. &#160;It can report the differences between versions of the document, using an XML patch format. &#160;It can report existing element and attribute content when versions of an XCAP server document change. &#160;XCAP diff documents can be delivered to diff clients using a number of means, including a Session Initiation Protocol (SIP) event package. [STANDARDS&#45;TRACK]">
<ellipse fill="green" stroke="black" cx="267.5" cy="-869.65" rx="176.25" ry="75.66"/>
<text xml:space="preserve" text-anchor="middle" x="267.5" y="-905.85" font-family="Times,serif" font-size="14.00">RFC5874</text>
<text xml:space="preserve" text-anchor="middle" x="267.5" y="-889.35" font-family="Times,serif" font-size="14.00">An Extensible Markup Language (XML)</text>
<text xml:space="preserve" text-anchor="middle" x="267.5" y="-872.85" font-family="Times,serif" font-size="14.00">Document Format for Indicating a Change</text>
<text xml:space="preserve" text-anchor="middle" x="267.5" y="-856.35" font-family="Times,serif" font-size="14.00">in XML Configuration Access Protocol</text>
<text xml:space="preserve" text-anchor="middle" x="267.5" y="-839.85" font-family="Times,serif" font-size="14.00">(XCAP) Resources</text>
<text xml:space="preserve" text-anchor="middle" x="267.5" y="-823.35" font-family="Times,serif" font-size="14.00">2010</text>
</a>
</g>
</g>
<!-- obs -->
<g id="node3" class="node">
<title>obs</title>
<polygon fill="lightblue" stroke="black" points="534.99,-968.65 468.74,-968.65 468.74,-932.65 534.99,-932.65 534.99,-968.65"/>
<text xml:space="preserve" text-anchor="middle" x="501.87" y="-945.6" font-family="Times,serif" font-size="14.00">obsoletes</text>
</g>
<!-- RFC5874&#45;&gt;obs -->
<g id="edge2" class="edge">
<title>RFC5874&#45;&gt;obs</title>
<path fill="none" stroke="black" d="M405.01,-917.24C424.09,-923.89 442.41,-930.27 457.84,-935.65"/>
<polygon fill="black" stroke="black" points="456.5,-938.89 467.1,-938.88 458.81,-932.28 456.5,-938.89"/>
</g>
<!-- updates -->
<g id="node4" class="node">
<title>updates</title>
<polygon fill="lightyellow" stroke="black" points="530.49,-914.65 473.24,-914.65 473.24,-878.65 530.49,-878.65 530.49,-914.65"/>
<text xml:space="preserve" text-anchor="middle" x="501.87" y="-891.6" font-family="Times,serif" font-size="14.00">updates</text>
</g>
<!-- RFC5874&#45;&gt;updates -->
<g id="edge3" class="edge">
<title>RFC5874&#45;&gt;updates</title>
<path fill="none" stroke="black" d="M437.98,-889.34C446.39,-890.32 454.32,-891.24 461.54,-892.08"/>
<polygon fill="black" stroke="black" points="461.12,-895.55 471.45,-893.23 461.92,-888.6 461.12,-895.55"/>
</g>
<!-- cites -->
<g id="node6" class="node">
<title>cites</title>
<polygon fill="lightblue" stroke="black" points="528.87,-860.65 474.87,-860.65 474.87,-824.65 528.87,-824.65 528.87,-860.65"/>
<text xml:space="preserve" text-anchor="middle" x="501.87" y="-837.6" font-family="Times,serif" font-size="14.00">cites</text>
</g>
<!-- RFC5874&#45;&gt;cites -->
<g id="edge5" class="edge">
<title>RFC5874&#45;&gt;cites</title>
<path fill="none" stroke="black" d="M437.98,-849.96C447.05,-848.9 455.57,-847.91 463.23,-847.02"/>
<polygon fill="black" stroke="black" points="463.48,-850.52 473.01,-845.89 462.68,-843.56 463.48,-850.52"/>
</g>
<!-- obs_by -->
<g id="node2" class="node">
<title>obs_by</title>
<polygon fill="lightblue" stroke="black" points="66.25,-914.65 0,-914.65 0,-878.65 66.25,-878.65 66.25,-914.65"/>
<text xml:space="preserve" text-anchor="middle" x="33.12" y="-891.6" font-family="Times,serif" font-size="14.00">obsoletes</text>
</g>
<!-- obs_by&#45;&gt;RFC5874 -->
<g id="edge1" class="edge">
<title>obs_by&#45;&gt;RFC5874</title>
<path fill="none" stroke="black" d="M66.44,-892.89C72.33,-892.21 78.84,-891.45 85.8,-890.65"/>
<polygon fill="black" stroke="black" points="86.05,-894.14 95.58,-889.51 85.24,-887.19 86.05,-894.14"/>
</g>
<!-- updated_by -->
<g id="node5" class="node">
<title>updated_by</title>
<polygon fill="lightyellow" stroke="black" points="61.75,-860.65 4.5,-860.65 4.5,-824.65 61.75,-824.65 61.75,-860.65"/>
<text xml:space="preserve" text-anchor="middle" x="33.12" y="-837.6" font-family="Times,serif" font-size="14.00">updates</text>
</g>
<!-- updated_by&#45;&gt;RFC5874 -->
<g id="edge4" class="edge">
<title>updated_by&#45;&gt;RFC5874</title>
<path fill="none" stroke="black" d="M62.15,-845.91C69.11,-846.71 77.1,-847.64 85.79,-848.65"/>
<polygon fill="black" stroke="black" points="85.3,-852.12 95.64,-849.8 86.11,-845.17 85.3,-852.12"/>
</g>
<!-- RFC4825 -->
<g id="node7" class="node">
<title>RFC4825</title>
<g id="a_node7"><a xlink:href="RFC4825.html" xlink:title="This specification defines the Extensible Markup Language (XML) Configuration Access Protocol (XCAP). &#160;XCAP allows a client to read, write, and modify application configuration data stored in XML format on a server. &#160;XCAP maps XML document sub&#45;trees and element attributes to HTTP URIs, so that these components can be directly accessed by HTTP. [STANDARDS&#45;TRACK]" target="_top">
<ellipse fill="none" stroke="black" cx="750.56" cy="-1892.65" rx="173.59" ry="52.33"/>
<text xml:space="preserve" text-anchor="middle" x="750.56" y="-1912.35" font-family="Times,serif" font-size="14.00">RFC4825</text>
<text xml:space="preserve" text-anchor="middle" x="750.56" y="-1895.85" font-family="Times,serif" font-size="14.00">The Extensible Markup Language (XML)</text>
<text xml:space="preserve" text-anchor="middle" x="750.56" y="-1879.35" font-family="Times,serif" font-size="14.00">Configuration Access Protocol (XCAP)</text>
<text xml:space="preserve" text-anchor="middle" x="750.56" y="-1862.85" font-family="Times,serif" font-size="14.00">2007</text>
</a>
</g>
</g>
<!-- cites&#45;&gt;RFC4825 -->
<g id="edge6" class="edge">
<title>cites&#45;&gt;RFC4825</title>
<path fill="none" stroke="black" d="M529.02,-860.92C531.4,-863.58 533.48,-866.5 534.99,-869.65 581.4,-965.98 495.9,-1746.06 559.99,-1831.65 568.58,-1843.11 579.35,-1852.46 591.37,-1860.09"/>
<polygon fill="black" stroke="black" points="589.55,-1863.08 599.96,-1865.08 593.07,-1857.02 589.55,-1863.08"/>
</g>
<!-- RFC4662 -->
<g id="node8" class="node">
<title>RFC4662</title>
<g id="a_node8"><a xlink:href="RFC4662.html" xlink:title="This document presents an extension to the Session Initiation Protocol (SIP)&#45;Specific Event Notification mechanism for subscribing to a homogeneous list of resources. &#160;Instead of sending a SUBSCRIBE for each resource individually, the subscriber can subscribe to an entire list and then receive notifications when the state of any of the resources in the list changes. [STANDARDS&#45;TRACK]" target="_top">
<ellipse fill="none" stroke="black" cx="750.56" cy="-1758.65" rx="144.96" ry="63.99"/>
<text xml:space="preserve" text-anchor="middle" x="750.56" y="-1786.6" font-family="Times,serif" font-size="14.00">RFC4662</text>
<text xml:space="preserve" text-anchor="middle" x="750.56" y="-1770.1" font-family="Times,serif" font-size="14.00">A Session Initiation Protocol (SIP)</text>
<text xml:space="preserve" text-anchor="middle" x="750.56" y="-1753.6" font-family="Times,serif" font-size="14.00">Event Notification Extension for</text>
<text xml:space="preserve" text-anchor="middle" x="750.56" y="-1737.1" font-family="Times,serif" font-size="14.00">Resource Lists</text>
<text xml:space="preserve" text-anchor="middle" x="750.56" y="-1720.6" font-family="Times,serif" font-size="14.00">2006</text>
</a>
</g>
</g>
<!-- cites&#45;&gt;RFC4662 -->
<g id="edge7" class="edge">
<title>cites&#45;&gt;RFC4662</title>
<path fill="none" stroke="black" d="M529.01,-860.92C531.39,-863.59 533.47,-866.5 534.99,-869.65 574.55,-951.28 507.52,-1611.66 559.99,-1685.65 572.42,-1703.16 589.65,-1716.48 608.71,-1726.6"/>
<polygon fill="black" stroke="black" points="606.95,-1729.63 617.47,-1730.93 610.06,-1723.36 606.95,-1729.63"/>
</g>
<!-- RFC2778 -->
<g id="node9" class="node">
<title>RFC2778</title>
<g id="a_node9"><a xlink:href="RFC2778.html" xlink:title="This document defines an abstract model for a presence and instant messaging system. &#160;It defines the various entities involved, defines terminology, and outlines the services provided by the system. &#160;This memo provides information for the Internet community." target="_top">
<ellipse fill="none" stroke="black" cx="750.56" cy="-1624.65" rx="141.24" ry="52.33"/>
<text xml:space="preserve" text-anchor="middle" x="750.56" y="-1644.35" font-family="Times,serif" font-size="14.00">RFC2778</text>
<text xml:space="preserve" text-anchor="middle" x="750.56" y="-1627.85" font-family="Times,serif" font-size="14.00">A Model for Presence and Instant</text>
<text xml:space="preserve" text-anchor="middle" x="750.56" y="-1611.35" font-family="Times,serif" font-size="14.00">Messaging</text>
<text xml:space="preserve" text-anchor="middle" x="750.56" y="-1594.85" font-family="Times,serif" font-size="14.00">2000</text>
</a>
</g>
</g>
<!-- cites&#45;&gt;RFC2778 -->
<g id="edge8" class="edge">
<title>cites&#45;&gt;RFC2778</title>
<path fill="none" stroke="black" d="M528.99,-860.93C531.37,-863.59 533.46,-866.51 534.99,-869.65 568.83,-939 513.43,-1502.12 559.99,-1563.65 572.4,-1580.05 589.28,-1592.12 607.88,-1600.99"/>
<polygon fill="black" stroke="black" points="606.42,-1604.17 616.98,-1604.99 609.23,-1597.76 606.42,-1604.17"/>
</g>
<!-- RFC3261 -->
<g id="node10" class="node">
<title>RFC3261</title>
<g id="a_node10"><a xlink:href="RFC3261.html" xlink:title="This document describes Session Initiation Protocol (SIP), an application&#45;layer control (signaling) protocol for creating, modifying, and terminating sessions with one or more participants. &#160;These sessions include Internet telephone calls, multimedia distribution, and multimedia conferences. [STANDARDS&#45;TRACK]" target="_top">
<ellipse fill="none" stroke="black" cx="750.56" cy="-1513.65" rx="132.23" ry="40.66"/>
<text xml:space="preserve" text-anchor="middle" x="750.56" y="-1525.1" font-family="Times,serif" font-size="14.00">RFC3261</text>
<text xml:space="preserve" text-anchor="middle" x="750.56" y="-1508.6" font-family="Times,serif" font-size="14.00">SIP: Session Initiation Protocol</text>
<text xml:space="preserve" text-anchor="middle" x="750.56" y="-1492.1" font-family="Times,serif" font-size="14.00">2002</text>
</a>
</g>
</g>
<!-- cites&#45;&gt;RFC3261 -->
<g id="edge9" class="edge">
<title>cites&#45;&gt;RFC3261</title>
<path fill="none" stroke="black" d="M528.97,-860.94C531.36,-863.6 533.45,-866.51 534.99,-869.65 564.14,-928.93 518.58,-1412.18 559.99,-1463.65 573.44,-1480.36 591.75,-1491.87 611.72,-1499.74"/>
<polygon fill="black" stroke="black" points="610.27,-1502.94 620.87,-1503.01 612.63,-1496.35 610.27,-1502.94"/>
</g>
<!-- RFC3265 -->
<g id="node11" class="node">
<title>RFC3265</title>
<g id="a_node11"><a xlink:href="RFC3265.html" xlink:title="This document describes an extension to the Session Initiation Protocol (SIP). &#160;The purpose of this extension is to provide an extensible framework by which SIP nodes can request notification from remote nodes indicating that certain events have occurred. [STANDARDS&#45;TRACK]" target="_top">
<ellipse fill="none" stroke="black" cx="750.56" cy="-1402.65" rx="139.65" ry="52.33"/>
<text xml:space="preserve" text-anchor="middle" x="750.56" y="-1422.35" font-family="Times,serif" font-size="14.00">RFC3265</text>
<text xml:space="preserve" text-anchor="middle" x="750.56" y="-1405.85" font-family="Times,serif" font-size="14.00">Session Initiation Protocol</text>
<text xml:space="preserve" text-anchor="middle" x="750.56" y="-1389.35" font-family="Times,serif" font-size="14.00">(SIP)&#45;Specific Event Notification</text>
<text xml:space="preserve" text-anchor="middle" x="750.56" y="-1372.85" font-family="Times,serif" font-size="14.00">2002</text>
</a>
</g>
</g>
<!-- cites&#45;&gt;RFC3265 -->
<g id="edge10" class="edge">
<title>cites&#45;&gt;RFC3265</title>
<path fill="none" stroke="black" d="M528.94,-860.96C531.33,-863.61 533.43,-866.52 534.99,-869.65 581.85,-963.66 495.91,-1258.43 559.99,-1341.65 572.87,-1358.37 590.38,-1370.58 609.58,-1379.49"/>
<polygon fill="black" stroke="black" points="608.12,-1382.67 618.69,-1383.38 610.87,-1376.23 608.12,-1382.67"/>
</g>
<!-- RFC5875 -->
<g id="node12" class="node">
<title>RFC5875</title>
<g id="a_node12"><a xlink:href="RFC5875.html" xlink:title="This document describes an xcap&#45;diff SIP (Session Initiation Protocol) event package for the SIP Event Notification Framework, which clients can use to receive notifications of changes to Extensible Markup Language (XML) Configuration Access Protocol (XCAP) resources. &#160;The initial synchronization information exchange and document updates are based on the XCAP Diff format. [STANDARDS TRACK]" target="_top">
<ellipse fill="none" stroke="black" cx="750.56" cy="-1268.65" rx="170.41" ry="63.99"/>
<text xml:space="preserve" text-anchor="middle" x="750.56" y="-1296.6" font-family="Times,serif" font-size="14.00">RFC5875</text>
<text xml:space="preserve" text-anchor="middle" x="750.56" y="-1280.1" font-family="Times,serif" font-size="14.00">An Extensible Markup Language (XML)</text>
<text xml:space="preserve" text-anchor="middle" x="750.56" y="-1263.6" font-family="Times,serif" font-size="14.00">Configuration Access Protocol (XCAP)</text>
<text xml:space="preserve" text-anchor="middle" x="750.56" y="-1247.1" font-family="Times,serif" font-size="14.00">Diff Event Package</text>
<text xml:space="preserve" text-anchor="middle" x="750.56" y="-1230.6" font-family="Times,serif" font-size="14.00">2010</text>
</a>
</g>
</g>
<!-- cites&#45;&gt;RFC5875 -->
<g id="edge11" class="edge">
<title>cites&#45;&gt;RFC5875</title>
<path fill="none" stroke="black" d="M528.87,-861C531.27,-863.64 533.4,-866.54 534.99,-869.65 568.17,-934.29 516.61,-1137.37 559.99,-1195.65 569.83,-1208.87 582.39,-1219.69 596.35,-1228.55"/>
<polygon fill="black" stroke="black" points="594.53,-1231.54 604.92,-1233.61 598.09,-1225.52 594.53,-1231.54"/>
</g>
<!-- RFC4483 -->
<g id="node13" class="node">
<title>RFC4483</title>
<g id="a_node13"><a xlink:href="RFC4483.html" xlink:title="This document defines an extension to the URL MIME External&#45;Body Access&#45;Type to satisfy the content indirection requirements for the Session Initiation Protocol (SIP). &#160;These extensions are aimed at allowing any MIME part in a SIP message to be referred to indirectly via a URI. [STANDARDS&#45;TRACK]" target="_top">
<ellipse fill="none" stroke="black" cx="750.56" cy="-1122.65" rx="167.23" ry="63.99"/>
<text xml:space="preserve" text-anchor="middle" x="750.56" y="-1150.6" font-family="Times,serif" font-size="14.00">RFC4483</text>
<text xml:space="preserve" text-anchor="middle" x="750.56" y="-1134.1" font-family="Times,serif" font-size="14.00">A Mechanism for Content Indirection in</text>
<text xml:space="preserve" text-anchor="middle" x="750.56" y="-1117.6" font-family="Times,serif" font-size="14.00">Session Initiation Protocol (SIP)</text>
<text xml:space="preserve" text-anchor="middle" x="750.56" y="-1101.1" font-family="Times,serif" font-size="14.00">Messages</text>
<text xml:space="preserve" text-anchor="middle" x="750.56" y="-1084.6" font-family="Times,serif" font-size="14.00">2006</text>
</a>
</g>
</g>
<!-- cites&#45;&gt;RFC4483 -->
<g id="edge12" class="edge">
<title>cites&#45;&gt;RFC4483</title>
<path fill="none" stroke="black" d="M528.68,-861.1C531.11,-863.73 533.3,-866.59 534.99,-869.65 574.06,-940.34 509.8,-986.37 559.99,-1049.65 570.6,-1063.02 583.97,-1073.95 598.68,-1082.87"/>
<polygon fill="black" stroke="black" points="596.79,-1085.82 607.21,-1087.71 600.24,-1079.73 596.79,-1085.82"/>
</g>
<!-- RFC5261 -->
<g id="node14" class="node">
<title>RFC5261</title>
<g id="a_node14"><a xlink:href="RFC5261.html" xlink:title="Extensible Markup Language (XML) documents are widely used as containers for the exchange and storage of arbitrary data in today&#39;s systems. &#160;In order to send changes to an XML document, an entire copy of the new version must be sent, unless there is a means of indicating only the portions that have changed. &#160;This document describes an XML patch framework utilizing XML Path language (XPath) selectors. &#160;These selector values and updated new data content constitute the basis of patch operations described in this document. &#160;In addition to them, with basic &lt;add&gt;, &lt;replace&gt;, and &lt;remove&gt; directives a set of patches can then be applied to update an existing XML document. [STANDARDS&#45;TRACK]" target="_top">
<ellipse fill="none" stroke="black" cx="750.56" cy="-976.65" rx="185.26" ry="63.99"/>
<text xml:space="preserve" text-anchor="middle" x="750.56" y="-1004.6" font-family="Times,serif" font-size="14.00">RFC5261</text>
<text xml:space="preserve" text-anchor="middle" x="750.56" y="-988.1" font-family="Times,serif" font-size="14.00">An Extensible Markup Language (XML)</text>
<text xml:space="preserve" text-anchor="middle" x="750.56" y="-971.6" font-family="Times,serif" font-size="14.00">Patch Operations Framework Utilizing XML</text>
<text xml:space="preserve" text-anchor="middle" x="750.56" y="-955.1" font-family="Times,serif" font-size="14.00">Path Language (XPath) Selectors</text>
<text xml:space="preserve" text-anchor="middle" x="750.56" y="-938.6" font-family="Times,serif" font-size="14.00">2008</text>
</a>
</g>
</g>
<!-- cites&#45;&gt;RFC5261 -->
<g id="edge13" class="edge">
<title>cites&#45;&gt;RFC5261</title>
<path fill="none" stroke="black" d="M525.95,-860.89C529.1,-863.71 532.2,-866.67 534.99,-869.65 547.82,-883.34 545.09,-892.27 559.99,-903.65 572.63,-913.3 586.7,-921.82 601.3,-929.3"/>
<polygon fill="black" stroke="black" points="599.61,-932.37 610.13,-933.65 602.7,-926.09 599.61,-932.37"/>
</g>
<!-- RFC2119 -->
<g id="node15" class="node">
<title>RFC2119</title>
<g id="a_node15"><a xlink:href="RFC2119.html" xlink:title="In many standards track documents several words are used to signify the requirements in the specification. &#160;These words are often capitalized. &#160;This document defines these words as they should be interpreted in IETF documents. &#160;This document specifies an Internet Best Current Practices for the Internet Community, and requests discussion and suggestions for improvements." target="_top">
<ellipse fill="none" stroke="black" cx="750.56" cy="-842.65" rx="160.34" ry="52.33"/>
<text xml:space="preserve" text-anchor="middle" x="750.56" y="-862.35" font-family="Times,serif" font-size="14.00">RFC2119</text>
<text xml:space="preserve" text-anchor="middle" x="750.56" y="-845.85" font-family="Times,serif" font-size="14.00">Key words for use in RFCs to Indicate</text>
<text xml:space="preserve" text-anchor="middle" x="750.56" y="-829.35" font-family="Times,serif" font-size="14.00">Requirement Levels</text>
<text xml:space="preserve" text-anchor="middle" x="750.56" y="-812.85" font-family="Times,serif" font-size="14.00">1997</text>
</a>
</g>
</g>
<!-- cites&#45;&gt;RFC2119 -->
<g id="edge14" class="edge">
<title>cites&#45;&gt;RFC2119</title>
<path fill="none" stroke="black" d="M529.27,-842.65C542.46,-842.65 559.66,-842.65 578.63,-842.65"/>
<polygon fill="black" stroke="black" points="578.47,-846.15 588.47,-842.65 578.47,-839.15 578.47,-846.15"/>
</g>
<!-- RFC2141 -->
<g id="node16" class="node">
<title>RFC2141</title>
<g id="a_node16"><a xlink:href="RFC2141.html" xlink:title="Uniform Resource Names (URNs) are intended to serve as persistent, location&#45;independent, resource identifiers. &#160;This document sets forward the canonical syntax for URNs. [STANDARDS&#45;TRACK]" target="_top">
<ellipse fill="none" stroke="black" cx="750.56" cy="-731.65" rx="60.63" ry="40.66"/>
<text xml:space="preserve" text-anchor="middle" x="750.56" y="-743.1" font-family="Times,serif" font-size="14.00">RFC2141</text>
<text xml:space="preserve" text-anchor="middle" x="750.56" y="-726.6" font-family="Times,serif" font-size="14.00">URN Syntax</text>
<text xml:space="preserve" text-anchor="middle" x="750.56" y="-710.1" font-family="Times,serif" font-size="14.00">1997</text>
</a>
</g>
</g>
<!-- cites&#45;&gt;RFC2141 -->
<g id="edge15" class="edge">
<title>cites&#45;&gt;RFC2141</title>
<path fill="none" stroke="black" d="M515.58,-824.27C526,-810.57 541.93,-792.43 559.99,-781.65 596.28,-759.99 641.96,-747.58 679.38,-740.54"/>
<polygon fill="black" stroke="black" points="679.99,-743.99 689.22,-738.79 678.76,-737.1 679.99,-743.99"/>
</g>
<!-- RFC2648 -->
<g id="node17" class="node">
<title>RFC2648</title>
<g id="a_node17"><a xlink:href="RFC2648.html" xlink:title="This document proposes the ietf namespace, which consists of the RFC family of documents (RFCs, STDs, FYIs, and BCPs) developed by the IETF and published by the RFC Editor and the minutes of working groups (WG) and birds of a feather (BOF) meetings that occur during IETF conferences. [STANDARDS&#45;TRACK]" target="_top">
<ellipse fill="none" stroke="black" cx="750.56" cy="-632.65" rx="170.94" ry="40.66"/>
<text xml:space="preserve" text-anchor="middle" x="750.56" y="-644.1" font-family="Times,serif" font-size="14.00">RFC2648</text>
<text xml:space="preserve" text-anchor="middle" x="750.56" y="-627.6" font-family="Times,serif" font-size="14.00">A URN Namespace for IETF Documents</text>
<text xml:space="preserve" text-anchor="middle" x="750.56" y="-611.1" font-family="Times,serif" font-size="14.00">1999</text>
</a>
</g>
</g>
<!-- cites&#45;&gt;RFC2648 -->
<g id="edge16" class="edge">
<title>cites&#45;&gt;RFC2648</title>
<path fill="none" stroke="black" d="M503.97,-824.18C506.98,-790.7 518.21,-719.9 559.99,-681.65 570.08,-672.41 581.68,-664.87 594.07,-658.71"/>
<polygon fill="black" stroke="black" points="595.17,-662.06 602.79,-654.7 592.24,-655.7 595.17,-662.06"/>
</g>
<!-- RFC3688 -->
<g id="node18" class="node">
<title>RFC3688</title>
<g id="a_node18"><a xlink:href="RFC3688.html" xlink:title="This document describes an IANA maintained registry for IETF standards which use Extensible Markup Language (XML) related items such as Namespaces, Document Type Declarations (DTDs), Schemas, and Resource Description Framework (RDF) Schemas." target="_top">
<ellipse fill="none" stroke="black" cx="750.56" cy="-533.65" rx="107.83" ry="40.66"/>
<text xml:space="preserve" text-anchor="middle" x="750.56" y="-545.1" font-family="Times,serif" font-size="14.00">RFC3688</text>
<text xml:space="preserve" text-anchor="middle" x="750.56" y="-528.6" font-family="Times,serif" font-size="14.00">The IETF XML Registry</text>
<text xml:space="preserve" text-anchor="middle" x="750.56" y="-512.1" font-family="Times,serif" font-size="14.00">2004</text>
</a>
</g>
</g>
<!-- cites&#45;&gt;RFC3688 -->
<g id="edge17" class="edge">
<title>cites&#45;&gt;RFC3688</title>
<path fill="none" stroke="black" d="M504.44,-824.25C509.37,-770.89 526.23,-617.67 559.99,-582.65 579.47,-562.45 606.09,-550.18 633.23,-542.83"/>
<polygon fill="black" stroke="black" points="633.71,-546.32 642.58,-540.52 632.03,-539.52 633.71,-546.32"/>
</g>
<!-- RFC2616 -->
<g id="node19" class="node">
<title>RFC2616</title>
<g id="a_node19"><a xlink:href="RFC2616.html" xlink:title="HTTP has been in use by the World&#45;Wide Web global information initiative since 1990. &#160;This specification defines the protocol referred to as HTTP/1.1, and is an update to RFC 2068. [STANDARDS&#45;TRACK]" target="_top">
<ellipse fill="none" stroke="black" cx="750.56" cy="-434.65" rx="169.35" ry="40.66"/>
<text xml:space="preserve" text-anchor="middle" x="750.56" y="-446.1" font-family="Times,serif" font-size="14.00">RFC2616</text>
<text xml:space="preserve" text-anchor="middle" x="750.56" y="-429.6" font-family="Times,serif" font-size="14.00">Hypertext Transfer Protocol &#45;&#45; HTTP/1.1</text>
<text xml:space="preserve" text-anchor="middle" x="750.56" y="-413.1" font-family="Times,serif" font-size="14.00">1999</text>
</a>
</g>
</g>
<!-- cites&#45;&gt;RFC2616 -->
<g id="edge18" class="edge">
<title>cites&#45;&gt;RFC2616</title>
<path fill="none" stroke="black" d="M503.22,-824.18C504.87,-758.06 513.82,-534.43 559.99,-483.65 569.01,-473.73 579.76,-465.7 591.48,-459.22"/>
<polygon fill="black" stroke="black" points="592.84,-462.45 600.18,-454.81 589.68,-456.2 592.84,-462.45"/>
</g>
<!-- RFC5246 -->
<g id="node20" class="node">
<title>RFC5246</title>
<g id="a_node20"><a xlink:href="RFC5246.html" xlink:title="This document specifies Version 1.2 of the Transport Layer Security (TLS) protocol. &#160;The TLS protocol provides communications security over the Internet. &#160;The protocol allows client/server applications to communicate in a way that is designed to prevent eavesdropping, tampering, or message forgery. [STANDARDS&#45;TRACK]" target="_top">
<ellipse fill="none" stroke="black" cx="750.56" cy="-323.65" rx="150.79" ry="52.33"/>
<text xml:space="preserve" text-anchor="middle" x="750.56" y="-343.35" font-family="Times,serif" font-size="14.00">RFC5246</text>
<text xml:space="preserve" text-anchor="middle" x="750.56" y="-326.85" font-family="Times,serif" font-size="14.00">The Transport Layer Security (TLS)</text>
<text xml:space="preserve" text-anchor="middle" x="750.56" y="-310.35" font-family="Times,serif" font-size="14.00">Protocol Version 1.2</text>
<text xml:space="preserve" text-anchor="middle" x="750.56" y="-293.85" font-family="Times,serif" font-size="14.00">2008</text>
</a>
</g>
</g>
<!-- cites&#45;&gt;RFC5246 -->
<g id="edge19" class="edge">
<title>cites&#45;&gt;RFC5246</title>
<path fill="none" stroke="black" d="M502.62,-824.18C501.96,-747.27 503.25,-453.15 559.99,-384.65 571.88,-370.29 587.18,-359.28 603.91,-350.84"/>
<polygon fill="black" stroke="black" points="604.96,-354.2 612.54,-346.8 602,-347.86 604.96,-354.2"/>
</g>
<!-- RFC3023 -->
<g id="node21" class="node">
<title>RFC3023</title>
<g id="a_node21"><a xlink:href="RFC3023.html" xlink:title="This document standardizes five new media types &#45;&#45; text/xml, application/xml, text/xml&#45;external&#45;parsed&#45;entity, application/xml&#45; external&#45;parsed&#45;entity, and application/xml&#45;dtd &#45;&#45; for use in exchanging network entities that are related to the Extensible Markup Language (XML). &#160;This document also standardizes a convention (using the suffix &#39;+xml&#39;) for naming media types outside of these five types when those media types represent XML MIME (Multipurpose Internet Mail Extensions) entities. [STANDARDS&#45;TRACK]" target="_top">
<ellipse fill="none" stroke="black" cx="750.56" cy="-212.65" rx="85.56" ry="40.66"/>
<text xml:space="preserve" text-anchor="middle" x="750.56" y="-224.1" font-family="Times,serif" font-size="14.00">RFC3023</text>
<text xml:space="preserve" text-anchor="middle" x="750.56" y="-207.6" font-family="Times,serif" font-size="14.00">XML Media Types</text>
<text xml:space="preserve" text-anchor="middle" x="750.56" y="-191.1" font-family="Times,serif" font-size="14.00">2001</text>
</a>
</g>
</g>
<!-- cites&#45;&gt;RFC3023 -->
<g id="edge20" class="edge">
<title>cites&#45;&gt;RFC3023</title>
<path fill="none" stroke="black" d="M503.45,-824.31C506.57,-730.45 522.68,-306.46 559.99,-262.65 583.19,-235.41 619.31,-222.11 653.81,-215.9"/>
<polygon fill="black" stroke="black" points="654.12,-219.39 663.45,-214.36 653.02,-212.48 654.12,-219.39"/>
</g>
<!-- RFC4826 -->
<g id="node22" class="node">
<title>RFC4826</title>
<g id="a_node22"><a xlink:href="RFC4826.html" xlink:title="In multimedia communications, presence, and instant messaging systems, there is a need to define Uniform Resource Identifiers (URIs) that represent services that are associated with a group of users. &#160;One example is a resource list service. &#160;If a user sends a Session Initiation Protocol (SIP) SUBSCRIBE message to the URI representing the resource list service, the server will obtain the state of the users in the associated group, and provide it to the sender. &#160;To facilitate definition of these services, this specification defines two Extensible Markup Language (XML) documents. &#160;One document contains service URIs, along with their service definition and a reference to the associated group of users. &#160;The second document contains the user lists that are referenced from the first. &#160;This list of users can be utilized by other applications and services. &#160;Both documents can be created and managed with the XML Configuration Access Protocol (XCAP). [STANDARDS&#45;TRACK]" target="_top">
<ellipse fill="none" stroke="black" cx="750.56" cy="-101.65" rx="190.57" ry="52.33"/>
<text xml:space="preserve" text-anchor="middle" x="750.56" y="-121.35" font-family="Times,serif" font-size="14.00">RFC4826</text>
<text xml:space="preserve" text-anchor="middle" x="750.56" y="-104.85" font-family="Times,serif" font-size="14.00">Extensible Markup Language (XML) Formats</text>
<text xml:space="preserve" text-anchor="middle" x="750.56" y="-88.35" font-family="Times,serif" font-size="14.00">for Representing Resource Lists</text>
<text xml:space="preserve" text-anchor="middle" x="750.56" y="-71.85" font-family="Times,serif" font-size="14.00">2007</text>
</a>
</g>
</g>
<!-- cites&#45;&gt;RFC4826 -->
<g id="edge21" class="edge">
<title>cites&#45;&gt;RFC4826</title>
<path fill="none" stroke="black" d="M503.21,-824.35C505.3,-721.27 517.65,-215.92 559.99,-162.65 567.41,-153.32 576.27,-145.39 586.05,-138.67"/>
<polygon fill="black" stroke="black" points="587.82,-141.69 594.4,-133.38 584.08,-135.77 587.82,-141.69"/>
</g>
<!-- rev_cites -->
<g id="node23" class="node">
<title>rev_cites</title>
<polygon fill="lightblue" stroke="black" points="1020.12,-1286.65 966.12,-1286.65 966.12,-1250.65 1020.12,-1250.65 1020.12,-1286.65"/>
<text xml:space="preserve" text-anchor="middle" x="993.12" y="-1263.6" font-family="Times,serif" font-size="14.00">cites</text>
</g>
<!-- RFC5875&#45;&gt;rev_cites -->
<g id="edge23" class="edge">
<title>RFC5875&#45;&gt;rev_cites</title>
<path fill="none" stroke="black" d="M921.25,-1268.65C933.41,-1268.65 944.75,-1268.65 954.65,-1268.65"/>
<polygon fill="black" stroke="black" points="954.44,-1272.15 964.44,-1268.65 954.44,-1265.15 954.44,-1272.15"/>
</g>
<!-- rev_cites&#45;&gt;RFC5874 -->
<g id="edge22" class="edge">
<title>rev_cites&#45;&gt;RFC5874</title>
<path fill="none" stroke="black" d="M992.08,-1250.56C991.62,-1101.77 986.79,-84.46 941.12,-40.65 880,17.98 629.1,8.31 559.99,-40.65 316.33,-213.26 274.86,-606.52 268.84,-782.13"/>
<polygon fill="black" stroke="black" points="265.34,-782.02 268.54,-792.12 272.34,-782.23 265.34,-782.02"/>
</g>
<!-- RFC6914 -->
<g id="node24" class="node">
<title>RFC6914</title>
<g id="a_node24"><a xlink:href="RFC6914.html" xlink:title="The IETF has produced many specifications related to Presence and Instant Messaging with the Session Initiation Protocol (SIP). &#160;Collectively, these specifications are known as SIP for Instant Messaging and Presence Leveraging Extensions (SIMPLE). &#160;This document serves as a guide to the SIMPLE suite of specifications. &#160;It categorizes the specifications, explains what each is for, and how they relate to each other." target="_top">
<ellipse fill="none" stroke="black" cx="750.56" cy="-2038.65" rx="182.61" ry="75.66"/>
<text xml:space="preserve" text-anchor="middle" x="750.56" y="-2074.85" font-family="Times,serif" font-size="14.00">RFC6914</text>
<text xml:space="preserve" text-anchor="middle" x="750.56" y="-2058.35" font-family="Times,serif" font-size="14.00">SIMPLE Made Simple: An Overview of the</text>
<text xml:space="preserve" text-anchor="middle" x="750.56" y="-2041.85" font-family="Times,serif" font-size="14.00">IETF Specifications for Instant</text>
<text xml:space="preserve" text-anchor="middle" x="750.56" y="-2025.35" font-family="Times,serif" font-size="14.00">Messaging and Presence Using the Session</text>
<text xml:space="preserve" text-anchor="middle" x="750.56" y="-2008.85" font-family="Times,serif" font-size="14.00">Initiation Protocol (SIP)</text>
<text xml:space="preserve" text-anchor="middle" x="750.56" y="-1992.35" font-family="Times,serif" font-size="14.00">2013</text>
</a>
</g>
</g>
<!-- RFC6914&#45;&gt;rev_cites -->
<g id="edge24" class="edge">
<title>RFC6914&#45;&gt;rev_cites</title>
<path fill="none" stroke="black" d="M897.56,-1993.77C914.48,-1983.07 929.73,-1969.89 941.12,-1953.65 979.2,-1899.38 989.61,-1422.65 991.68,-1298.24"/>
<polygon fill="black" stroke="black" points="995.18,-1298.58 991.84,-1288.52 988.18,-1298.47 995.18,-1298.58"/>
</g>
</g>
</svg>
