<?xml version="1.0" encoding="UTF-8" standalone="no"?>
<!DOCTYPE svg PUBLIC "-//W3C//DTD SVG 1.1//EN"
 "http://www.w3.org/Graphics/SVG/1.1/DTD/svg11.dtd">
<!-- Generated by graphviz version 14.1.1 (20251213.1925)
 -->
<!-- Title: Flow Pages: 1 -->
<svg width="1228pt" height="482pt"
 viewBox="0.00 0.00 1228.00 482.00" xmlns="http://www.w3.org/2000/svg" xmlns:xlink="http://www.w3.org/1999/xlink">
<g id="graph0" class="graph" transform="scale(1 1) rotate(0) translate(4 477.65)">
<title>Flow</title>
<polygon fill="white" stroke="none" points="-4,4 -4,-477.65 1223.97,-477.65 1223.97,4 -4,4"/>
<!-- RFC5871 -->
<g id="node1" class="node">
<title>RFC5871</title>
<g id="a_node1"><a xlink:title="This document specifies the IANA guidelines for allocating new values for the Routing Type field in the IPv6 Routing Header. [STANDARDS TRACK]">
<ellipse fill="green" stroke="black" cx="575.52" cy="-386.33" rx="170.41" ry="52.33"/>
<text xml:space="preserve" text-anchor="middle" x="575.52" y="-406.03" font-family="Times,serif" font-size="14.00">RFC5871</text>
<text xml:space="preserve" text-anchor="middle" x="575.52" y="-389.53" font-family="Times,serif" font-size="14.00">IANA Allocation Guidelines for the IPv6</text>
<text xml:space="preserve" text-anchor="middle" x="575.52" y="-373.03" font-family="Times,serif" font-size="14.00">Routing Header</text>
<text xml:space="preserve" text-anchor="middle" x="575.52" y="-356.53" font-family="Times,serif" font-size="14.00">2010</text>
</a>
</g>
</g>
<!-- obs -->
<g id="node3" class="node">
<title>obs</title>
<polygon fill="lightblue" stroke="black" points="837.18,-458.33 770.93,-458.33 770.93,-422.33 837.18,-422.33 837.18,-458.33"/>
<text xml:space="preserve" text-anchor="middle" x="804.05" y="-435.28" font-family="Times,serif" font-size="14.00">obsoletes</text>
</g>
<!-- RFC5871&#45;&gt;obs -->
<g id="edge2" class="edge">
<title>RFC5871&#45;&gt;obs</title>
<path fill="none" stroke="black" d="M710.91,-418.36C728.5,-422.56 745.39,-426.58 759.79,-430.01"/>
<polygon fill="black" stroke="black" points="758.77,-433.37 769.3,-432.28 760.39,-426.56 758.77,-433.37"/>
</g>
<!-- updates -->
<g id="node4" class="node">
<title>updates</title>
<polygon fill="lightyellow" stroke="black" points="832.68,-404.33 775.43,-404.33 775.43,-368.33 832.68,-368.33 832.68,-404.33"/>
<text xml:space="preserve" text-anchor="middle" x="804.05" y="-381.28" font-family="Times,serif" font-size="14.00">updates</text>
</g>
<!-- RFC5871&#45;&gt;updates -->
<g id="edge3" class="edge">
<title>RFC5871&#45;&gt;updates</title>
<path fill="none" stroke="black" d="M746.18,-386.33C752.37,-386.33 758.26,-386.33 763.74,-386.33"/>
<polygon fill="black" stroke="black" points="763.52,-389.83 773.52,-386.33 763.52,-382.83 763.52,-389.83"/>
</g>
<!-- cites -->
<g id="node7" class="node">
<title>cites</title>
<polygon fill="lightblue" stroke="black" points="831.05,-316.33 777.05,-316.33 777.05,-280.33 831.05,-280.33 831.05,-316.33"/>
<text xml:space="preserve" text-anchor="middle" x="804.05" y="-293.28" font-family="Times,serif" font-size="14.00">cites</text>
</g>
<!-- RFC5871&#45;&gt;cites -->
<g id="edge6" class="edge">
<title>RFC5871&#45;&gt;cites</title>
<path fill="none" stroke="black" d="M682.49,-345.16C712.57,-333.47 743.35,-321.52 766.27,-312.61"/>
<polygon fill="black" stroke="black" points="767.39,-315.93 775.45,-309.05 764.86,-309.41 767.39,-315.93"/>
</g>
<!-- obs_by -->
<g id="node2" class="node">
<title>obs_by</title>
<polygon fill="lightblue" stroke="black" points="380.1,-458.33 313.85,-458.33 313.85,-422.33 380.1,-422.33 380.1,-458.33"/>
<text xml:space="preserve" text-anchor="middle" x="346.98" y="-435.28" font-family="Times,serif" font-size="14.00">obsoletes</text>
</g>
<!-- obs_by&#45;&gt;RFC5871 -->
<g id="edge1" class="edge">
<title>obs_by&#45;&gt;RFC5871</title>
<path fill="none" stroke="black" d="M380.44,-432.59C394.08,-429.34 410.98,-425.31 429.08,-420.99"/>
<polygon fill="black" stroke="black" points="429.78,-424.43 438.69,-418.7 428.15,-417.62 429.78,-424.43"/>
</g>
<!-- RFC2460 -->
<g id="node5" class="node">
<title>RFC2460</title>
<g id="a_node5"><a xlink:href="RFC2460.html" xlink:title="This document specifies version 6 of the Internet Protocol (IPv6), also sometimes referred to as IP Next Generation or IPng. [STANDARDS&#45;TRACK]" target="_top">
<ellipse fill="none" stroke="black" cx="1041.08" cy="-421.33" rx="144.43" ry="52.33"/>
<text xml:space="preserve" text-anchor="middle" x="1041.08" y="-441.03" font-family="Times,serif" font-size="14.00">RFC2460</text>
<text xml:space="preserve" text-anchor="middle" x="1041.08" y="-424.53" font-family="Times,serif" font-size="14.00">Internet Protocol, Version 6 (IPv6)</text>
<text xml:space="preserve" text-anchor="middle" x="1041.08" y="-408.03" font-family="Times,serif" font-size="14.00">Specification</text>
<text xml:space="preserve" text-anchor="middle" x="1041.08" y="-391.53" font-family="Times,serif" font-size="14.00">1998</text>
</a>
</g>
</g>
<!-- updates&#45;&gt;RFC2460 -->
<g id="edge4" class="edge">
<title>updates&#45;&gt;RFC2460</title>
<path fill="none" stroke="black" d="M832.94,-390.48C849.49,-392.94 871.89,-396.28 895.85,-399.85"/>
<polygon fill="black" stroke="black" points="895.05,-403.27 905.46,-401.28 896.08,-396.34 895.05,-403.27"/>
</g>
<!-- updated_by -->
<g id="node6" class="node">
<title>updated_by</title>
<polygon fill="lightyellow" stroke="black" points="375.6,-404.33 318.35,-404.33 318.35,-368.33 375.6,-368.33 375.6,-404.33"/>
<text xml:space="preserve" text-anchor="middle" x="346.98" y="-381.28" font-family="Times,serif" font-size="14.00">updates</text>
</g>
<!-- updated_by&#45;&gt;RFC5871 -->
<g id="edge5" class="edge">
<title>updated_by&#45;&gt;RFC5871</title>
<path fill="none" stroke="black" d="M375.76,-386.33C381.13,-386.33 387.12,-386.33 393.57,-386.33"/>
<polygon fill="black" stroke="black" points="393.32,-389.83 403.32,-386.33 393.32,-382.83 393.32,-389.83"/>
</g>
<!-- cites&#45;&gt;RFC2460 -->
<g id="edge8" class="edge">
<title>cites&#45;&gt;RFC2460</title>
<path fill="none" stroke="black" d="M818.23,-316.59C828.78,-330.06 844.67,-347.93 862.18,-359.33 877.99,-369.61 895.71,-378.41 913.67,-385.87"/>
<polygon fill="black" stroke="black" points="912.27,-389.08 922.86,-389.55 914.88,-382.58 912.27,-389.08"/>
</g>
<!-- RFC5226 -->
<g id="node8" class="node">
<title>RFC5226</title>
<g id="a_node8"><a xlink:href="RFC5226.html" xlink:title="Many protocols make use of identifiers consisting of constants and other well&#45;known values. Even after a protocol has been defined and deployment has begun, new values may need to be assigned (e.g., for a new option type in DHCP, or a new encryption or authentication transform for IPsec). To ensure that such quantities have consistent values and interpretations across all implementations, their assignment must be administered by a central authority. For IETF protocols, that role is provided by the Internet Assigned Numbers Authority (IANA). In order for IANA to manage a given namespace prudently, it needs guidelines describing the conditions under which new values can be assigned or when modifications to existing values can be made. If IANA is expected to play a role in the management of a namespace, IANA must be given clear and concise instructions describing that role. This document discusses issues that should be considered in formulating a policy for assigning values to a namespace and provides guidelines for authors on the specific text that must be included in documents that place demands on IANA. This document obsoletes RFC 2434. This document specifies an Internet Best Current Practices for the Internet Community, and requests discussion and suggestions for improvements." target="_top">
<ellipse fill="none" stroke="black" cx="1041.08" cy="-298.33" rx="136.47" ry="52.33"/>
<text xml:space="preserve" text-anchor="middle" x="1041.08" y="-318.03" font-family="Times,serif" font-size="14.00">RFC5226</text>
<text xml:space="preserve" text-anchor="middle" x="1041.08" y="-301.53" font-family="Times,serif" font-size="14.00">Guidelines for Writing an IANA</text>
<text xml:space="preserve" text-anchor="middle" x="1041.08" y="-285.03" font-family="Times,serif" font-size="14.00">Considerations Section in RFCs</text>
<text xml:space="preserve" text-anchor="middle" x="1041.08" y="-268.53" font-family="Times,serif" font-size="14.00">2008</text>
</a>
</g>
</g>
<!-- cites&#45;&gt;RFC5226 -->
<g id="edge7" class="edge">
<title>cites&#45;&gt;RFC5226</title>
<path fill="none" stroke="black" d="M831.1,-298.33C847.15,-298.33 869.14,-298.33 892.87,-298.33"/>
<polygon fill="black" stroke="black" points="892.74,-301.83 902.74,-298.33 892.74,-294.83 892.74,-301.83"/>
</g>
<!-- RFC4727 -->
<g id="node9" class="node">
<title>RFC4727</title>
<g id="a_node9"><a xlink:href="RFC4727.html" xlink:title="When experimenting with or extending protocols, it is often necessary to use some sort of protocol number or constant in order to actually test or experiment with the new function, even when testing in a closed environment. &#160;This document reserves some ranges of numbers for experimentation purposes in specific protocols where the need to support experimentation has been identified, and it describes the numbers that have already been reserved by other documents. [STANDARDS&#45;TRACK]" target="_top">
<ellipse fill="none" stroke="black" cx="1041.08" cy="-175.33" rx="178.9" ry="52.33"/>
<text xml:space="preserve" text-anchor="middle" x="1041.08" y="-195.03" font-family="Times,serif" font-size="14.00">RFC4727</text>
<text xml:space="preserve" text-anchor="middle" x="1041.08" y="-178.53" font-family="Times,serif" font-size="14.00">Experimental Values In IPv4, IPv6,</text>
<text xml:space="preserve" text-anchor="middle" x="1041.08" y="-162.03" font-family="Times,serif" font-size="14.00">ICMPv4, ICMPv6, UDP, and TCP Headers</text>
<text xml:space="preserve" text-anchor="middle" x="1041.08" y="-145.53" font-family="Times,serif" font-size="14.00">2006</text>
</a>
</g>
</g>
<!-- cites&#45;&gt;RFC4727 -->
<g id="edge9" class="edge">
<title>cites&#45;&gt;RFC4727</title>
<path fill="none" stroke="black" d="M818.23,-280.06C828.78,-266.6 844.67,-248.72 862.18,-237.33 874.3,-229.44 887.55,-222.42 901.17,-216.22"/>
<polygon fill="black" stroke="black" points="902.5,-219.46 910.25,-212.24 899.69,-213.05 902.5,-219.46"/>
</g>
<!-- RFC5095 -->
<g id="node10" class="node">
<title>RFC5095</title>
<g id="a_node10"><a xlink:href="RFC5095.html" xlink:title="The functionality provided by IPv6&#39;s Type 0 Routing Header can be exploited in order to achieve traffic amplification over a remote path for the purposes of generating denial&#45;of&#45;service traffic. &#160;This document updates the IPv6 specification to deprecate the use of IPv6 Type 0 Routing Headers, in light of this security concern. [STANDARDS&#45;TRACK]" target="_top">
<ellipse fill="none" stroke="black" cx="1041.08" cy="-52.33" rx="175.19" ry="52.33"/>
<text xml:space="preserve" text-anchor="middle" x="1041.08" y="-72.03" font-family="Times,serif" font-size="14.00">RFC5095</text>
<text xml:space="preserve" text-anchor="middle" x="1041.08" y="-55.53" font-family="Times,serif" font-size="14.00">Deprecation of Type 0 Routing Headers in</text>
<text xml:space="preserve" text-anchor="middle" x="1041.08" y="-39.03" font-family="Times,serif" font-size="14.00">IPv6</text>
<text xml:space="preserve" text-anchor="middle" x="1041.08" y="-22.53" font-family="Times,serif" font-size="14.00">2007</text>
</a>
</g>
</g>
<!-- cites&#45;&gt;RFC5095 -->
<g id="edge10" class="edge">
<title>cites&#45;&gt;RFC5095</title>
<path fill="none" stroke="black" d="M805.52,-279.95C807.43,-243.44 816.86,-161.23 862.18,-114.33 871.14,-105.05 881.57,-97.16 892.79,-90.45"/>
<polygon fill="black" stroke="black" points="894.49,-93.51 901.52,-85.58 891.08,-87.39 894.49,-93.51"/>
</g>
<!-- rev_cites -->
<g id="node11" class="node">
<title>rev_cites</title>
<polygon fill="lightblue" stroke="black" points="373.98,-350.33 319.98,-350.33 319.98,-314.33 373.98,-314.33 373.98,-350.33"/>
<text xml:space="preserve" text-anchor="middle" x="346.98" y="-327.28" font-family="Times,serif" font-size="14.00">cites</text>
</g>
<!-- rev_cites&#45;&gt;RFC5871 -->
<g id="edge11" class="edge">
<title>rev_cites&#45;&gt;RFC5871</title>
<path fill="none" stroke="black" d="M374.41,-338.63C388.87,-342.07 408.05,-346.65 428.82,-351.6"/>
<polygon fill="black" stroke="black" points="427.8,-354.95 438.34,-353.86 429.42,-348.14 427.8,-354.95"/>
</g>
<!-- RFC8200 -->
<g id="node12" class="node">
<title>RFC8200</title>
<g id="a_node12"><a xlink:href="RFC8200.html" xlink:title="This document specifies version 6 of the Internet Protocol (IPv6). &#160;It obsoletes RFC 2460." target="_top">
<ellipse fill="none" stroke="black" cx="144.43" cy="-332.33" rx="144.43" ry="52.33"/>
<text xml:space="preserve" text-anchor="middle" x="144.43" y="-352.03" font-family="Times,serif" font-size="14.00">RFC8200</text>
<text xml:space="preserve" text-anchor="middle" x="144.43" y="-335.53" font-family="Times,serif" font-size="14.00">Internet Protocol, Version 6 (IPv6)</text>
<text xml:space="preserve" text-anchor="middle" x="144.43" y="-319.03" font-family="Times,serif" font-size="14.00">Specification</text>
<text xml:space="preserve" text-anchor="middle" x="144.43" y="-302.53" font-family="Times,serif" font-size="14.00">2017</text>
</a>
</g>
</g>
<!-- RFC8200&#45;&gt;rev_cites -->
<g id="edge12" class="edge">
<title>RFC8200&#45;&gt;rev_cites</title>
<path fill="none" stroke="black" d="M289.31,-332.33C296,-332.33 302.36,-332.33 308.24,-332.33"/>
<polygon fill="black" stroke="black" points="308.08,-335.83 318.08,-332.33 308.08,-328.83 308.08,-335.83"/>
</g>
</g>
</svg>
