<?xml version="1.0" encoding="UTF-8" standalone="no"?>
<!DOCTYPE svg PUBLIC "-//W3C//DTD SVG 1.1//EN"
 "http://www.w3.org/Graphics/SVG/1.1/DTD/svg11.dtd">
<!-- Generated by graphviz version 14.1.1 (20251213.1925)
 -->
<!-- Title: Flow Pages: 1 -->
<svg width="852pt" height="339pt"
 viewBox="0.00 0.00 852.00 339.00" xmlns="http://www.w3.org/2000/svg" xmlns:xlink="http://www.w3.org/1999/xlink">
<g id="graph0" class="graph" transform="scale(1 1) rotate(0) translate(4 335.33)">
<title>Flow</title>
<polygon fill="white" stroke="none" points="-4,4 -4,-335.33 847.54,-335.33 847.54,4 -4,4"/>
<!-- RFC5816 -->
<g id="node1" class="node">
<title>RFC5816</title>
<g id="a_node1"><a xlink:title="This document updates RFC 3161. &#160;It allows the use of ESSCertIDv2, as defined in RFC 5035, to specify the hash of a signer certificate when the hash is calculated with a function other than the Secure Hash Algorithm (SHA&#45;1). [STANDARDS&#45;TRACK]">
<ellipse fill="green" stroke="black" cx="241.51" cy="-259.33" rx="150.26" ry="40.66"/>
<text xml:space="preserve" text-anchor="middle" x="241.51" y="-270.78" font-family="Times,serif" font-size="14.00">RFC5816</text>
<text xml:space="preserve" text-anchor="middle" x="241.51" y="-254.28" font-family="Times,serif" font-size="14.00">ESSCertIDv2 Update for RFC 3161</text>
<text xml:space="preserve" text-anchor="middle" x="241.51" y="-237.78" font-family="Times,serif" font-size="14.00">2010</text>
</a>
</g>
</g>
<!-- obs -->
<g id="node3" class="node">
<title>obs</title>
<polygon fill="lightblue" stroke="black" points="483.02,-331.33 416.77,-331.33 416.77,-295.33 483.02,-295.33 483.02,-331.33"/>
<text xml:space="preserve" text-anchor="middle" x="449.9" y="-308.28" font-family="Times,serif" font-size="14.00">obsoletes</text>
</g>
<!-- RFC5816&#45;&gt;obs -->
<g id="edge2" class="edge">
<title>RFC5816&#45;&gt;obs</title>
<path fill="none" stroke="black" d="M350.54,-287.59C370.19,-292.73 389.61,-297.81 405.93,-302.08"/>
<polygon fill="black" stroke="black" points="404.68,-305.37 415.24,-304.52 406.45,-298.6 404.68,-305.37"/>
</g>
<!-- updates -->
<g id="node4" class="node">
<title>updates</title>
<polygon fill="lightyellow" stroke="black" points="478.52,-277.33 421.27,-277.33 421.27,-241.33 478.52,-241.33 478.52,-277.33"/>
<text xml:space="preserve" text-anchor="middle" x="449.9" y="-254.28" font-family="Times,serif" font-size="14.00">updates</text>
</g>
<!-- RFC5816&#45;&gt;updates -->
<g id="edge3" class="edge">
<title>RFC5816&#45;&gt;updates</title>
<path fill="none" stroke="black" d="M392.23,-259.33C398.32,-259.33 404.15,-259.33 409.58,-259.33"/>
<polygon fill="black" stroke="black" points="409.3,-262.83 419.3,-259.33 409.3,-255.83 409.3,-262.83"/>
</g>
<!-- cites -->
<g id="node7" class="node">
<title>cites</title>
<polygon fill="lightblue" stroke="black" points="476.9,-209.33 422.9,-209.33 422.9,-173.33 476.9,-173.33 476.9,-209.33"/>
<text xml:space="preserve" text-anchor="middle" x="449.9" y="-186.28" font-family="Times,serif" font-size="14.00">cites</text>
</g>
<!-- RFC5816&#45;&gt;cites -->
<g id="edge6" class="edge">
<title>RFC5816&#45;&gt;cites</title>
<path fill="none" stroke="black" d="M338.15,-227.81C364.31,-219.2 391.11,-210.36 411.8,-203.55"/>
<polygon fill="black" stroke="black" points="412.78,-206.91 421.18,-200.46 410.59,-200.26 412.78,-206.91"/>
</g>
<!-- obs_by -->
<g id="node2" class="node">
<title>obs_by</title>
<polygon fill="lightblue" stroke="black" points="66.25,-331.33 0,-331.33 0,-295.33 66.25,-295.33 66.25,-331.33"/>
<text xml:space="preserve" text-anchor="middle" x="33.12" y="-308.28" font-family="Times,serif" font-size="14.00">obsoletes</text>
</g>
<!-- obs_by&#45;&gt;RFC5816 -->
<g id="edge1" class="edge">
<title>obs_by&#45;&gt;RFC5816</title>
<path fill="none" stroke="black" d="M66.37,-304.89C81.75,-300.87 101.2,-295.78 121.48,-290.47"/>
<polygon fill="black" stroke="black" points="122.23,-293.89 131.02,-287.97 120.46,-287.12 122.23,-293.89"/>
</g>
<!-- RFC3161 -->
<g id="node5" class="node">
<title>RFC3161</title>
<g id="a_node5"><a xlink:href="RFC3161.html" xlink:title="This document describes the format of a request sent to a Time Stamping Authority (TSA) and of the response that is returned. &#160;It also establishes several security&#45;relevant requirements for TSA operation, with regards to processing requests to generate responses. [STANDARDS&#45;TRACK]" target="_top">
<ellipse fill="none" stroke="black" cx="675.78" cy="-274.33" rx="167.76" ry="52.33"/>
<text xml:space="preserve" text-anchor="middle" x="675.78" y="-294.03" font-family="Times,serif" font-size="14.00">RFC3161</text>
<text xml:space="preserve" text-anchor="middle" x="675.78" y="-277.53" font-family="Times,serif" font-size="14.00">Internet X.509 Public Key Infrastructure</text>
<text xml:space="preserve" text-anchor="middle" x="675.78" y="-261.03" font-family="Times,serif" font-size="14.00">Time&#45;Stamp Protocol (TSP)</text>
<text xml:space="preserve" text-anchor="middle" x="675.78" y="-244.53" font-family="Times,serif" font-size="14.00">2001</text>
</a>
</g>
</g>
<!-- updates&#45;&gt;RFC3161 -->
<g id="edge4" class="edge">
<title>updates&#45;&gt;RFC3161</title>
<path fill="none" stroke="black" d="M478.8,-261.2C485.09,-261.62 492.22,-262.09 499.94,-262.61"/>
<polygon fill="black" stroke="black" points="499.5,-266.09 509.72,-263.27 499.97,-259.11 499.5,-266.09"/>
</g>
<!-- updated_by -->
<g id="node6" class="node">
<title>updated_by</title>
<polygon fill="lightyellow" stroke="black" points="61.75,-277.33 4.5,-277.33 4.5,-241.33 61.75,-241.33 61.75,-277.33"/>
<text xml:space="preserve" text-anchor="middle" x="33.12" y="-254.28" font-family="Times,serif" font-size="14.00">updates</text>
</g>
<!-- updated_by&#45;&gt;RFC5816 -->
<g id="edge5" class="edge">
<title>updated_by&#45;&gt;RFC5816</title>
<path fill="none" stroke="black" d="M61.96,-259.33C67.32,-259.33 73.27,-259.33 79.66,-259.33"/>
<polygon fill="black" stroke="black" points="79.27,-262.83 89.27,-259.33 79.27,-255.83 79.27,-262.83"/>
</g>
<!-- cites&#45;&gt;RFC3161 -->
<g id="edge7" class="edge">
<title>cites&#45;&gt;RFC3161</title>
<path fill="none" stroke="black" d="M477.31,-201.61C486.96,-205.33 497.97,-209.55 508.02,-213.33 523.03,-218.96 538.82,-224.82 554.46,-230.59"/>
<polygon fill="black" stroke="black" points="553.23,-233.87 563.83,-234.04 555.65,-227.3 553.23,-233.87"/>
</g>
<!-- RFC5652 -->
<g id="node8" class="node">
<title>RFC5652</title>
<g id="a_node8"><a xlink:href="RFC5652.html" xlink:title="This document describes the Cryptographic Message Syntax (CMS). &#160;This syntax is used to digitally sign, digest, authenticate, or encrypt arbitrary message content. [STANDARDS&#45;TRACK]" target="_top">
<ellipse fill="none" stroke="black" cx="675.78" cy="-163.33" rx="161.93" ry="40.66"/>
<text xml:space="preserve" text-anchor="middle" x="675.78" y="-174.78" font-family="Times,serif" font-size="14.00">RFC5652</text>
<text xml:space="preserve" text-anchor="middle" x="675.78" y="-158.28" font-family="Times,serif" font-size="14.00">Cryptographic Message Syntax (CMS)</text>
<text xml:space="preserve" text-anchor="middle" x="675.78" y="-141.78" font-family="Times,serif" font-size="14.00">2009</text>
</a>
</g>
</g>
<!-- cites&#45;&gt;RFC5652 -->
<g id="edge8" class="edge">
<title>cites&#45;&gt;RFC5652</title>
<path fill="none" stroke="black" d="M477.02,-188.06C488.54,-186.62 503.11,-184.8 519.08,-182.8"/>
<polygon fill="black" stroke="black" points="519.35,-186.29 528.84,-181.58 518.48,-179.35 519.35,-186.29"/>
</g>
<!-- RFC2119 -->
<g id="node9" class="node">
<title>RFC2119</title>
<g id="a_node9"><a xlink:href="RFC2119.html" xlink:title="In many standards track documents several words are used to signify the requirements in the specification. &#160;These words are often capitalized. &#160;This document defines these words as they should be interpreted in IETF documents. &#160;This document specifies an Internet Best Current Practices for the Internet Community, and requests discussion and suggestions for improvements." target="_top">
<ellipse fill="none" stroke="black" cx="675.78" cy="-52.33" rx="160.34" ry="52.33"/>
<text xml:space="preserve" text-anchor="middle" x="675.78" y="-72.03" font-family="Times,serif" font-size="14.00">RFC2119</text>
<text xml:space="preserve" text-anchor="middle" x="675.78" y="-55.53" font-family="Times,serif" font-size="14.00">Key words for use in RFCs to Indicate</text>
<text xml:space="preserve" text-anchor="middle" x="675.78" y="-39.03" font-family="Times,serif" font-size="14.00">Requirement Levels</text>
<text xml:space="preserve" text-anchor="middle" x="675.78" y="-22.53" font-family="Times,serif" font-size="14.00">1997</text>
</a>
</g>
</g>
<!-- cites&#45;&gt;RFC2119 -->
<g id="edge9" class="edge">
<title>cites&#45;&gt;RFC2119</title>
<path fill="none" stroke="black" d="M460.1,-173.12C469.82,-155.57 486.69,-129.36 508.02,-113.33 519.01,-105.07 531.22,-97.83 543.91,-91.52"/>
<polygon fill="black" stroke="black" points="545.27,-94.75 552.8,-87.3 542.27,-88.43 545.27,-94.75"/>
</g>
<!-- rev_cites -->
<g id="node10" class="node">
<title>rev_cites</title>
<polygon fill="lightblue" stroke="black" points="60.12,-223.33 6.12,-223.33 6.12,-187.33 60.12,-187.33 60.12,-223.33"/>
<text xml:space="preserve" text-anchor="middle" x="33.12" y="-200.28" font-family="Times,serif" font-size="14.00">cites</text>
</g>
<!-- rev_cites&#45;&gt;RFC5816 -->
<g id="edge10" class="edge">
<title>rev_cites&#45;&gt;RFC5816</title>
<path fill="none" stroke="black" d="M60.26,-212.17C76.37,-216.38 98.29,-222.12 121.31,-228.14"/>
<polygon fill="black" stroke="black" points="120.28,-231.49 130.84,-230.63 122.05,-224.71 120.28,-231.49"/>
</g>
</g>
</svg>
