<?xml version="1.0" encoding="UTF-8" standalone="no"?>
<!DOCTYPE svg PUBLIC "-//W3C//DTD SVG 1.1//EN"
 "http://www.w3.org/Graphics/SVG/1.1/DTD/svg11.dtd">
<!-- Generated by graphviz version 14.1.1 (20251213.1925)
 -->
<!-- Title: Flow Pages: 1 -->
<svg width="974pt" height="1138pt"
 viewBox="0.00 0.00 974.00 1138.00" xmlns="http://www.w3.org/2000/svg" xmlns:xlink="http://www.w3.org/1999/xlink">
<g id="graph0" class="graph" transform="scale(1 1) rotate(0) translate(4 1133.98)">
<title>Flow</title>
<polygon fill="white" stroke="none" points="-4,4 -4,-1133.98 970.03,-1133.98 970.03,4 -4,4"/>
<!-- RFC5302 -->
<g id="node1" class="node">
<title>RFC5302</title>
<g id="a_node1"><a xlink:title="This document describes extensions to the Intermediate System to Intermediate System (IS&#45;IS) protocol to support optimal routing within a two&#45;level domain. The IS&#45;IS protocol is specified in ISO 10589, with extensions for supporting IPv4 (Internet Protocol) specified in RFC 1195. This document replaces RFC 2966. This document extends the semantics presented in RFC 1195 so that a routing domain running with both level 1 and level 2 Intermediate Systems (IS) (routers) can distribute IP prefixes between level 1 and level 2, and vice versa. This distribution requires certain restrictions to ensure that persistent forwarding loops do not form. The goal of this domain&#45;wide prefix distribution is to increase the granularity of the routing information within the domain. [STANDARDS&#45;TRACK]">
<ellipse fill="none" stroke="black" cx="252.12" cy="-653.33" rx="160.87" ry="52.33"/>
<text xml:space="preserve" text-anchor="middle" x="252.12" y="-673.03" font-family="Times,serif" font-size="14.00">RFC5302</text>
<text xml:space="preserve" text-anchor="middle" x="252.12" y="-656.53" font-family="Times,serif" font-size="14.00">Domain&#45;Wide Prefix Distribution with</text>
<text xml:space="preserve" text-anchor="middle" x="252.12" y="-640.03" font-family="Times,serif" font-size="14.00">Two&#45;Level IS&#45;IS</text>
<text xml:space="preserve" text-anchor="middle" x="252.12" y="-623.53" font-family="Times,serif" font-size="14.00">2008</text>
</a>
</g>
</g>
<!-- obs -->
<g id="node3" class="node">
<title>obs</title>
<polygon fill="none" stroke="black" points="504.23,-720.33 437.98,-720.33 437.98,-684.33 504.23,-684.33 504.23,-720.33"/>
<text xml:space="preserve" text-anchor="middle" x="471.11" y="-697.28" font-family="Times,serif" font-size="14.00">obsoletes</text>
</g>
<!-- RFC5302&#45;&gt;obs -->
<g id="edge2" class="edge">
<title>RFC5302&#45;&gt;obs</title>
<path fill="none" stroke="black" d="M384.97,-683.1C399.92,-686.48 414.25,-689.71 426.74,-692.53"/>
<polygon fill="black" stroke="black" points="425.67,-695.88 436.19,-694.67 427.21,-689.05 425.67,-695.88"/>
</g>
<!-- updates -->
<g id="node5" class="node">
<title>updates</title>
<polygon fill="none" stroke="black" points="499.73,-381.33 442.48,-381.33 442.48,-345.33 499.73,-345.33 499.73,-381.33"/>
<text xml:space="preserve" text-anchor="middle" x="471.11" y="-358.28" font-family="Times,serif" font-size="14.00">updates</text>
</g>
<!-- RFC5302&#45;&gt;updates -->
<g id="edge4" class="edge">
<title>RFC5302&#45;&gt;updates</title>
<path fill="none" stroke="black" d="M291.41,-602.15C337.61,-540.41 413.56,-438.9 449.73,-390.56"/>
<polygon fill="black" stroke="black" points="452.32,-392.94 455.51,-382.84 446.71,-388.75 452.32,-392.94"/>
</g>
<!-- cites -->
<g id="node8" class="node">
<title>cites</title>
<polygon fill="none" stroke="black" points="498.11,-574.33 444.11,-574.33 444.11,-538.33 498.11,-538.33 498.11,-574.33"/>
<text xml:space="preserve" text-anchor="middle" x="471.11" y="-551.28" font-family="Times,serif" font-size="14.00">cites</text>
</g>
<!-- RFC5302&#45;&gt;cites -->
<g id="edge7" class="edge">
<title>RFC5302&#45;&gt;cites</title>
<path fill="none" stroke="black" d="M347.98,-610.92C378.24,-597.39 409.94,-583.22 433.46,-572.71"/>
<polygon fill="black" stroke="black" points="434.57,-576.05 442.27,-568.77 431.71,-569.66 434.57,-576.05"/>
</g>
<!-- obs_by -->
<g id="node2" class="node">
<title>obs_by</title>
<polygon fill="none" stroke="black" points="66.25,-698.33 0,-698.33 0,-662.33 66.25,-662.33 66.25,-698.33"/>
<text xml:space="preserve" text-anchor="middle" x="33.12" y="-675.28" font-family="Times,serif" font-size="14.00">obsoletes</text>
</g>
<!-- obs_by&#45;&gt;RFC5302 -->
<g id="edge1" class="edge">
<title>obs_by&#45;&gt;RFC5302</title>
<path fill="none" stroke="black" d="M66.61,-676.28C73.76,-675.39 81.79,-674.39 90.4,-673.32"/>
<polygon fill="black" stroke="black" points="90.6,-676.83 100.09,-672.12 89.74,-669.88 90.6,-676.83"/>
</g>
<!-- RFC2966 -->
<g id="node4" class="node">
<title>RFC2966</title>
<g id="a_node4"><a xlink:href="RFC2966.html" xlink:title="This document describes extensions to the Intermediate System to Intermediate System (IS&#45;IS) protocol to support optimal routing within a two&#45;level domain. &#160;This memo provides information for the Internet community." target="_top">
<ellipse fill="none" stroke="black" cx="708.13" cy="-841.33" rx="158.75" ry="52.33"/>
<text xml:space="preserve" text-anchor="middle" x="708.13" y="-861.03" font-family="Times,serif" font-size="14.00">RFC2966</text>
<text xml:space="preserve" text-anchor="middle" x="708.13" y="-844.53" font-family="Times,serif" font-size="14.00">Domain&#45;wide Prefix Distribution with</text>
<text xml:space="preserve" text-anchor="middle" x="708.13" y="-828.03" font-family="Times,serif" font-size="14.00">Two&#45;Level IS&#45;IS</text>
<text xml:space="preserve" text-anchor="middle" x="708.13" y="-811.53" font-family="Times,serif" font-size="14.00">2000</text>
</a>
</g>
</g>
<!-- obs&#45;&gt;RFC2966 -->
<g id="edge3" class="edge">
<title>obs&#45;&gt;RFC2966</title>
<path fill="none" stroke="black" d="M481.5,-720.69C491.25,-738.07 508.04,-763.75 529.23,-779.33 542.42,-789.02 557.25,-797.29 572.57,-804.33"/>
<polygon fill="black" stroke="black" points="570.75,-807.35 581.32,-808.17 573.57,-800.94 570.75,-807.35"/>
</g>
<!-- RFC1195 -->
<g id="node6" class="node">
<title>RFC1195</title>
<g id="a_node6"><a xlink:href="RFC1195.html" xlink:title="This memo specifies an integrated routing protocol, based on the OSI Intra&#45;Domain IS&#45;IS Routing Protocol, which may be used as an interior gateway protocol (IGP) to support TCP/IP as well as OSI. &#160;This allows a single routing protocol to be used to support pure IP environments, pure OSI environments, and dual environments. &#160;This specification was developed by the IS&#45;IS working group of the Internet Engineering Task Force. [STANDARDS&#45;TRACK]" target="_top">
<ellipse fill="none" stroke="black" cx="708.13" cy="-175.33" rx="162.46" ry="52.33"/>
<text xml:space="preserve" text-anchor="middle" x="708.13" y="-195.03" font-family="Times,serif" font-size="14.00">RFC1195</text>
<text xml:space="preserve" text-anchor="middle" x="708.13" y="-178.53" font-family="Times,serif" font-size="14.00">Use of OSI IS&#45;IS for routing in TCP/IP</text>
<text xml:space="preserve" text-anchor="middle" x="708.13" y="-162.03" font-family="Times,serif" font-size="14.00">and dual environments</text>
<text xml:space="preserve" text-anchor="middle" x="708.13" y="-145.53" font-family="Times,serif" font-size="14.00">1990</text>
</a>
</g>
</g>
<!-- updates&#45;&gt;RFC1195 -->
<g id="edge5" class="edge">
<title>updates&#45;&gt;RFC1195</title>
<path fill="none" stroke="black" d="M475.58,-345.22C481.7,-318.06 496.96,-266.81 529.23,-237.33 540.41,-227.12 553.35,-218.58 567.06,-211.43"/>
<polygon fill="black" stroke="black" points="568.38,-214.68 575.81,-207.14 565.29,-208.4 568.38,-214.68"/>
</g>
<!-- updated_by -->
<g id="node7" class="node">
<title>updated_by</title>
<polygon fill="none" stroke="black" points="61.75,-644.33 4.5,-644.33 4.5,-608.33 61.75,-608.33 61.75,-644.33"/>
<text xml:space="preserve" text-anchor="middle" x="33.12" y="-621.28" font-family="Times,serif" font-size="14.00">updates</text>
</g>
<!-- updated_by&#45;&gt;RFC5302 -->
<g id="edge6" class="edge">
<title>updated_by&#45;&gt;RFC5302</title>
<path fill="none" stroke="black" d="M62.05,-629.8C70.2,-630.82 79.75,-632 90.14,-633.3"/>
<polygon fill="black" stroke="black" points="89.4,-636.73 99.76,-634.49 90.27,-629.78 89.4,-636.73"/>
</g>
<!-- cites&#45;&gt;RFC2966 -->
<g id="edge9" class="edge">
<title>cites&#45;&gt;RFC2966</title>
<path fill="none" stroke="black" d="M477.16,-574.43C483.63,-597.72 495.08,-639.45 504.23,-675.33 515.99,-721.39 497.33,-744.08 529.23,-779.33 539.39,-790.55 551.69,-799.73 565.02,-807.26"/>
<polygon fill="black" stroke="black" points="563.07,-810.19 573.55,-811.75 566.33,-804 563.07,-810.19"/>
</g>
<!-- cites&#45;&gt;RFC1195 -->
<g id="edge8" class="edge">
<title>cites&#45;&gt;RFC1195</title>
<path fill="none" stroke="black" d="M475.85,-537.94C482.03,-507.35 494.64,-444.08 504.23,-390.33 516.34,-322.5 484.91,-290.08 529.23,-237.33 538.54,-226.25 549.94,-217.15 562.43,-209.68"/>
<polygon fill="black" stroke="black" points="563.81,-212.91 570.86,-205 560.41,-206.79 563.81,-212.91"/>
</g>
<!-- RFC2119 -->
<g id="node9" class="node">
<title>RFC2119</title>
<g id="a_node9"><a xlink:href="RFC2119.html" xlink:title="In many standards track documents several words are used to signify the requirements in the specification. &#160;These words are often capitalized. &#160;This document defines these words as they should be interpreted in IETF documents. &#160;This document specifies an Internet Best Current Practices for the Internet Community, and requests discussion and suggestions for improvements." target="_top">
<ellipse fill="none" stroke="black" cx="708.13" cy="-298.33" rx="160.34" ry="52.33"/>
<text xml:space="preserve" text-anchor="middle" x="708.13" y="-318.03" font-family="Times,serif" font-size="14.00">RFC2119</text>
<text xml:space="preserve" text-anchor="middle" x="708.13" y="-301.53" font-family="Times,serif" font-size="14.00">Key words for use in RFCs to Indicate</text>
<text xml:space="preserve" text-anchor="middle" x="708.13" y="-285.03" font-family="Times,serif" font-size="14.00">Requirement Levels</text>
<text xml:space="preserve" text-anchor="middle" x="708.13" y="-268.53" font-family="Times,serif" font-size="14.00">1997</text>
</a>
</g>
</g>
<!-- cites&#45;&gt;RFC2119 -->
<g id="edge10" class="edge">
<title>cites&#45;&gt;RFC2119</title>
<path fill="none" stroke="black" d="M472.1,-537.85C473.1,-499.39 480.84,-410.11 529.23,-359.33 539.38,-348.68 551.45,-339.9 564.47,-332.65"/>
<polygon fill="black" stroke="black" points="565.98,-335.8 573.25,-328.09 562.76,-329.59 565.98,-335.8"/>
</g>
<!-- RFC5305 -->
<g id="node10" class="node">
<title>RFC5305</title>
<g id="a_node10"><a xlink:href="RFC5305.html" xlink:title="This document describes extensions to the Intermediate System to Intermediate System (IS&#45;IS) protocol to support Traffic Engineering (TE). &#160;This document extends the IS&#45;IS protocol by specifying new information that an Intermediate System (router) can place in Link State Protocol Data Units (LSP). &#160;This information describes additional details regarding the state of the network that are useful for traffic engineering computations. [STANDARDS&#45;TRACK]" target="_top">
<ellipse fill="none" stroke="black" cx="708.13" cy="-607.33" rx="167.76" ry="40.66"/>
<text xml:space="preserve" text-anchor="middle" x="708.13" y="-618.78" font-family="Times,serif" font-size="14.00">RFC5305</text>
<text xml:space="preserve" text-anchor="middle" x="708.13" y="-602.28" font-family="Times,serif" font-size="14.00">IS&#45;IS Extensions for Traffic Engineering</text>
<text xml:space="preserve" text-anchor="middle" x="708.13" y="-585.78" font-family="Times,serif" font-size="14.00">2008</text>
</a>
</g>
</g>
<!-- cites&#45;&gt;RFC5305 -->
<g id="edge11" class="edge">
<title>cites&#45;&gt;RFC5305</title>
<path fill="none" stroke="black" d="M498.16,-561.98C516.62,-565.99 542.97,-571.7 570.76,-577.73"/>
<polygon fill="black" stroke="black" points="569.9,-581.13 580.41,-579.83 571.38,-574.29 569.9,-581.13"/>
</g>
<!-- RFC5304 -->
<g id="node11" class="node">
<title>RFC5304</title>
<g id="a_node11"><a xlink:href="RFC5304.html" xlink:title="This document describes the authentication of Intermediate System to Intermediate System (IS&#45;IS) Protocol Data Units (PDUs) using the Hashed Message Authentication Codes &#45; Message Digest 5 (HMAC&#45;MD5) algorithm as found in RFC 2104. IS&#45;IS is specified in International Standards Organization (ISO) 10589, with extensions to support Internet Protocol version 4 (IPv4) described in RFC 1195. The base specification includes an authentication mechanism that allows for multiple authentication algorithms. The base specification only specifies the algorithm for cleartext passwords. This document replaces RFC 3567. This document proposes an extension to that specification that allows the use of the HMAC&#45;MD5 authentication algorithm to be used in conjunction with the existing authentication mechanisms. [STANDARDS&#45;TRACK]" target="_top">
<ellipse fill="none" stroke="black" cx="708.13" cy="-508.33" rx="148.14" ry="40.66"/>
<text xml:space="preserve" text-anchor="middle" x="708.13" y="-519.78" font-family="Times,serif" font-size="14.00">RFC5304</text>
<text xml:space="preserve" text-anchor="middle" x="708.13" y="-503.28" font-family="Times,serif" font-size="14.00">IS&#45;IS Cryptographic Authentication</text>
<text xml:space="preserve" text-anchor="middle" x="708.13" y="-486.78" font-family="Times,serif" font-size="14.00">2008</text>
</a>
</g>
</g>
<!-- cites&#45;&gt;RFC5304 -->
<g id="edge12" class="edge">
<title>cites&#45;&gt;RFC5304</title>
<path fill="none" stroke="black" d="M498.16,-551.01C518.01,-546.95 546.97,-541.04 577.05,-534.89"/>
<polygon fill="black" stroke="black" points="577.59,-538.36 586.68,-532.93 576.19,-531.5 577.59,-538.36"/>
</g>
<!-- rev_cites -->
<g id="node12" class="node">
<title>rev_cites</title>
<polygon fill="none" stroke="black" points="966.03,-736.33 912.03,-736.33 912.03,-700.33 966.03,-700.33 966.03,-736.33"/>
<text xml:space="preserve" text-anchor="middle" x="939.03" y="-713.28" font-family="Times,serif" font-size="14.00">cites</text>
</g>
<!-- RFC5305&#45;&gt;rev_cites -->
<g id="edge14" class="edge">
<title>RFC5305&#45;&gt;rev_cites</title>
<path fill="none" stroke="black" d="M837.6,-633.33C854.95,-639.69 871.95,-647.57 887.03,-657.33 900.29,-665.9 911.88,-679 920.65,-690.86"/>
<polygon fill="black" stroke="black" points="917.58,-692.58 926.19,-698.76 923.32,-688.56 917.58,-692.58"/>
</g>
<!-- rev_cites&#45;&gt;RFC5302 -->
<g id="edge13" class="edge">
<title>rev_cites&#45;&gt;RFC5302</title>
<path fill="none" stroke="black" d="M935.74,-736.73C930.03,-779.21 913.68,-882.06 887.03,-902.33 823.74,-950.46 603.45,-930.85 529.23,-902.33 431.17,-864.64 346.2,-774.24 297.3,-713.38"/>
<polygon fill="black" stroke="black" points="300.25,-711.46 291.3,-705.81 294.77,-715.81 300.25,-711.46"/>
</g>
<!-- RFC7775 -->
<g id="node13" class="node">
<title>RFC7775</title>
<g id="a_node13"><a xlink:href="RFC7775.html" xlink:title="In existing specifications, the route preferences for IPv4/IPv6 Extended Reachability TLVs are not explicitly stated. &#160;There are also inconsistencies in the definition of how the up/down bit applies to route preference when the prefix advertisement appears in Level 2 Link State Protocol Data Units (LSPs). &#160;This document addresses these issues." target="_top">
<ellipse fill="none" stroke="black" cx="708.13" cy="-718.33" rx="164.05" ry="52.33"/>
<text xml:space="preserve" text-anchor="middle" x="708.13" y="-738.03" font-family="Times,serif" font-size="14.00">RFC7775</text>
<text xml:space="preserve" text-anchor="middle" x="708.13" y="-721.53" font-family="Times,serif" font-size="14.00">IS&#45;IS Route Preference for Extended IP</text>
<text xml:space="preserve" text-anchor="middle" x="708.13" y="-705.03" font-family="Times,serif" font-size="14.00">and IPv6 Reachability</text>
<text xml:space="preserve" text-anchor="middle" x="708.13" y="-688.53" font-family="Times,serif" font-size="14.00">2016</text>
</a>
</g>
</g>
<!-- RFC7775&#45;&gt;rev_cites -->
<g id="edge15" class="edge">
<title>RFC7775&#45;&gt;rev_cites</title>
<path fill="none" stroke="black" d="M872.44,-718.33C882.44,-718.33 891.82,-718.33 900.2,-718.33"/>
<polygon fill="black" stroke="black" points="900.18,-721.83 910.18,-718.33 900.18,-714.83 900.18,-721.83"/>
</g>
<!-- RFC9067 -->
<g id="node14" class="node">
<title>RFC9067</title>
<g id="a_node14"><a xlink:href="RFC9067.html" xlink:title="This document defines a YANG data model for configuring and managing routing policies in a vendor&#45;neutral way. &#160;The model provides a generic routing policy framework that can be extended for specific routing protocols using the YANG &#39;augment&#39; mechanism." target="_top">
<ellipse fill="none" stroke="black" cx="708.13" cy="-409.33" rx="169.88" ry="40.66"/>
<text xml:space="preserve" text-anchor="middle" x="708.13" y="-420.78" font-family="Times,serif" font-size="14.00">RFC9067</text>
<text xml:space="preserve" text-anchor="middle" x="708.13" y="-404.28" font-family="Times,serif" font-size="14.00">A YANG Data Model for Routing Policy</text>
<text xml:space="preserve" text-anchor="middle" x="708.13" y="-387.78" font-family="Times,serif" font-size="14.00">2021</text>
</a>
</g>
</g>
<!-- RFC9067&#45;&gt;rev_cites -->
<g id="edge16" class="edge">
<title>RFC9067&#45;&gt;rev_cites</title>
<path fill="none" stroke="black" d="M850.34,-431.69C864.05,-438.47 876.68,-447.17 887.03,-458.33 917.83,-491.53 931.42,-627.51 936.06,-688.49"/>
<polygon fill="black" stroke="black" points="932.57,-688.74 936.78,-698.46 939.55,-688.23 932.57,-688.74"/>
</g>
<!-- RFC9088 -->
<g id="node15" class="node">
<title>RFC9088</title>
<g id="a_node15"><a xlink:href="RFC9088.html" xlink:title="Multiprotocol Label Switching (MPLS) has defined a mechanism to load&#45;balance traffic flows using Entropy Labels (EL). &#160;An ingress Label Switching Router (LSR) cannot insert ELs for packets going into a given Label Switched Path (LSP) unless an egress LSR has indicated via signaling that it has the capability to process ELs, referred to as the Entropy Label Capability (ELC), on that LSP. &#160;In addition, it would be useful for ingress LSRs to know each LSR&#39;s capability for reading the maximum label stack depth and performing EL&#45;based load&#45;balancing, referred to as Entropy Readable Label Depth (ERLD). &#160;This document defines a mechanism to signal these two capabilities using IS&#45;IS and Border Gateway Protocol &#45; Link State (BGP&#45;LS)." target="_top">
<ellipse fill="none" stroke="black" cx="708.13" cy="-52.33" rx="178.9" ry="52.33"/>
<text xml:space="preserve" text-anchor="middle" x="708.13" y="-72.03" font-family="Times,serif" font-size="14.00">RFC9088</text>
<text xml:space="preserve" text-anchor="middle" x="708.13" y="-55.53" font-family="Times,serif" font-size="14.00">Signaling Entropy Label Capability and</text>
<text xml:space="preserve" text-anchor="middle" x="708.13" y="-39.03" font-family="Times,serif" font-size="14.00">Entropy Readable Label Depth Using IS&#45;IS</text>
<text xml:space="preserve" text-anchor="middle" x="708.13" y="-22.53" font-family="Times,serif" font-size="14.00">2021</text>
</a>
</g>
</g>
<!-- RFC9088&#45;&gt;rev_cites -->
<g id="edge17" class="edge">
<title>RFC9088&#45;&gt;rev_cites</title>
<path fill="none" stroke="black" d="M851.55,-84.04C865.14,-91.99 877.41,-101.92 887.03,-114.33 922.51,-160.05 934.67,-573.2 937.39,-688.54"/>
<polygon fill="black" stroke="black" points="933.89,-688.5 937.62,-698.42 940.89,-688.34 933.89,-688.5"/>
</g>
<!-- RFC9130 -->
<g id="node16" class="node">
<title>RFC9130</title>
<g id="a_node16"><a xlink:href="RFC9130.html" xlink:title="This document defines a YANG data model that can be used to configure and manage the IS&#45;IS protocol on network elements." target="_top">
<ellipse fill="none" stroke="black" cx="708.13" cy="-1089.33" rx="172.53" ry="40.66"/>
<text xml:space="preserve" text-anchor="middle" x="708.13" y="-1100.78" font-family="Times,serif" font-size="14.00">RFC9130</text>
<text xml:space="preserve" text-anchor="middle" x="708.13" y="-1084.28" font-family="Times,serif" font-size="14.00">YANG Data Model for the IS&#45;IS Protocol</text>
<text xml:space="preserve" text-anchor="middle" x="708.13" y="-1067.78" font-family="Times,serif" font-size="14.00">2022</text>
</a>
</g>
</g>
<!-- RFC9130&#45;&gt;rev_cites -->
<g id="edge18" class="edge">
<title>RFC9130&#45;&gt;rev_cites</title>
<path fill="none" stroke="black" d="M852.03,-1066.68C865.17,-1059.93 877.21,-1051.31 887.03,-1040.33 925.46,-997.35 935.02,-818.87 937.33,-747.76"/>
<polygon fill="black" stroke="black" points="940.81,-748.15 937.61,-738.05 933.82,-747.94 940.81,-748.15"/>
</g>
<!-- RFC9377 -->
<g id="node17" class="node">
<title>RFC9377</title>
<g id="a_node17"><a xlink:href="RFC9377.html" xlink:title="This document describes a backward&#45;compatible, optional IS&#45;IS extension that allows the creation of IS&#45;IS flood reflection topologies. &#160;Flood reflection permits topologies in which IS&#45;IS Level 1 (L1) areas provide transit&#45;forwarding for IS&#45;IS Level 2 (L2) areas using all available L1 nodes internally. &#160;It accomplishes this by creating L2 flood reflection adjacencies within each L1 area. &#160;Those adjacencies are used to flood L2 Link State Protocol Data Units (LSPs) and are used in the L2 Shortest Path First (SPF) computation. &#160;However, they are not ordinarily utilized for forwarding within the flood reflection cluster. &#160;This arrangement gives the L2 topology significantly better scaling properties than prevalently used flat designs. &#160;As an additional benefit, only those routers directly participating in flood reflection are required to support the feature. &#160;This allows for incremental deployment of scalable L1 transit areas in an existing, previously flat network design, without the necessity of upgrading all routers in the network." target="_top">
<ellipse fill="none" stroke="black" cx="708.13" cy="-990.33" rx="98.82" ry="40.66"/>
<text xml:space="preserve" text-anchor="middle" x="708.13" y="-1001.78" font-family="Times,serif" font-size="14.00">RFC9377</text>
<text xml:space="preserve" text-anchor="middle" x="708.13" y="-985.28" font-family="Times,serif" font-size="14.00">IS&#45;IS Flood Reflection</text>
<text xml:space="preserve" text-anchor="middle" x="708.13" y="-968.78" font-family="Times,serif" font-size="14.00">2023</text>
</a>
</g>
</g>
<!-- RFC9377&#45;&gt;rev_cites -->
<g id="edge19" class="edge">
<title>RFC9377&#45;&gt;rev_cites</title>
<path fill="none" stroke="black" d="M804.08,-979.8C834.28,-971.98 865.41,-958.49 887.03,-935.33 912.26,-908.29 928.24,-800.68 934.72,-747.87"/>
<polygon fill="black" stroke="black" points="938.18,-748.44 935.89,-738.09 931.23,-747.61 938.18,-748.44"/>
</g>
</g>
</svg>
