<?xml version="1.0" encoding="UTF-8" standalone="no"?>
<!DOCTYPE svg PUBLIC "-//W3C//DTD SVG 1.1//EN"
 "http://www.w3.org/Graphics/SVG/1.1/DTD/svg11.dtd">
<!-- Generated by graphviz version 14.1.1 (20251213.1925)
 -->
<!-- Title: Flow Pages: 1 -->
<svg width="1400pt" height="824pt"
 viewBox="0.00 0.00 1400.00 824.00" xmlns="http://www.w3.org/2000/svg" xmlns:xlink="http://www.w3.org/1999/xlink">
<g id="graph0" class="graph" transform="scale(1 1) rotate(0) translate(4 819.66)">
<title>Flow</title>
<polygon fill="white" stroke="none" points="-4,4 -4,-819.66 1396.38,-819.66 1396.38,4 -4,4"/>
<!-- RFC5143 -->
<g id="node1" class="node">
<title>RFC5143</title>
<g id="a_node1"><a xlink:title="This document describes a historical method for encapsulating Synchronous Optical Network/Synchronous Digital Hierarchy (SONET/SDH) Path signals for transport across packet&#45;switched networks (PSNs). &#160;The PSNs explicitly supported by this document include MPLS and IP. &#160;Note that RFC 4842 describes the standards&#45;track protocol for this functionality, and new implementations must use RFC 4842 rather than this document except when interoperability with older implementations is desired. &#160;This memo defines a Historic Document for the Internet community.">
<ellipse fill="none" stroke="black" cx="643.41" cy="-398.66" rx="180.49" ry="75.66"/>
<text xml:space="preserve" text-anchor="middle" x="643.41" y="-434.86" font-family="Times,serif" font-size="14.00">RFC5143</text>
<text xml:space="preserve" text-anchor="middle" x="643.41" y="-418.36" font-family="Times,serif" font-size="14.00">Synchronous Optical Network/Synchronous</text>
<text xml:space="preserve" text-anchor="middle" x="643.41" y="-401.86" font-family="Times,serif" font-size="14.00">Digital Hierarchy (SONET/SDH) Circuit</text>
<text xml:space="preserve" text-anchor="middle" x="643.41" y="-385.36" font-family="Times,serif" font-size="14.00">Emulation Service over MPLS (CEM)</text>
<text xml:space="preserve" text-anchor="middle" x="643.41" y="-368.86" font-family="Times,serif" font-size="14.00">Encapsulation</text>
<text xml:space="preserve" text-anchor="middle" x="643.41" y="-352.36" font-family="Times,serif" font-size="14.00">2008</text>
</a>
</g>
</g>
<!-- obs -->
<g id="node4" class="node">
<title>obs</title>
<polygon fill="none" stroke="black" points="915.15,-497.66 848.9,-497.66 848.9,-461.66 915.15,-461.66 915.15,-497.66"/>
<text xml:space="preserve" text-anchor="middle" x="882.03" y="-474.61" font-family="Times,serif" font-size="14.00">obsoletes</text>
</g>
<!-- RFC5143&#45;&gt;obs -->
<g id="edge3" class="edge">
<title>RFC5143&#45;&gt;obs</title>
<path fill="none" stroke="black" d="M784.11,-446.48C803.59,-453.15 822.27,-459.55 837.95,-464.92"/>
<polygon fill="black" stroke="black" points="836.77,-468.21 847.36,-468.14 839.04,-461.59 836.77,-468.21"/>
</g>
<!-- updates -->
<g id="node5" class="node">
<title>updates</title>
<polygon fill="none" stroke="black" points="910.65,-443.66 853.4,-443.66 853.4,-407.66 910.65,-407.66 910.65,-443.66"/>
<text xml:space="preserve" text-anchor="middle" x="882.03" y="-420.61" font-family="Times,serif" font-size="14.00">updates</text>
</g>
<!-- RFC5143&#45;&gt;updates -->
<g id="edge4" class="edge">
<title>RFC5143&#45;&gt;updates</title>
<path fill="none" stroke="black" d="M817.93,-418.46C826.48,-419.44 834.54,-420.36 841.85,-421.19"/>
<polygon fill="black" stroke="black" points="841.22,-424.64 851.55,-422.3 842.01,-417.69 841.22,-424.64"/>
</g>
<!-- cites -->
<g id="node7" class="node">
<title>cites</title>
<polygon fill="none" stroke="black" points="909.03,-389.66 855.03,-389.66 855.03,-353.66 909.03,-353.66 909.03,-389.66"/>
<text xml:space="preserve" text-anchor="middle" x="882.03" y="-366.61" font-family="Times,serif" font-size="14.00">cites</text>
</g>
<!-- RFC5143&#45;&gt;cites -->
<g id="edge6" class="edge">
<title>RFC5143&#45;&gt;cites</title>
<path fill="none" stroke="black" d="M817.93,-378.86C827.05,-377.82 835.6,-376.85 843.29,-375.97"/>
<polygon fill="black" stroke="black" points="843.58,-379.46 853.11,-374.85 842.78,-372.51 843.58,-379.46"/>
</g>
<!-- obs_by -->
<g id="node2" class="node">
<title>obs_by</title>
<polygon fill="none" stroke="black" points="1392.38,-416.66 1326.13,-416.66 1326.13,-380.66 1392.38,-380.66 1392.38,-416.66"/>
<text xml:space="preserve" text-anchor="middle" x="1359.26" y="-393.61" font-family="Times,serif" font-size="14.00">obsoletes</text>
</g>
<!-- obs_by&#45;&gt;RFC5143 -->
<g id="edge1" class="edge">
<title>obs_by&#45;&gt;RFC5143</title>
<path fill="none" stroke="black" d="M1358.07,-380.19C1357.01,-316.22 1349.81,-105.72 1301.13,-64.66 1178.5,38.78 1086.44,1.2 940.15,-64.66 826.99,-115.61 739.62,-233.64 690.1,-314.81"/>
<polygon fill="black" stroke="black" points="687.19,-312.85 685.03,-323.22 693.19,-316.46 687.19,-312.85"/>
</g>
<!-- RFC4842 -->
<g id="node3" class="node">
<title>RFC4842</title>
<g id="a_node3"><a xlink:href="RFC4842.html" xlink:title="This document provides encapsulation formats and semantics for emulating Synchronous Optical Network/Synchronous Digital Hierarchy (SONET/SDH) circuits and services over MPLS. [STANDARDS&#45;TRACK]" target="_top">
<ellipse fill="none" stroke="black" cx="1120.64" cy="-751.66" rx="180.49" ry="63.99"/>
<text xml:space="preserve" text-anchor="middle" x="1120.64" y="-779.61" font-family="Times,serif" font-size="14.00">RFC4842</text>
<text xml:space="preserve" text-anchor="middle" x="1120.64" y="-763.11" font-family="Times,serif" font-size="14.00">Synchronous Optical Network/Synchronous</text>
<text xml:space="preserve" text-anchor="middle" x="1120.64" y="-746.61" font-family="Times,serif" font-size="14.00">Digital Hierarchy (SONET/SDH) Circuit</text>
<text xml:space="preserve" text-anchor="middle" x="1120.64" y="-730.11" font-family="Times,serif" font-size="14.00">Emulation over Packet (CEP)</text>
<text xml:space="preserve" text-anchor="middle" x="1120.64" y="-713.61" font-family="Times,serif" font-size="14.00">2007</text>
</a>
</g>
</g>
<!-- RFC4842&#45;&gt;obs_by -->
<g id="edge2" class="edge">
<title>RFC4842&#45;&gt;obs_by</title>
<path fill="none" stroke="black" d="M1261.52,-711.59C1276.46,-702.7 1290.17,-691.86 1301.13,-678.66 1332.69,-640.65 1349.72,-492.31 1355.73,-428.32"/>
<polygon fill="black" stroke="black" points="1359.19,-428.83 1356.61,-418.56 1352.22,-428.2 1359.19,-428.83"/>
</g>
<!-- updated_by -->
<g id="node6" class="node">
<title>updated_by</title>
<polygon fill="none" stroke="black" points="437.92,-443.66 380.67,-443.66 380.67,-407.66 437.92,-407.66 437.92,-443.66"/>
<text xml:space="preserve" text-anchor="middle" x="409.3" y="-420.61" font-family="Times,serif" font-size="14.00">updates</text>
</g>
<!-- updated_by&#45;&gt;RFC5143 -->
<g id="edge5" class="edge">
<title>updated_by&#45;&gt;RFC5143</title>
<path fill="none" stroke="black" d="M438.3,-422.41C444.07,-421.73 450.56,-420.98 457.56,-420.17"/>
<polygon fill="black" stroke="black" points="457.94,-423.65 467.47,-419.01 457.14,-416.69 457.94,-423.65"/>
</g>
<!-- cites&#45;&gt;RFC4842 -->
<g id="edge11" class="edge">
<title>cites&#45;&gt;RFC4842</title>
<path fill="none" stroke="black" d="M908.99,-390.03C911.4,-392.68 913.54,-395.56 915.15,-398.66 944.03,-454.06 903.01,-628.44 940.15,-678.66 948.04,-689.33 957.77,-698.45 968.57,-706.24"/>
<polygon fill="black" stroke="black" points="966.36,-708.97 976.62,-711.63 970.26,-703.16 966.36,-708.97"/>
</g>
<!-- RFC4023 -->
<g id="node8" class="node">
<title>RFC4023</title>
<g id="a_node8"><a xlink:href="RFC4023.html" xlink:title="Various applications of MPLS make use of label stacks with multiple entries. &#160;In some cases, it is possible to replace the top label of the stack with an IP&#45;based encapsulation, thereby enabling the application to run over networks that do not have MPLS enabled in their core routers. &#160;This document specifies two IP&#45;based encapsulations: MPLS&#45;in&#45;IP and MPLS&#45;in&#45;GRE (Generic Routing Encapsulation). &#160;Each of these is applicable in some circumstances. [STANDARDS&#45;TRACK]" target="_top">
<ellipse fill="none" stroke="black" cx="1120.64" cy="-617.66" rx="157.68" ry="52.33"/>
<text xml:space="preserve" text-anchor="middle" x="1120.64" y="-637.36" font-family="Times,serif" font-size="14.00">RFC4023</text>
<text xml:space="preserve" text-anchor="middle" x="1120.64" y="-620.86" font-family="Times,serif" font-size="14.00">Encapsulating MPLS in IP or Generic</text>
<text xml:space="preserve" text-anchor="middle" x="1120.64" y="-604.36" font-family="Times,serif" font-size="14.00">Routing Encapsulation (GRE)</text>
<text xml:space="preserve" text-anchor="middle" x="1120.64" y="-587.86" font-family="Times,serif" font-size="14.00">2005</text>
</a>
</g>
</g>
<!-- cites&#45;&gt;RFC4023 -->
<g id="edge7" class="edge">
<title>cites&#45;&gt;RFC4023</title>
<path fill="none" stroke="black" d="M908.78,-390.14C911.22,-392.77 913.43,-395.62 915.15,-398.66 949.95,-460.16 894.74,-501.53 940.15,-555.66 950.13,-567.55 962.5,-577.17 976.06,-584.94"/>
<polygon fill="black" stroke="black" points="974.31,-587.97 984.78,-589.57 977.59,-581.79 974.31,-587.97"/>
</g>
<!-- RFC2119 -->
<g id="node9" class="node">
<title>RFC2119</title>
<g id="a_node9"><a xlink:href="RFC2119.html" xlink:title="In many standards track documents several words are used to signify the requirements in the specification. &#160;These words are often capitalized. &#160;This document defines these words as they should be interpreted in IETF documents. &#160;This document specifies an Internet Best Current Practices for the Internet Community, and requests discussion and suggestions for improvements." target="_top">
<ellipse fill="none" stroke="black" cx="1120.64" cy="-494.66" rx="160.34" ry="52.33"/>
<text xml:space="preserve" text-anchor="middle" x="1120.64" y="-514.36" font-family="Times,serif" font-size="14.00">RFC2119</text>
<text xml:space="preserve" text-anchor="middle" x="1120.64" y="-497.86" font-family="Times,serif" font-size="14.00">Key words for use in RFCs to Indicate</text>
<text xml:space="preserve" text-anchor="middle" x="1120.64" y="-481.36" font-family="Times,serif" font-size="14.00">Requirement Levels</text>
<text xml:space="preserve" text-anchor="middle" x="1120.64" y="-464.86" font-family="Times,serif" font-size="14.00">1997</text>
</a>
</g>
</g>
<!-- cites&#45;&gt;RFC2119 -->
<g id="edge8" class="edge">
<title>cites&#45;&gt;RFC2119</title>
<path fill="none" stroke="black" d="M906.11,-389.9C909.26,-392.72 912.36,-395.69 915.15,-398.66 927.98,-412.35 925.05,-421.54 940.15,-432.66 953.44,-442.44 968.39,-450.77 983.84,-457.84"/>
<polygon fill="black" stroke="black" points="982.11,-460.9 992.67,-461.7 984.91,-454.48 982.11,-460.9"/>
</g>
<!-- RFC4447 -->
<g id="node10" class="node">
<title>RFC4447</title>
<g id="a_node10"><a xlink:href="RFC4447.html" xlink:title="Layer 2 services (such as Frame Relay, Asynchronous Transfer Mode, and Ethernet) can be emulated over an MPLS backbone by encapsulating the Layer 2 Protocol Data Units (PDU) and transmitting them over pseudowires. &#160;It is also possible to use pseudowires to provide low&#45;rate Time Division Multiplexed and a Synchronous Optical NETworking circuit emulation over an MPLS&#45;enabled network. &#160;This document specifies a protocol for establishing and maintaining the pseudowires, using extensions to Label Distribution Protocol (LDP). &#160;Procedures for encapsulating Layer 2 PDUs are specified in a set of companion documents. [STANDARDS&#45;TRACK]" target="_top">
<ellipse fill="none" stroke="black" cx="1120.64" cy="-371.66" rx="174.66" ry="52.33"/>
<text xml:space="preserve" text-anchor="middle" x="1120.64" y="-391.36" font-family="Times,serif" font-size="14.00">RFC4447</text>
<text xml:space="preserve" text-anchor="middle" x="1120.64" y="-374.86" font-family="Times,serif" font-size="14.00">Pseudowire Setup and Maintenance Using</text>
<text xml:space="preserve" text-anchor="middle" x="1120.64" y="-358.36" font-family="Times,serif" font-size="14.00">the Label Distribution Protocol (LDP)</text>
<text xml:space="preserve" text-anchor="middle" x="1120.64" y="-341.86" font-family="Times,serif" font-size="14.00">2006</text>
</a>
</g>
</g>
<!-- cites&#45;&gt;RFC4447 -->
<g id="edge9" class="edge">
<title>cites&#45;&gt;RFC4447</title>
<path fill="none" stroke="black" d="M909.25,-371.66C916.52,-371.66 924.99,-371.66 934.3,-371.66"/>
<polygon fill="black" stroke="black" points="934.06,-375.16 944.06,-371.66 934.06,-368.16 934.06,-375.16"/>
</g>
<!-- RFC4928 -->
<g id="node11" class="node">
<title>RFC4928</title>
<g id="a_node11"><a xlink:href="RFC4928.html" xlink:title="This document describes the Equal Cost Multipath (ECMP) behavior of currently deployed MPLS networks. &#160;This document makes best practice recommendations for anyone defining an application to run over an MPLS network that wishes to avoid the reordering that can result from transmission of different packets from the same flow over multiple different equal cost paths. &#160;These recommendations rely on inspection of the IP version number field in packets. &#160;Despite the heuristic nature of the recommendations, they provide a relatively safe way to operate MPLS networks, even if future allocations of IP version numbers were made for some purpose. &#160;This document specifies an Internet Best Current Practices for the Internet Community, and requests discussion and suggestions for improvements." target="_top">
<ellipse fill="none" stroke="black" cx="1120.64" cy="-248.66" rx="175.19" ry="52.33"/>
<text xml:space="preserve" text-anchor="middle" x="1120.64" y="-268.36" font-family="Times,serif" font-size="14.00">RFC4928</text>
<text xml:space="preserve" text-anchor="middle" x="1120.64" y="-251.86" font-family="Times,serif" font-size="14.00">Avoiding Equal Cost Multipath Treatment</text>
<text xml:space="preserve" text-anchor="middle" x="1120.64" y="-235.36" font-family="Times,serif" font-size="14.00">in MPLS Networks</text>
<text xml:space="preserve" text-anchor="middle" x="1120.64" y="-218.86" font-family="Times,serif" font-size="14.00">2007</text>
</a>
</g>
</g>
<!-- cites&#45;&gt;RFC4928 -->
<g id="edge10" class="edge">
<title>cites&#45;&gt;RFC4928</title>
<path fill="none" stroke="black" d="M896.2,-353.38C906.74,-339.91 922.62,-322.03 940.15,-310.66 952.84,-302.44 966.74,-295.16 981.02,-288.77"/>
<polygon fill="black" stroke="black" points="982.28,-292.04 990.08,-284.87 979.51,-285.61 982.28,-292.04"/>
</g>
<!-- RFC3985 -->
<g id="node12" class="node">
<title>RFC3985</title>
<g id="a_node12"><a xlink:href="RFC3985.html" xlink:title="This document describes an architecture for Pseudo Wire Emulation Edge&#45;to&#45;Edge (PWE3). &#160;It discusses the emulation of services such as Frame Relay, ATM, Ethernet, TDM, and SONET/SDH over packet switched networks (PSNs) using IP or MPLS. &#160;It presents the architectural framework for pseudo wires (PWs), defines terminology, and specifies the various protocol elements and their functions. &#160;This memo provides information for the Internet community." target="_top">
<ellipse fill="none" stroke="black" cx="1120.64" cy="-125.66" rx="158.75" ry="52.33"/>
<text xml:space="preserve" text-anchor="middle" x="1120.64" y="-145.36" font-family="Times,serif" font-size="14.00">RFC3985</text>
<text xml:space="preserve" text-anchor="middle" x="1120.64" y="-128.86" font-family="Times,serif" font-size="14.00">Pseudo Wire Emulation Edge&#45;to&#45;Edge</text>
<text xml:space="preserve" text-anchor="middle" x="1120.64" y="-112.36" font-family="Times,serif" font-size="14.00">(PWE3) Architecture</text>
<text xml:space="preserve" text-anchor="middle" x="1120.64" y="-95.86" font-family="Times,serif" font-size="14.00">2005</text>
</a>
</g>
</g>
<!-- cites&#45;&gt;RFC3985 -->
<g id="edge12" class="edge">
<title>cites&#45;&gt;RFC3985</title>
<path fill="none" stroke="black" d="M883.48,-353.28C885.38,-316.75 894.77,-234.51 940.15,-187.66 950.95,-176.52 963.85,-167.37 977.71,-159.87"/>
<polygon fill="black" stroke="black" points="979.25,-163.01 986.6,-155.38 976.1,-156.77 979.25,-163.01"/>
</g>
<!-- rev_cites -->
<g id="node13" class="node">
<title>rev_cites</title>
<polygon fill="none" stroke="black" points="436.3,-389.66 382.3,-389.66 382.3,-353.66 436.3,-353.66 436.3,-389.66"/>
<text xml:space="preserve" text-anchor="middle" x="409.3" y="-366.61" font-family="Times,serif" font-size="14.00">cites</text>
</g>
<!-- rev_cites&#45;&gt;RFC5143 -->
<g id="edge13" class="edge">
<title>rev_cites&#45;&gt;RFC5143</title>
<path fill="none" stroke="black" d="M436.47,-374.71C442.83,-375.45 450.12,-376.3 458.07,-377.22"/>
<polygon fill="black" stroke="black" points="457.45,-380.67 467.79,-378.35 458.26,-373.72 457.45,-380.67"/>
</g>
<!-- RFC5741 -->
<g id="node14" class="node">
<title>RFC5741</title>
<g id="a_node14"><a xlink:href="RFC5741.html" xlink:title="RFC documents contain a number of fixed elements such as the title page header, standard boilerplates, and copyright/IPR statements. &#160;This document describes them and introduces some updates to reflect current usage and requirements of RFC publication. &#160;In particular, this updated structure is intended to communicate clearly the source of RFC creation and review. &#160;This document is not an Internet Standards Track specification; it is published for informational purposes." target="_top">
<ellipse fill="none" stroke="black" cx="177.84" cy="-470.66" rx="167.76" ry="40.66"/>
<text xml:space="preserve" text-anchor="middle" x="177.84" y="-482.11" font-family="Times,serif" font-size="14.00">RFC5741</text>
<text xml:space="preserve" text-anchor="middle" x="177.84" y="-465.61" font-family="Times,serif" font-size="14.00">RFC Streams, Headers, and Boilerplates</text>
<text xml:space="preserve" text-anchor="middle" x="177.84" y="-449.11" font-family="Times,serif" font-size="14.00">2009</text>
</a>
</g>
</g>
<!-- RFC5741&#45;&gt;rev_cites -->
<g id="edge14" class="edge">
<title>RFC5741&#45;&gt;rev_cites</title>
<path fill="none" stroke="black" d="M305.1,-443.92C322.65,-437.87 340.01,-430.53 355.67,-421.66 357.33,-420.72 369.19,-409.49 381.23,-397.91"/>
<polygon fill="black" stroke="black" points="383.62,-400.47 388.39,-391.01 378.76,-395.44 383.62,-400.47"/>
</g>
<!-- RFC7841 -->
<g id="node15" class="node">
<title>RFC7841</title>
<g id="a_node15"><a xlink:href="RFC7841.html" xlink:title="RFC documents contain a number of fixed elements such as the title page header, standard boilerplates, and copyright/IPR statements. &#160;This document describes them and introduces some updates to reflect current usage and requirements of RFC publication. &#160;In particular, this updated structure is intended to communicate clearly the source of RFC creation and review. &#160;This document obsoletes RFC 5741, moving detailed content to an IAB web page and preparing for more flexible output formats." target="_top">
<ellipse fill="none" stroke="black" cx="177.84" cy="-371.66" rx="167.76" ry="40.66"/>
<text xml:space="preserve" text-anchor="middle" x="177.84" y="-383.11" font-family="Times,serif" font-size="14.00">RFC7841</text>
<text xml:space="preserve" text-anchor="middle" x="177.84" y="-366.61" font-family="Times,serif" font-size="14.00">RFC Streams, Headers, and Boilerplates</text>
<text xml:space="preserve" text-anchor="middle" x="177.84" y="-350.11" font-family="Times,serif" font-size="14.00">2016</text>
</a>
</g>
</g>
<!-- RFC7841&#45;&gt;rev_cites -->
<g id="edge15" class="edge">
<title>RFC7841&#45;&gt;rev_cites</title>
<path fill="none" stroke="black" d="M345.9,-371.66C354.7,-371.66 362.97,-371.66 370.44,-371.66"/>
<polygon fill="black" stroke="black" points="370.32,-375.16 380.32,-371.66 370.32,-368.16 370.32,-375.16"/>
</g>
<!-- RFC9291 -->
<g id="node16" class="node">
<title>RFC9291</title>
<g id="a_node16"><a xlink:href="RFC9291.html" xlink:title="This document defines an L2VPN Network Model (L2NM) that can be used to manage the provisioning of Layer 2 Virtual Private Network (L2VPN) services within a network (e.g., a service provider network). The L2NM complements the L2VPN Service Model (L2SM) by providing a network&#45;centric view of the service that is internal to a service provider. The L2NM is particularly meant to be used by a network controller to derive the configuration information that will be sent to relevant network devices. Also, this document defines a YANG module to manage Ethernet segments and the initial versions of two IANA&#45;maintained modules that include a set of identities of BGP Layer 2 encapsulation types and pseudowire types." target="_top">
<ellipse fill="none" stroke="black" cx="177.84" cy="-260.66" rx="177.84" ry="52.33"/>
<text xml:space="preserve" text-anchor="middle" x="177.84" y="-280.36" font-family="Times,serif" font-size="14.00">RFC9291</text>
<text xml:space="preserve" text-anchor="middle" x="177.84" y="-263.86" font-family="Times,serif" font-size="14.00">A YANG Network Data Model for Layer 2</text>
<text xml:space="preserve" text-anchor="middle" x="177.84" y="-247.36" font-family="Times,serif" font-size="14.00">VPNs</text>
<text xml:space="preserve" text-anchor="middle" x="177.84" y="-230.86" font-family="Times,serif" font-size="14.00">2022</text>
</a>
</g>
</g>
<!-- RFC9291&#45;&gt;rev_cites -->
<g id="edge16" class="edge">
<title>RFC9291&#45;&gt;rev_cites</title>
<path fill="none" stroke="black" d="M306,-297.08C323.23,-304.14 340.27,-312.3 355.67,-321.66 366.18,-328.04 376.31,-336.82 384.84,-345.23"/>
<polygon fill="black" stroke="black" points="382.25,-347.6 391.73,-352.35 387.28,-342.73 382.25,-347.6"/>
</g>
</g>
</svg>
