<?xml version="1.0" encoding="UTF-8" standalone="no"?>
<!DOCTYPE svg PUBLIC "-//W3C//DTD SVG 1.1//EN"
 "http://www.w3.org/Graphics/SVG/1.1/DTD/svg11.dtd">
<!-- Generated by graphviz version 14.1.1 (20251213.1925)
 -->
<!-- Title: Flow Pages: 1 -->
<svg width="1334pt" height="1395pt"
 viewBox="0.00 0.00 1334.00 1395.00" xmlns="http://www.w3.org/2000/svg" xmlns:xlink="http://www.w3.org/1999/xlink">
<g id="graph0" class="graph" transform="scale(1 1) rotate(0) translate(4 1390.8)">
<title>Flow</title>
<polygon fill="white" stroke="none" points="-4,4 -4,-1390.8 1329.89,-1390.8 1329.89,4 -4,4"/>
<!-- RFC5605 -->
<g id="node1" class="node">
<title>RFC5605</title>
<g id="a_node1"><a xlink:title="This memo defines a portion of the Management Information Base (MIB) for use with network management protocols in the Internet community. &#160;In particular, it describes managed objects for modeling ATM Pseudowire (PW) carrying ATM cells over Packet Switched Networks (PSNs). [STANDARDS&#45;TRACK]">
<ellipse fill="green" stroke="black" stroke-width="3" cx="922.64" cy="-547.02" rx="211.78" ry="65.05"/>
<text xml:space="preserve" text-anchor="middle" x="922.64" y="-571.92" font-family="Times,serif" font-size="18.00">RFC5605</text>
<text xml:space="preserve" text-anchor="middle" x="922.64" y="-550.92" font-family="Times,serif" font-size="18.00">Managed Objects for ATM over Packet</text>
<text xml:space="preserve" text-anchor="middle" x="922.64" y="-529.92" font-family="Times,serif" font-size="18.00">Switched Networks (PSNs)</text>
<text xml:space="preserve" text-anchor="middle" x="922.64" y="-508.92" font-family="Times,serif" font-size="18.00">2009</text>
</a>
</g>
</g>
<!-- obs -->
<g id="node3" class="node">
<title>obs</title>
<polygon fill="lightblue" stroke="black" points="1325.89,-699.73 1259.64,-699.73 1259.64,-663.73 1325.89,-663.73 1325.89,-699.73"/>
<text xml:space="preserve" text-anchor="middle" x="1292.76" y="-676.68" font-family="Times,serif" font-size="14.00">obsoletes</text>
</g>
<!-- RFC5605&#45;&gt;obs -->
<g id="edge2" class="edge">
<title>RFC5605&#45;&gt;obs</title>
<path fill="none" stroke="black" d="M1061.25,-597.47C1127.61,-621.62 1202.49,-648.88 1248.66,-665.68"/>
<polygon fill="black" stroke="black" points="1247.46,-668.97 1258.05,-669.1 1249.85,-662.39 1247.46,-668.97"/>
</g>
<!-- updates -->
<g id="node4" class="node">
<title>updates</title>
<polygon fill="lightyellow" stroke="black" points="1148.2,-906.13 1090.95,-906.13 1090.95,-870.13 1148.2,-870.13 1148.2,-906.13"/>
<text xml:space="preserve" text-anchor="middle" x="1119.58" y="-883.08" font-family="Times,serif" font-size="14.00">updates</text>
</g>
<!-- RFC5605&#45;&gt;updates -->
<g id="edge3" class="edge">
<title>RFC5605&#45;&gt;updates</title>
<path fill="none" stroke="black" d="M960.38,-612.39C1003.52,-687.11 1072.17,-806.02 1103.29,-859.92"/>
<polygon fill="black" stroke="black" points="1100.21,-861.58 1108.24,-868.49 1106.27,-858.08 1100.21,-861.58"/>
</g>
<!-- cites -->
<g id="node6" class="node">
<title>cites</title>
<polygon fill="lightblue" stroke="black" points="579.51,-699.73 525.51,-699.73 525.51,-663.73 579.51,-663.73 579.51,-699.73"/>
<text xml:space="preserve" text-anchor="middle" x="552.51" y="-676.68" font-family="Times,serif" font-size="14.00">cites</text>
</g>
<!-- RFC5605&#45;&gt;cites -->
<g id="edge5" class="edge">
<title>RFC5605&#45;&gt;cites</title>
<path fill="none" stroke="black" d="M784.03,-597.47C714.64,-622.73 635.93,-651.37 590.47,-667.92"/>
<polygon fill="black" stroke="black" points="589.55,-664.53 581.35,-671.24 591.95,-671.11 589.55,-664.53"/>
</g>
<!-- obs_by -->
<g id="node2" class="node">
<title>obs_by</title>
<polygon fill="lightblue" stroke="black" points="887.37,-177.12 821.12,-177.12 821.12,-141.12 887.37,-141.12 887.37,-177.12"/>
<text xml:space="preserve" text-anchor="middle" x="854.24" y="-154.07" font-family="Times,serif" font-size="14.00">obsoletes</text>
</g>
<!-- obs_by&#45;&gt;RFC5605 -->
<g id="edge1" class="edge">
<title>obs_by&#45;&gt;RFC5605</title>
<path fill="none" stroke="black" d="M857.5,-177.57C866.59,-229.17 892.7,-377.22 908.97,-469.48"/>
<polygon fill="black" stroke="black" points="905.5,-469.99 910.69,-479.23 912.4,-468.78 905.5,-469.99"/>
</g>
<!-- updated_by -->
<g id="node5" class="node">
<title>updated_by</title>
<polygon fill="lightyellow" stroke="black" points="1148.2,-223.91 1090.95,-223.91 1090.95,-187.91 1148.2,-187.91 1148.2,-223.91"/>
<text xml:space="preserve" text-anchor="middle" x="1119.58" y="-200.86" font-family="Times,serif" font-size="14.00">updates</text>
</g>
<!-- updated_by&#45;&gt;RFC5605 -->
<g id="edge4" class="edge">
<title>updated_by&#45;&gt;RFC5605</title>
<path fill="none" stroke="black" d="M1108.99,-224.25C1082.5,-270.13 1012.19,-391.92 965.91,-472.08"/>
<polygon fill="black" stroke="black" points="963.11,-469.92 961.14,-480.33 969.17,-473.42 963.11,-469.92"/>
</g>
<!-- RFC3410 -->
<g id="node7" class="node">
<title>RFC3410</title>
<g id="a_node7"><a xlink:href="RFC3410.html" xlink:title="The purpose of this document is to provide an overview of the third version of the Internet&#45;Standard Management Framework, termed the SNMP version 3 Framework (SNMPv3). &#160;This Framework is derived from and builds upon both the original Internet&#45;Standard Management Framework (SNMPv1) and the second Internet&#45;Standard Management Framework (SNMPv2). &#160;The architecture is designed to be modular to allow the evolution of the Framework over time. &#160;The document explains why using SNMPv3 instead of SNMPv1 or SNMPv2 is strongly recommended. &#160;The document also recommends that RFCs 1157, 1441, 1901, 1909 and 1910 be retired by moving them to Historic status. &#160;This document obsoletes RFC 2570. &#160;This memo provides information for the Internet community." target="_top">
<ellipse fill="none" stroke="black" cx="785.85" cy="-1322.81" rx="137" ry="63.99"/>
<text xml:space="preserve" text-anchor="middle" x="785.85" y="-1350.76" font-family="Times,serif" font-size="14.00">RFC3410</text>
<text xml:space="preserve" text-anchor="middle" x="785.85" y="-1334.26" font-family="Times,serif" font-size="14.00">Introduction and Applicability</text>
<text xml:space="preserve" text-anchor="middle" x="785.85" y="-1317.76" font-family="Times,serif" font-size="14.00">Statements for Internet&#45;Standard</text>
<text xml:space="preserve" text-anchor="middle" x="785.85" y="-1301.26" font-family="Times,serif" font-size="14.00">Management Framework</text>
<text xml:space="preserve" text-anchor="middle" x="785.85" y="-1284.76" font-family="Times,serif" font-size="14.00">2002</text>
</a>
</g>
</g>
<!-- cites&#45;&gt;RFC3410 -->
<g id="edge6" class="edge">
<title>cites&#45;&gt;RFC3410</title>
<path fill="none" stroke="black" d="M559.25,-700.23C588.48,-780.54 705.33,-1101.6 758.84,-1248.62"/>
<polygon fill="black" stroke="black" points="755.51,-1249.7 762.22,-1257.9 762.09,-1247.3 755.51,-1249.7"/>
</g>
<!-- RFC2578 -->
<g id="node8" class="node">
<title>RFC2578</title>
<g id="a_node8"><a xlink:href="RFC2578.html" xlink:title="It is the purpose of this document, the Structure of Management Information Version 2 (SMIv2), to define that adapted subset, and to assign a set of associated administrative values. [STANDARDS&#45;TRACK]" target="_top">
<ellipse fill="none" stroke="black" cx="319.18" cy="-1053.38" rx="159.28" ry="52.33"/>
<text xml:space="preserve" text-anchor="middle" x="319.18" y="-1073.08" font-family="Times,serif" font-size="14.00">RFC2578</text>
<text xml:space="preserve" text-anchor="middle" x="319.18" y="-1056.58" font-family="Times,serif" font-size="14.00">Structure of Management Information</text>
<text xml:space="preserve" text-anchor="middle" x="319.18" y="-1040.08" font-family="Times,serif" font-size="14.00">Version 2 (SMIv2)</text>
<text xml:space="preserve" text-anchor="middle" x="319.18" y="-1023.58" font-family="Times,serif" font-size="14.00">1999</text>
</a>
</g>
</g>
<!-- cites&#45;&gt;RFC2578 -->
<g id="edge7" class="edge">
<title>cites&#45;&gt;RFC2578</title>
<path fill="none" stroke="black" d="M540.94,-700.16C507.87,-752.84 411.84,-905.79 357.62,-992.16"/>
<polygon fill="black" stroke="black" points="354.7,-990.22 352.35,-1000.55 360.63,-993.94 354.7,-990.22"/>
</g>
<!-- RFC2579 -->
<g id="node9" class="node">
<title>RFC2579</title>
<g id="a_node9"><a xlink:href="RFC2579.html" xlink:title="It is the purpose of this document to define the initial set of textual conventions available to all MIB modules. [STANDARDS&#45;TRACK]" target="_top">
<ellipse fill="none" stroke="black" cx="134.88" cy="-547.02" rx="134.88" ry="40.66"/>
<text xml:space="preserve" text-anchor="middle" x="134.88" y="-558.47" font-family="Times,serif" font-size="14.00">RFC2579</text>
<text xml:space="preserve" text-anchor="middle" x="134.88" y="-541.97" font-family="Times,serif" font-size="14.00">Textual Conventions for SMIv2</text>
<text xml:space="preserve" text-anchor="middle" x="134.88" y="-525.47" font-family="Times,serif" font-size="14.00">1999</text>
</a>
</g>
</g>
<!-- cites&#45;&gt;RFC2579 -->
<g id="edge8" class="edge">
<title>cites&#45;&gt;RFC2579</title>
<path fill="none" stroke="black" d="M525.11,-672.9C467.97,-654.46 333.53,-611.1 238.47,-580.44"/>
<polygon fill="black" stroke="black" points="239.7,-577.15 229.1,-577.41 237.55,-583.81 239.7,-577.15"/>
</g>
<!-- RFC2580 -->
<g id="node10" class="node">
<title>RFC2580</title>
<g id="a_node10"><a xlink:href="RFC2580.html" xlink:title="Collections of related objects are defined in MIB modules. &#160;It may be useful to define the acceptable lower&#45;bounds of implementation, along with the actual level of implementation achieved. &#160;It is the purpose of this document to define the notation used for these purposes. [STANDARDS&#45;TRACK]" target="_top">
<ellipse fill="none" stroke="black" cx="319.18" cy="-40.66" rx="152.38" ry="40.66"/>
<text xml:space="preserve" text-anchor="middle" x="319.18" y="-52.11" font-family="Times,serif" font-size="14.00">RFC2580</text>
<text xml:space="preserve" text-anchor="middle" x="319.18" y="-35.61" font-family="Times,serif" font-size="14.00">Conformance Statements for SMIv2</text>
<text xml:space="preserve" text-anchor="middle" x="319.18" y="-19.11" font-family="Times,serif" font-size="14.00">1999</text>
</a>
</g>
</g>
<!-- cites&#45;&gt;RFC2580 -->
<g id="edge9" class="edge">
<title>cites&#45;&gt;RFC2580</title>
<path fill="none" stroke="black" d="M545.78,-663.24C514.93,-578.48 386.47,-225.54 337.9,-92.08"/>
<polygon fill="black" stroke="black" points="341.22,-90.98 334.51,-82.78 334.64,-93.37 341.22,-90.98"/>
</g>
<!-- rev_cites -->
<g id="node11" class="node">
<title>rev_cites</title>
<polygon fill="lightblue" stroke="black" points="1319.76,-430.31 1265.76,-430.31 1265.76,-394.31 1319.76,-394.31 1319.76,-430.31"/>
<text xml:space="preserve" text-anchor="middle" x="1292.76" y="-407.26" font-family="Times,serif" font-size="14.00">cites</text>
</g>
<!-- rev_cites&#45;&gt;RFC5605 -->
<g id="edge10" class="edge">
<title>rev_cites&#45;&gt;RFC5605</title>
<path fill="none" stroke="black" d="M1265.55,-422.21C1224.66,-437.1 1144.4,-466.31 1071.81,-492.73"/>
<polygon fill="black" stroke="black" points="1070.78,-489.38 1062.58,-496.08 1073.18,-495.95 1070.78,-489.38"/>
</g>
</g>
</svg>
