<?xml version="1.0" encoding="UTF-8" standalone="no"?>
<!DOCTYPE svg PUBLIC "-//W3C//DTD SVG 1.1//EN"
 "http://www.w3.org/Graphics/SVG/1.1/DTD/svg11.dtd">
<!-- Generated by graphviz version 14.1.1 (20251213.1925)
 -->
<!-- Title: Flow Pages: 1 -->
<svg width="902pt" height="381pt"
 viewBox="0.00 0.00 902.00 381.00" xmlns="http://www.w3.org/2000/svg" xmlns:xlink="http://www.w3.org/1999/xlink">
<g id="graph0" class="graph" transform="scale(1 1) rotate(0) translate(4 377.32)">
<title>Flow</title>
<polygon fill="white" stroke="none" points="-4,4 -4,-377.32 898.45,-377.32 898.45,4 -4,4"/>
<!-- RFC5194 -->
<g id="node1" class="node">
<title>RFC5194</title>
<g id="a_node1"><a xlink:title="This document lists the essential requirements for real&#45;time Text&#45;over&#45;IP (ToIP) and defines a framework for implementation of all required functions based on the Session Initiation Protocol (SIP) and the Real&#45;Time Transport Protocol (RTP). &#160;This includes interworking between Text&#45;over&#45;IP and existing text telephony on the Public Switched Telephone Network (PSTN) and other networks. &#160;This memo provides information for the Internet community.">
<ellipse fill="none" stroke="black" cx="639.16" cy="-251.99" rx="164.05" ry="63.99"/>
<text xml:space="preserve" text-anchor="middle" x="639.16" y="-279.94" font-family="Times,serif" font-size="14.00">RFC5194</text>
<text xml:space="preserve" text-anchor="middle" x="639.16" y="-263.44" font-family="Times,serif" font-size="14.00">Framework for Real&#45;Time Text over IP</text>
<text xml:space="preserve" text-anchor="middle" x="639.16" y="-246.94" font-family="Times,serif" font-size="14.00">Using the Session Initiation Protocol</text>
<text xml:space="preserve" text-anchor="middle" x="639.16" y="-230.44" font-family="Times,serif" font-size="14.00">(SIP)</text>
<text xml:space="preserve" text-anchor="middle" x="639.16" y="-213.94" font-family="Times,serif" font-size="14.00">2008</text>
</a>
</g>
</g>
<!-- obs -->
<g id="node3" class="node">
<title>obs</title>
<polygon fill="none" stroke="black" points="894.45,-323.99 828.2,-323.99 828.2,-287.99 894.45,-287.99 894.45,-323.99"/>
<text xml:space="preserve" text-anchor="middle" x="861.33" y="-300.94" font-family="Times,serif" font-size="14.00">obsoletes</text>
</g>
<!-- RFC5194&#45;&gt;obs -->
<g id="edge2" class="edge">
<title>RFC5194&#45;&gt;obs</title>
<path fill="none" stroke="black" d="M778.66,-285.96C792.35,-289.32 805.42,-292.53 816.92,-295.35"/>
<polygon fill="black" stroke="black" points="815.86,-298.69 826.41,-297.67 817.53,-291.89 815.86,-298.69"/>
</g>
<!-- updates -->
<g id="node4" class="node">
<title>updates</title>
<polygon fill="none" stroke="black" points="889.95,-269.99 832.7,-269.99 832.7,-233.99 889.95,-233.99 889.95,-269.99"/>
<text xml:space="preserve" text-anchor="middle" x="861.33" y="-246.94" font-family="Times,serif" font-size="14.00">updates</text>
</g>
<!-- RFC5194&#45;&gt;updates -->
<g id="edge3" class="edge">
<title>RFC5194&#45;&gt;updates</title>
<path fill="none" stroke="black" d="M803.63,-251.99C809.78,-251.99 815.64,-251.99 821.09,-251.99"/>
<polygon fill="black" stroke="black" points="820.83,-255.49 830.83,-251.99 820.83,-248.49 820.83,-255.49"/>
</g>
<!-- cites -->
<g id="node6" class="node">
<title>cites</title>
<polygon fill="none" stroke="black" points="888.33,-215.99 834.33,-215.99 834.33,-179.99 888.33,-179.99 888.33,-215.99"/>
<text xml:space="preserve" text-anchor="middle" x="861.33" y="-192.94" font-family="Times,serif" font-size="14.00">cites</text>
</g>
<!-- RFC5194&#45;&gt;cites -->
<g id="edge5" class="edge">
<title>RFC5194&#45;&gt;cites</title>
<path fill="none" stroke="black" d="M778.66,-218.02C794.75,-214.08 809.97,-210.34 822.81,-207.19"/>
<polygon fill="black" stroke="black" points="823.55,-210.62 832.43,-204.84 821.88,-203.82 823.55,-210.62"/>
</g>
<!-- obs_by -->
<g id="node2" class="node">
<title>obs_by</title>
<polygon fill="none" stroke="black" points="450.11,-323.99 383.86,-323.99 383.86,-287.99 450.11,-287.99 450.11,-323.99"/>
<text xml:space="preserve" text-anchor="middle" x="416.98" y="-300.94" font-family="Times,serif" font-size="14.00">obsoletes</text>
</g>
<!-- obs_by&#45;&gt;RFC5194 -->
<g id="edge1" class="edge">
<title>obs_by&#45;&gt;RFC5194</title>
<path fill="none" stroke="black" d="M450.47,-298.03C461.43,-295.34 474.48,-292.14 488.52,-288.69"/>
<polygon fill="black" stroke="black" points="489.09,-292.16 497.96,-286.38 487.42,-285.36 489.09,-292.16"/>
</g>
<!-- updated_by -->
<g id="node5" class="node">
<title>updated_by</title>
<polygon fill="none" stroke="black" points="445.61,-269.99 388.36,-269.99 388.36,-233.99 445.61,-233.99 445.61,-269.99"/>
<text xml:space="preserve" text-anchor="middle" x="416.98" y="-246.94" font-family="Times,serif" font-size="14.00">updates</text>
</g>
<!-- updated_by&#45;&gt;RFC5194 -->
<g id="edge4" class="edge">
<title>updated_by&#45;&gt;RFC5194</title>
<path fill="none" stroke="black" d="M445.87,-251.99C451.2,-251.99 457.14,-251.99 463.52,-251.99"/>
<polygon fill="black" stroke="black" points="463.15,-255.49 473.15,-251.99 463.15,-248.49 463.15,-255.49"/>
</g>
<!-- rev_cites -->
<g id="node7" class="node">
<title>rev_cites</title>
<polygon fill="none" stroke="black" points="443.98,-215.99 389.98,-215.99 389.98,-179.99 443.98,-179.99 443.98,-215.99"/>
<text xml:space="preserve" text-anchor="middle" x="416.98" y="-192.94" font-family="Times,serif" font-size="14.00">cites</text>
</g>
<!-- rev_cites&#45;&gt;RFC5194 -->
<g id="edge6" class="edge">
<title>rev_cites&#45;&gt;RFC5194</title>
<path fill="none" stroke="black" d="M444.1,-204.4C456.27,-207.38 471.81,-211.2 488.78,-215.36"/>
<polygon fill="black" stroke="black" points="487.5,-218.65 498.05,-217.63 489.17,-211.85 487.5,-218.65"/>
</g>
<!-- RFC6881 -->
<g id="node8" class="node">
<title>RFC6881</title>
<g id="a_node8"><a xlink:href="RFC6881.html" xlink:title="The IETF and other standards organizations have efforts targeted at standardizing various aspects of placing emergency calls on IP networks. &#160;This memo describes best current practice on how devices, networks, and services using IETF protocols should use such standards to make emergency calls." target="_top">
<ellipse fill="none" stroke="black" cx="179.43" cy="-320.99" rx="176.25" ry="52.33"/>
<text xml:space="preserve" text-anchor="middle" x="179.43" y="-340.69" font-family="Times,serif" font-size="14.00">RFC6881</text>
<text xml:space="preserve" text-anchor="middle" x="179.43" y="-324.19" font-family="Times,serif" font-size="14.00">Best Current Practice for Communications</text>
<text xml:space="preserve" text-anchor="middle" x="179.43" y="-307.69" font-family="Times,serif" font-size="14.00">Services in Support of Emergency Calling</text>
<text xml:space="preserve" text-anchor="middle" x="179.43" y="-291.19" font-family="Times,serif" font-size="14.00">2013</text>
</a>
</g>
</g>
<!-- RFC6881&#45;&gt;rev_cites -->
<g id="edge7" class="edge">
<title>RFC6881&#45;&gt;rev_cites</title>
<path fill="none" stroke="black" d="M311.31,-285.95C328.13,-278.51 344.47,-269.6 358.86,-258.99 373.95,-247.86 371.03,-238.68 383.86,-224.99 384.12,-224.71 384.38,-224.44 384.65,-224.16"/>
<polygon fill="black" stroke="black" points="387.02,-226.73 391.81,-217.28 382.17,-221.68 387.02,-226.73"/>
</g>
<!-- RFC9071 -->
<g id="node9" class="node">
<title>RFC9071</title>
<g id="a_node9"><a xlink:href="RFC9071.html" xlink:title="This document provides enhancements of real&#45;time text (as specified in RFC 4103) suitable for mixing in a centralized conference model, enabling source identification and rapidly interleaved transmission of text from different sources. The intended use is for real&#45;time text mixers and participant endpoints capable of providing an efficient presentation or other treatment of a multiparty real&#45;time text session. The specified mechanism builds on the standard use of the Contributing Source (CSRC) list in the Real&#45;time Transport Protocol (RTP) packet for source identification. The method makes use of the same text/t140 and text/red formats as for two&#45;party sessions. Solutions using multiple RTP streams in the same RTP session are briefly mentioned, as they could have some benefits over the RTP&#45;mixer model. The RTP&#45;mixer model was selected to be used for the fully specified solution in this document because it can be applied to a wide range of existing RTP implementations. A capability exchange is specified so that it can be verified that a mixer and a participant can handle the multiparty&#45;coded real&#45;time text stream using the RTP&#45;mixer method. The capability is indicated by the use of a Session Description Protocol (SDP) (RFC 8866) media attribute, rtt&#45;mixer. This document updates RFC 4103 (RTP Payload for Text Conversation). A specification for how a mixer can format text for the case when the endpoint is not multiparty aware is also provided." target="_top">
<ellipse fill="none" stroke="black" cx="179.43" cy="-197.99" rx="179.43" ry="52.33"/>
<text xml:space="preserve" text-anchor="middle" x="179.43" y="-217.69" font-family="Times,serif" font-size="14.00">RFC9071</text>
<text xml:space="preserve" text-anchor="middle" x="179.43" y="-201.19" font-family="Times,serif" font-size="14.00">RTP&#45;Mixer Formatting of Multiparty Real&#45;</text>
<text xml:space="preserve" text-anchor="middle" x="179.43" y="-184.69" font-family="Times,serif" font-size="14.00">Time Text</text>
<text xml:space="preserve" text-anchor="middle" x="179.43" y="-168.19" font-family="Times,serif" font-size="14.00">2021</text>
</a>
</g>
</g>
<!-- RFC9071&#45;&gt;rev_cites -->
<g id="edge8" class="edge">
<title>RFC9071&#45;&gt;rev_cites</title>
<path fill="none" stroke="black" d="M359.26,-197.99C366.01,-197.99 372.39,-197.99 378.27,-197.99"/>
<polygon fill="black" stroke="black" points="378.06,-201.49 388.06,-197.99 378.06,-194.49 378.06,-201.49"/>
</g>
<!-- RFC9475 -->
<g id="node10" class="node">
<title>RFC9475</title>
<g id="a_node10"><a xlink:href="RFC9475.html" xlink:title="Secure Telephone Identity Revisited (STIR) provides a means of attesting the identity of a telephone caller via a signed token in order to prevent impersonation of a calling party number, which is a key enabler for illegal robocalling. &#160;Similar impersonation is sometimes leveraged by bad actors in the text and multimedia messaging space. &#160;This document explores the applicability of STIR&#39;s Personal Assertion Token (PASSporT) and certificate issuance framework to text and multimedia messaging use cases, including support for both messages carried as a payload in SIP requests and messages sent in sessions negotiated by SIP." target="_top">
<ellipse fill="none" stroke="black" cx="179.43" cy="-63.99" rx="170.41" ry="63.99"/>
<text xml:space="preserve" text-anchor="middle" x="179.43" y="-91.94" font-family="Times,serif" font-size="14.00">RFC9475</text>
<text xml:space="preserve" text-anchor="middle" x="179.43" y="-75.44" font-family="Times,serif" font-size="14.00">Messaging Use Cases and Extensions for</text>
<text xml:space="preserve" text-anchor="middle" x="179.43" y="-58.94" font-family="Times,serif" font-size="14.00">Secure Telephone Identity Revisited</text>
<text xml:space="preserve" text-anchor="middle" x="179.43" y="-42.44" font-family="Times,serif" font-size="14.00">(STIR)</text>
<text xml:space="preserve" text-anchor="middle" x="179.43" y="-25.94" font-family="Times,serif" font-size="14.00">2023</text>
</a>
</g>
</g>
<!-- RFC9475&#45;&gt;rev_cites -->
<g id="edge9" class="edge">
<title>RFC9475&#45;&gt;rev_cites</title>
<path fill="none" stroke="black" d="M305.9,-107.25C324.35,-115.87 342.6,-125.79 358.86,-136.99 372.47,-146.37 385.28,-159.49 395.31,-171.16"/>
<polygon fill="black" stroke="black" points="392.36,-173.08 401.44,-178.55 397.75,-168.61 392.36,-173.08"/>
</g>
</g>
</svg>
