<?xml version="1.0" encoding="UTF-8" standalone="no"?>
<!DOCTYPE svg PUBLIC "-//W3C//DTD SVG 1.1//EN"
 "http://www.w3.org/Graphics/SVG/1.1/DTD/svg11.dtd">
<!-- Generated by graphviz version 14.1.1 (20251213.1925)
 -->
<!-- Title: Flow Pages: 1 -->
<svg width="1234pt" height="381pt"
 viewBox="0.00 0.00 1234.00 381.00" xmlns="http://www.w3.org/2000/svg" xmlns:xlink="http://www.w3.org/1999/xlink">
<g id="graph0" class="graph" transform="scale(1 1) rotate(0) translate(4 377.32)">
<title>Flow</title>
<polygon fill="white" stroke="none" points="-4,4 -4,-377.32 1230.34,-377.32 1230.34,4 -4,4"/>
<!-- RFC5498 -->
<g id="node1" class="node">
<title>RFC5498</title>
<g id="a_node1"><a xlink:title="This document enumerates several common IANA allocations for use by Mobile Ad hoc NETwork (MANET) protocols. &#160;The following well&#45;known numbers are required: a UDP port number, an IP protocol number, and a link&#45;local multicast group address. [STANDARDS&#45;TRACK]">
<ellipse fill="green" stroke="black" cx="631.2" cy="-251.99" rx="158.22" ry="52.33"/>
<text xml:space="preserve" text-anchor="middle" x="631.2" y="-271.69" font-family="Times,serif" font-size="14.00">RFC5498</text>
<text xml:space="preserve" text-anchor="middle" x="631.2" y="-255.19" font-family="Times,serif" font-size="14.00">IANA Allocations for Mobile Ad Hoc</text>
<text xml:space="preserve" text-anchor="middle" x="631.2" y="-238.69" font-family="Times,serif" font-size="14.00">Network (MANET) Protocols</text>
<text xml:space="preserve" text-anchor="middle" x="631.2" y="-222.19" font-family="Times,serif" font-size="14.00">2009</text>
</a>
</g>
</g>
<!-- obs -->
<g id="node3" class="node">
<title>obs</title>
<polygon fill="lightblue" stroke="black" points="880.67,-323.99 814.42,-323.99 814.42,-287.99 880.67,-287.99 880.67,-323.99"/>
<text xml:space="preserve" text-anchor="middle" x="847.54" y="-300.94" font-family="Times,serif" font-size="14.00">obsoletes</text>
</g>
<!-- RFC5498&#45;&gt;obs -->
<g id="edge2" class="edge">
<title>RFC5498&#45;&gt;obs</title>
<path fill="none" stroke="black" d="M757.81,-283.64C774.09,-287.74 789.78,-291.69 803.32,-295.1"/>
<polygon fill="black" stroke="black" points="802.14,-298.42 812.69,-297.46 803.85,-291.63 802.14,-298.42"/>
</g>
<!-- updates -->
<g id="node4" class="node">
<title>updates</title>
<polygon fill="lightyellow" stroke="black" points="876.17,-269.99 818.92,-269.99 818.92,-233.99 876.17,-233.99 876.17,-269.99"/>
<text xml:space="preserve" text-anchor="middle" x="847.54" y="-246.94" font-family="Times,serif" font-size="14.00">updates</text>
</g>
<!-- RFC5498&#45;&gt;updates -->
<g id="edge3" class="edge">
<title>RFC5498&#45;&gt;updates</title>
<path fill="none" stroke="black" d="M789.66,-251.99C795.81,-251.99 801.67,-251.99 807.14,-251.99"/>
<polygon fill="black" stroke="black" points="806.9,-255.49 816.9,-251.99 806.9,-248.49 806.9,-255.49"/>
</g>
<!-- cites -->
<g id="node6" class="node">
<title>cites</title>
<polygon fill="lightblue" stroke="black" points="874.54,-215.99 820.54,-215.99 820.54,-179.99 874.54,-179.99 874.54,-215.99"/>
<text xml:space="preserve" text-anchor="middle" x="847.54" y="-192.94" font-family="Times,serif" font-size="14.00">cites</text>
</g>
<!-- RFC5498&#45;&gt;cites -->
<g id="edge5" class="edge">
<title>RFC5498&#45;&gt;cites</title>
<path fill="none" stroke="black" d="M757.81,-220.35C776.41,-215.66 794.25,-211.17 808.99,-207.45"/>
<polygon fill="black" stroke="black" points="809.79,-210.86 818.63,-205.02 808.08,-204.07 809.79,-210.86"/>
</g>
<!-- obs_by -->
<g id="node2" class="node">
<title>obs_by</title>
<polygon fill="lightblue" stroke="black" points="447.99,-323.99 381.74,-323.99 381.74,-287.99 447.99,-287.99 447.99,-323.99"/>
<text xml:space="preserve" text-anchor="middle" x="414.86" y="-300.94" font-family="Times,serif" font-size="14.00">obsoletes</text>
</g>
<!-- obs_by&#45;&gt;RFC5498 -->
<g id="edge1" class="edge">
<title>obs_by&#45;&gt;RFC5498</title>
<path fill="none" stroke="black" d="M448.41,-297.79C461.19,-294.57 476.78,-290.65 493.4,-286.46"/>
<polygon fill="black" stroke="black" points="494.14,-289.88 502.98,-284.05 492.43,-283.09 494.14,-289.88"/>
</g>
<!-- updated_by -->
<g id="node5" class="node">
<title>updated_by</title>
<polygon fill="lightyellow" stroke="black" points="443.49,-269.99 386.24,-269.99 386.24,-233.99 443.49,-233.99 443.49,-269.99"/>
<text xml:space="preserve" text-anchor="middle" x="414.86" y="-246.94" font-family="Times,serif" font-size="14.00">updates</text>
</g>
<!-- updated_by&#45;&gt;RFC5498 -->
<g id="edge4" class="edge">
<title>updated_by&#45;&gt;RFC5498</title>
<path fill="none" stroke="black" d="M443.88,-251.99C449.26,-251.99 455.24,-251.99 461.67,-251.99"/>
<polygon fill="black" stroke="black" points="461.36,-255.49 471.36,-251.99 461.36,-248.49 461.36,-255.49"/>
</g>
<!-- RFC5444 -->
<g id="node7" class="node">
<title>RFC5444</title>
<g id="a_node7"><a xlink:href="RFC5444.html" xlink:title="This document specifies a packet format capable of carrying multiple messages that may be used by mobile ad hoc network routing protocols. [STANDARDS&#45;TRACK]" target="_top">
<ellipse fill="none" stroke="black" cx="1066" cy="-320.99" rx="156.62" ry="52.33"/>
<text xml:space="preserve" text-anchor="middle" x="1066" y="-340.69" font-family="Times,serif" font-size="14.00">RFC5444</text>
<text xml:space="preserve" text-anchor="middle" x="1066" y="-324.19" font-family="Times,serif" font-size="14.00">Generalized Mobile Ad Hoc Network</text>
<text xml:space="preserve" text-anchor="middle" x="1066" y="-307.69" font-family="Times,serif" font-size="14.00">(MANET) Packet/Message Format</text>
<text xml:space="preserve" text-anchor="middle" x="1066" y="-291.19" font-family="Times,serif" font-size="14.00">2009</text>
</a>
</g>
</g>
<!-- cites&#45;&gt;RFC5444 -->
<g id="edge6" class="edge">
<title>cites&#45;&gt;RFC5444</title>
<path fill="none" stroke="black" d="M871.62,-216.23C874.77,-219.05 877.88,-222.02 880.67,-224.99 893.49,-238.68 890.78,-247.58 905.67,-258.99 916.16,-267.03 927.82,-274.15 939.93,-280.43"/>
<polygon fill="black" stroke="black" points="938.32,-283.54 948.83,-284.83 941.42,-277.26 938.32,-283.54"/>
</g>
<!-- RFC2119 -->
<g id="node8" class="node">
<title>RFC2119</title>
<g id="a_node8"><a xlink:href="RFC2119.html" xlink:title="In many standards track documents several words are used to signify the requirements in the specification. &#160;These words are often capitalized. &#160;This document defines these words as they should be interpreted in IETF documents. &#160;This document specifies an Internet Best Current Practices for the Internet Community, and requests discussion and suggestions for improvements." target="_top">
<ellipse fill="none" stroke="black" cx="1066" cy="-197.99" rx="160.34" ry="52.33"/>
<text xml:space="preserve" text-anchor="middle" x="1066" y="-217.69" font-family="Times,serif" font-size="14.00">RFC2119</text>
<text xml:space="preserve" text-anchor="middle" x="1066" y="-201.19" font-family="Times,serif" font-size="14.00">Key words for use in RFCs to Indicate</text>
<text xml:space="preserve" text-anchor="middle" x="1066" y="-184.69" font-family="Times,serif" font-size="14.00">Requirement Levels</text>
<text xml:space="preserve" text-anchor="middle" x="1066" y="-168.19" font-family="Times,serif" font-size="14.00">1997</text>
</a>
</g>
</g>
<!-- cites&#45;&gt;RFC2119 -->
<g id="edge7" class="edge">
<title>cites&#45;&gt;RFC2119</title>
<path fill="none" stroke="black" d="M874.65,-197.99C880.41,-197.99 886.91,-197.99 893.97,-197.99"/>
<polygon fill="black" stroke="black" points="893.95,-201.49 903.95,-197.99 893.95,-194.49 893.95,-201.49"/>
</g>
<!-- RFC4291 -->
<g id="node9" class="node">
<title>RFC4291</title>
<g id="a_node9"><a xlink:href="RFC4291.html" xlink:title="This specification defines the addressing architecture of the IP Version 6 (IPv6) protocol. The document includes the IPv6 addressing model, text representations of IPv6 addresses, definition of IPv6 unicast addresses, anycast addresses, and multicast addresses, and an IPv6 node&#39;s required addresses. This document obsoletes RFC 3513, IP Version 6 Addressing Architecture. [STANDARDS&#45;TRACK]" target="_top">
<ellipse fill="none" stroke="black" cx="1066" cy="-86.99" rx="153.97" ry="40.66"/>
<text xml:space="preserve" text-anchor="middle" x="1066" y="-98.44" font-family="Times,serif" font-size="14.00">RFC4291</text>
<text xml:space="preserve" text-anchor="middle" x="1066" y="-81.94" font-family="Times,serif" font-size="14.00">IP Version 6 Addressing Architecture</text>
<text xml:space="preserve" text-anchor="middle" x="1066" y="-65.44" font-family="Times,serif" font-size="14.00">2006</text>
</a>
</g>
</g>
<!-- cites&#45;&gt;RFC4291 -->
<g id="edge8" class="edge">
<title>cites&#45;&gt;RFC4291</title>
<path fill="none" stroke="black" d="M861.62,-179.57C872.11,-166.02 887.98,-148.11 905.67,-136.99 916.69,-130.06 928.76,-124.02 941.15,-118.78"/>
<polygon fill="black" stroke="black" points="942.26,-122.11 950.22,-115.12 939.64,-115.62 942.26,-122.11"/>
</g>
<!-- rev_cites -->
<g id="node10" class="node">
<title>rev_cites</title>
<polygon fill="lightblue" stroke="black" points="441.86,-215.99 387.86,-215.99 387.86,-179.99 441.86,-179.99 441.86,-215.99"/>
<text xml:space="preserve" text-anchor="middle" x="414.86" y="-192.94" font-family="Times,serif" font-size="14.00">cites</text>
</g>
<!-- rev_cites&#45;&gt;RFC5498 -->
<g id="edge9" class="edge">
<title>rev_cites&#45;&gt;RFC5498</title>
<path fill="none" stroke="black" d="M442.14,-204.61C455.91,-208.08 473.94,-212.63 493.39,-217.53"/>
<polygon fill="black" stroke="black" points="492.3,-220.86 502.85,-219.91 494.01,-214.07 492.3,-220.86"/>
</g>
<!-- RFC6130 -->
<g id="node11" class="node">
<title>RFC6130</title>
<g id="a_node11"><a xlink:href="RFC6130.html" xlink:title="This document describes a 1&#45;hop and symmetric 2&#45;hop neighborhood discovery protocol (NHDP) for mobile ad hoc networks (MANETs). [STANDARDS&#45;TRACK]" target="_top">
<ellipse fill="none" stroke="black" cx="178.37" cy="-320.99" rx="178.37" ry="52.33"/>
<text xml:space="preserve" text-anchor="middle" x="178.37" y="-340.69" font-family="Times,serif" font-size="14.00">RFC6130</text>
<text xml:space="preserve" text-anchor="middle" x="178.37" y="-324.19" font-family="Times,serif" font-size="14.00">Mobile Ad Hoc Network (MANET)</text>
<text xml:space="preserve" text-anchor="middle" x="178.37" y="-307.69" font-family="Times,serif" font-size="14.00">Neighborhood Discovery Protocol (NHDP)</text>
<text xml:space="preserve" text-anchor="middle" x="178.37" y="-291.19" font-family="Times,serif" font-size="14.00">2011</text>
</a>
</g>
</g>
<!-- RFC6130&#45;&gt;rev_cites -->
<g id="edge10" class="edge">
<title>RFC6130&#45;&gt;rev_cites</title>
<path fill="none" stroke="black" d="M310.39,-285.46C326.79,-278.11 342.7,-269.37 356.74,-258.99 371.82,-247.84 368.91,-238.68 381.74,-224.99 382,-224.71 382.26,-224.44 382.53,-224.16"/>
<polygon fill="black" stroke="black" points="384.9,-226.73 389.69,-217.28 380.05,-221.68 384.9,-226.73"/>
</g>
<!-- RFC7181 -->
<g id="node12" class="node">
<title>RFC7181</title>
<g id="a_node12"><a xlink:href="RFC7181.html" xlink:title="This specification describes version 2 of the Optimized Link State Routing Protocol (OLSRv2) for Mobile Ad Hoc Networks (MANETs)." target="_top">
<ellipse fill="none" stroke="black" cx="178.37" cy="-197.99" rx="145.49" ry="52.33"/>
<text xml:space="preserve" text-anchor="middle" x="178.37" y="-217.69" font-family="Times,serif" font-size="14.00">RFC7181</text>
<text xml:space="preserve" text-anchor="middle" x="178.37" y="-201.19" font-family="Times,serif" font-size="14.00">The Optimized Link State Routing</text>
<text xml:space="preserve" text-anchor="middle" x="178.37" y="-184.69" font-family="Times,serif" font-size="14.00">Protocol Version 2</text>
<text xml:space="preserve" text-anchor="middle" x="178.37" y="-168.19" font-family="Times,serif" font-size="14.00">2014</text>
</a>
</g>
</g>
<!-- RFC7181&#45;&gt;rev_cites -->
<g id="edge11" class="edge">
<title>RFC7181&#45;&gt;rev_cites</title>
<path fill="none" stroke="black" d="M324.21,-197.99C343.34,-197.99 361.43,-197.99 376.28,-197.99"/>
<polygon fill="black" stroke="black" points="375.95,-201.49 385.95,-197.99 375.95,-194.49 375.95,-201.49"/>
</g>
<!-- RFC8245 -->
<g id="node13" class="node">
<title>RFC8245</title>
<g id="a_node13"><a xlink:href="RFC8245.html" xlink:title="RFC 5444 specifies a generalized Mobile Ad Hoc Network (MANET) packet/message format and describes an intended use for multiplexed MANET routing protocol messages; this use is mandated by RFC 5498 when using the MANET port or protocol number that it specifies. &#160;This document updates RFC 5444 by providing rules and recommendations for how the multiplexer operates and how protocols can use the packet/message format. &#160;In particular, the mandatory rules prohibit a number of uses that have been suggested in various proposals and that would have led to interoperability problems, to the impediment of protocol extension development, and/or to an inability to use optional generic parsers." target="_top">
<ellipse fill="none" stroke="black" cx="178.37" cy="-63.99" rx="174.66" ry="63.99"/>
<text xml:space="preserve" text-anchor="middle" x="178.37" y="-91.94" font-family="Times,serif" font-size="14.00">RFC8245</text>
<text xml:space="preserve" text-anchor="middle" x="178.37" y="-75.44" font-family="Times,serif" font-size="14.00">Rules for Designing Protocols Using the</text>
<text xml:space="preserve" text-anchor="middle" x="178.37" y="-58.94" font-family="Times,serif" font-size="14.00">Generalized Packet/Message Format from</text>
<text xml:space="preserve" text-anchor="middle" x="178.37" y="-42.44" font-family="Times,serif" font-size="14.00">RFC 5444</text>
<text xml:space="preserve" text-anchor="middle" x="178.37" y="-25.94" font-family="Times,serif" font-size="14.00">2017</text>
</a>
</g>
</g>
<!-- RFC8245&#45;&gt;rev_cites -->
<g id="edge12" class="edge">
<title>RFC8245&#45;&gt;rev_cites</title>
<path fill="none" stroke="black" d="M305.49,-107.98C323.35,-116.44 340.98,-126.11 356.74,-136.99 370.34,-146.39 383.15,-159.5 393.18,-171.17"/>
<polygon fill="black" stroke="black" points="390.23,-173.09 399.31,-178.56 395.62,-168.62 390.23,-173.09"/>
</g>
</g>
</svg>
