<?xml version="1.0" encoding="UTF-8" standalone="no"?>
<!DOCTYPE svg PUBLIC "-//W3C//DTD SVG 1.1//EN"
 "http://www.w3.org/Graphics/SVG/1.1/DTD/svg11.dtd">
<!-- Generated by graphviz version 14.1.1 (20251213.1925)
 -->
<!-- Title: Flow Pages: 1 -->
<svg width="1039pt" height="1547pt"
 viewBox="0.00 0.00 1039.00 1547.00" xmlns="http://www.w3.org/2000/svg" xmlns:xlink="http://www.w3.org/1999/xlink">
<g id="graph0" class="graph" transform="scale(1 1) rotate(0) translate(4 1543.49)">
<title>Flow</title>
<polygon fill="white" stroke="none" points="-4,4 -4,-1543.49 1034.73,-1543.49 1034.73,4 -4,4"/>
<!-- RFC5834 -->
<g id="node1" class="node">
<title>RFC5834</title>
<g id="a_node1"><a xlink:title="This memo defines a portion of the Management Information Base (MIB) for use with network management protocols. &#160;In particular, it describes managed objects for modeling the Control And Provisioning of Wireless Access Points (CAPWAP) protocol for IEEE 802.11 wireless binding. &#160;This MIB module is presented as a basis for future work on the management of the CAPWAP protocol using the Simple Network Management Protocol (SNMP). &#160;This document is not an Internet Standards Track specification; it is published for informational purposes.">
<ellipse fill="green" stroke="black" cx="272.8" cy="-688.16" rx="181.55" ry="63.99"/>
<text xml:space="preserve" text-anchor="middle" x="272.8" y="-716.11" font-family="Times,serif" font-size="14.00">RFC5834</text>
<text xml:space="preserve" text-anchor="middle" x="272.8" y="-699.61" font-family="Times,serif" font-size="14.00">Control and Provisioning of Wireless</text>
<text xml:space="preserve" text-anchor="middle" x="272.8" y="-683.11" font-family="Times,serif" font-size="14.00">Access Points (CAPWAP) Protocol Binding</text>
<text xml:space="preserve" text-anchor="middle" x="272.8" y="-666.61" font-family="Times,serif" font-size="14.00">MIB for IEEE 802.11</text>
<text xml:space="preserve" text-anchor="middle" x="272.8" y="-650.11" font-family="Times,serif" font-size="14.00">2010</text>
</a>
</g>
</g>
<!-- obs -->
<g id="node3" class="node">
<title>obs</title>
<polygon fill="lightblue" stroke="black" points="545.6,-787.16 479.35,-787.16 479.35,-751.16 545.6,-751.16 545.6,-787.16"/>
<text xml:space="preserve" text-anchor="middle" x="512.47" y="-764.11" font-family="Times,serif" font-size="14.00">obsoletes</text>
</g>
<!-- RFC5834&#45;&gt;obs -->
<g id="edge2" class="edge">
<title>RFC5834&#45;&gt;obs</title>
<path fill="none" stroke="black" d="M404.46,-732.69C427.5,-740.54 449.95,-748.19 468.29,-754.44"/>
<polygon fill="black" stroke="black" points="467.11,-757.74 477.71,-757.65 469.37,-751.12 467.11,-757.74"/>
</g>
<!-- updates -->
<g id="node4" class="node">
<title>updates</title>
<polygon fill="lightyellow" stroke="black" points="541.1,-733.16 483.85,-733.16 483.85,-697.16 541.1,-697.16 541.1,-733.16"/>
<text xml:space="preserve" text-anchor="middle" x="512.47" y="-710.11" font-family="Times,serif" font-size="14.00">updates</text>
</g>
<!-- RFC5834&#45;&gt;updates -->
<g id="edge3" class="edge">
<title>RFC5834&#45;&gt;updates</title>
<path fill="none" stroke="black" d="M446.21,-707.75C455.53,-708.81 464.29,-709.8 472.18,-710.7"/>
<polygon fill="black" stroke="black" points="471.62,-714.16 481.95,-711.81 472.41,-707.2 471.62,-714.16"/>
</g>
<!-- cites -->
<g id="node6" class="node">
<title>cites</title>
<polygon fill="lightblue" stroke="black" points="539.47,-679.16 485.47,-679.16 485.47,-643.16 539.47,-643.16 539.47,-679.16"/>
<text xml:space="preserve" text-anchor="middle" x="512.47" y="-656.11" font-family="Times,serif" font-size="14.00">cites</text>
</g>
<!-- RFC5834&#45;&gt;cites -->
<g id="edge5" class="edge">
<title>RFC5834&#45;&gt;cites</title>
<path fill="none" stroke="black" d="M446.21,-668.58C456.12,-667.45 465.4,-666.4 473.68,-665.45"/>
<polygon fill="black" stroke="black" points="474.01,-668.94 483.55,-664.33 473.22,-661.99 474.01,-668.94"/>
</g>
<!-- obs_by -->
<g id="node2" class="node">
<title>obs_by</title>
<polygon fill="lightblue" stroke="black" points="66.25,-733.16 0,-733.16 0,-697.16 66.25,-697.16 66.25,-733.16"/>
<text xml:space="preserve" text-anchor="middle" x="33.12" y="-710.11" font-family="Times,serif" font-size="14.00">obsoletes</text>
</g>
<!-- obs_by&#45;&gt;RFC5834 -->
<g id="edge1" class="edge">
<title>obs_by&#45;&gt;RFC5834</title>
<path fill="none" stroke="black" d="M66.67,-711.46C73.16,-710.73 80.38,-709.91 88.13,-709.03"/>
<polygon fill="black" stroke="black" points="88.38,-712.52 97.92,-707.91 87.59,-705.57 88.38,-712.52"/>
</g>
<!-- updated_by -->
<g id="node5" class="node">
<title>updated_by</title>
<polygon fill="lightyellow" stroke="black" points="61.75,-679.16 4.5,-679.16 4.5,-643.16 61.75,-643.16 61.75,-679.16"/>
<text xml:space="preserve" text-anchor="middle" x="33.12" y="-656.11" font-family="Times,serif" font-size="14.00">updates</text>
</g>
<!-- updated_by&#45;&gt;RFC5834 -->
<g id="edge4" class="edge">
<title>updated_by&#45;&gt;RFC5834</title>
<path fill="none" stroke="black" d="M61.85,-664.31C69.51,-665.18 78.42,-666.19 88.17,-667.3"/>
<polygon fill="black" stroke="black" points="87.67,-670.77 98,-668.42 88.46,-663.81 87.67,-670.77"/>
</g>
<!-- RFC5415 -->
<g id="node7" class="node">
<title>RFC5415</title>
<g id="a_node7"><a xlink:href="RFC5415.html" xlink:title="This specification defines the Control And Provisioning of Wireless Access Points (CAPWAP) Protocol, meeting the objectives defined by the CAPWAP Working Group in RFC 4564. &#160;The CAPWAP protocol is designed to be flexible, allowing it to be used for a variety of wireless technologies. &#160;This document describes the base CAPWAP protocol, while separate binding extensions will enable its use with additional wireless technologies. [STANDARDS&#45;TRACK]" target="_top">
<ellipse fill="none" stroke="black" cx="761.16" cy="-1353.16" rx="156.62" ry="63.99"/>
<text xml:space="preserve" text-anchor="middle" x="761.16" y="-1381.11" font-family="Times,serif" font-size="14.00">RFC5415</text>
<text xml:space="preserve" text-anchor="middle" x="761.16" y="-1364.61" font-family="Times,serif" font-size="14.00">Control And Provisioning of Wireless</text>
<text xml:space="preserve" text-anchor="middle" x="761.16" y="-1348.11" font-family="Times,serif" font-size="14.00">Access Points (CAPWAP) Protocol</text>
<text xml:space="preserve" text-anchor="middle" x="761.16" y="-1331.61" font-family="Times,serif" font-size="14.00">Specification</text>
<text xml:space="preserve" text-anchor="middle" x="761.16" y="-1315.11" font-family="Times,serif" font-size="14.00">2009</text>
</a>
</g>
</g>
<!-- cites&#45;&gt;RFC5415 -->
<g id="edge6" class="edge">
<title>cites&#45;&gt;RFC5415</title>
<path fill="none" stroke="black" d="M539.58,-679.46C541.96,-682.11 544.06,-685.02 545.6,-688.16 574.65,-747.24 532.2,-1226.68 570.6,-1280.16 581.69,-1295.61 596.52,-1307.79 613.02,-1317.39"/>
<polygon fill="black" stroke="black" points="611.12,-1320.34 621.58,-1322.03 614.45,-1314.18 611.12,-1320.34"/>
</g>
<!-- RFC5416 -->
<g id="node8" class="node">
<title>RFC5416</title>
<g id="a_node8"><a xlink:href="RFC5416.html" xlink:title="Wireless LAN product architectures have evolved from single autonomous access points to systems consisting of a centralized Access Controller (AC) and Wireless Termination Points (WTPs). The general goal of centralized control architectures is to move access control, including user authentication and authorization, mobility management, and radio management from the single access point to a centralized controller. This specification defines the Control And Provisioning of Wireless Access Points (CAPWAP) Protocol Binding Specification for use with the IEEE 802.11 Wireless Local Area Network protocol. [STANDARDS&#45;TRACK]" target="_top">
<ellipse fill="none" stroke="black" cx="761.16" cy="-1207.16" rx="181.55" ry="63.99"/>
<text xml:space="preserve" text-anchor="middle" x="761.16" y="-1235.11" font-family="Times,serif" font-size="14.00">RFC5416</text>
<text xml:space="preserve" text-anchor="middle" x="761.16" y="-1218.61" font-family="Times,serif" font-size="14.00">Control and Provisioning of Wireless</text>
<text xml:space="preserve" text-anchor="middle" x="761.16" y="-1202.11" font-family="Times,serif" font-size="14.00">Access Points (CAPWAP) Protocol Binding</text>
<text xml:space="preserve" text-anchor="middle" x="761.16" y="-1185.61" font-family="Times,serif" font-size="14.00">for IEEE 802.11</text>
<text xml:space="preserve" text-anchor="middle" x="761.16" y="-1169.11" font-family="Times,serif" font-size="14.00">2009</text>
</a>
</g>
</g>
<!-- cites&#45;&gt;RFC5416 -->
<g id="edge7" class="edge">
<title>cites&#45;&gt;RFC5416</title>
<path fill="none" stroke="black" d="M539.54,-679.48C541.93,-682.13 544.03,-685.03 545.6,-688.16 590.02,-776.94 512.15,-1053.93 570.6,-1134.16 579.29,-1146.09 590.2,-1156.06 602.37,-1164.41"/>
<polygon fill="black" stroke="black" points="600.32,-1167.25 610.64,-1169.67 604.08,-1161.35 600.32,-1167.25"/>
</g>
<!-- RFC3410 -->
<g id="node9" class="node">
<title>RFC3410</title>
<g id="a_node9"><a xlink:href="RFC3410.html" xlink:title="The purpose of this document is to provide an overview of the third version of the Internet&#45;Standard Management Framework, termed the SNMP version 3 Framework (SNMPv3). &#160;This Framework is derived from and builds upon both the original Internet&#45;Standard Management Framework (SNMPv1) and the second Internet&#45;Standard Management Framework (SNMPv2). &#160;The architecture is designed to be modular to allow the evolution of the Framework over time. &#160;The document explains why using SNMPv3 instead of SNMPv1 or SNMPv2 is strongly recommended. &#160;The document also recommends that RFCs 1157, 1441, 1901, 1909 and 1910 be retired by moving them to Historic status. &#160;This document obsoletes RFC 2570. &#160;This memo provides information for the Internet community." target="_top">
<ellipse fill="none" stroke="black" cx="761.16" cy="-1061.16" rx="137" ry="63.99"/>
<text xml:space="preserve" text-anchor="middle" x="761.16" y="-1089.11" font-family="Times,serif" font-size="14.00">RFC3410</text>
<text xml:space="preserve" text-anchor="middle" x="761.16" y="-1072.61" font-family="Times,serif" font-size="14.00">Introduction and Applicability</text>
<text xml:space="preserve" text-anchor="middle" x="761.16" y="-1056.11" font-family="Times,serif" font-size="14.00">Statements for Internet&#45;Standard</text>
<text xml:space="preserve" text-anchor="middle" x="761.16" y="-1039.61" font-family="Times,serif" font-size="14.00">Management Framework</text>
<text xml:space="preserve" text-anchor="middle" x="761.16" y="-1023.11" font-family="Times,serif" font-size="14.00">2002</text>
</a>
</g>
</g>
<!-- cites&#45;&gt;RFC3410 -->
<g id="edge8" class="edge">
<title>cites&#45;&gt;RFC3410</title>
<path fill="none" stroke="black" d="M539.45,-679.52C541.86,-682.17 543.99,-685.06 545.6,-688.16 576.34,-747.58 530.48,-934.63 570.6,-988.16 584.5,-1006.71 603.77,-1020.55 624.72,-1030.87"/>
<polygon fill="black" stroke="black" points="623.21,-1034.03 633.76,-1035.03 626.13,-1027.67 623.21,-1034.03"/>
</g>
<!-- RFC2578 -->
<g id="node10" class="node">
<title>RFC2578</title>
<g id="a_node10"><a xlink:href="RFC2578.html" xlink:title="It is the purpose of this document, the Structure of Management Information Version 2 (SMIv2), to define that adapted subset, and to assign a set of associated administrative values. [STANDARDS&#45;TRACK]" target="_top">
<ellipse fill="none" stroke="black" cx="761.16" cy="-927.16" rx="159.28" ry="52.33"/>
<text xml:space="preserve" text-anchor="middle" x="761.16" y="-946.86" font-family="Times,serif" font-size="14.00">RFC2578</text>
<text xml:space="preserve" text-anchor="middle" x="761.16" y="-930.36" font-family="Times,serif" font-size="14.00">Structure of Management Information</text>
<text xml:space="preserve" text-anchor="middle" x="761.16" y="-913.86" font-family="Times,serif" font-size="14.00">Version 2 (SMIv2)</text>
<text xml:space="preserve" text-anchor="middle" x="761.16" y="-897.36" font-family="Times,serif" font-size="14.00">1999</text>
</a>
</g>
</g>
<!-- cites&#45;&gt;RFC2578 -->
<g id="edge9" class="edge">
<title>cites&#45;&gt;RFC2578</title>
<path fill="none" stroke="black" d="M539.28,-679.61C541.72,-682.24 543.91,-685.1 545.6,-688.16 584.3,-758.05 519.16,-805.03 570.6,-866.16 581.56,-879.18 595.31,-889.45 610.37,-897.54"/>
<polygon fill="black" stroke="black" points="608.58,-900.56 619.09,-901.88 611.69,-894.29 608.58,-900.56"/>
</g>
<!-- RFC2579 -->
<g id="node11" class="node">
<title>RFC2579</title>
<g id="a_node11"><a xlink:href="RFC2579.html" xlink:title="It is the purpose of this document to define the initial set of textual conventions available to all MIB modules. [STANDARDS&#45;TRACK]" target="_top">
<ellipse fill="none" stroke="black" cx="761.16" cy="-816.16" rx="134.88" ry="40.66"/>
<text xml:space="preserve" text-anchor="middle" x="761.16" y="-827.61" font-family="Times,serif" font-size="14.00">RFC2579</text>
<text xml:space="preserve" text-anchor="middle" x="761.16" y="-811.11" font-family="Times,serif" font-size="14.00">Textual Conventions for SMIv2</text>
<text xml:space="preserve" text-anchor="middle" x="761.16" y="-794.61" font-family="Times,serif" font-size="14.00">1999</text>
</a>
</g>
</g>
<!-- cites&#45;&gt;RFC2579 -->
<g id="edge10" class="edge">
<title>cites&#45;&gt;RFC2579</title>
<path fill="none" stroke="black" d="M538.47,-679.59C541.12,-682.26 543.58,-685.13 545.6,-688.16 566.06,-718.78 543.87,-741.83 570.6,-767.16 585.38,-781.17 603.62,-791.31 622.9,-798.61"/>
<polygon fill="black" stroke="black" points="621.67,-801.89 632.27,-801.89 623.98,-795.29 621.67,-801.89"/>
</g>
<!-- RFC2580 -->
<g id="node12" class="node">
<title>RFC2580</title>
<g id="a_node12"><a xlink:href="RFC2580.html" xlink:title="Collections of related objects are defined in MIB modules. &#160;It may be useful to define the acceptable lower&#45;bounds of implementation, along with the actual level of implementation achieved. &#160;It is the purpose of this document to define the notation used for these purposes. [STANDARDS&#45;TRACK]" target="_top">
<ellipse fill="none" stroke="black" cx="761.16" cy="-717.16" rx="152.38" ry="40.66"/>
<text xml:space="preserve" text-anchor="middle" x="761.16" y="-728.61" font-family="Times,serif" font-size="14.00">RFC2580</text>
<text xml:space="preserve" text-anchor="middle" x="761.16" y="-712.11" font-family="Times,serif" font-size="14.00">Conformance Statements for SMIv2</text>
<text xml:space="preserve" text-anchor="middle" x="761.16" y="-695.61" font-family="Times,serif" font-size="14.00">1999</text>
</a>
</g>
</g>
<!-- cites&#45;&gt;RFC2580 -->
<g id="edge11" class="edge">
<title>cites&#45;&gt;RFC2580</title>
<path fill="none" stroke="black" d="M539.87,-667.15C562.74,-672.35 597.62,-680.26 632.92,-688.28"/>
<polygon fill="black" stroke="black" points="631.87,-691.63 642.4,-690.43 633.42,-684.8 631.87,-691.63"/>
</g>
<!-- RFC5833 -->
<g id="node13" class="node">
<title>RFC5833</title>
<g id="a_node13"><a xlink:href="RFC5833.html" xlink:title="This memo defines a portion of the Management Information Base (MIB) for use with network management protocols. &#160;In particular, it describes the managed objects for modeling the Control And Provisioning of Wireless Access Points (CAPWAP) Protocol. &#160;This MIB module is presented as a basis for future work on the SNMP management of the CAPWAP protocol. &#160;This document is not an Internet Standards Track specification; it is published for informational purposes." target="_top">
<ellipse fill="none" stroke="black" cx="761.16" cy="-606.16" rx="190.57" ry="52.33"/>
<text xml:space="preserve" text-anchor="middle" x="761.16" y="-625.86" font-family="Times,serif" font-size="14.00">RFC5833</text>
<text xml:space="preserve" text-anchor="middle" x="761.16" y="-609.36" font-family="Times,serif" font-size="14.00">Control and Provisioning of Wireless</text>
<text xml:space="preserve" text-anchor="middle" x="761.16" y="-592.86" font-family="Times,serif" font-size="14.00">Access Points (CAPWAP) Protocol Base MIB</text>
<text xml:space="preserve" text-anchor="middle" x="761.16" y="-576.36" font-family="Times,serif" font-size="14.00">2010</text>
</a>
</g>
</g>
<!-- cites&#45;&gt;RFC5833 -->
<g id="edge12" class="edge">
<title>cites&#45;&gt;RFC5833</title>
<path fill="none" stroke="black" d="M539.87,-655.28C555.77,-651.73 577.48,-646.89 601.09,-641.63"/>
<polygon fill="black" stroke="black" points="601.59,-645.1 610.59,-639.51 600.06,-638.27 601.59,-645.1"/>
</g>
<!-- RFC4347 -->
<g id="node14" class="node">
<title>RFC4347</title>
<g id="a_node14"><a xlink:href="RFC4347.html" xlink:title="This document specifies Version 1.0 of the Datagram Transport Layer Security (DTLS) protocol. &#160;The DTLS protocol provides communications privacy for datagram protocols. &#160;The protocol allows client/server applications to communicate in a way that is designed to prevent eavesdropping, tampering, or message forgery. &#160;The DTLS protocol is based on the Transport Layer Security (TLS) protocol and provides equivalent security guarantees. &#160;Datagram semantics of the underlying transport are preserved by the DTLS protocol." target="_top">
<ellipse fill="none" stroke="black" cx="761.16" cy="-495.16" rx="148.14" ry="40.66"/>
<text xml:space="preserve" text-anchor="middle" x="761.16" y="-506.61" font-family="Times,serif" font-size="14.00">RFC4347</text>
<text xml:space="preserve" text-anchor="middle" x="761.16" y="-490.11" font-family="Times,serif" font-size="14.00">Datagram Transport Layer Security</text>
<text xml:space="preserve" text-anchor="middle" x="761.16" y="-473.61" font-family="Times,serif" font-size="14.00">2006</text>
</a>
</g>
</g>
<!-- cites&#45;&gt;RFC4347 -->
<g id="edge13" class="edge">
<title>cites&#45;&gt;RFC4347</title>
<path fill="none" stroke="black" d="M517.43,-642.9C523.96,-617.18 539.49,-570.6 570.6,-545.16 584.8,-533.54 601.44,-524.6 618.84,-517.72"/>
<polygon fill="black" stroke="black" points="619.58,-521.18 627.74,-514.43 617.15,-514.62 619.58,-521.18"/>
</g>
<!-- RFC2119 -->
<g id="node15" class="node">
<title>RFC2119</title>
<g id="a_node15"><a xlink:href="RFC2119.html" xlink:title="In many standards track documents several words are used to signify the requirements in the specification. &#160;These words are often capitalized. &#160;This document defines these words as they should be interpreted in IETF documents. &#160;This document specifies an Internet Best Current Practices for the Internet Community, and requests discussion and suggestions for improvements." target="_top">
<ellipse fill="none" stroke="black" cx="761.16" cy="-384.16" rx="160.34" ry="52.33"/>
<text xml:space="preserve" text-anchor="middle" x="761.16" y="-403.86" font-family="Times,serif" font-size="14.00">RFC2119</text>
<text xml:space="preserve" text-anchor="middle" x="761.16" y="-387.36" font-family="Times,serif" font-size="14.00">Key words for use in RFCs to Indicate</text>
<text xml:space="preserve" text-anchor="middle" x="761.16" y="-370.86" font-family="Times,serif" font-size="14.00">Requirement Levels</text>
<text xml:space="preserve" text-anchor="middle" x="761.16" y="-354.36" font-family="Times,serif" font-size="14.00">1997</text>
</a>
</g>
</g>
<!-- cites&#45;&gt;RFC2119 -->
<g id="edge14" class="edge">
<title>cites&#45;&gt;RFC2119</title>
<path fill="none" stroke="black" d="M512.81,-642.76C512.37,-601.62 517.21,-501.45 570.6,-445.16 582.31,-432.82 596.52,-422.96 611.85,-415.1"/>
<polygon fill="black" stroke="black" points="613.19,-418.34 620.7,-410.87 610.17,-412.02 613.19,-418.34"/>
</g>
<!-- RFC3418 -->
<g id="node16" class="node">
<title>RFC3418</title>
<g id="a_node16"><a xlink:href="RFC3418.html" xlink:title="This document defines managed objects which describe the behavior of a Simple Network Management Protocol (SNMP) entity. &#160;This document obsoletes RFC 1907, Management Information Base for Version 2 of the Simple Network Management Protocol (SNMPv2). [STANDARDS&#45;TRACK]" target="_top">
<ellipse fill="none" stroke="black" cx="761.16" cy="-250.16" rx="177.84" ry="63.99"/>
<text xml:space="preserve" text-anchor="middle" x="761.16" y="-278.11" font-family="Times,serif" font-size="14.00">RFC3418</text>
<text xml:space="preserve" text-anchor="middle" x="761.16" y="-261.61" font-family="Times,serif" font-size="14.00">Management Information Base (MIB) for</text>
<text xml:space="preserve" text-anchor="middle" x="761.16" y="-245.11" font-family="Times,serif" font-size="14.00">the Simple Network Management Protocol</text>
<text xml:space="preserve" text-anchor="middle" x="761.16" y="-228.61" font-family="Times,serif" font-size="14.00">(SNMP)</text>
<text xml:space="preserve" text-anchor="middle" x="761.16" y="-212.11" font-family="Times,serif" font-size="14.00">2002</text>
</a>
</g>
</g>
<!-- cites&#45;&gt;RFC3418 -->
<g id="edge15" class="edge">
<title>cites&#45;&gt;RFC3418</title>
<path fill="none" stroke="black" d="M514.22,-643.07C517.16,-580.3 529.83,-373.04 570.6,-323.16 580.39,-311.19 592.39,-301.17 605.55,-292.8"/>
<polygon fill="black" stroke="black" points="607.22,-295.88 614.02,-287.76 603.64,-289.86 607.22,-295.88"/>
</g>
<!-- RFC2863 -->
<g id="node17" class="node">
<title>RFC2863</title>
<g id="a_node17"><a xlink:href="RFC2863.html" xlink:title="This memo discusses the &#39;interfaces&#39; group of MIB&#45;II, especially the experience gained from the definition of numerous media&#45;specific MIB modules for use in conjunction with the &#39;interfaces&#39; group for managing various sub&#45;layers beneath the internetwork&#45;layer. &#160;It specifies clarifications to, and extensions of, the architectural issues within the MIB&#45;II model of the &#39;interfaces&#39; group. [STANDARDS&#45;TRACK]" target="_top">
<ellipse fill="none" stroke="black" cx="761.16" cy="-127.16" rx="114.73" ry="40.66"/>
<text xml:space="preserve" text-anchor="middle" x="761.16" y="-138.61" font-family="Times,serif" font-size="14.00">RFC2863</text>
<text xml:space="preserve" text-anchor="middle" x="761.16" y="-122.11" font-family="Times,serif" font-size="14.00">The Interfaces Group MIB</text>
<text xml:space="preserve" text-anchor="middle" x="761.16" y="-105.61" font-family="Times,serif" font-size="14.00">2000</text>
</a>
</g>
</g>
<!-- cites&#45;&gt;RFC2863 -->
<g id="edge16" class="edge">
<title>cites&#45;&gt;RFC2863</title>
<path fill="none" stroke="black" d="M514.43,-642.89C518.96,-558.97 539.42,-213.05 570.6,-177.16 587.79,-157.38 611.78,-144.97 636.94,-137.29"/>
<polygon fill="black" stroke="black" points="637.62,-140.74 646.32,-134.69 635.75,-133.99 637.62,-140.74"/>
</g>
<!-- rev_cites -->
<g id="node18" class="node">
<title>rev_cites</title>
<polygon fill="lightblue" stroke="black" points="1030.73,-624.16 976.73,-624.16 976.73,-588.16 1030.73,-588.16 1030.73,-624.16"/>
<text xml:space="preserve" text-anchor="middle" x="1003.73" y="-601.11" font-family="Times,serif" font-size="14.00">cites</text>
</g>
<!-- RFC5833&#45;&gt;rev_cites -->
<g id="edge18" class="edge">
<title>RFC5833&#45;&gt;rev_cites</title>
<path fill="none" stroke="black" d="M952.01,-606.16C956.52,-606.16 960.84,-606.16 964.92,-606.16"/>
<polygon fill="black" stroke="black" points="964.86,-609.66 974.86,-606.16 964.86,-602.66 964.86,-609.66"/>
</g>
<!-- rev_cites&#45;&gt;RFC5834 -->
<g id="edge17" class="edge">
<title>rev_cites&#45;&gt;RFC5834</title>
<path fill="none" stroke="black" d="M1002.39,-587.81C1000.54,-498.51 990.36,-112.25 951.73,-77.16 826.34,36.72 714.18,12.72 570.6,-77.16 379.79,-196.6 308.52,-477.63 284.6,-612.86"/>
<polygon fill="black" stroke="black" points="281.21,-611.97 282.95,-622.42 288.1,-613.16 281.21,-611.97"/>
</g>
<!-- RFC6632 -->
<g id="node19" class="node">
<title>RFC6632</title>
<g id="a_node19"><a xlink:href="RFC6632.html" xlink:title="This document gives an overview of the IETF network management standards and summarizes existing and ongoing development of IETF Standards Track network management protocols and data models. &#160;The document refers to other overview documents, where they exist and classifies the standards for easy orientation. &#160;The purpose of this document is, on the one hand, to help system developers and users to select appropriate standard management protocols and data models to address relevant management needs. &#160;On the other hand, the document can be used as an overview and guideline by other Standard Development Organizations or bodies planning to use IETF management technologies and data models. &#160;This document does not cover Operations, Administration, and Maintenance (OAM) technologies on the data&#45;path, e.g., OAM of tunnels, MPLS Transport Profile (MPLS&#45;TP) OAM, and pseudowire as well as the corresponding management models. &#160;This document is not an Internet Standards Track specification; it is published for informational purposes." target="_top">
<ellipse fill="none" stroke="black" cx="761.16" cy="-1487.16" rx="147.08" ry="52.33"/>
<text xml:space="preserve" text-anchor="middle" x="761.16" y="-1506.86" font-family="Times,serif" font-size="14.00">RFC6632</text>
<text xml:space="preserve" text-anchor="middle" x="761.16" y="-1490.36" font-family="Times,serif" font-size="14.00">An Overview of the IETF Network</text>
<text xml:space="preserve" text-anchor="middle" x="761.16" y="-1473.86" font-family="Times,serif" font-size="14.00">Management Standards</text>
<text xml:space="preserve" text-anchor="middle" x="761.16" y="-1457.36" font-family="Times,serif" font-size="14.00">2012</text>
</a>
</g>
</g>
<!-- RFC6632&#45;&gt;rev_cites -->
<g id="edge19" class="edge">
<title>RFC6632&#45;&gt;rev_cites</title>
<path fill="none" stroke="black" d="M896.33,-1466.41C917.75,-1457.34 937.51,-1444.45 951.73,-1426.16 1001.07,-1362.69 1003.06,-775.07 1002.83,-635.7"/>
<polygon fill="black" stroke="black" points="1006.33,-635.84 1002.81,-625.85 999.33,-635.86 1006.33,-635.84"/>
</g>
</g>
</svg>
