<?xml version="1.0" encoding="UTF-8" standalone="no"?>
<!DOCTYPE svg PUBLIC "-//W3C//DTD SVG 1.1//EN"
 "http://www.w3.org/Graphics/SVG/1.1/DTD/svg11.dtd">
<!-- Generated by graphviz version 14.1.1 (20251213.1925)
 -->
<!-- Title: Flow Pages: 1 -->
<svg width="1696pt" height="1143pt"
 viewBox="0.00 0.00 1696.00 1143.00" xmlns="http://www.w3.org/2000/svg" xmlns:xlink="http://www.w3.org/1999/xlink">
<g id="graph0" class="graph" transform="scale(1 1) rotate(0) translate(4 1138.66)">
<title>Flow</title>
<polygon fill="white" stroke="none" points="-4,4 -4,-1138.66 1691.76,-1138.66 1691.76,4 -4,4"/>
<!-- RFC5436 -->
<g id="node1" class="node">
<title>RFC5436</title>
<g id="a_node1"><a xlink:title="This document describes a profile of the Sieve extension for notifications, to allow notifications to be sent by electronic mail. [STANDARDS&#45;TRACK]">
<ellipse fill="green" stroke="black" stroke-width="3" cx="857.38" cy="-372.78" rx="209.13" ry="50.2"/>
<text xml:space="preserve" text-anchor="middle" x="857.38" y="-387.18" font-family="Times,serif" font-size="18.00">RFC5436</text>
<text xml:space="preserve" text-anchor="middle" x="857.38" y="-366.18" font-family="Times,serif" font-size="18.00">Sieve Notification Mechanism: mailto</text>
<text xml:space="preserve" text-anchor="middle" x="857.38" y="-345.18" font-family="Times,serif" font-size="18.00">2009</text>
</a>
</g>
</g>
<!-- obs -->
<g id="node3" class="node">
<title>obs</title>
<polygon fill="lightblue" stroke="black" points="1218.37,-548.67 1152.12,-548.67 1152.12,-512.67 1218.37,-512.67 1218.37,-548.67"/>
<text xml:space="preserve" text-anchor="middle" x="1185.24" y="-525.62" font-family="Times,serif" font-size="14.00">obsoletes</text>
</g>
<!-- RFC5436&#45;&gt;obs -->
<g id="edge2" class="edge">
<title>RFC5436&#45;&gt;obs</title>
<path fill="none" stroke="black" d="M952.65,-418.66C1015.05,-448.71 1093.65,-486.56 1141.64,-509.67"/>
<polygon fill="black" stroke="black" points="1140.09,-512.81 1150.62,-513.99 1143.12,-506.5 1140.09,-512.81"/>
</g>
<!-- updates -->
<g id="node4" class="node">
<title>updates</title>
<polygon fill="lightyellow" stroke="black" points="966.98,-745.56 909.73,-745.56 909.73,-709.56 966.98,-709.56 966.98,-745.56"/>
<text xml:space="preserve" text-anchor="middle" x="938.36" y="-722.51" font-family="Times,serif" font-size="14.00">updates</text>
</g>
<!-- RFC5436&#45;&gt;updates -->
<g id="edge3" class="edge">
<title>RFC5436&#45;&gt;updates</title>
<path fill="none" stroke="black" d="M869.15,-424.37C886.38,-499.86 917.91,-637.97 931.65,-698.19"/>
<polygon fill="black" stroke="black" points="928.18,-698.7 933.82,-707.67 935,-697.15 928.18,-698.7"/>
</g>
<!-- cites -->
<g id="node7" class="node">
<title>cites</title>
<polygon fill="lightblue" stroke="black" points="556.52,-548.67 502.52,-548.67 502.52,-512.67 556.52,-512.67 556.52,-548.67"/>
<text xml:space="preserve" text-anchor="middle" x="529.52" y="-525.62" font-family="Times,serif" font-size="14.00">cites</text>
</g>
<!-- RFC5436&#45;&gt;cites -->
<g id="edge6" class="edge">
<title>RFC5436&#45;&gt;cites</title>
<path fill="none" stroke="black" d="M762.11,-418.66C697.03,-450 614.34,-489.82 567.12,-512.56"/>
<polygon fill="black" stroke="black" points="565.62,-509.4 558.12,-516.89 568.65,-515.71 565.62,-509.4"/>
</g>
<!-- obs_by -->
<g id="node2" class="node">
<title>obs_by</title>
<polygon fill="lightblue" stroke="black" points="663.62,-106.27 597.37,-106.27 597.37,-70.27 663.62,-70.27 663.62,-106.27"/>
<text xml:space="preserve" text-anchor="middle" x="630.49" y="-83.22" font-family="Times,serif" font-size="14.00">obsoletes</text>
</g>
<!-- obs_by&#45;&gt;RFC5436 -->
<g id="edge1" class="edge">
<title>obs_by&#45;&gt;RFC5436</title>
<path fill="none" stroke="black" d="M645.03,-106.5C677.68,-147.44 758.01,-248.18 809.98,-313.34"/>
<polygon fill="black" stroke="black" points="807.2,-315.47 816.17,-321.11 812.67,-311.1 807.2,-315.47"/>
</g>
<!-- RFC3834 -->
<g id="node5" class="node">
<title>RFC3834</title>
<g id="a_node5"><a xlink:href="RFC3834.html" xlink:title="This memo makes recommendations for software that automatically responds to incoming electronic mail messages, including out of the office or vacation response generators, mail filtering software, email&#45;based information services, and other automatic responders. &#160;The purpose of these recommendations is to discourage undesirable behavior which is caused or aggravated by such software, to encourage uniform behavior (where appropriate) among automatic mail responders, and to clear up some sources of confusion among implementors of automatic email responders. [STANDARDS&#45;TRACK]" target="_top">
<ellipse fill="none" stroke="black" cx="1019.33" cy="-1082.33" rx="183.14" ry="52.33"/>
<text xml:space="preserve" text-anchor="middle" x="1019.33" y="-1102.03" font-family="Times,serif" font-size="14.00">RFC3834</text>
<text xml:space="preserve" text-anchor="middle" x="1019.33" y="-1085.53" font-family="Times,serif" font-size="14.00">Recommendations for Automatic Responses</text>
<text xml:space="preserve" text-anchor="middle" x="1019.33" y="-1069.03" font-family="Times,serif" font-size="14.00">to Electronic Mail</text>
<text xml:space="preserve" text-anchor="middle" x="1019.33" y="-1052.53" font-family="Times,serif" font-size="14.00">2004</text>
</a>
</g>
</g>
<!-- updates&#45;&gt;RFC3834 -->
<g id="edge4" class="edge">
<title>updates&#45;&gt;RFC3834</title>
<path fill="none" stroke="black" d="M942.48,-745.64C953.82,-795.32 985.86,-935.71 1004.8,-1018.68"/>
<polygon fill="black" stroke="black" points="1001.35,-1019.3 1006.99,-1028.27 1008.18,-1017.74 1001.35,-1019.3"/>
</g>
<!-- updated_by -->
<g id="node6" class="node">
<title>updated_by</title>
<polygon fill="lightyellow" stroke="black" points="966.98,-36 909.73,-36 909.73,0 966.98,0 966.98,-36"/>
<text xml:space="preserve" text-anchor="middle" x="938.36" y="-12.95" font-family="Times,serif" font-size="14.00">updates</text>
</g>
<!-- updated_by&#45;&gt;RFC5436 -->
<g id="edge5" class="edge">
<title>updated_by&#45;&gt;RFC5436</title>
<path fill="none" stroke="black" d="M934.23,-36.08C922.84,-85.96 890.59,-227.3 871.68,-310.14"/>
<polygon fill="black" stroke="black" points="868.31,-309.17 869.49,-319.7 875.13,-310.73 868.31,-309.17"/>
</g>
<!-- cites&#45;&gt;RFC3834 -->
<g id="edge9" class="edge">
<title>cites&#45;&gt;RFC3834</title>
<path fill="none" stroke="black" d="M545.81,-549.02C611.3,-622.78 857.03,-899.54 966.33,-1022.64"/>
<polygon fill="black" stroke="black" points="963.7,-1024.95 972.96,-1030.11 968.94,-1020.3 963.7,-1024.95"/>
</g>
<!-- RFC5322 -->
<g id="node8" class="node">
<title>RFC5322</title>
<g id="a_node8"><a xlink:href="RFC5322.html" xlink:title="This document specifies the Internet Message Format (IMF), a syntax for text messages that are sent between computer users, within the framework of electronic mail messages. &#160;This specification is a revision of Request For Comments (RFC) 2822, which itself superseded Request For Comments (RFC) 822, Standard for the Format of ARPA Internet Text Messages, updating it to reflect current practice and incorporating incremental changes that were specified in other RFCs. [STANDARDS&#45;TRACK]" target="_top">
<ellipse fill="none" stroke="black" cx="403.6" cy="-941.8" rx="108.36" ry="40.66"/>
<text xml:space="preserve" text-anchor="middle" x="403.6" y="-953.25" font-family="Times,serif" font-size="14.00">RFC5322</text>
<text xml:space="preserve" text-anchor="middle" x="403.6" y="-936.75" font-family="Times,serif" font-size="14.00">Internet Message Format</text>
<text xml:space="preserve" text-anchor="middle" x="403.6" y="-920.25" font-family="Times,serif" font-size="14.00">2008</text>
</a>
</g>
</g>
<!-- cites&#45;&gt;RFC5322 -->
<g id="edge7" class="edge">
<title>cites&#45;&gt;RFC5322</title>
<path fill="none" stroke="black" d="M523.86,-549.13C505.58,-608.81 447.64,-797.99 419.39,-890.23"/>
<polygon fill="black" stroke="black" points="416.13,-888.95 416.54,-899.54 422.82,-891 416.13,-888.95"/>
</g>
<!-- RFC5321 -->
<g id="node9" class="node">
<title>RFC5321</title>
<g id="a_node9"><a xlink:href="RFC5321.html" xlink:title="This document is a specification of the basic protocol for Internet electronic mail transport. &#160;It consolidates, updates, and clarifies several previous documents, making all or parts of most of them obsolete. &#160;It covers the SMTP extension mechanisms and best practices for the contemporary Internet, but does not provide details about particular extensions. &#160;Although SMTP was designed as a mail transport and delivery protocol, this specification also contains information that is important to its use as a mail submission protocol for split&#45;UA (User Agent) mail reading systems and mobile environments. [STANDARDS&#45;TRACK]" target="_top">
<ellipse fill="none" stroke="black" cx="129.58" cy="-372.78" rx="129.58" ry="40.66"/>
<text xml:space="preserve" text-anchor="middle" x="129.58" y="-384.23" font-family="Times,serif" font-size="14.00">RFC5321</text>
<text xml:space="preserve" text-anchor="middle" x="129.58" y="-367.73" font-family="Times,serif" font-size="14.00">Simple Mail Transfer Protocol</text>
<text xml:space="preserve" text-anchor="middle" x="129.58" y="-351.23" font-family="Times,serif" font-size="14.00">2008</text>
</a>
</g>
</g>
<!-- cites&#45;&gt;RFC5321 -->
<g id="edge8" class="edge">
<title>cites&#45;&gt;RFC5321</title>
<path fill="none" stroke="black" d="M502.03,-519.82C445.07,-497.33 311.94,-444.77 221.3,-408.99"/>
<polygon fill="black" stroke="black" points="222.73,-405.79 212.14,-405.37 220.16,-412.3 222.73,-405.79"/>
</g>
<!-- rev_cites -->
<g id="node10" class="node">
<title>rev_cites</title>
<polygon fill="lightblue" stroke="black" points="1212.24,-232.89 1158.24,-232.89 1158.24,-196.89 1212.24,-196.89 1212.24,-232.89"/>
<text xml:space="preserve" text-anchor="middle" x="1185.24" y="-209.84" font-family="Times,serif" font-size="14.00">cites</text>
</g>
<!-- rev_cites&#45;&gt;RFC5436 -->
<g id="edge10" class="edge">
<title>rev_cites&#45;&gt;RFC5436</title>
<path fill="none" stroke="black" d="M1157.85,-228.08C1115.31,-248.56 1031.13,-289.1 962.67,-322.07"/>
<polygon fill="black" stroke="black" points="961.54,-318.73 954.05,-326.22 964.58,-325.04 961.54,-318.73"/>
</g>
<!-- RFC8580 -->
<g id="node11" class="node">
<title>RFC8580</title>
<g id="a_node11"><a xlink:href="RFC8580.html" xlink:title="The Sieve email filtering language provides a number of action commands, some of which can generate additional messages on behalf of the user. This document defines an extension to such commands to allow a copy of any generated message to be filed into a target mailbox. This document updates RFCs 5230 and 5435 by adding a new tagged argument to the Vacation and Notify actions, respectively." target="_top">
<ellipse fill="none" stroke="black" cx="1513.11" cy="-57" rx="174.66" ry="40.66"/>
<text xml:space="preserve" text-anchor="middle" x="1513.11" y="-68.45" font-family="Times,serif" font-size="14.00">RFC8580</text>
<text xml:space="preserve" text-anchor="middle" x="1513.11" y="-51.95" font-family="Times,serif" font-size="14.00">Sieve Extension: File Carbon Copy (FCC)</text>
<text xml:space="preserve" text-anchor="middle" x="1513.11" y="-35.45" font-family="Times,serif" font-size="14.00">2019</text>
</a>
</g>
</g>
<!-- RFC8580&#45;&gt;rev_cites -->
<g id="edge11" class="edge">
<title>RFC8580&#45;&gt;rev_cites</title>
<path fill="none" stroke="black" d="M1436.65,-93.81C1369.38,-126.21 1274.32,-171.99 1222.49,-196.95"/>
<polygon fill="black" stroke="black" points="1221.28,-193.65 1213.78,-201.14 1224.31,-199.96 1221.28,-193.65"/>
</g>
</g>
</svg>
