<?xml version="1.0" encoding="UTF-8" standalone="no"?>
<!DOCTYPE svg PUBLIC "-//W3C//DTD SVG 1.1//EN"
 "http://www.w3.org/Graphics/SVG/1.1/DTD/svg11.dtd">
<!-- Generated by graphviz version 14.1.1 (20251213.1925)
 -->
<!-- Title: Flow Pages: 1 -->
<svg width="1293pt" height="579pt"
 viewBox="0.00 0.00 1293.00 579.00" xmlns="http://www.w3.org/2000/svg" xmlns:xlink="http://www.w3.org/1999/xlink">
<g id="graph0" class="graph" transform="scale(1 1) rotate(0) translate(4 575.32)">
<title>Flow</title>
<polygon fill="white" stroke="none" points="-4,4 -4,-575.32 1288.67,-575.32 1288.67,4 -4,4"/>
<!-- RFC5154 -->
<g id="node1" class="node">
<title>RFC5154</title>
<g id="a_node1"><a xlink:title="This document specifies problems in running IP over IEEE 802.16 networks by identifying specific gaps in the IEEE 802.16 Media Access Control (MAC) for IPv4 and IPv6 support. &#160;This document also provides an overview of IEEE 802.16 network characteristics and convergence sublayers. &#160;Common terminology used for the base guideline while defining the solution framework is also presented. &#160;This memo provides information for the Internet community.">
<ellipse fill="none" stroke="black" cx="627.49" cy="-362.66" rx="168.29" ry="52.33"/>
<text xml:space="preserve" text-anchor="middle" x="627.49" y="-382.36" font-family="Times,serif" font-size="14.00">RFC5154</text>
<text xml:space="preserve" text-anchor="middle" x="627.49" y="-365.86" font-family="Times,serif" font-size="14.00">IP over IEEE 802.16 Problem Statement</text>
<text xml:space="preserve" text-anchor="middle" x="627.49" y="-349.36" font-family="Times,serif" font-size="14.00">and Goals</text>
<text xml:space="preserve" text-anchor="middle" x="627.49" y="-332.86" font-family="Times,serif" font-size="14.00">2008</text>
</a>
</g>
</g>
<!-- obs -->
<g id="node3" class="node">
<title>obs</title>
<polygon fill="none" stroke="black" points="887.03,-434.66 820.78,-434.66 820.78,-398.66 887.03,-398.66 887.03,-434.66"/>
<text xml:space="preserve" text-anchor="middle" x="853.9" y="-411.61" font-family="Times,serif" font-size="14.00">obsoletes</text>
</g>
<!-- RFC5154&#45;&gt;obs -->
<g id="edge2" class="edge">
<title>RFC5154&#45;&gt;obs</title>
<path fill="none" stroke="black" d="M761.63,-394.69C778.9,-398.85 795.5,-402.84 809.68,-406.26"/>
<polygon fill="black" stroke="black" points="808.5,-409.57 819.04,-408.51 810.14,-402.77 808.5,-409.57"/>
</g>
<!-- updates -->
<g id="node4" class="node">
<title>updates</title>
<polygon fill="none" stroke="black" points="882.53,-380.66 825.28,-380.66 825.28,-344.66 882.53,-344.66 882.53,-380.66"/>
<text xml:space="preserve" text-anchor="middle" x="853.9" y="-357.61" font-family="Times,serif" font-size="14.00">updates</text>
</g>
<!-- RFC5154&#45;&gt;updates -->
<g id="edge3" class="edge">
<title>RFC5154&#45;&gt;updates</title>
<path fill="none" stroke="black" d="M796.27,-362.66C802.43,-362.66 808.29,-362.66 813.75,-362.66"/>
<polygon fill="black" stroke="black" points="813.48,-366.16 823.48,-362.66 813.48,-359.16 813.48,-366.16"/>
</g>
<!-- cites -->
<g id="node6" class="node">
<title>cites</title>
<polygon fill="none" stroke="black" points="880.9,-326.66 826.9,-326.66 826.9,-290.66 880.9,-290.66 880.9,-326.66"/>
<text xml:space="preserve" text-anchor="middle" x="853.9" y="-303.61" font-family="Times,serif" font-size="14.00">cites</text>
</g>
<!-- RFC5154&#45;&gt;cites -->
<g id="edge5" class="edge">
<title>RFC5154&#45;&gt;cites</title>
<path fill="none" stroke="black" d="M761.63,-330.62C781.33,-325.88 800.14,-321.35 815.52,-317.66"/>
<polygon fill="black" stroke="black" points="816.18,-321.1 825.08,-315.35 814.54,-314.29 816.18,-321.1"/>
</g>
<!-- obs_by -->
<g id="node2" class="node">
<title>obs_by</title>
<polygon fill="none" stroke="black" points="434.2,-434.66 367.95,-434.66 367.95,-398.66 434.2,-398.66 434.2,-434.66"/>
<text xml:space="preserve" text-anchor="middle" x="401.07" y="-411.61" font-family="Times,serif" font-size="14.00">obsoletes</text>
</g>
<!-- obs_by&#45;&gt;RFC5154 -->
<g id="edge1" class="edge">
<title>obs_by&#45;&gt;RFC5154</title>
<path fill="none" stroke="black" d="M434.23,-408.92C447.74,-405.67 464.48,-401.64 482.41,-397.33"/>
<polygon fill="black" stroke="black" points="483.02,-400.78 491.92,-395.04 481.38,-393.97 483.02,-400.78"/>
</g>
<!-- updated_by -->
<g id="node5" class="node">
<title>updated_by</title>
<polygon fill="none" stroke="black" points="429.7,-380.66 372.45,-380.66 372.45,-344.66 429.7,-344.66 429.7,-380.66"/>
<text xml:space="preserve" text-anchor="middle" x="401.07" y="-357.61" font-family="Times,serif" font-size="14.00">updates</text>
</g>
<!-- updated_by&#45;&gt;RFC5154 -->
<g id="edge4" class="edge">
<title>updated_by&#45;&gt;RFC5154</title>
<path fill="none" stroke="black" d="M430.04,-362.66C435.38,-362.66 441.33,-362.66 447.73,-362.66"/>
<polygon fill="black" stroke="black" points="447.38,-366.16 457.38,-362.66 447.38,-359.16 447.38,-366.16"/>
</g>
<!-- RFC4903 -->
<g id="node7" class="node">
<title>RFC4903</title>
<g id="a_node7"><a xlink:href="RFC4903.html" xlink:title="There have been several proposals around the notion that a subnet may span multiple links connected by routers. &#160;This memo documents the issues and potential problems that have been raised with such an approach. &#160;This memo provides information for the Internet community." target="_top">
<ellipse fill="none" stroke="black" cx="1098.35" cy="-530.66" rx="109.42" ry="40.66"/>
<text xml:space="preserve" text-anchor="middle" x="1098.35" y="-542.11" font-family="Times,serif" font-size="14.00">RFC4903</text>
<text xml:space="preserve" text-anchor="middle" x="1098.35" y="-525.61" font-family="Times,serif" font-size="14.00">Multi&#45;Link Subnet Issues</text>
<text xml:space="preserve" text-anchor="middle" x="1098.35" y="-509.11" font-family="Times,serif" font-size="14.00">2007</text>
</a>
</g>
</g>
<!-- cites&#45;&gt;RFC4903 -->
<g id="edge6" class="edge">
<title>cites&#45;&gt;RFC4903</title>
<path fill="none" stroke="black" d="M880.31,-326.83C882.88,-329.54 885.22,-332.5 887.03,-335.66 919.6,-392.37 867.98,-432.32 912.03,-480.66 929.8,-500.16 954.31,-512.39 979.69,-519.96"/>
<polygon fill="black" stroke="black" points="978.58,-523.29 989.14,-522.54 980.42,-516.53 978.58,-523.29"/>
</g>
<!-- RFC4968 -->
<g id="node8" class="node">
<title>RFC4968</title>
<g id="a_node8"><a xlink:href="RFC4968.html" xlink:title="This document provides different IPv6 link models that are suitable for IEEE 802.16 based networks and provides analysis of various considerations for each link model and the applicability of each link model under different deployment scenarios. &#160;This document is the result of a design team (DT) that was formed to analyze the IPv6 link models for IEEE 802.16 based networks. &#160;This memo provides information for the Internet community." target="_top">
<ellipse fill="none" stroke="black" cx="1098.35" cy="-419.66" rx="171.47" ry="52.33"/>
<text xml:space="preserve" text-anchor="middle" x="1098.35" y="-439.36" font-family="Times,serif" font-size="14.00">RFC4968</text>
<text xml:space="preserve" text-anchor="middle" x="1098.35" y="-422.86" font-family="Times,serif" font-size="14.00">Analysis of IPv6 Link Models for 802.16</text>
<text xml:space="preserve" text-anchor="middle" x="1098.35" y="-406.36" font-family="Times,serif" font-size="14.00">Based Networks</text>
<text xml:space="preserve" text-anchor="middle" x="1098.35" y="-389.86" font-family="Times,serif" font-size="14.00">2007</text>
</a>
</g>
</g>
<!-- cites&#45;&gt;RFC4968 -->
<g id="edge7" class="edge">
<title>cites&#45;&gt;RFC4968</title>
<path fill="none" stroke="black" d="M877.14,-327.12C880.47,-329.96 883.86,-332.87 887.03,-335.66 898.37,-345.63 899.01,-351.01 912.03,-358.66 926.41,-367.1 942.11,-374.55 958.09,-381.08"/>
<polygon fill="black" stroke="black" points="956.62,-384.26 967.21,-384.68 959.19,-377.75 956.62,-384.26"/>
</g>
<!-- RFC1661 -->
<g id="node9" class="node">
<title>RFC1661</title>
<g id="a_node9"><a xlink:href="RFC1661.html" xlink:title="This document defines the PPP organization and methodology, and the PPP encapsulation, together with an extensible option negotiation mechanism which is able to negotiate a rich assortment of configuration parameters and provides additional management functions. [STANDARDS&#45;TRACK]" target="_top">
<ellipse fill="none" stroke="black" cx="1098.35" cy="-308.66" rx="142.84" ry="40.66"/>
<text xml:space="preserve" text-anchor="middle" x="1098.35" y="-320.11" font-family="Times,serif" font-size="14.00">RFC1661</text>
<text xml:space="preserve" text-anchor="middle" x="1098.35" y="-303.61" font-family="Times,serif" font-size="14.00">The Point&#45;to&#45;Point Protocol (PPP)</text>
<text xml:space="preserve" text-anchor="middle" x="1098.35" y="-287.11" font-family="Times,serif" font-size="14.00">1994</text>
</a>
</g>
</g>
<!-- cites&#45;&gt;RFC1661 -->
<g id="edge8" class="edge">
<title>cites&#45;&gt;RFC1661</title>
<path fill="none" stroke="black" d="M881.31,-308.66C897.47,-308.66 919.6,-308.66 943.57,-308.66"/>
<polygon fill="black" stroke="black" points="943.56,-312.16 953.56,-308.66 943.56,-305.16 943.56,-312.16"/>
</g>
<!-- RFC4541 -->
<g id="node10" class="node">
<title>RFC4541</title>
<g id="a_node10"><a xlink:href="RFC4541.html" xlink:title="This memo describes the recommendations for Internet Group Management Protocol (IGMP) and Multicast Listener Discovery (MLD) snooping switches. &#160;These are based on best current practices for IGMPv2, with further considerations for IGMPv3&#45; and MLDv2&#45;snooping. &#160;Additional areas of relevance, such as link layer topology changes and Ethernet&#45;specific encapsulation issues, are also considered. &#160;This memo provides information for the Internet community." target="_top">
<ellipse fill="none" stroke="black" cx="1098.35" cy="-174.66" rx="186.32" ry="75.66"/>
<text xml:space="preserve" text-anchor="middle" x="1098.35" y="-210.86" font-family="Times,serif" font-size="14.00">RFC4541</text>
<text xml:space="preserve" text-anchor="middle" x="1098.35" y="-194.36" font-family="Times,serif" font-size="14.00">Considerations for Internet Group</text>
<text xml:space="preserve" text-anchor="middle" x="1098.35" y="-177.86" font-family="Times,serif" font-size="14.00">Management Protocol (IGMP) and Multicast</text>
<text xml:space="preserve" text-anchor="middle" x="1098.35" y="-161.36" font-family="Times,serif" font-size="14.00">Listener Discovery (MLD) Snooping</text>
<text xml:space="preserve" text-anchor="middle" x="1098.35" y="-144.86" font-family="Times,serif" font-size="14.00">Switches</text>
<text xml:space="preserve" text-anchor="middle" x="1098.35" y="-128.36" font-family="Times,serif" font-size="14.00">2006</text>
</a>
</g>
</g>
<!-- cites&#45;&gt;RFC4541 -->
<g id="edge9" class="edge">
<title>cites&#45;&gt;RFC4541</title>
<path fill="none" stroke="black" d="M873.08,-290.27C883.79,-280.1 897.96,-267.72 912.03,-258.66 925.92,-249.71 940.91,-241.23 956.15,-233.35"/>
<polygon fill="black" stroke="black" points="957.5,-236.59 964.84,-228.94 954.34,-230.34 957.5,-236.59"/>
</g>
<!-- RFC3971 -->
<g id="node11" class="node">
<title>RFC3971</title>
<g id="a_node11"><a xlink:href="RFC3971.html" xlink:title="IPv6 nodes use the Neighbor Discovery Protocol (NDP) to discover other nodes on the link, to determine their link&#45;layer addresses to find routers, and to maintain reachability information about the paths to active neighbors. &#160;If not secured, NDP is vulnerable to various attacks. &#160;This document specifies security mechanisms for NDP. &#160;Unlike those in the original NDP specifications, these mechanisms do not use IPsec. [STANDARDS&#45;TRACK]" target="_top">
<ellipse fill="none" stroke="black" cx="1098.35" cy="-40.66" rx="153.44" ry="40.66"/>
<text xml:space="preserve" text-anchor="middle" x="1098.35" y="-52.11" font-family="Times,serif" font-size="14.00">RFC3971</text>
<text xml:space="preserve" text-anchor="middle" x="1098.35" y="-35.61" font-family="Times,serif" font-size="14.00">SEcure Neighbor Discovery (SEND)</text>
<text xml:space="preserve" text-anchor="middle" x="1098.35" y="-19.11" font-family="Times,serif" font-size="14.00">2005</text>
</a>
</g>
</g>
<!-- cites&#45;&gt;RFC3971 -->
<g id="edge10" class="edge">
<title>cites&#45;&gt;RFC3971</title>
<path fill="none" stroke="black" d="M857.27,-290.48C863.78,-243.27 883.39,-118.39 912.03,-89.66 922.99,-78.66 936.12,-70.04 950.26,-63.3"/>
<polygon fill="black" stroke="black" points="951.57,-66.55 959.32,-59.33 948.76,-60.13 951.57,-66.55"/>
</g>
<!-- rev_cites -->
<g id="node12" class="node">
<title>rev_cites</title>
<polygon fill="none" stroke="black" points="428.07,-326.66 374.07,-326.66 374.07,-290.66 428.07,-290.66 428.07,-326.66"/>
<text xml:space="preserve" text-anchor="middle" x="401.07" y="-303.61" font-family="Times,serif" font-size="14.00">cites</text>
</g>
<!-- rev_cites&#45;&gt;RFC5154 -->
<g id="edge11" class="edge">
<title>rev_cites&#45;&gt;RFC5154</title>
<path fill="none" stroke="black" d="M428.25,-314.96C442.68,-318.43 461.84,-323.04 482.58,-328.03"/>
<polygon fill="black" stroke="black" points="481.54,-331.38 492.08,-330.32 483.18,-324.57 481.54,-331.38"/>
</g>
<!-- RFC5181 -->
<g id="node13" class="node">
<title>RFC5181</title>
<g id="a_node13"><a xlink:href="RFC5181.html" xlink:title="This document provides a detailed description of IPv6 deployment and integration methods and scenarios in wireless broadband access networks in coexistence with deployed IPv4 services. &#160;In this document, we will discuss the main components of IPv6 IEEE 802.16 access networks and their differences from IPv4 IEEE 802.16 networks and how IPv6 is deployed and integrated in each of the IEEE 802.16 technologies. &#160;This memo provides information for the Internet community." target="_top">
<ellipse fill="none" stroke="black" cx="171.47" cy="-431.66" rx="158.75" ry="52.33"/>
<text xml:space="preserve" text-anchor="middle" x="171.47" y="-451.36" font-family="Times,serif" font-size="14.00">RFC5181</text>
<text xml:space="preserve" text-anchor="middle" x="171.47" y="-434.86" font-family="Times,serif" font-size="14.00">IPv6 Deployment Scenarios in 802.16</text>
<text xml:space="preserve" text-anchor="middle" x="171.47" y="-418.36" font-family="Times,serif" font-size="14.00">Networks</text>
<text xml:space="preserve" text-anchor="middle" x="171.47" y="-401.86" font-family="Times,serif" font-size="14.00">2008</text>
</a>
</g>
</g>
<!-- RFC5181&#45;&gt;rev_cites -->
<g id="edge12" class="edge">
<title>RFC5181&#45;&gt;rev_cites</title>
<path fill="none" stroke="black" d="M293.53,-397.81C311,-390.09 328.07,-380.8 342.95,-369.66 357.96,-358.42 355.12,-349.34 367.95,-335.66 368.21,-335.38 368.47,-335.1 368.74,-334.82"/>
<polygon fill="black" stroke="black" points="371.11,-337.4 375.9,-327.95 366.26,-332.35 371.11,-337.4"/>
</g>
<!-- RFC5692 -->
<g id="node14" class="node">
<title>RFC5692</title>
<g id="a_node14"><a xlink:href="RFC5692.html" xlink:title="This document describes the transmission of IPv4 over Ethernet, as well as IPv6 over Ethernet, in an access network deploying the IEEE 802.16 cellular radio transmission technology. &#160;The Ethernet on top of IEEE 802.16 is realized by bridging connections that IEEE 802.16 provides between a base station and its associated subscriber stations. &#160;Due to the resource constraints of radio transmission systems and the limitations of the IEEE 802.16 Media Access Control (MAC) functionality for the realization of an Ethernet, the transmission of IP over Ethernet over IEEE 802.16 may considerably benefit by adding IP&#45;specific support functions in the Ethernet over IEEE 802.16 while maintaining full compatibility with standard IP over Ethernet behavior. [STANDARDS&#45;TRACK]" target="_top">
<ellipse fill="none" stroke="black" cx="171.47" cy="-308.66" rx="158.75" ry="52.33"/>
<text xml:space="preserve" text-anchor="middle" x="171.47" y="-328.36" font-family="Times,serif" font-size="14.00">RFC5692</text>
<text xml:space="preserve" text-anchor="middle" x="171.47" y="-311.86" font-family="Times,serif" font-size="14.00">Transmission of IP over Ethernet over</text>
<text xml:space="preserve" text-anchor="middle" x="171.47" y="-295.36" font-family="Times,serif" font-size="14.00">IEEE 802.16 Networks</text>
<text xml:space="preserve" text-anchor="middle" x="171.47" y="-278.86" font-family="Times,serif" font-size="14.00">2009</text>
</a>
</g>
</g>
<!-- RFC5692&#45;&gt;rev_cites -->
<g id="edge13" class="edge">
<title>RFC5692&#45;&gt;rev_cites</title>
<path fill="none" stroke="black" d="M330.55,-308.66C342.07,-308.66 352.87,-308.66 362.37,-308.66"/>
<polygon fill="black" stroke="black" points="362.14,-312.16 372.14,-308.66 362.14,-305.16 362.14,-312.16"/>
</g>
<!-- RFC5948 -->
<g id="node15" class="node">
<title>RFC5948</title>
<g id="a_node15"><a xlink:href="RFC5948.html" xlink:title="IEEE 802.16 is an air interface specification for wireless broadband access. IEEE 802.16 has specified multiple service&#45;specific Convergence Sublayers for transmitting upper&#45;layer protocols. The Packet CS (Packet Convergence Sublayer) is used for the transport of all packet&#45;based protocols such as the Internet Protocol (IP) and IEEE 802.3 (Ethernet). The IP&#45;specific part of the Packet CS enables the transport of IPv4 packets directly over the IEEE 802.16 Media Access Control (MAC) layer. This document specifies the frame format, the Maximum Transmission Unit (MTU), and the address assignment procedures for transmitting IPv4 packets over the IP&#45;specific part of the Packet Convergence Sublayer of IEEE 802.16. [STANDARDS&#45;TRACK]" target="_top">
<ellipse fill="none" stroke="black" cx="171.47" cy="-185.66" rx="171.47" ry="52.33"/>
<text xml:space="preserve" text-anchor="middle" x="171.47" y="-205.36" font-family="Times,serif" font-size="14.00">RFC5948</text>
<text xml:space="preserve" text-anchor="middle" x="171.47" y="-188.86" font-family="Times,serif" font-size="14.00">Transmission of IPv4 Packets over the IP</text>
<text xml:space="preserve" text-anchor="middle" x="171.47" y="-172.36" font-family="Times,serif" font-size="14.00">Convergence Sublayer of IEEE 802.16</text>
<text xml:space="preserve" text-anchor="middle" x="171.47" y="-155.86" font-family="Times,serif" font-size="14.00">2010</text>
</a>
</g>
</g>
<!-- RFC5948&#45;&gt;rev_cites -->
<g id="edge14" class="edge">
<title>RFC5948&#45;&gt;rev_cites</title>
<path fill="none" stroke="black" d="M295.09,-222.26C311.79,-229.51 328.23,-237.94 342.95,-247.66 356.74,-256.77 369.58,-269.85 379.57,-281.57"/>
<polygon fill="black" stroke="black" points="376.62,-283.49 385.67,-289.01 382.03,-279.06 376.62,-283.49"/>
</g>
</g>
</svg>
