<?xml version="1.0" encoding="UTF-8" standalone="no"?>
<!DOCTYPE svg PUBLIC "-//W3C//DTD SVG 1.1//EN"
 "http://www.w3.org/Graphics/SVG/1.1/DTD/svg11.dtd">
<!-- Generated by graphviz version 14.1.1 (20251213.1925)
 -->
<!-- Title: Flow Pages: 1 -->
<svg width="1365pt" height="1484pt"
 viewBox="0.00 0.00 1365.00 1484.00" xmlns="http://www.w3.org/2000/svg" xmlns:xlink="http://www.w3.org/1999/xlink">
<g id="graph0" class="graph" transform="scale(1 1) rotate(0) translate(4 1479.59)">
<title>Flow</title>
<polygon fill="white" stroke="none" points="-4,4 -4,-1479.59 1360.78,-1479.59 1360.78,4 -4,4"/>
<!-- RFC5680 -->
<g id="node1" class="node">
<title>RFC5680</title>
<g id="a_node1"><a xlink:title="This document updates RFC 3777, Section 3, Bullet 6 to allow a Nominating and Recall Committee to disclose the list of nominees who are willing to be considered to serve in positions the committee is responsible for filling. &#160;This document specifies an Internet Best Current Practices for the Internet Community, and requests discussion and suggestions for improvements.">
<ellipse fill="green" stroke="black" stroke-width="3" cx="938" cy="-520.97" rx="233.52" ry="65.05"/>
<text xml:space="preserve" text-anchor="middle" x="938" y="-545.87" font-family="Times,serif" font-size="18.00">RFC5680</text>
<text xml:space="preserve" text-anchor="middle" x="938" y="-524.87" font-family="Times,serif" font-size="18.00">The Nominating Committee Process: Open</text>
<text xml:space="preserve" text-anchor="middle" x="938" y="-503.87" font-family="Times,serif" font-size="18.00">Disclosure of Willing Nominees</text>
<text xml:space="preserve" text-anchor="middle" x="938" y="-482.87" font-family="Times,serif" font-size="18.00">2009</text>
</a>
</g>
</g>
<!-- obs -->
<g id="node4" class="node">
<title>obs</title>
<polygon fill="lightblue" stroke="black" points="1356.78,-761.63 1290.53,-761.63 1290.53,-725.63 1356.78,-725.63 1356.78,-761.63"/>
<text xml:space="preserve" text-anchor="middle" x="1323.65" y="-738.58" font-family="Times,serif" font-size="14.00">obsoletes</text>
</g>
<!-- RFC5680&#45;&gt;obs -->
<g id="edge3" class="edge">
<title>RFC5680&#45;&gt;obs</title>
<path fill="none" stroke="black" d="M1041.35,-580.64C1120.28,-626.21 1224.91,-686.62 1282.04,-719.6"/>
<polygon fill="black" stroke="black" points="1280.08,-722.51 1290.49,-724.48 1283.58,-716.45 1280.08,-722.51"/>
</g>
<!-- updates -->
<g id="node5" class="node">
<title>updates</title>
<polygon fill="lightyellow" stroke="black" points="966.63,-984.28 909.38,-984.28 909.38,-948.28 966.63,-948.28 966.63,-984.28"/>
<text xml:space="preserve" text-anchor="middle" x="938" y="-961.23" font-family="Times,serif" font-size="14.00">updates</text>
</g>
<!-- RFC5680&#45;&gt;updates -->
<g id="edge4" class="edge">
<title>RFC5680&#45;&gt;updates</title>
<path fill="none" stroke="black" d="M938,-587.16C938,-685.41 938,-865.87 938,-936.67"/>
<polygon fill="black" stroke="black" points="934.5,-936.3 938,-946.3 941.5,-936.3 934.5,-936.3"/>
</g>
<!-- cites -->
<g id="node8" class="node">
<title>cites</title>
<polygon fill="lightblue" stroke="black" points="579.35,-761.63 525.35,-761.63 525.35,-725.63 579.35,-725.63 579.35,-761.63"/>
<text xml:space="preserve" text-anchor="middle" x="552.35" y="-738.58" font-family="Times,serif" font-size="14.00">cites</text>
</g>
<!-- RFC5680&#45;&gt;cites -->
<g id="edge7" class="edge">
<title>RFC5680&#45;&gt;cites</title>
<path fill="none" stroke="black" d="M834.65,-580.64C753.58,-627.45 645.38,-689.91 589.41,-722.23"/>
<polygon fill="black" stroke="black" points="587.8,-719.12 580.89,-727.15 591.3,-725.18 587.8,-719.12"/>
</g>
<!-- obs_by -->
<g id="node2" class="node">
<title>obs_by</title>
<polygon fill="lightblue" stroke="black" points="585.48,-316.32 519.23,-316.32 519.23,-280.32 585.48,-280.32 585.48,-316.32"/>
<text xml:space="preserve" text-anchor="middle" x="552.35" y="-293.27" font-family="Times,serif" font-size="14.00">obsoletes</text>
</g>
<!-- obs_by&#45;&gt;RFC5680 -->
<g id="edge1" class="edge">
<title>obs_by&#45;&gt;RFC5680</title>
<path fill="none" stroke="black" d="M584.24,-316.73C636.35,-346.81 742.21,-407.93 824.61,-455.5"/>
<polygon fill="black" stroke="black" points="822.82,-458.51 833.23,-460.48 826.32,-452.45 822.82,-458.51"/>
</g>
<!-- RFC7437 -->
<g id="node3" class="node">
<title>RFC7437</title>
<g id="a_node3"><a xlink:href="RFC7437.html" xlink:title="The process by which the members of the IAB and IESG, and some members of the IAOC, are selected, confirmed, and recalled is specified in this document. &#160;This document is a self&#45;consistent, organized compilation of the process as it was known at the time of publication of RFC 3777, with various updates since that version was published." target="_top">
<ellipse fill="none" stroke="black" cx="166.7" cy="-75.66" rx="166.7" ry="75.66"/>
<text xml:space="preserve" text-anchor="middle" x="166.7" y="-111.86" font-family="Times,serif" font-size="14.00">RFC7437</text>
<text xml:space="preserve" text-anchor="middle" x="166.7" y="-95.36" font-family="Times,serif" font-size="14.00">IAB, IESG, and IAOC Selection,</text>
<text xml:space="preserve" text-anchor="middle" x="166.7" y="-78.86" font-family="Times,serif" font-size="14.00">Confirmation, and Recall Process:</text>
<text xml:space="preserve" text-anchor="middle" x="166.7" y="-62.36" font-family="Times,serif" font-size="14.00">Operation of the Nominating and Recall</text>
<text xml:space="preserve" text-anchor="middle" x="166.7" y="-45.86" font-family="Times,serif" font-size="14.00">Committees</text>
<text xml:space="preserve" text-anchor="middle" x="166.7" y="-29.36" font-family="Times,serif" font-size="14.00">2015</text>
</a>
</g>
</g>
<!-- RFC7437&#45;&gt;obs_by -->
<g id="edge2" class="edge">
<title>RFC7437&#45;&gt;obs_by</title>
<path fill="none" stroke="black" d="M270.05,-135.33C348.98,-180.9 453.61,-241.31 510.74,-274.29"/>
<polygon fill="black" stroke="black" points="508.78,-277.2 519.19,-279.17 512.28,-271.14 508.78,-277.2"/>
</g>
<!-- RFC3777 -->
<g id="node6" class="node">
<title>RFC3777</title>
<g id="a_node6"><a xlink:href="RFC3777.html" xlink:title="The process by which the members of the IAB and IESG are selected, confirmed, and recalled is specified. &#160;This document is a self&#45;consistent, organized compilation of the process as it was known at the time of publication. &#160;This document specifies an Internet Best Current Practices for the Internet Community, and requests discussion and suggestions for improvements." target="_top">
<ellipse fill="none" stroke="black" cx="938" cy="-1411.59" rx="166.17" ry="63.99"/>
<text xml:space="preserve" text-anchor="middle" x="938" y="-1439.54" font-family="Times,serif" font-size="14.00">RFC3777</text>
<text xml:space="preserve" text-anchor="middle" x="938" y="-1423.04" font-family="Times,serif" font-size="14.00">IAB and IESG Selection, Confirmation,</text>
<text xml:space="preserve" text-anchor="middle" x="938" y="-1406.54" font-family="Times,serif" font-size="14.00">and Recall Process: Operation of the</text>
<text xml:space="preserve" text-anchor="middle" x="938" y="-1390.04" font-family="Times,serif" font-size="14.00">Nominating and Recall Committees</text>
<text xml:space="preserve" text-anchor="middle" x="938" y="-1373.54" font-family="Times,serif" font-size="14.00">2004</text>
</a>
</g>
</g>
<!-- updates&#45;&gt;RFC3777 -->
<g id="edge5" class="edge">
<title>updates&#45;&gt;RFC3777</title>
<path fill="none" stroke="black" d="M938,-984.57C938,-1043.39 938,-1230.05 938,-1336.08"/>
<polygon fill="black" stroke="black" points="934.5,-1335.83 938,-1345.83 941.5,-1335.83 934.5,-1335.83"/>
</g>
<!-- updated_by -->
<g id="node7" class="node">
<title>updated_by</title>
<polygon fill="lightyellow" stroke="black" points="966.63,-93.66 909.38,-93.66 909.38,-57.66 966.63,-57.66 966.63,-93.66"/>
<text xml:space="preserve" text-anchor="middle" x="938" y="-70.61" font-family="Times,serif" font-size="14.00">updates</text>
</g>
<!-- updated_by&#45;&gt;RFC5680 -->
<g id="edge6" class="edge">
<title>updated_by&#45;&gt;RFC5680</title>
<path fill="none" stroke="black" d="M938,-93.95C938,-152.37 938,-336.93 938,-443.32"/>
<polygon fill="black" stroke="black" points="934.5,-443.11 938,-453.11 941.5,-443.11 934.5,-443.11"/>
</g>
<!-- cites&#45;&gt;RFC3777 -->
<g id="edge8" class="edge">
<title>cites&#45;&gt;RFC3777</title>
<path fill="none" stroke="black" d="M562.87,-761.84C610.65,-844.6 808.74,-1187.71 896.19,-1339.18"/>
<polygon fill="black" stroke="black" points="893,-1340.65 901.03,-1347.56 899.07,-1337.15 893,-1340.65"/>
</g>
<!-- rev_cites -->
<g id="node9" class="node">
<title>rev_cites</title>
<polygon fill="lightblue" stroke="black" points="1350.65,-316.32 1296.65,-316.32 1296.65,-280.32 1350.65,-280.32 1350.65,-316.32"/>
<text xml:space="preserve" text-anchor="middle" x="1323.65" y="-293.27" font-family="Times,serif" font-size="14.00">cites</text>
</g>
<!-- rev_cites&#45;&gt;RFC5680 -->
<g id="edge9" class="edge">
<title>rev_cites&#45;&gt;RFC5680</title>
<path fill="none" stroke="black" d="M1296.23,-314.15C1245.91,-343.2 1136.21,-406.53 1051.38,-455.51"/>
<polygon fill="black" stroke="black" points="1049.65,-452.47 1042.74,-460.5 1053.15,-458.53 1049.65,-452.47"/>
</g>
</g>
</svg>
