<?xml version="1.0" encoding="UTF-8" standalone="no"?>
<!DOCTYPE svg PUBLIC "-//W3C//DTD SVG 1.1//EN"
 "http://www.w3.org/Graphics/SVG/1.1/DTD/svg11.dtd">
<!-- Generated by graphviz version 14.1.1 (20251213.1925)
 -->
<!-- Title: Flow Pages: 1 -->
<svg width="993pt" height="2649pt"
 viewBox="0.00 0.00 993.00 2649.00" xmlns="http://www.w3.org/2000/svg" xmlns:xlink="http://www.w3.org/1999/xlink">
<g id="graph0" class="graph" transform="scale(1 1) rotate(0) translate(4 2644.54)">
<title>Flow</title>
<polygon fill="white" stroke="none" points="-4,4 -4,-2644.54 989.12,-2644.54 989.12,4 -4,4"/>
<!-- RFC6796 -->
<g id="node1" class="node">
<title>RFC6796</title>
<g id="a_node1"><a xlink:title="This specification defines an XML document format to describe the media properties of Session Initiation Protocol (SIP) sessions. &#160;Examples for media properties are the codecs or media types used in the session. &#160;This document also defines an XML document format to describe policies that limit the media properties of SIP sessions. [STANDARDS&#45;TRACK]">
<ellipse fill="green" stroke="black" cx="260.6" cy="-1426.88" rx="169.35" ry="52.33"/>
<text xml:space="preserve" text-anchor="middle" x="260.6" y="-1446.58" font-family="Times,serif" font-size="14.00">RFC6796</text>
<text xml:space="preserve" text-anchor="middle" x="260.6" y="-1430.08" font-family="Times,serif" font-size="14.00">A User Agent Profile Data Set for Media</text>
<text xml:space="preserve" text-anchor="middle" x="260.6" y="-1413.58" font-family="Times,serif" font-size="14.00">Policy</text>
<text xml:space="preserve" text-anchor="middle" x="260.6" y="-1397.08" font-family="Times,serif" font-size="14.00">2012</text>
</a>
</g>
</g>
<!-- obs -->
<g id="node3" class="node">
<title>obs</title>
<polygon fill="lightblue" stroke="black" points="521.2,-1525.88 454.95,-1525.88 454.95,-1489.88 521.2,-1489.88 521.2,-1525.88"/>
<text xml:space="preserve" text-anchor="middle" x="488.08" y="-1502.83" font-family="Times,serif" font-size="14.00">obsoletes</text>
</g>
<!-- RFC6796&#45;&gt;obs -->
<g id="edge2" class="edge">
<title>RFC6796&#45;&gt;obs</title>
<path fill="none" stroke="black" d="M372.03,-1466.55C397.57,-1475.72 423.26,-1484.95 443.87,-1492.36"/>
<polygon fill="black" stroke="black" points="442.44,-1495.56 453.03,-1495.65 444.81,-1488.97 442.44,-1495.56"/>
</g>
<!-- updates -->
<g id="node4" class="node">
<title>updates</title>
<polygon fill="lightyellow" stroke="black" points="516.7,-1471.88 459.45,-1471.88 459.45,-1435.88 516.7,-1435.88 516.7,-1471.88"/>
<text xml:space="preserve" text-anchor="middle" x="488.08" y="-1448.83" font-family="Times,serif" font-size="14.00">updates</text>
</g>
<!-- RFC6796&#45;&gt;updates -->
<g id="edge3" class="edge">
<title>RFC6796&#45;&gt;updates</title>
<path fill="none" stroke="black" d="M419.12,-1445.74C429.44,-1446.98 439.16,-1448.14 447.85,-1449.18"/>
<polygon fill="black" stroke="black" points="447.17,-1452.62 457.51,-1450.34 448,-1445.67 447.17,-1452.62"/>
</g>
<!-- cites -->
<g id="node6" class="node">
<title>cites</title>
<polygon fill="lightblue" stroke="black" points="515.08,-1417.88 461.08,-1417.88 461.08,-1381.88 515.08,-1381.88 515.08,-1417.88"/>
<text xml:space="preserve" text-anchor="middle" x="488.08" y="-1394.83" font-family="Times,serif" font-size="14.00">cites</text>
</g>
<!-- RFC6796&#45;&gt;cites -->
<g id="edge5" class="edge">
<title>RFC6796&#45;&gt;cites</title>
<path fill="none" stroke="black" d="M419.12,-1408.02C430.07,-1406.7 440.35,-1405.47 449.44,-1404.39"/>
<polygon fill="black" stroke="black" points="449.63,-1407.89 459.15,-1403.22 448.8,-1400.94 449.63,-1407.89"/>
</g>
<!-- obs_by -->
<g id="node2" class="node">
<title>obs_by</title>
<polygon fill="lightblue" stroke="black" points="66.25,-1471.88 0,-1471.88 0,-1435.88 66.25,-1435.88 66.25,-1471.88"/>
<text xml:space="preserve" text-anchor="middle" x="33.12" y="-1448.83" font-family="Times,serif" font-size="14.00">obsoletes</text>
</g>
<!-- obs_by&#45;&gt;RFC6796 -->
<g id="edge1" class="edge">
<title>obs_by&#45;&gt;RFC6796</title>
<path fill="none" stroke="black" d="M66.43,-1450.01C73.79,-1449.13 82.1,-1448.13 91.04,-1447.06"/>
<polygon fill="black" stroke="black" points="91.22,-1450.57 100.73,-1445.9 90.38,-1443.62 91.22,-1450.57"/>
</g>
<!-- updated_by -->
<g id="node5" class="node">
<title>updated_by</title>
<polygon fill="lightyellow" stroke="black" points="61.75,-1417.88 4.5,-1417.88 4.5,-1381.88 61.75,-1381.88 61.75,-1417.88"/>
<text xml:space="preserve" text-anchor="middle" x="33.12" y="-1394.83" font-family="Times,serif" font-size="14.00">updates</text>
</g>
<!-- updated_by&#45;&gt;RFC6796 -->
<g id="edge4" class="edge">
<title>updated_by&#45;&gt;RFC6796</title>
<path fill="none" stroke="black" d="M62.23,-1403.24C70.55,-1404.24 80.32,-1405.41 90.99,-1406.69"/>
<polygon fill="black" stroke="black" points="90.56,-1410.16 100.9,-1407.88 91.39,-1403.21 90.56,-1410.16"/>
</g>
<!-- RFC3261 -->
<g id="node7" class="node">
<title>RFC3261</title>
<g id="a_node7"><a xlink:href="RFC3261.html" xlink:title="This document describes Session Initiation Protocol (SIP), an application&#45;layer control (signaling) protocol for creating, modifying, and terminating sessions with one or more participants. &#160;These sessions include Internet telephone calls, multimedia distribution, and multimedia conferences. [STANDARDS&#45;TRACK]" target="_top">
<ellipse fill="none" stroke="black" cx="726.16" cy="-2599.88" rx="132.23" ry="40.66"/>
<text xml:space="preserve" text-anchor="middle" x="726.16" y="-2611.33" font-family="Times,serif" font-size="14.00">RFC3261</text>
<text xml:space="preserve" text-anchor="middle" x="726.16" y="-2594.83" font-family="Times,serif" font-size="14.00">SIP: Session Initiation Protocol</text>
<text xml:space="preserve" text-anchor="middle" x="726.16" y="-2578.33" font-family="Times,serif" font-size="14.00">2002</text>
</a>
</g>
</g>
<!-- cites&#45;&gt;RFC3261 -->
<g id="edge6" class="edge">
<title>cites&#45;&gt;RFC3261</title>
<path fill="none" stroke="black" d="M515.25,-1418.14C517.62,-1420.81 519.69,-1423.73 521.2,-1426.88 548.18,-1483.15 507.93,-2500.59 546.2,-2549.88 557.7,-2564.68 573.19,-2575.34 590.28,-2582.97"/>
<polygon fill="black" stroke="black" points="588.52,-2586.04 599.11,-2586.56 591.16,-2579.55 588.52,-2586.04"/>
</g>
<!-- RFC6080 -->
<g id="node8" class="node">
<title>RFC6080</title>
<g id="a_node8"><a xlink:href="RFC6080.html" xlink:title="This document specifies a framework to enable configuration of Session Initiation Protocol (SIP) user agents (UAs) in SIP deployments. &#160;The framework provides a means to deliver profile data that user agents need to be functional, automatically and with minimal or no User and Administrative intervention. &#160;The framework describes how SIP user agents can discover sources, request profiles, and receive notifications related to profile modifications. &#160;As part of this framework, a new SIP event package is defined for notification of profile changes. &#160;The framework provides minimal data retrieval options to ensure interoperability. &#160;The framework does not include specification of the profile data within its scope. [STANDARDS&#45;TRACK]" target="_top">
<ellipse fill="none" stroke="black" cx="726.16" cy="-2488.88" rx="154.5" ry="52.33"/>
<text xml:space="preserve" text-anchor="middle" x="726.16" y="-2508.58" font-family="Times,serif" font-size="14.00">RFC6080</text>
<text xml:space="preserve" text-anchor="middle" x="726.16" y="-2492.08" font-family="Times,serif" font-size="14.00">A Framework for Session Initiation</text>
<text xml:space="preserve" text-anchor="middle" x="726.16" y="-2475.58" font-family="Times,serif" font-size="14.00">Protocol User Agent Profile Delivery</text>
<text xml:space="preserve" text-anchor="middle" x="726.16" y="-2459.08" font-family="Times,serif" font-size="14.00">2011</text>
</a>
</g>
</g>
<!-- cites&#45;&gt;RFC6080 -->
<g id="edge7" class="edge">
<title>cites&#45;&gt;RFC6080</title>
<path fill="none" stroke="black" d="M515.24,-1418.15C517.61,-1420.81 519.69,-1423.73 521.2,-1426.88 545.3,-1476.96 513.41,-2382.01 546.2,-2426.88 555.49,-2439.59 567.57,-2449.71 581.06,-2457.78"/>
<polygon fill="black" stroke="black" points="579.34,-2460.82 589.79,-2462.56 582.7,-2454.68 579.34,-2460.82"/>
</g>
<!-- RFC6794 -->
<g id="node9" class="node">
<title>RFC6794</title>
<g id="a_node9"><a xlink:href="RFC6794.html" xlink:title="Proxy servers play a central role as an intermediary in the Session Initiation Protocol (SIP) as they define and impact policies on call routing, rendezvous, and other call features. &#160;This document specifies a framework for SIP session policies that provides a standard mechanism by which a proxy can define or influence policies on sessions, such as the codecs or media types to be used. &#160;It defines a model, an overall architecture and new protocol mechanisms for session policies. [STANDARDS&#45;TRACK]" target="_top">
<ellipse fill="none" stroke="black" cx="726.16" cy="-2365.88" rx="148.14" ry="52.33"/>
<text xml:space="preserve" text-anchor="middle" x="726.16" y="-2385.58" font-family="Times,serif" font-size="14.00">RFC6794</text>
<text xml:space="preserve" text-anchor="middle" x="726.16" y="-2369.08" font-family="Times,serif" font-size="14.00">A Framework for Session Initiation</text>
<text xml:space="preserve" text-anchor="middle" x="726.16" y="-2352.58" font-family="Times,serif" font-size="14.00">Protocol (SIP) Session Policies</text>
<text xml:space="preserve" text-anchor="middle" x="726.16" y="-2336.08" font-family="Times,serif" font-size="14.00">2012</text>
</a>
</g>
</g>
<!-- cites&#45;&gt;RFC6794 -->
<g id="edge8" class="edge">
<title>cites&#45;&gt;RFC6794</title>
<path fill="none" stroke="black" d="M515.23,-1418.15C517.6,-1420.81 519.68,-1423.73 521.2,-1426.88 563.62,-1514.65 488.54,-2225.28 546.2,-2303.88 556.26,-2317.58 569.54,-2328.28 584.35,-2336.62"/>
<polygon fill="black" stroke="black" points="582.44,-2339.58 592.93,-2341.08 585.67,-2333.37 582.44,-2339.58"/>
</g>
<!-- RFC2119 -->
<g id="node10" class="node">
<title>RFC2119</title>
<g id="a_node10"><a xlink:href="RFC2119.html" xlink:title="In many standards track documents several words are used to signify the requirements in the specification. &#160;These words are often capitalized. &#160;This document defines these words as they should be interpreted in IETF documents. &#160;This document specifies an Internet Best Current Practices for the Internet Community, and requests discussion and suggestions for improvements." target="_top">
<ellipse fill="none" stroke="black" cx="726.16" cy="-2242.88" rx="160.34" ry="52.33"/>
<text xml:space="preserve" text-anchor="middle" x="726.16" y="-2262.58" font-family="Times,serif" font-size="14.00">RFC2119</text>
<text xml:space="preserve" text-anchor="middle" x="726.16" y="-2246.08" font-family="Times,serif" font-size="14.00">Key words for use in RFCs to Indicate</text>
<text xml:space="preserve" text-anchor="middle" x="726.16" y="-2229.58" font-family="Times,serif" font-size="14.00">Requirement Levels</text>
<text xml:space="preserve" text-anchor="middle" x="726.16" y="-2213.08" font-family="Times,serif" font-size="14.00">1997</text>
</a>
</g>
</g>
<!-- cites&#45;&gt;RFC2119 -->
<g id="edge9" class="edge">
<title>cites&#45;&gt;RFC2119</title>
<path fill="none" stroke="black" d="M515.21,-1418.16C517.59,-1420.82 519.68,-1423.73 521.2,-1426.88 557.9,-1502.37 496.23,-2114.44 546.2,-2181.88 554.85,-2193.54 565.84,-2203 578.13,-2210.66"/>
<polygon fill="black" stroke="black" points="576.02,-2213.48 586.44,-2215.42 579.5,-2207.41 576.02,-2213.48"/>
</g>
<!-- RFC2141 -->
<g id="node11" class="node">
<title>RFC2141</title>
<g id="a_node11"><a xlink:href="RFC2141.html" xlink:title="Uniform Resource Names (URNs) are intended to serve as persistent, location&#45;independent, resource identifiers. &#160;This document sets forward the canonical syntax for URNs. [STANDARDS&#45;TRACK]" target="_top">
<ellipse fill="none" stroke="black" cx="726.16" cy="-2131.88" rx="60.63" ry="40.66"/>
<text xml:space="preserve" text-anchor="middle" x="726.16" y="-2143.33" font-family="Times,serif" font-size="14.00">RFC2141</text>
<text xml:space="preserve" text-anchor="middle" x="726.16" y="-2126.83" font-family="Times,serif" font-size="14.00">URN Syntax</text>
<text xml:space="preserve" text-anchor="middle" x="726.16" y="-2110.33" font-family="Times,serif" font-size="14.00">1997</text>
</a>
</g>
</g>
<!-- cites&#45;&gt;RFC2141 -->
<g id="edge10" class="edge">
<title>cites&#45;&gt;RFC2141</title>
<path fill="none" stroke="black" d="M515.2,-1418.17C517.58,-1420.82 519.67,-1423.74 521.2,-1426.88 553.26,-1492.4 500.86,-2025.74 546.2,-2082.88 571.63,-2114.92 615.85,-2127.23 653.98,-2131.5"/>
<polygon fill="black" stroke="black" points="653.27,-2134.95 663.56,-2132.4 653.93,-2127.98 653.27,-2134.95"/>
</g>
<!-- RFC2648 -->
<g id="node12" class="node">
<title>RFC2648</title>
<g id="a_node12"><a xlink:href="RFC2648.html" xlink:title="This document proposes the ietf namespace, which consists of the RFC family of documents (RFCs, STDs, FYIs, and BCPs) developed by the IETF and published by the RFC Editor and the minutes of working groups (WG) and birds of a feather (BOF) meetings that occur during IETF conferences. [STANDARDS&#45;TRACK]" target="_top">
<ellipse fill="none" stroke="black" cx="726.16" cy="-2032.88" rx="170.94" ry="40.66"/>
<text xml:space="preserve" text-anchor="middle" x="726.16" y="-2044.33" font-family="Times,serif" font-size="14.00">RFC2648</text>
<text xml:space="preserve" text-anchor="middle" x="726.16" y="-2027.83" font-family="Times,serif" font-size="14.00">A URN Namespace for IETF Documents</text>
<text xml:space="preserve" text-anchor="middle" x="726.16" y="-2011.33" font-family="Times,serif" font-size="14.00">1999</text>
</a>
</g>
</g>
<!-- cites&#45;&gt;RFC2648 -->
<g id="edge11" class="edge">
<title>cites&#45;&gt;RFC2648</title>
<path fill="none" stroke="black" d="M515.17,-1418.18C517.56,-1420.83 519.66,-1423.74 521.2,-1426.88 548.62,-1482.44 507.53,-1935.48 546.2,-1983.88 553.07,-1992.47 561.29,-1999.64 570.37,-2005.62"/>
<polygon fill="black" stroke="black" points="568.45,-2008.55 578.84,-2010.65 572.03,-2002.53 568.45,-2008.55"/>
</g>
<!-- RFC3688 -->
<g id="node13" class="node">
<title>RFC3688</title>
<g id="a_node13"><a xlink:href="RFC3688.html" xlink:title="This document describes an IANA maintained registry for IETF standards which use Extensible Markup Language (XML) related items such as Namespaces, Document Type Declarations (DTDs), Schemas, and Resource Description Framework (RDF) Schemas." target="_top">
<ellipse fill="none" stroke="black" cx="726.16" cy="-1933.88" rx="107.83" ry="40.66"/>
<text xml:space="preserve" text-anchor="middle" x="726.16" y="-1945.33" font-family="Times,serif" font-size="14.00">RFC3688</text>
<text xml:space="preserve" text-anchor="middle" x="726.16" y="-1928.83" font-family="Times,serif" font-size="14.00">The IETF XML Registry</text>
<text xml:space="preserve" text-anchor="middle" x="726.16" y="-1912.33" font-family="Times,serif" font-size="14.00">2004</text>
</a>
</g>
</g>
<!-- cites&#45;&gt;RFC3688 -->
<g id="edge12" class="edge">
<title>cites&#45;&gt;RFC3688</title>
<path fill="none" stroke="black" d="M515.14,-1418.19C517.54,-1420.85 519.64,-1423.75 521.2,-1426.88 543.98,-1472.47 514.2,-1845.22 546.2,-1884.88 561.91,-1904.33 584.54,-1916.5 608.45,-1924"/>
<polygon fill="black" stroke="black" points="607.48,-1927.36 618.05,-1926.72 609.38,-1920.63 607.48,-1927.36"/>
</g>
<!-- RFC4566 -->
<g id="node14" class="node">
<title>RFC4566</title>
<g id="a_node14"><a xlink:href="RFC4566.html" xlink:title="This memo defines the Session Description Protocol (SDP). &#160;SDP is intended for describing multimedia sessions for the purposes of session announcement, session invitation, and other forms of multimedia session initiation. [STANDARDS&#45;TRACK]" target="_top">
<ellipse fill="none" stroke="black" cx="726.16" cy="-1834.88" rx="145.49" ry="40.66"/>
<text xml:space="preserve" text-anchor="middle" x="726.16" y="-1846.33" font-family="Times,serif" font-size="14.00">RFC4566</text>
<text xml:space="preserve" text-anchor="middle" x="726.16" y="-1829.83" font-family="Times,serif" font-size="14.00">SDP: Session Description Protocol</text>
<text xml:space="preserve" text-anchor="middle" x="726.16" y="-1813.33" font-family="Times,serif" font-size="14.00">2006</text>
</a>
</g>
</g>
<!-- cites&#45;&gt;RFC4566 -->
<g id="edge13" class="edge">
<title>cites&#45;&gt;RFC4566</title>
<path fill="none" stroke="black" d="M515.1,-1418.21C517.5,-1420.87 519.62,-1423.76 521.2,-1426.88 557.38,-1497.95 495.81,-1723.07 546.2,-1784.88 556.13,-1797.05 568.75,-1806.4 582.68,-1813.56"/>
<polygon fill="black" stroke="black" points="581.13,-1816.7 591.67,-1817.76 584.09,-1810.36 581.13,-1816.7"/>
</g>
<!-- RFC4574 -->
<g id="node15" class="node">
<title>RFC4574</title>
<g id="a_node15"><a xlink:href="RFC4574.html" xlink:title="This document defines a new Session Description Protocol (SDP) media&#45;level attribute: label. &#160;The label attribute carries a pointer to a media stream in the context of an arbitrary network application that uses SDP. &#160;The sender of the SDP document can attach the label attribute to a particular media stream or streams. &#160;The application can then use the provided pointer to refer to each particular media stream in its context. [STANDARDS&#45;TRACK]" target="_top">
<ellipse fill="none" stroke="black" cx="726.16" cy="-1723.88" rx="166.7" ry="52.33"/>
<text xml:space="preserve" text-anchor="middle" x="726.16" y="-1743.58" font-family="Times,serif" font-size="14.00">RFC4574</text>
<text xml:space="preserve" text-anchor="middle" x="726.16" y="-1727.08" font-family="Times,serif" font-size="14.00">The Session Description Protocol (SDP)</text>
<text xml:space="preserve" text-anchor="middle" x="726.16" y="-1710.58" font-family="Times,serif" font-size="14.00">Label Attribute</text>
<text xml:space="preserve" text-anchor="middle" x="726.16" y="-1694.08" font-family="Times,serif" font-size="14.00">2006</text>
</a>
</g>
</g>
<!-- cites&#45;&gt;RFC4574 -->
<g id="edge14" class="edge">
<title>cites&#45;&gt;RFC4574</title>
<path fill="none" stroke="black" d="M514.99,-1418.27C517.41,-1420.91 519.56,-1423.79 521.2,-1426.88 570.54,-1519.61 480.84,-1579.66 546.2,-1661.88 554.84,-1672.74 565.5,-1681.71 577.27,-1689.11"/>
<polygon fill="black" stroke="black" points="575.22,-1691.97 585.62,-1693.96 578.73,-1685.91 575.22,-1691.97"/>
</g>
<!-- RFC3264 -->
<g id="node16" class="node">
<title>RFC3264</title>
<g id="a_node16"><a xlink:href="RFC3264.html" xlink:title="This document defines a mechanism by which two entities can make use of the Session Description Protocol (SDP) to arrive at a common view of a multimedia session between them. &#160;In the model, one participant offers the other a description of the desired session from their perspective, and the other participant answers with the desired session from their perspective. &#160;This offer/answer model is most useful in unicast sessions where information from both participants is needed for the complete view of the session. &#160;The offer/answer model is used by protocols like the Session Initiation Protocol (SIP). [STANDARDS&#45;TRACK]" target="_top">
<ellipse fill="none" stroke="black" cx="726.16" cy="-1600.88" rx="158.22" ry="52.33"/>
<text xml:space="preserve" text-anchor="middle" x="726.16" y="-1620.58" font-family="Times,serif" font-size="14.00">RFC3264</text>
<text xml:space="preserve" text-anchor="middle" x="726.16" y="-1604.08" font-family="Times,serif" font-size="14.00">An Offer/Answer Model with Session</text>
<text xml:space="preserve" text-anchor="middle" x="726.16" y="-1587.58" font-family="Times,serif" font-size="14.00">Description Protocol (SDP)</text>
<text xml:space="preserve" text-anchor="middle" x="726.16" y="-1571.08" font-family="Times,serif" font-size="14.00">2002</text>
</a>
</g>
</g>
<!-- cites&#45;&gt;RFC3264 -->
<g id="edge15" class="edge">
<title>cites&#45;&gt;RFC3264</title>
<path fill="none" stroke="black" d="M514.34,-1418.14C516.94,-1420.83 519.32,-1423.76 521.2,-1426.88 547.86,-1470.87 511.9,-1501.55 546.2,-1539.88 556.33,-1551.2 568.65,-1560.42 582.02,-1567.92"/>
<polygon fill="black" stroke="black" points="580.11,-1570.87 590.59,-1572.4 583.35,-1564.67 580.11,-1570.87"/>
</g>
<!-- RFC5766 -->
<g id="node17" class="node">
<title>RFC5766</title>
<g id="a_node17"><a xlink:href="RFC5766.html" xlink:title="If a host is located behind a NAT, then in certain situations it can be impossible for that host to communicate directly with other hosts (peers). &#160;In these situations, it is necessary for the host to use the services of an intermediate node that acts as a communication relay. &#160;This specification defines a protocol, called TURN (Traversal Using Relays around NAT), that allows the host to control the operation of the relay and to exchange packets with its peers using the relay. &#160;TURN differs from some other relay control protocols in that it allows a client to communicate with multiple peers using a single relay address. [STANDARDS&#45;TRACK]" target="_top">
<ellipse fill="none" stroke="black" cx="726.16" cy="-1466.88" rx="157.68" ry="63.99"/>
<text xml:space="preserve" text-anchor="middle" x="726.16" y="-1494.83" font-family="Times,serif" font-size="14.00">RFC5766</text>
<text xml:space="preserve" text-anchor="middle" x="726.16" y="-1478.33" font-family="Times,serif" font-size="14.00">Traversal Using Relays around NAT</text>
<text xml:space="preserve" text-anchor="middle" x="726.16" y="-1461.83" font-family="Times,serif" font-size="14.00">(TURN): Relay Extensions to Session</text>
<text xml:space="preserve" text-anchor="middle" x="726.16" y="-1445.33" font-family="Times,serif" font-size="14.00">Traversal Utilities for NAT (STUN)</text>
<text xml:space="preserve" text-anchor="middle" x="726.16" y="-1428.83" font-family="Times,serif" font-size="14.00">2010</text>
</a>
</g>
</g>
<!-- cites&#45;&gt;RFC5766 -->
<g id="edge16" class="edge">
<title>cites&#45;&gt;RFC5766</title>
<path fill="none" stroke="black" d="M515.25,-1407.3C533.16,-1412.39 558.45,-1419.57 585.31,-1427.19"/>
<polygon fill="black" stroke="black" points="584.05,-1430.47 594.62,-1429.83 585.96,-1423.73 584.05,-1430.47"/>
</g>
<!-- RFC4976 -->
<g id="node18" class="node">
<title>RFC4976</title>
<g id="a_node18"><a xlink:href="RFC4976.html" xlink:title="Two separate models for conveying instant messages have been defined. &#160;Page&#45;mode messages stand alone and are not part of a Session Initiation Protocol (SIP) session, whereas session&#45;mode messages are set up as part of a session using SIP. &#160;The Message Session Relay Protocol (MSRP) is a protocol for near real&#45;time, peer&#45;to&#45;peer exchanges of binary content without intermediaries, which is designed to be signaled using a separate rendezvous protocol such as SIP. &#160;This document introduces the notion of message relay intermediaries to MSRP and describes the extensions necessary to use them. [STANDARDS&#45;TRACK]" target="_top">
<ellipse fill="none" stroke="black" cx="726.16" cy="-1332.88" rx="142.84" ry="52.33"/>
<text xml:space="preserve" text-anchor="middle" x="726.16" y="-1352.58" font-family="Times,serif" font-size="14.00">RFC4976</text>
<text xml:space="preserve" text-anchor="middle" x="726.16" y="-1336.08" font-family="Times,serif" font-size="14.00">Relay Extensions for the Message</text>
<text xml:space="preserve" text-anchor="middle" x="726.16" y="-1319.58" font-family="Times,serif" font-size="14.00">Sessions Relay Protocol (MSRP)</text>
<text xml:space="preserve" text-anchor="middle" x="726.16" y="-1303.08" font-family="Times,serif" font-size="14.00">2007</text>
</a>
</g>
</g>
<!-- cites&#45;&gt;RFC4976 -->
<g id="edge17" class="edge">
<title>cites&#45;&gt;RFC4976</title>
<path fill="none" stroke="black" d="M515.25,-1392.45C536.66,-1386.38 568.62,-1377.31 601.19,-1368.06"/>
<polygon fill="black" stroke="black" points="602.12,-1371.44 610.78,-1365.34 600.21,-1364.7 602.12,-1371.44"/>
</g>
<!-- RFC4975 -->
<g id="node19" class="node">
<title>RFC4975</title>
<g id="a_node19"><a xlink:href="RFC4975.html" xlink:title="This document describes the Message Session Relay Protocol, a protocol for transmitting a series of related instant messages in the context of a session. &#160;Message sessions are treated like any other media stream when set up via a rendezvous or session creation protocol such as the Session Initiation Protocol. [STANDARDS&#45;TRACK]" target="_top">
<ellipse fill="none" stroke="black" cx="726.16" cy="-1209.88" rx="154.5" ry="52.33"/>
<text xml:space="preserve" text-anchor="middle" x="726.16" y="-1229.58" font-family="Times,serif" font-size="14.00">RFC4975</text>
<text xml:space="preserve" text-anchor="middle" x="726.16" y="-1213.08" font-family="Times,serif" font-size="14.00">The Message Session Relay Protocol</text>
<text xml:space="preserve" text-anchor="middle" x="726.16" y="-1196.58" font-family="Times,serif" font-size="14.00">(MSRP)</text>
<text xml:space="preserve" text-anchor="middle" x="726.16" y="-1180.08" font-family="Times,serif" font-size="14.00">2007</text>
</a>
</g>
</g>
<!-- cites&#45;&gt;RFC4975 -->
<g id="edge18" class="edge">
<title>cites&#45;&gt;RFC4975</title>
<path fill="none" stroke="black" d="M492.46,-1381.48C498.46,-1353.88 513.57,-1301.82 546.2,-1271.88 558.43,-1260.67 572.78,-1251.46 587.96,-1243.92"/>
<polygon fill="black" stroke="black" points="589.1,-1247.25 596.66,-1239.83 586.12,-1240.91 589.1,-1247.25"/>
</g>
<!-- RFC4856 -->
<g id="node20" class="node">
<title>RFC4856</title>
<g id="a_node20"><a xlink:href="RFC4856.html" xlink:title="This document specifies media type registrations for the RTP payload formats defined in the RTP Profile for Audio and Video Conferences. &#160;Some of these may also be used for transfer modes other than RTP. [STANDARDS&#45;TRACK]" target="_top">
<ellipse fill="none" stroke="black" cx="726.16" cy="-1075.88" rx="172" ry="63.99"/>
<text xml:space="preserve" text-anchor="middle" x="726.16" y="-1103.83" font-family="Times,serif" font-size="14.00">RFC4856</text>
<text xml:space="preserve" text-anchor="middle" x="726.16" y="-1087.33" font-family="Times,serif" font-size="14.00">Media Type Registration of Payload</text>
<text xml:space="preserve" text-anchor="middle" x="726.16" y="-1070.83" font-family="Times,serif" font-size="14.00">Formats in the RTP Profile for Audio and</text>
<text xml:space="preserve" text-anchor="middle" x="726.16" y="-1054.33" font-family="Times,serif" font-size="14.00">Video Conferences</text>
<text xml:space="preserve" text-anchor="middle" x="726.16" y="-1037.83" font-family="Times,serif" font-size="14.00">2007</text>
</a>
</g>
</g>
<!-- cites&#45;&gt;RFC4856 -->
<g id="edge19" class="edge">
<title>cites&#45;&gt;RFC4856</title>
<path fill="none" stroke="black" d="M491.05,-1381.58C496.94,-1329.94 515.92,-1184.57 546.2,-1148.88 555.55,-1137.87 566.8,-1128.5 579.07,-1120.53"/>
<polygon fill="black" stroke="black" points="580.62,-1123.68 587.34,-1115.49 576.98,-1117.7 580.62,-1123.68"/>
</g>
<!-- RFC4629 -->
<g id="node21" class="node">
<title>RFC4629</title>
<g id="a_node21"><a xlink:href="RFC4629.html" xlink:title="This document describes a scheme to packetize an H.263 video stream for transport using the Real&#45;time Transport Protocol (RTP) with any of the underlying protocols that carry RTP. The document also describes the syntax and semantics of the Session Description Protocol (SDP) parameters needed to support the H.263 video codec. The document obsoletes RFC 2429 and updates the H263&#45;1998 and H263&#45;2000 MIME media type in RFC 3555. [STANDARDS&#45;TRACK]" target="_top">
<ellipse fill="none" stroke="black" cx="726.16" cy="-941.88" rx="179.96" ry="52.33"/>
<text xml:space="preserve" text-anchor="middle" x="726.16" y="-961.58" font-family="Times,serif" font-size="14.00">RFC4629</text>
<text xml:space="preserve" text-anchor="middle" x="726.16" y="-945.08" font-family="Times,serif" font-size="14.00">RTP Payload Format for ITU&#45;T Rec. H.263</text>
<text xml:space="preserve" text-anchor="middle" x="726.16" y="-928.58" font-family="Times,serif" font-size="14.00">Video</text>
<text xml:space="preserve" text-anchor="middle" x="726.16" y="-912.08" font-family="Times,serif" font-size="14.00">2007</text>
</a>
</g>
</g>
<!-- cites&#45;&gt;RFC4629 -->
<g id="edge20" class="edge">
<title>cites&#45;&gt;RFC4629</title>
<path fill="none" stroke="black" d="M489.26,-1381.56C490.29,-1311.51 497.41,-1061.69 546.2,-1002.88 553.75,-993.79 562.71,-986.04 572.54,-979.45"/>
<polygon fill="black" stroke="black" points="574.26,-982.51 580.93,-974.27 570.58,-976.55 574.26,-982.51"/>
</g>
<!-- RFC4855 -->
<g id="node22" class="node">
<title>RFC4855</title>
<g id="a_node22"><a xlink:href="RFC4855.html" xlink:title="This document specifies the procedure to register RTP payload formats as audio, video, or other media subtype names. &#160;This is useful in a text&#45;based format description or control protocol to identify the type of an RTP transmission. [STANDARDS&#45;TRACK]" target="_top">
<ellipse fill="none" stroke="black" cx="726.16" cy="-818.88" rx="170.94" ry="52.33"/>
<text xml:space="preserve" text-anchor="middle" x="726.16" y="-838.58" font-family="Times,serif" font-size="14.00">RFC4855</text>
<text xml:space="preserve" text-anchor="middle" x="726.16" y="-822.08" font-family="Times,serif" font-size="14.00">Media Type Registration of RTP Payload</text>
<text xml:space="preserve" text-anchor="middle" x="726.16" y="-805.58" font-family="Times,serif" font-size="14.00">Formats</text>
<text xml:space="preserve" text-anchor="middle" x="726.16" y="-789.08" font-family="Times,serif" font-size="14.00">2007</text>
</a>
</g>
</g>
<!-- cites&#45;&gt;RFC4855 -->
<g id="edge21" class="edge">
<title>cites&#45;&gt;RFC4855</title>
<path fill="none" stroke="black" d="M489.95,-1381.53C494.24,-1293.92 514.3,-920.87 546.2,-880.88 554.54,-870.44 564.73,-861.75 575.98,-854.52"/>
<polygon fill="black" stroke="black" points="577.55,-857.66 584.37,-849.55 573.98,-851.64 577.55,-857.66"/>
</g>
<!-- RFC4583 -->
<g id="node23" class="node">
<title>RFC4583</title>
<g id="a_node23"><a xlink:href="RFC4583.html" xlink:title="This document specifies how to describe Binary Floor Control Protocol (BFCP) streams in Session Description Protocol (SDP) descriptions. &#160;User agents using the offer/answer model to establish BFCP streams use this format in their offers and answers. [STANDARDS&#45;TRACK]" target="_top">
<ellipse fill="none" stroke="black" cx="726.16" cy="-684.88" rx="172" ry="63.99"/>
<text xml:space="preserve" text-anchor="middle" x="726.16" y="-712.83" font-family="Times,serif" font-size="14.00">RFC4583</text>
<text xml:space="preserve" text-anchor="middle" x="726.16" y="-696.33" font-family="Times,serif" font-size="14.00">Session Description Protocol (SDP)</text>
<text xml:space="preserve" text-anchor="middle" x="726.16" y="-679.83" font-family="Times,serif" font-size="14.00">Format for Binary Floor Control Protocol</text>
<text xml:space="preserve" text-anchor="middle" x="726.16" y="-663.33" font-family="Times,serif" font-size="14.00">(BFCP) Streams</text>
<text xml:space="preserve" text-anchor="middle" x="726.16" y="-646.83" font-family="Times,serif" font-size="14.00">2006</text>
</a>
</g>
</g>
<!-- cites&#45;&gt;RFC4583 -->
<g id="edge22" class="edge">
<title>cites&#45;&gt;RFC4583</title>
<path fill="none" stroke="black" d="M489.58,-1381.68C492.47,-1282.47 508.15,-809.41 546.2,-757.88 554.62,-746.48 565.13,-736.86 576.8,-728.74"/>
<polygon fill="black" stroke="black" points="578.63,-731.73 585.13,-723.36 574.83,-725.85 578.63,-731.73"/>
</g>
<!-- RFC2474 -->
<g id="node24" class="node">
<title>RFC2474</title>
<g id="a_node24"><a xlink:href="RFC2474.html" xlink:title="This document defines the IP header field, called the DS (for differentiated services) field. [STANDARDS&#45;TRACK]" target="_top">
<ellipse fill="none" stroke="black" cx="726.16" cy="-538.88" rx="154.5" ry="63.99"/>
<text xml:space="preserve" text-anchor="middle" x="726.16" y="-566.83" font-family="Times,serif" font-size="14.00">RFC2474</text>
<text xml:space="preserve" text-anchor="middle" x="726.16" y="-550.33" font-family="Times,serif" font-size="14.00">Definition of the Differentiated</text>
<text xml:space="preserve" text-anchor="middle" x="726.16" y="-533.83" font-family="Times,serif" font-size="14.00">Services Field (DS Field) in the IPv4</text>
<text xml:space="preserve" text-anchor="middle" x="726.16" y="-517.33" font-family="Times,serif" font-size="14.00">and IPv6 Headers</text>
<text xml:space="preserve" text-anchor="middle" x="726.16" y="-500.83" font-family="Times,serif" font-size="14.00">1998</text>
</a>
</g>
</g>
<!-- cites&#45;&gt;RFC2474 -->
<g id="edge23" class="edge">
<title>cites&#45;&gt;RFC2474</title>
<path fill="none" stroke="black" d="M489.26,-1381.74C490.54,-1269.84 499.52,-676.19 546.2,-611.88 556.23,-598.07 569.34,-586.86 583.9,-577.78"/>
<polygon fill="black" stroke="black" points="585.47,-580.91 592.36,-572.86 581.95,-574.86 585.47,-580.91"/>
</g>
<!-- RFC3470 -->
<g id="node25" class="node">
<title>RFC3470</title>
<g id="a_node25"><a xlink:href="RFC3470.html" xlink:title="The Extensible Markup Language (XML) is a framework for structuring data. &#160;While it evolved from Standard Generalized Markup Language (SGML) &#45;&#45; a markup language primarily focused on structuring documents &#45;&#45; XML has evolved to be a widely&#45;used mechanism for representing structured data. &#160;There are a wide variety of Internet protocols being developed; many have need for a representation for structured data relevant to their application. &#160;There has been much interest in the use of XML as a representation method. &#160;This document describes basic XML concepts, analyzes various alternatives in the use of XML, and provides guidelines for the use of XML within IETF standards&#45;track protocols. &#160;This document specifies an Internet Best Current Practices for the Internet Community, and requests discussion and suggestions for improvements." target="_top">
<ellipse fill="none" stroke="black" cx="726.16" cy="-392.88" rx="162.99" ry="63.99"/>
<text xml:space="preserve" text-anchor="middle" x="726.16" y="-420.83" font-family="Times,serif" font-size="14.00">RFC3470</text>
<text xml:space="preserve" text-anchor="middle" x="726.16" y="-404.33" font-family="Times,serif" font-size="14.00">Guidelines for the Use of Extensible</text>
<text xml:space="preserve" text-anchor="middle" x="726.16" y="-387.83" font-family="Times,serif" font-size="14.00">Markup Language (XML) within IETF</text>
<text xml:space="preserve" text-anchor="middle" x="726.16" y="-371.33" font-family="Times,serif" font-size="14.00">Protocols</text>
<text xml:space="preserve" text-anchor="middle" x="726.16" y="-354.83" font-family="Times,serif" font-size="14.00">2003</text>
</a>
</g>
</g>
<!-- cites&#45;&gt;RFC3470 -->
<g id="edge24" class="edge">
<title>cites&#45;&gt;RFC3470</title>
<path fill="none" stroke="black" d="M489.04,-1381.69C488.96,-1257.99 490.87,-543.02 546.2,-465.88 555.25,-453.26 566.88,-442.82 579.85,-434.19"/>
<polygon fill="black" stroke="black" points="581.57,-437.24 588.23,-429 577.88,-431.29 581.57,-437.24"/>
</g>
<!-- RFC6795 -->
<g id="node26" class="node">
<title>RFC6795</title>
<g id="a_node26"><a xlink:href="RFC6795.html" xlink:title="This specification defines a Session Initiation Protocol (SIP) event package for session&#45;specific policies. &#160;This event package enables user agents (UAs) to subscribe to session policies for a SIP session and to receive notifications if these policies change. [STANDARDS&#45;TRACK]" target="_top">
<ellipse fill="none" stroke="black" cx="726.16" cy="-246.88" rx="148.14" ry="63.99"/>
<text xml:space="preserve" text-anchor="middle" x="726.16" y="-274.83" font-family="Times,serif" font-size="14.00">RFC6795</text>
<text xml:space="preserve" text-anchor="middle" x="726.16" y="-258.33" font-family="Times,serif" font-size="14.00">A Session Initiation Protocol (SIP)</text>
<text xml:space="preserve" text-anchor="middle" x="726.16" y="-241.83" font-family="Times,serif" font-size="14.00">Event Package for Session&#45;Specific</text>
<text xml:space="preserve" text-anchor="middle" x="726.16" y="-225.33" font-family="Times,serif" font-size="14.00">Policies</text>
<text xml:space="preserve" text-anchor="middle" x="726.16" y="-208.83" font-family="Times,serif" font-size="14.00">2012</text>
</a>
</g>
</g>
<!-- cites&#45;&gt;RFC6795 -->
<g id="edge25" class="edge">
<title>cites&#45;&gt;RFC6795</title>
<path fill="none" stroke="black" d="M488.88,-1381.52C487.59,-1246.48 482.21,-409.87 546.2,-319.88 556.75,-305.05 570.86,-293.22 586.56,-283.8"/>
<polygon fill="black" stroke="black" points="588.17,-286.9 595.19,-278.97 584.76,-280.79 588.17,-286.9"/>
</g>
<!-- RFC3023 -->
<g id="node27" class="node">
<title>RFC3023</title>
<g id="a_node27"><a xlink:href="RFC3023.html" xlink:title="This document standardizes five new media types &#45;&#45; text/xml, application/xml, text/xml&#45;external&#45;parsed&#45;entity, application/xml&#45; external&#45;parsed&#45;entity, and application/xml&#45;dtd &#45;&#45; for use in exchanging network entities that are related to the Extensible Markup Language (XML). &#160;This document also standardizes a convention (using the suffix &#39;+xml&#39;) for naming media types outside of these five types when those media types represent XML MIME (Multipurpose Internet Mail Extensions) entities. [STANDARDS&#45;TRACK]" target="_top">
<ellipse fill="none" stroke="black" cx="726.16" cy="-123.88" rx="85.56" ry="40.66"/>
<text xml:space="preserve" text-anchor="middle" x="726.16" y="-135.33" font-family="Times,serif" font-size="14.00">RFC3023</text>
<text xml:space="preserve" text-anchor="middle" x="726.16" y="-118.83" font-family="Times,serif" font-size="14.00">XML Media Types</text>
<text xml:space="preserve" text-anchor="middle" x="726.16" y="-102.33" font-family="Times,serif" font-size="14.00">2001</text>
</a>
</g>
</g>
<!-- cites&#45;&gt;RFC3023 -->
<g id="edge26" class="edge">
<title>cites&#45;&gt;RFC3023</title>
<path fill="none" stroke="black" d="M489.33,-1381.44C491.41,-1231.98 506.88,-223.26 546.2,-173.88 566.34,-148.6 598.12,-135.44 629.35,-128.8"/>
<polygon fill="black" stroke="black" points="629.7,-132.3 638.87,-126.99 628.39,-125.42 629.7,-132.3"/>
</g>
<!-- rev_cites -->
<g id="node28" class="node">
<title>rev_cites</title>
<polygon fill="lightblue" stroke="black" points="985.12,-264.88 931.12,-264.88 931.12,-228.88 985.12,-228.88 985.12,-264.88"/>
<text xml:space="preserve" text-anchor="middle" x="958.12" y="-241.83" font-family="Times,serif" font-size="14.00">cites</text>
</g>
<!-- RFC6794&#45;&gt;rev_cites -->
<g id="edge28" class="edge">
<title>RFC6794&#45;&gt;rev_cites</title>
<path fill="none" stroke="black" d="M858.1,-2341.81C876.86,-2332.85 893.9,-2320.6 906.12,-2303.88 937.42,-2261.04 954.55,-525.59 956.85,-276.52"/>
<polygon fill="black" stroke="black" points="960.35,-276.74 956.94,-266.71 953.35,-276.68 960.35,-276.74"/>
</g>
<!-- RFC6795&#45;&gt;rev_cites -->
<g id="edge29" class="edge">
<title>RFC6795&#45;&gt;rev_cites</title>
<path fill="none" stroke="black" d="M874.75,-246.88C891.22,-246.88 906.72,-246.88 919.74,-246.88"/>
<polygon fill="black" stroke="black" points="919.43,-250.38 929.43,-246.88 919.43,-243.38 919.43,-250.38"/>
</g>
<!-- rev_cites&#45;&gt;RFC6796 -->
<g id="edge27" class="edge">
<title>rev_cites&#45;&gt;RFC6796</title>
<path fill="none" stroke="black" d="M954.51,-228.66C948.31,-188.15 931.26,-92.68 906.12,-73.88 778.01,21.91 670.41,26.92 546.2,-73.88 341.4,-240.08 278.49,-1117.99 264.78,-1363.21"/>
<polygon fill="black" stroke="black" points="261.31,-1362.72 264.25,-1372.89 268.3,-1363.1 261.31,-1362.72"/>
</g>
</g>
</svg>
