<?xml version="1.0" encoding="UTF-8" standalone="no"?>
<!DOCTYPE svg PUBLIC "-//W3C//DTD SVG 1.1//EN"
 "http://www.w3.org/Graphics/SVG/1.1/DTD/svg11.dtd">
<!-- Generated by graphviz version 14.1.1 (20251213.1925)
 -->
<!-- Title: Flow Pages: 1 -->
<svg width="982pt" height="335pt"
 viewBox="0.00 0.00 982.00 335.00" xmlns="http://www.w3.org/2000/svg" xmlns:xlink="http://www.w3.org/1999/xlink">
<g id="graph0" class="graph" transform="scale(1 1) rotate(0) translate(4 330.98)">
<title>Flow</title>
<polygon fill="white" stroke="none" points="-4,4 -4,-330.98 978,-330.98 978,4 -4,4"/>
<!-- RFC6893 -->
<g id="node1" class="node">
<title>RFC6893</title>
<g id="a_node1"><a xlink:title="This document describes a Uniform Resource Name (URN) namespace for the Open IPTV Forum (OIPF) for naming persistent resources defined within OIPF specifications. &#160;Example resources include technical documents and specifications, eXtensible Markup Language (XML) schemas, classification schemes, XML Document Type Definitions (DTDs), namespaces, style sheets, media assets, and other types of resources produced or managed by the OIPF.">
<ellipse fill="green" stroke="black" cx="285.53" cy="-229.33" rx="194.28" ry="52.33"/>
<text xml:space="preserve" text-anchor="middle" x="285.53" y="-249.03" font-family="Times,serif" font-size="14.00">RFC6893</text>
<text xml:space="preserve" text-anchor="middle" x="285.53" y="-232.53" font-family="Times,serif" font-size="14.00">A Uniform Resource Name (URN) Namespace</text>
<text xml:space="preserve" text-anchor="middle" x="285.53" y="-216.03" font-family="Times,serif" font-size="14.00">for the Open IPTV Forum (OIPF)</text>
<text xml:space="preserve" text-anchor="middle" x="285.53" y="-199.53" font-family="Times,serif" font-size="14.00">2013</text>
</a>
</g>
</g>
<!-- obs -->
<g id="node3" class="node">
<title>obs</title>
<polygon fill="lightblue" stroke="black" points="571.06,-301.33 504.81,-301.33 504.81,-265.33 571.06,-265.33 571.06,-301.33"/>
<text xml:space="preserve" text-anchor="middle" x="537.93" y="-278.28" font-family="Times,serif" font-size="14.00">obsoletes</text>
</g>
<!-- RFC6893&#45;&gt;obs -->
<g id="edge2" class="edge">
<title>RFC6893&#45;&gt;obs</title>
<path fill="none" stroke="black" d="M438.32,-262.06C458.32,-266.37 477.37,-270.48 493.3,-273.92"/>
<polygon fill="black" stroke="black" points="492.33,-277.29 502.84,-275.97 493.8,-270.45 492.33,-277.29"/>
</g>
<!-- updates -->
<g id="node4" class="node">
<title>updates</title>
<polygon fill="lightyellow" stroke="black" points="566.56,-247.33 509.31,-247.33 509.31,-211.33 566.56,-211.33 566.56,-247.33"/>
<text xml:space="preserve" text-anchor="middle" x="537.93" y="-224.28" font-family="Times,serif" font-size="14.00">updates</text>
</g>
<!-- RFC6893&#45;&gt;updates -->
<g id="edge3" class="edge">
<title>RFC6893&#45;&gt;updates</title>
<path fill="none" stroke="black" d="M480.11,-229.33C486.37,-229.33 492.29,-229.33 497.79,-229.33"/>
<polygon fill="black" stroke="black" points="497.59,-232.83 507.59,-229.33 497.59,-225.83 497.59,-232.83"/>
</g>
<!-- cites -->
<g id="node6" class="node">
<title>cites</title>
<polygon fill="lightblue" stroke="black" points="564.93,-193.33 510.93,-193.33 510.93,-157.33 564.93,-157.33 564.93,-193.33"/>
<text xml:space="preserve" text-anchor="middle" x="537.93" y="-170.28" font-family="Times,serif" font-size="14.00">cites</text>
</g>
<!-- RFC6893&#45;&gt;cites -->
<g id="edge5" class="edge">
<title>RFC6893&#45;&gt;cites</title>
<path fill="none" stroke="black" d="M438.32,-196.59C461.02,-191.7 482.5,-187.06 499.58,-183.38"/>
<polygon fill="black" stroke="black" points="500.14,-186.84 509.18,-181.31 498.66,-180 500.14,-186.84"/>
</g>
<!-- obs_by -->
<g id="node2" class="node">
<title>obs_by</title>
<polygon fill="lightblue" stroke="black" points="66.25,-301.33 0,-301.33 0,-265.33 66.25,-265.33 66.25,-301.33"/>
<text xml:space="preserve" text-anchor="middle" x="33.12" y="-278.28" font-family="Times,serif" font-size="14.00">obsoletes</text>
</g>
<!-- obs_by&#45;&gt;RFC6893 -->
<g id="edge1" class="edge">
<title>obs_by&#45;&gt;RFC6893</title>
<path fill="none" stroke="black" d="M66.6,-276.32C81.76,-273.05 101.04,-268.9 121.84,-264.41"/>
<polygon fill="black" stroke="black" points="122.33,-267.89 131.37,-262.36 120.85,-261.04 122.33,-267.89"/>
</g>
<!-- updated_by -->
<g id="node5" class="node">
<title>updated_by</title>
<polygon fill="lightyellow" stroke="black" points="61.75,-247.33 4.5,-247.33 4.5,-211.33 61.75,-211.33 61.75,-247.33"/>
<text xml:space="preserve" text-anchor="middle" x="33.12" y="-224.28" font-family="Times,serif" font-size="14.00">updates</text>
</g>
<!-- updated_by&#45;&gt;RFC6893 -->
<g id="edge4" class="edge">
<title>updated_by&#45;&gt;RFC6893</title>
<path fill="none" stroke="black" d="M61.88,-229.33C67.26,-229.33 73.28,-229.33 79.78,-229.33"/>
<polygon fill="black" stroke="black" points="79.64,-232.83 89.64,-229.33 79.64,-225.83 79.64,-232.83"/>
</g>
<!-- RFC2141 -->
<g id="node7" class="node">
<title>RFC2141</title>
<g id="a_node7"><a xlink:href="RFC2141.html" xlink:title="Uniform Resource Names (URNs) are intended to serve as persistent, location&#45;independent, resource identifiers. &#160;This document sets forward the canonical syntax for URNs. [STANDARDS&#45;TRACK]" target="_top">
<ellipse fill="none" stroke="black" cx="785.03" cy="-286.33" rx="60.63" ry="40.66"/>
<text xml:space="preserve" text-anchor="middle" x="785.03" y="-297.78" font-family="Times,serif" font-size="14.00">RFC2141</text>
<text xml:space="preserve" text-anchor="middle" x="785.03" y="-281.28" font-family="Times,serif" font-size="14.00">URN Syntax</text>
<text xml:space="preserve" text-anchor="middle" x="785.03" y="-264.78" font-family="Times,serif" font-size="14.00">1997</text>
</a>
</g>
</g>
<!-- cites&#45;&gt;RFC2141 -->
<g id="edge6" class="edge">
<title>cites&#45;&gt;RFC2141</title>
<path fill="none" stroke="black" d="M562.01,-193.56C565.16,-196.38 568.27,-199.35 571.06,-202.33 583.88,-216.01 580.56,-225.76 596.06,-236.33 630.7,-259.94 675.95,-272.41 713.38,-278.99"/>
<polygon fill="black" stroke="black" points="712.79,-282.44 723.22,-280.61 713.92,-275.54 712.79,-282.44"/>
</g>
<!-- RFC3406 -->
<g id="node8" class="node">
<title>RFC3406</title>
<g id="a_node8"><a xlink:href="RFC3406.html" xlink:title="This document lays out general definitions of and mechanisms for establishing Uniform Resource Names (URN) namespaces. &#160;The URN WG has defined a syntax for URNs in RFC 2141, as well as some proposed mechanisms for their resolution and use in Internet applications in RFC 3401 and RFC 3405. &#160;The whole rests on the concept of individual namespaces within the URN structure. &#160;Apart from proof&#45;of&#45;concept namespaces, the use of existing identifiers in URNs has been discussed in RFC 2288. &#160;This document specifies an Internet Best Current Practices for the Internet Community, and requests discussion and suggestions for improvements." target="_top">
<ellipse fill="none" stroke="black" cx="785.03" cy="-175.33" rx="188.97" ry="52.33"/>
<text xml:space="preserve" text-anchor="middle" x="785.03" y="-195.03" font-family="Times,serif" font-size="14.00">RFC3406</text>
<text xml:space="preserve" text-anchor="middle" x="785.03" y="-178.53" font-family="Times,serif" font-size="14.00">Uniform Resource Names (URN) Namespace</text>
<text xml:space="preserve" text-anchor="middle" x="785.03" y="-162.03" font-family="Times,serif" font-size="14.00">Definition Mechanisms</text>
<text xml:space="preserve" text-anchor="middle" x="785.03" y="-145.53" font-family="Times,serif" font-size="14.00">2002</text>
</a>
</g>
</g>
<!-- cites&#45;&gt;RFC3406 -->
<g id="edge7" class="edge">
<title>cites&#45;&gt;RFC3406</title>
<path fill="none" stroke="black" d="M565.16,-175.33C570.83,-175.33 577.25,-175.33 584.23,-175.33"/>
<polygon fill="black" stroke="black" points="584.13,-178.83 594.13,-175.33 584.13,-171.83 584.13,-178.83"/>
</g>
<!-- RFC1737 -->
<g id="node9" class="node">
<title>RFC1737</title>
<g id="a_node9"><a xlink:href="RFC1737.html" xlink:title="This document specifies a minimum set of requirements for a kind of Internet resource identifier known as Uniform Resource Names (URNs). &#160;This memo provides information for the Internet community. &#160;This memo does not specify an Internet standard of any kind." target="_top">
<ellipse fill="none" stroke="black" cx="785.03" cy="-52.33" rx="158.22" ry="52.33"/>
<text xml:space="preserve" text-anchor="middle" x="785.03" y="-72.03" font-family="Times,serif" font-size="14.00">RFC1737</text>
<text xml:space="preserve" text-anchor="middle" x="785.03" y="-55.53" font-family="Times,serif" font-size="14.00">Functional Requirements for Uniform</text>
<text xml:space="preserve" text-anchor="middle" x="785.03" y="-39.03" font-family="Times,serif" font-size="14.00">Resource Names</text>
<text xml:space="preserve" text-anchor="middle" x="785.03" y="-22.53" font-family="Times,serif" font-size="14.00">1994</text>
</a>
</g>
</g>
<!-- cites&#45;&gt;RFC1737 -->
<g id="edge8" class="edge">
<title>cites&#45;&gt;RFC1737</title>
<path fill="none" stroke="black" d="M552.05,-156.97C562.57,-143.47 578.45,-125.57 596.06,-114.33 612.03,-104.12 629.86,-95.43 647.98,-88.09"/>
<polygon fill="black" stroke="black" points="649.23,-91.36 657.27,-84.46 646.68,-84.84 649.23,-91.36"/>
</g>
<!-- rev_cites -->
<g id="node10" class="node">
<title>rev_cites</title>
<polygon fill="lightblue" stroke="black" points="60.12,-193.33 6.12,-193.33 6.12,-157.33 60.12,-157.33 60.12,-193.33"/>
<text xml:space="preserve" text-anchor="middle" x="33.12" y="-170.28" font-family="Times,serif" font-size="14.00">cites</text>
</g>
<!-- rev_cites&#45;&gt;RFC6893 -->
<g id="edge9" class="edge">
<title>rev_cites&#45;&gt;RFC6893</title>
<path fill="none" stroke="black" d="M60.45,-181C76.35,-184.43 98.08,-189.12 121.8,-194.23"/>
<polygon fill="black" stroke="black" points="120.83,-197.6 131.34,-196.29 122.31,-190.76 120.83,-197.6"/>
</g>
</g>
</svg>
