<?xml version="1.0" encoding="UTF-8" standalone="no"?>
<!DOCTYPE svg PUBLIC "-//W3C//DTD SVG 1.1//EN"
 "http://www.w3.org/Graphics/SVG/1.1/DTD/svg11.dtd">
<!-- Generated by graphviz version 14.1.1 (20251213.1925)
 -->
<!-- Title: Flow Pages: 1 -->
<svg width="1014pt" height="1635pt"
 viewBox="0.00 0.00 1014.00 1635.00" xmlns="http://www.w3.org/2000/svg" xmlns:xlink="http://www.w3.org/1999/xlink">
<g id="graph0" class="graph" transform="scale(1 1) rotate(0) translate(4 1631.34)">
<title>Flow</title>
<polygon fill="white" stroke="none" points="-4,4 -4,-1631.34 1010.33,-1631.34 1010.33,4 -4,4"/>
<!-- RFC6379 -->
<g id="node1" class="node">
<title>RFC6379</title>
<g id="a_node1"><a xlink:title="This document proposes four cryptographic user interface suites (UI suites) for IP Security (IPsec), similar to the two suites specified in RFC 4308. &#160;The four new suites provide compatibility with the United States National Security Agency&#39;s Suite B specifications. &#160;This document obsoletes RFC 4869, which presented earlier versions of these suites. &#160;This document is not an Internet Standards Track specification; it is published for informational purposes.">
<ellipse fill="green" stroke="black" cx="252.12" cy="-755.68" rx="160.87" ry="40.66"/>
<text xml:space="preserve" text-anchor="middle" x="252.12" y="-767.13" font-family="Times,serif" font-size="14.00">RFC6379</text>
<text xml:space="preserve" text-anchor="middle" x="252.12" y="-750.63" font-family="Times,serif" font-size="14.00">Suite B Cryptographic Suites for IPsec</text>
<text xml:space="preserve" text-anchor="middle" x="252.12" y="-734.13" font-family="Times,serif" font-size="14.00">2011</text>
</a>
</g>
</g>
<!-- obs -->
<g id="node3" class="node">
<title>obs</title>
<polygon fill="lightblue" stroke="black" points="504.23,-1083.68 437.98,-1083.68 437.98,-1047.68 504.23,-1047.68 504.23,-1083.68"/>
<text xml:space="preserve" text-anchor="middle" x="471.11" y="-1060.63" font-family="Times,serif" font-size="14.00">obsoletes</text>
</g>
<!-- RFC6379&#45;&gt;obs -->
<g id="edge2" class="edge">
<title>RFC6379&#45;&gt;obs</title>
<path fill="none" stroke="black" d="M281.26,-795.89C326.05,-859.87 412.39,-983.22 450.83,-1038.14"/>
<polygon fill="black" stroke="black" points="447.75,-1039.84 456.35,-1046.03 453.48,-1035.83 447.75,-1039.84"/>
</g>
<!-- updates -->
<g id="node5" class="node">
<title>updates</title>
<polygon fill="lightyellow" stroke="black" points="499.73,-800.68 442.48,-800.68 442.48,-764.68 499.73,-764.68 499.73,-800.68"/>
<text xml:space="preserve" text-anchor="middle" x="471.11" y="-777.63" font-family="Times,serif" font-size="14.00">updates</text>
</g>
<!-- RFC6379&#45;&gt;updates -->
<g id="edge4" class="edge">
<title>RFC6379&#45;&gt;updates</title>
<path fill="none" stroke="black" d="M397.25,-773.62C409.4,-775.13 420.88,-776.56 430.98,-777.81"/>
<polygon fill="black" stroke="black" points="430.31,-781.26 440.66,-779.02 431.17,-774.31 430.31,-781.26"/>
</g>
<!-- cites -->
<g id="node7" class="node">
<title>cites</title>
<polygon fill="lightblue" stroke="black" points="498.11,-746.68 444.11,-746.68 444.11,-710.68 498.11,-710.68 498.11,-746.68"/>
<text xml:space="preserve" text-anchor="middle" x="471.11" y="-723.63" font-family="Times,serif" font-size="14.00">cites</text>
</g>
<!-- RFC6379&#45;&gt;cites -->
<g id="edge6" class="edge">
<title>RFC6379&#45;&gt;cites</title>
<path fill="none" stroke="black" d="M397.25,-737.75C410.1,-736.15 422.21,-734.64 432.72,-733.33"/>
<polygon fill="black" stroke="black" points="432.87,-736.84 442.36,-732.13 432.01,-729.9 432.87,-736.84"/>
</g>
<!-- obs_by -->
<g id="node2" class="node">
<title>obs_by</title>
<polygon fill="lightblue" stroke="black" points="66.25,-800.68 0,-800.68 0,-764.68 66.25,-764.68 66.25,-800.68"/>
<text xml:space="preserve" text-anchor="middle" x="33.12" y="-777.63" font-family="Times,serif" font-size="14.00">obsoletes</text>
</g>
<!-- obs_by&#45;&gt;RFC6379 -->
<g id="edge1" class="edge">
<title>obs_by&#45;&gt;RFC6379</title>
<path fill="none" stroke="black" d="M66.61,-778.64C75.21,-777.57 85.09,-776.34 95.71,-775.02"/>
<polygon fill="black" stroke="black" points="96.04,-778.51 105.53,-773.8 95.17,-771.56 96.04,-778.51"/>
</g>
<!-- RFC4869 -->
<g id="node4" class="node">
<title>RFC4869</title>
<g id="a_node4"><a xlink:href="RFC4869.html" xlink:title="This document proposes four optional cryptographic user interface suites (UI suites) for IPsec, similar to the two suites specified in RFC 4308. &#160;The four new suites provide compatibility with the United States National Security Agency&#39;s Suite B specifications. &#160;This memo provides information for the Internet community." target="_top">
<ellipse fill="none" stroke="black" cx="728.28" cy="-1294.68" rx="160.87" ry="40.66"/>
<text xml:space="preserve" text-anchor="middle" x="728.28" y="-1306.13" font-family="Times,serif" font-size="14.00">RFC4869</text>
<text xml:space="preserve" text-anchor="middle" x="728.28" y="-1289.63" font-family="Times,serif" font-size="14.00">Suite B Cryptographic Suites for IPsec</text>
<text xml:space="preserve" text-anchor="middle" x="728.28" y="-1273.13" font-family="Times,serif" font-size="14.00">2007</text>
</a>
</g>
</g>
<!-- obs&#45;&gt;RFC4869 -->
<g id="edge3" class="edge">
<title>obs&#45;&gt;RFC4869</title>
<path fill="none" stroke="black" d="M472.35,-1084.02C473.86,-1120.41 482.59,-1201.96 529.23,-1245.68 541.53,-1257.21 556.1,-1266.14 571.66,-1273.05"/>
<polygon fill="black" stroke="black" points="570.05,-1276.17 580.63,-1276.73 572.7,-1269.69 570.05,-1276.17"/>
</g>
<!-- updated_by -->
<g id="node6" class="node">
<title>updated_by</title>
<polygon fill="lightyellow" stroke="black" points="61.75,-746.68 4.5,-746.68 4.5,-710.68 61.75,-710.68 61.75,-746.68"/>
<text xml:space="preserve" text-anchor="middle" x="33.12" y="-723.63" font-family="Times,serif" font-size="14.00">updates</text>
</g>
<!-- updated_by&#45;&gt;RFC6379 -->
<g id="edge5" class="edge">
<title>updated_by&#45;&gt;RFC6379</title>
<path fill="none" stroke="black" d="M62.05,-732.16C71.7,-733.36 83.3,-734.8 95.94,-736.37"/>
<polygon fill="black" stroke="black" points="95.44,-739.84 105.79,-737.6 96.3,-732.89 95.44,-739.84"/>
</g>
<!-- cites&#45;&gt;RFC4869 -->
<g id="edge8" class="edge">
<title>cites&#45;&gt;RFC4869</title>
<path fill="none" stroke="black" d="M498.19,-746.99C500.57,-749.64 502.68,-752.55 504.23,-755.68 528.5,-804.5 494.55,-1203.62 529.23,-1245.68 539.67,-1258.34 552.81,-1268.02 567.34,-1275.39"/>
<polygon fill="black" stroke="black" points="565.68,-1278.47 576.23,-1279.49 568.62,-1272.12 565.68,-1278.47"/>
</g>
<!-- RFC4308 -->
<g id="node8" class="node">
<title>RFC4308</title>
<g id="a_node8"><a xlink:href="RFC4308.html" xlink:title="The IPsec, Internet Key Exchange (IKE), and IKEv2 protocols rely on security algorithms to provide privacy and authentication between the initiator and responder. &#160;There are many such algorithms available, and two IPsec systems cannot interoperate unless they are using the same algorithms. &#160;This document specifies optional suites of algorithms and attributes that can be used to simplify the administration of IPsec when used in manual keying mode, with IKEv1 or with IKEv2. [STANDARDS&#45;TRACK]" target="_top">
<ellipse fill="none" stroke="black" cx="728.28" cy="-1195.68" rx="129.58" ry="40.66"/>
<text xml:space="preserve" text-anchor="middle" x="728.28" y="-1207.13" font-family="Times,serif" font-size="14.00">RFC4308</text>
<text xml:space="preserve" text-anchor="middle" x="728.28" y="-1190.63" font-family="Times,serif" font-size="14.00">Cryptographic Suites for IPsec</text>
<text xml:space="preserve" text-anchor="middle" x="728.28" y="-1174.13" font-family="Times,serif" font-size="14.00">2005</text>
</a>
</g>
</g>
<!-- cites&#45;&gt;RFC4308 -->
<g id="edge7" class="edge">
<title>cites&#45;&gt;RFC4308</title>
<path fill="none" stroke="black" d="M498.15,-747.01C500.54,-749.66 502.66,-752.56 504.23,-755.68 543.4,-833.19 473.7,-1078.91 529.23,-1145.68 544.92,-1164.54 566.58,-1176.86 589.85,-1184.79"/>
<polygon fill="black" stroke="black" points="588.6,-1188.07 599.19,-1187.69 590.67,-1181.38 588.6,-1188.07"/>
</g>
<!-- RFC2119 -->
<g id="node9" class="node">
<title>RFC2119</title>
<g id="a_node9"><a xlink:href="RFC2119.html" xlink:title="In many standards track documents several words are used to signify the requirements in the specification. &#160;These words are often capitalized. &#160;This document defines these words as they should be interpreted in IETF documents. &#160;This document specifies an Internet Best Current Practices for the Internet Community, and requests discussion and suggestions for improvements." target="_top">
<ellipse fill="none" stroke="black" cx="728.28" cy="-1084.68" rx="160.34" ry="52.33"/>
<text xml:space="preserve" text-anchor="middle" x="728.28" y="-1104.38" font-family="Times,serif" font-size="14.00">RFC2119</text>
<text xml:space="preserve" text-anchor="middle" x="728.28" y="-1087.88" font-family="Times,serif" font-size="14.00">Key words for use in RFCs to Indicate</text>
<text xml:space="preserve" text-anchor="middle" x="728.28" y="-1071.38" font-family="Times,serif" font-size="14.00">Requirement Levels</text>
<text xml:space="preserve" text-anchor="middle" x="728.28" y="-1054.88" font-family="Times,serif" font-size="14.00">1997</text>
</a>
</g>
</g>
<!-- cites&#45;&gt;RFC2119 -->
<g id="edge9" class="edge">
<title>cites&#45;&gt;RFC2119</title>
<path fill="none" stroke="black" d="M498.06,-747.06C500.47,-749.7 502.61,-752.58 504.23,-755.68 531.98,-808.67 491.51,-977.27 529.23,-1023.68 540.99,-1038.15 556.11,-1049.26 572.74,-1057.78"/>
<polygon fill="black" stroke="black" points="570.79,-1060.73 581.33,-1061.86 573.79,-1054.41 570.79,-1060.73"/>
</g>
<!-- RFC4303 -->
<g id="node10" class="node">
<title>RFC4303</title>
<g id="a_node10"><a xlink:href="RFC4303.html" xlink:title="This document describes an updated version of the Encapsulating Security Payload (ESP) protocol, which is designed to provide a mix of security services in IPv4 and IPv6. &#160;ESP is used to provide confidentiality, data origin authentication, connectionless integrity, an anti&#45;replay service (a form of partial sequence integrity), and limited traffic flow confidentiality. &#160;This document obsoletes RFC 2406 (November 1998). [STANDARDS&#45;TRACK]" target="_top">
<ellipse fill="none" stroke="black" cx="728.28" cy="-973.68" rx="169.35" ry="40.66"/>
<text xml:space="preserve" text-anchor="middle" x="728.28" y="-985.13" font-family="Times,serif" font-size="14.00">RFC4303</text>
<text xml:space="preserve" text-anchor="middle" x="728.28" y="-968.63" font-family="Times,serif" font-size="14.00">IP Encapsulating Security Payload (ESP)</text>
<text xml:space="preserve" text-anchor="middle" x="728.28" y="-952.13" font-family="Times,serif" font-size="14.00">2005</text>
</a>
</g>
</g>
<!-- cites&#45;&gt;RFC4303 -->
<g id="edge10" class="edge">
<title>cites&#45;&gt;RFC4303</title>
<path fill="none" stroke="black" d="M497.89,-747.15C500.33,-749.77 502.53,-752.63 504.23,-755.68 541.07,-821.57 478.58,-867.71 529.23,-923.68 539.48,-935 551.88,-943.93 565.42,-950.95"/>
<polygon fill="black" stroke="black" points="563.57,-953.94 574.1,-955.07 566.57,-947.62 563.57,-953.94"/>
</g>
<!-- RFC5996 -->
<g id="node11" class="node">
<title>RFC5996</title>
<g id="a_node11"><a xlink:href="RFC5996.html" xlink:title="This document describes version 2 of the Internet Key Exchange (IKE) protocol. &#160;IKE is a component of IPsec used for performing mutual authentication and establishing and maintaining Security Associations (SAs). &#160;This document replaces and updates RFC 4306, and includes all of the clarifications from RFC 4718. [STANDARDS&#45;TRACK]" target="_top">
<ellipse fill="none" stroke="black" cx="728.28" cy="-862.68" rx="173.59" ry="52.33"/>
<text xml:space="preserve" text-anchor="middle" x="728.28" y="-882.38" font-family="Times,serif" font-size="14.00">RFC5996</text>
<text xml:space="preserve" text-anchor="middle" x="728.28" y="-865.88" font-family="Times,serif" font-size="14.00">Internet Key Exchange Protocol Version 2</text>
<text xml:space="preserve" text-anchor="middle" x="728.28" y="-849.38" font-family="Times,serif" font-size="14.00">(IKEv2)</text>
<text xml:space="preserve" text-anchor="middle" x="728.28" y="-832.88" font-family="Times,serif" font-size="14.00">2010</text>
</a>
</g>
</g>
<!-- cites&#45;&gt;RFC5996 -->
<g id="edge11" class="edge">
<title>cites&#45;&gt;RFC5996</title>
<path fill="none" stroke="black" d="M495.9,-746.89C498.88,-749.67 501.75,-752.63 504.23,-755.68 518.95,-773.7 511.23,-786.94 529.23,-801.68 542.42,-812.48 557.51,-821.37 573.35,-828.68"/>
<polygon fill="black" stroke="black" points="571.9,-831.87 582.46,-832.66 574.7,-825.45 571.9,-831.87"/>
</g>
<!-- RFC4106 -->
<g id="node12" class="node">
<title>RFC4106</title>
<g id="a_node12"><a xlink:href="RFC4106.html" xlink:title="This memo describes the use of the Advanced Encryption Standard (AES) in Galois/Counter Mode (GCM) as an IPsec Encapsulating Security Payload (ESP) mechanism to provide confidentiality and data origin authentication. &#160;This method can be efficiently implemented in hardware for speeds of 10 gigabits per second and above, and is also well&#45;suited to software implementations. [STANDARDS&#45;TRACK]" target="_top">
<ellipse fill="none" stroke="black" cx="728.28" cy="-728.68" rx="182.08" ry="63.99"/>
<text xml:space="preserve" text-anchor="middle" x="728.28" y="-756.63" font-family="Times,serif" font-size="14.00">RFC4106</text>
<text xml:space="preserve" text-anchor="middle" x="728.28" y="-740.13" font-family="Times,serif" font-size="14.00">The Use of Galois/Counter Mode (GCM) in</text>
<text xml:space="preserve" text-anchor="middle" x="728.28" y="-723.63" font-family="Times,serif" font-size="14.00">IPsec Encapsulating Security Payload</text>
<text xml:space="preserve" text-anchor="middle" x="728.28" y="-707.13" font-family="Times,serif" font-size="14.00">(ESP)</text>
<text xml:space="preserve" text-anchor="middle" x="728.28" y="-690.63" font-family="Times,serif" font-size="14.00">2005</text>
</a>
</g>
</g>
<!-- cites&#45;&gt;RFC4106 -->
<g id="edge12" class="edge">
<title>cites&#45;&gt;RFC4106</title>
<path fill="none" stroke="black" d="M498.46,-728.68C508.5,-728.68 520.89,-728.68 534.65,-728.68"/>
<polygon fill="black" stroke="black" points="534.46,-732.18 544.46,-728.68 534.46,-725.18 534.46,-732.18"/>
</g>
<!-- RFC3602 -->
<g id="node13" class="node">
<title>RFC3602</title>
<g id="a_node13"><a xlink:href="RFC3602.html" xlink:title="This document describes the use of the Advanced Encryption Standard (AES) Cipher Algorithm in Cipher Block Chaining (CBC) Mode, with an explicit Initialization Vector (IV), as a confidentiality mechanism within the context of the IPsec Encapsulating Security Payload (ESP)." target="_top">
<ellipse fill="none" stroke="black" cx="728.28" cy="-594.68" rx="185.79" ry="52.33"/>
<text xml:space="preserve" text-anchor="middle" x="728.28" y="-614.38" font-family="Times,serif" font-size="14.00">RFC3602</text>
<text xml:space="preserve" text-anchor="middle" x="728.28" y="-597.88" font-family="Times,serif" font-size="14.00">The AES&#45;CBC Cipher Algorithm and Its Use</text>
<text xml:space="preserve" text-anchor="middle" x="728.28" y="-581.38" font-family="Times,serif" font-size="14.00">with IPsec</text>
<text xml:space="preserve" text-anchor="middle" x="728.28" y="-564.88" font-family="Times,serif" font-size="14.00">2003</text>
</a>
</g>
</g>
<!-- cites&#45;&gt;RFC3602 -->
<g id="edge13" class="edge">
<title>cites&#45;&gt;RFC3602</title>
<path fill="none" stroke="black" d="M481.98,-710.48C491.86,-693.91 508.55,-669.92 529.23,-655.68 542.48,-646.57 557.13,-638.78 572.3,-632.12"/>
<polygon fill="black" stroke="black" points="573.61,-635.37 581.48,-628.28 570.9,-628.91 573.61,-635.37"/>
</g>
<!-- RFC4868 -->
<g id="node14" class="node">
<title>RFC4868</title>
<g id="a_node14"><a xlink:href="RFC4868.html" xlink:title="This specification describes the use of Hashed Message Authentication Mode (HMAC) in conjunction with the SHA&#45;256, SHA&#45;384, and SHA&#45;512 algorithms in IPsec. &#160;These algorithms may be used as the basis for data origin authentication and integrity verification mechanisms for the Authentication Header (AH), Encapsulating Security Payload (ESP), Internet Key Exchange Protocol (IKE), and IKEv2 protocols, and also as Pseudo&#45;Random Functions (PRFs) for IKE and IKEv2. &#160;Truncated output lengths are specified for the authentication&#45;related variants, with the corresponding algorithms designated as HMAC&#45;SHA&#45;256&#45;128, HMAC&#45;SHA&#45;384&#45;192, and HMAC&#45;SHA&#45;512&#45;256. &#160;The PRF variants are not truncated, and are called PRF&#45;HMAC&#45;SHA&#45;256, PRF&#45;HMAC&#45;SHA&#45;384, and PRF&#45;HMAC&#45;SHA&#45;512. [STANDARDS&#45;TRACK]" target="_top">
<ellipse fill="none" stroke="black" cx="728.28" cy="-471.68" rx="199.05" ry="52.33"/>
<text xml:space="preserve" text-anchor="middle" x="728.28" y="-491.38" font-family="Times,serif" font-size="14.00">RFC4868</text>
<text xml:space="preserve" text-anchor="middle" x="728.28" y="-474.88" font-family="Times,serif" font-size="14.00">Using HMAC&#45;SHA&#45;256, HMAC&#45;SHA&#45;384, and</text>
<text xml:space="preserve" text-anchor="middle" x="728.28" y="-458.38" font-family="Times,serif" font-size="14.00">HMAC&#45;SHA&#45;512 with IPsec</text>
<text xml:space="preserve" text-anchor="middle" x="728.28" y="-441.88" font-family="Times,serif" font-size="14.00">2007</text>
</a>
</g>
</g>
<!-- cites&#45;&gt;RFC4868 -->
<g id="edge14" class="edge">
<title>cites&#45;&gt;RFC4868</title>
<path fill="none" stroke="black" d="M472.05,-710.29C472.96,-672.02 480.55,-583.27 529.23,-533.68 538.5,-524.24 549.19,-516.23 560.69,-509.44"/>
<polygon fill="black" stroke="black" points="562.14,-512.64 569.2,-504.75 558.76,-506.51 562.14,-512.64"/>
</g>
<!-- RFC5903 -->
<g id="node15" class="node">
<title>RFC5903</title>
<g id="a_node15"><a xlink:href="RFC5903.html" xlink:title="This document describes three Elliptic Curve Cryptography (ECC) groups for use in the Internet Key Exchange (IKE) and Internet Key Exchange version 2 (IKEv2) protocols in addition to previously defined groups. &#160;These groups are based on modular arithmetic rather than binary arithmetic. &#160;These groups are defined to align IKE and IKEv2 with other ECC implementations and standards, particularly NIST standards. &#160;In addition, the curves defined here can provide more efficient implementation than previously defined ECC groups. &#160;This document obsoletes RFC 4753. &#160;This document is not an Internet Standards Track specification; it is published for informational purposes." target="_top">
<ellipse fill="none" stroke="black" cx="728.28" cy="-348.68" rx="161.4" ry="52.33"/>
<text xml:space="preserve" text-anchor="middle" x="728.28" y="-368.38" font-family="Times,serif" font-size="14.00">RFC5903</text>
<text xml:space="preserve" text-anchor="middle" x="728.28" y="-351.88" font-family="Times,serif" font-size="14.00">Elliptic Curve Groups modulo a Prime</text>
<text xml:space="preserve" text-anchor="middle" x="728.28" y="-335.38" font-family="Times,serif" font-size="14.00">(ECP Groups) for IKE and IKEv2</text>
<text xml:space="preserve" text-anchor="middle" x="728.28" y="-318.88" font-family="Times,serif" font-size="14.00">2010</text>
</a>
</g>
</g>
<!-- cites&#45;&gt;RFC5903 -->
<g id="edge15" class="edge">
<title>cites&#45;&gt;RFC5903</title>
<path fill="none" stroke="black" d="M472.97,-710.31C476.17,-649.47 489.36,-455.91 529.23,-410.68 541.63,-396.62 557.17,-385.71 574.07,-377.26"/>
<polygon fill="black" stroke="black" points="575.2,-380.59 582.79,-373.2 572.24,-374.25 575.2,-380.59"/>
</g>
<!-- RFC4543 -->
<g id="node16" class="node">
<title>RFC4543</title>
<g id="a_node16"><a xlink:href="RFC4543.html" xlink:title="This memo describes the use of the Advanced Encryption Standard (AES) Galois Message Authentication Code (GMAC) as a mechanism to provide data origin authentication, but not confidentiality, within the IPsec Encapsulating Security Payload (ESP) and Authentication Header (AH). &#160;GMAC is based on the Galois/Counter Mode (GCM) of operation, and can be efficiently implemented in hardware for speeds of 10 gigabits per second and above, and is also well&#45;suited to software implementations. [STANDARDS&#45;TRACK]" target="_top">
<ellipse fill="none" stroke="black" cx="728.28" cy="-225.68" rx="177.31" ry="52.33"/>
<text xml:space="preserve" text-anchor="middle" x="728.28" y="-245.38" font-family="Times,serif" font-size="14.00">RFC4543</text>
<text xml:space="preserve" text-anchor="middle" x="728.28" y="-228.88" font-family="Times,serif" font-size="14.00">The Use of Galois Message Authentication</text>
<text xml:space="preserve" text-anchor="middle" x="728.28" y="-212.38" font-family="Times,serif" font-size="14.00">Code (GMAC) in IPsec ESP and AH</text>
<text xml:space="preserve" text-anchor="middle" x="728.28" y="-195.88" font-family="Times,serif" font-size="14.00">2006</text>
</a>
</g>
</g>
<!-- cites&#45;&gt;RFC4543 -->
<g id="edge16" class="edge">
<title>cites&#45;&gt;RFC4543</title>
<path fill="none" stroke="black" d="M471.95,-710.38C471.66,-635.48 474.28,-353.18 529.23,-287.68 539.49,-275.46 552.12,-265.61 566,-257.68"/>
<polygon fill="black" stroke="black" points="567.26,-260.97 574.46,-253.2 563.99,-254.79 567.26,-260.97"/>
</g>
<!-- RFC6380 -->
<g id="node17" class="node">
<title>RFC6380</title>
<g id="a_node17"><a xlink:href="RFC6380.html" xlink:title="The United States Government has published guidelines for NSA Suite B Cryptography dated July, 2005, which defines cryptographic algorithm policy for national security applications. This document specifies the conventions for using Suite B cryptography in IP Security (IPsec). Since many of the Suite B algorithms are used in other environments, the majority of the conventions needed for the Suite B algorithms are already specified in other documents. This document references the source of these conventions, with some relevant detail repeated to aid developers who choose to support Suite B. This document is not an Internet Standards Track specification; it is published for informational purposes." target="_top">
<ellipse fill="none" stroke="black" cx="728.28" cy="-102.68" rx="149.73" ry="52.33"/>
<text xml:space="preserve" text-anchor="middle" x="728.28" y="-122.38" font-family="Times,serif" font-size="14.00">RFC6380</text>
<text xml:space="preserve" text-anchor="middle" x="728.28" y="-105.88" font-family="Times,serif" font-size="14.00">Suite B Profile for Internet Protocol</text>
<text xml:space="preserve" text-anchor="middle" x="728.28" y="-89.38" font-family="Times,serif" font-size="14.00">Security (IPsec)</text>
<text xml:space="preserve" text-anchor="middle" x="728.28" y="-72.88" font-family="Times,serif" font-size="14.00">2011</text>
</a>
</g>
</g>
<!-- cites&#45;&gt;RFC6380 -->
<g id="edge17" class="edge">
<title>cites&#45;&gt;RFC6380</title>
<path fill="none" stroke="black" d="M472.78,-710.28C476.32,-617.94 493.93,-207.96 529.23,-164.68 542.5,-148.41 560,-136.34 579.1,-127.39"/>
<polygon fill="black" stroke="black" points="580.37,-130.65 588.15,-123.46 577.58,-124.23 580.37,-130.65"/>
</g>
<!-- rev_cites -->
<g id="node18" class="node">
<title>rev_cites</title>
<polygon fill="lightblue" stroke="black" points="1006.33,-771.68 952.33,-771.68 952.33,-735.68 1006.33,-735.68 1006.33,-771.68"/>
<text xml:space="preserve" text-anchor="middle" x="979.33" y="-748.63" font-family="Times,serif" font-size="14.00">cites</text>
</g>
<!-- RFC6380&#45;&gt;rev_cites -->
<g id="edge19" class="edge">
<title>RFC6380&#45;&gt;rev_cites</title>
<path fill="none" stroke="black" d="M867.25,-122.68C890.35,-131.96 911.82,-145.37 927.33,-164.68 962.65,-208.64 974.92,-611.11 977.68,-724.23"/>
<polygon fill="black" stroke="black" points="974.17,-723.98 977.91,-733.9 981.17,-723.82 974.17,-723.98"/>
</g>
<!-- rev_cites&#45;&gt;RFC6379 -->
<g id="edge18" class="edge">
<title>rev_cites&#45;&gt;RFC6379</title>
<path fill="none" stroke="black" d="M978.47,-735.34C979.09,-628.6 979.6,-90.34 927.33,-41.68 862.58,18.6 602.2,8.34 529.23,-41.68 302.88,-196.84 262.04,-566.2 254.71,-703.29"/>
<polygon fill="black" stroke="black" points="251.22,-703 254.22,-713.16 258.21,-703.34 251.22,-703"/>
</g>
<!-- RFC7321 -->
<g id="node19" class="node">
<title>RFC7321</title>
<g id="a_node19"><a xlink:href="RFC7321.html" xlink:title="This document updates the Cryptographic Algorithm Implementation Requirements for the Encapsulating Security Payload (ESP) and Authentication Header (AH). It also adds usage guidance to help in the selection of these algorithms. ESP and AH protocols make use of various cryptographic algorithms to provide confidentiality and/or data origin authentication to protected data communications in the IP Security (IPsec) architecture. To ensure interoperability between disparate implementations, the IPsec standard specifies a set of mandatory&#45;to&#45; implement algorithms. This document specifies the current set of mandatory&#45;to&#45;implement algorithms for ESP and AH, specifies algorithms that should be implemented because they may be promoted to mandatory at some future time, and also recommends against the implementation of some obsolete algorithms. Usage guidance is also provided to help the user of ESP and AH best achieve their security goals through appropriate choices of cryptographic algorithms." target="_top">
<ellipse fill="none" stroke="black" cx="728.28" cy="-1551.68" rx="175.19" ry="75.66"/>
<text xml:space="preserve" text-anchor="middle" x="728.28" y="-1587.88" font-family="Times,serif" font-size="14.00">RFC7321</text>
<text xml:space="preserve" text-anchor="middle" x="728.28" y="-1571.38" font-family="Times,serif" font-size="14.00">Cryptographic Algorithm Implementation</text>
<text xml:space="preserve" text-anchor="middle" x="728.28" y="-1554.88" font-family="Times,serif" font-size="14.00">Requirements and Usage Guidance for</text>
<text xml:space="preserve" text-anchor="middle" x="728.28" y="-1538.38" font-family="Times,serif" font-size="14.00">Encapsulating Security Payload (ESP) and</text>
<text xml:space="preserve" text-anchor="middle" x="728.28" y="-1521.88" font-family="Times,serif" font-size="14.00">Authentication Header (AH)</text>
<text xml:space="preserve" text-anchor="middle" x="728.28" y="-1505.38" font-family="Times,serif" font-size="14.00">2014</text>
</a>
</g>
</g>
<!-- RFC7321&#45;&gt;rev_cites -->
<g id="edge20" class="edge">
<title>RFC7321&#45;&gt;rev_cites</title>
<path fill="none" stroke="black" d="M876.42,-1510.95C896.23,-1499.6 914.21,-1485.13 927.33,-1466.68 967.45,-1410.29 976.38,-910.88 978.01,-783.27"/>
<polygon fill="black" stroke="black" points="981.51,-783.66 978.13,-773.62 974.51,-783.58 981.51,-783.66"/>
</g>
<!-- RFC8423 -->
<g id="node20" class="node">
<title>RFC8423</title>
<g id="a_node20"><a xlink:href="RFC8423.html" xlink:title="This document reclassifies the RFCs related to the United States National Security Agency (NSA) Suite B cryptographic algorithms as Historic, and it discusses the reasons for doing so. &#160;This document moves seven Informational RFCs to Historic status: RFCs 5759, 6239, 6318, 6379, 6380, 6403, and 6460. &#160;In addition, it moves three obsolete Informational RFCs to Historic status: RFCs 4869, 5008, and 5430." target="_top">
<ellipse fill="none" stroke="black" cx="728.28" cy="-1405.68" rx="170.94" ry="52.33"/>
<text xml:space="preserve" text-anchor="middle" x="728.28" y="-1425.38" font-family="Times,serif" font-size="14.00">RFC8423</text>
<text xml:space="preserve" text-anchor="middle" x="728.28" y="-1408.88" font-family="Times,serif" font-size="14.00">Reclassification of Suite B Documents to</text>
<text xml:space="preserve" text-anchor="middle" x="728.28" y="-1392.38" font-family="Times,serif" font-size="14.00">Historic Status</text>
<text xml:space="preserve" text-anchor="middle" x="728.28" y="-1375.88" font-family="Times,serif" font-size="14.00">2018</text>
</a>
</g>
</g>
<!-- RFC8423&#45;&gt;rev_cites -->
<g id="edge21" class="edge">
<title>RFC8423&#45;&gt;rev_cites</title>
<path fill="none" stroke="black" d="M879.39,-1381.1C897.79,-1372.31 914.57,-1360.5 927.33,-1344.68 962.87,-1300.66 974.98,-896.76 977.69,-783.24"/>
<polygon fill="black" stroke="black" points="981.19,-783.61 977.92,-773.53 974.19,-783.45 981.19,-783.61"/>
</g>
</g>
</svg>
