<?xml version="1.0" encoding="UTF-8" standalone="no"?>
<!DOCTYPE svg PUBLIC "-//W3C//DTD SVG 1.1//EN"
 "http://www.w3.org/Graphics/SVG/1.1/DTD/svg11.dtd">
<!-- Generated by graphviz version 14.1.1 (20251213.1925)
 -->
<!-- Title: Flow Pages: 1 -->
<svg width="1341pt" height="1592pt"
 viewBox="0.00 0.00 1341.00 1592.00" xmlns="http://www.w3.org/2000/svg" xmlns:xlink="http://www.w3.org/1999/xlink">
<g id="graph0" class="graph" transform="scale(1 1) rotate(0) translate(4 1587.65)">
<title>Flow</title>
<polygon fill="white" stroke="none" points="-4,4 -4,-1587.65 1337.47,-1587.65 1337.47,4 -4,4"/>
<!-- RFC6643 -->
<g id="node1" class="node">
<title>RFC6643</title>
<g id="a_node1"><a xlink:title="YANG is a data modeling language used to model configuration and state data manipulated by the Network Configuration Protocol (NETCONF), NETCONF remote procedure calls, and NETCONF notifications. &#160;The Structure of Management Information (SMIv2) defines fundamental data types, an object model, and the rules for writing and revising MIB modules for use with the Simple Network Management Protocol (SNMP). &#160;This document defines a translation of SMIv2 MIB modules into YANG modules, enabling read&#45;only (config false) access to data objects defined in SMIv2 MIB modules via NETCONF. [STANDARDS&#45;TRACK]">
<ellipse fill="none" stroke="black" cx="672.04" cy="-851.33" rx="167.23" ry="63.99"/>
<text xml:space="preserve" text-anchor="middle" x="672.04" y="-879.28" font-family="Times,serif" font-size="14.00">RFC6643</text>
<text xml:space="preserve" text-anchor="middle" x="672.04" y="-862.78" font-family="Times,serif" font-size="14.00">Translation of Structure of Management</text>
<text xml:space="preserve" text-anchor="middle" x="672.04" y="-846.28" font-family="Times,serif" font-size="14.00">Information Version 2 (SMIv2) MIB</text>
<text xml:space="preserve" text-anchor="middle" x="672.04" y="-829.78" font-family="Times,serif" font-size="14.00">Modules to YANG Modules</text>
<text xml:space="preserve" text-anchor="middle" x="672.04" y="-813.28" font-family="Times,serif" font-size="14.00">2012</text>
</a>
</g>
</g>
<!-- obs -->
<g id="node3" class="node">
<title>obs</title>
<polygon fill="none" stroke="black" points="930.52,-923.33 864.27,-923.33 864.27,-887.33 930.52,-887.33 930.52,-923.33"/>
<text xml:space="preserve" text-anchor="middle" x="897.39" y="-900.28" font-family="Times,serif" font-size="14.00">obsoletes</text>
</g>
<!-- RFC6643&#45;&gt;obs -->
<g id="edge2" class="edge">
<title>RFC6643&#45;&gt;obs</title>
<path fill="none" stroke="black" d="M814.17,-885.45C828.11,-888.82 841.39,-892.03 853.05,-894.85"/>
<polygon fill="black" stroke="black" points="852.13,-898.23 862.67,-897.17 853.78,-891.42 852.13,-898.23"/>
</g>
<!-- updates -->
<g id="node4" class="node">
<title>updates</title>
<polygon fill="none" stroke="black" points="926.02,-869.33 868.77,-869.33 868.77,-833.33 926.02,-833.33 926.02,-869.33"/>
<text xml:space="preserve" text-anchor="middle" x="897.39" y="-846.28" font-family="Times,serif" font-size="14.00">updates</text>
</g>
<!-- RFC6643&#45;&gt;updates -->
<g id="edge3" class="edge">
<title>RFC6643&#45;&gt;updates</title>
<path fill="none" stroke="black" d="M839.74,-851.33C845.9,-851.33 851.76,-851.33 857.21,-851.33"/>
<polygon fill="black" stroke="black" points="856.95,-854.83 866.95,-851.33 856.95,-847.83 856.95,-854.83"/>
</g>
<!-- cites -->
<g id="node6" class="node">
<title>cites</title>
<polygon fill="none" stroke="black" points="924.39,-815.33 870.39,-815.33 870.39,-779.33 924.39,-779.33 924.39,-815.33"/>
<text xml:space="preserve" text-anchor="middle" x="897.39" y="-792.28" font-family="Times,serif" font-size="14.00">cites</text>
</g>
<!-- RFC6643&#45;&gt;cites -->
<g id="edge5" class="edge">
<title>RFC6643&#45;&gt;cites</title>
<path fill="none" stroke="black" d="M814.17,-817.2C830.7,-813.21 846.29,-809.44 859.37,-806.28"/>
<polygon fill="black" stroke="black" points="859.81,-809.77 868.7,-804.02 858.16,-802.97 859.81,-809.77"/>
</g>
<!-- obs_by -->
<g id="node2" class="node">
<title>obs_by</title>
<polygon fill="none" stroke="black" points="479.81,-923.33 413.56,-923.33 413.56,-887.33 479.81,-887.33 479.81,-923.33"/>
<text xml:space="preserve" text-anchor="middle" x="446.68" y="-900.28" font-family="Times,serif" font-size="14.00">obsoletes</text>
</g>
<!-- obs_by&#45;&gt;RFC6643 -->
<g id="edge1" class="edge">
<title>obs_by&#45;&gt;RFC6643</title>
<path fill="none" stroke="black" d="M480.16,-897.47C491.25,-894.79 504.48,-891.59 518.74,-888.15"/>
<polygon fill="black" stroke="black" points="519.45,-891.58 528.35,-885.82 517.8,-884.77 519.45,-891.58"/>
</g>
<!-- updated_by -->
<g id="node5" class="node">
<title>updated_by</title>
<polygon fill="none" stroke="black" points="475.31,-869.33 418.06,-869.33 418.06,-833.33 475.31,-833.33 475.31,-869.33"/>
<text xml:space="preserve" text-anchor="middle" x="446.68" y="-846.28" font-family="Times,serif" font-size="14.00">updates</text>
</g>
<!-- updated_by&#45;&gt;RFC6643 -->
<g id="edge4" class="edge">
<title>updated_by&#45;&gt;RFC6643</title>
<path fill="none" stroke="black" d="M475.52,-851.33C480.91,-851.33 486.92,-851.33 493.39,-851.33"/>
<polygon fill="black" stroke="black" points="493.17,-854.83 503.17,-851.33 493.17,-847.83 493.17,-854.83"/>
</g>
<!-- RFC2578 -->
<g id="node7" class="node">
<title>RFC2578</title>
<g id="a_node7"><a xlink:href="RFC2578.html" xlink:title="It is the purpose of this document, the Structure of Management Information Version 2 (SMIv2), to define that adapted subset, and to assign a set of associated administrative values. [STANDARDS&#45;TRACK]" target="_top">
<ellipse fill="none" stroke="black" cx="1144.49" cy="-1531.33" rx="159.28" ry="52.33"/>
<text xml:space="preserve" text-anchor="middle" x="1144.49" y="-1551.03" font-family="Times,serif" font-size="14.00">RFC2578</text>
<text xml:space="preserve" text-anchor="middle" x="1144.49" y="-1534.53" font-family="Times,serif" font-size="14.00">Structure of Management Information</text>
<text xml:space="preserve" text-anchor="middle" x="1144.49" y="-1518.03" font-family="Times,serif" font-size="14.00">Version 2 (SMIv2)</text>
<text xml:space="preserve" text-anchor="middle" x="1144.49" y="-1501.53" font-family="Times,serif" font-size="14.00">1999</text>
</a>
</g>
</g>
<!-- cites&#45;&gt;RFC2578 -->
<g id="edge6" class="edge">
<title>cites&#45;&gt;RFC2578</title>
<path fill="none" stroke="black" d="M924.51,-815.61C926.89,-818.27 928.98,-821.19 930.52,-824.33 962.1,-888.84 912.17,-1413.05 955.52,-1470.33 965.44,-1483.44 978.24,-1493.78 992.49,-1501.93"/>
<polygon fill="black" stroke="black" points="990.75,-1504.97 1001.23,-1506.52 994.01,-1498.77 990.75,-1504.97"/>
</g>
<!-- RFC2579 -->
<g id="node8" class="node">
<title>RFC2579</title>
<g id="a_node8"><a xlink:href="RFC2579.html" xlink:title="It is the purpose of this document to define the initial set of textual conventions available to all MIB modules. [STANDARDS&#45;TRACK]" target="_top">
<ellipse fill="none" stroke="black" cx="1144.49" cy="-1420.33" rx="134.88" ry="40.66"/>
<text xml:space="preserve" text-anchor="middle" x="1144.49" y="-1431.78" font-family="Times,serif" font-size="14.00">RFC2579</text>
<text xml:space="preserve" text-anchor="middle" x="1144.49" y="-1415.28" font-family="Times,serif" font-size="14.00">Textual Conventions for SMIv2</text>
<text xml:space="preserve" text-anchor="middle" x="1144.49" y="-1398.78" font-family="Times,serif" font-size="14.00">1999</text>
</a>
</g>
</g>
<!-- cites&#45;&gt;RFC2579 -->
<g id="edge7" class="edge">
<title>cites&#45;&gt;RFC2579</title>
<path fill="none" stroke="black" d="M924.48,-815.62C926.87,-818.28 928.97,-821.19 930.52,-824.33 957.46,-878.88 917.23,-1324.05 955.52,-1371.33 968.08,-1386.84 984.89,-1397.8 1003.31,-1405.49"/>
<polygon fill="black" stroke="black" points="1002,-1408.73 1012.59,-1409 1004.47,-1402.18 1002,-1408.73"/>
</g>
<!-- RFC2580 -->
<g id="node9" class="node">
<title>RFC2580</title>
<g id="a_node9"><a xlink:href="RFC2580.html" xlink:title="Collections of related objects are defined in MIB modules. &#160;It may be useful to define the acceptable lower&#45;bounds of implementation, along with the actual level of implementation achieved. &#160;It is the purpose of this document to define the notation used for these purposes. [STANDARDS&#45;TRACK]" target="_top">
<ellipse fill="none" stroke="black" cx="1144.49" cy="-1321.33" rx="152.38" ry="40.66"/>
<text xml:space="preserve" text-anchor="middle" x="1144.49" y="-1332.78" font-family="Times,serif" font-size="14.00">RFC2580</text>
<text xml:space="preserve" text-anchor="middle" x="1144.49" y="-1316.28" font-family="Times,serif" font-size="14.00">Conformance Statements for SMIv2</text>
<text xml:space="preserve" text-anchor="middle" x="1144.49" y="-1299.78" font-family="Times,serif" font-size="14.00">1999</text>
</a>
</g>
</g>
<!-- cites&#45;&gt;RFC2580 -->
<g id="edge8" class="edge">
<title>cites&#45;&gt;RFC2580</title>
<path fill="none" stroke="black" d="M924.45,-815.64C926.84,-818.29 928.95,-821.2 930.52,-824.33 975.03,-913.3 892.7,-1194.18 955.52,-1271.33 965.82,-1283.99 978.94,-1293.65 993.44,-1300.99"/>
<polygon fill="black" stroke="black" points="991.76,-1304.07 1002.31,-1305.08 994.69,-1297.71 991.76,-1304.07"/>
</g>
<!-- RFC6020 -->
<g id="node10" class="node">
<title>RFC6020</title>
<g id="a_node10"><a xlink:href="RFC6020.html" xlink:title="YANG is a data modeling language used to model configuration and state data manipulated by the Network Configuration Protocol (NETCONF), NETCONF remote procedure calls, and NETCONF notifications. [STANDARDS&#45;TRACK]" target="_top">
<ellipse fill="none" stroke="black" cx="1144.49" cy="-1210.33" rx="188.97" ry="52.33"/>
<text xml:space="preserve" text-anchor="middle" x="1144.49" y="-1230.03" font-family="Times,serif" font-size="14.00">RFC6020</text>
<text xml:space="preserve" text-anchor="middle" x="1144.49" y="-1213.53" font-family="Times,serif" font-size="14.00">YANG &#45; A Data Modeling Language for the</text>
<text xml:space="preserve" text-anchor="middle" x="1144.49" y="-1197.03" font-family="Times,serif" font-size="14.00">Network Configuration Protocol (NETCONF)</text>
<text xml:space="preserve" text-anchor="middle" x="1144.49" y="-1180.53" font-family="Times,serif" font-size="14.00">2010</text>
</a>
</g>
</g>
<!-- cites&#45;&gt;RFC6020 -->
<g id="edge9" class="edge">
<title>cites&#45;&gt;RFC6020</title>
<path fill="none" stroke="black" d="M924.39,-815.67C926.79,-818.32 928.92,-821.21 930.52,-824.33 963.6,-888.76 910.71,-1092.41 955.52,-1149.33 962.91,-1158.72 971.78,-1166.69 981.58,-1173.45"/>
<polygon fill="black" stroke="black" points="979.65,-1176.37 989.97,-1178.75 983.39,-1170.45 979.65,-1176.37"/>
</g>
<!-- RFC6241 -->
<g id="node11" class="node">
<title>RFC6241</title>
<g id="a_node11"><a xlink:href="RFC6241.html" xlink:title="The Network Configuration Protocol (NETCONF) defined in this document provides mechanisms to install, manipulate, and delete the configuration of network devices. &#160;It uses an Extensible Markup Language (XML)&#45;based data encoding for the configuration data as well as the protocol messages. &#160;The NETCONF protocol operations are realized as remote procedure calls (RPCs). &#160;This document obsoletes RFC 4741. [STANDARDS&#45;TRACK]" target="_top">
<ellipse fill="none" stroke="black" cx="1144.49" cy="-1099.33" rx="188.97" ry="40.66"/>
<text xml:space="preserve" text-anchor="middle" x="1144.49" y="-1110.78" font-family="Times,serif" font-size="14.00">RFC6241</text>
<text xml:space="preserve" text-anchor="middle" x="1144.49" y="-1094.28" font-family="Times,serif" font-size="14.00">Network Configuration Protocol (NETCONF)</text>
<text xml:space="preserve" text-anchor="middle" x="1144.49" y="-1077.78" font-family="Times,serif" font-size="14.00">2011</text>
</a>
</g>
</g>
<!-- cites&#45;&gt;RFC6241 -->
<g id="edge10" class="edge">
<title>cites&#45;&gt;RFC6241</title>
<path fill="none" stroke="black" d="M924.28,-815.73C926.71,-818.37 928.87,-821.24 930.52,-824.33 954.25,-868.68 922.7,-1011.2 955.52,-1049.33 962.47,-1057.41 970.57,-1064.26 979.43,-1070.05"/>
<polygon fill="black" stroke="black" points="977.64,-1073.06 988.02,-1075.17 981.22,-1067.04 977.64,-1073.06"/>
</g>
<!-- RFC3584 -->
<g id="node12" class="node">
<title>RFC3584</title>
<g id="a_node12"><a xlink:href="RFC3584.html" xlink:title="The purpose of this document is to describe coexistence between version 3 of the Internet&#45;standard Network Management Framework, (SNMPv3), version 2 of the Internet&#45;standard Network Management Framework (SNMPv2), and the original Internet&#45;standard Network Management Framework (SNMPv1). &#160;This document also describes how to convert MIB modules from SMIv1 format to SMIv2 format. &#160;This document obsoletes RFC 2576. &#160;This document specifies an Internet Best Current Practices for the Internet Community, and requests discussion and suggestions for improvements." target="_top">
<ellipse fill="none" stroke="black" cx="1144.49" cy="-976.33" rx="180.49" ry="63.99"/>
<text xml:space="preserve" text-anchor="middle" x="1144.49" y="-1004.28" font-family="Times,serif" font-size="14.00">RFC3584</text>
<text xml:space="preserve" text-anchor="middle" x="1144.49" y="-987.78" font-family="Times,serif" font-size="14.00">Coexistence between Version 1, Version</text>
<text xml:space="preserve" text-anchor="middle" x="1144.49" y="-971.28" font-family="Times,serif" font-size="14.00">2, and Version 3 of the Internet&#45;</text>
<text xml:space="preserve" text-anchor="middle" x="1144.49" y="-954.78" font-family="Times,serif" font-size="14.00">standard Network Management Framework</text>
<text xml:space="preserve" text-anchor="middle" x="1144.49" y="-938.28" font-family="Times,serif" font-size="14.00">2003</text>
</a>
</g>
</g>
<!-- cites&#45;&gt;RFC3584 -->
<g id="edge11" class="edge">
<title>cites&#45;&gt;RFC3584</title>
<path fill="none" stroke="black" d="M923.39,-815.76C926.03,-818.42 928.49,-821.3 930.52,-824.33 950.98,-854.94 930.32,-876.47 955.52,-903.33 965.83,-914.32 977.99,-923.68 991.08,-931.64"/>
<polygon fill="black" stroke="black" points="989.04,-934.51 999.45,-936.45 992.52,-928.44 989.04,-934.51"/>
</g>
<!-- RFC2863 -->
<g id="node13" class="node">
<title>RFC2863</title>
<g id="a_node13"><a xlink:href="RFC2863.html" xlink:title="This memo discusses the &#39;interfaces&#39; group of MIB&#45;II, especially the experience gained from the definition of numerous media&#45;specific MIB modules for use in conjunction with the &#39;interfaces&#39; group for managing various sub&#45;layers beneath the internetwork&#45;layer. &#160;It specifies clarifications to, and extensions of, the architectural issues within the MIB&#45;II model of the &#39;interfaces&#39; group. [STANDARDS&#45;TRACK]" target="_top">
<ellipse fill="none" stroke="black" cx="1144.49" cy="-853.33" rx="114.73" ry="40.66"/>
<text xml:space="preserve" text-anchor="middle" x="1144.49" y="-864.78" font-family="Times,serif" font-size="14.00">RFC2863</text>
<text xml:space="preserve" text-anchor="middle" x="1144.49" y="-848.28" font-family="Times,serif" font-size="14.00">The Interfaces Group MIB</text>
<text xml:space="preserve" text-anchor="middle" x="1144.49" y="-831.78" font-family="Times,serif" font-size="14.00">2000</text>
</a>
</g>
</g>
<!-- cites&#45;&gt;RFC2863 -->
<g id="edge12" class="edge">
<title>cites&#45;&gt;RFC2863</title>
<path fill="none" stroke="black" d="M924.62,-803.32C951.49,-809.46 995.04,-819.41 1036.25,-828.82"/>
<polygon fill="black" stroke="black" points="1035.22,-832.18 1045.75,-830.99 1036.78,-825.35 1035.22,-832.18"/>
</g>
<!-- RFC3289 -->
<g id="node14" class="node">
<title>RFC3289</title>
<g id="a_node14"><a xlink:href="RFC3289.html" xlink:title="This memo describes an SMIv2 (Structure of Management Information version 2) MIB for a device implementing the Differentiated Services Architecture. &#160;It may be used both for monitoring and configuration of a router or switch capable of Differentiated Services functionality. [STANDARDS&#45;TRACK]" target="_top">
<ellipse fill="none" stroke="black" cx="1144.49" cy="-742.33" rx="160.34" ry="52.33"/>
<text xml:space="preserve" text-anchor="middle" x="1144.49" y="-762.03" font-family="Times,serif" font-size="14.00">RFC3289</text>
<text xml:space="preserve" text-anchor="middle" x="1144.49" y="-745.53" font-family="Times,serif" font-size="14.00">Management Information Base for the</text>
<text xml:space="preserve" text-anchor="middle" x="1144.49" y="-729.03" font-family="Times,serif" font-size="14.00">Differentiated Services Architecture</text>
<text xml:space="preserve" text-anchor="middle" x="1144.49" y="-712.53" font-family="Times,serif" font-size="14.00">2002</text>
</a>
</g>
</g>
<!-- cites&#45;&gt;RFC3289 -->
<g id="edge13" class="edge">
<title>cites&#45;&gt;RFC3289</title>
<path fill="none" stroke="black" d="M924.62,-791.44C943.73,-787.15 971.28,-780.97 1000.42,-774.43"/>
<polygon fill="black" stroke="black" points="1001.19,-777.85 1010.18,-772.24 999.65,-771.02 1001.19,-777.85"/>
</g>
<!-- RFC4502 -->
<g id="node15" class="node">
<title>RFC4502</title>
<g id="a_node15"><a xlink:href="RFC4502.html" xlink:title="This document defines a portion of the Management Information Base (MIB) for use with network management protocols in TCP/IP&#45;based internets. In particular, it defines objects for managing remote network monitoring devices. This document obsoletes RFC 2021, updates RFC 3273, and contains a new version of the RMON2&#45;MIB module. [STANDARDS&#45;TRACK]" target="_top">
<ellipse fill="none" stroke="black" cx="1144.49" cy="-619.33" rx="177.84" ry="52.33"/>
<text xml:space="preserve" text-anchor="middle" x="1144.49" y="-639.03" font-family="Times,serif" font-size="14.00">RFC4502</text>
<text xml:space="preserve" text-anchor="middle" x="1144.49" y="-622.53" font-family="Times,serif" font-size="14.00">Remote Network Monitoring Management</text>
<text xml:space="preserve" text-anchor="middle" x="1144.49" y="-606.03" font-family="Times,serif" font-size="14.00">Information Base Version 2</text>
<text xml:space="preserve" text-anchor="middle" x="1144.49" y="-589.53" font-family="Times,serif" font-size="14.00">2006</text>
</a>
</g>
</g>
<!-- cites&#45;&gt;RFC4502 -->
<g id="edge14" class="edge">
<title>cites&#45;&gt;RFC4502</title>
<path fill="none" stroke="black" d="M902.67,-778.89C909.53,-753.39 925.37,-707.55 955.52,-681.33 966.78,-671.53 979.64,-663.27 993.22,-656.31"/>
<polygon fill="black" stroke="black" points="994.39,-659.63 1001.87,-652.13 991.34,-653.33 994.39,-659.63"/>
</g>
<!-- RFC2119 -->
<g id="node16" class="node">
<title>RFC2119</title>
<g id="a_node16"><a xlink:href="RFC2119.html" xlink:title="In many standards track documents several words are used to signify the requirements in the specification. &#160;These words are often capitalized. &#160;This document defines these words as they should be interpreted in IETF documents. &#160;This document specifies an Internet Best Current Practices for the Internet Community, and requests discussion and suggestions for improvements." target="_top">
<ellipse fill="none" stroke="black" cx="1144.49" cy="-496.33" rx="160.34" ry="52.33"/>
<text xml:space="preserve" text-anchor="middle" x="1144.49" y="-516.03" font-family="Times,serif" font-size="14.00">RFC2119</text>
<text xml:space="preserve" text-anchor="middle" x="1144.49" y="-499.53" font-family="Times,serif" font-size="14.00">Key words for use in RFCs to Indicate</text>
<text xml:space="preserve" text-anchor="middle" x="1144.49" y="-483.03" font-family="Times,serif" font-size="14.00">Requirement Levels</text>
<text xml:space="preserve" text-anchor="middle" x="1144.49" y="-466.53" font-family="Times,serif" font-size="14.00">1997</text>
</a>
</g>
</g>
<!-- cites&#45;&gt;RFC2119 -->
<g id="edge15" class="edge">
<title>cites&#45;&gt;RFC2119</title>
<path fill="none" stroke="black" d="M900.45,-779.08C906.45,-729.01 925.42,-591.07 955.52,-558.33 966.96,-545.87 980.96,-535.92 996.1,-527.96"/>
<polygon fill="black" stroke="black" points="997.39,-531.22 1004.83,-523.68 994.31,-524.94 997.39,-531.22"/>
</g>
<!-- RFC6021 -->
<g id="node17" class="node">
<title>RFC6021</title>
<g id="a_node17"><a xlink:href="RFC6021.html" xlink:title="This document introduces a collection of common data types to be used with the YANG data modeling language. [STANDARDS&#45;TRACK]" target="_top">
<ellipse fill="none" stroke="black" cx="1144.49" cy="-385.33" rx="122.68" ry="40.66"/>
<text xml:space="preserve" text-anchor="middle" x="1144.49" y="-396.78" font-family="Times,serif" font-size="14.00">RFC6021</text>
<text xml:space="preserve" text-anchor="middle" x="1144.49" y="-380.28" font-family="Times,serif" font-size="14.00">Common YANG Data Types</text>
<text xml:space="preserve" text-anchor="middle" x="1144.49" y="-363.78" font-family="Times,serif" font-size="14.00">2010</text>
</a>
</g>
</g>
<!-- cites&#45;&gt;RFC6021 -->
<g id="edge16" class="edge">
<title>cites&#45;&gt;RFC6021</title>
<path fill="none" stroke="black" d="M898.72,-779.17C900.31,-713.13 909.08,-486.83 955.52,-435.33 971.23,-417.9 992.27,-406.24 1014.57,-398.52"/>
<polygon fill="black" stroke="black" points="1015.33,-401.95 1023.81,-395.59 1013.22,-395.28 1015.33,-401.95"/>
</g>
<!-- RFC4181 -->
<g id="node18" class="node">
<title>RFC4181</title>
<g id="a_node18"><a xlink:href="RFC4181.html" xlink:title="This memo provides guidelines for authors and reviewers of IETF standards&#45;track specifications containing MIB modules. &#160;Applicable portions may be used as a basis for reviews of other MIB documents. &#160;This document specifies an Internet Best Current Practices for the Internet Community, and requests discussion and suggestions for improvements." target="_top">
<ellipse fill="none" stroke="black" cx="1144.49" cy="-274.33" rx="169.35" ry="52.33"/>
<text xml:space="preserve" text-anchor="middle" x="1144.49" y="-294.03" font-family="Times,serif" font-size="14.00">RFC4181</text>
<text xml:space="preserve" text-anchor="middle" x="1144.49" y="-277.53" font-family="Times,serif" font-size="14.00">Guidelines for Authors and Reviewers of</text>
<text xml:space="preserve" text-anchor="middle" x="1144.49" y="-261.03" font-family="Times,serif" font-size="14.00">MIB Documents</text>
<text xml:space="preserve" text-anchor="middle" x="1144.49" y="-244.53" font-family="Times,serif" font-size="14.00">2005</text>
</a>
</g>
</g>
<!-- cites&#45;&gt;RFC4181 -->
<g id="edge17" class="edge">
<title>cites&#45;&gt;RFC4181</title>
<path fill="none" stroke="black" d="M898.13,-778.97C897.39,-701.8 898.35,-404.59 955.52,-335.33 964.91,-323.94 976.46,-314.66 989.18,-307.09"/>
<polygon fill="black" stroke="black" points="990.7,-310.25 997.78,-302.37 987.33,-304.11 990.7,-310.25"/>
</g>
<!-- RFC3688 -->
<g id="node19" class="node">
<title>RFC3688</title>
<g id="a_node19"><a xlink:href="RFC3688.html" xlink:title="This document describes an IANA maintained registry for IETF standards which use Extensible Markup Language (XML) related items such as Namespaces, Document Type Declarations (DTDs), Schemas, and Resource Description Framework (RDF) Schemas." target="_top">
<ellipse fill="none" stroke="black" cx="1144.49" cy="-163.33" rx="107.83" ry="40.66"/>
<text xml:space="preserve" text-anchor="middle" x="1144.49" y="-174.78" font-family="Times,serif" font-size="14.00">RFC3688</text>
<text xml:space="preserve" text-anchor="middle" x="1144.49" y="-158.28" font-family="Times,serif" font-size="14.00">The IETF XML Registry</text>
<text xml:space="preserve" text-anchor="middle" x="1144.49" y="-141.78" font-family="Times,serif" font-size="14.00">2004</text>
</a>
</g>
</g>
<!-- cites&#45;&gt;RFC3688 -->
<g id="edge18" class="edge">
<title>cites&#45;&gt;RFC3688</title>
<path fill="none" stroke="black" d="M898.96,-778.87C902.05,-684.37 918.01,-257.49 955.52,-213.33 973.58,-192.06 999.56,-179.32 1026.47,-171.8"/>
<polygon fill="black" stroke="black" points="1027.32,-175.2 1036.16,-169.36 1025.6,-168.41 1027.32,-175.2"/>
</g>
<!-- RFC6536 -->
<g id="node20" class="node">
<title>RFC6536</title>
<g id="a_node20"><a xlink:href="RFC6536.html" xlink:title="The standardization of network configuration interfaces for use with the Network Configuration Protocol (NETCONF) requires a structured and secure operating environment that promotes human usability and multi&#45;vendor interoperability. &#160;There is a need for standard mechanisms to restrict NETCONF protocol access for particular users to a pre&#45;configured subset of all available NETCONF protocol operations and content. &#160;This document defines such an access control model. [STANDARDS&#45;TRACK]" target="_top">
<ellipse fill="none" stroke="black" cx="1144.49" cy="-52.33" rx="188.97" ry="52.33"/>
<text xml:space="preserve" text-anchor="middle" x="1144.49" y="-72.03" font-family="Times,serif" font-size="14.00">RFC6536</text>
<text xml:space="preserve" text-anchor="middle" x="1144.49" y="-55.53" font-family="Times,serif" font-size="14.00">Network Configuration Protocol (NETCONF)</text>
<text xml:space="preserve" text-anchor="middle" x="1144.49" y="-39.03" font-family="Times,serif" font-size="14.00">Access Control Model</text>
<text xml:space="preserve" text-anchor="middle" x="1144.49" y="-22.53" font-family="Times,serif" font-size="14.00">2012</text>
</a>
</g>
</g>
<!-- cites&#45;&gt;RFC6536 -->
<g id="edge19" class="edge">
<title>cites&#45;&gt;RFC6536</title>
<path fill="none" stroke="black" d="M898.73,-778.92C900.79,-675.24 913,-166.97 955.52,-113.33 962.95,-103.95 971.84,-96 981.65,-89.26"/>
<polygon fill="black" stroke="black" points="983.46,-92.26 990.05,-83.96 979.73,-86.33 983.46,-92.26"/>
</g>
<!-- rev_cites -->
<g id="node21" class="node">
<title>rev_cites</title>
<polygon fill="none" stroke="black" points="473.68,-815.33 419.68,-815.33 419.68,-779.33 473.68,-779.33 473.68,-815.33"/>
<text xml:space="preserve" text-anchor="middle" x="446.68" y="-792.28" font-family="Times,serif" font-size="14.00">cites</text>
</g>
<!-- rev_cites&#45;&gt;RFC6643 -->
<g id="edge20" class="edge">
<title>rev_cites&#45;&gt;RFC6643</title>
<path fill="none" stroke="black" d="M474.18,-803.73C486.43,-806.69 502.04,-810.47 519.1,-814.59"/>
<polygon fill="black" stroke="black" points="517.88,-817.9 528.43,-816.85 519.53,-811.1 517.88,-817.9"/>
</g>
<!-- RFC7407 -->
<g id="node22" class="node">
<title>RFC7407</title>
<g id="a_node22"><a xlink:href="RFC7407.html" xlink:title="This document defines a collection of YANG definitions for configuring SNMP engines." target="_top">
<ellipse fill="none" stroke="black" cx="194.28" cy="-896.33" rx="194.28" ry="40.66"/>
<text xml:space="preserve" text-anchor="middle" x="194.28" y="-907.78" font-family="Times,serif" font-size="14.00">RFC7407</text>
<text xml:space="preserve" text-anchor="middle" x="194.28" y="-891.28" font-family="Times,serif" font-size="14.00">A YANG Data Model for SNMP Configuration</text>
<text xml:space="preserve" text-anchor="middle" x="194.28" y="-874.78" font-family="Times,serif" font-size="14.00">2014</text>
</a>
</g>
</g>
<!-- RFC7407&#45;&gt;rev_cites -->
<g id="edge21" class="edge">
<title>RFC7407&#45;&gt;rev_cites</title>
<path fill="none" stroke="black" d="M338.22,-868.72C355.68,-862.86 372.88,-855.81 388.56,-847.33 401.83,-840.14 402.22,-834.3 413.56,-824.33 413.95,-823.98 414.35,-823.63 414.75,-823.27"/>
<polygon fill="black" stroke="black" points="417.01,-825.95 422.3,-816.78 412.44,-820.65 417.01,-825.95"/>
</g>
<!-- RFC7950 -->
<g id="node23" class="node">
<title>RFC7950</title>
<g id="a_node23"><a xlink:href="RFC7950.html" xlink:title="YANG is a data modeling language used to model configuration data, state data, Remote Procedure Calls, and notifications for network management protocols. &#160;This document describes the syntax and semantics of version 1.1 of the YANG language. &#160;YANG version 1.1 is a maintenance release of the YANG language, addressing ambiguities and defects in the original specification. &#160;There are a small number of backward incompatibilities from YANG version 1. &#160;This document also specifies the YANG mappings to the Network Configuration Protocol (NETCONF)." target="_top">
<ellipse fill="none" stroke="black" cx="194.28" cy="-797.33" rx="170.94" ry="40.66"/>
<text xml:space="preserve" text-anchor="middle" x="194.28" y="-808.78" font-family="Times,serif" font-size="14.00">RFC7950</text>
<text xml:space="preserve" text-anchor="middle" x="194.28" y="-792.28" font-family="Times,serif" font-size="14.00">The YANG 1.1 Data Modeling Language</text>
<text xml:space="preserve" text-anchor="middle" x="194.28" y="-775.78" font-family="Times,serif" font-size="14.00">2016</text>
</a>
</g>
</g>
<!-- RFC7950&#45;&gt;rev_cites -->
<g id="edge22" class="edge">
<title>RFC7950&#45;&gt;rev_cites</title>
<path fill="none" stroke="black" d="M365.42,-797.33C381.22,-797.33 395.93,-797.33 408.32,-797.33"/>
<polygon fill="black" stroke="black" points="407.94,-800.83 417.94,-797.33 407.94,-793.83 407.94,-800.83"/>
</g>
<!-- RFC9648 -->
<g id="node24" class="node">
<title>RFC9648</title>
<g id="a_node24"><a xlink:href="RFC9648.html" xlink:title="This document specifies a minimal YANG data model for TCP on devices that are configured and managed by network management protocols. &#160;The YANG data model defines a container for all TCP connections and groupings of authentication parameters that can be imported and used in TCP implementations or by other models that need to configure TCP parameters. &#160;The model also includes basic TCP statistics. &#160;The model is compliant with Network Management Datastore Architecture (NMDA) (RFC 8342)." target="_top">
<ellipse fill="none" stroke="black" cx="194.28" cy="-698.33" rx="120.03" ry="40.66"/>
<text xml:space="preserve" text-anchor="middle" x="194.28" y="-709.78" font-family="Times,serif" font-size="14.00">RFC9648</text>
<text xml:space="preserve" text-anchor="middle" x="194.28" y="-693.28" font-family="Times,serif" font-size="14.00">YANG Data Model for TCP</text>
<text xml:space="preserve" text-anchor="middle" x="194.28" y="-676.78" font-family="Times,serif" font-size="14.00">2024</text>
</a>
</g>
</g>
<!-- RFC9648&#45;&gt;rev_cites -->
<g id="edge23" class="edge">
<title>RFC9648&#45;&gt;rev_cites</title>
<path fill="none" stroke="black" d="M302.91,-716.14C331.74,-723.41 362.2,-733.48 388.56,-747.33 400.35,-753.52 411.73,-762.62 421.19,-771.36"/>
<polygon fill="black" stroke="black" points="418.59,-773.71 428.21,-778.14 423.45,-768.67 418.59,-773.71"/>
</g>
</g>
</svg>
