<?xml version="1.0" encoding="UTF-8" standalone="no"?>
<!DOCTYPE svg PUBLIC "-//W3C//DTD SVG 1.1//EN"
 "http://www.w3.org/Graphics/SVG/1.1/DTD/svg11.dtd">
<!-- Generated by graphviz version 14.1.1 (20251213.1925)
 -->
<!-- Title: Flow Pages: 1 -->
<svg width="1028pt" height="2197pt"
 viewBox="0.00 0.00 1028.00 2197.00" xmlns="http://www.w3.org/2000/svg" xmlns:xlink="http://www.w3.org/1999/xlink">
<g id="graph0" class="graph" transform="scale(1 1) rotate(0) translate(4 2192.59)">
<title>Flow</title>
<polygon fill="white" stroke="none" points="-4,4 -4,-2192.59 1024.12,-2192.59 1024.12,4 -4,4"/>
<!-- RFC6742 -->
<g id="node1" class="node">
<title>RFC6742</title>
<g id="a_node1"><a xlink:title="This note describes additional optional resource records for use with the Domain Name System (DNS). &#160;These optional resource records are for use with the Identifier&#45;Locator Network Protocol (ILNP). &#160;This document is a product of the IRTF Routing Research Group. &#160;This document defines an Experimental Protocol for the Internet community.">
<ellipse fill="green" stroke="black" cx="263.25" cy="-1096.27" rx="172" ry="52.33"/>
<text xml:space="preserve" text-anchor="middle" x="263.25" y="-1115.97" font-family="Times,serif" font-size="14.00">RFC6742</text>
<text xml:space="preserve" text-anchor="middle" x="263.25" y="-1099.47" font-family="Times,serif" font-size="14.00">DNS Resource Records for the Identifier&#45;</text>
<text xml:space="preserve" text-anchor="middle" x="263.25" y="-1082.97" font-family="Times,serif" font-size="14.00">Locator Network Protocol (ILNP)</text>
<text xml:space="preserve" text-anchor="middle" x="263.25" y="-1066.47" font-family="Times,serif" font-size="14.00">2012</text>
</a>
</g>
</g>
<!-- obs -->
<g id="node3" class="node">
<title>obs</title>
<polygon fill="lightblue" stroke="black" points="526.51,-1195.27 460.26,-1195.27 460.26,-1159.27 526.51,-1159.27 526.51,-1195.27"/>
<text xml:space="preserve" text-anchor="middle" x="493.38" y="-1172.22" font-family="Times,serif" font-size="14.00">obsoletes</text>
</g>
<!-- RFC6742&#45;&gt;obs -->
<g id="edge2" class="edge">
<title>RFC6742&#45;&gt;obs</title>
<path fill="none" stroke="black" d="M376.31,-1136.05C402.29,-1145.28 428.41,-1154.55 449.28,-1161.96"/>
<polygon fill="black" stroke="black" points="447.96,-1165.21 458.56,-1165.26 450.31,-1158.61 447.96,-1165.21"/>
</g>
<!-- updates -->
<g id="node4" class="node">
<title>updates</title>
<polygon fill="lightyellow" stroke="black" points="522.01,-1141.27 464.76,-1141.27 464.76,-1105.27 522.01,-1105.27 522.01,-1141.27"/>
<text xml:space="preserve" text-anchor="middle" x="493.38" y="-1118.22" font-family="Times,serif" font-size="14.00">updates</text>
</g>
<!-- RFC6742&#45;&gt;updates -->
<g id="edge3" class="edge">
<title>RFC6742&#45;&gt;updates</title>
<path fill="none" stroke="black" d="M424.25,-1115.2C434.6,-1116.43 444.36,-1117.58 453.07,-1118.61"/>
<polygon fill="black" stroke="black" points="452.42,-1122.06 462.76,-1119.76 453.24,-1115.11 452.42,-1122.06"/>
</g>
<!-- cites -->
<g id="node6" class="node">
<title>cites</title>
<polygon fill="lightblue" stroke="black" points="520.38,-1087.27 466.38,-1087.27 466.38,-1051.27 520.38,-1051.27 520.38,-1087.27"/>
<text xml:space="preserve" text-anchor="middle" x="493.38" y="-1064.22" font-family="Times,serif" font-size="14.00">cites</text>
</g>
<!-- RFC6742&#45;&gt;cites -->
<g id="edge5" class="edge">
<title>RFC6742&#45;&gt;cites</title>
<path fill="none" stroke="black" d="M424.25,-1077.33C435.24,-1076.03 445.55,-1074.81 454.66,-1073.73"/>
<polygon fill="black" stroke="black" points="454.88,-1077.23 464.4,-1072.58 454.06,-1070.28 454.88,-1077.23"/>
</g>
<!-- obs_by -->
<g id="node2" class="node">
<title>obs_by</title>
<polygon fill="lightblue" stroke="black" points="66.25,-1141.27 0,-1141.27 0,-1105.27 66.25,-1105.27 66.25,-1141.27"/>
<text xml:space="preserve" text-anchor="middle" x="33.12" y="-1118.22" font-family="Times,serif" font-size="14.00">obsoletes</text>
</g>
<!-- obs_by&#45;&gt;RFC6742 -->
<g id="edge1" class="edge">
<title>obs_by&#45;&gt;RFC6742</title>
<path fill="none" stroke="black" d="M66.33,-1119.46C73.75,-1118.58 82.15,-1117.58 91.19,-1116.51"/>
<polygon fill="black" stroke="black" points="91.49,-1120 101.01,-1115.35 90.67,-1113.05 91.49,-1120"/>
</g>
<!-- updated_by -->
<g id="node5" class="node">
<title>updated_by</title>
<polygon fill="lightyellow" stroke="black" points="61.75,-1087.27 4.5,-1087.27 4.5,-1051.27 61.75,-1051.27 61.75,-1087.27"/>
<text xml:space="preserve" text-anchor="middle" x="33.12" y="-1064.22" font-family="Times,serif" font-size="14.00">updates</text>
</g>
<!-- updated_by&#45;&gt;RFC6742 -->
<g id="edge4" class="edge">
<title>updated_by&#45;&gt;RFC6742</title>
<path fill="none" stroke="black" d="M62.1,-1072.58C70.4,-1073.56 80.15,-1074.71 90.81,-1075.98"/>
<polygon fill="black" stroke="black" points="90.38,-1079.45 100.72,-1077.15 91.2,-1072.5 90.38,-1079.45"/>
</g>
<!-- RFC4984 -->
<g id="node7" class="node">
<title>RFC4984</title>
<g id="a_node7"><a xlink:href="RFC4984.html" xlink:title="This document reports the outcome of the Routing and Addressing Workshop that was held by the Internet Architecture Board (IAB) on October 18&#45;19, 2006, in Amsterdam, Netherlands. The primary goal of the workshop was to develop a shared understanding of the problems that the large backbone operators are facing regarding the scalability of today&#39;s Internet routing system. The key workshop findings include an analysis of the major factors that are driving routing table growth, constraints in router technology, and the limitations of today&#39;s Internet addressing architecture. It is hoped that these findings will serve as input to the IETF community and help identify next steps towards effective solutions. Note that this document is a report on the proceedings of the workshop. The views and positions documented in this report are those of the workshop participants and not of the IAB. Furthermore, note that work on issues related to this workshop report is continuing, and this document does not intend to reflect the increased understanding of issues nor to discuss the range of potential solutions that may be the outcome of this ongoing work. This memo provides information for the Internet community." target="_top">
<ellipse fill="none" stroke="black" cx="746.32" cy="-2136.27" rx="179.96" ry="52.33"/>
<text xml:space="preserve" text-anchor="middle" x="746.32" y="-2155.97" font-family="Times,serif" font-size="14.00">RFC4984</text>
<text xml:space="preserve" text-anchor="middle" x="746.32" y="-2139.47" font-family="Times,serif" font-size="14.00">Report from the IAB Workshop on Routing</text>
<text xml:space="preserve" text-anchor="middle" x="746.32" y="-2122.97" font-family="Times,serif" font-size="14.00">and Addressing</text>
<text xml:space="preserve" text-anchor="middle" x="746.32" y="-2106.47" font-family="Times,serif" font-size="14.00">2007</text>
</a>
</g>
</g>
<!-- cites&#45;&gt;RFC4984 -->
<g id="edge6" class="edge">
<title>cites&#45;&gt;RFC4984</title>
<path fill="none" stroke="black" d="M520.54,-1087.53C522.91,-1090.2 524.99,-1093.12 526.51,-1096.27 550.09,-1145.24 518.9,-2030.78 551.51,-2074.27 560.12,-2085.75 570.88,-2095.15 582.89,-2102.84"/>
<polygon fill="black" stroke="black" points="581.08,-2105.84 591.47,-2107.88 584.62,-2099.8 581.08,-2105.84"/>
</g>
<!-- RFC6740 -->
<g id="node8" class="node">
<title>RFC6740</title>
<g id="a_node8"><a xlink:href="RFC6740.html" xlink:title="This document provides an architectural description and the concept of operations for the Identifier&#45;Locator Network Protocol (ILNP), which is an experimental, evolutionary enhancement to IP. &#160;This is a product of the IRTF Routing Research Group. &#160;This document defines an Experimental Protocol for the Internet community." target="_top">
<ellipse fill="none" stroke="black" cx="746.32" cy="-2013.27" rx="150.79" ry="52.33"/>
<text xml:space="preserve" text-anchor="middle" x="746.32" y="-2032.97" font-family="Times,serif" font-size="14.00">RFC6740</text>
<text xml:space="preserve" text-anchor="middle" x="746.32" y="-2016.47" font-family="Times,serif" font-size="14.00">Identifier&#45;Locator Network Protocol</text>
<text xml:space="preserve" text-anchor="middle" x="746.32" y="-1999.97" font-family="Times,serif" font-size="14.00">(ILNP) Architectural Description</text>
<text xml:space="preserve" text-anchor="middle" x="746.32" y="-1983.47" font-family="Times,serif" font-size="14.00">2012</text>
</a>
</g>
</g>
<!-- cites&#45;&gt;RFC6740 -->
<g id="edge7" class="edge">
<title>cites&#45;&gt;RFC6740</title>
<path fill="none" stroke="black" d="M520.53,-1087.54C522.9,-1090.2 524.98,-1093.12 526.51,-1096.27 567.89,-1181.82 494.35,-1875.33 551.51,-1951.27 563.52,-1967.22 579.67,-1979.15 597.56,-1988.06"/>
<polygon fill="black" stroke="black" points="595.74,-1991.08 606.28,-1992.07 598.66,-1984.72 595.74,-1991.08"/>
</g>
<!-- RFC6741 -->
<g id="node9" class="node">
<title>RFC6741</title>
<g id="a_node9"><a xlink:href="RFC6741.html" xlink:title="This document describes common (i.e., version independent) engineering details for the Identifier&#45;Locator Network Protocol (ILNP), which is an experimental, evolutionary enhancement to IP. &#160;This document is a product of the IRTF Routing Research Group. &#160;This document defines an Experimental Protocol for the Internet community." target="_top">
<ellipse fill="none" stroke="black" cx="746.32" cy="-1890.27" rx="150.79" ry="52.33"/>
<text xml:space="preserve" text-anchor="middle" x="746.32" y="-1909.97" font-family="Times,serif" font-size="14.00">RFC6741</text>
<text xml:space="preserve" text-anchor="middle" x="746.32" y="-1893.47" font-family="Times,serif" font-size="14.00">Identifier&#45;Locator Network Protocol</text>
<text xml:space="preserve" text-anchor="middle" x="746.32" y="-1876.97" font-family="Times,serif" font-size="14.00">(ILNP) Engineering Considerations</text>
<text xml:space="preserve" text-anchor="middle" x="746.32" y="-1860.47" font-family="Times,serif" font-size="14.00">2012</text>
</a>
</g>
</g>
<!-- cites&#45;&gt;RFC6741 -->
<g id="edge8" class="edge">
<title>cites&#45;&gt;RFC6741</title>
<path fill="none" stroke="black" d="M520.51,-1087.55C522.89,-1090.21 524.98,-1093.12 526.51,-1096.27 562.17,-1169.54 502.19,-1764.39 551.51,-1829.27 563.29,-1844.76 578.99,-1856.41 596.38,-1865.15"/>
<polygon fill="black" stroke="black" points="594.87,-1868.31 605.42,-1869.33 597.81,-1861.96 594.87,-1868.31"/>
</g>
<!-- RFC1034 -->
<g id="node10" class="node">
<title>RFC1034</title>
<g id="a_node10"><a xlink:href="RFC1034.html" xlink:title="This RFC is the revised basic definition of The Domain Name System. &#160;It obsoletes RFC&#45;882. &#160;This memo describes the domain style names and their used for host address look up and electronic mail forwarding. &#160;It discusses the clients and servers in the domain name system and the protocol used between them." target="_top">
<ellipse fill="none" stroke="black" cx="746.32" cy="-1779.27" rx="164.05" ry="40.66"/>
<text xml:space="preserve" text-anchor="middle" x="746.32" y="-1790.72" font-family="Times,serif" font-size="14.00">RFC1034</text>
<text xml:space="preserve" text-anchor="middle" x="746.32" y="-1774.22" font-family="Times,serif" font-size="14.00">Domain names &#45; concepts and facilities</text>
<text xml:space="preserve" text-anchor="middle" x="746.32" y="-1757.72" font-family="Times,serif" font-size="14.00">1987</text>
</a>
</g>
</g>
<!-- cites&#45;&gt;RFC1034 -->
<g id="edge9" class="edge">
<title>cites&#45;&gt;RFC1034</title>
<path fill="none" stroke="black" d="M520.5,-1087.56C522.88,-1090.21 524.97,-1093.13 526.51,-1096.27 557.48,-1159.47 507.31,-1674.49 551.51,-1729.27 560.98,-1741.01 572.82,-1750.21 585.95,-1757.39"/>
<polygon fill="black" stroke="black" points="584.35,-1760.5 594.87,-1761.82 587.47,-1754.24 584.35,-1760.5"/>
</g>
<!-- RFC1035 -->
<g id="node11" class="node">
<title>RFC1035</title>
<g id="a_node11"><a xlink:href="RFC1035.html" xlink:title="This RFC is the revised specification of the protocol and format used in the implementation of the Domain Name System. &#160;It obsoletes RFC&#45;883. &#160;This memo documents the details of the domain name client &#45; server communication." target="_top">
<ellipse fill="none" stroke="black" cx="746.32" cy="-1668.27" rx="156.09" ry="52.33"/>
<text xml:space="preserve" text-anchor="middle" x="746.32" y="-1687.97" font-family="Times,serif" font-size="14.00">RFC1035</text>
<text xml:space="preserve" text-anchor="middle" x="746.32" y="-1671.47" font-family="Times,serif" font-size="14.00">Domain names &#45; implementation and</text>
<text xml:space="preserve" text-anchor="middle" x="746.32" y="-1654.97" font-family="Times,serif" font-size="14.00">specification</text>
<text xml:space="preserve" text-anchor="middle" x="746.32" y="-1638.47" font-family="Times,serif" font-size="14.00">1987</text>
</a>
</g>
</g>
<!-- cites&#45;&gt;RFC1035 -->
<g id="edge10" class="edge">
<title>cites&#45;&gt;RFC1035</title>
<path fill="none" stroke="black" d="M520.47,-1087.57C522.85,-1090.23 524.95,-1093.13 526.51,-1096.27 551.72,-1147.09 516.94,-1561.28 551.51,-1606.27 562.93,-1621.14 577.95,-1632.51 594.58,-1641.19"/>
<polygon fill="black" stroke="black" points="592.66,-1644.14 603.18,-1645.34 595.7,-1637.84 592.66,-1644.14"/>
</g>
<!-- RFC4033 -->
<g id="node12" class="node">
<title>RFC4033</title>
<g id="a_node12"><a xlink:href="RFC4033.html" xlink:title="The Domain Name System Security Extensions (DNSSEC) add data origin authentication and data integrity to the Domain Name System. &#160;This document introduces these extensions and describes their capabilities and limitations. &#160;This document also discusses the services that the DNS security extensions do and do not provide. &#160;Last, this document describes the interrelationships between the documents that collectively describe DNSSEC. [STANDARDS&#45;TRACK]" target="_top">
<ellipse fill="none" stroke="black" cx="746.32" cy="-1545.27" rx="131.17" ry="52.33"/>
<text xml:space="preserve" text-anchor="middle" x="746.32" y="-1564.97" font-family="Times,serif" font-size="14.00">RFC4033</text>
<text xml:space="preserve" text-anchor="middle" x="746.32" y="-1548.47" font-family="Times,serif" font-size="14.00">DNS Security Introduction and</text>
<text xml:space="preserve" text-anchor="middle" x="746.32" y="-1531.97" font-family="Times,serif" font-size="14.00">Requirements</text>
<text xml:space="preserve" text-anchor="middle" x="746.32" y="-1515.47" font-family="Times,serif" font-size="14.00">2005</text>
</a>
</g>
</g>
<!-- cites&#45;&gt;RFC4033 -->
<g id="edge11" class="edge">
<title>cites&#45;&gt;RFC4033</title>
<path fill="none" stroke="black" d="M520.42,-1087.59C522.81,-1090.25 524.93,-1093.15 526.51,-1096.27 565.4,-1173.17 498.48,-1415.34 551.51,-1483.27 566.59,-1502.58 587.73,-1515.99 610.54,-1525.26"/>
<polygon fill="black" stroke="black" points="609.11,-1528.46 619.7,-1528.7 611.57,-1521.91 609.11,-1528.46"/>
</g>
<!-- RFC3007 -->
<g id="node13" class="node">
<title>RFC3007</title>
<g id="a_node13"><a xlink:href="RFC3007.html" xlink:title="This document proposes a method for performing secure Domain Name System (DNS) dynamic updates. [STANDARDS&#45;TRACK]" target="_top">
<ellipse fill="none" stroke="black" cx="746.32" cy="-1422.27" rx="194.81" ry="52.33"/>
<text xml:space="preserve" text-anchor="middle" x="746.32" y="-1441.97" font-family="Times,serif" font-size="14.00">RFC3007</text>
<text xml:space="preserve" text-anchor="middle" x="746.32" y="-1425.47" font-family="Times,serif" font-size="14.00">Secure Domain Name System (DNS) Dynamic</text>
<text xml:space="preserve" text-anchor="middle" x="746.32" y="-1408.97" font-family="Times,serif" font-size="14.00">Update</text>
<text xml:space="preserve" text-anchor="middle" x="746.32" y="-1392.47" font-family="Times,serif" font-size="14.00">2000</text>
</a>
</g>
</g>
<!-- cites&#45;&gt;RFC3007 -->
<g id="edge12" class="edge">
<title>cites&#45;&gt;RFC3007</title>
<path fill="none" stroke="black" d="M520.33,-1087.64C522.74,-1090.28 524.88,-1093.17 526.51,-1096.27 553.98,-1148.65 514.32,-1315.27 551.51,-1361.27 559.23,-1370.82 568.45,-1378.91 578.6,-1385.74"/>
<polygon fill="black" stroke="black" points="576.54,-1388.58 586.88,-1390.88 580.23,-1382.63 576.54,-1388.58"/>
</g>
<!-- RFC6743 -->
<g id="node14" class="node">
<title>RFC6743</title>
<g id="a_node14"><a xlink:href="RFC6743.html" xlink:title="This note specifies an experimental ICMPv6 message type used with the Identifier&#45;Locator Network Protocol (ILNP). &#160;The Identifier&#45;Locator Network Protocol (ILNP) is an experimental, evolutionary enhancement to IP. &#160;This message is used to dynamically update Identifier/Locator bindings for an existing ILNP session. &#160;This is a product of the IRTF Routing Research Group. &#160;This document defines an Experimental Protocol for the Internet community." target="_top">
<ellipse fill="none" stroke="black" cx="746.32" cy="-1288.27" rx="164.58" ry="63.99"/>
<text xml:space="preserve" text-anchor="middle" x="746.32" y="-1316.22" font-family="Times,serif" font-size="14.00">RFC6743</text>
<text xml:space="preserve" text-anchor="middle" x="746.32" y="-1299.72" font-family="Times,serif" font-size="14.00">ICMP Locator Update Message for the</text>
<text xml:space="preserve" text-anchor="middle" x="746.32" y="-1283.22" font-family="Times,serif" font-size="14.00">Identifier&#45;Locator Network Protocol for</text>
<text xml:space="preserve" text-anchor="middle" x="746.32" y="-1266.72" font-family="Times,serif" font-size="14.00">IPv6 (ILNPv6)</text>
<text xml:space="preserve" text-anchor="middle" x="746.32" y="-1250.22" font-family="Times,serif" font-size="14.00">2012</text>
</a>
</g>
</g>
<!-- cites&#45;&gt;RFC6743 -->
<g id="edge13" class="edge">
<title>cites&#45;&gt;RFC6743</title>
<path fill="none" stroke="black" d="M519.67,-1087.51C522.27,-1090.21 524.64,-1093.14 526.51,-1096.27 554.27,-1142.63 516.33,-1174.24 551.51,-1215.27 563.64,-1229.41 578.8,-1240.82 595.27,-1250.03"/>
<polygon fill="black" stroke="black" points="593.28,-1252.94 603.76,-1254.49 596.54,-1246.74 593.28,-1252.94"/>
</g>
<!-- RFC6744 -->
<g id="node15" class="node">
<title>RFC6744</title>
<g id="a_node15"><a xlink:href="RFC6744.html" xlink:title="The Identifier&#45;Locator Network Protocol (ILNP) is an experimental, evolutionary enhancement to IP. &#160;ILNP has multiple instantiations. &#160;This document describes an experimental Nonce Destination Option used only with ILNP for IPv6 (ILNPv6). &#160;This document is a product of the IRTF Routing Research Group. &#160;This document defines an Experimental Protocol for the Internet community." target="_top">
<ellipse fill="none" stroke="black" cx="746.32" cy="-1142.27" rx="164.58" ry="63.99"/>
<text xml:space="preserve" text-anchor="middle" x="746.32" y="-1170.22" font-family="Times,serif" font-size="14.00">RFC6744</text>
<text xml:space="preserve" text-anchor="middle" x="746.32" y="-1153.72" font-family="Times,serif" font-size="14.00">IPv6 Nonce Destination Option for the</text>
<text xml:space="preserve" text-anchor="middle" x="746.32" y="-1137.22" font-family="Times,serif" font-size="14.00">Identifier&#45;Locator Network Protocol for</text>
<text xml:space="preserve" text-anchor="middle" x="746.32" y="-1120.72" font-family="Times,serif" font-size="14.00">IPv6 (ILNPv6)</text>
<text xml:space="preserve" text-anchor="middle" x="746.32" y="-1104.22" font-family="Times,serif" font-size="14.00">2012</text>
</a>
</g>
</g>
<!-- cites&#45;&gt;RFC6744 -->
<g id="edge14" class="edge">
<title>cites&#45;&gt;RFC6744</title>
<path fill="none" stroke="black" d="M520.76,-1076.94C541.22,-1082.89 571.34,-1091.65 602.92,-1100.84"/>
<polygon fill="black" stroke="black" points="601.63,-1104.11 612.21,-1103.54 603.59,-1097.39 601.63,-1104.11"/>
</g>
<!-- RFC6745 -->
<g id="node16" class="node">
<title>RFC6745</title>
<g id="a_node16"><a xlink:href="RFC6745.html" xlink:title="This note defines an experimental ICMP message type for IPv4 used with the Identifier&#45;Locator Network Protocol (ILNP). &#160;ILNP is an experimental, evolutionary enhancement to IP. &#160;The ICMP message defined herein is used to dynamically update Identifier/Locator bindings for an existing ILNP session. &#160;This is a product of the IRTF Routing Research Group. &#160;This document defines an Experimental Protocol for the Internet community." target="_top">
<ellipse fill="none" stroke="black" cx="746.32" cy="-996.27" rx="164.58" ry="63.99"/>
<text xml:space="preserve" text-anchor="middle" x="746.32" y="-1024.22" font-family="Times,serif" font-size="14.00">RFC6745</text>
<text xml:space="preserve" text-anchor="middle" x="746.32" y="-1007.72" font-family="Times,serif" font-size="14.00">ICMP Locator Update Message for the</text>
<text xml:space="preserve" text-anchor="middle" x="746.32" y="-991.22" font-family="Times,serif" font-size="14.00">Identifier&#45;Locator Network Protocol for</text>
<text xml:space="preserve" text-anchor="middle" x="746.32" y="-974.72" font-family="Times,serif" font-size="14.00">IPv4 (ILNPv4)</text>
<text xml:space="preserve" text-anchor="middle" x="746.32" y="-958.22" font-family="Times,serif" font-size="14.00">2012</text>
</a>
</g>
</g>
<!-- cites&#45;&gt;RFC6745 -->
<g id="edge15" class="edge">
<title>cites&#45;&gt;RFC6745</title>
<path fill="none" stroke="black" d="M520.76,-1061.59C541.22,-1055.64 571.34,-1046.88 602.92,-1037.69"/>
<polygon fill="black" stroke="black" points="603.59,-1041.14 612.21,-1034.99 601.63,-1034.42 603.59,-1041.14"/>
</g>
<!-- RFC6746 -->
<g id="node17" class="node">
<title>RFC6746</title>
<g id="a_node17"><a xlink:href="RFC6746.html" xlink:title="This document defines two new IPv4 Options that are used only with the Identifier&#45;Locator Network Protocol for IPv4 (ILNPv4). &#160;ILNP is an experimental, evolutionary enhancement to IP. &#160;This document is a product of the IRTF Routing Research Group. &#160;This document defines an Experimental Protocol for the Internet community." target="_top">
<ellipse fill="none" stroke="black" cx="746.32" cy="-862.27" rx="161.4" ry="52.33"/>
<text xml:space="preserve" text-anchor="middle" x="746.32" y="-881.97" font-family="Times,serif" font-size="14.00">RFC6746</text>
<text xml:space="preserve" text-anchor="middle" x="746.32" y="-865.47" font-family="Times,serif" font-size="14.00">IPv4 Options for the Identifier&#45;Locator</text>
<text xml:space="preserve" text-anchor="middle" x="746.32" y="-848.97" font-family="Times,serif" font-size="14.00">Network Protocol (ILNP)</text>
<text xml:space="preserve" text-anchor="middle" x="746.32" y="-832.47" font-family="Times,serif" font-size="14.00">2012</text>
</a>
</g>
</g>
<!-- cites&#45;&gt;RFC6746 -->
<g id="edge16" class="edge">
<title>cites&#45;&gt;RFC6746</title>
<path fill="none" stroke="black" d="M496.42,-1051.23C500.83,-1020.56 514.11,-958.2 551.51,-923.27 564.53,-911.1 579.96,-901.36 596.34,-893.57"/>
<polygon fill="black" stroke="black" points="597.56,-896.85 605.26,-889.58 594.71,-890.46 597.56,-896.85"/>
</g>
<!-- RFC6747 -->
<g id="node18" class="node">
<title>RFC6747</title>
<g id="a_node18"><a xlink:href="RFC6747.html" xlink:title="This document defines an Address Resolution Protocol (ARP) extension to support the Identifier&#45;Locator Network Protocol for IPv4 (ILNPv4). &#160;ILNP is an experimental, evolutionary enhancement to IP. &#160;This document is a product of the IRTF Routing Research Group. &#160;This document defines an Experimental Protocol for the Internet community." target="_top">
<ellipse fill="none" stroke="black" cx="746.32" cy="-728.27" rx="165.11" ry="63.99"/>
<text xml:space="preserve" text-anchor="middle" x="746.32" y="-756.22" font-family="Times,serif" font-size="14.00">RFC6747</text>
<text xml:space="preserve" text-anchor="middle" x="746.32" y="-739.72" font-family="Times,serif" font-size="14.00">Address Resolution Protocol (ARP) for</text>
<text xml:space="preserve" text-anchor="middle" x="746.32" y="-723.22" font-family="Times,serif" font-size="14.00">the Identifier&#45;Locator Network Protocol</text>
<text xml:space="preserve" text-anchor="middle" x="746.32" y="-706.72" font-family="Times,serif" font-size="14.00">for IPv4 (ILNPv4)</text>
<text xml:space="preserve" text-anchor="middle" x="746.32" y="-690.22" font-family="Times,serif" font-size="14.00">2012</text>
</a>
</g>
</g>
<!-- cites&#45;&gt;RFC6747 -->
<g id="edge17" class="edge">
<title>cites&#45;&gt;RFC6747</title>
<path fill="none" stroke="black" d="M496.02,-1050.86C501.2,-996.71 518.78,-839.32 551.51,-801.27 563.56,-787.25 578.59,-775.92 594.91,-766.76"/>
<polygon fill="black" stroke="black" points="596.11,-770.09 603.32,-762.33 592.84,-763.9 596.11,-770.09"/>
</g>
<!-- RFC6748 -->
<g id="node19" class="node">
<title>RFC6748</title>
<g id="a_node19"><a xlink:href="RFC6748.html" xlink:title="This document provides an Architectural description and the Concept of Operations of some optional advanced deployment scenarios for the Identifier&#45;Locator Network Protocol (ILNP), which is an evolutionary enhancement to IP. &#160;None of the functions described here is required for the use or deployment of ILNP. &#160;Instead, it offers descriptions of engineering and deployment options that might provide either enhanced capability or convenience in administration or management of ILNP&#45;based systems. &#160;This document defines an Experimental Protocol for the Internet community." target="_top">
<ellipse fill="none" stroke="black" cx="746.32" cy="-582.27" rx="175.72" ry="63.99"/>
<text xml:space="preserve" text-anchor="middle" x="746.32" y="-610.22" font-family="Times,serif" font-size="14.00">RFC6748</text>
<text xml:space="preserve" text-anchor="middle" x="746.32" y="-593.72" font-family="Times,serif" font-size="14.00">Optional Advanced Deployment Scenarios</text>
<text xml:space="preserve" text-anchor="middle" x="746.32" y="-577.22" font-family="Times,serif" font-size="14.00">for the Identifier&#45;Locator Network</text>
<text xml:space="preserve" text-anchor="middle" x="746.32" y="-560.72" font-family="Times,serif" font-size="14.00">Protocol (ILNP)</text>
<text xml:space="preserve" text-anchor="middle" x="746.32" y="-544.22" font-family="Times,serif" font-size="14.00">2012</text>
</a>
</g>
</g>
<!-- cites&#45;&gt;RFC6748 -->
<g id="edge18" class="edge">
<title>cites&#45;&gt;RFC6748</title>
<path fill="none" stroke="black" d="M494.49,-1051.2C495.28,-979.74 501.59,-717.78 551.51,-655.27 561.91,-642.24 574.89,-631.54 589.19,-622.75"/>
<polygon fill="black" stroke="black" points="590.52,-626.02 597.44,-618 587.03,-619.96 590.52,-626.02"/>
</g>
<!-- RFC2119 -->
<g id="node20" class="node">
<title>RFC2119</title>
<g id="a_node20"><a xlink:href="RFC2119.html" xlink:title="In many standards track documents several words are used to signify the requirements in the specification. &#160;These words are often capitalized. &#160;This document defines these words as they should be interpreted in IETF documents. &#160;This document specifies an Internet Best Current Practices for the Internet Community, and requests discussion and suggestions for improvements." target="_top">
<ellipse fill="none" stroke="black" cx="746.32" cy="-448.27" rx="160.34" ry="52.33"/>
<text xml:space="preserve" text-anchor="middle" x="746.32" y="-467.97" font-family="Times,serif" font-size="14.00">RFC2119</text>
<text xml:space="preserve" text-anchor="middle" x="746.32" y="-451.47" font-family="Times,serif" font-size="14.00">Key words for use in RFCs to Indicate</text>
<text xml:space="preserve" text-anchor="middle" x="746.32" y="-434.97" font-family="Times,serif" font-size="14.00">Requirement Levels</text>
<text xml:space="preserve" text-anchor="middle" x="746.32" y="-418.47" font-family="Times,serif" font-size="14.00">1997</text>
</a>
</g>
</g>
<!-- cites&#45;&gt;RFC2119 -->
<g id="edge19" class="edge">
<title>cites&#45;&gt;RFC2119</title>
<path fill="none" stroke="black" d="M495.07,-1050.99C498.65,-959.32 516.47,-552.26 551.51,-509.27 562.67,-495.57 576.89,-484.89 592.54,-476.58"/>
<polygon fill="black" stroke="black" points="593.66,-479.93 601.09,-472.38 590.57,-473.65 593.66,-479.93"/>
</g>
<!-- RFC4291 -->
<g id="node21" class="node">
<title>RFC4291</title>
<g id="a_node21"><a xlink:href="RFC4291.html" xlink:title="This specification defines the addressing architecture of the IP Version 6 (IPv6) protocol. The document includes the IPv6 addressing model, text representations of IPv6 addresses, definition of IPv6 unicast addresses, anycast addresses, and multicast addresses, and an IPv6 node&#39;s required addresses. This document obsoletes RFC 3513, IP Version 6 Addressing Architecture. [STANDARDS&#45;TRACK]" target="_top">
<ellipse fill="none" stroke="black" cx="746.32" cy="-337.27" rx="153.97" ry="40.66"/>
<text xml:space="preserve" text-anchor="middle" x="746.32" y="-348.72" font-family="Times,serif" font-size="14.00">RFC4291</text>
<text xml:space="preserve" text-anchor="middle" x="746.32" y="-332.22" font-family="Times,serif" font-size="14.00">IP Version 6 Addressing Architecture</text>
<text xml:space="preserve" text-anchor="middle" x="746.32" y="-315.72" font-family="Times,serif" font-size="14.00">2006</text>
</a>
</g>
</g>
<!-- cites&#45;&gt;RFC4291 -->
<g id="edge20" class="edge">
<title>cites&#45;&gt;RFC4291</title>
<path fill="none" stroke="black" d="M494.67,-1050.87C496.47,-947.27 507.49,-439.42 551.51,-387.27 562.63,-374.09 576.72,-364.14 592.22,-356.66"/>
<polygon fill="black" stroke="black" points="593.46,-359.94 601.2,-352.71 590.64,-353.53 593.46,-359.94"/>
</g>
<!-- RFC3597 -->
<g id="node22" class="node">
<title>RFC3597</title>
<g id="a_node22"><a xlink:href="RFC3597.html" xlink:title="Extending the Domain Name System (DNS) with new Resource Record (RR) types currently requires changes to name server software. &#160;This document specifies the changes necessary to allow future DNS implementations to handle new RR types transparently. [STANDARDS&#45;TRACK]" target="_top">
<ellipse fill="none" stroke="black" cx="746.32" cy="-226.27" rx="187.91" ry="52.33"/>
<text xml:space="preserve" text-anchor="middle" x="746.32" y="-245.97" font-family="Times,serif" font-size="14.00">RFC3597</text>
<text xml:space="preserve" text-anchor="middle" x="746.32" y="-229.47" font-family="Times,serif" font-size="14.00">Handling of Unknown DNS Resource Record</text>
<text xml:space="preserve" text-anchor="middle" x="746.32" y="-212.97" font-family="Times,serif" font-size="14.00">(RR) Types</text>
<text xml:space="preserve" text-anchor="middle" x="746.32" y="-196.47" font-family="Times,serif" font-size="14.00">2003</text>
</a>
</g>
</g>
<!-- cites&#45;&gt;RFC3597 -->
<g id="edge21" class="edge">
<title>cites&#45;&gt;RFC3597</title>
<path fill="none" stroke="black" d="M494.51,-1050.85C495.44,-938.57 502.62,-349.05 551.51,-287.27 559.55,-277.1 569.27,-268.6 580.03,-261.49"/>
<polygon fill="black" stroke="black" points="581.71,-264.57 588.44,-256.38 578.08,-258.58 581.71,-264.57"/>
</g>
<!-- RFC6195 -->
<g id="node23" class="node">
<title>RFC6195</title>
<g id="a_node23"><a xlink:href="RFC6195.html" xlink:title="This document specifies Internet Assigned Number Authority (IANA) parameter assignment considerations for the allocation of Domain Name System (DNS) resource record types, CLASSes, operation codes, error codes, DNS protocol message header bits, and AFSDB resource record subtypes. &#160;This memo documents an Internet Best Current Practice." target="_top">
<ellipse fill="none" stroke="black" cx="746.32" cy="-103.27" rx="154.5" ry="52.33"/>
<text xml:space="preserve" text-anchor="middle" x="746.32" y="-122.97" font-family="Times,serif" font-size="14.00">RFC6195</text>
<text xml:space="preserve" text-anchor="middle" x="746.32" y="-106.47" font-family="Times,serif" font-size="14.00">Domain Name System (DNS) IANA</text>
<text xml:space="preserve" text-anchor="middle" x="746.32" y="-89.97" font-family="Times,serif" font-size="14.00">Considerations</text>
<text xml:space="preserve" text-anchor="middle" x="746.32" y="-73.47" font-family="Times,serif" font-size="14.00">2011</text>
</a>
</g>
</g>
<!-- cites&#45;&gt;RFC6195 -->
<g id="edge22" class="edge">
<title>cites&#45;&gt;RFC6195</title>
<path fill="none" stroke="black" d="M494.32,-1050.83C494.06,-928.59 495.13,-237.59 551.51,-165.27 563.22,-150.24 578.59,-138.8 595.57,-130.09"/>
<polygon fill="black" stroke="black" points="596.83,-133.37 604.37,-125.92 593.83,-127.04 596.83,-133.37"/>
</g>
<!-- rev_cites -->
<g id="node24" class="node">
<title>rev_cites</title>
<polygon fill="lightblue" stroke="black" points="1020.12,-1014.27 966.12,-1014.27 966.12,-978.27 1020.12,-978.27 1020.12,-1014.27"/>
<text xml:space="preserve" text-anchor="middle" x="993.12" y="-991.22" font-family="Times,serif" font-size="14.00">cites</text>
</g>
<!-- RFC6740&#45;&gt;rev_cites -->
<g id="edge24" class="edge">
<title>RFC6740&#45;&gt;rev_cites</title>
<path fill="none" stroke="black" d="M884.6,-1992.42C906.5,-1983.18 926.66,-1970 941.12,-1951.27 970.07,-1913.75 987.95,-1183.53 991.48,-1026.04"/>
<polygon fill="black" stroke="black" points="994.98,-1026.12 991.7,-1016.04 987.98,-1025.96 994.98,-1026.12"/>
</g>
<!-- RFC6741&#45;&gt;rev_cites -->
<g id="edge25" class="edge">
<title>RFC6741&#45;&gt;rev_cites</title>
<path fill="none" stroke="black" d="M885.43,-1869.65C906.96,-1860.55 926.78,-1847.61 941.12,-1829.27 991.47,-1764.87 992.68,-1166.68 992.27,-1025.86"/>
<polygon fill="black" stroke="black" points="995.77,-1026.23 992.23,-1016.25 988.77,-1026.26 995.77,-1026.23"/>
</g>
<!-- RFC6743&#45;&gt;rev_cites -->
<g id="edge26" class="edge">
<title>RFC6743&#45;&gt;rev_cites</title>
<path fill="none" stroke="black" d="M887.21,-1254.92C907.49,-1244.96 926.43,-1232.03 941.12,-1215.27 965.71,-1187.21 982.01,-1078.99 988.69,-1025.94"/>
<polygon fill="black" stroke="black" points="992.16,-1026.46 989.9,-1016.11 985.21,-1025.61 992.16,-1026.46"/>
</g>
<!-- RFC6744&#45;&gt;rev_cites -->
<g id="edge27" class="edge">
<title>RFC6744&#45;&gt;rev_cites</title>
<path fill="none" stroke="black" d="M879.93,-1104.61C901.59,-1095.1 922.88,-1083.44 941.12,-1069.27 956.5,-1057.32 969.09,-1039.46 977.91,-1024.4"/>
<polygon fill="black" stroke="black" points="980.87,-1026.29 982.67,-1015.85 974.75,-1022.88 980.87,-1026.29"/>
</g>
<!-- RFC6745&#45;&gt;rev_cites -->
<g id="edge28" class="edge">
<title>RFC6745&#45;&gt;rev_cites</title>
<path fill="none" stroke="black" d="M911.29,-996.27C927.26,-996.27 942.16,-996.27 954.71,-996.27"/>
<polygon fill="black" stroke="black" points="954.46,-999.77 964.46,-996.27 954.46,-992.77 954.46,-999.77"/>
</g>
<!-- RFC6746&#45;&gt;rev_cites -->
<g id="edge29" class="edge">
<title>RFC6746&#45;&gt;rev_cites</title>
<path fill="none" stroke="black" d="M880.88,-891.49C902.2,-899.67 923.13,-910.07 941.12,-923.27 956.92,-934.86 969.58,-952.87 978.33,-968.1"/>
<polygon fill="black" stroke="black" points="975.19,-969.64 983.04,-976.75 981.34,-966.29 975.19,-969.64"/>
</g>
<!-- RFC6747&#45;&gt;rev_cites -->
<g id="edge30" class="edge">
<title>RFC6747&#45;&gt;rev_cites</title>
<path fill="none" stroke="black" d="M886.82,-761.96C907.14,-771.88 926.2,-784.7 941.12,-801.27 983.01,-847.77 991.26,-924.47 992.43,-966.48"/>
<polygon fill="black" stroke="black" points="988.93,-966.38 992.57,-976.33 995.93,-966.28 988.93,-966.38"/>
</g>
<!-- RFC6748&#45;&gt;rev_cites -->
<g id="edge31" class="edge">
<title>RFC6748&#45;&gt;rev_cites</title>
<path fill="none" stroke="black" d="M893.71,-617.38C911.79,-627.08 928.36,-639.46 941.12,-655.27 979.7,-703.01 989.2,-893.1 991.45,-966.83"/>
<polygon fill="black" stroke="black" points="987.94,-966.61 991.72,-976.5 994.94,-966.41 987.94,-966.61"/>
</g>
<!-- rev_cites&#45;&gt;RFC6742 -->
<g id="edge23" class="edge">
<title>rev_cites&#45;&gt;RFC6742</title>
<path fill="none" stroke="black" d="M991.85,-977.92C989.84,-848.37 976.41,-75.71 941.12,-42.27 878.29,17.3 620.31,10.29 551.51,-42.27 389.72,-165.86 297.27,-823.44 271.64,-1032.45"/>
<polygon fill="black" stroke="black" points="268.17,-1031.96 270.44,-1042.31 275.12,-1032.8 268.17,-1031.96"/>
</g>
</g>
</svg>
