<?xml version="1.0" encoding="UTF-8" standalone="no"?>
<!DOCTYPE svg PUBLIC "-//W3C//DTD SVG 1.1//EN"
 "http://www.w3.org/Graphics/SVG/1.1/DTD/svg11.dtd">
<!-- Generated by graphviz version 14.1.1 (20251213.1925)
 -->
<!-- Title: Flow Pages: 1 -->
<svg width="900pt" height="1040pt"
 viewBox="0.00 0.00 900.00 1040.00" xmlns="http://www.w3.org/2000/svg" xmlns:xlink="http://www.w3.org/1999/xlink">
<g id="graph0" class="graph" transform="scale(1 1) rotate(0) translate(4 1035.65)">
<title>Flow</title>
<polygon fill="white" stroke="none" points="-4,4 -4,-1035.65 896.33,-1035.65 896.33,4 -4,4"/>
<!-- RFC6717 -->
<g id="node1" class="node">
<title>RFC6717</title>
<g id="a_node1"><a xlink:title="This document describes a protocol, called kx509, for using Kerberos tickets to acquire X.509 certificates. These certificates may be used for many of the same purposes as X.509 certificates acquired by other means, but if a Kerberos infrastructure already exists, then the overhead of using kx509 may be much less. While not standardized, this protocol is already in use at several large organizations, and certificates issued with this protocol are recognized by the International Grid Trust Federation. This document is not an Internet Standards Track specification; it is published for informational purposes.">
<ellipse fill="green" stroke="black" cx="250" cy="-575.33" rx="158.75" ry="52.33"/>
<text xml:space="preserve" text-anchor="middle" x="250" y="-595.03" font-family="Times,serif" font-size="14.00">RFC6717</text>
<text xml:space="preserve" text-anchor="middle" x="250" y="-578.53" font-family="Times,serif" font-size="14.00">kx509 Kerberized Certificate Issuance</text>
<text xml:space="preserve" text-anchor="middle" x="250" y="-562.03" font-family="Times,serif" font-size="14.00">Protocol in Use in 2012</text>
<text xml:space="preserve" text-anchor="middle" x="250" y="-545.53" font-family="Times,serif" font-size="14.00">2012</text>
</a>
</g>
</g>
<!-- obs -->
<g id="node3" class="node">
<title>obs</title>
<polygon fill="lightblue" stroke="black" points="499.99,-647.33 433.74,-647.33 433.74,-611.33 499.99,-611.33 499.99,-647.33"/>
<text xml:space="preserve" text-anchor="middle" x="466.87" y="-624.28" font-family="Times,serif" font-size="14.00">obsoletes</text>
</g>
<!-- RFC6717&#45;&gt;obs -->
<g id="edge2" class="edge">
<title>RFC6717&#45;&gt;obs</title>
<path fill="none" stroke="black" d="M377.23,-607.05C393.5,-611.14 409.18,-615.08 422.71,-618.48"/>
<polygon fill="black" stroke="black" points="421.51,-621.79 432.06,-620.83 423.22,-615 421.51,-621.79"/>
</g>
<!-- updates -->
<g id="node4" class="node">
<title>updates</title>
<polygon fill="lightyellow" stroke="black" points="495.49,-593.33 438.24,-593.33 438.24,-557.33 495.49,-557.33 495.49,-593.33"/>
<text xml:space="preserve" text-anchor="middle" x="466.87" y="-570.28" font-family="Times,serif" font-size="14.00">updates</text>
</g>
<!-- RFC6717&#45;&gt;updates -->
<g id="edge3" class="edge">
<title>RFC6717&#45;&gt;updates</title>
<path fill="none" stroke="black" d="M409.13,-575.33C415.27,-575.33 421.12,-575.33 426.57,-575.33"/>
<polygon fill="black" stroke="black" points="426.31,-578.83 436.31,-575.33 426.31,-571.83 426.31,-578.83"/>
</g>
<!-- cites -->
<g id="node6" class="node">
<title>cites</title>
<polygon fill="lightblue" stroke="black" points="493.87,-539.33 439.87,-539.33 439.87,-503.33 493.87,-503.33 493.87,-539.33"/>
<text xml:space="preserve" text-anchor="middle" x="466.87" y="-516.28" font-family="Times,serif" font-size="14.00">cites</text>
</g>
<!-- RFC6717&#45;&gt;cites -->
<g id="edge5" class="edge">
<title>RFC6717&#45;&gt;cites</title>
<path fill="none" stroke="black" d="M377.23,-543.6C395.83,-538.93 413.65,-534.45 428.37,-530.75"/>
<polygon fill="black" stroke="black" points="429.15,-534.16 438,-528.33 427.45,-527.37 429.15,-534.16"/>
</g>
<!-- obs_by -->
<g id="node2" class="node">
<title>obs_by</title>
<polygon fill="lightblue" stroke="black" points="66.25,-647.33 0,-647.33 0,-611.33 66.25,-611.33 66.25,-647.33"/>
<text xml:space="preserve" text-anchor="middle" x="33.12" y="-624.28" font-family="Times,serif" font-size="14.00">obsoletes</text>
</g>
<!-- obs_by&#45;&gt;RFC6717 -->
<g id="edge1" class="edge">
<title>obs_by&#45;&gt;RFC6717</title>
<path fill="none" stroke="black" d="M66.29,-621.24C79.28,-617.98 95.23,-613.97 112.23,-609.7"/>
<polygon fill="black" stroke="black" points="112.63,-613.21 121.47,-607.37 110.92,-606.42 112.63,-613.21"/>
</g>
<!-- updated_by -->
<g id="node5" class="node">
<title>updated_by</title>
<polygon fill="lightyellow" stroke="black" points="61.75,-593.33 4.5,-593.33 4.5,-557.33 61.75,-557.33 61.75,-593.33"/>
<text xml:space="preserve" text-anchor="middle" x="33.12" y="-570.28" font-family="Times,serif" font-size="14.00">updates</text>
</g>
<!-- updated_by&#45;&gt;RFC6717 -->
<g id="edge4" class="edge">
<title>updated_by&#45;&gt;RFC6717</title>
<path fill="none" stroke="black" d="M62.22,-575.33C67.54,-575.33 73.44,-575.33 79.78,-575.33"/>
<polygon fill="black" stroke="black" points="79.33,-578.83 89.33,-575.33 79.33,-571.83 79.33,-578.83"/>
</g>
<!-- RFC4120 -->
<g id="node7" class="node">
<title>RFC4120</title>
<g id="a_node7"><a xlink:href="RFC4120.html" xlink:title="This document provides an overview and specification of Version 5 of the Kerberos protocol, and it obsoletes RFC 1510 to clarify aspects of the protocol and its intended use that require more detailed or clearer explanation than was provided in RFC 1510. &#160;This document is intended to provide a detailed description of the protocol, suitable for implementation, together with descriptions of the appropriate use of protocol messages and fields within those messages. [STANDARDS&#45;TRACK]" target="_top">
<ellipse fill="none" stroke="black" cx="708.66" cy="-979.33" rx="158.75" ry="52.33"/>
<text xml:space="preserve" text-anchor="middle" x="708.66" y="-999.03" font-family="Times,serif" font-size="14.00">RFC4120</text>
<text xml:space="preserve" text-anchor="middle" x="708.66" y="-982.53" font-family="Times,serif" font-size="14.00">The Kerberos Network Authentication</text>
<text xml:space="preserve" text-anchor="middle" x="708.66" y="-966.03" font-family="Times,serif" font-size="14.00">Service (V5)</text>
<text xml:space="preserve" text-anchor="middle" x="708.66" y="-949.53" font-family="Times,serif" font-size="14.00">2005</text>
</a>
</g>
</g>
<!-- cites&#45;&gt;RFC4120 -->
<g id="edge6" class="edge">
<title>cites&#45;&gt;RFC4120</title>
<path fill="none" stroke="black" d="M493.89,-539.66C496.29,-542.31 498.41,-545.21 499.99,-548.33 537.29,-621.81 474.6,-853.12 524.99,-918.33 534.45,-930.57 546.46,-940.37 559.79,-948.23"/>
<polygon fill="black" stroke="black" points="557.91,-951.2 568.37,-952.89 561.25,-945.05 557.91,-951.2"/>
</g>
<!-- RFC5280 -->
<g id="node8" class="node">
<title>RFC5280</title>
<g id="a_node8"><a xlink:href="RFC5280.html" xlink:title="This memo profiles the X.509 v3 certificate and X.509 v2 certificate revocation list (CRL) for use in the Internet. &#160;An overview of this approach and model is provided as an introduction. &#160;The X.509 v3 certificate format is described in detail, with additional information regarding the format and semantics of Internet name forms. &#160;Standard certificate extensions are described and two Internet&#45;specific extensions are defined. &#160;A set of required certificate extensions is specified. &#160;The X.509 v2 CRL format is described in detail along with standard and Internet&#45;specific extensions. &#160;An algorithm for X.509 certification path validation is described. &#160;An ASN.1 module and examples are provided in the appendices. [STANDARDS&#45;TRACK]" target="_top">
<ellipse fill="none" stroke="black" cx="708.66" cy="-845.33" rx="167.76" ry="63.99"/>
<text xml:space="preserve" text-anchor="middle" x="708.66" y="-873.28" font-family="Times,serif" font-size="14.00">RFC5280</text>
<text xml:space="preserve" text-anchor="middle" x="708.66" y="-856.78" font-family="Times,serif" font-size="14.00">Internet X.509 Public Key Infrastructure</text>
<text xml:space="preserve" text-anchor="middle" x="708.66" y="-840.28" font-family="Times,serif" font-size="14.00">Certificate and Certificate Revocation</text>
<text xml:space="preserve" text-anchor="middle" x="708.66" y="-823.78" font-family="Times,serif" font-size="14.00">List (CRL) Profile</text>
<text xml:space="preserve" text-anchor="middle" x="708.66" y="-807.28" font-family="Times,serif" font-size="14.00">2008</text>
</a>
</g>
</g>
<!-- cites&#45;&gt;RFC5280 -->
<g id="edge7" class="edge">
<title>cites&#45;&gt;RFC5280</title>
<path fill="none" stroke="black" d="M493.76,-539.73C496.18,-542.37 498.34,-545.24 499.99,-548.33 547.27,-636.64 464.3,-692.63 524.99,-772.33 534.4,-784.68 546.23,-794.95 559.32,-803.48"/>
<polygon fill="black" stroke="black" points="557.4,-806.41 567.76,-808.61 561.03,-800.43 557.4,-806.41"/>
</g>
<!-- RFC4556 -->
<g id="node9" class="node">
<title>RFC4556</title>
<g id="a_node9"><a xlink:href="RFC4556.html" xlink:title="This document describes protocol extensions (hereafter called PKINIT) to the Kerberos protocol specification. &#160;These extensions provide a method for integrating public key cryptography into the initial authentication exchange, by using asymmetric&#45;key signature and/or encryption algorithms in pre&#45;authentication data fields. [STANDARDS&#45;TRACK]" target="_top">
<ellipse fill="none" stroke="black" cx="708.66" cy="-711.33" rx="156.09" ry="52.33"/>
<text xml:space="preserve" text-anchor="middle" x="708.66" y="-731.03" font-family="Times,serif" font-size="14.00">RFC4556</text>
<text xml:space="preserve" text-anchor="middle" x="708.66" y="-714.53" font-family="Times,serif" font-size="14.00">Public Key Cryptography for Initial</text>
<text xml:space="preserve" text-anchor="middle" x="708.66" y="-698.03" font-family="Times,serif" font-size="14.00">Authentication in Kerberos (PKINIT)</text>
<text xml:space="preserve" text-anchor="middle" x="708.66" y="-681.53" font-family="Times,serif" font-size="14.00">2006</text>
</a>
</g>
</g>
<!-- cites&#45;&gt;RFC4556 -->
<g id="edge8" class="edge">
<title>cites&#45;&gt;RFC4556</title>
<path fill="none" stroke="black" d="M493.05,-539.63C495.67,-542.32 498.06,-545.23 499.99,-548.33 524.45,-587.57 493.7,-615.27 524.99,-649.33 536.24,-661.56 549.99,-671.39 564.85,-679.27"/>
<polygon fill="black" stroke="black" points="562.89,-682.21 573.4,-683.51 566,-675.94 562.89,-682.21"/>
</g>
<!-- RFC2119 -->
<g id="node10" class="node">
<title>RFC2119</title>
<g id="a_node10"><a xlink:href="RFC2119.html" xlink:title="In many standards track documents several words are used to signify the requirements in the specification. &#160;These words are often capitalized. &#160;This document defines these words as they should be interpreted in IETF documents. &#160;This document specifies an Internet Best Current Practices for the Internet Community, and requests discussion and suggestions for improvements." target="_top">
<ellipse fill="none" stroke="black" cx="708.66" cy="-588.33" rx="160.34" ry="52.33"/>
<text xml:space="preserve" text-anchor="middle" x="708.66" y="-608.03" font-family="Times,serif" font-size="14.00">RFC2119</text>
<text xml:space="preserve" text-anchor="middle" x="708.66" y="-591.53" font-family="Times,serif" font-size="14.00">Key words for use in RFCs to Indicate</text>
<text xml:space="preserve" text-anchor="middle" x="708.66" y="-575.03" font-family="Times,serif" font-size="14.00">Requirement Levels</text>
<text xml:space="preserve" text-anchor="middle" x="708.66" y="-558.53" font-family="Times,serif" font-size="14.00">1997</text>
</a>
</g>
</g>
<!-- cites&#45;&gt;RFC2119 -->
<g id="edge9" class="edge">
<title>cites&#45;&gt;RFC2119</title>
<path fill="none" stroke="black" d="M493.98,-528.62C514.24,-534.28 543.98,-542.59 574.87,-551.22"/>
<polygon fill="black" stroke="black" points="573.8,-554.56 584.38,-553.88 575.69,-547.82 573.8,-554.56"/>
</g>
<!-- RFC3447 -->
<g id="node11" class="node">
<title>RFC3447</title>
<g id="a_node11"><a xlink:href="RFC3447.html" xlink:title="This memo represents a republication of PKCS #1 v2.1 from RSA Laboratories&#39; Public&#45;Key Cryptography Standards (PKCS) series, and change control is retained within the PKCS process. &#160;The body of this document is taken directly from the PKCS #1 v2.1 document, with certain corrections made during the publication process. &#160;This memo provides information for the Internet community." target="_top">
<ellipse fill="none" stroke="black" cx="708.66" cy="-454.33" rx="183.67" ry="63.99"/>
<text xml:space="preserve" text-anchor="middle" x="708.66" y="-482.28" font-family="Times,serif" font-size="14.00">RFC3447</text>
<text xml:space="preserve" text-anchor="middle" x="708.66" y="-465.78" font-family="Times,serif" font-size="14.00">Public&#45;Key Cryptography Standards (PKCS)</text>
<text xml:space="preserve" text-anchor="middle" x="708.66" y="-449.28" font-family="Times,serif" font-size="14.00">#1: RSA Cryptography Specifications</text>
<text xml:space="preserve" text-anchor="middle" x="708.66" y="-432.78" font-family="Times,serif" font-size="14.00">Version 2.1</text>
<text xml:space="preserve" text-anchor="middle" x="708.66" y="-416.28" font-family="Times,serif" font-size="14.00">2003</text>
</a>
</g>
</g>
<!-- cites&#45;&gt;RFC3447 -->
<g id="edge10" class="edge">
<title>cites&#45;&gt;RFC3447</title>
<path fill="none" stroke="black" d="M493.98,-514.03C509.49,-509.69 530.57,-503.81 553.47,-497.41"/>
<polygon fill="black" stroke="black" points="554.32,-500.8 563.01,-494.74 552.44,-494.06 554.32,-500.8"/>
</g>
<!-- RFC2782 -->
<g id="node12" class="node">
<title>RFC2782</title>
<g id="a_node12"><a xlink:href="RFC2782.html" xlink:title="This document describes a DNS RR which specifies the location of the server(s) for a specific protocol and domain. [STANDARDS&#45;TRACK]" target="_top">
<ellipse fill="none" stroke="black" cx="708.66" cy="-320.33" rx="169.35" ry="52.33"/>
<text xml:space="preserve" text-anchor="middle" x="708.66" y="-340.03" font-family="Times,serif" font-size="14.00">RFC2782</text>
<text xml:space="preserve" text-anchor="middle" x="708.66" y="-323.53" font-family="Times,serif" font-size="14.00">A DNS RR for specifying the location of</text>
<text xml:space="preserve" text-anchor="middle" x="708.66" y="-307.03" font-family="Times,serif" font-size="14.00">services (DNS SRV)</text>
<text xml:space="preserve" text-anchor="middle" x="708.66" y="-290.53" font-family="Times,serif" font-size="14.00">2000</text>
</a>
</g>
</g>
<!-- cites&#45;&gt;RFC2782 -->
<g id="edge11" class="edge">
<title>cites&#45;&gt;RFC2782</title>
<path fill="none" stroke="black" d="M470.35,-503.14C475.35,-473.49 489.36,-414.71 524.99,-381.33 535.59,-371.4 547.85,-363.08 560.9,-356.12"/>
<polygon fill="black" stroke="black" points="562.29,-359.34 569.67,-351.73 559.16,-353.08 562.29,-359.34"/>
</g>
<!-- RFC4211 -->
<g id="node13" class="node">
<title>RFC4211</title>
<g id="a_node13"><a xlink:href="RFC4211.html" xlink:title="This document describes the Certificate Request Message Format (CRMF) syntax and semantics. &#160;This syntax is used to convey a request for a certificate to a Certification Authority (CA), possibly via a Registration Authority (RA), for the purposes of X.509 certificate production. &#160;The request will typically include a public key and the associated registration information. &#160;This document does not define a certificate request protocol. [STANDARDS&#45;TRACK]" target="_top">
<ellipse fill="none" stroke="black" cx="708.66" cy="-186.33" rx="167.76" ry="63.99"/>
<text xml:space="preserve" text-anchor="middle" x="708.66" y="-214.28" font-family="Times,serif" font-size="14.00">RFC4211</text>
<text xml:space="preserve" text-anchor="middle" x="708.66" y="-197.78" font-family="Times,serif" font-size="14.00">Internet X.509 Public Key Infrastructure</text>
<text xml:space="preserve" text-anchor="middle" x="708.66" y="-181.28" font-family="Times,serif" font-size="14.00">Certificate Request Message Format</text>
<text xml:space="preserve" text-anchor="middle" x="708.66" y="-164.78" font-family="Times,serif" font-size="14.00">(CRMF)</text>
<text xml:space="preserve" text-anchor="middle" x="708.66" y="-148.28" font-family="Times,serif" font-size="14.00">2005</text>
</a>
</g>
</g>
<!-- cites&#45;&gt;RFC4211 -->
<g id="edge12" class="edge">
<title>cites&#45;&gt;RFC4211</title>
<path fill="none" stroke="black" d="M469.64,-502.98C475.11,-449.76 493.33,-296.72 524.99,-259.33 535.21,-247.26 547.71,-237.16 561.34,-228.73"/>
<polygon fill="black" stroke="black" points="562.74,-231.96 569.62,-223.91 559.22,-225.91 562.74,-231.96"/>
</g>
<!-- RFC5246 -->
<g id="node14" class="node">
<title>RFC5246</title>
<g id="a_node14"><a xlink:href="RFC5246.html" xlink:title="This document specifies Version 1.2 of the Transport Layer Security (TLS) protocol. &#160;The TLS protocol provides communications security over the Internet. &#160;The protocol allows client/server applications to communicate in a way that is designed to prevent eavesdropping, tampering, or message forgery. [STANDARDS&#45;TRACK]" target="_top">
<ellipse fill="none" stroke="black" cx="708.66" cy="-52.33" rx="150.79" ry="52.33"/>
<text xml:space="preserve" text-anchor="middle" x="708.66" y="-72.03" font-family="Times,serif" font-size="14.00">RFC5246</text>
<text xml:space="preserve" text-anchor="middle" x="708.66" y="-55.53" font-family="Times,serif" font-size="14.00">The Transport Layer Security (TLS)</text>
<text xml:space="preserve" text-anchor="middle" x="708.66" y="-39.03" font-family="Times,serif" font-size="14.00">Protocol Version 1.2</text>
<text xml:space="preserve" text-anchor="middle" x="708.66" y="-22.53" font-family="Times,serif" font-size="14.00">2008</text>
</a>
</g>
</g>
<!-- cites&#45;&gt;RFC5246 -->
<g id="edge13" class="edge">
<title>cites&#45;&gt;RFC5246</title>
<path fill="none" stroke="black" d="M467.95,-502.98C468.65,-431.66 474.68,-173.81 524.99,-113.33 535.87,-100.25 549.63,-89.97 564.7,-81.87"/>
<polygon fill="black" stroke="black" points="566.03,-85.12 573.43,-77.54 562.91,-78.86 566.03,-85.12"/>
</g>
<!-- rev_cites -->
<g id="node15" class="node">
<title>rev_cites</title>
<polygon fill="lightblue" stroke="black" points="60.12,-539.33 6.12,-539.33 6.12,-503.33 60.12,-503.33 60.12,-539.33"/>
<text xml:space="preserve" text-anchor="middle" x="33.12" y="-516.28" font-family="Times,serif" font-size="14.00">cites</text>
</g>
<!-- rev_cites&#45;&gt;RFC6717 -->
<g id="edge14" class="edge">
<title>rev_cites&#45;&gt;RFC6717</title>
<path fill="none" stroke="black" d="M60.47,-527.95C74.28,-531.42 92.35,-535.96 111.84,-540.86"/>
<polygon fill="black" stroke="black" points="110.78,-544.2 121.33,-543.24 112.49,-537.41 110.78,-544.2"/>
</g>
</g>
</svg>
