<?xml version="1.0" encoding="UTF-8" standalone="no"?>
<!DOCTYPE svg PUBLIC "-//W3C//DTD SVG 1.1//EN"
 "http://www.w3.org/Graphics/SVG/1.1/DTD/svg11.dtd">
<!-- Generated by graphviz version 14.1.1 (20251213.1925)
 -->
<!-- Title: Flow Pages: 1 -->
<svg width="894pt" height="627pt"
 viewBox="0.00 0.00 894.00 627.00" xmlns="http://www.w3.org/2000/svg" xmlns:xlink="http://www.w3.org/1999/xlink">
<g id="graph0" class="graph" transform="scale(1 1) rotate(0) translate(4 622.65)">
<title>Flow</title>
<polygon fill="white" stroke="none" points="-4,4 -4,-622.65 889.97,-622.65 889.97,4 -4,4"/>
<!-- RFC6273 -->
<g id="node1" class="node">
<title>RFC6273</title>
<g id="a_node1"><a xlink:title="This document analyzes the use of hashes in Secure Neighbor Discovery (SEND), the possible threats to these hashes and the impact of recent attacks on hash functions used by SEND. &#160;The SEND specification currently uses the SHA&#45;1 hash algorithm and PKIX certificates and does not provide support for hash algorithm agility. &#160;This document provides an analysis of possible threats to the hash algorithms used in SEND. &#160;This document is not an Internet Standards Track specification; it is published for informational purposes.">
<ellipse fill="green" stroke="black" cx="260.6" cy="-374.99" rx="169.35" ry="52.33"/>
<text xml:space="preserve" text-anchor="middle" x="260.6" y="-394.69" font-family="Times,serif" font-size="14.00">RFC6273</text>
<text xml:space="preserve" text-anchor="middle" x="260.6" y="-378.19" font-family="Times,serif" font-size="14.00">The Secure Neighbor Discovery (SEND)</text>
<text xml:space="preserve" text-anchor="middle" x="260.6" y="-361.69" font-family="Times,serif" font-size="14.00">Hash Threat Analysis</text>
<text xml:space="preserve" text-anchor="middle" x="260.6" y="-345.19" font-family="Times,serif" font-size="14.00">2011</text>
</a>
</g>
</g>
<!-- obs -->
<g id="node3" class="node">
<title>obs</title>
<polygon fill="lightblue" stroke="black" points="521.2,-446.99 454.95,-446.99 454.95,-410.99 521.2,-410.99 521.2,-446.99"/>
<text xml:space="preserve" text-anchor="middle" x="488.08" y="-423.94" font-family="Times,serif" font-size="14.00">obsoletes</text>
</g>
<!-- RFC6273&#45;&gt;obs -->
<g id="edge2" class="edge">
<title>RFC6273&#45;&gt;obs</title>
<path fill="none" stroke="black" d="M395.37,-407.03C412.73,-411.19 429.4,-415.18 443.65,-418.59"/>
<polygon fill="black" stroke="black" points="442.52,-421.92 453.06,-420.85 444.15,-415.11 442.52,-421.92"/>
</g>
<!-- updates -->
<g id="node4" class="node">
<title>updates</title>
<polygon fill="lightyellow" stroke="black" points="516.7,-392.99 459.45,-392.99 459.45,-356.99 516.7,-356.99 516.7,-392.99"/>
<text xml:space="preserve" text-anchor="middle" x="488.08" y="-369.94" font-family="Times,serif" font-size="14.00">updates</text>
</g>
<!-- RFC6273&#45;&gt;updates -->
<g id="edge3" class="edge">
<title>RFC6273&#45;&gt;updates</title>
<path fill="none" stroke="black" d="M430.18,-374.99C436.37,-374.99 442.26,-374.99 447.74,-374.99"/>
<polygon fill="black" stroke="black" points="447.52,-378.49 457.52,-374.99 447.52,-371.49 447.52,-378.49"/>
</g>
<!-- cites -->
<g id="node6" class="node">
<title>cites</title>
<polygon fill="lightblue" stroke="black" points="515.08,-338.99 461.08,-338.99 461.08,-302.99 515.08,-302.99 515.08,-338.99"/>
<text xml:space="preserve" text-anchor="middle" x="488.08" y="-315.94" font-family="Times,serif" font-size="14.00">cites</text>
</g>
<!-- RFC6273&#45;&gt;cites -->
<g id="edge5" class="edge">
<title>RFC6273&#45;&gt;cites</title>
<path fill="none" stroke="black" d="M395.37,-342.96C415.17,-338.22 434.07,-333.69 449.51,-329.99"/>
<polygon fill="black" stroke="black" points="450.22,-333.42 459.13,-327.69 448.59,-326.61 450.22,-333.42"/>
</g>
<!-- obs_by -->
<g id="node2" class="node">
<title>obs_by</title>
<polygon fill="lightblue" stroke="black" points="66.25,-446.99 0,-446.99 0,-410.99 66.25,-410.99 66.25,-446.99"/>
<text xml:space="preserve" text-anchor="middle" x="33.12" y="-423.94" font-family="Times,serif" font-size="14.00">obsoletes</text>
</g>
<!-- obs_by&#45;&gt;RFC6273 -->
<g id="edge1" class="edge">
<title>obs_by&#45;&gt;RFC6273</title>
<path fill="none" stroke="black" d="M66.43,-421.26C80.01,-418 96.83,-413.98 114.84,-409.66"/>
<polygon fill="black" stroke="black" points="115.5,-413.1 124.41,-407.37 113.87,-406.3 115.5,-413.1"/>
</g>
<!-- updated_by -->
<g id="node5" class="node">
<title>updated_by</title>
<polygon fill="lightyellow" stroke="black" points="61.75,-392.99 4.5,-392.99 4.5,-356.99 61.75,-356.99 61.75,-392.99"/>
<text xml:space="preserve" text-anchor="middle" x="33.12" y="-369.94" font-family="Times,serif" font-size="14.00">updates</text>
</g>
<!-- updated_by&#45;&gt;RFC6273 -->
<g id="edge4" class="edge">
<title>updated_by&#45;&gt;RFC6273</title>
<path fill="none" stroke="black" d="M62.23,-374.99C67.39,-374.99 73.11,-374.99 79.26,-374.99"/>
<polygon fill="black" stroke="black" points="79.25,-378.49 89.25,-374.99 79.25,-371.49 79.25,-378.49"/>
</g>
<!-- RFC3971 -->
<g id="node7" class="node">
<title>RFC3971</title>
<g id="a_node7"><a xlink:href="RFC3971.html" xlink:title="IPv6 nodes use the Neighbor Discovery Protocol (NDP) to discover other nodes on the link, to determine their link&#45;layer addresses to find routers, and to maintain reachability information about the paths to active neighbors. &#160;If not secured, NDP is vulnerable to various attacks. &#160;This document specifies security mechanisms for NDP. &#160;Unlike those in the original NDP specifications, these mechanisms do not use IPsec. [STANDARDS&#45;TRACK]" target="_top">
<ellipse fill="none" stroke="black" cx="716.09" cy="-577.99" rx="153.44" ry="40.66"/>
<text xml:space="preserve" text-anchor="middle" x="716.09" y="-589.44" font-family="Times,serif" font-size="14.00">RFC3971</text>
<text xml:space="preserve" text-anchor="middle" x="716.09" y="-572.94" font-family="Times,serif" font-size="14.00">SEcure Neighbor Discovery (SEND)</text>
<text xml:space="preserve" text-anchor="middle" x="716.09" y="-556.44" font-family="Times,serif" font-size="14.00">2005</text>
</a>
</g>
</g>
<!-- cites&#45;&gt;RFC3971 -->
<g id="edge6" class="edge">
<title>cites&#45;&gt;RFC3971</title>
<path fill="none" stroke="black" d="M514.89,-339.44C517.33,-342.07 519.51,-344.93 521.2,-347.99 560.28,-418.68 493.53,-466.77 546.2,-527.99 554.3,-537.4 564.07,-545.08 574.78,-551.34"/>
<polygon fill="black" stroke="black" points="573.05,-554.39 583.53,-556 576.34,-548.21 573.05,-554.39"/>
</g>
<!-- RFC5280 -->
<g id="node8" class="node">
<title>RFC5280</title>
<g id="a_node8"><a xlink:href="RFC5280.html" xlink:title="This memo profiles the X.509 v3 certificate and X.509 v2 certificate revocation list (CRL) for use in the Internet. &#160;An overview of this approach and model is provided as an introduction. &#160;The X.509 v3 certificate format is described in detail, with additional information regarding the format and semantics of Internet name forms. &#160;Standard certificate extensions are described and two Internet&#45;specific extensions are defined. &#160;A set of required certificate extensions is specified. &#160;The X.509 v2 CRL format is described in detail along with standard and Internet&#45;specific extensions. &#160;An algorithm for X.509 certification path validation is described. &#160;An ASN.1 module and examples are provided in the appendices. [STANDARDS&#45;TRACK]" target="_top">
<ellipse fill="none" stroke="black" cx="716.09" cy="-454.99" rx="167.76" ry="63.99"/>
<text xml:space="preserve" text-anchor="middle" x="716.09" y="-482.94" font-family="Times,serif" font-size="14.00">RFC5280</text>
<text xml:space="preserve" text-anchor="middle" x="716.09" y="-466.44" font-family="Times,serif" font-size="14.00">Internet X.509 Public Key Infrastructure</text>
<text xml:space="preserve" text-anchor="middle" x="716.09" y="-449.94" font-family="Times,serif" font-size="14.00">Certificate and Certificate Revocation</text>
<text xml:space="preserve" text-anchor="middle" x="716.09" y="-433.44" font-family="Times,serif" font-size="14.00">List (CRL) Profile</text>
<text xml:space="preserve" text-anchor="middle" x="716.09" y="-416.94" font-family="Times,serif" font-size="14.00">2008</text>
</a>
</g>
</g>
<!-- cites&#45;&gt;RFC5280 -->
<g id="edge7" class="edge">
<title>cites&#45;&gt;RFC5280</title>
<path fill="none" stroke="black" d="M512.16,-339.23C515.31,-342.05 518.41,-345.02 521.2,-347.99 534.03,-361.68 531.53,-370.31 546.2,-381.99 557.36,-390.87 569.75,-398.87 582.62,-406.03"/>
<polygon fill="black" stroke="black" points="580.73,-408.99 591.2,-410.63 584.04,-402.82 580.73,-408.99"/>
</g>
<!-- RFC4270 -->
<g id="node9" class="node">
<title>RFC4270</title>
<g id="a_node9"><a xlink:href="RFC4270.html" xlink:title="Recent announcements of better&#45;than&#45;expected collision attacks in popular hash algorithms have caused some people to question whether common Internet protocols need to be changed, and if so, how. &#160;This document summarizes the use of hashes in many protocols, discusses how the collision attacks affect and do not affect the protocols, shows how to thwart known attacks on digital certificates, and discusses future directions for protocol designers. &#160;This memo provides information for the Internet community." target="_top">
<ellipse fill="none" stroke="black" cx="716.09" cy="-320.99" rx="150.79" ry="52.33"/>
<text xml:space="preserve" text-anchor="middle" x="716.09" y="-340.69" font-family="Times,serif" font-size="14.00">RFC4270</text>
<text xml:space="preserve" text-anchor="middle" x="716.09" y="-324.19" font-family="Times,serif" font-size="14.00">Attacks on Cryptographic Hashes in</text>
<text xml:space="preserve" text-anchor="middle" x="716.09" y="-307.69" font-family="Times,serif" font-size="14.00">Internet Protocols</text>
<text xml:space="preserve" text-anchor="middle" x="716.09" y="-291.19" font-family="Times,serif" font-size="14.00">2005</text>
</a>
</g>
</g>
<!-- cites&#45;&gt;RFC4270 -->
<g id="edge8" class="edge">
<title>cites&#45;&gt;RFC4270</title>
<path fill="none" stroke="black" d="M515.45,-320.99C526.12,-320.99 539.36,-320.99 553.92,-320.99"/>
<polygon fill="black" stroke="black" points="553.78,-324.49 563.78,-320.99 553.78,-317.49 553.78,-324.49"/>
</g>
<!-- RFC3972 -->
<g id="node10" class="node">
<title>RFC3972</title>
<g id="a_node10"><a xlink:href="RFC3972.html" xlink:title="This document describes a method for binding a public signature key to an IPv6 address in the Secure Neighbor Discovery (SEND) protocol. &#160;Cryptographically Generated Addresses (CGA) are IPv6 addresses for which the interface identifier is generated by computing a cryptographic one&#45;way hash function from a public key and auxiliary parameters. &#160;The binding between the public key and the address can be verified by re&#45;computing the hash value and by comparing the hash with the interface identifier. &#160;Messages sent from an IPv6 address can be protected by attaching the public key and auxiliary parameters and by signing the message with the corresponding private key. &#160;The protection works without a certification authority or any security infrastructure. [STANDARDS&#45;TRACK]" target="_top">
<ellipse fill="none" stroke="black" cx="716.09" cy="-197.99" rx="164.05" ry="52.33"/>
<text xml:space="preserve" text-anchor="middle" x="716.09" y="-217.69" font-family="Times,serif" font-size="14.00">RFC3972</text>
<text xml:space="preserve" text-anchor="middle" x="716.09" y="-201.19" font-family="Times,serif" font-size="14.00">Cryptographically Generated Addresses</text>
<text xml:space="preserve" text-anchor="middle" x="716.09" y="-184.69" font-family="Times,serif" font-size="14.00">(CGA)</text>
<text xml:space="preserve" text-anchor="middle" x="716.09" y="-168.19" font-family="Times,serif" font-size="14.00">2005</text>
</a>
</g>
</g>
<!-- cites&#45;&gt;RFC3972 -->
<g id="edge9" class="edge">
<title>cites&#45;&gt;RFC3972</title>
<path fill="none" stroke="black" d="M502.53,-302.53C513.11,-289.14 528.91,-271.45 546.2,-259.99 558.34,-251.95 571.66,-244.78 585.33,-238.44"/>
<polygon fill="black" stroke="black" points="586.75,-241.64 594.45,-234.36 583.89,-235.25 586.75,-241.64"/>
</g>
<!-- RFC4982 -->
<g id="node11" class="node">
<title>RFC4982</title>
<g id="a_node11"><a xlink:href="RFC4982.html" xlink:title="This document analyzes the implications of recent attacks on commonly used hash functions on Cryptographically Generated Addresses (CGAs) and updates the CGA specification to support multiple hash algorithms. [STANDARDS&#45;TRACK]" target="_top">
<ellipse fill="none" stroke="black" cx="716.09" cy="-63.99" rx="169.88" ry="63.99"/>
<text xml:space="preserve" text-anchor="middle" x="716.09" y="-91.94" font-family="Times,serif" font-size="14.00">RFC4982</text>
<text xml:space="preserve" text-anchor="middle" x="716.09" y="-75.44" font-family="Times,serif" font-size="14.00">Support for Multiple Hash Algorithms in</text>
<text xml:space="preserve" text-anchor="middle" x="716.09" y="-58.94" font-family="Times,serif" font-size="14.00">Cryptographically Generated Addresses</text>
<text xml:space="preserve" text-anchor="middle" x="716.09" y="-42.44" font-family="Times,serif" font-size="14.00">(CGAs)</text>
<text xml:space="preserve" text-anchor="middle" x="716.09" y="-25.94" font-family="Times,serif" font-size="14.00">2007</text>
</a>
</g>
</g>
<!-- cites&#45;&gt;RFC4982 -->
<g id="edge10" class="edge">
<title>cites&#45;&gt;RFC4982</title>
<path fill="none" stroke="black" d="M489.86,-302.62C492.34,-266.46 502.73,-185.39 546.2,-136.99 554.96,-127.25 565.24,-118.75 576.34,-111.35"/>
<polygon fill="black" stroke="black" points="577.95,-114.48 584.56,-106.2 574.23,-108.55 577.95,-114.48"/>
</g>
<!-- rev_cites -->
<g id="node12" class="node">
<title>rev_cites</title>
<polygon fill="lightblue" stroke="black" points="60.12,-338.99 6.12,-338.99 6.12,-302.99 60.12,-302.99 60.12,-338.99"/>
<text xml:space="preserve" text-anchor="middle" x="33.12" y="-315.94" font-family="Times,serif" font-size="14.00">cites</text>
</g>
<!-- rev_cites&#45;&gt;RFC6273 -->
<g id="edge11" class="edge">
<title>rev_cites&#45;&gt;RFC6273</title>
<path fill="none" stroke="black" d="M60.43,-327.29C74.87,-330.75 94.05,-335.34 114.8,-340.31"/>
<polygon fill="black" stroke="black" points="113.77,-343.67 124.31,-342.59 115.4,-336.86 113.77,-343.67"/>
</g>
</g>
</svg>
