<?xml version="1.0" encoding="UTF-8" standalone="no"?>
<!DOCTYPE svg PUBLIC "-//W3C//DTD SVG 1.1//EN"
 "http://www.w3.org/Graphics/SVG/1.1/DTD/svg11.dtd">
<!-- Generated by graphviz version 14.1.1 (20251213.1925)
 -->
<!-- Title: Flow Pages: 1 -->
<svg width="1180pt" height="603pt"
 viewBox="0.00 0.00 1180.00 603.00" xmlns="http://www.w3.org/2000/svg" xmlns:xlink="http://www.w3.org/1999/xlink">
<g id="graph0" class="graph" transform="scale(1 1) rotate(0) translate(4 598.65)">
<title>Flow</title>
<polygon fill="white" stroke="none" points="-4,4 -4,-598.65 1176.24,-598.65 1176.24,4 -4,4"/>
<!-- RFC6563 -->
<g id="node1" class="node">
<title>RFC6563</title>
<g id="a_node1"><a xlink:title="This document provides a summary of issues related to the use of A6 records, discusses the current status, and moves RFC 2874 to Historic status, providing clarity to implementers and operators. &#160;This document is not an Internet Standards Track specification; it is published for informational purposes.">
<ellipse fill="green" stroke="black" cx="574.99" cy="-397.99" rx="125.33" ry="40.66"/>
<text xml:space="preserve" text-anchor="middle" x="574.99" y="-409.44" font-family="Times,serif" font-size="14.00">RFC6563</text>
<text xml:space="preserve" text-anchor="middle" x="574.99" y="-392.94" font-family="Times,serif" font-size="14.00">Moving A6 to Historic Status</text>
<text xml:space="preserve" text-anchor="middle" x="574.99" y="-376.44" font-family="Times,serif" font-size="14.00">2012</text>
</a>
</g>
</g>
<!-- obs -->
<g id="node3" class="node">
<title>obs</title>
<polygon fill="lightblue" stroke="black" points="791.57,-469.99 725.32,-469.99 725.32,-433.99 791.57,-433.99 791.57,-469.99"/>
<text xml:space="preserve" text-anchor="middle" x="758.45" y="-446.94" font-family="Times,serif" font-size="14.00">obsoletes</text>
</g>
<!-- RFC6563&#45;&gt;obs -->
<g id="edge2" class="edge">
<title>RFC6563&#45;&gt;obs</title>
<path fill="none" stroke="black" d="M668.31,-425.47C684.34,-430.24 700.3,-434.99 714.19,-439.12"/>
<polygon fill="black" stroke="black" points="712.82,-442.36 723.4,-441.86 714.82,-435.66 712.82,-442.36"/>
</g>
<!-- updates -->
<g id="node4" class="node">
<title>updates</title>
<polygon fill="lightyellow" stroke="black" points="787.07,-415.99 729.82,-415.99 729.82,-379.99 787.07,-379.99 787.07,-415.99"/>
<text xml:space="preserve" text-anchor="middle" x="758.45" y="-392.94" font-family="Times,serif" font-size="14.00">updates</text>
</g>
<!-- RFC6563&#45;&gt;updates -->
<g id="edge3" class="edge">
<title>RFC6563&#45;&gt;updates</title>
<path fill="none" stroke="black" d="M700.53,-397.99C706.68,-397.99 712.59,-397.99 718.11,-397.99"/>
<polygon fill="black" stroke="black" points="718.04,-401.49 728.04,-397.99 718.04,-394.49 718.04,-401.49"/>
</g>
<!-- cites -->
<g id="node6" class="node">
<title>cites</title>
<polygon fill="lightblue" stroke="black" points="785.45,-361.99 731.45,-361.99 731.45,-325.99 785.45,-325.99 785.45,-361.99"/>
<text xml:space="preserve" text-anchor="middle" x="758.45" y="-338.94" font-family="Times,serif" font-size="14.00">cites</text>
</g>
<!-- RFC6563&#45;&gt;cites -->
<g id="edge5" class="edge">
<title>RFC6563&#45;&gt;cites</title>
<path fill="none" stroke="black" d="M668.31,-370.52C686.73,-365.04 705.06,-359.58 720.27,-355.06"/>
<polygon fill="black" stroke="black" points="721.2,-358.43 729.78,-352.22 719.2,-351.72 721.2,-358.43"/>
</g>
<!-- obs_by -->
<g id="node2" class="node">
<title>obs_by</title>
<polygon fill="lightblue" stroke="black" points="424.65,-469.99 358.4,-469.99 358.4,-433.99 424.65,-433.99 424.65,-469.99"/>
<text xml:space="preserve" text-anchor="middle" x="391.53" y="-446.94" font-family="Times,serif" font-size="14.00">obsoletes</text>
</g>
<!-- obs_by&#45;&gt;RFC6563 -->
<g id="edge1" class="edge">
<title>obs_by&#45;&gt;RFC6563</title>
<path fill="none" stroke="black" d="M424.97,-442.34C438.1,-438.43 454.05,-433.68 470.57,-428.77"/>
<polygon fill="black" stroke="black" points="471.46,-432.16 480.04,-425.95 469.46,-425.45 471.46,-432.16"/>
</g>
<!-- updated_by -->
<g id="node5" class="node">
<title>updated_by</title>
<polygon fill="lightyellow" stroke="black" points="420.15,-415.99 362.9,-415.99 362.9,-379.99 420.15,-379.99 420.15,-415.99"/>
<text xml:space="preserve" text-anchor="middle" x="391.53" y="-392.94" font-family="Times,serif" font-size="14.00">updates</text>
</g>
<!-- updated_by&#45;&gt;RFC6563 -->
<g id="edge4" class="edge">
<title>updated_by&#45;&gt;RFC6563</title>
<path fill="none" stroke="black" d="M420.48,-397.99C425.89,-397.99 431.89,-397.99 438.29,-397.99"/>
<polygon fill="black" stroke="black" points="437.89,-401.49 447.89,-397.99 437.89,-394.49 437.89,-401.49"/>
</g>
<!-- RFC1886 -->
<g id="node7" class="node">
<title>RFC1886</title>
<g id="a_node7"><a xlink:href="RFC1886.html" xlink:title="This document defines the changes that need to be made to the Domain Name System to support hosts running IP version 6 (IPv6). [STANDARDS&#45;TRACK]" target="_top">
<ellipse fill="none" stroke="black" cx="994.41" cy="-553.99" rx="165.11" ry="40.66"/>
<text xml:space="preserve" text-anchor="middle" x="994.41" y="-565.44" font-family="Times,serif" font-size="14.00">RFC1886</text>
<text xml:space="preserve" text-anchor="middle" x="994.41" y="-548.94" font-family="Times,serif" font-size="14.00">DNS Extensions to support IP version 6</text>
<text xml:space="preserve" text-anchor="middle" x="994.41" y="-532.44" font-family="Times,serif" font-size="14.00">1995</text>
</a>
</g>
</g>
<!-- cites&#45;&gt;RFC1886 -->
<g id="edge6" class="edge">
<title>cites&#45;&gt;RFC1886</title>
<path fill="none" stroke="black" d="M784.81,-362.19C787.39,-364.9 789.73,-367.85 791.57,-370.99 822.1,-423.32 775.61,-460.36 816.57,-504.99 824.57,-513.71 833.97,-520.93 844.19,-526.9"/>
<polygon fill="black" stroke="black" points="842.42,-529.92 852.89,-531.54 845.72,-523.75 842.42,-529.92"/>
</g>
<!-- RFC3596 -->
<g id="node8" class="node">
<title>RFC3596</title>
<g id="a_node8"><a xlink:href="RFC3596.html" xlink:title="This document defines the changes that need to be made to the Domain Name System (DNS) to support hosts running IP version 6 (IPv6). &#160;The changes include a resource record type to store an IPv6 address, a domain to support lookups based on an IPv6 address, and updated definitions of existing query types that return Internet addresses as part of additional section processing. &#160;The extensions are designed to be compatible with existing applications and, in particular, DNS implementations themselves. [STANDARDS&#45;TRACK]" target="_top">
<ellipse fill="none" stroke="black" cx="994.41" cy="-454.99" rx="167.76" ry="40.66"/>
<text xml:space="preserve" text-anchor="middle" x="994.41" y="-466.44" font-family="Times,serif" font-size="14.00">RFC3596</text>
<text xml:space="preserve" text-anchor="middle" x="994.41" y="-449.94" font-family="Times,serif" font-size="14.00">DNS Extensions to Support IP Version 6</text>
<text xml:space="preserve" text-anchor="middle" x="994.41" y="-433.44" font-family="Times,serif" font-size="14.00">2003</text>
</a>
</g>
</g>
<!-- cites&#45;&gt;RFC3596 -->
<g id="edge7" class="edge">
<title>cites&#45;&gt;RFC3596</title>
<path fill="none" stroke="black" d="M782.52,-362.23C785.67,-365.05 788.78,-368.02 791.57,-370.99 804.4,-384.68 801.16,-394.31 816.57,-404.99 827.85,-412.81 840.32,-419.41 853.28,-424.99"/>
<polygon fill="black" stroke="black" points="851.78,-428.15 862.36,-428.67 854.41,-421.67 851.78,-428.15"/>
</g>
<!-- RFC2874 -->
<g id="node9" class="node">
<title>RFC2874</title>
<g id="a_node9"><a xlink:href="RFC2874.html" xlink:title="This document defines changes to the Domain Name System to support renumberable and aggregatable IPv6 addressing. [STANDARDS&#45;TRACK]" target="_top">
<ellipse fill="none" stroke="black" cx="994.41" cy="-343.99" rx="172" ry="52.33"/>
<text xml:space="preserve" text-anchor="middle" x="994.41" y="-363.69" font-family="Times,serif" font-size="14.00">RFC2874</text>
<text xml:space="preserve" text-anchor="middle" x="994.41" y="-347.19" font-family="Times,serif" font-size="14.00">DNS Extensions to Support IPv6 Address</text>
<text xml:space="preserve" text-anchor="middle" x="994.41" y="-330.69" font-family="Times,serif" font-size="14.00">Aggregation and Renumbering</text>
<text xml:space="preserve" text-anchor="middle" x="994.41" y="-314.19" font-family="Times,serif" font-size="14.00">2000</text>
</a>
</g>
</g>
<!-- cites&#45;&gt;RFC2874 -->
<g id="edge8" class="edge">
<title>cites&#45;&gt;RFC2874</title>
<path fill="none" stroke="black" d="M785.83,-343.99C793.13,-343.99 801.64,-343.99 810.98,-343.99"/>
<polygon fill="black" stroke="black" points="810.77,-347.49 820.77,-343.99 810.77,-340.49 810.77,-347.49"/>
</g>
<!-- RFC3363 -->
<g id="node10" class="node">
<title>RFC3363</title>
<g id="a_node10"><a xlink:href="RFC3363.html" xlink:title="None" target="_top">
<ellipse fill="none" stroke="black" cx="994.41" cy="-209.99" rx="167.23" ry="63.99"/>
<text xml:space="preserve" text-anchor="middle" x="994.41" y="-237.94" font-family="Times,serif" font-size="14.00">RFC3363</text>
<text xml:space="preserve" text-anchor="middle" x="994.41" y="-221.44" font-family="Times,serif" font-size="14.00">Representing Internet Protocol version 6</text>
<text xml:space="preserve" text-anchor="middle" x="994.41" y="-204.94" font-family="Times,serif" font-size="14.00">(IPv6) Addresses in the Domain Name</text>
<text xml:space="preserve" text-anchor="middle" x="994.41" y="-188.44" font-family="Times,serif" font-size="14.00">System (DNS)</text>
<text xml:space="preserve" text-anchor="middle" x="994.41" y="-171.94" font-family="Times,serif" font-size="14.00">2002</text>
</a>
</g>
</g>
<!-- cites&#45;&gt;RFC3363 -->
<g id="edge9" class="edge">
<title>cites&#45;&gt;RFC3363</title>
<path fill="none" stroke="black" d="M773.03,-325.73C783.68,-312.44 799.5,-294.79 816.57,-282.99 830.02,-273.7 844.83,-265.28 859.99,-257.74"/>
<polygon fill="black" stroke="black" points="861.14,-261.07 868.62,-253.57 858.1,-254.77 861.14,-261.07"/>
</g>
<!-- RFC3364 -->
<g id="node11" class="node">
<title>RFC3364</title>
<g id="a_node11"><a xlink:href="RFC3364.html" xlink:title="None" target="_top">
<ellipse fill="none" stroke="black" cx="994.41" cy="-63.99" rx="177.84" ry="63.99"/>
<text xml:space="preserve" text-anchor="middle" x="994.41" y="-91.94" font-family="Times,serif" font-size="14.00">RFC3364</text>
<text xml:space="preserve" text-anchor="middle" x="994.41" y="-75.44" font-family="Times,serif" font-size="14.00">Tradeoffs in Domain Name System (DNS)</text>
<text xml:space="preserve" text-anchor="middle" x="994.41" y="-58.94" font-family="Times,serif" font-size="14.00">Support for Internet Protocol version 6</text>
<text xml:space="preserve" text-anchor="middle" x="994.41" y="-42.44" font-family="Times,serif" font-size="14.00">(IPv6)</text>
<text xml:space="preserve" text-anchor="middle" x="994.41" y="-25.94" font-family="Times,serif" font-size="14.00">2002</text>
</a>
</g>
</g>
<!-- cites&#45;&gt;RFC3364 -->
<g id="edge10" class="edge">
<title>cites&#45;&gt;RFC3364</title>
<path fill="none" stroke="black" d="M759.38,-325.74C760.2,-286.35 767.54,-192.42 816.57,-136.99 825.42,-126.98 835.86,-118.32 847.17,-110.82"/>
<polygon fill="black" stroke="black" points="848.93,-113.85 855.57,-105.59 845.23,-107.9 848.93,-113.85"/>
</g>
<!-- rev_cites -->
<g id="node12" class="node">
<title>rev_cites</title>
<polygon fill="lightblue" stroke="black" points="418.53,-361.99 364.53,-361.99 364.53,-325.99 418.53,-325.99 418.53,-361.99"/>
<text xml:space="preserve" text-anchor="middle" x="391.53" y="-338.94" font-family="Times,serif" font-size="14.00">cites</text>
</g>
<!-- rev_cites&#45;&gt;RFC6563 -->
<g id="edge11" class="edge">
<title>rev_cites&#45;&gt;RFC6563</title>
<path fill="none" stroke="black" d="M418.91,-351.85C433.03,-356.05 451.43,-361.52 470.59,-367.23"/>
<polygon fill="black" stroke="black" points="469.58,-370.58 480.17,-370.07 471.58,-363.87 469.58,-370.58"/>
</g>
<!-- RFC6879 -->
<g id="node13" class="node">
<title>RFC6879</title>
<g id="a_node13"><a xlink:href="RFC6879.html" xlink:title="This document analyzes events that cause renumbering and describes the current renumbering methods. &#160;These are described in three categories: those applicable during network design, those applicable during preparation for renumbering, and those applicable during the renumbering operation." target="_top">
<ellipse fill="none" stroke="black" cx="166.7" cy="-454.99" rx="166.7" ry="52.33"/>
<text xml:space="preserve" text-anchor="middle" x="166.7" y="-474.69" font-family="Times,serif" font-size="14.00">RFC6879</text>
<text xml:space="preserve" text-anchor="middle" x="166.7" y="-458.19" font-family="Times,serif" font-size="14.00">IPv6 Enterprise Network Renumbering</text>
<text xml:space="preserve" text-anchor="middle" x="166.7" y="-441.69" font-family="Times,serif" font-size="14.00">Scenarios, Considerations, and Methods</text>
<text xml:space="preserve" text-anchor="middle" x="166.7" y="-425.19" font-family="Times,serif" font-size="14.00">2013</text>
</a>
</g>
</g>
<!-- RFC6879&#45;&gt;rev_cites -->
<g id="edge12" class="edge">
<title>RFC6879&#45;&gt;rev_cites</title>
<path fill="none" stroke="black" d="M285.82,-418.04C302.29,-411.03 318.62,-403.02 333.4,-393.99 346.29,-386.12 347.06,-380.96 358.4,-370.99 358.8,-370.64 359.2,-370.29 359.6,-369.94"/>
<polygon fill="black" stroke="black" points="361.85,-372.62 367.15,-363.44 357.29,-367.32 361.85,-372.62"/>
</g>
<!-- RFC7010 -->
<g id="node14" class="node">
<title>RFC7010</title>
<g id="a_node14"><a xlink:href="RFC7010.html" xlink:title="This document briefly introduces the existing mechanisms that could be utilized for IPv6 site renumbering and tries to cover most of the explicit issues and requirements associated with IPv6 renumbering. &#160;The content is mainly a gap analysis that provides a basis for future works to identify and develop solutions or to stimulate such development as appropriate. &#160;The gap analysis is organized by the main steps of a renumbering process." target="_top">
<ellipse fill="none" stroke="black" cx="166.7" cy="-343.99" rx="156.09" ry="40.66"/>
<text xml:space="preserve" text-anchor="middle" x="166.7" y="-355.44" font-family="Times,serif" font-size="14.00">RFC7010</text>
<text xml:space="preserve" text-anchor="middle" x="166.7" y="-338.94" font-family="Times,serif" font-size="14.00">IPv6 Site Renumbering Gap Analysis</text>
<text xml:space="preserve" text-anchor="middle" x="166.7" y="-322.44" font-family="Times,serif" font-size="14.00">2013</text>
</a>
</g>
</g>
<!-- RFC7010&#45;&gt;rev_cites -->
<g id="edge13" class="edge">
<title>RFC7010&#45;&gt;rev_cites</title>
<path fill="none" stroke="black" d="M323.07,-343.99C333.81,-343.99 343.9,-343.99 352.84,-343.99"/>
<polygon fill="black" stroke="black" points="352.77,-347.49 362.77,-343.99 352.77,-340.49 352.77,-347.49"/>
</g>
<!-- RFC8504 -->
<g id="node15" class="node">
<title>RFC8504</title>
<g id="a_node15"><a xlink:href="RFC8504.html" xlink:title="This document defines requirements for IPv6 nodes. It is expected that IPv6 will be deployed in a wide range of devices and situations. Specifying the requirements for IPv6 nodes allows IPv6 to function well and interoperate in a large number of situations and deployments. This document obsoletes RFC 6434, and in turn RFC 4294." target="_top">
<ellipse fill="none" stroke="black" cx="166.7" cy="-244.99" rx="108.89" ry="40.66"/>
<text xml:space="preserve" text-anchor="middle" x="166.7" y="-256.44" font-family="Times,serif" font-size="14.00">RFC8504</text>
<text xml:space="preserve" text-anchor="middle" x="166.7" y="-239.94" font-family="Times,serif" font-size="14.00">IPv6 Node Requirements</text>
<text xml:space="preserve" text-anchor="middle" x="166.7" y="-223.44" font-family="Times,serif" font-size="14.00">2019</text>
</a>
</g>
</g>
<!-- RFC8504&#45;&gt;rev_cites -->
<g id="edge14" class="edge">
<title>RFC8504&#45;&gt;rev_cites</title>
<path fill="none" stroke="black" d="M261.69,-265.17C285.9,-272.39 311.33,-281.84 333.4,-293.99 344.89,-300.32 356.08,-309.28 365.47,-317.88"/>
<polygon fill="black" stroke="black" points="362.8,-320.17 372.45,-324.54 367.63,-315.1 362.8,-320.17"/>
</g>
</g>
</svg>
