<?xml version="1.0" encoding="UTF-8" standalone="no"?>
<!DOCTYPE svg PUBLIC "-//W3C//DTD SVG 1.1//EN"
 "http://www.w3.org/Graphics/SVG/1.1/DTD/svg11.dtd">
<!-- Generated by graphviz version 14.1.1 (20251213.1925)
 -->
<!-- Title: Flow Pages: 1 -->
<svg width="1329pt" height="1351pt"
 viewBox="0.00 0.00 1329.00 1351.00" xmlns="http://www.w3.org/2000/svg" xmlns:xlink="http://www.w3.org/1999/xlink">
<g id="graph0" class="graph" transform="scale(1 1) rotate(0) translate(4 1346.57)">
<title>Flow</title>
<polygon fill="white" stroke="none" points="-4,4 -4,-1346.57 1325.33,-1346.57 1325.33,4 -4,4"/>
<!-- RFC6366 -->
<g id="node1" class="node">
<title>RFC6366</title>
<g id="a_node1"><a xlink:title="This document provides specific requirements for an Internet audio codec. &#160;These requirements address quality, sampling rate, bit&#45;rate, and packet&#45;loss robustness, as well as other desirable properties. &#160;This document is not an Internet Standards Track specification; it is published for informational purposes.">
<ellipse fill="green" stroke="black" stroke-width="3" cx="924.12" cy="-538.77" rx="230.34" ry="50.2"/>
<text xml:space="preserve" text-anchor="middle" x="924.12" y="-553.17" font-family="Times,serif" font-size="18.00">RFC6366</text>
<text xml:space="preserve" text-anchor="middle" x="924.12" y="-532.17" font-family="Times,serif" font-size="18.00">Requirements for an Internet Audio Codec</text>
<text xml:space="preserve" text-anchor="middle" x="924.12" y="-511.17" font-family="Times,serif" font-size="18.00">2011</text>
</a>
</g>
</g>
<!-- obs -->
<g id="node3" class="node">
<title>obs</title>
<polygon fill="lightblue" stroke="black" points="1321.33,-689.28 1255.08,-689.28 1255.08,-653.28 1321.33,-653.28 1321.33,-689.28"/>
<text xml:space="preserve" text-anchor="middle" x="1288.21" y="-666.23" font-family="Times,serif" font-size="14.00">obsoletes</text>
</g>
<!-- RFC6366&#45;&gt;obs -->
<g id="edge2" class="edge">
<title>RFC6366&#45;&gt;obs</title>
<path fill="none" stroke="black" d="M1045.1,-582.8C1113.59,-607.73 1195.12,-637.4 1244.21,-655.27"/>
<polygon fill="black" stroke="black" points="1242.76,-658.47 1253.35,-658.6 1245.15,-651.89 1242.76,-658.47"/>
</g>
<!-- updates -->
<g id="node4" class="node">
<title>updates</title>
<polygon fill="lightyellow" stroke="black" points="1146.47,-892.32 1089.22,-892.32 1089.22,-856.32 1146.47,-856.32 1146.47,-892.32"/>
<text xml:space="preserve" text-anchor="middle" x="1117.85" y="-869.27" font-family="Times,serif" font-size="14.00">updates</text>
</g>
<!-- RFC6366&#45;&gt;updates -->
<g id="edge3" class="edge">
<title>RFC6366&#45;&gt;updates</title>
<path fill="none" stroke="black" d="M953.54,-589.73C994.99,-661.53 1069.16,-789.99 1101.75,-846.43"/>
<polygon fill="black" stroke="black" points="1098.54,-847.88 1106.57,-854.79 1104.6,-844.38 1098.54,-847.88"/>
</g>
<!-- cites -->
<g id="node6" class="node">
<title>cites</title>
<polygon fill="lightblue" stroke="black" points="587.03,-689.28 533.03,-689.28 533.03,-653.28 587.03,-653.28 587.03,-689.28"/>
<text xml:space="preserve" text-anchor="middle" x="560.03" y="-666.23" font-family="Times,serif" font-size="14.00">cites</text>
</g>
<!-- RFC6366&#45;&gt;cites -->
<g id="edge5" class="edge">
<title>RFC6366&#45;&gt;cites</title>
<path fill="none" stroke="black" d="M803.13,-582.8C731.72,-608.79 646.12,-639.95 597.91,-657.5"/>
<polygon fill="black" stroke="black" points="596.97,-654.11 588.77,-660.82 599.36,-660.69 596.97,-654.11"/>
</g>
<!-- obs_by -->
<g id="node2" class="node">
<title>obs_by</title>
<polygon fill="lightblue" stroke="black" points="889.96,-175.19 823.71,-175.19 823.71,-139.19 889.96,-139.19 889.96,-175.19"/>
<text xml:space="preserve" text-anchor="middle" x="856.84" y="-152.14" font-family="Times,serif" font-size="14.00">obsoletes</text>
</g>
<!-- obs_by&#45;&gt;RFC6366 -->
<g id="edge1" class="edge">
<title>obs_by&#45;&gt;RFC6366</title>
<path fill="none" stroke="black" d="M860.08,-175.6C869.54,-229.22 897.38,-387.15 913.06,-476.07"/>
<polygon fill="black" stroke="black" points="909.61,-476.62 914.79,-485.86 916.5,-475.41 909.61,-476.62"/>
</g>
<!-- updated_by -->
<g id="node5" class="node">
<title>updated_by</title>
<polygon fill="lightyellow" stroke="black" points="1146.47,-221.22 1089.22,-221.22 1089.22,-185.22 1146.47,-185.22 1146.47,-221.22"/>
<text xml:space="preserve" text-anchor="middle" x="1117.85" y="-198.17" font-family="Times,serif" font-size="14.00">updates</text>
</g>
<!-- updated_by&#45;&gt;RFC6366 -->
<g id="edge4" class="edge">
<title>updated_by&#45;&gt;RFC6366</title>
<path fill="none" stroke="black" d="M1107.43,-221.26C1079.92,-268.91 1004.35,-399.8 959.29,-477.85"/>
<polygon fill="black" stroke="black" points="956.4,-475.84 954.44,-486.25 962.47,-479.34 956.4,-475.84"/>
</g>
<!-- RFC3261 -->
<g id="node7" class="node">
<title>RFC3261</title>
<g id="a_node7"><a xlink:href="RFC3261.html" xlink:title="This document describes Session Initiation Protocol (SIP), an application&#45;layer control (signaling) protocol for creating, modifying, and terminating sessions with one or more participants. &#160;These sessions include Internet telephone calls, multimedia distribution, and multimedia conferences. [STANDARDS&#45;TRACK]" target="_top">
<ellipse fill="none" stroke="black" cx="789.55" cy="-1301.91" rx="132.23" ry="40.66"/>
<text xml:space="preserve" text-anchor="middle" x="789.55" y="-1313.36" font-family="Times,serif" font-size="14.00">RFC3261</text>
<text xml:space="preserve" text-anchor="middle" x="789.55" y="-1296.86" font-family="Times,serif" font-size="14.00">SIP: Session Initiation Protocol</text>
<text xml:space="preserve" text-anchor="middle" x="789.55" y="-1280.36" font-family="Times,serif" font-size="14.00">2002</text>
</a>
</g>
</g>
<!-- cites&#45;&gt;RFC3261 -->
<g id="edge6" class="edge">
<title>cites&#45;&gt;RFC3261</title>
<path fill="none" stroke="black" d="M566.65,-689.48C596.96,-772.76 723.06,-1119.23 770.97,-1250.86"/>
<polygon fill="black" stroke="black" points="767.6,-1251.82 774.31,-1260.02 774.18,-1249.43 767.6,-1251.82"/>
</g>
<!-- RFC4566 -->
<g id="node8" class="node">
<title>RFC4566</title>
<g id="a_node8"><a xlink:href="RFC4566.html" xlink:title="This memo defines the Session Description Protocol (SDP). &#160;SDP is intended for describing multimedia sessions for the purposes of session announcement, session invitation, and other forms of multimedia session initiation. [STANDARDS&#45;TRACK]" target="_top">
<ellipse fill="none" stroke="black" cx="330.5" cy="-1036.87" rx="145.49" ry="40.66"/>
<text xml:space="preserve" text-anchor="middle" x="330.5" y="-1048.32" font-family="Times,serif" font-size="14.00">RFC4566</text>
<text xml:space="preserve" text-anchor="middle" x="330.5" y="-1031.82" font-family="Times,serif" font-size="14.00">SDP: Session Description Protocol</text>
<text xml:space="preserve" text-anchor="middle" x="330.5" y="-1015.32" font-family="Times,serif" font-size="14.00">2006</text>
</a>
</g>
</g>
<!-- cites&#45;&gt;RFC4566 -->
<g id="edge7" class="edge">
<title>cites&#45;&gt;RFC4566</title>
<path fill="none" stroke="black" d="M548.49,-689.67C514.46,-743.86 413.69,-904.37 361.94,-986.79"/>
<polygon fill="black" stroke="black" points="359.04,-984.83 356.68,-995.16 364.97,-988.55 359.04,-984.83"/>
</g>
<!-- RFC6120 -->
<g id="node9" class="node">
<title>RFC6120</title>
<g id="a_node9"><a xlink:href="RFC6120.html" xlink:title="The Extensible Messaging and Presence Protocol (XMPP) is an application profile of the Extensible Markup Language (XML) that enables the near&#45;real&#45;time exchange of structured yet extensible data between any two or more network entities. &#160;This document defines XMPP&#39;s core protocol methods: setup and teardown of XML streams, channel encryption, authentication, error handling, and communication primitives for messaging, network availability (presence), and request&#45;response interactions. &#160;This document obsoletes RFC 3920. [STANDARDS&#45;TRACK]" target="_top">
<ellipse fill="none" stroke="black" cx="149.2" cy="-538.77" rx="149.2" ry="52.33"/>
<text xml:space="preserve" text-anchor="middle" x="149.2" y="-558.47" font-family="Times,serif" font-size="14.00">RFC6120</text>
<text xml:space="preserve" text-anchor="middle" x="149.2" y="-541.97" font-family="Times,serif" font-size="14.00">Extensible Messaging and Presence</text>
<text xml:space="preserve" text-anchor="middle" x="149.2" y="-525.47" font-family="Times,serif" font-size="14.00">Protocol (XMPP): Core</text>
<text xml:space="preserve" text-anchor="middle" x="149.2" y="-508.97" font-family="Times,serif" font-size="14.00">2011</text>
</a>
</g>
</g>
<!-- cites&#45;&gt;RFC6120 -->
<g id="edge8" class="edge">
<title>cites&#45;&gt;RFC6120</title>
<path fill="none" stroke="black" d="M532.75,-662.49C480.09,-645.5 361.53,-607.26 270.06,-577.75"/>
<polygon fill="black" stroke="black" points="271.36,-574.49 260.77,-574.75 269.21,-581.16 271.36,-574.49"/>
</g>
<!-- RFC3951 -->
<g id="node10" class="node">
<title>RFC3951</title>
<g id="a_node10"><a xlink:href="RFC3951.html" xlink:title="This document specifies a speech codec suitable for robust voice communication over IP. &#160;The codec is developed by Global IP Sound (GIPS). &#160;It is designed for narrow band speech and results in a payload bit rate of 13.33 kbit/s for 30 ms frames and 15.20 kbit/s for 20 ms frames. &#160;The codec enables graceful speech quality degradation in the case of lost frames, which occurs in connection with lost or delayed IP packets. &#160;This memo defines an Experimental Protocol for the Internet community." target="_top">
<ellipse fill="none" stroke="black" cx="330.5" cy="-40.66" rx="152.91" ry="40.66"/>
<text xml:space="preserve" text-anchor="middle" x="330.5" y="-52.11" font-family="Times,serif" font-size="14.00">RFC3951</text>
<text xml:space="preserve" text-anchor="middle" x="330.5" y="-35.61" font-family="Times,serif" font-size="14.00">Internet Low Bit Rate Codec (iLBC)</text>
<text xml:space="preserve" text-anchor="middle" x="330.5" y="-19.11" font-family="Times,serif" font-size="14.00">2004</text>
</a>
</g>
</g>
<!-- cites&#45;&gt;RFC3951 -->
<g id="edge9" class="edge">
<title>cites&#45;&gt;RFC3951</title>
<path fill="none" stroke="black" d="M553.4,-653.09C523.13,-569.9 397.29,-224.16 349.25,-92.18"/>
<polygon fill="black" stroke="black" points="352.61,-91.18 345.9,-82.98 346.03,-93.58 352.61,-91.18"/>
</g>
<!-- rev_cites -->
<g id="node11" class="node">
<title>rev_cites</title>
<polygon fill="lightblue" stroke="black" points="1315.21,-424.25 1261.21,-424.25 1261.21,-388.25 1315.21,-388.25 1315.21,-424.25"/>
<text xml:space="preserve" text-anchor="middle" x="1288.21" y="-401.2" font-family="Times,serif" font-size="14.00">cites</text>
</g>
<!-- rev_cites&#45;&gt;RFC6366 -->
<g id="edge10" class="edge">
<title>rev_cites&#45;&gt;RFC6366</title>
<path fill="none" stroke="black" d="M1260.84,-416.21C1217.49,-431.99 1130.24,-463.74 1055.43,-490.97"/>
<polygon fill="black" stroke="black" points="1054.58,-487.56 1046.38,-494.27 1056.97,-494.13 1054.58,-487.56"/>
</g>
</g>
</svg>
