<?xml version="1.0" encoding="UTF-8" standalone="no"?>
<!DOCTYPE svg PUBLIC "-//W3C//DTD SVG 1.1//EN"
 "http://www.w3.org/Graphics/SVG/1.1/DTD/svg11.dtd">
<!-- Generated by graphviz version 14.1.1 (20251213.1925)
 -->
<!-- Title: Flow Pages: 1 -->
<svg width="1560pt" height="1290pt"
 viewBox="0.00 0.00 1560.00 1290.00" xmlns="http://www.w3.org/2000/svg" xmlns:xlink="http://www.w3.org/1999/xlink">
<g id="graph0" class="graph" transform="scale(1 1) rotate(0) translate(4 1286.29)">
<title>Flow</title>
<polygon fill="white" stroke="none" points="-4,4 -4,-1286.29 1555.73,-1286.29 1555.73,4 -4,4"/>
<!-- RFC6906 -->
<g id="node1" class="node">
<title>RFC6906</title>
<g id="a_node1"><a xlink:title="This specification defines the &#39;profile&#39; link relation type that allows resource representations to indicate that they are following one or more profiles. &#160;A profile is defined not to alter the semantics of the resource representation itself, but to allow clients to learn about additional semantics (constraints, conventions, extensions) that are associated with the resource representation, in addition to those defined by the media type and possibly other mechanisms.">
<ellipse fill="green" stroke="black" stroke-width="3" cx="767.32" cy="-602.61" rx="176.78" ry="50.2"/>
<text xml:space="preserve" text-anchor="middle" x="767.32" y="-617.01" font-family="Times,serif" font-size="18.00">RFC6906</text>
<text xml:space="preserve" text-anchor="middle" x="767.32" y="-596.01" font-family="Times,serif" font-size="18.00">The &#39;profile&#39; Link Relation Type</text>
<text xml:space="preserve" text-anchor="middle" x="767.32" y="-575.01" font-family="Times,serif" font-size="18.00">2013</text>
</a>
</g>
</g>
<!-- obs -->
<g id="node3" class="node">
<title>obs</title>
<polygon fill="lightblue" stroke="black" points="1105.32,-731.57 1039.07,-731.57 1039.07,-695.57 1105.32,-695.57 1105.32,-731.57"/>
<text xml:space="preserve" text-anchor="middle" x="1072.2" y="-708.52" font-family="Times,serif" font-size="14.00">obsoletes</text>
</g>
<!-- RFC6906&#45;&gt;obs -->
<g id="edge2" class="edge">
<title>RFC6906&#45;&gt;obs</title>
<path fill="none" stroke="black" d="M878.25,-642.98C930.12,-661.86 988.93,-683.27 1028.06,-697.51"/>
<polygon fill="black" stroke="black" points="1026.78,-700.77 1037.37,-700.9 1029.17,-694.19 1026.78,-700.77"/>
</g>
<!-- updates -->
<g id="node4" class="node">
<title>updates</title>
<polygon fill="lightyellow" stroke="black" points="958.17,-901.58 900.92,-901.58 900.92,-865.58 958.17,-865.58 958.17,-901.58"/>
<text xml:space="preserve" text-anchor="middle" x="929.54" y="-878.53" font-family="Times,serif" font-size="14.00">updates</text>
</g>
<!-- RFC6906&#45;&gt;updates -->
<g id="edge3" class="edge">
<title>RFC6906&#45;&gt;updates</title>
<path fill="none" stroke="black" d="M796.7,-653.49C830.82,-712.59 885.91,-808.01 913.18,-855.24"/>
<polygon fill="black" stroke="black" points="910.08,-856.87 918.11,-863.78 916.14,-853.37 910.08,-856.87"/>
</g>
<!-- cites -->
<g id="node6" class="node">
<title>cites</title>
<polygon fill="lightblue" stroke="black" points="545.79,-829.16 491.79,-829.16 491.79,-793.16 545.79,-793.16 545.79,-829.16"/>
<text xml:space="preserve" text-anchor="middle" x="518.79" y="-806.11" font-family="Times,serif" font-size="14.00">cites</text>
</g>
<!-- RFC6906&#45;&gt;cites -->
<g id="edge5" class="edge">
<title>RFC6906&#45;&gt;cites</title>
<path fill="none" stroke="black" d="M709.37,-651.24C659.33,-693.22 589.01,-752.23 549.27,-785.57"/>
<polygon fill="black" stroke="black" points="547.14,-782.8 541.73,-791.91 551.64,-788.16 547.14,-782.8"/>
</g>
<!-- obs_by -->
<g id="node2" class="node">
<title>obs_by</title>
<polygon fill="lightblue" stroke="black" points="551.91,-412.06 485.66,-412.06 485.66,-376.06 551.91,-376.06 551.91,-412.06"/>
<text xml:space="preserve" text-anchor="middle" x="518.79" y="-389.01" font-family="Times,serif" font-size="14.00">obsoletes</text>
</g>
<!-- obs_by&#45;&gt;RFC6906 -->
<g id="edge1" class="edge">
<title>obs_by&#45;&gt;RFC6906</title>
<path fill="none" stroke="black" d="M540.41,-412.2C575.7,-441.82 647.11,-501.74 700.44,-546.49"/>
<polygon fill="black" stroke="black" points="698.1,-549.09 708.01,-552.84 702.6,-543.73 698.1,-549.09"/>
</g>
<!-- updated_by -->
<g id="node5" class="node">
<title>updated_by</title>
<polygon fill="lightyellow" stroke="black" points="739.61,-301.1 682.36,-301.1 682.36,-265.1 739.61,-265.1 739.61,-301.1"/>
<text xml:space="preserve" text-anchor="middle" x="710.99" y="-278.05" font-family="Times,serif" font-size="14.00">updates</text>
</g>
<!-- updated_by&#45;&gt;RFC6906 -->
<g id="edge4" class="edge">
<title>updated_by&#45;&gt;RFC6906</title>
<path fill="none" stroke="black" d="M714.18,-301.19C722.15,-346.39 743.23,-465.95 756.32,-540.19"/>
<polygon fill="black" stroke="black" points="752.82,-540.52 758.01,-549.76 759.72,-539.3 752.82,-540.52"/>
</g>
<!-- RFC5988 -->
<g id="node7" class="node">
<title>RFC5988</title>
<g id="a_node7"><a xlink:href="RFC5988.html" xlink:title="This document specifies relation types for Web links, and defines a registry for them. &#160;It also defines the use of such links in HTTP headers with the Link header field. [STANDARDS&#45;TRACK]" target="_top">
<ellipse fill="none" stroke="black" cx="654.65" cy="-1241.63" rx="62.23" ry="40.66"/>
<text xml:space="preserve" text-anchor="middle" x="654.65" y="-1253.08" font-family="Times,serif" font-size="14.00">RFC5988</text>
<text xml:space="preserve" text-anchor="middle" x="654.65" y="-1236.58" font-family="Times,serif" font-size="14.00">Web Linking</text>
<text xml:space="preserve" text-anchor="middle" x="654.65" y="-1220.08" font-family="Times,serif" font-size="14.00">2010</text>
</a>
</g>
</g>
<!-- cites&#45;&gt;RFC5988 -->
<g id="edge6" class="edge">
<title>cites&#45;&gt;RFC5988</title>
<path fill="none" stroke="black" d="M524.62,-829.65C544.24,-891.81 608.24,-1094.61 638.51,-1190.5"/>
<polygon fill="black" stroke="black" points="635.14,-1191.45 641.49,-1199.93 641.81,-1189.34 635.14,-1191.45"/>
</g>
<!-- RFC2119 -->
<g id="node8" class="node">
<title>RFC2119</title>
<g id="a_node8"><a xlink:href="RFC2119.html" xlink:title="In many standards track documents several words are used to signify the requirements in the specification. &#160;These words are often capitalized. &#160;This document defines these words as they should be interpreted in IETF documents. &#160;This document specifies an Internet Best Current Practices for the Internet Community, and requests discussion and suggestions for improvements." target="_top">
<ellipse fill="none" stroke="black" cx="270.25" cy="-1019.7" rx="160.34" ry="52.33"/>
<text xml:space="preserve" text-anchor="middle" x="270.25" y="-1039.4" font-family="Times,serif" font-size="14.00">RFC2119</text>
<text xml:space="preserve" text-anchor="middle" x="270.25" y="-1022.9" font-family="Times,serif" font-size="14.00">Key words for use in RFCs to Indicate</text>
<text xml:space="preserve" text-anchor="middle" x="270.25" y="-1006.4" font-family="Times,serif" font-size="14.00">Requirement Levels</text>
<text xml:space="preserve" text-anchor="middle" x="270.25" y="-989.9" font-family="Times,serif" font-size="14.00">1997</text>
</a>
</g>
</g>
<!-- cites&#45;&gt;RFC2119 -->
<g id="edge7" class="edge">
<title>cites&#45;&gt;RFC2119</title>
<path fill="none" stroke="black" d="M497.17,-829.3C461.93,-858.87 390.69,-918.64 337.38,-963.37"/>
<polygon fill="black" stroke="black" points="335.23,-960.61 329.82,-969.72 339.73,-965.97 335.23,-960.61"/>
</g>
<!-- RFC6350 -->
<g id="node9" class="node">
<title>RFC6350</title>
<g id="a_node9"><a xlink:href="RFC6350.html" xlink:title="This document defines the vCard data format for representing and exchanging a variety of information about individuals and other entities (e.g., formatted and structured name and delivery addresses, email address, multiple telephone numbers, photograph, logo, audio clips, etc.). &#160;This document obsoletes RFCs 2425, 2426, and 4770, and updates RFC 2739. [STANDARDS&#45;TRACK]" target="_top">
<ellipse fill="none" stroke="black" cx="118.44" cy="-602.61" rx="118.44" ry="40.66"/>
<text xml:space="preserve" text-anchor="middle" x="118.44" y="-614.06" font-family="Times,serif" font-size="14.00">RFC6350</text>
<text xml:space="preserve" text-anchor="middle" x="118.44" y="-597.56" font-family="Times,serif" font-size="14.00">vCard Format Specification</text>
<text xml:space="preserve" text-anchor="middle" x="118.44" y="-581.06" font-family="Times,serif" font-size="14.00">2011</text>
</a>
</g>
</g>
<!-- cites&#45;&gt;RFC6350 -->
<g id="edge8" class="edge">
<title>cites&#45;&gt;RFC6350</title>
<path fill="none" stroke="black" d="M491.58,-796.99C431.34,-765.6 284.86,-689.3 194.38,-642.17"/>
<polygon fill="black" stroke="black" points="196.01,-639.07 185.52,-637.55 192.77,-645.28 196.01,-639.07"/>
</g>
<!-- rev_cites -->
<g id="node10" class="node">
<title>rev_cites</title>
<polygon fill="lightblue" stroke="black" points="1042.86,-412.06 988.86,-412.06 988.86,-376.06 1042.86,-376.06 1042.86,-412.06"/>
<text xml:space="preserve" text-anchor="middle" x="1015.86" y="-389.01" font-family="Times,serif" font-size="14.00">cites</text>
</g>
<!-- rev_cites&#45;&gt;RFC6906 -->
<g id="edge9" class="edge">
<title>rev_cites&#45;&gt;RFC6906</title>
<path fill="none" stroke="black" d="M994.24,-412.2C958.94,-441.82 887.54,-501.74 834.2,-546.49"/>
<polygon fill="black" stroke="black" points="832.04,-543.73 826.63,-552.84 836.54,-549.09 832.04,-543.73"/>
</g>
<!-- RFC7284 -->
<g id="node11" class="node">
<title>RFC7284</title>
<g id="a_node11"><a xlink:href="RFC7284.html" xlink:title="This document defines a registry for profile URIs to be used in specifications standardizing profiles." target="_top">
<ellipse fill="none" stroke="black" cx="1091.77" cy="-40.66" rx="108.89" ry="40.66"/>
<text xml:space="preserve" text-anchor="middle" x="1091.77" y="-52.11" font-family="Times,serif" font-size="14.00">RFC7284</text>
<text xml:space="preserve" text-anchor="middle" x="1091.77" y="-35.61" font-family="Times,serif" font-size="14.00">The Profile URI Registry</text>
<text xml:space="preserve" text-anchor="middle" x="1091.77" y="-19.11" font-family="Times,serif" font-size="14.00">2014</text>
</a>
</g>
</g>
<!-- RFC7284&#45;&gt;rev_cites -->
<g id="edge10" class="edge">
<title>RFC7284&#45;&gt;rev_cites</title>
<path fill="none" stroke="black" d="M1082.98,-81.54C1067.51,-153.58 1035.76,-301.43 1022.21,-364.5"/>
<polygon fill="black" stroke="black" points="1018.82,-363.6 1020.14,-374.11 1025.67,-365.07 1018.82,-363.6"/>
</g>
<!-- RFC9264 -->
<g id="node12" class="node">
<title>RFC9264</title>
<g id="a_node12"><a xlink:href="RFC9264.html" xlink:title="This specification defines two formats and associated media types for representing sets of links as standalone documents. &#160;One format is based on JSON, and the other is aligned with the format for representing links in the HTTP Link header field. &#160;This specification also introduces a link relation type to support the discovery of sets of links." target="_top">
<ellipse fill="none" stroke="black" cx="1377.07" cy="-380.68" rx="174.66" ry="52.33"/>
<text xml:space="preserve" text-anchor="middle" x="1377.07" y="-400.38" font-family="Times,serif" font-size="14.00">RFC9264</text>
<text xml:space="preserve" text-anchor="middle" x="1377.07" y="-383.88" font-family="Times,serif" font-size="14.00">Linkset: Media Types and a Link Relation</text>
<text xml:space="preserve" text-anchor="middle" x="1377.07" y="-367.38" font-family="Times,serif" font-size="14.00">Type for Link Sets</text>
<text xml:space="preserve" text-anchor="middle" x="1377.07" y="-350.88" font-family="Times,serif" font-size="14.00">2022</text>
</a>
</g>
</g>
<!-- RFC9264&#45;&gt;rev_cites -->
<g id="edge11" class="edge">
<title>RFC9264&#45;&gt;rev_cites</title>
<path fill="none" stroke="black" d="M1203.34,-387.11C1147.49,-389.18 1090.75,-391.29 1054.55,-392.63"/>
<polygon fill="black" stroke="black" points="1054.47,-389.13 1044.6,-393 1054.72,-396.12 1054.47,-389.13"/>
</g>
</g>
</svg>
