<?xml version="1.0" encoding="UTF-8" standalone="no"?>
<!DOCTYPE svg PUBLIC "-//W3C//DTD SVG 1.1//EN"
 "http://www.w3.org/Graphics/SVG/1.1/DTD/svg11.dtd">
<!-- Generated by graphviz version 14.1.1 (20251213.1925)
 -->
<!-- Title: Flow Pages: 1 -->
<svg width="1241pt" height="1172pt"
 viewBox="0.00 0.00 1241.00 1172.00" xmlns="http://www.w3.org/2000/svg" xmlns:xlink="http://www.w3.org/1999/xlink">
<g id="graph0" class="graph" transform="scale(1 1) rotate(0) translate(4 1167.67)">
<title>Flow</title>
<polygon fill="white" stroke="none" points="-4,4 -4,-1167.67 1237.46,-1167.67 1237.46,4 -4,4"/>
<!-- RFC6008 -->
<g id="node1" class="node">
<title>RFC6008</title>
<g id="a_node1"><a xlink:title="This memo updates the registry of properties in Authentication&#45; Results: message header fields to allow a multiple&#45;result report to distinguish among one or more cryptographic signatures on a message, thus associating specific results with the signatures they represent. [STANDARDS&#45;TRACK]">
<ellipse fill="green" stroke="black" stroke-width="3" cx="406.94" cy="-781.22" rx="214.43" ry="79.9"/>
<text xml:space="preserve" text-anchor="middle" x="406.94" y="-816.62" font-family="Times,serif" font-size="18.00">RFC6008</text>
<text xml:space="preserve" text-anchor="middle" x="406.94" y="-795.62" font-family="Times,serif" font-size="18.00">Authentication&#45;Results Registration for</text>
<text xml:space="preserve" text-anchor="middle" x="406.94" y="-774.62" font-family="Times,serif" font-size="18.00">Differentiating among Cryptographic</text>
<text xml:space="preserve" text-anchor="middle" x="406.94" y="-753.62" font-family="Times,serif" font-size="18.00">Results</text>
<text xml:space="preserve" text-anchor="middle" x="406.94" y="-732.62" font-family="Times,serif" font-size="18.00">2010</text>
</a>
</g>
</g>
<!-- obs -->
<g id="node3" class="node">
<title>obs</title>
<polygon fill="lightblue" stroke="black" points="776.87,-961.41 710.62,-961.41 710.62,-925.41 776.87,-925.41 776.87,-961.41"/>
<text xml:space="preserve" text-anchor="middle" x="743.74" y="-938.36" font-family="Times,serif" font-size="14.00">obsoletes</text>
</g>
<!-- RFC6008&#45;&gt;obs -->
<g id="edge2" class="edge">
<title>RFC6008&#45;&gt;obs</title>
<path fill="none" stroke="black" d="M539.57,-845.09C596.52,-872.51 659.19,-902.69 699.87,-922.29"/>
<polygon fill="black" stroke="black" points="698.34,-925.44 708.87,-926.62 701.38,-919.13 698.34,-925.44"/>
</g>
<!-- updates -->
<g id="node4" class="node">
<title>updates</title>
<polygon fill="lightyellow" stroke="black" points="518.75,-1163.67 461.5,-1163.67 461.5,-1127.67 518.75,-1127.67 518.75,-1163.67"/>
<text xml:space="preserve" text-anchor="middle" x="490.13" y="-1140.62" font-family="Times,serif" font-size="14.00">updates</text>
</g>
<!-- RFC6008&#45;&gt;updates -->
<g id="edge3" class="edge">
<title>RFC6008&#45;&gt;updates</title>
<path fill="none" stroke="black" d="M425.41,-862.1C443.78,-942.6 470.98,-1061.77 483.44,-1116.39"/>
<polygon fill="black" stroke="black" points="479.97,-1116.88 485.6,-1125.85 486.79,-1115.33 479.97,-1116.88"/>
</g>
<!-- cites -->
<g id="node6" class="node">
<title>cites</title>
<polygon fill="lightblue" stroke="black" points="200.87,-1091.48 146.87,-1091.48 146.87,-1055.48 200.87,-1055.48 200.87,-1091.48"/>
<text xml:space="preserve" text-anchor="middle" x="173.87" y="-1068.43" font-family="Times,serif" font-size="14.00">cites</text>
</g>
<!-- RFC6008&#45;&gt;cites -->
<g id="edge5" class="edge">
<title>RFC6008&#45;&gt;cites</title>
<path fill="none" stroke="black" d="M344.79,-859.16C295.4,-921.1 229.2,-1004.11 195.52,-1046.34"/>
<polygon fill="black" stroke="black" points="192.9,-1044.01 189.4,-1054.01 198.37,-1048.38 192.9,-1044.01"/>
</g>
<!-- obs_by -->
<g id="node2" class="node">
<title>obs_by</title>
<polygon fill="lightblue" stroke="black" points="66.25,-799.22 0,-799.22 0,-763.22 66.25,-763.22 66.25,-799.22"/>
<text xml:space="preserve" text-anchor="middle" x="33.13" y="-776.17" font-family="Times,serif" font-size="14.00">obsoletes</text>
</g>
<!-- obs_by&#45;&gt;RFC6008 -->
<g id="edge1" class="edge">
<title>obs_by&#45;&gt;RFC6008</title>
<path fill="none" stroke="black" d="M66.63,-781.22C93.97,-781.22 135.24,-781.22 179.7,-781.22"/>
<polygon fill="black" stroke="black" points="179.55,-784.72 189.55,-781.22 179.55,-777.72 179.55,-784.72"/>
</g>
<!-- updated_by -->
<g id="node5" class="node">
<title>updated_by</title>
<polygon fill="lightyellow" stroke="black" points="202.5,-506.96 145.25,-506.96 145.25,-470.96 202.5,-470.96 202.5,-506.96"/>
<text xml:space="preserve" text-anchor="middle" x="173.87" y="-483.91" font-family="Times,serif" font-size="14.00">updates</text>
</g>
<!-- updated_by&#45;&gt;RFC6008 -->
<g id="edge4" class="edge">
<title>updated_by&#45;&gt;RFC6008</title>
<path fill="none" stroke="black" d="M188.45,-507.24C217.78,-544.02 285.58,-629.03 337.93,-694.68"/>
<polygon fill="black" stroke="black" points="334.97,-696.58 343.94,-702.22 340.44,-692.22 334.97,-696.58"/>
</g>
<!-- rev_cites -->
<g id="node7" class="node">
<title>rev_cites</title>
<polygon fill="lightblue" stroke="black" points="667.02,-506.96 613.02,-506.96 613.02,-470.96 667.02,-470.96 667.02,-506.96"/>
<text xml:space="preserve" text-anchor="middle" x="640.02" y="-483.91" font-family="Times,serif" font-size="14.00">cites</text>
</g>
<!-- rev_cites&#45;&gt;RFC6008 -->
<g id="edge6" class="edge">
<title>rev_cites&#45;&gt;RFC6008</title>
<path fill="none" stroke="black" d="M625.44,-507.24C596.11,-544.02 528.31,-629.03 475.96,-694.68"/>
<polygon fill="black" stroke="black" points="473.45,-692.22 469.95,-702.22 478.92,-696.58 473.45,-692.22"/>
</g>
<!-- RFC7601 -->
<g id="node8" class="node">
<title>RFC7601</title>
<g id="a_node8"><a xlink:href="RFC7601.html" xlink:title="This document specifies a message header field called Authentication&#45; Results for use with electronic mail messages to indicate the results of message authentication efforts. &#160;Any receiver&#45;side software, such as mail filters or Mail User Agents (MUAs), can use this header field to relay that information in a convenient and meaningful way to users or to make sorting and filtering decisions." target="_top">
<ellipse fill="none" stroke="black" cx="573.31" cy="-52.33" rx="152.91" ry="52.33"/>
<text xml:space="preserve" text-anchor="middle" x="573.31" y="-72.03" font-family="Times,serif" font-size="14.00">RFC7601</text>
<text xml:space="preserve" text-anchor="middle" x="573.31" y="-55.53" font-family="Times,serif" font-size="14.00">Message Header Field for Indicating</text>
<text xml:space="preserve" text-anchor="middle" x="573.31" y="-39.03" font-family="Times,serif" font-size="14.00">Message Authentication Status</text>
<text xml:space="preserve" text-anchor="middle" x="573.31" y="-22.53" font-family="Times,serif" font-size="14.00">2015</text>
</a>
</g>
</g>
<!-- RFC7601&#45;&gt;rev_cites -->
<g id="edge7" class="edge">
<title>RFC7601&#45;&gt;rev_cites</title>
<path fill="none" stroke="black" d="M581.36,-104.99C595.5,-197.6 624.39,-386.66 635.51,-459.47"/>
<polygon fill="black" stroke="black" points="632,-459.65 636.97,-469.01 638.92,-458.6 632,-459.65"/>
</g>
<!-- RFC8601 -->
<g id="node9" class="node">
<title>RFC8601</title>
<g id="a_node9"><a xlink:href="RFC8601.html" xlink:title="This document specifies a message header field called Authentication&#45;Results for use with electronic mail messages to indicate the results of message authentication efforts. Any receiver&#45;side software, such as mail filters or Mail User Agents (MUAs), can use this header field to relay that information in a convenient and meaningful way to users or to make sorting and filtering decisions. This document obsoletes RFC 7601." target="_top">
<ellipse fill="none" stroke="black" cx="1080.54" cy="-456.83" rx="152.91" ry="52.33"/>
<text xml:space="preserve" text-anchor="middle" x="1080.54" y="-476.53" font-family="Times,serif" font-size="14.00">RFC8601</text>
<text xml:space="preserve" text-anchor="middle" x="1080.54" y="-460.03" font-family="Times,serif" font-size="14.00">Message Header Field for Indicating</text>
<text xml:space="preserve" text-anchor="middle" x="1080.54" y="-443.53" font-family="Times,serif" font-size="14.00">Message Authentication Status</text>
<text xml:space="preserve" text-anchor="middle" x="1080.54" y="-427.03" font-family="Times,serif" font-size="14.00">2019</text>
</a>
</g>
</g>
<!-- RFC8601&#45;&gt;rev_cites -->
<g id="edge8" class="edge">
<title>RFC8601&#45;&gt;rev_cites</title>
<path fill="none" stroke="black" d="M930.48,-467.78C841.09,-474.29 734.48,-482.07 678.58,-486.14"/>
<polygon fill="black" stroke="black" points="678.68,-482.63 668.96,-486.85 679.19,-489.61 678.68,-482.63"/>
</g>
</g>
</svg>
