<?xml version="1.0" encoding="UTF-8" standalone="no"?>
<!DOCTYPE svg PUBLIC "-//W3C//DTD SVG 1.1//EN"
 "http://www.w3.org/Graphics/SVG/1.1/DTD/svg11.dtd">
<!-- Generated by graphviz version 14.1.1 (20251213.1925)
 -->
<!-- Title: Flow Pages: 1 -->
<svg width="1219pt" height="581pt"
 viewBox="0.00 0.00 1219.00 581.00" xmlns="http://www.w3.org/2000/svg" xmlns:xlink="http://www.w3.org/1999/xlink">
<g id="graph0" class="graph" transform="scale(1 1) rotate(0) translate(4 576.98)">
<title>Flow</title>
<polygon fill="white" stroke="none" points="-4,4 -4,-576.98 1215.49,-576.98 1215.49,4 -4,4"/>
<!-- RFC6034 -->
<g id="node1" class="node">
<title>RFC6034</title>
<g id="a_node1"><a xlink:title="This specification defines an extension to the multicast addressing architecture of the IP Version 4 protocol. &#160;The extension presented in this document allows for unicast&#45;prefix&#45;based assignment of multicast addresses. &#160;By delegating multicast addresses at the same time as unicast prefixes, network operators will be able to identify their multicast addresses without needing to run an inter&#45;domain allocation protocol. [STANDARDS&#45;TRACK]">
<ellipse fill="none" stroke="black" cx="607.34" cy="-352.33" rx="153.44" ry="52.33"/>
<text xml:space="preserve" text-anchor="middle" x="607.34" y="-372.03" font-family="Times,serif" font-size="14.00">RFC6034</text>
<text xml:space="preserve" text-anchor="middle" x="607.34" y="-355.53" font-family="Times,serif" font-size="14.00">Unicast&#45;Prefix&#45;Based IPv4 Multicast</text>
<text xml:space="preserve" text-anchor="middle" x="607.34" y="-339.03" font-family="Times,serif" font-size="14.00">Addresses</text>
<text xml:space="preserve" text-anchor="middle" x="607.34" y="-322.53" font-family="Times,serif" font-size="14.00">2010</text>
</a>
</g>
</g>
<!-- obs -->
<g id="node3" class="node">
<title>obs</title>
<polygon fill="none" stroke="black" points="852.03,-424.33 785.78,-424.33 785.78,-388.33 852.03,-388.33 852.03,-424.33"/>
<text xml:space="preserve" text-anchor="middle" x="818.9" y="-401.28" font-family="Times,serif" font-size="14.00">obsoletes</text>
</g>
<!-- RFC6034&#45;&gt;obs -->
<g id="edge2" class="edge">
<title>RFC6034&#45;&gt;obs</title>
<path fill="none" stroke="black" d="M730.54,-383.82C746.24,-387.86 761.4,-391.77 774.57,-395.16"/>
<polygon fill="black" stroke="black" points="773.56,-398.51 784.11,-397.62 775.3,-391.74 773.56,-398.51"/>
</g>
<!-- updates -->
<g id="node4" class="node">
<title>updates</title>
<polygon fill="none" stroke="black" points="847.53,-370.33 790.28,-370.33 790.28,-334.33 847.53,-334.33 847.53,-370.33"/>
<text xml:space="preserve" text-anchor="middle" x="818.9" y="-347.28" font-family="Times,serif" font-size="14.00">updates</text>
</g>
<!-- RFC6034&#45;&gt;updates -->
<g id="edge3" class="edge">
<title>RFC6034&#45;&gt;updates</title>
<path fill="none" stroke="black" d="M761.19,-352.33C767.3,-352.33 773.14,-352.33 778.58,-352.33"/>
<polygon fill="black" stroke="black" points="778.31,-355.83 788.31,-352.33 778.31,-348.83 778.31,-355.83"/>
</g>
<!-- cites -->
<g id="node6" class="node">
<title>cites</title>
<polygon fill="none" stroke="black" points="845.9,-316.33 791.9,-316.33 791.9,-280.33 845.9,-280.33 845.9,-316.33"/>
<text xml:space="preserve" text-anchor="middle" x="818.9" y="-293.28" font-family="Times,serif" font-size="14.00">cites</text>
</g>
<!-- RFC6034&#45;&gt;cites -->
<g id="edge5" class="edge">
<title>RFC6034&#45;&gt;cites</title>
<path fill="none" stroke="black" d="M730.54,-320.84C748.69,-316.16 766.11,-311.67 780.56,-307.95"/>
<polygon fill="black" stroke="black" points="781.19,-311.4 790,-305.52 779.44,-304.62 781.19,-311.4"/>
</g>
<!-- obs_by -->
<g id="node2" class="node">
<title>obs_by</title>
<polygon fill="none" stroke="black" points="428.89,-424.33 362.64,-424.33 362.64,-388.33 428.89,-388.33 428.89,-424.33"/>
<text xml:space="preserve" text-anchor="middle" x="395.77" y="-401.28" font-family="Times,serif" font-size="14.00">obsoletes</text>
</g>
<!-- obs_by&#45;&gt;RFC6034 -->
<g id="edge1" class="edge">
<title>obs_by&#45;&gt;RFC6034</title>
<path fill="none" stroke="black" d="M429.05,-398.01C441.67,-394.75 457.05,-390.79 473.41,-386.58"/>
<polygon fill="black" stroke="black" points="474.01,-390.04 482.82,-384.15 472.26,-383.26 474.01,-390.04"/>
</g>
<!-- updated_by -->
<g id="node5" class="node">
<title>updated_by</title>
<polygon fill="none" stroke="black" points="424.39,-370.33 367.14,-370.33 367.14,-334.33 424.39,-334.33 424.39,-370.33"/>
<text xml:space="preserve" text-anchor="middle" x="395.77" y="-347.28" font-family="Times,serif" font-size="14.00">updates</text>
</g>
<!-- updated_by&#45;&gt;RFC6034 -->
<g id="edge4" class="edge">
<title>updated_by&#45;&gt;RFC6034</title>
<path fill="none" stroke="black" d="M424.6,-352.33C429.95,-352.33 435.89,-352.33 442.28,-352.33"/>
<polygon fill="black" stroke="black" points="441.89,-355.83 451.89,-352.33 441.89,-348.83 441.89,-355.83"/>
</g>
<!-- RFC3180 -->
<g id="node7" class="node">
<title>RFC3180</title>
<g id="a_node7"><a xlink:href="RFC3180.html" xlink:title="This document defines the policy for the use of 233/8 for statically e assigned multicast addresses. &#160;This document specifies an Internet Best Current Practices for the Internet Community, and requests discussion and suggestions for improvements." target="_top">
<ellipse fill="none" stroke="black" cx="1044.26" cy="-532.33" rx="116.32" ry="40.66"/>
<text xml:space="preserve" text-anchor="middle" x="1044.26" y="-543.78" font-family="Times,serif" font-size="14.00">RFC3180</text>
<text xml:space="preserve" text-anchor="middle" x="1044.26" y="-527.28" font-family="Times,serif" font-size="14.00">GLOP Addressing in 233/8</text>
<text xml:space="preserve" text-anchor="middle" x="1044.26" y="-510.78" font-family="Times,serif" font-size="14.00">2001</text>
</a>
</g>
</g>
<!-- cites&#45;&gt;RFC3180 -->
<g id="edge6" class="edge">
<title>cites&#45;&gt;RFC3180</title>
<path fill="none" stroke="black" d="M845.65,-316.81C848.1,-319.43 850.31,-322.28 852.03,-325.33 886.82,-386.82 830.53,-429.12 877.03,-482.33 889.63,-496.74 906.21,-507.08 924.03,-514.48"/>
<polygon fill="black" stroke="black" points="922.63,-517.7 933.22,-517.97 925.11,-511.15 922.63,-517.7"/>
</g>
<!-- RFC4893 -->
<g id="node8" class="node">
<title>RFC4893</title>
<g id="a_node8"><a xlink:href="RFC4893.html" xlink:title="Currently the Autonomous System (AS) number is encoded as a two&#45;octet entity in BGP. &#160;This document describes extensions to BGP to carry the Autonomous System number as a four&#45;octet entity. [STANDARDS&#45;TRACK]" target="_top">
<ellipse fill="none" stroke="black" cx="1044.26" cy="-421.33" rx="167.23" ry="52.33"/>
<text xml:space="preserve" text-anchor="middle" x="1044.26" y="-441.03" font-family="Times,serif" font-size="14.00">RFC4893</text>
<text xml:space="preserve" text-anchor="middle" x="1044.26" y="-424.53" font-family="Times,serif" font-size="14.00">BGP Support for Four&#45;octet AS Number</text>
<text xml:space="preserve" text-anchor="middle" x="1044.26" y="-408.03" font-family="Times,serif" font-size="14.00">Space</text>
<text xml:space="preserve" text-anchor="middle" x="1044.26" y="-391.53" font-family="Times,serif" font-size="14.00">2007</text>
</a>
</g>
</g>
<!-- cites&#45;&gt;RFC4893 -->
<g id="edge7" class="edge">
<title>cites&#45;&gt;RFC4893</title>
<path fill="none" stroke="black" d="M842.98,-316.56C846.13,-319.38 849.24,-322.35 852.03,-325.33 864.85,-339.01 862.06,-348.02 877.03,-359.33 887.59,-367.3 899.29,-374.35 911.45,-380.55"/>
<polygon fill="black" stroke="black" points="909.87,-383.67 920.39,-384.9 912.93,-377.38 909.87,-383.67"/>
</g>
<!-- RFC2730 -->
<g id="node9" class="node">
<title>RFC2730</title>
<g id="a_node9"><a xlink:href="RFC2730.html" xlink:title="This document defines a protocol, Multicast Address Dynamic Client Allocation Protocol (MADCAP), that allows hosts to request multicast addresses from multicast address allocation servers. [STANDARDS&#45;TRACK]" target="_top">
<ellipse fill="none" stroke="black" cx="1044.26" cy="-298.33" rx="145.49" ry="52.33"/>
<text xml:space="preserve" text-anchor="middle" x="1044.26" y="-318.03" font-family="Times,serif" font-size="14.00">RFC2730</text>
<text xml:space="preserve" text-anchor="middle" x="1044.26" y="-301.53" font-family="Times,serif" font-size="14.00">Multicast Address Dynamic Client</text>
<text xml:space="preserve" text-anchor="middle" x="1044.26" y="-285.03" font-family="Times,serif" font-size="14.00">Allocation Protocol (MADCAP)</text>
<text xml:space="preserve" text-anchor="middle" x="1044.26" y="-268.53" font-family="Times,serif" font-size="14.00">1999</text>
</a>
</g>
</g>
<!-- cites&#45;&gt;RFC2730 -->
<g id="edge8" class="edge">
<title>cites&#45;&gt;RFC2730</title>
<path fill="none" stroke="black" d="M846.4,-298.33C857.65,-298.33 871.74,-298.33 887.19,-298.33"/>
<polygon fill="black" stroke="black" points="887.14,-301.83 897.14,-298.33 887.14,-294.83 887.14,-301.83"/>
</g>
<!-- RFC3306 -->
<g id="node10" class="node">
<title>RFC3306</title>
<g id="a_node10"><a xlink:href="RFC3306.html" xlink:title="None" target="_top">
<ellipse fill="none" stroke="black" cx="1044.26" cy="-175.33" rx="151.85" ry="52.33"/>
<text xml:space="preserve" text-anchor="middle" x="1044.26" y="-195.03" font-family="Times,serif" font-size="14.00">RFC3306</text>
<text xml:space="preserve" text-anchor="middle" x="1044.26" y="-178.53" font-family="Times,serif" font-size="14.00">Unicast&#45;Prefix&#45;based IPv6 Multicast</text>
<text xml:space="preserve" text-anchor="middle" x="1044.26" y="-162.03" font-family="Times,serif" font-size="14.00">Addresses</text>
<text xml:space="preserve" text-anchor="middle" x="1044.26" y="-145.53" font-family="Times,serif" font-size="14.00">2002</text>
</a>
</g>
</g>
<!-- cites&#45;&gt;RFC3306 -->
<g id="edge9" class="edge">
<title>cites&#45;&gt;RFC3306</title>
<path fill="none" stroke="black" d="M833.37,-279.89C843.96,-266.51 859.76,-248.83 877.03,-237.33 890.05,-228.65 904.44,-220.98 919.15,-214.26"/>
<polygon fill="black" stroke="black" points="920.25,-217.6 927.99,-210.36 917.43,-211.19 920.25,-217.6"/>
</g>
<!-- RFC2119 -->
<g id="node11" class="node">
<title>RFC2119</title>
<g id="a_node11"><a xlink:href="RFC2119.html" xlink:title="In many standards track documents several words are used to signify the requirements in the specification. &#160;These words are often capitalized. &#160;This document defines these words as they should be interpreted in IETF documents. &#160;This document specifies an Internet Best Current Practices for the Internet Community, and requests discussion and suggestions for improvements." target="_top">
<ellipse fill="none" stroke="black" cx="1044.26" cy="-52.33" rx="160.34" ry="52.33"/>
<text xml:space="preserve" text-anchor="middle" x="1044.26" y="-72.03" font-family="Times,serif" font-size="14.00">RFC2119</text>
<text xml:space="preserve" text-anchor="middle" x="1044.26" y="-55.53" font-family="Times,serif" font-size="14.00">Key words for use in RFCs to Indicate</text>
<text xml:space="preserve" text-anchor="middle" x="1044.26" y="-39.03" font-family="Times,serif" font-size="14.00">Requirement Levels</text>
<text xml:space="preserve" text-anchor="middle" x="1044.26" y="-22.53" font-family="Times,serif" font-size="14.00">1997</text>
</a>
</g>
</g>
<!-- cites&#45;&gt;RFC2119 -->
<g id="edge10" class="edge">
<title>cites&#45;&gt;RFC2119</title>
<path fill="none" stroke="black" d="M820.45,-280.04C822.53,-243.67 832.22,-161.72 877.03,-114.33 885.87,-104.98 896.25,-97.03 907.43,-90.27"/>
<polygon fill="black" stroke="black" points="909.12,-93.34 916.12,-85.38 905.69,-87.24 909.12,-93.34"/>
</g>
<!-- rev_cites -->
<g id="node12" class="node">
<title>rev_cites</title>
<polygon fill="none" stroke="black" points="422.77,-316.33 368.77,-316.33 368.77,-280.33 422.77,-280.33 422.77,-316.33"/>
<text xml:space="preserve" text-anchor="middle" x="395.77" y="-293.28" font-family="Times,serif" font-size="14.00">cites</text>
</g>
<!-- rev_cites&#45;&gt;RFC6034 -->
<g id="edge11" class="edge">
<title>rev_cites&#45;&gt;RFC6034</title>
<path fill="none" stroke="black" d="M422.89,-305.06C436.43,-308.55 454.11,-313.1 473.14,-318.01"/>
<polygon fill="black" stroke="black" points="472.14,-321.36 482.7,-320.47 473.88,-314.58 472.14,-321.36"/>
</g>
<!-- RFC6308 -->
<g id="node13" class="node">
<title>RFC6308</title>
<g id="a_node13"><a xlink:href="RFC6308.html" xlink:title="The lack of up&#45;to&#45;date documentation on IP multicast address allocation and assignment procedures has caused a great deal of confusion. &#160;To clarify the situation, this memo describes the allocation and assignment techniques and mechanisms currently (as of this writing) in use. &#160;This document is not an Internet Standards Track specification; it is published for informational purposes." target="_top">
<ellipse fill="none" stroke="black" cx="168.82" cy="-471.33" rx="145.49" ry="52.33"/>
<text xml:space="preserve" text-anchor="middle" x="168.82" y="-491.03" font-family="Times,serif" font-size="14.00">RFC6308</text>
<text xml:space="preserve" text-anchor="middle" x="168.82" y="-474.53" font-family="Times,serif" font-size="14.00">Overview of the Internet Multicast</text>
<text xml:space="preserve" text-anchor="middle" x="168.82" y="-458.03" font-family="Times,serif" font-size="14.00">Addressing Architecture</text>
<text xml:space="preserve" text-anchor="middle" x="168.82" y="-441.53" font-family="Times,serif" font-size="14.00">2011</text>
</a>
</g>
</g>
<!-- RFC6308&#45;&gt;rev_cites -->
<g id="edge12" class="edge">
<title>RFC6308&#45;&gt;rev_cites</title>
<path fill="none" stroke="black" d="M291.49,-442.85C308.66,-434.61 324.8,-424 337.64,-410.33 362.5,-383.87 344.46,-361.97 363.91,-326.14"/>
<polygon fill="black" stroke="black" points="366.66,-328.35 368.92,-318 360.7,-324.68 366.66,-328.35"/>
</g>
<!-- RFC6676 -->
<g id="node14" class="node">
<title>RFC6676</title>
<g id="a_node14"><a xlink:href="RFC6676.html" xlink:title="This document discusses which multicast addresses should be used for documentation purposes and reserves multicast addresses for such use. &#160;Some multicast addresses are derived from AS numbers or unicast addresses. &#160;This document also explains how these can be used for documentation purposes. &#160;This document is not an Internet Standards Track specification; it is published for informational purposes." target="_top">
<ellipse fill="none" stroke="black" cx="168.82" cy="-360.33" rx="165.11" ry="40.66"/>
<text xml:space="preserve" text-anchor="middle" x="168.82" y="-371.78" font-family="Times,serif" font-size="14.00">RFC6676</text>
<text xml:space="preserve" text-anchor="middle" x="168.82" y="-355.28" font-family="Times,serif" font-size="14.00">Multicast Addresses for Documentation</text>
<text xml:space="preserve" text-anchor="middle" x="168.82" y="-338.78" font-family="Times,serif" font-size="14.00">2012</text>
</a>
</g>
</g>
<!-- RFC6676&#45;&gt;rev_cites -->
<g id="edge13" class="edge">
<title>RFC6676&#45;&gt;rev_cites</title>
<path fill="none" stroke="black" d="M279.99,-329.96C307.92,-322.26 336.04,-314.51 357.46,-308.61"/>
<polygon fill="black" stroke="black" points="358.14,-312.05 366.85,-306.02 356.28,-305.3 358.14,-312.05"/>
</g>
<!-- RFC7042 -->
<g id="node15" class="node">
<title>RFC7042</title>
<g id="a_node15"><a xlink:href="RFC7042.html" xlink:title="Some IETF protocols make use of Ethernet frame formats and IEEE 802 parameters. &#160;This document discusses several uses of such parameters in IETF protocols, specifies IANA considerations for assignment of points under the IANA OUI (Organizationally Unique Identifier), and provides some values for use in documentation. &#160;This document obsoletes RFC 5342." target="_top">
<ellipse fill="none" stroke="black" cx="168.82" cy="-237.33" rx="168.82" ry="63.99"/>
<text xml:space="preserve" text-anchor="middle" x="168.82" y="-265.28" font-family="Times,serif" font-size="14.00">RFC7042</text>
<text xml:space="preserve" text-anchor="middle" x="168.82" y="-248.78" font-family="Times,serif" font-size="14.00">IANA Considerations and IETF Protocol</text>
<text xml:space="preserve" text-anchor="middle" x="168.82" y="-232.28" font-family="Times,serif" font-size="14.00">and Documentation Usage for IEEE 802</text>
<text xml:space="preserve" text-anchor="middle" x="168.82" y="-215.78" font-family="Times,serif" font-size="14.00">Parameters</text>
<text xml:space="preserve" text-anchor="middle" x="168.82" y="-199.28" font-family="Times,serif" font-size="14.00">2013</text>
</a>
</g>
</g>
<!-- RFC7042&#45;&gt;rev_cites -->
<g id="edge14" class="edge">
<title>RFC7042&#45;&gt;rev_cites</title>
<path fill="none" stroke="black" d="M306.83,-274.48C325.36,-279.5 342.96,-284.28 357.47,-288.21"/>
<polygon fill="black" stroke="black" points="356.39,-291.54 366.95,-290.78 358.22,-284.79 356.39,-291.54"/>
</g>
<!-- RFC9542 -->
<g id="node16" class="node">
<title>RFC9542</title>
<g id="a_node16"><a xlink:href="RFC9542.html" xlink:title="Some IETF protocols make use of Ethernet frame formats and IEEE 802 parameters. &#160;This document discusses several aspects of such parameters and their use in IETF protocols, specifies IANA considerations for assignment of points under the IANA Organizationally Unique Identifier (OUI), and provides some values for use in documentation. &#160;This document obsoletes RFC 7042." target="_top">
<ellipse fill="none" stroke="black" cx="168.82" cy="-91.33" rx="168.82" ry="63.99"/>
<text xml:space="preserve" text-anchor="middle" x="168.82" y="-119.28" font-family="Times,serif" font-size="14.00">RFC9542</text>
<text xml:space="preserve" text-anchor="middle" x="168.82" y="-102.78" font-family="Times,serif" font-size="14.00">IANA Considerations and IETF Protocol</text>
<text xml:space="preserve" text-anchor="middle" x="168.82" y="-86.28" font-family="Times,serif" font-size="14.00">and Documentation Usage for IEEE 802</text>
<text xml:space="preserve" text-anchor="middle" x="168.82" y="-69.78" font-family="Times,serif" font-size="14.00">Parameters</text>
<text xml:space="preserve" text-anchor="middle" x="168.82" y="-53.28" font-family="Times,serif" font-size="14.00">2024</text>
</a>
</g>
</g>
<!-- RFC9542&#45;&gt;rev_cites -->
<g id="edge15" class="edge">
<title>RFC9542&#45;&gt;rev_cites</title>
<path fill="none" stroke="black" d="M296.24,-133.45C311.37,-142.05 325.67,-152.26 337.64,-164.33 366.43,-193.32 381.63,-239.09 388.93,-268.91"/>
<polygon fill="black" stroke="black" points="385.46,-269.42 391.1,-278.39 392.28,-267.86 385.46,-269.42"/>
</g>
</g>
</svg>
