<?xml version="1.0" encoding="UTF-8" standalone="no"?>
<!DOCTYPE svg PUBLIC "-//W3C//DTD SVG 1.1//EN"
 "http://www.w3.org/Graphics/SVG/1.1/DTD/svg11.dtd">
<!-- Generated by graphviz version 14.1.1 (20251213.1925)
 -->
<!-- Title: Flow Pages: 1 -->
<svg width="1231pt" height="381pt"
 viewBox="0.00 0.00 1231.00 381.00" xmlns="http://www.w3.org/2000/svg" xmlns:xlink="http://www.w3.org/1999/xlink">
<g id="graph0" class="graph" transform="scale(1 1) rotate(0) translate(4 376.65)">
<title>Flow</title>
<polygon fill="white" stroke="none" points="-4,4 -4,-376.65 1227.16,-376.65 1227.16,4 -4,4"/>
<!-- RFC6591 -->
<g id="node1" class="node">
<title>RFC6591</title>
<g id="a_node1"><a xlink:title="This memo registers an extension report type for the Abuse Reporting Format (ARF), affecting multiple registries, for use in generating receipt&#45;time reports about messages that fail one or more email message authentication checks. [STANDARDS&#45;TRACK]">
<ellipse fill="none" stroke="black" cx="616.88" cy="-280.33" rx="164.05" ry="52.33"/>
<text xml:space="preserve" text-anchor="middle" x="616.88" y="-300.03" font-family="Times,serif" font-size="14.00">RFC6591</text>
<text xml:space="preserve" text-anchor="middle" x="616.88" y="-283.53" font-family="Times,serif" font-size="14.00">Authentication Failure Reporting Using</text>
<text xml:space="preserve" text-anchor="middle" x="616.88" y="-267.03" font-family="Times,serif" font-size="14.00">the Abuse Reporting Format</text>
<text xml:space="preserve" text-anchor="middle" x="616.88" y="-250.53" font-family="Times,serif" font-size="14.00">2012</text>
</a>
</g>
</g>
<!-- obs -->
<g id="node3" class="node">
<title>obs</title>
<polygon fill="none" stroke="black" points="872.18,-352.33 805.93,-352.33 805.93,-316.33 872.18,-316.33 872.18,-352.33"/>
<text xml:space="preserve" text-anchor="middle" x="839.06" y="-329.28" font-family="Times,serif" font-size="14.00">obsoletes</text>
</g>
<!-- RFC6591&#45;&gt;obs -->
<g id="edge2" class="edge">
<title>RFC6591&#45;&gt;obs</title>
<path fill="none" stroke="black" d="M747.87,-312.21C764.6,-316.31 780.69,-320.26 794.54,-323.65"/>
<polygon fill="black" stroke="black" points="793.59,-327.02 804.13,-326.01 795.25,-320.22 793.59,-327.02"/>
</g>
<!-- updates -->
<g id="node4" class="node">
<title>updates</title>
<polygon fill="none" stroke="black" points="867.68,-298.33 810.43,-298.33 810.43,-262.33 867.68,-262.33 867.68,-298.33"/>
<text xml:space="preserve" text-anchor="middle" x="839.06" y="-275.28" font-family="Times,serif" font-size="14.00">updates</text>
</g>
<!-- RFC6591&#45;&gt;updates -->
<g id="edge3" class="edge">
<title>RFC6591&#45;&gt;updates</title>
<path fill="none" stroke="black" d="M781.36,-280.33C787.51,-280.33 793.36,-280.33 798.82,-280.33"/>
<polygon fill="black" stroke="black" points="798.56,-283.83 808.56,-280.33 798.56,-276.83 798.56,-283.83"/>
</g>
<!-- cites -->
<g id="node7" class="node">
<title>cites</title>
<polygon fill="none" stroke="black" points="866.06,-244.33 812.06,-244.33 812.06,-208.33 866.06,-208.33 866.06,-244.33"/>
<text xml:space="preserve" text-anchor="middle" x="839.06" y="-221.28" font-family="Times,serif" font-size="14.00">cites</text>
</g>
<!-- RFC6591&#45;&gt;cites -->
<g id="edge6" class="edge">
<title>RFC6591&#45;&gt;cites</title>
<path fill="none" stroke="black" d="M747.87,-248.45C767.16,-243.71 785.6,-239.19 800.73,-235.48"/>
<polygon fill="black" stroke="black" points="801.26,-238.95 810.14,-233.17 799.59,-232.16 801.26,-238.95"/>
</g>
<!-- obs_by -->
<g id="node2" class="node">
<title>obs_by</title>
<polygon fill="none" stroke="black" points="427.83,-352.33 361.58,-352.33 361.58,-316.33 427.83,-316.33 427.83,-352.33"/>
<text xml:space="preserve" text-anchor="middle" x="394.71" y="-329.28" font-family="Times,serif" font-size="14.00">obsoletes</text>
</g>
<!-- obs_by&#45;&gt;RFC6591 -->
<g id="edge1" class="edge">
<title>obs_by&#45;&gt;RFC6591</title>
<path fill="none" stroke="black" d="M428.2,-326.36C441.37,-323.13 457.56,-319.16 474.86,-314.91"/>
<polygon fill="black" stroke="black" points="475.41,-318.38 484.29,-312.6 473.75,-311.58 475.41,-318.38"/>
</g>
<!-- updated_by -->
<g id="node5" class="node">
<title>updated_by</title>
<polygon fill="none" stroke="black" points="423.33,-298.33 366.08,-298.33 366.08,-262.33 423.33,-262.33 423.33,-298.33"/>
<text xml:space="preserve" text-anchor="middle" x="394.71" y="-275.28" font-family="Times,serif" font-size="14.00">updates</text>
</g>
<!-- updated_by&#45;&gt;RFC6591 -->
<g id="edge4" class="edge">
<title>updated_by&#45;&gt;RFC6591</title>
<path fill="none" stroke="black" d="M423.59,-280.33C428.93,-280.33 434.87,-280.33 441.25,-280.33"/>
<polygon fill="black" stroke="black" points="440.88,-283.83 450.88,-280.33 440.88,-276.83 440.88,-283.83"/>
</g>
<!-- RFC6692 -->
<g id="node6" class="node">
<title>RFC6692</title>
<g id="a_node6"><a xlink:href="RFC6692.html" xlink:title="This document defines an additional header field for use in Abuse Reporting Format (ARF) reports to permit the identification of the source port of the connection involved in an abuse incident. This document updates RFC 6591. [STANDARDS&#45;TRACK]" target="_top">
<ellipse fill="none" stroke="black" cx="168.29" cy="-320.33" rx="168.29" ry="52.33"/>
<text xml:space="preserve" text-anchor="middle" x="168.29" y="-340.03" font-family="Times,serif" font-size="14.00">RFC6692</text>
<text xml:space="preserve" text-anchor="middle" x="168.29" y="-323.53" font-family="Times,serif" font-size="14.00">Source Ports in Abuse Reporting Format</text>
<text xml:space="preserve" text-anchor="middle" x="168.29" y="-307.03" font-family="Times,serif" font-size="14.00">(ARF) Reports</text>
<text xml:space="preserve" text-anchor="middle" x="168.29" y="-290.53" font-family="Times,serif" font-size="14.00">2012</text>
</a>
</g>
</g>
<!-- RFC6692&#45;&gt;updated_by -->
<g id="edge5" class="edge">
<title>RFC6692&#45;&gt;updated_by</title>
<path fill="none" stroke="black" d="M314.9,-294.37C329.39,-291.79 343.06,-289.35 354.82,-287.26"/>
<polygon fill="black" stroke="black" points="355.18,-290.75 364.41,-285.55 353.96,-283.86 355.18,-290.75"/>
</g>
<!-- RFC6590 -->
<g id="node8" class="node">
<title>RFC6590</title>
<g id="a_node8"><a xlink:href="RFC6590.html" xlink:title="Email messages often contain information that might be considered private or sensitive, per either regulation or social norms. &#160;When such a message becomes the subject of a report intended to be shared with other entities, the report generator may wish to redact or elide the sensitive portions of the message. &#160;This memo suggests one method for doing so effectively. [STANDARDS&#45;TRACK]" target="_top">
<ellipse fill="none" stroke="black" cx="1060.17" cy="-226.33" rx="162.99" ry="52.33"/>
<text xml:space="preserve" text-anchor="middle" x="1060.17" y="-246.03" font-family="Times,serif" font-size="14.00">RFC6590</text>
<text xml:space="preserve" text-anchor="middle" x="1060.17" y="-229.53" font-family="Times,serif" font-size="14.00">Redaction of Potentially Sensitive Data</text>
<text xml:space="preserve" text-anchor="middle" x="1060.17" y="-213.03" font-family="Times,serif" font-size="14.00">from Mail Abuse Reports</text>
<text xml:space="preserve" text-anchor="middle" x="1060.17" y="-196.53" font-family="Times,serif" font-size="14.00">2012</text>
</a>
</g>
</g>
<!-- cites&#45;&gt;RFC6590 -->
<g id="edge7" class="edge">
<title>cites&#45;&gt;RFC6590</title>
<path fill="none" stroke="black" d="M866.49,-226.33C872.16,-226.33 878.56,-226.33 885.49,-226.33"/>
<polygon fill="black" stroke="black" points="885.27,-229.83 895.27,-226.33 885.27,-222.83 885.27,-229.83"/>
</g>
<!-- rev_cites -->
<g id="node9" class="node">
<title>rev_cites</title>
<polygon fill="none" stroke="black" points="421.71,-204.33 367.71,-204.33 367.71,-168.33 421.71,-168.33 421.71,-204.33"/>
<text xml:space="preserve" text-anchor="middle" x="394.71" y="-181.28" font-family="Times,serif" font-size="14.00">cites</text>
</g>
<!-- rev_cites&#45;&gt;RFC6591 -->
<g id="edge8" class="edge">
<title>rev_cites&#45;&gt;RFC6591</title>
<path fill="none" stroke="black" d="M421.83,-197.48C443.31,-206.65 475.3,-220.3 507.13,-233.9"/>
<polygon fill="black" stroke="black" points="505.49,-237 516.06,-237.71 508.23,-230.56 505.49,-237"/>
</g>
<!-- RFC6650 -->
<g id="node10" class="node">
<title>RFC6650</title>
<g id="a_node10"><a xlink:href="RFC6650.html" xlink:title="RFC 5965 defines an extensible, machine&#45;readable format intended for mail operators to report feedback about received email to other parties. &#160;This applicability statement describes common methods for utilizing this format for reporting both abuse and authentication failure events. &#160;Mailbox Providers of any size, mail&#45;sending entities, and end users can use these methods as a basis to create procedures that best suit them. &#160;Some related optional mechanisms are also discussed. [STANDARDS&#45;TRACK]" target="_top">
<ellipse fill="none" stroke="black" cx="168.29" cy="-186.33" rx="165.11" ry="63.99"/>
<text xml:space="preserve" text-anchor="middle" x="168.29" y="-214.28" font-family="Times,serif" font-size="14.00">RFC6650</text>
<text xml:space="preserve" text-anchor="middle" x="168.29" y="-197.78" font-family="Times,serif" font-size="14.00">Creation and Use of Email Feedback</text>
<text xml:space="preserve" text-anchor="middle" x="168.29" y="-181.28" font-family="Times,serif" font-size="14.00">Reports: An Applicability Statement for</text>
<text xml:space="preserve" text-anchor="middle" x="168.29" y="-164.78" font-family="Times,serif" font-size="14.00">the Abuse Reporting Format (ARF)</text>
<text xml:space="preserve" text-anchor="middle" x="168.29" y="-148.28" font-family="Times,serif" font-size="14.00">2012</text>
</a>
</g>
</g>
<!-- RFC6650&#45;&gt;rev_cites -->
<g id="edge9" class="edge">
<title>RFC6650&#45;&gt;rev_cites</title>
<path fill="none" stroke="black" d="M333.86,-186.33C341.77,-186.33 349.22,-186.33 356.01,-186.33"/>
<polygon fill="black" stroke="black" points="355.96,-189.83 365.96,-186.33 355.96,-182.83 355.96,-189.83"/>
</g>
<!-- RFC8404 -->
<g id="node11" class="node">
<title>RFC8404</title>
<g id="a_node11"><a xlink:href="RFC8404.html" xlink:title="Pervasive monitoring attacks on the privacy of Internet users are of serious concern to both user and operator communities. &#160;RFC 7258 discusses the critical need to protect users&#39; privacy when developing IETF specifications and also recognizes that making networks unmanageable to mitigate pervasive monitoring is not an acceptable outcome: an appropriate balance is needed. &#160;This document discusses current security and network operations as well as management practices that may be impacted by the shift to increased use of encryption to help guide protocol development in support of manageable and secure networks." target="_top">
<ellipse fill="none" stroke="black" cx="168.29" cy="-52.33" rx="146.02" ry="52.33"/>
<text xml:space="preserve" text-anchor="middle" x="168.29" y="-72.03" font-family="Times,serif" font-size="14.00">RFC8404</text>
<text xml:space="preserve" text-anchor="middle" x="168.29" y="-55.53" font-family="Times,serif" font-size="14.00">Effects of Pervasive Encryption on</text>
<text xml:space="preserve" text-anchor="middle" x="168.29" y="-39.03" font-family="Times,serif" font-size="14.00">Operators</text>
<text xml:space="preserve" text-anchor="middle" x="168.29" y="-22.53" font-family="Times,serif" font-size="14.00">2018</text>
</a>
</g>
</g>
<!-- RFC8404&#45;&gt;rev_cites -->
<g id="edge10" class="edge">
<title>RFC8404&#45;&gt;rev_cites</title>
<path fill="none" stroke="black" d="M284.31,-84.54C302.69,-92.37 320.83,-101.88 336.58,-113.33 353.14,-125.35 367.34,-143.44 377.44,-158.6"/>
<polygon fill="black" stroke="black" points="374.33,-160.23 382.66,-166.77 380.23,-156.46 374.33,-160.23"/>
</g>
</g>
</svg>
