<?xml version="1.0" encoding="UTF-8" standalone="no"?>
<!DOCTYPE svg PUBLIC "-//W3C//DTD SVG 1.1//EN"
 "http://www.w3.org/Graphics/SVG/1.1/DTD/svg11.dtd">
<!-- Generated by graphviz version 14.1.1 (20251213.1925)
 -->
<!-- Title: Flow Pages: 1 -->
<svg width="1194pt" height="351pt"
 viewBox="0.00 0.00 1194.00 351.00" xmlns="http://www.w3.org/2000/svg" xmlns:xlink="http://www.w3.org/1999/xlink">
<g id="graph0" class="graph" transform="scale(1 1) rotate(0) translate(4 347.33)">
<title>Flow</title>
<polygon fill="white" stroke="none" points="-4,4 -4,-347.33 1190.03,-347.33 1190.03,4 -4,4"/>
<!-- RFC6688 -->
<g id="node1" class="node">
<title>RFC6688</title>
<g id="a_node1"><a xlink:title="Parallel NFS (pNFS) extends the Network File System version 4 (NFSv4) to enable direct client access to file data on storage devices and bypass the NFSv4 server. &#160;This can increase both performance and parallelism, but it requires additional client functionality, some of which depends upon the type of storage used. &#160;The pNFS specification for block storage (RFC 5663) describes how clients can identify the volumes used for pNFS, but this mechanism requires communication with the NFSv4 server. &#160;This document updates RFC 5663 to add a mechanism that enables identification of block storage devices used by pNFS file systems without communicating with the server. &#160;This enables clients to control access to pNFS block devices when the client initially boots, as opposed to waiting until the client can communicate with the NFSv4 server. [STANDARDS&#45;TRACK]">
<ellipse fill="none" stroke="black" cx="571.8" cy="-271.33" rx="138.06" ry="52.33"/>
<text xml:space="preserve" text-anchor="middle" x="571.8" y="-291.03" font-family="Times,serif" font-size="14.00">RFC6688</text>
<text xml:space="preserve" text-anchor="middle" x="571.8" y="-274.53" font-family="Times,serif" font-size="14.00">Parallel NFS (pNFS) Block Disk</text>
<text xml:space="preserve" text-anchor="middle" x="571.8" y="-258.03" font-family="Times,serif" font-size="14.00">Protection</text>
<text xml:space="preserve" text-anchor="middle" x="571.8" y="-241.53" font-family="Times,serif" font-size="14.00">2012</text>
</a>
</g>
</g>
<!-- obs -->
<g id="node3" class="node">
<title>obs</title>
<polygon fill="none" stroke="black" points="801.12,-343.33 734.87,-343.33 734.87,-307.33 801.12,-307.33 801.12,-343.33"/>
<text xml:space="preserve" text-anchor="middle" x="767.99" y="-320.28" font-family="Times,serif" font-size="14.00">obsoletes</text>
</g>
<!-- RFC6688&#45;&gt;obs -->
<g id="edge2" class="edge">
<title>RFC6688&#45;&gt;obs</title>
<path fill="none" stroke="black" d="M684.07,-302.27C698.07,-306.16 711.67,-309.94 723.67,-313.28"/>
<polygon fill="black" stroke="black" points="722.61,-316.62 733.19,-315.93 724.49,-309.87 722.61,-316.62"/>
</g>
<!-- updates -->
<g id="node4" class="node">
<title>updates</title>
<polygon fill="none" stroke="black" points="796.62,-289.33 739.37,-289.33 739.37,-253.33 796.62,-253.33 796.62,-289.33"/>
<text xml:space="preserve" text-anchor="middle" x="767.99" y="-266.28" font-family="Times,serif" font-size="14.00">updates</text>
</g>
<!-- RFC6688&#45;&gt;updates -->
<g id="edge3" class="edge">
<title>RFC6688&#45;&gt;updates</title>
<path fill="none" stroke="black" d="M710.3,-271.33C716.42,-271.33 722.28,-271.33 727.75,-271.33"/>
<polygon fill="black" stroke="black" points="727.56,-274.83 737.56,-271.33 727.56,-267.83 727.56,-274.83"/>
</g>
<!-- cites -->
<g id="node7" class="node">
<title>cites</title>
<polygon fill="none" stroke="black" points="794.99,-221.33 740.99,-221.33 740.99,-185.33 794.99,-185.33 794.99,-221.33"/>
<text xml:space="preserve" text-anchor="middle" x="767.99" y="-198.28" font-family="Times,serif" font-size="14.00">cites</text>
</g>
<!-- RFC6688&#45;&gt;cites -->
<g id="edge6" class="edge">
<title>RFC6688&#45;&gt;cites</title>
<path fill="none" stroke="black" d="M674.16,-235.83C694.19,-228.82 713.97,-221.89 730.09,-216.25"/>
<polygon fill="black" stroke="black" points="730.92,-219.67 739.2,-213.06 728.61,-213.06 730.92,-219.67"/>
</g>
<!-- obs_by -->
<g id="node2" class="node">
<title>obs_by</title>
<polygon fill="none" stroke="black" points="408.74,-343.33 342.49,-343.33 342.49,-307.33 408.74,-307.33 408.74,-343.33"/>
<text xml:space="preserve" text-anchor="middle" x="375.62" y="-320.28" font-family="Times,serif" font-size="14.00">obsoletes</text>
</g>
<!-- obs_by&#45;&gt;RFC6688 -->
<g id="edge1" class="edge">
<title>obs_by&#45;&gt;RFC6688</title>
<path fill="none" stroke="black" d="M409.12,-316.29C420.67,-313.07 434.46,-309.24 449.05,-305.18"/>
<polygon fill="black" stroke="black" points="449.63,-308.65 458.33,-302.6 447.76,-301.91 449.63,-308.65"/>
</g>
<!-- RFC5663 -->
<g id="node5" class="node">
<title>RFC5663</title>
<g id="a_node5"><a xlink:href="RFC5663.html" xlink:title="Parallel NFS (pNFS) extends Network File Sharing version 4 (NFSv4) to allow clients to directly access file data on the storage used by the NFSv4 server. &#160;This ability to bypass the server for data access can increase both performance and parallelism, but requires additional client functionality for data access, some of which is dependent on the class of storage used. &#160;The main pNFS operations document specifies storage&#45;class&#45;independent extensions to NFS; this document specifies the additional extensions (primarily data structures) for use of pNFS with block&#45; and volume&#45;based storage. [STANDARDS&#45;TRACK]" target="_top">
<ellipse fill="none" stroke="black" cx="1006.07" cy="-286.33" rx="179.96" ry="40.66"/>
<text xml:space="preserve" text-anchor="middle" x="1006.07" y="-297.78" font-family="Times,serif" font-size="14.00">RFC5663</text>
<text xml:space="preserve" text-anchor="middle" x="1006.07" y="-281.28" font-family="Times,serif" font-size="14.00">Parallel NFS (pNFS) Block/Volume Layout</text>
<text xml:space="preserve" text-anchor="middle" x="1006.07" y="-264.78" font-family="Times,serif" font-size="14.00">2010</text>
</a>
</g>
</g>
<!-- updates&#45;&gt;RFC5663 -->
<g id="edge4" class="edge">
<title>updates&#45;&gt;RFC5663</title>
<path fill="none" stroke="black" d="M797,-273.11C804.12,-273.56 812.32,-274.08 821.25,-274.65"/>
<polygon fill="black" stroke="black" points="820.78,-278.12 830.98,-275.26 821.23,-271.14 820.78,-278.12"/>
</g>
<!-- updated_by -->
<g id="node6" class="node">
<title>updated_by</title>
<polygon fill="none" stroke="black" points="404.24,-289.33 346.99,-289.33 346.99,-253.33 404.24,-253.33 404.24,-289.33"/>
<text xml:space="preserve" text-anchor="middle" x="375.62" y="-266.28" font-family="Times,serif" font-size="14.00">updates</text>
</g>
<!-- updated_by&#45;&gt;RFC6688 -->
<g id="edge5" class="edge">
<title>updated_by&#45;&gt;RFC6688</title>
<path fill="none" stroke="black" d="M404.44,-271.33C409.81,-271.33 415.78,-271.33 422.16,-271.33"/>
<polygon fill="black" stroke="black" points="421.76,-274.83 431.76,-271.33 421.76,-267.83 421.76,-274.83"/>
</g>
<!-- cites&#45;&gt;RFC5663 -->
<g id="edge7" class="edge">
<title>cites&#45;&gt;RFC5663</title>
<path fill="none" stroke="black" d="M795.3,-220.38C804.75,-226 815.66,-231.93 826.12,-236.33 840.61,-242.42 856.08,-248.01 871.62,-253.06"/>
<polygon fill="black" stroke="black" points="870.34,-256.33 880.93,-256.02 872.46,-249.66 870.34,-256.33"/>
</g>
<!-- RFC2119 -->
<g id="node8" class="node">
<title>RFC2119</title>
<g id="a_node8"><a xlink:href="RFC2119.html" xlink:title="In many standards track documents several words are used to signify the requirements in the specification. &#160;These words are often capitalized. &#160;This document defines these words as they should be interpreted in IETF documents. &#160;This document specifies an Internet Best Current Practices for the Internet Community, and requests discussion and suggestions for improvements." target="_top">
<ellipse fill="none" stroke="black" cx="1006.07" cy="-175.33" rx="160.34" ry="52.33"/>
<text xml:space="preserve" text-anchor="middle" x="1006.07" y="-195.03" font-family="Times,serif" font-size="14.00">RFC2119</text>
<text xml:space="preserve" text-anchor="middle" x="1006.07" y="-178.53" font-family="Times,serif" font-size="14.00">Key words for use in RFCs to Indicate</text>
<text xml:space="preserve" text-anchor="middle" x="1006.07" y="-162.03" font-family="Times,serif" font-size="14.00">Requirement Levels</text>
<text xml:space="preserve" text-anchor="middle" x="1006.07" y="-145.53" font-family="Times,serif" font-size="14.00">1997</text>
</a>
</g>
</g>
<!-- cites&#45;&gt;RFC2119 -->
<g id="edge8" class="edge">
<title>cites&#45;&gt;RFC2119</title>
<path fill="none" stroke="black" d="M795.16,-200.22C808.14,-198.68 825.01,-196.68 843.54,-194.48"/>
<polygon fill="black" stroke="black" points="843.93,-197.96 853.45,-193.31 843.1,-191.01 843.93,-197.96"/>
</g>
<!-- RFC4122 -->
<g id="node9" class="node">
<title>RFC4122</title>
<g id="a_node9"><a xlink:href="RFC4122.html" xlink:title="This specification defines a Uniform Resource Name namespace for UUIDs (Universally Unique IDentifier), also known as GUIDs (Globally Unique IDentifier). A UUID is 128 bits long, and can guarantee uniqueness across space and time. UUIDs were originally used in the Apollo Network Computing System and later in the Open Software Foundation&#39;s (OSF) Distributed Computing Environment (DCE), and then in Microsoft Windows platforms. This specification is derived from the DCE specification with the kind permission of the OSF (now known as The Open Group). Information from earlier versions of the DCE specification have been incorporated into this document. [STANDARDS&#45;TRACK]" target="_top">
<ellipse fill="none" stroke="black" cx="1006.07" cy="-52.33" rx="168.82" ry="52.33"/>
<text xml:space="preserve" text-anchor="middle" x="1006.07" y="-72.03" font-family="Times,serif" font-size="14.00">RFC4122</text>
<text xml:space="preserve" text-anchor="middle" x="1006.07" y="-55.53" font-family="Times,serif" font-size="14.00">A Universally Unique IDentifier (UUID)</text>
<text xml:space="preserve" text-anchor="middle" x="1006.07" y="-39.03" font-family="Times,serif" font-size="14.00">URN Namespace</text>
<text xml:space="preserve" text-anchor="middle" x="1006.07" y="-22.53" font-family="Times,serif" font-size="14.00">2005</text>
</a>
</g>
</g>
<!-- cites&#45;&gt;RFC4122 -->
<g id="edge9" class="edge">
<title>cites&#45;&gt;RFC4122</title>
<path fill="none" stroke="black" d="M776.33,-185.05C785.26,-165 802.17,-133.18 826.12,-114.33 837.86,-105.08 851.08,-97.16 864.88,-90.39"/>
<polygon fill="black" stroke="black" points="866.06,-93.7 873.64,-86.3 863.1,-87.36 866.06,-93.7"/>
</g>
<!-- rev_cites -->
<g id="node10" class="node">
<title>rev_cites</title>
<polygon fill="none" stroke="black" points="402.62,-235.33 348.62,-235.33 348.62,-199.33 402.62,-199.33 402.62,-235.33"/>
<text xml:space="preserve" text-anchor="middle" x="375.62" y="-212.28" font-family="Times,serif" font-size="14.00">cites</text>
</g>
<!-- rev_cites&#45;&gt;RFC6688 -->
<g id="edge10" class="edge">
<title>rev_cites&#45;&gt;RFC6688</title>
<path fill="none" stroke="black" d="M402.8,-224.61C415.41,-228.11 431.51,-232.59 448.75,-237.38"/>
<polygon fill="black" stroke="black" points="447.57,-240.69 458.14,-240 449.45,-233.95 447.57,-240.69"/>
</g>
<!-- RFC8154 -->
<g id="node11" class="node">
<title>RFC8154</title>
<g id="a_node11"><a xlink:href="RFC8154.html" xlink:title="The Parallel Network File System (pNFS) allows a separation between the metadata (onto a metadata server) and data (onto a storage device) for a file. &#160;The Small Computer System Interface (SCSI) layout type is defined in this document as an extension to pNFS to allow the use of SCSI&#45;based block storage devices." target="_top">
<ellipse fill="none" stroke="black" cx="158.75" cy="-217.33" rx="158.75" ry="52.33"/>
<text xml:space="preserve" text-anchor="middle" x="158.75" y="-237.03" font-family="Times,serif" font-size="14.00">RFC8154</text>
<text xml:space="preserve" text-anchor="middle" x="158.75" y="-220.53" font-family="Times,serif" font-size="14.00">Parallel NFS (pNFS) Small Computer</text>
<text xml:space="preserve" text-anchor="middle" x="158.75" y="-204.03" font-family="Times,serif" font-size="14.00">System Interface (SCSI) Layout</text>
<text xml:space="preserve" text-anchor="middle" x="158.75" y="-187.53" font-family="Times,serif" font-size="14.00">2017</text>
</a>
</g>
</g>
<!-- RFC8154&#45;&gt;rev_cites -->
<g id="edge11" class="edge">
<title>RFC8154&#45;&gt;rev_cites</title>
<path fill="none" stroke="black" d="M317.88,-217.33C324.63,-217.33 331.04,-217.33 336.95,-217.33"/>
<polygon fill="black" stroke="black" points="336.82,-220.83 346.82,-217.33 336.82,-213.83 336.82,-220.83"/>
</g>
</g>
</svg>
