<?xml version="1.0" encoding="UTF-8" standalone="no"?>
<!DOCTYPE svg PUBLIC "-//W3C//DTD SVG 1.1//EN"
 "http://www.w3.org/Graphics/SVG/1.1/DTD/svg11.dtd">
<!-- Generated by graphviz version 14.1.1 (20251213.1925)
 -->
<!-- Title: Flow Pages: 1 -->
<svg width="1126pt" height="434pt"
 viewBox="0.00 0.00 1126.00 434.00" xmlns="http://www.w3.org/2000/svg" xmlns:xlink="http://www.w3.org/1999/xlink">
<g id="graph0" class="graph" transform="scale(1 1) rotate(0) translate(4 430.32)">
<title>Flow</title>
<polygon fill="white" stroke="none" points="-4,4 -4,-430.32 1122.15,-430.32 1122.15,4 -4,4"/>
<!-- RFC6473 -->
<g id="node1" class="node">
<title>RFC6473</title>
<g id="a_node1"><a xlink:title="This document defines a value of application for the vCard KIND property so that vCards can be used to represent software applications. [STANDARDS&#45;TRACK]">
<ellipse fill="green" stroke="black" cx="567.56" cy="-266.66" rx="106.24" ry="40.66"/>
<text xml:space="preserve" text-anchor="middle" x="567.56" y="-278.11" font-family="Times,serif" font-size="14.00">RFC6473</text>
<text xml:space="preserve" text-anchor="middle" x="567.56" y="-261.61" font-family="Times,serif" font-size="14.00">vCard KIND:application</text>
<text xml:space="preserve" text-anchor="middle" x="567.56" y="-245.11" font-family="Times,serif" font-size="14.00">2011</text>
</a>
</g>
</g>
<!-- obs -->
<g id="node3" class="node">
<title>obs</title>
<polygon fill="lightblue" stroke="black" points="765.05,-338.66 698.8,-338.66 698.8,-302.66 765.05,-302.66 765.05,-338.66"/>
<text xml:space="preserve" text-anchor="middle" x="731.93" y="-315.61" font-family="Times,serif" font-size="14.00">obsoletes</text>
</g>
<!-- RFC6473&#45;&gt;obs -->
<g id="edge2" class="edge">
<title>RFC6473&#45;&gt;obs</title>
<path fill="none" stroke="black" d="M648.79,-293.34C662.25,-297.82 675.74,-302.31 687.79,-306.31"/>
<polygon fill="black" stroke="black" points="686.38,-309.53 696.97,-309.36 688.59,-302.89 686.38,-309.53"/>
</g>
<!-- updates -->
<g id="node4" class="node">
<title>updates</title>
<polygon fill="lightyellow" stroke="black" points="760.55,-284.66 703.3,-284.66 703.3,-248.66 760.55,-248.66 760.55,-284.66"/>
<text xml:space="preserve" text-anchor="middle" x="731.93" y="-261.61" font-family="Times,serif" font-size="14.00">updates</text>
</g>
<!-- RFC6473&#45;&gt;updates -->
<g id="edge3" class="edge">
<title>RFC6473&#45;&gt;updates</title>
<path fill="none" stroke="black" d="M674.14,-266.66C680.16,-266.66 685.99,-266.66 691.47,-266.66"/>
<polygon fill="black" stroke="black" points="691.33,-270.16 701.33,-266.66 691.33,-263.16 691.33,-270.16"/>
</g>
<!-- cites -->
<g id="node6" class="node">
<title>cites</title>
<polygon fill="lightblue" stroke="black" points="758.93,-230.66 704.93,-230.66 704.93,-194.66 758.93,-194.66 758.93,-230.66"/>
<text xml:space="preserve" text-anchor="middle" x="731.93" y="-207.61" font-family="Times,serif" font-size="14.00">cites</text>
</g>
<!-- RFC6473&#45;&gt;cites -->
<g id="edge5" class="edge">
<title>RFC6473&#45;&gt;cites</title>
<path fill="none" stroke="black" d="M648.79,-239.98C664.52,-234.74 680.3,-229.5 693.76,-225.02"/>
<polygon fill="black" stroke="black" points="694.65,-228.41 703.04,-221.93 692.44,-221.77 694.65,-228.41"/>
</g>
<!-- obs_by -->
<g id="node2" class="node">
<title>obs_by</title>
<polygon fill="lightblue" stroke="black" points="436.32,-338.66 370.07,-338.66 370.07,-302.66 436.32,-302.66 436.32,-338.66"/>
<text xml:space="preserve" text-anchor="middle" x="403.19" y="-315.61" font-family="Times,serif" font-size="14.00">obsoletes</text>
</g>
<!-- obs_by&#45;&gt;RFC6473 -->
<g id="edge1" class="edge">
<title>obs_by&#45;&gt;RFC6473</title>
<path fill="none" stroke="black" d="M436.66,-309.86C448.16,-306.03 461.74,-301.52 475.7,-296.88"/>
<polygon fill="black" stroke="black" points="476.61,-300.26 484.99,-293.79 474.4,-293.62 476.61,-300.26"/>
</g>
<!-- updated_by -->
<g id="node5" class="node">
<title>updated_by</title>
<polygon fill="lightyellow" stroke="black" points="431.82,-284.66 374.57,-284.66 374.57,-248.66 431.82,-248.66 431.82,-284.66"/>
<text xml:space="preserve" text-anchor="middle" x="403.19" y="-261.61" font-family="Times,serif" font-size="14.00">updates</text>
</g>
<!-- updated_by&#45;&gt;RFC6473 -->
<g id="edge4" class="edge">
<title>updated_by&#45;&gt;RFC6473</title>
<path fill="none" stroke="black" d="M432.11,-266.66C437.57,-266.66 443.6,-266.66 450,-266.66"/>
<polygon fill="black" stroke="black" points="449.57,-270.16 459.57,-266.66 449.57,-263.16 449.57,-270.16"/>
</g>
<!-- RFC6350 -->
<g id="node7" class="node">
<title>RFC6350</title>
<g id="a_node7"><a xlink:href="RFC6350.html" xlink:title="This document defines the vCard data format for representing and exchanging a variety of information about individuals and other entities (e.g., formatted and structured name and delivery addresses, email address, multiple telephone numbers, photograph, logo, audio clips, etc.). &#160;This document obsoletes RFCs 2425, 2426, and 4770, and updates RFC 2739. [STANDARDS&#45;TRACK]" target="_top">
<ellipse fill="none" stroke="black" cx="954.1" cy="-385.66" rx="118.44" ry="40.66"/>
<text xml:space="preserve" text-anchor="middle" x="954.1" y="-397.11" font-family="Times,serif" font-size="14.00">RFC6350</text>
<text xml:space="preserve" text-anchor="middle" x="954.1" y="-380.61" font-family="Times,serif" font-size="14.00">vCard Format Specification</text>
<text xml:space="preserve" text-anchor="middle" x="954.1" y="-364.11" font-family="Times,serif" font-size="14.00">2011</text>
</a>
</g>
</g>
<!-- cites&#45;&gt;RFC6350 -->
<g id="edge6" class="edge">
<title>cites&#45;&gt;RFC6350</title>
<path fill="none" stroke="black" d="M758.08,-230.99C760.7,-233.67 763.11,-236.58 765.05,-239.66 788.6,-276.94 759.55,-303.82 790.05,-335.66 802.44,-348.58 818.06,-358.19 834.71,-365.33"/>
<polygon fill="black" stroke="black" points="833.19,-368.49 843.78,-368.91 835.76,-361.98 833.19,-368.49"/>
</g>
<!-- RFC4519 -->
<g id="node8" class="node">
<title>RFC4519</title>
<g id="a_node8"><a xlink:href="RFC4519.html" xlink:title="This document is an integral part of the Lightweight Directory Access Protocol (LDAP) technical specification. &#160;It provides a technical specification of attribute types and object classes intended for use by LDAP directory clients for many directory services, such as White Pages. &#160;These objects are widely used as a basis for the schema in many LDAP directories. &#160;This document does not cover attributes used for the administration of directory servers, nor does it include directory objects defined for specific uses in other documents. [STANDARDS&#45;TRACK]" target="_top">
<ellipse fill="none" stroke="black" cx="954.1" cy="-274.66" rx="164.05" ry="52.33"/>
<text xml:space="preserve" text-anchor="middle" x="954.1" y="-294.36" font-family="Times,serif" font-size="14.00">RFC4519</text>
<text xml:space="preserve" text-anchor="middle" x="954.1" y="-277.86" font-family="Times,serif" font-size="14.00">Lightweight Directory Access Protocol</text>
<text xml:space="preserve" text-anchor="middle" x="954.1" y="-261.36" font-family="Times,serif" font-size="14.00">(LDAP): Schema for User Applications</text>
<text xml:space="preserve" text-anchor="middle" x="954.1" y="-244.86" font-family="Times,serif" font-size="14.00">2006</text>
</a>
</g>
</g>
<!-- cites&#45;&gt;RFC4519 -->
<g id="edge7" class="edge">
<title>cites&#45;&gt;RFC4519</title>
<path fill="none" stroke="black" d="M759.05,-220.01C774.83,-224.46 796.28,-230.5 819.18,-236.95"/>
<polygon fill="black" stroke="black" points="818.12,-240.28 828.7,-239.63 820.02,-233.55 818.12,-240.28"/>
</g>
<!-- RFC6120 -->
<g id="node9" class="node">
<title>RFC6120</title>
<g id="a_node9"><a xlink:href="RFC6120.html" xlink:title="The Extensible Messaging and Presence Protocol (XMPP) is an application profile of the Extensible Markup Language (XML) that enables the near&#45;real&#45;time exchange of structured yet extensible data between any two or more network entities. &#160;This document defines XMPP&#39;s core protocol methods: setup and teardown of XML streams, channel encryption, authentication, error handling, and communication primitives for messaging, network availability (presence), and request&#45;response interactions. &#160;This document obsoletes RFC 3920. [STANDARDS&#45;TRACK]" target="_top">
<ellipse fill="none" stroke="black" cx="954.1" cy="-151.66" rx="149.2" ry="52.33"/>
<text xml:space="preserve" text-anchor="middle" x="954.1" y="-171.36" font-family="Times,serif" font-size="14.00">RFC6120</text>
<text xml:space="preserve" text-anchor="middle" x="954.1" y="-154.86" font-family="Times,serif" font-size="14.00">Extensible Messaging and Presence</text>
<text xml:space="preserve" text-anchor="middle" x="954.1" y="-138.36" font-family="Times,serif" font-size="14.00">Protocol (XMPP): Core</text>
<text xml:space="preserve" text-anchor="middle" x="954.1" y="-121.86" font-family="Times,serif" font-size="14.00">2011</text>
</a>
</g>
</g>
<!-- cites&#45;&gt;RFC6120 -->
<g id="edge8" class="edge">
<title>cites&#45;&gt;RFC6120</title>
<path fill="none" stroke="black" d="M759.05,-205.42C776.24,-200.66 800.16,-194.03 825.35,-187.05"/>
<polygon fill="black" stroke="black" points="826.05,-190.49 834.75,-184.45 824.18,-183.75 826.05,-190.49"/>
</g>
<!-- RFC6351 -->
<g id="node10" class="node">
<title>RFC6351</title>
<g id="a_node10"><a xlink:href="RFC6351.html" xlink:title="This document defines the XML schema of the vCard data format. [STANDARDS&#45;TRACK]" target="_top">
<ellipse fill="none" stroke="black" cx="954.1" cy="-40.66" rx="147.08" ry="40.66"/>
<text xml:space="preserve" text-anchor="middle" x="954.1" y="-52.11" font-family="Times,serif" font-size="14.00">RFC6351</text>
<text xml:space="preserve" text-anchor="middle" x="954.1" y="-35.61" font-family="Times,serif" font-size="14.00">xCard: vCard XML Representation</text>
<text xml:space="preserve" text-anchor="middle" x="954.1" y="-19.11" font-family="Times,serif" font-size="14.00">2011</text>
</a>
</g>
</g>
<!-- cites&#45;&gt;RFC6351 -->
<g id="edge9" class="edge">
<title>cites&#45;&gt;RFC6351</title>
<path fill="none" stroke="black" d="M736.54,-194.53C742.77,-167.91 758.1,-118.42 790.05,-90.66 800.01,-82.01 811.43,-74.86 823.51,-68.95"/>
<polygon fill="black" stroke="black" points="824.77,-72.22 832.42,-64.89 821.87,-65.85 824.77,-72.22"/>
</g>
<!-- rev_cites -->
<g id="node11" class="node">
<title>rev_cites</title>
<polygon fill="lightblue" stroke="black" points="430.19,-230.66 376.19,-230.66 376.19,-194.66 430.19,-194.66 430.19,-230.66"/>
<text xml:space="preserve" text-anchor="middle" x="403.19" y="-207.61" font-family="Times,serif" font-size="14.00">cites</text>
</g>
<!-- rev_cites&#45;&gt;RFC6473 -->
<g id="edge10" class="edge">
<title>rev_cites&#45;&gt;RFC6473</title>
<path fill="none" stroke="black" d="M430.64,-221.45C443.25,-225.65 459.15,-230.94 475.59,-236.4"/>
<polygon fill="black" stroke="black" points="474.42,-239.7 485.01,-239.54 476.63,-233.06 474.42,-239.7"/>
</g>
<!-- RFC6869 -->
<g id="node12" class="node">
<title>RFC6869</title>
<g id="a_node12"><a xlink:href="RFC6869.html" xlink:title="This document defines a value of device for the vCard KIND property so that the vCard format can be used to represent computing devices such as appliances, computers, or network elements (e.g., a server, router, switch, printer, sensor, or phone). [STANDARDS&#45;TRACK]" target="_top">
<ellipse fill="none" stroke="black" cx="172.53" cy="-323.66" rx="88.74" ry="40.66"/>
<text xml:space="preserve" text-anchor="middle" x="172.53" y="-335.11" font-family="Times,serif" font-size="14.00">RFC6869</text>
<text xml:space="preserve" text-anchor="middle" x="172.53" y="-318.61" font-family="Times,serif" font-size="14.00">vCard KIND:device</text>
<text xml:space="preserve" text-anchor="middle" x="172.53" y="-302.11" font-family="Times,serif" font-size="14.00">2013</text>
</a>
</g>
</g>
<!-- RFC6869&#45;&gt;rev_cites -->
<g id="edge11" class="edge">
<title>RFC6869&#45;&gt;rev_cites</title>
<path fill="none" stroke="black" d="M256.92,-310.83C286.64,-303.41 319.14,-291.79 345.07,-273.66 360.44,-262.91 357.24,-253.34 370.07,-239.66 370.33,-239.38 370.59,-239.1 370.86,-238.82"/>
<polygon fill="black" stroke="black" points="373.23,-241.4 378.02,-231.95 368.39,-236.35 373.23,-241.4"/>
</g>
<!-- RFC9553 -->
<g id="node13" class="node">
<title>RFC9553</title>
<g id="a_node13"><a xlink:href="RFC9553.html" xlink:title="This specification defines a data model and JavaScript Object Notation (JSON) representation of contact card information that can be used for data storage and exchange in address book or directory applications. &#160;It aims to be an alternative to the vCard data format and to be unambiguous, extendable, and simple to process. &#160;In contrast to the JSON&#45;based jCard format, it is not a direct mapping from the vCard data model and expands semantics where appropriate. &#160;Two additional specifications define new vCard elements and how to convert between JSContact and vCard." target="_top">
<ellipse fill="none" stroke="black" cx="172.53" cy="-212.66" rx="156.62" ry="52.33"/>
<text xml:space="preserve" text-anchor="middle" x="172.53" y="-232.36" font-family="Times,serif" font-size="14.00">RFC9553</text>
<text xml:space="preserve" text-anchor="middle" x="172.53" y="-215.86" font-family="Times,serif" font-size="14.00">JSContact: A JSON Representation of</text>
<text xml:space="preserve" text-anchor="middle" x="172.53" y="-199.36" font-family="Times,serif" font-size="14.00">Contact Data</text>
<text xml:space="preserve" text-anchor="middle" x="172.53" y="-182.86" font-family="Times,serif" font-size="14.00">2024</text>
</a>
</g>
</g>
<!-- RFC9553&#45;&gt;rev_cites -->
<g id="edge12" class="edge">
<title>RFC9553&#45;&gt;rev_cites</title>
<path fill="none" stroke="black" d="M329.53,-212.66C342.21,-212.66 354.11,-212.66 364.45,-212.66"/>
<polygon fill="black" stroke="black" points="364.32,-216.16 374.32,-212.66 364.32,-209.16 364.32,-216.16"/>
</g>
<!-- RFC9555 -->
<g id="node14" class="node">
<title>RFC9555</title>
<g id="a_node14"><a xlink:href="RFC9555.html" xlink:title="This document defines how to convert contact information between the JSContact and vCard data formats. &#160;It defines conversion rules for every JSContact and vCard element registered at IANA at the time of publication. &#160;It also defines new JSContact properties as well as vCard properties and parameters, to support converting arbitrary or unknown JSContact and vCard elements." target="_top">
<ellipse fill="none" stroke="black" cx="172.53" cy="-101.66" rx="172.53" ry="40.66"/>
<text xml:space="preserve" text-anchor="middle" x="172.53" y="-113.11" font-family="Times,serif" font-size="14.00">RFC9555</text>
<text xml:space="preserve" text-anchor="middle" x="172.53" y="-96.61" font-family="Times,serif" font-size="14.00">JSContact: Converting from and to vCard</text>
<text xml:space="preserve" text-anchor="middle" x="172.53" y="-80.11" font-family="Times,serif" font-size="14.00">2024</text>
</a>
</g>
</g>
<!-- RFC9555&#45;&gt;rev_cites -->
<g id="edge13" class="edge">
<title>RFC9555&#45;&gt;rev_cites</title>
<path fill="none" stroke="black" d="M298.73,-129.55C314.91,-135.6 330.8,-142.89 345.07,-151.66 359.35,-160.43 372.38,-173.72 382.37,-185.65"/>
<polygon fill="black" stroke="black" points="379.47,-187.61 388.45,-193.23 384.93,-183.24 379.47,-187.61"/>
</g>
</g>
</svg>
