<?xml version="1.0" encoding="UTF-8" standalone="no"?>
<!DOCTYPE svg PUBLIC "-//W3C//DTD SVG 1.1//EN"
 "http://www.w3.org/Graphics/SVG/1.1/DTD/svg11.dtd">
<!-- Generated by graphviz version 14.1.1 (20251213.1925)
 -->
<!-- Title: Flow Pages: 1 -->
<svg width="885pt" height="579pt"
 viewBox="0.00 0.00 885.00 579.00" xmlns="http://www.w3.org/2000/svg" xmlns:xlink="http://www.w3.org/1999/xlink">
<g id="graph0" class="graph" transform="scale(1 1) rotate(0) translate(4 574.98)">
<title>Flow</title>
<polygon fill="white" stroke="none" points="-4,4 -4,-574.98 881.48,-574.98 881.48,4 -4,4"/>
<!-- RFC6207 -->
<g id="node1" class="node">
<title>RFC6207</title>
<g id="a_node1"><a xlink:title="This document specifies media types for the following formats: MODS (Metadata Object Description Schema), MADS (Metadata Authority Description Schema), METS (Metadata Encoding and Transmission Standard), MARCXML (MARC21 XML Schema), and the SRU (Search/Retrieve via URL Response Format) protocol response XML schema. &#160;These are all XML schemas providing representations of various forms of information including metadata and search results. &#160;This document is not an Internet Standards Track specification; it is published for informational purposes.">
<ellipse fill="green" stroke="black" cx="263.25" cy="-374.33" rx="172" ry="87.33"/>
<text xml:space="preserve" text-anchor="middle" x="263.25" y="-418.78" font-family="Times,serif" font-size="14.00">RFC6207</text>
<text xml:space="preserve" text-anchor="middle" x="263.25" y="-402.28" font-family="Times,serif" font-size="14.00">The Media Types application/mods+xml,</text>
<text xml:space="preserve" text-anchor="middle" x="263.25" y="-385.78" font-family="Times,serif" font-size="14.00">application/mads+xml,</text>
<text xml:space="preserve" text-anchor="middle" x="263.25" y="-369.28" font-family="Times,serif" font-size="14.00">application/mets+xml,</text>
<text xml:space="preserve" text-anchor="middle" x="263.25" y="-352.78" font-family="Times,serif" font-size="14.00">application/marcxml+xml, and</text>
<text xml:space="preserve" text-anchor="middle" x="263.25" y="-336.28" font-family="Times,serif" font-size="14.00">application/sru+xml</text>
<text xml:space="preserve" text-anchor="middle" x="263.25" y="-319.78" font-family="Times,serif" font-size="14.00">2011</text>
</a>
</g>
</g>
<!-- obs -->
<g id="node3" class="node">
<title>obs</title>
<polygon fill="lightblue" stroke="black" points="526.51,-446.33 460.26,-446.33 460.26,-410.33 526.51,-410.33 526.51,-446.33"/>
<text xml:space="preserve" text-anchor="middle" x="493.38" y="-423.28" font-family="Times,serif" font-size="14.00">obsoletes</text>
</g>
<!-- RFC6207&#45;&gt;obs -->
<g id="edge2" class="edge">
<title>RFC6207&#45;&gt;obs</title>
<path fill="none" stroke="black" d="M419.57,-411.09C430,-413.56 439.89,-415.9 448.83,-418.02"/>
<polygon fill="black" stroke="black" points="447.99,-421.41 458.53,-420.31 449.6,-414.6 447.99,-421.41"/>
</g>
<!-- updates -->
<g id="node4" class="node">
<title>updates</title>
<polygon fill="lightyellow" stroke="black" points="522.01,-392.33 464.76,-392.33 464.76,-356.33 522.01,-356.33 522.01,-392.33"/>
<text xml:space="preserve" text-anchor="middle" x="493.38" y="-369.28" font-family="Times,serif" font-size="14.00">updates</text>
</g>
<!-- RFC6207&#45;&gt;updates -->
<g id="edge3" class="edge">
<title>RFC6207&#45;&gt;updates</title>
<path fill="none" stroke="black" d="M435.7,-374.33C441.87,-374.33 447.75,-374.33 453.21,-374.33"/>
<polygon fill="black" stroke="black" points="452.96,-377.83 462.96,-374.33 452.96,-370.83 452.96,-377.83"/>
</g>
<!-- cites -->
<g id="node6" class="node">
<title>cites</title>
<polygon fill="lightblue" stroke="black" points="520.38,-338.33 466.38,-338.33 466.38,-302.33 520.38,-302.33 520.38,-338.33"/>
<text xml:space="preserve" text-anchor="middle" x="493.38" y="-315.28" font-family="Times,serif" font-size="14.00">cites</text>
</g>
<!-- RFC6207&#45;&gt;cites -->
<g id="edge5" class="edge">
<title>RFC6207&#45;&gt;cites</title>
<path fill="none" stroke="black" d="M419.57,-337.56C432.41,-334.52 444.45,-331.67 454.89,-329.2"/>
<polygon fill="black" stroke="black" points="455.56,-332.64 464.49,-326.93 453.95,-325.83 455.56,-332.64"/>
</g>
<!-- obs_by -->
<g id="node2" class="node">
<title>obs_by</title>
<polygon fill="lightblue" stroke="black" points="66.25,-446.33 0,-446.33 0,-410.33 66.25,-410.33 66.25,-446.33"/>
<text xml:space="preserve" text-anchor="middle" x="33.12" y="-423.28" font-family="Times,serif" font-size="14.00">obsoletes</text>
</g>
<!-- obs_by&#45;&gt;RFC6207 -->
<g id="edge1" class="edge">
<title>obs_by&#45;&gt;RFC6207</title>
<path fill="none" stroke="black" d="M66.33,-420.7C74.99,-418.65 84.97,-416.29 95.76,-413.74"/>
<polygon fill="black" stroke="black" points="96.4,-417.18 105.33,-411.47 94.79,-410.37 96.4,-417.18"/>
</g>
<!-- updated_by -->
<g id="node5" class="node">
<title>updated_by</title>
<polygon fill="lightyellow" stroke="black" points="61.75,-392.33 4.5,-392.33 4.5,-356.33 61.75,-356.33 61.75,-392.33"/>
<text xml:space="preserve" text-anchor="middle" x="33.12" y="-369.28" font-family="Times,serif" font-size="14.00">updates</text>
</g>
<!-- updated_by&#45;&gt;RFC6207 -->
<g id="edge4" class="edge">
<title>updated_by&#45;&gt;RFC6207</title>
<path fill="none" stroke="black" d="M62.1,-374.33C67.43,-374.33 73.37,-374.33 79.76,-374.33"/>
<polygon fill="black" stroke="black" points="79.41,-377.83 89.41,-374.33 79.41,-370.83 79.41,-377.83"/>
</g>
<!-- RFC2220 -->
<g id="node7" class="node">
<title>RFC2220</title>
<g id="a_node7"><a xlink:href="RFC2220.html" xlink:title="This memorandum provides a mechanism for representing objects which are files of Machine&#45;Readable Cataloging records (MARC). &#160;The MARC formats are standards for the representation and communication of bibliographic and related information. &#160;A MARC record contains metadata for an information resource following MARC format specifications. &#160;This memo provides information for the Internet community. &#160;It does not specify an Internet standard of any kind." target="_top">
<ellipse fill="none" stroke="black" cx="714.5" cy="-530.33" rx="157.15" ry="40.66"/>
<text xml:space="preserve" text-anchor="middle" x="714.5" y="-541.78" font-family="Times,serif" font-size="14.00">RFC2220</text>
<text xml:space="preserve" text-anchor="middle" x="714.5" y="-525.28" font-family="Times,serif" font-size="14.00">The Application/MARC Content&#45;type</text>
<text xml:space="preserve" text-anchor="middle" x="714.5" y="-508.78" font-family="Times,serif" font-size="14.00">1997</text>
</a>
</g>
</g>
<!-- cites&#45;&gt;RFC2220 -->
<g id="edge6" class="edge">
<title>cites&#45;&gt;RFC2220</title>
<path fill="none" stroke="black" d="M519.74,-338.53C522.33,-341.23 524.67,-344.18 526.51,-347.33 557.04,-399.65 511.07,-436.21 551.51,-481.33 558.49,-489.12 566.67,-495.69 575.57,-501.23"/>
<polygon fill="black" stroke="black" points="573.75,-504.22 584.18,-506.11 577.2,-498.13 573.75,-504.22"/>
</g>
<!-- RFC3023 -->
<g id="node8" class="node">
<title>RFC3023</title>
<g id="a_node8"><a xlink:href="RFC3023.html" xlink:title="This document standardizes five new media types &#45;&#45; text/xml, application/xml, text/xml&#45;external&#45;parsed&#45;entity, application/xml&#45; external&#45;parsed&#45;entity, and application/xml&#45;dtd &#45;&#45; for use in exchanging network entities that are related to the Extensible Markup Language (XML). &#160;This document also standardizes a convention (using the suffix &#39;+xml&#39;) for naming media types outside of these five types when those media types represent XML MIME (Multipurpose Internet Mail Extensions) entities. [STANDARDS&#45;TRACK]" target="_top">
<ellipse fill="none" stroke="black" cx="714.5" cy="-431.33" rx="85.56" ry="40.66"/>
<text xml:space="preserve" text-anchor="middle" x="714.5" y="-442.78" font-family="Times,serif" font-size="14.00">RFC3023</text>
<text xml:space="preserve" text-anchor="middle" x="714.5" y="-426.28" font-family="Times,serif" font-size="14.00">XML Media Types</text>
<text xml:space="preserve" text-anchor="middle" x="714.5" y="-409.78" font-family="Times,serif" font-size="14.00">2001</text>
</a>
</g>
</g>
<!-- cites&#45;&gt;RFC3023 -->
<g id="edge7" class="edge">
<title>cites&#45;&gt;RFC3023</title>
<path fill="none" stroke="black" d="M517.46,-338.56C520.61,-341.38 523.72,-344.35 526.51,-347.33 539.33,-361.01 536.22,-370.46 551.51,-381.33 572.61,-396.33 598.34,-406.93 623.03,-414.37"/>
<polygon fill="black" stroke="black" points="621.87,-417.68 632.44,-417.06 623.79,-410.95 621.87,-417.68"/>
</g>
<!-- RFC3986 -->
<g id="node9" class="node">
<title>RFC3986</title>
<g id="a_node9"><a xlink:href="RFC3986.html" xlink:title="A Uniform Resource Identifier (URI) is a compact sequence of characters that identifies an abstract or physical resource. &#160;This specification defines the generic URI syntax and a process for resolving URI references that might be in relative form, along with guidelines and security considerations for the use of URIs on the Internet. &#160;The URI syntax defines a grammar that is a superset of all valid URIs, allowing an implementation to parse the common components of a URI reference without knowing the scheme&#45;specific requirements of every possible identifier. &#160;This specification does not define a generative grammar for URIs; that task is performed by the individual specifications of each URI scheme. [STANDARDS&#45;TRACK]" target="_top">
<ellipse fill="none" stroke="black" cx="714.5" cy="-320.33" rx="149.2" ry="52.33"/>
<text xml:space="preserve" text-anchor="middle" x="714.5" y="-340.03" font-family="Times,serif" font-size="14.00">RFC3986</text>
<text xml:space="preserve" text-anchor="middle" x="714.5" y="-323.53" font-family="Times,serif" font-size="14.00">Uniform Resource Identifier (URI):</text>
<text xml:space="preserve" text-anchor="middle" x="714.5" y="-307.03" font-family="Times,serif" font-size="14.00">Generic Syntax</text>
<text xml:space="preserve" text-anchor="middle" x="714.5" y="-290.53" font-family="Times,serif" font-size="14.00">2005</text>
</a>
</g>
</g>
<!-- cites&#45;&gt;RFC3986 -->
<g id="edge8" class="edge">
<title>cites&#45;&gt;RFC3986</title>
<path fill="none" stroke="black" d="M520.81,-320.33C530.05,-320.33 541.2,-320.33 553.42,-320.33"/>
<polygon fill="black" stroke="black" points="553.42,-323.83 563.42,-320.33 553.42,-316.83 553.42,-323.83"/>
</g>
<!-- RFC3470 -->
<g id="node10" class="node">
<title>RFC3470</title>
<g id="a_node10"><a xlink:href="RFC3470.html" xlink:title="The Extensible Markup Language (XML) is a framework for structuring data. &#160;While it evolved from Standard Generalized Markup Language (SGML) &#45;&#45; a markup language primarily focused on structuring documents &#45;&#45; XML has evolved to be a widely&#45;used mechanism for representing structured data. &#160;There are a wide variety of Internet protocols being developed; many have need for a representation for structured data relevant to their application. &#160;There has been much interest in the use of XML as a representation method. &#160;This document describes basic XML concepts, analyzes various alternatives in the use of XML, and provides guidelines for the use of XML within IETF standards&#45;track protocols. &#160;This document specifies an Internet Best Current Practices for the Internet Community, and requests discussion and suggestions for improvements." target="_top">
<ellipse fill="none" stroke="black" cx="714.5" cy="-186.33" rx="162.99" ry="63.99"/>
<text xml:space="preserve" text-anchor="middle" x="714.5" y="-214.28" font-family="Times,serif" font-size="14.00">RFC3470</text>
<text xml:space="preserve" text-anchor="middle" x="714.5" y="-197.78" font-family="Times,serif" font-size="14.00">Guidelines for the Use of Extensible</text>
<text xml:space="preserve" text-anchor="middle" x="714.5" y="-181.28" font-family="Times,serif" font-size="14.00">Markup Language (XML) within IETF</text>
<text xml:space="preserve" text-anchor="middle" x="714.5" y="-164.78" font-family="Times,serif" font-size="14.00">Protocols</text>
<text xml:space="preserve" text-anchor="middle" x="714.5" y="-148.28" font-family="Times,serif" font-size="14.00">2003</text>
</a>
</g>
</g>
<!-- cites&#45;&gt;RFC3470 -->
<g id="edge9" class="edge">
<title>cites&#45;&gt;RFC3470</title>
<path fill="none" stroke="black" d="M508.31,-301.94C519.01,-288.77 534.75,-271.31 551.51,-259.33 562.9,-251.18 575.36,-243.62 588.13,-236.7"/>
<polygon fill="black" stroke="black" points="589.39,-240 596.61,-232.24 586.13,-233.8 589.39,-240"/>
</g>
<!-- RFC4288 -->
<g id="node11" class="node">
<title>RFC4288</title>
<g id="a_node11"><a xlink:href="RFC4288.html" xlink:title="This document defines procedures for the specification and registration of media types for use in MIME and other Internet protocols. &#160;This document specifies an Internet Best Current Practices for the Internet Community, and requests discussion and suggestions for improvements." target="_top">
<ellipse fill="none" stroke="black" cx="714.5" cy="-52.33" rx="131.17" ry="52.33"/>
<text xml:space="preserve" text-anchor="middle" x="714.5" y="-72.03" font-family="Times,serif" font-size="14.00">RFC4288</text>
<text xml:space="preserve" text-anchor="middle" x="714.5" y="-55.53" font-family="Times,serif" font-size="14.00">Media Type Specifications and</text>
<text xml:space="preserve" text-anchor="middle" x="714.5" y="-39.03" font-family="Times,serif" font-size="14.00">Registration Procedures</text>
<text xml:space="preserve" text-anchor="middle" x="714.5" y="-22.53" font-family="Times,serif" font-size="14.00">2005</text>
</a>
</g>
</g>
<!-- cites&#45;&gt;RFC4288 -->
<g id="edge10" class="edge">
<title>cites&#45;&gt;RFC4288</title>
<path fill="none" stroke="black" d="M494.18,-301.96C494.75,-262.33 501.61,-167.98 551.51,-113.33 562.46,-101.34 576,-91.69 590.55,-83.93"/>
<polygon fill="black" stroke="black" points="592.01,-87.11 599.41,-79.53 588.9,-80.84 592.01,-87.11"/>
</g>
<!-- rev_cites -->
<g id="node12" class="node">
<title>rev_cites</title>
<polygon fill="lightblue" stroke="black" points="60.12,-338.33 6.12,-338.33 6.12,-302.33 60.12,-302.33 60.12,-338.33"/>
<text xml:space="preserve" text-anchor="middle" x="33.12" y="-315.28" font-family="Times,serif" font-size="14.00">cites</text>
</g>
<!-- rev_cites&#45;&gt;RFC6207 -->
<g id="edge11" class="edge">
<title>rev_cites&#45;&gt;RFC6207</title>
<path fill="none" stroke="black" d="M60.29,-326.52C70.27,-328.88 82.52,-331.78 96.01,-334.97"/>
<polygon fill="black" stroke="black" points="95.06,-338.35 105.6,-337.24 96.67,-331.53 95.06,-338.35"/>
</g>
</g>
</svg>
