<?xml version="1.0" encoding="UTF-8" standalone="no"?>
<!DOCTYPE svg PUBLIC "-//W3C//DTD SVG 1.1//EN"
 "http://www.w3.org/Graphics/SVG/1.1/DTD/svg11.dtd">
<!-- Generated by graphviz version 14.1.1 (20251213.1925)
 -->
<!-- Title: Flow Pages: 1 -->
<svg width="975pt" height="335pt"
 viewBox="0.00 0.00 975.00 335.00" xmlns="http://www.w3.org/2000/svg" xmlns:xlink="http://www.w3.org/1999/xlink">
<g id="graph0" class="graph" transform="scale(1 1) rotate(0) translate(4 330.98)">
<title>Flow</title>
<polygon fill="white" stroke="none" points="-4,4 -4,-330.98 970.58,-330.98 970.58,4 -4,4"/>
<!-- RFC6061 -->
<g id="node1" class="node">
<title>RFC6061</title>
<g id="a_node1"><a xlink:title="This document describes the Namespace Identifier (NID) nena for Uniform Resource Name (URN) resources published by the National Emergency Number Association (NENA). &#160;NENA defines and manages resources that utilize this URN model. &#160;Management activities for these and other resource types are provided by the NENA Registry System (NRS). &#160;This document is not an Internet Standards Track specification; it is published for informational purposes.">
<ellipse fill="none" stroke="black" cx="276.51" cy="-229.33" rx="185.26" ry="63.99"/>
<text xml:space="preserve" text-anchor="middle" x="276.51" y="-257.28" font-family="Times,serif" font-size="14.00">RFC6061</text>
<text xml:space="preserve" text-anchor="middle" x="276.51" y="-240.78" font-family="Times,serif" font-size="14.00">Uniform Resource Name (URN) Namespace</text>
<text xml:space="preserve" text-anchor="middle" x="276.51" y="-224.28" font-family="Times,serif" font-size="14.00">for the National Emergency Number</text>
<text xml:space="preserve" text-anchor="middle" x="276.51" y="-207.78" font-family="Times,serif" font-size="14.00">Association (NENA)</text>
<text xml:space="preserve" text-anchor="middle" x="276.51" y="-191.28" font-family="Times,serif" font-size="14.00">2011</text>
</a>
</g>
</g>
<!-- obs -->
<g id="node3" class="node">
<title>obs</title>
<polygon fill="none" stroke="black" points="553.02,-301.33 486.77,-301.33 486.77,-265.33 553.02,-265.33 553.02,-301.33"/>
<text xml:space="preserve" text-anchor="middle" x="519.9" y="-278.28" font-family="Times,serif" font-size="14.00">obsoletes</text>
</g>
<!-- RFC6061&#45;&gt;obs -->
<g id="edge2" class="edge">
<title>RFC6061&#45;&gt;obs</title>
<path fill="none" stroke="black" d="M432.78,-264.06C448.19,-267.51 462.78,-270.77 475.43,-273.6"/>
<polygon fill="black" stroke="black" points="474.46,-276.97 484.98,-275.74 475.99,-270.14 474.46,-276.97"/>
</g>
<!-- updates -->
<g id="node4" class="node">
<title>updates</title>
<polygon fill="none" stroke="black" points="548.52,-247.33 491.27,-247.33 491.27,-211.33 548.52,-211.33 548.52,-247.33"/>
<text xml:space="preserve" text-anchor="middle" x="519.9" y="-224.28" font-family="Times,serif" font-size="14.00">updates</text>
</g>
<!-- RFC6061&#45;&gt;updates -->
<g id="edge3" class="edge">
<title>RFC6061&#45;&gt;updates</title>
<path fill="none" stroke="black" d="M462,-229.33C468.24,-229.33 474.16,-229.33 479.65,-229.33"/>
<polygon fill="black" stroke="black" points="479.46,-232.83 489.46,-229.33 479.46,-225.83 479.46,-232.83"/>
</g>
<!-- cites -->
<g id="node6" class="node">
<title>cites</title>
<polygon fill="none" stroke="black" points="546.9,-193.33 492.9,-193.33 492.9,-157.33 546.9,-157.33 546.9,-193.33"/>
<text xml:space="preserve" text-anchor="middle" x="519.9" y="-170.28" font-family="Times,serif" font-size="14.00">cites</text>
</g>
<!-- RFC6061&#45;&gt;cites -->
<g id="edge5" class="edge">
<title>RFC6061&#45;&gt;cites</title>
<path fill="none" stroke="black" d="M432.78,-194.59C450.79,-190.56 467.69,-186.78 481.66,-183.66"/>
<polygon fill="black" stroke="black" points="482.2,-187.12 491.19,-181.52 480.67,-180.29 482.2,-187.12"/>
</g>
<!-- obs_by -->
<g id="node2" class="node">
<title>obs_by</title>
<polygon fill="none" stroke="black" points="66.25,-301.33 0,-301.33 0,-265.33 66.25,-265.33 66.25,-301.33"/>
<text xml:space="preserve" text-anchor="middle" x="33.12" y="-278.28" font-family="Times,serif" font-size="14.00">obsoletes</text>
</g>
<!-- obs_by&#45;&gt;RFC6061 -->
<g id="edge1" class="edge">
<title>obs_by&#45;&gt;RFC6061</title>
<path fill="none" stroke="black" d="M66.68,-276.04C78.7,-273.35 93.29,-270.09 109.11,-266.55"/>
<polygon fill="black" stroke="black" points="109.77,-269.99 118.77,-264.39 108.25,-263.16 109.77,-269.99"/>
</g>
<!-- updated_by -->
<g id="node5" class="node">
<title>updated_by</title>
<polygon fill="none" stroke="black" points="61.75,-247.33 4.5,-247.33 4.5,-211.33 61.75,-211.33 61.75,-247.33"/>
<text xml:space="preserve" text-anchor="middle" x="33.12" y="-224.28" font-family="Times,serif" font-size="14.00">updates</text>
</g>
<!-- updated_by&#45;&gt;RFC6061 -->
<g id="edge4" class="edge">
<title>updated_by&#45;&gt;RFC6061</title>
<path fill="none" stroke="black" d="M61.82,-229.33C67.21,-229.33 73.23,-229.33 79.74,-229.33"/>
<polygon fill="black" stroke="black" points="79.61,-232.83 89.61,-229.33 79.61,-225.83 79.61,-232.83"/>
</g>
<!-- RFC2141 -->
<g id="node7" class="node">
<title>RFC2141</title>
<g id="a_node7"><a xlink:href="RFC2141.html" xlink:title="Uniform Resource Names (URNs) are intended to serve as persistent, location&#45;independent, resource identifiers. &#160;This document sets forward the canonical syntax for URNs. [STANDARDS&#45;TRACK]" target="_top">
<ellipse fill="none" stroke="black" cx="772.3" cy="-286.33" rx="60.63" ry="40.66"/>
<text xml:space="preserve" text-anchor="middle" x="772.3" y="-297.78" font-family="Times,serif" font-size="14.00">RFC2141</text>
<text xml:space="preserve" text-anchor="middle" x="772.3" y="-281.28" font-family="Times,serif" font-size="14.00">URN Syntax</text>
<text xml:space="preserve" text-anchor="middle" x="772.3" y="-264.78" font-family="Times,serif" font-size="14.00">1997</text>
</a>
</g>
</g>
<!-- cites&#45;&gt;RFC2141 -->
<g id="edge6" class="edge">
<title>cites&#45;&gt;RFC2141</title>
<path fill="none" stroke="black" d="M543.98,-193.56C547.13,-196.38 550.23,-199.35 553.02,-202.33 565.85,-216.01 562.49,-225.81 578.02,-236.33 614.21,-260.81 661.62,-273.31 700.43,-279.68"/>
<polygon fill="black" stroke="black" points="699.74,-283.12 710.16,-281.17 700.8,-276.2 699.74,-283.12"/>
</g>
<!-- RFC3406 -->
<g id="node8" class="node">
<title>RFC3406</title>
<g id="a_node8"><a xlink:href="RFC3406.html" xlink:title="This document lays out general definitions of and mechanisms for establishing Uniform Resource Names (URN) namespaces. &#160;The URN WG has defined a syntax for URNs in RFC 2141, as well as some proposed mechanisms for their resolution and use in Internet applications in RFC 3401 and RFC 3405. &#160;The whole rests on the concept of individual namespaces within the URN structure. &#160;Apart from proof&#45;of&#45;concept namespaces, the use of existing identifiers in URNs has been discussed in RFC 2288. &#160;This document specifies an Internet Best Current Practices for the Internet Community, and requests discussion and suggestions for improvements." target="_top">
<ellipse fill="none" stroke="black" cx="772.3" cy="-175.33" rx="188.97" ry="52.33"/>
<text xml:space="preserve" text-anchor="middle" x="772.3" y="-195.03" font-family="Times,serif" font-size="14.00">RFC3406</text>
<text xml:space="preserve" text-anchor="middle" x="772.3" y="-178.53" font-family="Times,serif" font-size="14.00">Uniform Resource Names (URN) Namespace</text>
<text xml:space="preserve" text-anchor="middle" x="772.3" y="-162.03" font-family="Times,serif" font-size="14.00">Definition Mechanisms</text>
<text xml:space="preserve" text-anchor="middle" x="772.3" y="-145.53" font-family="Times,serif" font-size="14.00">2002</text>
</a>
</g>
</g>
<!-- cites&#45;&gt;RFC3406 -->
<g id="edge7" class="edge">
<title>cites&#45;&gt;RFC3406</title>
<path fill="none" stroke="black" d="M547.22,-175.33C554.28,-175.33 562.48,-175.33 571.49,-175.33"/>
<polygon fill="black" stroke="black" points="571.35,-178.83 581.35,-175.33 571.35,-171.83 571.35,-178.83"/>
</g>
<!-- RFC4358 -->
<g id="node9" class="node">
<title>RFC4358</title>
<g id="a_node9"><a xlink:href="RFC4358.html" xlink:title="This document describes the Namespace Identifier (NID) for Uniform Resource Namespace (URN) resources published by the Open Mobile Alliance (OMA). &#160;OMA defines and manages resources that utilize this URN name model. &#160;Management activities for these and other resource types are provided by the Open Mobile Naming Authority (OMNA). &#160;This memo provides information for the Internet community." target="_top">
<ellipse fill="none" stroke="black" cx="772.3" cy="-52.33" rx="194.28" ry="52.33"/>
<text xml:space="preserve" text-anchor="middle" x="772.3" y="-72.03" font-family="Times,serif" font-size="14.00">RFC4358</text>
<text xml:space="preserve" text-anchor="middle" x="772.3" y="-55.53" font-family="Times,serif" font-size="14.00">A Uniform Resource Name (URN) Namespace</text>
<text xml:space="preserve" text-anchor="middle" x="772.3" y="-39.03" font-family="Times,serif" font-size="14.00">for the Open Mobile Alliance (OMA)</text>
<text xml:space="preserve" text-anchor="middle" x="772.3" y="-22.53" font-family="Times,serif" font-size="14.00">2006</text>
</a>
</g>
</g>
<!-- cites&#45;&gt;RFC4358 -->
<g id="edge8" class="edge">
<title>cites&#45;&gt;RFC4358</title>
<path fill="none" stroke="black" d="M534,-156.93C544.5,-143.4 560.37,-125.5 578.02,-114.33 590.9,-106.17 604.95,-99.01 619.39,-92.72"/>
<polygon fill="black" stroke="black" points="620.7,-95.97 628.58,-88.89 618,-89.51 620.7,-95.97"/>
</g>
<!-- rev_cites -->
<g id="node10" class="node">
<title>rev_cites</title>
<polygon fill="none" stroke="black" points="60.12,-193.33 6.12,-193.33 6.12,-157.33 60.12,-157.33 60.12,-193.33"/>
<text xml:space="preserve" text-anchor="middle" x="33.12" y="-170.28" font-family="Times,serif" font-size="14.00">cites</text>
</g>
<!-- rev_cites&#45;&gt;RFC6061 -->
<g id="edge9" class="edge">
<title>rev_cites&#45;&gt;RFC6061</title>
<path fill="none" stroke="black" d="M60.42,-181.21C73.44,-184.12 90.36,-187.91 109,-192.08"/>
<polygon fill="black" stroke="black" points="108.15,-195.47 118.67,-194.24 109.68,-188.64 108.15,-195.47"/>
</g>
</g>
</svg>
