<?xml version="1.0" encoding="UTF-8" standalone="no"?>
<!DOCTYPE svg PUBLIC "-//W3C//DTD SVG 1.1//EN"
 "http://www.w3.org/Graphics/SVG/1.1/DTD/svg11.dtd">
<!-- Generated by graphviz version 14.1.1 (20251213.1925)
 -->
<!-- Title: Flow Pages: 1 -->
<svg width="945pt" height="1485pt"
 viewBox="0.00 0.00 945.00 1485.00" xmlns="http://www.w3.org/2000/svg" xmlns:xlink="http://www.w3.org/1999/xlink">
<g id="graph0" class="graph" transform="scale(1 1) rotate(0) translate(4 1481.32)">
<title>Flow</title>
<polygon fill="white" stroke="none" points="-4,4 -4,-1481.32 940.88,-1481.32 940.88,4 -4,4"/>
<!-- RFC7860 -->
<g id="node1" class="node">
<title>RFC7860</title>
<g id="a_node1"><a xlink:title="This document specifies several authentication protocols based on the SHA&#45;2 hash functions for the User&#45;based Security Model (USM) for SNMPv3 defined in RFC 3414. &#160;It obsoletes RFC 7630, in which the MIB MODULE&#45;IDENTITY value was incorrectly specified.">
<ellipse fill="green" stroke="black" cx="269.62" cy="-1046.33" rx="178.37" ry="63.99"/>
<text xml:space="preserve" text-anchor="middle" x="269.62" y="-1074.28" font-family="Times,serif" font-size="14.00">RFC7860</text>
<text xml:space="preserve" text-anchor="middle" x="269.62" y="-1057.78" font-family="Times,serif" font-size="14.00">HMAC&#45;SHA&#45;2 Authentication Protocols in</text>
<text xml:space="preserve" text-anchor="middle" x="269.62" y="-1041.28" font-family="Times,serif" font-size="14.00">User&#45;Based Security Model (USM) for</text>
<text xml:space="preserve" text-anchor="middle" x="269.62" y="-1024.78" font-family="Times,serif" font-size="14.00">SNMPv3</text>
<text xml:space="preserve" text-anchor="middle" x="269.62" y="-1008.28" font-family="Times,serif" font-size="14.00">2016</text>
</a>
</g>
</g>
<!-- obs -->
<g id="node3" class="node">
<title>obs</title>
<polygon fill="lightblue" stroke="black" points="539.24,-1274.33 472.99,-1274.33 472.99,-1238.33 539.24,-1238.33 539.24,-1274.33"/>
<text xml:space="preserve" text-anchor="middle" x="506.11" y="-1251.28" font-family="Times,serif" font-size="14.00">obsoletes</text>
</g>
<!-- RFC7860&#45;&gt;obs -->
<g id="edge2" class="edge">
<title>RFC7860&#45;&gt;obs</title>
<path fill="none" stroke="black" d="M337.19,-1105.94C383.12,-1147.08 441.91,-1199.73 476.35,-1230.57"/>
<polygon fill="black" stroke="black" points="473.65,-1232.85 483.43,-1236.91 478.32,-1227.63 473.65,-1232.85"/>
</g>
<!-- updates -->
<g id="node5" class="node">
<title>updates</title>
<polygon fill="lightyellow" stroke="black" points="534.74,-1064.33 477.49,-1064.33 477.49,-1028.33 534.74,-1028.33 534.74,-1064.33"/>
<text xml:space="preserve" text-anchor="middle" x="506.11" y="-1041.28" font-family="Times,serif" font-size="14.00">updates</text>
</g>
<!-- RFC7860&#45;&gt;updates -->
<g id="edge4" class="edge">
<title>RFC7860&#45;&gt;updates</title>
<path fill="none" stroke="black" d="M448.35,-1046.33C454.55,-1046.33 460.44,-1046.33 465.92,-1046.33"/>
<polygon fill="black" stroke="black" points="465.69,-1049.83 475.69,-1046.33 465.69,-1042.83 465.69,-1049.83"/>
</g>
<!-- cites -->
<g id="node7" class="node">
<title>cites</title>
<polygon fill="lightblue" stroke="black" points="533.11,-698.33 479.11,-698.33 479.11,-662.33 533.11,-662.33 533.11,-698.33"/>
<text xml:space="preserve" text-anchor="middle" x="506.11" y="-675.28" font-family="Times,serif" font-size="14.00">cites</text>
</g>
<!-- RFC7860&#45;&gt;cites -->
<g id="edge6" class="edge">
<title>RFC7860&#45;&gt;cites</title>
<path fill="none" stroke="black" d="M310.66,-983.82C362.24,-903.32 449.71,-766.8 487.19,-708.29"/>
<polygon fill="black" stroke="black" points="490.12,-710.21 492.57,-699.9 484.23,-706.44 490.12,-710.21"/>
</g>
<!-- obs_by -->
<g id="node2" class="node">
<title>obs_by</title>
<polygon fill="lightblue" stroke="black" points="66.25,-1118.33 0,-1118.33 0,-1082.33 66.25,-1082.33 66.25,-1118.33"/>
<text xml:space="preserve" text-anchor="middle" x="33.12" y="-1095.28" font-family="Times,serif" font-size="14.00">obsoletes</text>
</g>
<!-- obs_by&#45;&gt;RFC7860 -->
<g id="edge1" class="edge">
<title>obs_by&#45;&gt;RFC7860</title>
<path fill="none" stroke="black" d="M66.73,-1092.82C78.49,-1090.11 92.68,-1086.84 108.02,-1083.31"/>
<polygon fill="black" stroke="black" points="108.38,-1086.82 117.34,-1081.16 106.81,-1080 108.38,-1086.82"/>
</g>
<!-- RFC7630 -->
<g id="node4" class="node">
<title>RFC7630</title>
<g id="a_node4"><a xlink:href="RFC7630.html" xlink:title="This memo specifies new HMAC&#45;SHA&#45;2 authentication protocols for the User&#45;based Security Model (USM) for SNMPv3 defined in RFC 3414." target="_top">
<ellipse fill="none" stroke="black" cx="750.56" cy="-1413.33" rx="178.37" ry="63.99"/>
<text xml:space="preserve" text-anchor="middle" x="750.56" y="-1441.28" font-family="Times,serif" font-size="14.00">RFC7630</text>
<text xml:space="preserve" text-anchor="middle" x="750.56" y="-1424.78" font-family="Times,serif" font-size="14.00">HMAC&#45;SHA&#45;2 Authentication Protocols in</text>
<text xml:space="preserve" text-anchor="middle" x="750.56" y="-1408.28" font-family="Times,serif" font-size="14.00">the User&#45;based Security Model (USM) for</text>
<text xml:space="preserve" text-anchor="middle" x="750.56" y="-1391.78" font-family="Times,serif" font-size="14.00">SNMPv3</text>
<text xml:space="preserve" text-anchor="middle" x="750.56" y="-1375.28" font-family="Times,serif" font-size="14.00">2015</text>
</a>
</g>
</g>
<!-- obs&#45;&gt;RFC7630 -->
<g id="edge3" class="edge">
<title>obs&#45;&gt;RFC7630</title>
<path fill="none" stroke="black" d="M515.53,-1274.77C524.97,-1293.59 541.92,-1322.49 564.24,-1340.33 576.52,-1350.15 590.3,-1358.79 604.64,-1366.35"/>
<polygon fill="black" stroke="black" points="602.8,-1369.34 613.3,-1370.74 605.96,-1363.1 602.8,-1369.34"/>
</g>
<!-- updated_by -->
<g id="node6" class="node">
<title>updated_by</title>
<polygon fill="lightyellow" stroke="black" points="61.75,-1064.33 4.5,-1064.33 4.5,-1028.33 61.75,-1028.33 61.75,-1064.33"/>
<text xml:space="preserve" text-anchor="middle" x="33.12" y="-1041.28" font-family="Times,serif" font-size="14.00">updates</text>
</g>
<!-- updated_by&#45;&gt;RFC7860 -->
<g id="edge5" class="edge">
<title>updated_by&#45;&gt;RFC7860</title>
<path fill="none" stroke="black" d="M61.95,-1046.33C67.31,-1046.33 73.28,-1046.33 79.73,-1046.33"/>
<polygon fill="black" stroke="black" points="79.48,-1049.83 89.48,-1046.33 79.48,-1042.83 79.48,-1049.83"/>
</g>
<!-- RFC3411 -->
<g id="node8" class="node">
<title>RFC3411</title>
<g id="a_node8"><a xlink:href="RFC3411.html" xlink:title="This document describes an architecture for describing Simple Network Management Protocol (SNMP) Management Frameworks. &#160;The architecture is designed to be modular to allow the evolution of the SNMP protocol standards over time. &#160;The major portions of the architecture are an SNMP engine containing a Message Processing Subsystem, a Security Subsystem and an Access Control Subsystem, and possibly multiple SNMP applications which provide specific functional processing of management data. &#160;This document obsoletes RFC 2571. [STANDARDS&#45;TRACK]" target="_top">
<ellipse fill="none" stroke="black" cx="750.56" cy="-1267.33" rx="168.82" ry="63.99"/>
<text xml:space="preserve" text-anchor="middle" x="750.56" y="-1295.28" font-family="Times,serif" font-size="14.00">RFC3411</text>
<text xml:space="preserve" text-anchor="middle" x="750.56" y="-1278.78" font-family="Times,serif" font-size="14.00">An Architecture for Describing Simple</text>
<text xml:space="preserve" text-anchor="middle" x="750.56" y="-1262.28" font-family="Times,serif" font-size="14.00">Network Management Protocol (SNMP)</text>
<text xml:space="preserve" text-anchor="middle" x="750.56" y="-1245.78" font-family="Times,serif" font-size="14.00">Management Frameworks</text>
<text xml:space="preserve" text-anchor="middle" x="750.56" y="-1229.28" font-family="Times,serif" font-size="14.00">2002</text>
</a>
</g>
</g>
<!-- cites&#45;&gt;RFC3411 -->
<g id="edge7" class="edge">
<title>cites&#45;&gt;RFC3411</title>
<path fill="none" stroke="black" d="M508.87,-698.53C517.65,-788.76 556.5,-1184.22 564.24,-1194.33 573.97,-1207.04 586.24,-1217.55 599.82,-1226.23"/>
<polygon fill="black" stroke="black" points="597.74,-1229.06 608.12,-1231.17 601.32,-1223.05 597.74,-1229.06"/>
</g>
<!-- RFC3414 -->
<g id="node9" class="node">
<title>RFC3414</title>
<g id="a_node9"><a xlink:href="RFC3414.html" xlink:title="This document describes the User&#45;based Security Model (USM) for Simple Network Management Protocol (SNMP) version 3 for use in the SNMP architecture. &#160;It defines the Elements of Procedure for providing SNMP message level security. &#160;This document also includes a Management Information Base (MIB) for remotely monitoring/managing the configuration parameters for this Security Model. &#160;This document obsoletes RFC 2574. [STANDARDS&#45;TRACK]" target="_top">
<ellipse fill="none" stroke="black" cx="750.56" cy="-1121.33" rx="160.87" ry="63.99"/>
<text xml:space="preserve" text-anchor="middle" x="750.56" y="-1149.28" font-family="Times,serif" font-size="14.00">RFC3414</text>
<text xml:space="preserve" text-anchor="middle" x="750.56" y="-1132.78" font-family="Times,serif" font-size="14.00">User&#45;based Security Model (USM) for</text>
<text xml:space="preserve" text-anchor="middle" x="750.56" y="-1116.28" font-family="Times,serif" font-size="14.00">version 3 of the Simple Network</text>
<text xml:space="preserve" text-anchor="middle" x="750.56" y="-1099.78" font-family="Times,serif" font-size="14.00">Management Protocol (SNMPv3)</text>
<text xml:space="preserve" text-anchor="middle" x="750.56" y="-1083.28" font-family="Times,serif" font-size="14.00">2002</text>
</a>
</g>
</g>
<!-- cites&#45;&gt;RFC3414 -->
<g id="edge8" class="edge">
<title>cites&#45;&gt;RFC3414</title>
<path fill="none" stroke="black" d="M507.6,-698.61C509.74,-765.13 520.21,-993.3 564.24,-1048.33 575.05,-1061.84 588.71,-1072.86 603.7,-1081.84"/>
<polygon fill="black" stroke="black" points="601.97,-1084.88 612.41,-1086.72 605.39,-1078.78 601.97,-1084.88"/>
</g>
<!-- RFC3410 -->
<g id="node10" class="node">
<title>RFC3410</title>
<g id="a_node10"><a xlink:href="RFC3410.html" xlink:title="The purpose of this document is to provide an overview of the third version of the Internet&#45;Standard Management Framework, termed the SNMP version 3 Framework (SNMPv3). &#160;This Framework is derived from and builds upon both the original Internet&#45;Standard Management Framework (SNMPv1) and the second Internet&#45;Standard Management Framework (SNMPv2). &#160;The architecture is designed to be modular to allow the evolution of the Framework over time. &#160;The document explains why using SNMPv3 instead of SNMPv1 or SNMPv2 is strongly recommended. &#160;The document also recommends that RFCs 1157, 1441, 1901, 1909 and 1910 be retired by moving them to Historic status. &#160;This document obsoletes RFC 2570. &#160;This memo provides information for the Internet community." target="_top">
<ellipse fill="none" stroke="black" cx="750.56" cy="-975.33" rx="137" ry="63.99"/>
<text xml:space="preserve" text-anchor="middle" x="750.56" y="-1003.28" font-family="Times,serif" font-size="14.00">RFC3410</text>
<text xml:space="preserve" text-anchor="middle" x="750.56" y="-986.78" font-family="Times,serif" font-size="14.00">Introduction and Applicability</text>
<text xml:space="preserve" text-anchor="middle" x="750.56" y="-970.28" font-family="Times,serif" font-size="14.00">Statements for Internet&#45;Standard</text>
<text xml:space="preserve" text-anchor="middle" x="750.56" y="-953.78" font-family="Times,serif" font-size="14.00">Management Framework</text>
<text xml:space="preserve" text-anchor="middle" x="750.56" y="-937.28" font-family="Times,serif" font-size="14.00">2002</text>
</a>
</g>
</g>
<!-- cites&#45;&gt;RFC3410 -->
<g id="edge9" class="edge">
<title>cites&#45;&gt;RFC3410</title>
<path fill="none" stroke="black" d="M506.55,-698.67C506.28,-740.22 511.4,-842.53 564.24,-902.33 578.83,-918.84 597.64,-931.66 617.67,-941.59"/>
<polygon fill="black" stroke="black" points="616,-944.68 626.54,-945.74 618.97,-938.34 616,-944.68"/>
</g>
<!-- RFC2578 -->
<g id="node11" class="node">
<title>RFC2578</title>
<g id="a_node11"><a xlink:href="RFC2578.html" xlink:title="It is the purpose of this document, the Structure of Management Information Version 2 (SMIv2), to define that adapted subset, and to assign a set of associated administrative values. [STANDARDS&#45;TRACK]" target="_top">
<ellipse fill="none" stroke="black" cx="750.56" cy="-841.33" rx="159.28" ry="52.33"/>
<text xml:space="preserve" text-anchor="middle" x="750.56" y="-861.03" font-family="Times,serif" font-size="14.00">RFC2578</text>
<text xml:space="preserve" text-anchor="middle" x="750.56" y="-844.53" font-family="Times,serif" font-size="14.00">Structure of Management Information</text>
<text xml:space="preserve" text-anchor="middle" x="750.56" y="-828.03" font-family="Times,serif" font-size="14.00">Version 2 (SMIv2)</text>
<text xml:space="preserve" text-anchor="middle" x="750.56" y="-811.53" font-family="Times,serif" font-size="14.00">1999</text>
</a>
</g>
</g>
<!-- cites&#45;&gt;RFC2578 -->
<g id="edge10" class="edge">
<title>cites&#45;&gt;RFC2578</title>
<path fill="none" stroke="black" d="M512.92,-698.53C520.97,-720.91 537.6,-758.57 564.24,-780.33 577.36,-791.05 592.44,-799.91 608.2,-807.23"/>
<polygon fill="black" stroke="black" points="606.69,-810.39 617.26,-811.21 609.51,-803.98 606.69,-810.39"/>
</g>
<!-- RFC2579 -->
<g id="node12" class="node">
<title>RFC2579</title>
<g id="a_node12"><a xlink:href="RFC2579.html" xlink:title="It is the purpose of this document to define the initial set of textual conventions available to all MIB modules. [STANDARDS&#45;TRACK]" target="_top">
<ellipse fill="none" stroke="black" cx="750.56" cy="-730.33" rx="134.88" ry="40.66"/>
<text xml:space="preserve" text-anchor="middle" x="750.56" y="-741.78" font-family="Times,serif" font-size="14.00">RFC2579</text>
<text xml:space="preserve" text-anchor="middle" x="750.56" y="-725.28" font-family="Times,serif" font-size="14.00">Textual Conventions for SMIv2</text>
<text xml:space="preserve" text-anchor="middle" x="750.56" y="-708.78" font-family="Times,serif" font-size="14.00">1999</text>
</a>
</g>
</g>
<!-- cites&#45;&gt;RFC2579 -->
<g id="edge11" class="edge">
<title>cites&#45;&gt;RFC2579</title>
<path fill="none" stroke="black" d="M533.52,-685.77C556.6,-690.53 591.87,-697.8 627.26,-705.1"/>
<polygon fill="black" stroke="black" points="626.25,-708.47 636.75,-707.06 627.66,-701.61 626.25,-708.47"/>
</g>
<!-- RFC2580 -->
<g id="node13" class="node">
<title>RFC2580</title>
<g id="a_node13"><a xlink:href="RFC2580.html" xlink:title="Collections of related objects are defined in MIB modules. &#160;It may be useful to define the acceptable lower&#45;bounds of implementation, along with the actual level of implementation achieved. &#160;It is the purpose of this document to define the notation used for these purposes. [STANDARDS&#45;TRACK]" target="_top">
<ellipse fill="none" stroke="black" cx="750.56" cy="-631.33" rx="152.38" ry="40.66"/>
<text xml:space="preserve" text-anchor="middle" x="750.56" y="-642.78" font-family="Times,serif" font-size="14.00">RFC2580</text>
<text xml:space="preserve" text-anchor="middle" x="750.56" y="-626.28" font-family="Times,serif" font-size="14.00">Conformance Statements for SMIv2</text>
<text xml:space="preserve" text-anchor="middle" x="750.56" y="-609.78" font-family="Times,serif" font-size="14.00">1999</text>
</a>
</g>
</g>
<!-- cites&#45;&gt;RFC2580 -->
<g id="edge12" class="edge">
<title>cites&#45;&gt;RFC2580</title>
<path fill="none" stroke="black" d="M533.52,-674.99C554.32,-670.78 585.03,-664.58 616.81,-658.16"/>
<polygon fill="black" stroke="black" points="617.48,-661.59 626.59,-656.18 616.1,-654.73 617.48,-661.59"/>
</g>
<!-- RFC2119 -->
<g id="node14" class="node">
<title>RFC2119</title>
<g id="a_node14"><a xlink:href="RFC2119.html" xlink:title="In many standards track documents several words are used to signify the requirements in the specification. &#160;These words are often capitalized. &#160;This document defines these words as they should be interpreted in IETF documents. &#160;This document specifies an Internet Best Current Practices for the Internet Community, and requests discussion and suggestions for improvements." target="_top">
<ellipse fill="none" stroke="black" cx="750.56" cy="-520.33" rx="160.34" ry="52.33"/>
<text xml:space="preserve" text-anchor="middle" x="750.56" y="-540.03" font-family="Times,serif" font-size="14.00">RFC2119</text>
<text xml:space="preserve" text-anchor="middle" x="750.56" y="-523.53" font-family="Times,serif" font-size="14.00">Key words for use in RFCs to Indicate</text>
<text xml:space="preserve" text-anchor="middle" x="750.56" y="-507.03" font-family="Times,serif" font-size="14.00">Requirement Levels</text>
<text xml:space="preserve" text-anchor="middle" x="750.56" y="-490.53" font-family="Times,serif" font-size="14.00">1997</text>
</a>
</g>
</g>
<!-- cites&#45;&gt;RFC2119 -->
<g id="edge13" class="edge">
<title>cites&#45;&gt;RFC2119</title>
<path fill="none" stroke="black" d="M513.11,-661.91C521.26,-639.71 537.91,-602.73 564.24,-581.33 577.28,-570.72 592.23,-561.93 607.86,-554.66"/>
<polygon fill="black" stroke="black" points="609.09,-557.94 616.83,-550.71 606.26,-551.54 609.09,-557.94"/>
</g>
<!-- RFC6234 -->
<g id="node15" class="node">
<title>RFC6234</title>
<g id="a_node15"><a xlink:href="RFC6234.html" xlink:title="Federal Information Processing Standard, FIPS" target="_top">
<ellipse fill="none" stroke="black" cx="750.56" cy="-397.33" rx="186.32" ry="52.33"/>
<text xml:space="preserve" text-anchor="middle" x="750.56" y="-417.03" font-family="Times,serif" font-size="14.00">RFC6234</text>
<text xml:space="preserve" text-anchor="middle" x="750.56" y="-400.53" font-family="Times,serif" font-size="14.00">US Secure Hash Algorithms (SHA and SHA&#45;</text>
<text xml:space="preserve" text-anchor="middle" x="750.56" y="-384.03" font-family="Times,serif" font-size="14.00">based HMAC and HKDF)</text>
<text xml:space="preserve" text-anchor="middle" x="750.56" y="-367.53" font-family="Times,serif" font-size="14.00">2011</text>
</a>
</g>
</g>
<!-- cites&#45;&gt;RFC6234 -->
<g id="edge14" class="edge">
<title>cites&#45;&gt;RFC6234</title>
<path fill="none" stroke="black" d="M506.36,-661.86C505.7,-620.09 510.05,-517.44 564.24,-459.33 572.91,-450.02 583.03,-442.11 593.97,-435.38"/>
<polygon fill="black" stroke="black" points="595.53,-438.52 602.47,-430.52 592.05,-432.45 595.53,-438.52"/>
</g>
<!-- RFC2104 -->
<g id="node16" class="node">
<title>RFC2104</title>
<g id="a_node16"><a xlink:href="RFC2104.html" xlink:title="This document describes HMAC, a mechanism for message authentication using cryptographic hash functions. &#160;HMAC can be used with any iterative cryptographic hash function, e.g., MD5, SHA&#45;1, in combination with a secret shared key. &#160;The cryptographic strength of HMAC depends on the properties of the underlying hash function. &#160;This memo provides information for the Internet community. &#160;This memo does not specify an Internet standard of any kind" target="_top">
<ellipse fill="none" stroke="black" cx="750.56" cy="-274.33" rx="156.09" ry="52.33"/>
<text xml:space="preserve" text-anchor="middle" x="750.56" y="-294.03" font-family="Times,serif" font-size="14.00">RFC2104</text>
<text xml:space="preserve" text-anchor="middle" x="750.56" y="-277.53" font-family="Times,serif" font-size="14.00">HMAC: Keyed&#45;Hashing for Message</text>
<text xml:space="preserve" text-anchor="middle" x="750.56" y="-261.03" font-family="Times,serif" font-size="14.00">Authentication</text>
<text xml:space="preserve" text-anchor="middle" x="750.56" y="-244.53" font-family="Times,serif" font-size="14.00">1997</text>
</a>
</g>
</g>
<!-- cites&#45;&gt;RFC2104 -->
<g id="edge15" class="edge">
<title>cites&#45;&gt;RFC2104</title>
<path fill="none" stroke="black" d="M507.73,-661.84C510.25,-597.75 521.7,-386.18 564.24,-336.33 575.25,-323.41 589.04,-313.17 604.1,-305.07"/>
<polygon fill="black" stroke="black" points="605.43,-308.31 612.81,-300.71 602.3,-302.05 605.43,-308.31"/>
</g>
<!-- RFC1321 -->
<g id="node17" class="node">
<title>RFC1321</title>
<g id="a_node17"><a xlink:href="RFC1321.html" xlink:title="This document describes the MD5 message&#45;digest algorithm. &#160;The algorithm takes as input a message of arbitrary length and produces as output a 128&#45;bit fingerprint or message digest of the input. &#160;This memo provides information for the Internet community. &#160;It does not specify an Internet standard." target="_top">
<ellipse fill="none" stroke="black" cx="750.56" cy="-163.33" rx="156.62" ry="40.66"/>
<text xml:space="preserve" text-anchor="middle" x="750.56" y="-174.78" font-family="Times,serif" font-size="14.00">RFC1321</text>
<text xml:space="preserve" text-anchor="middle" x="750.56" y="-158.28" font-family="Times,serif" font-size="14.00">The MD5 Message&#45;Digest Algorithm</text>
<text xml:space="preserve" text-anchor="middle" x="750.56" y="-141.78" font-family="Times,serif" font-size="14.00">1992</text>
</a>
</g>
</g>
<!-- cites&#45;&gt;RFC1321 -->
<g id="edge16" class="edge">
<title>cites&#45;&gt;RFC1321</title>
<path fill="none" stroke="black" d="M506.73,-661.95C505.5,-584.07 504.69,-281.97 564.24,-213.33 574.07,-201.99 586.17,-193.1 599.45,-186.14"/>
<polygon fill="black" stroke="black" points="600.93,-189.31 608.44,-181.83 597.91,-182.99 600.93,-189.31"/>
</g>
<!-- RFC3417 -->
<g id="node18" class="node">
<title>RFC3417</title>
<g id="a_node18"><a xlink:href="RFC3417.html" xlink:title="This document defines the transport of Simple Network Management Protocol (SNMP) messages over various protocols. &#160;This document obsoletes RFC 1906. [STANDARDS&#45;TRACK]" target="_top">
<ellipse fill="none" stroke="black" cx="750.56" cy="-52.33" rx="168.82" ry="52.33"/>
<text xml:space="preserve" text-anchor="middle" x="750.56" y="-72.03" font-family="Times,serif" font-size="14.00">RFC3417</text>
<text xml:space="preserve" text-anchor="middle" x="750.56" y="-55.53" font-family="Times,serif" font-size="14.00">Transport Mappings for the Simple</text>
<text xml:space="preserve" text-anchor="middle" x="750.56" y="-39.03" font-family="Times,serif" font-size="14.00">Network Management Protocol (SNMP)</text>
<text xml:space="preserve" text-anchor="middle" x="750.56" y="-22.53" font-family="Times,serif" font-size="14.00">2002</text>
</a>
</g>
</g>
<!-- cites&#45;&gt;RFC3417 -->
<g id="edge17" class="edge">
<title>cites&#45;&gt;RFC3417</title>
<path fill="none" stroke="black" d="M507.79,-661.83C511.35,-569.06 529.08,-157.1 564.24,-113.33 573.19,-102.18 584.23,-93.05 596.42,-85.57"/>
<polygon fill="black" stroke="black" points="598.13,-88.63 605.12,-80.67 594.69,-82.53 598.13,-88.63"/>
</g>
<!-- rev_cites -->
<g id="node19" class="node">
<title>rev_cites</title>
<polygon fill="lightblue" stroke="black" points="60.12,-1010.33 6.12,-1010.33 6.12,-974.33 60.12,-974.33 60.12,-1010.33"/>
<text xml:space="preserve" text-anchor="middle" x="33.12" y="-987.28" font-family="Times,serif" font-size="14.00">cites</text>
</g>
<!-- rev_cites&#45;&gt;RFC7860 -->
<g id="edge18" class="edge">
<title>rev_cites&#45;&gt;RFC7860</title>
<path fill="none" stroke="black" d="M60.57,-998.42C73.27,-1001.34 89.65,-1005.11 107.62,-1009.25"/>
<polygon fill="black" stroke="black" points="106.68,-1012.63 117.21,-1011.46 108.25,-1005.8 106.68,-1012.63"/>
</g>
</g>
</svg>
