<?xml version="1.0" encoding="UTF-8" standalone="no"?>
<!DOCTYPE svg PUBLIC "-//W3C//DTD SVG 1.1//EN"
 "http://www.w3.org/Graphics/SVG/1.1/DTD/svg11.dtd">
<!-- Generated by graphviz version 14.1.1 (20251213.1925)
 -->
<!-- Title: Flow Pages: 1 -->
<svg width="964pt" height="414pt"
 viewBox="0.00 0.00 964.00 414.00" xmlns="http://www.w3.org/2000/svg" xmlns:xlink="http://www.w3.org/1999/xlink">
<g id="graph0" class="graph" transform="scale(1 1) rotate(0) translate(4 409.83)">
<title>Flow</title>
<polygon fill="white" stroke="none" points="-4,4 -4,-409.83 960.48,-409.83 960.48,4 -4,4"/>
<!-- RFC7502 -->
<g id="node1" class="node">
<title>RFC7502</title>
<g id="a_node1"><a xlink:title="This document provides a methodology for benchmarking the Session Initiation Protocol (SIP) performance of devices. &#160;Terminology related to benchmarking SIP devices is described in the companion terminology document (RFC 7501). &#160;Using these two documents, benchmarks can be obtained and compared for different types of devices such as SIP Proxy Servers, Registrars, and Session Border Controllers. &#160;The term performance in this context means the capacity of the Device Under Test (DUT) to process SIP messages. &#160;Media streams are used only to study how they impact the signaling behavior. &#160;The intent of the two documents is to provide a normalized set of tests that will enable an objective comparison of the capacity of SIP devices. &#160;Test setup parameters and a methodology are necessary because SIP allows a wide range of configurations and operational conditions that can influence performance benchmark measurements.">
<ellipse fill="none" stroke="black" cx="259.54" cy="-189.84" rx="168.29" ry="63.99"/>
<text xml:space="preserve" text-anchor="middle" x="259.54" y="-217.79" font-family="Times,serif" font-size="14.00">RFC7502</text>
<text xml:space="preserve" text-anchor="middle" x="259.54" y="-201.29" font-family="Times,serif" font-size="14.00">Methodology for Benchmarking Session</text>
<text xml:space="preserve" text-anchor="middle" x="259.54" y="-184.79" font-family="Times,serif" font-size="14.00">Initiation Protocol (SIP) Devices: Basic</text>
<text xml:space="preserve" text-anchor="middle" x="259.54" y="-168.29" font-family="Times,serif" font-size="14.00">Session Setup and Registration</text>
<text xml:space="preserve" text-anchor="middle" x="259.54" y="-151.79" font-family="Times,serif" font-size="14.00">2015</text>
</a>
</g>
</g>
<!-- obs -->
<g id="node3" class="node">
<title>obs</title>
<polygon fill="none" stroke="black" points="519.08,-288.84 452.83,-288.84 452.83,-252.84 519.08,-252.84 519.08,-288.84"/>
<text xml:space="preserve" text-anchor="middle" x="485.96" y="-265.79" font-family="Times,serif" font-size="14.00">obsoletes</text>
</g>
<!-- RFC7502&#45;&gt;obs -->
<g id="edge2" class="edge">
<title>RFC7502&#45;&gt;obs</title>
<path fill="none" stroke="black" d="M382.6,-233.9C403.85,-241.57 424.63,-249.06 441.85,-255.28"/>
<polygon fill="black" stroke="black" points="440.6,-258.55 451.2,-258.65 442.98,-251.97 440.6,-258.55"/>
</g>
<!-- updates -->
<g id="node4" class="node">
<title>updates</title>
<polygon fill="none" stroke="black" points="514.58,-234.84 457.33,-234.84 457.33,-198.84 514.58,-198.84 514.58,-234.84"/>
<text xml:space="preserve" text-anchor="middle" x="485.96" y="-211.79" font-family="Times,serif" font-size="14.00">updates</text>
</g>
<!-- RFC7502&#45;&gt;updates -->
<g id="edge3" class="edge">
<title>RFC7502&#45;&gt;updates</title>
<path fill="none" stroke="black" d="M420.35,-209.07C429.51,-210.17 438.15,-211.21 445.95,-212.15"/>
<polygon fill="black" stroke="black" points="445.26,-215.59 455.61,-213.31 446.1,-208.64 445.26,-215.59"/>
</g>
<!-- cites -->
<g id="node6" class="node">
<title>cites</title>
<polygon fill="none" stroke="black" points="512.96,-180.84 458.96,-180.84 458.96,-144.84 512.96,-144.84 512.96,-180.84"/>
<text xml:space="preserve" text-anchor="middle" x="485.96" y="-157.79" font-family="Times,serif" font-size="14.00">cites</text>
</g>
<!-- RFC7502&#45;&gt;cites -->
<g id="edge5" class="edge">
<title>RFC7502&#45;&gt;cites</title>
<path fill="none" stroke="black" d="M420.35,-170.61C430.09,-169.44 439.25,-168.34 447.44,-167.35"/>
<polygon fill="black" stroke="black" points="447.68,-170.85 457.19,-166.18 446.85,-163.9 447.68,-170.85"/>
</g>
<!-- obs_by -->
<g id="node2" class="node">
<title>obs_by</title>
<polygon fill="none" stroke="black" points="66.25,-234.84 0,-234.84 0,-198.84 66.25,-198.84 66.25,-234.84"/>
<text xml:space="preserve" text-anchor="middle" x="33.12" y="-211.79" font-family="Times,serif" font-size="14.00">obsoletes</text>
</g>
<!-- obs_by&#45;&gt;RFC7502 -->
<g id="edge1" class="edge">
<title>obs_by&#45;&gt;RFC7502</title>
<path fill="none" stroke="black" d="M66.28,-212.97C72.63,-212.21 79.7,-211.36 87.26,-210.45"/>
<polygon fill="black" stroke="black" points="87.67,-213.92 97.18,-209.25 86.83,-206.97 87.67,-213.92"/>
</g>
<!-- updated_by -->
<g id="node5" class="node">
<title>updated_by</title>
<polygon fill="none" stroke="black" points="61.75,-180.84 4.5,-180.84 4.5,-144.84 61.75,-144.84 61.75,-180.84"/>
<text xml:space="preserve" text-anchor="middle" x="33.12" y="-157.79" font-family="Times,serif" font-size="14.00">updates</text>
</g>
<!-- updated_by&#45;&gt;RFC7502 -->
<g id="edge4" class="edge">
<title>updated_by&#45;&gt;RFC7502</title>
<path fill="none" stroke="black" d="M62.09,-166.2C69.53,-167.1 78.12,-168.13 87.47,-169.26"/>
<polygon fill="black" stroke="black" points="86.93,-172.72 97.28,-170.44 87.77,-165.77 86.93,-172.72"/>
</g>
<!-- RFC7501 -->
<g id="node7" class="node">
<title>RFC7501</title>
<g id="a_node7"><a xlink:href="RFC7501.html" xlink:title="This document provides a terminology for benchmarking the Session Initiation Protocol (SIP) performance of devices. &#160;Methodology related to benchmarking SIP devices is described in the companion methodology document (RFC 7502). &#160;Using these two documents, benchmarks can be obtained and compared for different types of devices such as SIP Proxy Servers, Registrars, and Session Border Controllers. &#160;The term performance in this context means the capacity of the Device Under Test (DUT) to process SIP messages. &#160;Media streams are used only to study how they impact the signaling behavior. &#160;The intent of the two documents is to provide a normalized set of tests that will enable an objective comparison of the capacity of SIP devices. &#160;Test setup parameters and a methodology are necessary because SIP allows a wide range of configurations and operational conditions that can influence performance benchmark measurements. &#160;A standard terminology and methodology will ensure that benchmarks have consistent definitions and were obtained following the same procedures." target="_top">
<ellipse fill="none" stroke="black" cx="710.78" cy="-341.84" rx="166.7" ry="63.99"/>
<text xml:space="preserve" text-anchor="middle" x="710.78" y="-369.79" font-family="Times,serif" font-size="14.00">RFC7501</text>
<text xml:space="preserve" text-anchor="middle" x="710.78" y="-353.29" font-family="Times,serif" font-size="14.00">Terminology for Benchmarking Session</text>
<text xml:space="preserve" text-anchor="middle" x="710.78" y="-336.79" font-family="Times,serif" font-size="14.00">Initiation Protocol (SIP) Devices: Basic</text>
<text xml:space="preserve" text-anchor="middle" x="710.78" y="-320.29" font-family="Times,serif" font-size="14.00">Session Setup and Registration</text>
<text xml:space="preserve" text-anchor="middle" x="710.78" y="-303.79" font-family="Times,serif" font-size="14.00">2015</text>
</a>
</g>
</g>
<!-- cites&#45;&gt;RFC7501 -->
<g id="edge6" class="edge">
<title>cites&#45;&gt;RFC7501</title>
<path fill="none" stroke="black" d="M511.95,-181.27C514.6,-183.94 517.06,-186.81 519.08,-189.84 539.55,-220.46 519.49,-241.43 544.08,-268.84 552.77,-278.53 562.99,-286.99 574.01,-294.38"/>
<polygon fill="black" stroke="black" points="571.83,-297.14 582.15,-299.52 575.57,-291.22 571.83,-297.14"/>
</g>
<!-- RFC3261 -->
<g id="node8" class="node">
<title>RFC3261</title>
<g id="a_node8"><a xlink:href="RFC3261.html" xlink:title="This document describes Session Initiation Protocol (SIP), an application&#45;layer control (signaling) protocol for creating, modifying, and terminating sessions with one or more participants. &#160;These sessions include Internet telephone calls, multimedia distribution, and multimedia conferences. [STANDARDS&#45;TRACK]" target="_top">
<ellipse fill="none" stroke="black" cx="710.78" cy="-218.84" rx="132.23" ry="40.66"/>
<text xml:space="preserve" text-anchor="middle" x="710.78" y="-230.29" font-family="Times,serif" font-size="14.00">RFC3261</text>
<text xml:space="preserve" text-anchor="middle" x="710.78" y="-213.79" font-family="Times,serif" font-size="14.00">SIP: Session Initiation Protocol</text>
<text xml:space="preserve" text-anchor="middle" x="710.78" y="-197.29" font-family="Times,serif" font-size="14.00">2002</text>
</a>
</g>
</g>
<!-- cites&#45;&gt;RFC3261 -->
<g id="edge7" class="edge">
<title>cites&#45;&gt;RFC3261</title>
<path fill="none" stroke="black" d="M513.39,-169.48C534.38,-174.76 565.27,-182.52 596.36,-190.34"/>
<polygon fill="black" stroke="black" points="595.34,-193.69 605.89,-192.73 597.04,-186.9 595.34,-193.69"/>
</g>
<!-- RFC2119 -->
<g id="node9" class="node">
<title>RFC2119</title>
<g id="a_node9"><a xlink:href="RFC2119.html" xlink:title="In many standards track documents several words are used to signify the requirements in the specification. &#160;These words are often capitalized. &#160;This document defines these words as they should be interpreted in IETF documents. &#160;This document specifies an Internet Best Current Practices for the Internet Community, and requests discussion and suggestions for improvements." target="_top">
<ellipse fill="none" stroke="black" cx="710.78" cy="-107.84" rx="160.34" ry="52.33"/>
<text xml:space="preserve" text-anchor="middle" x="710.78" y="-127.54" font-family="Times,serif" font-size="14.00">RFC2119</text>
<text xml:space="preserve" text-anchor="middle" x="710.78" y="-111.04" font-family="Times,serif" font-size="14.00">Key words for use in RFCs to Indicate</text>
<text xml:space="preserve" text-anchor="middle" x="710.78" y="-94.54" font-family="Times,serif" font-size="14.00">Requirement Levels</text>
<text xml:space="preserve" text-anchor="middle" x="710.78" y="-78.04" font-family="Times,serif" font-size="14.00">1997</text>
</a>
</g>
</g>
<!-- cites&#45;&gt;RFC2119 -->
<g id="edge8" class="edge">
<title>cites&#45;&gt;RFC2119</title>
<path fill="none" stroke="black" d="M513.39,-156.31C528.65,-152.55 549.14,-147.49 571.14,-142.06"/>
<polygon fill="black" stroke="black" points="571.71,-145.53 580.58,-139.73 570.03,-138.73 571.71,-145.53"/>
</g>
<!-- rev_cites -->
<g id="node10" class="node">
<title>rev_cites</title>
<polygon fill="none" stroke="black" points="956.48,-202.84 902.48,-202.84 902.48,-166.84 956.48,-166.84 956.48,-202.84"/>
<text xml:space="preserve" text-anchor="middle" x="929.48" y="-179.79" font-family="Times,serif" font-size="14.00">cites</text>
</g>
<!-- RFC7501&#45;&gt;rev_cites -->
<g id="edge10" class="edge">
<title>RFC7501&#45;&gt;rev_cites</title>
<path fill="none" stroke="black" d="M834.21,-298.35C849.7,-289.93 864.6,-280.14 877.48,-268.84 894.69,-253.75 907.87,-231.4 916.52,-213.56"/>
<polygon fill="black" stroke="black" points="919.68,-215.05 920.68,-204.5 913.32,-212.13 919.68,-215.05"/>
</g>
<!-- rev_cites&#45;&gt;RFC7502 -->
<g id="edge9" class="edge">
<title>rev_cites&#45;&gt;RFC7502</title>
<path fill="none" stroke="black" d="M927.94,-166.61C925.92,-135.84 916.89,-74.29 877.48,-46.84 755.89,37.85 688.24,-12.55 544.08,-46.84 476.93,-62.82 407.64,-97.37 354.36,-128.51"/>
<polygon fill="black" stroke="black" points="352.74,-125.41 345.91,-133.51 356.3,-131.43 352.74,-125.41"/>
</g>
</g>
</svg>
