<?xml version="1.0" encoding="UTF-8" standalone="no"?>
<!DOCTYPE svg PUBLIC "-//W3C//DTD SVG 1.1//EN"
 "http://www.w3.org/Graphics/SVG/1.1/DTD/svg11.dtd">
<!-- Generated by graphviz version 14.1.1 (20251213.1925)
 -->
<!-- Title: Flow Pages: 1 -->
<svg width="1839pt" height="1224pt"
 viewBox="0.00 0.00 1839.00 1224.00" xmlns="http://www.w3.org/2000/svg" xmlns:xlink="http://www.w3.org/1999/xlink">
<g id="graph0" class="graph" transform="scale(1 1) rotate(0) translate(4 1220.34)">
<title>Flow</title>
<polygon fill="white" stroke="none" points="-4,4 -4,-1220.34 1835.06,-1220.34 1835.06,4 -4,4"/>
<!-- RFC7887 -->
<g id="node1" class="node">
<title>RFC7887</title>
<g id="a_node1"><a xlink:title="This document defines a hierarchical method of encoding Join/Prune attributes that provides a more efficient encoding when the same attribute values need to be specified for multiple sources in a PIM Join/Prune message. &#160;This document updates RFC 5384 by renaming the encoding type registry specified there.">
<ellipse fill="green" stroke="black" stroke-width="3" cx="952.48" cy="-400" rx="187.38" ry="50.2"/>
<text xml:space="preserve" text-anchor="middle" x="952.48" y="-414.4" font-family="Times,serif" font-size="18.00">RFC7887</text>
<text xml:space="preserve" text-anchor="middle" x="952.48" y="-393.4" font-family="Times,serif" font-size="18.00">Hierarchical Join/Prune Attributes</text>
<text xml:space="preserve" text-anchor="middle" x="952.48" y="-372.4" font-family="Times,serif" font-size="18.00">2016</text>
</a>
</g>
</g>
<!-- obs -->
<g id="node3" class="node">
<title>obs</title>
<polygon fill="lightblue" stroke="black" points="1338.63,-588.01 1272.38,-588.01 1272.38,-552.01 1338.63,-552.01 1338.63,-588.01"/>
<text xml:space="preserve" text-anchor="middle" x="1305.5" y="-564.96" font-family="Times,serif" font-size="14.00">obsoletes</text>
</g>
<!-- RFC7887&#45;&gt;obs -->
<g id="edge2" class="edge">
<title>RFC7887&#45;&gt;obs</title>
<path fill="none" stroke="black" d="M1045.69,-444.89C1115.59,-478.56 1208.11,-523.11 1261.79,-548.96"/>
<polygon fill="black" stroke="black" points="1260.1,-552.03 1270.62,-553.22 1263.13,-545.72 1260.1,-552.03"/>
</g>
<!-- updates -->
<g id="node4" class="node">
<title>updates</title>
<polygon fill="lightyellow" stroke="black" points="1068.29,-800.01 1011.04,-800.01 1011.04,-764.01 1068.29,-764.01 1068.29,-800.01"/>
<text xml:space="preserve" text-anchor="middle" x="1039.67" y="-776.96" font-family="Times,serif" font-size="14.00">updates</text>
</g>
<!-- RFC7887&#45;&gt;updates -->
<g id="edge3" class="edge">
<title>RFC7887&#45;&gt;updates</title>
<path fill="none" stroke="black" d="M964.24,-451.52C982.79,-532.81 1018.26,-688.22 1032.99,-752.77"/>
<polygon fill="black" stroke="black" points="1029.52,-753.28 1035.16,-762.25 1036.34,-751.72 1029.52,-753.28"/>
</g>
<!-- cites -->
<g id="node7" class="node">
<title>cites</title>
<polygon fill="lightblue" stroke="black" points="626.45,-588.01 572.45,-588.01 572.45,-552.01 626.45,-552.01 626.45,-588.01"/>
<text xml:space="preserve" text-anchor="middle" x="599.45" y="-564.96" font-family="Times,serif" font-size="14.00">cites</text>
</g>
<!-- RFC7887&#45;&gt;cites -->
<g id="edge6" class="edge">
<title>RFC7887&#45;&gt;cites</title>
<path fill="none" stroke="black" d="M859.26,-444.89C786.64,-479.87 689.61,-526.59 637.08,-551.89"/>
<polygon fill="black" stroke="black" points="635.73,-548.66 628.24,-556.15 638.77,-554.96 635.73,-548.66"/>
</g>
<!-- obs_by -->
<g id="node2" class="node">
<title>obs_by</title>
<polygon fill="lightblue" stroke="black" points="741.3,-111.66 675.05,-111.66 675.05,-75.66 741.3,-75.66 741.3,-111.66"/>
<text xml:space="preserve" text-anchor="middle" x="708.18" y="-88.61" font-family="Times,serif" font-size="14.00">obsoletes</text>
</g>
<!-- obs_by&#45;&gt;RFC7887 -->
<g id="edge1" class="edge">
<title>obs_by&#45;&gt;RFC7887</title>
<path fill="none" stroke="black" d="M722.73,-111.91C757.94,-156.07 849.01,-270.26 905.34,-340.9"/>
<polygon fill="black" stroke="black" points="902.46,-342.9 911.43,-348.53 907.93,-338.53 902.46,-342.9"/>
</g>
<!-- RFC5384 -->
<g id="node5" class="node">
<title>RFC5384</title>
<g id="a_node5"><a xlink:href="RFC5384.html" xlink:title="A Protocol Independent Multicast &#45; Sparse Mode Join message sent by a given node identifies one or more multicast distribution trees that that node wishes to join. &#160;Each tree is identified by the combination of a multicast group address and a source address (where the source address is possibly a wild card). &#160;Under certain conditions it can be useful, when joining a tree, to specify additional information related to the construction of the tree. &#160;However, there has been no way to do so until now. &#160;This document describes a modification of the Join message that allows a node to associate attributes with a particular tree. &#160;The attributes are encoded in Type&#45;Length&#45;Value format. [STANDARDS&#45;TRACK]" target="_top">
<ellipse fill="none" stroke="black" cx="1126.86" cy="-1164.01" rx="176.78" ry="52.33"/>
<text xml:space="preserve" text-anchor="middle" x="1126.86" y="-1183.71" font-family="Times,serif" font-size="14.00">RFC5384</text>
<text xml:space="preserve" text-anchor="middle" x="1126.86" y="-1167.21" font-family="Times,serif" font-size="14.00">The Protocol Independent Multicast (PIM)</text>
<text xml:space="preserve" text-anchor="middle" x="1126.86" y="-1150.71" font-family="Times,serif" font-size="14.00">Join Attribute Format</text>
<text xml:space="preserve" text-anchor="middle" x="1126.86" y="-1134.21" font-family="Times,serif" font-size="14.00">2008</text>
</a>
</g>
</g>
<!-- updates&#45;&gt;RFC5384 -->
<g id="edge4" class="edge">
<title>updates&#45;&gt;RFC5384</title>
<path fill="none" stroke="black" d="M1043.87,-800.43C1056.09,-853.96 1092,-1011.28 1112.35,-1100.45"/>
<polygon fill="black" stroke="black" points="1108.9,-1101.06 1114.54,-1110.03 1115.72,-1099.5 1108.9,-1101.06"/>
</g>
<!-- updated_by -->
<g id="node6" class="node">
<title>updated_by</title>
<polygon fill="lightyellow" stroke="black" points="1068.29,-36 1011.04,-36 1011.04,0 1068.29,0 1068.29,-36"/>
<text xml:space="preserve" text-anchor="middle" x="1039.67" y="-12.95" font-family="Times,serif" font-size="14.00">updates</text>
</g>
<!-- updated_by&#45;&gt;RFC7887 -->
<g id="edge5" class="edge">
<title>updated_by&#45;&gt;RFC7887</title>
<path fill="none" stroke="black" d="M1035.46,-36.42C1023.2,-90.16 987.05,-248.54 966.74,-337.51"/>
<polygon fill="black" stroke="black" points="963.37,-336.53 964.56,-347.06 970.2,-338.09 963.37,-336.53"/>
</g>
<!-- cites&#45;&gt;RFC5384 -->
<g id="edge7" class="edge">
<title>cites&#45;&gt;RFC5384</title>
<path fill="none" stroke="black" d="M615.81,-588.44C685.4,-666.81 958.45,-974.34 1074.36,-1104.89"/>
<polygon fill="black" stroke="black" points="1071.5,-1106.94 1080.76,-1112.09 1076.74,-1102.29 1071.5,-1106.94"/>
</g>
<!-- RFC2119 -->
<g id="node8" class="node">
<title>RFC2119</title>
<g id="a_node8"><a xlink:href="RFC2119.html" xlink:title="In many standards track documents several words are used to signify the requirements in the specification. &#160;These words are often capitalized. &#160;This document defines these words as they should be interpreted in IETF documents. &#160;This document specifies an Internet Best Current Practices for the Internet Community, and requests discussion and suggestions for improvements." target="_top">
<ellipse fill="none" stroke="black" cx="463.88" cy="-1012.69" rx="160.34" ry="52.33"/>
<text xml:space="preserve" text-anchor="middle" x="463.88" y="-1032.39" font-family="Times,serif" font-size="14.00">RFC2119</text>
<text xml:space="preserve" text-anchor="middle" x="463.88" y="-1015.89" font-family="Times,serif" font-size="14.00">Key words for use in RFCs to Indicate</text>
<text xml:space="preserve" text-anchor="middle" x="463.88" y="-999.39" font-family="Times,serif" font-size="14.00">Requirement Levels</text>
<text xml:space="preserve" text-anchor="middle" x="463.88" y="-982.89" font-family="Times,serif" font-size="14.00">1997</text>
</a>
</g>
</g>
<!-- cites&#45;&gt;RFC2119 -->
<g id="edge8" class="edge">
<title>cites&#45;&gt;RFC2119</title>
<path fill="none" stroke="black" d="M593.8,-588.47C575.09,-649.57 514.57,-847.18 483.17,-949.69"/>
<polygon fill="black" stroke="black" points="479.88,-948.47 480.3,-959.06 486.58,-950.52 479.88,-948.47"/>
</g>
<!-- RFC7761 -->
<g id="node9" class="node">
<title>RFC7761</title>
<g id="a_node9"><a xlink:href="RFC7761.html" xlink:title="This document specifies Protocol Independent Multicast &#45; Sparse Mode (PIM&#45;SM). PIM&#45;SM is a multicast routing protocol that can use the underlying unicast routing information base or a separate multicast&#45;capable routing information base. It builds unidirectional shared trees rooted at a Rendezvous Point (RP) per group, and it optionally creates shortest&#45;path trees per source. This document obsoletes RFC 4601 by replacing it, addresses the errata filed against it, removes the optional (*,*,RP), PIM Multicast Border Router features and authentication using IPsec that lack sufficient deployment experience (see Appendix A), and moves the PIM specification to Internet Standard." target="_top">
<ellipse fill="none" stroke="black" cx="168.82" cy="-400" rx="168.82" ry="63.99"/>
<text xml:space="preserve" text-anchor="middle" x="168.82" y="-427.95" font-family="Times,serif" font-size="14.00">RFC7761</text>
<text xml:space="preserve" text-anchor="middle" x="168.82" y="-411.45" font-family="Times,serif" font-size="14.00">Protocol Independent Multicast &#45; Sparse</text>
<text xml:space="preserve" text-anchor="middle" x="168.82" y="-394.95" font-family="Times,serif" font-size="14.00">Mode (PIM&#45;SM): Protocol Specification</text>
<text xml:space="preserve" text-anchor="middle" x="168.82" y="-378.45" font-family="Times,serif" font-size="14.00">(Revised)</text>
<text xml:space="preserve" text-anchor="middle" x="168.82" y="-361.95" font-family="Times,serif" font-size="14.00">2016</text>
</a>
</g>
</g>
<!-- cites&#45;&gt;RFC7761 -->
<g id="edge9" class="edge">
<title>cites&#45;&gt;RFC7761</title>
<path fill="none" stroke="black" d="M572.19,-559.25C517.87,-537.8 393.07,-488.54 296.57,-450.44"/>
<polygon fill="black" stroke="black" points="298.13,-447.29 287.54,-446.87 295.56,-453.8 298.13,-447.29"/>
</g>
<!-- rev_cites -->
<g id="node10" class="node">
<title>rev_cites</title>
<polygon fill="lightblue" stroke="black" points="1332.5,-248 1278.5,-248 1278.5,-212 1332.5,-212 1332.5,-248"/>
<text xml:space="preserve" text-anchor="middle" x="1305.5" y="-224.95" font-family="Times,serif" font-size="14.00">cites</text>
</g>
<!-- rev_cites&#45;&gt;RFC7887 -->
<g id="edge10" class="edge">
<title>rev_cites&#45;&gt;RFC7887</title>
<path fill="none" stroke="black" d="M1278.09,-243.19C1230.96,-265.89 1132.25,-313.43 1055.8,-350.24"/>
<polygon fill="black" stroke="black" points="1054.5,-346.99 1047.01,-354.48 1057.54,-353.29 1054.5,-346.99"/>
</g>
<!-- RFC8059 -->
<g id="node11" class="node">
<title>RFC8059</title>
<g id="a_node11"><a xlink:href="RFC8059.html" xlink:title="This document defines two PIM Join/Prune attributes that support the construction of multicast distribution trees where the root and receivers are located in different Locator/ID Separation Protocol (LISP) sites. &#160;These attributes allow the receiver site to select between unicast and multicast underlying transport and to convey the RLOC (Routing Locator) address of the receiver ETR (Egress Tunnel Router) to the control plane of the root ITR (Ingress Tunnel Router)." target="_top">
<ellipse fill="none" stroke="black" cx="1658.52" cy="-59.99" rx="172.53" ry="52.33"/>
<text xml:space="preserve" text-anchor="middle" x="1658.52" y="-79.69" font-family="Times,serif" font-size="14.00">RFC8059</text>
<text xml:space="preserve" text-anchor="middle" x="1658.52" y="-63.19" font-family="Times,serif" font-size="14.00">PIM Join Attributes for Locator/ID</text>
<text xml:space="preserve" text-anchor="middle" x="1658.52" y="-46.69" font-family="Times,serif" font-size="14.00">Separation Protocol (LISP) Environments</text>
<text xml:space="preserve" text-anchor="middle" x="1658.52" y="-30.19" font-family="Times,serif" font-size="14.00">2017</text>
</a>
</g>
</g>
<!-- RFC8059&#45;&gt;rev_cites -->
<g id="edge11" class="edge">
<title>RFC8059&#45;&gt;rev_cites</title>
<path fill="none" stroke="black" d="M1566.23,-104.43C1493.41,-139.5 1395.62,-186.6 1342.91,-211.98"/>
<polygon fill="black" stroke="black" points="1341.54,-208.76 1334.05,-216.25 1344.58,-215.06 1341.54,-208.76"/>
</g>
</g>
</svg>
