<?xml version="1.0" encoding="UTF-8" standalone="no"?>
<!DOCTYPE svg PUBLIC "-//W3C//DTD SVG 1.1//EN"
 "http://www.w3.org/Graphics/SVG/1.1/DTD/svg11.dtd">
<!-- Generated by graphviz version 14.1.1 (20251213.1925)
 -->
<!-- Title: Flow Pages: 1 -->
<svg width="884pt" height="550pt"
 viewBox="0.00 0.00 884.00 550.00" xmlns="http://www.w3.org/2000/svg" xmlns:xlink="http://www.w3.org/1999/xlink">
<g id="graph0" class="graph" transform="scale(1 1) rotate(0) translate(4 546)">
<title>Flow</title>
<polygon fill="white" stroke="none" points="-4,4 -4,-546 879.87,-546 879.87,4 -4,4"/>
<!-- RFC7993 -->
<g id="node1" class="node">
<title>RFC7993</title>
<g id="a_node1"><a xlink:title="The HTML format for RFCs assigns style guidance to a Cascading Style Sheet (CSS) specifically defined for the RFC Series. &#160;The embedded, default CSS as included by the RFC Editor is expected to take into account accessibility needs and to be built along a responsive design model. &#160;This document describes the requirements for the default CSS used by the RFC Editor. &#160;The class names are based on the classes defined in HTML for RFCs (RFC 7992).">
<ellipse fill="green" stroke="black" cx="218.18" cy="-231.34" rx="126.93" ry="52.33"/>
<text xml:space="preserve" text-anchor="middle" x="218.18" y="-251.04" font-family="Times,serif" font-size="14.00">RFC7993</text>
<text xml:space="preserve" text-anchor="middle" x="218.18" y="-234.54" font-family="Times,serif" font-size="14.00">Cascading Style Sheets (CSS)</text>
<text xml:space="preserve" text-anchor="middle" x="218.18" y="-218.04" font-family="Times,serif" font-size="14.00">Requirements for RFCs</text>
<text xml:space="preserve" text-anchor="middle" x="218.18" y="-201.54" font-family="Times,serif" font-size="14.00">2016</text>
</a>
</g>
</g>
<!-- obs -->
<g id="node3" class="node">
<title>obs</title>
<polygon fill="lightblue" stroke="black" points="436.35,-330.34 370.1,-330.34 370.1,-294.34 436.35,-294.34 436.35,-330.34"/>
<text xml:space="preserve" text-anchor="middle" x="403.23" y="-307.29" font-family="Times,serif" font-size="14.00">obsoletes</text>
</g>
<!-- RFC7993&#45;&gt;obs -->
<g id="edge2" class="edge">
<title>RFC7993&#45;&gt;obs</title>
<path fill="none" stroke="black" d="M305.61,-269.59C324.44,-277.92 343.56,-286.38 359.77,-293.55"/>
<polygon fill="black" stroke="black" points="358.02,-296.61 368.58,-297.45 360.85,-290.2 358.02,-296.61"/>
</g>
<!-- updates -->
<g id="node4" class="node">
<title>updates</title>
<polygon fill="lightyellow" stroke="black" points="431.85,-276.34 374.6,-276.34 374.6,-240.34 431.85,-240.34 431.85,-276.34"/>
<text xml:space="preserve" text-anchor="middle" x="403.23" y="-253.29" font-family="Times,serif" font-size="14.00">updates</text>
</g>
<!-- RFC7993&#45;&gt;updates -->
<g id="edge3" class="edge">
<title>RFC7993&#45;&gt;updates</title>
<path fill="none" stroke="black" d="M338.2,-248.9C346.9,-250.18 355.23,-251.41 362.83,-252.53"/>
<polygon fill="black" stroke="black" points="362.24,-255.98 372.65,-253.98 363.26,-249.05 362.24,-255.98"/>
</g>
<!-- cites -->
<g id="node6" class="node">
<title>cites</title>
<polygon fill="lightblue" stroke="black" points="430.23,-222.34 376.23,-222.34 376.23,-186.34 430.23,-186.34 430.23,-222.34"/>
<text xml:space="preserve" text-anchor="middle" x="403.23" y="-199.29" font-family="Times,serif" font-size="14.00">cites</text>
</g>
<!-- RFC7993&#45;&gt;cites -->
<g id="edge5" class="edge">
<title>RFC7993&#45;&gt;cites</title>
<path fill="none" stroke="black" d="M338.2,-213.78C347.66,-212.39 356.68,-211.06 364.81,-209.86"/>
<polygon fill="black" stroke="black" points="365.15,-213.35 374.53,-208.42 364.13,-206.42 365.15,-213.35"/>
</g>
<!-- obs_by -->
<g id="node2" class="node">
<title>obs_by</title>
<polygon fill="lightblue" stroke="black" points="66.25,-276.34 0,-276.34 0,-240.34 66.25,-240.34 66.25,-276.34"/>
<text xml:space="preserve" text-anchor="middle" x="33.12" y="-253.29" font-family="Times,serif" font-size="14.00">obsoletes</text>
</g>
<!-- obs_by&#45;&gt;RFC7993 -->
<g id="edge1" class="edge">
<title>obs_by&#45;&gt;RFC7993</title>
<path fill="none" stroke="black" d="M66.43,-253.57C72.77,-252.64 79.78,-251.61 87.2,-250.51"/>
<polygon fill="black" stroke="black" points="87.46,-254.01 96.85,-249.09 86.44,-247.09 87.46,-254.01"/>
</g>
<!-- updated_by -->
<g id="node5" class="node">
<title>updated_by</title>
<polygon fill="lightyellow" stroke="black" points="61.75,-222.34 4.5,-222.34 4.5,-186.34 61.75,-186.34 61.75,-222.34"/>
<text xml:space="preserve" text-anchor="middle" x="33.12" y="-199.29" font-family="Times,serif" font-size="14.00">updates</text>
</g>
<!-- updated_by&#45;&gt;RFC7993 -->
<g id="edge4" class="edge">
<title>updated_by&#45;&gt;RFC7993</title>
<path fill="none" stroke="black" d="M61.93,-208.44C69.4,-209.54 78,-210.81 87.25,-212.17"/>
<polygon fill="black" stroke="black" points="86.46,-215.6 96.86,-213.59 87.48,-208.67 86.46,-215.6"/>
</g>
<!-- RFC7992 -->
<g id="node7" class="node">
<title>RFC7992</title>
<g id="a_node7"><a xlink:href="RFC7992.html" xlink:title="In order to meet the evolving needs of the Internet community, the canonical format for RFCs is changing from a plain&#45;text, ASCII&#45;only format to an XML format that will, in turn, be rendered into several publication formats. &#160;This document defines the HTML format that will be rendered for an RFC or Internet&#45;Draft." target="_top">
<ellipse fill="none" stroke="black" cx="629.11" cy="-402.34" rx="107.3" ry="40.66"/>
<text xml:space="preserve" text-anchor="middle" x="629.11" y="-413.79" font-family="Times,serif" font-size="14.00">RFC7992</text>
<text xml:space="preserve" text-anchor="middle" x="629.11" y="-397.29" font-family="Times,serif" font-size="14.00">HTML Format for RFCs</text>
<text xml:space="preserve" text-anchor="middle" x="629.11" y="-380.79" font-family="Times,serif" font-size="14.00">2016</text>
</a>
</g>
</g>
<!-- cites&#45;&gt;RFC7992 -->
<g id="edge6" class="edge">
<title>cites&#45;&gt;RFC7992</title>
<path fill="none" stroke="black" d="M429.53,-222.57C432.13,-225.27 434.49,-228.21 436.35,-231.34 464.67,-278.9 423.88,-312.6 461.35,-353.34 475.72,-368.97 494.79,-379.7 514.89,-387.06"/>
<polygon fill="black" stroke="black" points="513.77,-390.38 524.37,-390.23 515.99,-383.74 513.77,-390.38"/>
</g>
<!-- RFC7990 -->
<g id="node8" class="node">
<title>RFC7990</title>
<g id="a_node8"><a xlink:href="RFC7990.html" xlink:title="In order to improve the readability of RFCs while supporting their archivability, the canonical format of the RFC Series will be transitioning from plain&#45;text ASCII to XML using the xml2rfc version 3 vocabulary; different publication formats will be rendered from that base document. &#160;With these changes comes an increase in complexity for authors, consumers, and the publisher of RFCs. &#160;This document serves as the framework that provides the problem statement, lays out a road map of the documents that capture the specific requirements, and describes the transition plan." target="_top">
<ellipse fill="none" stroke="black" cx="629.11" cy="-303.34" rx="107.3" ry="40.66"/>
<text xml:space="preserve" text-anchor="middle" x="629.11" y="-314.79" font-family="Times,serif" font-size="14.00">RFC7990</text>
<text xml:space="preserve" text-anchor="middle" x="629.11" y="-298.29" font-family="Times,serif" font-size="14.00">RFC Format Framework</text>
<text xml:space="preserve" text-anchor="middle" x="629.11" y="-281.79" font-family="Times,serif" font-size="14.00">2016</text>
</a>
</g>
</g>
<!-- cites&#45;&gt;RFC7990 -->
<g id="edge7" class="edge">
<title>cites&#45;&gt;RFC7990</title>
<path fill="none" stroke="black" d="M426.46,-222.8C429.79,-225.64 433.18,-228.55 436.35,-231.34 447.69,-241.31 448.21,-246.91 461.35,-254.34 480.45,-265.14 502.15,-273.76 523.44,-280.57"/>
<polygon fill="black" stroke="black" points="522.15,-283.83 532.73,-283.42 524.2,-277.14 522.15,-283.83"/>
</g>
<!-- RFC7322 -->
<g id="node9" class="node">
<title>RFC7322</title>
<g id="a_node9"><a xlink:href="RFC7322.html" xlink:title="This document describes the fundamental and unique style conventions and editorial policies currently in use for the RFC Series. &#160;It captures the RFC Editor&#39;s basic requirements and offers guidance regarding the style and structure of an RFC. &#160;Additional guidance is captured on a website that reflects the experimental nature of that guidance and prepares it for future inclusion in the RFC Style Guide. &#160;This document obsoletes RFC 2223, Instructions to RFC Authors." target="_top">
<ellipse fill="none" stroke="black" cx="629.11" cy="-204.34" rx="77.6" ry="40.66"/>
<text xml:space="preserve" text-anchor="middle" x="629.11" y="-215.79" font-family="Times,serif" font-size="14.00">RFC7322</text>
<text xml:space="preserve" text-anchor="middle" x="629.11" y="-199.29" font-family="Times,serif" font-size="14.00">RFC Style Guide</text>
<text xml:space="preserve" text-anchor="middle" x="629.11" y="-182.79" font-family="Times,serif" font-size="14.00">2014</text>
</a>
</g>
</g>
<!-- cites&#45;&gt;RFC7322 -->
<g id="edge8" class="edge">
<title>cites&#45;&gt;RFC7322</title>
<path fill="none" stroke="black" d="M430.35,-204.34C457.22,-204.34 500.59,-204.34 539.88,-204.34"/>
<polygon fill="black" stroke="black" points="539.86,-207.84 549.86,-204.34 539.86,-200.84 539.86,-207.84"/>
</g>
<!-- RFC7841 -->
<g id="node10" class="node">
<title>RFC7841</title>
<g id="a_node10"><a xlink:href="RFC7841.html" xlink:title="RFC documents contain a number of fixed elements such as the title page header, standard boilerplates, and copyright/IPR statements. &#160;This document describes them and introduces some updates to reflect current usage and requirements of RFC publication. &#160;In particular, this updated structure is intended to communicate clearly the source of RFC creation and review. &#160;This document obsoletes RFC 5741, moving detailed content to an IAB web page and preparing for more flexible output formats." target="_top">
<ellipse fill="none" stroke="black" cx="629.11" cy="-105.34" rx="167.76" ry="40.66"/>
<text xml:space="preserve" text-anchor="middle" x="629.11" y="-116.79" font-family="Times,serif" font-size="14.00">RFC7841</text>
<text xml:space="preserve" text-anchor="middle" x="629.11" y="-100.29" font-family="Times,serif" font-size="14.00">RFC Streams, Headers, and Boilerplates</text>
<text xml:space="preserve" text-anchor="middle" x="629.11" y="-83.79" font-family="Times,serif" font-size="14.00">2016</text>
</a>
</g>
</g>
<!-- cites&#45;&gt;RFC7841 -->
<g id="edge9" class="edge">
<title>cites&#45;&gt;RFC7841</title>
<path fill="none" stroke="black" d="M421.21,-185.92C431.84,-175.35 446.33,-162.59 461.35,-154.34 472.72,-148.1 484.96,-142.57 497.48,-137.69"/>
<polygon fill="black" stroke="black" points="498.48,-141.05 506.62,-134.28 496.03,-134.5 498.48,-141.05"/>
</g>
<!-- rev_cites -->
<g id="node11" class="node">
<title>rev_cites</title>
<polygon fill="lightblue" stroke="black" points="875.87,-370.34 821.87,-370.34 821.87,-334.34 875.87,-334.34 875.87,-370.34"/>
<text xml:space="preserve" text-anchor="middle" x="848.87" y="-347.29" font-family="Times,serif" font-size="14.00">cites</text>
</g>
<!-- RFC7992&#45;&gt;rev_cites -->
<g id="edge12" class="edge">
<title>RFC7992&#45;&gt;rev_cites</title>
<path fill="none" stroke="black" d="M721.52,-381.35C752.87,-374.15 786.2,-366.5 810.75,-360.86"/>
<polygon fill="black" stroke="black" points="811.28,-364.33 820.24,-358.68 809.71,-357.51 811.28,-364.33"/>
</g>
<!-- RFC7990&#45;&gt;rev_cites -->
<g id="edge11" class="edge">
<title>RFC7990&#45;&gt;rev_cites</title>
<path fill="none" stroke="black" d="M722.15,-324.05C753.07,-331.01 785.85,-338.38 810.19,-343.86"/>
<polygon fill="black" stroke="black" points="809.41,-347.27 819.93,-346.05 810.94,-340.44 809.41,-347.27"/>
</g>
<!-- rev_cites&#45;&gt;RFC7993 -->
<g id="edge10" class="edge">
<title>rev_cites&#45;&gt;RFC7993</title>
<path fill="none" stroke="black" d="M847.66,-333.89C846.56,-274.72 839.68,-91.42 796.87,-55.34 682.85,40.77 603.17,-9.25 461.35,-55.34 388.99,-78.86 320.2,-133.03 274.55,-175.11"/>
<polygon fill="black" stroke="black" points="272.33,-172.4 267.41,-181.78 277.11,-177.51 272.33,-172.4"/>
</g>
<!-- RFC7995 -->
<g id="node12" class="node">
<title>RFC7995</title>
<g id="a_node12"><a xlink:href="RFC7995.html" xlink:title="This document discusses options and requirements for the PDF rendering of RFCs in the RFC Series, as outlined in RFC 6949. &#160;It also discusses the use of PDF for Internet&#45;Drafts, and available or needed software tools for producing and working with PDF." target="_top">
<ellipse fill="none" stroke="black" cx="629.11" cy="-501.34" rx="97.76" ry="40.66"/>
<text xml:space="preserve" text-anchor="middle" x="629.11" y="-512.79" font-family="Times,serif" font-size="14.00">RFC7995</text>
<text xml:space="preserve" text-anchor="middle" x="629.11" y="-496.29" font-family="Times,serif" font-size="14.00">PDF Format for RFCs</text>
<text xml:space="preserve" text-anchor="middle" x="629.11" y="-479.79" font-family="Times,serif" font-size="14.00">2016</text>
</a>
</g>
</g>
<!-- RFC7995&#45;&gt;rev_cites -->
<g id="edge13" class="edge">
<title>RFC7995&#45;&gt;rev_cites</title>
<path fill="none" stroke="black" d="M722.3,-488.36C748.56,-481.13 775.74,-469.87 796.87,-452.34 818.84,-434.12 832.37,-404.01 839.92,-381.58"/>
<polygon fill="black" stroke="black" points="843.24,-382.69 842.89,-372.11 836.56,-380.6 843.24,-382.69"/>
</g>
</g>
</svg>
