<?xml version="1.0" encoding="UTF-8" standalone="no"?>
<!DOCTYPE svg PUBLIC "-//W3C//DTD SVG 1.1//EN"
 "http://www.w3.org/Graphics/SVG/1.1/DTD/svg11.dtd">
<!-- Generated by graphviz version 14.1.1 (20251213.1925)
 -->
<!-- Title: Flow Pages: 1 -->
<svg width="788pt" height="1327pt"
 viewBox="0.00 0.00 788.00 1327.00" xmlns="http://www.w3.org/2000/svg" xmlns:xlink="http://www.w3.org/1999/xlink">
<g id="graph0" class="graph" transform="scale(1 1) rotate(0) translate(4 1323.02)">
<title>Flow</title>
<polygon fill="white" stroke="none" points="-4,4 -4,-1323.02 784.45,-1323.02 784.45,4 -4,4"/>
<!-- RFC7354 -->
<g id="node1" class="node">
<title>RFC7354</title>
<g id="a_node1"><a xlink:title="RFC 5328 registered the Uniform Resource Name (URN) namespace dvb for the Digital Video Broadcasting Project. &#160;This document updates RFC 5328 with new registrant information.">
<ellipse fill="green" stroke="black" stroke-width="3" cx="390.22" cy="-430.34" rx="219.73" ry="94.75"/>
<text xml:space="preserve" text-anchor="middle" x="390.22" y="-476.24" font-family="Times,serif" font-size="18.00">RFC7354</text>
<text xml:space="preserve" text-anchor="middle" x="390.22" y="-455.24" font-family="Times,serif" font-size="18.00">Update to the Registrant Information for</text>
<text xml:space="preserve" text-anchor="middle" x="390.22" y="-434.24" font-family="Times,serif" font-size="18.00">the Digital Video Broadcasting Project</text>
<text xml:space="preserve" text-anchor="middle" x="390.22" y="-413.24" font-family="Times,serif" font-size="18.00">(DVB) Uniform Resource Name (URN)</text>
<text xml:space="preserve" text-anchor="middle" x="390.22" y="-392.24" font-family="Times,serif" font-size="18.00">Namespace</text>
<text xml:space="preserve" text-anchor="middle" x="390.22" y="-371.24" font-family="Times,serif" font-size="18.00">2014</text>
</a>
</g>
</g>
<!-- obs -->
<g id="node3" class="node">
<title>obs</title>
<polygon fill="lightblue" stroke="black" points="780.45,-654.51 714.2,-654.51 714.2,-618.51 780.45,-618.51 780.45,-654.51"/>
<text xml:space="preserve" text-anchor="middle" x="747.32" y="-631.46" font-family="Times,serif" font-size="14.00">obsoletes</text>
</g>
<!-- RFC7354&#45;&gt;obs -->
<g id="edge2" class="edge">
<title>RFC7354&#45;&gt;obs</title>
<path fill="none" stroke="black" d="M523.2,-507.11C587.77,-544.39 660.86,-586.6 705.52,-612.38"/>
<polygon fill="black" stroke="black" points="703.7,-615.37 714.11,-617.34 707.2,-609.31 703.7,-615.37"/>
</g>
<!-- updates -->
<g id="node4" class="node">
<title>updates</title>
<polygon fill="lightyellow" stroke="black" points="418.85,-860.69 361.6,-860.69 361.6,-824.69 418.85,-824.69 418.85,-860.69"/>
<text xml:space="preserve" text-anchor="middle" x="390.22" y="-837.64" font-family="Times,serif" font-size="14.00">updates</text>
</g>
<!-- RFC7354&#45;&gt;updates -->
<g id="edge3" class="edge">
<title>RFC7354&#45;&gt;updates</title>
<path fill="none" stroke="black" d="M390.22,-526.5C390.22,-619.15 390.22,-753.71 390.22,-812.88"/>
<polygon fill="black" stroke="black" points="386.72,-812.8 390.22,-822.8 393.72,-812.81 386.72,-812.8"/>
</g>
<!-- cites -->
<g id="node7" class="node">
<title>cites</title>
<polygon fill="lightblue" stroke="black" points="60.13,-654.51 6.13,-654.51 6.13,-618.51 60.13,-618.51 60.13,-654.51"/>
<text xml:space="preserve" text-anchor="middle" x="33.13" y="-631.46" font-family="Times,serif" font-size="14.00">cites</text>
</g>
<!-- RFC7354&#45;&gt;cites -->
<g id="edge6" class="edge">
<title>RFC7354&#45;&gt;cites</title>
<path fill="none" stroke="black" d="M257.25,-507.11C190.29,-545.78 114.16,-589.73 70.08,-615.18"/>
<polygon fill="black" stroke="black" points="68.61,-611.99 61.7,-620.02 72.11,-618.05 68.61,-611.99"/>
</g>
<!-- obs_by -->
<g id="node2" class="node">
<title>obs_by</title>
<polygon fill="lightblue" stroke="black" points="66.25,-242.17 0,-242.17 0,-206.17 66.25,-206.17 66.25,-242.17"/>
<text xml:space="preserve" text-anchor="middle" x="33.13" y="-219.12" font-family="Times,serif" font-size="14.00">obsoletes</text>
</g>
<!-- obs_by&#45;&gt;RFC7354 -->
<g id="edge1" class="edge">
<title>obs_by&#45;&gt;RFC7354</title>
<path fill="none" stroke="black" d="M65.13,-242.65C106.25,-266.39 180.33,-309.16 247.4,-347.88"/>
<polygon fill="black" stroke="black" points="245.52,-350.84 255.93,-352.81 249.02,-344.78 245.52,-350.84"/>
</g>
<!-- RFC5328 -->
<g id="node5" class="node">
<title>RFC5328</title>
<g id="a_node5"><a xlink:href="RFC5328.html" xlink:title="This document describes a Uniform Resource Name (URN) namespace for the Digital Video Broadcasting Project (DVB) for naming persistent resources defined within DVB standards. &#160;Example resources include technical documents and specifications, eXtensible Markup Language (XML) Schemas, classification schemes, XML Document Type Definitions (DTDs), namespaces, style sheets, media assets, and other types of resources produced or managed by DVB. &#160;This memo provides information for the Internet community." target="_top">
<ellipse fill="none" stroke="black" cx="390.22" cy="-1255.03" rx="194.28" ry="63.99"/>
<text xml:space="preserve" text-anchor="middle" x="390.22" y="-1282.98" font-family="Times,serif" font-size="14.00">RFC5328</text>
<text xml:space="preserve" text-anchor="middle" x="390.22" y="-1266.48" font-family="Times,serif" font-size="14.00">A Uniform Resource Name (URN) Namespace</text>
<text xml:space="preserve" text-anchor="middle" x="390.22" y="-1249.98" font-family="Times,serif" font-size="14.00">for the Digital Video Broadcasting</text>
<text xml:space="preserve" text-anchor="middle" x="390.22" y="-1233.48" font-family="Times,serif" font-size="14.00">Project (DVB)</text>
<text xml:space="preserve" text-anchor="middle" x="390.22" y="-1216.98" font-family="Times,serif" font-size="14.00">2008</text>
</a>
</g>
</g>
<!-- updates&#45;&gt;RFC5328 -->
<g id="edge4" class="edge">
<title>updates&#45;&gt;RFC5328</title>
<path fill="none" stroke="black" d="M390.22,-860.94C390.22,-915.73 390.22,-1081.1 390.22,-1179.35"/>
<polygon fill="black" stroke="black" points="386.72,-1179.18 390.22,-1189.18 393.72,-1179.18 386.72,-1179.18"/>
</g>
<!-- updated_by -->
<g id="node6" class="node">
<title>updated_by</title>
<polygon fill="lightyellow" stroke="black" points="418.85,-36 361.6,-36 361.6,0 418.85,0 418.85,-36"/>
<text xml:space="preserve" text-anchor="middle" x="390.22" y="-12.95" font-family="Times,serif" font-size="14.00">updates</text>
</g>
<!-- updated_by&#45;&gt;RFC7354 -->
<g id="edge5" class="edge">
<title>updated_by&#45;&gt;RFC7354</title>
<path fill="none" stroke="black" d="M390.22,-36.25C390.22,-85.55 390.22,-224.35 390.22,-323.25"/>
<polygon fill="black" stroke="black" points="386.72,-322.98 390.22,-332.98 393.72,-322.98 386.72,-322.98"/>
</g>
<!-- cites&#45;&gt;RFC5328 -->
<g id="edge7" class="edge">
<title>cites&#45;&gt;RFC5328</title>
<path fill="none" stroke="black" d="M43.62,-654.69C88.51,-732.44 265.82,-1039.55 348,-1181.89"/>
<polygon fill="black" stroke="black" points="344.96,-1183.62 352.99,-1190.53 351.02,-1180.12 344.96,-1183.62"/>
</g>
<!-- rev_cites -->
<g id="node8" class="node">
<title>rev_cites</title>
<polygon fill="lightblue" stroke="black" points="774.32,-242.17 720.32,-242.17 720.32,-206.17 774.32,-206.17 774.32,-242.17"/>
<text xml:space="preserve" text-anchor="middle" x="747.32" y="-219.12" font-family="Times,serif" font-size="14.00">cites</text>
</g>
<!-- rev_cites&#45;&gt;RFC7354 -->
<g id="edge8" class="edge">
<title>rev_cites&#45;&gt;RFC7354</title>
<path fill="none" stroke="black" d="M719.9,-240.01C679.89,-263.11 602.69,-307.68 533.05,-347.88"/>
<polygon fill="black" stroke="black" points="531.5,-344.73 524.59,-352.77 535,-350.8 531.5,-344.73"/>
</g>
</g>
</svg>
