<?xml version="1.0" encoding="UTF-8" standalone="no"?>
<!DOCTYPE svg PUBLIC "-//W3C//DTD SVG 1.1//EN"
 "http://www.w3.org/Graphics/SVG/1.1/DTD/svg11.dtd">
<!-- Generated by graphviz version 14.1.1 (20251213.1925)
 -->
<!-- Title: Flow Pages: 1 -->
<svg width="967pt" height="1342pt"
 viewBox="0.00 0.00 967.00 1342.00" xmlns="http://www.w3.org/2000/svg" xmlns:xlink="http://www.w3.org/1999/xlink">
<g id="graph0" class="graph" transform="scale(1 1) rotate(0) translate(4 1337.53)">
<title>Flow</title>
<polygon fill="white" stroke="none" points="-4,4 -4,-1337.53 962.6,-1337.53 962.6,4 -4,4"/>
<!-- RFC7863 -->
<g id="node1" class="node">
<title>RFC7863</title>
<g id="a_node1"><a xlink:title="This document provides the External Data Representation (XDR) description for NFS version 4 minor version 2.">
<ellipse fill="none" stroke="black" cx="250" cy="-404.2" rx="158.75" ry="75.66"/>
<text xml:space="preserve" text-anchor="middle" x="250" y="-440.4" font-family="Times,serif" font-size="14.00">RFC7863</text>
<text xml:space="preserve" text-anchor="middle" x="250" y="-423.9" font-family="Times,serif" font-size="14.00">Network File System (NFS) Version 4</text>
<text xml:space="preserve" text-anchor="middle" x="250" y="-407.4" font-family="Times,serif" font-size="14.00">Minor Version 2 External Data</text>
<text xml:space="preserve" text-anchor="middle" x="250" y="-390.9" font-family="Times,serif" font-size="14.00">Representation Standard (XDR)</text>
<text xml:space="preserve" text-anchor="middle" x="250" y="-374.4" font-family="Times,serif" font-size="14.00">Description</text>
<text xml:space="preserve" text-anchor="middle" x="250" y="-357.9" font-family="Times,serif" font-size="14.00">2016</text>
</a>
</g>
</g>
<!-- obs -->
<g id="node3" class="node">
<title>obs</title>
<polygon fill="none" stroke="black" points="499.99,-503.2 433.74,-503.2 433.74,-467.2 499.99,-467.2 499.99,-503.2"/>
<text xml:space="preserve" text-anchor="middle" x="466.87" y="-480.15" font-family="Times,serif" font-size="14.00">obsoletes</text>
</g>
<!-- RFC7863&#45;&gt;obs -->
<g id="edge2" class="edge">
<title>RFC7863&#45;&gt;obs</title>
<path fill="none" stroke="black" d="M375.36,-451.09C392.35,-457.49 408.76,-463.68 422.84,-468.98"/>
<polygon fill="black" stroke="black" points="421.58,-472.25 432.17,-472.5 424.05,-465.7 421.58,-472.25"/>
</g>
<!-- updates -->
<g id="node4" class="node">
<title>updates</title>
<polygon fill="none" stroke="black" points="495.49,-449.2 438.24,-449.2 438.24,-413.2 495.49,-413.2 495.49,-449.2"/>
<text xml:space="preserve" text-anchor="middle" x="466.87" y="-426.15" font-family="Times,serif" font-size="14.00">updates</text>
</g>
<!-- RFC7863&#45;&gt;updates -->
<g id="edge3" class="edge">
<title>RFC7863&#45;&gt;updates</title>
<path fill="none" stroke="black" d="M404,-423.43C412.02,-424.44 419.62,-425.39 426.57,-426.27"/>
<polygon fill="black" stroke="black" points="426.11,-429.74 436.47,-427.51 426.98,-422.79 426.11,-429.74"/>
</g>
<!-- cites -->
<g id="node6" class="node">
<title>cites</title>
<polygon fill="none" stroke="black" points="493.87,-395.2 439.87,-395.2 439.87,-359.2 493.87,-359.2 493.87,-395.2"/>
<text xml:space="preserve" text-anchor="middle" x="466.87" y="-372.15" font-family="Times,serif" font-size="14.00">cites</text>
</g>
<!-- RFC7863&#45;&gt;cites -->
<g id="edge5" class="edge">
<title>RFC7863&#45;&gt;cites</title>
<path fill="none" stroke="black" d="M404,-384.98C412.66,-383.89 420.83,-382.86 428.22,-381.93"/>
<polygon fill="black" stroke="black" points="428.52,-385.42 438.01,-380.7 427.65,-378.48 428.52,-385.42"/>
</g>
<!-- obs_by -->
<g id="node2" class="node">
<title>obs_by</title>
<polygon fill="none" stroke="black" points="66.25,-449.2 0,-449.2 0,-413.2 66.25,-413.2 66.25,-449.2"/>
<text xml:space="preserve" text-anchor="middle" x="33.12" y="-426.15" font-family="Times,serif" font-size="14.00">obsoletes</text>
</g>
<!-- obs_by&#45;&gt;RFC7863 -->
<g id="edge1" class="edge">
<title>obs_by&#45;&gt;RFC7863</title>
<path fill="none" stroke="black" d="M66.29,-427.16C71.92,-426.45 78.1,-425.68 84.67,-424.85"/>
<polygon fill="black" stroke="black" points="85.11,-428.33 94.59,-423.61 84.24,-421.38 85.11,-428.33"/>
</g>
<!-- updated_by -->
<g id="node5" class="node">
<title>updated_by</title>
<polygon fill="none" stroke="black" points="61.75,-395.2 4.5,-395.2 4.5,-359.2 61.75,-359.2 61.75,-395.2"/>
<text xml:space="preserve" text-anchor="middle" x="33.12" y="-372.15" font-family="Times,serif" font-size="14.00">updates</text>
</g>
<!-- updated_by&#45;&gt;RFC7863 -->
<g id="edge4" class="edge">
<title>updated_by&#45;&gt;RFC7863</title>
<path fill="none" stroke="black" d="M62.22,-380.73C68.94,-381.58 76.6,-382.54 84.89,-383.58"/>
<polygon fill="black" stroke="black" points="84.27,-387.03 94.62,-384.81 85.14,-380.09 84.27,-387.03"/>
</g>
<!-- RFC4506 -->
<g id="node7" class="node">
<title>RFC4506</title>
<g id="a_node7"><a xlink:href="RFC4506.html" xlink:title="This document describes the External Data Representation Standard (XDR) protocol as it is currently deployed and accepted. &#160;This document obsoletes RFC 1832. [STANDARDS&#45;TRACK]" target="_top">
<ellipse fill="none" stroke="black" cx="702.3" cy="-690.2" rx="149.73" ry="52.33"/>
<text xml:space="preserve" text-anchor="middle" x="702.3" y="-709.9" font-family="Times,serif" font-size="14.00">RFC4506</text>
<text xml:space="preserve" text-anchor="middle" x="702.3" y="-693.4" font-family="Times,serif" font-size="14.00">XDR: External Data Representation</text>
<text xml:space="preserve" text-anchor="middle" x="702.3" y="-676.9" font-family="Times,serif" font-size="14.00">Standard</text>
<text xml:space="preserve" text-anchor="middle" x="702.3" y="-660.4" font-family="Times,serif" font-size="14.00">2006</text>
</a>
</g>
</g>
<!-- cites&#45;&gt;RFC4506 -->
<g id="edge6" class="edge">
<title>cites&#45;&gt;RFC4506</title>
<path fill="none" stroke="black" d="M493.76,-395.61C496.18,-398.24 498.34,-401.12 499.99,-404.2 547.27,-492.52 462.64,-549.8 524.99,-628.2 535.08,-640.89 547.95,-650.99 562.13,-659.02"/>
<polygon fill="black" stroke="black" points="560.31,-662.02 570.8,-663.56 563.56,-655.82 560.31,-662.02"/>
</g>
<!-- RFC7862 -->
<g id="node8" class="node">
<title>RFC7862</title>
<g id="a_node8"><a xlink:href="RFC7862.html" xlink:title="This document describes NFS version 4 minor version 2; it describes the protocol extensions made from NFS version 4 minor version 1. &#160;Major extensions introduced in NFS version 4 minor version 2 include the following: Server&#45;Side Copy, Application Input/Output (I/O) Advise, Space Reservations, Sparse Files, Application Data Blocks, and Labeled NFS." target="_top">
<ellipse fill="none" stroke="black" cx="702.3" cy="-567.2" rx="158.75" ry="52.33"/>
<text xml:space="preserve" text-anchor="middle" x="702.3" y="-586.9" font-family="Times,serif" font-size="14.00">RFC7862</text>
<text xml:space="preserve" text-anchor="middle" x="702.3" y="-570.4" font-family="Times,serif" font-size="14.00">Network File System (NFS) Version 4</text>
<text xml:space="preserve" text-anchor="middle" x="702.3" y="-553.9" font-family="Times,serif" font-size="14.00">Minor Version 2 Protocol</text>
<text xml:space="preserve" text-anchor="middle" x="702.3" y="-537.4" font-family="Times,serif" font-size="14.00">2016</text>
</a>
</g>
</g>
<!-- cites&#45;&gt;RFC7862 -->
<g id="edge7" class="edge">
<title>cites&#45;&gt;RFC7862</title>
<path fill="none" stroke="black" d="M493.05,-395.51C495.67,-398.2 498.06,-401.11 499.99,-404.2 524.45,-443.45 493.89,-470.98 524.99,-505.2 534.9,-516.11 546.85,-525.1 559.79,-532.51"/>
<polygon fill="black" stroke="black" points="558.06,-535.55 568.53,-537.16 561.35,-529.37 558.06,-535.55"/>
</g>
<!-- RFC2119 -->
<g id="node9" class="node">
<title>RFC2119</title>
<g id="a_node9"><a xlink:href="RFC2119.html" xlink:title="In many standards track documents several words are used to signify the requirements in the specification. &#160;These words are often capitalized. &#160;This document defines these words as they should be interpreted in IETF documents. &#160;This document specifies an Internet Best Current Practices for the Internet Community, and requests discussion and suggestions for improvements." target="_top">
<ellipse fill="none" stroke="black" cx="702.3" cy="-444.2" rx="160.34" ry="52.33"/>
<text xml:space="preserve" text-anchor="middle" x="702.3" y="-463.9" font-family="Times,serif" font-size="14.00">RFC2119</text>
<text xml:space="preserve" text-anchor="middle" x="702.3" y="-447.4" font-family="Times,serif" font-size="14.00">Key words for use in RFCs to Indicate</text>
<text xml:space="preserve" text-anchor="middle" x="702.3" y="-430.9" font-family="Times,serif" font-size="14.00">Requirement Levels</text>
<text xml:space="preserve" text-anchor="middle" x="702.3" y="-414.4" font-family="Times,serif" font-size="14.00">1997</text>
</a>
</g>
</g>
<!-- cites&#45;&gt;RFC2119 -->
<g id="edge8" class="edge">
<title>cites&#45;&gt;RFC2119</title>
<path fill="none" stroke="black" d="M494.19,-384.76C513.46,-390.29 541.21,-398.26 570.16,-406.56"/>
<polygon fill="black" stroke="black" points="568.84,-409.83 579.41,-409.22 570.77,-403.1 568.84,-409.83"/>
</g>
<!-- RFC7531 -->
<g id="node10" class="node">
<title>RFC7531</title>
<g id="a_node10"><a xlink:href="RFC7531.html" xlink:title="The Network File System (NFS) version 4 protocol is a distributed file system protocol that owes its heritage to NFS protocol version 2 (RFC 1094) and version 3 (RFC 1813). Unlike earlier versions, the NFS version 4 protocol supports traditional file access while integrating support for file locking and the MOUNT protocol. In addition, support for strong security (and its negotiation), COMPOUND operations, client caching, and internationalization has been added. Of course, attention has been applied to making NFS version 4 operate well in an Internet environment. RFC 7530 formally obsoletes RFC 3530. This document, together with RFC 7530, replaces RFC 3530 as the definition of the NFS version 4 protocol." target="_top">
<ellipse fill="none" stroke="black" cx="702.3" cy="-310.2" rx="160.87" ry="63.99"/>
<text xml:space="preserve" text-anchor="middle" x="702.3" y="-338.15" font-family="Times,serif" font-size="14.00">RFC7531</text>
<text xml:space="preserve" text-anchor="middle" x="702.3" y="-321.65" font-family="Times,serif" font-size="14.00">Network File System (NFS) Version 4</text>
<text xml:space="preserve" text-anchor="middle" x="702.3" y="-305.15" font-family="Times,serif" font-size="14.00">External Data Representation Standard</text>
<text xml:space="preserve" text-anchor="middle" x="702.3" y="-288.65" font-family="Times,serif" font-size="14.00">(XDR) Description</text>
<text xml:space="preserve" text-anchor="middle" x="702.3" y="-272.15" font-family="Times,serif" font-size="14.00">2015</text>
</a>
</g>
</g>
<!-- cites&#45;&gt;RFC7531 -->
<g id="edge9" class="edge">
<title>cites&#45;&gt;RFC7531</title>
<path fill="none" stroke="black" d="M494.19,-369.65C511.25,-364.75 534.94,-357.95 560.23,-350.69"/>
<polygon fill="black" stroke="black" points="561.06,-354.1 569.7,-347.97 559.12,-347.37 561.06,-354.1"/>
</g>
<!-- RFC5662 -->
<g id="node11" class="node">
<title>RFC5662</title>
<g id="a_node11"><a xlink:href="RFC5662.html" xlink:title="This document provides the External Data Representation Standard (XDR) description for Network File System version 4 (NFSv4) minor version 1. [STANDARDS&#45;TRACK]" target="_top">
<ellipse fill="none" stroke="black" cx="702.3" cy="-152.2" rx="158.75" ry="75.66"/>
<text xml:space="preserve" text-anchor="middle" x="702.3" y="-188.4" font-family="Times,serif" font-size="14.00">RFC5662</text>
<text xml:space="preserve" text-anchor="middle" x="702.3" y="-171.9" font-family="Times,serif" font-size="14.00">Network File System (NFS) Version 4</text>
<text xml:space="preserve" text-anchor="middle" x="702.3" y="-155.4" font-family="Times,serif" font-size="14.00">Minor Version 1 External Data</text>
<text xml:space="preserve" text-anchor="middle" x="702.3" y="-138.9" font-family="Times,serif" font-size="14.00">Representation Standard (XDR)</text>
<text xml:space="preserve" text-anchor="middle" x="702.3" y="-122.4" font-family="Times,serif" font-size="14.00">Description</text>
<text xml:space="preserve" text-anchor="middle" x="702.3" y="-105.9" font-family="Times,serif" font-size="14.00">2010</text>
</a>
</g>
</g>
<!-- cites&#45;&gt;RFC5662 -->
<g id="edge10" class="edge">
<title>cites&#45;&gt;RFC5662</title>
<path fill="none" stroke="black" d="M470.94,-359.04C476.71,-329.94 491.73,-272.59 524.99,-237.2 536.94,-224.49 551.19,-213.46 566.33,-203.94"/>
<polygon fill="black" stroke="black" points="567.8,-207.15 574.57,-199 564.19,-201.15 567.8,-207.15"/>
</g>
<!-- rev_cites -->
<g id="node12" class="node">
<title>rev_cites</title>
<polygon fill="none" stroke="black" points="958.6,-954.2 904.6,-954.2 904.6,-918.2 958.6,-918.2 958.6,-954.2"/>
<text xml:space="preserve" text-anchor="middle" x="931.6" y="-931.15" font-family="Times,serif" font-size="14.00">cites</text>
</g>
<!-- RFC7862&#45;&gt;rev_cites -->
<g id="edge12" class="edge">
<title>RFC7862&#45;&gt;rev_cites</title>
<path fill="none" stroke="black" d="M835.71,-595.68C852.37,-604.11 867.71,-615.04 879.6,-629.2 914.76,-671.06 926.21,-838.56 929.46,-906.92"/>
<polygon fill="black" stroke="black" points="925.95,-906.77 929.89,-916.6 932.94,-906.46 925.95,-906.77"/>
</g>
<!-- rev_cites&#45;&gt;RFC7863 -->
<g id="edge11" class="edge">
<title>rev_cites&#45;&gt;RFC7863</title>
<path fill="none" stroke="black" d="M930.24,-917.95C927.68,-795.48 911.7,-97.47 879.6,-67.2 764.94,40.93 667.31,0.51 524.99,-67.2 415.56,-119.27 335.54,-238.78 291.13,-320.54"/>
<polygon fill="black" stroke="black" points="288.25,-318.51 286.61,-328.98 294.42,-321.82 288.25,-318.51"/>
</g>
<!-- RFC8275 -->
<g id="node13" class="node">
<title>RFC8275</title>
<g id="a_node13"><a xlink:href="RFC8275.html" xlink:title="In many environments, inheritable NFSv4 Access Control Entries (ACEs) can be rendered ineffective by the application of the per&#45;process file mode creation mask (umask). &#160;This can be addressed by transmitting the umask and create mode as separate pieces of data, allowing the server to make more intelligent decisions about the permissions to set on new files. &#160;This document proposes a protocol extension to accomplish that." target="_top">
<ellipse fill="none" stroke="black" cx="702.3" cy="-1281.2" rx="161.4" ry="52.33"/>
<text xml:space="preserve" text-anchor="middle" x="702.3" y="-1300.9" font-family="Times,serif" font-size="14.00">RFC8275</text>
<text xml:space="preserve" text-anchor="middle" x="702.3" y="-1284.4" font-family="Times,serif" font-size="14.00">Allowing Inheritable NFSv4 Access</text>
<text xml:space="preserve" text-anchor="middle" x="702.3" y="-1267.9" font-family="Times,serif" font-size="14.00">Control Entries to Override the Umask</text>
<text xml:space="preserve" text-anchor="middle" x="702.3" y="-1251.4" font-family="Times,serif" font-size="14.00">2017</text>
</a>
</g>
</g>
<!-- RFC8275&#45;&gt;rev_cites -->
<g id="edge13" class="edge">
<title>RFC8275&#45;&gt;rev_cites</title>
<path fill="none" stroke="black" d="M837.71,-1252.25C853.55,-1244.08 868.13,-1233.62 879.6,-1220.2 912.11,-1182.21 924.93,-1030.77 929,-965.92"/>
<polygon fill="black" stroke="black" points="932.49,-966.22 929.59,-956.02 925.5,-965.8 932.49,-966.22"/>
</g>
<!-- RFC8276 -->
<g id="node14" class="node">
<title>RFC8276</title>
<g id="a_node14"><a xlink:href="RFC8276.html" xlink:title="This document describes an optional feature extending the NFSv4 protocol. &#160;This feature allows extended attributes (hereinafter also referred to as xattrs) to be interrogated and manipulated using NFSv4 clients. &#160;Xattrs are provided by a file system to associate opaque metadata, not interpreted by the file system, with files and directories. &#160;Such support is present in many modern local file systems. &#160;New file attributes are provided to allow clients to query the server for xattr support, with that support consisting of new operations to get and set xattrs on file system objects." target="_top">
<ellipse fill="none" stroke="black" cx="702.3" cy="-1170.2" rx="176.25" ry="40.66"/>
<text xml:space="preserve" text-anchor="middle" x="702.3" y="-1181.65" font-family="Times,serif" font-size="14.00">RFC8276</text>
<text xml:space="preserve" text-anchor="middle" x="702.3" y="-1165.15" font-family="Times,serif" font-size="14.00">File System Extended Attributes in NFSv4</text>
<text xml:space="preserve" text-anchor="middle" x="702.3" y="-1148.65" font-family="Times,serif" font-size="14.00">2017</text>
</a>
</g>
</g>
<!-- RFC8276&#45;&gt;rev_cites -->
<g id="edge14" class="edge">
<title>RFC8276&#45;&gt;rev_cites</title>
<path fill="none" stroke="black" d="M843.31,-1145.63C856.72,-1139.03 869.17,-1130.7 879.6,-1120.2 921.01,-1078.55 929.53,-1006.42 930.85,-965.95"/>
<polygon fill="black" stroke="black" points="934.35,-966.05 931.03,-955.99 927.35,-965.92 934.35,-966.05"/>
</g>
<!-- RFC9737 -->
<g id="node15" class="node">
<title>RFC9737</title>
<g id="a_node15"><a xlink:href="RFC9737.html" xlink:title="The Parallel Network File System (pNFS) allows for a file&#39;s metadata and data to be on different servers (i.e., the metadata server (MDS) and the data server (DS)). &#160;When the MDS is restarted, the client can still modify the data file component. &#160;During the recovery phase of startup, the MDS and the DSs work together to recover state. &#160;If the client has not encountered errors with the data files, then the state can be recovered and the resilvering of the data files can be avoided. &#160;With any errors, there is no means by which the client can report errors to the MDS. &#160;As such, the MDS has to assume that a file needs resilvering. &#160;This document presents an extension to RFC 8435 to allow the client to update the metadata via LAYOUTRETURN and avoid the resilvering." target="_top">
<ellipse fill="none" stroke="black" cx="702.3" cy="-1059.2" rx="137.53" ry="52.33"/>
<text xml:space="preserve" text-anchor="middle" x="702.3" y="-1078.9" font-family="Times,serif" font-size="14.00">RFC9737</text>
<text xml:space="preserve" text-anchor="middle" x="702.3" y="-1062.4" font-family="Times,serif" font-size="14.00">Reporting Errors in NFSv4.2 via</text>
<text xml:space="preserve" text-anchor="middle" x="702.3" y="-1045.9" font-family="Times,serif" font-size="14.00">LAYOUTRETURN</text>
<text xml:space="preserve" text-anchor="middle" x="702.3" y="-1029.4" font-family="Times,serif" font-size="14.00">2025</text>
</a>
</g>
</g>
<!-- RFC9737&#45;&gt;rev_cites -->
<g id="edge15" class="edge">
<title>RFC9737&#45;&gt;rev_cites</title>
<path fill="none" stroke="black" d="M816.32,-1029.61C838.37,-1021.1 860.54,-1010.42 879.6,-997.2 892.49,-988.27 903.99,-975.25 912.79,-963.53"/>
<polygon fill="black" stroke="black" points="915.39,-965.91 918.36,-955.74 909.69,-961.84 915.39,-965.91"/>
</g>
<!-- RFC9754 -->
<g id="node16" class="node">
<title>RFC9754</title>
<g id="a_node16"><a xlink:href="RFC9754.html" xlink:title="The Network File System v4 (NFSv4) allows a client to both open a file and be granted a delegation of that file. &#160;This delegation provides the client the right to authoritatively cache metadata on the file locally. &#160;This document presents several extensions for both opening the file and delegating it to the client. &#160;This document extends NFSv4.2 (see RFC 7863)." target="_top">
<ellipse fill="none" stroke="black" cx="702.3" cy="-936.2" rx="163.52" ry="52.33"/>
<text xml:space="preserve" text-anchor="middle" x="702.3" y="-955.9" font-family="Times,serif" font-size="14.00">RFC9754</text>
<text xml:space="preserve" text-anchor="middle" x="702.3" y="-939.4" font-family="Times,serif" font-size="14.00">Extensions for Opening and Delegating</text>
<text xml:space="preserve" text-anchor="middle" x="702.3" y="-922.9" font-family="Times,serif" font-size="14.00">Files in NFSv4.2</text>
<text xml:space="preserve" text-anchor="middle" x="702.3" y="-906.4" font-family="Times,serif" font-size="14.00">2025</text>
</a>
</g>
</g>
<!-- RFC9754&#45;&gt;rev_cites -->
<g id="edge16" class="edge">
<title>RFC9754&#45;&gt;rev_cites</title>
<path fill="none" stroke="black" d="M866.08,-936.2C875.83,-936.2 884.99,-936.2 893.16,-936.2"/>
<polygon fill="black" stroke="black" points="892.89,-939.7 902.89,-936.2 892.89,-932.7 892.89,-939.7"/>
</g>
<!-- RFC9766 -->
<g id="node17" class="node">
<title>RFC9766</title>
<g id="a_node17"><a xlink:href="RFC9766.html" xlink:title="This document specifies extensions to NFSv4.2 for improving Weak Cache Consistency (WCC). &#160;These extensions introduce mechanisms that ensure partial writes performed under a Parallel NFS (pNFS) layout remain coherent and correctly tracked. &#160;The solution addresses concurrency and data integrity concerns that may arise when multiple clients write to the same file through separate data servers. &#160;By defining additional interactions among clients, metadata servers, and data servers, this specification enhances the reliability of NFSv4 in parallel&#45;access environments and ensures consistency across diverse deployment scenarios." target="_top">
<ellipse fill="none" stroke="black" cx="702.3" cy="-813.2" rx="177.31" ry="52.33"/>
<text xml:space="preserve" text-anchor="middle" x="702.3" y="-832.9" font-family="Times,serif" font-size="14.00">RFC9766</text>
<text xml:space="preserve" text-anchor="middle" x="702.3" y="-816.4" font-family="Times,serif" font-size="14.00">Extensions for Weak Cache Consistency in</text>
<text xml:space="preserve" text-anchor="middle" x="702.3" y="-799.9" font-family="Times,serif" font-size="14.00">NFSv4.2&#39;s Flexible File Layout</text>
<text xml:space="preserve" text-anchor="middle" x="702.3" y="-783.4" font-family="Times,serif" font-size="14.00">2025</text>
</a>
</g>
</g>
<!-- RFC9766&#45;&gt;rev_cites -->
<g id="edge17" class="edge">
<title>RFC9766&#45;&gt;rev_cites</title>
<path fill="none" stroke="black" d="M832.03,-849.24C848.74,-856.53 865.07,-865.13 879.6,-875.2 892.49,-884.14 903.99,-897.16 912.79,-908.88"/>
<polygon fill="black" stroke="black" points="909.69,-910.57 918.36,-916.67 915.39,-906.5 909.69,-910.57"/>
</g>
</g>
</svg>
