<?xml version="1.0" encoding="UTF-8" standalone="no"?>
<!DOCTYPE svg PUBLIC "-//W3C//DTD SVG 1.1//EN"
 "http://www.w3.org/Graphics/SVG/1.1/DTD/svg11.dtd">
<!-- Generated by graphviz version 14.1.1 (20251213.1925)
 -->
<!-- Title: Flow Pages: 1 -->
<svg width="1282pt" height="1153pt"
 viewBox="0.00 0.00 1282.00 1153.00" xmlns="http://www.w3.org/2000/svg" xmlns:xlink="http://www.w3.org/1999/xlink">
<g id="graph0" class="graph" transform="scale(1 1) rotate(0) translate(4 1148.74)">
<title>Flow</title>
<polygon fill="white" stroke="none" points="-4,4 -4,-1148.74 1278.24,-1148.74 1278.24,4 -4,4"/>
<!-- RFC7221 -->
<g id="node1" class="node">
<title>RFC7221</title>
<g id="a_node1"><a xlink:title="The productive output of an IETF working group is documents, as mandated by the working group&#39;s charter. &#160;When a working group is ready to develop a particular document, the most common mechanism is for it to adopt an existing document as a starting point. &#160;The document that a working group adopts and then develops further is based on initial input at varying levels of maturity. &#160;An initial working group draft might be a document already in wide use, or it might be a blank sheet, wholly created by the working group, or it might represent any level of maturity in between. &#160;This document discusses how a working group typically handles the formal documents that it targets for publication.">
<ellipse fill="green" stroke="black" stroke-width="3" cx="882.97" cy="-376.14" rx="198.52" ry="65.05"/>
<text xml:space="preserve" text-anchor="middle" x="882.97" y="-401.04" font-family="Times,serif" font-size="18.00">RFC7221</text>
<text xml:space="preserve" text-anchor="middle" x="882.97" y="-380.04" font-family="Times,serif" font-size="18.00">Handling of Internet&#45;Drafts by IETF</text>
<text xml:space="preserve" text-anchor="middle" x="882.97" y="-359.04" font-family="Times,serif" font-size="18.00">Working Groups</text>
<text xml:space="preserve" text-anchor="middle" x="882.97" y="-338.04" font-family="Times,serif" font-size="18.00">2014</text>
</a>
</g>
</g>
<!-- obs -->
<g id="node3" class="node">
<title>obs</title>
<polygon fill="lightblue" stroke="black" points="1274.24,-542.48 1207.99,-542.48 1207.99,-506.48 1274.24,-506.48 1274.24,-542.48"/>
<text xml:space="preserve" text-anchor="middle" x="1241.11" y="-519.43" font-family="Times,serif" font-size="14.00">obsoletes</text>
</g>
<!-- RFC7221&#45;&gt;obs -->
<g id="edge2" class="edge">
<title>RFC7221&#45;&gt;obs</title>
<path fill="none" stroke="black" d="M1008.23,-428.02C1073.92,-455.23 1150.25,-486.85 1197.12,-506.26"/>
<polygon fill="black" stroke="black" points="1195.54,-509.39 1206.12,-509.99 1198.22,-502.93 1195.54,-509.39"/>
</g>
<!-- updates -->
<g id="node4" class="node">
<title>updates</title>
<polygon fill="lightyellow" stroke="black" points="1059.94,-752.27 1002.69,-752.27 1002.69,-716.27 1059.94,-716.27 1059.94,-752.27"/>
<text xml:space="preserve" text-anchor="middle" x="1031.32" y="-729.22" font-family="Times,serif" font-size="14.00">updates</text>
</g>
<!-- RFC7221&#45;&gt;updates -->
<g id="edge3" class="edge">
<title>RFC7221&#45;&gt;updates</title>
<path fill="none" stroke="black" d="M910.18,-441.82C942.73,-520.39 995.76,-648.42 1019.35,-705.38"/>
<polygon fill="black" stroke="black" points="1016.02,-706.49 1023.08,-714.39 1022.49,-703.81 1016.02,-706.49"/>
</g>
<!-- cites -->
<g id="node6" class="node">
<title>cites</title>
<polygon fill="lightblue" stroke="black" points="551.84,-542.48 497.84,-542.48 497.84,-506.48 551.84,-506.48 551.84,-542.48"/>
<text xml:space="preserve" text-anchor="middle" x="524.84" y="-519.43" font-family="Times,serif" font-size="14.00">cites</text>
</g>
<!-- RFC7221&#45;&gt;cites -->
<g id="edge5" class="edge">
<title>RFC7221&#45;&gt;cites</title>
<path fill="none" stroke="black" d="M757.72,-428.02C688.99,-456.49 608.62,-489.78 562.52,-508.87"/>
<polygon fill="black" stroke="black" points="561.42,-505.54 553.52,-512.6 564.1,-512.01 561.42,-505.54"/>
</g>
<!-- obs_by -->
<g id="node2" class="node">
<title>obs_by</title>
<polygon fill="lightblue" stroke="black" points="767.75,-36 701.5,-36 701.5,0 767.75,0 767.75,-36"/>
<text xml:space="preserve" text-anchor="middle" x="734.63" y="-12.95" font-family="Times,serif" font-size="14.00">obsoletes</text>
</g>
<!-- obs_by&#45;&gt;RFC7221 -->
<g id="edge1" class="edge">
<title>obs_by&#45;&gt;RFC7221</title>
<path fill="none" stroke="black" d="M742.19,-36.25C761.98,-84.03 816.19,-214.9 851.27,-299.61"/>
<polygon fill="black" stroke="black" points="848.03,-300.92 855.09,-308.81 854.49,-298.24 848.03,-300.92"/>
</g>
<!-- updated_by -->
<g id="node5" class="node">
<title>updated_by</title>
<polygon fill="lightyellow" stroke="black" points="1059.94,-36 1002.69,-36 1002.69,0 1059.94,0 1059.94,-36"/>
<text xml:space="preserve" text-anchor="middle" x="1031.32" y="-12.95" font-family="Times,serif" font-size="14.00">updates</text>
</g>
<!-- updated_by&#45;&gt;RFC7221 -->
<g id="edge4" class="edge">
<title>updated_by&#45;&gt;RFC7221</title>
<path fill="none" stroke="black" d="M1023.76,-36.25C1003.97,-84.03 949.76,-214.9 914.67,-299.61"/>
<polygon fill="black" stroke="black" points="911.45,-298.24 910.86,-308.81 917.92,-300.92 911.45,-298.24"/>
</g>
<!-- RFC2026 -->
<g id="node7" class="node">
<title>RFC2026</title>
<g id="a_node7"><a xlink:href="RFC2026.html" xlink:title="This memo documents the process used by the Internet community for the standardization of protocols and procedures. &#160;It defines the stages in the standardization process, the requirements for moving a document between stages and the types of documents used during this process. &#160;This document specifies an Internet Best Current Practices for the Internet Community, and requests discussion and suggestions for improvements." target="_top">
<ellipse fill="none" stroke="black" cx="586.28" cy="-1092.41" rx="139.65" ry="52.33"/>
<text xml:space="preserve" text-anchor="middle" x="586.28" y="-1112.11" font-family="Times,serif" font-size="14.00">RFC2026</text>
<text xml:space="preserve" text-anchor="middle" x="586.28" y="-1095.61" font-family="Times,serif" font-size="14.00">The Internet Standards Process &#45;&#45;</text>
<text xml:space="preserve" text-anchor="middle" x="586.28" y="-1079.11" font-family="Times,serif" font-size="14.00">Revision 3</text>
<text xml:space="preserve" text-anchor="middle" x="586.28" y="-1062.61" font-family="Times,serif" font-size="14.00">1996</text>
</a>
</g>
</g>
<!-- cites&#45;&gt;RFC2026 -->
<g id="edge6" class="edge">
<title>cites&#45;&gt;RFC2026</title>
<path fill="none" stroke="black" d="M526.81,-542.73C534.88,-617.28 565.55,-900.77 579.41,-1028.88"/>
<polygon fill="black" stroke="black" points="575.9,-1028.98 580.46,-1038.54 582.86,-1028.22 575.9,-1028.98"/>
</g>
<!-- RFC2418 -->
<g id="node8" class="node">
<title>RFC2418</title>
<g id="a_node8"><a xlink:href="RFC2418.html" xlink:title="This document describes the guidelines and procedures for formation and operation of IETF working groups. &#160;This document specifies an Internet Best Current Practices for the Internet Community, and requests discussion and suggestions for improvements." target="_top">
<ellipse fill="none" stroke="black" cx="166.7" cy="-672.83" rx="155.03" ry="52.33"/>
<text xml:space="preserve" text-anchor="middle" x="166.7" y="-692.53" font-family="Times,serif" font-size="14.00">RFC2418</text>
<text xml:space="preserve" text-anchor="middle" x="166.7" y="-676.03" font-family="Times,serif" font-size="14.00">IETF Working Group Guidelines and</text>
<text xml:space="preserve" text-anchor="middle" x="166.7" y="-659.53" font-family="Times,serif" font-size="14.00">Procedures</text>
<text xml:space="preserve" text-anchor="middle" x="166.7" y="-643.03" font-family="Times,serif" font-size="14.00">1998</text>
</a>
</g>
</g>
<!-- cites&#45;&gt;RFC2418 -->
<g id="edge7" class="edge">
<title>cites&#45;&gt;RFC2418</title>
<path fill="none" stroke="black" d="M497.62,-535.75C450.84,-555.13 352.72,-595.77 275.41,-627.8"/>
<polygon fill="black" stroke="black" points="274.43,-624.42 266.53,-631.48 277.11,-630.88 274.43,-624.42"/>
</g>
<!-- RFC6702 -->
<g id="node9" class="node">
<title>RFC6702</title>
<g id="a_node9"><a xlink:href="RFC6702.html" xlink:title="The disclosure process for intellectual property rights (IPR) in documents produced within the IETF stream is essential to the accurate development of community consensus. &#160;However, this process is not always followed by IETF participants. &#160;Regardless of the cause or motivation, noncompliance with IPR disclosure rules can delay or even derail completion of IETF specifications. &#160;This document describes some strategies for promoting compliance with the IPR disclosure rules. &#160;These strategies are primarily intended for use by area directors, working group chairs, and working group secretaries. &#160;This document is not an Internet Standards Track specification; it is published for informational purposes." target="_top">
<ellipse fill="none" stroke="black" cx="166.7" cy="-79.45" rx="166.7" ry="52.33"/>
<text xml:space="preserve" text-anchor="middle" x="166.7" y="-99.15" font-family="Times,serif" font-size="14.00">RFC6702</text>
<text xml:space="preserve" text-anchor="middle" x="166.7" y="-82.65" font-family="Times,serif" font-size="14.00">Promoting Compliance with Intellectual</text>
<text xml:space="preserve" text-anchor="middle" x="166.7" y="-66.15" font-family="Times,serif" font-size="14.00">Property Rights (IPR) Disclosure Rules</text>
<text xml:space="preserve" text-anchor="middle" x="166.7" y="-49.65" font-family="Times,serif" font-size="14.00">2012</text>
</a>
</g>
</g>
<!-- cites&#45;&gt;RFC6702 -->
<g id="edge8" class="edge">
<title>cites&#45;&gt;RFC6702</title>
<path fill="none" stroke="black" d="M510.13,-506.21C460.38,-444.38 296.91,-241.25 214.75,-139.15"/>
<polygon fill="black" stroke="black" points="217.72,-137.26 208.72,-131.66 212.26,-141.65 217.72,-137.26"/>
</g>
<!-- rev_cites -->
<g id="node10" class="node">
<title>rev_cites</title>
<polygon fill="lightblue" stroke="black" points="1268.11,-245.79 1214.11,-245.79 1214.11,-209.79 1268.11,-209.79 1268.11,-245.79"/>
<text xml:space="preserve" text-anchor="middle" x="1241.11" y="-222.74" font-family="Times,serif" font-size="14.00">cites</text>
</g>
<!-- rev_cites&#45;&gt;RFC7221 -->
<g id="edge9" class="edge">
<title>rev_cites&#45;&gt;RFC7221</title>
<path fill="none" stroke="black" d="M1213.9,-239.06C1172.36,-256.27 1090.36,-290.24 1018.38,-320.05"/>
<polygon fill="black" stroke="black" points="1017.14,-316.78 1009.24,-323.84 1019.82,-323.24 1017.14,-316.78"/>
</g>
</g>
</svg>
