<?xml version="1.0" encoding="UTF-8" standalone="no"?>
<!DOCTYPE svg PUBLIC "-//W3C//DTD SVG 1.1//EN"
 "http://www.w3.org/Graphics/SVG/1.1/DTD/svg11.dtd">
<!-- Generated by graphviz version 14.1.1 (20251213.1925)
 -->
<!-- Title: Flow Pages: 1 -->
<svg width="902pt" height="255pt"
 viewBox="0.00 0.00 902.00 255.00" xmlns="http://www.w3.org/2000/svg" xmlns:xlink="http://www.w3.org/1999/xlink">
<g id="graph0" class="graph" transform="scale(1 1) rotate(0) translate(4 251.33)">
<title>Flow</title>
<polygon fill="white" stroke="none" points="-4,4 -4,-251.33 898.45,-251.33 898.45,4 -4,4"/>
<!-- RFC7163 -->
<g id="node1" class="node">
<title>RFC7163</title>
<g id="a_node1"><a xlink:title="This document updates the registration guidance provided in Section 4.2 of RFC 5031, which allows the registration of service URNs with the &#39;sos&#39; service type only for emergency services that are offered widely and in different countries. &#160;This document updates those instructions to allow such registrations when, at the time of registration, those services are offered in only one country.">
<ellipse fill="none" stroke="black" cx="251.59" cy="-175.33" rx="160.34" ry="52.33"/>
<text xml:space="preserve" text-anchor="middle" x="251.59" y="-195.03" font-family="Times,serif" font-size="14.00">RFC7163</text>
<text xml:space="preserve" text-anchor="middle" x="251.59" y="-178.53" font-family="Times,serif" font-size="14.00">URN for Country&#45;Specific Emergency</text>
<text xml:space="preserve" text-anchor="middle" x="251.59" y="-162.03" font-family="Times,serif" font-size="14.00">Services</text>
<text xml:space="preserve" text-anchor="middle" x="251.59" y="-145.53" font-family="Times,serif" font-size="14.00">2014</text>
</a>
</g>
</g>
<!-- obs -->
<g id="node3" class="node">
<title>obs</title>
<polygon fill="none" stroke="black" points="503.17,-247.33 436.92,-247.33 436.92,-211.33 503.17,-211.33 503.17,-247.33"/>
<text xml:space="preserve" text-anchor="middle" x="470.05" y="-224.28" font-family="Times,serif" font-size="14.00">obsoletes</text>
</g>
<!-- RFC7163&#45;&gt;obs -->
<g id="edge2" class="edge">
<title>RFC7163&#45;&gt;obs</title>
<path fill="none" stroke="black" d="M379.76,-207.05C396.15,-211.14 411.94,-215.08 425.57,-218.48"/>
<polygon fill="black" stroke="black" points="424.45,-221.81 435,-220.83 426.15,-215.02 424.45,-221.81"/>
</g>
<!-- updates -->
<g id="node4" class="node">
<title>updates</title>
<polygon fill="none" stroke="black" points="498.67,-193.33 441.42,-193.33 441.42,-157.33 498.67,-157.33 498.67,-193.33"/>
<text xml:space="preserve" text-anchor="middle" x="470.05" y="-170.28" font-family="Times,serif" font-size="14.00">updates</text>
</g>
<!-- RFC7163&#45;&gt;updates -->
<g id="edge3" class="edge">
<title>RFC7163&#45;&gt;updates</title>
<path fill="none" stroke="black" d="M412.18,-175.33C418.33,-175.33 424.2,-175.33 429.66,-175.33"/>
<polygon fill="black" stroke="black" points="429.43,-178.83 439.43,-175.33 429.43,-171.83 429.43,-178.83"/>
</g>
<!-- cites -->
<g id="node7" class="node">
<title>cites</title>
<polygon fill="none" stroke="black" points="497.05,-139.33 443.05,-139.33 443.05,-103.33 497.05,-103.33 497.05,-139.33"/>
<text xml:space="preserve" text-anchor="middle" x="470.05" y="-116.28" font-family="Times,serif" font-size="14.00">cites</text>
</g>
<!-- RFC7163&#45;&gt;cites -->
<g id="edge6" class="edge">
<title>RFC7163&#45;&gt;cites</title>
<path fill="none" stroke="black" d="M379.76,-143.6C398.82,-138.85 417.08,-134.29 432.06,-130.55"/>
<polygon fill="black" stroke="black" points="432.51,-134.05 441.37,-128.23 430.82,-127.26 432.51,-134.05"/>
</g>
<!-- obs_by -->
<g id="node2" class="node">
<title>obs_by</title>
<polygon fill="none" stroke="black" points="66.25,-247.33 0,-247.33 0,-211.33 66.25,-211.33 66.25,-247.33"/>
<text xml:space="preserve" text-anchor="middle" x="33.12" y="-224.28" font-family="Times,serif" font-size="14.00">obsoletes</text>
</g>
<!-- obs_by&#45;&gt;RFC7163 -->
<g id="edge1" class="edge">
<title>obs_by&#45;&gt;RFC7163</title>
<path fill="none" stroke="black" d="M66.53,-221.24C79.62,-217.98 95.68,-213.97 112.81,-209.7"/>
<polygon fill="black" stroke="black" points="113.27,-213.19 122.13,-207.37 111.58,-206.4 113.27,-213.19"/>
</g>
<!-- RFC5031 -->
<g id="node5" class="node">
<title>RFC5031</title>
<g id="a_node5"><a xlink:href="RFC5031.html" xlink:title="The content of many communication services depends on the context, such as the user&#39;s location. &#160;We describe a &#39;service&#39; URN that allows well&#45;known context&#45;dependent services that can be resolved in a distributed manner to be identified. &#160;Examples include emergency services, directory assistance, and call&#45;before&#45;you&#45;dig hot lines. [STANDARDS&#45;TRACK]" target="_top">
<ellipse fill="none" stroke="black" cx="711.31" cy="-175.33" rx="183.14" ry="52.33"/>
<text xml:space="preserve" text-anchor="middle" x="711.31" y="-195.03" font-family="Times,serif" font-size="14.00">RFC5031</text>
<text xml:space="preserve" text-anchor="middle" x="711.31" y="-178.53" font-family="Times,serif" font-size="14.00">A Uniform Resource Name (URN) for</text>
<text xml:space="preserve" text-anchor="middle" x="711.31" y="-162.03" font-family="Times,serif" font-size="14.00">Emergency and Other Well&#45;Known Services</text>
<text xml:space="preserve" text-anchor="middle" x="711.31" y="-145.53" font-family="Times,serif" font-size="14.00">2008</text>
</a>
</g>
</g>
<!-- updates&#45;&gt;RFC5031 -->
<g id="edge4" class="edge">
<title>updates&#45;&gt;RFC5031</title>
<path fill="none" stroke="black" d="M498.96,-175.33C504.33,-175.33 510.32,-175.33 516.78,-175.33"/>
<polygon fill="black" stroke="black" points="516.55,-178.83 526.55,-175.33 516.55,-171.83 516.55,-178.83"/>
</g>
<!-- updated_by -->
<g id="node6" class="node">
<title>updated_by</title>
<polygon fill="none" stroke="black" points="61.75,-193.33 4.5,-193.33 4.5,-157.33 61.75,-157.33 61.75,-193.33"/>
<text xml:space="preserve" text-anchor="middle" x="33.12" y="-170.28" font-family="Times,serif" font-size="14.00">updates</text>
</g>
<!-- updated_by&#45;&gt;RFC7163 -->
<g id="edge5" class="edge">
<title>updated_by&#45;&gt;RFC7163</title>
<path fill="none" stroke="black" d="M61.98,-175.33C67.32,-175.33 73.26,-175.33 79.64,-175.33"/>
<polygon fill="black" stroke="black" points="79.26,-178.83 89.26,-175.33 79.26,-171.83 79.26,-178.83"/>
</g>
<!-- cites&#45;&gt;RFC5031 -->
<g id="edge7" class="edge">
<title>cites&#45;&gt;RFC5031</title>
<path fill="none" stroke="black" d="M497.11,-127.21C512.36,-130.65 533,-135.31 555.46,-140.38"/>
<polygon fill="black" stroke="black" points="554.61,-143.77 565.14,-142.56 556.15,-136.95 554.61,-143.77"/>
</g>
<!-- RFC2119 -->
<g id="node8" class="node">
<title>RFC2119</title>
<g id="a_node8"><a xlink:href="RFC2119.html" xlink:title="In many standards track documents several words are used to signify the requirements in the specification. &#160;These words are often capitalized. &#160;This document defines these words as they should be interpreted in IETF documents. &#160;This document specifies an Internet Best Current Practices for the Internet Community, and requests discussion and suggestions for improvements." target="_top">
<ellipse fill="none" stroke="black" cx="711.31" cy="-52.33" rx="160.34" ry="52.33"/>
<text xml:space="preserve" text-anchor="middle" x="711.31" y="-72.03" font-family="Times,serif" font-size="14.00">RFC2119</text>
<text xml:space="preserve" text-anchor="middle" x="711.31" y="-55.53" font-family="Times,serif" font-size="14.00">Key words for use in RFCs to Indicate</text>
<text xml:space="preserve" text-anchor="middle" x="711.31" y="-39.03" font-family="Times,serif" font-size="14.00">Requirement Levels</text>
<text xml:space="preserve" text-anchor="middle" x="711.31" y="-22.53" font-family="Times,serif" font-size="14.00">1997</text>
</a>
</g>
</g>
<!-- cites&#45;&gt;RFC2119 -->
<g id="edge8" class="edge">
<title>cites&#45;&gt;RFC2119</title>
<path fill="none" stroke="black" d="M497.11,-113.81C517.68,-107.88 548.05,-99.12 579.47,-90.06"/>
<polygon fill="black" stroke="black" points="580.06,-93.53 588.69,-87.4 578.12,-86.81 580.06,-93.53"/>
</g>
<!-- rev_cites -->
<g id="node9" class="node">
<title>rev_cites</title>
<polygon fill="none" stroke="black" points="60.12,-139.33 6.12,-139.33 6.12,-103.33 60.12,-103.33 60.12,-139.33"/>
<text xml:space="preserve" text-anchor="middle" x="33.12" y="-116.28" font-family="Times,serif" font-size="14.00">cites</text>
</g>
<!-- rev_cites&#45;&gt;RFC7163 -->
<g id="edge9" class="edge">
<title>rev_cites&#45;&gt;RFC7163</title>
<path fill="none" stroke="black" d="M60.24,-127.84C74.18,-131.32 92.54,-135.9 112.36,-140.84"/>
<polygon fill="black" stroke="black" points="111.48,-144.23 122.03,-143.26 113.18,-137.44 111.48,-144.23"/>
</g>
</g>
</svg>
