<?xml version="1.0" encoding="UTF-8" standalone="no"?>
<!DOCTYPE svg PUBLIC "-//W3C//DTD SVG 1.1//EN"
 "http://www.w3.org/Graphics/SVG/1.1/DTD/svg11.dtd">
<!-- Generated by graphviz version 14.1.1 (20251213.1925)
 -->
<!-- Title: Flow Pages: 1 -->
<svg width="1242pt" height="434pt"
 viewBox="0.00 0.00 1242.00 434.00" xmlns="http://www.w3.org/2000/svg" xmlns:xlink="http://www.w3.org/1999/xlink">
<g id="graph0" class="graph" transform="scale(1 1) rotate(0) translate(4 429.65)">
<title>Flow</title>
<polygon fill="white" stroke="none" points="-4,4 -4,-429.65 1237.76,-429.65 1237.76,4 -4,4"/>
<!-- RFC7646 -->
<g id="node1" class="node">
<title>RFC7646</title>
<g id="a_node1"><a xlink:title="DNS Security Extensions (DNSSEC) is now entering widespread deployment. &#160;However, domain signing tools and processes are not yet as mature and reliable as those for non&#45;DNSSEC&#45;related domain administration tools and processes. &#160;This document defines Negative Trust Anchors (NTAs), which can be used to mitigate DNSSEC validation failures by disabling DNSSEC validation at specified domains.">
<ellipse fill="green" stroke="black" cx="597.79" cy="-266.33" rx="171.47" ry="52.33"/>
<text xml:space="preserve" text-anchor="middle" x="597.79" y="-286.03" font-family="Times,serif" font-size="14.00">RFC7646</text>
<text xml:space="preserve" text-anchor="middle" x="597.79" y="-269.53" font-family="Times,serif" font-size="14.00">Definition and Use of DNSSEC Negative</text>
<text xml:space="preserve" text-anchor="middle" x="597.79" y="-253.03" font-family="Times,serif" font-size="14.00">Trust Anchors</text>
<text xml:space="preserve" text-anchor="middle" x="597.79" y="-236.53" font-family="Times,serif" font-size="14.00">2015</text>
</a>
</g>
</g>
<!-- obs -->
<g id="node3" class="node">
<title>obs</title>
<polygon fill="lightblue" stroke="black" points="860.51,-338.33 794.26,-338.33 794.26,-302.33 860.51,-302.33 860.51,-338.33"/>
<text xml:space="preserve" text-anchor="middle" x="827.39" y="-315.28" font-family="Times,serif" font-size="14.00">obsoletes</text>
</g>
<!-- RFC7646&#45;&gt;obs -->
<g id="edge2" class="edge">
<title>RFC7646&#45;&gt;obs</title>
<path fill="none" stroke="black" d="M734.14,-298.44C751.77,-302.62 768.68,-306.63 783.1,-310.05"/>
<polygon fill="black" stroke="black" points="782.08,-313.41 792.62,-312.31 783.7,-306.6 782.08,-313.41"/>
</g>
<!-- updates -->
<g id="node4" class="node">
<title>updates</title>
<polygon fill="lightyellow" stroke="black" points="856.01,-284.33 798.76,-284.33 798.76,-248.33 856.01,-248.33 856.01,-284.33"/>
<text xml:space="preserve" text-anchor="middle" x="827.39" y="-261.28" font-family="Times,serif" font-size="14.00">updates</text>
</g>
<!-- RFC7646&#45;&gt;updates -->
<g id="edge3" class="edge">
<title>RFC7646&#45;&gt;updates</title>
<path fill="none" stroke="black" d="M769.54,-266.33C775.73,-266.33 781.62,-266.33 787.1,-266.33"/>
<polygon fill="black" stroke="black" points="786.87,-269.83 796.87,-266.33 786.87,-262.83 786.87,-269.83"/>
</g>
<!-- cites -->
<g id="node6" class="node">
<title>cites</title>
<polygon fill="lightblue" stroke="black" points="854.39,-230.33 800.39,-230.33 800.39,-194.33 854.39,-194.33 854.39,-230.33"/>
<text xml:space="preserve" text-anchor="middle" x="827.39" y="-207.28" font-family="Times,serif" font-size="14.00">cites</text>
</g>
<!-- RFC7646&#45;&gt;cites -->
<g id="edge5" class="edge">
<title>RFC7646&#45;&gt;cites</title>
<path fill="none" stroke="black" d="M734.14,-234.21C754.23,-229.45 773.38,-224.9 788.97,-221.2"/>
<polygon fill="black" stroke="black" points="789.77,-224.61 798.69,-218.9 788.15,-217.8 789.77,-224.61"/>
</g>
<!-- obs_by -->
<g id="node2" class="node">
<title>obs_by</title>
<polygon fill="lightblue" stroke="black" points="401.32,-338.33 335.07,-338.33 335.07,-302.33 401.32,-302.33 401.32,-338.33"/>
<text xml:space="preserve" text-anchor="middle" x="368.19" y="-315.28" font-family="Times,serif" font-size="14.00">obsoletes</text>
</g>
<!-- obs_by&#45;&gt;RFC7646 -->
<g id="edge1" class="edge">
<title>obs_by&#45;&gt;RFC7646</title>
<path fill="none" stroke="black" d="M401.8,-312.59C415.5,-309.34 432.49,-305.31 450.67,-300.99"/>
<polygon fill="black" stroke="black" points="451.42,-304.41 460.34,-298.7 449.8,-297.6 451.42,-304.41"/>
</g>
<!-- updated_by -->
<g id="node5" class="node">
<title>updated_by</title>
<polygon fill="lightyellow" stroke="black" points="396.82,-284.33 339.57,-284.33 339.57,-248.33 396.82,-248.33 396.82,-284.33"/>
<text xml:space="preserve" text-anchor="middle" x="368.19" y="-261.28" font-family="Times,serif" font-size="14.00">updates</text>
</g>
<!-- updated_by&#45;&gt;RFC7646 -->
<g id="edge4" class="edge">
<title>updated_by&#45;&gt;RFC7646</title>
<path fill="none" stroke="black" d="M397.1,-266.33C402.42,-266.33 408.34,-266.33 414.72,-266.33"/>
<polygon fill="black" stroke="black" points="414.34,-269.83 424.34,-266.33 414.34,-262.83 414.34,-269.83"/>
</g>
<!-- RFC2119 -->
<g id="node7" class="node">
<title>RFC2119</title>
<g id="a_node7"><a xlink:href="RFC2119.html" xlink:title="In many standards track documents several words are used to signify the requirements in the specification. &#160;These words are often capitalized. &#160;This document defines these words as they should be interpreted in IETF documents. &#160;This document specifies an Internet Best Current Practices for the Internet Community, and requests discussion and suggestions for improvements." target="_top">
<ellipse fill="none" stroke="black" cx="1059.64" cy="-373.33" rx="160.34" ry="52.33"/>
<text xml:space="preserve" text-anchor="middle" x="1059.64" y="-393.03" font-family="Times,serif" font-size="14.00">RFC2119</text>
<text xml:space="preserve" text-anchor="middle" x="1059.64" y="-376.53" font-family="Times,serif" font-size="14.00">Key words for use in RFCs to Indicate</text>
<text xml:space="preserve" text-anchor="middle" x="1059.64" y="-360.03" font-family="Times,serif" font-size="14.00">Requirement Levels</text>
<text xml:space="preserve" text-anchor="middle" x="1059.64" y="-343.53" font-family="Times,serif" font-size="14.00">1997</text>
</a>
</g>
</g>
<!-- cites&#45;&gt;RFC2119 -->
<g id="edge6" class="edge">
<title>cites&#45;&gt;RFC2119</title>
<path fill="none" stroke="black" d="M853.31,-230.8C855.97,-233.46 858.45,-236.32 860.51,-239.33 879.9,-267.61 861.37,-287.97 885.51,-312.33 895.25,-322.15 906.66,-330.39 918.9,-337.31"/>
<polygon fill="black" stroke="black" points="917.06,-340.3 927.53,-341.88 920.33,-334.11 917.06,-340.3"/>
</g>
<!-- RFC5914 -->
<g id="node8" class="node">
<title>RFC5914</title>
<g id="a_node8"><a xlink:href="RFC5914.html" xlink:title="This document describes a structure for representing trust anchor information. &#160;A trust anchor is an authoritative entity represented by a public key and associated data. &#160;The public key is used to verify digital signatures, and the associated data is used to constrain the types of information or actions for which the trust anchor is authoritative. &#160;The structures defined in this document are intended to satisfy the format&#45;related requirements defined in Trust Anchor Management Requirements. [STANDARDS&#45;TRACK]" target="_top">
<ellipse fill="none" stroke="black" cx="1059.64" cy="-262.33" rx="92.98" ry="40.66"/>
<text xml:space="preserve" text-anchor="middle" x="1059.64" y="-273.78" font-family="Times,serif" font-size="14.00">RFC5914</text>
<text xml:space="preserve" text-anchor="middle" x="1059.64" y="-257.28" font-family="Times,serif" font-size="14.00">Trust Anchor Format</text>
<text xml:space="preserve" text-anchor="middle" x="1059.64" y="-240.78" font-family="Times,serif" font-size="14.00">2010</text>
</a>
</g>
</g>
<!-- cites&#45;&gt;RFC5914 -->
<g id="edge7" class="edge">
<title>cites&#45;&gt;RFC5914</title>
<path fill="none" stroke="black" d="M854.8,-218.06C881.69,-223.9 924.95,-233.29 964.72,-241.93"/>
<polygon fill="black" stroke="black" points="963.83,-245.32 974.34,-244.02 965.31,-238.48 963.83,-245.32"/>
</g>
<!-- RFC6781 -->
<g id="node9" class="node">
<title>RFC6781</title>
<g id="a_node9"><a xlink:href="RFC6781.html" xlink:title="This document describes a set of practices for operating the DNS with security extensions (DNSSEC). The target audience is zone administrators deploying DNSSEC. The document discusses operational aspects of using keys and signatures in the DNS. It discusses issues of key generation, key storage, signature generation, key rollover, and related policies. This document obsoletes RFC 4641, as it covers more operational ground and gives more up&#45;to&#45;date requirements with respect to key sizes and the DNSSEC operations." target="_top">
<ellipse fill="none" stroke="black" cx="1059.64" cy="-163.33" rx="174.13" ry="40.66"/>
<text xml:space="preserve" text-anchor="middle" x="1059.64" y="-174.78" font-family="Times,serif" font-size="14.00">RFC6781</text>
<text xml:space="preserve" text-anchor="middle" x="1059.64" y="-158.28" font-family="Times,serif" font-size="14.00">DNSSEC Operational Practices, Version 2</text>
<text xml:space="preserve" text-anchor="middle" x="1059.64" y="-141.78" font-family="Times,serif" font-size="14.00">2012</text>
</a>
</g>
</g>
<!-- cites&#45;&gt;RFC6781 -->
<g id="edge8" class="edge">
<title>cites&#45;&gt;RFC6781</title>
<path fill="none" stroke="black" d="M854.8,-206.7C871.42,-203.17 894.29,-198.3 918.73,-193.1"/>
<polygon fill="black" stroke="black" points="919.14,-196.59 928.19,-191.09 917.68,-189.75 919.14,-196.59"/>
</g>
<!-- RFC4033 -->
<g id="node10" class="node">
<title>RFC4033</title>
<g id="a_node10"><a xlink:href="RFC4033.html" xlink:title="The Domain Name System Security Extensions (DNSSEC) add data origin authentication and data integrity to the Domain Name System. &#160;This document introduces these extensions and describes their capabilities and limitations. &#160;This document also discusses the services that the DNS security extensions do and do not provide. &#160;Last, this document describes the interrelationships between the documents that collectively describe DNSSEC. [STANDARDS&#45;TRACK]" target="_top">
<ellipse fill="none" stroke="black" cx="1059.64" cy="-52.33" rx="131.17" ry="52.33"/>
<text xml:space="preserve" text-anchor="middle" x="1059.64" y="-72.03" font-family="Times,serif" font-size="14.00">RFC4033</text>
<text xml:space="preserve" text-anchor="middle" x="1059.64" y="-55.53" font-family="Times,serif" font-size="14.00">DNS Security Introduction and</text>
<text xml:space="preserve" text-anchor="middle" x="1059.64" y="-39.03" font-family="Times,serif" font-size="14.00">Requirements</text>
<text xml:space="preserve" text-anchor="middle" x="1059.64" y="-22.53" font-family="Times,serif" font-size="14.00">2005</text>
</a>
</g>
</g>
<!-- cites&#45;&gt;RFC4033 -->
<g id="edge9" class="edge">
<title>cites&#45;&gt;RFC4033</title>
<path fill="none" stroke="black" d="M834.47,-194C842.69,-171.9 859.41,-135.01 885.51,-113.33 900.34,-101.01 917.82,-91.11 935.87,-83.18"/>
<polygon fill="black" stroke="black" points="936.97,-86.51 944.85,-79.43 934.27,-80.05 936.97,-86.51"/>
</g>
<!-- rev_cites -->
<g id="node11" class="node">
<title>rev_cites</title>
<polygon fill="lightblue" stroke="black" points="395.19,-230.33 341.19,-230.33 341.19,-194.33 395.19,-194.33 395.19,-230.33"/>
<text xml:space="preserve" text-anchor="middle" x="368.19" y="-207.28" font-family="Times,serif" font-size="14.00">cites</text>
</g>
<!-- rev_cites&#45;&gt;RFC7646 -->
<g id="edge10" class="edge">
<title>rev_cites&#45;&gt;RFC7646</title>
<path fill="none" stroke="black" d="M395.3,-218.52C409.87,-221.98 429.3,-226.59 450.36,-231.58"/>
<polygon fill="black" stroke="black" points="449.49,-234.97 460.03,-233.88 451.11,-228.16 449.49,-234.97"/>
</g>
<!-- RFC7901 -->
<g id="node12" class="node">
<title>RFC7901</title>
<g id="a_node12"><a xlink:href="RFC7901.html" xlink:title="This document defines an EDNS0 extension that can be used by a security&#45;aware validating resolver configured to use a forwarding resolver to send a single query, requesting a complete validation path along with the regular query answer. &#160;The reduction in queries potentially lowers the latency and reduces the need to send multiple queries at once. &#160;This extension mandates the use of source&#45;IP&#45; verified transport such as TCP or UDP with EDNS&#45;COOKIE, so it cannot be abused in amplification attacks." target="_top">
<ellipse fill="none" stroke="black" cx="155.03" cy="-262.33" rx="137" ry="40.66"/>
<text xml:space="preserve" text-anchor="middle" x="155.03" y="-273.78" font-family="Times,serif" font-size="14.00">RFC7901</text>
<text xml:space="preserve" text-anchor="middle" x="155.03" y="-257.28" font-family="Times,serif" font-size="14.00">CHAIN Query Requests in DNS</text>
<text xml:space="preserve" text-anchor="middle" x="155.03" y="-240.78" font-family="Times,serif" font-size="14.00">2016</text>
</a>
</g>
</g>
<!-- RFC7901&#45;&gt;rev_cites -->
<g id="edge11" class="edge">
<title>RFC7901&#45;&gt;rev_cites</title>
<path fill="none" stroke="black" d="M263.16,-236.96C287.17,-231.27 311.07,-225.61 329.9,-221.16"/>
<polygon fill="black" stroke="black" points="330.53,-224.6 339.45,-218.89 328.91,-217.79 330.53,-224.6"/>
</g>
<!-- RFC9364 -->
<g id="node13" class="node">
<title>RFC9364</title>
<g id="a_node13"><a xlink:href="RFC9364.html" xlink:title="This document describes the DNS Security Extensions (commonly called DNSSEC) that are specified in RFCs 4033, 4034, and 4035, as well as a handful of others. &#160;One purpose is to introduce all of the RFCs in one place so that the reader can understand the many aspects of DNSSEC. &#160;This document does not update any of those RFCs. &#160;A second purpose is to state that using DNSSEC for origin authentication of DNS data is the best current practice. &#160;A third purpose is to provide a single reference for other documents that want to refer to DNSSEC." target="_top">
<ellipse fill="none" stroke="black" cx="155.03" cy="-163.33" rx="155.03" ry="40.66"/>
<text xml:space="preserve" text-anchor="middle" x="155.03" y="-174.78" font-family="Times,serif" font-size="14.00">RFC9364</text>
<text xml:space="preserve" text-anchor="middle" x="155.03" y="-158.28" font-family="Times,serif" font-size="14.00">DNS Security Extensions (DNSSEC)</text>
<text xml:space="preserve" text-anchor="middle" x="155.03" y="-141.78" font-family="Times,serif" font-size="14.00">2023</text>
</a>
</g>
</g>
<!-- RFC9364&#45;&gt;rev_cites -->
<g id="edge12" class="edge">
<title>RFC9364&#45;&gt;rev_cites</title>
<path fill="none" stroke="black" d="M272.11,-190.26C293.14,-195.14 313.6,-199.89 330.12,-203.72"/>
<polygon fill="black" stroke="black" points="328.88,-207.03 339.42,-205.88 330.47,-200.21 328.88,-207.03"/>
</g>
</g>
</svg>
