<?xml version="1.0" encoding="UTF-8" standalone="no"?>
<!DOCTYPE svg PUBLIC "-//W3C//DTD SVG 1.1//EN"
 "http://www.w3.org/Graphics/SVG/1.1/DTD/svg11.dtd">
<!-- Generated by graphviz version 14.1.1 (20251213.1925)
 -->
<!-- Title: Flow Pages: 1 -->
<svg width="1244pt" height="731pt"
 viewBox="0.00 0.00 1244.00 731.00" xmlns="http://www.w3.org/2000/svg" xmlns:xlink="http://www.w3.org/1999/xlink">
<g id="graph0" class="graph" transform="scale(1 1) rotate(0) translate(4 727.32)">
<title>Flow</title>
<polygon fill="white" stroke="none" points="-4,4 -4,-727.32 1239.88,-727.32 1239.88,4 -4,4"/>
<!-- RFC7313 -->
<g id="node1" class="node">
<title>RFC7313</title>
<g id="a_node1"><a xlink:title="In this document, we enhance the existing BGP route refresh mechanisms to provide for the demarcation of the beginning and the ending of a route refresh. &#160;The enhancement can be used to facilitate correction of BGP Routing Information Base (RIB) inconsistencies in a non&#45;disruptive manner. &#160;This document updates RFC 2918.">
<ellipse fill="green" stroke="black" cx="623.25" cy="-576.66" rx="162.99" ry="52.33"/>
<text xml:space="preserve" text-anchor="middle" x="623.25" y="-596.36" font-family="Times,serif" font-size="14.00">RFC7313</text>
<text xml:space="preserve" text-anchor="middle" x="623.25" y="-579.86" font-family="Times,serif" font-size="14.00">Enhanced Route Refresh Capability for</text>
<text xml:space="preserve" text-anchor="middle" x="623.25" y="-563.36" font-family="Times,serif" font-size="14.00">BGP&#45;4</text>
<text xml:space="preserve" text-anchor="middle" x="623.25" y="-546.86" font-family="Times,serif" font-size="14.00">2014</text>
</a>
</g>
</g>
<!-- obs -->
<g id="node3" class="node">
<title>obs</title>
<polygon fill="lightblue" stroke="black" points="877.48,-648.66 811.23,-648.66 811.23,-612.66 877.48,-612.66 877.48,-648.66"/>
<text xml:space="preserve" text-anchor="middle" x="844.36" y="-625.61" font-family="Times,serif" font-size="14.00">obsoletes</text>
</g>
<!-- RFC7313&#45;&gt;obs -->
<g id="edge2" class="edge">
<title>RFC7313&#45;&gt;obs</title>
<path fill="none" stroke="black" d="M753.6,-608.54C770.25,-612.64 786.27,-616.59 800.05,-619.99"/>
<polygon fill="black" stroke="black" points="799.05,-623.34 809.59,-622.34 800.72,-616.55 799.05,-623.34"/>
</g>
<!-- updates -->
<g id="node4" class="node">
<title>updates</title>
<polygon fill="lightyellow" stroke="black" points="872.98,-594.66 815.73,-594.66 815.73,-558.66 872.98,-558.66 872.98,-594.66"/>
<text xml:space="preserve" text-anchor="middle" x="844.36" y="-571.61" font-family="Times,serif" font-size="14.00">updates</text>
</g>
<!-- RFC7313&#45;&gt;updates -->
<g id="edge3" class="edge">
<title>RFC7313&#45;&gt;updates</title>
<path fill="none" stroke="black" d="M786.65,-576.66C792.8,-576.66 798.65,-576.66 804.11,-576.66"/>
<polygon fill="black" stroke="black" points="803.85,-580.16 813.85,-576.66 803.85,-573.16 803.85,-580.16"/>
</g>
<!-- cites -->
<g id="node7" class="node">
<title>cites</title>
<polygon fill="lightblue" stroke="black" points="871.36,-434.66 817.36,-434.66 817.36,-398.66 871.36,-398.66 871.36,-434.66"/>
<text xml:space="preserve" text-anchor="middle" x="844.36" y="-411.61" font-family="Times,serif" font-size="14.00">cites</text>
</g>
<!-- RFC7313&#45;&gt;cites -->
<g id="edge6" class="edge">
<title>RFC7313&#45;&gt;cites</title>
<path fill="none" stroke="black" d="M689.99,-528.65C729.22,-500 777.44,-464.79 809.22,-441.59"/>
<polygon fill="black" stroke="black" points="810.89,-444.7 816.9,-435.98 806.76,-439.05 810.89,-444.7"/>
</g>
<!-- obs_by -->
<g id="node2" class="node">
<title>obs_by</title>
<polygon fill="lightblue" stroke="black" points="435.26,-648.66 369.01,-648.66 369.01,-612.66 435.26,-612.66 435.26,-648.66"/>
<text xml:space="preserve" text-anchor="middle" x="402.13" y="-625.61" font-family="Times,serif" font-size="14.00">obsoletes</text>
</g>
<!-- obs_by&#45;&gt;RFC7313 -->
<g id="edge1" class="edge">
<title>obs_by&#45;&gt;RFC7313</title>
<path fill="none" stroke="black" d="M435.46,-622.69C448.67,-619.44 464.93,-615.43 482.3,-611.15"/>
<polygon fill="black" stroke="black" points="482.89,-614.61 491.76,-608.82 481.22,-607.81 482.89,-614.61"/>
</g>
<!-- RFC2918 -->
<g id="node5" class="node">
<title>RFC2918</title>
<g id="a_node5"><a xlink:href="RFC2918.html" xlink:title="This document defines a new Border Gateway Protocol (BGP) capability termed &#39;Route Refresh Capability&#39;, which would allow the dynamic exchange of route refresh request between BGP speakers and subsequent re&#45;advertisement of the respective Adj&#45;RIB&#45;Out. [STANDARDS&#45;TRACK]" target="_top">
<ellipse fill="none" stroke="black" cx="1069.18" cy="-682.66" rx="151.85" ry="40.66"/>
<text xml:space="preserve" text-anchor="middle" x="1069.18" y="-694.11" font-family="Times,serif" font-size="14.00">RFC2918</text>
<text xml:space="preserve" text-anchor="middle" x="1069.18" y="-677.61" font-family="Times,serif" font-size="14.00">Route Refresh Capability for BGP&#45;4</text>
<text xml:space="preserve" text-anchor="middle" x="1069.18" y="-661.11" font-family="Times,serif" font-size="14.00">2000</text>
</a>
</g>
</g>
<!-- updates&#45;&gt;RFC2918 -->
<g id="edge4" class="edge">
<title>updates&#45;&gt;RFC2918</title>
<path fill="none" stroke="black" d="M868.27,-595.05C871.45,-597.85 874.6,-600.77 877.48,-603.66 889.73,-615.96 887.98,-624.12 902.48,-633.66 913.95,-641.2 926.62,-647.62 939.68,-653.06"/>
<polygon fill="black" stroke="black" points="938.24,-656.25 948.83,-656.67 940.81,-649.74 938.24,-656.25"/>
</g>
<!-- updated_by -->
<g id="node6" class="node">
<title>updated_by</title>
<polygon fill="lightyellow" stroke="black" points="430.76,-594.66 373.51,-594.66 373.51,-558.66 430.76,-558.66 430.76,-594.66"/>
<text xml:space="preserve" text-anchor="middle" x="402.13" y="-571.61" font-family="Times,serif" font-size="14.00">updates</text>
</g>
<!-- updated_by&#45;&gt;RFC7313 -->
<g id="edge5" class="edge">
<title>updated_by&#45;&gt;RFC7313</title>
<path fill="none" stroke="black" d="M430.88,-576.66C436.27,-576.66 442.27,-576.66 448.72,-576.66"/>
<polygon fill="black" stroke="black" points="448.47,-580.16 458.47,-576.66 448.47,-573.16 448.47,-580.16"/>
</g>
<!-- cites&#45;&gt;RFC2918 -->
<g id="edge8" class="edge">
<title>cites&#45;&gt;RFC2918</title>
<path fill="none" stroke="black" d="M849.63,-434.81C861.65,-485.67 895.38,-626.34 902.48,-633.66 910.88,-642.31 920.73,-649.46 931.36,-655.35"/>
<polygon fill="black" stroke="black" points="929.47,-658.32 939.97,-659.74 932.65,-652.08 929.47,-658.32"/>
</g>
<!-- RFC4271 -->
<g id="node8" class="node">
<title>RFC4271</title>
<g id="a_node8"><a xlink:href="RFC4271.html" xlink:title="This document discusses the Border Gateway Protocol (BGP), which is an inter&#45;Autonomous System routing protocol. The primary function of a BGP speaking system is to exchange network reachability information with other BGP systems. This network reachability information includes information on the list of Autonomous Systems (ASes) that reachability information traverses. This information is sufficient for constructing a graph of AS connectivity for this reachability from which routing loops may be pruned, and, at the AS level, some policy decisions may be enforced. BGP&#45;4 provides a set of mechanisms for supporting Classless Inter&#45;Domain Routing (CIDR). These mechanisms include support for advertising a set of destinations as an IP prefix, and eliminating the concept of network class within BGP. BGP&#45;4 also introduces mechanisms that allow aggregation of routes, including aggregation of AS paths. This document obsoletes RFC 1771. [STANDARDS&#45;TRACK]" target="_top">
<ellipse fill="none" stroke="black" cx="1069.18" cy="-583.66" rx="161.4" ry="40.66"/>
<text xml:space="preserve" text-anchor="middle" x="1069.18" y="-595.11" font-family="Times,serif" font-size="14.00">RFC4271</text>
<text xml:space="preserve" text-anchor="middle" x="1069.18" y="-578.61" font-family="Times,serif" font-size="14.00">A Border Gateway Protocol 4 (BGP&#45;4)</text>
<text xml:space="preserve" text-anchor="middle" x="1069.18" y="-562.11" font-family="Times,serif" font-size="14.00">2006</text>
</a>
</g>
</g>
<!-- cites&#45;&gt;RFC4271 -->
<g id="edge7" class="edge">
<title>cites&#45;&gt;RFC4271</title>
<path fill="none" stroke="black" d="M849.39,-434.93C856.01,-460.69 871.66,-507.44 902.48,-533.66 911.42,-541.26 921.48,-547.7 932.11,-553.16"/>
<polygon fill="black" stroke="black" points="930.57,-556.31 941.1,-557.46 933.59,-549.99 930.57,-556.31"/>
</g>
<!-- RFC2119 -->
<g id="node9" class="node">
<title>RFC2119</title>
<g id="a_node9"><a xlink:href="RFC2119.html" xlink:title="In many standards track documents several words are used to signify the requirements in the specification. &#160;These words are often capitalized. &#160;This document defines these words as they should be interpreted in IETF documents. &#160;This document specifies an Internet Best Current Practices for the Internet Community, and requests discussion and suggestions for improvements." target="_top">
<ellipse fill="none" stroke="black" cx="1069.18" cy="-472.66" rx="160.34" ry="52.33"/>
<text xml:space="preserve" text-anchor="middle" x="1069.18" y="-492.36" font-family="Times,serif" font-size="14.00">RFC2119</text>
<text xml:space="preserve" text-anchor="middle" x="1069.18" y="-475.86" font-family="Times,serif" font-size="14.00">Key words for use in RFCs to Indicate</text>
<text xml:space="preserve" text-anchor="middle" x="1069.18" y="-459.36" font-family="Times,serif" font-size="14.00">Requirement Levels</text>
<text xml:space="preserve" text-anchor="middle" x="1069.18" y="-442.86" font-family="Times,serif" font-size="14.00">1997</text>
</a>
</g>
</g>
<!-- cites&#45;&gt;RFC2119 -->
<g id="edge9" class="edge">
<title>cites&#45;&gt;RFC2119</title>
<path fill="none" stroke="black" d="M871.79,-423.3C887.2,-427.17 907.94,-432.39 930.19,-437.98"/>
<polygon fill="black" stroke="black" points="929.19,-441.34 939.74,-440.38 930.9,-434.55 929.19,-441.34"/>
</g>
<!-- RFC5492 -->
<g id="node10" class="node">
<title>RFC5492</title>
<g id="a_node10"><a xlink:href="RFC5492.html" xlink:title="This document defines an Optional Parameter, called Capabilities, that is expected to facilitate the introduction of new capabilities in the Border Gateway Protocol (BGP) by providing graceful capability advertisement without requiring that BGP peering be terminated. This document obsoletes RFC 3392. [STANDARDS&#45;TRACK]" target="_top">
<ellipse fill="none" stroke="black" cx="1069.18" cy="-361.66" rx="164.58" ry="40.66"/>
<text xml:space="preserve" text-anchor="middle" x="1069.18" y="-373.11" font-family="Times,serif" font-size="14.00">RFC5492</text>
<text xml:space="preserve" text-anchor="middle" x="1069.18" y="-356.61" font-family="Times,serif" font-size="14.00">Capabilities Advertisement with BGP&#45;4</text>
<text xml:space="preserve" text-anchor="middle" x="1069.18" y="-340.11" font-family="Times,serif" font-size="14.00">2009</text>
</a>
</g>
</g>
<!-- cites&#45;&gt;RFC5492 -->
<g id="edge10" class="edge">
<title>cites&#45;&gt;RFC5492</title>
<path fill="none" stroke="black" d="M871.79,-410.13C889.58,-405.74 914.47,-399.6 940.57,-393.16"/>
<polygon fill="black" stroke="black" points="941.08,-396.64 949.95,-390.84 939.4,-389.84 941.08,-396.64"/>
</g>
<!-- RFC5291 -->
<g id="node11" class="node">
<title>RFC5291</title>
<g id="a_node11"><a xlink:href="RFC5291.html" xlink:title="This document defines a BGP&#45;based mechanism that allows a BGP speaker to send to its BGP peer a set of Outbound Route Filters (ORFs) that the peer would use to constrain/filter its outbound routing updates to the speaker. [STANDARDS&#45;TRACK]" target="_top">
<ellipse fill="none" stroke="black" cx="1069.18" cy="-250.66" rx="166.7" ry="52.33"/>
<text xml:space="preserve" text-anchor="middle" x="1069.18" y="-270.36" font-family="Times,serif" font-size="14.00">RFC5291</text>
<text xml:space="preserve" text-anchor="middle" x="1069.18" y="-253.86" font-family="Times,serif" font-size="14.00">Outbound Route Filtering Capability for</text>
<text xml:space="preserve" text-anchor="middle" x="1069.18" y="-237.36" font-family="Times,serif" font-size="14.00">BGP&#45;4</text>
<text xml:space="preserve" text-anchor="middle" x="1069.18" y="-220.86" font-family="Times,serif" font-size="14.00">2008</text>
</a>
</g>
</g>
<!-- cites&#45;&gt;RFC5291 -->
<g id="edge11" class="edge">
<title>cites&#45;&gt;RFC5291</title>
<path fill="none" stroke="black" d="M850.78,-398.51C858.59,-375.29 875.16,-335.27 902.48,-311.66 911.72,-303.68 922.09,-296.71 933.02,-290.62"/>
<polygon fill="black" stroke="black" points="934.63,-293.73 941.85,-285.98 931.37,-287.53 934.63,-293.73"/>
</g>
<!-- RFC4724 -->
<g id="node12" class="node">
<title>RFC4724</title>
<g id="a_node12"><a xlink:href="RFC4724.html" xlink:title="This document describes a mechanism for BGP that would help minimize the negative effects on routing caused by BGP restart. An End&#45;of&#45;RIB marker is specified and can be used to convey routing convergence information. A new BGP capability, termed Graceful Restart Capability, is defined that would allow a BGP speaker to express its ability to preserve forwarding state during BGP restart. Finally, procedures are outlined for temporarily retaining routing information across a TCP session termination/re&#45;establishment. The mechanisms described in this document are applicable to all routers, both those with the ability to preserve forwarding state during BGP restart and those without (although the latter need to implement only a subset of the mechanisms described in this document). [STANDARDS&#45;TRACK]" target="_top">
<ellipse fill="none" stroke="black" cx="1069.18" cy="-139.66" rx="157.68" ry="40.66"/>
<text xml:space="preserve" text-anchor="middle" x="1069.18" y="-151.11" font-family="Times,serif" font-size="14.00">RFC4724</text>
<text xml:space="preserve" text-anchor="middle" x="1069.18" y="-134.61" font-family="Times,serif" font-size="14.00">Graceful Restart Mechanism for BGP</text>
<text xml:space="preserve" text-anchor="middle" x="1069.18" y="-118.11" font-family="Times,serif" font-size="14.00">2007</text>
</a>
</g>
</g>
<!-- cites&#45;&gt;RFC4724 -->
<g id="edge12" class="edge">
<title>cites&#45;&gt;RFC4724</title>
<path fill="none" stroke="black" d="M847.64,-398.24C854.02,-349.72 873.44,-220.08 902.48,-189.66 910.5,-181.26 919.88,-174.25 930.01,-168.42"/>
<polygon fill="black" stroke="black" points="931.4,-171.64 938.61,-163.88 928.13,-165.45 931.4,-171.64"/>
</g>
<!-- RFC4272 -->
<g id="node13" class="node">
<title>RFC4272</title>
<g id="a_node13"><a xlink:href="RFC4272.html" xlink:title="Border Gateway Protocol 4 (BGP&#45;4), along with a host of other infrastructure protocols designed before the Internet environment became perilous, was originally designed with little consideration for protection of the information it carries. There are no mechanisms internal to BGP that protect against attacks that modify, delete, forge, or replay data, any of which has the potential to disrupt overall network routing behavior. This document discusses some of the security issues with BGP routing data dissemination. This document does not discuss security issues with forwarding of packets. This memo provides information for the Internet community." target="_top">
<ellipse fill="none" stroke="black" cx="1069.18" cy="-40.66" rx="158.22" ry="40.66"/>
<text xml:space="preserve" text-anchor="middle" x="1069.18" y="-52.11" font-family="Times,serif" font-size="14.00">RFC4272</text>
<text xml:space="preserve" text-anchor="middle" x="1069.18" y="-35.61" font-family="Times,serif" font-size="14.00">BGP Security Vulnerabilities Analysis</text>
<text xml:space="preserve" text-anchor="middle" x="1069.18" y="-19.11" font-family="Times,serif" font-size="14.00">2006</text>
</a>
</g>
</g>
<!-- cites&#45;&gt;RFC4272 -->
<g id="edge13" class="edge">
<title>cites&#45;&gt;RFC4272</title>
<path fill="none" stroke="black" d="M846.09,-398.18C848.93,-336.04 861.16,-136.01 902.48,-89.66 909.74,-81.52 918.28,-74.7 927.6,-68.99"/>
<polygon fill="black" stroke="black" points="929.21,-72.1 936.24,-64.18 925.8,-65.99 929.21,-72.1"/>
</g>
<!-- rev_cites -->
<g id="node14" class="node">
<title>rev_cites</title>
<polygon fill="lightblue" stroke="black" points="429.13,-540.66 375.13,-540.66 375.13,-504.66 429.13,-504.66 429.13,-540.66"/>
<text xml:space="preserve" text-anchor="middle" x="402.13" y="-517.61" font-family="Times,serif" font-size="14.00">cites</text>
</g>
<!-- rev_cites&#45;&gt;RFC7313 -->
<g id="edge14" class="edge">
<title>rev_cites&#45;&gt;RFC7313</title>
<path fill="none" stroke="black" d="M429.56,-529.17C443.65,-532.64 462.18,-537.21 482.19,-542.14"/>
<polygon fill="black" stroke="black" points="481.09,-545.48 491.64,-544.47 482.76,-538.68 481.09,-545.48"/>
</g>
<!-- RFC9324 -->
<g id="node15" class="node">
<title>RFC9324</title>
<g id="a_node15"><a xlink:href="RFC9324.html" xlink:title="A BGP speaker performing policy based on the Resource Public Key Infrastructure (RPKI) should not issue route refresh to its neighbors because it has received new RPKI data. &#160;This document updates RFC 8481 by describing how to avoid doing so by either keeping a full Adj&#45;RIB&#45;In or saving paths dropped due to ROV (Route Origin Validation) so they may be reevaluated with respect to new RPKI data." target="_top">
<ellipse fill="none" stroke="black" cx="172" cy="-522.66" rx="172" ry="63.99"/>
<text xml:space="preserve" text-anchor="middle" x="172" y="-550.61" font-family="Times,serif" font-size="14.00">RFC9324</text>
<text xml:space="preserve" text-anchor="middle" x="172" y="-534.11" font-family="Times,serif" font-size="14.00">Policy Based on the Resource Public Key</text>
<text xml:space="preserve" text-anchor="middle" x="172" y="-517.61" font-family="Times,serif" font-size="14.00">Infrastructure (RPKI) without Route</text>
<text xml:space="preserve" text-anchor="middle" x="172" y="-501.11" font-family="Times,serif" font-size="14.00">Refresh</text>
<text xml:space="preserve" text-anchor="middle" x="172" y="-484.61" font-family="Times,serif" font-size="14.00">2022</text>
</a>
</g>
</g>
<!-- RFC9324&#45;&gt;rev_cites -->
<g id="edge15" class="edge">
<title>RFC9324&#45;&gt;rev_cites</title>
<path fill="none" stroke="black" d="M344.45,-522.66C351.17,-522.66 357.53,-522.66 363.39,-522.66"/>
<polygon fill="black" stroke="black" points="363.18,-526.16 373.18,-522.66 363.18,-519.16 363.18,-526.16"/>
</g>
</g>
</svg>
