<?xml version="1.0" encoding="UTF-8" standalone="no"?>
<!DOCTYPE svg PUBLIC "-//W3C//DTD SVG 1.1//EN"
 "http://www.w3.org/Graphics/SVG/1.1/DTD/svg11.dtd">
<!-- Generated by graphviz version 14.1.1 (20251213.1925)
 -->
<!-- Title: Flow Pages: 1 -->
<svg width="1358pt" height="1601pt"
 viewBox="0.00 0.00 1358.00 1601.00" xmlns="http://www.w3.org/2000/svg" xmlns:xlink="http://www.w3.org/1999/xlink">
<g id="graph0" class="graph" transform="scale(1 1) rotate(0) translate(4 1597.01)">
<title>Flow</title>
<polygon fill="white" stroke="none" points="-4,4 -4,-1597.01 1354.37,-1597.01 1354.37,4 -4,4"/>
<!-- RFC7101 -->
<g id="node1" class="node">
<title>RFC7101</title>
<g id="a_node1"><a xlink:title="At one time, the RFC Editor published snapshots of the Internet Official Protocol Standards. &#160;These documents were known as xx00 documents, the last of which was published in May 2008. &#160;These snapshots have been replaced by a web page, so the RFC Editor will no longer be publishing these snapshots as RFCs. &#160;As a result, the RFC Editor will classify unpublished RFC xx00 numbers through 7000 as never issued. &#160;Starting with the RFC number 7100, xx00 numbers will be available for assignment.">
<ellipse fill="green" stroke="black" stroke-width="3" cx="938.38" cy="-770.68" rx="195.87" ry="65.05"/>
<text xml:space="preserve" text-anchor="middle" x="938.38" y="-795.58" font-family="Times,serif" font-size="18.00">RFC7101</text>
<text xml:space="preserve" text-anchor="middle" x="938.38" y="-774.58" font-family="Times,serif" font-size="18.00">List of Internet Official Protocol</text>
<text xml:space="preserve" text-anchor="middle" x="938.38" y="-753.58" font-family="Times,serif" font-size="18.00">Standards: Replaced by a Web Page</text>
<text xml:space="preserve" text-anchor="middle" x="938.38" y="-732.58" font-family="Times,serif" font-size="18.00">2013</text>
</a>
</g>
</g>
<!-- obs -->
<g id="node3" class="node">
<title>obs</title>
<polygon fill="lightblue" stroke="black" points="1350.37,-899.92 1284.12,-899.92 1284.12,-863.92 1350.37,-863.92 1350.37,-899.92"/>
<text xml:space="preserve" text-anchor="middle" x="1317.25" y="-876.87" font-family="Times,serif" font-size="14.00">obsoletes</text>
</g>
<!-- RFC7101&#45;&gt;obs -->
<g id="edge2" class="edge">
<title>RFC7101&#45;&gt;obs</title>
<path fill="none" stroke="black" d="M1087.03,-814.32C1153.54,-833.85 1227.09,-855.45 1272.74,-868.85"/>
<polygon fill="black" stroke="black" points="1271.69,-872.19 1282.27,-871.65 1273.66,-865.47 1271.69,-872.19"/>
</g>
<!-- updates -->
<g id="node4" class="node">
<title>updates</title>
<polygon fill="lightyellow" stroke="black" points="1225.59,-1087.09 1168.34,-1087.09 1168.34,-1051.09 1225.59,-1051.09 1225.59,-1087.09"/>
<text xml:space="preserve" text-anchor="middle" x="1196.96" y="-1064.04" font-family="Times,serif" font-size="14.00">updates</text>
</g>
<!-- RFC7101&#45;&gt;updates -->
<g id="edge3" class="edge">
<title>RFC7101&#45;&gt;updates</title>
<path fill="none" stroke="black" d="M993.54,-834.33C1049.44,-898.84 1133.26,-995.58 1173.61,-1042.14"/>
<polygon fill="black" stroke="black" points="1170.9,-1044.36 1180.09,-1049.62 1176.19,-1039.77 1170.9,-1044.36"/>
</g>
<!-- cites -->
<g id="node6" class="node">
<title>cites</title>
<polygon fill="lightblue" stroke="black" points="586.52,-899.92 532.52,-899.92 532.52,-863.92 586.52,-863.92 586.52,-899.92"/>
<text xml:space="preserve" text-anchor="middle" x="559.52" y="-876.87" font-family="Times,serif" font-size="14.00">cites</text>
</g>
<!-- RFC7101&#45;&gt;cites -->
<g id="edge5" class="edge">
<title>RFC7101&#45;&gt;cites</title>
<path fill="none" stroke="black" d="M789.73,-814.32C720.13,-834.76 642.81,-857.46 597.83,-870.67"/>
<polygon fill="black" stroke="black" points="596.9,-867.3 588.3,-873.47 598.88,-874.01 596.9,-867.3"/>
</g>
<!-- obs_by -->
<g id="node2" class="node">
<title>obs_by</title>
<polygon fill="lightblue" stroke="black" points="1027.7,-397.84 961.45,-397.84 961.45,-361.84 1027.7,-361.84 1027.7,-397.84"/>
<text xml:space="preserve" text-anchor="middle" x="994.58" y="-374.79" font-family="Times,serif" font-size="14.00">obsoletes</text>
</g>
<!-- obs_by&#45;&gt;RFC7101 -->
<g id="edge1" class="edge">
<title>obs_by&#45;&gt;RFC7101</title>
<path fill="none" stroke="black" d="M991.94,-398.16C984.49,-450.03 962.91,-600.1 949.53,-693.17"/>
<polygon fill="black" stroke="black" points="946.07,-692.62 948.11,-703.01 953,-693.61 946.07,-692.62"/>
</g>
<!-- updated_by -->
<g id="node5" class="node">
<title>updated_by</title>
<polygon fill="lightyellow" stroke="black" points="1225.59,-490.26 1168.34,-490.26 1168.34,-454.26 1225.59,-454.26 1225.59,-490.26"/>
<text xml:space="preserve" text-anchor="middle" x="1196.96" y="-467.21" font-family="Times,serif" font-size="14.00">updates</text>
</g>
<!-- updated_by&#45;&gt;RFC7101 -->
<g id="edge4" class="edge">
<title>updated_by&#45;&gt;RFC7101</title>
<path fill="none" stroke="black" d="M1181.17,-490.48C1146.21,-530.83 1060.63,-629.6 1001.04,-698.37"/>
<polygon fill="black" stroke="black" points="998.44,-696.03 994.53,-705.88 1003.73,-700.61 998.44,-696.03"/>
</g>
<!-- RFC1083 -->
<g id="node7" class="node">
<title>RFC1083</title>
<g id="a_node7"><a xlink:href="RFC1083.html" xlink:title="This memo describes the state of standardization of protocols used in the Internet as determined by the Internet Activities Board (IAB). &#160;An overview of the standards procedures is presented first, followed by discussions of the standardization process and the RFC document series, then the explanation of the terms is presented, the lists of protocols in each stage of standardization follows, and finally pointers to references and contacts for further information. &#160;This memo is issued quarterly, please be sure the copy you are reading is dated within the last three months." target="_top">
<ellipse fill="none" stroke="black" cx="1050.77" cy="-1552.35" rx="131.17" ry="40.66"/>
<text xml:space="preserve" text-anchor="middle" x="1050.77" y="-1563.8" font-family="Times,serif" font-size="14.00">RFC1083</text>
<text xml:space="preserve" text-anchor="middle" x="1050.77" y="-1547.3" font-family="Times,serif" font-size="14.00">IAB official protocol standards</text>
<text xml:space="preserve" text-anchor="middle" x="1050.77" y="-1530.8" font-family="Times,serif" font-size="14.00">1988</text>
</a>
</g>
</g>
<!-- cites&#45;&gt;RFC1083 -->
<g id="edge6" class="edge">
<title>cites&#45;&gt;RFC1083</title>
<path fill="none" stroke="black" d="M572.92,-900.2C637.18,-987.9 914.88,-1366.9 1014.79,-1503.25"/>
<polygon fill="black" stroke="black" points="1011.76,-1505.04 1020.5,-1511.04 1017.41,-1500.9 1011.76,-1505.04"/>
</g>
<!-- RFC1280 -->
<g id="node8" class="node">
<title>RFC1280</title>
<g id="a_node8"><a xlink:href="RFC1280.html" xlink:title="This memo describes the state of standardization of protocols used in the Internet as determined by the Internet Activities Board (IAB). &#160;This memo provides information for the Internet community. &#160;It does not specify an Internet standard." target="_top">
<ellipse fill="none" stroke="black" cx="610.32" cy="-1489.03" rx="135.41" ry="40.66"/>
<text xml:space="preserve" text-anchor="middle" x="610.32" y="-1500.48" font-family="Times,serif" font-size="14.00">RFC1280</text>
<text xml:space="preserve" text-anchor="middle" x="610.32" y="-1483.98" font-family="Times,serif" font-size="14.00">IAB Official Protocol Standards</text>
<text xml:space="preserve" text-anchor="middle" x="610.32" y="-1467.48" font-family="Times,serif" font-size="14.00">1992</text>
</a>
</g>
</g>
<!-- cites&#45;&gt;RFC1280 -->
<g id="edge7" class="edge">
<title>cites&#45;&gt;RFC1280</title>
<path fill="none" stroke="black" d="M561.04,-900.09C567.79,-980.73 595.17,-1307.95 605.94,-1436.66"/>
<polygon fill="black" stroke="black" points="602.45,-1436.94 606.78,-1446.62 609.43,-1436.36 602.45,-1436.94"/>
</g>
<!-- RFC2200 -->
<g id="node9" class="node">
<title>RFC2200</title>
<g id="a_node9"><a xlink:href="RFC2200.html" xlink:title="A discussion of the standardization process and the RFC document series is presented first, followed by an explanation of the terms. &#160;Sections 6.2 &#45; 6.10 contain the lists of protocols in each stage of standardization. &#160;Finally are pointers to references and contacts for further information. [STANDARDS&#45;TRACK]" target="_top">
<ellipse fill="none" stroke="black" cx="274.03" cy="-1197.63" rx="148.67" ry="40.66"/>
<text xml:space="preserve" text-anchor="middle" x="274.03" y="-1209.08" font-family="Times,serif" font-size="14.00">RFC2200</text>
<text xml:space="preserve" text-anchor="middle" x="274.03" y="-1192.58" font-family="Times,serif" font-size="14.00">Internet Official Protocol Standards</text>
<text xml:space="preserve" text-anchor="middle" x="274.03" y="-1176.08" font-family="Times,serif" font-size="14.00">1997</text>
</a>
</g>
</g>
<!-- cites&#45;&gt;RFC2200 -->
<g id="edge8" class="edge">
<title>cites&#45;&gt;RFC2200</title>
<path fill="none" stroke="black" d="M542.94,-900.26C499.6,-948.19 381.86,-1078.39 317.49,-1149.57"/>
<polygon fill="black" stroke="black" points="315.04,-1147.06 310.93,-1156.83 320.23,-1151.76 315.04,-1147.06"/>
</g>
<!-- RFC5000 -->
<g id="node10" class="node">
<title>RFC5000</title>
<g id="a_node10"><a xlink:href="RFC5000.html" xlink:title="This document is published by the RFC Editor to provide a summary of the current standards protocols (as of 18 February 2008). It lists those official protocol standards, Best Current Practice, and Experimental RFCs that have not been obsoleted; it is not a complete index to the RFC series. Newly published RFCs and RFCs whose status has changed are starred. For an up&#45;to&#45;date list, see http://www.rfc&#45;editor.org/rfcxx00.html, which is updated daily. This memo provides information for the Internet community." target="_top">
<ellipse fill="none" stroke="black" cx="148.67" cy="-770.68" rx="148.67" ry="40.66"/>
<text xml:space="preserve" text-anchor="middle" x="148.67" y="-782.13" font-family="Times,serif" font-size="14.00">RFC5000</text>
<text xml:space="preserve" text-anchor="middle" x="148.67" y="-765.63" font-family="Times,serif" font-size="14.00">Internet Official Protocol Standards</text>
<text xml:space="preserve" text-anchor="middle" x="148.67" y="-749.13" font-family="Times,serif" font-size="14.00">2008</text>
</a>
</g>
</g>
<!-- cites&#45;&gt;RFC5000 -->
<g id="edge9" class="edge">
<title>cites&#45;&gt;RFC5000</title>
<path fill="none" stroke="black" d="M532.25,-874.53C478.86,-860.08 357.75,-827.29 265.79,-802.39"/>
<polygon fill="black" stroke="black" points="266.76,-799.02 256.19,-799.79 264.93,-805.78 266.76,-799.02"/>
</g>
<!-- RFC2026 -->
<g id="node11" class="node">
<title>RFC2026</title>
<g id="a_node11"><a xlink:href="RFC2026.html" xlink:title="This memo documents the process used by the Internet community for the standardization of protocols and procedures. &#160;It defines the stages in the standardization process, the requirements for moving a document between stages and the types of documents used during this process. &#160;This document specifies an Internet Best Current Practices for the Internet Community, and requests discussion and suggestions for improvements." target="_top">
<ellipse fill="none" stroke="black" cx="274.03" cy="-343.72" rx="139.65" ry="52.33"/>
<text xml:space="preserve" text-anchor="middle" x="274.03" y="-363.42" font-family="Times,serif" font-size="14.00">RFC2026</text>
<text xml:space="preserve" text-anchor="middle" x="274.03" y="-346.92" font-family="Times,serif" font-size="14.00">The Internet Standards Process &#45;&#45;</text>
<text xml:space="preserve" text-anchor="middle" x="274.03" y="-330.42" font-family="Times,serif" font-size="14.00">Revision 3</text>
<text xml:space="preserve" text-anchor="middle" x="274.03" y="-313.92" font-family="Times,serif" font-size="14.00">1996</text>
</a>
</g>
</g>
<!-- cites&#45;&gt;RFC2026 -->
<g id="edge10" class="edge">
<title>cites&#45;&gt;RFC2026</title>
<path fill="none" stroke="black" d="M549.86,-863.7C511.77,-791.91 370.99,-526.51 306.58,-405.08"/>
<polygon fill="black" stroke="black" points="309.82,-403.72 302.04,-396.53 303.64,-407 309.82,-403.72"/>
</g>
<!-- RFC7100 -->
<g id="node12" class="node">
<title>RFC7100</title>
<g id="a_node12"><a xlink:href="RFC7100.html" xlink:title="This document updates RFC 2026 to no longer use STD 1 as a summary of Internet Official Protocol Standards. &#160;It obsoletes RFC 5000 and requests the IESG to move RFC 5000 (and therefore STD 1) to Historic status." target="_top">
<ellipse fill="none" stroke="black" cx="610.32" cy="-52.33" rx="167.76" ry="52.33"/>
<text xml:space="preserve" text-anchor="middle" x="610.32" y="-72.03" font-family="Times,serif" font-size="14.00">RFC7100</text>
<text xml:space="preserve" text-anchor="middle" x="610.32" y="-55.53" font-family="Times,serif" font-size="14.00">Retirement of the Internet Official</text>
<text xml:space="preserve" text-anchor="middle" x="610.32" y="-39.03" font-family="Times,serif" font-size="14.00">Protocol Standards Summary Document</text>
<text xml:space="preserve" text-anchor="middle" x="610.32" y="-22.53" font-family="Times,serif" font-size="14.00">2013</text>
</a>
</g>
</g>
<!-- cites&#45;&gt;RFC7100 -->
<g id="edge11" class="edge">
<title>cites&#45;&gt;RFC7100</title>
<path fill="none" stroke="black" d="M560.65,-863.43C566.75,-763.88 595.78,-289.78 606.41,-116.19"/>
<polygon fill="black" stroke="black" points="609.89,-116.66 607.01,-106.47 602.9,-116.24 609.89,-116.66"/>
</g>
<!-- rev_cites -->
<g id="node13" class="node">
<title>rev_cites</title>
<polygon fill="lightblue" stroke="black" points="1344.25,-677.43 1290.25,-677.43 1290.25,-641.43 1344.25,-641.43 1344.25,-677.43"/>
<text xml:space="preserve" text-anchor="middle" x="1317.25" y="-654.38" font-family="Times,serif" font-size="14.00">cites</text>
</g>
<!-- rev_cites&#45;&gt;RFC7101 -->
<g id="edge12" class="edge">
<title>rev_cites&#45;&gt;RFC7101</title>
<path fill="none" stroke="black" d="M1290,-667.43C1249.57,-679.3 1170.62,-702.49 1097.75,-723.88"/>
<polygon fill="black" stroke="black" points="1097.11,-720.42 1088.5,-726.6 1099.08,-727.14 1097.11,-720.42"/>
</g>
</g>
</svg>
