<?xml version="1.0" encoding="UTF-8" standalone="no"?>
<!DOCTYPE svg PUBLIC "-//W3C//DTD SVG 1.1//EN"
 "http://www.w3.org/Graphics/SVG/1.1/DTD/svg11.dtd">
<!-- Generated by graphviz version 14.1.1 (20251213.1925)
 -->
<!-- Title: Flow Pages: 1 -->
<svg width="1175pt" height="1287pt"
 viewBox="0.00 0.00 1175.00 1287.00" xmlns="http://www.w3.org/2000/svg" xmlns:xlink="http://www.w3.org/1999/xlink">
<g id="graph0" class="graph" transform="scale(1 1) rotate(0) translate(4 1282.65)">
<title>Flow</title>
<polygon fill="white" stroke="none" points="-4,4 -4,-1282.65 1170.94,-1282.65 1170.94,4 -4,4"/>
<!-- RFC7578 -->
<g id="node1" class="node">
<title>RFC7578</title>
<g id="a_node1"><a xlink:title="This specification defines the multipart/form&#45;data media type, which can be used by a wide variety of applications and transported by a wide variety of protocols as a way of returning a set of values as the result of a user filling out a form. &#160;This document obsoletes RFC 2388.">
<ellipse fill="green" stroke="black" cx="560.67" cy="-992.33" rx="129.05" ry="52.33"/>
<text xml:space="preserve" text-anchor="middle" x="560.67" y="-1012.03" font-family="Times,serif" font-size="14.00">RFC7578</text>
<text xml:space="preserve" text-anchor="middle" x="560.67" y="-995.53" font-family="Times,serif" font-size="14.00">Returning Values from Forms:</text>
<text xml:space="preserve" text-anchor="middle" x="560.67" y="-979.03" font-family="Times,serif" font-size="14.00">multipart/form&#45;data</text>
<text xml:space="preserve" text-anchor="middle" x="560.67" y="-962.53" font-family="Times,serif" font-size="14.00">2015</text>
</a>
</g>
</g>
<!-- obs -->
<g id="node3" class="node">
<title>obs</title>
<polygon fill="lightblue" stroke="black" points="780.96,-1154.33 714.71,-1154.33 714.71,-1118.33 780.96,-1118.33 780.96,-1154.33"/>
<text xml:space="preserve" text-anchor="middle" x="747.84" y="-1131.28" font-family="Times,serif" font-size="14.00">obsoletes</text>
</g>
<!-- RFC7578&#45;&gt;obs -->
<g id="edge2" class="edge">
<title>RFC7578&#45;&gt;obs</title>
<path fill="none" stroke="black" d="M621.53,-1038.88C652.4,-1062.88 688.83,-1091.22 714.44,-1111.13"/>
<polygon fill="black" stroke="black" points="712.11,-1113.75 722.15,-1117.13 716.41,-1108.23 712.11,-1113.75"/>
</g>
<!-- updates -->
<g id="node5" class="node">
<title>updates</title>
<polygon fill="lightyellow" stroke="black" points="776.46,-1010.33 719.21,-1010.33 719.21,-974.33 776.46,-974.33 776.46,-1010.33"/>
<text xml:space="preserve" text-anchor="middle" x="747.84" y="-987.28" font-family="Times,serif" font-size="14.00">updates</text>
</g>
<!-- RFC7578&#45;&gt;updates -->
<g id="edge4" class="edge">
<title>RFC7578&#45;&gt;updates</title>
<path fill="none" stroke="black" d="M690.02,-992.33C696.11,-992.33 701.96,-992.33 707.42,-992.33"/>
<polygon fill="black" stroke="black" points="707.24,-995.83 717.24,-992.33 707.24,-988.83 707.24,-995.83"/>
</g>
<!-- cites -->
<g id="node7" class="node">
<title>cites</title>
<polygon fill="lightblue" stroke="black" points="774.84,-776.33 720.84,-776.33 720.84,-740.33 774.84,-740.33 774.84,-776.33"/>
<text xml:space="preserve" text-anchor="middle" x="747.84" y="-753.28" font-family="Times,serif" font-size="14.00">cites</text>
</g>
<!-- RFC7578&#45;&gt;cites -->
<g id="edge6" class="edge">
<title>RFC7578&#45;&gt;cites</title>
<path fill="none" stroke="black" d="M601.16,-942.41C639.06,-894.53 694.87,-823.99 725.24,-785.63"/>
<polygon fill="black" stroke="black" points="727.98,-787.8 731.44,-777.78 722.49,-783.45 727.98,-787.8"/>
</g>
<!-- obs_by -->
<g id="node2" class="node">
<title>obs_by</title>
<polygon fill="lightblue" stroke="black" points="406.62,-1064.33 340.37,-1064.33 340.37,-1028.33 406.62,-1028.33 406.62,-1064.33"/>
<text xml:space="preserve" text-anchor="middle" x="373.49" y="-1041.28" font-family="Times,serif" font-size="14.00">obsoletes</text>
</g>
<!-- obs_by&#45;&gt;RFC7578 -->
<g id="edge1" class="edge">
<title>obs_by&#45;&gt;RFC7578</title>
<path fill="none" stroke="black" d="M406.75,-1036.92C417.62,-1033.75 430.46,-1030 444.01,-1026.05"/>
<polygon fill="black" stroke="black" points="444.93,-1029.43 453.55,-1023.27 442.97,-1022.71 444.93,-1029.43"/>
</g>
<!-- RFC2388 -->
<g id="node4" class="node">
<title>RFC2388</title>
<g id="a_node4"><a xlink:href="RFC2388.html" xlink:title="This specification defines an Internet Media Type, multipart/form&#45;data, which can be used by a wide variety of applications and transported by a wide variety of protocols as a way of returning a set of values as the result of a user filling out a form. [STANDARDS&#45;TRACK]" target="_top">
<ellipse fill="none" stroke="black" cx="986.45" cy="-1226.33" rx="129.05" ry="52.33"/>
<text xml:space="preserve" text-anchor="middle" x="986.45" y="-1246.03" font-family="Times,serif" font-size="14.00">RFC2388</text>
<text xml:space="preserve" text-anchor="middle" x="986.45" y="-1229.53" font-family="Times,serif" font-size="14.00">Returning Values from Forms:</text>
<text xml:space="preserve" text-anchor="middle" x="986.45" y="-1213.03" font-family="Times,serif" font-size="14.00">multipart/form&#45;data</text>
<text xml:space="preserve" text-anchor="middle" x="986.45" y="-1196.53" font-family="Times,serif" font-size="14.00">1998</text>
</a>
</g>
</g>
<!-- obs&#45;&gt;RFC2388 -->
<g id="edge3" class="edge">
<title>obs&#45;&gt;RFC2388</title>
<path fill="none" stroke="black" d="M781.39,-1153.85C789.33,-1157.85 797.87,-1161.91 805.96,-1165.33 827.21,-1174.27 850.26,-1182.89 872.55,-1190.69"/>
<polygon fill="black" stroke="black" points="871.39,-1193.99 881.98,-1193.96 873.68,-1187.38 871.39,-1193.99"/>
</g>
<!-- updated_by -->
<g id="node6" class="node">
<title>updated_by</title>
<polygon fill="lightyellow" stroke="black" points="402.12,-1010.33 344.87,-1010.33 344.87,-974.33 402.12,-974.33 402.12,-1010.33"/>
<text xml:space="preserve" text-anchor="middle" x="373.49" y="-987.28" font-family="Times,serif" font-size="14.00">updates</text>
</g>
<!-- updated_by&#45;&gt;RFC7578 -->
<g id="edge5" class="edge">
<title>updated_by&#45;&gt;RFC7578</title>
<path fill="none" stroke="black" d="M402.62,-992.33C407.87,-992.33 413.66,-992.33 419.84,-992.33"/>
<polygon fill="black" stroke="black" points="419.83,-995.83 429.83,-992.33 419.83,-988.83 419.83,-995.83"/>
</g>
<!-- cites&#45;&gt;RFC2388 -->
<g id="edge13" class="edge">
<title>cites&#45;&gt;RFC2388</title>
<path fill="none" stroke="black" d="M751.86,-776.57C757.77,-812.61 771.18,-895.45 780.96,-965.33 787.18,-1009.68 777.67,-1130.6 805.96,-1165.33 819.18,-1181.55 836.9,-1193.47 856.08,-1202.24"/>
<polygon fill="black" stroke="black" points="854.57,-1205.4 865.14,-1206.07 857.3,-1198.95 854.57,-1205.4"/>
</g>
<!-- RFC1867 -->
<g id="node8" class="node">
<title>RFC1867</title>
<g id="a_node8"><a xlink:href="RFC1867.html" xlink:title="Since file&#45;upload is a feature that will benefit many applications, this proposes an extension to HTML to allow information providers to express file upload requests uniformly, and a MIME compatible representation for file upload responses. &#160;This memo defines an Experimental Protocol for the Internet community." target="_top">
<ellipse fill="none" stroke="black" cx="986.45" cy="-1115.33" rx="146.02" ry="40.66"/>
<text xml:space="preserve" text-anchor="middle" x="986.45" y="-1126.78" font-family="Times,serif" font-size="14.00">RFC1867</text>
<text xml:space="preserve" text-anchor="middle" x="986.45" y="-1110.28" font-family="Times,serif" font-size="14.00">Form&#45;based File Upload in HTML</text>
<text xml:space="preserve" text-anchor="middle" x="986.45" y="-1093.78" font-family="Times,serif" font-size="14.00">1995</text>
</a>
</g>
</g>
<!-- cites&#45;&gt;RFC1867 -->
<g id="edge7" class="edge">
<title>cites&#45;&gt;RFC1867</title>
<path fill="none" stroke="black" d="M751.72,-776.78C761.89,-841.44 796.03,-1054.48 805.96,-1065.33 816.7,-1077.05 829.94,-1086.12 844.31,-1093.11"/>
<polygon fill="black" stroke="black" points="842.49,-1096.13 853.04,-1097.02 845.34,-1089.74 842.49,-1096.13"/>
</g>
<!-- RFC2119 -->
<g id="node9" class="node">
<title>RFC2119</title>
<g id="a_node9"><a xlink:href="RFC2119.html" xlink:title="In many standards track documents several words are used to signify the requirements in the specification. &#160;These words are often capitalized. &#160;This document defines these words as they should be interpreted in IETF documents. &#160;This document specifies an Internet Best Current Practices for the Internet Community, and requests discussion and suggestions for improvements." target="_top">
<ellipse fill="none" stroke="black" cx="986.45" cy="-1004.33" rx="160.34" ry="52.33"/>
<text xml:space="preserve" text-anchor="middle" x="986.45" y="-1024.03" font-family="Times,serif" font-size="14.00">RFC2119</text>
<text xml:space="preserve" text-anchor="middle" x="986.45" y="-1007.53" font-family="Times,serif" font-size="14.00">Key words for use in RFCs to Indicate</text>
<text xml:space="preserve" text-anchor="middle" x="986.45" y="-991.03" font-family="Times,serif" font-size="14.00">Requirement Levels</text>
<text xml:space="preserve" text-anchor="middle" x="986.45" y="-974.53" font-family="Times,serif" font-size="14.00">1997</text>
</a>
</g>
</g>
<!-- cites&#45;&gt;RFC2119 -->
<g id="edge8" class="edge">
<title>cites&#45;&gt;RFC2119</title>
<path fill="none" stroke="black" d="M749.29,-776.71C751.19,-813.24 760.58,-895.48 805.96,-942.33 816.67,-953.38 829.44,-962.46 843.16,-969.92"/>
<polygon fill="black" stroke="black" points="841.46,-972.98 851.96,-974.39 844.63,-966.74 841.46,-972.98"/>
</g>
<!-- RFC3986 -->
<g id="node10" class="node">
<title>RFC3986</title>
<g id="a_node10"><a xlink:href="RFC3986.html" xlink:title="A Uniform Resource Identifier (URI) is a compact sequence of characters that identifies an abstract or physical resource. &#160;This specification defines the generic URI syntax and a process for resolving URI references that might be in relative form, along with guidelines and security considerations for the use of URIs on the Internet. &#160;The URI syntax defines a grammar that is a superset of all valid URIs, allowing an implementation to parse the common components of a URI reference without knowing the scheme&#45;specific requirements of every possible identifier. &#160;This specification does not define a generative grammar for URIs; that task is performed by the individual specifications of each URI scheme. [STANDARDS&#45;TRACK]" target="_top">
<ellipse fill="none" stroke="black" cx="986.45" cy="-881.33" rx="149.2" ry="52.33"/>
<text xml:space="preserve" text-anchor="middle" x="986.45" y="-901.03" font-family="Times,serif" font-size="14.00">RFC3986</text>
<text xml:space="preserve" text-anchor="middle" x="986.45" y="-884.53" font-family="Times,serif" font-size="14.00">Uniform Resource Identifier (URI):</text>
<text xml:space="preserve" text-anchor="middle" x="986.45" y="-868.03" font-family="Times,serif" font-size="14.00">Generic Syntax</text>
<text xml:space="preserve" text-anchor="middle" x="986.45" y="-851.53" font-family="Times,serif" font-size="14.00">2005</text>
</a>
</g>
</g>
<!-- cites&#45;&gt;RFC3986 -->
<g id="edge9" class="edge">
<title>cites&#45;&gt;RFC3986</title>
<path fill="none" stroke="black" d="M762.01,-776.61C772.55,-790.08 788.43,-807.96 805.96,-819.33 821.57,-829.45 839.02,-838.12 856.74,-845.49"/>
<polygon fill="black" stroke="black" points="855.2,-848.65 865.78,-849.12 857.8,-842.15 855.2,-848.65"/>
</g>
<!-- RFC2046 -->
<g id="node11" class="node">
<title>RFC2046</title>
<g id="a_node11"><a xlink:href="RFC2046.html" xlink:title="This second document defines the general structure of the MIME media typing system and defines an initial set of media types. [STANDARDS&#45;TRACK]" target="_top">
<ellipse fill="none" stroke="black" cx="986.45" cy="-758.33" rx="161.4" ry="52.33"/>
<text xml:space="preserve" text-anchor="middle" x="986.45" y="-778.03" font-family="Times,serif" font-size="14.00">RFC2046</text>
<text xml:space="preserve" text-anchor="middle" x="986.45" y="-761.53" font-family="Times,serif" font-size="14.00">Multipurpose Internet Mail Extensions</text>
<text xml:space="preserve" text-anchor="middle" x="986.45" y="-745.03" font-family="Times,serif" font-size="14.00">(MIME) Part Two: Media Types</text>
<text xml:space="preserve" text-anchor="middle" x="986.45" y="-728.53" font-family="Times,serif" font-size="14.00">1996</text>
</a>
</g>
</g>
<!-- cites&#45;&gt;RFC2046 -->
<g id="edge10" class="edge">
<title>cites&#45;&gt;RFC2046</title>
<path fill="none" stroke="black" d="M775.06,-758.33C785.66,-758.33 798.83,-758.33 813.38,-758.33"/>
<polygon fill="black" stroke="black" points="813.25,-761.83 823.25,-758.33 813.25,-754.83 813.25,-761.83"/>
</g>
<!-- RFC2183 -->
<g id="node12" class="node">
<title>RFC2183</title>
<g id="a_node12"><a xlink:href="RFC2183.html" xlink:title="This memo provides a mechanism whereby messages conforming to the MIME specifications [RFC 2045, RFC 2046, RFC 2047, RFC 2048, RFC 2049] can convey presentational information. &#160;It specifies the Content&#45; Disposition header field, which is optional and valid for any MIME entity (message or body part). [STANDARDS&#45;TRACK]" target="_top">
<ellipse fill="none" stroke="black" cx="986.45" cy="-624.33" rx="172.53" ry="63.99"/>
<text xml:space="preserve" text-anchor="middle" x="986.45" y="-652.28" font-family="Times,serif" font-size="14.00">RFC2183</text>
<text xml:space="preserve" text-anchor="middle" x="986.45" y="-635.78" font-family="Times,serif" font-size="14.00">Communicating Presentation Information</text>
<text xml:space="preserve" text-anchor="middle" x="986.45" y="-619.28" font-family="Times,serif" font-size="14.00">in Internet Messages: The Content&#45;</text>
<text xml:space="preserve" text-anchor="middle" x="986.45" y="-602.78" font-family="Times,serif" font-size="14.00">Disposition Header Field</text>
<text xml:space="preserve" text-anchor="middle" x="986.45" y="-586.28" font-family="Times,serif" font-size="14.00">1997</text>
</a>
</g>
</g>
<!-- cites&#45;&gt;RFC2183 -->
<g id="edge11" class="edge">
<title>cites&#45;&gt;RFC2183</title>
<path fill="none" stroke="black" d="M762.41,-740.03C773.04,-726.74 788.87,-709.08 805.96,-697.33 819.14,-688.27 833.61,-680.06 848.44,-672.69"/>
<polygon fill="black" stroke="black" points="849.9,-675.87 857.39,-668.38 846.86,-669.57 849.9,-675.87"/>
</g>
<!-- RFC5987 -->
<g id="node13" class="node">
<title>RFC5987</title>
<g id="a_node13"><a xlink:href="RFC5987.html" xlink:title="By default, message header field parameters in Hypertext Transfer Protocol (HTTP) messages cannot carry characters outside the ISO&#45; 8859&#45;1 character set. &#160;RFC 2231 defines an encoding mechanism for use in Multipurpose Internet Mail Extensions (MIME) headers. &#160;This document specifies an encoding suitable for use in HTTP header fields that is compatible with a profile of the encoding defined in RFC 2231. [STANDARDS&#45;TRACK]" target="_top">
<ellipse fill="none" stroke="black" cx="986.45" cy="-478.33" rx="173.06" ry="63.99"/>
<text xml:space="preserve" text-anchor="middle" x="986.45" y="-506.28" font-family="Times,serif" font-size="14.00">RFC5987</text>
<text xml:space="preserve" text-anchor="middle" x="986.45" y="-489.78" font-family="Times,serif" font-size="14.00">Character Set and Language Encoding for</text>
<text xml:space="preserve" text-anchor="middle" x="986.45" y="-473.28" font-family="Times,serif" font-size="14.00">Hypertext Transfer Protocol (HTTP)</text>
<text xml:space="preserve" text-anchor="middle" x="986.45" y="-456.78" font-family="Times,serif" font-size="14.00">Header Field Parameters</text>
<text xml:space="preserve" text-anchor="middle" x="986.45" y="-440.28" font-family="Times,serif" font-size="14.00">2010</text>
</a>
</g>
</g>
<!-- cites&#45;&gt;RFC5987 -->
<g id="edge12" class="edge">
<title>cites&#45;&gt;RFC5987</title>
<path fill="none" stroke="black" d="M748.75,-740.06C749.53,-700.62 756.79,-606.62 805.96,-551.33 815.58,-540.51 827.04,-531.27 839.45,-523.37"/>
<polygon fill="black" stroke="black" points="841.02,-526.51 847.8,-518.37 837.42,-520.5 841.02,-526.51"/>
</g>
<!-- RFC2047 -->
<g id="node14" class="node">
<title>RFC2047</title>
<g id="a_node14"><a xlink:href="RFC2047.html" xlink:title="This particular document is the third document in the series. &#160;It describes extensions to RFC 822 to allow non&#45;US&#45;ASCII text data in Internet mail header fields. [STANDARDS&#45;TRACK]" target="_top">
<ellipse fill="none" stroke="black" cx="986.45" cy="-332.33" rx="168.29" ry="63.99"/>
<text xml:space="preserve" text-anchor="middle" x="986.45" y="-360.28" font-family="Times,serif" font-size="14.00">RFC2047</text>
<text xml:space="preserve" text-anchor="middle" x="986.45" y="-343.78" font-family="Times,serif" font-size="14.00">MIME (Multipurpose Internet Mail</text>
<text xml:space="preserve" text-anchor="middle" x="986.45" y="-327.28" font-family="Times,serif" font-size="14.00">Extensions) Part Three: Message Header</text>
<text xml:space="preserve" text-anchor="middle" x="986.45" y="-310.78" font-family="Times,serif" font-size="14.00">Extensions for Non&#45;ASCII Text</text>
<text xml:space="preserve" text-anchor="middle" x="986.45" y="-294.28" font-family="Times,serif" font-size="14.00">1996</text>
</a>
</g>
</g>
<!-- cites&#45;&gt;RFC2047 -->
<g id="edge14" class="edge">
<title>cites&#45;&gt;RFC2047</title>
<path fill="none" stroke="black" d="M749.49,-739.91C752.13,-675.02 764,-458.02 805.96,-405.33 815.23,-393.69 826.65,-383.89 839.21,-375.65"/>
<polygon fill="black" stroke="black" points="841.03,-378.64 847.73,-370.43 837.37,-372.67 841.03,-378.64"/>
</g>
<!-- RFC2231 -->
<g id="node15" class="node">
<title>RFC2231</title>
<g id="a_node15"><a xlink:href="RFC2231.html" xlink:title="This memo defines extensions to the RFC 2045 media type and RFC 2183 disposition parameter value mechanisms. &#160;This memo also defines an extension to the encoded words defined in RFC 2047 to allow the specification of the language to be used for display as well as the character set. [STANDARDS&#45;TRACK]" target="_top">
<ellipse fill="none" stroke="black" cx="986.45" cy="-186.33" rx="180.49" ry="63.99"/>
<text xml:space="preserve" text-anchor="middle" x="986.45" y="-214.28" font-family="Times,serif" font-size="14.00">RFC2231</text>
<text xml:space="preserve" text-anchor="middle" x="986.45" y="-197.78" font-family="Times,serif" font-size="14.00">MIME Parameter Value and Encoded Word</text>
<text xml:space="preserve" text-anchor="middle" x="986.45" y="-181.28" font-family="Times,serif" font-size="14.00">Extensions: Character Sets, Languages,</text>
<text xml:space="preserve" text-anchor="middle" x="986.45" y="-164.78" font-family="Times,serif" font-size="14.00">and Continuations</text>
<text xml:space="preserve" text-anchor="middle" x="986.45" y="-148.28" font-family="Times,serif" font-size="14.00">1997</text>
</a>
</g>
</g>
<!-- cites&#45;&gt;RFC2231 -->
<g id="edge15" class="edge">
<title>cites&#45;&gt;RFC2231</title>
<path fill="none" stroke="black" d="M748.52,-739.99C747.46,-659.38 747.05,-336.94 805.96,-259.33 813.99,-248.75 823.8,-239.71 834.66,-231.97"/>
<polygon fill="black" stroke="black" points="836.35,-235.04 842.76,-226.6 832.49,-229.21 836.35,-235.04"/>
</g>
<!-- RFC6838 -->
<g id="node16" class="node">
<title>RFC6838</title>
<g id="a_node16"><a xlink:href="RFC6838.html" xlink:title="This document defines procedures for the specification and registration of media types for use in HTTP, MIME, and other Internet protocols. &#160;This memo documents an Internet Best Current Practice." target="_top">
<ellipse fill="none" stroke="black" cx="986.45" cy="-52.33" rx="131.17" ry="52.33"/>
<text xml:space="preserve" text-anchor="middle" x="986.45" y="-72.03" font-family="Times,serif" font-size="14.00">RFC6838</text>
<text xml:space="preserve" text-anchor="middle" x="986.45" y="-55.53" font-family="Times,serif" font-size="14.00">Media Type Specifications and</text>
<text xml:space="preserve" text-anchor="middle" x="986.45" y="-39.03" font-family="Times,serif" font-size="14.00">Registration Procedures</text>
<text xml:space="preserve" text-anchor="middle" x="986.45" y="-22.53" font-family="Times,serif" font-size="14.00">2013</text>
</a>
</g>
</g>
<!-- cites&#45;&gt;RFC6838 -->
<g id="edge16" class="edge">
<title>cites&#45;&gt;RFC6838</title>
<path fill="none" stroke="black" d="M749.28,-740C751.87,-640.12 766.21,-163.94 805.96,-113.33 818.57,-97.27 835.6,-85.42 854.18,-76.67"/>
<polygon fill="black" stroke="black" points="855.47,-79.92 863.25,-72.73 852.68,-73.5 855.47,-79.92"/>
</g>
<!-- rev_cites -->
<g id="node17" class="node">
<title>rev_cites</title>
<polygon fill="lightblue" stroke="black" points="400.49,-956.33 346.49,-956.33 346.49,-920.33 400.49,-920.33 400.49,-956.33"/>
<text xml:space="preserve" text-anchor="middle" x="373.49" y="-933.28" font-family="Times,serif" font-size="14.00">cites</text>
</g>
<!-- rev_cites&#45;&gt;RFC7578 -->
<g id="edge17" class="edge">
<title>rev_cites&#45;&gt;RFC7578</title>
<path fill="none" stroke="black" d="M400.63,-945.95C412.74,-949.48 428.04,-953.94 444.35,-958.7"/>
<polygon fill="black" stroke="black" points="443.15,-961.99 453.73,-961.43 445.11,-955.27 443.15,-961.99"/>
</g>
<!-- RFC8058 -->
<g id="node18" class="node">
<title>RFC8058</title>
<g id="a_node18"><a xlink:href="RFC8058.html" xlink:title="This document describes a method for signaling a one&#45;click function for the List&#45;Unsubscribe email header field. &#160;The need for this arises out of the actuality that mail software sometimes fetches URLs in mail header fields, and thereby accidentally triggers unsubscriptions in the case of the List&#45;Unsubscribe header field." target="_top">
<ellipse fill="none" stroke="black" cx="157.68" cy="-1072.33" rx="157.68" ry="52.33"/>
<text xml:space="preserve" text-anchor="middle" x="157.68" y="-1092.03" font-family="Times,serif" font-size="14.00">RFC8058</text>
<text xml:space="preserve" text-anchor="middle" x="157.68" y="-1075.53" font-family="Times,serif" font-size="14.00">Signaling One&#45;Click Functionality for</text>
<text xml:space="preserve" text-anchor="middle" x="157.68" y="-1059.03" font-family="Times,serif" font-size="14.00">List Email Headers</text>
<text xml:space="preserve" text-anchor="middle" x="157.68" y="-1042.53" font-family="Times,serif" font-size="14.00">2017</text>
</a>
</g>
</g>
<!-- RFC8058&#45;&gt;rev_cites -->
<g id="edge18" class="edge">
<title>RFC8058&#45;&gt;rev_cites</title>
<path fill="none" stroke="black" d="M276.1,-1037.38C290.24,-1030.16 303.76,-1021.55 315.37,-1011.33 332.83,-995.95 325.65,-983.35 340.37,-965.33 340.53,-965.14 340.68,-964.95 340.84,-964.76"/>
<polygon fill="black" stroke="black" points="343.27,-967.28 347.66,-957.63 338.21,-962.44 343.27,-967.28"/>
</g>
<!-- RFC8187 -->
<g id="node19" class="node">
<title>RFC8187</title>
<g id="a_node19"><a xlink:href="RFC8187.html" xlink:title="By default, header field values in Hypertext Transfer Protocol (HTTP) messages cannot easily carry characters outside the US&#45;ASCII coded character set. RFC 2231 defines an encoding mechanism for use in parameters inside Multipurpose Internet Mail Extensions (MIME) header field values. This document specifies an encoding suitable for use in HTTP header fields that is compatible with a simplified profile of the encoding defined in RFC 2231. This document obsoletes RFC 5987." target="_top">
<ellipse fill="none" stroke="black" cx="157.68" cy="-938.33" rx="145.49" ry="63.99"/>
<text xml:space="preserve" text-anchor="middle" x="157.68" y="-966.28" font-family="Times,serif" font-size="14.00">RFC8187</text>
<text xml:space="preserve" text-anchor="middle" x="157.68" y="-949.78" font-family="Times,serif" font-size="14.00">Indicating Character Encoding and</text>
<text xml:space="preserve" text-anchor="middle" x="157.68" y="-933.28" font-family="Times,serif" font-size="14.00">Language for HTTP Header Field</text>
<text xml:space="preserve" text-anchor="middle" x="157.68" y="-916.78" font-family="Times,serif" font-size="14.00">Parameters</text>
<text xml:space="preserve" text-anchor="middle" x="157.68" y="-900.28" font-family="Times,serif" font-size="14.00">2017</text>
</a>
</g>
</g>
<!-- RFC8187&#45;&gt;rev_cites -->
<g id="edge19" class="edge">
<title>RFC8187&#45;&gt;rev_cites</title>
<path fill="none" stroke="black" d="M303.67,-938.33C314.85,-938.33 325.4,-938.33 334.72,-938.33"/>
<polygon fill="black" stroke="black" points="334.7,-941.83 344.7,-938.33 334.7,-934.83 334.7,-941.83"/>
</g>
<!-- RFC9110 -->
<g id="node20" class="node">
<title>RFC9110</title>
<g id="a_node20"><a xlink:href="RFC9110.html" xlink:title="The Hypertext Transfer Protocol (HTTP) is a stateless application&#45;level protocol for distributed, collaborative, hypertext information systems. This document describes the overall architecture of HTTP, establishes common terminology, and defines aspects of the protocol that are shared by all versions. In this definition are core protocol elements, extensibility mechanisms, and the http and https Uniform Resource Identifier (URI) schemes. This document updates RFC 3864 and obsoletes RFCs 2818, 7231, 7232, 7233, 7235, 7538, 7615, 7694, and portions of 7230." target="_top">
<ellipse fill="none" stroke="black" cx="157.68" cy="-815.33" rx="77.07" ry="40.66"/>
<text xml:space="preserve" text-anchor="middle" x="157.68" y="-826.78" font-family="Times,serif" font-size="14.00">RFC9110</text>
<text xml:space="preserve" text-anchor="middle" x="157.68" y="-810.28" font-family="Times,serif" font-size="14.00">HTTP Semantics</text>
<text xml:space="preserve" text-anchor="middle" x="157.68" y="-793.78" font-family="Times,serif" font-size="14.00">2022</text>
</a>
</g>
</g>
<!-- RFC9110&#45;&gt;rev_cites -->
<g id="edge20" class="edge">
<title>RFC9110&#45;&gt;rev_cites</title>
<path fill="none" stroke="black" d="M230.65,-828.69C258.8,-836.28 290.29,-847.88 315.37,-865.33 332.17,-877.01 346.37,-895.1 356.41,-910.34"/>
<polygon fill="black" stroke="black" points="353.3,-911.97 361.59,-918.57 359.23,-908.25 353.3,-911.97"/>
</g>
</g>
</svg>
