<?xml version="1.0" encoding="UTF-8" standalone="no"?>
<!DOCTYPE svg PUBLIC "-//W3C//DTD SVG 1.1//EN"
 "http://www.w3.org/Graphics/SVG/1.1/DTD/svg11.dtd">
<!-- Generated by graphviz version 14.1.1 (20251213.1925)
 -->
<!-- Title: Flow Pages: 1 -->
<svg width="1315pt" height="901pt"
 viewBox="0.00 0.00 1315.00 901.00" xmlns="http://www.w3.org/2000/svg" xmlns:xlink="http://www.w3.org/1999/xlink">
<g id="graph0" class="graph" transform="scale(1 1) rotate(0) translate(4 897.32)">
<title>Flow</title>
<polygon fill="white" stroke="none" points="-4,4 -4,-897.32 1310.95,-897.32 1310.95,4 -4,4"/>
<!-- RFC7848 -->
<g id="node1" class="node">
<title>RFC7848</title>
<g id="a_node1"><a xlink:title="Domain Name Registries (DNRs) may operate in special modes for certain periods of time, enabling trademark holders to protect their rights during the introduction of a Top&#45;Level Domain (TLD). One of those special modes of operation is the Sunrise Period. The Sunrise Period allows trademark holders an advance opportunity to register domain names corresponding to their trademarks before names are generally available to the public. This document describes the format of a mark and a digitally signed mark used by trademark holders for registering domain names during the Sunrise Period of generic Top&#45;Level Domains (gTLDs). Three types of Mark objects are defined in this specification: registered trademarks, court&#45;validated marks, and marks protected by statue or treaty.">
<ellipse fill="none" stroke="black" cx="649.76" cy="-494.66" rx="171.47" ry="40.66"/>
<text xml:space="preserve" text-anchor="middle" x="649.76" y="-506.11" font-family="Times,serif" font-size="14.00">RFC7848</text>
<text xml:space="preserve" text-anchor="middle" x="649.76" y="-489.61" font-family="Times,serif" font-size="14.00">Mark and Signed Mark Objects Mapping</text>
<text xml:space="preserve" text-anchor="middle" x="649.76" y="-473.11" font-family="Times,serif" font-size="14.00">2016</text>
</a>
</g>
</g>
<!-- obs -->
<g id="node3" class="node">
<title>obs</title>
<polygon fill="none" stroke="black" points="912.49,-566.66 846.24,-566.66 846.24,-530.66 912.49,-530.66 912.49,-566.66"/>
<text xml:space="preserve" text-anchor="middle" x="879.36" y="-543.61" font-family="Times,serif" font-size="14.00">obsoletes</text>
</g>
<!-- RFC7848&#45;&gt;obs -->
<g id="edge2" class="edge">
<title>RFC7848&#45;&gt;obs</title>
<path fill="none" stroke="black" d="M772.22,-523.48C794.75,-528.82 816.87,-534.07 835.04,-538.38"/>
<polygon fill="black" stroke="black" points="834.08,-541.75 844.62,-540.65 835.7,-534.94 834.08,-541.75"/>
</g>
<!-- updates -->
<g id="node4" class="node">
<title>updates</title>
<polygon fill="none" stroke="black" points="907.99,-512.66 850.74,-512.66 850.74,-476.66 907.99,-476.66 907.99,-512.66"/>
<text xml:space="preserve" text-anchor="middle" x="879.36" y="-489.61" font-family="Times,serif" font-size="14.00">updates</text>
</g>
<!-- RFC7848&#45;&gt;updates -->
<g id="edge3" class="edge">
<title>RFC7848&#45;&gt;updates</title>
<path fill="none" stroke="black" d="M821.51,-494.66C827.71,-494.66 833.59,-494.66 839.07,-494.66"/>
<polygon fill="black" stroke="black" points="838.85,-498.16 848.85,-494.66 838.85,-491.16 838.85,-498.16"/>
</g>
<!-- cites -->
<g id="node6" class="node">
<title>cites</title>
<polygon fill="none" stroke="black" points="906.36,-458.66 852.36,-458.66 852.36,-422.66 906.36,-422.66 906.36,-458.66"/>
<text xml:space="preserve" text-anchor="middle" x="879.36" y="-435.61" font-family="Times,serif" font-size="14.00">cites</text>
</g>
<!-- RFC7848&#45;&gt;cites -->
<g id="edge5" class="edge">
<title>RFC7848&#45;&gt;cites</title>
<path fill="none" stroke="black" d="M772.22,-465.84C797.14,-459.93 821.56,-454.14 840.68,-449.6"/>
<polygon fill="black" stroke="black" points="841.47,-453.01 850.39,-447.3 839.85,-446.2 841.47,-453.01"/>
</g>
<!-- obs_by -->
<g id="node2" class="node">
<title>obs_by</title>
<polygon fill="none" stroke="black" points="453.29,-566.66 387.04,-566.66 387.04,-530.66 453.29,-530.66 453.29,-566.66"/>
<text xml:space="preserve" text-anchor="middle" x="420.16" y="-543.61" font-family="Times,serif" font-size="14.00">obsoletes</text>
</g>
<!-- obs_by&#45;&gt;RFC7848 -->
<g id="edge1" class="edge">
<title>obs_by&#45;&gt;RFC7848</title>
<path fill="none" stroke="black" d="M453.77,-540.92C470.8,-536.88 492.9,-531.64 516.06,-526.14"/>
<polygon fill="black" stroke="black" points="516.74,-529.58 525.66,-523.86 515.13,-522.77 516.74,-529.58"/>
</g>
<!-- updated_by -->
<g id="node5" class="node">
<title>updated_by</title>
<polygon fill="none" stroke="black" points="448.79,-512.66 391.54,-512.66 391.54,-476.66 448.79,-476.66 448.79,-512.66"/>
<text xml:space="preserve" text-anchor="middle" x="420.16" y="-489.61" font-family="Times,serif" font-size="14.00">updates</text>
</g>
<!-- updated_by&#45;&gt;RFC7848 -->
<g id="edge4" class="edge">
<title>updated_by&#45;&gt;RFC7848</title>
<path fill="none" stroke="black" d="M449.07,-494.66C454.39,-494.66 460.32,-494.66 466.69,-494.66"/>
<polygon fill="black" stroke="black" points="466.31,-498.16 476.31,-494.66 466.31,-491.16 466.31,-498.16"/>
</g>
<!-- RFC5730 -->
<g id="node7" class="node">
<title>RFC5730</title>
<g id="a_node7"><a xlink:href="RFC5730.html" xlink:title="This document describes an application&#45;layer client&#45;server protocol for the provisioning and management of objects stored in a shared central repository. &#160;Specified in XML, the protocol defines generic object management operations and an extensible framework that maps protocol operations to objects. &#160;This document includes a protocol specification, an object mapping template, and an XML media type registration. &#160;This document obsoletes RFC 4930. [STANDARDS&#45;TRACK]" target="_top">
<ellipse fill="none" stroke="black" cx="1122.22" cy="-852.66" rx="163.52" ry="40.66"/>
<text xml:space="preserve" text-anchor="middle" x="1122.22" y="-864.11" font-family="Times,serif" font-size="14.00">RFC5730</text>
<text xml:space="preserve" text-anchor="middle" x="1122.22" y="-847.61" font-family="Times,serif" font-size="14.00">Extensible Provisioning Protocol (EPP)</text>
<text xml:space="preserve" text-anchor="middle" x="1122.22" y="-831.11" font-family="Times,serif" font-size="14.00">2009</text>
</a>
</g>
</g>
<!-- cites&#45;&gt;RFC5730 -->
<g id="edge6" class="edge">
<title>cites&#45;&gt;RFC5730</title>
<path fill="none" stroke="black" d="M906.36,-459C908.77,-461.65 910.89,-464.55 912.49,-467.66 946.51,-534.11 889.98,-745.07 937.49,-802.66 946.03,-813.02 956.49,-821.35 968.05,-828.03"/>
<polygon fill="black" stroke="black" points="966.17,-831 976.65,-832.57 969.43,-824.81 966.17,-831"/>
</g>
<!-- RFC2119 -->
<g id="node8" class="node">
<title>RFC2119</title>
<g id="a_node8"><a xlink:href="RFC2119.html" xlink:title="In many standards track documents several words are used to signify the requirements in the specification. &#160;These words are often capitalized. &#160;This document defines these words as they should be interpreted in IETF documents. &#160;This document specifies an Internet Best Current Practices for the Internet Community, and requests discussion and suggestions for improvements." target="_top">
<ellipse fill="none" stroke="black" cx="1122.22" cy="-741.66" rx="160.34" ry="52.33"/>
<text xml:space="preserve" text-anchor="middle" x="1122.22" y="-761.36" font-family="Times,serif" font-size="14.00">RFC2119</text>
<text xml:space="preserve" text-anchor="middle" x="1122.22" y="-744.86" font-family="Times,serif" font-size="14.00">Key words for use in RFCs to Indicate</text>
<text xml:space="preserve" text-anchor="middle" x="1122.22" y="-728.36" font-family="Times,serif" font-size="14.00">Requirement Levels</text>
<text xml:space="preserve" text-anchor="middle" x="1122.22" y="-711.86" font-family="Times,serif" font-size="14.00">1997</text>
</a>
</g>
</g>
<!-- cites&#45;&gt;RFC2119 -->
<g id="edge7" class="edge">
<title>cites&#45;&gt;RFC2119</title>
<path fill="none" stroke="black" d="M906.23,-459.07C908.66,-461.71 910.83,-464.58 912.49,-467.66 957.71,-551.56 877.29,-606.76 937.49,-680.66 947.31,-692.72 959.58,-702.41 973.1,-710.19"/>
<polygon fill="black" stroke="black" points="971.33,-713.22 981.81,-714.82 974.62,-707.04 971.33,-713.22"/>
</g>
<!-- RFC5322 -->
<g id="node9" class="node">
<title>RFC5322</title>
<g id="a_node9"><a xlink:href="RFC5322.html" xlink:title="This document specifies the Internet Message Format (IMF), a syntax for text messages that are sent between computer users, within the framework of electronic mail messages. &#160;This specification is a revision of Request For Comments (RFC) 2822, which itself superseded Request For Comments (RFC) 822, Standard for the Format of ARPA Internet Text Messages, updating it to reflect current practice and incorporating incremental changes that were specified in other RFCs. [STANDARDS&#45;TRACK]" target="_top">
<ellipse fill="none" stroke="black" cx="1122.22" cy="-630.66" rx="108.36" ry="40.66"/>
<text xml:space="preserve" text-anchor="middle" x="1122.22" y="-642.11" font-family="Times,serif" font-size="14.00">RFC5322</text>
<text xml:space="preserve" text-anchor="middle" x="1122.22" y="-625.61" font-family="Times,serif" font-size="14.00">Internet Message Format</text>
<text xml:space="preserve" text-anchor="middle" x="1122.22" y="-609.11" font-family="Times,serif" font-size="14.00">2008</text>
</a>
</g>
</g>
<!-- cites&#45;&gt;RFC5322 -->
<g id="edge8" class="edge">
<title>cites&#45;&gt;RFC5322</title>
<path fill="none" stroke="black" d="M905.62,-458.92C908.22,-461.61 910.6,-464.54 912.49,-467.66 939.14,-511.65 902,-543.43 937.49,-580.66 955.55,-599.61 980.01,-611.62 1005.2,-619.17"/>
<polygon fill="black" stroke="black" points="1003.99,-622.47 1014.56,-621.74 1005.84,-615.72 1003.99,-622.47"/>
</g>
<!-- RFC5890 -->
<g id="node10" class="node">
<title>RFC5890</title>
<g id="a_node10"><a xlink:href="RFC5890.html" xlink:title="This document is one of a collection that, together, describe the protocol and usage context for a revision of Internationalized Domain Names for Applications (IDNA), superseding the earlier version. &#160;It describes the document collection and provides definitions and other material that are common to the set. [STANDARDS&#45;TRACK]" target="_top">
<ellipse fill="none" stroke="black" cx="1122.22" cy="-507.66" rx="157.68" ry="63.99"/>
<text xml:space="preserve" text-anchor="middle" x="1122.22" y="-535.61" font-family="Times,serif" font-size="14.00">RFC5890</text>
<text xml:space="preserve" text-anchor="middle" x="1122.22" y="-519.11" font-family="Times,serif" font-size="14.00">Internationalized Domain Names for</text>
<text xml:space="preserve" text-anchor="middle" x="1122.22" y="-502.61" font-family="Times,serif" font-size="14.00">Applications (IDNA): Definitions and</text>
<text xml:space="preserve" text-anchor="middle" x="1122.22" y="-486.11" font-family="Times,serif" font-size="14.00">Document Framework</text>
<text xml:space="preserve" text-anchor="middle" x="1122.22" y="-469.61" font-family="Times,serif" font-size="14.00">2010</text>
</a>
</g>
</g>
<!-- cites&#45;&gt;RFC5890 -->
<g id="edge9" class="edge">
<title>cites&#45;&gt;RFC5890</title>
<path fill="none" stroke="black" d="M906.59,-447.96C925.3,-453.16 952.06,-460.6 980.37,-468.48"/>
<polygon fill="black" stroke="black" points="979.26,-471.8 989.83,-471.11 981.13,-465.06 979.26,-471.8"/>
</g>
<!-- RFC4648 -->
<g id="node11" class="node">
<title>RFC4648</title>
<g id="a_node11"><a xlink:href="RFC4648.html" xlink:title="This document describes the commonly used base 64, base 32, and base 16 encoding schemes. &#160;It also discusses the use of line&#45;feeds in encoded data, use of padding in encoded data, use of non&#45;alphabet characters in encoded data, use of different encoding alphabets, and canonical encodings. [STANDARDS&#45;TRACK]" target="_top">
<ellipse fill="none" stroke="black" cx="1122.22" cy="-373.66" rx="160.87" ry="52.33"/>
<text xml:space="preserve" text-anchor="middle" x="1122.22" y="-393.36" font-family="Times,serif" font-size="14.00">RFC4648</text>
<text xml:space="preserve" text-anchor="middle" x="1122.22" y="-376.86" font-family="Times,serif" font-size="14.00">The Base16, Base32, and Base64 Data</text>
<text xml:space="preserve" text-anchor="middle" x="1122.22" y="-360.36" font-family="Times,serif" font-size="14.00">Encodings</text>
<text xml:space="preserve" text-anchor="middle" x="1122.22" y="-343.86" font-family="Times,serif" font-size="14.00">2006</text>
</a>
</g>
</g>
<!-- cites&#45;&gt;RFC4648 -->
<g id="edge10" class="edge">
<title>cites&#45;&gt;RFC4648</title>
<path fill="none" stroke="black" d="M906.59,-433.36C926.94,-427.7 956.81,-419.39 987.84,-410.76"/>
<polygon fill="black" stroke="black" points="988.7,-414.16 997.39,-408.1 986.82,-407.41 988.7,-414.16"/>
</g>
<!-- RFC3688 -->
<g id="node12" class="node">
<title>RFC3688</title>
<g id="a_node12"><a xlink:href="RFC3688.html" xlink:title="This document describes an IANA maintained registry for IETF standards which use Extensible Markup Language (XML) related items such as Namespaces, Document Type Declarations (DTDs), Schemas, and Resource Description Framework (RDF) Schemas." target="_top">
<ellipse fill="none" stroke="black" cx="1122.22" cy="-262.66" rx="107.83" ry="40.66"/>
<text xml:space="preserve" text-anchor="middle" x="1122.22" y="-274.11" font-family="Times,serif" font-size="14.00">RFC3688</text>
<text xml:space="preserve" text-anchor="middle" x="1122.22" y="-257.61" font-family="Times,serif" font-size="14.00">The IETF XML Registry</text>
<text xml:space="preserve" text-anchor="middle" x="1122.22" y="-241.11" font-family="Times,serif" font-size="14.00">2004</text>
</a>
</g>
</g>
<!-- cites&#45;&gt;RFC3688 -->
<g id="edge11" class="edge">
<title>cites&#45;&gt;RFC3688</title>
<path fill="none" stroke="black" d="M883.4,-422.44C889.01,-394.59 903.67,-341.63 937.49,-312.66 957.26,-295.72 982.25,-284.47 1007.38,-277.02"/>
<polygon fill="black" stroke="black" points="1007.98,-280.48 1016.69,-274.45 1006.12,-273.74 1007.98,-280.48"/>
</g>
<!-- RFC6931 -->
<g id="node13" class="node">
<title>RFC6931</title>
<g id="a_node13"><a xlink:href="RFC6931.html" xlink:title="This document expands, updates, and establishes an IANA registry for the list of URIs intended for use with XML digital signatures, encryption, canonicalization, and key management. &#160;These URIs identify algorithms and types of information. &#160;This document obsoletes RFC 4051." target="_top">
<ellipse fill="none" stroke="black" cx="1122.22" cy="-151.66" rx="184.73" ry="52.33"/>
<text xml:space="preserve" text-anchor="middle" x="1122.22" y="-171.36" font-family="Times,serif" font-size="14.00">RFC6931</text>
<text xml:space="preserve" text-anchor="middle" x="1122.22" y="-154.86" font-family="Times,serif" font-size="14.00">Additional XML Security Uniform Resource</text>
<text xml:space="preserve" text-anchor="middle" x="1122.22" y="-138.36" font-family="Times,serif" font-size="14.00">Identifiers (URIs)</text>
<text xml:space="preserve" text-anchor="middle" x="1122.22" y="-121.86" font-family="Times,serif" font-size="14.00">2013</text>
</a>
</g>
</g>
<!-- cites&#45;&gt;RFC6931 -->
<g id="edge12" class="edge">
<title>cites&#45;&gt;RFC6931</title>
<path fill="none" stroke="black" d="M882.68,-422.2C889.14,-373.58 908.76,-243.62 937.49,-212.66 945.8,-203.7 955.46,-196.05 965.91,-189.53"/>
<polygon fill="black" stroke="black" points="967.51,-192.65 974.41,-184.6 964,-186.59 967.51,-192.65"/>
</g>
<!-- RFC5105 -->
<g id="node14" class="node">
<title>RFC5105</title>
<g id="a_node14"><a xlink:href="RFC5105.html" xlink:title="An ENUM domain name is tightly coupled with the underlying E.164 number. &#160;The process of verifying whether the Registrant of an ENUM domain name is identical to the Assignee of the corresponding E.164 number is commonly called validation. &#160;This document describes a signed XML data format &#45;&#45; the Validation Token &#45;&#45; with which Validation Entities can convey successful completion of a validation procedure in a secure fashion. [STANDARDS&#45;TRACK]" target="_top">
<ellipse fill="none" stroke="black" cx="1122.22" cy="-40.66" rx="180.49" ry="40.66"/>
<text xml:space="preserve" text-anchor="middle" x="1122.22" y="-52.11" font-family="Times,serif" font-size="14.00">RFC5105</text>
<text xml:space="preserve" text-anchor="middle" x="1122.22" y="-35.61" font-family="Times,serif" font-size="14.00">ENUM Validation Token Format Definition</text>
<text xml:space="preserve" text-anchor="middle" x="1122.22" y="-19.11" font-family="Times,serif" font-size="14.00">2007</text>
</a>
</g>
</g>
<!-- cites&#45;&gt;RFC5105 -->
<g id="edge13" class="edge">
<title>cites&#45;&gt;RFC5105</title>
<path fill="none" stroke="black" d="M880.82,-422.22C882.81,-357.26 892.77,-140.28 937.49,-90.66 945.04,-82.28 953.84,-75.24 963.43,-69.34"/>
<polygon fill="black" stroke="black" points="964.94,-72.51 971.94,-64.56 961.51,-66.41 964.94,-72.51"/>
</g>
<!-- rev_cites -->
<g id="node15" class="node">
<title>rev_cites</title>
<polygon fill="none" stroke="black" points="447.16,-458.66 393.16,-458.66 393.16,-422.66 447.16,-422.66 447.16,-458.66"/>
<text xml:space="preserve" text-anchor="middle" x="420.16" y="-435.61" font-family="Times,serif" font-size="14.00">cites</text>
</g>
<!-- rev_cites&#45;&gt;RFC7848 -->
<g id="edge14" class="edge">
<title>rev_cites&#45;&gt;RFC7848</title>
<path fill="none" stroke="black" d="M447.27,-446.85C465.03,-451.07 490.01,-456.99 516.35,-463.24"/>
<polygon fill="black" stroke="black" points="515.29,-466.59 525.83,-465.49 516.91,-459.78 515.29,-466.59"/>
</g>
<!-- RFC8334 -->
<g id="node16" class="node">
<title>RFC8334</title>
<g id="a_node16"><a xlink:href="RFC8334.html" xlink:title="This document describes an Extensible Provisioning Protocol (EPP) extension mapping for the provisioning and management of domain name registrations and applications during the launch of a domain name registry." target="_top">
<ellipse fill="none" stroke="black" cx="181.02" cy="-502.66" rx="173.59" ry="52.33"/>
<text xml:space="preserve" text-anchor="middle" x="181.02" y="-522.36" font-family="Times,serif" font-size="14.00">RFC8334</text>
<text xml:space="preserve" text-anchor="middle" x="181.02" y="-505.86" font-family="Times,serif" font-size="14.00">Launch Phase Mapping for the Extensible</text>
<text xml:space="preserve" text-anchor="middle" x="181.02" y="-489.36" font-family="Times,serif" font-size="14.00">Provisioning Protocol (EPP)</text>
<text xml:space="preserve" text-anchor="middle" x="181.02" y="-472.86" font-family="Times,serif" font-size="14.00">2018</text>
</a>
</g>
</g>
<!-- RFC8334&#45;&gt;rev_cites -->
<g id="edge15" class="edge">
<title>RFC8334&#45;&gt;rev_cites</title>
<path fill="none" stroke="black" d="M313.08,-468.39C338.27,-461.81 362.7,-455.42 381.76,-450.44"/>
<polygon fill="black" stroke="black" points="382.63,-453.83 391.42,-447.91 380.86,-447.05 382.63,-453.83"/>
</g>
<!-- RFC9361 -->
<g id="node17" class="node">
<title>RFC9361</title>
<g id="a_node17"><a xlink:href="RFC9361.html" xlink:title="This document describes the requirements, the architecture, and the interfaces between the ICANN Trademark Clearinghouse (TMCH) and Domain Name Registries, as well as between the ICANN TMCH and Domain Name Registrars for the provisioning and management of domain names during Sunrise and Trademark Claims Periods." target="_top">
<ellipse fill="none" stroke="black" cx="181.02" cy="-379.66" rx="181.02" ry="52.33"/>
<text xml:space="preserve" text-anchor="middle" x="181.02" y="-399.36" font-family="Times,serif" font-size="14.00">RFC9361</text>
<text xml:space="preserve" text-anchor="middle" x="181.02" y="-382.86" font-family="Times,serif" font-size="14.00">ICANN Trademark Clearinghouse (TMCH)</text>
<text xml:space="preserve" text-anchor="middle" x="181.02" y="-366.36" font-family="Times,serif" font-size="14.00">Functional Specifications</text>
<text xml:space="preserve" text-anchor="middle" x="181.02" y="-349.86" font-family="Times,serif" font-size="14.00">2023</text>
</a>
</g>
</g>
<!-- RFC9361&#45;&gt;rev_cites -->
<g id="edge16" class="edge">
<title>RFC9361&#45;&gt;rev_cites</title>
<path fill="none" stroke="black" d="M317.22,-414.44C340.94,-420.54 363.75,-426.41 381.76,-431.04"/>
<polygon fill="black" stroke="black" points="380.84,-434.42 391.4,-433.52 382.59,-427.64 380.84,-434.42"/>
</g>
</g>
</svg>
