<?xml version="1.0" encoding="UTF-8" standalone="no"?>
<!DOCTYPE svg PUBLIC "-//W3C//DTD SVG 1.1//EN"
 "http://www.w3.org/Graphics/SVG/1.1/DTD/svg11.dtd">
<!-- Generated by graphviz version 14.1.1 (20251213.1925)
 -->
<!-- Title: Flow Pages: 1 -->
<svg width="954pt" height="1253pt"
 viewBox="0.00 0.00 954.00 1253.00" xmlns="http://www.w3.org/2000/svg" xmlns:xlink="http://www.w3.org/1999/xlink">
<g id="graph0" class="graph" transform="scale(1 1) rotate(0) translate(4 1248.91)">
<title>Flow</title>
<polygon fill="white" stroke="none" points="-4,4 -4,-1248.91 949.88,-1248.91 949.88,4 -4,4"/>
<!-- RFC7878 -->
<g id="node1" class="node">
<title>RFC7878</title>
<g id="a_node1"><a xlink:title="The Session Peering Provisioning Framework (SPPF) specifies the data model and the overall structure to provision Session Establishment Data (SED) into Session Data Registries and SIP Service Provider data stores. &#160;To utilize this framework, one needs a substrate protocol. &#160;Given that the Simple Object Access Protocol (SOAP) is currently widely used for messaging between elements of such provisioning systems, this document specifies the usage of SOAP (via HTTPS) as the substrate protocol for SPPF. &#160;The benefits include leveraging prevalent expertise and a higher probability that existing provisioning systems will be able to easily migrate to using an %SPPF&#45; based protocol.">
<ellipse fill="green" stroke="black" cx="239.92" cy="-628.58" rx="148.67" ry="52.33"/>
<text xml:space="preserve" text-anchor="middle" x="239.92" y="-648.28" font-family="Times,serif" font-size="14.00">RFC7878</text>
<text xml:space="preserve" text-anchor="middle" x="239.92" y="-631.78" font-family="Times,serif" font-size="14.00">Session Peering Provisioning (SPP)</text>
<text xml:space="preserve" text-anchor="middle" x="239.92" y="-615.28" font-family="Times,serif" font-size="14.00">Protocol over SOAP</text>
<text xml:space="preserve" text-anchor="middle" x="239.92" y="-598.78" font-family="Times,serif" font-size="14.00">2016</text>
</a>
</g>
</g>
<!-- obs -->
<g id="node3" class="node">
<title>obs</title>
<polygon fill="lightblue" stroke="black" points="479.84,-727.58 413.59,-727.58 413.59,-691.58 479.84,-691.58 479.84,-727.58"/>
<text xml:space="preserve" text-anchor="middle" x="446.71" y="-704.53" font-family="Times,serif" font-size="14.00">obsoletes</text>
</g>
<!-- RFC7878&#45;&gt;obs -->
<g id="edge2" class="edge">
<title>RFC7878&#45;&gt;obs</title>
<path fill="none" stroke="black" d="M339.72,-667.66C361.84,-676.41 384.2,-685.25 402.63,-692.54"/>
<polygon fill="black" stroke="black" points="401.29,-695.77 411.88,-696.2 403.87,-689.26 401.29,-695.77"/>
</g>
<!-- updates -->
<g id="node4" class="node">
<title>updates</title>
<polygon fill="lightyellow" stroke="black" points="475.34,-673.58 418.09,-673.58 418.09,-637.58 475.34,-637.58 475.34,-673.58"/>
<text xml:space="preserve" text-anchor="middle" x="446.71" y="-650.53" font-family="Times,serif" font-size="14.00">updates</text>
</g>
<!-- RFC7878&#45;&gt;updates -->
<g id="edge3" class="edge">
<title>RFC7878&#45;&gt;updates</title>
<path fill="none" stroke="black" d="M379.79,-646.89C389.28,-648.14 398.29,-649.33 406.42,-650.4"/>
<polygon fill="black" stroke="black" points="405.8,-653.85 416.18,-651.69 406.72,-646.91 405.8,-653.85"/>
</g>
<!-- cites -->
<g id="node6" class="node">
<title>cites</title>
<polygon fill="lightblue" stroke="black" points="473.71,-619.58 419.71,-619.58 419.71,-583.58 473.71,-583.58 473.71,-619.58"/>
<text xml:space="preserve" text-anchor="middle" x="446.71" y="-596.53" font-family="Times,serif" font-size="14.00">cites</text>
</g>
<!-- RFC7878&#45;&gt;cites -->
<g id="edge5" class="edge">
<title>RFC7878&#45;&gt;cites</title>
<path fill="none" stroke="black" d="M379.79,-610.27C389.87,-608.94 399.41,-607.68 407.94,-606.56"/>
<polygon fill="black" stroke="black" points="408.32,-610.04 417.78,-605.26 407.41,-603.1 408.32,-610.04"/>
</g>
<!-- obs_by -->
<g id="node2" class="node">
<title>obs_by</title>
<polygon fill="lightblue" stroke="black" points="66.25,-673.58 0,-673.58 0,-637.58 66.25,-637.58 66.25,-673.58"/>
<text xml:space="preserve" text-anchor="middle" x="33.12" y="-650.53" font-family="Times,serif" font-size="14.00">obsoletes</text>
</g>
<!-- obs_by&#45;&gt;RFC7878 -->
<g id="edge1" class="edge">
<title>obs_by&#45;&gt;RFC7878</title>
<path fill="none" stroke="black" d="M66.58,-651.3C73.32,-650.41 80.84,-649.42 88.87,-648.36"/>
<polygon fill="black" stroke="black" points="89.14,-651.86 98.6,-647.08 88.22,-644.92 89.14,-651.86"/>
</g>
<!-- updated_by -->
<g id="node5" class="node">
<title>updated_by</title>
<polygon fill="lightyellow" stroke="black" points="61.75,-619.58 4.5,-619.58 4.5,-583.58 61.75,-583.58 61.75,-619.58"/>
<text xml:space="preserve" text-anchor="middle" x="33.12" y="-596.53" font-family="Times,serif" font-size="14.00">updates</text>
</g>
<!-- updated_by&#45;&gt;RFC7878 -->
<g id="edge4" class="edge">
<title>updated_by&#45;&gt;RFC7878</title>
<path fill="none" stroke="black" d="M62.17,-605.28C69.97,-606.31 79.02,-607.5 88.82,-608.79"/>
<polygon fill="black" stroke="black" points="88.3,-612.25 98.68,-610.09 89.22,-605.31 88.3,-612.25"/>
</g>
<!-- RFC7877 -->
<g id="node7" class="node">
<title>RFC7877</title>
<g id="a_node7"><a xlink:href="RFC7877.html" xlink:title="This document specifies the data model and the overall structure for a framework to provision Session Establishment Data (SED) into Session Data Registries and SIP Service Provider (SSP) data stores. &#160;The framework is called the Session Peering Provisioning Framework (SPPF). &#160;The provisioned data is typically used by network elements for session establishment." target="_top">
<ellipse fill="none" stroke="black" cx="685.86" cy="-1192.58" rx="170.94" ry="52.33"/>
<text xml:space="preserve" text-anchor="middle" x="685.86" y="-1212.28" font-family="Times,serif" font-size="14.00">RFC7877</text>
<text xml:space="preserve" text-anchor="middle" x="685.86" y="-1195.78" font-family="Times,serif" font-size="14.00">Session Peering Provisioning Framework</text>
<text xml:space="preserve" text-anchor="middle" x="685.86" y="-1179.28" font-family="Times,serif" font-size="14.00">(SPPF)</text>
<text xml:space="preserve" text-anchor="middle" x="685.86" y="-1162.78" font-family="Times,serif" font-size="14.00">2016</text>
</a>
</g>
</g>
<!-- cites&#45;&gt;RFC7877 -->
<g id="edge6" class="edge">
<title>cites&#45;&gt;RFC7877</title>
<path fill="none" stroke="black" d="M473.79,-619.88C476.18,-622.54 478.28,-625.45 479.84,-628.58 504.67,-678.6 471.29,-1085.93 504.84,-1130.58 512.91,-1141.31 522.95,-1150.2 534.13,-1157.56"/>
<polygon fill="black" stroke="black" points="532.11,-1160.43 542.48,-1162.61 535.73,-1154.44 532.11,-1160.43"/>
</g>
<!-- RFC2119 -->
<g id="node8" class="node">
<title>RFC2119</title>
<g id="a_node8"><a xlink:href="RFC2119.html" xlink:title="In many standards track documents several words are used to signify the requirements in the specification. &#160;These words are often capitalized. &#160;This document defines these words as they should be interpreted in IETF documents. &#160;This document specifies an Internet Best Current Practices for the Internet Community, and requests discussion and suggestions for improvements." target="_top">
<ellipse fill="none" stroke="black" cx="685.86" cy="-1069.58" rx="160.34" ry="52.33"/>
<text xml:space="preserve" text-anchor="middle" x="685.86" y="-1089.28" font-family="Times,serif" font-size="14.00">RFC2119</text>
<text xml:space="preserve" text-anchor="middle" x="685.86" y="-1072.78" font-family="Times,serif" font-size="14.00">Key words for use in RFCs to Indicate</text>
<text xml:space="preserve" text-anchor="middle" x="685.86" y="-1056.28" font-family="Times,serif" font-size="14.00">Requirement Levels</text>
<text xml:space="preserve" text-anchor="middle" x="685.86" y="-1039.78" font-family="Times,serif" font-size="14.00">1997</text>
</a>
</g>
</g>
<!-- cites&#45;&gt;RFC2119 -->
<g id="edge7" class="edge">
<title>cites&#45;&gt;RFC2119</title>
<path fill="none" stroke="black" d="M473.74,-619.91C476.14,-622.56 478.26,-625.46 479.84,-628.58 518.07,-704.08 453.29,-941.46 504.84,-1008.58 513.81,-1020.26 525.12,-1029.72 537.69,-1037.38"/>
<polygon fill="black" stroke="black" points="535.77,-1040.32 546.2,-1042.16 539.19,-1034.21 535.77,-1040.32"/>
</g>
<!-- RFC3688 -->
<g id="node9" class="node">
<title>RFC3688</title>
<g id="a_node9"><a xlink:href="RFC3688.html" xlink:title="This document describes an IANA maintained registry for IETF standards which use Extensible Markup Language (XML) related items such as Namespaces, Document Type Declarations (DTDs), Schemas, and Resource Description Framework (RDF) Schemas." target="_top">
<ellipse fill="none" stroke="black" cx="685.86" cy="-958.58" rx="107.83" ry="40.66"/>
<text xml:space="preserve" text-anchor="middle" x="685.86" y="-970.03" font-family="Times,serif" font-size="14.00">RFC3688</text>
<text xml:space="preserve" text-anchor="middle" x="685.86" y="-953.53" font-family="Times,serif" font-size="14.00">The IETF XML Registry</text>
<text xml:space="preserve" text-anchor="middle" x="685.86" y="-937.03" font-family="Times,serif" font-size="14.00">2004</text>
</a>
</g>
</g>
<!-- cites&#45;&gt;RFC3688 -->
<g id="edge8" class="edge">
<title>cites&#45;&gt;RFC3688</title>
<path fill="none" stroke="black" d="M473.67,-619.95C476.08,-622.59 478.22,-625.48 479.84,-628.58 508.71,-683.98 464.86,-860.58 504.84,-908.58 521.11,-928.12 544.3,-940.38 568.65,-947.99"/>
<polygon fill="black" stroke="black" points="567.48,-951.3 578.05,-950.66 569.39,-944.56 567.48,-951.3"/>
</g>
<!-- RFC7230 -->
<g id="node10" class="node">
<title>RFC7230</title>
<g id="a_node10"><a xlink:href="RFC7230.html" xlink:title="The Hypertext Transfer Protocol (HTTP) is a stateless application&#45;level protocol for distributed, collaborative, hypertext information systems. &#160;This document provides an overview of HTTP architecture and its associated terminology, defines the http and https Uniform Resource Identifier (URI) schemes, defines the HTTP/1.1 message syntax and parsing requirements, and describes related security concerns for implementations." target="_top">
<ellipse fill="none" stroke="black" cx="685.86" cy="-847.58" rx="169.35" ry="52.33"/>
<text xml:space="preserve" text-anchor="middle" x="685.86" y="-867.28" font-family="Times,serif" font-size="14.00">RFC7230</text>
<text xml:space="preserve" text-anchor="middle" x="685.86" y="-850.78" font-family="Times,serif" font-size="14.00">Hypertext Transfer Protocol (HTTP/1.1):</text>
<text xml:space="preserve" text-anchor="middle" x="685.86" y="-834.28" font-family="Times,serif" font-size="14.00">Message Syntax and Routing</text>
<text xml:space="preserve" text-anchor="middle" x="685.86" y="-817.78" font-family="Times,serif" font-size="14.00">2014</text>
</a>
</g>
</g>
<!-- cites&#45;&gt;RFC7230 -->
<g id="edge9" class="edge">
<title>cites&#45;&gt;RFC7230</title>
<path fill="none" stroke="black" d="M473.46,-620.06C475.91,-622.68 478.12,-625.54 479.84,-628.58 514.63,-690.08 459.4,-731.47 504.84,-785.58 513.73,-796.17 524.52,-804.95 536.35,-812.23"/>
<polygon fill="black" stroke="black" points="534.31,-815.1 544.73,-817.01 537.78,-809.02 534.31,-815.1"/>
</g>
<!-- RFC7235 -->
<g id="node11" class="node">
<title>RFC7235</title>
<g id="a_node11"><a xlink:href="RFC7235.html" xlink:title="The Hypertext Transfer Protocol (HTTP) is a stateless application&#45; level protocol for distributed, collaborative, hypermedia information systems. &#160;This document defines the HTTP Authentication framework." target="_top">
<ellipse fill="none" stroke="black" cx="685.86" cy="-724.58" rx="169.35" ry="52.33"/>
<text xml:space="preserve" text-anchor="middle" x="685.86" y="-744.28" font-family="Times,serif" font-size="14.00">RFC7235</text>
<text xml:space="preserve" text-anchor="middle" x="685.86" y="-727.78" font-family="Times,serif" font-size="14.00">Hypertext Transfer Protocol (HTTP/1.1):</text>
<text xml:space="preserve" text-anchor="middle" x="685.86" y="-711.28" font-family="Times,serif" font-size="14.00">Authentication</text>
<text xml:space="preserve" text-anchor="middle" x="685.86" y="-694.78" font-family="Times,serif" font-size="14.00">2014</text>
</a>
</g>
</g>
<!-- cites&#45;&gt;RFC7235 -->
<g id="edge10" class="edge">
<title>cites&#45;&gt;RFC7235</title>
<path fill="none" stroke="black" d="M470.79,-619.82C473.94,-622.64 477.05,-625.6 479.84,-628.58 492.66,-642.27 489.73,-651.47 504.84,-662.58 517.16,-671.64 530.91,-679.45 545.16,-686.17"/>
<polygon fill="black" stroke="black" points="543.68,-689.34 554.24,-690.25 546.55,-682.96 543.68,-689.34"/>
</g>
<!-- RFC5246 -->
<g id="node12" class="node">
<title>RFC5246</title>
<g id="a_node12"><a xlink:href="RFC5246.html" xlink:title="This document specifies Version 1.2 of the Transport Layer Security (TLS) protocol. &#160;The TLS protocol provides communications security over the Internet. &#160;The protocol allows client/server applications to communicate in a way that is designed to prevent eavesdropping, tampering, or message forgery. [STANDARDS&#45;TRACK]" target="_top">
<ellipse fill="none" stroke="black" cx="685.86" cy="-601.58" rx="150.79" ry="52.33"/>
<text xml:space="preserve" text-anchor="middle" x="685.86" y="-621.28" font-family="Times,serif" font-size="14.00">RFC5246</text>
<text xml:space="preserve" text-anchor="middle" x="685.86" y="-604.78" font-family="Times,serif" font-size="14.00">The Transport Layer Security (TLS)</text>
<text xml:space="preserve" text-anchor="middle" x="685.86" y="-588.28" font-family="Times,serif" font-size="14.00">Protocol Version 1.2</text>
<text xml:space="preserve" text-anchor="middle" x="685.86" y="-571.78" font-family="Times,serif" font-size="14.00">2008</text>
</a>
</g>
</g>
<!-- cites&#45;&gt;RFC5246 -->
<g id="edge11" class="edge">
<title>cites&#45;&gt;RFC5246</title>
<path fill="none" stroke="black" d="M474,-601.58C487.2,-601.58 504.41,-601.58 523.29,-601.58"/>
<polygon fill="black" stroke="black" points="523.08,-605.08 533.08,-601.58 523.08,-598.08 523.08,-605.08"/>
</g>
<!-- RFC7525 -->
<g id="node13" class="node">
<title>RFC7525</title>
<g id="a_node13"><a xlink:href="RFC7525.html" xlink:title="Transport Layer Security (TLS) and Datagram Transport Layer Security (DTLS) are widely used to protect data exchanged over application protocols such as HTTP, SMTP, IMAP, POP, SIP, and XMPP. &#160;Over the last few years, several serious attacks on TLS have emerged, including attacks on its most commonly used cipher suites and their modes of operation. &#160;This document provides recommendations for improving the security of deployed services that use TLS and DTLS. &#160;The recommendations are applicable to the majority of use cases." target="_top">
<ellipse fill="none" stroke="black" cx="685.86" cy="-467.58" rx="181.02" ry="63.99"/>
<text xml:space="preserve" text-anchor="middle" x="685.86" y="-495.53" font-family="Times,serif" font-size="14.00">RFC7525</text>
<text xml:space="preserve" text-anchor="middle" x="685.86" y="-479.03" font-family="Times,serif" font-size="14.00">Recommendations for Secure Use of</text>
<text xml:space="preserve" text-anchor="middle" x="685.86" y="-462.53" font-family="Times,serif" font-size="14.00">Transport Layer Security (TLS) and</text>
<text xml:space="preserve" text-anchor="middle" x="685.86" y="-446.03" font-family="Times,serif" font-size="14.00">Datagram Transport Layer Security (DTLS)</text>
<text xml:space="preserve" text-anchor="middle" x="685.86" y="-429.53" font-family="Times,serif" font-size="14.00">2015</text>
</a>
</g>
</g>
<!-- cites&#45;&gt;RFC7525 -->
<g id="edge12" class="edge">
<title>cites&#45;&gt;RFC7525</title>
<path fill="none" stroke="black" d="M461.28,-583.28C471.91,-569.98 487.73,-552.32 504.84,-540.58 517.37,-531.98 531.06,-524.14 545.13,-517.07"/>
<polygon fill="black" stroke="black" points="546.6,-520.24 554.06,-512.72 543.54,-513.95 546.6,-520.24"/>
</g>
<!-- RFC7231 -->
<g id="node14" class="node">
<title>RFC7231</title>
<g id="a_node14"><a xlink:href="RFC7231.html" xlink:title="The Hypertext Transfer Protocol (HTTP) is a stateless %application&#45; level protocol for distributed, collaborative, hypertext information systems. &#160;This document defines the semantics of HTTP/1.1 messages, as expressed by request methods, request header fields, response status codes, and response header fields, along with the payload of messages (metadata and body content) and mechanisms for content negotiation." target="_top">
<ellipse fill="none" stroke="black" cx="685.86" cy="-333.58" rx="169.35" ry="52.33"/>
<text xml:space="preserve" text-anchor="middle" x="685.86" y="-353.28" font-family="Times,serif" font-size="14.00">RFC7231</text>
<text xml:space="preserve" text-anchor="middle" x="685.86" y="-336.78" font-family="Times,serif" font-size="14.00">Hypertext Transfer Protocol (HTTP/1.1):</text>
<text xml:space="preserve" text-anchor="middle" x="685.86" y="-320.28" font-family="Times,serif" font-size="14.00">Semantics and Content</text>
<text xml:space="preserve" text-anchor="middle" x="685.86" y="-303.78" font-family="Times,serif" font-size="14.00">2014</text>
</a>
</g>
</g>
<!-- cites&#45;&gt;RFC7231 -->
<g id="edge13" class="edge">
<title>cites&#45;&gt;RFC7231</title>
<path fill="none" stroke="black" d="M447.38,-583.09C447.67,-543.21 454.04,-448.39 504.84,-394.58 514.31,-384.54 525.5,-376.16 537.58,-369.16"/>
<polygon fill="black" stroke="black" points="538.97,-372.38 546.11,-364.55 535.65,-366.22 538.97,-372.38"/>
</g>
<!-- RFC5321 -->
<g id="node15" class="node">
<title>RFC5321</title>
<g id="a_node15"><a xlink:href="RFC5321.html" xlink:title="This document is a specification of the basic protocol for Internet electronic mail transport. &#160;It consolidates, updates, and clarifies several previous documents, making all or parts of most of them obsolete. &#160;It covers the SMTP extension mechanisms and best practices for the contemporary Internet, but does not provide details about particular extensions. &#160;Although SMTP was designed as a mail transport and delivery protocol, this specification also contains information that is important to its use as a mail submission protocol for split&#45;UA (User Agent) mail reading systems and mobile environments. [STANDARDS&#45;TRACK]" target="_top">
<ellipse fill="none" stroke="black" cx="685.86" cy="-222.58" rx="129.58" ry="40.66"/>
<text xml:space="preserve" text-anchor="middle" x="685.86" y="-234.03" font-family="Times,serif" font-size="14.00">RFC5321</text>
<text xml:space="preserve" text-anchor="middle" x="685.86" y="-217.53" font-family="Times,serif" font-size="14.00">Simple Mail Transfer Protocol</text>
<text xml:space="preserve" text-anchor="middle" x="685.86" y="-201.03" font-family="Times,serif" font-size="14.00">2008</text>
</a>
</g>
</g>
<!-- cites&#45;&gt;RFC5321 -->
<g id="edge14" class="edge">
<title>cites&#45;&gt;RFC5321</title>
<path fill="none" stroke="black" d="M448.38,-583.39C451.04,-521.3 462.81,-318.99 504.84,-272.58 517.85,-258.21 534.6,-247.82 552.63,-240.35"/>
<polygon fill="black" stroke="black" points="553.86,-243.62 561.97,-236.81 551.37,-237.08 553.86,-243.62"/>
</g>
<!-- RFC2818 -->
<g id="node16" class="node">
<title>RFC2818</title>
<g id="a_node16"><a xlink:href="RFC2818.html" xlink:title="This memo describes how to use Transport Layer Security (TLS) to secure Hypertext Transfer Protocol (HTTP) connections over the Internet. &#160;This memo provides information for the Internet community." target="_top">
<ellipse fill="none" stroke="black" cx="685.86" cy="-123.58" rx="75.48" ry="40.66"/>
<text xml:space="preserve" text-anchor="middle" x="685.86" y="-135.03" font-family="Times,serif" font-size="14.00">RFC2818</text>
<text xml:space="preserve" text-anchor="middle" x="685.86" y="-118.53" font-family="Times,serif" font-size="14.00">HTTP Over TLS</text>
<text xml:space="preserve" text-anchor="middle" x="685.86" y="-102.03" font-family="Times,serif" font-size="14.00">2000</text>
</a>
</g>
</g>
<!-- cites&#45;&gt;RFC2818 -->
<g id="edge15" class="edge">
<title>cites&#45;&gt;RFC2818</title>
<path fill="none" stroke="black" d="M447.56,-583.22C447.32,-509.38 450.17,-235.07 504.84,-172.58 528.41,-145.63 565.19,-132.82 599.38,-126.96"/>
<polygon fill="black" stroke="black" points="599.51,-130.48 608.87,-125.52 598.46,-123.56 599.51,-130.48"/>
</g>
<!-- rev_cites -->
<g id="node17" class="node">
<title>rev_cites</title>
<polygon fill="lightblue" stroke="black" points="945.88,-641.58 891.88,-641.58 891.88,-605.58 945.88,-605.58 945.88,-641.58"/>
<text xml:space="preserve" text-anchor="middle" x="918.88" y="-618.53" font-family="Times,serif" font-size="14.00">cites</text>
</g>
<!-- RFC7877&#45;&gt;rev_cites -->
<g id="edge17" class="edge">
<title>RFC7877&#45;&gt;rev_cites</title>
<path fill="none" stroke="black" d="M827.29,-1162.89C842.44,-1154.61 856.21,-1144.06 866.88,-1130.58 896.59,-1093.05 912.52,-756.53 916.73,-653.45"/>
<polygon fill="black" stroke="black" points="920.22,-653.72 917.12,-643.59 913.23,-653.44 920.22,-653.72"/>
</g>
<!-- rev_cites&#45;&gt;RFC7878 -->
<g id="edge16" class="edge">
<title>rev_cites&#45;&gt;RFC7878</title>
<path fill="none" stroke="black" d="M917.61,-605.11C916.07,-513.44 907.05,-110.2 866.88,-73.58 747.96,34.82 640.87,12.36 504.84,-73.58 330.51,-183.71 268.98,-443.87 249.29,-564.77"/>
<polygon fill="black" stroke="black" points="245.85,-564.1 247.75,-574.53 252.77,-565.2 245.85,-564.1"/>
</g>
</g>
</svg>
