<?xml version="1.0" encoding="UTF-8" standalone="no"?>
<!DOCTYPE svg PUBLIC "-//W3C//DTD SVG 1.1//EN"
 "http://www.w3.org/Graphics/SVG/1.1/DTD/svg11.dtd">
<!-- Generated by graphviz version 14.1.1 (20251213.1925)
 -->
<!-- Title: Flow Pages: 1 -->
<svg width="1037pt" height="482pt"
 viewBox="0.00 0.00 1037.00 482.00" xmlns="http://www.w3.org/2000/svg" xmlns:xlink="http://www.w3.org/1999/xlink">
<g id="graph0" class="graph" transform="scale(1 1) rotate(0) translate(4 477.65)">
<title>Flow</title>
<polygon fill="white" stroke="none" points="-4,4 -4,-477.65 1033.06,-477.65 1033.06,4 -4,4"/>
<!-- RFC7694 -->
<g id="node1" class="node">
<title>RFC7694</title>
<g id="a_node1"><a xlink:title="In HTTP, content codings allow for payload encodings such as for compression or integrity checks. In particular, the gzip content coding is widely used for payload data sent in response messages. Content codings can be used in request messages as well; however, discoverability is not on par with response messages. This document extends the HTTP Accept&#45;Encoding header field for use in responses, to indicate the content codings that are supported in requests.">
<ellipse fill="none" stroke="black" cx="422.25" cy="-290.33" rx="151.85" ry="52.33"/>
<text xml:space="preserve" text-anchor="middle" x="422.25" y="-310.03" font-family="Times,serif" font-size="14.00">RFC7694</text>
<text xml:space="preserve" text-anchor="middle" x="422.25" y="-293.53" font-family="Times,serif" font-size="14.00">Hypertext Transfer Protocol (HTTP)</text>
<text xml:space="preserve" text-anchor="middle" x="422.25" y="-277.03" font-family="Times,serif" font-size="14.00">Client&#45;Initiated Content&#45;Encoding</text>
<text xml:space="preserve" text-anchor="middle" x="422.25" y="-260.53" font-family="Times,serif" font-size="14.00">2015</text>
</a>
</g>
</g>
<!-- obs -->
<g id="node4" class="node">
<title>obs</title>
<polygon fill="none" stroke="black" points="665.35,-362.33 599.1,-362.33 599.1,-326.33 665.35,-326.33 665.35,-362.33"/>
<text xml:space="preserve" text-anchor="middle" x="632.23" y="-339.28" font-family="Times,serif" font-size="14.00">obsoletes</text>
</g>
<!-- RFC7694&#45;&gt;obs -->
<g id="edge3" class="edge">
<title>RFC7694&#45;&gt;obs</title>
<path fill="none" stroke="black" d="M544.53,-321.82C559.97,-325.83 574.89,-329.7 587.87,-333.07"/>
<polygon fill="black" stroke="black" points="586.72,-336.39 597.28,-335.51 588.48,-329.61 586.72,-336.39"/>
</g>
<!-- updates -->
<g id="node5" class="node">
<title>updates</title>
<polygon fill="none" stroke="black" points="660.85,-308.33 603.6,-308.33 603.6,-272.33 660.85,-272.33 660.85,-308.33"/>
<text xml:space="preserve" text-anchor="middle" x="632.23" y="-285.28" font-family="Times,serif" font-size="14.00">updates</text>
</g>
<!-- RFC7694&#45;&gt;updates -->
<g id="edge4" class="edge">
<title>RFC7694&#45;&gt;updates</title>
<path fill="none" stroke="black" d="M574.4,-290.33C580.59,-290.33 586.5,-290.33 592,-290.33"/>
<polygon fill="black" stroke="black" points="591.85,-293.83 601.85,-290.33 591.85,-286.83 591.85,-293.83"/>
</g>
<!-- cites -->
<g id="node7" class="node">
<title>cites</title>
<polygon fill="none" stroke="black" points="659.23,-254.33 605.23,-254.33 605.23,-218.33 659.23,-218.33 659.23,-254.33"/>
<text xml:space="preserve" text-anchor="middle" x="632.23" y="-231.28" font-family="Times,serif" font-size="14.00">cites</text>
</g>
<!-- RFC7694&#45;&gt;cites -->
<g id="edge6" class="edge">
<title>RFC7694&#45;&gt;cites</title>
<path fill="none" stroke="black" d="M544.53,-258.84C562.54,-254.16 579.83,-249.67 594.17,-245.95"/>
<polygon fill="black" stroke="black" points="594.73,-249.42 603.53,-243.52 592.97,-242.64 594.73,-249.42"/>
</g>
<!-- obs_by -->
<g id="node2" class="node">
<title>obs_by</title>
<polygon fill="none" stroke="black" points="245.4,-362.33 179.15,-362.33 179.15,-326.33 245.4,-326.33 245.4,-362.33"/>
<text xml:space="preserve" text-anchor="middle" x="212.27" y="-339.28" font-family="Times,serif" font-size="14.00">obsoletes</text>
</g>
<!-- obs_by&#45;&gt;RFC7694 -->
<g id="edge1" class="edge">
<title>obs_by&#45;&gt;RFC7694</title>
<path fill="none" stroke="black" d="M245.77,-335.89C258.23,-332.65 273.36,-328.73 289.43,-324.55"/>
<polygon fill="black" stroke="black" points="289.85,-328.06 298.65,-322.16 288.1,-321.28 289.85,-328.06"/>
</g>
<!-- RFC9110 -->
<g id="node3" class="node">
<title>RFC9110</title>
<g id="a_node3"><a xlink:href="RFC9110.html" xlink:title="The Hypertext Transfer Protocol (HTTP) is a stateless application&#45;level protocol for distributed, collaborative, hypertext information systems. This document describes the overall architecture of HTTP, establishes common terminology, and defines aspects of the protocol that are shared by all versions. In this definition are core protocol elements, extensibility mechanisms, and the http and https Uniform Resource Identifier (URI) schemes. This document updates RFC 3864 and obsoletes RFCs 2818, 7231, 7232, 7233, 7235, 7538, 7615, 7694, and portions of 7230." target="_top">
<ellipse fill="none" stroke="black" cx="77.07" cy="-317.33" rx="77.07" ry="40.66"/>
<text xml:space="preserve" text-anchor="middle" x="77.07" y="-328.78" font-family="Times,serif" font-size="14.00">RFC9110</text>
<text xml:space="preserve" text-anchor="middle" x="77.07" y="-312.28" font-family="Times,serif" font-size="14.00">HTTP Semantics</text>
<text xml:space="preserve" text-anchor="middle" x="77.07" y="-295.78" font-family="Times,serif" font-size="14.00">2022</text>
</a>
</g>
</g>
<!-- RFC9110&#45;&gt;obs_by -->
<g id="edge2" class="edge">
<title>RFC9110&#45;&gt;obs_by</title>
<path fill="none" stroke="black" d="M149.35,-331.77C155.61,-333.04 161.81,-334.3 167.74,-335.5"/>
<polygon fill="black" stroke="black" points="166.75,-338.87 177.24,-337.43 168.14,-332.01 166.75,-338.87"/>
</g>
<!-- rev_cites -->
<g id="node12" class="node">
<title>rev_cites</title>
<polygon fill="none" stroke="black" points="239.27,-308.33 185.27,-308.33 185.27,-272.33 239.27,-272.33 239.27,-308.33"/>
<text xml:space="preserve" text-anchor="middle" x="212.27" y="-285.28" font-family="Times,serif" font-size="14.00">cites</text>
</g>
<!-- RFC9110&#45;&gt;rev_cites -->
<g id="edge12" class="edge">
<title>RFC9110&#45;&gt;rev_cites</title>
<path fill="none" stroke="black" d="M149.35,-302.88C157.82,-301.16 166.18,-299.47 173.88,-297.9"/>
<polygon fill="black" stroke="black" points="174.42,-301.37 183.53,-295.95 173.03,-294.51 174.42,-301.37"/>
</g>
<!-- updated_by -->
<g id="node6" class="node">
<title>updated_by</title>
<polygon fill="none" stroke="black" points="240.9,-254.33 183.65,-254.33 183.65,-218.33 240.9,-218.33 240.9,-254.33"/>
<text xml:space="preserve" text-anchor="middle" x="212.27" y="-231.28" font-family="Times,serif" font-size="14.00">updates</text>
</g>
<!-- updated_by&#45;&gt;RFC7694 -->
<g id="edge5" class="edge">
<title>updated_by&#45;&gt;RFC7694</title>
<path fill="none" stroke="black" d="M241.32,-243.61C254.51,-247.03 271.29,-251.39 289.28,-256.06"/>
<polygon fill="black" stroke="black" points="288.27,-259.41 298.83,-258.54 290.03,-252.64 288.27,-259.41"/>
</g>
<!-- RFC7231 -->
<g id="node8" class="node">
<title>RFC7231</title>
<g id="a_node8"><a xlink:href="RFC7231.html" xlink:title="The Hypertext Transfer Protocol (HTTP) is a stateless %application&#45; level protocol for distributed, collaborative, hypertext information systems. &#160;This document defines the semantics of HTTP/1.1 messages, as expressed by request methods, request header fields, response status codes, and response header fields, along with the payload of messages (metadata and body content) and mechanisms for content negotiation." target="_top">
<ellipse fill="none" stroke="black" cx="859.7" cy="-421.33" rx="169.35" ry="52.33"/>
<text xml:space="preserve" text-anchor="middle" x="859.7" y="-441.03" font-family="Times,serif" font-size="14.00">RFC7231</text>
<text xml:space="preserve" text-anchor="middle" x="859.7" y="-424.53" font-family="Times,serif" font-size="14.00">Hypertext Transfer Protocol (HTTP/1.1):</text>
<text xml:space="preserve" text-anchor="middle" x="859.7" y="-408.03" font-family="Times,serif" font-size="14.00">Semantics and Content</text>
<text xml:space="preserve" text-anchor="middle" x="859.7" y="-391.53" font-family="Times,serif" font-size="14.00">2014</text>
</a>
</g>
</g>
<!-- cites&#45;&gt;RFC7231 -->
<g id="edge7" class="edge">
<title>cites&#45;&gt;RFC7231</title>
<path fill="none" stroke="black" d="M658.38,-254.66C661,-257.34 663.41,-260.25 665.35,-263.33 688.9,-300.6 660.74,-326.66 690.35,-359.33 698.44,-368.25 707.92,-375.89 718.2,-382.43"/>
<polygon fill="black" stroke="black" points="716.15,-385.29 726.54,-387.37 719.72,-379.26 716.15,-385.29"/>
</g>
<!-- RFC7230 -->
<g id="node9" class="node">
<title>RFC7230</title>
<g id="a_node9"><a xlink:href="RFC7230.html" xlink:title="The Hypertext Transfer Protocol (HTTP) is a stateless application&#45;level protocol for distributed, collaborative, hypertext information systems. &#160;This document provides an overview of HTTP architecture and its associated terminology, defines the http and https Uniform Resource Identifier (URI) schemes, defines the HTTP/1.1 message syntax and parsing requirements, and describes related security concerns for implementations." target="_top">
<ellipse fill="none" stroke="black" cx="859.7" cy="-298.33" rx="169.35" ry="52.33"/>
<text xml:space="preserve" text-anchor="middle" x="859.7" y="-318.03" font-family="Times,serif" font-size="14.00">RFC7230</text>
<text xml:space="preserve" text-anchor="middle" x="859.7" y="-301.53" font-family="Times,serif" font-size="14.00">Hypertext Transfer Protocol (HTTP/1.1):</text>
<text xml:space="preserve" text-anchor="middle" x="859.7" y="-285.03" font-family="Times,serif" font-size="14.00">Message Syntax and Routing</text>
<text xml:space="preserve" text-anchor="middle" x="859.7" y="-268.53" font-family="Times,serif" font-size="14.00">2014</text>
</a>
</g>
</g>
<!-- cites&#45;&gt;RFC7230 -->
<g id="edge8" class="edge">
<title>cites&#45;&gt;RFC7230</title>
<path fill="none" stroke="black" d="M659.53,-243.56C675.65,-247.99 697.66,-254.04 721.18,-260.51"/>
<polygon fill="black" stroke="black" points="720.05,-263.83 730.62,-263.11 721.91,-257.08 720.05,-263.83"/>
</g>
<!-- RFC2119 -->
<g id="node10" class="node">
<title>RFC2119</title>
<g id="a_node10"><a xlink:href="RFC2119.html" xlink:title="In many standards track documents several words are used to signify the requirements in the specification. &#160;These words are often capitalized. &#160;This document defines these words as they should be interpreted in IETF documents. &#160;This document specifies an Internet Best Current Practices for the Internet Community, and requests discussion and suggestions for improvements." target="_top">
<ellipse fill="none" stroke="black" cx="859.7" cy="-175.33" rx="160.34" ry="52.33"/>
<text xml:space="preserve" text-anchor="middle" x="859.7" y="-195.03" font-family="Times,serif" font-size="14.00">RFC2119</text>
<text xml:space="preserve" text-anchor="middle" x="859.7" y="-178.53" font-family="Times,serif" font-size="14.00">Key words for use in RFCs to Indicate</text>
<text xml:space="preserve" text-anchor="middle" x="859.7" y="-162.03" font-family="Times,serif" font-size="14.00">Requirement Levels</text>
<text xml:space="preserve" text-anchor="middle" x="859.7" y="-145.53" font-family="Times,serif" font-size="14.00">1997</text>
</a>
</g>
</g>
<!-- cites&#45;&gt;RFC2119 -->
<g id="edge9" class="edge">
<title>cites&#45;&gt;RFC2119</title>
<path fill="none" stroke="black" d="M659.53,-229.21C676.33,-224.66 699.53,-218.39 724.17,-211.72"/>
<polygon fill="black" stroke="black" points="724.99,-215.13 733.73,-209.14 723.16,-208.37 724.99,-215.13"/>
</g>
<!-- RFC7540 -->
<g id="node11" class="node">
<title>RFC7540</title>
<g id="a_node11"><a xlink:href="RFC7540.html" xlink:title="This specification describes an optimized expression of the semantics of the Hypertext Transfer Protocol (HTTP), referred to as HTTP version 2 (HTTP/2). HTTP/2 enables a more efficient use of network resources and a reduced perception of latency by introducing header field compression and allowing multiple concurrent exchanges on the same connection. It also introduces unsolicited push of representations from servers to clients. This specification is an alternative to, but does not obsolete, the HTTP/1.1 message syntax. HTTP&#39;s existing semantics remain unchanged." target="_top">
<ellipse fill="none" stroke="black" cx="859.7" cy="-52.33" rx="157.68" ry="52.33"/>
<text xml:space="preserve" text-anchor="middle" x="859.7" y="-72.03" font-family="Times,serif" font-size="14.00">RFC7540</text>
<text xml:space="preserve" text-anchor="middle" x="859.7" y="-55.53" font-family="Times,serif" font-size="14.00">Hypertext Transfer Protocol Version 2</text>
<text xml:space="preserve" text-anchor="middle" x="859.7" y="-39.03" font-family="Times,serif" font-size="14.00">(HTTP/2)</text>
<text xml:space="preserve" text-anchor="middle" x="859.7" y="-22.53" font-family="Times,serif" font-size="14.00">2015</text>
</a>
</g>
</g>
<!-- cites&#45;&gt;RFC7540 -->
<g id="edge10" class="edge">
<title>cites&#45;&gt;RFC7540</title>
<path fill="none" stroke="black" d="M637.14,-217.98C643.7,-191.55 659.35,-142.8 690.35,-114.33 700.67,-104.85 712.56,-96.79 725.15,-89.94"/>
<polygon fill="black" stroke="black" points="726.72,-93.07 734.03,-85.39 723.53,-86.84 726.72,-93.07"/>
</g>
<!-- rev_cites&#45;&gt;RFC7694 -->
<g id="edge11" class="edge">
<title>rev_cites&#45;&gt;RFC7694</title>
<path fill="none" stroke="black" d="M239.61,-290.33C245.35,-290.33 251.82,-290.33 258.82,-290.33"/>
<polygon fill="black" stroke="black" points="258.69,-293.83 268.69,-290.33 258.69,-286.83 258.69,-293.83"/>
</g>
</g>
</svg>
