<?xml version="1.0" encoding="UTF-8" standalone="no"?>
<!DOCTYPE svg PUBLIC "-//W3C//DTD SVG 1.1//EN"
 "http://www.w3.org/Graphics/SVG/1.1/DTD/svg11.dtd">
<!-- Generated by graphviz version 14.1.1 (20251213.1925)
 -->
<!-- Title: Flow Pages: 1 -->
<svg width="1331pt" height="1149pt"
 viewBox="0.00 0.00 1331.00 1149.00" xmlns="http://www.w3.org/2000/svg" xmlns:xlink="http://www.w3.org/1999/xlink">
<g id="graph0" class="graph" transform="scale(1 1) rotate(0) translate(4 1144.55)">
<title>Flow</title>
<polygon fill="white" stroke="none" points="-4,4 -4,-1144.55 1327.32,-1144.55 1327.32,4 -4,4"/>
<!-- RFC7447 -->
<g id="node1" class="node">
<title>RFC7447</title>
<g id="a_node1"><a xlink:title="The BGP Entropy Label Capability attribute is defined in RFC 6790. &#160;Regrettably, it has a bug: although RFC 6790 mandates that routers incapable of processing Entropy Labels must remove the attribute, fulfillment of this requirement cannot be guaranteed in practice. &#160;This specification deprecates the attribute. &#160;A forthcoming document will propose a replacement.">
<ellipse fill="green" stroke="black" stroke-width="3" cx="873.82" cy="-374.74" rx="193.22" ry="65.05"/>
<text xml:space="preserve" text-anchor="middle" x="873.82" y="-399.64" font-family="Times,serif" font-size="18.00">RFC7447</text>
<text xml:space="preserve" text-anchor="middle" x="873.82" y="-378.64" font-family="Times,serif" font-size="18.00">Deprecation of BGP Entropy Label</text>
<text xml:space="preserve" text-anchor="middle" x="873.82" y="-357.64" font-family="Times,serif" font-size="18.00">Capability Attribute</text>
<text xml:space="preserve" text-anchor="middle" x="873.82" y="-336.64" font-family="Times,serif" font-size="18.00">2015</text>
</a>
</g>
</g>
<!-- obs -->
<g id="node3" class="node">
<title>obs</title>
<polygon fill="lightblue" stroke="black" points="1263.68,-540.51 1197.43,-540.51 1197.43,-504.51 1263.68,-504.51 1263.68,-540.51"/>
<text xml:space="preserve" text-anchor="middle" x="1230.56" y="-517.46" font-family="Times,serif" font-size="14.00">obsoletes</text>
</g>
<!-- RFC7447&#45;&gt;obs -->
<g id="edge2" class="edge">
<title>RFC7447&#45;&gt;obs</title>
<path fill="none" stroke="black" d="M997.59,-426.01C1063.3,-453.23 1139.96,-484.98 1186.87,-504.41"/>
<polygon fill="black" stroke="black" points="1185.3,-507.55 1195.88,-508.14 1187.98,-501.08 1185.3,-507.55"/>
</g>
<!-- updates -->
<g id="node4" class="node">
<title>updates</title>
<polygon fill="lightyellow" stroke="black" points="1050.21,-749.48 992.96,-749.48 992.96,-713.48 1050.21,-713.48 1050.21,-749.48"/>
<text xml:space="preserve" text-anchor="middle" x="1021.58" y="-726.43" font-family="Times,serif" font-size="14.00">updates</text>
</g>
<!-- RFC7447&#45;&gt;updates -->
<g id="edge3" class="edge">
<title>RFC7447&#45;&gt;updates</title>
<path fill="none" stroke="black" d="M901.09,-440.59C933.54,-518.91 986.25,-646.17 1009.69,-702.77"/>
<polygon fill="black" stroke="black" points="1006.33,-703.81 1013.39,-711.71 1012.8,-701.13 1006.33,-703.81"/>
</g>
<!-- cites -->
<g id="node7" class="node">
<title>cites</title>
<polygon fill="lightblue" stroke="black" points="544.08,-540.51 490.08,-540.51 490.08,-504.51 544.08,-504.51 544.08,-540.51"/>
<text xml:space="preserve" text-anchor="middle" x="517.08" y="-517.46" font-family="Times,serif" font-size="14.00">cites</text>
</g>
<!-- RFC7447&#45;&gt;cites -->
<g id="edge6" class="edge">
<title>RFC7447&#45;&gt;cites</title>
<path fill="none" stroke="black" d="M750.05,-426.01C681.49,-454.41 601.02,-487.74 554.84,-506.86"/>
<polygon fill="black" stroke="black" points="553.72,-503.54 545.82,-510.6 556.4,-510.01 553.72,-503.54"/>
</g>
<!-- obs_by -->
<g id="node2" class="node">
<title>obs_by</title>
<polygon fill="lightblue" stroke="black" points="759.17,-36 692.92,-36 692.92,0 759.17,0 759.17,-36"/>
<text xml:space="preserve" text-anchor="middle" x="726.05" y="-12.95" font-family="Times,serif" font-size="14.00">obsoletes</text>
</g>
<!-- obs_by&#45;&gt;RFC7447 -->
<g id="edge1" class="edge">
<title>obs_by&#45;&gt;RFC7447</title>
<path fill="none" stroke="black" d="M733.58,-36.18C753.29,-83.77 807.29,-214.13 842.24,-298.51"/>
<polygon fill="black" stroke="black" points="838.98,-299.78 846.04,-307.67 845.44,-297.1 838.98,-299.78"/>
</g>
<!-- RFC6790 -->
<g id="node5" class="node">
<title>RFC6790</title>
<g id="a_node5"><a xlink:href="RFC6790.html" xlink:title="Load balancing is a powerful tool for engineering traffic across a network. &#160;This memo suggests ways of improving load balancing across MPLS networks using the concept of entropy labels. &#160;It defines the concept, describes why entropy labels are useful, enumerates properties of entropy labels that allow maximal benefit, and shows how they can be signaled and used for various applications. &#160;This document updates RFCs 3031, 3107, 3209, and 5036. [STANDARDS&#45;TRACK]" target="_top">
<ellipse fill="none" stroke="black" cx="1169.35" cy="-1088.22" rx="153.97" ry="52.33"/>
<text xml:space="preserve" text-anchor="middle" x="1169.35" y="-1107.92" font-family="Times,serif" font-size="14.00">RFC6790</text>
<text xml:space="preserve" text-anchor="middle" x="1169.35" y="-1091.42" font-family="Times,serif" font-size="14.00">The Use of Entropy Labels in MPLS</text>
<text xml:space="preserve" text-anchor="middle" x="1169.35" y="-1074.92" font-family="Times,serif" font-size="14.00">Forwarding</text>
<text xml:space="preserve" text-anchor="middle" x="1169.35" y="-1058.42" font-family="Times,serif" font-size="14.00">2012</text>
</a>
</g>
</g>
<!-- updates&#45;&gt;RFC6790 -->
<g id="edge4" class="edge">
<title>updates&#45;&gt;RFC6790</title>
<path fill="none" stroke="black" d="M1029.11,-749.66C1049.9,-799.85 1108.84,-942.13 1143.33,-1025.41"/>
<polygon fill="black" stroke="black" points="1140.08,-1026.71 1147.14,-1034.6 1146.55,-1024.03 1140.08,-1026.71"/>
</g>
<!-- updated_by -->
<g id="node6" class="node">
<title>updated_by</title>
<polygon fill="lightyellow" stroke="black" points="1050.21,-36 992.96,-36 992.96,0 1050.21,0 1050.21,-36"/>
<text xml:space="preserve" text-anchor="middle" x="1021.58" y="-12.95" font-family="Times,serif" font-size="14.00">updates</text>
</g>
<!-- updated_by&#45;&gt;RFC7447 -->
<g id="edge5" class="edge">
<title>updated_by&#45;&gt;RFC7447</title>
<path fill="none" stroke="black" d="M1014.05,-36.18C994.34,-83.77 940.34,-214.13 905.39,-298.51"/>
<polygon fill="black" stroke="black" points="902.19,-297.1 901.6,-307.67 908.66,-299.78 902.19,-297.1"/>
</g>
<!-- cites&#45;&gt;RFC6790 -->
<g id="edge7" class="edge">
<title>cites&#45;&gt;RFC6790</title>
<path fill="none" stroke="black" d="M538.04,-540.69C625.27,-616.34 961.57,-908.02 1104.49,-1031.97"/>
<polygon fill="black" stroke="black" points="1101.81,-1034.28 1111.66,-1038.18 1106.4,-1028.99 1101.81,-1034.28"/>
</g>
<!-- RFC4271 -->
<g id="node8" class="node">
<title>RFC4271</title>
<g id="a_node8"><a xlink:href="RFC4271.html" xlink:title="This document discusses the Border Gateway Protocol (BGP), which is an inter&#45;Autonomous System routing protocol. The primary function of a BGP speaking system is to exchange network reachability information with other BGP systems. This network reachability information includes information on the list of Autonomous Systems (ASes) that reachability information traverses. This information is sufficient for constructing a graph of AS connectivity for this reachability from which routing loops may be pruned, and, at the AS level, some policy decisions may be enforced. BGP&#45;4 provides a set of mechanisms for supporting Classless Inter&#45;Domain Routing (CIDR). These mechanisms include support for advertising a set of destinations as an IP prefix, and eliminating the concept of network class within BGP. BGP&#45;4 also introduces mechanisms that allow aggregation of routes, including aggregation of AS paths. This document obsoletes RFC 1771. [STANDARDS&#45;TRACK]" target="_top">
<ellipse fill="none" stroke="black" cx="578.28" cy="-1088.22" rx="161.4" ry="40.66"/>
<text xml:space="preserve" text-anchor="middle" x="578.28" y="-1099.67" font-family="Times,serif" font-size="14.00">RFC4271</text>
<text xml:space="preserve" text-anchor="middle" x="578.28" y="-1083.17" font-family="Times,serif" font-size="14.00">A Border Gateway Protocol 4 (BGP&#45;4)</text>
<text xml:space="preserve" text-anchor="middle" x="578.28" y="-1066.67" font-family="Times,serif" font-size="14.00">2006</text>
</a>
</g>
</g>
<!-- cites&#45;&gt;RFC4271 -->
<g id="edge8" class="edge">
<title>cites&#45;&gt;RFC4271</title>
<path fill="none" stroke="black" d="M519.04,-540.69C527.32,-617.18 559.49,-914.49 572.64,-1036.02"/>
<polygon fill="black" stroke="black" points="569.13,-1036.15 573.68,-1045.71 576.09,-1035.39 569.13,-1036.15"/>
</g>
<!-- RFC2119 -->
<g id="node9" class="node">
<title>RFC2119</title>
<g id="a_node9"><a xlink:href="RFC2119.html" xlink:title="In many standards track documents several words are used to signify the requirements in the specification. &#160;These words are often capitalized. &#160;This document defines these words as they should be interpreted in IETF documents. &#160;This document specifies an Internet Best Current Practices for the Internet Community, and requests discussion and suggestions for improvements." target="_top">
<ellipse fill="none" stroke="black" cx="160.34" cy="-670.27" rx="160.34" ry="52.33"/>
<text xml:space="preserve" text-anchor="middle" x="160.34" y="-689.97" font-family="Times,serif" font-size="14.00">RFC2119</text>
<text xml:space="preserve" text-anchor="middle" x="160.34" y="-673.47" font-family="Times,serif" font-size="14.00">Key words for use in RFCs to Indicate</text>
<text xml:space="preserve" text-anchor="middle" x="160.34" y="-656.97" font-family="Times,serif" font-size="14.00">Requirement Levels</text>
<text xml:space="preserve" text-anchor="middle" x="160.34" y="-640.47" font-family="Times,serif" font-size="14.00">1997</text>
</a>
</g>
</g>
<!-- cites&#45;&gt;RFC2119 -->
<g id="edge9" class="edge">
<title>cites&#45;&gt;RFC2119</title>
<path fill="none" stroke="black" d="M489.68,-533.86C443.3,-553.07 346.92,-592.99 270.34,-624.71"/>
<polygon fill="black" stroke="black" points="269.45,-621.29 261.55,-628.35 272.13,-627.76 269.45,-621.29"/>
</g>
<!-- RFC4272 -->
<g id="node10" class="node">
<title>RFC4272</title>
<g id="a_node10"><a xlink:href="RFC4272.html" xlink:title="Border Gateway Protocol 4 (BGP&#45;4), along with a host of other infrastructure protocols designed before the Internet environment became perilous, was originally designed with little consideration for protection of the information it carries. There are no mechanisms internal to BGP that protect against attacks that modify, delete, forge, or replay data, any of which has the potential to disrupt overall network routing behavior. This document discusses some of the security issues with BGP routing data dissemination. This document does not discuss security issues with forwarding of packets. This memo provides information for the Internet community." target="_top">
<ellipse fill="none" stroke="black" cx="160.34" cy="-79.21" rx="158.22" ry="40.66"/>
<text xml:space="preserve" text-anchor="middle" x="160.34" y="-90.66" font-family="Times,serif" font-size="14.00">RFC4272</text>
<text xml:space="preserve" text-anchor="middle" x="160.34" y="-74.16" font-family="Times,serif" font-size="14.00">BGP Security Vulnerabilities Analysis</text>
<text xml:space="preserve" text-anchor="middle" x="160.34" y="-57.66" font-family="Times,serif" font-size="14.00">2006</text>
</a>
</g>
</g>
<!-- cites&#45;&gt;RFC4272 -->
<g id="edge10" class="edge">
<title>cites&#45;&gt;RFC4272</title>
<path fill="none" stroke="black" d="M502.2,-504.02C450.6,-439.91 278.21,-225.68 199.78,-128.22"/>
<polygon fill="black" stroke="black" points="202.66,-126.22 193.67,-120.63 197.21,-130.61 202.66,-126.22"/>
</g>
<!-- rev_cites -->
<g id="node11" class="node">
<title>rev_cites</title>
<polygon fill="lightblue" stroke="black" points="1257.56,-244.97 1203.56,-244.97 1203.56,-208.97 1257.56,-208.97 1257.56,-244.97"/>
<text xml:space="preserve" text-anchor="middle" x="1230.56" y="-221.92" font-family="Times,serif" font-size="14.00">cites</text>
</g>
<!-- rev_cites&#45;&gt;RFC7447 -->
<g id="edge11" class="edge">
<title>rev_cites&#45;&gt;RFC7447</title>
<path fill="none" stroke="black" d="M1203.16,-238.32C1161.56,-255.55 1079.72,-289.45 1008.04,-319.14"/>
<polygon fill="black" stroke="black" points="1006.84,-315.85 998.94,-322.91 1009.52,-322.32 1006.84,-315.85"/>
</g>
</g>
</svg>
