<?xml version="1.0" encoding="UTF-8" standalone="no"?>
<!DOCTYPE svg PUBLIC "-//W3C//DTD SVG 1.1//EN"
 "http://www.w3.org/Graphics/SVG/1.1/DTD/svg11.dtd">
<!-- Generated by graphviz version 14.1.1 (20251213.1925)
 -->
<!-- Title: Flow Pages: 1 -->
<svg width="953pt" height="236pt"
 viewBox="0.00 0.00 953.00 236.00" xmlns="http://www.w3.org/2000/svg" xmlns:xlink="http://www.w3.org/1999/xlink">
<g id="graph0" class="graph" transform="scale(1 1) rotate(0) translate(4 232.43)">
<title>Flow</title>
<polygon fill="white" stroke="none" points="-4,4 -4,-232.43 948.82,-232.43 948.82,4 -4,4"/>
<!-- RFC7073 -->
<g id="node1" class="node">
<title>RFC7073</title>
<g id="a_node1"><a xlink:title="This document defines a response set for describing assertions a reputation service provider can make about email identifiers, for use in generating reputons.">
<ellipse fill="none" stroke="black" cx="247.34" cy="-115.77" rx="156.09" ry="52.33"/>
<text xml:space="preserve" text-anchor="middle" x="247.34" y="-135.47" font-family="Times,serif" font-size="14.00">RFC7073</text>
<text xml:space="preserve" text-anchor="middle" x="247.34" y="-118.97" font-family="Times,serif" font-size="14.00">A Reputation Response Set for Email</text>
<text xml:space="preserve" text-anchor="middle" x="247.34" y="-102.47" font-family="Times,serif" font-size="14.00">Identifiers</text>
<text xml:space="preserve" text-anchor="middle" x="247.34" y="-85.97" font-family="Times,serif" font-size="14.00">2013</text>
</a>
</g>
</g>
<!-- obs -->
<g id="node3" class="node">
<title>obs</title>
<polygon fill="none" stroke="black" points="494.69,-214.77 428.44,-214.77 428.44,-178.77 494.69,-178.77 494.69,-214.77"/>
<text xml:space="preserve" text-anchor="middle" x="461.56" y="-191.72" font-family="Times,serif" font-size="14.00">obsoletes</text>
</g>
<!-- RFC7073&#45;&gt;obs -->
<g id="edge2" class="edge">
<title>RFC7073&#45;&gt;obs</title>
<path fill="none" stroke="black" d="M351.34,-155.08C374.76,-164.02 398.38,-173.03 417.63,-180.38"/>
<polygon fill="black" stroke="black" points="416.13,-183.56 426.72,-183.85 418.63,-177.02 416.13,-183.56"/>
</g>
<!-- updates -->
<g id="node4" class="node">
<title>updates</title>
<polygon fill="none" stroke="black" points="490.19,-160.77 432.94,-160.77 432.94,-124.77 490.19,-124.77 490.19,-160.77"/>
<text xml:space="preserve" text-anchor="middle" x="461.56" y="-137.72" font-family="Times,serif" font-size="14.00">updates</text>
</g>
<!-- RFC7073&#45;&gt;updates -->
<g id="edge3" class="edge">
<title>RFC7073&#45;&gt;updates</title>
<path fill="none" stroke="black" d="M393.71,-134.26C403.57,-135.52 412.92,-136.71 421.31,-137.78"/>
<polygon fill="black" stroke="black" points="420.65,-141.22 431.01,-139.01 421.54,-134.28 420.65,-141.22"/>
</g>
<!-- cites -->
<g id="node6" class="node">
<title>cites</title>
<polygon fill="none" stroke="black" points="488.56,-106.77 434.56,-106.77 434.56,-70.77 488.56,-70.77 488.56,-106.77"/>
<text xml:space="preserve" text-anchor="middle" x="461.56" y="-83.72" font-family="Times,serif" font-size="14.00">cites</text>
</g>
<!-- RFC7073&#45;&gt;cites -->
<g id="edge5" class="edge">
<title>RFC7073&#45;&gt;cites</title>
<path fill="none" stroke="black" d="M393.71,-97.28C404.19,-95.94 414.07,-94.68 422.87,-93.57"/>
<polygon fill="black" stroke="black" points="423.15,-97.06 432.63,-92.32 422.27,-90.11 423.15,-97.06"/>
</g>
<!-- obs_by -->
<g id="node2" class="node">
<title>obs_by</title>
<polygon fill="none" stroke="black" points="66.25,-160.77 0,-160.77 0,-124.77 66.25,-124.77 66.25,-160.77"/>
<text xml:space="preserve" text-anchor="middle" x="33.12" y="-137.72" font-family="Times,serif" font-size="14.00">obsoletes</text>
</g>
<!-- obs_by&#45;&gt;RFC7073 -->
<g id="edge1" class="edge">
<title>obs_by&#45;&gt;RFC7073</title>
<path fill="none" stroke="black" d="M66.36,-138.67C73.37,-137.78 81.24,-136.78 89.66,-135.7"/>
<polygon fill="black" stroke="black" points="90.05,-139.18 99.53,-134.45 89.17,-132.24 90.05,-139.18"/>
</g>
<!-- updated_by -->
<g id="node5" class="node">
<title>updated_by</title>
<polygon fill="none" stroke="black" points="61.75,-106.77 4.5,-106.77 4.5,-70.77 61.75,-70.77 61.75,-106.77"/>
<text xml:space="preserve" text-anchor="middle" x="33.12" y="-83.72" font-family="Times,serif" font-size="14.00">updates</text>
</g>
<!-- updated_by&#45;&gt;RFC7073 -->
<g id="edge4" class="edge">
<title>updated_by&#45;&gt;RFC7073</title>
<path fill="none" stroke="black" d="M61.87,-92.3C69.87,-93.32 79.22,-94.51 89.38,-95.8"/>
<polygon fill="black" stroke="black" points="88.84,-99.26 99.2,-97.05 89.72,-92.32 88.84,-99.26"/>
</g>
<!-- RFC7070 -->
<g id="node7" class="node">
<title>RFC7070</title>
<g id="a_node7"><a xlink:href="RFC7070.html" xlink:title="This document describes a general architecture for a reputation&#45;based service, allowing one to request reputation&#45;related data over the Internet, where reputation refers to predictions or expectations about an entity or an identifier such as a domain name. &#160;The document roughly follows the recommendations of RFC 4101 for describing a protocol model." target="_top">
<ellipse fill="none" stroke="black" cx="692.75" cy="-187.77" rx="172" ry="40.66"/>
<text xml:space="preserve" text-anchor="middle" x="692.75" y="-199.22" font-family="Times,serif" font-size="14.00">RFC7070</text>
<text xml:space="preserve" text-anchor="middle" x="692.75" y="-182.72" font-family="Times,serif" font-size="14.00">An Architecture for Reputation Reporting</text>
<text xml:space="preserve" text-anchor="middle" x="692.75" y="-166.22" font-family="Times,serif" font-size="14.00">2013</text>
</a>
</g>
</g>
<!-- cites&#45;&gt;RFC7070 -->
<g id="edge6" class="edge">
<title>cites&#45;&gt;RFC7070</title>
<path fill="none" stroke="black" d="M484.79,-107.23C488.13,-110.07 491.51,-112.98 494.69,-115.77 506.03,-125.74 506.52,-131.39 519.69,-138.77 531.12,-145.17 543.46,-150.8 556.09,-155.72"/>
<polygon fill="black" stroke="black" points="554.75,-158.96 565.34,-159.17 557.19,-152.4 554.75,-158.96"/>
</g>
<!-- RFC7071 -->
<g id="node8" class="node">
<title>RFC7071</title>
<g id="a_node8"><a xlink:href="RFC7071.html" xlink:title="This document defines the format of reputation response data (reputons), the media type for packaging it, and definition of a registry for the names of reputation applications and response sets." target="_top">
<ellipse fill="none" stroke="black" cx="692.75" cy="-88.77" rx="173.06" ry="40.66"/>
<text xml:space="preserve" text-anchor="middle" x="692.75" y="-100.22" font-family="Times,serif" font-size="14.00">RFC7071</text>
<text xml:space="preserve" text-anchor="middle" x="692.75" y="-83.72" font-family="Times,serif" font-size="14.00">A Media Type for Reputation Interchange</text>
<text xml:space="preserve" text-anchor="middle" x="692.75" y="-67.22" font-family="Times,serif" font-size="14.00">2013</text>
</a>
</g>
</g>
<!-- cites&#45;&gt;RFC7071 -->
<g id="edge7" class="edge">
<title>cites&#45;&gt;RFC7071</title>
<path fill="none" stroke="black" d="M488.85,-88.77C494.56,-88.77 501.02,-88.77 508.02,-88.77"/>
<polygon fill="black" stroke="black" points="507.93,-92.27 517.93,-88.77 507.93,-85.27 507.93,-92.27"/>
</g>
<!-- rev_cites -->
<g id="node9" class="node">
<title>rev_cites</title>
<polygon fill="none" stroke="black" points="944.82,-106.77 890.82,-106.77 890.82,-70.77 944.82,-70.77 944.82,-106.77"/>
<text xml:space="preserve" text-anchor="middle" x="917.82" y="-83.72" font-family="Times,serif" font-size="14.00">cites</text>
</g>
<!-- RFC7070&#45;&gt;rev_cites -->
<g id="edge9" class="edge">
<title>RFC7070&#45;&gt;rev_cites</title>
<path fill="none" stroke="black" d="M819.44,-159.97C835.57,-154.12 851.45,-147.12 865.82,-138.77 876.43,-132.6 886.46,-123.73 894.77,-115.16"/>
<polygon fill="black" stroke="black" points="897.24,-117.65 901.45,-107.92 892.09,-112.9 897.24,-117.65"/>
</g>
<!-- RFC7071&#45;&gt;rev_cites -->
<g id="edge10" class="edge">
<title>RFC7071&#45;&gt;rev_cites</title>
<path fill="none" stroke="black" d="M866.2,-88.77C870.67,-88.77 874.96,-88.77 879.01,-88.77"/>
<polygon fill="black" stroke="black" points="878.9,-92.27 888.9,-88.77 878.9,-85.27 878.9,-92.27"/>
</g>
<!-- rev_cites&#45;&gt;RFC7073 -->
<g id="edge8" class="edge">
<title>rev_cites&#45;&gt;RFC7073</title>
<path fill="none" stroke="black" d="M903.99,-70.31C894.85,-58.86 881.43,-45.15 865.82,-38.77 685.61,34.83 616.09,-10.01 428.44,-61.77 410.9,-66.61 392.45,-71.9 374.34,-77.22"/>
<polygon fill="black" stroke="black" points="373.47,-73.82 364.86,-80.01 375.45,-80.54 373.47,-73.82"/>
</g>
</g>
</svg>
