<?xml version="1.0" encoding="UTF-8" standalone="no"?>
<!DOCTYPE svg PUBLIC "-//W3C//DTD SVG 1.1//EN"
 "http://www.w3.org/Graphics/SVG/1.1/DTD/svg11.dtd">
<!-- Generated by graphviz version 14.1.1 (20251213.1925)
 -->
<!-- Title: Flow Pages: 1 -->
<svg width="1296pt" height="851pt"
 viewBox="0.00 0.00 1296.00 851.00" xmlns="http://www.w3.org/2000/svg" xmlns:xlink="http://www.w3.org/1999/xlink">
<g id="graph0" class="graph" transform="scale(1 1) rotate(0) translate(4 846.65)">
<title>Flow</title>
<polygon fill="white" stroke="none" points="-4,4 -4,-846.65 1291.86,-846.65 1291.86,4 -4,4"/>
<!-- RFC7550 -->
<g id="node1" class="node">
<title>RFC7550</title>
<g id="a_node1"><a xlink:title="The Dynamic Host Configuration Protocol for IPv6 (DHCPv6) specification defined two stateful options, IA_NA and IA_TA, but did not anticipate the development of additional stateful options. &#160;DHCPv6 Prefix Delegation added the IA_PD option, which is stateful. &#160;Applications that use IA_NA and IA_PD together have revealed issues that need to be addressed. &#160;This document updates RFCs 3315 and 3633 to address these issues.">
<ellipse fill="green" stroke="black" cx="642.87" cy="-667.33" rx="181.55" ry="52.33"/>
<text xml:space="preserve" text-anchor="middle" x="642.87" y="-687.03" font-family="Times,serif" font-size="14.00">RFC7550</text>
<text xml:space="preserve" text-anchor="middle" x="642.87" y="-670.53" font-family="Times,serif" font-size="14.00">Issues and Recommendations with Multiple</text>
<text xml:space="preserve" text-anchor="middle" x="642.87" y="-654.03" font-family="Times,serif" font-size="14.00">Stateful DHCPv6 Options</text>
<text xml:space="preserve" text-anchor="middle" x="642.87" y="-637.53" font-family="Times,serif" font-size="14.00">2015</text>
</a>
</g>
</g>
<!-- obs -->
<g id="node4" class="node">
<title>obs</title>
<polygon fill="lightblue" stroke="black" points="915.67,-739.33 849.42,-739.33 849.42,-703.33 915.67,-703.33 915.67,-739.33"/>
<text xml:space="preserve" text-anchor="middle" x="882.54" y="-716.28" font-family="Times,serif" font-size="14.00">obsoletes</text>
</g>
<!-- RFC7550&#45;&gt;obs -->
<g id="edge3" class="edge">
<title>RFC7550&#45;&gt;obs</title>
<path fill="none" stroke="black" d="M786.58,-699.75C805.28,-704 823.16,-708.06 838.25,-711.49"/>
<polygon fill="black" stroke="black" points="837.22,-714.84 847.75,-713.65 838.77,-708.02 837.22,-714.84"/>
</g>
<!-- updates -->
<g id="node5" class="node">
<title>updates</title>
<polygon fill="lightyellow" stroke="black" points="911.17,-685.33 853.92,-685.33 853.92,-649.33 911.17,-649.33 911.17,-685.33"/>
<text xml:space="preserve" text-anchor="middle" x="882.54" y="-662.28" font-family="Times,serif" font-size="14.00">updates</text>
</g>
<!-- RFC7550&#45;&gt;updates -->
<g id="edge4" class="edge">
<title>RFC7550&#45;&gt;updates</title>
<path fill="none" stroke="black" d="M824.92,-667.33C831.04,-667.33 836.86,-667.33 842.27,-667.33"/>
<polygon fill="black" stroke="black" points="841.92,-670.83 851.92,-667.33 841.92,-663.83 841.92,-670.83"/>
</g>
<!-- cites -->
<g id="node9" class="node">
<title>cites</title>
<polygon fill="lightblue" stroke="black" points="909.54,-501.33 855.54,-501.33 855.54,-465.33 909.54,-465.33 909.54,-501.33"/>
<text xml:space="preserve" text-anchor="middle" x="882.54" y="-478.28" font-family="Times,serif" font-size="14.00">cites</text>
</g>
<!-- RFC7550&#45;&gt;cites -->
<g id="edge8" class="edge">
<title>RFC7550&#45;&gt;cites</title>
<path fill="none" stroke="black" d="M707.56,-618.02C753.19,-582.69 812.77,-536.57 849.04,-508.49"/>
<polygon fill="black" stroke="black" points="850.77,-511.57 856.54,-502.68 846.49,-506.04 850.77,-511.57"/>
</g>
<!-- obs_by -->
<g id="node2" class="node">
<title>obs_by</title>
<polygon fill="lightblue" stroke="black" points="436.32,-739.33 370.07,-739.33 370.07,-703.33 436.32,-703.33 436.32,-739.33"/>
<text xml:space="preserve" text-anchor="middle" x="403.19" y="-716.28" font-family="Times,serif" font-size="14.00">obsoletes</text>
</g>
<!-- obs_by&#45;&gt;RFC7550 -->
<g id="edge1" class="edge">
<title>obs_by&#45;&gt;RFC7550</title>
<path fill="none" stroke="black" d="M436.74,-713.93C451.05,-710.68 468.98,-706.61 488.24,-702.23"/>
<polygon fill="black" stroke="black" points="488.94,-705.66 497.92,-700.03 487.39,-698.83 488.94,-705.66"/>
</g>
<!-- RFC8415 -->
<g id="node3" class="node">
<title>RFC8415</title>
<g id="a_node3"><a xlink:href="RFC8415.html" xlink:title="This document describes the Dynamic Host Configuration Protocol for IPv6 (DHCPv6): an extensible mechanism for configuring nodes with network configuration parameters, IP addresses, and prefixes. Parameters can be provided statelessly, or in combination with stateful assignment of one or more IPv6 addresses and/or IPv6 prefixes. DHCPv6 can operate either in place of or in addition to stateless address autoconfiguration (SLAAC). This document updates the text from RFC 3315 (the original DHCPv6 specification) and incorporates prefix delegation (RFC 3633), stateless DHCPv6 (RFC 3736), an option to specify an upper bound for how long a client should wait before refreshing information (RFC 4242), a mechanism for throttling DHCPv6 clients when DHCPv6 service is not available (RFC 7083), and relay agent handling of unknown messages (RFC 7283). In addition, this document clarifies the interactions between models of operation (RFC 7550). As such, this document obsoletes RFC 3315, RFC 3633, RFC 3736, RFC 4242, RFC 7083, RFC 7283, and RFC 7550." target="_top">
<ellipse fill="none" stroke="black" cx="172.53" cy="-721.33" rx="172.53" ry="52.33"/>
<text xml:space="preserve" text-anchor="middle" x="172.53" y="-741.03" font-family="Times,serif" font-size="14.00">RFC8415</text>
<text xml:space="preserve" text-anchor="middle" x="172.53" y="-724.53" font-family="Times,serif" font-size="14.00">Dynamic Host Configuration Protocol for</text>
<text xml:space="preserve" text-anchor="middle" x="172.53" y="-708.03" font-family="Times,serif" font-size="14.00">IPv6 (DHCPv6)</text>
<text xml:space="preserve" text-anchor="middle" x="172.53" y="-691.53" font-family="Times,serif" font-size="14.00">2018</text>
</a>
</g>
</g>
<!-- RFC8415&#45;&gt;obs_by -->
<g id="edge2" class="edge">
<title>RFC8415&#45;&gt;obs_by</title>
<path fill="none" stroke="black" d="M345.38,-721.33C349.91,-721.33 354.28,-721.33 358.45,-721.33"/>
<polygon fill="black" stroke="black" points="358.1,-724.83 368.1,-721.33 358.1,-717.83 358.1,-724.83"/>
</g>
<!-- rev_cites -->
<g id="node15" class="node">
<title>rev_cites</title>
<polygon fill="lightblue" stroke="black" points="430.19,-631.33 376.19,-631.33 376.19,-595.33 430.19,-595.33 430.19,-631.33"/>
<text xml:space="preserve" text-anchor="middle" x="403.19" y="-608.28" font-family="Times,serif" font-size="14.00">cites</text>
</g>
<!-- RFC8415&#45;&gt;rev_cites -->
<g id="edge18" class="edge">
<title>RFC8415&#45;&gt;rev_cites</title>
<path fill="none" stroke="black" d="M294.92,-684.14C312.19,-677.15 329.39,-669.2 345.07,-660.33 346.7,-659.4 358.78,-649.5 371.4,-639.03"/>
<polygon fill="black" stroke="black" points="373.5,-641.84 378.95,-632.76 369.02,-636.46 373.5,-641.84"/>
</g>
<!-- RFC3315 -->
<g id="node6" class="node">
<title>RFC3315</title>
<g id="a_node6"><a xlink:href="RFC3315.html" xlink:title="None" target="_top">
<ellipse fill="none" stroke="black" cx="1114.26" cy="-667.33" rx="172.53" ry="52.33"/>
<text xml:space="preserve" text-anchor="middle" x="1114.26" y="-687.03" font-family="Times,serif" font-size="14.00">RFC3315</text>
<text xml:space="preserve" text-anchor="middle" x="1114.26" y="-670.53" font-family="Times,serif" font-size="14.00">Dynamic Host Configuration Protocol for</text>
<text xml:space="preserve" text-anchor="middle" x="1114.26" y="-654.03" font-family="Times,serif" font-size="14.00">IPv6 (DHCPv6)</text>
<text xml:space="preserve" text-anchor="middle" x="1114.26" y="-637.53" font-family="Times,serif" font-size="14.00">2003</text>
</a>
</g>
</g>
<!-- updates&#45;&gt;RFC3315 -->
<g id="edge5" class="edge">
<title>updates&#45;&gt;RFC3315</title>
<path fill="none" stroke="black" d="M911.25,-667.33C916.97,-667.33 923.38,-667.33 930.32,-667.33"/>
<polygon fill="black" stroke="black" points="930.1,-670.83 940.1,-667.33 930.1,-663.83 930.1,-670.83"/>
</g>
<!-- RFC3633 -->
<g id="node7" class="node">
<title>RFC3633</title>
<g id="a_node7"><a xlink:href="RFC3633.html" xlink:title="The Prefix Delegation options provide a mechanism for automated delegation of IPv6 prefixes using the Dynamic Host Configuration Protocol (DHCP). &#160;This mechanism is intended for delegating a long&#45;lived prefix from a delegating router to a requesting router, across an administrative boundary, where the delegating router does not require knowledge about the topology of the links in the network to which the prefixes will be assigned." target="_top">
<ellipse fill="none" stroke="black" cx="1114.26" cy="-790.33" rx="172.53" ry="52.33"/>
<text xml:space="preserve" text-anchor="middle" x="1114.26" y="-810.03" font-family="Times,serif" font-size="14.00">RFC3633</text>
<text xml:space="preserve" text-anchor="middle" x="1114.26" y="-793.53" font-family="Times,serif" font-size="14.00">IPv6 Prefix Options for Dynamic Host</text>
<text xml:space="preserve" text-anchor="middle" x="1114.26" y="-777.03" font-family="Times,serif" font-size="14.00">Configuration Protocol (DHCP) version 6</text>
<text xml:space="preserve" text-anchor="middle" x="1114.26" y="-760.53" font-family="Times,serif" font-size="14.00">2003</text>
</a>
</g>
</g>
<!-- updates&#45;&gt;RFC3633 -->
<g id="edge6" class="edge">
<title>updates&#45;&gt;RFC3633</title>
<path fill="none" stroke="black" d="M906.62,-685.56C909.77,-688.38 912.88,-691.35 915.67,-694.33 928.49,-708.01 925.63,-717.11 940.67,-728.33 951.64,-736.51 963.8,-743.7 976.44,-749.99"/>
<polygon fill="black" stroke="black" points="974.76,-753.06 985.29,-754.19 977.76,-746.74 974.76,-753.06"/>
</g>
<!-- updated_by -->
<g id="node8" class="node">
<title>updated_by</title>
<polygon fill="lightyellow" stroke="black" points="431.82,-685.33 374.57,-685.33 374.57,-649.33 431.82,-649.33 431.82,-685.33"/>
<text xml:space="preserve" text-anchor="middle" x="403.19" y="-662.28" font-family="Times,serif" font-size="14.00">updates</text>
</g>
<!-- updated_by&#45;&gt;RFC7550 -->
<g id="edge7" class="edge">
<title>updated_by&#45;&gt;RFC7550</title>
<path fill="none" stroke="black" d="M431.92,-667.33C437.26,-667.33 443.2,-667.33 449.62,-667.33"/>
<polygon fill="black" stroke="black" points="449.32,-670.83 459.32,-667.33 449.32,-663.83 449.32,-670.83"/>
</g>
<!-- cites&#45;&gt;RFC3315 -->
<g id="edge9" class="edge">
<title>cites&#45;&gt;RFC3315</title>
<path fill="none" stroke="black" d="M887.43,-501.7C893.95,-528.18 909.55,-576.98 940.67,-605.33 950.13,-613.95 960.89,-621.39 972.28,-627.82"/>
<polygon fill="black" stroke="black" points="970.64,-630.91 981.12,-632.49 973.92,-624.72 970.64,-630.91"/>
</g>
<!-- cites&#45;&gt;RFC3633 -->
<g id="edge10" class="edge">
<title>cites&#45;&gt;RFC3633</title>
<path fill="none" stroke="black" d="M887.34,-501.78C898.85,-557.34 932.97,-719.68 940.67,-728.33 948.85,-737.52 958.5,-745.35 968.99,-752.02"/>
<polygon fill="black" stroke="black" points="967.14,-754.99 977.53,-757.06 970.7,-748.96 967.14,-754.99"/>
</g>
<!-- RFC7084 -->
<g id="node10" class="node">
<title>RFC7084</title>
<g id="a_node10"><a xlink:href="RFC7084.html" xlink:title="This document specifies requirements for an IPv6 Customer Edge (CE) router. &#160;Specifically, the current version of this document focuses on the basic provisioning of an IPv6 CE router and the provisioning of IPv6 hosts attached to it. &#160;The document also covers IP transition technologies. &#160;Two transition technologies in RFC 5969&#39;s IPv6 Rapid Deployment on IPv4 Infrastructures (6rd) and RFC 6333&#39;s Dual&#45;Stack Lite (DS&#45;Lite) are covered in the document. &#160;The document obsoletes RFC 6204." target="_top">
<ellipse fill="none" stroke="black" cx="1114.26" cy="-421.33" rx="163.52" ry="52.33"/>
<text xml:space="preserve" text-anchor="middle" x="1114.26" y="-441.03" font-family="Times,serif" font-size="14.00">RFC7084</text>
<text xml:space="preserve" text-anchor="middle" x="1114.26" y="-424.53" font-family="Times,serif" font-size="14.00">Basic Requirements for IPv6 Customer</text>
<text xml:space="preserve" text-anchor="middle" x="1114.26" y="-408.03" font-family="Times,serif" font-size="14.00">Edge Routers</text>
<text xml:space="preserve" text-anchor="middle" x="1114.26" y="-391.53" font-family="Times,serif" font-size="14.00">2013</text>
</a>
</g>
</g>
<!-- cites&#45;&gt;RFC7084 -->
<g id="edge11" class="edge">
<title>cites&#45;&gt;RFC7084</title>
<path fill="none" stroke="black" d="M909.89,-476.21C927.27,-471.52 951.5,-464.98 977.2,-458.05"/>
<polygon fill="black" stroke="black" points="978.09,-461.43 986.83,-455.45 976.26,-454.68 978.09,-461.43"/>
</g>
<!-- RFC2119 -->
<g id="node11" class="node">
<title>RFC2119</title>
<g id="a_node11"><a xlink:href="RFC2119.html" xlink:title="In many standards track documents several words are used to signify the requirements in the specification. &#160;These words are often capitalized. &#160;This document defines these words as they should be interpreted in IETF documents. &#160;This document specifies an Internet Best Current Practices for the Internet Community, and requests discussion and suggestions for improvements." target="_top">
<ellipse fill="none" stroke="black" cx="1114.26" cy="-298.33" rx="160.34" ry="52.33"/>
<text xml:space="preserve" text-anchor="middle" x="1114.26" y="-318.03" font-family="Times,serif" font-size="14.00">RFC2119</text>
<text xml:space="preserve" text-anchor="middle" x="1114.26" y="-301.53" font-family="Times,serif" font-size="14.00">Key words for use in RFCs to Indicate</text>
<text xml:space="preserve" text-anchor="middle" x="1114.26" y="-285.03" font-family="Times,serif" font-size="14.00">Requirement Levels</text>
<text xml:space="preserve" text-anchor="middle" x="1114.26" y="-268.53" font-family="Times,serif" font-size="14.00">1997</text>
</a>
</g>
</g>
<!-- cites&#45;&gt;RFC2119 -->
<g id="edge12" class="edge">
<title>cites&#45;&gt;RFC2119</title>
<path fill="none" stroke="black" d="M887.28,-465.24C893.68,-438.66 909.21,-389.08 940.67,-360.33 951.34,-350.57 963.66,-342.32 976.71,-335.36"/>
<polygon fill="black" stroke="black" points="978.1,-338.58 985.46,-330.96 974.95,-332.32 978.1,-338.58"/>
</g>
<!-- RFC7227 -->
<g id="node12" class="node">
<title>RFC7227</title>
<g id="a_node12"><a xlink:href="RFC7227.html" xlink:title="This document provides guidance to prospective DHCPv6 option developers to help them create option formats that are easily adoptable by existing DHCPv6 software. &#160;It also provides guidelines for expert reviewers to evaluate new registrations. &#160;This document updates RFC 3315." target="_top">
<ellipse fill="none" stroke="black" cx="1114.26" cy="-175.33" rx="160.34" ry="52.33"/>
<text xml:space="preserve" text-anchor="middle" x="1114.26" y="-195.03" font-family="Times,serif" font-size="14.00">RFC7227</text>
<text xml:space="preserve" text-anchor="middle" x="1114.26" y="-178.53" font-family="Times,serif" font-size="14.00">Guidelines for Creating New DHCPv6</text>
<text xml:space="preserve" text-anchor="middle" x="1114.26" y="-162.03" font-family="Times,serif" font-size="14.00">Options</text>
<text xml:space="preserve" text-anchor="middle" x="1114.26" y="-145.53" font-family="Times,serif" font-size="14.00">2014</text>
</a>
</g>
</g>
<!-- cites&#45;&gt;RFC7227 -->
<g id="edge13" class="edge">
<title>cites&#45;&gt;RFC7227</title>
<path fill="none" stroke="black" d="M885.53,-464.96C891.41,-413.86 910.21,-271.56 940.67,-237.33 949.94,-226.91 961.08,-218.24 973.2,-211.03"/>
<polygon fill="black" stroke="black" points="974.72,-214.19 981.78,-206.28 971.33,-208.06 974.72,-214.19"/>
</g>
<!-- RFC7083 -->
<g id="node13" class="node">
<title>RFC7083</title>
<g id="a_node13"><a xlink:href="RFC7083.html" xlink:title="This document updates RFC 3315 by redefining the default values for SOL_MAX_RT and INF_MAX_RT and defining options through which a DHCPv6 server can override the client&#39;s default value for SOL_MAX_RT and INF_MAX_RT with new values." target="_top">
<ellipse fill="none" stroke="black" cx="1114.26" cy="-52.33" rx="152.38" ry="52.33"/>
<text xml:space="preserve" text-anchor="middle" x="1114.26" y="-72.03" font-family="Times,serif" font-size="14.00">RFC7083</text>
<text xml:space="preserve" text-anchor="middle" x="1114.26" y="-55.53" font-family="Times,serif" font-size="14.00">Modification to Default Values of</text>
<text xml:space="preserve" text-anchor="middle" x="1114.26" y="-39.03" font-family="Times,serif" font-size="14.00">SOL_MAX_RT and INF_MAX_RT</text>
<text xml:space="preserve" text-anchor="middle" x="1114.26" y="-22.53" font-family="Times,serif" font-size="14.00">2013</text>
</a>
</g>
</g>
<!-- cites&#45;&gt;RFC7083 -->
<g id="edge14" class="edge">
<title>cites&#45;&gt;RFC7083</title>
<path fill="none" stroke="black" d="M883.97,-464.95C885.89,-398.09 895.7,-168.83 940.67,-114.33 950.29,-102.67 962.27,-93.2 975.42,-85.51"/>
<polygon fill="black" stroke="black" points="976.73,-88.78 983.85,-80.94 973.39,-82.63 976.73,-88.78"/>
</g>
<!-- RFC6059 -->
<g id="node14" class="node">
<title>RFC6059</title>
<g id="a_node14"><a xlink:href="RFC6059.html" xlink:title="Detecting Network Attachment allows hosts to assess if its existing addressing or routing configuration is valid for a newly connected network. &#160;This document provides simple procedures for Detecting Network Attachment in IPv6 hosts, and procedures for routers to support such services. [STANDARDS&#45;TRACK]" target="_top">
<ellipse fill="none" stroke="black" cx="1114.26" cy="-544.33" rx="173.59" ry="52.33"/>
<text xml:space="preserve" text-anchor="middle" x="1114.26" y="-564.03" font-family="Times,serif" font-size="14.00">RFC6059</text>
<text xml:space="preserve" text-anchor="middle" x="1114.26" y="-547.53" font-family="Times,serif" font-size="14.00">Simple Procedures for Detecting Network</text>
<text xml:space="preserve" text-anchor="middle" x="1114.26" y="-531.03" font-family="Times,serif" font-size="14.00">Attachment in IPv6</text>
<text xml:space="preserve" text-anchor="middle" x="1114.26" y="-514.53" font-family="Times,serif" font-size="14.00">2010</text>
</a>
</g>
</g>
<!-- cites&#45;&gt;RFC6059 -->
<g id="edge15" class="edge">
<title>cites&#45;&gt;RFC6059</title>
<path fill="none" stroke="black" d="M909.89,-490.32C926.09,-494.62 948.25,-500.51 972,-506.82"/>
<polygon fill="black" stroke="black" points="970.98,-510.17 981.55,-509.35 972.78,-503.4 970.98,-510.17"/>
</g>
<!-- rev_cites&#45;&gt;RFC7550 -->
<g id="edge16" class="edge">
<title>rev_cites&#45;&gt;RFC7550</title>
<path fill="none" stroke="black" d="M430.54,-619.31C445.7,-622.76 466.12,-627.4 488.32,-632.44"/>
<polygon fill="black" stroke="black" points="487.34,-635.81 497.86,-634.61 488.89,-628.98 487.34,-635.81"/>
</g>
<!-- RFC8168 -->
<g id="node16" class="node">
<title>RFC8168</title>
<g id="a_node16"><a xlink:href="RFC8168.html" xlink:title="DHCPv6 Prefix Delegation allows a client to include a prefix&#45;length hint value in the IA_PD option to indicate a preference for the size of the prefix to be delegated, but it is unclear about how the client and server should act in different situations involving the prefix&#45;length hint. &#160;This document provides a summary of the existing problems with the prefix&#45;length hint and guidance on what the client and server could do in different situations." target="_top">
<ellipse fill="none" stroke="black" cx="172.53" cy="-610.33" rx="148.14" ry="40.66"/>
<text xml:space="preserve" text-anchor="middle" x="172.53" y="-621.78" font-family="Times,serif" font-size="14.00">RFC8168</text>
<text xml:space="preserve" text-anchor="middle" x="172.53" y="-605.28" font-family="Times,serif" font-size="14.00">DHCPv6 Prefix&#45;Length Hint Issues</text>
<text xml:space="preserve" text-anchor="middle" x="172.53" y="-588.78" font-family="Times,serif" font-size="14.00">2017</text>
</a>
</g>
</g>
<!-- RFC8168&#45;&gt;rev_cites -->
<g id="edge17" class="edge">
<title>RFC8168&#45;&gt;rev_cites</title>
<path fill="none" stroke="black" d="M320.93,-612.26C336.91,-612.47 351.95,-612.67 364.64,-612.83"/>
<polygon fill="black" stroke="black" points="364.48,-616.33 374.53,-612.96 364.57,-609.33 364.48,-616.33"/>
</g>
</g>
</svg>
