<?xml version="1.0" encoding="UTF-8" standalone="no"?>
<!DOCTYPE svg PUBLIC "-//W3C//DTD SVG 1.1//EN"
 "http://www.w3.org/Graphics/SVG/1.1/DTD/svg11.dtd">
<!-- Generated by graphviz version 14.1.1 (20251213.1925)
 -->
<!-- Title: Flow Pages: 1 -->
<svg width="1168pt" height="159pt"
 viewBox="0.00 0.00 1168.00 159.00" xmlns="http://www.w3.org/2000/svg" xmlns:xlink="http://www.w3.org/1999/xlink">
<g id="graph0" class="graph" transform="scale(1 1) rotate(0) translate(4 155.33)">
<title>Flow</title>
<polygon fill="white" stroke="none" points="-4,4 -4,-155.33 1163.52,-155.33 1163.52,4 -4,4"/>
<!-- RFC7691 -->
<g id="node1" class="node">
<title>RFC7691</title>
<g id="a_node1"><a xlink:title="BCP 101 defines the start and end dates for the terms of IETF Administrative Oversight Committee (IAOC) members; these terms have proven to be impractical. &#160;This memo updates BCP 101 to direct the IAOC to establish more practical start and end dates for terms of IAOC members.">
<ellipse fill="green" stroke="black" cx="579.76" cy="-72" rx="155.56" ry="63.99"/>
<text xml:space="preserve" text-anchor="middle" x="579.76" y="-99.95" font-family="Times,serif" font-size="14.00">RFC7691</text>
<text xml:space="preserve" text-anchor="middle" x="579.76" y="-83.45" font-family="Times,serif" font-size="14.00">Updating the Term Dates of IETF</text>
<text xml:space="preserve" text-anchor="middle" x="579.76" y="-66.95" font-family="Times,serif" font-size="14.00">Administrative Oversight Committee</text>
<text xml:space="preserve" text-anchor="middle" x="579.76" y="-50.45" font-family="Times,serif" font-size="14.00">(IAOC) Members</text>
<text xml:space="preserve" text-anchor="middle" x="579.76" y="-33.95" font-family="Times,serif" font-size="14.00">2015</text>
</a>
</g>
</g>
<!-- obs -->
<g id="node4" class="node">
<title>obs</title>
<polygon fill="lightblue" stroke="black" points="826.57,-144 760.32,-144 760.32,-108 826.57,-108 826.57,-144"/>
<text xml:space="preserve" text-anchor="middle" x="793.45" y="-120.95" font-family="Times,serif" font-size="14.00">obsoletes</text>
</g>
<!-- RFC7691&#45;&gt;obs -->
<g id="edge3" class="edge">
<title>RFC7691&#45;&gt;obs</title>
<path fill="none" stroke="black" d="M712.72,-105.66C725.66,-108.96 738.04,-112.12 749.03,-114.93"/>
<polygon fill="black" stroke="black" points="747.92,-118.25 758.48,-117.33 749.65,-111.47 747.92,-118.25"/>
</g>
<!-- updates -->
<g id="node5" class="node">
<title>updates</title>
<polygon fill="lightyellow" stroke="black" points="822.07,-90 764.82,-90 764.82,-54 822.07,-54 822.07,-90"/>
<text xml:space="preserve" text-anchor="middle" x="793.45" y="-66.95" font-family="Times,serif" font-size="14.00">updates</text>
</g>
<!-- RFC7691&#45;&gt;updates -->
<g id="edge4" class="edge">
<title>RFC7691&#45;&gt;updates</title>
<path fill="none" stroke="black" d="M735.72,-72C741.84,-72 747.68,-72 753.13,-72"/>
<polygon fill="black" stroke="black" points="752.86,-75.5 762.86,-72 752.86,-68.5 752.86,-75.5"/>
</g>
<!-- cites -->
<g id="node8" class="node">
<title>cites</title>
<polygon fill="lightblue" stroke="black" points="820.45,-36 766.45,-36 766.45,0 820.45,0 820.45,-36"/>
<text xml:space="preserve" text-anchor="middle" x="793.45" y="-12.95" font-family="Times,serif" font-size="14.00">cites</text>
</g>
<!-- RFC7691&#45;&gt;cites -->
<g id="edge7" class="edge">
<title>RFC7691&#45;&gt;cites</title>
<path fill="none" stroke="black" d="M712.72,-38.34C728.25,-34.38 742.98,-30.62 755.46,-27.44"/>
<polygon fill="black" stroke="black" points="755.95,-30.92 764.77,-25.06 754.22,-24.14 755.95,-30.92"/>
</g>
<!-- obs_by -->
<g id="node2" class="node">
<title>obs_by</title>
<polygon fill="lightblue" stroke="black" points="399.2,-144 332.95,-144 332.95,-108 399.2,-108 399.2,-144"/>
<text xml:space="preserve" text-anchor="middle" x="366.07" y="-120.95" font-family="Times,serif" font-size="14.00">obsoletes</text>
</g>
<!-- obs_by&#45;&gt;RFC7691 -->
<g id="edge1" class="edge">
<title>obs_by&#45;&gt;RFC7691</title>
<path fill="none" stroke="black" d="M399.68,-117.68C410.21,-115 422.63,-111.83 435.94,-108.43"/>
<polygon fill="black" stroke="black" points="436.49,-111.9 445.32,-106.04 434.76,-105.12 436.49,-111.9"/>
</g>
<!-- RFC8711 -->
<g id="node3" class="node">
<title>RFC8711</title>
<g id="a_node3"><a xlink:href="RFC8711.html" xlink:title="The IETF Administrative Support Activity (IASA) was originally established in 2005. In the years since then, the needs of the IETF evolved in ways that required changes to its administrative structure. The purpose of this RFC is to document and describe the IETF Administrative Support Activity, version 2.0 (IASA 2.0). It defines the roles and responsibilities of the IETF Administration LLC Board (IETF LLC Board), the IETF Executive Director, and the Internet Society in the fiscal and administrative support of the IETF standards process. It also defines the membership and selection rules for the IETF LLC Board. This document obsoletes RFC 4071, RFC 4333, and RFC 7691." target="_top">
<ellipse fill="none" stroke="black" cx="153.97" cy="-99" rx="153.97" ry="52.33"/>
<text xml:space="preserve" text-anchor="middle" x="153.97" y="-118.7" font-family="Times,serif" font-size="14.00">RFC8711</text>
<text xml:space="preserve" text-anchor="middle" x="153.97" y="-102.2" font-family="Times,serif" font-size="14.00">Structure of the IETF Administrative</text>
<text xml:space="preserve" text-anchor="middle" x="153.97" y="-85.7" font-family="Times,serif" font-size="14.00">Support Activity, Version 2.0</text>
<text xml:space="preserve" text-anchor="middle" x="153.97" y="-69.2" font-family="Times,serif" font-size="14.00">2020</text>
</a>
</g>
</g>
<!-- RFC8711&#45;&gt;obs_by -->
<g id="edge2" class="edge">
<title>RFC8711&#45;&gt;obs_by</title>
<path fill="none" stroke="black" d="M298.59,-117.46C306.54,-118.48 314.15,-119.46 321.19,-120.36"/>
<polygon fill="black" stroke="black" points="320.61,-123.81 330.97,-121.62 321.5,-116.87 320.61,-123.81"/>
</g>
<!-- rev_cites -->
<g id="node9" class="node">
<title>rev_cites</title>
<polygon fill="lightblue" stroke="black" points="393.07,-90 339.07,-90 339.07,-54 393.07,-54 393.07,-90"/>
<text xml:space="preserve" text-anchor="middle" x="366.07" y="-66.95" font-family="Times,serif" font-size="14.00">cites</text>
</g>
<!-- RFC8711&#45;&gt;rev_cites -->
<g id="edge9" class="edge">
<title>RFC8711&#45;&gt;rev_cites</title>
<path fill="none" stroke="black" d="M298.59,-80.54C309.01,-79.2 318.83,-77.94 327.58,-76.82"/>
<polygon fill="black" stroke="black" points="327.81,-80.32 337.28,-75.57 326.91,-73.37 327.81,-80.32"/>
</g>
<!-- RFC4071 -->
<g id="node6" class="node">
<title>RFC4071</title>
<g id="a_node6"><a xlink:href="RFC4071.html" xlink:title="This document describes the structure of the IETF Administrative Support Activity (IASA) as an activity housed within the Internet Society (ISOC). &#160;It defines the roles and responsibilities of the IETF Administrative Oversight Committee (IAOC), the IETF Administrative Director (IAD), and ISOC in the fiscal and administrative support of the IETF standards process. &#160;It also defines the membership and selection rules for the IAOC. &#160;This document specifies an Internet Best Current Practices for the Internet Community, and requests discussion and suggestions for improvements." target="_top">
<ellipse fill="none" stroke="black" cx="1005.54" cy="-72" rx="153.97" ry="52.33"/>
<text xml:space="preserve" text-anchor="middle" x="1005.54" y="-91.7" font-family="Times,serif" font-size="14.00">RFC4071</text>
<text xml:space="preserve" text-anchor="middle" x="1005.54" y="-75.2" font-family="Times,serif" font-size="14.00">Structure of the IETF Administrative</text>
<text xml:space="preserve" text-anchor="middle" x="1005.54" y="-58.7" font-family="Times,serif" font-size="14.00">Support Activity (IASA)</text>
<text xml:space="preserve" text-anchor="middle" x="1005.54" y="-42.2" font-family="Times,serif" font-size="14.00">2005</text>
</a>
</g>
</g>
<!-- updates&#45;&gt;RFC4071 -->
<g id="edge5" class="edge">
<title>updates&#45;&gt;RFC4071</title>
<path fill="none" stroke="black" d="M822.35,-72C827.71,-72 833.67,-72 840.07,-72"/>
<polygon fill="black" stroke="black" points="839.71,-75.5 849.71,-72 839.71,-68.5 839.71,-75.5"/>
</g>
<!-- updated_by -->
<g id="node7" class="node">
<title>updated_by</title>
<polygon fill="lightyellow" stroke="black" points="394.7,-36 337.45,-36 337.45,0 394.7,0 394.7,-36"/>
<text xml:space="preserve" text-anchor="middle" x="366.07" y="-12.95" font-family="Times,serif" font-size="14.00">updates</text>
</g>
<!-- updated_by&#45;&gt;RFC7691 -->
<g id="edge6" class="edge">
<title>updated_by&#45;&gt;RFC7691</title>
<path fill="none" stroke="black" d="M395.18,-25.17C406.6,-28.08 420.72,-31.69 436.01,-35.59"/>
<polygon fill="black" stroke="black" points="434.74,-38.87 445.29,-37.95 436.47,-32.09 434.74,-38.87"/>
</g>
<!-- rev_cites&#45;&gt;RFC7691 -->
<g id="edge8" class="edge">
<title>rev_cites&#45;&gt;RFC7691</title>
<path fill="none" stroke="black" d="M393.45,-72C399.2,-72 405.68,-72 412.69,-72"/>
<polygon fill="black" stroke="black" points="412.6,-75.5 422.6,-72 412.6,-68.5 412.6,-75.5"/>
</g>
</g>
</svg>
