<?xml version="1.0" encoding="UTF-8" standalone="no"?>
<!DOCTYPE svg PUBLIC "-//W3C//DTD SVG 1.1//EN"
 "http://www.w3.org/Graphics/SVG/1.1/DTD/svg11.dtd">
<!-- Generated by graphviz version 14.1.1 (20251213.1925)
 -->
<!-- Title: Flow Pages: 1 -->
<svg width="1123pt" height="1768pt"
 viewBox="0.00 0.00 1123.00 1768.00" xmlns="http://www.w3.org/2000/svg" xmlns:xlink="http://www.w3.org/1999/xlink">
<g id="graph0" class="graph" transform="scale(1 1) rotate(0) translate(4 1763.98)">
<title>Flow</title>
<polygon fill="white" stroke="none" points="-4,4 -4,-1763.98 1119.48,-1763.98 1119.48,4 -4,4"/>
<!-- RFC7990 -->
<g id="node1" class="node">
<title>RFC7990</title>
<g id="a_node1"><a xlink:title="In order to improve the readability of RFCs while supporting their archivability, the canonical format of the RFC Series will be transitioning from plain&#45;text ASCII to XML using the xml2rfc version 3 vocabulary; different publication formats will be rendered from that base document. &#160;With these changes comes an increase in complexity for authors, consumers, and the publisher of RFCs. &#160;This document serves as the framework that provides the problem statement, lays out a road map of the documents that capture the specific requirements, and describes the transition plan.">
<ellipse fill="green" stroke="black" cx="454.07" cy="-1002.66" rx="107.3" ry="40.66"/>
<text xml:space="preserve" text-anchor="middle" x="454.07" y="-1014.11" font-family="Times,serif" font-size="14.00">RFC7990</text>
<text xml:space="preserve" text-anchor="middle" x="454.07" y="-997.61" font-family="Times,serif" font-size="14.00">RFC Format Framework</text>
<text xml:space="preserve" text-anchor="middle" x="454.07" y="-981.11" font-family="Times,serif" font-size="14.00">2016</text>
</a>
</g>
</g>
<!-- obs -->
<g id="node4" class="node">
<title>obs</title>
<polygon fill="lightblue" stroke="black" points="652.62,-1128.66 586.37,-1128.66 586.37,-1092.66 652.62,-1092.66 652.62,-1128.66"/>
<text xml:space="preserve" text-anchor="middle" x="619.5" y="-1105.61" font-family="Times,serif" font-size="14.00">obsoletes</text>
</g>
<!-- RFC7990&#45;&gt;obs -->
<g id="edge3" class="edge">
<title>RFC7990&#45;&gt;obs</title>
<path fill="none" stroke="black" d="M508.58,-1038.02C532.32,-1053.71 559.67,-1071.78 581.15,-1085.98"/>
<polygon fill="black" stroke="black" points="579.04,-1088.78 589.31,-1091.37 582.9,-1082.94 579.04,-1088.78"/>
</g>
<!-- updates -->
<g id="node5" class="node">
<title>updates</title>
<polygon fill="lightyellow" stroke="black" points="648.12,-1074.66 590.87,-1074.66 590.87,-1038.66 648.12,-1038.66 648.12,-1074.66"/>
<text xml:space="preserve" text-anchor="middle" x="619.5" y="-1051.61" font-family="Times,serif" font-size="14.00">updates</text>
</g>
<!-- RFC7990&#45;&gt;updates -->
<g id="edge4" class="edge">
<title>RFC7990&#45;&gt;updates</title>
<path fill="none" stroke="black" d="M535.83,-1029.34C551.16,-1034.41 566.53,-1039.49 579.79,-1043.87"/>
<polygon fill="black" stroke="black" points="578.36,-1047.08 588.95,-1046.9 580.55,-1040.43 578.36,-1047.08"/>
</g>
<!-- cites -->
<g id="node7" class="node">
<title>cites</title>
<polygon fill="lightblue" stroke="black" points="646.5,-1020.66 592.5,-1020.66 592.5,-984.66 646.5,-984.66 646.5,-1020.66"/>
<text xml:space="preserve" text-anchor="middle" x="619.5" y="-997.61" font-family="Times,serif" font-size="14.00">cites</text>
</g>
<!-- RFC7990&#45;&gt;cites -->
<g id="edge6" class="edge">
<title>RFC7990&#45;&gt;cites</title>
<path fill="none" stroke="black" d="M561.8,-1002.66C568.41,-1002.66 574.79,-1002.66 580.72,-1002.66"/>
<polygon fill="black" stroke="black" points="580.71,-1006.16 590.71,-1002.66 580.71,-999.16 580.71,-1006.16"/>
</g>
<!-- obs_by -->
<g id="node2" class="node">
<title>obs_by</title>
<polygon fill="lightblue" stroke="black" points="321.77,-1020.66 255.52,-1020.66 255.52,-984.66 321.77,-984.66 321.77,-1020.66"/>
<text xml:space="preserve" text-anchor="middle" x="288.64" y="-997.61" font-family="Times,serif" font-size="14.00">obsoletes</text>
</g>
<!-- obs_by&#45;&gt;RFC7990 -->
<g id="edge1" class="edge">
<title>obs_by&#45;&gt;RFC7990</title>
<path fill="none" stroke="black" d="M321.93,-1002.66C326.12,-1002.66 330.58,-1002.66 335.24,-1002.66"/>
<polygon fill="black" stroke="black" points="334.91,-1006.16 344.91,-1002.66 334.91,-999.16 334.91,-1006.16"/>
</g>
<!-- RFC9720 -->
<g id="node3" class="node">
<title>RFC9720</title>
<g id="a_node3"><a xlink:href="RFC9720.html" xlink:title="In order to improve the readability of RFCs while supporting their archivability, the definitive version of the RFC Series transitioned from plain&#45;text ASCII to XML using the RFCXML vocabulary; different publication versions are rendered from that base document. This document describes how RFCs are published. This document obsoletes RFC 7990. This document also updates the stability policy in RFC 9280." target="_top">
<ellipse fill="none" stroke="black" cx="115.26" cy="-689.66" rx="115.26" ry="40.66"/>
<text xml:space="preserve" text-anchor="middle" x="115.26" y="-701.11" font-family="Times,serif" font-size="14.00">RFC9720</text>
<text xml:space="preserve" text-anchor="middle" x="115.26" y="-684.61" font-family="Times,serif" font-size="14.00">RFC Formats and Versions</text>
<text xml:space="preserve" text-anchor="middle" x="115.26" y="-668.11" font-family="Times,serif" font-size="14.00">2025</text>
</a>
</g>
</g>
<!-- RFC9720&#45;&gt;obs_by -->
<g id="edge2" class="edge">
<title>RFC9720&#45;&gt;obs_by</title>
<path fill="none" stroke="black" d="M129.8,-730.07C150.61,-788.34 194.54,-897.5 255.52,-975.66 255.59,-975.75 255.66,-975.85 255.74,-975.94"/>
<polygon fill="black" stroke="black" points="253.01,-978.15 262.37,-983.13 258.16,-973.4 253.01,-978.15"/>
</g>
<!-- rev_cites -->
<g id="node21" class="node">
<title>rev_cites</title>
<polygon fill="lightblue" stroke="black" points="1115.48,-395.66 1061.48,-395.66 1061.48,-359.66 1115.48,-359.66 1115.48,-395.66"/>
<text xml:space="preserve" text-anchor="middle" x="1088.48" y="-372.61" font-family="Times,serif" font-size="14.00">cites</text>
</g>
<!-- RFC9720&#45;&gt;rev_cites -->
<g id="edge26" class="edge">
<title>RFC9720&#45;&gt;rev_cites</title>
<path fill="none" stroke="black" d="M135.82,-649.19C179.78,-564.77 295.05,-377.66 453.07,-377.66 453.07,-377.66 453.07,-377.66 620.5,-377.66 780.13,-377.66 970.45,-377.66 1049.82,-377.66"/>
<polygon fill="black" stroke="black" points="1049.64,-381.16 1059.64,-377.66 1049.64,-374.16 1049.64,-381.16"/>
</g>
<!-- updated_by -->
<g id="node6" class="node">
<title>updated_by</title>
<polygon fill="lightyellow" stroke="black" points="317.27,-966.66 260.02,-966.66 260.02,-930.66 317.27,-930.66 317.27,-966.66"/>
<text xml:space="preserve" text-anchor="middle" x="288.64" y="-943.61" font-family="Times,serif" font-size="14.00">updates</text>
</g>
<!-- updated_by&#45;&gt;RFC7990 -->
<g id="edge5" class="edge">
<title>updated_by&#45;&gt;RFC7990</title>
<path fill="none" stroke="black" d="M317.74,-957.94C330.24,-962.07 345.74,-967.19 361.74,-972.48"/>
<polygon fill="black" stroke="black" points="360.27,-975.68 370.86,-975.49 362.46,-969.03 360.27,-975.68"/>
</g>
<!-- RFC6949 -->
<g id="node8" class="node">
<title>RFC6949</title>
<g id="a_node8"><a xlink:href="RFC6949.html" xlink:title="This document describes the current requirements and requests for enhancements for the format of the canonical version of RFCs. &#160;Terms are defined to help clarify exactly which stages of document production are under discussion for format changes. &#160;The requirements described in this document will determine what changes will be made to RFC format. &#160;This document updates RFC 2223." target="_top">
<ellipse fill="none" stroke="black" cx="857.05" cy="-1707.66" rx="158.75" ry="52.33"/>
<text xml:space="preserve" text-anchor="middle" x="857.05" y="-1727.36" font-family="Times,serif" font-size="14.00">RFC6949</text>
<text xml:space="preserve" text-anchor="middle" x="857.05" y="-1710.86" font-family="Times,serif" font-size="14.00">RFC Series Format Requirements and</text>
<text xml:space="preserve" text-anchor="middle" x="857.05" y="-1694.36" font-family="Times,serif" font-size="14.00">Future Development</text>
<text xml:space="preserve" text-anchor="middle" x="857.05" y="-1677.86" font-family="Times,serif" font-size="14.00">2013</text>
</a>
</g>
</g>
<!-- cites&#45;&gt;RFC6949 -->
<g id="edge7" class="edge">
<title>cites&#45;&gt;RFC6949</title>
<path fill="none" stroke="black" d="M646.61,-1020.95C648.99,-1023.61 651.08,-1026.52 652.62,-1029.66 682.85,-1091.25 636.6,-1591.66 677.62,-1646.66 686.36,-1658.37 697.47,-1667.85 709.87,-1675.52"/>
<polygon fill="black" stroke="black" points="707.84,-1678.4 718.26,-1680.3 711.3,-1672.31 707.84,-1678.4"/>
</g>
<!-- RFC4845 -->
<g id="node9" class="node">
<title>RFC4845</title>
<g id="a_node9"><a xlink:href="RFC4845.html" xlink:title="From time to time, the Internet Architecture Board (IAB) publishes documents as Requests for Comments (RFCs). &#160;This document defines the process by which those documents are produced, reviewed, and published in the RFC Series. &#160;This memo provides information for the Internet community." target="_top">
<ellipse fill="none" stroke="black" cx="857.05" cy="-1596.66" rx="154.5" ry="40.66"/>
<text xml:space="preserve" text-anchor="middle" x="857.05" y="-1608.11" font-family="Times,serif" font-size="14.00">RFC4845</text>
<text xml:space="preserve" text-anchor="middle" x="857.05" y="-1591.61" font-family="Times,serif" font-size="14.00">Process for Publication of IAB RFCs</text>
<text xml:space="preserve" text-anchor="middle" x="857.05" y="-1575.11" font-family="Times,serif" font-size="14.00">2007</text>
</a>
</g>
</g>
<!-- cites&#45;&gt;RFC4845 -->
<g id="edge8" class="edge">
<title>cites&#45;&gt;RFC4845</title>
<path fill="none" stroke="black" d="M646.58,-1020.96C648.97,-1023.62 651.07,-1026.53 652.62,-1029.66 678.21,-1081.29 641.59,-1502.69 677.62,-1547.66 686.1,-1558.23 696.62,-1566.66 708.3,-1573.34"/>
<polygon fill="black" stroke="black" points="706.52,-1576.37 717.01,-1577.87 709.75,-1570.15 706.52,-1576.37"/>
</g>
<!-- RFC7749 -->
<g id="node10" class="node">
<title>RFC7749</title>
<g id="a_node10"><a xlink:href="RFC7749.html" xlink:title="This document defines the xml2rfc version 2 vocabulary: an XML&#45;based language used for writing RFCs and Internet&#45;Drafts. Version 2 represents the state of the vocabulary (as implemented by several tools and as used by the RFC Editor) around 2014. This document obsoletes RFC 2629." target="_top">
<ellipse fill="none" stroke="black" cx="857.05" cy="-1497.66" rx="143.9" ry="40.66"/>
<text xml:space="preserve" text-anchor="middle" x="857.05" y="-1509.11" font-family="Times,serif" font-size="14.00">RFC7749</text>
<text xml:space="preserve" text-anchor="middle" x="857.05" y="-1492.61" font-family="Times,serif" font-size="14.00">The xml2rfc Version 2 Vocabulary</text>
<text xml:space="preserve" text-anchor="middle" x="857.05" y="-1476.11" font-family="Times,serif" font-size="14.00">2016</text>
</a>
</g>
</g>
<!-- cites&#45;&gt;RFC7749 -->
<g id="edge9" class="edge">
<title>cites&#45;&gt;RFC7749</title>
<path fill="none" stroke="black" d="M646.55,-1020.98C648.94,-1023.63 651.05,-1026.53 652.62,-1029.66 694.51,-1113 618.89,-1376.2 677.62,-1448.66 687.47,-1460.81 700.03,-1470.11 713.9,-1477.2"/>
<polygon fill="black" stroke="black" points="712.3,-1480.32 722.85,-1481.35 715.25,-1473.97 712.3,-1480.32"/>
</g>
<!-- RFC7991 -->
<g id="node11" class="node">
<title>RFC7991</title>
<g id="a_node11"><a xlink:href="RFC7991.html" xlink:title="This document defines the xml2rfc version 3 vocabulary: an XML&#45;based language used for writing RFCs and Internet&#45;Drafts. &#160;It is heavily derived from the version 2 vocabulary that is also under discussion. &#160;This document obsoletes the v2 grammar described in RFC 7749." target="_top">
<ellipse fill="none" stroke="black" cx="857.05" cy="-1398.66" rx="143.9" ry="40.66"/>
<text xml:space="preserve" text-anchor="middle" x="857.05" y="-1410.11" font-family="Times,serif" font-size="14.00">RFC7991</text>
<text xml:space="preserve" text-anchor="middle" x="857.05" y="-1393.61" font-family="Times,serif" font-size="14.00">The xml2rfc Version 3 Vocabulary</text>
<text xml:space="preserve" text-anchor="middle" x="857.05" y="-1377.11" font-family="Times,serif" font-size="14.00">2016</text>
</a>
</g>
</g>
<!-- cites&#45;&gt;RFC7991 -->
<g id="edge10" class="edge">
<title>cites&#45;&gt;RFC7991</title>
<path fill="none" stroke="black" d="M646.49,-1021.01C648.9,-1023.66 651.02,-1026.55 652.62,-1029.66 685.24,-1093.09 632.2,-1294.66 677.62,-1349.66 687.58,-1361.72 700.21,-1370.96 714.12,-1378.02"/>
<polygon fill="black" stroke="black" points="712.54,-1381.15 723.09,-1382.16 715.47,-1374.79 712.54,-1381.15"/>
</g>
<!-- RFC7996 -->
<g id="node12" class="node">
<title>RFC7996</title>
<g id="a_node12"><a xlink:href="RFC7996.html" xlink:title="This document specifies SVG 1.2 RFC &#45;&#45; an SVG profile for use in diagrams that may appear in RFCs &#45;&#45; and considers some of the issues concerning the creation and use of such diagrams." target="_top">
<ellipse fill="none" stroke="black" cx="857.05" cy="-1299.66" rx="168.29" ry="40.66"/>
<text xml:space="preserve" text-anchor="middle" x="857.05" y="-1311.11" font-family="Times,serif" font-size="14.00">RFC7996</text>
<text xml:space="preserve" text-anchor="middle" x="857.05" y="-1294.61" font-family="Times,serif" font-size="14.00">SVG Drawings for RFCs: SVG 1.2 RFC</text>
<text xml:space="preserve" text-anchor="middle" x="857.05" y="-1278.11" font-family="Times,serif" font-size="14.00">2016</text>
</a>
</g>
</g>
<!-- cites&#45;&gt;RFC7996 -->
<g id="edge11" class="edge">
<title>cites&#45;&gt;RFC7996</title>
<path fill="none" stroke="black" d="M646.39,-1021.06C648.81,-1023.7 650.97,-1026.58 652.62,-1029.66 699.34,-1116.77 613.36,-1175.55 677.62,-1250.66 685.06,-1259.35 693.89,-1266.58 703.57,-1272.57"/>
<polygon fill="black" stroke="black" points="701.76,-1275.57 712.19,-1277.42 705.19,-1269.47 701.76,-1275.57"/>
</g>
<!-- RFC6635 -->
<g id="node13" class="node">
<title>RFC6635</title>
<g id="a_node13"><a xlink:href="RFC6635.html" xlink:title="The RFC Editor model described in this document divides the responsibilities for the RFC Series into three functions: the RFC Series Editor, the RFC Production Center, and the RFC Publisher. &#160;Internet Architecture Board (IAB) oversight via the RFC Series Oversight Committee (RSOC) is described, as is the relationship between the IETF Administrative Oversight Committee (IAOC) and the RSOC. &#160;This document reflects the experience gained with RFC Editor Model (Version 1), documented in RFC 5620, and obsoletes that document. &#160;This document is not an Internet Standards Track specification; it is published for informational purposes." target="_top">
<ellipse fill="none" stroke="black" cx="857.05" cy="-1200.66" rx="129.58" ry="40.66"/>
<text xml:space="preserve" text-anchor="middle" x="857.05" y="-1212.11" font-family="Times,serif" font-size="14.00">RFC6635</text>
<text xml:space="preserve" text-anchor="middle" x="857.05" y="-1195.61" font-family="Times,serif" font-size="14.00">RFC Editor Model (Version 2)</text>
<text xml:space="preserve" text-anchor="middle" x="857.05" y="-1179.11" font-family="Times,serif" font-size="14.00">2012</text>
</a>
</g>
</g>
<!-- cites&#45;&gt;RFC6635 -->
<g id="edge12" class="edge">
<title>cites&#45;&gt;RFC6635</title>
<path fill="none" stroke="black" d="M645.81,-1020.89C648.4,-1023.59 650.76,-1026.53 652.62,-1029.66 680.94,-1077.22 639.8,-1111.25 677.62,-1151.66 690.56,-1165.48 707,-1175.53 724.64,-1182.82"/>
<polygon fill="black" stroke="black" points="723.14,-1186 733.73,-1186.27 725.62,-1179.45 723.14,-1186"/>
</g>
<!-- RFC7841 -->
<g id="node14" class="node">
<title>RFC7841</title>
<g id="a_node14"><a xlink:href="RFC7841.html" xlink:title="RFC documents contain a number of fixed elements such as the title page header, standard boilerplates, and copyright/IPR statements. &#160;This document describes them and introduces some updates to reflect current usage and requirements of RFC publication. &#160;In particular, this updated structure is intended to communicate clearly the source of RFC creation and review. &#160;This document obsoletes RFC 5741, moving detailed content to an IAB web page and preparing for more flexible output formats." target="_top">
<ellipse fill="none" stroke="black" cx="857.05" cy="-1101.66" rx="167.76" ry="40.66"/>
<text xml:space="preserve" text-anchor="middle" x="857.05" y="-1113.11" font-family="Times,serif" font-size="14.00">RFC7841</text>
<text xml:space="preserve" text-anchor="middle" x="857.05" y="-1096.61" font-family="Times,serif" font-size="14.00">RFC Streams, Headers, and Boilerplates</text>
<text xml:space="preserve" text-anchor="middle" x="857.05" y="-1080.11" font-family="Times,serif" font-size="14.00">2016</text>
</a>
</g>
</g>
<!-- cites&#45;&gt;RFC7841 -->
<g id="edge13" class="edge">
<title>cites&#45;&gt;RFC7841</title>
<path fill="none" stroke="black" d="M642.73,-1021.12C646.07,-1023.96 649.45,-1026.87 652.62,-1029.66 663.96,-1039.63 664.42,-1045.34 677.62,-1052.66 690.51,-1059.8 704.51,-1065.95 718.81,-1071.25"/>
<polygon fill="black" stroke="black" points="717.24,-1074.4 727.83,-1074.44 719.57,-1067.8 717.24,-1074.4"/>
</g>
<!-- RFC7992 -->
<g id="node15" class="node">
<title>RFC7992</title>
<g id="a_node15"><a xlink:href="RFC7992.html" xlink:title="In order to meet the evolving needs of the Internet community, the canonical format for RFCs is changing from a plain&#45;text, ASCII&#45;only format to an XML format that will, in turn, be rendered into several publication formats. &#160;This document defines the HTML format that will be rendered for an RFC or Internet&#45;Draft." target="_top">
<ellipse fill="none" stroke="black" cx="857.05" cy="-1002.66" rx="107.3" ry="40.66"/>
<text xml:space="preserve" text-anchor="middle" x="857.05" y="-1014.11" font-family="Times,serif" font-size="14.00">RFC7992</text>
<text xml:space="preserve" text-anchor="middle" x="857.05" y="-997.61" font-family="Times,serif" font-size="14.00">HTML Format for RFCs</text>
<text xml:space="preserve" text-anchor="middle" x="857.05" y="-981.11" font-family="Times,serif" font-size="14.00">2016</text>
</a>
</g>
</g>
<!-- cites&#45;&gt;RFC7992 -->
<g id="edge14" class="edge">
<title>cites&#45;&gt;RFC7992</title>
<path fill="none" stroke="black" d="M646.61,-1002.66C669.25,-1002.66 703.73,-1002.66 738.21,-1002.66"/>
<polygon fill="black" stroke="black" points="737.88,-1006.16 747.88,-1002.66 737.88,-999.16 737.88,-1006.16"/>
</g>
<!-- RFC7995 -->
<g id="node16" class="node">
<title>RFC7995</title>
<g id="a_node16"><a xlink:href="RFC7995.html" xlink:title="This document discusses options and requirements for the PDF rendering of RFCs in the RFC Series, as outlined in RFC 6949. &#160;It also discusses the use of PDF for Internet&#45;Drafts, and available or needed software tools for producing and working with PDF." target="_top">
<ellipse fill="none" stroke="black" cx="857.05" cy="-903.66" rx="97.76" ry="40.66"/>
<text xml:space="preserve" text-anchor="middle" x="857.05" y="-915.11" font-family="Times,serif" font-size="14.00">RFC7995</text>
<text xml:space="preserve" text-anchor="middle" x="857.05" y="-898.61" font-family="Times,serif" font-size="14.00">PDF Format for RFCs</text>
<text xml:space="preserve" text-anchor="middle" x="857.05" y="-882.11" font-family="Times,serif" font-size="14.00">2016</text>
</a>
</g>
</g>
<!-- cites&#45;&gt;RFC7995 -->
<g id="edge15" class="edge">
<title>cites&#45;&gt;RFC7995</title>
<path fill="none" stroke="black" d="M636.94,-984.63C647.59,-973.94 662.3,-960.9 677.62,-952.66 701.74,-939.69 729.59,-929.92 756,-922.66"/>
<polygon fill="black" stroke="black" points="756.58,-926.13 765.36,-920.19 754.79,-919.36 756.58,-926.13"/>
</g>
<!-- RFC7994 -->
<g id="node17" class="node">
<title>RFC7994</title>
<g id="a_node17"><a xlink:href="RFC7994.html" xlink:title="In 2013, after a great deal of community discussion, the decision was made to shift from the plain&#45;text, ASCII&#45;only canonical format for RFCs to XML as the canonical format with more human&#45;readable formats rendered from that XML. &#160;The high&#45;level requirements that informed this change were defined in RFC 6949, RFC Series Format Requirements and Future Development. &#160;Plain text remains an important format for many in the IETF community, and it will be one of the publication formats rendered from the XML. &#160;This document outlines the rendering requirements for the plain&#45;text RFC publication format. &#160;These requirements do not apply to plain&#45;text RFCs published before the format transition." target="_top">
<ellipse fill="none" stroke="black" cx="857.05" cy="-804.66" rx="146.02" ry="40.66"/>
<text xml:space="preserve" text-anchor="middle" x="857.05" y="-816.11" font-family="Times,serif" font-size="14.00">RFC7994</text>
<text xml:space="preserve" text-anchor="middle" x="857.05" y="-799.61" font-family="Times,serif" font-size="14.00">Requirements for Plain&#45;Text RFCs</text>
<text xml:space="preserve" text-anchor="middle" x="857.05" y="-783.11" font-family="Times,serif" font-size="14.00">2016</text>
</a>
</g>
</g>
<!-- cites&#45;&gt;RFC7994 -->
<g id="edge16" class="edge">
<title>cites&#45;&gt;RFC7994</title>
<path fill="none" stroke="black" d="M622.22,-984.61C626.18,-953.28 638.83,-888.82 677.62,-853.66 689.32,-843.05 703.11,-834.71 717.75,-828.16"/>
<polygon fill="black" stroke="black" points="718.71,-831.55 726.61,-824.49 716.03,-825.09 718.71,-831.55"/>
</g>
<!-- RFC7997 -->
<g id="node18" class="node">
<title>RFC7997</title>
<g id="a_node18"><a xlink:href="RFC7997.html" xlink:title="In order to support the internationalization of protocols and a more diverse Internet community, the RFC Series must evolve to allow for the use of non&#45;ASCII characters in RFCs. While English remains the required language of the Series, the encoding of future RFCs will be in UTF&#45;8, allowing for a broader range of characters than typically used in the English language. This document describes the RFC Editor requirements and gives guidance regarding the use of non&#45;ASCII characters in RFCs. This document updates RFC 7322. Please view this document in PDF form to see the full text." target="_top">
<ellipse fill="none" stroke="black" cx="857.05" cy="-705.66" rx="179.43" ry="40.66"/>
<text xml:space="preserve" text-anchor="middle" x="857.05" y="-717.11" font-family="Times,serif" font-size="14.00">RFC7997</text>
<text xml:space="preserve" text-anchor="middle" x="857.05" y="-700.61" font-family="Times,serif" font-size="14.00">The Use of Non&#45;ASCII Characters in RFCs</text>
<text xml:space="preserve" text-anchor="middle" x="857.05" y="-684.11" font-family="Times,serif" font-size="14.00">2016</text>
</a>
</g>
</g>
<!-- cites&#45;&gt;RFC7997 -->
<g id="edge17" class="edge">
<title>cites&#45;&gt;RFC7997</title>
<path fill="none" stroke="black" d="M622.3,-984.39C627.73,-932.88 645.59,-788.06 677.62,-754.66 684.81,-747.17 693.02,-740.79 701.89,-735.36"/>
<polygon fill="black" stroke="black" points="703.42,-738.51 710.43,-730.57 700,-732.4 703.42,-738.51"/>
</g>
<!-- RFC7322 -->
<g id="node19" class="node">
<title>RFC7322</title>
<g id="a_node19"><a xlink:href="RFC7322.html" xlink:title="This document describes the fundamental and unique style conventions and editorial policies currently in use for the RFC Series. &#160;It captures the RFC Editor&#39;s basic requirements and offers guidance regarding the style and structure of an RFC. &#160;Additional guidance is captured on a website that reflects the experimental nature of that guidance and prepares it for future inclusion in the RFC Style Guide. &#160;This document obsoletes RFC 2223, Instructions to RFC Authors." target="_top">
<ellipse fill="none" stroke="black" cx="857.05" cy="-606.66" rx="77.6" ry="40.66"/>
<text xml:space="preserve" text-anchor="middle" x="857.05" y="-618.11" font-family="Times,serif" font-size="14.00">RFC7322</text>
<text xml:space="preserve" text-anchor="middle" x="857.05" y="-601.61" font-family="Times,serif" font-size="14.00">RFC Style Guide</text>
<text xml:space="preserve" text-anchor="middle" x="857.05" y="-585.11" font-family="Times,serif" font-size="14.00">2014</text>
</a>
</g>
</g>
<!-- cites&#45;&gt;RFC7322 -->
<g id="edge18" class="edge">
<title>cites&#45;&gt;RFC7322</title>
<path fill="none" stroke="black" d="M620.99,-984.38C623.07,-919.99 633.3,-704.89 677.62,-655.66 700.6,-630.13 735.51,-617.38 768.37,-611.19"/>
<polygon fill="black" stroke="black" points="768.65,-614.69 777.93,-609.58 767.48,-607.79 768.65,-614.69"/>
</g>
<!-- RFC7993 -->
<g id="node20" class="node">
<title>RFC7993</title>
<g id="a_node20"><a xlink:href="RFC7993.html" xlink:title="The HTML format for RFCs assigns style guidance to a Cascading Style Sheet (CSS) specifically defined for the RFC Series. &#160;The embedded, default CSS as included by the RFC Editor is expected to take into account accessibility needs and to be built along a responsive design model. &#160;This document describes the requirements for the default CSS used by the RFC Editor. &#160;The class names are based on the classes defined in HTML for RFCs (RFC 7992)." target="_top">
<ellipse fill="none" stroke="black" cx="857.05" cy="-495.66" rx="126.93" ry="52.33"/>
<text xml:space="preserve" text-anchor="middle" x="857.05" y="-515.36" font-family="Times,serif" font-size="14.00">RFC7993</text>
<text xml:space="preserve" text-anchor="middle" x="857.05" y="-498.86" font-family="Times,serif" font-size="14.00">Cascading Style Sheets (CSS)</text>
<text xml:space="preserve" text-anchor="middle" x="857.05" y="-482.36" font-family="Times,serif" font-size="14.00">Requirements for RFCs</text>
<text xml:space="preserve" text-anchor="middle" x="857.05" y="-465.86" font-family="Times,serif" font-size="14.00">2016</text>
</a>
</g>
</g>
<!-- cites&#45;&gt;RFC7993 -->
<g id="edge19" class="edge">
<title>cites&#45;&gt;RFC7993</title>
<path fill="none" stroke="black" d="M620.35,-984.19C620.13,-908.6 622.97,-623.64 677.62,-556.66 690.96,-540.32 708.88,-528.34 728.24,-519.56"/>
<polygon fill="black" stroke="black" points="729.53,-522.81 737.4,-515.72 726.82,-516.36 729.53,-522.81"/>
</g>
<!-- RFC7992&#45;&gt;rev_cites -->
<g id="edge21" class="edge">
<title>RFC7992&#45;&gt;rev_cites</title>
<path fill="none" stroke="black" d="M962.92,-995.45C990.71,-988.36 1018.06,-975.73 1036.48,-953.66 1071.75,-911.41 1084.02,-518.93 1086.81,-407.2"/>
<polygon fill="black" stroke="black" points="1090.31,-407.45 1087.05,-397.37 1083.31,-407.28 1090.31,-407.45"/>
</g>
<!-- RFC7993&#45;&gt;rev_cites -->
<g id="edge22" class="edge">
<title>RFC7993&#45;&gt;rev_cites</title>
<path fill="none" stroke="black" d="M962.25,-465.86C987.59,-456.3 1013.89,-444.29 1036.48,-429.66 1047.1,-422.78 1057.2,-413.34 1065.58,-404.39"/>
<polygon fill="black" stroke="black" points="1067.97,-406.97 1072.03,-397.18 1062.75,-402.3 1067.97,-406.97"/>
</g>
<!-- rev_cites&#45;&gt;RFC7990 -->
<g id="edge20" class="edge">
<title>rev_cites&#45;&gt;RFC7990</title>
<path fill="none" stroke="black" d="M1061.19,-385.68C1053.3,-387.87 1044.59,-390.07 1036.48,-391.66 957.66,-407.11 741.16,-385.52 677.62,-434.66 510.57,-563.86 468.73,-836.4 458.4,-950.59"/>
<polygon fill="black" stroke="black" points="454.94,-950.01 457.57,-960.28 461.91,-950.61 454.94,-950.01"/>
</g>
<!-- RFC8088 -->
<g id="node22" class="node">
<title>RFC8088</title>
<g id="a_node22"><a xlink:href="RFC8088.html" xlink:title="This document contains information on how best to write an RTP payload format specification. &#160;It provides reading tips, design practices, and practical tips on how to produce an RTP payload format specification quickly and with good results. &#160;A template is also included with instructions." target="_top">
<ellipse fill="none" stroke="black" cx="857.05" cy="-308.66" rx="159.28" ry="40.66"/>
<text xml:space="preserve" text-anchor="middle" x="857.05" y="-320.11" font-family="Times,serif" font-size="14.00">RFC8088</text>
<text xml:space="preserve" text-anchor="middle" x="857.05" y="-303.61" font-family="Times,serif" font-size="14.00">How to Write an RTP Payload Format</text>
<text xml:space="preserve" text-anchor="middle" x="857.05" y="-287.11" font-family="Times,serif" font-size="14.00">2017</text>
</a>
</g>
</g>
<!-- RFC8088&#45;&gt;rev_cites -->
<g id="edge23" class="edge">
<title>RFC8088&#45;&gt;rev_cites</title>
<path fill="none" stroke="black" d="M961.36,-339.73C993.19,-349.3 1026.2,-359.23 1050.46,-366.53"/>
<polygon fill="black" stroke="black" points="1049.26,-369.82 1059.84,-369.35 1051.28,-363.12 1049.26,-369.82"/>
</g>
<!-- RFC8140 -->
<g id="node23" class="node">
<title>RFC8140</title>
<g id="a_node23"><a xlink:href="RFC8140.html" xlink:title="Ever since Gutenberg discovered and patented ASCII and the corresponding Courier New font with its now&#45;famous ten point size, artisans and artificers have striven to represent their views of the world in print. Similarly, starting from Darwin&#39;s discovery of the hippogriff and his subsequent registration of the creature as an International Trade Mark, men (and some women) have struggled to catalog the fabulous variety that is called nature. This document supplies a number of representations of all manner of things (both elemental and hypothetical) supplied by some of our best collectors of curios and delivered in a manner that may well be reused by the cunning document author." target="_top">
<ellipse fill="none" stroke="black" cx="857.05" cy="-174.66" rx="174.13" ry="75.66"/>
<text xml:space="preserve" text-anchor="middle" x="857.05" y="-210.86" font-family="Times,serif" font-size="14.00">RFC8140</text>
<text xml:space="preserve" text-anchor="middle" x="857.05" y="-194.36" font-family="Times,serif" font-size="14.00">The Arte of ASCII: Or, An True and</text>
<text xml:space="preserve" text-anchor="middle" x="857.05" y="-177.86" font-family="Times,serif" font-size="14.00">Accurate Representation of an Menagerie</text>
<text xml:space="preserve" text-anchor="middle" x="857.05" y="-161.36" font-family="Times,serif" font-size="14.00">of Thynges Fabulous and Wonderful in Ye</text>
<text xml:space="preserve" text-anchor="middle" x="857.05" y="-144.86" font-family="Times,serif" font-size="14.00">Forme of Character</text>
<text xml:space="preserve" text-anchor="middle" x="857.05" y="-128.36" font-family="Times,serif" font-size="14.00">2017</text>
</a>
</g>
</g>
<!-- RFC8140&#45;&gt;rev_cites -->
<g id="edge24" class="edge">
<title>RFC8140&#45;&gt;rev_cites</title>
<path fill="none" stroke="black" d="M990.67,-223.37C1007.42,-233.3 1023.28,-244.99 1036.48,-258.66 1060.69,-283.73 1074.28,-322.09 1081.24,-348.44"/>
<polygon fill="black" stroke="black" points="1077.75,-348.92 1083.54,-357.8 1084.55,-347.25 1077.75,-348.92"/>
</g>
<!-- RFC8700 -->
<g id="node24" class="node">
<title>RFC8700</title>
<g id="a_node24"><a xlink:href="RFC8700.html" xlink:title="This RFC marks the fiftieth anniversary for the RFC Series. &#160;It includes both retrospective material from individuals involved at key inflection points as well as a review of the current state of affairs. &#160;It concludes with thoughts on possibilities for the next fifty years for the Series. &#160;This document updates the perspectives offered in RFCs 2555 and 5540." target="_top">
<ellipse fill="none" stroke="black" cx="857.05" cy="-40.66" rx="88.21" ry="40.66"/>
<text xml:space="preserve" text-anchor="middle" x="857.05" y="-52.11" font-family="Times,serif" font-size="14.00">RFC8700</text>
<text xml:space="preserve" text-anchor="middle" x="857.05" y="-35.61" font-family="Times,serif" font-size="14.00">Fifty Years of RFCs</text>
<text xml:space="preserve" text-anchor="middle" x="857.05" y="-19.11" font-family="Times,serif" font-size="14.00">2019</text>
</a>
</g>
</g>
<!-- RFC8700&#45;&gt;rev_cites -->
<g id="edge25" class="edge">
<title>RFC8700&#45;&gt;rev_cites</title>
<path fill="none" stroke="black" d="M945.03,-45.23C978.03,-51.41 1013.22,-64.13 1036.48,-89.66 1070.77,-127.29 1082.63,-282.66 1086.16,-348.24"/>
<polygon fill="black" stroke="black" points="1082.65,-348.07 1086.65,-357.88 1089.64,-347.72 1082.65,-348.07"/>
</g>
</g>
</svg>
