<?xml version="1.0" encoding="UTF-8" standalone="no"?>
<!DOCTYPE svg PUBLIC "-//W3C//DTD SVG 1.1//EN"
 "http://www.w3.org/Graphics/SVG/1.1/DTD/svg11.dtd">
<!-- Generated by graphviz version 14.1.1 (20251213.1925)
 -->
<!-- Title: Flow Pages: 1 -->
<svg width="1263pt" height="1286pt"
 viewBox="0.00 0.00 1263.00 1286.00" xmlns="http://www.w3.org/2000/svg" xmlns:xlink="http://www.w3.org/1999/xlink">
<g id="graph0" class="graph" transform="scale(1 1) rotate(0) translate(4 1281.99)">
<title>Flow</title>
<polygon fill="white" stroke="none" points="-4,4 -4,-1281.99 1258.98,-1281.99 1258.98,4 -4,4"/>
<!-- RFC7315 -->
<g id="node1" class="node">
<title>RFC7315</title>
<g id="a_node1"><a xlink:title="This document describes a set of private header (P&#45;header) Session Initiation Protocol (SIP) fields used by the 3GPP, along with their applicability, which is limited to particular environments. &#160;The P&#45;header fields are used for a variety of purposes within the networks that the partners implement, including charging and information about the networks a call traverses. &#160;This document obsoletes RFC 3455.">
<ellipse fill="none" stroke="black" cx="610.52" cy="-654.33" rx="168.29" ry="63.99"/>
<text xml:space="preserve" text-anchor="middle" x="610.52" y="-682.28" font-family="Times,serif" font-size="14.00">RFC7315</text>
<text xml:space="preserve" text-anchor="middle" x="610.52" y="-665.78" font-family="Times,serif" font-size="14.00">Private Header (P&#45;Header) Extensions to</text>
<text xml:space="preserve" text-anchor="middle" x="610.52" y="-649.28" font-family="Times,serif" font-size="14.00">the Session Initiation Protocol (SIP)</text>
<text xml:space="preserve" text-anchor="middle" x="610.52" y="-632.78" font-family="Times,serif" font-size="14.00">for the 3GPP</text>
<text xml:space="preserve" text-anchor="middle" x="610.52" y="-616.28" font-family="Times,serif" font-size="14.00">2014</text>
</a>
</g>
</g>
<!-- obs -->
<g id="node3" class="node">
<title>obs</title>
<polygon fill="none" stroke="black" points="870.06,-973.33 803.81,-973.33 803.81,-937.33 870.06,-937.33 870.06,-973.33"/>
<text xml:space="preserve" text-anchor="middle" x="836.93" y="-950.28" font-family="Times,serif" font-size="14.00">obsoletes</text>
</g>
<!-- RFC7315&#45;&gt;obs -->
<g id="edge2" class="edge">
<title>RFC7315&#45;&gt;obs</title>
<path fill="none" stroke="black" d="M657.47,-715.96C705.94,-780.97 780.1,-880.44 815.61,-928.07"/>
<polygon fill="black" stroke="black" points="812.69,-930 821.47,-935.93 818.3,-925.82 812.69,-930"/>
</g>
<!-- updates -->
<g id="node5" class="node">
<title>updates</title>
<polygon fill="none" stroke="black" points="865.56,-618.33 808.31,-618.33 808.31,-582.33 865.56,-582.33 865.56,-618.33"/>
<text xml:space="preserve" text-anchor="middle" x="836.93" y="-595.28" font-family="Times,serif" font-size="14.00">updates</text>
</g>
<!-- RFC7315&#45;&gt;updates -->
<g id="edge4" class="edge">
<title>RFC7315&#45;&gt;updates</title>
<path fill="none" stroke="black" d="M753.33,-620.2C769.23,-616.38 784.27,-612.76 797.06,-609.68"/>
<polygon fill="black" stroke="black" points="797.75,-613.11 806.65,-607.37 796.11,-606.31 797.75,-613.11"/>
</g>
<!-- cites -->
<g id="node10" class="node">
<title>cites</title>
<polygon fill="none" stroke="black" points="863.93,-672.33 809.93,-672.33 809.93,-636.33 863.93,-636.33 863.93,-672.33"/>
<text xml:space="preserve" text-anchor="middle" x="836.93" y="-649.28" font-family="Times,serif" font-size="14.00">cites</text>
</g>
<!-- RFC7315&#45;&gt;cites -->
<g id="edge9" class="edge">
<title>RFC7315&#45;&gt;cites</title>
<path fill="none" stroke="black" d="M779.3,-654.33C786.01,-654.33 792.35,-654.33 798.21,-654.33"/>
<polygon fill="black" stroke="black" points="797.98,-657.83 807.98,-654.33 797.98,-650.83 797.98,-657.83"/>
</g>
<!-- obs_by -->
<g id="node2" class="node">
<title>obs_by</title>
<polygon fill="none" stroke="black" points="417.23,-726.33 350.98,-726.33 350.98,-690.33 417.23,-690.33 417.23,-726.33"/>
<text xml:space="preserve" text-anchor="middle" x="384.1" y="-703.28" font-family="Times,serif" font-size="14.00">obsoletes</text>
</g>
<!-- obs_by&#45;&gt;RFC7315 -->
<g id="edge1" class="edge">
<title>obs_by&#45;&gt;RFC7315</title>
<path fill="none" stroke="black" d="M417.25,-700.59C428.57,-697.87 442.15,-694.6 456.79,-691.08"/>
<polygon fill="black" stroke="black" points="457.24,-694.57 466.15,-688.82 455.61,-687.76 457.24,-694.57"/>
</g>
<!-- RFC3455 -->
<g id="node4" class="node">
<title>RFC3455</title>
<g id="a_node4"><a xlink:href="RFC3455.html" xlink:title="This document describes a set of private Session Initiation Protocol (SIP) headers (P&#45;headers) used by the 3rd&#45;Generation Partnership Project (3GPP), along with their applicability, which is limited to particular environments. &#160;The P&#45;headers are for a variety of purposes within the networks that the partners use, including charging and information about the networks a call traverses. &#160;This memo provides information for the Internet community." target="_top">
<ellipse fill="none" stroke="black" cx="1075.02" cy="-1202.33" rx="168.29" ry="75.66"/>
<text xml:space="preserve" text-anchor="middle" x="1075.02" y="-1238.53" font-family="Times,serif" font-size="14.00">RFC3455</text>
<text xml:space="preserve" text-anchor="middle" x="1075.02" y="-1222.03" font-family="Times,serif" font-size="14.00">Private Header (P&#45;Header) Extensions to</text>
<text xml:space="preserve" text-anchor="middle" x="1075.02" y="-1205.53" font-family="Times,serif" font-size="14.00">the Session Initiation Protocol (SIP)</text>
<text xml:space="preserve" text-anchor="middle" x="1075.02" y="-1189.03" font-family="Times,serif" font-size="14.00">for the 3rd&#45;Generation Partnership</text>
<text xml:space="preserve" text-anchor="middle" x="1075.02" y="-1172.53" font-family="Times,serif" font-size="14.00">Project (3GPP)</text>
<text xml:space="preserve" text-anchor="middle" x="1075.02" y="-1156.03" font-family="Times,serif" font-size="14.00">2003</text>
</a>
</g>
</g>
<!-- obs&#45;&gt;RFC3455 -->
<g id="edge3" class="edge">
<title>obs&#45;&gt;RFC3455</title>
<path fill="none" stroke="black" d="M839.81,-973.68C844.04,-1006.38 857.14,-1075.22 895.06,-1117.33 906.11,-1129.59 919.3,-1140.24 933.45,-1149.46"/>
<polygon fill="black" stroke="black" points="931.24,-1152.21 941.58,-1154.51 934.93,-1146.26 931.24,-1152.21"/>
</g>
<!-- updated_by -->
<g id="node6" class="node">
<title>updated_by</title>
<polygon fill="none" stroke="black" points="412.73,-672.33 355.48,-672.33 355.48,-636.33 412.73,-636.33 412.73,-672.33"/>
<text xml:space="preserve" text-anchor="middle" x="384.1" y="-649.28" font-family="Times,serif" font-size="14.00">updates</text>
</g>
<!-- updated_by&#45;&gt;RFC7315 -->
<g id="edge5" class="edge">
<title>updated_by&#45;&gt;RFC7315</title>
<path fill="none" stroke="black" d="M413.07,-654.33C418.41,-654.33 424.36,-654.33 430.76,-654.33"/>
<polygon fill="black" stroke="black" points="430.41,-657.83 440.41,-654.33 430.41,-650.83 430.41,-657.83"/>
</g>
<!-- RFC7913 -->
<g id="node7" class="node">
<title>RFC7913</title>
<g id="a_node7"><a xlink:href="RFC7913.html" xlink:title="This document updates RFC 7315, by modifying the extension&#45;access&#45; info part of the P&#45;Access&#45;Network&#45;Info header field Augmented Backus&#45; Naur Form (ABNF), and by adding the following &#39;access&#45;info&#39; header field parameter values to the list of &#39;access&#45;info&#39; header field parameter values in the ABNF: &#39;operator&#45;specific&#45;GI&#39; and &#39;utran&#45;sai&#45;3gpp&#39;. &#160;The values are defined in the ABNF but are not included in the list." target="_top">
<ellipse fill="none" stroke="black" cx="162.99" cy="-777.33" rx="160.34" ry="40.66"/>
<text xml:space="preserve" text-anchor="middle" x="162.99" y="-788.78" font-family="Times,serif" font-size="14.00">RFC7913</text>
<text xml:space="preserve" text-anchor="middle" x="162.99" y="-772.28" font-family="Times,serif" font-size="14.00">P&#45;Access&#45;Network&#45;Info ABNF Update</text>
<text xml:space="preserve" text-anchor="middle" x="162.99" y="-755.78" font-family="Times,serif" font-size="14.00">2016</text>
</a>
</g>
</g>
<!-- RFC7913&#45;&gt;updated_by -->
<g id="edge6" class="edge">
<title>RFC7913&#45;&gt;updated_by</title>
<path fill="none" stroke="black" d="M286.5,-750.97C300.68,-744.69 314.25,-736.93 325.98,-727.33 343.98,-712.58 336.26,-699.35 350.98,-681.33 351.13,-681.14 351.29,-680.95 351.45,-680.76"/>
<polygon fill="black" stroke="black" points="353.88,-683.28 358.26,-673.63 348.82,-678.44 353.88,-683.28"/>
</g>
<!-- rev_cites -->
<g id="node20" class="node">
<title>rev_cites</title>
<polygon fill="none" stroke="black" points="411.1,-618.33 357.1,-618.33 357.1,-582.33 411.1,-582.33 411.1,-618.33"/>
<text xml:space="preserve" text-anchor="middle" x="384.1" y="-595.28" font-family="Times,serif" font-size="14.00">cites</text>
</g>
<!-- RFC7913&#45;&gt;rev_cites -->
<g id="edge21" class="edge">
<title>RFC7913&#45;&gt;rev_cites</title>
<path fill="none" stroke="black" d="M290.99,-752.66C304,-746.09 316.06,-737.8 325.98,-727.33 355.26,-696.4 330.72,-670.13 352.21,-628.38"/>
<polygon fill="black" stroke="black" points="355.12,-630.34 357.16,-619.94 349.08,-626.8 355.12,-630.34"/>
</g>
<!-- RFC7976 -->
<g id="node8" class="node">
<title>RFC7976</title>
<g id="a_node8"><a xlink:href="RFC7976.html" xlink:title="The Third Generation Partnership Project (3GPP) has identified cases where different SIP private header extensions referred to as P&#45; header fields, and defined in RFC 7315, need to be included in SIP requests and responses currently not allowed according to RFC 7315. This document updates RFC 7315, in order to allow inclusion of the affected P&#45; header fields in such requests and responses. This document also makes updates for RFC 7315 in order to fix misalignments that occurred when RFC 3455 was updated and obsoleted by RFC 7315." target="_top">
<ellipse fill="none" stroke="black" cx="162.99" cy="-654.33" rx="162.99" ry="63.99"/>
<text xml:space="preserve" text-anchor="middle" x="162.99" y="-682.28" font-family="Times,serif" font-size="14.00">RFC7976</text>
<text xml:space="preserve" text-anchor="middle" x="162.99" y="-665.78" font-family="Times,serif" font-size="14.00">Updates to Private Header (P&#45;Header)</text>
<text xml:space="preserve" text-anchor="middle" x="162.99" y="-649.28" font-family="Times,serif" font-size="14.00">Extension Usage in Session Initiation</text>
<text xml:space="preserve" text-anchor="middle" x="162.99" y="-632.78" font-family="Times,serif" font-size="14.00">Protocol (SIP) Requests and Responses</text>
<text xml:space="preserve" text-anchor="middle" x="162.99" y="-616.28" font-family="Times,serif" font-size="14.00">2016</text>
</a>
</g>
</g>
<!-- RFC7976&#45;&gt;updated_by -->
<g id="edge7" class="edge">
<title>RFC7976&#45;&gt;updated_by</title>
<path fill="none" stroke="black" d="M326.39,-654.33C332.54,-654.33 338.39,-654.33 343.85,-654.33"/>
<polygon fill="black" stroke="black" points="343.59,-657.83 353.59,-654.33 343.59,-650.83 343.59,-657.83"/>
</g>
<!-- RFC7976&#45;&gt;rev_cites -->
<g id="edge22" class="edge">
<title>RFC7976&#45;&gt;rev_cites</title>
<path fill="none" stroke="black" d="M301.82,-620.36C317.84,-616.41 332.98,-612.68 345.77,-609.53"/>
<polygon fill="black" stroke="black" points="346.46,-612.96 355.33,-607.17 344.78,-606.16 346.46,-612.96"/>
</g>
<!-- RFC9878 -->
<g id="node9" class="node">
<title>RFC9878</title>
<g id="a_node9"><a xlink:href="RFC9878.html" xlink:title="The Third Generation Partnership Project (3GPP) has identified cases where different SIP private header extensions referred to as P&#45; header fields, and defined in RFC 7315, need to be included in SIP requests and responses where they were not allowed according to RFC 7315. This document updates RFC 7315, in order to allow inclusion of the affected P&#45; header fields in such requests and responses. This document obsoletes RFC 7976. The changes related to RFC 7976 involve the inclusion of the P&#45;Visited&#45;Network&#45;ID header field in SIP responses. This document also makes updates to RFC 7315 in order to fix misalignments that occurred when RFC 3455 was obsoleted by RFC 7315." target="_top">
<ellipse fill="none" stroke="black" cx="162.99" cy="-508.33" rx="162.99" ry="63.99"/>
<text xml:space="preserve" text-anchor="middle" x="162.99" y="-536.28" font-family="Times,serif" font-size="14.00">RFC9878</text>
<text xml:space="preserve" text-anchor="middle" x="162.99" y="-519.78" font-family="Times,serif" font-size="14.00">Updates to Private Header (P&#45;Header)</text>
<text xml:space="preserve" text-anchor="middle" x="162.99" y="-503.28" font-family="Times,serif" font-size="14.00">Extension Usage in Session Initiation</text>
<text xml:space="preserve" text-anchor="middle" x="162.99" y="-486.78" font-family="Times,serif" font-size="14.00">Protocol (SIP) Requests and Responses</text>
<text xml:space="preserve" text-anchor="middle" x="162.99" y="-470.28" font-family="Times,serif" font-size="14.00">2025</text>
</a>
</g>
</g>
<!-- RFC9878&#45;&gt;updated_by -->
<g id="edge8" class="edge">
<title>RFC9878&#45;&gt;updated_by</title>
<path fill="none" stroke="black" d="M284.18,-551.55C299.24,-560.01 313.65,-569.89 325.98,-581.33 343.03,-597.16 336.26,-609.3 350.98,-627.33 351.13,-627.52 351.29,-627.71 351.45,-627.9"/>
<polygon fill="black" stroke="black" points="348.82,-630.21 358.26,-635.02 353.88,-625.38 348.82,-630.21"/>
</g>
<!-- RFC9878&#45;&gt;rev_cites -->
<g id="edge24" class="edge">
<title>RFC9878&#45;&gt;rev_cites</title>
<path fill="none" stroke="black" d="M275.15,-555C300.89,-565.81 326.52,-576.57 346.33,-584.89"/>
<polygon fill="black" stroke="black" points="344.74,-588.02 355.32,-588.66 347.45,-581.56 344.74,-588.02"/>
</g>
<!-- cites&#45;&gt;RFC3455 -->
<g id="edge12" class="edge">
<title>cites&#45;&gt;RFC3455</title>
<path fill="none" stroke="black" d="M840.06,-672.56C850.03,-757.76 891.72,-1112.7 895.06,-1117.33 904.54,-1130.47 916.6,-1141.66 929.96,-1151.16"/>
<polygon fill="black" stroke="black" points="927.89,-1153.98 938.15,-1156.63 931.78,-1148.16 927.89,-1153.98"/>
</g>
<!-- RFC4083 -->
<g id="node11" class="node">
<title>RFC4083</title>
<g id="a_node11"><a xlink:href="RFC4083.html" xlink:title="The 3rd&#45;Generation Partnership Project (3GPP) has selected Session Initiation Protocol (SIP) as the session establishment protocol for the 3GPP IP Multimedia Core Network Subsystem (IMS). &#160;IMS is part of Release 5 of the 3GPP specifications. &#160;Although SIP is a protocol that fulfills most of the requirements for establishing a session in an IP network, SIP has never been evaluated against the specific 3GPP requirements for operation in a cellular network. &#160;In this document, we express the requirements identified by 3GPP to support SIP for Release 5 of the 3GPP IMS in cellular networks. &#160;This memo provides information for the Internet community." target="_top">
<ellipse fill="none" stroke="black" cx="1075.02" cy="-654.33" rx="168.29" ry="63.99"/>
<text xml:space="preserve" text-anchor="middle" x="1075.02" y="-682.28" font-family="Times,serif" font-size="14.00">RFC4083</text>
<text xml:space="preserve" text-anchor="middle" x="1075.02" y="-665.78" font-family="Times,serif" font-size="14.00">Input 3rd&#45;Generation Partnership Project</text>
<text xml:space="preserve" text-anchor="middle" x="1075.02" y="-649.28" font-family="Times,serif" font-size="14.00">(3GPP) Release 5 Requirements on the</text>
<text xml:space="preserve" text-anchor="middle" x="1075.02" y="-632.78" font-family="Times,serif" font-size="14.00">Session Initiation Protocol (SIP)</text>
<text xml:space="preserve" text-anchor="middle" x="1075.02" y="-616.28" font-family="Times,serif" font-size="14.00">2005</text>
</a>
</g>
</g>
<!-- cites&#45;&gt;RFC4083 -->
<g id="edge10" class="edge">
<title>cites&#45;&gt;RFC4083</title>
<path fill="none" stroke="black" d="M864.1,-654.33C872.84,-654.33 883.33,-654.33 894.9,-654.33"/>
<polygon fill="black" stroke="black" points="894.78,-657.83 904.78,-654.33 894.78,-650.83 894.78,-657.83"/>
</g>
<!-- RFC2119 -->
<g id="node12" class="node">
<title>RFC2119</title>
<g id="a_node12"><a xlink:href="RFC2119.html" xlink:title="In many standards track documents several words are used to signify the requirements in the specification. &#160;These words are often capitalized. &#160;This document defines these words as they should be interpreted in IETF documents. &#160;This document specifies an Internet Best Current Practices for the Internet Community, and requests discussion and suggestions for improvements." target="_top">
<ellipse fill="none" stroke="black" cx="1075.02" cy="-520.33" rx="160.34" ry="52.33"/>
<text xml:space="preserve" text-anchor="middle" x="1075.02" y="-540.03" font-family="Times,serif" font-size="14.00">RFC2119</text>
<text xml:space="preserve" text-anchor="middle" x="1075.02" y="-523.53" font-family="Times,serif" font-size="14.00">Key words for use in RFCs to Indicate</text>
<text xml:space="preserve" text-anchor="middle" x="1075.02" y="-507.03" font-family="Times,serif" font-size="14.00">Requirement Levels</text>
<text xml:space="preserve" text-anchor="middle" x="1075.02" y="-490.53" font-family="Times,serif" font-size="14.00">1997</text>
</a>
</g>
</g>
<!-- cites&#45;&gt;RFC2119 -->
<g id="edge11" class="edge">
<title>cites&#45;&gt;RFC2119</title>
<path fill="none" stroke="black" d="M861.73,-636.11C864.7,-633.34 867.57,-630.37 870.06,-627.33 884.78,-609.3 877.27,-596.33 895.06,-581.33 906.98,-571.27 920.65,-562.84 935,-555.79"/>
<polygon fill="black" stroke="black" points="936.07,-559.15 943.66,-551.76 933.12,-552.8 936.07,-559.15"/>
</g>
<!-- RFC3261 -->
<g id="node13" class="node">
<title>RFC3261</title>
<g id="a_node13"><a xlink:href="RFC3261.html" xlink:title="This document describes Session Initiation Protocol (SIP), an application&#45;layer control (signaling) protocol for creating, modifying, and terminating sessions with one or more participants. &#160;These sessions include Internet telephone calls, multimedia distribution, and multimedia conferences. [STANDARDS&#45;TRACK]" target="_top">
<ellipse fill="none" stroke="black" cx="1075.02" cy="-409.33" rx="132.23" ry="40.66"/>
<text xml:space="preserve" text-anchor="middle" x="1075.02" y="-420.78" font-family="Times,serif" font-size="14.00">RFC3261</text>
<text xml:space="preserve" text-anchor="middle" x="1075.02" y="-404.28" font-family="Times,serif" font-size="14.00">SIP: Session Initiation Protocol</text>
<text xml:space="preserve" text-anchor="middle" x="1075.02" y="-387.78" font-family="Times,serif" font-size="14.00">2002</text>
</a>
</g>
</g>
<!-- cites&#45;&gt;RFC3261 -->
<g id="edge13" class="edge">
<title>cites&#45;&gt;RFC3261</title>
<path fill="none" stroke="black" d="M863.71,-635.86C866.16,-633.24 868.35,-630.38 870.06,-627.33 906.9,-561.44 845.11,-515.93 895.06,-459.33 907.37,-445.37 923.22,-435.17 940.39,-427.74"/>
<polygon fill="black" stroke="black" points="941.22,-431.17 949.22,-424.23 938.64,-424.67 941.22,-431.17"/>
</g>
<!-- RFC7044 -->
<g id="node14" class="node">
<title>RFC7044</title>
<g id="a_node14"><a xlink:href="RFC7044.html" xlink:title="This document defines a standard mechanism for capturing the history information associated with a Session Initiation Protocol (SIP) request. &#160;This capability enables many enhanced services by providing the information as to how and why a SIP request arrives at a specific application or user. &#160;This document defines an optional SIP header field, History&#45;Info, for capturing the history information in requests. &#160;The document also defines SIP header field parameters for the History&#45;Info and Contact header fields to tag the method by which the target of a request is determined. &#160;In addition, this specification defines a value for the Privacy header field that directs the anonymization of values in the History&#45;Info header field. &#160;This document obsoletes RFC 4244." target="_top">
<ellipse fill="none" stroke="black" cx="1075.02" cy="-286.33" rx="157.68" ry="63.99"/>
<text xml:space="preserve" text-anchor="middle" x="1075.02" y="-314.28" font-family="Times,serif" font-size="14.00">RFC7044</text>
<text xml:space="preserve" text-anchor="middle" x="1075.02" y="-297.78" font-family="Times,serif" font-size="14.00">An Extension to the Session Initiation</text>
<text xml:space="preserve" text-anchor="middle" x="1075.02" y="-281.28" font-family="Times,serif" font-size="14.00">Protocol (SIP) for Request History</text>
<text xml:space="preserve" text-anchor="middle" x="1075.02" y="-264.78" font-family="Times,serif" font-size="14.00">Information</text>
<text xml:space="preserve" text-anchor="middle" x="1075.02" y="-248.28" font-family="Times,serif" font-size="14.00">2014</text>
</a>
</g>
</g>
<!-- cites&#45;&gt;RFC7044 -->
<g id="edge14" class="edge">
<title>cites&#45;&gt;RFC7044</title>
<path fill="none" stroke="black" d="M863.88,-635.95C866.29,-633.31 868.44,-630.42 870.06,-627.33 897.81,-574.34 859.42,-407.36 895.06,-359.33 904.89,-346.08 917.54,-335.23 931.57,-326.34"/>
<polygon fill="black" stroke="black" points="933.34,-329.36 940.18,-321.26 929.78,-323.33 933.34,-329.36"/>
</g>
<!-- RFC6665 -->
<g id="node15" class="node">
<title>RFC6665</title>
<g id="a_node15"><a xlink:href="RFC6665.html" xlink:title="This document describes an extension to the Session Initiation Protocol (SIP) defined by RFC 3261. The purpose of this extension is to provide an extensible framework by which SIP nodes can request notification from remote nodes indicating that certain events have occurred. Note that the event notification mechanisms defined herein are NOT intended to be a general&#45;purpose infrastructure for all classes of event subscription and notification. This document represents a backwards&#45;compatible improvement on the original mechanism described by RFC 3265, taking into account several years of implementation experience. Accordingly, this document obsoletes RFC 3265. This document also updates RFC 4660 slightly to accommodate some small changes to the mechanism that were discussed in that document. [STANDARDS&#45;TRACK]" target="_top">
<ellipse fill="none" stroke="black" cx="1075.02" cy="-163.33" rx="133.29" ry="40.66"/>
<text xml:space="preserve" text-anchor="middle" x="1075.02" y="-174.78" font-family="Times,serif" font-size="14.00">RFC6665</text>
<text xml:space="preserve" text-anchor="middle" x="1075.02" y="-158.28" font-family="Times,serif" font-size="14.00">SIP&#45;Specific Event Notification</text>
<text xml:space="preserve" text-anchor="middle" x="1075.02" y="-141.78" font-family="Times,serif" font-size="14.00">2012</text>
</a>
</g>
</g>
<!-- cites&#45;&gt;RFC6665 -->
<g id="edge15" class="edge">
<title>cites&#45;&gt;RFC6665</title>
<path fill="none" stroke="black" d="M863.98,-636C866.38,-633.35 868.49,-630.45 870.06,-627.33 911.48,-544.99 837.15,-285.03 895.06,-213.33 906.56,-199.09 921.75,-188.71 938.43,-181.17"/>
<polygon fill="black" stroke="black" points="939.66,-184.45 947.58,-177.41 937,-177.97 939.66,-184.45"/>
</g>
<!-- RFC3515 -->
<g id="node16" class="node">
<title>RFC3515</title>
<g id="a_node16"><a xlink:href="RFC3515.html" xlink:title="This document defines the REFER method. &#160;This Session Initiation Protocol (SIP) extension requests that the recipient REFER to a resource provided in the request. &#160;It provides a mechanism allowing the party sending the REFER to be notified of the outcome of the referenced request. &#160;This can be used to enable many applications, including call transfer. &#160;In addition to the REFER method, this document defines the refer event package and the Refer&#45;To request header. [STANDARDS&#45;TRACK]" target="_top">
<ellipse fill="none" stroke="black" cx="1075.02" cy="-52.33" rx="153.44" ry="52.33"/>
<text xml:space="preserve" text-anchor="middle" x="1075.02" y="-72.03" font-family="Times,serif" font-size="14.00">RFC3515</text>
<text xml:space="preserve" text-anchor="middle" x="1075.02" y="-55.53" font-family="Times,serif" font-size="14.00">The Session Initiation Protocol (SIP)</text>
<text xml:space="preserve" text-anchor="middle" x="1075.02" y="-39.03" font-family="Times,serif" font-size="14.00">Refer Method</text>
<text xml:space="preserve" text-anchor="middle" x="1075.02" y="-22.53" font-family="Times,serif" font-size="14.00">2003</text>
</a>
</g>
</g>
<!-- cites&#45;&gt;RFC3515 -->
<g id="edge16" class="edge">
<title>cites&#45;&gt;RFC3515</title>
<path fill="none" stroke="black" d="M864.02,-636.02C866.41,-633.37 868.51,-630.46 870.06,-627.33 895.46,-576.1 860.66,-159 895.06,-113.33 904.43,-100.88 916.49,-90.95 929.9,-83.03"/>
<polygon fill="black" stroke="black" points="931.44,-86.18 938.56,-78.34 928.1,-80.03 931.44,-86.18"/>
</g>
<!-- RFC5234 -->
<g id="node17" class="node">
<title>RFC5234</title>
<g id="a_node17"><a xlink:href="RFC5234.html" xlink:title="Internet technical specifications often need to define a formal syntax. &#160;Over the years, a modified version of Backus&#45;Naur Form (BNF), called Augmented BNF (ABNF), has been popular among many Internet specifications. &#160;The current specification documents ABNF. &#160;It balances compactness and simplicity with reasonable representational power. &#160;The differences between standard BNF and ABNF involve naming rules, repetition, alternatives, order&#45;independence, and value ranges. &#160;This specification also supplies additional rule definitions and encoding for a core lexical analyzer of the type common to several Internet specifications. [STANDARDS&#45;TRACK]" target="_top">
<ellipse fill="none" stroke="black" cx="1075.02" cy="-1056.33" rx="179.96" ry="52.33"/>
<text xml:space="preserve" text-anchor="middle" x="1075.02" y="-1076.03" font-family="Times,serif" font-size="14.00">RFC5234</text>
<text xml:space="preserve" text-anchor="middle" x="1075.02" y="-1059.53" font-family="Times,serif" font-size="14.00">Augmented BNF for Syntax Specifications:</text>
<text xml:space="preserve" text-anchor="middle" x="1075.02" y="-1043.03" font-family="Times,serif" font-size="14.00">ABNF</text>
<text xml:space="preserve" text-anchor="middle" x="1075.02" y="-1026.53" font-family="Times,serif" font-size="14.00">2008</text>
</a>
</g>
</g>
<!-- cites&#45;&gt;RFC5234 -->
<g id="edge17" class="edge">
<title>cites&#45;&gt;RFC5234</title>
<path fill="none" stroke="black" d="M839.89,-672.52C847.23,-739.59 873.83,-970.33 895.06,-995.33 902.71,-1004.33 911.74,-1012.01 921.63,-1018.56"/>
<polygon fill="black" stroke="black" points="919.69,-1021.48 930.05,-1023.71 923.34,-1015.51 919.69,-1021.48"/>
</g>
<!-- RFC3325 -->
<g id="node18" class="node">
<title>RFC3325</title>
<g id="a_node18"><a xlink:href="RFC3325.html" xlink:title="None" target="_top">
<ellipse fill="none" stroke="black" cx="1075.02" cy="-922.33" rx="153.44" ry="63.99"/>
<text xml:space="preserve" text-anchor="middle" x="1075.02" y="-950.28" font-family="Times,serif" font-size="14.00">RFC3325</text>
<text xml:space="preserve" text-anchor="middle" x="1075.02" y="-933.78" font-family="Times,serif" font-size="14.00">Private Extensions to the Session</text>
<text xml:space="preserve" text-anchor="middle" x="1075.02" y="-917.28" font-family="Times,serif" font-size="14.00">Initiation Protocol (SIP) for Asserted</text>
<text xml:space="preserve" text-anchor="middle" x="1075.02" y="-900.78" font-family="Times,serif" font-size="14.00">Identity within Trusted Networks</text>
<text xml:space="preserve" text-anchor="middle" x="1075.02" y="-884.28" font-family="Times,serif" font-size="14.00">2002</text>
</a>
</g>
</g>
<!-- cites&#45;&gt;RFC3325 -->
<g id="edge18" class="edge">
<title>cites&#45;&gt;RFC3325</title>
<path fill="none" stroke="black" d="M838.23,-672.69C839.81,-710.52 848.61,-797.87 895.06,-849.33 906.79,-862.32 921.17,-873.05 936.63,-881.9"/>
<polygon fill="black" stroke="black" points="934.6,-884.78 945.06,-886.45 937.92,-878.62 934.6,-884.78"/>
</g>
<!-- RFC3324 -->
<g id="node19" class="node">
<title>RFC3324</title>
<g id="a_node19"><a xlink:href="RFC3324.html" xlink:title="None" target="_top">
<ellipse fill="none" stroke="black" cx="1075.02" cy="-788.33" rx="161.4" ry="52.33"/>
<text xml:space="preserve" text-anchor="middle" x="1075.02" y="-808.03" font-family="Times,serif" font-size="14.00">RFC3324</text>
<text xml:space="preserve" text-anchor="middle" x="1075.02" y="-791.53" font-family="Times,serif" font-size="14.00">Short Term Requirements for Network</text>
<text xml:space="preserve" text-anchor="middle" x="1075.02" y="-775.03" font-family="Times,serif" font-size="14.00">Asserted Identity</text>
<text xml:space="preserve" text-anchor="middle" x="1075.02" y="-758.53" font-family="Times,serif" font-size="14.00">2002</text>
</a>
</g>
</g>
<!-- cites&#45;&gt;RFC3324 -->
<g id="edge19" class="edge">
<title>cites&#45;&gt;RFC3324</title>
<path fill="none" stroke="black" d="M848.1,-672.7C858.07,-689.17 874.72,-712.88 895.06,-727.33 908.1,-736.59 922.67,-744.54 937.71,-751.34"/>
<polygon fill="black" stroke="black" points="936.22,-754.51 946.79,-755.26 939,-748.09 936.22,-754.51"/>
</g>
<!-- rev_cites&#45;&gt;RFC7315 -->
<g id="edge20" class="edge">
<title>rev_cites&#45;&gt;RFC7315</title>
<path fill="none" stroke="black" d="M411.28,-606.63C423.59,-609.59 439.34,-613.38 456.58,-617.52"/>
<polygon fill="black" stroke="black" points="455.47,-620.86 466.01,-619.79 457.11,-614.05 455.47,-620.86"/>
</g>
<!-- RFC8496 -->
<g id="node21" class="node">
<title>RFC8496</title>
<g id="a_node21"><a xlink:href="RFC8496.html" xlink:title="This text documents the current usage of P&#45;Charge&#45;Info, an existing Session Initiation Protocol (SIP) private header field (P&#45;Header) used to convey billing information about the party to be charged. &#160;This P&#45;Header is currently used in production by several equipment vendors and carriers and has been in use since at least 2007. &#160;This document details the registration of this header field with IANA." target="_top">
<ellipse fill="none" stroke="black" cx="162.99" cy="-362.33" rx="159.28" ry="63.99"/>
<text xml:space="preserve" text-anchor="middle" x="162.99" y="-390.28" font-family="Times,serif" font-size="14.00">RFC8496</text>
<text xml:space="preserve" text-anchor="middle" x="162.99" y="-373.78" font-family="Times,serif" font-size="14.00">P&#45;Charge&#45;Info: A Private Header Field</text>
<text xml:space="preserve" text-anchor="middle" x="162.99" y="-357.28" font-family="Times,serif" font-size="14.00">(P&#45;Header) Extension to the Session</text>
<text xml:space="preserve" text-anchor="middle" x="162.99" y="-340.78" font-family="Times,serif" font-size="14.00">Initiation Protocol (SIP)</text>
<text xml:space="preserve" text-anchor="middle" x="162.99" y="-324.28" font-family="Times,serif" font-size="14.00">2018</text>
</a>
</g>
</g>
<!-- RFC8496&#45;&gt;rev_cites -->
<g id="edge23" class="edge">
<title>RFC8496&#45;&gt;rev_cites</title>
<path fill="none" stroke="black" d="M285.59,-403.5C300.53,-412.29 314.53,-422.8 325.98,-435.33 361.07,-473.73 374.78,-534.79 380.01,-570.87"/>
<polygon fill="black" stroke="black" points="376.51,-571.12 381.28,-580.58 383.45,-570.21 376.51,-571.12"/>
</g>
</g>
</svg>
