<?xml version="1.0" encoding="UTF-8" standalone="no"?>
<!DOCTYPE svg PUBLIC "-//W3C//DTD SVG 1.1//EN"
 "http://www.w3.org/Graphics/SVG/1.1/DTD/svg11.dtd">
<!-- Generated by graphviz version 14.1.1 (20251213.1925)
 -->
<!-- Title: Flow Pages: 1 -->
<svg width="967pt" height="1937pt"
 viewBox="0.00 0.00 967.00 1937.00" xmlns="http://www.w3.org/2000/svg" xmlns:xlink="http://www.w3.org/1999/xlink">
<g id="graph0" class="graph" transform="scale(1 1) rotate(0) translate(4 1932.65)">
<title>Flow</title>
<polygon fill="white" stroke="none" points="-4,4 -4,-1932.65 963.15,-1932.65 963.15,4 -4,4"/>
<!-- RFC7805 -->
<g id="node1" class="node">
<title>RFC7805</title>
<g id="a_node1"><a xlink:title="This document reclassifies several TCP extensions and TCP&#45;related documents that either have been superseded, have never seen widespread use, or are no longer recommended for use to Historic status. &#160;The affected documents are RFCs 675, 721, 761, 813, 816, 879, 896, 1078, and 6013. &#160;Additionally, this document reclassifies RFCs 700, 794, 814, 817, 872, 889, 964, and 1071 to Informational status.">
<ellipse fill="green" stroke="black" cx="273.86" cy="-841.33" rx="182.61" ry="63.99"/>
<text xml:space="preserve" text-anchor="middle" x="273.86" y="-869.28" font-family="Times,serif" font-size="14.00">RFC7805</text>
<text xml:space="preserve" text-anchor="middle" x="273.86" y="-852.78" font-family="Times,serif" font-size="14.00">Moving Outdated TCP Extensions and TCP&#45;</text>
<text xml:space="preserve" text-anchor="middle" x="273.86" y="-836.28" font-family="Times,serif" font-size="14.00">Related Documents to Historic or</text>
<text xml:space="preserve" text-anchor="middle" x="273.86" y="-819.78" font-family="Times,serif" font-size="14.00">Informational Status</text>
<text xml:space="preserve" text-anchor="middle" x="273.86" y="-803.28" font-family="Times,serif" font-size="14.00">2016</text>
</a>
</g>
</g>
<!-- obs -->
<g id="node3" class="node">
<title>obs</title>
<polygon fill="lightblue" stroke="black" points="547.72,-1340.33 481.47,-1340.33 481.47,-1304.33 547.72,-1304.33 547.72,-1340.33"/>
<text xml:space="preserve" text-anchor="middle" x="514.6" y="-1317.28" font-family="Times,serif" font-size="14.00">obsoletes</text>
</g>
<!-- RFC7805&#45;&gt;obs -->
<g id="edge2" class="edge">
<title>RFC7805&#45;&gt;obs</title>
<path fill="none" stroke="black" d="M306.32,-904.7C358.69,-1010.23 461.74,-1217.84 499.39,-1293.7"/>
<polygon fill="black" stroke="black" points="496.2,-1295.15 503.78,-1302.55 502.47,-1292.04 496.2,-1295.15"/>
</g>
<!-- updates -->
<g id="node13" class="node">
<title>updates</title>
<polygon fill="lightyellow" stroke="black" points="543.22,-859.33 485.97,-859.33 485.97,-823.33 543.22,-823.33 543.22,-859.33"/>
<text xml:space="preserve" text-anchor="middle" x="514.6" y="-836.28" font-family="Times,serif" font-size="14.00">updates</text>
</g>
<!-- RFC7805&#45;&gt;updates -->
<g id="edge12" class="edge">
<title>RFC7805&#45;&gt;updates</title>
<path fill="none" stroke="black" d="M456.72,-841.33C462.94,-841.33 468.86,-841.33 474.35,-841.33"/>
<polygon fill="black" stroke="black" points="474.14,-844.83 484.14,-841.33 474.14,-837.83 474.14,-844.83"/>
</g>
<!-- cites -->
<g id="node16" class="node">
<title>cites</title>
<polygon fill="lightblue" stroke="black" points="541.6,-649.33 487.6,-649.33 487.6,-613.33 541.6,-613.33 541.6,-649.33"/>
<text xml:space="preserve" text-anchor="middle" x="514.6" y="-626.28" font-family="Times,serif" font-size="14.00">cites</text>
</g>
<!-- RFC7805&#45;&gt;cites -->
<g id="edge15" class="edge">
<title>RFC7805&#45;&gt;cites</title>
<path fill="none" stroke="black" d="M342.63,-781.71C389.4,-740.57 449.25,-687.93 484.31,-657.08"/>
<polygon fill="black" stroke="black" points="486.34,-659.96 491.53,-650.73 481.71,-654.71 486.34,-659.96"/>
</g>
<!-- obs_by -->
<g id="node2" class="node">
<title>obs_by</title>
<polygon fill="lightblue" stroke="black" points="66.25,-913.33 0,-913.33 0,-877.33 66.25,-877.33 66.25,-913.33"/>
<text xml:space="preserve" text-anchor="middle" x="33.12" y="-890.28" font-family="Times,serif" font-size="14.00">obsoletes</text>
</g>
<!-- obs_by&#45;&gt;RFC7805 -->
<g id="edge1" class="edge">
<title>obs_by&#45;&gt;RFC7805</title>
<path fill="none" stroke="black" d="M66.32,-888.04C78.27,-885.34 92.77,-882.06 108.49,-878.5"/>
<polygon fill="black" stroke="black" points="109.1,-881.96 118.08,-876.34 107.56,-875.13 109.1,-881.96"/>
</g>
<!-- RFC0675 -->
<g id="node4" class="node">
<title>RFC0675</title>
<g id="a_node4"><a xlink:href="RFC0675.html" xlink:title="The first detailed specification of TCP; see RFC 793." target="_top">
<ellipse fill="none" stroke="black" cx="765.94" cy="-1630.33" rx="158.75" ry="52.33"/>
<text xml:space="preserve" text-anchor="middle" x="765.94" y="-1650.03" font-family="Times,serif" font-size="14.00">RFC0675</text>
<text xml:space="preserve" text-anchor="middle" x="765.94" y="-1633.53" font-family="Times,serif" font-size="14.00">Specification of Internet Transmission</text>
<text xml:space="preserve" text-anchor="middle" x="765.94" y="-1617.03" font-family="Times,serif" font-size="14.00">Control Program</text>
<text xml:space="preserve" text-anchor="middle" x="765.94" y="-1600.53" font-family="Times,serif" font-size="14.00">1974</text>
</a>
</g>
</g>
<!-- obs&#45;&gt;RFC0675 -->
<g id="edge3" class="edge">
<title>obs&#45;&gt;RFC0675</title>
<path fill="none" stroke="black" d="M517.53,-1340.75C523.26,-1391.98 541.71,-1534.6 572.72,-1568.33 584.91,-1581.58 599.94,-1592.01 616.18,-1600.22"/>
<polygon fill="black" stroke="black" points="614.53,-1603.31 625.06,-1604.4 617.51,-1596.97 614.53,-1603.31"/>
</g>
<!-- RFC0721 -->
<g id="node5" class="node">
<title>RFC0721</title>
<g id="a_node5"><a xlink:href="RFC0721.html" xlink:title="None" target="_top">
<ellipse fill="none" stroke="black" cx="765.94" cy="-1507.33" rx="163.52" ry="52.33"/>
<text xml:space="preserve" text-anchor="middle" x="765.94" y="-1527.03" font-family="Times,serif" font-size="14.00">RFC0721</text>
<text xml:space="preserve" text-anchor="middle" x="765.94" y="-1510.53" font-family="Times,serif" font-size="14.00">Out&#45;of&#45;Band Control Signals in a Host&#45;</text>
<text xml:space="preserve" text-anchor="middle" x="765.94" y="-1494.03" font-family="Times,serif" font-size="14.00">to&#45;Host Protocol</text>
<text xml:space="preserve" text-anchor="middle" x="765.94" y="-1477.53" font-family="Times,serif" font-size="14.00">1976</text>
</a>
</g>
</g>
<!-- obs&#45;&gt;RFC0721 -->
<g id="edge4" class="edge">
<title>obs&#45;&gt;RFC0721</title>
<path fill="none" stroke="black" d="M519.21,-1340.54C525.46,-1367.3 540.79,-1417.1 572.72,-1445.33 585.99,-1457.06 601.51,-1466.58 617.87,-1474.29"/>
<polygon fill="black" stroke="black" points="616.21,-1477.39 626.77,-1478.26 619.06,-1470.99 616.21,-1477.39"/>
</g>
<!-- RFC0761 -->
<g id="node6" class="node">
<title>RFC0761</title>
<g id="a_node6"><a xlink:href="RFC0761.html" xlink:title="None" target="_top">
<ellipse fill="none" stroke="black" cx="765.94" cy="-1384.33" rx="150.79" ry="52.33"/>
<text xml:space="preserve" text-anchor="middle" x="765.94" y="-1404.03" font-family="Times,serif" font-size="14.00">RFC0761</text>
<text xml:space="preserve" text-anchor="middle" x="765.94" y="-1387.53" font-family="Times,serif" font-size="14.00">DoD standard Transmission Control</text>
<text xml:space="preserve" text-anchor="middle" x="765.94" y="-1371.03" font-family="Times,serif" font-size="14.00">Protocol</text>
<text xml:space="preserve" text-anchor="middle" x="765.94" y="-1354.53" font-family="Times,serif" font-size="14.00">1980</text>
</a>
</g>
</g>
<!-- obs&#45;&gt;RFC0761 -->
<g id="edge5" class="edge">
<title>obs&#45;&gt;RFC0761</title>
<path fill="none" stroke="black" d="M548.19,-1330.43C570.04,-1335.86 600.41,-1343.41 631.5,-1351.15"/>
<polygon fill="black" stroke="black" points="630.5,-1354.5 641.05,-1353.52 632.19,-1347.71 630.5,-1354.5"/>
</g>
<!-- RFC0813 -->
<g id="node7" class="node">
<title>RFC0813</title>
<g id="a_node7"><a xlink:href="RFC0813.html" xlink:title="This RFC describes implementation strategies to deal with two mechanisms in TCP, the window and the acknowledgement. &#160;It also presents a particular set of algorithms which have received testing in the field, and which appear to work properly with each other. &#160;With more experience, these algorithms may become part of the formal specification, until such time their use is recommended." target="_top">
<ellipse fill="none" stroke="black" cx="765.94" cy="-1261.33" rx="179.96" ry="52.33"/>
<text xml:space="preserve" text-anchor="middle" x="765.94" y="-1281.03" font-family="Times,serif" font-size="14.00">RFC0813</text>
<text xml:space="preserve" text-anchor="middle" x="765.94" y="-1264.53" font-family="Times,serif" font-size="14.00">Window and Acknowledgement Strategy in</text>
<text xml:space="preserve" text-anchor="middle" x="765.94" y="-1248.03" font-family="Times,serif" font-size="14.00">TCP</text>
<text xml:space="preserve" text-anchor="middle" x="765.94" y="-1231.53" font-family="Times,serif" font-size="14.00">1982</text>
</a>
</g>
</g>
<!-- obs&#45;&gt;RFC0813 -->
<g id="edge6" class="edge">
<title>obs&#45;&gt;RFC0813</title>
<path fill="none" stroke="black" d="M548.19,-1314.35C566.44,-1309.89 590.64,-1303.97 616.24,-1297.7"/>
<polygon fill="black" stroke="black" points="616.94,-1301.14 625.82,-1295.36 615.27,-1294.34 616.94,-1301.14"/>
</g>
<!-- RFC0816 -->
<g id="node8" class="node">
<title>RFC0816</title>
<g id="a_node8"><a xlink:href="RFC0816.html" xlink:title="This RFC describes the portion of fault isolation and recovery which is the responsibility of the host." target="_top">
<ellipse fill="none" stroke="black" cx="765.94" cy="-1150.33" rx="118.97" ry="40.66"/>
<text xml:space="preserve" text-anchor="middle" x="765.94" y="-1161.78" font-family="Times,serif" font-size="14.00">RFC0816</text>
<text xml:space="preserve" text-anchor="middle" x="765.94" y="-1145.28" font-family="Times,serif" font-size="14.00">Fault isolation and recovery</text>
<text xml:space="preserve" text-anchor="middle" x="765.94" y="-1128.78" font-family="Times,serif" font-size="14.00">1982</text>
</a>
</g>
</g>
<!-- obs&#45;&gt;RFC0816 -->
<g id="edge7" class="edge">
<title>obs&#45;&gt;RFC0816</title>
<path fill="none" stroke="black" d="M519.05,-1304.02C525.09,-1277.17 540.17,-1227.39 572.72,-1200.33 592.24,-1184.1 616.42,-1173.07 640.97,-1165.59"/>
<polygon fill="black" stroke="black" points="641.76,-1169 650.43,-1162.91 639.85,-1162.27 641.76,-1169"/>
</g>
<!-- RFC0879 -->
<g id="node9" class="node">
<title>RFC0879</title>
<g id="a_node9"><a xlink:href="RFC0879.html" xlink:title="This RFC discusses the TCP Maximum Segment Size Option and related topics. &#160;The purposes is to clarify some aspects of TCP and its interaction with IP. &#160;This memo is a clarification to the TCP specification, and contains information that may be considered as advice to implementers." target="_top">
<ellipse fill="none" stroke="black" cx="765.94" cy="-1876.33" rx="193.22" ry="52.33"/>
<text xml:space="preserve" text-anchor="middle" x="765.94" y="-1896.03" font-family="Times,serif" font-size="14.00">RFC0879</text>
<text xml:space="preserve" text-anchor="middle" x="765.94" y="-1879.53" font-family="Times,serif" font-size="14.00">The TCP Maximum Segment Size and Related</text>
<text xml:space="preserve" text-anchor="middle" x="765.94" y="-1863.03" font-family="Times,serif" font-size="14.00">Topics</text>
<text xml:space="preserve" text-anchor="middle" x="765.94" y="-1846.53" font-family="Times,serif" font-size="14.00">1983</text>
</a>
</g>
</g>
<!-- obs&#45;&gt;RFC0879 -->
<g id="edge8" class="edge">
<title>obs&#45;&gt;RFC0879</title>
<path fill="none" stroke="black" d="M515.17,-1340.78C513.7,-1421.17 511.83,-1740.12 572.72,-1814.33 580.64,-1823.98 590.07,-1832.14 600.45,-1839.05"/>
<polygon fill="black" stroke="black" points="598.58,-1842.01 608.93,-1844.25 602.24,-1836.04 598.58,-1842.01"/>
</g>
<!-- RFC0896 -->
<g id="node10" class="node">
<title>RFC0896</title>
<g id="a_node10"><a xlink:href="RFC0896.html" xlink:title="This memo discusses some aspects of congestion control in IP/TCP Internetworks. &#160;It is intended to stimulate thought and further discussion of this topic. &#160;While some specific suggestions are made for improved congestion control implementation, this memo does not specify any standards." target="_top">
<ellipse fill="none" stroke="black" cx="765.94" cy="-1753.33" rx="127.99" ry="52.33"/>
<text xml:space="preserve" text-anchor="middle" x="765.94" y="-1773.03" font-family="Times,serif" font-size="14.00">RFC0896</text>
<text xml:space="preserve" text-anchor="middle" x="765.94" y="-1756.53" font-family="Times,serif" font-size="14.00">Congestion Control in IP/TCP</text>
<text xml:space="preserve" text-anchor="middle" x="765.94" y="-1740.03" font-family="Times,serif" font-size="14.00">Internetworks</text>
<text xml:space="preserve" text-anchor="middle" x="765.94" y="-1723.53" font-family="Times,serif" font-size="14.00">1984</text>
</a>
</g>
</g>
<!-- obs&#45;&gt;RFC0896 -->
<g id="edge9" class="edge">
<title>obs&#45;&gt;RFC0896</title>
<path fill="none" stroke="black" d="M515.97,-1340.75C517.68,-1407.78 526.87,-1637.56 572.72,-1691.33 588.8,-1710.18 610.66,-1723.35 633.87,-1732.54"/>
<polygon fill="black" stroke="black" points="632.6,-1735.8 643.19,-1735.96 635.01,-1729.23 632.6,-1735.8"/>
</g>
<!-- RFC1078 -->
<g id="node11" class="node">
<title>RFC1078</title>
<g id="a_node11"><a xlink:href="RFC1078.html" xlink:title="This RFC proposes an Internet standard which can be used by future TCP services instead of using &#39;well&#45;known ports&#39;." target="_top">
<ellipse fill="none" stroke="black" cx="765.94" cy="-952.33" rx="173.59" ry="40.66"/>
<text xml:space="preserve" text-anchor="middle" x="765.94" y="-963.78" font-family="Times,serif" font-size="14.00">RFC1078</text>
<text xml:space="preserve" text-anchor="middle" x="765.94" y="-947.28" font-family="Times,serif" font-size="14.00">TCP port service Multiplexer (TCPMUX)</text>
<text xml:space="preserve" text-anchor="middle" x="765.94" y="-930.78" font-family="Times,serif" font-size="14.00">1988</text>
</a>
</g>
</g>
<!-- obs&#45;&gt;RFC1078 -->
<g id="edge10" class="edge">
<title>obs&#45;&gt;RFC1078</title>
<path fill="none" stroke="black" d="M516.32,-1304.12C519.11,-1242.93 531.21,-1046.01 572.72,-1001.33 581.79,-991.57 592.5,-983.64 604.15,-977.21"/>
<polygon fill="black" stroke="black" points="605.45,-980.48 612.8,-972.84 602.3,-974.23 605.45,-980.48"/>
</g>
<!-- RFC6013 -->
<g id="node12" class="node">
<title>RFC6013</title>
<g id="a_node12"><a xlink:href="RFC6013.html" xlink:title="TCP Cookie Transactions (TCPCT) deter spoofing of connections and prevent resource exhaustion, eliminating Responder (server) state during the initial handshake. &#160;The Initiator (client) has sole responsibility for ensuring required delays between connections. &#160;The cookie exchange may carry data, limited to inhibit amplification and reflection denial of service attacks. &#160;This document defines an Experimental Protocol for the Internet community." target="_top">
<ellipse fill="none" stroke="black" cx="765.94" cy="-1051.33" rx="148.14" ry="40.66"/>
<text xml:space="preserve" text-anchor="middle" x="765.94" y="-1062.78" font-family="Times,serif" font-size="14.00">RFC6013</text>
<text xml:space="preserve" text-anchor="middle" x="765.94" y="-1046.28" font-family="Times,serif" font-size="14.00">TCP Cookie Transactions (TCPCT)</text>
<text xml:space="preserve" text-anchor="middle" x="765.94" y="-1029.78" font-family="Times,serif" font-size="14.00">2011</text>
</a>
</g>
</g>
<!-- obs&#45;&gt;RFC6013 -->
<g id="edge11" class="edge">
<title>obs&#45;&gt;RFC6013</title>
<path fill="none" stroke="black" d="M517.91,-1303.89C524.3,-1256 543.63,-1129.35 572.72,-1100.33 585.54,-1087.53 601.2,-1077.93 618,-1070.75"/>
<polygon fill="black" stroke="black" points="619.16,-1074.05 627.18,-1067.13 616.6,-1067.54 619.16,-1074.05"/>
</g>
<!-- RFC7414 -->
<g id="node14" class="node">
<title>RFC7414</title>
<g id="a_node14"><a xlink:href="RFC7414.html" xlink:title="This document contains a roadmap to the Request for Comments (RFC) documents relating to the Internet&#39;s Transmission Control Protocol (TCP). This roadmap provides a brief summary of the documents defining TCP and various TCP extensions that have accumulated in the RFC series. This serves as a guide and quick reference for both TCP implementers and other parties who desire information contained in the TCP&#45;related RFCs. This document obsoletes RFC 4614." target="_top">
<ellipse fill="none" stroke="black" cx="765.94" cy="-841.33" rx="169.88" ry="52.33"/>
<text xml:space="preserve" text-anchor="middle" x="765.94" y="-861.03" font-family="Times,serif" font-size="14.00">RFC7414</text>
<text xml:space="preserve" text-anchor="middle" x="765.94" y="-844.53" font-family="Times,serif" font-size="14.00">A Roadmap for Transmission Control</text>
<text xml:space="preserve" text-anchor="middle" x="765.94" y="-828.03" font-family="Times,serif" font-size="14.00">Protocol (TCP) Specification Documents</text>
<text xml:space="preserve" text-anchor="middle" x="765.94" y="-811.53" font-family="Times,serif" font-size="14.00">2015</text>
</a>
</g>
</g>
<!-- updates&#45;&gt;RFC7414 -->
<g id="edge13" class="edge">
<title>updates&#45;&gt;RFC7414</title>
<path fill="none" stroke="black" d="M543.71,-841.33C554.94,-841.33 568.85,-841.33 584.19,-841.33"/>
<polygon fill="black" stroke="black" points="584.08,-844.83 594.08,-841.33 584.08,-837.83 584.08,-844.83"/>
</g>
<!-- updated_by -->
<g id="node15" class="node">
<title>updated_by</title>
<polygon fill="lightyellow" stroke="black" points="61.75,-859.33 4.5,-859.33 4.5,-823.33 61.75,-823.33 61.75,-859.33"/>
<text xml:space="preserve" text-anchor="middle" x="33.12" y="-836.28" font-family="Times,serif" font-size="14.00">updates</text>
</g>
<!-- updated_by&#45;&gt;RFC7805 -->
<g id="edge14" class="edge">
<title>updated_by&#45;&gt;RFC7805</title>
<path fill="none" stroke="black" d="M61.98,-841.33C67.34,-841.33 73.31,-841.33 79.75,-841.33"/>
<polygon fill="black" stroke="black" points="79.51,-844.83 89.51,-841.33 79.51,-837.83 79.51,-844.83"/>
</g>
<!-- cites&#45;&gt;RFC1078 -->
<g id="edge22" class="edge">
<title>cites&#45;&gt;RFC1078</title>
<path fill="none" stroke="black" d="M518.91,-649.65C529.73,-709.04 563.82,-893 572.72,-902.33 582.11,-912.17 593.18,-920.16 605.17,-926.65"/>
<polygon fill="black" stroke="black" points="603.58,-929.77 614.09,-931.08 606.69,-923.5 603.58,-929.77"/>
</g>
<!-- cites&#45;&gt;RFC6013 -->
<g id="edge23" class="edge">
<title>cites&#45;&gt;RFC6013</title>
<path fill="none" stroke="black" d="M519.09,-649.73C525.28,-682.67 538.41,-753.91 547.72,-814.33 554.14,-855.98 544.72,-970.83 572.72,-1002.33 584.66,-1015.75 599.71,-1025.74 616.12,-1033.14"/>
<polygon fill="black" stroke="black" points="614.52,-1036.26 625.09,-1036.84 617.18,-1029.79 614.52,-1036.26"/>
</g>
<!-- cites&#45;&gt;RFC7414 -->
<g id="edge16" class="edge">
<title>cites&#45;&gt;RFC7414</title>
<path fill="none" stroke="black" d="M517.52,-649.72C521.78,-680.99 534.83,-744.6 572.72,-780.33 584.41,-791.35 598.1,-800.38 612.68,-807.79"/>
<polygon fill="black" stroke="black" points="611,-810.86 621.53,-812 614.01,-804.54 611,-810.86"/>
</g>
<!-- RFC2026 -->
<g id="node17" class="node">
<title>RFC2026</title>
<g id="a_node17"><a xlink:href="RFC2026.html" xlink:title="This memo documents the process used by the Internet community for the standardization of protocols and procedures. &#160;It defines the stages in the standardization process, the requirements for moving a document between stages and the types of documents used during this process. &#160;This document specifies an Internet Best Current Practices for the Internet Community, and requests discussion and suggestions for improvements." target="_top">
<ellipse fill="none" stroke="black" cx="765.94" cy="-520.33" rx="139.65" ry="52.33"/>
<text xml:space="preserve" text-anchor="middle" x="765.94" y="-540.03" font-family="Times,serif" font-size="14.00">RFC2026</text>
<text xml:space="preserve" text-anchor="middle" x="765.94" y="-523.53" font-family="Times,serif" font-size="14.00">The Internet Standards Process &#45;&#45;</text>
<text xml:space="preserve" text-anchor="middle" x="765.94" y="-507.03" font-family="Times,serif" font-size="14.00">Revision 3</text>
<text xml:space="preserve" text-anchor="middle" x="765.94" y="-490.53" font-family="Times,serif" font-size="14.00">1996</text>
</a>
</g>
</g>
<!-- cites&#45;&gt;RFC2026 -->
<g id="edge17" class="edge">
<title>cites&#45;&gt;RFC2026</title>
<path fill="none" stroke="black" d="M532.64,-613.02C543.3,-602.5 557.79,-589.74 572.72,-581.33 592.71,-570.06 615.06,-560.57 637.25,-552.68"/>
<polygon fill="black" stroke="black" points="638.37,-555.99 646.69,-549.42 636.09,-549.37 638.37,-555.99"/>
</g>
<!-- RFC1122 -->
<g id="node18" class="node">
<title>RFC1122</title>
<g id="a_node18"><a xlink:href="RFC1122.html" xlink:title="This RFC is an official specification for the Internet community. &#160;It incorporates by reference, amends, corrects, and supplements the primary protocol standards documents relating to hosts. [STANDARDS&#45;TRACK]" target="_top">
<ellipse fill="none" stroke="black" cx="765.94" cy="-397.33" rx="141.24" ry="52.33"/>
<text xml:space="preserve" text-anchor="middle" x="765.94" y="-417.03" font-family="Times,serif" font-size="14.00">RFC1122</text>
<text xml:space="preserve" text-anchor="middle" x="765.94" y="-400.53" font-family="Times,serif" font-size="14.00">Requirements for Internet Hosts &#45;</text>
<text xml:space="preserve" text-anchor="middle" x="765.94" y="-384.03" font-family="Times,serif" font-size="14.00">Communication Layers</text>
<text xml:space="preserve" text-anchor="middle" x="765.94" y="-367.53" font-family="Times,serif" font-size="14.00">1989</text>
</a>
</g>
</g>
<!-- cites&#45;&gt;RFC1122 -->
<g id="edge18" class="edge">
<title>cites&#45;&gt;RFC1122</title>
<path fill="none" stroke="black" d="M516.44,-612.97C519.03,-578.13 529.59,-502.08 572.72,-459.33 588.09,-444.08 607.23,-432.59 627.42,-423.92"/>
<polygon fill="black" stroke="black" points="628.69,-427.18 636.66,-420.2 626.08,-420.69 628.69,-427.18"/>
</g>
<!-- RFC5461 -->
<g id="node19" class="node">
<title>RFC5461</title>
<g id="a_node19"><a xlink:href="RFC5461.html" xlink:title="This document describes a non&#45;standard, but widely implemented, modification to TCP&#39;s handling of ICMP soft error messages that rejects pending connection&#45;requests when those error messages are received. &#160;This behavior reduces the likelihood of long delays between connection&#45;establishment attempts that may arise in a number of scenarios, including one in which dual&#45;stack nodes that have IPv6 enabled by default are deployed in IPv4 or mixed IPv4 and IPv6 environments. &#160;This memo provides information for the Internet community." target="_top">
<ellipse fill="none" stroke="black" cx="765.94" cy="-286.33" rx="125.87" ry="40.66"/>
<text xml:space="preserve" text-anchor="middle" x="765.94" y="-297.78" font-family="Times,serif" font-size="14.00">RFC5461</text>
<text xml:space="preserve" text-anchor="middle" x="765.94" y="-281.28" font-family="Times,serif" font-size="14.00">TCP&#39;s Reaction to Soft Errors</text>
<text xml:space="preserve" text-anchor="middle" x="765.94" y="-264.78" font-family="Times,serif" font-size="14.00">2009</text>
</a>
</g>
</g>
<!-- cites&#45;&gt;RFC5461 -->
<g id="edge19" class="edge">
<title>cites&#45;&gt;RFC5461</title>
<path fill="none" stroke="black" d="M516.64,-612.99C520.33,-554.99 534.61,-376.93 572.72,-336.33 588.92,-319.07 610.24,-307.48 632.79,-299.74"/>
<polygon fill="black" stroke="black" points="633.64,-303.14 642.13,-296.81 631.54,-296.47 633.64,-303.14"/>
</g>
<!-- RFC6691 -->
<g id="node20" class="node">
<title>RFC6691</title>
<g id="a_node20"><a xlink:href="RFC6691.html" xlink:title="This memo discusses what value to use with the TCP Maximum Segment Size (MSS) option, and updates RFC 879 and RFC 2385. &#160;This document is not an Internet Standards Track specification; it is published for informational purposes." target="_top">
<ellipse fill="none" stroke="black" cx="765.94" cy="-175.33" rx="177.31" ry="52.33"/>
<text xml:space="preserve" text-anchor="middle" x="765.94" y="-195.03" font-family="Times,serif" font-size="14.00">RFC6691</text>
<text xml:space="preserve" text-anchor="middle" x="765.94" y="-178.53" font-family="Times,serif" font-size="14.00">TCP Options and Maximum Segment Size</text>
<text xml:space="preserve" text-anchor="middle" x="765.94" y="-162.03" font-family="Times,serif" font-size="14.00">(MSS)</text>
<text xml:space="preserve" text-anchor="middle" x="765.94" y="-145.53" font-family="Times,serif" font-size="14.00">2012</text>
</a>
</g>
</g>
<!-- cites&#45;&gt;RFC6691 -->
<g id="edge20" class="edge">
<title>cites&#45;&gt;RFC6691</title>
<path fill="none" stroke="black" d="M515.75,-613.06C516.7,-543.25 523.52,-294.31 572.72,-236.33 582.11,-225.26 593.49,-216.18 605.98,-208.73"/>
<polygon fill="black" stroke="black" points="607.34,-211.98 614.4,-204.08 603.96,-205.85 607.34,-211.98"/>
</g>
<!-- RFC6633 -->
<g id="node21" class="node">
<title>RFC6633</title>
<g id="a_node21"><a xlink:href="RFC6633.html" xlink:title="This document formally deprecates the use of ICMP Source Quench messages by transport protocols, formally updating RFC 792, RFC 1122, and RFC 1812. [STANDARDS&#45;TRACK]" target="_top">
<ellipse fill="none" stroke="black" cx="765.94" cy="-52.33" rx="156.09" ry="52.33"/>
<text xml:space="preserve" text-anchor="middle" x="765.94" y="-72.03" font-family="Times,serif" font-size="14.00">RFC6633</text>
<text xml:space="preserve" text-anchor="middle" x="765.94" y="-55.53" font-family="Times,serif" font-size="14.00">Deprecation of ICMP Source Quench</text>
<text xml:space="preserve" text-anchor="middle" x="765.94" y="-39.03" font-family="Times,serif" font-size="14.00">Messages</text>
<text xml:space="preserve" text-anchor="middle" x="765.94" y="-22.53" font-family="Times,serif" font-size="14.00">2012</text>
</a>
</g>
</g>
<!-- cites&#45;&gt;RFC6633 -->
<g id="edge21" class="edge">
<title>cites&#45;&gt;RFC6633</title>
<path fill="none" stroke="black" d="M516.45,-613.03C520.68,-525.69 540.5,-153.81 572.72,-114.33 584.29,-100.15 599.12,-89.18 615.41,-80.69"/>
<polygon fill="black" stroke="black" points="616.87,-83.88 624.36,-76.38 613.84,-77.57 616.87,-83.88"/>
</g>
<!-- RFC7413 -->
<g id="node22" class="node">
<title>RFC7413</title>
<g id="a_node22"><a xlink:href="RFC7413.html" xlink:title="This document describes an experimental TCP mechanism called TCP Fast Open (TFO). &#160;TFO allows data to be carried in the SYN and SYN&#45;ACK packets and consumed by the receiving end during the initial connection handshake, and saves up to one full round&#45;trip time (RTT) compared to the standard TCP, which requires a three&#45;way handshake (3WHS) to complete before data can be exchanged. &#160;However, TFO deviates from the standard TCP semantics, since the data in the SYN could be replayed to an application in some rare circumstances. &#160;Applications should not use TFO unless they can tolerate this issue, as detailed in the Applicability section." target="_top">
<ellipse fill="none" stroke="black" cx="765.94" cy="-730.33" rx="70.18" ry="40.66"/>
<text xml:space="preserve" text-anchor="middle" x="765.94" y="-741.78" font-family="Times,serif" font-size="14.00">RFC7413</text>
<text xml:space="preserve" text-anchor="middle" x="765.94" y="-725.28" font-family="Times,serif" font-size="14.00">TCP Fast Open</text>
<text xml:space="preserve" text-anchor="middle" x="765.94" y="-708.78" font-family="Times,serif" font-size="14.00">2014</text>
</a>
</g>
</g>
<!-- cites&#45;&gt;RFC7413 -->
<g id="edge24" class="edge">
<title>cites&#45;&gt;RFC7413</title>
<path fill="none" stroke="black" d="M531.98,-649.45C542.62,-660.19 557.32,-673.23 572.72,-681.33 607.8,-699.78 650.19,-711.54 686.22,-718.91"/>
<polygon fill="black" stroke="black" points="685.22,-722.27 695.7,-720.76 686.56,-715.4 685.22,-722.27"/>
</g>
<!-- RFC1071 -->
<g id="node23" class="node">
<title>RFC1071</title>
<g id="a_node23"><a xlink:href="RFC1071.html" xlink:title="This RFC summarizes techniques and algorithms for efficiently computing the Internet checksum. &#160;It is not a standard, but a set of useful implementation techniques." target="_top">
<ellipse fill="none" stroke="black" cx="765.94" cy="-631.33" rx="142.84" ry="40.66"/>
<text xml:space="preserve" text-anchor="middle" x="765.94" y="-642.78" font-family="Times,serif" font-size="14.00">RFC1071</text>
<text xml:space="preserve" text-anchor="middle" x="765.94" y="-626.28" font-family="Times,serif" font-size="14.00">Computing the Internet checksum</text>
<text xml:space="preserve" text-anchor="middle" x="765.94" y="-609.78" font-family="Times,serif" font-size="14.00">1988</text>
</a>
</g>
</g>
<!-- cites&#45;&gt;RFC1071 -->
<g id="edge25" class="edge">
<title>cites&#45;&gt;RFC1071</title>
<path fill="none" stroke="black" d="M541.81,-631.33C559.56,-631.33 584.61,-631.33 611.56,-631.33"/>
<polygon fill="black" stroke="black" points="611.28,-634.83 621.28,-631.33 611.28,-627.83 611.28,-634.83"/>
</g>
<!-- rev_cites -->
<g id="node24" class="node">
<title>rev_cites</title>
<polygon fill="lightblue" stroke="black" points="60.12,-805.33 6.12,-805.33 6.12,-769.33 60.12,-769.33 60.12,-805.33"/>
<text xml:space="preserve" text-anchor="middle" x="33.12" y="-782.28" font-family="Times,serif" font-size="14.00">cites</text>
</g>
<!-- rev_cites&#45;&gt;RFC7805 -->
<g id="edge26" class="edge">
<title>rev_cites&#45;&gt;RFC7805</title>
<path fill="none" stroke="black" d="M60.59,-793.31C73.53,-796.24 90.28,-800.03 108.69,-804.19"/>
<polygon fill="black" stroke="black" points="107.71,-807.56 118.23,-806.35 109.25,-800.73 107.71,-807.56"/>
</g>
</g>
</svg>
