<?xml version="1.0" encoding="UTF-8" standalone="no"?>
<!DOCTYPE svg PUBLIC "-//W3C//DTD SVG 1.1//EN"
 "http://www.w3.org/Graphics/SVG/1.1/DTD/svg11.dtd">
<!-- Generated by graphviz version 14.1.1 (20251213.1925)
 -->
<!-- Title: Flow Pages: 1 -->
<svg width="781pt" height="860pt"
 viewBox="0.00 0.00 781.00 860.00" xmlns="http://www.w3.org/2000/svg" xmlns:xlink="http://www.w3.org/1999/xlink">
<g id="graph0" class="graph" transform="scale(1 1) rotate(0) translate(4 856.09)">
<title>Flow</title>
<polygon fill="white" stroke="none" points="-4,4 -4,-856.09 777.01,-856.09 777.01,4 -4,4"/>
<!-- RFC8103 -->
<g id="node1" class="node">
<title>RFC8103</title>
<g id="a_node1"><a xlink:title="This document describes the conventions for using ChaCha20&#45;Poly1305 Authenticated Encryption in the Cryptographic Message Syntax (CMS). &#160;ChaCha20&#45;Poly1305 is an authenticated encryption algorithm constructed of the ChaCha stream cipher and Poly1305 authenticator.">
<ellipse fill="green" stroke="black" stroke-width="3" cx="386.5" cy="-426.05" rx="227.16" ry="79.9"/>
<text xml:space="preserve" text-anchor="middle" x="386.5" y="-461.45" font-family="Times,serif" font-size="18.00">RFC8103</text>
<text xml:space="preserve" text-anchor="middle" x="386.5" y="-440.45" font-family="Times,serif" font-size="18.00">Using ChaCha20&#45;Poly1305 Authenticated</text>
<text xml:space="preserve" text-anchor="middle" x="386.5" y="-419.45" font-family="Times,serif" font-size="18.00">Encryption in the Cryptographic Message</text>
<text xml:space="preserve" text-anchor="middle" x="386.5" y="-398.45" font-family="Times,serif" font-size="18.00">Syntax (CMS)</text>
<text xml:space="preserve" text-anchor="middle" x="386.5" y="-377.45" font-family="Times,serif" font-size="18.00">2017</text>
</a>
</g>
</g>
<!-- obs -->
<g id="node3" class="node">
<title>obs</title>
<polygon fill="lightblue" stroke="black" points="773.01,-648.07 706.76,-648.07 706.76,-612.07 773.01,-612.07 773.01,-648.07"/>
<text xml:space="preserve" text-anchor="middle" x="739.88" y="-625.02" font-family="Times,serif" font-size="14.00">obsoletes</text>
</g>
<!-- RFC8103&#45;&gt;obs -->
<g id="edge2" class="edge">
<title>RFC8103&#45;&gt;obs</title>
<path fill="none" stroke="black" d="M506.14,-495.12C572.55,-533.46 651,-578.75 698.03,-605.91"/>
<polygon fill="black" stroke="black" points="696.14,-608.85 706.55,-610.82 699.64,-602.79 696.14,-608.85"/>
</g>
<!-- updates -->
<g id="node4" class="node">
<title>updates</title>
<polygon fill="lightyellow" stroke="black" points="415.13,-852.09 357.88,-852.09 357.88,-816.09 415.13,-816.09 415.13,-852.09"/>
<text xml:space="preserve" text-anchor="middle" x="386.5" y="-829.04" font-family="Times,serif" font-size="14.00">updates</text>
</g>
<!-- RFC8103&#45;&gt;updates -->
<g id="edge3" class="edge">
<title>RFC8103&#45;&gt;updates</title>
<path fill="none" stroke="black" d="M386.5,-507.15C386.5,-598.66 386.5,-742.78 386.5,-804.47"/>
<polygon fill="black" stroke="black" points="383,-804.16 386.5,-814.16 390,-804.16 383,-804.16"/>
</g>
<!-- cites -->
<g id="node6" class="node">
<title>cites</title>
<polygon fill="lightblue" stroke="black" points="60.13,-648.07 6.13,-648.07 6.13,-612.07 60.13,-612.07 60.13,-648.07"/>
<text xml:space="preserve" text-anchor="middle" x="33.13" y="-625.02" font-family="Times,serif" font-size="14.00">cites</text>
</g>
<!-- RFC8103&#45;&gt;cites -->
<g id="edge5" class="edge">
<title>RFC8103&#45;&gt;cites</title>
<path fill="none" stroke="black" d="M266.87,-495.12C198.18,-534.78 116.6,-581.87 70.24,-608.64"/>
<polygon fill="black" stroke="black" points="68.57,-605.56 61.66,-613.59 72.07,-611.62 68.57,-605.56"/>
</g>
<!-- obs_by -->
<g id="node2" class="node">
<title>obs_by</title>
<polygon fill="lightblue" stroke="black" points="66.25,-240.02 0,-240.02 0,-204.02 66.25,-204.02 66.25,-240.02"/>
<text xml:space="preserve" text-anchor="middle" x="33.13" y="-216.97" font-family="Times,serif" font-size="14.00">obsoletes</text>
</g>
<!-- obs_by&#45;&gt;RFC8103 -->
<g id="edge1" class="edge">
<title>obs_by&#45;&gt;RFC8103</title>
<path fill="none" stroke="black" d="M65.11,-240.49C108.27,-265.41 187.73,-311.28 256.84,-351.18"/>
<polygon fill="black" stroke="black" points="254.79,-354.04 265.2,-356.01 258.29,-347.98 254.79,-354.04"/>
</g>
<!-- updated_by -->
<g id="node5" class="node">
<title>updated_by</title>
<polygon fill="lightyellow" stroke="black" points="415.13,-36 357.88,-36 357.88,0 415.13,0 415.13,-36"/>
<text xml:space="preserve" text-anchor="middle" x="386.5" y="-12.95" font-family="Times,serif" font-size="14.00">updates</text>
</g>
<!-- updated_by&#45;&gt;RFC8103 -->
<g id="edge4" class="edge">
<title>updated_by&#45;&gt;RFC8103</title>
<path fill="none" stroke="black" d="M386.5,-36.33C386.5,-87.64 386.5,-235.41 386.5,-333.52"/>
<polygon fill="black" stroke="black" points="383,-333.42 386.5,-343.42 390,-333.42 383,-333.42"/>
</g>
<!-- rev_cites -->
<g id="node7" class="node">
<title>rev_cites</title>
<polygon fill="lightblue" stroke="black" points="766.88,-240.02 712.88,-240.02 712.88,-204.02 766.88,-204.02 766.88,-240.02"/>
<text xml:space="preserve" text-anchor="middle" x="739.88" y="-216.97" font-family="Times,serif" font-size="14.00">cites</text>
</g>
<!-- rev_cites&#45;&gt;RFC8103 -->
<g id="edge6" class="edge">
<title>rev_cites&#45;&gt;RFC8103</title>
<path fill="none" stroke="black" d="M712.45,-237.86C670.46,-262.1 587.61,-309.94 515.95,-351.31"/>
<polygon fill="black" stroke="black" points="514.59,-348.05 507.68,-356.09 518.09,-354.12 514.59,-348.05"/>
</g>
</g>
</svg>
