<?xml version="1.0" encoding="UTF-8" standalone="no"?>
<!DOCTYPE svg PUBLIC "-//W3C//DTD SVG 1.1//EN"
 "http://www.w3.org/Graphics/SVG/1.1/DTD/svg11.dtd">
<!-- Generated by graphviz version 14.1.1 (20251213.1925)
 -->
<!-- Title: Flow Pages: 1 -->
<svg width="1167pt" height="827pt"
 viewBox="0.00 0.00 1167.00 827.00" xmlns="http://www.w3.org/2000/svg" xmlns:xlink="http://www.w3.org/1999/xlink">
<g id="graph0" class="graph" transform="scale(1 1) rotate(0) translate(4 822.53)">
<title>Flow</title>
<polygon fill="white" stroke="none" points="-4,4 -4,-822.53 1163.35,-822.53 1163.35,4 -4,4"/>
<!-- RFC8769 -->
<g id="node1" class="node">
<title>RFC8769</title>
<g id="a_node1"><a xlink:title="Concise Binary Object Representation (CBOR) is becoming a widely used method of doing content encoding. &#160;The Cryptographic Message Syntax (CMS) is still a widely used method of doing message&#45;based security. &#160;This document defines a set of content types for CMS that hold CBOR content.">
<ellipse fill="green" stroke="black" stroke-width="3" cx="797.19" cy="-397.93" rx="223.98" ry="79.9"/>
<text xml:space="preserve" text-anchor="middle" x="797.19" y="-433.33" font-family="Times,serif" font-size="18.00">RFC8769</text>
<text xml:space="preserve" text-anchor="middle" x="797.19" y="-412.33" font-family="Times,serif" font-size="18.00">Cryptographic Message Syntax (CMS)</text>
<text xml:space="preserve" text-anchor="middle" x="797.19" y="-391.33" font-family="Times,serif" font-size="18.00">Content Types for Concise Binary Object</text>
<text xml:space="preserve" text-anchor="middle" x="797.19" y="-370.33" font-family="Times,serif" font-size="18.00">Representation (CBOR)</text>
<text xml:space="preserve" text-anchor="middle" x="797.19" y="-349.33" font-family="Times,serif" font-size="18.00">2020</text>
</a>
</g>
</g>
<!-- obs -->
<g id="node3" class="node">
<title>obs</title>
<polygon fill="lightblue" stroke="black" points="1159.35,-605.9 1093.1,-605.9 1093.1,-569.9 1159.35,-569.9 1159.35,-605.9"/>
<text xml:space="preserve" text-anchor="middle" x="1126.22" y="-582.85" font-family="Times,serif" font-size="14.00">obsoletes</text>
</g>
<!-- RFC8769&#45;&gt;obs -->
<g id="edge2" class="edge">
<title>RFC8769&#45;&gt;obs</title>
<path fill="none" stroke="black" d="M916.44,-466.79C975.23,-500.73 1042.38,-539.49 1084.53,-563.83"/>
<polygon fill="black" stroke="black" points="1082.71,-566.82 1093.12,-568.79 1086.21,-560.76 1082.71,-566.82"/>
</g>
<!-- updates -->
<g id="node4" class="node">
<title>updates</title>
<polygon fill="lightyellow" stroke="black" points="825.81,-795.87 768.56,-795.87 768.56,-759.87 825.81,-759.87 825.81,-795.87"/>
<text xml:space="preserve" text-anchor="middle" x="797.19" y="-772.82" font-family="Times,serif" font-size="14.00">updates</text>
</g>
<!-- RFC8769&#45;&gt;updates -->
<g id="edge3" class="edge">
<title>RFC8769&#45;&gt;updates</title>
<path fill="none" stroke="black" d="M797.19,-478.97C797.19,-563.23 797.19,-690.68 797.19,-748.04"/>
<polygon fill="black" stroke="black" points="793.69,-747.97 797.19,-757.98 800.69,-747.98 793.69,-747.97"/>
</g>
<!-- cites -->
<g id="node6" class="node">
<title>cites</title>
<polygon fill="lightblue" stroke="black" points="495.16,-605.9 441.16,-605.9 441.16,-569.9 495.16,-569.9 495.16,-605.9"/>
<text xml:space="preserve" text-anchor="middle" x="468.16" y="-582.85" font-family="Times,serif" font-size="14.00">cites</text>
</g>
<!-- RFC8769&#45;&gt;cites -->
<g id="edge5" class="edge">
<title>RFC8769&#45;&gt;cites</title>
<path fill="none" stroke="black" d="M677.94,-466.79C616.94,-502 546.94,-542.41 505.2,-566.51"/>
<polygon fill="black" stroke="black" points="503.69,-563.34 496.78,-571.37 507.19,-569.41 503.69,-563.34"/>
</g>
<!-- obs_by -->
<g id="node2" class="node">
<title>obs_by</title>
<polygon fill="lightblue" stroke="black" points="501.28,-225.97 435.03,-225.97 435.03,-189.97 501.28,-189.97 501.28,-225.97"/>
<text xml:space="preserve" text-anchor="middle" x="468.16" y="-202.92" font-family="Times,serif" font-size="14.00">obsoletes</text>
</g>
<!-- obs_by&#45;&gt;RFC8769 -->
<g id="edge1" class="edge">
<title>obs_by&#45;&gt;RFC8769</title>
<path fill="none" stroke="black" d="M500,-226.35C538.81,-248.76 606.78,-288 667.93,-323.31"/>
<polygon fill="black" stroke="black" points="665.96,-326.21 676.37,-328.18 669.46,-320.15 665.96,-326.21"/>
</g>
<!-- updated_by -->
<g id="node5" class="node">
<title>updated_by</title>
<polygon fill="lightyellow" stroke="black" points="825.81,-36 768.56,-36 768.56,0 825.81,0 825.81,-36"/>
<text xml:space="preserve" text-anchor="middle" x="797.19" y="-12.95" font-family="Times,serif" font-size="14.00">updates</text>
</g>
<!-- updated_by&#45;&gt;RFC8769 -->
<g id="edge4" class="edge">
<title>updated_by&#45;&gt;RFC8769</title>
<path fill="none" stroke="black" d="M797.19,-36.33C797.19,-84.09 797.19,-214.95 797.19,-305.4"/>
<polygon fill="black" stroke="black" points="793.69,-305.27 797.19,-315.27 800.69,-305.27 793.69,-305.27"/>
</g>
<!-- RFC7193 -->
<g id="node7" class="node">
<title>RFC7193</title>
<g id="a_node7"><a xlink:href="RFC7193.html" xlink:title="This document registers the application/cms media type for use with the corresponding CMS (Cryptographic Message Syntax) content types." target="_top">
<ellipse fill="none" stroke="black" cx="139.12" cy="-777.87" rx="139.12" ry="40.66"/>
<text xml:space="preserve" text-anchor="middle" x="139.12" y="-789.32" font-family="Times,serif" font-size="14.00">RFC7193</text>
<text xml:space="preserve" text-anchor="middle" x="139.12" y="-772.82" font-family="Times,serif" font-size="14.00">The application/cms Media Type</text>
<text xml:space="preserve" text-anchor="middle" x="139.12" y="-756.32" font-family="Times,serif" font-size="14.00">2014</text>
</a>
</g>
</g>
<!-- cites&#45;&gt;RFC7193 -->
<g id="edge6" class="edge">
<title>cites&#45;&gt;RFC7193</title>
<path fill="none" stroke="black" d="M440.67,-603.77C390.96,-632.47 284.58,-693.89 212.43,-735.55"/>
<polygon fill="black" stroke="black" points="210.7,-732.5 203.79,-740.53 214.2,-738.56 210.7,-732.5"/>
</g>
<!-- rev_cites -->
<g id="node8" class="node">
<title>rev_cites</title>
<polygon fill="lightblue" stroke="black" points="1153.22,-225.97 1099.22,-225.97 1099.22,-189.97 1153.22,-189.97 1153.22,-225.97"/>
<text xml:space="preserve" text-anchor="middle" x="1126.22" y="-202.92" font-family="Times,serif" font-size="14.00">cites</text>
</g>
<!-- rev_cites&#45;&gt;RFC8769 -->
<g id="edge7" class="edge">
<title>rev_cites&#45;&gt;RFC8769</title>
<path fill="none" stroke="black" d="M1098.74,-223.84C1060.76,-245.76 989.71,-286.78 926.12,-323.5"/>
<polygon fill="black" stroke="black" points="924.61,-320.33 917.7,-328.36 928.11,-326.39 924.61,-320.33"/>
</g>
</g>
</svg>
