<?xml version="1.0" encoding="UTF-8" standalone="no"?>
<!DOCTYPE svg PUBLIC "-//W3C//DTD SVG 1.1//EN"
 "http://www.w3.org/Graphics/SVG/1.1/DTD/svg11.dtd">
<!-- Generated by graphviz version 14.1.1 (20251213.1925)
 -->
<!-- Title: Flow Pages: 1 -->
<svg width="971pt" height="790pt"
 viewBox="0.00 0.00 971.00 790.00" xmlns="http://www.w3.org/2000/svg" xmlns:xlink="http://www.w3.org/1999/xlink">
<g id="graph0" class="graph" transform="scale(1 1) rotate(0) translate(4 785.52)">
<title>Flow</title>
<polygon fill="white" stroke="none" points="-4,4 -4,-785.52 966.85,-785.52 966.85,4 -4,4"/>
<!-- RFC8581 -->
<g id="node1" class="node">
<title>RFC8581</title>
<g id="a_node1"><a xlink:title="This specification documents an extension to the Diameter Overload Indication Conveyance (DOIC), a base solution for Diameter overload defined in RFC 7683. &#160;The extension defines the Peer Overload report type. &#160;The initial use case for the peer report is the handling of occurrences of overload of a Diameter Agent.">
<ellipse fill="none" stroke="black" cx="252.65" cy="-414.86" rx="161.4" ry="52.33"/>
<text xml:space="preserve" text-anchor="middle" x="252.65" y="-434.56" font-family="Times,serif" font-size="14.00">RFC8581</text>
<text xml:space="preserve" text-anchor="middle" x="252.65" y="-418.06" font-family="Times,serif" font-size="14.00">Diameter Agent Overload and the Peer</text>
<text xml:space="preserve" text-anchor="middle" x="252.65" y="-401.56" font-family="Times,serif" font-size="14.00">Overload Report</text>
<text xml:space="preserve" text-anchor="middle" x="252.65" y="-385.06" font-family="Times,serif" font-size="14.00">2019</text>
</a>
</g>
</g>
<!-- obs -->
<g id="node3" class="node">
<title>obs</title>
<polygon fill="none" stroke="black" points="505.29,-513.86 439.04,-513.86 439.04,-477.86 505.29,-477.86 505.29,-513.86"/>
<text xml:space="preserve" text-anchor="middle" x="472.17" y="-490.81" font-family="Times,serif" font-size="14.00">obsoletes</text>
</g>
<!-- RFC8581&#45;&gt;obs -->
<g id="edge2" class="edge">
<title>RFC8581&#45;&gt;obs</title>
<path fill="none" stroke="black" d="M359.86,-454.42C383.95,-463.39 408.21,-472.42 427.9,-479.75"/>
<polygon fill="black" stroke="black" points="426.63,-483.01 437.22,-483.22 429.07,-476.45 426.63,-483.01"/>
</g>
<!-- updates -->
<g id="node4" class="node">
<title>updates</title>
<polygon fill="none" stroke="black" points="500.79,-459.86 443.54,-459.86 443.54,-423.86 500.79,-423.86 500.79,-459.86"/>
<text xml:space="preserve" text-anchor="middle" x="472.17" y="-436.81" font-family="Times,serif" font-size="14.00">updates</text>
</g>
<!-- RFC8581&#45;&gt;updates -->
<g id="edge3" class="edge">
<title>RFC8581&#45;&gt;updates</title>
<path fill="none" stroke="black" d="M403.83,-433.51C413.9,-434.76 423.41,-435.94 431.94,-437"/>
<polygon fill="black" stroke="black" points="431.44,-440.46 441.79,-438.22 432.3,-433.51 431.44,-440.46"/>
</g>
<!-- cites -->
<g id="node7" class="node">
<title>cites</title>
<polygon fill="none" stroke="black" points="499.17,-405.86 445.17,-405.86 445.17,-369.86 499.17,-369.86 499.17,-405.86"/>
<text xml:space="preserve" text-anchor="middle" x="472.17" y="-382.81" font-family="Times,serif" font-size="14.00">cites</text>
</g>
<!-- RFC8581&#45;&gt;cites -->
<g id="edge6" class="edge">
<title>RFC8581&#45;&gt;cites</title>
<path fill="none" stroke="black" d="M403.83,-396.22C414.52,-394.9 424.58,-393.65 433.5,-392.54"/>
<polygon fill="black" stroke="black" points="433.92,-396.02 443.41,-391.31 433.06,-389.07 433.92,-396.02"/>
</g>
<!-- obs_by -->
<g id="node2" class="node">
<title>obs_by</title>
<polygon fill="none" stroke="black" points="66.25,-459.86 0,-459.86 0,-423.86 66.25,-423.86 66.25,-459.86"/>
<text xml:space="preserve" text-anchor="middle" x="33.12" y="-436.81" font-family="Times,serif" font-size="14.00">obsoletes</text>
</g>
<!-- obs_by&#45;&gt;RFC8581 -->
<g id="edge1" class="edge">
<title>obs_by&#45;&gt;RFC8581</title>
<path fill="none" stroke="black" d="M66.69,-437.82C73.69,-436.95 81.55,-435.98 89.96,-434.93"/>
<polygon fill="black" stroke="black" points="90.32,-438.42 99.81,-433.71 89.45,-431.47 90.32,-438.42"/>
</g>
<!-- RFC7683 -->
<g id="node5" class="node">
<title>RFC7683</title>
<g id="a_node5"><a xlink:href="RFC7683.html" xlink:title="This specification defines a base solution for Diameter overload control, referred to as Diameter Overload Indication Conveyance (DOIC)." target="_top">
<ellipse fill="none" stroke="black" cx="707.07" cy="-641.86" rx="176.78" ry="40.66"/>
<text xml:space="preserve" text-anchor="middle" x="707.07" y="-653.31" font-family="Times,serif" font-size="14.00">RFC7683</text>
<text xml:space="preserve" text-anchor="middle" x="707.07" y="-636.81" font-family="Times,serif" font-size="14.00">Diameter Overload Indication Conveyance</text>
<text xml:space="preserve" text-anchor="middle" x="707.07" y="-620.31" font-family="Times,serif" font-size="14.00">2015</text>
</a>
</g>
</g>
<!-- updates&#45;&gt;RFC7683 -->
<g id="edge4" class="edge">
<title>updates&#45;&gt;RFC7683</title>
<path fill="none" stroke="black" d="M498.49,-460.09C501.08,-462.79 503.44,-465.73 505.29,-468.86 533.98,-517.22 492.02,-551.69 530.29,-592.86 537.19,-600.28 545.1,-606.61 553.68,-612.01"/>
<polygon fill="black" stroke="black" points="551.89,-615.02 562.3,-616.96 555.37,-608.95 551.89,-615.02"/>
</g>
<!-- updated_by -->
<g id="node6" class="node">
<title>updated_by</title>
<polygon fill="none" stroke="black" points="61.75,-405.86 4.5,-405.86 4.5,-369.86 61.75,-369.86 61.75,-405.86"/>
<text xml:space="preserve" text-anchor="middle" x="33.12" y="-382.81" font-family="Times,serif" font-size="14.00">updates</text>
</g>
<!-- updated_by&#45;&gt;RFC8581 -->
<g id="edge5" class="edge">
<title>updated_by&#45;&gt;RFC8581</title>
<path fill="none" stroke="black" d="M62.12,-391.34C70.29,-392.35 79.86,-393.54 90.28,-394.84"/>
<polygon fill="black" stroke="black" points="89.57,-398.27 99.92,-396.03 90.43,-391.33 89.57,-398.27"/>
</g>
<!-- cites&#45;&gt;RFC7683 -->
<g id="edge7" class="edge">
<title>cites&#45;&gt;RFC7683</title>
<path fill="none" stroke="black" d="M498.97,-406.31C501.41,-408.94 503.6,-411.81 505.29,-414.86 543.99,-484.75 477.66,-532.76 530.29,-592.86 536.89,-600.4 544.54,-606.82 552.88,-612.28"/>
<polygon fill="black" stroke="black" points="550.88,-615.17 561.26,-617.28 554.47,-609.16 550.88,-615.17"/>
</g>
<!-- RFC6733 -->
<g id="node8" class="node">
<title>RFC6733</title>
<g id="a_node8"><a xlink:href="RFC6733.html" xlink:title="The Diameter base protocol is intended to provide an Authentication, Authorization, and Accounting (AAA) framework for applications such as network access or IP mobility in both local and roaming situations. &#160;This document specifies the message format, transport, error reporting, accounting, and security services used by all Diameter applications. &#160;The Diameter base protocol as defined in this document obsoletes RFC 3588 and RFC 5719, and it must be supported by all new Diameter implementations. [STANDARDS&#45;TRACK]" target="_top">
<ellipse fill="none" stroke="black" cx="707.07" cy="-542.86" rx="103.59" ry="40.66"/>
<text xml:space="preserve" text-anchor="middle" x="707.07" y="-554.31" font-family="Times,serif" font-size="14.00">RFC6733</text>
<text xml:space="preserve" text-anchor="middle" x="707.07" y="-537.81" font-family="Times,serif" font-size="14.00">Diameter Base Protocol</text>
<text xml:space="preserve" text-anchor="middle" x="707.07" y="-521.31" font-family="Times,serif" font-size="14.00">2012</text>
</a>
</g>
</g>
<!-- cites&#45;&gt;RFC6733 -->
<g id="edge8" class="edge">
<title>cites&#45;&gt;RFC6733</title>
<path fill="none" stroke="black" d="M498.16,-406.29C500.81,-408.96 503.27,-411.84 505.29,-414.86 525.76,-445.48 503.81,-468.28 530.29,-493.86 548.18,-511.14 571.61,-522.43 595.52,-529.77"/>
<polygon fill="black" stroke="black" points="594.49,-533.12 605.06,-532.47 596.39,-526.38 594.49,-533.12"/>
</g>
<!-- RFC7068 -->
<g id="node9" class="node">
<title>RFC7068</title>
<g id="a_node9"><a xlink:href="RFC7068.html" xlink:title="When a Diameter server or agent becomes overloaded, it needs to be able to gracefully reduce its load, typically by advising clients to reduce traffic for some period of time. &#160;Otherwise, it must continue to expend resources parsing and responding to Diameter messages, possibly resulting in a progressively severe overload condition. &#160;The existing Diameter mechanisms are not sufficient for managing overload conditions. &#160;This document describes the limitations of the existing mechanisms. &#160;Requirements for new overload management mechanisms are also provided." target="_top">
<ellipse fill="none" stroke="black" cx="707.07" cy="-443.86" rx="173.59" ry="40.66"/>
<text xml:space="preserve" text-anchor="middle" x="707.07" y="-455.31" font-family="Times,serif" font-size="14.00">RFC7068</text>
<text xml:space="preserve" text-anchor="middle" x="707.07" y="-438.81" font-family="Times,serif" font-size="14.00">Diameter Overload Control Requirements</text>
<text xml:space="preserve" text-anchor="middle" x="707.07" y="-422.31" font-family="Times,serif" font-size="14.00">2013</text>
</a>
</g>
</g>
<!-- cites&#45;&gt;RFC7068 -->
<g id="edge9" class="edge">
<title>cites&#45;&gt;RFC7068</title>
<path fill="none" stroke="black" d="M499.43,-394.18C518.32,-398.72 545.35,-405.22 573.67,-412.03"/>
<polygon fill="black" stroke="black" points="572.55,-415.36 583.1,-414.3 574.19,-408.55 572.55,-415.36"/>
</g>
<!-- RFC2119 -->
<g id="node10" class="node">
<title>RFC2119</title>
<g id="a_node10"><a xlink:href="RFC2119.html" xlink:title="In many standards track documents several words are used to signify the requirements in the specification. &#160;These words are often capitalized. &#160;This document defines these words as they should be interpreted in IETF documents. &#160;This document specifies an Internet Best Current Practices for the Internet Community, and requests discussion and suggestions for improvements." target="_top">
<ellipse fill="none" stroke="black" cx="707.07" cy="-332.86" rx="160.34" ry="52.33"/>
<text xml:space="preserve" text-anchor="middle" x="707.07" y="-352.56" font-family="Times,serif" font-size="14.00">RFC2119</text>
<text xml:space="preserve" text-anchor="middle" x="707.07" y="-336.06" font-family="Times,serif" font-size="14.00">Key words for use in RFCs to Indicate</text>
<text xml:space="preserve" text-anchor="middle" x="707.07" y="-319.56" font-family="Times,serif" font-size="14.00">Requirement Levels</text>
<text xml:space="preserve" text-anchor="middle" x="707.07" y="-303.06" font-family="Times,serif" font-size="14.00">1997</text>
</a>
</g>
</g>
<!-- cites&#45;&gt;RFC2119 -->
<g id="edge10" class="edge">
<title>cites&#45;&gt;RFC2119</title>
<path fill="none" stroke="black" d="M499.43,-381.66C516.45,-377.64 540.09,-372.06 565.33,-366.1"/>
<polygon fill="black" stroke="black" points="565.82,-369.58 574.75,-363.88 564.22,-362.77 565.82,-369.58"/>
</g>
<!-- RFC8174 -->
<g id="node11" class="node">
<title>RFC8174</title>
<g id="a_node11"><a xlink:href="RFC8174.html" xlink:title="RFC 2119 specifies common key words that may be used in protocol specifications. &#160;This document aims to reduce the ambiguity by clarifying that only UPPERCASE usage of the key words have the defined special meanings." target="_top">
<ellipse fill="none" stroke="black" cx="707.07" cy="-209.86" rx="172" ry="52.33"/>
<text xml:space="preserve" text-anchor="middle" x="707.07" y="-229.56" font-family="Times,serif" font-size="14.00">RFC8174</text>
<text xml:space="preserve" text-anchor="middle" x="707.07" y="-213.06" font-family="Times,serif" font-size="14.00">Ambiguity of Uppercase vs Lowercase in</text>
<text xml:space="preserve" text-anchor="middle" x="707.07" y="-196.56" font-family="Times,serif" font-size="14.00">RFC 2119 Key Words</text>
<text xml:space="preserve" text-anchor="middle" x="707.07" y="-180.06" font-family="Times,serif" font-size="14.00">2017</text>
</a>
</g>
</g>
<!-- cites&#45;&gt;RFC8174 -->
<g id="edge11" class="edge">
<title>cites&#45;&gt;RFC8174</title>
<path fill="none" stroke="black" d="M477.53,-369.51C484.47,-344.11 500.42,-298.4 530.29,-271.86 540.51,-262.79 552.13,-255.03 564.43,-248.39"/>
<polygon fill="black" stroke="black" points="565.75,-251.64 573.07,-243.98 562.57,-245.41 565.75,-251.64"/>
</g>
<!-- RFC8582 -->
<g id="node12" class="node">
<title>RFC8582</title>
<g id="a_node12"><a xlink:href="RFC8582.html" xlink:title="This specification documents an extension to the Diameter Overload Indication Conveyance (DOIC) base solution, which is defined in RFC 7683. &#160;This extension adds a new overload&#45;control abatement algorithm. &#160;This abatement algorithm allows for a DOIC reporting node to specify a maximum rate at which a DOIC reacting node sends Diameter requests to the DOIC reporting node." target="_top">
<ellipse fill="none" stroke="black" cx="707.07" cy="-98.86" rx="137.53" ry="40.66"/>
<text xml:space="preserve" text-anchor="middle" x="707.07" y="-110.31" font-family="Times,serif" font-size="14.00">RFC8582</text>
<text xml:space="preserve" text-anchor="middle" x="707.07" y="-93.81" font-family="Times,serif" font-size="14.00">Diameter Overload Rate Control</text>
<text xml:space="preserve" text-anchor="middle" x="707.07" y="-77.31" font-family="Times,serif" font-size="14.00">2019</text>
</a>
</g>
</g>
<!-- cites&#45;&gt;RFC8582 -->
<g id="edge12" class="edge">
<title>cites&#45;&gt;RFC8582</title>
<path fill="none" stroke="black" d="M475.16,-369.55C480.98,-319.32 499.52,-180.97 530.29,-148.86 541.91,-136.74 556.23,-127.5 571.65,-120.46"/>
<polygon fill="black" stroke="black" points="572.66,-123.83 580.52,-116.73 569.95,-117.38 572.66,-123.83"/>
</g>
<!-- rev_cites -->
<g id="node13" class="node">
<title>rev_cites</title>
<polygon fill="none" stroke="black" points="962.85,-116.86 908.85,-116.86 908.85,-80.86 962.85,-80.86 962.85,-116.86"/>
<text xml:space="preserve" text-anchor="middle" x="935.85" y="-93.81" font-family="Times,serif" font-size="14.00">cites</text>
</g>
<!-- RFC8582&#45;&gt;rev_cites -->
<g id="edge14" class="edge">
<title>RFC8582&#45;&gt;rev_cites</title>
<path fill="none" stroke="black" d="M844.89,-98.86C864.08,-98.86 882.34,-98.86 897.33,-98.86"/>
<polygon fill="black" stroke="black" points="897.09,-102.36 907.09,-98.86 897.09,-95.36 897.09,-102.36"/>
</g>
<!-- rev_cites&#45;&gt;RFC8581 -->
<g id="edge13" class="edge">
<title>rev_cites&#45;&gt;RFC8581</title>
<path fill="none" stroke="black" d="M922.03,-80.41C912.88,-68.95 899.46,-55.24 883.85,-48.86 738.38,10.55 670.97,21.14 530.29,-48.86 402.97,-112.23 318.68,-265.25 279.33,-352.04"/>
<polygon fill="black" stroke="black" points="276.14,-350.6 275.26,-361.16 282.53,-353.45 276.14,-350.6"/>
</g>
<!-- RFC8583 -->
<g id="node14" class="node">
<title>RFC8583</title>
<g id="a_node14"><a xlink:href="RFC8583.html" xlink:title="RFC 7068 describes requirements for Overload Control in Diameter. &#160;This includes a requirement to allow Diameter nodes to send load information, even when the node is not overloaded. &#160;The base solution defined in RFC 7683 (Diameter Overload Information Conveyance (DOIC)) describes a mechanism meeting most of the requirements but does not currently include the ability to send load information. &#160;This document defines a mechanism for the conveying of Diameter load information." target="_top">
<ellipse fill="none" stroke="black" cx="707.07" cy="-740.86" rx="168.29" ry="40.66"/>
<text xml:space="preserve" text-anchor="middle" x="707.07" y="-752.31" font-family="Times,serif" font-size="14.00">RFC8583</text>
<text xml:space="preserve" text-anchor="middle" x="707.07" y="-735.81" font-family="Times,serif" font-size="14.00">Diameter Load Information Conveyance</text>
<text xml:space="preserve" text-anchor="middle" x="707.07" y="-719.31" font-family="Times,serif" font-size="14.00">2019</text>
</a>
</g>
</g>
<!-- RFC8583&#45;&gt;rev_cites -->
<g id="edge15" class="edge">
<title>RFC8583&#45;&gt;rev_cites</title>
<path fill="none" stroke="black" d="M849.66,-718.91C862.66,-712.04 874.44,-703.2 883.85,-691.86 920.08,-648.17 931.69,-242.56 934.25,-128.55"/>
<polygon fill="black" stroke="black" points="937.74,-128.87 934.46,-118.79 930.74,-128.72 937.74,-128.87"/>
</g>
</g>
</svg>
