<?xml version="1.0" encoding="UTF-8" standalone="no"?>
<!DOCTYPE svg PUBLIC "-//W3C//DTD SVG 1.1//EN"
 "http://www.w3.org/Graphics/SVG/1.1/DTD/svg11.dtd">
<!-- Generated by graphviz version 14.1.1 (20251213.1925)
 -->
<!-- Title: Flow Pages: 1 -->
<svg width="1347pt" height="1517pt"
 viewBox="0.00 0.00 1347.00 1517.00" xmlns="http://www.w3.org/2000/svg" xmlns:xlink="http://www.w3.org/1999/xlink">
<g id="graph0" class="graph" transform="scale(1 1) rotate(0) translate(4 1513.23)">
<title>Flow</title>
<polygon fill="white" stroke="none" points="-4,4 -4,-1513.23 1342.94,-1513.23 1342.94,4 -4,4"/>
<!-- RFC8069 -->
<g id="node1" class="node">
<title>RFC8069</title>
<g id="a_node1"><a xlink:title="This document describes the Namespace Identifier (NID) &#39;ieee&#39; for Uniform Resource Names (URNs) used to identify resources published by the Institute of Electrical and Electronics Engineers (IEEE). &#160;IEEE specifies and manages resources that utilize this URN identification model. &#160;Management activities for these and other resources types are handled by the manager of the IEEE Registration Authority.">
<ellipse fill="green" stroke="black" stroke-width="3" cx="933.54" cy="-685.69" rx="149.73" ry="50.2"/>
<text xml:space="preserve" text-anchor="middle" x="933.54" y="-700.09" font-family="Times,serif" font-size="18.00">RFC8069</text>
<text xml:space="preserve" text-anchor="middle" x="933.54" y="-679.09" font-family="Times,serif" font-size="18.00">URN Namespace for IEEE</text>
<text xml:space="preserve" text-anchor="middle" x="933.54" y="-658.09" font-family="Times,serif" font-size="18.00">2017</text>
</a>
</g>
</g>
<!-- obs -->
<g id="node3" class="node">
<title>obs</title>
<polygon fill="lightblue" stroke="black" points="1338.94,-824.65 1272.69,-824.65 1272.69,-788.65 1338.94,-788.65 1338.94,-824.65"/>
<text xml:space="preserve" text-anchor="middle" x="1305.82" y="-801.6" font-family="Times,serif" font-size="14.00">obsoletes</text>
</g>
<!-- RFC8069&#45;&gt;obs -->
<g id="edge2" class="edge">
<title>RFC8069&#45;&gt;obs</title>
<path fill="none" stroke="black" d="M1042.97,-721.25C1115.87,-744.93 1207.79,-774.8 1261.37,-792.21"/>
<polygon fill="black" stroke="black" points="1260.17,-795.5 1270.76,-795.26 1262.33,-788.84 1260.17,-795.5"/>
</g>
<!-- updates -->
<g id="node4" class="node">
<title>updates</title>
<polygon fill="lightyellow" stroke="black" points="1192.25,-1020.37 1135,-1020.37 1135,-984.37 1192.25,-984.37 1192.25,-1020.37"/>
<text xml:space="preserve" text-anchor="middle" x="1163.62" y="-997.32" font-family="Times,serif" font-size="14.00">updates</text>
</g>
<!-- RFC8069&#45;&gt;updates -->
<g id="edge3" class="edge">
<title>RFC8069&#45;&gt;updates</title>
<path fill="none" stroke="black" d="M969.99,-735.87C1019.14,-803.51 1104.94,-921.61 1143.66,-974.9"/>
<polygon fill="black" stroke="black" points="1140.72,-976.81 1149.43,-982.84 1146.39,-972.69 1140.72,-976.81"/>
</g>
<!-- cites -->
<g id="node6" class="node">
<title>cites</title>
<polygon fill="lightblue" stroke="black" points="588.26,-824.65 534.26,-824.65 534.26,-788.65 588.26,-788.65 588.26,-824.65"/>
<text xml:space="preserve" text-anchor="middle" x="561.26" y="-801.6" font-family="Times,serif" font-size="14.00">cites</text>
</g>
<!-- RFC8069&#45;&gt;cites -->
<g id="edge5" class="edge">
<title>RFC8069&#45;&gt;cites</title>
<path fill="none" stroke="black" d="M824.11,-721.25C748.16,-745.92 651.57,-777.31 599.2,-794.32"/>
<polygon fill="black" stroke="black" points="598.27,-790.94 589.85,-797.36 600.44,-797.6 598.27,-790.94"/>
</g>
<!-- obs_by -->
<g id="node2" class="node">
<title>obs_by</title>
<polygon fill="lightblue" stroke="black" points="966.66,-312.25 900.41,-312.25 900.41,-276.25 966.66,-276.25 966.66,-312.25"/>
<text xml:space="preserve" text-anchor="middle" x="933.54" y="-289.2" font-family="Times,serif" font-size="14.00">obsoletes</text>
</g>
<!-- obs_by&#45;&gt;RFC8069 -->
<g id="edge1" class="edge">
<title>obs_by&#45;&gt;RFC8069</title>
<path fill="none" stroke="black" d="M933.54,-312.6C933.54,-367.4 933.54,-531.62 933.54,-622.85"/>
<polygon fill="black" stroke="black" points="930.04,-622.63 933.54,-632.63 937.04,-622.63 930.04,-622.63"/>
</g>
<!-- updated_by -->
<g id="node5" class="node">
<title>updated_by</title>
<polygon fill="lightyellow" stroke="black" points="1192.25,-387.01 1135,-387.01 1135,-351.01 1192.25,-351.01 1192.25,-387.01"/>
<text xml:space="preserve" text-anchor="middle" x="1163.62" y="-363.96" font-family="Times,serif" font-size="14.00">updates</text>
</g>
<!-- updated_by&#45;&gt;RFC8069 -->
<g id="edge4" class="edge">
<title>updated_by&#45;&gt;RFC8069</title>
<path fill="none" stroke="black" d="M1150.26,-387.4C1117.05,-433.1 1029.67,-553.38 976.55,-626.48"/>
<polygon fill="black" stroke="black" points="973.87,-624.22 970.82,-634.37 979.53,-628.34 973.87,-624.22"/>
</g>
<!-- RFC2141 -->
<g id="node7" class="node">
<title>RFC2141</title>
<g id="a_node7"><a xlink:href="RFC2141.html" xlink:title="Uniform Resource Names (URNs) are intended to serve as persistent, location&#45;independent, resource identifiers. &#160;This document sets forward the canonical syntax for URNs. [STANDARDS&#45;TRACK]" target="_top">
<ellipse fill="none" stroke="black" cx="933.54" cy="-1468.57" rx="60.63" ry="40.66"/>
<text xml:space="preserve" text-anchor="middle" x="933.54" y="-1480.02" font-family="Times,serif" font-size="14.00">RFC2141</text>
<text xml:space="preserve" text-anchor="middle" x="933.54" y="-1463.52" font-family="Times,serif" font-size="14.00">URN Syntax</text>
<text xml:space="preserve" text-anchor="middle" x="933.54" y="-1447.02" font-family="Times,serif" font-size="14.00">1997</text>
</a>
</g>
</g>
<!-- cites&#45;&gt;RFC2141 -->
<g id="edge6" class="edge">
<title>cites&#45;&gt;RFC2141</title>
<path fill="none" stroke="black" d="M571.6,-825.05C620.7,-912.35 830.97,-1286.21 906.44,-1420.39"/>
<polygon fill="black" stroke="black" points="903.36,-1422.06 911.32,-1429.06 909.47,-1418.63 903.36,-1422.06"/>
</g>
<!-- RFC3406 -->
<g id="node8" class="node">
<title>RFC3406</title>
<g id="a_node8"><a xlink:href="RFC3406.html" xlink:title="This document lays out general definitions of and mechanisms for establishing Uniform Resource Names (URN) namespaces. &#160;The URN WG has defined a syntax for URNs in RFC 2141, as well as some proposed mechanisms for their resolution and use in Internet applications in RFC 3401 and RFC 3405. &#160;The whole rests on the concept of individual namespaces within the URN structure. &#160;Apart from proof&#45;of&#45;concept namespaces, the use of existing identifiers in URNs has been discussed in RFC 2288. &#160;This document specifies an Internet Best Current Practices for the Internet Community, and requests discussion and suggestions for improvements." target="_top">
<ellipse fill="none" stroke="black" cx="473.37" cy="-1319.05" rx="188.97" ry="52.33"/>
<text xml:space="preserve" text-anchor="middle" x="473.37" y="-1338.75" font-family="Times,serif" font-size="14.00">RFC3406</text>
<text xml:space="preserve" text-anchor="middle" x="473.37" y="-1322.25" font-family="Times,serif" font-size="14.00">Uniform Resource Names (URN) Namespace</text>
<text xml:space="preserve" text-anchor="middle" x="473.37" y="-1305.75" font-family="Times,serif" font-size="14.00">Definition Mechanisms</text>
<text xml:space="preserve" text-anchor="middle" x="473.37" y="-1289.25" font-family="Times,serif" font-size="14.00">2002</text>
</a>
</g>
</g>
<!-- cites&#45;&gt;RFC3406 -->
<g id="edge7" class="edge">
<title>cites&#45;&gt;RFC3406</title>
<path fill="none" stroke="black" d="M558.13,-824.89C546.37,-893.47 504.43,-1137.96 484.31,-1255.31"/>
<polygon fill="black" stroke="black" points="480.87,-1254.66 482.62,-1265.1 487.76,-1255.84 480.87,-1254.66"/>
</g>
<!-- RFC6020 -->
<g id="node9" class="node">
<title>RFC6020</title>
<g id="a_node9"><a xlink:href="RFC6020.html" xlink:title="YANG is a data modeling language used to model configuration and state data manipulated by the Network Configuration Protocol (NETCONF), NETCONF remote procedure calls, and NETCONF notifications. [STANDARDS&#45;TRACK]" target="_top">
<ellipse fill="none" stroke="black" cx="188.97" cy="-927.61" rx="188.97" ry="52.33"/>
<text xml:space="preserve" text-anchor="middle" x="188.97" y="-947.31" font-family="Times,serif" font-size="14.00">RFC6020</text>
<text xml:space="preserve" text-anchor="middle" x="188.97" y="-930.81" font-family="Times,serif" font-size="14.00">YANG &#45; A Data Modeling Language for the</text>
<text xml:space="preserve" text-anchor="middle" x="188.97" y="-914.31" font-family="Times,serif" font-size="14.00">Network Configuration Protocol (NETCONF)</text>
<text xml:space="preserve" text-anchor="middle" x="188.97" y="-897.81" font-family="Times,serif" font-size="14.00">2010</text>
</a>
</g>
</g>
<!-- cites&#45;&gt;RFC6020 -->
<g id="edge8" class="edge">
<title>cites&#45;&gt;RFC6020</title>
<path fill="none" stroke="black" d="M533.88,-815.55C489.7,-829.9 399.83,-859.1 322.91,-884.09"/>
<polygon fill="black" stroke="black" points="322.02,-880.7 313.59,-887.12 324.18,-887.36 322.02,-880.7"/>
</g>
<!-- RFC7950 -->
<g id="node10" class="node">
<title>RFC7950</title>
<g id="a_node10"><a xlink:href="RFC7950.html" xlink:title="YANG is a data modeling language used to model configuration data, state data, Remote Procedure Calls, and notifications for network management protocols. &#160;This document describes the syntax and semantics of version 1.1 of the YANG language. &#160;YANG version 1.1 is a maintenance release of the YANG language, addressing ambiguities and defects in the original specification. &#160;There are a small number of backward incompatibilities from YANG version 1. &#160;This document also specifies the YANG mappings to the Network Configuration Protocol (NETCONF)." target="_top">
<ellipse fill="none" stroke="black" cx="188.97" cy="-443.77" rx="170.94" ry="40.66"/>
<text xml:space="preserve" text-anchor="middle" x="188.97" y="-455.22" font-family="Times,serif" font-size="14.00">RFC7950</text>
<text xml:space="preserve" text-anchor="middle" x="188.97" y="-438.72" font-family="Times,serif" font-size="14.00">The YANG 1.1 Data Modeling Language</text>
<text xml:space="preserve" text-anchor="middle" x="188.97" y="-422.22" font-family="Times,serif" font-size="14.00">2016</text>
</a>
</g>
</g>
<!-- cites&#45;&gt;RFC7950 -->
<g id="edge9" class="edge">
<title>cites&#45;&gt;RFC7950</title>
<path fill="none" stroke="black" d="M542.28,-788.16C486.36,-733.64 320.89,-572.35 237.77,-491.33"/>
<polygon fill="black" stroke="black" points="240.44,-489.04 230.84,-484.57 235.55,-494.06 240.44,-489.04"/>
</g>
<!-- RFC1737 -->
<g id="node11" class="node">
<title>RFC1737</title>
<g id="a_node11"><a xlink:href="RFC1737.html" xlink:title="This document specifies a minimum set of requirements for a kind of Internet resource identifier known as Uniform Resource Names (URNs). &#160;This memo provides information for the Internet community. &#160;This memo does not specify an Internet standard of any kind." target="_top">
<ellipse fill="none" stroke="black" cx="473.37" cy="-52.33" rx="158.22" ry="52.33"/>
<text xml:space="preserve" text-anchor="middle" x="473.37" y="-72.03" font-family="Times,serif" font-size="14.00">RFC1737</text>
<text xml:space="preserve" text-anchor="middle" x="473.37" y="-55.53" font-family="Times,serif" font-size="14.00">Functional Requirements for Uniform</text>
<text xml:space="preserve" text-anchor="middle" x="473.37" y="-39.03" font-family="Times,serif" font-size="14.00">Resource Names</text>
<text xml:space="preserve" text-anchor="middle" x="473.37" y="-22.53" font-family="Times,serif" font-size="14.00">1994</text>
</a>
</g>
</g>
<!-- cites&#45;&gt;RFC1737 -->
<g id="edge10" class="edge">
<title>cites&#45;&gt;RFC1737</title>
<path fill="none" stroke="black" d="M559.13,-788.38C548.36,-695.93 499.64,-277.82 480.82,-116.29"/>
<polygon fill="black" stroke="black" points="484.33,-116.14 479.7,-106.61 477.38,-116.95 484.33,-116.14"/>
</g>
<!-- rev_cites -->
<g id="node12" class="node">
<title>rev_cites</title>
<polygon fill="lightblue" stroke="black" points="1332.82,-582.73 1278.82,-582.73 1278.82,-546.73 1332.82,-546.73 1332.82,-582.73"/>
<text xml:space="preserve" text-anchor="middle" x="1305.82" y="-559.68" font-family="Times,serif" font-size="14.00">cites</text>
</g>
<!-- rev_cites&#45;&gt;RFC8069 -->
<g id="edge11" class="edge">
<title>rev_cites&#45;&gt;RFC8069</title>
<path fill="none" stroke="black" d="M1278.44,-573.62C1231.6,-588.84 1133.41,-620.75 1053.73,-646.64"/>
<polygon fill="black" stroke="black" points="1052.98,-643.2 1044.55,-649.62 1055.15,-649.86 1052.98,-643.2"/>
</g>
</g>
</svg>
