<?xml version="1.0" encoding="UTF-8" standalone="no"?>
<!DOCTYPE svg PUBLIC "-//W3C//DTD SVG 1.1//EN"
 "http://www.w3.org/Graphics/SVG/1.1/DTD/svg11.dtd">
<!-- Generated by graphviz version 14.1.1 (20251213.1925)
 -->
<!-- Title: Flow Pages: 1 -->
<svg width="776pt" height="1071pt"
 viewBox="0.00 0.00 776.00 1071.00" xmlns="http://www.w3.org/2000/svg" xmlns:xlink="http://www.w3.org/1999/xlink">
<g id="graph0" class="graph" transform="scale(1 1) rotate(0) translate(4 1066.98)">
<title>Flow</title>
<polygon fill="white" stroke="none" points="-4,4 -4,-1066.98 772.24,-1066.98 772.24,4 -4,4"/>
<!-- RFC8927 -->
<g id="node1" class="node">
<title>RFC8927</title>
<g id="a_node1"><a xlink:title="This document proposes a format, called JSON Type Definition (JTD), for describing the shape of JavaScript Object Notation (JSON) messages. Its main goals are to enable code generation from schemas as well as portable validation with standardized error indicators. To this end, JTD is intentionally limited to be no more expressive than the type systems of mainstream programming languages. This intentional limitation, as well as the decision to make JTD schemas be JSON documents, makes tooling atop of JTD easier to build. This document does not have IETF consensus and is presented here to facilitate experimentation with the concept of JTD.">
<ellipse fill="green" stroke="black" cx="189.01" cy="-550.66" rx="97.76" ry="40.66"/>
<text xml:space="preserve" text-anchor="middle" x="189.01" y="-562.11" font-family="Times,serif" font-size="14.00">RFC8927</text>
<text xml:space="preserve" text-anchor="middle" x="189.01" y="-545.61" font-family="Times,serif" font-size="14.00">JSON Type Definition</text>
<text xml:space="preserve" text-anchor="middle" x="189.01" y="-529.11" font-family="Times,serif" font-size="14.00">2020</text>
</a>
</g>
</g>
<!-- obs -->
<g id="node3" class="node">
<title>obs</title>
<polygon fill="lightblue" stroke="black" points="378.02,-622.66 311.77,-622.66 311.77,-586.66 378.02,-586.66 378.02,-622.66"/>
<text xml:space="preserve" text-anchor="middle" x="344.89" y="-599.61" font-family="Times,serif" font-size="14.00">obsoletes</text>
</g>
<!-- RFC8927&#45;&gt;obs -->
<g id="edge2" class="edge">
<title>RFC8927&#45;&gt;obs</title>
<path fill="none" stroke="black" d="M264.69,-576.87C276.99,-581.18 289.35,-585.52 300.54,-589.45"/>
<polygon fill="black" stroke="black" points="299.27,-592.71 309.86,-592.72 301.58,-586.1 299.27,-592.71"/>
</g>
<!-- updates -->
<g id="node4" class="node">
<title>updates</title>
<polygon fill="lightyellow" stroke="black" points="373.52,-568.66 316.27,-568.66 316.27,-532.66 373.52,-532.66 373.52,-568.66"/>
<text xml:space="preserve" text-anchor="middle" x="344.89" y="-545.61" font-family="Times,serif" font-size="14.00">updates</text>
</g>
<!-- RFC8927&#45;&gt;updates -->
<g id="edge3" class="edge">
<title>RFC8927&#45;&gt;updates</title>
<path fill="none" stroke="black" d="M287.03,-550.66C293.06,-550.66 298.92,-550.66 304.44,-550.66"/>
<polygon fill="black" stroke="black" points="304.4,-554.16 314.4,-550.66 304.4,-547.16 304.4,-554.16"/>
</g>
<!-- cites -->
<g id="node6" class="node">
<title>cites</title>
<polygon fill="lightblue" stroke="black" points="371.89,-514.66 317.89,-514.66 317.89,-478.66 371.89,-478.66 371.89,-514.66"/>
<text xml:space="preserve" text-anchor="middle" x="344.89" y="-491.61" font-family="Times,serif" font-size="14.00">cites</text>
</g>
<!-- RFC8927&#45;&gt;cites -->
<g id="edge5" class="edge">
<title>RFC8927&#45;&gt;cites</title>
<path fill="none" stroke="black" d="M264.69,-524.45C279.38,-519.3 294.18,-514.1 306.94,-509.62"/>
<polygon fill="black" stroke="black" points="307.88,-513 316.16,-506.39 305.56,-506.4 307.88,-513"/>
</g>
<!-- obs_by -->
<g id="node2" class="node">
<title>obs_by</title>
<polygon fill="lightblue" stroke="black" points="66.25,-622.66 0,-622.66 0,-586.66 66.25,-586.66 66.25,-622.66"/>
<text xml:space="preserve" text-anchor="middle" x="33.12" y="-599.61" font-family="Times,serif" font-size="14.00">obsoletes</text>
</g>
<!-- obs_by&#45;&gt;RFC8927 -->
<g id="edge1" class="edge">
<title>obs_by&#45;&gt;RFC8927</title>
<path fill="none" stroke="black" d="M66.38,-593.34C77.12,-589.57 89.64,-585.18 102.49,-580.67"/>
<polygon fill="black" stroke="black" points="103.61,-583.98 111.89,-577.37 101.29,-577.38 103.61,-583.98"/>
</g>
<!-- updated_by -->
<g id="node5" class="node">
<title>updated_by</title>
<polygon fill="lightyellow" stroke="black" points="61.75,-568.66 4.5,-568.66 4.5,-532.66 61.75,-532.66 61.75,-568.66"/>
<text xml:space="preserve" text-anchor="middle" x="33.12" y="-545.61" font-family="Times,serif" font-size="14.00">updates</text>
</g>
<!-- updated_by&#45;&gt;RFC8927 -->
<g id="edge4" class="edge">
<title>updated_by&#45;&gt;RFC8927</title>
<path fill="none" stroke="black" d="M61.99,-550.66C67.48,-550.66 73.55,-550.66 79.96,-550.66"/>
<polygon fill="black" stroke="black" points="79.53,-554.16 89.53,-550.66 79.53,-547.16 79.53,-554.16"/>
</g>
<!-- RFC8259 -->
<g id="node7" class="node">
<title>RFC8259</title>
<g id="a_node7"><a xlink:href="RFC8259.html" xlink:title="JavaScript Object Notation (JSON) is a lightweight, text&#45;based, language&#45;independent data interchange format. It was derived from the ECMAScript Programming Language Standard. JSON defines a small set of formatting rules for the portable representation of structured data. This document removes inconsistencies with other specifications of JSON, repairs specification errors, and offers experience&#45;based interoperability guidance." target="_top">
<ellipse fill="none" stroke="black" cx="585.63" cy="-1010.66" rx="164.58" ry="52.33"/>
<text xml:space="preserve" text-anchor="middle" x="585.63" y="-1030.36" font-family="Times,serif" font-size="14.00">RFC8259</text>
<text xml:space="preserve" text-anchor="middle" x="585.63" y="-1013.86" font-family="Times,serif" font-size="14.00">The JavaScript Object Notation (JSON)</text>
<text xml:space="preserve" text-anchor="middle" x="585.63" y="-997.36" font-family="Times,serif" font-size="14.00">Data Interchange Format</text>
<text xml:space="preserve" text-anchor="middle" x="585.63" y="-980.86" font-family="Times,serif" font-size="14.00">2017</text>
</a>
</g>
</g>
<!-- cites&#45;&gt;RFC8259 -->
<g id="edge6" class="edge">
<title>cites&#45;&gt;RFC8259</title>
<path fill="none" stroke="black" d="M371.94,-514.98C374.34,-517.63 376.45,-520.53 378.02,-523.66 420.56,-608.41 345.42,-874.32 403.02,-949.66 411.7,-961.02 422.59,-970.29 434.71,-977.84"/>
<polygon fill="black" stroke="black" points="432.93,-980.86 443.35,-982.79 436.41,-974.79 432.93,-980.86"/>
</g>
<!-- RFC8610 -->
<g id="node8" class="node">
<title>RFC8610</title>
<g id="a_node8"><a xlink:href="RFC8610.html" xlink:title="This document proposes a notational convention to express Concise Binary Object Representation (CBOR) data structures (RFC 7049). &#160;Its main goal is to provide an easy and unambiguous way to express structures for protocol messages and data formats that use CBOR or JSON." target="_top">
<ellipse fill="none" stroke="black" cx="585.63" cy="-864.66" rx="182.61" ry="75.66"/>
<text xml:space="preserve" text-anchor="middle" x="585.63" y="-900.86" font-family="Times,serif" font-size="14.00">RFC8610</text>
<text xml:space="preserve" text-anchor="middle" x="585.63" y="-884.36" font-family="Times,serif" font-size="14.00">Concise Data Definition Language (CDDL):</text>
<text xml:space="preserve" text-anchor="middle" x="585.63" y="-867.86" font-family="Times,serif" font-size="14.00">A Notational Convention to Express</text>
<text xml:space="preserve" text-anchor="middle" x="585.63" y="-851.36" font-family="Times,serif" font-size="14.00">Concise Binary Object Representation</text>
<text xml:space="preserve" text-anchor="middle" x="585.63" y="-834.86" font-family="Times,serif" font-size="14.00">(CBOR) and JSON Data Structures</text>
<text xml:space="preserve" text-anchor="middle" x="585.63" y="-818.36" font-family="Times,serif" font-size="14.00">2019</text>
</a>
</g>
</g>
<!-- cites&#45;&gt;RFC8610 -->
<g id="edge7" class="edge">
<title>cites&#45;&gt;RFC8610</title>
<path fill="none" stroke="black" d="M371.83,-515.04C374.24,-517.68 376.39,-520.56 378.02,-523.66 431.46,-625.22 336.59,-687.08 403.02,-780.66 411.35,-792.4 421.74,-802.54 433.31,-811.29"/>
<polygon fill="black" stroke="black" points="430.95,-813.91 441.13,-816.84 435,-808.2 430.95,-813.91"/>
</g>
<!-- RFC7493 -->
<g id="node9" class="node">
<title>RFC7493</title>
<g id="a_node9"><a xlink:href="RFC7493.html" xlink:title="I&#45;JSON (short for Internet JSON) is a restricted profile of JSON designed to maximize interoperability and increase confidence that software can process it successfully with predictable results." target="_top">
<ellipse fill="none" stroke="black" cx="585.63" cy="-730.66" rx="125.33" ry="40.66"/>
<text xml:space="preserve" text-anchor="middle" x="585.63" y="-742.11" font-family="Times,serif" font-size="14.00">RFC7493</text>
<text xml:space="preserve" text-anchor="middle" x="585.63" y="-725.61" font-family="Times,serif" font-size="14.00">The I&#45;JSON Message Format</text>
<text xml:space="preserve" text-anchor="middle" x="585.63" y="-709.11" font-family="Times,serif" font-size="14.00">2015</text>
</a>
</g>
</g>
<!-- cites&#45;&gt;RFC7493 -->
<g id="edge8" class="edge">
<title>cites&#45;&gt;RFC7493</title>
<path fill="none" stroke="black" d="M371.64,-515.14C374.09,-517.76 376.29,-520.61 378.02,-523.66 412.81,-585.15 355.89,-628.01 403.02,-680.66 416.97,-696.25 435.3,-707.18 454.94,-714.79"/>
<polygon fill="black" stroke="black" points="453.62,-718.03 464.22,-718.07 455.96,-711.44 453.62,-718.03"/>
</g>
<!-- RFC2119 -->
<g id="node10" class="node">
<title>RFC2119</title>
<g id="a_node10"><a xlink:href="RFC2119.html" xlink:title="In many standards track documents several words are used to signify the requirements in the specification. &#160;These words are often capitalized. &#160;This document defines these words as they should be interpreted in IETF documents. &#160;This document specifies an Internet Best Current Practices for the Internet Community, and requests discussion and suggestions for improvements." target="_top">
<ellipse fill="none" stroke="black" cx="585.63" cy="-619.66" rx="160.34" ry="52.33"/>
<text xml:space="preserve" text-anchor="middle" x="585.63" y="-639.36" font-family="Times,serif" font-size="14.00">RFC2119</text>
<text xml:space="preserve" text-anchor="middle" x="585.63" y="-622.86" font-family="Times,serif" font-size="14.00">Key words for use in RFCs to Indicate</text>
<text xml:space="preserve" text-anchor="middle" x="585.63" y="-606.36" font-family="Times,serif" font-size="14.00">Requirement Levels</text>
<text xml:space="preserve" text-anchor="middle" x="585.63" y="-589.86" font-family="Times,serif" font-size="14.00">1997</text>
</a>
</g>
</g>
<!-- cites&#45;&gt;RFC2119 -->
<g id="edge9" class="edge">
<title>cites&#45;&gt;RFC2119</title>
<path fill="none" stroke="black" d="M368.97,-514.9C372.12,-517.72 375.23,-520.68 378.02,-523.66 390.84,-537.34 387.89,-546.56 403.02,-557.66 416.57,-567.6 431.83,-576.03 447.61,-583.16"/>
<polygon fill="black" stroke="black" points="446.08,-586.31 456.64,-587.06 448.85,-579.88 446.08,-586.31"/>
</g>
<!-- RFC8174 -->
<g id="node11" class="node">
<title>RFC8174</title>
<g id="a_node11"><a xlink:href="RFC8174.html" xlink:title="RFC 2119 specifies common key words that may be used in protocol specifications. &#160;This document aims to reduce the ambiguity by clarifying that only UPPERCASE usage of the key words have the defined special meanings." target="_top">
<ellipse fill="none" stroke="black" cx="585.63" cy="-496.66" rx="172" ry="52.33"/>
<text xml:space="preserve" text-anchor="middle" x="585.63" y="-516.36" font-family="Times,serif" font-size="14.00">RFC8174</text>
<text xml:space="preserve" text-anchor="middle" x="585.63" y="-499.86" font-family="Times,serif" font-size="14.00">Ambiguity of Uppercase vs Lowercase in</text>
<text xml:space="preserve" text-anchor="middle" x="585.63" y="-483.36" font-family="Times,serif" font-size="14.00">RFC 2119 Key Words</text>
<text xml:space="preserve" text-anchor="middle" x="585.63" y="-466.86" font-family="Times,serif" font-size="14.00">2017</text>
</a>
</g>
</g>
<!-- cites&#45;&gt;RFC8174 -->
<g id="edge10" class="edge">
<title>cites&#45;&gt;RFC8174</title>
<path fill="none" stroke="black" d="M372.35,-496.66C380.77,-496.66 390.81,-496.66 401.87,-496.66"/>
<polygon fill="black" stroke="black" points="401.74,-500.16 411.74,-496.66 401.74,-493.16 401.74,-500.16"/>
</g>
<!-- RFC6901 -->
<g id="node12" class="node">
<title>RFC6901</title>
<g id="a_node12"><a xlink:href="RFC6901.html" xlink:title="JSON Pointer defines a string syntax for identifying a specific value within a JavaScript Object Notation (JSON) document." target="_top">
<ellipse fill="none" stroke="black" cx="585.63" cy="-373.66" rx="147.08" ry="52.33"/>
<text xml:space="preserve" text-anchor="middle" x="585.63" y="-393.36" font-family="Times,serif" font-size="14.00">RFC6901</text>
<text xml:space="preserve" text-anchor="middle" x="585.63" y="-376.86" font-family="Times,serif" font-size="14.00">JavaScript Object Notation (JSON)</text>
<text xml:space="preserve" text-anchor="middle" x="585.63" y="-360.36" font-family="Times,serif" font-size="14.00">Pointer</text>
<text xml:space="preserve" text-anchor="middle" x="585.63" y="-343.86" font-family="Times,serif" font-size="14.00">2013</text>
</a>
</g>
</g>
<!-- cites&#45;&gt;RFC6901 -->
<g id="edge11" class="edge">
<title>cites&#45;&gt;RFC6901</title>
<path fill="none" stroke="black" d="M359.05,-478.36C369.58,-464.88 385.47,-447 403.02,-435.66 419.23,-425.18 437.41,-416.27 455.84,-408.75"/>
<polygon fill="black" stroke="black" points="456.96,-412.08 464.98,-405.16 454.4,-405.56 456.96,-412.08"/>
</g>
<!-- RFC3339 -->
<g id="node13" class="node">
<title>RFC3339</title>
<g id="a_node13"><a xlink:href="RFC3339.html" xlink:title="This document defines a date and time format for use in Internet protocols that is a profile of the ISO 8601 standard for representation of dates and times using the Gregorian calendar." target="_top">
<ellipse fill="none" stroke="black" cx="585.63" cy="-250.66" rx="130.11" ry="52.33"/>
<text xml:space="preserve" text-anchor="middle" x="585.63" y="-270.36" font-family="Times,serif" font-size="14.00">RFC3339</text>
<text xml:space="preserve" text-anchor="middle" x="585.63" y="-253.86" font-family="Times,serif" font-size="14.00">Date and Time on the Internet:</text>
<text xml:space="preserve" text-anchor="middle" x="585.63" y="-237.36" font-family="Times,serif" font-size="14.00">Timestamps</text>
<text xml:space="preserve" text-anchor="middle" x="585.63" y="-220.86" font-family="Times,serif" font-size="14.00">2002</text>
</a>
</g>
</g>
<!-- cites&#45;&gt;RFC3339 -->
<g id="edge12" class="edge">
<title>cites&#45;&gt;RFC3339</title>
<path fill="none" stroke="black" d="M346.33,-478.26C348.2,-441.7 357.54,-359.42 403.02,-312.66 417.95,-297.3 436.84,-285.75 456.75,-277.06"/>
<polygon fill="black" stroke="black" points="457.91,-280.36 465.84,-273.34 455.26,-273.88 457.91,-280.36"/>
</g>
<!-- RFC4287 -->
<g id="node14" class="node">
<title>RFC4287</title>
<g id="a_node14"><a xlink:href="RFC4287.html" xlink:title="This document specifies Atom, an XML&#45;based Web content and metadata syndication format. [STANDARDS&#45;TRACK]" target="_top">
<ellipse fill="none" stroke="black" cx="585.63" cy="-139.66" rx="129.58" ry="40.66"/>
<text xml:space="preserve" text-anchor="middle" x="585.63" y="-151.11" font-family="Times,serif" font-size="14.00">RFC4287</text>
<text xml:space="preserve" text-anchor="middle" x="585.63" y="-134.61" font-family="Times,serif" font-size="14.00">The Atom Syndication Format</text>
<text xml:space="preserve" text-anchor="middle" x="585.63" y="-118.11" font-family="Times,serif" font-size="14.00">2005</text>
</a>
</g>
</g>
<!-- cites&#45;&gt;RFC4287 -->
<g id="edge13" class="edge">
<title>cites&#45;&gt;RFC4287</title>
<path fill="none" stroke="black" d="M346.81,-478.45C350.16,-419.07 363.68,-232.48 403.02,-189.66 416.49,-175 433.82,-164.48 452.43,-156.97"/>
<polygon fill="black" stroke="black" points="453.6,-160.26 461.77,-153.51 451.17,-153.7 453.6,-160.26"/>
</g>
<!-- RFC7071 -->
<g id="node15" class="node">
<title>RFC7071</title>
<g id="a_node15"><a xlink:href="RFC7071.html" xlink:title="This document defines the format of reputation response data (reputons), the media type for packaging it, and definition of a registry for the names of reputation applications and response sets." target="_top">
<ellipse fill="none" stroke="black" cx="585.63" cy="-40.66" rx="173.06" ry="40.66"/>
<text xml:space="preserve" text-anchor="middle" x="585.63" y="-52.11" font-family="Times,serif" font-size="14.00">RFC7071</text>
<text xml:space="preserve" text-anchor="middle" x="585.63" y="-35.61" font-family="Times,serif" font-size="14.00">A Media Type for Reputation Interchange</text>
<text xml:space="preserve" text-anchor="middle" x="585.63" y="-19.11" font-family="Times,serif" font-size="14.00">2013</text>
</a>
</g>
</g>
<!-- cites&#45;&gt;RFC7071 -->
<g id="edge14" class="edge">
<title>cites&#45;&gt;RFC7071</title>
<path fill="none" stroke="black" d="M345.88,-478.27C346.22,-406.79 351.06,-148.49 403.02,-89.66 410.55,-81.12 419.41,-74 429.08,-68.07"/>
<polygon fill="black" stroke="black" points="430.66,-71.2 437.69,-63.26 427.25,-65.08 430.66,-71.2"/>
</g>
<!-- rev_cites -->
<g id="node16" class="node">
<title>rev_cites</title>
<polygon fill="lightblue" stroke="black" points="60.12,-514.66 6.12,-514.66 6.12,-478.66 60.12,-478.66 60.12,-514.66"/>
<text xml:space="preserve" text-anchor="middle" x="33.12" y="-491.61" font-family="Times,serif" font-size="14.00">cites</text>
</g>
<!-- rev_cites&#45;&gt;RFC8927 -->
<g id="edge15" class="edge">
<title>rev_cites&#45;&gt;RFC8927</title>
<path fill="none" stroke="black" d="M60.58,-505.94C72.52,-510.13 87.36,-515.34 102.65,-520.71"/>
<polygon fill="black" stroke="black" points="101.26,-523.93 111.85,-523.93 103.58,-517.32 101.26,-523.93"/>
</g>
</g>
</svg>
