<?xml version="1.0" encoding="UTF-8" standalone="no"?>
<!DOCTYPE svg PUBLIC "-//W3C//DTD SVG 1.1//EN"
 "http://www.w3.org/Graphics/SVG/1.1/DTD/svg11.dtd">
<!-- Generated by graphviz version 14.1.1 (20251213.1925)
 -->
<!-- Title: Flow Pages: 1 -->
<svg width="1433pt" height="1689pt"
 viewBox="0.00 0.00 1433.00 1689.00" xmlns="http://www.w3.org/2000/svg" xmlns:xlink="http://www.w3.org/1999/xlink">
<g id="graph0" class="graph" transform="scale(1 1) rotate(0) translate(4 1685.16)">
<title>Flow</title>
<polygon fill="white" stroke="none" points="-4,4 -4,-1685.16 1428.8,-1685.16 1428.8,4 -4,4"/>
<!-- RFC8063 -->
<g id="node1" class="node">
<title>RFC8063</title>
<g id="a_node1"><a xlink:title="This document describes an Extensible Provisioning Protocol (EPP) mapping for a key relay object that relays DNSSEC key material between EPP clients using the poll queue defined in RFC 5730. This key relay mapping will help facilitate changing the DNS operator of a domain while keeping the DNSSEC chain of trust intact.">
<ellipse fill="green" stroke="black" stroke-width="3" cx="993.5" cy="-807.3" rx="210.19" ry="65.05"/>
<text xml:space="preserve" text-anchor="middle" x="993.5" y="-832.2" font-family="Times,serif" font-size="18.00">RFC8063</text>
<text xml:space="preserve" text-anchor="middle" x="993.5" y="-811.2" font-family="Times,serif" font-size="18.00">Key Relay Mapping for the Extensible</text>
<text xml:space="preserve" text-anchor="middle" x="993.5" y="-790.2" font-family="Times,serif" font-size="18.00">Provisioning Protocol</text>
<text xml:space="preserve" text-anchor="middle" x="993.5" y="-769.2" font-family="Times,serif" font-size="18.00">2017</text>
</a>
</g>
</g>
<!-- obs -->
<g id="node3" class="node">
<title>obs</title>
<polygon fill="lightblue" stroke="black" points="1424.8,-942.22 1358.55,-942.22 1358.55,-906.22 1424.8,-906.22 1424.8,-942.22"/>
<text xml:space="preserve" text-anchor="middle" x="1391.68" y="-919.17" font-family="Times,serif" font-size="14.00">obsoletes</text>
</g>
<!-- RFC8063&#45;&gt;obs -->
<g id="edge2" class="edge">
<title>RFC8063&#45;&gt;obs</title>
<path fill="none" stroke="black" d="M1148.01,-852.67C1219.45,-873.65 1298.97,-897 1347.14,-911.14"/>
<polygon fill="black" stroke="black" points="1346.07,-914.47 1356.65,-913.93 1348.04,-907.76 1346.07,-914.47"/>
</g>
<!-- updates -->
<g id="node4" class="node">
<title>updates</title>
<polygon fill="lightyellow" stroke="black" points="1293.88,-1138.93 1236.63,-1138.93 1236.63,-1102.93 1293.88,-1102.93 1293.88,-1138.93"/>
<text xml:space="preserve" text-anchor="middle" x="1265.26" y="-1115.88" font-family="Times,serif" font-size="14.00">updates</text>
</g>
<!-- RFC8063&#45;&gt;updates -->
<g id="edge3" class="edge">
<title>RFC8063&#45;&gt;updates</title>
<path fill="none" stroke="black" d="M1048.82,-871.15C1108.14,-939.6 1199.51,-1045.05 1242.02,-1094.11"/>
<polygon fill="black" stroke="black" points="1239.19,-1096.19 1248.38,-1101.45 1244.48,-1091.6 1239.19,-1096.19"/>
</g>
<!-- cites -->
<g id="node6" class="node">
<title>cites</title>
<polygon fill="lightblue" stroke="black" points="622.32,-942.22 568.32,-942.22 568.32,-906.22 622.32,-906.22 622.32,-942.22"/>
<text xml:space="preserve" text-anchor="middle" x="595.32" y="-919.17" font-family="Times,serif" font-size="14.00">cites</text>
</g>
<!-- RFC8063&#45;&gt;cites -->
<g id="edge5" class="edge">
<title>RFC8063&#45;&gt;cites</title>
<path fill="none" stroke="black" d="M838.98,-852.67C764.26,-874.61 680.71,-899.15 633.42,-913.03"/>
<polygon fill="black" stroke="black" points="632.55,-909.64 623.94,-915.81 634.52,-916.36 632.55,-909.64"/>
</g>
<!-- obs_by -->
<g id="node2" class="node">
<title>obs_by</title>
<polygon fill="lightblue" stroke="black" points="1085.68,-414.54 1019.43,-414.54 1019.43,-378.54 1085.68,-378.54 1085.68,-414.54"/>
<text xml:space="preserve" text-anchor="middle" x="1052.56" y="-391.49" font-family="Times,serif" font-size="14.00">obsoletes</text>
</g>
<!-- obs_by&#45;&gt;RFC8063 -->
<g id="edge1" class="edge">
<title>obs_by&#45;&gt;RFC8063</title>
<path fill="none" stroke="black" d="M1049.9,-414.98C1042.08,-469.42 1018.75,-631.67 1004.66,-729.64"/>
<polygon fill="black" stroke="black" points="1001.21,-729.07 1003.25,-739.47 1008.14,-730.06 1001.21,-729.07"/>
</g>
<!-- updated_by -->
<g id="node5" class="node">
<title>updated_by</title>
<polygon fill="lightyellow" stroke="black" points="1293.88,-511.67 1236.63,-511.67 1236.63,-475.67 1293.88,-475.67 1293.88,-511.67"/>
<text xml:space="preserve" text-anchor="middle" x="1265.26" y="-488.62" font-family="Times,serif" font-size="14.00">updates</text>
</g>
<!-- updated_by&#45;&gt;RFC8063 -->
<g id="edge4" class="edge">
<title>updated_by&#45;&gt;RFC8063</title>
<path fill="none" stroke="black" d="M1249.47,-511.89C1212.66,-554.38 1119.45,-661.94 1056.27,-734.85"/>
<polygon fill="black" stroke="black" points="1054,-732.13 1050.1,-741.98 1059.29,-736.71 1054,-732.13"/>
</g>
<!-- RFC2119 -->
<g id="node7" class="node">
<title>RFC2119</title>
<g id="a_node7"><a xlink:href="RFC2119.html" xlink:title="In many standards track documents several words are used to signify the requirements in the specification. &#160;These words are often capitalized. &#160;This document defines these words as they should be interpreted in IETF documents. &#160;This document specifies an Internet Best Current Practices for the Internet Community, and requests discussion and suggestions for improvements." target="_top">
<ellipse fill="none" stroke="black" cx="1111.62" cy="-1628.83" rx="160.34" ry="52.33"/>
<text xml:space="preserve" text-anchor="middle" x="1111.62" y="-1648.53" font-family="Times,serif" font-size="14.00">RFC2119</text>
<text xml:space="preserve" text-anchor="middle" x="1111.62" y="-1632.03" font-family="Times,serif" font-size="14.00">Key words for use in RFCs to Indicate</text>
<text xml:space="preserve" text-anchor="middle" x="1111.62" y="-1615.53" font-family="Times,serif" font-size="14.00">Requirement Levels</text>
<text xml:space="preserve" text-anchor="middle" x="1111.62" y="-1599.03" font-family="Times,serif" font-size="14.00">1997</text>
</a>
</g>
</g>
<!-- cites&#45;&gt;RFC2119 -->
<g id="edge6" class="edge">
<title>cites&#45;&gt;RFC2119</title>
<path fill="none" stroke="black" d="M608.86,-942.7C674.08,-1031.71 957.13,-1418 1067.41,-1568.5"/>
<polygon fill="black" stroke="black" points="1064.47,-1570.42 1073.21,-1576.42 1070.12,-1566.28 1064.47,-1570.42"/>
</g>
<!-- RFC5910 -->
<g id="node8" class="node">
<title>RFC5910</title>
<g id="a_node8"><a xlink:href="RFC5910.html" xlink:title="This document describes an Extensible Provisioning Protocol (EPP) extension mapping for the provisioning and management of Domain Name System security (DNSSEC) extensions for domain names stored in a shared central repository. &#160;Specified in XML, this mapping extends the EPP domain name mapping to provide additional features required for the provisioning of DNS security extensions. &#160;This document obsoletes RFC 4310. [STANDARDS&#45;TRACK]" target="_top">
<ellipse fill="none" stroke="black" cx="648.71" cy="-1562.28" rx="162.46" ry="63.99"/>
<text xml:space="preserve" text-anchor="middle" x="648.71" y="-1590.23" font-family="Times,serif" font-size="14.00">RFC5910</text>
<text xml:space="preserve" text-anchor="middle" x="648.71" y="-1573.73" font-family="Times,serif" font-size="14.00">Domain Name System (DNS) Security</text>
<text xml:space="preserve" text-anchor="middle" x="648.71" y="-1557.23" font-family="Times,serif" font-size="14.00">Extensions Mapping for the Extensible</text>
<text xml:space="preserve" text-anchor="middle" x="648.71" y="-1540.73" font-family="Times,serif" font-size="14.00">Provisioning Protocol (EPP)</text>
<text xml:space="preserve" text-anchor="middle" x="648.71" y="-1524.23" font-family="Times,serif" font-size="14.00">2010</text>
</a>
</g>
</g>
<!-- cites&#45;&gt;RFC5910 -->
<g id="edge7" class="edge">
<title>cites&#45;&gt;RFC5910</title>
<path fill="none" stroke="black" d="M596.86,-942.63C603.52,-1022.28 630.1,-1339.88 642.4,-1486.89"/>
<polygon fill="black" stroke="black" points="638.89,-1486.85 643.21,-1496.52 645.86,-1486.26 638.89,-1486.85"/>
</g>
<!-- RFC5730 -->
<g id="node9" class="node">
<title>RFC5730</title>
<g id="a_node9"><a xlink:href="RFC5730.html" xlink:title="This document describes an application&#45;layer client&#45;server protocol for the provisioning and management of objects stored in a shared central repository. &#160;Specified in XML, the protocol defines generic object management operations and an extensible framework that maps protocol operations to objects. &#160;This document includes a protocol specification, an object mapping template, and an XML media type registration. &#160;This document obsoletes RFC 4930. [STANDARDS&#45;TRACK]" target="_top">
<ellipse fill="none" stroke="black" cx="295.27" cy="-1256.02" rx="163.52" ry="40.66"/>
<text xml:space="preserve" text-anchor="middle" x="295.27" y="-1267.47" font-family="Times,serif" font-size="14.00">RFC5730</text>
<text xml:space="preserve" text-anchor="middle" x="295.27" y="-1250.97" font-family="Times,serif" font-size="14.00">Extensible Provisioning Protocol (EPP)</text>
<text xml:space="preserve" text-anchor="middle" x="295.27" y="-1234.47" font-family="Times,serif" font-size="14.00">2009</text>
</a>
</g>
</g>
<!-- cites&#45;&gt;RFC5730 -->
<g id="edge8" class="edge">
<title>cites&#45;&gt;RFC5730</title>
<path fill="none" stroke="black" d="M578.76,-942.53C533.51,-992.57 406.67,-1132.84 339.04,-1207.63"/>
<polygon fill="black" stroke="black" points="336.61,-1205.09 332.5,-1214.85 341.81,-1209.78 336.61,-1205.09"/>
</g>
<!-- RFC5731 -->
<g id="node10" class="node">
<title>RFC5731</title>
<g id="a_node10"><a xlink:href="RFC5731.html" xlink:title="This document describes an Extensible Provisioning Protocol (EPP) mapping for the provisioning and management of Internet domain names stored in a shared central repository. &#160;Specified in XML, the mapping defines EPP command syntax and semantics as applied to domain names. &#160;This document obsoletes RFC 4931. [STANDARDS&#45;TRACK]" target="_top">
<ellipse fill="none" stroke="black" cx="163.52" cy="-807.3" rx="163.52" ry="52.33"/>
<text xml:space="preserve" text-anchor="middle" x="163.52" y="-827" font-family="Times,serif" font-size="14.00">RFC5731</text>
<text xml:space="preserve" text-anchor="middle" x="163.52" y="-810.5" font-family="Times,serif" font-size="14.00">Extensible Provisioning Protocol (EPP)</text>
<text xml:space="preserve" text-anchor="middle" x="163.52" y="-794" font-family="Times,serif" font-size="14.00">Domain Name Mapping</text>
<text xml:space="preserve" text-anchor="middle" x="163.52" y="-777.5" font-family="Times,serif" font-size="14.00">2009</text>
</a>
</g>
</g>
<!-- cites&#45;&gt;RFC5731 -->
<g id="edge9" class="edge">
<title>cites&#45;&gt;RFC5731</title>
<path fill="none" stroke="black" d="M567.98,-916.82C515.05,-902.48 395.39,-870.08 299.88,-844.22"/>
<polygon fill="black" stroke="black" points="300.97,-840.89 290.41,-841.66 299.14,-847.65 300.97,-840.89"/>
</g>
<!-- RFC3688 -->
<g id="node11" class="node">
<title>RFC3688</title>
<g id="a_node11"><a xlink:href="RFC3688.html" xlink:title="This document describes an IANA maintained registry for IETF standards which use Extensible Markup Language (XML) related items such as Namespaces, Document Type Declarations (DTDs), Schemas, and Resource Description Framework (RDF) Schemas." target="_top">
<ellipse fill="none" stroke="black" cx="295.27" cy="-358.58" rx="107.83" ry="40.66"/>
<text xml:space="preserve" text-anchor="middle" x="295.27" y="-370.03" font-family="Times,serif" font-size="14.00">RFC3688</text>
<text xml:space="preserve" text-anchor="middle" x="295.27" y="-353.53" font-family="Times,serif" font-size="14.00">The IETF XML Registry</text>
<text xml:space="preserve" text-anchor="middle" x="295.27" y="-337.03" font-family="Times,serif" font-size="14.00">2004</text>
</a>
</g>
</g>
<!-- cites&#45;&gt;RFC3688 -->
<g id="edge10" class="edge">
<title>cites&#45;&gt;RFC3688</title>
<path fill="none" stroke="black" d="M585.51,-905.72C544.44,-828.29 385.52,-528.72 321.87,-408.71"/>
<polygon fill="black" stroke="black" points="325.03,-407.22 317.26,-400.02 318.85,-410.5 325.03,-407.22"/>
</g>
<!-- RFC7451 -->
<g id="node12" class="node">
<title>RFC7451</title>
<g id="a_node12"><a xlink:href="RFC7451.html" xlink:title="The Extensible Provisioning Protocol (EPP) includes features to add functionality by extending the protocol. &#160;It does not, however, describe how those extensions are managed. &#160;This document describes a procedure for the registration and management of extensions to EPP, and it specifies a format for an IANA registry to record those extensions." target="_top">
<ellipse fill="none" stroke="black" cx="648.71" cy="-52.33" rx="155.56" ry="52.33"/>
<text xml:space="preserve" text-anchor="middle" x="648.71" y="-72.03" font-family="Times,serif" font-size="14.00">RFC7451</text>
<text xml:space="preserve" text-anchor="middle" x="648.71" y="-55.53" font-family="Times,serif" font-size="14.00">Extension Registry for the Extensible</text>
<text xml:space="preserve" text-anchor="middle" x="648.71" y="-39.03" font-family="Times,serif" font-size="14.00">Provisioning Protocol</text>
<text xml:space="preserve" text-anchor="middle" x="648.71" y="-22.53" font-family="Times,serif" font-size="14.00">2015</text>
</a>
</g>
</g>
<!-- cites&#45;&gt;RFC7451 -->
<g id="edge11" class="edge">
<title>cites&#45;&gt;RFC7451</title>
<path fill="none" stroke="black" d="M596.43,-906.01C602.71,-803.53 633.73,-296.94 644.79,-116.39"/>
<polygon fill="black" stroke="black" points="648.28,-116.68 645.4,-106.48 641.29,-116.25 648.28,-116.68"/>
</g>
<!-- rev_cites -->
<g id="node13" class="node">
<title>rev_cites</title>
<polygon fill="lightblue" stroke="black" points="1418.68,-708.39 1364.68,-708.39 1364.68,-672.39 1418.68,-672.39 1418.68,-708.39"/>
<text xml:space="preserve" text-anchor="middle" x="1391.68" y="-685.34" font-family="Times,serif" font-size="14.00">cites</text>
</g>
<!-- rev_cites&#45;&gt;RFC8063 -->
<g id="edge12" class="edge">
<title>rev_cites&#45;&gt;RFC8063</title>
<path fill="none" stroke="black" d="M1364.31,-698.42C1321.85,-710.89 1236.88,-735.84 1158.98,-758.71"/>
<polygon fill="black" stroke="black" points="1158.1,-755.32 1149.49,-761.5 1160.07,-762.04 1158.1,-755.32"/>
</g>
</g>
</svg>
