<?xml version="1.0" encoding="UTF-8" standalone="no"?>
<!DOCTYPE svg PUBLIC "-//W3C//DTD SVG 1.1//EN"
 "http://www.w3.org/Graphics/SVG/1.1/DTD/svg11.dtd">
<!-- Generated by graphviz version 14.1.1 (20251213.1925)
 -->
<!-- Title: Flow Pages: 1 -->
<svg width="1971pt" height="1710pt"
 viewBox="0.00 0.00 1971.00 1710.00" xmlns="http://www.w3.org/2000/svg" xmlns:xlink="http://www.w3.org/1999/xlink">
<g id="graph0" class="graph" transform="scale(1 1) rotate(0) translate(4 1706.38)">
<title>Flow</title>
<polygon fill="white" stroke="none" points="-4,4 -4,-1706.38 1966.95,-1706.38 1966.95,4 -4,4"/>
<!-- RFC8640 -->
<g id="node1" class="node">
<title>RFC8640</title>
<g id="a_node1"><a xlink:title="This document provides a Network Configuration Protocol (NETCONF) binding to the dynamic subscription capability of both subscribed notifications and YANG&#45;Push.">
<ellipse fill="green" stroke="black" stroke-width="3" cx="976.7" cy="-857.02" rx="237.76" ry="65.05"/>
<text xml:space="preserve" text-anchor="middle" x="976.7" y="-881.92" font-family="Times,serif" font-size="18.00">RFC8640</text>
<text xml:space="preserve" text-anchor="middle" x="976.7" y="-860.92" font-family="Times,serif" font-size="18.00">Dynamic Subscription to YANG Events and</text>
<text xml:space="preserve" text-anchor="middle" x="976.7" y="-839.92" font-family="Times,serif" font-size="18.00">Datastores over NETCONF</text>
<text xml:space="preserve" text-anchor="middle" x="976.7" y="-818.92" font-family="Times,serif" font-size="18.00">2019</text>
</a>
</g>
</g>
<!-- obs -->
<g id="node3" class="node">
<title>obs</title>
<polygon fill="lightblue" stroke="black" points="1412.18,-982.83 1345.93,-982.83 1345.93,-946.83 1412.18,-946.83 1412.18,-982.83"/>
<text xml:space="preserve" text-anchor="middle" x="1379.05" y="-959.78" font-family="Times,serif" font-size="14.00">obsoletes</text>
</g>
<!-- RFC8640&#45;&gt;obs -->
<g id="edge2" class="edge">
<title>RFC8640&#45;&gt;obs</title>
<path fill="none" stroke="black" d="M1148.79,-903.14C1217.07,-921.43 1289.91,-940.95 1334.96,-953.02"/>
<polygon fill="black" stroke="black" points="1333.77,-956.32 1344.34,-955.53 1335.58,-949.56 1333.77,-956.32"/>
</g>
<!-- updates -->
<g id="node4" class="node">
<title>updates</title>
<polygon fill="lightyellow" stroke="black" points="1299.87,-1169.56 1242.62,-1169.56 1242.62,-1133.56 1299.87,-1133.56 1299.87,-1169.56"/>
<text xml:space="preserve" text-anchor="middle" x="1271.24" y="-1146.51" font-family="Times,serif" font-size="14.00">updates</text>
</g>
<!-- RFC8640&#45;&gt;updates -->
<g id="edge3" class="edge">
<title>RFC8640&#45;&gt;updates</title>
<path fill="none" stroke="black" d="M1040.61,-920.93C1104.48,-984.81 1199.55,-1079.87 1245.08,-1125.4"/>
<polygon fill="black" stroke="black" points="1242.37,-1127.64 1251.92,-1132.24 1247.32,-1122.69 1242.37,-1127.64"/>
</g>
<!-- cites -->
<g id="node6" class="node">
<title>cites</title>
<polygon fill="lightblue" stroke="black" points="601.35,-982.83 547.35,-982.83 547.35,-946.83 601.35,-946.83 601.35,-982.83"/>
<text xml:space="preserve" text-anchor="middle" x="574.35" y="-959.78" font-family="Times,serif" font-size="14.00">cites</text>
</g>
<!-- RFC8640&#45;&gt;cites -->
<g id="edge5" class="edge">
<title>RFC8640&#45;&gt;cites</title>
<path fill="none" stroke="black" d="M804.61,-903.14C733.34,-922.23 657.09,-942.66 612.67,-954.57"/>
<polygon fill="black" stroke="black" points="612.03,-951.11 603.28,-957.08 613.85,-957.87 612.03,-951.11"/>
</g>
<!-- obs_by -->
<g id="node2" class="node">
<title>obs_by</title>
<polygon fill="lightblue" stroke="black" points="1117.64,-472.67 1051.39,-472.67 1051.39,-436.67 1117.64,-436.67 1117.64,-472.67"/>
<text xml:space="preserve" text-anchor="middle" x="1084.51" y="-449.62" font-family="Times,serif" font-size="14.00">obsoletes</text>
</g>
<!-- obs_by&#45;&gt;RFC8640 -->
<g id="edge1" class="edge">
<title>obs_by&#45;&gt;RFC8640</title>
<path fill="none" stroke="black" d="M1079.6,-473.01C1065.29,-526.39 1023.06,-684.01 997.36,-779.91"/>
<polygon fill="black" stroke="black" points="993.99,-778.98 994.78,-789.54 1000.75,-780.79 993.99,-778.98"/>
</g>
<!-- updated_by -->
<g id="node5" class="node">
<title>updated_by</title>
<polygon fill="lightyellow" stroke="black" points="1299.87,-580.48 1242.62,-580.48 1242.62,-544.48 1299.87,-544.48 1299.87,-580.48"/>
<text xml:space="preserve" text-anchor="middle" x="1271.24" y="-557.43" font-family="Times,serif" font-size="14.00">updates</text>
</g>
<!-- updated_by&#45;&gt;RFC8640 -->
<g id="edge4" class="edge">
<title>updated_by&#45;&gt;RFC8640</title>
<path fill="none" stroke="black" d="M1252.82,-580.91C1212.88,-620.85 1116.5,-717.23 1048.91,-784.82"/>
<polygon fill="black" stroke="black" points="1046.48,-782.3 1041.88,-791.84 1051.43,-787.25 1046.48,-782.3"/>
</g>
<!-- RFC6241 -->
<g id="node7" class="node">
<title>RFC6241</title>
<g id="a_node7"><a xlink:href="RFC6241.html" xlink:title="The Network Configuration Protocol (NETCONF) defined in this document provides mechanisms to install, manipulate, and delete the configuration of network devices. &#160;It uses an Extensible Markup Language (XML)&#45;based data encoding for the configuration data as well as the protocol messages. &#160;The NETCONF protocol operations are realized as remote procedure calls (RPCs). &#160;This document obsoletes RFC 4741. [STANDARDS&#45;TRACK]" target="_top">
<ellipse fill="none" stroke="black" cx="1192.32" cy="-1661.72" rx="188.97" ry="40.66"/>
<text xml:space="preserve" text-anchor="middle" x="1192.32" y="-1673.17" font-family="Times,serif" font-size="14.00">RFC6241</text>
<text xml:space="preserve" text-anchor="middle" x="1192.32" y="-1656.67" font-family="Times,serif" font-size="14.00">Network Configuration Protocol (NETCONF)</text>
<text xml:space="preserve" text-anchor="middle" x="1192.32" y="-1640.17" font-family="Times,serif" font-size="14.00">2011</text>
</a>
</g>
</g>
<!-- cites&#45;&gt;RFC6241 -->
<g id="edge6" class="edge">
<title>cites&#45;&gt;RFC6241</title>
<path fill="none" stroke="black" d="M590.56,-983.11C670.68,-1073.46 1025.4,-1473.49 1149.38,-1613.29"/>
<polygon fill="black" stroke="black" points="1146.6,-1615.43 1155.85,-1620.59 1151.83,-1610.79 1146.6,-1615.43"/>
</g>
<!-- RFC8639 -->
<g id="node8" class="node">
<title>RFC8639</title>
<g id="a_node8"><a xlink:href="RFC8639.html" xlink:title="This document defines a YANG data model and associated mechanisms enabling subscriber&#45;specific subscriptions to a publisher&#39;s event streams. &#160;Applying these elements allows a subscriber to request and receive a continuous, customized feed of publisher&#45;generated information." target="_top">
<ellipse fill="none" stroke="black" cx="761.08" cy="-1661.72" rx="150.79" ry="40.66"/>
<text xml:space="preserve" text-anchor="middle" x="761.08" y="-1673.17" font-family="Times,serif" font-size="14.00">RFC8639</text>
<text xml:space="preserve" text-anchor="middle" x="761.08" y="-1656.67" font-family="Times,serif" font-size="14.00">Subscription to YANG Notifications</text>
<text xml:space="preserve" text-anchor="middle" x="761.08" y="-1640.17" font-family="Times,serif" font-size="14.00">2019</text>
</a>
</g>
</g>
<!-- cites&#45;&gt;RFC8639 -->
<g id="edge7" class="edge">
<title>cites&#45;&gt;RFC8639</title>
<path fill="none" stroke="black" d="M579.25,-983.11C603.26,-1072.71 708.87,-1466.87 747.16,-1609.76"/>
<polygon fill="black" stroke="black" points="743.76,-1610.59 749.73,-1619.34 750.52,-1608.78 743.76,-1610.59"/>
</g>
<!-- RFC8641 -->
<g id="node9" class="node">
<title>RFC8641</title>
<g id="a_node9"><a xlink:href="RFC8641.html" xlink:title="This document describes a mechanism that allows subscriber applications to request a continuous and customized stream of updates from a YANG datastore. &#160;Providing such visibility into updates enables new capabilities based on the remote mirroring and monitoring of configuration and operational state." target="_top">
<ellipse fill="none" stroke="black" cx="387.62" cy="-1446.1" rx="164.58" ry="52.33"/>
<text xml:space="preserve" text-anchor="middle" x="387.62" y="-1465.8" font-family="Times,serif" font-size="14.00">RFC8641</text>
<text xml:space="preserve" text-anchor="middle" x="387.62" y="-1449.3" font-family="Times,serif" font-size="14.00">Subscription to YANG Notifications for</text>
<text xml:space="preserve" text-anchor="middle" x="387.62" y="-1432.8" font-family="Times,serif" font-size="14.00">Datastore Updates</text>
<text xml:space="preserve" text-anchor="middle" x="387.62" y="-1416.3" font-family="Times,serif" font-size="14.00">2019</text>
</a>
</g>
</g>
<!-- cites&#45;&gt;RFC8641 -->
<g id="edge8" class="edge">
<title>cites&#45;&gt;RFC8641</title>
<path fill="none" stroke="black" d="M567.26,-983.11C541.89,-1048.5 454.88,-1272.75 411.96,-1383.38"/>
<polygon fill="black" stroke="black" points="408.72,-1382.04 408.37,-1392.63 415.25,-1384.57 408.72,-1382.04"/>
</g>
<!-- RFC2119 -->
<g id="node10" class="node">
<title>RFC2119</title>
<g id="a_node10"><a xlink:href="RFC2119.html" xlink:title="In many standards track documents several words are used to signify the requirements in the specification. &#160;These words are often capitalized. &#160;This document defines these words as they should be interpreted in IETF documents. &#160;This document specifies an Internet Best Current Practices for the Internet Community, and requests discussion and suggestions for improvements." target="_top">
<ellipse fill="none" stroke="black" cx="172" cy="-1072.64" rx="160.34" ry="52.33"/>
<text xml:space="preserve" text-anchor="middle" x="172" y="-1092.34" font-family="Times,serif" font-size="14.00">RFC2119</text>
<text xml:space="preserve" text-anchor="middle" x="172" y="-1075.84" font-family="Times,serif" font-size="14.00">Key words for use in RFCs to Indicate</text>
<text xml:space="preserve" text-anchor="middle" x="172" y="-1059.34" font-family="Times,serif" font-size="14.00">Requirement Levels</text>
<text xml:space="preserve" text-anchor="middle" x="172" y="-1042.84" font-family="Times,serif" font-size="14.00">1997</text>
</a>
</g>
</g>
<!-- cites&#45;&gt;RFC2119 -->
<g id="edge9" class="edge">
<title>cites&#45;&gt;RFC2119</title>
<path fill="none" stroke="black" d="M547.01,-972.16C498.33,-985.2 393.63,-1013.26 307.19,-1036.42"/>
<polygon fill="black" stroke="black" points="306.42,-1033 297.67,-1038.97 308.23,-1039.76 306.42,-1033"/>
</g>
<!-- RFC8174 -->
<g id="node11" class="node">
<title>RFC8174</title>
<g id="a_node11"><a xlink:href="RFC8174.html" xlink:title="RFC 2119 specifies common key words that may be used in protocol specifications. &#160;This document aims to reduce the ambiguity by clarifying that only UPPERCASE usage of the key words have the defined special meanings." target="_top">
<ellipse fill="none" stroke="black" cx="172" cy="-641.41" rx="172" ry="52.33"/>
<text xml:space="preserve" text-anchor="middle" x="172" y="-661.11" font-family="Times,serif" font-size="14.00">RFC8174</text>
<text xml:space="preserve" text-anchor="middle" x="172" y="-644.61" font-family="Times,serif" font-size="14.00">Ambiguity of Uppercase vs Lowercase in</text>
<text xml:space="preserve" text-anchor="middle" x="172" y="-628.11" font-family="Times,serif" font-size="14.00">RFC 2119 Key Words</text>
<text xml:space="preserve" text-anchor="middle" x="172" y="-611.61" font-family="Times,serif" font-size="14.00">2017</text>
</a>
</g>
</g>
<!-- cites&#45;&gt;RFC8174 -->
<g id="edge10" class="edge">
<title>cites&#45;&gt;RFC8174</title>
<path fill="none" stroke="black" d="M551.57,-946.52C492.87,-899.33 334.6,-772.11 242.02,-697.69"/>
<polygon fill="black" stroke="black" points="244.44,-695.14 234.45,-691.6 240.05,-700.6 244.44,-695.14"/>
</g>
<!-- RFC5277 -->
<g id="node12" class="node">
<title>RFC5277</title>
<g id="a_node12"><a xlink:href="RFC5277.html" xlink:title="This document defines mechanisms that provide an asynchronous message notification delivery service for the Network Configuration protocol (NETCONF). &#160;This is an optional capability built on top of the base NETCONF definition. &#160;This document defines the capabilities and operations necessary to support this service. [STANDARDS&#45;TRACK]" target="_top">
<ellipse fill="none" stroke="black" cx="387.62" cy="-267.94" rx="132.76" ry="40.66"/>
<text xml:space="preserve" text-anchor="middle" x="387.62" y="-279.39" font-family="Times,serif" font-size="14.00">RFC5277</text>
<text xml:space="preserve" text-anchor="middle" x="387.62" y="-262.89" font-family="Times,serif" font-size="14.00">NETCONF Event Notifications</text>
<text xml:space="preserve" text-anchor="middle" x="387.62" y="-246.39" font-family="Times,serif" font-size="14.00">2008</text>
</a>
</g>
</g>
<!-- cites&#45;&gt;RFC5277 -->
<g id="edge11" class="edge">
<title>cites&#45;&gt;RFC5277</title>
<path fill="none" stroke="black" d="M569.45,-946.55C545.45,-856.96 439.83,-462.79 401.55,-319.91"/>
<polygon fill="black" stroke="black" points="404.95,-319.08 398.98,-310.32 398.18,-320.89 404.95,-319.08"/>
</g>
<!-- RFC8347 -->
<g id="node13" class="node">
<title>RFC8347</title>
<g id="a_node13"><a xlink:href="RFC8347.html" xlink:title="This document describes a data model for the Virtual Router Redundancy Protocol (VRRP). &#160;Both versions 2 and 3 of VRRP are covered." target="_top">
<ellipse fill="none" stroke="black" cx="761.08" cy="-52.33" rx="181.55" ry="52.33"/>
<text xml:space="preserve" text-anchor="middle" x="761.08" y="-72.03" font-family="Times,serif" font-size="14.00">RFC8347</text>
<text xml:space="preserve" text-anchor="middle" x="761.08" y="-55.53" font-family="Times,serif" font-size="14.00">A YANG Data Model for the Virtual Router</text>
<text xml:space="preserve" text-anchor="middle" x="761.08" y="-39.03" font-family="Times,serif" font-size="14.00">Redundancy Protocol (VRRP)</text>
<text xml:space="preserve" text-anchor="middle" x="761.08" y="-22.53" font-family="Times,serif" font-size="14.00">2018</text>
</a>
</g>
</g>
<!-- cites&#45;&gt;RFC8347 -->
<g id="edge12" class="edge">
<title>cites&#45;&gt;RFC8347</title>
<path fill="none" stroke="black" d="M578.08,-946.61C599.76,-840.69 709.86,-302.66 748.03,-116.12"/>
<polygon fill="black" stroke="black" points="751.45,-116.85 750.03,-106.35 744.59,-115.45 751.45,-116.85"/>
</g>
<!-- rev_cites -->
<g id="node14" class="node">
<title>rev_cites</title>
<polygon fill="lightblue" stroke="black" points="1406.05,-767.21 1352.05,-767.21 1352.05,-731.21 1406.05,-731.21 1406.05,-767.21"/>
<text xml:space="preserve" text-anchor="middle" x="1379.05" y="-744.16" font-family="Times,serif" font-size="14.00">cites</text>
</g>
<!-- RFC8639&#45;&gt;rev_cites -->
<g id="edge14" class="edge">
<title>RFC8639&#45;&gt;rev_cites</title>
<path fill="none" stroke="black" d="M788.43,-1621.34C893.72,-1465.86 1271.4,-908.18 1360.24,-776.99"/>
<polygon fill="black" stroke="black" points="1363.03,-779.12 1365.74,-768.87 1357.23,-775.19 1363.03,-779.12"/>
</g>
<!-- RFC8641&#45;&gt;rev_cites -->
<g id="edge15" class="edge">
<title>RFC8641&#45;&gt;rev_cites</title>
<path fill="none" stroke="black" d="M455.77,-1398.2C649.5,-1262.03 1198.77,-875.94 1343.65,-774.1"/>
<polygon fill="black" stroke="black" points="1345.58,-777.02 1351.75,-768.4 1341.56,-771.29 1345.58,-777.02"/>
</g>
<!-- rev_cites&#45;&gt;RFC8640 -->
<g id="edge13" class="edge">
<title>rev_cites&#45;&gt;RFC8640</title>
<path fill="none" stroke="black" d="M1351.71,-756.54C1311.76,-767.25 1234.06,-788.06 1159.71,-807.99"/>
<polygon fill="black" stroke="black" points="1158.98,-804.56 1150.23,-810.53 1160.79,-811.32 1158.98,-804.56"/>
</g>
<!-- RFC8650 -->
<g id="node15" class="node">
<title>RFC8650</title>
<g id="a_node15"><a xlink:href="RFC8650.html" xlink:title="This document provides a RESTCONF binding to the dynamic subscription capability of both subscribed notifications and YANG&#45;Push." target="_top">
<ellipse fill="none" stroke="black" cx="1781.4" cy="-641.41" rx="181.55" ry="52.33"/>
<text xml:space="preserve" text-anchor="middle" x="1781.4" y="-661.11" font-family="Times,serif" font-size="14.00">RFC8650</text>
<text xml:space="preserve" text-anchor="middle" x="1781.4" y="-644.61" font-family="Times,serif" font-size="14.00">Dynamic Subscription to YANG Events and</text>
<text xml:space="preserve" text-anchor="middle" x="1781.4" y="-628.11" font-family="Times,serif" font-size="14.00">Datastores over RESTCONF</text>
<text xml:space="preserve" text-anchor="middle" x="1781.4" y="-611.61" font-family="Times,serif" font-size="14.00">2019</text>
</a>
</g>
</g>
<!-- RFC8650&#45;&gt;rev_cites -->
<g id="edge16" class="edge">
<title>RFC8650&#45;&gt;rev_cites</title>
<path fill="none" stroke="black" d="M1647.7,-677.23C1566.96,-698.86 1469.81,-724.89 1417.29,-738.97"/>
<polygon fill="black" stroke="black" points="1416.69,-735.51 1407.93,-741.48 1418.5,-742.27 1416.69,-735.51"/>
</g>
</g>
</svg>
