<?xml version="1.0" encoding="UTF-8" standalone="no"?>
<!DOCTYPE svg PUBLIC "-//W3C//DTD SVG 1.1//EN"
 "http://www.w3.org/Graphics/SVG/1.1/DTD/svg11.dtd">
<!-- Generated by graphviz version 14.1.1 (20251213.1925)
 -->
<!-- Title: Flow Pages: 1 -->
<svg width="984pt" height="621pt"
 viewBox="0.00 0.00 984.00 621.00" xmlns="http://www.w3.org/2000/svg" xmlns:xlink="http://www.w3.org/1999/xlink">
<g id="graph0" class="graph" transform="scale(1 1) rotate(0) translate(4 616.7)">
<title>Flow</title>
<polygon fill="white" stroke="none" points="-4,4 -4,-616.7 979.58,-616.7 979.58,4 -4,4"/>
<!-- RFC8869 -->
<g id="node1" class="node">
<title>RFC8869</title>
<g id="a_node1"><a xlink:title="The Real&#45;time Transport Protocol (RTP) is a common transport choice for interactive multimedia communication applications. &#160;The performance of these applications typically depends on a well&#45;functioning congestion control algorithm. &#160;To ensure a seamless and robust user experience, a well&#45;designed RTP&#45;based congestion control algorithm should work well across all access network types. &#160;This document describes test cases for evaluating performances of candidate congestion control algorithms over cellular and Wi&#45;Fi networks.">
<ellipse fill="none" stroke="black" cx="266.44" cy="-230.38" rx="175.19" ry="52.33"/>
<text xml:space="preserve" text-anchor="middle" x="266.44" y="-250.08" font-family="Times,serif" font-size="14.00">RFC8869</text>
<text xml:space="preserve" text-anchor="middle" x="266.44" y="-233.58" font-family="Times,serif" font-size="14.00">Evaluation Test Cases for Interactive</text>
<text xml:space="preserve" text-anchor="middle" x="266.44" y="-217.08" font-family="Times,serif" font-size="14.00">Real&#45;Time Media over Wireless Networks</text>
<text xml:space="preserve" text-anchor="middle" x="266.44" y="-200.58" font-family="Times,serif" font-size="14.00">2021</text>
</a>
</g>
</g>
<!-- obs -->
<g id="node3" class="node">
<title>obs</title>
<polygon fill="none" stroke="black" points="532.87,-329.38 466.62,-329.38 466.62,-293.38 532.87,-293.38 532.87,-329.38"/>
<text xml:space="preserve" text-anchor="middle" x="499.75" y="-306.33" font-family="Times,serif" font-size="14.00">obsoletes</text>
</g>
<!-- RFC8869&#45;&gt;obs -->
<g id="edge2" class="edge">
<title>RFC8869&#45;&gt;obs</title>
<path fill="none" stroke="black" d="M381.4,-270.28C407.88,-279.56 434.49,-288.87 455.65,-296.29"/>
<polygon fill="black" stroke="black" points="454.48,-299.58 465.08,-299.59 456.79,-292.98 454.48,-299.58"/>
</g>
<!-- updates -->
<g id="node4" class="node">
<title>updates</title>
<polygon fill="none" stroke="black" points="528.37,-275.38 471.12,-275.38 471.12,-239.38 528.37,-239.38 528.37,-275.38"/>
<text xml:space="preserve" text-anchor="middle" x="499.75" y="-252.33" font-family="Times,serif" font-size="14.00">updates</text>
</g>
<!-- RFC8869&#45;&gt;updates -->
<g id="edge3" class="edge">
<title>RFC8869&#45;&gt;updates</title>
<path fill="none" stroke="black" d="M430.28,-249.38C440.81,-250.61 450.71,-251.77 459.53,-252.8"/>
<polygon fill="black" stroke="black" points="459.01,-256.26 469.35,-253.94 459.82,-249.31 459.01,-256.26"/>
</g>
<!-- cites -->
<g id="node6" class="node">
<title>cites</title>
<polygon fill="none" stroke="black" points="526.75,-221.38 472.75,-221.38 472.75,-185.38 526.75,-185.38 526.75,-221.38"/>
<text xml:space="preserve" text-anchor="middle" x="499.75" y="-198.33" font-family="Times,serif" font-size="14.00">cites</text>
</g>
<!-- RFC8869&#45;&gt;cites -->
<g id="edge5" class="edge">
<title>RFC8869&#45;&gt;cites</title>
<path fill="none" stroke="black" d="M430.28,-211.37C441.45,-210.06 451.91,-208.84 461.13,-207.77"/>
<polygon fill="black" stroke="black" points="461.46,-211.25 470.99,-206.62 460.65,-204.3 461.46,-211.25"/>
</g>
<!-- obs_by -->
<g id="node2" class="node">
<title>obs_by</title>
<polygon fill="none" stroke="black" points="66.25,-275.38 0,-275.38 0,-239.38 66.25,-239.38 66.25,-275.38"/>
<text xml:space="preserve" text-anchor="middle" x="33.12" y="-252.33" font-family="Times,serif" font-size="14.00">obsoletes</text>
</g>
<!-- obs_by&#45;&gt;RFC8869 -->
<g id="edge1" class="edge">
<title>obs_by&#45;&gt;RFC8869</title>
<path fill="none" stroke="black" d="M66.29,-253.62C73.87,-252.74 82.48,-251.73 91.76,-250.65"/>
<polygon fill="black" stroke="black" points="91.92,-254.15 101.45,-249.52 91.11,-247.2 91.92,-254.15"/>
</g>
<!-- updated_by -->
<g id="node5" class="node">
<title>updated_by</title>
<polygon fill="none" stroke="black" points="61.75,-221.38 4.5,-221.38 4.5,-185.38 61.75,-185.38 61.75,-221.38"/>
<text xml:space="preserve" text-anchor="middle" x="33.12" y="-198.33" font-family="Times,serif" font-size="14.00">updates</text>
</g>
<!-- updated_by&#45;&gt;RFC8869 -->
<g id="edge4" class="edge">
<title>updated_by&#45;&gt;RFC8869</title>
<path fill="none" stroke="black" d="M62.03,-206.63C70.5,-207.62 80.49,-208.79 91.43,-210.07"/>
<polygon fill="black" stroke="black" points="90.82,-213.52 101.16,-211.2 91.63,-206.56 90.82,-213.52"/>
</g>
<!-- RFC8867 -->
<g id="node7" class="node">
<title>RFC8867</title>
<g id="a_node7"><a xlink:href="RFC8867.html" xlink:title="The Real&#45;time Transport Protocol (RTP) is used to transmit media in multimedia telephony applications. &#160;These applications are typically required to implement congestion control. &#160;This document describes the test cases to be used in the performance evaluation of such congestion control algorithms in a controlled environment." target="_top">
<ellipse fill="none" stroke="black" cx="727.22" cy="-437.38" rx="169.35" ry="52.33"/>
<text xml:space="preserve" text-anchor="middle" x="727.22" y="-457.08" font-family="Times,serif" font-size="14.00">RFC8867</text>
<text xml:space="preserve" text-anchor="middle" x="727.22" y="-440.58" font-family="Times,serif" font-size="14.00">Test Cases for Evaluating Congestion</text>
<text xml:space="preserve" text-anchor="middle" x="727.22" y="-424.08" font-family="Times,serif" font-size="14.00">Control for Interactive Real&#45;Time Media</text>
<text xml:space="preserve" text-anchor="middle" x="727.22" y="-407.58" font-family="Times,serif" font-size="14.00">2021</text>
</a>
</g>
</g>
<!-- cites&#45;&gt;RFC8867 -->
<g id="edge6" class="edge">
<title>cites&#45;&gt;RFC8867</title>
<path fill="none" stroke="black" d="M526.15,-221.55C528.73,-224.26 531.06,-227.22 532.87,-230.38 565.44,-287.09 516.03,-325.12 557.87,-375.38 565.42,-384.45 574.43,-392.19 584.29,-398.8"/>
<polygon fill="black" stroke="black" points="582.35,-401.72 592.7,-404 586.04,-395.76 582.35,-401.72"/>
</g>
<!-- RFC8868 -->
<g id="node8" class="node">
<title>RFC8868</title>
<g id="a_node8"><a xlink:href="RFC8868.html" xlink:title="The Real&#45;Time Transport Protocol (RTP) is used to transmit media in telephony and video conferencing applications. &#160;This document describes the guidelines to evaluate new congestion control algorithms for interactive point&#45;to&#45;point real&#45;time media." target="_top">
<ellipse fill="none" stroke="black" cx="727.22" cy="-314.38" rx="144.43" ry="52.33"/>
<text xml:space="preserve" text-anchor="middle" x="727.22" y="-334.08" font-family="Times,serif" font-size="14.00">RFC8868</text>
<text xml:space="preserve" text-anchor="middle" x="727.22" y="-317.58" font-family="Times,serif" font-size="14.00">Evaluating Congestion Control for</text>
<text xml:space="preserve" text-anchor="middle" x="727.22" y="-301.08" font-family="Times,serif" font-size="14.00">Interactive Real&#45;Time Media</text>
<text xml:space="preserve" text-anchor="middle" x="727.22" y="-284.58" font-family="Times,serif" font-size="14.00">2021</text>
</a>
</g>
</g>
<!-- cites&#45;&gt;RFC8868 -->
<g id="edge7" class="edge">
<title>cites&#45;&gt;RFC8868</title>
<path fill="none" stroke="black" d="M522.98,-221.84C526.31,-224.67 529.7,-227.59 532.87,-230.38 544.21,-240.35 544.97,-245.54 557.87,-253.38 572.37,-262.18 588.33,-270 604.47,-276.86"/>
<polygon fill="black" stroke="black" points="603.12,-280.08 613.7,-280.65 605.78,-273.61 603.12,-280.08"/>
</g>
<!-- RFC5681 -->
<g id="node9" class="node">
<title>RFC5681</title>
<g id="a_node9"><a xlink:href="RFC5681.html" xlink:title="This document defines TCP&#39;s four intertwined congestion control algorithms: slow start, congestion avoidance, fast retransmit, and fast recovery. &#160;In addition, the document specifies how TCP should begin transmission after a relatively long idle period, as well as discussing various acknowledgment generation methods. &#160;This document obsoletes RFC 2581. [STANDARDS&#45;TRACK]" target="_top">
<ellipse fill="none" stroke="black" cx="727.22" cy="-203.38" rx="106.24" ry="40.66"/>
<text xml:space="preserve" text-anchor="middle" x="727.22" y="-214.83" font-family="Times,serif" font-size="14.00">RFC5681</text>
<text xml:space="preserve" text-anchor="middle" x="727.22" y="-198.33" font-family="Times,serif" font-size="14.00">TCP Congestion Control</text>
<text xml:space="preserve" text-anchor="middle" x="727.22" y="-181.83" font-family="Times,serif" font-size="14.00">2009</text>
</a>
</g>
</g>
<!-- cites&#45;&gt;RFC5681 -->
<g id="edge8" class="edge">
<title>cites&#45;&gt;RFC5681</title>
<path fill="none" stroke="black" d="M527.05,-203.38C547.8,-203.38 578.3,-203.38 609.23,-203.38"/>
<polygon fill="black" stroke="black" points="609.11,-206.88 619.11,-203.38 609.11,-199.88 609.11,-206.88"/>
</g>
<!-- RFC2914 -->
<g id="node10" class="node">
<title>RFC2914</title>
<g id="a_node10"><a xlink:href="RFC2914.html" xlink:title="The goal of this document is to explain the need for congestion control in the Internet, and to discuss what constitutes correct congestion control. &#160;This document specifies an Internet Best Current Practices for the Internet Community, and requests discussion and suggestions for improvements." target="_top">
<ellipse fill="none" stroke="black" cx="727.22" cy="-104.38" rx="127.46" ry="40.66"/>
<text xml:space="preserve" text-anchor="middle" x="727.22" y="-115.83" font-family="Times,serif" font-size="14.00">RFC2914</text>
<text xml:space="preserve" text-anchor="middle" x="727.22" y="-99.33" font-family="Times,serif" font-size="14.00">Congestion Control Principles</text>
<text xml:space="preserve" text-anchor="middle" x="727.22" y="-82.83" font-family="Times,serif" font-size="14.00">2000</text>
</a>
</g>
</g>
<!-- cites&#45;&gt;RFC2914 -->
<g id="edge9" class="edge">
<title>cites&#45;&gt;RFC2914</title>
<path fill="none" stroke="black" d="M517.72,-184.94C528.35,-174.37 542.84,-161.61 557.87,-153.38 574.28,-144.39 592.5,-136.9 610.73,-130.69"/>
<polygon fill="black" stroke="black" points="611.6,-134.09 620.01,-127.66 609.42,-127.44 611.6,-134.09"/>
</g>
<!-- rev_cites -->
<g id="node11" class="node">
<title>rev_cites</title>
<polygon fill="none" stroke="black" points="975.58,-393.38 921.58,-393.38 921.58,-357.38 975.58,-357.38 975.58,-393.38"/>
<text xml:space="preserve" text-anchor="middle" x="948.58" y="-370.33" font-family="Times,serif" font-size="14.00">cites</text>
</g>
<!-- RFC8867&#45;&gt;rev_cites -->
<g id="edge11" class="edge">
<title>RFC8867&#45;&gt;rev_cites</title>
<path fill="none" stroke="black" d="M853.28,-402.03C874.23,-396.11 894.41,-390.4 910.7,-385.8"/>
<polygon fill="black" stroke="black" points="911.18,-389.3 919.85,-383.21 909.28,-382.56 911.18,-389.3"/>
</g>
<!-- RFC8868&#45;&gt;rev_cites -->
<g id="edge12" class="edge">
<title>RFC8868&#45;&gt;rev_cites</title>
<path fill="none" stroke="black" d="M842.72,-346.22C867.15,-353.01 891.26,-359.72 910.19,-364.98"/>
<polygon fill="black" stroke="black" points="909.23,-368.35 919.81,-367.65 911.11,-361.6 909.23,-368.35"/>
</g>
<!-- rev_cites&#45;&gt;RFC8869 -->
<g id="edge10" class="edge">
<title>rev_cites&#45;&gt;RFC8869</title>
<path fill="none" stroke="black" d="M947.62,-357.21C947.37,-295.27 942.93,-93.94 896.58,-54.38 732.1,86.03 463.61,-80.35 337.3,-174.41"/>
<polygon fill="black" stroke="black" points="335.56,-171.34 329.66,-180.15 339.76,-176.94 335.56,-171.34"/>
</g>
<!-- RFC9743 -->
<g id="node12" class="node">
<title>RFC9743</title>
<g id="a_node12"><a xlink:href="RFC9743.html" xlink:title="RFC 5033 discusses the principles and guidelines for standardizing new congestion control algorithms. &#160;This document obsoletes RFC 5033 to reflect changes in the congestion control landscape by providing a framework for the development and assessment of congestion control mechanisms, promoting stability across diverse network paths. &#160;This document seeks to ensure that proposed congestion control algorithms operate efficiently and without harm when used in the global Internet. &#160;It emphasizes the need for comprehensive testing and validation to prevent adverse interactions with existing flows." target="_top">
<ellipse fill="none" stroke="black" cx="727.22" cy="-560.38" rx="151.32" ry="52.33"/>
<text xml:space="preserve" text-anchor="middle" x="727.22" y="-580.08" font-family="Times,serif" font-size="14.00">RFC9743</text>
<text xml:space="preserve" text-anchor="middle" x="727.22" y="-563.58" font-family="Times,serif" font-size="14.00">Specifying New Congestion Control</text>
<text xml:space="preserve" text-anchor="middle" x="727.22" y="-547.08" font-family="Times,serif" font-size="14.00">Algorithms</text>
<text xml:space="preserve" text-anchor="middle" x="727.22" y="-530.58" font-family="Times,serif" font-size="14.00">2025</text>
</a>
</g>
</g>
<!-- RFC9743&#45;&gt;rev_cites -->
<g id="edge13" class="edge">
<title>RFC9743&#45;&gt;rev_cites</title>
<path fill="none" stroke="black" d="M849.9,-529.56C866.96,-521.43 883.21,-511.21 896.58,-498.38 922.83,-473.15 936.09,-432.41 942.4,-404.79"/>
<polygon fill="black" stroke="black" points="945.76,-405.83 944.38,-395.32 938.9,-404.39 945.76,-405.83"/>
</g>
</g>
</svg>
