<?xml version="1.0" encoding="UTF-8" standalone="no"?>
<!DOCTYPE svg PUBLIC "-//W3C//DTD SVG 1.1//EN"
 "http://www.w3.org/Graphics/SVG/1.1/DTD/svg11.dtd">
<!-- Generated by graphviz version 14.1.1 (20251213.1925)
 -->
<!-- Title: Flow Pages: 1 -->
<svg width="1677pt" height="1672pt"
 viewBox="0.00 0.00 1677.00 1672.00" xmlns="http://www.w3.org/2000/svg" xmlns:xlink="http://www.w3.org/1999/xlink">
<g id="graph0" class="graph" transform="scale(1 1) rotate(0) translate(4 1668.13)">
<title>Flow</title>
<polygon fill="white" stroke="none" points="-4,4 -4,-1668.13 1672.99,-1668.13 1672.99,4 -4,4"/>
<!-- RFC8958 -->
<g id="node1" class="node">
<title>RFC8958</title>
<g id="a_node1"><a xlink:title="This document updates RFC 3405 by removing references to the IETF tree from the procedures for requesting that a URI scheme be inserted into the URI.ARPA zone.">
<ellipse fill="green" stroke="black" stroke-width="3" cx="983.39" cy="-749.75" rx="231.93" ry="50.2"/>
<text xml:space="preserve" text-anchor="middle" x="983.39" y="-764.15" font-family="Times,serif" font-size="18.00">RFC8958</text>
<text xml:space="preserve" text-anchor="middle" x="983.39" y="-743.15" font-family="Times,serif" font-size="18.00">Updated Registration Rules for URI.ARPA</text>
<text xml:space="preserve" text-anchor="middle" x="983.39" y="-722.15" font-family="Times,serif" font-size="18.00">2020</text>
</a>
</g>
</g>
<!-- obs -->
<g id="node3" class="node">
<title>obs</title>
<polygon fill="lightblue" stroke="black" points="1426.45,-900.94 1360.2,-900.94 1360.2,-864.94 1426.45,-864.94 1426.45,-900.94"/>
<text xml:space="preserve" text-anchor="middle" x="1393.32" y="-877.89" font-family="Times,serif" font-size="14.00">obsoletes</text>
</g>
<!-- RFC8958&#45;&gt;obs -->
<g id="edge2" class="edge">
<title>RFC8958&#45;&gt;obs</title>
<path fill="none" stroke="black" d="M1114.78,-792.44C1195.41,-818.64 1293.55,-850.53 1349.19,-868.61"/>
<polygon fill="black" stroke="black" points="1348.04,-871.91 1358.63,-871.67 1350.2,-865.25 1348.04,-871.91"/>
</g>
<!-- updates -->
<g id="node4" class="node">
<title>updates</title>
<polygon fill="lightyellow" stroke="black" points="1265.37,-1116.46 1208.12,-1116.46 1208.12,-1080.46 1265.37,-1080.46 1265.37,-1116.46"/>
<text xml:space="preserve" text-anchor="middle" x="1236.74" y="-1093.41" font-family="Times,serif" font-size="14.00">updates</text>
</g>
<!-- RFC8958&#45;&gt;updates -->
<g id="edge3" class="edge">
<title>RFC8958&#45;&gt;updates</title>
<path fill="none" stroke="black" d="M1020.23,-800.45C1074.57,-875.25 1174.35,-1012.59 1216.79,-1071"/>
<polygon fill="black" stroke="black" points="1213.73,-1072.74 1222.44,-1078.77 1219.39,-1068.63 1213.73,-1072.74"/>
</g>
<!-- cites -->
<g id="node7" class="node">
<title>cites</title>
<polygon fill="lightblue" stroke="black" points="600.45,-900.94 546.45,-900.94 546.45,-864.94 600.45,-864.94 600.45,-900.94"/>
<text xml:space="preserve" text-anchor="middle" x="573.45" y="-877.89" font-family="Times,serif" font-size="14.00">cites</text>
</g>
<!-- RFC8958&#45;&gt;cites -->
<g id="edge6" class="edge">
<title>RFC8958&#45;&gt;cites</title>
<path fill="none" stroke="black" d="M851.99,-792.44C768.47,-819.58 666.16,-852.82 611.76,-870.5"/>
<polygon fill="black" stroke="black" points="610.77,-867.14 602.34,-873.56 612.93,-873.8 610.77,-867.14"/>
</g>
<!-- obs_by -->
<g id="node2" class="node">
<title>obs_by</title>
<polygon fill="lightblue" stroke="black" points="1016.51,-336.72 950.26,-336.72 950.26,-300.72 1016.51,-300.72 1016.51,-336.72"/>
<text xml:space="preserve" text-anchor="middle" x="983.39" y="-313.67" font-family="Times,serif" font-size="14.00">obsoletes</text>
</g>
<!-- obs_by&#45;&gt;RFC8958 -->
<g id="edge1" class="edge">
<title>obs_by&#45;&gt;RFC8958</title>
<path fill="none" stroke="black" d="M983.39,-336.96C983.39,-396.46 983.39,-586.75 983.39,-686.84"/>
<polygon fill="black" stroke="black" points="979.89,-686.78 983.39,-696.78 986.89,-686.78 979.89,-686.78"/>
</g>
<!-- RFC3405 -->
<g id="node5" class="node">
<title>RFC3405</title>
<g id="a_node5"><a xlink:href="RFC3405.html" xlink:title="This document is fifth in a series that is completely specified in Dynamic Delegation Discovery System (DDDS) Part One: The Comprehensive DDDS (RFC 3401). &#160;It is very important to note that it is impossible to read and understand any document in this series without reading the others. &#160;This document specifies an Internet Best Current Practices for the Internet Community, and requests discussion and suggestions for improvements." target="_top">
<ellipse fill="none" stroke="black" cx="1490.09" cy="-1447.17" rx="178.9" ry="63.99"/>
<text xml:space="preserve" text-anchor="middle" x="1490.09" y="-1475.12" font-family="Times,serif" font-size="14.00">RFC3405</text>
<text xml:space="preserve" text-anchor="middle" x="1490.09" y="-1458.62" font-family="Times,serif" font-size="14.00">Dynamic Delegation Discovery System</text>
<text xml:space="preserve" text-anchor="middle" x="1490.09" y="-1442.12" font-family="Times,serif" font-size="14.00">(DDDS) Part Five: URI.ARPA Assignment</text>
<text xml:space="preserve" text-anchor="middle" x="1490.09" y="-1425.62" font-family="Times,serif" font-size="14.00">Procedures</text>
<text xml:space="preserve" text-anchor="middle" x="1490.09" y="-1409.12" font-family="Times,serif" font-size="14.00">2002</text>
</a>
</g>
</g>
<!-- updates&#45;&gt;RFC3405 -->
<g id="edge4" class="edge">
<title>updates&#45;&gt;RFC3405</title>
<path fill="none" stroke="black" d="M1250.01,-1116.72C1284.51,-1164.21 1378.55,-1293.64 1438.17,-1375.71"/>
<polygon fill="black" stroke="black" points="1435.31,-1377.72 1444.02,-1383.75 1440.97,-1373.61 1435.31,-1377.72"/>
</g>
<!-- updated_by -->
<g id="node6" class="node">
<title>updated_by</title>
<polygon fill="lightyellow" stroke="black" points="1265.37,-419.04 1208.12,-419.04 1208.12,-383.04 1265.37,-383.04 1265.37,-419.04"/>
<text xml:space="preserve" text-anchor="middle" x="1236.74" y="-395.99" font-family="Times,serif" font-size="14.00">updates</text>
</g>
<!-- updated_by&#45;&gt;RFC8958 -->
<g id="edge5" class="edge">
<title>updated_by&#45;&gt;RFC8958</title>
<path fill="none" stroke="black" d="M1223.48,-419.29C1187.3,-469.09 1085.71,-608.91 1026.92,-689.83"/>
<polygon fill="black" stroke="black" points="1024.25,-687.54 1021.21,-697.69 1029.92,-691.66 1024.25,-687.54"/>
</g>
<!-- cites&#45;&gt;RFC3405 -->
<g id="edge7" class="edge">
<title>cites&#45;&gt;RFC3405</title>
<path fill="none" stroke="black" d="M600.89,-899.83C718.47,-972.21 1183.28,-1258.32 1390.03,-1385.58"/>
<polygon fill="black" stroke="black" points="1388.04,-1388.46 1398.39,-1390.72 1391.71,-1382.5 1388.04,-1388.46"/>
</g>
<!-- RFC2717 -->
<g id="node8" class="node">
<title>RFC2717</title>
<g id="a_node8"><a xlink:href="RFC2717.html" xlink:title="This document defines the process by which new URL scheme names are registered. &#160;This document specifies an Internet Best Current Practices for the Internet Community, and requests discussion and suggestions for improvements." target="_top">
<ellipse fill="none" stroke="black" cx="983.39" cy="-1611.81" rx="171.47" ry="52.33"/>
<text xml:space="preserve" text-anchor="middle" x="983.39" y="-1631.51" font-family="Times,serif" font-size="14.00">RFC2717</text>
<text xml:space="preserve" text-anchor="middle" x="983.39" y="-1615.01" font-family="Times,serif" font-size="14.00">Registration Procedures for URL Scheme</text>
<text xml:space="preserve" text-anchor="middle" x="983.39" y="-1598.51" font-family="Times,serif" font-size="14.00">Names</text>
<text xml:space="preserve" text-anchor="middle" x="983.39" y="-1582.01" font-family="Times,serif" font-size="14.00">1999</text>
</a>
</g>
</g>
<!-- cites&#45;&gt;RFC2717 -->
<g id="edge8" class="edge">
<title>cites&#45;&gt;RFC2717</title>
<path fill="none" stroke="black" d="M583.79,-901.33C634.85,-992.11 861.15,-1394.46 948.67,-1550.07"/>
<polygon fill="black" stroke="black" points="945.53,-1551.64 953.48,-1558.64 951.63,-1548.21 945.53,-1551.64"/>
</g>
<!-- RFC4395 -->
<g id="node9" class="node">
<title>RFC4395</title>
<g id="a_node9"><a xlink:href="RFC4395.html" xlink:title="This document provides guidelines and recommendations for the definition of Uniform Resource Identifier (URI) schemes. &#160;It also updates the process and IANA registry for URI schemes. &#160;It obsoletes both RFC 2717 and RFC 2718. &#160;This document specifies an Internet Best Current Practices for the Internet Community, and requests discussion and suggestions for improvements." target="_top">
<ellipse fill="none" stroke="black" cx="476.68" cy="-1447.17" rx="163.52" ry="52.33"/>
<text xml:space="preserve" text-anchor="middle" x="476.68" y="-1466.87" font-family="Times,serif" font-size="14.00">RFC4395</text>
<text xml:space="preserve" text-anchor="middle" x="476.68" y="-1450.37" font-family="Times,serif" font-size="14.00">Guidelines and Registration Procedures</text>
<text xml:space="preserve" text-anchor="middle" x="476.68" y="-1433.87" font-family="Times,serif" font-size="14.00">for New URI Schemes</text>
<text xml:space="preserve" text-anchor="middle" x="476.68" y="-1417.37" font-family="Times,serif" font-size="14.00">2006</text>
</a>
</g>
</g>
<!-- cites&#45;&gt;RFC4395 -->
<g id="edge9" class="edge">
<title>cites&#45;&gt;RFC4395</title>
<path fill="none" stroke="black" d="M570.29,-901.4C557.51,-975.88 509.39,-1256.45 487.56,-1383.71"/>
<polygon fill="black" stroke="black" points="484.16,-1382.87 485.92,-1393.31 491.06,-1384.05 484.16,-1382.87"/>
</g>
<!-- RFC7595 -->
<g id="node10" class="node">
<title>RFC7595</title>
<g id="a_node10"><a xlink:href="RFC7595.html" xlink:title="This document updates the guidelines and recommendations, as well as the IANA registration processes, for the definition of Uniform Resource Identifier (URI) schemes. &#160;It obsoletes RFC 4395." target="_top">
<ellipse fill="none" stroke="black" cx="163.52" cy="-1016.14" rx="163.52" ry="52.33"/>
<text xml:space="preserve" text-anchor="middle" x="163.52" y="-1035.84" font-family="Times,serif" font-size="14.00">RFC7595</text>
<text xml:space="preserve" text-anchor="middle" x="163.52" y="-1019.34" font-family="Times,serif" font-size="14.00">Guidelines and Registration Procedures</text>
<text xml:space="preserve" text-anchor="middle" x="163.52" y="-1002.84" font-family="Times,serif" font-size="14.00">for URI Schemes</text>
<text xml:space="preserve" text-anchor="middle" x="163.52" y="-986.34" font-family="Times,serif" font-size="14.00">2015</text>
</a>
</g>
</g>
<!-- cites&#45;&gt;RFC7595 -->
<g id="edge10" class="edge">
<title>cites&#45;&gt;RFC7595</title>
<path fill="none" stroke="black" d="M546.24,-891.79C494.77,-908.51 380.24,-945.72 289.8,-975.11"/>
<polygon fill="black" stroke="black" points="288.76,-971.76 280.34,-978.18 290.93,-978.42 288.76,-971.76"/>
</g>
<!-- RFC2119 -->
<g id="node11" class="node">
<title>RFC2119</title>
<g id="a_node11"><a xlink:href="RFC2119.html" xlink:title="In many standards track documents several words are used to signify the requirements in the specification. &#160;These words are often capitalized. &#160;This document defines these words as they should be interpreted in IETF documents. &#160;This document specifies an Internet Best Current Practices for the Internet Community, and requests discussion and suggestions for improvements." target="_top">
<ellipse fill="none" stroke="black" cx="163.52" cy="-483.36" rx="160.34" ry="52.33"/>
<text xml:space="preserve" text-anchor="middle" x="163.52" y="-503.06" font-family="Times,serif" font-size="14.00">RFC2119</text>
<text xml:space="preserve" text-anchor="middle" x="163.52" y="-486.56" font-family="Times,serif" font-size="14.00">Key words for use in RFCs to Indicate</text>
<text xml:space="preserve" text-anchor="middle" x="163.52" y="-470.06" font-family="Times,serif" font-size="14.00">Requirement Levels</text>
<text xml:space="preserve" text-anchor="middle" x="163.52" y="-453.56" font-family="Times,serif" font-size="14.00">1997</text>
</a>
</g>
</g>
<!-- cites&#45;&gt;RFC2119 -->
<g id="edge11" class="edge">
<title>cites&#45;&gt;RFC2119</title>
<path fill="none" stroke="black" d="M554.5,-864.47C496.06,-807.5 316.86,-632.83 222.71,-541.06"/>
<polygon fill="black" stroke="black" points="225.39,-538.78 215.79,-534.31 220.5,-543.79 225.39,-538.78"/>
</g>
<!-- RFC8174 -->
<g id="node12" class="node">
<title>RFC8174</title>
<g id="a_node12"><a xlink:href="RFC8174.html" xlink:title="RFC 2119 specifies common key words that may be used in protocol specifications. &#160;This document aims to reduce the ambiguity by clarifying that only UPPERCASE usage of the key words have the defined special meanings." target="_top">
<ellipse fill="none" stroke="black" cx="476.68" cy="-52.33" rx="172" ry="52.33"/>
<text xml:space="preserve" text-anchor="middle" x="476.68" y="-72.03" font-family="Times,serif" font-size="14.00">RFC8174</text>
<text xml:space="preserve" text-anchor="middle" x="476.68" y="-55.53" font-family="Times,serif" font-size="14.00">Ambiguity of Uppercase vs Lowercase in</text>
<text xml:space="preserve" text-anchor="middle" x="476.68" y="-39.03" font-family="Times,serif" font-size="14.00">RFC 2119 Key Words</text>
<text xml:space="preserve" text-anchor="middle" x="476.68" y="-22.53" font-family="Times,serif" font-size="14.00">2017</text>
</a>
</g>
</g>
<!-- cites&#45;&gt;RFC8174 -->
<g id="edge12" class="edge">
<title>cites&#45;&gt;RFC8174</title>
<path fill="none" stroke="black" d="M571.34,-864.82C559.83,-765.98 504.37,-289.98 484.11,-116.1"/>
<polygon fill="black" stroke="black" points="487.61,-115.87 482.97,-106.34 480.65,-116.68 487.61,-115.87"/>
</g>
<!-- rev_cites -->
<g id="node13" class="node">
<title>rev_cites</title>
<polygon fill="lightblue" stroke="black" points="1420.32,-634.55 1366.32,-634.55 1366.32,-598.55 1420.32,-598.55 1420.32,-634.55"/>
<text xml:space="preserve" text-anchor="middle" x="1393.32" y="-611.5" font-family="Times,serif" font-size="14.00">cites</text>
</g>
<!-- rev_cites&#45;&gt;RFC8958 -->
<g id="edge13" class="edge">
<title>rev_cites&#45;&gt;RFC8958</title>
<path fill="none" stroke="black" d="M1366.11,-625.39C1317.61,-641.15 1213.12,-675.1 1125.55,-703.56"/>
<polygon fill="black" stroke="black" points="1124.56,-700.2 1116.13,-706.62 1126.72,-706.86 1124.56,-700.2"/>
</g>
</g>
</svg>
