<?xml version="1.0" encoding="UTF-8" standalone="no"?>
<!DOCTYPE svg PUBLIC "-//W3C//DTD SVG 1.1//EN"
 "http://www.w3.org/Graphics/SVG/1.1/DTD/svg11.dtd">
<!-- Generated by graphviz version 14.1.1 (20251213.1925)
 -->
<!-- Title: Flow Pages: 1 -->
<svg width="1475pt" height="1709pt"
 viewBox="0.00 0.00 1475.00 1709.00" xmlns="http://www.w3.org/2000/svg" xmlns:xlink="http://www.w3.org/1999/xlink">
<g id="graph0" class="graph" transform="scale(1 1) rotate(0) translate(4 1704.51)">
<title>Flow</title>
<polygon fill="white" stroke="none" points="-4,4 -4,-1704.51 1470.54,-1704.51 1470.54,4 -4,4"/>
<!-- RFC8357 -->
<g id="node1" class="node">
<title>RFC8357</title>
<g id="a_node1"><a xlink:title="This document defines an extension to the DHCP protocols that allows a relay agent to use any available source port for upstream communications. &#160;The extension also allows inclusion of a DHCP option that can be used to statelessly route responses back to the appropriate source port on downstream communications.">
<ellipse fill="green" stroke="black" stroke-width="3" cx="1024.46" cy="-816.08" rx="219.73" ry="65.05"/>
<text xml:space="preserve" text-anchor="middle" x="1024.46" y="-840.98" font-family="Times,serif" font-size="18.00">RFC8357</text>
<text xml:space="preserve" text-anchor="middle" x="1024.46" y="-819.98" font-family="Times,serif" font-size="18.00">Generalized UDP Source Port for DHCP</text>
<text xml:space="preserve" text-anchor="middle" x="1024.46" y="-798.98" font-family="Times,serif" font-size="18.00">Relay</text>
<text xml:space="preserve" text-anchor="middle" x="1024.46" y="-777.98" font-family="Times,serif" font-size="18.00">2018</text>
</a>
</g>
</g>
<!-- obs -->
<g id="node3" class="node">
<title>obs</title>
<polygon fill="lightblue" stroke="black" points="1466.54,-954.16 1400.29,-954.16 1400.29,-918.16 1466.54,-918.16 1466.54,-954.16"/>
<text xml:space="preserve" text-anchor="middle" x="1433.42" y="-931.11" font-family="Times,serif" font-size="14.00">obsoletes</text>
</g>
<!-- RFC8357&#45;&gt;obs -->
<g id="edge2" class="edge">
<title>RFC8357&#45;&gt;obs</title>
<path fill="none" stroke="black" d="M1182.57,-862.5C1256.81,-884.3 1339.65,-908.63 1389.1,-923.15"/>
<polygon fill="black" stroke="black" points="1388,-926.47 1398.58,-925.93 1389.97,-919.75 1388,-926.47"/>
</g>
<!-- updates -->
<g id="node4" class="node">
<title>updates</title>
<polygon fill="lightyellow" stroke="black" points="1332.2,-1156.2 1274.95,-1156.2 1274.95,-1120.2 1332.2,-1120.2 1332.2,-1156.2"/>
<text xml:space="preserve" text-anchor="middle" x="1303.58" y="-1133.15" font-family="Times,serif" font-size="14.00">updates</text>
</g>
<!-- RFC8357&#45;&gt;updates -->
<g id="edge3" class="edge">
<title>RFC8357&#45;&gt;updates</title>
<path fill="none" stroke="black" d="M1079.93,-880.1C1141.13,-950.72 1236.7,-1061.02 1280.38,-1111.43"/>
<polygon fill="black" stroke="black" points="1277.49,-1113.43 1286.68,-1118.7 1282.78,-1108.85 1277.49,-1113.43"/>
</g>
<!-- cites -->
<g id="node6" class="node">
<title>cites</title>
<polygon fill="lightblue" stroke="black" points="642.5,-954.16 588.5,-954.16 588.5,-918.16 642.5,-918.16 642.5,-954.16"/>
<text xml:space="preserve" text-anchor="middle" x="615.5" y="-931.11" font-family="Times,serif" font-size="14.00">cites</text>
</g>
<!-- RFC8357&#45;&gt;cites -->
<g id="edge5" class="edge">
<title>RFC8357&#45;&gt;cites</title>
<path fill="none" stroke="black" d="M866.34,-862.5C788.93,-885.23 702.17,-910.71 653.65,-924.95"/>
<polygon fill="black" stroke="black" points="652.81,-921.55 644.2,-927.73 654.78,-928.27 652.81,-921.55"/>
</g>
<!-- obs_by -->
<g id="node2" class="node">
<title>obs_by</title>
<polygon fill="lightblue" stroke="black" points="1118.24,-412.19 1051.99,-412.19 1051.99,-376.19 1118.24,-376.19 1118.24,-412.19"/>
<text xml:space="preserve" text-anchor="middle" x="1085.11" y="-389.14" font-family="Times,serif" font-size="14.00">obsoletes</text>
</g>
<!-- obs_by&#45;&gt;RFC8357 -->
<g id="edge1" class="edge">
<title>obs_by&#45;&gt;RFC8357</title>
<path fill="none" stroke="black" d="M1082.47,-412.59C1074.46,-468.33 1050.11,-637.67 1035.63,-738.38"/>
<polygon fill="black" stroke="black" points="1032.17,-737.82 1034.21,-748.21 1039.1,-738.81 1032.17,-737.82"/>
</g>
<!-- updated_by -->
<g id="node5" class="node">
<title>updated_by</title>
<polygon fill="lightyellow" stroke="black" points="1332.2,-511.96 1274.95,-511.96 1274.95,-475.96 1332.2,-475.96 1332.2,-511.96"/>
<text xml:space="preserve" text-anchor="middle" x="1303.58" y="-488.91" font-family="Times,serif" font-size="14.00">updates</text>
</g>
<!-- updated_by&#45;&gt;RFC8357 -->
<g id="edge4" class="edge">
<title>updated_by&#45;&gt;RFC8357</title>
<path fill="none" stroke="black" d="M1287.77,-512.2C1249.96,-555.83 1152.6,-668.19 1087.46,-743.37"/>
<polygon fill="black" stroke="black" points="1084.97,-740.89 1081.07,-750.74 1090.26,-745.48 1084.97,-740.89"/>
</g>
<!-- RFC2131 -->
<g id="node7" class="node">
<title>RFC2131</title>
<g id="a_node7"><a xlink:href="RFC2131.html" xlink:title="The Dynamic Host Configuration Protocol (DHCP) provides a framework for passing configuration information to hosts on a TCPIP network. &#160;DHCP is based on the Bootstrap Protocol (BOOTP), adding the capability of automatic allocation of reusable network addresses and additional configuration options. [STANDARDS&#45;TRACK]" target="_top">
<ellipse fill="none" stroke="black" cx="1145.77" cy="-1659.85" rx="158.75" ry="40.66"/>
<text xml:space="preserve" text-anchor="middle" x="1145.77" y="-1671.3" font-family="Times,serif" font-size="14.00">RFC2131</text>
<text xml:space="preserve" text-anchor="middle" x="1145.77" y="-1654.8" font-family="Times,serif" font-size="14.00">Dynamic Host Configuration Protocol</text>
<text xml:space="preserve" text-anchor="middle" x="1145.77" y="-1638.3" font-family="Times,serif" font-size="14.00">1997</text>
</a>
</g>
</g>
<!-- cites&#45;&gt;RFC2131 -->
<g id="edge6" class="edge">
<title>cites&#45;&gt;RFC2131</title>
<path fill="none" stroke="black" d="M628.87,-954.41C696.69,-1046.96 1003.5,-1465.69 1109.57,-1610.44"/>
<polygon fill="black" stroke="black" points="1106.63,-1612.35 1115.36,-1618.35 1112.28,-1608.22 1106.63,-1612.35"/>
</g>
<!-- RFC3315 -->
<g id="node8" class="node">
<title>RFC3315</title>
<g id="a_node8"><a xlink:href="RFC3315.html" xlink:title="None" target="_top">
<ellipse fill="none" stroke="black" cx="670.33" cy="-1591.49" rx="172.53" ry="52.33"/>
<text xml:space="preserve" text-anchor="middle" x="670.33" y="-1611.19" font-family="Times,serif" font-size="14.00">RFC3315</text>
<text xml:space="preserve" text-anchor="middle" x="670.33" y="-1594.69" font-family="Times,serif" font-size="14.00">Dynamic Host Configuration Protocol for</text>
<text xml:space="preserve" text-anchor="middle" x="670.33" y="-1578.19" font-family="Times,serif" font-size="14.00">IPv6 (DHCPv6)</text>
<text xml:space="preserve" text-anchor="middle" x="670.33" y="-1561.69" font-family="Times,serif" font-size="14.00">2003</text>
</a>
</g>
</g>
<!-- cites&#45;&gt;RFC3315 -->
<g id="edge7" class="edge">
<title>cites&#45;&gt;RFC3315</title>
<path fill="none" stroke="black" d="M617.02,-954.37C623.98,-1037.5 652.89,-1383.04 664.98,-1527.53"/>
<polygon fill="black" stroke="black" points="661.48,-1527.64 665.8,-1537.31 668.45,-1527.06 661.48,-1527.64"/>
</g>
<!-- RFC2119 -->
<g id="node9" class="node">
<title>RFC2119</title>
<g id="a_node9"><a xlink:href="RFC2119.html" xlink:title="In many standards track documents several words are used to signify the requirements in the specification. &#160;These words are often capitalized. &#160;This document defines these words as they should be interpreted in IETF documents. &#160;This document specifies an Internet Best Current Practices for the Internet Community, and requests discussion and suggestions for improvements." target="_top">
<ellipse fill="none" stroke="black" cx="307.33" cy="-1276.95" rx="160.34" ry="52.33"/>
<text xml:space="preserve" text-anchor="middle" x="307.33" y="-1296.65" font-family="Times,serif" font-size="14.00">RFC2119</text>
<text xml:space="preserve" text-anchor="middle" x="307.33" y="-1280.15" font-family="Times,serif" font-size="14.00">Key words for use in RFCs to Indicate</text>
<text xml:space="preserve" text-anchor="middle" x="307.33" y="-1263.65" font-family="Times,serif" font-size="14.00">Requirement Levels</text>
<text xml:space="preserve" text-anchor="middle" x="307.33" y="-1247.15" font-family="Times,serif" font-size="14.00">1997</text>
</a>
</g>
</g>
<!-- cites&#45;&gt;RFC2119 -->
<g id="edge8" class="edge">
<title>cites&#45;&gt;RFC2119</title>
<path fill="none" stroke="black" d="M598.93,-954.48C554.6,-1003.5 431.81,-1139.28 360.5,-1218.14"/>
<polygon fill="black" stroke="black" points="358.04,-1215.64 353.93,-1225.41 363.24,-1220.34 358.04,-1215.64"/>
</g>
<!-- RFC8174 -->
<g id="node10" class="node">
<title>RFC8174</title>
<g id="a_node10"><a xlink:href="RFC8174.html" xlink:title="RFC 2119 specifies common key words that may be used in protocol specifications. &#160;This document aims to reduce the ambiguity by clarifying that only UPPERCASE usage of the key words have the defined special meanings." target="_top">
<ellipse fill="none" stroke="black" cx="172" cy="-816.08" rx="172" ry="52.33"/>
<text xml:space="preserve" text-anchor="middle" x="172" y="-835.78" font-family="Times,serif" font-size="14.00">RFC8174</text>
<text xml:space="preserve" text-anchor="middle" x="172" y="-819.28" font-family="Times,serif" font-size="14.00">Ambiguity of Uppercase vs Lowercase in</text>
<text xml:space="preserve" text-anchor="middle" x="172" y="-802.78" font-family="Times,serif" font-size="14.00">RFC 2119 Key Words</text>
<text xml:space="preserve" text-anchor="middle" x="172" y="-786.28" font-family="Times,serif" font-size="14.00">2017</text>
</a>
</g>
</g>
<!-- cites&#45;&gt;RFC8174 -->
<g id="edge9" class="edge">
<title>cites&#45;&gt;RFC8174</title>
<path fill="none" stroke="black" d="M588.09,-928.74C534.07,-914.11 410.55,-880.67 312.04,-853.99"/>
<polygon fill="black" stroke="black" points="313.1,-850.66 302.54,-851.42 311.27,-857.41 313.1,-850.66"/>
</g>
<!-- RFC3046 -->
<g id="node11" class="node">
<title>RFC3046</title>
<g id="a_node11"><a xlink:href="RFC3046.html" xlink:title="Newer high&#45;speed public Internet access technologies call for a high&#45; speed modem to have a local area network (LAN) attachment to one or more customer premise hosts. &#160;It is advantageous to use the Dynamic Host Configuration Protocol (DHCP) as defined in RFC 2131 to assign customer premise host IP addresses in this environment. &#160;However, a number of security and scaling problems arise with such public DHCP use. &#160;This document describes a new DHCP option to address these issues. &#160;This option extends the set of DHCP options as defined in RFC 2132. [STANDARDS&#45;TRACK]" target="_top">
<ellipse fill="none" stroke="black" cx="307.33" cy="-355.21" rx="164.58" ry="40.66"/>
<text xml:space="preserve" text-anchor="middle" x="307.33" y="-366.66" font-family="Times,serif" font-size="14.00">RFC3046</text>
<text xml:space="preserve" text-anchor="middle" x="307.33" y="-350.16" font-family="Times,serif" font-size="14.00">DHCP Relay Agent Information Option</text>
<text xml:space="preserve" text-anchor="middle" x="307.33" y="-333.66" font-family="Times,serif" font-size="14.00">2001</text>
</a>
</g>
</g>
<!-- cites&#45;&gt;RFC3046 -->
<g id="edge10" class="edge">
<title>cites&#45;&gt;RFC3046</title>
<path fill="none" stroke="black" d="M605.76,-917.81C564.02,-839.11 399.27,-528.54 334.08,-405.65"/>
<polygon fill="black" stroke="black" points="337.32,-404.27 329.54,-397.08 331.13,-407.55 337.32,-404.27"/>
</g>
<!-- RFC3118 -->
<g id="node12" class="node">
<title>RFC3118</title>
<g id="a_node12"><a xlink:href="RFC3118.html" xlink:title="This document defines a new Dynamic Host Configuration Protocol (DHCP) option through which authorization tickets can be easily generated and newly attached hosts with proper authorization can be automatically configured from an authenticated DHCP server. [STANDARDS&#45;TRACK]" target="_top">
<ellipse fill="none" stroke="black" cx="670.33" cy="-40.66" rx="149.73" ry="40.66"/>
<text xml:space="preserve" text-anchor="middle" x="670.33" y="-52.11" font-family="Times,serif" font-size="14.00">RFC3118</text>
<text xml:space="preserve" text-anchor="middle" x="670.33" y="-35.61" font-family="Times,serif" font-size="14.00">Authentication for DHCP Messages</text>
<text xml:space="preserve" text-anchor="middle" x="670.33" y="-19.11" font-family="Times,serif" font-size="14.00">2001</text>
</a>
</g>
</g>
<!-- cites&#45;&gt;RFC3118 -->
<g id="edge11" class="edge">
<title>cites&#45;&gt;RFC3118</title>
<path fill="none" stroke="black" d="M616.62,-917.86C623.17,-810.89 656.58,-265.19 667.14,-92.87"/>
<polygon fill="black" stroke="black" points="670.62,-93.3 667.74,-83.11 663.63,-92.87 670.62,-93.3"/>
</g>
<!-- rev_cites -->
<g id="node13" class="node">
<title>rev_cites</title>
<polygon fill="lightblue" stroke="black" points="1460.42,-713.99 1406.42,-713.99 1406.42,-677.99 1460.42,-677.99 1460.42,-713.99"/>
<text xml:space="preserve" text-anchor="middle" x="1433.42" y="-690.94" font-family="Times,serif" font-size="14.00">cites</text>
</g>
<!-- rev_cites&#45;&gt;RFC8357 -->
<g id="edge12" class="edge">
<title>rev_cites&#45;&gt;RFC8357</title>
<path fill="none" stroke="black" d="M1405.95,-704.06C1362.33,-716.87 1273.88,-742.84 1193.12,-766.55"/>
<polygon fill="black" stroke="black" points="1192.35,-763.13 1183.75,-769.31 1194.33,-769.85 1192.35,-763.13"/>
</g>
</g>
</svg>
