<?xml version="1.0" encoding="UTF-8" standalone="no"?>
<!DOCTYPE svg PUBLIC "-//W3C//DTD SVG 1.1//EN"
 "http://www.w3.org/Graphics/SVG/1.1/DTD/svg11.dtd">
<!-- Generated by graphviz version 14.1.1 (20251213.1925)
 -->
<!-- Title: Flow Pages: 1 -->
<svg width="1013pt" height="1717pt"
 viewBox="0.00 0.00 1013.00 1717.00" xmlns="http://www.w3.org/2000/svg" xmlns:xlink="http://www.w3.org/1999/xlink">
<g id="graph0" class="graph" transform="scale(1 1) rotate(0) translate(4 1712.54)">
<title>Flow</title>
<polygon fill="white" stroke="none" points="-4,4 -4,-1712.54 1009.27,-1712.54 1009.27,4 -4,4"/>
<!-- RFC8266 -->
<g id="node1" class="node">
<title>RFC8266</title>
<g id="a_node1"><a xlink:title="This document describes methods for handling Unicode strings representing memorable, human&#45;friendly names (called nicknames, display names, or petnames) for people, devices, accounts, websites, and other entities. &#160;This document obsoletes RFC 7700.">
<ellipse fill="green" stroke="black" cx="270.68" cy="-890.55" rx="179.43" ry="63.99"/>
<text xml:space="preserve" text-anchor="middle" x="270.68" y="-918.5" font-family="Times,serif" font-size="14.00">RFC8266</text>
<text xml:space="preserve" text-anchor="middle" x="270.68" y="-902" font-family="Times,serif" font-size="14.00">Preparation, Enforcement, and Comparison</text>
<text xml:space="preserve" text-anchor="middle" x="270.68" y="-885.5" font-family="Times,serif" font-size="14.00">of Internationalized Strings</text>
<text xml:space="preserve" text-anchor="middle" x="270.68" y="-869" font-family="Times,serif" font-size="14.00">Representing Nicknames</text>
<text xml:space="preserve" text-anchor="middle" x="270.68" y="-852.5" font-family="Times,serif" font-size="14.00">2017</text>
</a>
</g>
</g>
<!-- obs -->
<g id="node3" class="node">
<title>obs</title>
<polygon fill="lightblue" stroke="black" points="541.36,-1280.55 475.11,-1280.55 475.11,-1244.55 541.36,-1244.55 541.36,-1280.55"/>
<text xml:space="preserve" text-anchor="middle" x="508.23" y="-1257.5" font-family="Times,serif" font-size="14.00">obsoletes</text>
</g>
<!-- RFC8266&#45;&gt;obs -->
<g id="edge2" class="edge">
<title>RFC8266&#45;&gt;obs</title>
<path fill="none" stroke="black" d="M311.37,-953.23C363.3,-1035.25 452.1,-1175.48 489.65,-1234.77"/>
<polygon fill="black" stroke="black" points="486.51,-1236.37 494.82,-1242.95 492.43,-1232.63 486.51,-1236.37"/>
</g>
<!-- updates -->
<g id="node5" class="node">
<title>updates</title>
<polygon fill="lightyellow" stroke="black" points="536.86,-935.55 479.61,-935.55 479.61,-899.55 536.86,-899.55 536.86,-935.55"/>
<text xml:space="preserve" text-anchor="middle" x="508.23" y="-912.5" font-family="Times,serif" font-size="14.00">updates</text>
</g>
<!-- RFC8266&#45;&gt;updates -->
<g id="edge4" class="edge">
<title>RFC8266&#45;&gt;updates</title>
<path fill="none" stroke="black" d="M441.93,-910.06C451.24,-911.13 460,-912.13 467.89,-913.04"/>
<polygon fill="black" stroke="black" points="467.33,-916.5 477.67,-914.16 468.13,-909.54 467.33,-916.5"/>
</g>
<!-- cites -->
<g id="node7" class="node">
<title>cites</title>
<polygon fill="lightblue" stroke="black" points="535.23,-881.55 481.23,-881.55 481.23,-845.55 535.23,-845.55 535.23,-881.55"/>
<text xml:space="preserve" text-anchor="middle" x="508.23" y="-858.5" font-family="Times,serif" font-size="14.00">cites</text>
</g>
<!-- RFC8266&#45;&gt;cites -->
<g id="edge6" class="edge">
<title>RFC8266&#45;&gt;cites</title>
<path fill="none" stroke="black" d="M441.93,-871.03C451.83,-869.9 461.11,-868.83 469.39,-867.88"/>
<polygon fill="black" stroke="black" points="469.73,-871.37 479.27,-866.75 468.93,-864.41 469.73,-871.37"/>
</g>
<!-- obs_by -->
<g id="node2" class="node">
<title>obs_by</title>
<polygon fill="lightblue" stroke="black" points="66.25,-935.55 0,-935.55 0,-899.55 66.25,-899.55 66.25,-935.55"/>
<text xml:space="preserve" text-anchor="middle" x="33.12" y="-912.5" font-family="Times,serif" font-size="14.00">obsoletes</text>
</g>
<!-- obs_by&#45;&gt;RFC8266 -->
<g id="edge1" class="edge">
<title>obs_by&#45;&gt;RFC8266</title>
<path fill="none" stroke="black" d="M66.38,-913.85C72.89,-913.1 80.16,-912.27 87.96,-911.38"/>
<polygon fill="black" stroke="black" points="88.28,-914.86 97.82,-910.25 87.49,-907.91 88.28,-914.86"/>
</g>
<!-- RFC7700 -->
<g id="node4" class="node">
<title>RFC7700</title>
<g id="a_node4"><a xlink:href="RFC7700.html" xlink:title="This document describes methods for handling Unicode strings representing memorable, human&#45;friendly names (called nicknames, display names, or petnames) for people, devices, accounts, websites, and other entities." target="_top">
<ellipse fill="none" stroke="black" cx="746.32" cy="-1498.55" rx="179.43" ry="63.99"/>
<text xml:space="preserve" text-anchor="middle" x="746.32" y="-1526.5" font-family="Times,serif" font-size="14.00">RFC7700</text>
<text xml:space="preserve" text-anchor="middle" x="746.32" y="-1510" font-family="Times,serif" font-size="14.00">Preparation, Enforcement, and Comparison</text>
<text xml:space="preserve" text-anchor="middle" x="746.32" y="-1493.5" font-family="Times,serif" font-size="14.00">of Internationalized Strings</text>
<text xml:space="preserve" text-anchor="middle" x="746.32" y="-1477" font-family="Times,serif" font-size="14.00">Representing Nicknames</text>
<text xml:space="preserve" text-anchor="middle" x="746.32" y="-1460.5" font-family="Times,serif" font-size="14.00">2015</text>
</a>
</g>
</g>
<!-- obs&#45;&gt;RFC7700 -->
<g id="edge3" class="edge">
<title>obs&#45;&gt;RFC7700</title>
<path fill="none" stroke="black" d="M510.81,-1280.97C514.58,-1314.1 526.99,-1384.15 566.36,-1425.55 575.84,-1435.52 586.89,-1444.18 598.75,-1451.68"/>
<polygon fill="black" stroke="black" points="596.73,-1454.55 607.12,-1456.67 600.32,-1448.54 596.73,-1454.55"/>
</g>
<!-- updated_by -->
<g id="node6" class="node">
<title>updated_by</title>
<polygon fill="lightyellow" stroke="black" points="61.75,-881.55 4.5,-881.55 4.5,-845.55 61.75,-845.55 61.75,-881.55"/>
<text xml:space="preserve" text-anchor="middle" x="33.12" y="-858.5" font-family="Times,serif" font-size="14.00">updates</text>
</g>
<!-- updated_by&#45;&gt;RFC8266 -->
<g id="edge5" class="edge">
<title>updated_by&#45;&gt;RFC8266</title>
<path fill="none" stroke="black" d="M62.07,-866.75C69.69,-867.62 78.53,-868.64 88.2,-869.74"/>
<polygon fill="black" stroke="black" points="87.6,-873.2 97.94,-870.86 88.4,-866.24 87.6,-873.2"/>
</g>
<!-- cites&#45;&gt;RFC7700 -->
<g id="edge18" class="edge">
<title>cites&#45;&gt;RFC7700</title>
<path fill="none" stroke="black" d="M535.32,-881.85C537.71,-884.5 539.81,-887.41 541.36,-890.55 567.74,-943.89 532.02,-1376.94 566.36,-1425.55 574,-1436.36 583.53,-1445.57 594.2,-1453.42"/>
<polygon fill="black" stroke="black" points="591.92,-1456.11 602.15,-1458.85 595.86,-1450.32 591.92,-1456.11"/>
</g>
<!-- RFC2811 -->
<g id="node8" class="node">
<title>RFC2811</title>
<g id="a_node8"><a xlink:href="RFC2811.html" xlink:title="This document specifies how channels, their characteristics and properties are managed by IRC servers. &#160;This memo provides information for the Internet community." target="_top">
<ellipse fill="none" stroke="black" cx="746.32" cy="-1375.55" rx="177.31" ry="40.66"/>
<text xml:space="preserve" text-anchor="middle" x="746.32" y="-1387" font-family="Times,serif" font-size="14.00">RFC2811</text>
<text xml:space="preserve" text-anchor="middle" x="746.32" y="-1370.5" font-family="Times,serif" font-size="14.00">Internet Relay Chat: Channel Management</text>
<text xml:space="preserve" text-anchor="middle" x="746.32" y="-1354" font-family="Times,serif" font-size="14.00">2000</text>
</a>
</g>
</g>
<!-- cites&#45;&gt;RFC2811 -->
<g id="edge7" class="edge">
<title>cites&#45;&gt;RFC2811</title>
<path fill="none" stroke="black" d="M535.29,-881.86C537.68,-884.52 539.79,-887.42 541.36,-890.55 584.74,-977.11 505.63,-1250.13 566.36,-1325.55 573.04,-1333.85 580.98,-1340.84 589.75,-1346.73"/>
<polygon fill="black" stroke="black" points="587.9,-1349.7 598.26,-1351.9 591.53,-1343.71 587.9,-1349.7"/>
</g>
<!-- RFC4975 -->
<g id="node9" class="node">
<title>RFC4975</title>
<g id="a_node9"><a xlink:href="RFC4975.html" xlink:title="This document describes the Message Session Relay Protocol, a protocol for transmitting a series of related instant messages in the context of a session. &#160;Message sessions are treated like any other media stream when set up via a rendezvous or session creation protocol such as the Session Initiation Protocol. [STANDARDS&#45;TRACK]" target="_top">
<ellipse fill="none" stroke="black" cx="746.32" cy="-1264.55" rx="154.5" ry="52.33"/>
<text xml:space="preserve" text-anchor="middle" x="746.32" y="-1284.25" font-family="Times,serif" font-size="14.00">RFC4975</text>
<text xml:space="preserve" text-anchor="middle" x="746.32" y="-1267.75" font-family="Times,serif" font-size="14.00">The Message Session Relay Protocol</text>
<text xml:space="preserve" text-anchor="middle" x="746.32" y="-1251.25" font-family="Times,serif" font-size="14.00">(MSRP)</text>
<text xml:space="preserve" text-anchor="middle" x="746.32" y="-1234.75" font-family="Times,serif" font-size="14.00">2007</text>
</a>
</g>
</g>
<!-- cites&#45;&gt;RFC4975 -->
<g id="edge8" class="edge">
<title>cites&#45;&gt;RFC4975</title>
<path fill="none" stroke="black" d="M535.22,-881.9C537.62,-884.55 539.75,-887.44 541.36,-890.55 573.22,-952.37 523.79,-1147.54 566.36,-1202.55 575.99,-1215 588.28,-1224.96 601.9,-1232.93"/>
<polygon fill="black" stroke="black" points="600.23,-1236 610.7,-1237.67 603.55,-1229.84 600.23,-1236"/>
</g>
<!-- RFC7701 -->
<g id="node10" class="node">
<title>RFC7701</title>
<g id="a_node10"><a xlink:href="RFC7701.html" xlink:title="The Message Session Relay Protocol (MSRP) defines a mechanism for sending instant messages (IMs) within a peer&#45;to&#45;peer session, negotiated using the Session Initiation Protocol (SIP) and the Session Description Protocol (SDP). &#160;This document defines the necessary tools for establishing multi&#45;party chat sessions, or chat rooms, using MSRP." target="_top">
<ellipse fill="none" stroke="black" cx="746.32" cy="-1141.55" rx="152.91" ry="52.33"/>
<text xml:space="preserve" text-anchor="middle" x="746.32" y="-1161.25" font-family="Times,serif" font-size="14.00">RFC7701</text>
<text xml:space="preserve" text-anchor="middle" x="746.32" y="-1144.75" font-family="Times,serif" font-size="14.00">Multi&#45;party Chat Using the Message</text>
<text xml:space="preserve" text-anchor="middle" x="746.32" y="-1128.25" font-family="Times,serif" font-size="14.00">Session Relay Protocol (MSRP)</text>
<text xml:space="preserve" text-anchor="middle" x="746.32" y="-1111.75" font-family="Times,serif" font-size="14.00">2015</text>
</a>
</g>
</g>
<!-- cites&#45;&gt;RFC7701 -->
<g id="edge9" class="edge">
<title>cites&#45;&gt;RFC7701</title>
<path fill="none" stroke="black" d="M535.06,-881.98C537.5,-884.61 539.68,-887.48 541.36,-890.55 582.29,-965.24 512.37,-1014.67 566.36,-1080.55 576.42,-1092.82 589.06,-1102.63 602.95,-1110.48"/>
<polygon fill="black" stroke="black" points="600.92,-1113.37 611.41,-1114.9 604.16,-1107.16 600.92,-1113.37"/>
</g>
<!-- RFC5239 -->
<g id="node11" class="node">
<title>RFC5239</title>
<g id="a_node11"><a xlink:href="RFC5239.html" xlink:title="This document defines the framework for Centralized Conferencing. &#160;The framework allows participants using various call signaling protocols, such as SIP, H.323, Jabber, Q.931 or ISDN User Part (ISUP), to exchange media in a centralized unicast conference. &#160;The Centralized Conferencing Framework defines logical entities and naming conventions. &#160;The framework also outlines a set of conferencing protocols, which are complementary to the call signaling protocols, for building advanced conferencing applications. &#160;The framework binds all the defined components together for the benefit of builders of conferencing systems. [STANDARDS&#45;TRACK]" target="_top">
<ellipse fill="none" stroke="black" cx="746.32" cy="-1030.55" rx="179.96" ry="40.66"/>
<text xml:space="preserve" text-anchor="middle" x="746.32" y="-1042" font-family="Times,serif" font-size="14.00">RFC5239</text>
<text xml:space="preserve" text-anchor="middle" x="746.32" y="-1025.5" font-family="Times,serif" font-size="14.00">A Framework for Centralized Conferencing</text>
<text xml:space="preserve" text-anchor="middle" x="746.32" y="-1009" font-family="Times,serif" font-size="14.00">2008</text>
</a>
</g>
</g>
<!-- cites&#45;&gt;RFC5239 -->
<g id="edge10" class="edge">
<title>cites&#45;&gt;RFC5239</title>
<path fill="none" stroke="black" d="M534.33,-881.91C536.96,-884.59 539.39,-887.48 541.36,-890.55 563.81,-925.47 537.02,-951.17 566.36,-980.55 574.05,-988.26 582.83,-994.8 592.28,-1000.35"/>
<polygon fill="black" stroke="black" points="590.55,-1003.4 601.01,-1005.07 593.88,-997.24 590.55,-1003.4"/>
</g>
<!-- RFC6120 -->
<g id="node12" class="node">
<title>RFC6120</title>
<g id="a_node12"><a xlink:href="RFC6120.html" xlink:title="The Extensible Messaging and Presence Protocol (XMPP) is an application profile of the Extensible Markup Language (XML) that enables the near&#45;real&#45;time exchange of structured yet extensible data between any two or more network entities. &#160;This document defines XMPP&#39;s core protocol methods: setup and teardown of XML streams, channel encryption, authentication, error handling, and communication primitives for messaging, network availability (presence), and request&#45;response interactions. &#160;This document obsoletes RFC 3920. [STANDARDS&#45;TRACK]" target="_top">
<ellipse fill="none" stroke="black" cx="746.32" cy="-919.55" rx="149.2" ry="52.33"/>
<text xml:space="preserve" text-anchor="middle" x="746.32" y="-939.25" font-family="Times,serif" font-size="14.00">RFC6120</text>
<text xml:space="preserve" text-anchor="middle" x="746.32" y="-922.75" font-family="Times,serif" font-size="14.00">Extensible Messaging and Presence</text>
<text xml:space="preserve" text-anchor="middle" x="746.32" y="-906.25" font-family="Times,serif" font-size="14.00">Protocol (XMPP): Core</text>
<text xml:space="preserve" text-anchor="middle" x="746.32" y="-889.75" font-family="Times,serif" font-size="14.00">2011</text>
</a>
</g>
</g>
<!-- cites&#45;&gt;RFC6120 -->
<g id="edge11" class="edge">
<title>cites&#45;&gt;RFC6120</title>
<path fill="none" stroke="black" d="M535.4,-869.75C554.51,-874.29 582.02,-880.81 610.87,-887.66"/>
<polygon fill="black" stroke="black" points="609.97,-891.04 620.5,-889.94 611.58,-884.23 609.97,-891.04"/>
</g>
<!-- RFC5322 -->
<g id="node13" class="node">
<title>RFC5322</title>
<g id="a_node13"><a xlink:href="RFC5322.html" xlink:title="This document specifies the Internet Message Format (IMF), a syntax for text messages that are sent between computer users, within the framework of electronic mail messages. &#160;This specification is a revision of Request For Comments (RFC) 2822, which itself superseded Request For Comments (RFC) 822, Standard for the Format of ARPA Internet Text Messages, updating it to reflect current practice and incorporating incremental changes that were specified in other RFCs. [STANDARDS&#45;TRACK]" target="_top">
<ellipse fill="none" stroke="black" cx="746.32" cy="-808.55" rx="108.36" ry="40.66"/>
<text xml:space="preserve" text-anchor="middle" x="746.32" y="-820" font-family="Times,serif" font-size="14.00">RFC5322</text>
<text xml:space="preserve" text-anchor="middle" x="746.32" y="-803.5" font-family="Times,serif" font-size="14.00">Internet Message Format</text>
<text xml:space="preserve" text-anchor="middle" x="746.32" y="-787" font-family="Times,serif" font-size="14.00">2008</text>
</a>
</g>
</g>
<!-- cites&#45;&gt;RFC5322 -->
<g id="edge12" class="edge">
<title>cites&#45;&gt;RFC5322</title>
<path fill="none" stroke="black" d="M535.4,-857.45C561.46,-851.38 603.16,-841.66 642.55,-832.49"/>
<polygon fill="black" stroke="black" points="643.17,-835.94 652.11,-830.26 641.58,-829.12 643.17,-835.94"/>
</g>
<!-- RFC8264 -->
<g id="node14" class="node">
<title>RFC8264</title>
<g id="a_node14"><a xlink:href="RFC8264.html" xlink:title="Application protocols using Unicode code points in protocol strings need to properly handle such strings in order to enforce internationalization rules for strings placed in various protocol slots (such as addresses and identifiers) and to perform valid comparison operations (e.g., for purposes of authentication or authorization). &#160;This document defines a framework enabling application protocols to perform the preparation, enforcement, and comparison of internationalized strings (PRECIS) in a way that depends on the properties of Unicode code points and thus is more agile with respect to versions of Unicode. &#160;As a result, this framework provides a more sustainable approach to the handling of internationalized strings than the previous framework, known as Stringprep (RFC 3454). &#160;This document obsoletes RFC 7564." target="_top">
<ellipse fill="none" stroke="black" cx="746.32" cy="-674.55" rx="162.99" ry="75.66"/>
<text xml:space="preserve" text-anchor="middle" x="746.32" y="-710.75" font-family="Times,serif" font-size="14.00">RFC8264</text>
<text xml:space="preserve" text-anchor="middle" x="746.32" y="-694.25" font-family="Times,serif" font-size="14.00">PRECIS Framework: Preparation,</text>
<text xml:space="preserve" text-anchor="middle" x="746.32" y="-677.75" font-family="Times,serif" font-size="14.00">Enforcement, and Comparison of</text>
<text xml:space="preserve" text-anchor="middle" x="746.32" y="-661.25" font-family="Times,serif" font-size="14.00">Internationalized Strings in Application</text>
<text xml:space="preserve" text-anchor="middle" x="746.32" y="-644.75" font-family="Times,serif" font-size="14.00">Protocols</text>
<text xml:space="preserve" text-anchor="middle" x="746.32" y="-628.25" font-family="Times,serif" font-size="14.00">2017</text>
</a>
</g>
</g>
<!-- cites&#45;&gt;RFC8264 -->
<g id="edge13" class="edge">
<title>cites&#45;&gt;RFC8264</title>
<path fill="none" stroke="black" d="M515.11,-845.36C523.33,-822.46 540.23,-783.17 566.36,-758.55 578.75,-746.86 593.07,-736.56 608.09,-727.53"/>
<polygon fill="black" stroke="black" points="609.84,-730.56 616.75,-722.53 606.34,-724.5 609.84,-730.56"/>
</g>
<!-- RFC6365 -->
<g id="node15" class="node">
<title>RFC6365</title>
<g id="a_node15"><a xlink:href="RFC6365.html" xlink:title="This document provides a list of terms used in the IETF when discussing internationalization. &#160;The purpose is to help frame discussions of internationalization in the various areas of the IETF and to help introduce the main concepts to IETF participants. &#160;This memo documents an Internet Best Current Practice." target="_top">
<ellipse fill="none" stroke="black" cx="746.32" cy="-528.55" rx="171.47" ry="52.33"/>
<text xml:space="preserve" text-anchor="middle" x="746.32" y="-548.25" font-family="Times,serif" font-size="14.00">RFC6365</text>
<text xml:space="preserve" text-anchor="middle" x="746.32" y="-531.75" font-family="Times,serif" font-size="14.00">Terminology Used in Internationalization</text>
<text xml:space="preserve" text-anchor="middle" x="746.32" y="-515.25" font-family="Times,serif" font-size="14.00">in the IETF</text>
<text xml:space="preserve" text-anchor="middle" x="746.32" y="-498.75" font-family="Times,serif" font-size="14.00">2011</text>
</a>
</g>
</g>
<!-- cites&#45;&gt;RFC6365 -->
<g id="edge14" class="edge">
<title>cites&#45;&gt;RFC6365</title>
<path fill="none" stroke="black" d="M510.72,-845.08C515.53,-789.95 532.32,-628.05 566.36,-589.55 574.93,-579.85 585.11,-571.69 596.2,-564.82"/>
<polygon fill="black" stroke="black" points="597.91,-567.88 604.85,-559.87 594.43,-561.8 597.91,-567.88"/>
</g>
<!-- RFC2119 -->
<g id="node16" class="node">
<title>RFC2119</title>
<g id="a_node16"><a xlink:href="RFC2119.html" xlink:title="In many standards track documents several words are used to signify the requirements in the specification. &#160;These words are often capitalized. &#160;This document defines these words as they should be interpreted in IETF documents. &#160;This document specifies an Internet Best Current Practices for the Internet Community, and requests discussion and suggestions for improvements." target="_top">
<ellipse fill="none" stroke="black" cx="746.32" cy="-405.55" rx="160.34" ry="52.33"/>
<text xml:space="preserve" text-anchor="middle" x="746.32" y="-425.25" font-family="Times,serif" font-size="14.00">RFC2119</text>
<text xml:space="preserve" text-anchor="middle" x="746.32" y="-408.75" font-family="Times,serif" font-size="14.00">Key words for use in RFCs to Indicate</text>
<text xml:space="preserve" text-anchor="middle" x="746.32" y="-392.25" font-family="Times,serif" font-size="14.00">Requirement Levels</text>
<text xml:space="preserve" text-anchor="middle" x="746.32" y="-375.75" font-family="Times,serif" font-size="14.00">1997</text>
</a>
</g>
</g>
<!-- cites&#45;&gt;RFC2119 -->
<g id="edge15" class="edge">
<title>cites&#45;&gt;RFC2119</title>
<path fill="none" stroke="black" d="M509.42,-845.28C510.52,-775.44 517.81,-526.33 566.36,-467.55 575.87,-456.03 587.64,-446.65 600.56,-439.01"/>
<polygon fill="black" stroke="black" points="602.23,-442.09 609.33,-434.22 598.87,-435.94 602.23,-442.09"/>
</g>
<!-- RFC8174 -->
<g id="node17" class="node">
<title>RFC8174</title>
<g id="a_node17"><a xlink:href="RFC8174.html" xlink:title="RFC 2119 specifies common key words that may be used in protocol specifications. &#160;This document aims to reduce the ambiguity by clarifying that only UPPERCASE usage of the key words have the defined special meanings." target="_top">
<ellipse fill="none" stroke="black" cx="746.32" cy="-282.55" rx="172" ry="52.33"/>
<text xml:space="preserve" text-anchor="middle" x="746.32" y="-302.25" font-family="Times,serif" font-size="14.00">RFC8174</text>
<text xml:space="preserve" text-anchor="middle" x="746.32" y="-285.75" font-family="Times,serif" font-size="14.00">Ambiguity of Uppercase vs Lowercase in</text>
<text xml:space="preserve" text-anchor="middle" x="746.32" y="-269.25" font-family="Times,serif" font-size="14.00">RFC 2119 Key Words</text>
<text xml:space="preserve" text-anchor="middle" x="746.32" y="-252.75" font-family="Times,serif" font-size="14.00">2017</text>
</a>
</g>
</g>
<!-- cites&#45;&gt;RFC8174 -->
<g id="edge16" class="edge">
<title>cites&#45;&gt;RFC8174</title>
<path fill="none" stroke="black" d="M510.1,-845.19C514.39,-757.59 534.45,-384.54 566.36,-344.55 574.61,-334.21 584.69,-325.58 595.81,-318.4"/>
<polygon fill="black" stroke="black" points="597.29,-321.59 604.09,-313.46 593.71,-315.58 597.29,-321.59"/>
</g>
<!-- RFC5893 -->
<g id="node18" class="node">
<title>RFC5893</title>
<g id="a_node18"><a xlink:href="RFC5893.html" xlink:title="The use of right&#45;to&#45;left scripts in Internationalized Domain Names (IDNs) has presented several challenges. &#160;This memo provides a new Bidi rule for Internationalized Domain Names for Applications (IDNA) labels, based on the encountered problems with some scripts and some shortcomings in the 2003 IDNA Bidi criterion. [STANDARDS&#45;TRACK]" target="_top">
<ellipse fill="none" stroke="black" cx="746.32" cy="-148.55" rx="153.44" ry="63.99"/>
<text xml:space="preserve" text-anchor="middle" x="746.32" y="-176.5" font-family="Times,serif" font-size="14.00">RFC5893</text>
<text xml:space="preserve" text-anchor="middle" x="746.32" y="-160" font-family="Times,serif" font-size="14.00">Right&#45;to&#45;Left Scripts for</text>
<text xml:space="preserve" text-anchor="middle" x="746.32" y="-143.5" font-family="Times,serif" font-size="14.00">Internationalized Domain Names for</text>
<text xml:space="preserve" text-anchor="middle" x="746.32" y="-127" font-family="Times,serif" font-size="14.00">Applications (IDNA)</text>
<text xml:space="preserve" text-anchor="middle" x="746.32" y="-110.5" font-family="Times,serif" font-size="14.00">2010</text>
</a>
</g>
</g>
<!-- cites&#45;&gt;RFC5893 -->
<g id="edge17" class="edge">
<title>cites&#45;&gt;RFC5893</title>
<path fill="none" stroke="black" d="M509.73,-845.35C512.62,-746.14 528.3,-273.08 566.36,-221.55 576.58,-207.71 589.88,-196.48 604.62,-187.38"/>
<polygon fill="black" stroke="black" points="606.27,-190.48 613.19,-182.46 602.78,-184.41 606.27,-190.48"/>
</g>
<!-- rev_cites -->
<g id="node19" class="node">
<title>rev_cites</title>
<polygon fill="lightblue" stroke="black" points="1005.27,-692.55 951.27,-692.55 951.27,-656.55 1005.27,-656.55 1005.27,-692.55"/>
<text xml:space="preserve" text-anchor="middle" x="978.27" y="-669.5" font-family="Times,serif" font-size="14.00">cites</text>
</g>
<!-- RFC8264&#45;&gt;rev_cites -->
<g id="edge20" class="edge">
<title>RFC8264&#45;&gt;rev_cites</title>
<path fill="none" stroke="black" d="M909.52,-674.55C920.35,-674.55 930.51,-674.55 939.5,-674.55"/>
<polygon fill="black" stroke="black" points="939.47,-678.05 949.47,-674.55 939.47,-671.05 939.47,-678.05"/>
</g>
<!-- rev_cites&#45;&gt;RFC8266 -->
<g id="edge19" class="edge">
<title>rev_cites&#45;&gt;RFC8266</title>
<path fill="none" stroke="black" d="M977.15,-656.06C976.31,-559.48 970.09,-115.79 926.27,-75.55 808.46,32.66 697.29,16.34 566.36,-75.55 320.16,-248.33 278.78,-648.24 272.46,-815.19"/>
<polygon fill="black" stroke="black" points="268.98,-814.7 272.13,-824.81 275.97,-814.94 268.98,-814.7"/>
</g>
<!-- RFC8265 -->
<g id="node20" class="node">
<title>RFC8265</title>
<g id="a_node20"><a xlink:href="RFC8265.html" xlink:title="This document describes updated methods for handling Unicode strings representing usernames and passwords. &#160;The previous approach was known as SASLprep (RFC 4013) and was based on Stringprep (RFC 3454). &#160;The methods specified in this document provide a more sustainable approach to the handling of internationalized usernames and passwords. &#160;This document obsoletes RFC 7613." target="_top">
<ellipse fill="none" stroke="black" cx="746.32" cy="-1644.55" rx="179.43" ry="63.99"/>
<text xml:space="preserve" text-anchor="middle" x="746.32" y="-1672.5" font-family="Times,serif" font-size="14.00">RFC8265</text>
<text xml:space="preserve" text-anchor="middle" x="746.32" y="-1656" font-family="Times,serif" font-size="14.00">Preparation, Enforcement, and Comparison</text>
<text xml:space="preserve" text-anchor="middle" x="746.32" y="-1639.5" font-family="Times,serif" font-size="14.00">of Internationalized Strings</text>
<text xml:space="preserve" text-anchor="middle" x="746.32" y="-1623" font-family="Times,serif" font-size="14.00">Representing Usernames and Passwords</text>
<text xml:space="preserve" text-anchor="middle" x="746.32" y="-1606.5" font-family="Times,serif" font-size="14.00">2017</text>
</a>
</g>
</g>
<!-- RFC8265&#45;&gt;rev_cites -->
<g id="edge21" class="edge">
<title>RFC8265&#45;&gt;rev_cites</title>
<path fill="none" stroke="black" d="M889.09,-1605.61C903.5,-1596.53 916.43,-1585.34 926.27,-1571.55 977.69,-1499.55 978.03,-850.67 977.44,-703.95"/>
<polygon fill="black" stroke="black" points="980.94,-704.28 977.4,-694.3 973.94,-704.31 980.94,-704.28"/>
</g>
</g>
</svg>
