<?xml version="1.0" encoding="UTF-8" standalone="no"?>
<!DOCTYPE svg PUBLIC "-//W3C//DTD SVG 1.1//EN"
 "http://www.w3.org/Graphics/SVG/1.1/DTD/svg11.dtd">
<!-- Generated by graphviz version 14.1.1 (20251213.1925)
 -->
<!-- Title: Flow Pages: 1 -->
<svg width="1203pt" height="1763pt"
 viewBox="0.00 0.00 1203.00 1763.00" xmlns="http://www.w3.org/2000/svg" xmlns:xlink="http://www.w3.org/1999/xlink">
<g id="graph0" class="graph" transform="scale(1 1) rotate(0) translate(4 1758.65)">
<title>Flow</title>
<polygon fill="white" stroke="none" points="-4,4 -4,-1758.65 1198.52,-1758.65 1198.52,4 -4,4"/>
<!-- RFC8188 -->
<g id="node1" class="node">
<title>RFC8188</title>
<g id="a_node1"><a xlink:title="This memo introduces a content coding for HTTP that allows message payloads to be encrypted.">
<ellipse fill="green" stroke="black" cx="570.74" cy="-967.33" rx="163.52" ry="40.66"/>
<text xml:space="preserve" text-anchor="middle" x="570.74" y="-978.78" font-family="Times,serif" font-size="14.00">RFC8188</text>
<text xml:space="preserve" text-anchor="middle" x="570.74" y="-962.28" font-family="Times,serif" font-size="14.00">Encrypted Content&#45;Encoding for HTTP</text>
<text xml:space="preserve" text-anchor="middle" x="570.74" y="-945.78" font-family="Times,serif" font-size="14.00">2017</text>
</a>
</g>
</g>
<!-- obs -->
<g id="node3" class="node">
<title>obs</title>
<polygon fill="lightblue" stroke="black" points="825.51,-1039.33 759.26,-1039.33 759.26,-1003.33 825.51,-1003.33 825.51,-1039.33"/>
<text xml:space="preserve" text-anchor="middle" x="792.39" y="-1016.28" font-family="Times,serif" font-size="14.00">obsoletes</text>
</g>
<!-- RFC8188&#45;&gt;obs -->
<g id="edge2" class="edge">
<title>RFC8188&#45;&gt;obs</title>
<path fill="none" stroke="black" d="M688.32,-995.99C709.71,-1001.25 730.76,-1006.42 748.21,-1010.71"/>
<polygon fill="black" stroke="black" points="747.1,-1014.04 757.64,-1013.03 748.77,-1007.24 747.1,-1014.04"/>
</g>
<!-- updates -->
<g id="node4" class="node">
<title>updates</title>
<polygon fill="lightyellow" stroke="black" points="821.01,-985.33 763.76,-985.33 763.76,-949.33 821.01,-949.33 821.01,-985.33"/>
<text xml:space="preserve" text-anchor="middle" x="792.39" y="-962.28" font-family="Times,serif" font-size="14.00">updates</text>
</g>
<!-- RFC8188&#45;&gt;updates -->
<g id="edge3" class="edge">
<title>RFC8188&#45;&gt;updates</title>
<path fill="none" stroke="black" d="M734.54,-967.33C740.7,-967.33 746.57,-967.33 752.04,-967.33"/>
<polygon fill="black" stroke="black" points="751.81,-970.83 761.81,-967.33 751.81,-963.83 751.81,-970.83"/>
</g>
<!-- cites -->
<g id="node6" class="node">
<title>cites</title>
<polygon fill="lightblue" stroke="black" points="819.39,-931.33 765.39,-931.33 765.39,-895.33 819.39,-895.33 819.39,-931.33"/>
<text xml:space="preserve" text-anchor="middle" x="792.39" y="-908.28" font-family="Times,serif" font-size="14.00">cites</text>
</g>
<!-- RFC8188&#45;&gt;cites -->
<g id="edge5" class="edge">
<title>RFC8188&#45;&gt;cites</title>
<path fill="none" stroke="black" d="M688.32,-938.67C712.18,-932.8 735.62,-927.04 754.1,-922.49"/>
<polygon fill="black" stroke="black" points="754.86,-925.91 763.73,-920.12 753.19,-919.11 754.86,-925.91"/>
</g>
<!-- obs_by -->
<g id="node2" class="node">
<title>obs_by</title>
<polygon fill="lightblue" stroke="black" points="382.22,-1039.33 315.97,-1039.33 315.97,-1003.33 382.22,-1003.33 382.22,-1039.33"/>
<text xml:space="preserve" text-anchor="middle" x="349.1" y="-1016.28" font-family="Times,serif" font-size="14.00">obsoletes</text>
</g>
<!-- obs_by&#45;&gt;RFC8188 -->
<g id="edge1" class="edge">
<title>obs_by&#45;&gt;RFC8188</title>
<path fill="none" stroke="black" d="M382.51,-1013.36C399.02,-1009.3 420.28,-1004.07 442.52,-998.6"/>
<polygon fill="black" stroke="black" points="443.15,-1002.05 452.02,-996.27 441.48,-995.26 443.15,-1002.05"/>
</g>
<!-- updated_by -->
<g id="node5" class="node">
<title>updated_by</title>
<polygon fill="lightyellow" stroke="black" points="377.72,-985.33 320.47,-985.33 320.47,-949.33 377.72,-949.33 377.72,-985.33"/>
<text xml:space="preserve" text-anchor="middle" x="349.1" y="-962.28" font-family="Times,serif" font-size="14.00">updates</text>
</g>
<!-- updated_by&#45;&gt;RFC8188 -->
<g id="edge4" class="edge">
<title>updated_by&#45;&gt;RFC8188</title>
<path fill="none" stroke="black" d="M377.92,-967.33C383.32,-967.33 389.33,-967.33 395.8,-967.33"/>
<polygon fill="black" stroke="black" points="395.58,-970.83 405.58,-967.33 395.58,-963.83 395.58,-970.83"/>
</g>
<!-- RFC5246 -->
<g id="node7" class="node">
<title>RFC5246</title>
<g id="a_node7"><a xlink:href="RFC5246.html" xlink:title="This document specifies Version 1.2 of the Transport Layer Security (TLS) protocol. &#160;The TLS protocol provides communications security over the Internet. &#160;The protocol allows client/server applications to communicate in a way that is designed to prevent eavesdropping, tampering, or message forgery. [STANDARDS&#45;TRACK]" target="_top">
<ellipse fill="none" stroke="black" cx="1022.52" cy="-1702.33" rx="150.79" ry="52.33"/>
<text xml:space="preserve" text-anchor="middle" x="1022.52" y="-1722.03" font-family="Times,serif" font-size="14.00">RFC5246</text>
<text xml:space="preserve" text-anchor="middle" x="1022.52" y="-1705.53" font-family="Times,serif" font-size="14.00">The Transport Layer Security (TLS)</text>
<text xml:space="preserve" text-anchor="middle" x="1022.52" y="-1689.03" font-family="Times,serif" font-size="14.00">Protocol Version 1.2</text>
<text xml:space="preserve" text-anchor="middle" x="1022.52" y="-1672.53" font-family="Times,serif" font-size="14.00">2008</text>
</a>
</g>
</g>
<!-- cites&#45;&gt;RFC5246 -->
<g id="edge6" class="edge">
<title>cites&#45;&gt;RFC5246</title>
<path fill="none" stroke="black" d="M819.51,-931.61C821.89,-934.27 823.98,-937.18 825.51,-940.33 859.63,-1010.28 804.7,-1577.41 850.51,-1640.33 859.25,-1652.33 870.55,-1662.01 883.17,-1669.83"/>
<polygon fill="black" stroke="black" points="881.32,-1672.8 891.74,-1674.7 884.77,-1666.72 881.32,-1672.8"/>
</g>
<!-- RFC7231 -->
<g id="node8" class="node">
<title>RFC7231</title>
<g id="a_node8"><a xlink:href="RFC7231.html" xlink:title="The Hypertext Transfer Protocol (HTTP) is a stateless %application&#45; level protocol for distributed, collaborative, hypertext information systems. &#160;This document defines the semantics of HTTP/1.1 messages, as expressed by request methods, request header fields, response status codes, and response header fields, along with the payload of messages (metadata and body content) and mechanisms for content negotiation." target="_top">
<ellipse fill="none" stroke="black" cx="1022.52" cy="-1579.33" rx="169.35" ry="52.33"/>
<text xml:space="preserve" text-anchor="middle" x="1022.52" y="-1599.03" font-family="Times,serif" font-size="14.00">RFC7231</text>
<text xml:space="preserve" text-anchor="middle" x="1022.52" y="-1582.53" font-family="Times,serif" font-size="14.00">Hypertext Transfer Protocol (HTTP/1.1):</text>
<text xml:space="preserve" text-anchor="middle" x="1022.52" y="-1566.03" font-family="Times,serif" font-size="14.00">Semantics and Content</text>
<text xml:space="preserve" text-anchor="middle" x="1022.52" y="-1549.53" font-family="Times,serif" font-size="14.00">2014</text>
</a>
</g>
</g>
<!-- cites&#45;&gt;RFC7231 -->
<g id="edge7" class="edge">
<title>cites&#45;&gt;RFC7231</title>
<path fill="none" stroke="black" d="M819.49,-931.62C821.87,-934.28 823.97,-937.19 825.51,-940.33 853.91,-998 812.34,-1466.6 850.51,-1518.33 857.46,-1527.74 865.99,-1535.71 875.5,-1542.46"/>
<polygon fill="black" stroke="black" points="873.33,-1545.22 883.63,-1547.73 877.14,-1539.35 873.33,-1545.22"/>
</g>
<!-- RFC4880 -->
<g id="node9" class="node">
<title>RFC4880</title>
<g id="a_node9"><a xlink:href="RFC4880.html" xlink:title="This document is maintained in order to publish all necessary information needed to develop interoperable applications based on the OpenPGP format. It is not a step&#45;by&#45;step cookbook for writing an application. It describes only the format and methods needed to read, check, generate, and write conforming packets crossing any network. It does not deal with storage and implementation questions. It does, however, discuss implementation issues necessary to avoid security flaws. OpenPGP software uses a combination of strong public&#45;key and symmetric cryptography to provide security services for electronic communications and data storage. These services include confidentiality, key management, authentication, and digital signatures. This document specifies the message formats used in OpenPGP. [STANDARDS&#45;TRACK]" target="_top">
<ellipse fill="none" stroke="black" cx="1022.52" cy="-1468.33" rx="116.32" ry="40.66"/>
<text xml:space="preserve" text-anchor="middle" x="1022.52" y="-1479.78" font-family="Times,serif" font-size="14.00">RFC4880</text>
<text xml:space="preserve" text-anchor="middle" x="1022.52" y="-1463.28" font-family="Times,serif" font-size="14.00">OpenPGP Message Format</text>
<text xml:space="preserve" text-anchor="middle" x="1022.52" y="-1446.78" font-family="Times,serif" font-size="14.00">2007</text>
</a>
</g>
</g>
<!-- cites&#45;&gt;RFC4880 -->
<g id="edge8" class="edge">
<title>cites&#45;&gt;RFC4880</title>
<path fill="none" stroke="black" d="M819.46,-931.63C821.85,-934.29 823.95,-937.2 825.51,-940.33 849.27,-988.03 817.34,-1377.62 850.51,-1419.33 863.16,-1435.23 880.61,-1446.2 899.55,-1453.71"/>
<polygon fill="black" stroke="black" points="898.19,-1456.94 908.79,-1457.03 900.56,-1450.36 898.19,-1456.94"/>
</g>
<!-- RFC5652 -->
<g id="node10" class="node">
<title>RFC5652</title>
<g id="a_node10"><a xlink:href="RFC5652.html" xlink:title="This document describes the Cryptographic Message Syntax (CMS). &#160;This syntax is used to digitally sign, digest, authenticate, or encrypt arbitrary message content. [STANDARDS&#45;TRACK]" target="_top">
<ellipse fill="none" stroke="black" cx="1022.52" cy="-1369.33" rx="161.93" ry="40.66"/>
<text xml:space="preserve" text-anchor="middle" x="1022.52" y="-1380.78" font-family="Times,serif" font-size="14.00">RFC5652</text>
<text xml:space="preserve" text-anchor="middle" x="1022.52" y="-1364.28" font-family="Times,serif" font-size="14.00">Cryptographic Message Syntax (CMS)</text>
<text xml:space="preserve" text-anchor="middle" x="1022.52" y="-1347.78" font-family="Times,serif" font-size="14.00">2009</text>
</a>
</g>
</g>
<!-- cites&#45;&gt;RFC5652 -->
<g id="edge9" class="edge">
<title>cites&#45;&gt;RFC5652</title>
<path fill="none" stroke="black" d="M819.42,-931.66C821.81,-934.31 823.93,-937.21 825.51,-940.33 863.75,-1015.82 797.38,-1254.45 850.51,-1320.33 857.42,-1328.89 865.71,-1336.02 874.88,-1341.95"/>
<polygon fill="black" stroke="black" points="873.02,-1344.91 883.42,-1346.94 876.55,-1338.87 873.02,-1344.91"/>
</g>
<!-- RFC7516 -->
<g id="node11" class="node">
<title>RFC7516</title>
<g id="a_node11"><a xlink:href="RFC7516.html" xlink:title="JSON Web Encryption (JWE) represents encrypted content using JSON&#45;based data structures. &#160;Cryptographic algorithms and identifiers for use with this specification are described in the separate JSON Web Algorithms (JWA) specification and IANA registries defined by that specification. &#160;Related digital signature and Message Authentication Code (MAC) capabilities are described in the separate JSON Web Signature (JWS) specification." target="_top">
<ellipse fill="none" stroke="black" cx="1022.52" cy="-1270.33" rx="127.46" ry="40.66"/>
<text xml:space="preserve" text-anchor="middle" x="1022.52" y="-1281.78" font-family="Times,serif" font-size="14.00">RFC7516</text>
<text xml:space="preserve" text-anchor="middle" x="1022.52" y="-1265.28" font-family="Times,serif" font-size="14.00">JSON Web Encryption (JWE)</text>
<text xml:space="preserve" text-anchor="middle" x="1022.52" y="-1248.78" font-family="Times,serif" font-size="14.00">2015</text>
</a>
</g>
</g>
<!-- cites&#45;&gt;RFC7516 -->
<g id="edge10" class="edge">
<title>cites&#45;&gt;RFC7516</title>
<path fill="none" stroke="black" d="M819.35,-931.69C821.76,-934.34 823.9,-937.22 825.51,-940.33 854.38,-995.72 810.86,-1172.05 850.51,-1220.33 861.81,-1234.08 876.67,-1244.18 892.93,-1251.57"/>
<polygon fill="black" stroke="black" points="891.23,-1254.65 901.81,-1255.25 893.91,-1248.19 891.23,-1254.65"/>
</g>
<!-- RFC5116 -->
<g id="node12" class="node">
<title>RFC5116</title>
<g id="a_node12"><a xlink:href="RFC5116.html" xlink:title="This document defines algorithms for Authenticated Encryption with Associated Data (AEAD), and defines a uniform interface and a registry for such algorithms. &#160;The interface and registry can be used as an application&#45;independent set of cryptoalgorithm suites. &#160;This approach provides advantages in efficiency and security, and promotes the reuse of crypto implementations. [STANDARDS&#45;TRACK]" target="_top">
<ellipse fill="none" stroke="black" cx="1022.52" cy="-1159.33" rx="135.94" ry="52.33"/>
<text xml:space="preserve" text-anchor="middle" x="1022.52" y="-1179.03" font-family="Times,serif" font-size="14.00">RFC5116</text>
<text xml:space="preserve" text-anchor="middle" x="1022.52" y="-1162.53" font-family="Times,serif" font-size="14.00">An Interface and Algorithms for</text>
<text xml:space="preserve" text-anchor="middle" x="1022.52" y="-1146.03" font-family="Times,serif" font-size="14.00">Authenticated Encryption</text>
<text xml:space="preserve" text-anchor="middle" x="1022.52" y="-1129.53" font-family="Times,serif" font-size="14.00">2008</text>
</a>
</g>
</g>
<!-- cites&#45;&gt;RFC5116 -->
<g id="edge11" class="edge">
<title>cites&#45;&gt;RFC5116</title>
<path fill="none" stroke="black" d="M819.14,-931.81C821.58,-934.43 823.79,-937.28 825.51,-940.33 860.31,-1001.82 805.51,-1042.85 850.51,-1097.33 861.75,-1110.94 876.24,-1121.56 892.02,-1129.85"/>
<polygon fill="black" stroke="black" points="890.11,-1132.81 900.63,-1134.05 893.18,-1126.52 890.11,-1132.81"/>
</g>
<!-- RFC2119 -->
<g id="node13" class="node">
<title>RFC2119</title>
<g id="a_node13"><a xlink:href="RFC2119.html" xlink:title="In many standards track documents several words are used to signify the requirements in the specification. &#160;These words are often capitalized. &#160;This document defines these words as they should be interpreted in IETF documents. &#160;This document specifies an Internet Best Current Practices for the Internet Community, and requests discussion and suggestions for improvements." target="_top">
<ellipse fill="none" stroke="black" cx="1022.52" cy="-1036.33" rx="160.34" ry="52.33"/>
<text xml:space="preserve" text-anchor="middle" x="1022.52" y="-1056.03" font-family="Times,serif" font-size="14.00">RFC2119</text>
<text xml:space="preserve" text-anchor="middle" x="1022.52" y="-1039.53" font-family="Times,serif" font-size="14.00">Key words for use in RFCs to Indicate</text>
<text xml:space="preserve" text-anchor="middle" x="1022.52" y="-1023.03" font-family="Times,serif" font-size="14.00">Requirement Levels</text>
<text xml:space="preserve" text-anchor="middle" x="1022.52" y="-1006.53" font-family="Times,serif" font-size="14.00">1997</text>
</a>
</g>
</g>
<!-- cites&#45;&gt;RFC2119 -->
<g id="edge12" class="edge">
<title>cites&#45;&gt;RFC2119</title>
<path fill="none" stroke="black" d="M816.46,-931.56C819.62,-934.38 822.72,-937.35 825.51,-940.33 838.34,-954.01 835.49,-963.09 850.51,-974.33 862.41,-983.23 875.72,-990.96 889.52,-997.64"/>
<polygon fill="black" stroke="black" points="887.71,-1000.66 898.26,-1001.68 890.65,-994.31 887.71,-1000.66"/>
</g>
<!-- RFC8174 -->
<g id="node14" class="node">
<title>RFC8174</title>
<g id="a_node14"><a xlink:href="RFC8174.html" xlink:title="RFC 2119 specifies common key words that may be used in protocol specifications. &#160;This document aims to reduce the ambiguity by clarifying that only UPPERCASE usage of the key words have the defined special meanings." target="_top">
<ellipse fill="none" stroke="black" cx="1022.52" cy="-913.33" rx="172" ry="52.33"/>
<text xml:space="preserve" text-anchor="middle" x="1022.52" y="-933.03" font-family="Times,serif" font-size="14.00">RFC8174</text>
<text xml:space="preserve" text-anchor="middle" x="1022.52" y="-916.53" font-family="Times,serif" font-size="14.00">Ambiguity of Uppercase vs Lowercase in</text>
<text xml:space="preserve" text-anchor="middle" x="1022.52" y="-900.03" font-family="Times,serif" font-size="14.00">RFC 2119 Key Words</text>
<text xml:space="preserve" text-anchor="middle" x="1022.52" y="-883.53" font-family="Times,serif" font-size="14.00">2017</text>
</a>
</g>
</g>
<!-- cites&#45;&gt;RFC8174 -->
<g id="edge13" class="edge">
<title>cites&#45;&gt;RFC8174</title>
<path fill="none" stroke="black" d="M819.56,-913.33C825.38,-913.33 831.99,-913.33 839.17,-913.33"/>
<polygon fill="black" stroke="black" points="838.96,-916.83 848.96,-913.33 838.96,-909.83 838.96,-916.83"/>
</g>
<!-- RFC7233 -->
<g id="node15" class="node">
<title>RFC7233</title>
<g id="a_node15"><a xlink:href="RFC7233.html" xlink:title="The Hypertext Transfer Protocol (HTTP) is a stateless application&#45; level protocol for distributed, collaborative, hypertext information systems. &#160;This document defines range requests and the rules for constructing and combining responses to those requests." target="_top">
<ellipse fill="none" stroke="black" cx="1022.52" cy="-790.33" rx="169.35" ry="52.33"/>
<text xml:space="preserve" text-anchor="middle" x="1022.52" y="-810.03" font-family="Times,serif" font-size="14.00">RFC7233</text>
<text xml:space="preserve" text-anchor="middle" x="1022.52" y="-793.53" font-family="Times,serif" font-size="14.00">Hypertext Transfer Protocol (HTTP/1.1):</text>
<text xml:space="preserve" text-anchor="middle" x="1022.52" y="-777.03" font-family="Times,serif" font-size="14.00">Range Requests</text>
<text xml:space="preserve" text-anchor="middle" x="1022.52" y="-760.53" font-family="Times,serif" font-size="14.00">2014</text>
</a>
</g>
</g>
<!-- cites&#45;&gt;RFC7233 -->
<g id="edge14" class="edge">
<title>cites&#45;&gt;RFC7233</title>
<path fill="none" stroke="black" d="M806.83,-894.84C817.4,-881.44 833.19,-863.75 850.51,-852.33 862.49,-844.43 875.59,-837.38 889.06,-831.13"/>
<polygon fill="black" stroke="black" points="890.32,-834.4 898.03,-827.13 887.47,-828.01 890.32,-834.4"/>
</g>
<!-- RFC3629 -->
<g id="node16" class="node">
<title>RFC3629</title>
<g id="a_node16"><a xlink:href="RFC3629.html" xlink:title="ISO/IEC 10646&#45;1 defines a large character set called the Universal Character Set (UCS) which encompasses most of the world&#39;s writing systems. &#160;The originally proposed encodings of the UCS, however, were not compatible with many current applications and protocols, and this has led to the development of UTF&#45;8, the object of this memo. &#160;UTF&#45;8 has the characteristic of preserving the full US&#45;ASCII range, providing compatibility with file systems, parsers and other software that rely on US&#45;ASCII values but are transparent to other values. &#160;This memo obsoletes and replaces RFC 2279." target="_top">
<ellipse fill="none" stroke="black" cx="1022.52" cy="-667.33" rx="163.52" ry="52.33"/>
<text xml:space="preserve" text-anchor="middle" x="1022.52" y="-687.03" font-family="Times,serif" font-size="14.00">RFC3629</text>
<text xml:space="preserve" text-anchor="middle" x="1022.52" y="-670.53" font-family="Times,serif" font-size="14.00">UTF&#45;8, a transformation format of ISO</text>
<text xml:space="preserve" text-anchor="middle" x="1022.52" y="-654.03" font-family="Times,serif" font-size="14.00">10646</text>
<text xml:space="preserve" text-anchor="middle" x="1022.52" y="-637.53" font-family="Times,serif" font-size="14.00">2003</text>
</a>
</g>
</g>
<!-- cites&#45;&gt;RFC3629 -->
<g id="edge15" class="edge">
<title>cites&#45;&gt;RFC3629</title>
<path fill="none" stroke="black" d="M793.9,-895C795.91,-858.57 805.48,-776.51 850.51,-729.33 859.71,-719.69 870.52,-711.54 882.16,-704.66"/>
<polygon fill="black" stroke="black" points="883.72,-707.79 890.79,-699.9 880.34,-701.66 883.72,-707.79"/>
</g>
<!-- RFC5869 -->
<g id="node17" class="node">
<title>RFC5869</title>
<g id="a_node17"><a xlink:href="RFC5869.html" xlink:title="This document specifies a simple Hashed Message Authentication Code (HMAC)&#45;based key derivation function (HKDF), which can be used as a building block in various protocols and applications. &#160;The key derivation function (KDF) is intended to support a wide range of applications and requirements, and is conservative in its use of cryptographic hash functions. &#160;This document is not an Internet Standards Track specification; it is published for informational purposes." target="_top">
<ellipse fill="none" stroke="black" cx="1022.52" cy="-544.33" rx="163.52" ry="52.33"/>
<text xml:space="preserve" text-anchor="middle" x="1022.52" y="-564.03" font-family="Times,serif" font-size="14.00">RFC5869</text>
<text xml:space="preserve" text-anchor="middle" x="1022.52" y="-547.53" font-family="Times,serif" font-size="14.00">HMAC&#45;based Extract&#45;and&#45;Expand Key</text>
<text xml:space="preserve" text-anchor="middle" x="1022.52" y="-531.03" font-family="Times,serif" font-size="14.00">Derivation Function (HKDF)</text>
<text xml:space="preserve" text-anchor="middle" x="1022.52" y="-514.53" font-family="Times,serif" font-size="14.00">2010</text>
</a>
</g>
</g>
<!-- cites&#45;&gt;RFC5869 -->
<g id="edge16" class="edge">
<title>cites&#45;&gt;RFC5869</title>
<path fill="none" stroke="black" d="M794.44,-895.23C798.21,-836.23 812.9,-650.67 850.51,-606.33 858.89,-596.45 868.96,-588.15 879.98,-581.18"/>
<polygon fill="black" stroke="black" points="881.72,-584.21 888.58,-576.14 878.18,-578.17 881.72,-584.21"/>
</g>
<!-- RFC4648 -->
<g id="node18" class="node">
<title>RFC4648</title>
<g id="a_node18"><a xlink:href="RFC4648.html" xlink:title="This document describes the commonly used base 64, base 32, and base 16 encoding schemes. &#160;It also discusses the use of line&#45;feeds in encoded data, use of padding in encoded data, use of non&#45;alphabet characters in encoded data, use of different encoding alphabets, and canonical encodings. [STANDARDS&#45;TRACK]" target="_top">
<ellipse fill="none" stroke="black" cx="1022.52" cy="-421.33" rx="160.87" ry="52.33"/>
<text xml:space="preserve" text-anchor="middle" x="1022.52" y="-441.03" font-family="Times,serif" font-size="14.00">RFC4648</text>
<text xml:space="preserve" text-anchor="middle" x="1022.52" y="-424.53" font-family="Times,serif" font-size="14.00">The Base16, Base32, and Base64 Data</text>
<text xml:space="preserve" text-anchor="middle" x="1022.52" y="-408.03" font-family="Times,serif" font-size="14.00">Encodings</text>
<text xml:space="preserve" text-anchor="middle" x="1022.52" y="-391.53" font-family="Times,serif" font-size="14.00">2006</text>
</a>
</g>
</g>
<!-- cites&#45;&gt;RFC4648 -->
<g id="edge17" class="edge">
<title>cites&#45;&gt;RFC4648</title>
<path fill="none" stroke="black" d="M793.37,-895.05C793.67,-821.51 798.35,-548.16 850.51,-483.33 858.86,-472.95 869.11,-464.3 880.39,-457.11"/>
<polygon fill="black" stroke="black" points="881.95,-460.25 888.79,-452.16 878.4,-454.22 881.95,-460.25"/>
</g>
<!-- RFC7230 -->
<g id="node19" class="node">
<title>RFC7230</title>
<g id="a_node19"><a xlink:href="RFC7230.html" xlink:title="The Hypertext Transfer Protocol (HTTP) is a stateless application&#45;level protocol for distributed, collaborative, hypertext information systems. &#160;This document provides an overview of HTTP architecture and its associated terminology, defines the http and https Uniform Resource Identifier (URI) schemes, defines the HTTP/1.1 message syntax and parsing requirements, and describes related security concerns for implementations." target="_top">
<ellipse fill="none" stroke="black" cx="1022.52" cy="-298.33" rx="169.35" ry="52.33"/>
<text xml:space="preserve" text-anchor="middle" x="1022.52" y="-318.03" font-family="Times,serif" font-size="14.00">RFC7230</text>
<text xml:space="preserve" text-anchor="middle" x="1022.52" y="-301.53" font-family="Times,serif" font-size="14.00">Hypertext Transfer Protocol (HTTP/1.1):</text>
<text xml:space="preserve" text-anchor="middle" x="1022.52" y="-285.03" font-family="Times,serif" font-size="14.00">Message Syntax and Routing</text>
<text xml:space="preserve" text-anchor="middle" x="1022.52" y="-268.53" font-family="Times,serif" font-size="14.00">2014</text>
</a>
</g>
</g>
<!-- cites&#45;&gt;RFC7230 -->
<g id="edge18" class="edge">
<title>cites&#45;&gt;RFC7230</title>
<path fill="none" stroke="black" d="M794.13,-895.01C798,-804.03 816.84,-403.45 850.51,-360.33 858.03,-350.7 867.17,-342.57 877.28,-335.7"/>
<polygon fill="black" stroke="black" points="878.91,-338.81 885.54,-330.54 875.2,-332.87 878.91,-338.81"/>
</g>
<!-- RFC7235 -->
<g id="node20" class="node">
<title>RFC7235</title>
<g id="a_node20"><a xlink:href="RFC7235.html" xlink:title="The Hypertext Transfer Protocol (HTTP) is a stateless application&#45; level protocol for distributed, collaborative, hypermedia information systems. &#160;This document defines the HTTP Authentication framework." target="_top">
<ellipse fill="none" stroke="black" cx="1022.52" cy="-175.33" rx="169.35" ry="52.33"/>
<text xml:space="preserve" text-anchor="middle" x="1022.52" y="-195.03" font-family="Times,serif" font-size="14.00">RFC7235</text>
<text xml:space="preserve" text-anchor="middle" x="1022.52" y="-178.53" font-family="Times,serif" font-size="14.00">Hypertext Transfer Protocol (HTTP/1.1):</text>
<text xml:space="preserve" text-anchor="middle" x="1022.52" y="-162.03" font-family="Times,serif" font-size="14.00">Authentication</text>
<text xml:space="preserve" text-anchor="middle" x="1022.52" y="-145.53" font-family="Times,serif" font-size="14.00">2014</text>
</a>
</g>
</g>
<!-- cites&#45;&gt;RFC7235 -->
<g id="edge19" class="edge">
<title>cites&#45;&gt;RFC7235</title>
<path fill="none" stroke="black" d="M793.77,-895.15C796.06,-792.81 809.38,-291.03 850.51,-237.33 857.79,-227.83 866.66,-219.78 876.49,-212.97"/>
<polygon fill="black" stroke="black" points="878.34,-215.93 884.91,-207.62 874.59,-210.03 878.34,-215.93"/>
</g>
<!-- RFC7540 -->
<g id="node21" class="node">
<title>RFC7540</title>
<g id="a_node21"><a xlink:href="RFC7540.html" xlink:title="This specification describes an optimized expression of the semantics of the Hypertext Transfer Protocol (HTTP), referred to as HTTP version 2 (HTTP/2). HTTP/2 enables a more efficient use of network resources and a reduced perception of latency by introducing header field compression and allowing multiple concurrent exchanges on the same connection. It also introduces unsolicited push of representations from servers to clients. This specification is an alternative to, but does not obsolete, the HTTP/1.1 message syntax. HTTP&#39;s existing semantics remain unchanged." target="_top">
<ellipse fill="none" stroke="black" cx="1022.52" cy="-52.33" rx="157.68" ry="52.33"/>
<text xml:space="preserve" text-anchor="middle" x="1022.52" y="-72.03" font-family="Times,serif" font-size="14.00">RFC7540</text>
<text xml:space="preserve" text-anchor="middle" x="1022.52" y="-55.53" font-family="Times,serif" font-size="14.00">Hypertext Transfer Protocol Version 2</text>
<text xml:space="preserve" text-anchor="middle" x="1022.52" y="-39.03" font-family="Times,serif" font-size="14.00">(HTTP/2)</text>
<text xml:space="preserve" text-anchor="middle" x="1022.52" y="-22.53" font-family="Times,serif" font-size="14.00">2015</text>
</a>
</g>
</g>
<!-- cites&#45;&gt;RFC7540 -->
<g id="edge20" class="edge">
<title>cites&#45;&gt;RFC7540</title>
<path fill="none" stroke="black" d="M793.52,-894.91C794.49,-781.3 801.93,-178.61 850.51,-114.33 858.85,-103.29 869.34,-94.22 881,-86.76"/>
<polygon fill="black" stroke="black" points="882.44,-89.97 889.28,-81.88 878.89,-83.94 882.44,-89.97"/>
</g>
<!-- rev_cites -->
<g id="node22" class="node">
<title>rev_cites</title>
<polygon fill="lightblue" stroke="black" points="376.1,-931.33 322.1,-931.33 322.1,-895.33 376.1,-895.33 376.1,-931.33"/>
<text xml:space="preserve" text-anchor="middle" x="349.1" y="-908.28" font-family="Times,serif" font-size="14.00">cites</text>
</g>
<!-- rev_cites&#45;&gt;RFC8188 -->
<g id="edge21" class="edge">
<title>rev_cites&#45;&gt;RFC8188</title>
<path fill="none" stroke="black" d="M376.59,-919.84C393.69,-924.04 417.32,-929.85 442.2,-935.97"/>
<polygon fill="black" stroke="black" points="441.29,-939.35 451.83,-938.34 442.96,-932.55 441.29,-939.35"/>
</g>
<!-- RFC8291 -->
<g id="node23" class="node">
<title>RFC8291</title>
<g id="a_node23"><a xlink:href="RFC8291.html" xlink:title="This document describes a message encryption scheme for the Web Push protocol. &#160;This scheme provides confidentiality and integrity for messages sent from an application server to a user agent." target="_top">
<ellipse fill="none" stroke="black" cx="145.49" cy="-963.33" rx="145.49" ry="40.66"/>
<text xml:space="preserve" text-anchor="middle" x="145.49" y="-974.78" font-family="Times,serif" font-size="14.00">RFC8291</text>
<text xml:space="preserve" text-anchor="middle" x="145.49" y="-958.28" font-family="Times,serif" font-size="14.00">Message Encryption for Web Push</text>
<text xml:space="preserve" text-anchor="middle" x="145.49" y="-941.78" font-family="Times,serif" font-size="14.00">2017</text>
</a>
</g>
</g>
<!-- RFC8291&#45;&gt;rev_cites -->
<g id="edge22" class="edge">
<title>RFC8291&#45;&gt;rev_cites</title>
<path fill="none" stroke="black" d="M255.26,-936.35C275.31,-931.38 294.95,-926.51 310.95,-922.54"/>
<polygon fill="black" stroke="black" points="311.59,-925.99 320.45,-920.18 309.9,-919.19 311.59,-925.99"/>
</g>
<!-- RFC9530 -->
<g id="node24" class="node">
<title>RFC9530</title>
<g id="a_node24"><a xlink:href="RFC9530.html" xlink:title="This document defines HTTP fields that support integrity digests. The Content&#45;Digest field can be used for the integrity of HTTP message content. The Repr&#45;Digest field can be used for the integrity of HTTP representations. Want&#45;Content&#45;Digest and Want&#45;Repr&#45;Digest can be used to indicate a sender&#39;s interest and preferences for receiving the respective Integrity fields. This document obsoletes RFC 3230 and the Digest and Want&#45;Digest HTTP fields." target="_top">
<ellipse fill="none" stroke="black" cx="145.49" cy="-864.33" rx="62.23" ry="40.66"/>
<text xml:space="preserve" text-anchor="middle" x="145.49" y="-875.78" font-family="Times,serif" font-size="14.00">RFC9530</text>
<text xml:space="preserve" text-anchor="middle" x="145.49" y="-859.28" font-family="Times,serif" font-size="14.00">Digest Fields</text>
<text xml:space="preserve" text-anchor="middle" x="145.49" y="-842.78" font-family="Times,serif" font-size="14.00">2024</text>
</a>
</g>
</g>
<!-- RFC9530&#45;&gt;rev_cites -->
<g id="edge23" class="edge">
<title>RFC9530&#45;&gt;rev_cites</title>
<path fill="none" stroke="black" d="M204.26,-878.37C238.47,-886.68 280.81,-896.97 310.67,-904.23"/>
<polygon fill="black" stroke="black" points="309.84,-907.63 320.39,-906.59 311.5,-900.83 309.84,-907.63"/>
</g>
</g>
</svg>
