<?xml version="1.0" encoding="UTF-8" standalone="no"?>
<!DOCTYPE svg PUBLIC "-//W3C//DTD SVG 1.1//EN"
 "http://www.w3.org/Graphics/SVG/1.1/DTD/svg11.dtd">
<!-- Generated by graphviz version 14.1.1 (20251213.1925)
 -->
<!-- Title: Flow Pages: 1 -->
<svg width="907pt" height="1048pt"
 viewBox="0.00 0.00 907.00 1048.00" xmlns="http://www.w3.org/2000/svg" xmlns:xlink="http://www.w3.org/1999/xlink">
<g id="graph0" class="graph" transform="scale(1 1) rotate(0) translate(4 1044.32)">
<title>Flow</title>
<polygon fill="white" stroke="none" points="-4,4 -4,-1044.32 902.7,-1044.32 902.7,4 -4,4"/>
<!-- RFC8748 -->
<g id="node1" class="node">
<title>RFC8748</title>
<g id="a_node1"><a xlink:title="Given the expansion of the DNS namespace and the proliferation of novel business models, it is desirable to provide a method for Extensible Provisioning Protocol (EPP) clients to query EPP servers for the fees and credits associated with various billable transactions and provide expected fees and credits for certain commands and objects. &#160;This document describes an EPP extension mapping for registry fees.">
<ellipse fill="green" stroke="black" cx="254.77" cy="-550.33" rx="163.52" ry="52.33"/>
<text xml:space="preserve" text-anchor="middle" x="254.77" y="-570.03" font-family="Times,serif" font-size="14.00">RFC8748</text>
<text xml:space="preserve" text-anchor="middle" x="254.77" y="-553.53" font-family="Times,serif" font-size="14.00">Registry Fee Extension for the</text>
<text xml:space="preserve" text-anchor="middle" x="254.77" y="-537.03" font-family="Times,serif" font-size="14.00">Extensible Provisioning Protocol (EPP)</text>
<text xml:space="preserve" text-anchor="middle" x="254.77" y="-520.53" font-family="Times,serif" font-size="14.00">2020</text>
</a>
</g>
</g>
<!-- obs -->
<g id="node3" class="node">
<title>obs</title>
<polygon fill="lightblue" stroke="black" points="509.54,-622.33 443.29,-622.33 443.29,-586.33 509.54,-586.33 509.54,-622.33"/>
<text xml:space="preserve" text-anchor="middle" x="476.41" y="-599.28" font-family="Times,serif" font-size="14.00">obsoletes</text>
</g>
<!-- RFC8748&#45;&gt;obs -->
<g id="edge2" class="edge">
<title>RFC8748&#45;&gt;obs</title>
<path fill="none" stroke="black" d="M385.44,-582.21C402.13,-586.31 418.19,-590.26 432,-593.65"/>
<polygon fill="black" stroke="black" points="431.02,-597.02 441.57,-596.01 432.69,-590.22 431.02,-597.02"/>
</g>
<!-- updates -->
<g id="node4" class="node">
<title>updates</title>
<polygon fill="lightyellow" stroke="black" points="505.04,-568.33 447.79,-568.33 447.79,-532.33 505.04,-532.33 505.04,-568.33"/>
<text xml:space="preserve" text-anchor="middle" x="476.41" y="-545.28" font-family="Times,serif" font-size="14.00">updates</text>
</g>
<!-- RFC8748&#45;&gt;updates -->
<g id="edge3" class="edge">
<title>RFC8748&#45;&gt;updates</title>
<path fill="none" stroke="black" d="M418.56,-550.33C424.73,-550.33 430.6,-550.33 436.06,-550.33"/>
<polygon fill="black" stroke="black" points="435.83,-553.83 445.83,-550.33 435.83,-546.83 435.83,-553.83"/>
</g>
<!-- cites -->
<g id="node6" class="node">
<title>cites</title>
<polygon fill="lightblue" stroke="black" points="503.41,-514.33 449.41,-514.33 449.41,-478.33 503.41,-478.33 503.41,-514.33"/>
<text xml:space="preserve" text-anchor="middle" x="476.41" y="-491.28" font-family="Times,serif" font-size="14.00">cites</text>
</g>
<!-- RFC8748&#45;&gt;cites -->
<g id="edge5" class="edge">
<title>RFC8748&#45;&gt;cites</title>
<path fill="none" stroke="black" d="M385.44,-518.45C404.68,-513.71 423.09,-509.19 438.18,-505.48"/>
<polygon fill="black" stroke="black" points="438.69,-508.96 447.56,-503.17 437.01,-502.16 438.69,-508.96"/>
</g>
<!-- obs_by -->
<g id="node2" class="node">
<title>obs_by</title>
<polygon fill="lightblue" stroke="black" points="66.25,-622.33 0,-622.33 0,-586.33 66.25,-586.33 66.25,-622.33"/>
<text xml:space="preserve" text-anchor="middle" x="33.12" y="-599.28" font-family="Times,serif" font-size="14.00">obsoletes</text>
</g>
<!-- obs_by&#45;&gt;RFC8748 -->
<g id="edge1" class="edge">
<title>obs_by&#45;&gt;RFC8748</title>
<path fill="none" stroke="black" d="M66.53,-596.36C79.78,-593.1 96.07,-589.1 113.48,-584.82"/>
<polygon fill="black" stroke="black" points="114.1,-588.27 122.97,-582.48 112.43,-581.47 114.1,-588.27"/>
</g>
<!-- updated_by -->
<g id="node5" class="node">
<title>updated_by</title>
<polygon fill="lightyellow" stroke="black" points="61.75,-568.33 4.5,-568.33 4.5,-532.33 61.75,-532.33 61.75,-568.33"/>
<text xml:space="preserve" text-anchor="middle" x="33.12" y="-545.28" font-family="Times,serif" font-size="14.00">updates</text>
</g>
<!-- updated_by&#45;&gt;RFC8748 -->
<g id="edge4" class="edge">
<title>updated_by&#45;&gt;RFC8748</title>
<path fill="none" stroke="black" d="M61.94,-550.33C67.34,-550.33 73.35,-550.33 79.82,-550.33"/>
<polygon fill="black" stroke="black" points="79.6,-553.83 89.6,-550.33 79.6,-546.83 79.6,-553.83"/>
</g>
<!-- RFC3915 -->
<g id="node7" class="node">
<title>RFC3915</title>
<g id="a_node7"><a xlink:href="RFC3915.html" xlink:title="This document describes an Extensible Provisioning Protocol (EPP) extension mapping for the management of Domain Name System (DNS) domain names subject to grace period policies defined by the Internet Corporation for Assigned Names and Numbers (ICANN). &#160;Grace period policies exist to allow protocol actions to be reversed or otherwise revoked during a short period of time after the protocol action has been performed. &#160;Specified in XML, this mapping extends the EPP domain name mapping to provide additional features required for grace period processing. [STANDARDS&#45;TRACK]" target="_top">
<ellipse fill="none" stroke="black" cx="716.62" cy="-976.33" rx="182.08" ry="63.99"/>
<text xml:space="preserve" text-anchor="middle" x="716.62" y="-1004.28" font-family="Times,serif" font-size="14.00">RFC3915</text>
<text xml:space="preserve" text-anchor="middle" x="716.62" y="-987.78" font-family="Times,serif" font-size="14.00">Domain Registry Grace Period Mapping for</text>
<text xml:space="preserve" text-anchor="middle" x="716.62" y="-971.28" font-family="Times,serif" font-size="14.00">the Extensible Provisioning Protocol</text>
<text xml:space="preserve" text-anchor="middle" x="716.62" y="-954.78" font-family="Times,serif" font-size="14.00">(EPP)</text>
<text xml:space="preserve" text-anchor="middle" x="716.62" y="-938.28" font-family="Times,serif" font-size="14.00">2004</text>
</a>
</g>
</g>
<!-- cites&#45;&gt;RFC3915 -->
<g id="edge6" class="edge">
<title>cites&#45;&gt;RFC3915</title>
<path fill="none" stroke="black" d="M503.44,-514.66C505.84,-517.31 507.96,-520.21 509.54,-523.33 547.77,-598.82 484.91,-834.78 534.54,-903.33 542.3,-914.05 551.91,-923.2 562.63,-931.01"/>
<polygon fill="black" stroke="black" points="560.37,-933.71 570.61,-936.41 564.29,-927.91 560.37,-933.71"/>
</g>
<!-- RFC5730 -->
<g id="node8" class="node">
<title>RFC5730</title>
<g id="a_node8"><a xlink:href="RFC5730.html" xlink:title="This document describes an application&#45;layer client&#45;server protocol for the provisioning and management of objects stored in a shared central repository. &#160;Specified in XML, the protocol defines generic object management operations and an extensible framework that maps protocol operations to objects. &#160;This document includes a protocol specification, an object mapping template, and an XML media type registration. &#160;This document obsoletes RFC 4930. [STANDARDS&#45;TRACK]" target="_top">
<ellipse fill="none" stroke="black" cx="716.62" cy="-853.33" rx="163.52" ry="40.66"/>
<text xml:space="preserve" text-anchor="middle" x="716.62" y="-864.78" font-family="Times,serif" font-size="14.00">RFC5730</text>
<text xml:space="preserve" text-anchor="middle" x="716.62" y="-848.28" font-family="Times,serif" font-size="14.00">Extensible Provisioning Protocol (EPP)</text>
<text xml:space="preserve" text-anchor="middle" x="716.62" y="-831.78" font-family="Times,serif" font-size="14.00">2009</text>
</a>
</g>
</g>
<!-- cites&#45;&gt;RFC5730 -->
<g id="edge7" class="edge">
<title>cites&#45;&gt;RFC5730</title>
<path fill="none" stroke="black" d="M503.37,-514.69C505.78,-517.34 507.92,-520.22 509.54,-523.33 538.41,-578.72 494.52,-755.35 534.54,-803.33 542.86,-813.3 552.97,-821.38 564.12,-827.92"/>
<polygon fill="black" stroke="black" points="562.36,-830.95 572.83,-832.56 565.66,-824.77 562.36,-830.95"/>
</g>
<!-- RFC2119 -->
<g id="node9" class="node">
<title>RFC2119</title>
<g id="a_node9"><a xlink:href="RFC2119.html" xlink:title="In many standards track documents several words are used to signify the requirements in the specification. &#160;These words are often capitalized. &#160;This document defines these words as they should be interpreted in IETF documents. &#160;This document specifies an Internet Best Current Practices for the Internet Community, and requests discussion and suggestions for improvements." target="_top">
<ellipse fill="none" stroke="black" cx="716.62" cy="-742.33" rx="160.34" ry="52.33"/>
<text xml:space="preserve" text-anchor="middle" x="716.62" y="-762.03" font-family="Times,serif" font-size="14.00">RFC2119</text>
<text xml:space="preserve" text-anchor="middle" x="716.62" y="-745.53" font-family="Times,serif" font-size="14.00">Key words for use in RFCs to Indicate</text>
<text xml:space="preserve" text-anchor="middle" x="716.62" y="-729.03" font-family="Times,serif" font-size="14.00">Requirement Levels</text>
<text xml:space="preserve" text-anchor="middle" x="716.62" y="-712.53" font-family="Times,serif" font-size="14.00">1997</text>
</a>
</g>
</g>
<!-- cites&#45;&gt;RFC2119 -->
<g id="edge8" class="edge">
<title>cites&#45;&gt;RFC2119</title>
<path fill="none" stroke="black" d="M503.16,-514.81C505.61,-517.43 507.81,-520.28 509.54,-523.33 544.33,-584.82 489.05,-626.26 534.54,-680.33 544.43,-692.09 556.67,-701.63 570.07,-709.36"/>
<polygon fill="black" stroke="black" points="568.22,-712.34 578.69,-713.96 571.52,-706.16 568.22,-712.34"/>
</g>
<!-- RFC8174 -->
<g id="node10" class="node">
<title>RFC8174</title>
<g id="a_node10"><a xlink:href="RFC8174.html" xlink:title="RFC 2119 specifies common key words that may be used in protocol specifications. &#160;This document aims to reduce the ambiguity by clarifying that only UPPERCASE usage of the key words have the defined special meanings." target="_top">
<ellipse fill="none" stroke="black" cx="716.62" cy="-619.33" rx="172" ry="52.33"/>
<text xml:space="preserve" text-anchor="middle" x="716.62" y="-639.03" font-family="Times,serif" font-size="14.00">RFC8174</text>
<text xml:space="preserve" text-anchor="middle" x="716.62" y="-622.53" font-family="Times,serif" font-size="14.00">Ambiguity of Uppercase vs Lowercase in</text>
<text xml:space="preserve" text-anchor="middle" x="716.62" y="-606.03" font-family="Times,serif" font-size="14.00">RFC 2119 Key Words</text>
<text xml:space="preserve" text-anchor="middle" x="716.62" y="-589.53" font-family="Times,serif" font-size="14.00">2017</text>
</a>
</g>
</g>
<!-- cites&#45;&gt;RFC8174 -->
<g id="edge9" class="edge">
<title>cites&#45;&gt;RFC8174</title>
<path fill="none" stroke="black" d="M500.49,-514.56C503.64,-517.38 506.75,-520.35 509.54,-523.33 522.36,-537.01 519.42,-546.23 534.54,-557.33 546.71,-566.27 560.28,-573.99 574.35,-580.64"/>
<polygon fill="black" stroke="black" points="572.74,-583.75 583.3,-584.67 575.62,-577.37 572.74,-583.75"/>
</g>
<!-- RFC8334 -->
<g id="node11" class="node">
<title>RFC8334</title>
<g id="a_node11"><a xlink:href="RFC8334.html" xlink:title="This document describes an Extensible Provisioning Protocol (EPP) extension mapping for the provisioning and management of domain name registrations and applications during the launch of a domain name registry." target="_top">
<ellipse fill="none" stroke="black" cx="716.62" cy="-496.33" rx="173.59" ry="52.33"/>
<text xml:space="preserve" text-anchor="middle" x="716.62" y="-516.03" font-family="Times,serif" font-size="14.00">RFC8334</text>
<text xml:space="preserve" text-anchor="middle" x="716.62" y="-499.53" font-family="Times,serif" font-size="14.00">Launch Phase Mapping for the Extensible</text>
<text xml:space="preserve" text-anchor="middle" x="716.62" y="-483.03" font-family="Times,serif" font-size="14.00">Provisioning Protocol (EPP)</text>
<text xml:space="preserve" text-anchor="middle" x="716.62" y="-466.53" font-family="Times,serif" font-size="14.00">2018</text>
</a>
</g>
</g>
<!-- cites&#45;&gt;RFC8334 -->
<g id="edge10" class="edge">
<title>cites&#45;&gt;RFC8334</title>
<path fill="none" stroke="black" d="M503.81,-496.33C511.69,-496.33 520.97,-496.33 531.19,-496.33"/>
<polygon fill="black" stroke="black" points="531.1,-499.83 541.1,-496.33 531.1,-492.83 531.1,-499.83"/>
</g>
<!-- RFC5731 -->
<g id="node12" class="node">
<title>RFC5731</title>
<g id="a_node12"><a xlink:href="RFC5731.html" xlink:title="This document describes an Extensible Provisioning Protocol (EPP) mapping for the provisioning and management of Internet domain names stored in a shared central repository. &#160;Specified in XML, the mapping defines EPP command syntax and semantics as applied to domain names. &#160;This document obsoletes RFC 4931. [STANDARDS&#45;TRACK]" target="_top">
<ellipse fill="none" stroke="black" cx="716.62" cy="-373.33" rx="163.52" ry="52.33"/>
<text xml:space="preserve" text-anchor="middle" x="716.62" y="-393.03" font-family="Times,serif" font-size="14.00">RFC5731</text>
<text xml:space="preserve" text-anchor="middle" x="716.62" y="-376.53" font-family="Times,serif" font-size="14.00">Extensible Provisioning Protocol (EPP)</text>
<text xml:space="preserve" text-anchor="middle" x="716.62" y="-360.03" font-family="Times,serif" font-size="14.00">Domain Name Mapping</text>
<text xml:space="preserve" text-anchor="middle" x="716.62" y="-343.53" font-family="Times,serif" font-size="14.00">2009</text>
</a>
</g>
</g>
<!-- cites&#45;&gt;RFC5731 -->
<g id="edge11" class="edge">
<title>cites&#45;&gt;RFC5731</title>
<path fill="none" stroke="black" d="M490.57,-478.03C501.11,-464.55 516.99,-446.67 534.54,-435.33 548.61,-426.22 564.17,-418.3 580.09,-411.44"/>
<polygon fill="black" stroke="black" points="581.29,-414.74 589.19,-407.67 578.61,-408.27 581.29,-414.74"/>
</g>
<!-- RFC5646 -->
<g id="node13" class="node">
<title>RFC5646</title>
<g id="a_node13"><a xlink:href="RFC5646.html" xlink:title="This document describes the structure, content, construction, and semantics of language tags for use in cases where it is desirable to indicate the language used in an information object. &#160;It also describes how to register values for use in language tags and the creation of user&#45;defined extensions for private interchange. &#160;This document specifies an Internet Best Current Practices for the Internet Community, and requests discussion and suggestions for improvements." target="_top">
<ellipse fill="none" stroke="black" cx="716.62" cy="-262.33" rx="132.76" ry="40.66"/>
<text xml:space="preserve" text-anchor="middle" x="716.62" y="-273.78" font-family="Times,serif" font-size="14.00">RFC5646</text>
<text xml:space="preserve" text-anchor="middle" x="716.62" y="-257.28" font-family="Times,serif" font-size="14.00">Tags for Identifying Languages</text>
<text xml:space="preserve" text-anchor="middle" x="716.62" y="-240.78" font-family="Times,serif" font-size="14.00">2009</text>
</a>
</g>
</g>
<!-- cites&#45;&gt;RFC5646 -->
<g id="edge12" class="edge">
<title>cites&#45;&gt;RFC5646</title>
<path fill="none" stroke="black" d="M477.61,-477.98C479.02,-441.14 487.57,-357.83 534.54,-312.33 548.24,-299.05 565.14,-289.23 583.06,-281.98"/>
<polygon fill="black" stroke="black" points="584.15,-285.3 592.3,-278.53 581.71,-278.75 584.15,-285.3"/>
</g>
<!-- RFC3688 -->
<g id="node14" class="node">
<title>RFC3688</title>
<g id="a_node14"><a xlink:href="RFC3688.html" xlink:title="This document describes an IANA maintained registry for IETF standards which use Extensible Markup Language (XML) related items such as Namespaces, Document Type Declarations (DTDs), Schemas, and Resource Description Framework (RDF) Schemas." target="_top">
<ellipse fill="none" stroke="black" cx="716.62" cy="-163.33" rx="107.83" ry="40.66"/>
<text xml:space="preserve" text-anchor="middle" x="716.62" y="-174.78" font-family="Times,serif" font-size="14.00">RFC3688</text>
<text xml:space="preserve" text-anchor="middle" x="716.62" y="-158.28" font-family="Times,serif" font-size="14.00">The IETF XML Registry</text>
<text xml:space="preserve" text-anchor="middle" x="716.62" y="-141.78" font-family="Times,serif" font-size="14.00">2004</text>
</a>
</g>
</g>
<!-- cites&#45;&gt;RFC3688 -->
<g id="edge13" class="edge">
<title>cites&#45;&gt;RFC3688</title>
<path fill="none" stroke="black" d="M478.64,-477.89C482.76,-421.27 498.01,-251.33 534.54,-212.33 551.89,-193.79 575.47,-182 599.87,-174.57"/>
<polygon fill="black" stroke="black" points="600.59,-178 609.28,-171.95 598.71,-171.26 600.59,-178"/>
</g>
<!-- RFC7451 -->
<g id="node15" class="node">
<title>RFC7451</title>
<g id="a_node15"><a xlink:href="RFC7451.html" xlink:title="The Extensible Provisioning Protocol (EPP) includes features to add functionality by extending the protocol. &#160;It does not, however, describe how those extensions are managed. &#160;This document describes a procedure for the registration and management of extensions to EPP, and it specifies a format for an IANA registry to record those extensions." target="_top">
<ellipse fill="none" stroke="black" cx="716.62" cy="-52.33" rx="155.56" ry="52.33"/>
<text xml:space="preserve" text-anchor="middle" x="716.62" y="-72.03" font-family="Times,serif" font-size="14.00">RFC7451</text>
<text xml:space="preserve" text-anchor="middle" x="716.62" y="-55.53" font-family="Times,serif" font-size="14.00">Extension Registry for the Extensible</text>
<text xml:space="preserve" text-anchor="middle" x="716.62" y="-39.03" font-family="Times,serif" font-size="14.00">Provisioning Protocol</text>
<text xml:space="preserve" text-anchor="middle" x="716.62" y="-22.53" font-family="Times,serif" font-size="14.00">2015</text>
</a>
</g>
</g>
<!-- cites&#45;&gt;RFC7451 -->
<g id="edge14" class="edge">
<title>cites&#45;&gt;RFC7451</title>
<path fill="none" stroke="black" d="M477.69,-478.17C479.07,-409.93 487.28,-169.77 534.54,-113.33 544.74,-101.13 557.48,-91.37 571.44,-83.55"/>
<polygon fill="black" stroke="black" points="572.67,-86.85 579.93,-79.13 569.45,-80.64 572.67,-86.85"/>
</g>
<!-- rev_cites -->
<g id="node16" class="node">
<title>rev_cites</title>
<polygon fill="lightblue" stroke="black" points="60.12,-514.33 6.12,-514.33 6.12,-478.33 60.12,-478.33 60.12,-514.33"/>
<text xml:space="preserve" text-anchor="middle" x="33.12" y="-491.28" font-family="Times,serif" font-size="14.00">cites</text>
</g>
<!-- rev_cites&#45;&gt;RFC8748 -->
<g id="edge15" class="edge">
<title>rev_cites&#45;&gt;RFC8748</title>
<path fill="none" stroke="black" d="M60.62,-502.84C74.74,-506.31 93.32,-510.88 113.38,-515.81"/>
<polygon fill="black" stroke="black" points="112.3,-519.15 122.85,-518.14 113.97,-512.35 112.3,-519.15"/>
</g>
</g>
</svg>
