<?xml version="1.0" encoding="UTF-8" standalone="no"?>
<!DOCTYPE svg PUBLIC "-//W3C//DTD SVG 1.1//EN"
 "http://www.w3.org/Graphics/SVG/1.1/DTD/svg11.dtd">
<!-- Generated by graphviz version 14.1.1 (20251213.1925)
 -->
<!-- Title: Flow Pages: 1 -->
<svg width="1903pt" height="1419pt"
 viewBox="0.00 0.00 1903.00 1419.00" xmlns="http://www.w3.org/2000/svg" xmlns:xlink="http://www.w3.org/1999/xlink">
<g id="graph0" class="graph" transform="scale(1 1) rotate(0) translate(4 1415.04)">
<title>Flow</title>
<polygon fill="white" stroke="none" points="-4,4 -4,-1415.04 1899.18,-1415.04 1899.18,4 -4,4"/>
<!-- RFC8798 -->
<g id="node1" class="node">
<title>RFC8798</title>
<g id="a_node1"><a xlink:title="The Sensor Measurement Lists (SenML) media type supports the indication of units for a quantity represented. &#160;This short document registers a number of additional unit names in the IANA registry for units in SenML. &#160;It also defines a registry for secondary units that cannot be in SenML&#39;s main registry, as they are derived by linear transformation from units already in that registry.">
<ellipse fill="green" stroke="black" stroke-width="3" cx="981.82" cy="-572.86" rx="226.1" ry="65.05"/>
<text xml:space="preserve" text-anchor="middle" x="981.82" y="-597.76" font-family="Times,serif" font-size="18.00">RFC8798</text>
<text xml:space="preserve" text-anchor="middle" x="981.82" y="-576.76" font-family="Times,serif" font-size="18.00">Additional Units for Sensor Measurement</text>
<text xml:space="preserve" text-anchor="middle" x="981.82" y="-555.76" font-family="Times,serif" font-size="18.00">Lists (SenML)</text>
<text xml:space="preserve" text-anchor="middle" x="981.82" y="-534.76" font-family="Times,serif" font-size="18.00">2020</text>
</a>
</g>
</g>
<!-- obs -->
<g id="node3" class="node">
<title>obs</title>
<polygon fill="lightblue" stroke="black" points="1395.43,-729.35 1329.18,-729.35 1329.18,-693.35 1395.43,-693.35 1395.43,-729.35"/>
<text xml:space="preserve" text-anchor="middle" x="1362.31" y="-706.3" font-family="Times,serif" font-size="14.00">obsoletes</text>
</g>
<!-- RFC8798&#45;&gt;obs -->
<g id="edge2" class="edge">
<title>RFC8798&#45;&gt;obs</title>
<path fill="none" stroke="black" d="M1124.31,-624.73C1193.06,-649.75 1270.71,-678.01 1318.08,-695.25"/>
<polygon fill="black" stroke="black" points="1316.85,-698.53 1327.44,-698.66 1319.24,-691.95 1316.85,-698.53"/>
</g>
<!-- updates -->
<g id="node4" class="node">
<title>updates</title>
<polygon fill="lightyellow" stroke="black" points="1212.9,-941.52 1155.65,-941.52 1155.65,-905.52 1212.9,-905.52 1212.9,-941.52"/>
<text xml:space="preserve" text-anchor="middle" x="1184.27" y="-918.47" font-family="Times,serif" font-size="14.00">updates</text>
</g>
<!-- RFC8798&#45;&gt;updates -->
<g id="edge3" class="edge">
<title>RFC8798&#45;&gt;updates</title>
<path fill="none" stroke="black" d="M1019.66,-638.41C1064.17,-715.51 1136.05,-840 1168.03,-895.39"/>
<polygon fill="black" stroke="black" points="1164.91,-896.99 1172.94,-903.9 1170.97,-893.49 1164.91,-896.99"/>
</g>
<!-- cites -->
<g id="node6" class="node">
<title>cites</title>
<polygon fill="lightblue" stroke="black" points="628.33,-729.35 574.33,-729.35 574.33,-693.35 628.33,-693.35 628.33,-729.35"/>
<text xml:space="preserve" text-anchor="middle" x="601.33" y="-706.3" font-family="Times,serif" font-size="14.00">cites</text>
</g>
<!-- RFC8798&#45;&gt;cites -->
<g id="edge5" class="edge">
<title>RFC8798&#45;&gt;cites</title>
<path fill="none" stroke="black" d="M839.33,-624.73C767.6,-650.83 686.2,-680.46 639.59,-697.43"/>
<polygon fill="black" stroke="black" points="638.42,-694.13 630.22,-700.84 640.81,-700.71 638.42,-694.13"/>
</g>
<!-- obs_by -->
<g id="node2" class="node">
<title>obs_by</title>
<polygon fill="lightblue" stroke="black" points="944.63,-192.11 878.38,-192.11 878.38,-156.11 944.63,-156.11 944.63,-192.11"/>
<text xml:space="preserve" text-anchor="middle" x="911.51" y="-169.06" font-family="Times,serif" font-size="14.00">obsoletes</text>
</g>
<!-- obs_by&#45;&gt;RFC8798 -->
<g id="edge1" class="edge">
<title>obs_by&#45;&gt;RFC8798</title>
<path fill="none" stroke="black" d="M914.76,-192.54C924.1,-245.53 951.43,-400.54 968.18,-495.51"/>
<polygon fill="black" stroke="black" points="964.72,-496.06 969.9,-505.3 971.61,-494.84 964.72,-496.06"/>
</g>
<!-- updated_by -->
<g id="node5" class="node">
<title>updated_by</title>
<polygon fill="lightyellow" stroke="black" points="1212.9,-240.2 1155.65,-240.2 1155.65,-204.2 1212.9,-204.2 1212.9,-240.2"/>
<text xml:space="preserve" text-anchor="middle" x="1184.27" y="-217.15" font-family="Times,serif" font-size="14.00">updates</text>
</g>
<!-- updated_by&#45;&gt;RFC8798 -->
<g id="edge4" class="edge">
<title>updated_by&#45;&gt;RFC8798</title>
<path fill="none" stroke="black" d="M1173.67,-240.56C1146.47,-287.69 1072.96,-415.01 1025.23,-497.67"/>
<polygon fill="black" stroke="black" points="1022.27,-495.8 1020.3,-506.21 1028.33,-499.3 1022.27,-495.8"/>
</g>
<!-- RFC8428 -->
<g id="node7" class="node">
<title>RFC8428</title>
<g id="a_node7"><a xlink:href="RFC8428.html" xlink:title="This specification defines a format for representing simple sensor measurements and device parameters in Sensor Measurement Lists (SenML). &#160;Representations are defined in JavaScript Object Notation (JSON), Concise Binary Object Representation (CBOR), Extensible Markup Language (XML), and Efficient XML Interchange (EXI), which share the common SenML data model. &#160;A simple sensor, such as a temperature sensor, could use one of these media types in protocols such as HTTP or the Constrained Application Protocol (CoAP) to transport the measurements of the sensor or to be configured." target="_top">
<ellipse fill="none" stroke="black" cx="841.2" cy="-1370.38" rx="152.38" ry="40.66"/>
<text xml:space="preserve" text-anchor="middle" x="841.2" y="-1381.83" font-family="Times,serif" font-size="14.00">RFC8428</text>
<text xml:space="preserve" text-anchor="middle" x="841.2" y="-1365.33" font-family="Times,serif" font-size="14.00">Sensor Measurement Lists (SenML)</text>
<text xml:space="preserve" text-anchor="middle" x="841.2" y="-1348.83" font-family="Times,serif" font-size="14.00">2018</text>
</a>
</g>
</g>
<!-- cites&#45;&gt;RFC8428 -->
<g id="edge6" class="edge">
<title>cites&#45;&gt;RFC8428</title>
<path fill="none" stroke="black" d="M608,-729.67C639.38,-815.89 772.95,-1182.88 822.55,-1319.16"/>
<polygon fill="black" stroke="black" points="819.17,-1320.09 825.88,-1328.29 825.75,-1317.7 819.17,-1320.09"/>
</g>
<!-- RFC2119 -->
<g id="node8" class="node">
<title>RFC2119</title>
<g id="a_node8"><a xlink:href="RFC2119.html" xlink:title="In many standards track documents several words are used to signify the requirements in the specification. &#160;These words are often capitalized. &#160;This document defines these words as they should be interpreted in IETF documents. &#160;This document specifies an Internet Best Current Practices for the Internet Community, and requests discussion and suggestions for improvements." target="_top">
<ellipse fill="none" stroke="black" cx="361.46" cy="-1093.4" rx="160.34" ry="52.33"/>
<text xml:space="preserve" text-anchor="middle" x="361.46" y="-1113.1" font-family="Times,serif" font-size="14.00">RFC2119</text>
<text xml:space="preserve" text-anchor="middle" x="361.46" y="-1096.6" font-family="Times,serif" font-size="14.00">Key words for use in RFCs to Indicate</text>
<text xml:space="preserve" text-anchor="middle" x="361.46" y="-1080.1" font-family="Times,serif" font-size="14.00">Requirement Levels</text>
<text xml:space="preserve" text-anchor="middle" x="361.46" y="-1063.6" font-family="Times,serif" font-size="14.00">1997</text>
</a>
</g>
</g>
<!-- cites&#45;&gt;RFC2119 -->
<g id="edge7" class="edge">
<title>cites&#45;&gt;RFC2119</title>
<path fill="none" stroke="black" d="M589.76,-729.78C555.85,-783.8 455.56,-943.53 399.85,-1032.26"/>
<polygon fill="black" stroke="black" points="396.94,-1030.32 394.59,-1040.65 402.87,-1034.04 396.94,-1030.32"/>
</g>
<!-- RFC8174 -->
<g id="node9" class="node">
<title>RFC8174</title>
<g id="a_node9"><a xlink:href="RFC8174.html" xlink:title="RFC 2119 specifies common key words that may be used in protocol specifications. &#160;This document aims to reduce the ambiguity by clarifying that only UPPERCASE usage of the key words have the defined special meanings." target="_top">
<ellipse fill="none" stroke="black" cx="172" cy="-572.86" rx="172" ry="52.33"/>
<text xml:space="preserve" text-anchor="middle" x="172" y="-592.56" font-family="Times,serif" font-size="14.00">RFC8174</text>
<text xml:space="preserve" text-anchor="middle" x="172" y="-576.06" font-family="Times,serif" font-size="14.00">Ambiguity of Uppercase vs Lowercase in</text>
<text xml:space="preserve" text-anchor="middle" x="172" y="-559.56" font-family="Times,serif" font-size="14.00">RFC 2119 Key Words</text>
<text xml:space="preserve" text-anchor="middle" x="172" y="-543.06" font-family="Times,serif" font-size="14.00">2017</text>
</a>
</g>
</g>
<!-- cites&#45;&gt;RFC8174 -->
<g id="edge8" class="edge">
<title>cites&#45;&gt;RFC8174</title>
<path fill="none" stroke="black" d="M574.15,-702.58C520.32,-685.22 397.05,-645.46 301.08,-614.5"/>
<polygon fill="black" stroke="black" points="302.44,-611.26 291.85,-611.52 300.29,-617.92 302.44,-611.26"/>
</g>
<!-- RFC8126 -->
<g id="node10" class="node">
<title>RFC8126</title>
<g id="a_node10"><a xlink:href="RFC8126.html" xlink:title="Many protocols make use of points of extensibility that use constants to identify various protocol parameters. To ensure that the values in these fields do not have conflicting uses and to promote interoperability, their allocations are often coordinated by a central record keeper. For IETF protocols, that role is filled by the Internet Assigned Numbers Authority (IANA). To make assignments in a given registry prudently, guidance describing the conditions under which new values should be assigned, as well as when and how modifications to existing values can be made, is needed. This document defines a framework for the documentation of these guidelines by specification authors, in order to assure that the provided guidance for the IANA Considerations is clear and addresses the various issues that are likely in the operation of a registry. This is the third edition of this document; it obsoletes RFC 5226." target="_top">
<ellipse fill="none" stroke="black" cx="361.46" cy="-52.33" rx="136.47" ry="52.33"/>
<text xml:space="preserve" text-anchor="middle" x="361.46" y="-72.03" font-family="Times,serif" font-size="14.00">RFC8126</text>
<text xml:space="preserve" text-anchor="middle" x="361.46" y="-55.53" font-family="Times,serif" font-size="14.00">Guidelines for Writing an IANA</text>
<text xml:space="preserve" text-anchor="middle" x="361.46" y="-39.03" font-family="Times,serif" font-size="14.00">Considerations Section in RFCs</text>
<text xml:space="preserve" text-anchor="middle" x="361.46" y="-22.53" font-family="Times,serif" font-size="14.00">2017</text>
</a>
</g>
</g>
<!-- cites&#45;&gt;RFC8126 -->
<g id="edge9" class="edge">
<title>cites&#45;&gt;RFC8126</title>
<path fill="none" stroke="black" d="M594.66,-693.04C564.1,-609.07 436.64,-258.87 384.18,-114.73"/>
<polygon fill="black" stroke="black" points="387.61,-113.92 380.9,-105.72 381.03,-116.32 387.61,-113.92"/>
</g>
<!-- rev_cites -->
<g id="node11" class="node">
<title>rev_cites</title>
<polygon fill="lightblue" stroke="black" points="1389.31,-452.38 1335.31,-452.38 1335.31,-416.38 1389.31,-416.38 1389.31,-452.38"/>
<text xml:space="preserve" text-anchor="middle" x="1362.31" y="-429.33" font-family="Times,serif" font-size="14.00">cites</text>
</g>
<!-- rev_cites&#45;&gt;RFC8798 -->
<g id="edge10" class="edge">
<title>rev_cites&#45;&gt;RFC8798</title>
<path fill="none" stroke="black" d="M1334.94,-444.34C1293.04,-459.59 1209.92,-489.84 1134.84,-517.17"/>
<polygon fill="black" stroke="black" points="1133.93,-513.78 1125.73,-520.49 1136.32,-520.35 1133.93,-513.78"/>
</g>
<!-- RFC9100 -->
<g id="node12" class="node">
<title>RFC9100</title>
<g id="a_node12"><a xlink:href="RFC9100.html" xlink:title="This short document updates RFC 8428, Sensor Measurement Lists (SenML), by specifying the use of independently selectable SenML Features and mapping them to SenML version numbers." target="_top">
<ellipse fill="none" stroke="black" cx="1742.8" cy="-295.89" rx="152.38" ry="52.33"/>
<text xml:space="preserve" text-anchor="middle" x="1742.8" y="-315.59" font-family="Times,serif" font-size="14.00">RFC9100</text>
<text xml:space="preserve" text-anchor="middle" x="1742.8" y="-299.09" font-family="Times,serif" font-size="14.00">Sensor Measurement Lists (SenML)</text>
<text xml:space="preserve" text-anchor="middle" x="1742.8" y="-282.59" font-family="Times,serif" font-size="14.00">Features and Versions</text>
<text xml:space="preserve" text-anchor="middle" x="1742.8" y="-266.09" font-family="Times,serif" font-size="14.00">2021</text>
</a>
</g>
</g>
<!-- RFC9100&#45;&gt;rev_cites -->
<g id="edge11" class="edge">
<title>RFC9100&#45;&gt;rev_cites</title>
<path fill="none" stroke="black" d="M1637.57,-334.19C1558.55,-362.95 1454.9,-400.68 1400.09,-420.63"/>
<polygon fill="black" stroke="black" points="1399.1,-417.26 1390.9,-423.97 1401.5,-423.84 1399.1,-417.26"/>
</g>
</g>
</svg>
