<?xml version="1.0" encoding="UTF-8" standalone="no"?>
<!DOCTYPE svg PUBLIC "-//W3C//DTD SVG 1.1//EN"
 "http://www.w3.org/Graphics/SVG/1.1/DTD/svg11.dtd">
<!-- Generated by graphviz version 14.1.1 (20251213.1925)
 -->
<!-- Title: Flow Pages: 1 -->
<svg width="887pt" height="803pt"
 viewBox="0.00 0.00 887.00 803.00" xmlns="http://www.w3.org/2000/svg" xmlns:xlink="http://www.w3.org/1999/xlink">
<g id="graph0" class="graph" transform="scale(1 1) rotate(0) translate(4 798.98)">
<title>Flow</title>
<polygon fill="white" stroke="none" points="-4,4 -4,-798.98 882.54,-798.98 882.54,4 -4,4"/>
<!-- RFC8495 -->
<g id="node1" class="node">
<title>RFC8495</title>
<g id="a_node1"><a xlink:title="This document describes an Extensible Provisioning Protocol (EPP) extension for including an Allocation Token in query and transform commands. &#160;The Allocation Token is used as a credential that authorizes a client to request the allocation of a specific object from the server using one of the EPP transform commands, including create and transfer.">
<ellipse fill="green" stroke="black" cx="254.77" cy="-451.33" rx="163.52" ry="52.33"/>
<text xml:space="preserve" text-anchor="middle" x="254.77" y="-471.03" font-family="Times,serif" font-size="14.00">RFC8495</text>
<text xml:space="preserve" text-anchor="middle" x="254.77" y="-454.53" font-family="Times,serif" font-size="14.00">Allocation Token Extension for the</text>
<text xml:space="preserve" text-anchor="middle" x="254.77" y="-438.03" font-family="Times,serif" font-size="14.00">Extensible Provisioning Protocol (EPP)</text>
<text xml:space="preserve" text-anchor="middle" x="254.77" y="-421.53" font-family="Times,serif" font-size="14.00">2018</text>
</a>
</g>
</g>
<!-- obs -->
<g id="node3" class="node">
<title>obs</title>
<polygon fill="lightblue" stroke="black" points="509.54,-523.33 443.29,-523.33 443.29,-487.33 509.54,-487.33 509.54,-523.33"/>
<text xml:space="preserve" text-anchor="middle" x="476.41" y="-500.28" font-family="Times,serif" font-size="14.00">obsoletes</text>
</g>
<!-- RFC8495&#45;&gt;obs -->
<g id="edge2" class="edge">
<title>RFC8495&#45;&gt;obs</title>
<path fill="none" stroke="black" d="M385.44,-483.21C402.13,-487.31 418.19,-491.26 432,-494.65"/>
<polygon fill="black" stroke="black" points="431.02,-498.02 441.57,-497.01 432.69,-491.22 431.02,-498.02"/>
</g>
<!-- updates -->
<g id="node4" class="node">
<title>updates</title>
<polygon fill="lightyellow" stroke="black" points="505.04,-469.33 447.79,-469.33 447.79,-433.33 505.04,-433.33 505.04,-469.33"/>
<text xml:space="preserve" text-anchor="middle" x="476.41" y="-446.28" font-family="Times,serif" font-size="14.00">updates</text>
</g>
<!-- RFC8495&#45;&gt;updates -->
<g id="edge3" class="edge">
<title>RFC8495&#45;&gt;updates</title>
<path fill="none" stroke="black" d="M418.56,-451.33C424.73,-451.33 430.6,-451.33 436.06,-451.33"/>
<polygon fill="black" stroke="black" points="435.83,-454.83 445.83,-451.33 435.83,-447.83 435.83,-454.83"/>
</g>
<!-- cites -->
<g id="node6" class="node">
<title>cites</title>
<polygon fill="lightblue" stroke="black" points="503.41,-415.33 449.41,-415.33 449.41,-379.33 503.41,-379.33 503.41,-415.33"/>
<text xml:space="preserve" text-anchor="middle" x="476.41" y="-392.28" font-family="Times,serif" font-size="14.00">cites</text>
</g>
<!-- RFC8495&#45;&gt;cites -->
<g id="edge5" class="edge">
<title>RFC8495&#45;&gt;cites</title>
<path fill="none" stroke="black" d="M385.44,-419.45C404.68,-414.71 423.09,-410.19 438.18,-406.48"/>
<polygon fill="black" stroke="black" points="438.69,-409.96 447.56,-404.17 437.01,-403.16 438.69,-409.96"/>
</g>
<!-- obs_by -->
<g id="node2" class="node">
<title>obs_by</title>
<polygon fill="lightblue" stroke="black" points="66.25,-523.33 0,-523.33 0,-487.33 66.25,-487.33 66.25,-523.33"/>
<text xml:space="preserve" text-anchor="middle" x="33.12" y="-500.28" font-family="Times,serif" font-size="14.00">obsoletes</text>
</g>
<!-- obs_by&#45;&gt;RFC8495 -->
<g id="edge1" class="edge">
<title>obs_by&#45;&gt;RFC8495</title>
<path fill="none" stroke="black" d="M66.53,-497.36C79.78,-494.1 96.07,-490.1 113.48,-485.82"/>
<polygon fill="black" stroke="black" points="114.1,-489.27 122.97,-483.48 112.43,-482.47 114.1,-489.27"/>
</g>
<!-- updated_by -->
<g id="node5" class="node">
<title>updated_by</title>
<polygon fill="lightyellow" stroke="black" points="61.75,-469.33 4.5,-469.33 4.5,-433.33 61.75,-433.33 61.75,-469.33"/>
<text xml:space="preserve" text-anchor="middle" x="33.12" y="-446.28" font-family="Times,serif" font-size="14.00">updates</text>
</g>
<!-- updated_by&#45;&gt;RFC8495 -->
<g id="edge4" class="edge">
<title>updated_by&#45;&gt;RFC8495</title>
<path fill="none" stroke="black" d="M61.94,-451.33C67.34,-451.33 73.35,-451.33 79.82,-451.33"/>
<polygon fill="black" stroke="black" points="79.6,-454.83 89.6,-451.33 79.6,-447.83 79.6,-454.83"/>
</g>
<!-- RFC5730 -->
<g id="node7" class="node">
<title>RFC5730</title>
<g id="a_node7"><a xlink:href="RFC5730.html" xlink:title="This document describes an application&#45;layer client&#45;server protocol for the provisioning and management of objects stored in a shared central repository. &#160;Specified in XML, the protocol defines generic object management operations and an extensible framework that maps protocol operations to objects. &#160;This document includes a protocol specification, an object mapping template, and an XML media type registration. &#160;This document obsoletes RFC 4930. [STANDARDS&#45;TRACK]" target="_top">
<ellipse fill="none" stroke="black" cx="706.54" cy="-754.33" rx="163.52" ry="40.66"/>
<text xml:space="preserve" text-anchor="middle" x="706.54" y="-765.78" font-family="Times,serif" font-size="14.00">RFC5730</text>
<text xml:space="preserve" text-anchor="middle" x="706.54" y="-749.28" font-family="Times,serif" font-size="14.00">Extensible Provisioning Protocol (EPP)</text>
<text xml:space="preserve" text-anchor="middle" x="706.54" y="-732.78" font-family="Times,serif" font-size="14.00">2009</text>
</a>
</g>
</g>
<!-- cites&#45;&gt;RFC5730 -->
<g id="edge6" class="edge">
<title>cites&#45;&gt;RFC5730</title>
<path fill="none" stroke="black" d="M503.37,-415.69C505.78,-418.34 507.92,-421.22 509.54,-424.33 538.41,-479.72 494.88,-656.05 534.54,-704.33 541.68,-713.02 550.24,-720.25 559.68,-726.26"/>
<polygon fill="black" stroke="black" points="557.67,-729.15 568.08,-731.12 561.18,-723.08 557.67,-729.15"/>
</g>
<!-- RFC5731 -->
<g id="node8" class="node">
<title>RFC5731</title>
<g id="a_node8"><a xlink:href="RFC5731.html" xlink:title="This document describes an Extensible Provisioning Protocol (EPP) mapping for the provisioning and management of Internet domain names stored in a shared central repository. &#160;Specified in XML, the mapping defines EPP command syntax and semantics as applied to domain names. &#160;This document obsoletes RFC 4931. [STANDARDS&#45;TRACK]" target="_top">
<ellipse fill="none" stroke="black" cx="706.54" cy="-643.33" rx="163.52" ry="52.33"/>
<text xml:space="preserve" text-anchor="middle" x="706.54" y="-663.03" font-family="Times,serif" font-size="14.00">RFC5731</text>
<text xml:space="preserve" text-anchor="middle" x="706.54" y="-646.53" font-family="Times,serif" font-size="14.00">Extensible Provisioning Protocol (EPP)</text>
<text xml:space="preserve" text-anchor="middle" x="706.54" y="-630.03" font-family="Times,serif" font-size="14.00">Domain Name Mapping</text>
<text xml:space="preserve" text-anchor="middle" x="706.54" y="-613.53" font-family="Times,serif" font-size="14.00">2009</text>
</a>
</g>
</g>
<!-- cites&#45;&gt;RFC5731 -->
<g id="edge7" class="edge">
<title>cites&#45;&gt;RFC5731</title>
<path fill="none" stroke="black" d="M503.16,-415.81C505.61,-418.43 507.81,-421.28 509.54,-424.33 544.33,-485.82 489.54,-526.85 534.54,-581.33 542.78,-591.31 552.77,-599.68 563.73,-606.71"/>
<polygon fill="black" stroke="black" points="561.91,-609.69 572.3,-611.77 565.47,-603.67 561.91,-609.69"/>
</g>
<!-- RFC2119 -->
<g id="node9" class="node">
<title>RFC2119</title>
<g id="a_node9"><a xlink:href="RFC2119.html" xlink:title="In many standards track documents several words are used to signify the requirements in the specification. &#160;These words are often capitalized. &#160;This document defines these words as they should be interpreted in IETF documents. &#160;This document specifies an Internet Best Current Practices for the Internet Community, and requests discussion and suggestions for improvements." target="_top">
<ellipse fill="none" stroke="black" cx="706.54" cy="-520.33" rx="160.34" ry="52.33"/>
<text xml:space="preserve" text-anchor="middle" x="706.54" y="-540.03" font-family="Times,serif" font-size="14.00">RFC2119</text>
<text xml:space="preserve" text-anchor="middle" x="706.54" y="-523.53" font-family="Times,serif" font-size="14.00">Key words for use in RFCs to Indicate</text>
<text xml:space="preserve" text-anchor="middle" x="706.54" y="-507.03" font-family="Times,serif" font-size="14.00">Requirement Levels</text>
<text xml:space="preserve" text-anchor="middle" x="706.54" y="-490.53" font-family="Times,serif" font-size="14.00">1997</text>
</a>
</g>
</g>
<!-- cites&#45;&gt;RFC2119 -->
<g id="edge8" class="edge">
<title>cites&#45;&gt;RFC2119</title>
<path fill="none" stroke="black" d="M500.49,-415.56C503.64,-418.38 506.75,-421.35 509.54,-424.33 522.36,-438.01 519.52,-447.09 534.54,-458.33 546.44,-467.23 559.75,-474.96 573.54,-481.64"/>
<polygon fill="black" stroke="black" points="571.74,-484.66 582.28,-485.68 574.68,-478.31 571.74,-484.66"/>
</g>
<!-- RFC8174 -->
<g id="node10" class="node">
<title>RFC8174</title>
<g id="a_node10"><a xlink:href="RFC8174.html" xlink:title="RFC 2119 specifies common key words that may be used in protocol specifications. &#160;This document aims to reduce the ambiguity by clarifying that only UPPERCASE usage of the key words have the defined special meanings." target="_top">
<ellipse fill="none" stroke="black" cx="706.54" cy="-397.33" rx="172" ry="52.33"/>
<text xml:space="preserve" text-anchor="middle" x="706.54" y="-417.03" font-family="Times,serif" font-size="14.00">RFC8174</text>
<text xml:space="preserve" text-anchor="middle" x="706.54" y="-400.53" font-family="Times,serif" font-size="14.00">Ambiguity of Uppercase vs Lowercase in</text>
<text xml:space="preserve" text-anchor="middle" x="706.54" y="-384.03" font-family="Times,serif" font-size="14.00">RFC 2119 Key Words</text>
<text xml:space="preserve" text-anchor="middle" x="706.54" y="-367.53" font-family="Times,serif" font-size="14.00">2017</text>
</a>
</g>
</g>
<!-- cites&#45;&gt;RFC8174 -->
<g id="edge9" class="edge">
<title>cites&#45;&gt;RFC8174</title>
<path fill="none" stroke="black" d="M503.58,-397.33C509.41,-397.33 516.02,-397.33 523.19,-397.33"/>
<polygon fill="black" stroke="black" points="522.98,-400.83 532.98,-397.33 522.98,-393.83 522.98,-400.83"/>
</g>
<!-- RFC3688 -->
<g id="node11" class="node">
<title>RFC3688</title>
<g id="a_node11"><a xlink:href="RFC3688.html" xlink:title="This document describes an IANA maintained registry for IETF standards which use Extensible Markup Language (XML) related items such as Namespaces, Document Type Declarations (DTDs), Schemas, and Resource Description Framework (RDF) Schemas." target="_top">
<ellipse fill="none" stroke="black" cx="706.54" cy="-286.33" rx="107.83" ry="40.66"/>
<text xml:space="preserve" text-anchor="middle" x="706.54" y="-297.78" font-family="Times,serif" font-size="14.00">RFC3688</text>
<text xml:space="preserve" text-anchor="middle" x="706.54" y="-281.28" font-family="Times,serif" font-size="14.00">The IETF XML Registry</text>
<text xml:space="preserve" text-anchor="middle" x="706.54" y="-264.78" font-family="Times,serif" font-size="14.00">2004</text>
</a>
</g>
</g>
<!-- cites&#45;&gt;RFC3688 -->
<g id="edge10" class="edge">
<title>cites&#45;&gt;RFC3688</title>
<path fill="none" stroke="black" d="M490.21,-379.08C500.67,-365.45 516.62,-347.35 534.54,-336.33 554.12,-324.28 576.75,-315.02 599.01,-307.93"/>
<polygon fill="black" stroke="black" points="599.89,-311.32 608.44,-305.07 597.85,-304.62 599.89,-311.32"/>
</g>
<!-- RFC7451 -->
<g id="node12" class="node">
<title>RFC7451</title>
<g id="a_node12"><a xlink:href="RFC7451.html" xlink:title="The Extensible Provisioning Protocol (EPP) includes features to add functionality by extending the protocol. &#160;It does not, however, describe how those extensions are managed. &#160;This document describes a procedure for the registration and management of extensions to EPP, and it specifies a format for an IANA registry to record those extensions." target="_top">
<ellipse fill="none" stroke="black" cx="706.54" cy="-175.33" rx="155.56" ry="52.33"/>
<text xml:space="preserve" text-anchor="middle" x="706.54" y="-195.03" font-family="Times,serif" font-size="14.00">RFC7451</text>
<text xml:space="preserve" text-anchor="middle" x="706.54" y="-178.53" font-family="Times,serif" font-size="14.00">Extension Registry for the Extensible</text>
<text xml:space="preserve" text-anchor="middle" x="706.54" y="-162.03" font-family="Times,serif" font-size="14.00">Provisioning Protocol</text>
<text xml:space="preserve" text-anchor="middle" x="706.54" y="-145.53" font-family="Times,serif" font-size="14.00">2015</text>
</a>
</g>
</g>
<!-- cites&#45;&gt;RFC7451 -->
<g id="edge11" class="edge">
<title>cites&#45;&gt;RFC7451</title>
<path fill="none" stroke="black" d="M478.88,-378.95C482.48,-345.94 494.62,-276.31 534.54,-236.33 544.65,-226.19 556.56,-217.74 569.31,-210.68"/>
<polygon fill="black" stroke="black" points="570.59,-213.96 577.86,-206.25 567.37,-207.74 570.59,-213.96"/>
</g>
<!-- RFC4648 -->
<g id="node13" class="node">
<title>RFC4648</title>
<g id="a_node13"><a xlink:href="RFC4648.html" xlink:title="This document describes the commonly used base 64, base 32, and base 16 encoding schemes. &#160;It also discusses the use of line&#45;feeds in encoded data, use of padding in encoded data, use of non&#45;alphabet characters in encoded data, use of different encoding alphabets, and canonical encodings. [STANDARDS&#45;TRACK]" target="_top">
<ellipse fill="none" stroke="black" cx="706.54" cy="-52.33" rx="160.87" ry="52.33"/>
<text xml:space="preserve" text-anchor="middle" x="706.54" y="-72.03" font-family="Times,serif" font-size="14.00">RFC4648</text>
<text xml:space="preserve" text-anchor="middle" x="706.54" y="-55.53" font-family="Times,serif" font-size="14.00">The Base16, Base32, and Base64 Data</text>
<text xml:space="preserve" text-anchor="middle" x="706.54" y="-39.03" font-family="Times,serif" font-size="14.00">Encodings</text>
<text xml:space="preserve" text-anchor="middle" x="706.54" y="-22.53" font-family="Times,serif" font-size="14.00">2006</text>
</a>
</g>
</g>
<!-- cites&#45;&gt;RFC4648 -->
<g id="edge12" class="edge">
<title>cites&#45;&gt;RFC4648</title>
<path fill="none" stroke="black" d="M478.79,-379.08C483.36,-323.03 499.78,-154.68 534.54,-114.33 543.31,-104.14 553.9,-95.62 565.45,-88.51"/>
<polygon fill="black" stroke="black" points="567.1,-91.6 574.05,-83.61 563.63,-85.52 567.1,-91.6"/>
</g>
<!-- rev_cites -->
<g id="node14" class="node">
<title>rev_cites</title>
<polygon fill="lightblue" stroke="black" points="60.12,-415.33 6.12,-415.33 6.12,-379.33 60.12,-379.33 60.12,-415.33"/>
<text xml:space="preserve" text-anchor="middle" x="33.12" y="-392.28" font-family="Times,serif" font-size="14.00">cites</text>
</g>
<!-- rev_cites&#45;&gt;RFC8495 -->
<g id="edge13" class="edge">
<title>rev_cites&#45;&gt;RFC8495</title>
<path fill="none" stroke="black" d="M60.62,-403.84C74.74,-407.31 93.32,-411.88 113.38,-416.81"/>
<polygon fill="black" stroke="black" points="112.3,-420.15 122.85,-419.14 113.97,-413.35 112.3,-420.15"/>
</g>
</g>
</svg>
