<?xml version="1.0" encoding="UTF-8" standalone="no"?>
<!DOCTYPE svg PUBLIC "-//W3C//DTD SVG 1.1//EN"
 "http://www.w3.org/Graphics/SVG/1.1/DTD/svg11.dtd">
<!-- Generated by graphviz version 14.1.1 (20251213.1925)
 -->
<!-- Title: Flow Pages: 1 -->
<svg width="1222pt" height="805pt"
 viewBox="0.00 0.00 1222.00 805.00" xmlns="http://www.w3.org/2000/svg" xmlns:xlink="http://www.w3.org/1999/xlink">
<g id="graph0" class="graph" transform="scale(1 1) rotate(0) translate(4 801.01)">
<title>Flow</title>
<polygon fill="white" stroke="none" points="-4,4 -4,-801.01 1218.12,-801.01 1218.12,4 -4,4"/>
<!-- RFC8730 -->
<g id="node1" class="node">
<title>RFC8730</title>
<g id="a_node1"><a xlink:title="This document describes the function and responsibilities of the RFC Independent Submission Editor (ISE). The Independent Submission stream is one of the stream producers that create draft RFCs, with the ISE as its stream approver. The ISE is overall responsible for activities within the Independent Submission stream, working with draft editors and reviewers, and interacts with the RFC Production Center and Publisher, and the RFC Series Editor (RSE). The ISE is appointed by the IAB, and also interacts with the IETF Administration Limited Liability Company (LLC). This version obsoletes RFC 6548 to replace all references to the Internet Administrative Support Activity (IASA) and related structures with those defined by the IASA 2.0 structure.">
<ellipse fill="green" stroke="black" cx="536.27" cy="-403.35" rx="160.87" ry="40.66"/>
<text xml:space="preserve" text-anchor="middle" x="536.27" y="-414.8" font-family="Times,serif" font-size="14.00">RFC8730</text>
<text xml:space="preserve" text-anchor="middle" x="536.27" y="-398.3" font-family="Times,serif" font-size="14.00">Independent Submission Editor Model</text>
<text xml:space="preserve" text-anchor="middle" x="536.27" y="-381.8" font-family="Times,serif" font-size="14.00">2020</text>
</a>
</g>
</g>
<!-- obs -->
<g id="node3" class="node">
<title>obs</title>
<polygon fill="lightblue" stroke="black" points="788.39,-679.35 722.14,-679.35 722.14,-643.35 788.39,-643.35 788.39,-679.35"/>
<text xml:space="preserve" text-anchor="middle" x="755.26" y="-656.3" font-family="Times,serif" font-size="14.00">obsoletes</text>
</g>
<!-- RFC8730&#45;&gt;obs -->
<g id="edge2" class="edge">
<title>RFC8730&#45;&gt;obs</title>
<path fill="none" stroke="black" d="M570.94,-443.38C615.6,-496.47 693.23,-588.78 731.55,-634.34"/>
<polygon fill="black" stroke="black" points="728.79,-636.5 737.91,-641.9 734.15,-631.99 728.79,-636.5"/>
</g>
<!-- updates -->
<g id="node5" class="node">
<title>updates</title>
<polygon fill="lightyellow" stroke="black" points="783.89,-475.35 726.64,-475.35 726.64,-439.35 783.89,-439.35 783.89,-475.35"/>
<text xml:space="preserve" text-anchor="middle" x="755.26" y="-452.3" font-family="Times,serif" font-size="14.00">updates</text>
</g>
<!-- RFC8730&#45;&gt;updates -->
<g id="edge4" class="edge">
<title>RFC8730&#45;&gt;updates</title>
<path fill="none" stroke="black" d="M652.12,-431.93C674.8,-437.57 697.11,-443.12 715.07,-447.59"/>
<polygon fill="black" stroke="black" points="714.18,-450.98 724.73,-450 715.87,-444.19 714.18,-450.98"/>
</g>
<!-- cites -->
<g id="node8" class="node">
<title>cites</title>
<polygon fill="lightblue" stroke="black" points="782.26,-421.35 728.26,-421.35 728.26,-385.35 782.26,-385.35 782.26,-421.35"/>
<text xml:space="preserve" text-anchor="middle" x="755.26" y="-398.3" font-family="Times,serif" font-size="14.00">cites</text>
</g>
<!-- RFC8730&#45;&gt;cites -->
<g id="edge7" class="edge">
<title>RFC8730&#45;&gt;cites</title>
<path fill="none" stroke="black" d="M697.53,-403.35C704.29,-403.35 710.7,-403.35 716.61,-403.35"/>
<polygon fill="black" stroke="black" points="716.49,-406.85 726.49,-403.35 716.49,-399.85 716.49,-406.85"/>
</g>
<!-- obs_by -->
<g id="node2" class="node">
<title>obs_by</title>
<polygon fill="lightblue" stroke="black" points="350.4,-367.35 284.15,-367.35 284.15,-331.35 350.4,-331.35 350.4,-367.35"/>
<text xml:space="preserve" text-anchor="middle" x="317.28" y="-344.3" font-family="Times,serif" font-size="14.00">obsoletes</text>
</g>
<!-- obs_by&#45;&gt;RFC8730 -->
<g id="edge1" class="edge">
<title>obs_by&#45;&gt;RFC8730</title>
<path fill="none" stroke="black" d="M350.77,-357.43C366.95,-361.46 387.66,-366.61 409.33,-372.01"/>
<polygon fill="black" stroke="black" points="408.36,-375.37 418.91,-374.39 410.05,-368.58 408.36,-375.37"/>
</g>
<!-- RFC6548 -->
<g id="node4" class="node">
<title>RFC6548</title>
<g id="a_node4"><a xlink:href="RFC6548.html" xlink:title="This document describes the function and responsibilities of the RFC Independent Submission Editor (ISE). &#160;The Independent Submission stream is one of the stream producers that create draft RFCs, with the ISE as its stream approver. &#160;The ISE is overall responsible for activities within the Independent Submission stream, working with draft editors and reviewers, and interacts with the RFC Production Center and Publisher, and the RFC Series Editor (RSE). &#160;The ISE is appointed by the IAB, and also interacts with the IETF Administrative Oversight Committee (IAOC). &#160;This document is not an Internet Standards Track specification; it is published for informational purposes." target="_top">
<ellipse fill="none" stroke="black" cx="974.26" cy="-756.35" rx="160.87" ry="40.66"/>
<text xml:space="preserve" text-anchor="middle" x="974.26" y="-767.8" font-family="Times,serif" font-size="14.00">RFC6548</text>
<text xml:space="preserve" text-anchor="middle" x="974.26" y="-751.3" font-family="Times,serif" font-size="14.00">Independent Submission Editor Model</text>
<text xml:space="preserve" text-anchor="middle" x="974.26" y="-734.8" font-family="Times,serif" font-size="14.00">2012</text>
</a>
</g>
</g>
<!-- obs&#45;&gt;RFC6548 -->
<g id="edge3" class="edge">
<title>obs&#45;&gt;RFC6548</title>
<path fill="none" stroke="black" d="M775.29,-679.75C785.82,-689.1 799.55,-700.01 813.39,-707.35 824.71,-713.35 836.88,-718.74 849.27,-723.55"/>
<polygon fill="black" stroke="black" points="847.7,-726.7 858.29,-726.93 850.15,-720.15 847.7,-726.7"/>
</g>
<!-- updated_by -->
<g id="node6" class="node">
<title>updated_by</title>
<polygon fill="lightyellow" stroke="black" points="345.9,-421.35 288.65,-421.35 288.65,-385.35 345.9,-385.35 345.9,-421.35"/>
<text xml:space="preserve" text-anchor="middle" x="317.28" y="-398.3" font-family="Times,serif" font-size="14.00">updates</text>
</g>
<!-- updated_by&#45;&gt;RFC8730 -->
<g id="edge5" class="edge">
<title>updated_by&#45;&gt;RFC8730</title>
<path fill="none" stroke="black" d="M346.2,-403.35C351.56,-403.35 357.51,-403.35 363.91,-403.35"/>
<polygon fill="black" stroke="black" points="363.55,-406.85 373.55,-403.35 363.55,-399.85 363.55,-406.85"/>
</g>
<!-- RFC9280 -->
<g id="node7" class="node">
<title>RFC9280</title>
<g id="a_node7"><a xlink:href="RFC9280.html" xlink:title="This document specifies version 3 of the RFC Editor Model. The model defines two high&#45;level tasks related to the RFC Series. First, policy definition is the joint responsibility of the RFC Series Working Group (RSWG), which produces policy proposals, and the RFC Series Approval Board (RSAB), which approves such proposals. Second, policy implementation is primarily the responsibility of the RFC Production Center (RPC) as contractually overseen by the IETF Administration Limited Liability Company (IETF LLC). In addition, various responsibilities of the RFC Editor function are now performed alone or in combination by the RSWG, RSAB, RPC, RFC Series Consulting Editor (RSCE), and IETF LLC. Finally, this document establishes the Editorial Stream for publication of future policy definition documents produced through the processes defined herein. This document obsoletes RFC 8728. This document updates RFCs 7841, 8729, and 8730." target="_top">
<ellipse fill="none" stroke="black" cx="129.58" cy="-178.35" rx="129.58" ry="40.66"/>
<text xml:space="preserve" text-anchor="middle" x="129.58" y="-189.8" font-family="Times,serif" font-size="14.00">RFC9280</text>
<text xml:space="preserve" text-anchor="middle" x="129.58" y="-173.3" font-family="Times,serif" font-size="14.00">RFC Editor Model (Version 3)</text>
<text xml:space="preserve" text-anchor="middle" x="129.58" y="-156.8" font-family="Times,serif" font-size="14.00">2022</text>
</a>
</g>
</g>
<!-- RFC9280&#45;&gt;updated_by -->
<g id="edge6" class="edge">
<title>RFC9280&#45;&gt;updated_by</title>
<path fill="none" stroke="black" d="M157.73,-218.28C186.78,-259.75 235.31,-325.55 284.15,-376.35 284.42,-376.62 284.69,-376.9 284.96,-377.17"/>
<polygon fill="black" stroke="black" points="282.5,-379.67 292.17,-384 287.32,-374.59 282.5,-379.67"/>
</g>
<!-- rev_cites -->
<g id="node15" class="node">
<title>rev_cites</title>
<polygon fill="lightblue" stroke="black" points="1214.12,-64.35 1160.12,-64.35 1160.12,-28.35 1214.12,-28.35 1214.12,-64.35"/>
<text xml:space="preserve" text-anchor="middle" x="1187.12" y="-41.3" font-family="Times,serif" font-size="14.00">cites</text>
</g>
<!-- RFC9280&#45;&gt;rev_cites -->
<g id="edge17" class="edge">
<title>RFC9280&#45;&gt;rev_cites</title>
<path fill="none" stroke="black" d="M182.3,-140.83C256.56,-90.77 399.43,-8.35 535.27,-8.35 535.27,-8.35 535.27,-8.35 756.26,-8.35 924.76,-8.35 971.39,17.44 1135.12,-22.35 1139.96,-23.52 1144.89,-25.18 1149.68,-27.08"/>
<polygon fill="black" stroke="black" points="1147.92,-30.13 1158.48,-30.93 1150.72,-23.71 1147.92,-30.13"/>
</g>
<!-- cites&#45;&gt;RFC6548 -->
<g id="edge9" class="edge">
<title>cites&#45;&gt;RFC6548</title>
<path fill="none" stroke="black" d="M782.22,-421.71C784.63,-424.36 786.77,-427.25 788.39,-430.35 816.98,-485.14 774.44,-659.35 813.39,-707.35 819.31,-714.64 826.28,-720.87 833.95,-726.19"/>
<polygon fill="black" stroke="black" points="832.01,-729.11 842.34,-731.44 835.72,-723.17 832.01,-729.11"/>
</g>
<!-- RFC8728 -->
<g id="node9" class="node">
<title>RFC8728</title>
<g id="a_node9"><a xlink:href="RFC8728.html" xlink:title="The RFC Editor model described in this document divides the responsibilities for the RFC Series into three functions: the RFC Series Editor, the RFC Production Center, and the RFC Publisher. &#160;Internet Architecture Board (IAB) oversight via the RFC Series Oversight Committee (RSOC) is described, as is the relationship between the IETF Administration Limited Liability Company and the RSOC. &#160;This document reflects the experience gained with RFC Editor Model (Version 1), documented in RFC 5620; and obsoletes RFC 6635 to replace all references to the IETF Administrative Support Activity (IASA) and related structures with those defined by the IASA 2.0 Model." target="_top">
<ellipse fill="none" stroke="black" cx="974.26" cy="-657.35" rx="129.58" ry="40.66"/>
<text xml:space="preserve" text-anchor="middle" x="974.26" y="-668.8" font-family="Times,serif" font-size="14.00">RFC8728</text>
<text xml:space="preserve" text-anchor="middle" x="974.26" y="-652.3" font-family="Times,serif" font-size="14.00">RFC Editor Model (Version 2)</text>
<text xml:space="preserve" text-anchor="middle" x="974.26" y="-635.8" font-family="Times,serif" font-size="14.00">2020</text>
</a>
</g>
</g>
<!-- cites&#45;&gt;RFC8728 -->
<g id="edge8" class="edge">
<title>cites&#45;&gt;RFC8728</title>
<path fill="none" stroke="black" d="M782.07,-421.8C784.51,-424.43 786.69,-427.29 788.39,-430.35 827.09,-500.24 761.53,-547.58 813.39,-608.35 822.77,-619.34 834.56,-627.92 847.45,-634.59"/>
<polygon fill="black" stroke="black" points="845.6,-637.59 856.14,-638.69 848.59,-631.26 845.6,-637.59"/>
</g>
<!-- RFC5620 -->
<g id="node10" class="node">
<title>RFC5620</title>
<g id="a_node10"><a xlink:href="RFC5620.html" xlink:title="The RFC Editor performs a number of functions that may be carried out by various persons or entities. &#160;The RFC Editor model presented in this document divides the responsibilities for the RFC Series into four functions: The RFC Series Editor, the Independent Submission Editor, the RFC Production Center, and the RFC Publisher. &#160;It also introduces the RFC Series Advisory Group and an (optional) Independent Submission Stream Editorial Board. &#160;The model outlined here is intended to increase flexibility and operational support options, provide for the orderly succession of the RFC Editor, and ensure the continuity of the RFC series, while maintaining RFC quality and timely processing, ensuring document accessibility, reducing costs, and increasing cost transparency. &#160;This memo provides information for the Internet community." target="_top">
<ellipse fill="none" stroke="black" cx="974.26" cy="-558.35" rx="129.58" ry="40.66"/>
<text xml:space="preserve" text-anchor="middle" x="974.26" y="-569.8" font-family="Times,serif" font-size="14.00">RFC5620</text>
<text xml:space="preserve" text-anchor="middle" x="974.26" y="-553.3" font-family="Times,serif" font-size="14.00">RFC Editor Model (Version 1)</text>
<text xml:space="preserve" text-anchor="middle" x="974.26" y="-536.8" font-family="Times,serif" font-size="14.00">2009</text>
</a>
</g>
</g>
<!-- cites&#45;&gt;RFC5620 -->
<g id="edge10" class="edge">
<title>cites&#45;&gt;RFC5620</title>
<path fill="none" stroke="black" d="M781.26,-421.78C783.91,-424.44 786.36,-427.32 788.39,-430.35 808.85,-460.96 787.23,-483.42 813.39,-509.35 823.82,-519.69 836.38,-527.85 849.81,-534.3"/>
<polygon fill="black" stroke="black" points="848.28,-537.45 858.84,-538.29 851.11,-531.05 848.28,-537.45"/>
</g>
<!-- RFC6635 -->
<g id="node11" class="node">
<title>RFC6635</title>
<g id="a_node11"><a xlink:href="RFC6635.html" xlink:title="The RFC Editor model described in this document divides the responsibilities for the RFC Series into three functions: the RFC Series Editor, the RFC Production Center, and the RFC Publisher. &#160;Internet Architecture Board (IAB) oversight via the RFC Series Oversight Committee (RSOC) is described, as is the relationship between the IETF Administrative Oversight Committee (IAOC) and the RSOC. &#160;This document reflects the experience gained with RFC Editor Model (Version 1), documented in RFC 5620, and obsoletes that document. &#160;This document is not an Internet Standards Track specification; it is published for informational purposes." target="_top">
<ellipse fill="none" stroke="black" cx="974.26" cy="-459.35" rx="129.58" ry="40.66"/>
<text xml:space="preserve" text-anchor="middle" x="974.26" y="-470.8" font-family="Times,serif" font-size="14.00">RFC6635</text>
<text xml:space="preserve" text-anchor="middle" x="974.26" y="-454.3" font-family="Times,serif" font-size="14.00">RFC Editor Model (Version 2)</text>
<text xml:space="preserve" text-anchor="middle" x="974.26" y="-437.8" font-family="Times,serif" font-size="14.00">2012</text>
</a>
</g>
</g>
<!-- cites&#45;&gt;RFC6635 -->
<g id="edge11" class="edge">
<title>cites&#45;&gt;RFC6635</title>
<path fill="none" stroke="black" d="M782.44,-410.1C802.72,-415.34 832.3,-422.97 862.15,-430.67"/>
<polygon fill="black" stroke="black" points="861.12,-434.02 871.68,-433.13 862.87,-427.25 861.12,-434.02"/>
</g>
<!-- RFC8711 -->
<g id="node12" class="node">
<title>RFC8711</title>
<g id="a_node12"><a xlink:href="RFC8711.html" xlink:title="The IETF Administrative Support Activity (IASA) was originally established in 2005. In the years since then, the needs of the IETF evolved in ways that required changes to its administrative structure. The purpose of this RFC is to document and describe the IETF Administrative Support Activity, version 2.0 (IASA 2.0). It defines the roles and responsibilities of the IETF Administration LLC Board (IETF LLC Board), the IETF Executive Director, and the Internet Society in the fiscal and administrative support of the IETF standards process. It also defines the membership and selection rules for the IETF LLC Board. This document obsoletes RFC 4071, RFC 4333, and RFC 7691." target="_top">
<ellipse fill="none" stroke="black" cx="974.26" cy="-348.35" rx="153.97" ry="52.33"/>
<text xml:space="preserve" text-anchor="middle" x="974.26" y="-368.05" font-family="Times,serif" font-size="14.00">RFC8711</text>
<text xml:space="preserve" text-anchor="middle" x="974.26" y="-351.55" font-family="Times,serif" font-size="14.00">Structure of the IETF Administrative</text>
<text xml:space="preserve" text-anchor="middle" x="974.26" y="-335.05" font-family="Times,serif" font-size="14.00">Support Activity, Version 2.0</text>
<text xml:space="preserve" text-anchor="middle" x="974.26" y="-318.55" font-family="Times,serif" font-size="14.00">2020</text>
</a>
</g>
</g>
<!-- cites&#45;&gt;RFC8711 -->
<g id="edge12" class="edge">
<title>cites&#45;&gt;RFC8711</title>
<path fill="none" stroke="black" d="M782.44,-396.71C797.48,-392.9 817.65,-387.79 839.24,-382.31"/>
<polygon fill="black" stroke="black" points="839.99,-385.74 848.82,-379.89 838.27,-378.95 839.99,-385.74"/>
</g>
<!-- RFC8729 -->
<g id="node13" class="node">
<title>RFC8729</title>
<g id="a_node13"><a xlink:href="RFC8729.html" xlink:title="This document describes the framework for an RFC Series and an RFC Editor function that incorporate the principles of organized community involvement and accountability that has become necessary as the Internet technical community has grown, thereby enabling the RFC Series to continue to fulfill its mandate. &#160;This document obsoletes RFC 4844." target="_top">
<ellipse fill="none" stroke="black" cx="974.26" cy="-237.35" rx="136.47" ry="40.66"/>
<text xml:space="preserve" text-anchor="middle" x="974.26" y="-248.8" font-family="Times,serif" font-size="14.00">RFC8729</text>
<text xml:space="preserve" text-anchor="middle" x="974.26" y="-232.3" font-family="Times,serif" font-size="14.00">The RFC Series and RFC Editor</text>
<text xml:space="preserve" text-anchor="middle" x="974.26" y="-215.8" font-family="Times,serif" font-size="14.00">2020</text>
</a>
</g>
</g>
<!-- cites&#45;&gt;RFC8729 -->
<g id="edge13" class="edge">
<title>cites&#45;&gt;RFC8729</title>
<path fill="none" stroke="black" d="M760.37,-385.27C767.1,-359.78 782.87,-313.48 813.39,-287.35 824.21,-278.08 836.75,-270.52 849.95,-264.37"/>
<polygon fill="black" stroke="black" points="851,-267.73 858.77,-260.53 848.2,-261.31 851,-267.73"/>
</g>
<!-- RFC4846 -->
<g id="node14" class="node">
<title>RFC4846</title>
<g id="a_node14"><a xlink:href="RFC4846.html" xlink:title="There is a long&#45;standing tradition in the Internet community, predating the Internet Engineering Task Force (IETF) by many years, of use of the RFC Series to publish materials that are not rooted in the IETF standards process and its review and approval mechanisms. &#160;These documents, known as Independent Submissions, serve a number of important functions for the Internet community, both inside and outside of the community of active IETF participants. &#160;This document discusses the Independent Submission model and some reasons why it is important. &#160;It then describes editorial and processing norms that can be used for Independent Submissions as the community goes forward into new relationships between the IETF community and its primary technical publisher. &#160;This memo provides information for the Internet community." target="_top">
<ellipse fill="none" stroke="black" cx="974.26" cy="-126.35" rx="155.03" ry="52.33"/>
<text xml:space="preserve" text-anchor="middle" x="974.26" y="-146.05" font-family="Times,serif" font-size="14.00">RFC4846</text>
<text xml:space="preserve" text-anchor="middle" x="974.26" y="-129.55" font-family="Times,serif" font-size="14.00">Independent Submissions to the RFC</text>
<text xml:space="preserve" text-anchor="middle" x="974.26" y="-113.05" font-family="Times,serif" font-size="14.00">Editor</text>
<text xml:space="preserve" text-anchor="middle" x="974.26" y="-96.55" font-family="Times,serif" font-size="14.00">2007</text>
</a>
</g>
</g>
<!-- cites&#45;&gt;RFC4846 -->
<g id="edge14" class="edge">
<title>cites&#45;&gt;RFC4846</title>
<path fill="none" stroke="black" d="M755.82,-385.14C755.83,-344.42 761.51,-245.03 813.39,-187.35 821.45,-178.38 830.97,-170.73 841.29,-164.19"/>
<polygon fill="black" stroke="black" points="842.82,-167.36 849.66,-159.27 839.27,-161.32 842.82,-167.36"/>
</g>
<!-- RFC8729&#45;&gt;rev_cites -->
<g id="edge16" class="edge">
<title>RFC8729&#45;&gt;rev_cites</title>
<path fill="none" stroke="black" d="M1090.32,-215.69C1106.78,-208.72 1122.41,-199.51 1135.12,-187.35 1166.14,-157.66 1178.36,-107.7 1183.13,-75.91"/>
<polygon fill="black" stroke="black" points="1186.57,-76.57 1184.42,-66.2 1179.63,-75.65 1186.57,-76.57"/>
</g>
<!-- rev_cites&#45;&gt;RFC8730 -->
<g id="edge15" class="edge">
<title>rev_cites&#45;&gt;RFC8730</title>
<path fill="none" stroke="black" d="M1159.9,-40.82C1096.36,-28.81 930.76,-5.97 813.39,-65.35 689.31,-128.12 601.24,-274.58 561.31,-352.49"/>
<polygon fill="black" stroke="black" points="558.29,-350.7 556.9,-361.21 564.54,-353.86 558.29,-350.7"/>
</g>
</g>
</svg>
