<?xml version="1.0" encoding="UTF-8" standalone="no"?>
<!DOCTYPE svg PUBLIC "-//W3C//DTD SVG 1.1//EN"
 "http://www.w3.org/Graphics/SVG/1.1/DTD/svg11.dtd">
<!-- Generated by graphviz version 14.1.1 (20251213.1925)
 -->
<!-- Title: Flow Pages: 1 -->
<svg width="810pt" height="1117pt"
 viewBox="0.00 0.00 810.00 1117.00" xmlns="http://www.w3.org/2000/svg" xmlns:xlink="http://www.w3.org/1999/xlink">
<g id="graph0" class="graph" transform="scale(1 1) rotate(0) translate(4 1113.32)">
<title>Flow</title>
<polygon fill="white" stroke="none" points="-4,4 -4,-1113.32 806.18,-1113.32 806.18,4 -4,4"/>
<!-- RFC9466 -->
<g id="node1" class="node">
<title>RFC9466</title>
<g id="a_node1"><a xlink:title="When PIM Sparse Mode (PIM&#45;SM), including PIM Source&#45;Specific Multicast (PIM&#45;SSM), is used in shared LAN networks, there is often more than one upstream router. This can lead to duplicate IP multicast packets being forwarded by these PIM routers. PIM Assert messages are used to elect a single forwarder for each IP multicast traffic flow between these routers. This document defines a mechanism to send and receive information for multiple IP multicast flows in a single PackedAssert message. This optimization reduces the total number of PIM packets on the LAN and can therefore speed up the election of the single forwarder, reducing the number of duplicate IP multicast packets incurred.">
<ellipse fill="none" stroke="black" cx="216.58" cy="-596.33" rx="125.33" ry="40.66"/>
<text xml:space="preserve" text-anchor="middle" x="216.58" y="-607.78" font-family="Times,serif" font-size="14.00">RFC9466</text>
<text xml:space="preserve" text-anchor="middle" x="216.58" y="-591.28" font-family="Times,serif" font-size="14.00">PIM Assert Message Packing</text>
<text xml:space="preserve" text-anchor="middle" x="216.58" y="-574.78" font-family="Times,serif" font-size="14.00">2023</text>
</a>
</g>
</g>
<!-- obs -->
<g id="node3" class="node">
<title>obs</title>
<polygon fill="none" stroke="black" points="433.17,-668.33 366.92,-668.33 366.92,-632.33 433.17,-632.33 433.17,-668.33"/>
<text xml:space="preserve" text-anchor="middle" x="400.04" y="-645.28" font-family="Times,serif" font-size="14.00">obsoletes</text>
</g>
<!-- RFC9466&#45;&gt;obs -->
<g id="edge2" class="edge">
<title>RFC9466&#45;&gt;obs</title>
<path fill="none" stroke="black" d="M309.91,-623.8C325.94,-628.57 341.9,-633.32 355.79,-637.45"/>
<polygon fill="black" stroke="black" points="354.42,-640.7 365,-640.2 356.42,-633.99 354.42,-640.7"/>
</g>
<!-- updates -->
<g id="node4" class="node">
<title>updates</title>
<polygon fill="none" stroke="black" points="428.67,-614.33 371.42,-614.33 371.42,-578.33 428.67,-578.33 428.67,-614.33"/>
<text xml:space="preserve" text-anchor="middle" x="400.04" y="-591.28" font-family="Times,serif" font-size="14.00">updates</text>
</g>
<!-- RFC9466&#45;&gt;updates -->
<g id="edge3" class="edge">
<title>RFC9466&#45;&gt;updates</title>
<path fill="none" stroke="black" d="M342.13,-596.33C348.28,-596.33 354.18,-596.33 359.71,-596.33"/>
<polygon fill="black" stroke="black" points="359.64,-599.83 369.64,-596.33 359.64,-592.83 359.64,-599.83"/>
</g>
<!-- cites -->
<g id="node6" class="node">
<title>cites</title>
<polygon fill="none" stroke="black" points="427.04,-560.33 373.04,-560.33 373.04,-524.33 427.04,-524.33 427.04,-560.33"/>
<text xml:space="preserve" text-anchor="middle" x="400.04" y="-537.28" font-family="Times,serif" font-size="14.00">cites</text>
</g>
<!-- RFC9466&#45;&gt;cites -->
<g id="edge5" class="edge">
<title>RFC9466&#45;&gt;cites</title>
<path fill="none" stroke="black" d="M309.91,-568.85C328.33,-563.37 346.66,-557.91 361.87,-553.39"/>
<polygon fill="black" stroke="black" points="362.8,-556.76 371.38,-550.56 360.8,-550.06 362.8,-556.76"/>
</g>
<!-- obs_by -->
<g id="node2" class="node">
<title>obs_by</title>
<polygon fill="none" stroke="black" points="66.25,-668.33 0,-668.33 0,-632.33 66.25,-632.33 66.25,-668.33"/>
<text xml:space="preserve" text-anchor="middle" x="33.12" y="-645.28" font-family="Times,serif" font-size="14.00">obsoletes</text>
</g>
<!-- obs_by&#45;&gt;RFC9466 -->
<g id="edge1" class="edge">
<title>obs_by&#45;&gt;RFC9466</title>
<path fill="none" stroke="black" d="M66.57,-640.67C79.7,-636.76 95.65,-632.02 112.17,-627.1"/>
<polygon fill="black" stroke="black" points="113.05,-630.49 121.64,-624.28 111.06,-623.78 113.05,-630.49"/>
</g>
<!-- updated_by -->
<g id="node5" class="node">
<title>updated_by</title>
<polygon fill="none" stroke="black" points="61.75,-614.33 4.5,-614.33 4.5,-578.33 61.75,-578.33 61.75,-614.33"/>
<text xml:space="preserve" text-anchor="middle" x="33.12" y="-591.28" font-family="Times,serif" font-size="14.00">updates</text>
</g>
<!-- updated_by&#45;&gt;RFC9466 -->
<g id="edge4" class="edge">
<title>updated_by&#45;&gt;RFC9466</title>
<path fill="none" stroke="black" d="M62.08,-596.33C67.49,-596.33 73.49,-596.33 79.89,-596.33"/>
<polygon fill="black" stroke="black" points="79.49,-599.83 89.49,-596.33 79.49,-592.83 79.49,-599.83"/>
</g>
<!-- RFC7761 -->
<g id="node7" class="node">
<title>RFC7761</title>
<g id="a_node7"><a xlink:href="RFC7761.html" xlink:title="This document specifies Protocol Independent Multicast &#45; Sparse Mode (PIM&#45;SM). PIM&#45;SM is a multicast routing protocol that can use the underlying unicast routing information base or a separate multicast&#45;capable routing information base. It builds unidirectional shared trees rooted at a Rendezvous Point (RP) per group, and it optionally creates shortest&#45;path trees per source. This document obsoletes RFC 4601 by replacing it, addresses the errata filed against it, removes the optional (*,*,RP), PIM Multicast Border Router features and authentication using IPsec that lack sufficient deployment experience (see Appendix A), and moves the PIM specification to Internet Standard." target="_top">
<ellipse fill="none" stroke="black" cx="630.17" cy="-1045.33" rx="168.82" ry="63.99"/>
<text xml:space="preserve" text-anchor="middle" x="630.17" y="-1073.28" font-family="Times,serif" font-size="14.00">RFC7761</text>
<text xml:space="preserve" text-anchor="middle" x="630.17" y="-1056.78" font-family="Times,serif" font-size="14.00">Protocol Independent Multicast &#45; Sparse</text>
<text xml:space="preserve" text-anchor="middle" x="630.17" y="-1040.28" font-family="Times,serif" font-size="14.00">Mode (PIM&#45;SM): Protocol Specification</text>
<text xml:space="preserve" text-anchor="middle" x="630.17" y="-1023.78" font-family="Times,serif" font-size="14.00">(Revised)</text>
<text xml:space="preserve" text-anchor="middle" x="630.17" y="-1007.28" font-family="Times,serif" font-size="14.00">2016</text>
</a>
</g>
</g>
<!-- cites&#45;&gt;RFC7761 -->
<g id="edge6" class="edge">
<title>cites&#45;&gt;RFC7761</title>
<path fill="none" stroke="black" d="M427.09,-560.65C429.48,-563.3 431.6,-566.2 433.17,-569.33 473.56,-649.45 406.43,-899.02 458.17,-972.33 465.8,-983.14 475.38,-992.37 486.08,-1000.23"/>
<polygon fill="black" stroke="black" points="483.84,-1002.93 494.07,-1005.67 487.78,-997.15 483.84,-1002.93"/>
</g>
<!-- RFC2119 -->
<g id="node8" class="node">
<title>RFC2119</title>
<g id="a_node8"><a xlink:href="RFC2119.html" xlink:title="In many standards track documents several words are used to signify the requirements in the specification. &#160;These words are often capitalized. &#160;This document defines these words as they should be interpreted in IETF documents. &#160;This document specifies an Internet Best Current Practices for the Internet Community, and requests discussion and suggestions for improvements." target="_top">
<ellipse fill="none" stroke="black" cx="630.17" cy="-911.33" rx="160.34" ry="52.33"/>
<text xml:space="preserve" text-anchor="middle" x="630.17" y="-931.03" font-family="Times,serif" font-size="14.00">RFC2119</text>
<text xml:space="preserve" text-anchor="middle" x="630.17" y="-914.53" font-family="Times,serif" font-size="14.00">Key words for use in RFCs to Indicate</text>
<text xml:space="preserve" text-anchor="middle" x="630.17" y="-898.03" font-family="Times,serif" font-size="14.00">Requirement Levels</text>
<text xml:space="preserve" text-anchor="middle" x="630.17" y="-881.53" font-family="Times,serif" font-size="14.00">1997</text>
</a>
</g>
</g>
<!-- cites&#45;&gt;RFC2119 -->
<g id="edge7" class="edge">
<title>cites&#45;&gt;RFC2119</title>
<path fill="none" stroke="black" d="M427,-560.69C429.41,-563.34 431.55,-566.22 433.17,-569.33 462.04,-624.72 420.07,-799.82 458.17,-849.33 466.3,-859.88 476.39,-868.64 487.58,-875.92"/>
<polygon fill="black" stroke="black" points="485.54,-878.77 495.92,-880.9 489.13,-872.77 485.54,-878.77"/>
</g>
<!-- RFC8174 -->
<g id="node9" class="node">
<title>RFC8174</title>
<g id="a_node9"><a xlink:href="RFC8174.html" xlink:title="RFC 2119 specifies common key words that may be used in protocol specifications. &#160;This document aims to reduce the ambiguity by clarifying that only UPPERCASE usage of the key words have the defined special meanings." target="_top">
<ellipse fill="none" stroke="black" cx="630.17" cy="-788.33" rx="172" ry="52.33"/>
<text xml:space="preserve" text-anchor="middle" x="630.17" y="-808.03" font-family="Times,serif" font-size="14.00">RFC8174</text>
<text xml:space="preserve" text-anchor="middle" x="630.17" y="-791.53" font-family="Times,serif" font-size="14.00">Ambiguity of Uppercase vs Lowercase in</text>
<text xml:space="preserve" text-anchor="middle" x="630.17" y="-775.03" font-family="Times,serif" font-size="14.00">RFC 2119 Key Words</text>
<text xml:space="preserve" text-anchor="middle" x="630.17" y="-758.53" font-family="Times,serif" font-size="14.00">2017</text>
</a>
</g>
</g>
<!-- cites&#45;&gt;RFC8174 -->
<g id="edge8" class="edge">
<title>cites&#45;&gt;RFC8174</title>
<path fill="none" stroke="black" d="M426.79,-560.81C429.24,-563.43 431.45,-566.28 433.17,-569.33 467.96,-630.82 413.17,-671.85 458.17,-726.33 465.71,-735.46 474.72,-743.25 484.59,-749.89"/>
<polygon fill="black" stroke="black" points="482.68,-752.82 493.02,-755.11 486.37,-746.87 482.68,-752.82"/>
</g>
<!-- RFC9436 -->
<g id="node10" class="node">
<title>RFC9436</title>
<g id="a_node10"><a xlink:href="RFC9436.html" xlink:title="The PIM version 2 messages share a common message header format. The common header definition contains eight reserved bits. This document specifies how these bits may be used by individual message types and extends the PIM type space. This document updates RFCs 7761 and 3973 by defining the use of the Reserved field in the PIM common header. This document further updates RFCs 7761 and 3973, along with RFCs 5015, 5059, 6754, and 8364, by specifying the use of the bits for each PIM message. This document obsoletes RFC 8736." target="_top">
<ellipse fill="none" stroke="black" cx="630.17" cy="-665.33" rx="169.88" ry="52.33"/>
<text xml:space="preserve" text-anchor="middle" x="630.17" y="-685.03" font-family="Times,serif" font-size="14.00">RFC9436</text>
<text xml:space="preserve" text-anchor="middle" x="630.17" y="-668.53" font-family="Times,serif" font-size="14.00">PIM Message Type Space Extension and</text>
<text xml:space="preserve" text-anchor="middle" x="630.17" y="-652.03" font-family="Times,serif" font-size="14.00">Reserved Bits</text>
<text xml:space="preserve" text-anchor="middle" x="630.17" y="-635.53" font-family="Times,serif" font-size="14.00">2023</text>
</a>
</g>
</g>
<!-- cites&#45;&gt;RFC9436 -->
<g id="edge9" class="edge">
<title>cites&#45;&gt;RFC9436</title>
<path fill="none" stroke="black" d="M424.12,-560.56C427.27,-563.38 430.38,-566.35 433.17,-569.33 445.99,-583.01 443.15,-592.09 458.17,-603.33 469.14,-611.54 481.31,-618.74 493.95,-625.05"/>
<polygon fill="black" stroke="black" points="492.28,-628.13 502.81,-629.27 495.29,-621.81 492.28,-628.13"/>
</g>
<!-- RFC2475 -->
<g id="node11" class="node">
<title>RFC2475</title>
<g id="a_node11"><a xlink:href="RFC2475.html" xlink:title="This document defines an architecture for implementing scalable service differentiation in the Internet. &#160;This memo provides information for the Internet community." target="_top">
<ellipse fill="none" stroke="black" cx="630.17" cy="-542.33" rx="142.84" ry="52.33"/>
<text xml:space="preserve" text-anchor="middle" x="630.17" y="-562.03" font-family="Times,serif" font-size="14.00">RFC2475</text>
<text xml:space="preserve" text-anchor="middle" x="630.17" y="-545.53" font-family="Times,serif" font-size="14.00">An Architecture for Differentiated</text>
<text xml:space="preserve" text-anchor="middle" x="630.17" y="-529.03" font-family="Times,serif" font-size="14.00">Services</text>
<text xml:space="preserve" text-anchor="middle" x="630.17" y="-512.53" font-family="Times,serif" font-size="14.00">1998</text>
</a>
</g>
</g>
<!-- cites&#45;&gt;RFC2475 -->
<g id="edge10" class="edge">
<title>cites&#45;&gt;RFC2475</title>
<path fill="none" stroke="black" d="M427.21,-542.33C440.21,-542.33 457.08,-542.33 475.52,-542.33"/>
<polygon fill="black" stroke="black" points="475.35,-545.83 485.35,-542.33 475.35,-538.83 475.35,-545.83"/>
</g>
<!-- RFC3973 -->
<g id="node12" class="node">
<title>RFC3973</title>
<g id="a_node12"><a xlink:href="RFC3973.html" xlink:title="This document specifies Protocol Independent Multicast &#45; Dense Mode (PIM&#45;DM). &#160;PIM&#45;DM is a multicast routing protocol that uses the underlying unicast routing information base to flood multicast datagrams to all multicast routers. &#160;Prune messages are used to prevent future messages from propagating to routers without group membership information. &#160;This memo defines an Experimental Protocol for the Internet community." target="_top">
<ellipse fill="none" stroke="black" cx="630.17" cy="-408.33" rx="170.41" ry="63.99"/>
<text xml:space="preserve" text-anchor="middle" x="630.17" y="-436.28" font-family="Times,serif" font-size="14.00">RFC3973</text>
<text xml:space="preserve" text-anchor="middle" x="630.17" y="-419.78" font-family="Times,serif" font-size="14.00">Protocol Independent Multicast &#45; Dense</text>
<text xml:space="preserve" text-anchor="middle" x="630.17" y="-403.28" font-family="Times,serif" font-size="14.00">Mode (PIM&#45;DM): Protocol Specification</text>
<text xml:space="preserve" text-anchor="middle" x="630.17" y="-386.78" font-family="Times,serif" font-size="14.00">(Revised)</text>
<text xml:space="preserve" text-anchor="middle" x="630.17" y="-370.28" font-family="Times,serif" font-size="14.00">2005</text>
</a>
</g>
</g>
<!-- cites&#45;&gt;RFC3973 -->
<g id="edge11" class="edge">
<title>cites&#45;&gt;RFC3973</title>
<path fill="none" stroke="black" d="M414.9,-523.84C425.56,-510.62 441.29,-493.14 458.17,-481.33 470.3,-472.83 483.57,-465.04 497.19,-457.97"/>
<polygon fill="black" stroke="black" points="498.44,-461.26 505.8,-453.63 495.29,-455.01 498.44,-461.26"/>
</g>
<!-- RFC6037 -->
<g id="node13" class="node">
<title>RFC6037</title>
<g id="a_node13"><a xlink:href="RFC6037.html" xlink:title="This document describes the MVPN (Multicast in BGP/MPLS IP VPNs) solution designed and deployed by Cisco Systems. &#160;The procedures specified in this document are largely a subset of the generalized MVPN framework recently standardized by the IETF. &#160;However, as the deployment of the procedures specified herein predates the publication of IETF standards (in some cases by over five years), an implementation based on these procedures differs in some respects from a fully standards&#45;compliant implementation. &#160;These differences are pointed out in the document. &#160;This document defines a Historic Document for the Internet community." target="_top">
<ellipse fill="none" stroke="black" cx="630.17" cy="-274.33" rx="167.76" ry="52.33"/>
<text xml:space="preserve" text-anchor="middle" x="630.17" y="-294.03" font-family="Times,serif" font-size="14.00">RFC6037</text>
<text xml:space="preserve" text-anchor="middle" x="630.17" y="-277.53" font-family="Times,serif" font-size="14.00">Cisco Systems&#39; Solution for Multicast in</text>
<text xml:space="preserve" text-anchor="middle" x="630.17" y="-261.03" font-family="Times,serif" font-size="14.00">BGP/MPLS IP VPNs</text>
<text xml:space="preserve" text-anchor="middle" x="630.17" y="-244.53" font-family="Times,serif" font-size="14.00">2010</text>
</a>
</g>
</g>
<!-- cites&#45;&gt;RFC6037 -->
<g id="edge12" class="edge">
<title>cites&#45;&gt;RFC6037</title>
<path fill="none" stroke="black" d="M400.77,-523.89C401.2,-484.13 407.8,-389.54 458.17,-335.33 466.55,-326.31 476.35,-318.62 486.94,-312.07"/>
<polygon fill="black" stroke="black" points="488.63,-315.14 495.56,-307.13 485.15,-309.07 488.63,-315.14"/>
</g>
<!-- RFC7431 -->
<g id="node14" class="node">
<title>RFC7431</title>
<g id="a_node14"><a xlink:href="RFC7431.html" xlink:title="As IPTV deployments grow in number and size, service providers are looking for solutions that minimize the service disruption due to faults in the IP network carrying the packets for these services. &#160;This document describes a mechanism for minimizing packet loss in a network when node or link failures occur. &#160;Multicast&#45;only Fast Reroute (MoFRR) works by making simple enhancements to multicast routing protocols such as Protocol Independent Multicast (PIM) and Multipoint LDP (mLDP)." target="_top">
<ellipse fill="none" stroke="black" cx="630.17" cy="-163.33" rx="121.62" ry="40.66"/>
<text xml:space="preserve" text-anchor="middle" x="630.17" y="-174.78" font-family="Times,serif" font-size="14.00">RFC7431</text>
<text xml:space="preserve" text-anchor="middle" x="630.17" y="-158.28" font-family="Times,serif" font-size="14.00">Multicast&#45;Only Fast Reroute</text>
<text xml:space="preserve" text-anchor="middle" x="630.17" y="-141.78" font-family="Times,serif" font-size="14.00">2015</text>
</a>
</g>
</g>
<!-- cites&#45;&gt;RFC7431 -->
<g id="edge13" class="edge">
<title>cites&#45;&gt;RFC7431</title>
<path fill="none" stroke="black" d="M401.74,-524.16C404.47,-462.14 416.46,-260.02 458.17,-213.33 470.92,-199.06 487.49,-188.76 505.29,-181.36"/>
<polygon fill="black" stroke="black" points="506.38,-184.69 514.48,-177.86 503.89,-178.15 506.38,-184.69"/>
</g>
<!-- RFC7490 -->
<g id="node15" class="node">
<title>RFC7490</title>
<g id="a_node15"><a xlink:href="RFC7490.html" xlink:title="This document describes an extension to the basic IP fast reroute mechanism, described in RFC 5286, that provides additional backup connectivity for point&#45;to&#45;point link failures when none can be provided by the basic mechanisms." target="_top">
<ellipse fill="none" stroke="black" cx="630.17" cy="-52.33" rx="167.76" ry="52.33"/>
<text xml:space="preserve" text-anchor="middle" x="630.17" y="-72.03" font-family="Times,serif" font-size="14.00">RFC7490</text>
<text xml:space="preserve" text-anchor="middle" x="630.17" y="-55.53" font-family="Times,serif" font-size="14.00">Remote Loop&#45;Free Alternate (LFA) Fast</text>
<text xml:space="preserve" text-anchor="middle" x="630.17" y="-39.03" font-family="Times,serif" font-size="14.00">Reroute (FRR)</text>
<text xml:space="preserve" text-anchor="middle" x="630.17" y="-22.53" font-family="Times,serif" font-size="14.00">2015</text>
</a>
</g>
</g>
<!-- cites&#45;&gt;RFC7490 -->
<g id="edge14" class="edge">
<title>cites&#45;&gt;RFC7490</title>
<path fill="none" stroke="black" d="M401.03,-523.83C401.33,-450.07 406.01,-177.8 458.17,-113.33 465.68,-104.04 474.72,-96.17 484.66,-89.49"/>
<polygon fill="black" stroke="black" points="486.49,-92.48 493.16,-84.25 482.81,-86.52 486.49,-92.48"/>
</g>
<!-- rev_cites -->
<g id="node16" class="node">
<title>rev_cites</title>
<polygon fill="none" stroke="black" points="60.12,-560.33 6.12,-560.33 6.12,-524.33 60.12,-524.33 60.12,-560.33"/>
<text xml:space="preserve" text-anchor="middle" x="33.12" y="-537.28" font-family="Times,serif" font-size="14.00">cites</text>
</g>
<!-- rev_cites&#45;&gt;RFC9466 -->
<g id="edge15" class="edge">
<title>rev_cites&#45;&gt;RFC9466</title>
<path fill="none" stroke="black" d="M60.51,-550.18C74.63,-554.38 93.03,-559.85 112.19,-565.56"/>
<polygon fill="black" stroke="black" points="111.18,-568.91 121.77,-568.41 113.18,-562.2 111.18,-568.91"/>
</g>
</g>
</svg>
