<?xml version="1.0" encoding="UTF-8" standalone="no"?>
<!DOCTYPE svg PUBLIC "-//W3C//DTD SVG 1.1//EN"
 "http://www.w3.org/Graphics/SVG/1.1/DTD/svg11.dtd">
<!-- Generated by graphviz version 14.1.1 (20251213.1925)
 -->
<!-- Title: Flow Pages: 1 -->
<svg width="1226pt" height="965pt"
 viewBox="0.00 0.00 1226.00 965.00" xmlns="http://www.w3.org/2000/svg" xmlns:xlink="http://www.w3.org/1999/xlink">
<g id="graph0" class="graph" transform="scale(1 1) rotate(0) translate(4 960.53)">
<title>Flow</title>
<polygon fill="white" stroke="none" points="-4,4 -4,-960.53 1221.83,-960.53 1221.83,4 -4,4"/>
<!-- RFC9875 -->
<g id="node1" class="node">
<title>RFC9875</title>
<g id="a_node1"><a xlink:title="This specification introduces a means of describing the relationships between stored responses in HTTP caches, grouping them by associating a stored response with one or more strings.">
<ellipse fill="green" stroke="black" stroke-width="3" cx="870.19" cy="-358.34" rx="118.97" ry="50.2"/>
<text xml:space="preserve" text-anchor="middle" x="870.19" y="-372.74" font-family="Times,serif" font-size="18.00">RFC9875</text>
<text xml:space="preserve" text-anchor="middle" x="870.19" y="-351.74" font-family="Times,serif" font-size="18.00">HTTP Cache Groups</text>
<text xml:space="preserve" text-anchor="middle" x="870.19" y="-330.74" font-family="Times,serif" font-size="18.00">2025</text>
</a>
</g>
</g>
<!-- obs -->
<g id="node3" class="node">
<title>obs</title>
<polygon fill="lightblue" stroke="black" points="1217.83,-527.81 1151.58,-527.81 1151.58,-491.81 1217.83,-491.81 1217.83,-527.81"/>
<text xml:space="preserve" text-anchor="middle" x="1184.71" y="-504.76" font-family="Times,serif" font-size="14.00">obsoletes</text>
</g>
<!-- RFC9875&#45;&gt;obs -->
<g id="edge2" class="edge">
<title>RFC9875&#45;&gt;obs</title>
<path fill="none" stroke="black" d="M949.96,-396.76C1010.66,-425.99 1091.89,-465.11 1141.15,-488.83"/>
<polygon fill="black" stroke="black" points="1139.56,-491.95 1150.09,-493.13 1142.6,-485.64 1139.56,-491.95"/>
</g>
<!-- updates -->
<g id="node4" class="node">
<title>updates</title>
<polygon fill="lightyellow" stroke="black" points="976.49,-716.68 919.24,-716.68 919.24,-680.68 976.49,-680.68 976.49,-716.68"/>
<text xml:space="preserve" text-anchor="middle" x="947.87" y="-693.63" font-family="Times,serif" font-size="14.00">updates</text>
</g>
<!-- RFC9875&#45;&gt;updates -->
<g id="edge3" class="edge">
<title>RFC9875&#45;&gt;updates</title>
<path fill="none" stroke="black" d="M881.9,-409.66C898.4,-481.95 927.95,-611.41 941.16,-669.3"/>
<polygon fill="black" stroke="black" points="937.75,-670.07 943.39,-679.04 944.57,-668.52 937.75,-670.07"/>
</g>
<!-- cites -->
<g id="node6" class="node">
<title>cites</title>
<polygon fill="lightblue" stroke="black" points="582.67,-527.81 528.67,-527.81 528.67,-491.81 582.67,-491.81 582.67,-527.81"/>
<text xml:space="preserve" text-anchor="middle" x="555.67" y="-504.76" font-family="Times,serif" font-size="14.00">cites</text>
</g>
<!-- RFC9875&#45;&gt;cites -->
<g id="edge5" class="edge">
<title>RFC9875&#45;&gt;cites</title>
<path fill="none" stroke="black" d="M790.41,-396.76C727.14,-427.23 641.54,-468.45 593.12,-491.77"/>
<polygon fill="black" stroke="black" points="591.66,-488.59 584.16,-496.08 594.69,-494.9 591.66,-488.59"/>
</g>
<!-- obs_by -->
<g id="node2" class="node">
<title>obs_by</title>
<polygon fill="lightblue" stroke="black" points="685.66,-103.41 619.41,-103.41 619.41,-67.41 685.66,-67.41 685.66,-103.41"/>
<text xml:space="preserve" text-anchor="middle" x="652.53" y="-80.36" font-family="Times,serif" font-size="14.00">obsoletes</text>
</g>
<!-- obs_by&#45;&gt;RFC9875 -->
<g id="edge1" class="edge">
<title>obs_by&#45;&gt;RFC9875</title>
<path fill="none" stroke="black" d="M667.15,-103.74C698.77,-143.38 774.63,-238.51 824.14,-300.6"/>
<polygon fill="black" stroke="black" points="821.33,-302.69 830.3,-308.33 826.81,-298.33 821.33,-302.69"/>
</g>
<!-- updated_by -->
<g id="node5" class="node">
<title>updated_by</title>
<polygon fill="lightyellow" stroke="black" points="976.49,-36 919.24,-36 919.24,0 976.49,0 976.49,-36"/>
<text xml:space="preserve" text-anchor="middle" x="947.87" y="-12.95" font-family="Times,serif" font-size="14.00">updates</text>
</g>
<!-- updated_by&#45;&gt;RFC9875 -->
<g id="edge4" class="edge">
<title>updated_by&#45;&gt;RFC9875</title>
<path fill="none" stroke="black" d="M943.69,-36.3C932.68,-84.56 902.44,-217.03 884.36,-296.23"/>
<polygon fill="black" stroke="black" points="881.05,-295.04 882.23,-305.57 887.87,-296.6 881.05,-295.04"/>
</g>
<!-- RFC2119 -->
<g id="node7" class="node">
<title>RFC2119</title>
<g id="a_node7"><a xlink:href="RFC2119.html" xlink:title="In many standards track documents several words are used to signify the requirements in the specification. &#160;These words are often capitalized. &#160;This document defines these words as they should be interpreted in IETF documents. &#160;This document specifies an Internet Best Current Practices for the Internet Community, and requests discussion and suggestions for improvements." target="_top">
<ellipse fill="none" stroke="black" cx="434.88" cy="-904.2" rx="160.34" ry="52.33"/>
<text xml:space="preserve" text-anchor="middle" x="434.88" y="-923.9" font-family="Times,serif" font-size="14.00">RFC2119</text>
<text xml:space="preserve" text-anchor="middle" x="434.88" y="-907.4" font-family="Times,serif" font-size="14.00">Key words for use in RFCs to Indicate</text>
<text xml:space="preserve" text-anchor="middle" x="434.88" y="-890.9" font-family="Times,serif" font-size="14.00">Requirement Levels</text>
<text xml:space="preserve" text-anchor="middle" x="434.88" y="-874.4" font-family="Times,serif" font-size="14.00">1997</text>
</a>
</g>
</g>
<!-- cites&#45;&gt;RFC2119 -->
<g id="edge6" class="edge">
<title>cites&#45;&gt;RFC2119</title>
<path fill="none" stroke="black" d="M550,-528.3C533.08,-583.54 482.35,-749.2 454.21,-841.08"/>
<polygon fill="black" stroke="black" points="450.92,-839.88 451.34,-850.46 457.61,-841.93 450.92,-839.88"/>
</g>
<!-- RFC8174 -->
<g id="node8" class="node">
<title>RFC8174</title>
<g id="a_node8"><a xlink:href="RFC8174.html" xlink:title="RFC 2119 specifies common key words that may be used in protocol specifications. &#160;This document aims to reduce the ambiguity by clarifying that only UPPERCASE usage of the key words have the defined special meanings." target="_top">
<ellipse fill="none" stroke="black" cx="172" cy="-358.34" rx="172" ry="52.33"/>
<text xml:space="preserve" text-anchor="middle" x="172" y="-378.04" font-family="Times,serif" font-size="14.00">RFC8174</text>
<text xml:space="preserve" text-anchor="middle" x="172" y="-361.54" font-family="Times,serif" font-size="14.00">Ambiguity of Uppercase vs Lowercase in</text>
<text xml:space="preserve" text-anchor="middle" x="172" y="-345.04" font-family="Times,serif" font-size="14.00">RFC 2119 Key Words</text>
<text xml:space="preserve" text-anchor="middle" x="172" y="-328.54" font-family="Times,serif" font-size="14.00">2017</text>
</a>
</g>
</g>
<!-- cites&#45;&gt;RFC8174 -->
<g id="edge7" class="edge">
<title>cites&#45;&gt;RFC8174</title>
<path fill="none" stroke="black" d="M528.38,-499.03C478.97,-479.53 372,-437.29 288.07,-404.16"/>
<polygon fill="black" stroke="black" points="289.43,-400.94 278.85,-400.52 286.86,-407.45 289.43,-400.94"/>
</g>
<!-- rev_cites -->
<g id="node9" class="node">
<title>rev_cites</title>
<polygon fill="lightblue" stroke="black" points="1211.71,-224.87 1157.71,-224.87 1157.71,-188.87 1211.71,-188.87 1211.71,-224.87"/>
<text xml:space="preserve" text-anchor="middle" x="1184.71" y="-201.82" font-family="Times,serif" font-size="14.00">cites</text>
</g>
<!-- rev_cites&#45;&gt;RFC9875 -->
<g id="edge8" class="edge">
<title>rev_cites&#45;&gt;RFC9875</title>
<path fill="none" stroke="black" d="M1157.35,-220.05C1113.85,-241 1027.01,-282.82 960.16,-315.01"/>
<polygon fill="black" stroke="black" points="958.88,-311.74 951.39,-319.23 961.92,-318.05 958.88,-311.74"/>
</g>
</g>
</svg>
