<?xml version="1.0" encoding="UTF-8" standalone="no"?>
<!DOCTYPE svg PUBLIC "-//W3C//DTD SVG 1.1//EN"
 "http://www.w3.org/Graphics/SVG/1.1/DTD/svg11.dtd">
<!-- Generated by graphviz version 14.1.1 (20251213.1925)
 -->
<!-- Title: Flow Pages: 1 -->
<svg width="1263pt" height="1298pt"
 viewBox="0.00 0.00 1263.00 1298.00" xmlns="http://www.w3.org/2000/svg" xmlns:xlink="http://www.w3.org/1999/xlink">
<g id="graph0" class="graph" transform="scale(1 1) rotate(0) translate(4 1293.98)">
<title>Flow</title>
<polygon fill="white" stroke="none" points="-4,4 -4,-1293.98 1258.98,-1293.98 1258.98,4 -4,4"/>
<!-- RFC9396 -->
<g id="node1" class="node">
<title>RFC9396</title>
<g id="a_node1"><a xlink:title="This document specifies a new parameter authorization_details that is used to carry fine&#45;grained authorization data in OAuth messages.">
<ellipse fill="none" stroke="black" cx="616.88" cy="-686.33" rx="165.11" ry="40.66"/>
<text xml:space="preserve" text-anchor="middle" x="616.88" y="-697.78" font-family="Times,serif" font-size="14.00">RFC9396</text>
<text xml:space="preserve" text-anchor="middle" x="616.88" y="-681.28" font-family="Times,serif" font-size="14.00">OAuth 2.0 Rich Authorization Requests</text>
<text xml:space="preserve" text-anchor="middle" x="616.88" y="-664.78" font-family="Times,serif" font-size="14.00">2023</text>
</a>
</g>
</g>
<!-- obs -->
<g id="node3" class="node">
<title>obs</title>
<polygon fill="none" stroke="black" points="873.24,-758.33 806.99,-758.33 806.99,-722.33 873.24,-722.33 873.24,-758.33"/>
<text xml:space="preserve" text-anchor="middle" x="840.12" y="-735.28" font-family="Times,serif" font-size="14.00">obsoletes</text>
</g>
<!-- RFC9396&#45;&gt;obs -->
<g id="edge2" class="edge">
<title>RFC9396&#45;&gt;obs</title>
<path fill="none" stroke="black" d="M735.3,-714.99C756.85,-720.25 778.05,-725.42 795.62,-729.71"/>
<polygon fill="black" stroke="black" points="794.6,-733.06 805.14,-732.03 796.26,-726.26 794.6,-733.06"/>
</g>
<!-- updates -->
<g id="node4" class="node">
<title>updates</title>
<polygon fill="none" stroke="black" points="868.74,-704.33 811.49,-704.33 811.49,-668.33 868.74,-668.33 868.74,-704.33"/>
<text xml:space="preserve" text-anchor="middle" x="840.12" y="-681.28" font-family="Times,serif" font-size="14.00">updates</text>
</g>
<!-- RFC9396&#45;&gt;updates -->
<g id="edge3" class="edge">
<title>RFC9396&#45;&gt;updates</title>
<path fill="none" stroke="black" d="M782.43,-686.33C788.58,-686.33 794.44,-686.33 799.9,-686.33"/>
<polygon fill="black" stroke="black" points="799.64,-689.83 809.64,-686.33 799.64,-682.83 799.64,-689.83"/>
</g>
<!-- cites -->
<g id="node6" class="node">
<title>cites</title>
<polygon fill="none" stroke="black" points="867.12,-650.33 813.12,-650.33 813.12,-614.33 867.12,-614.33 867.12,-650.33"/>
<text xml:space="preserve" text-anchor="middle" x="840.12" y="-627.28" font-family="Times,serif" font-size="14.00">cites</text>
</g>
<!-- RFC9396&#45;&gt;cites -->
<g id="edge5" class="edge">
<title>RFC9396&#45;&gt;cites</title>
<path fill="none" stroke="black" d="M735.3,-657.67C759.34,-651.8 782.95,-646.04 801.56,-641.49"/>
<polygon fill="black" stroke="black" points="802.39,-644.89 811.27,-639.12 800.73,-638.09 802.39,-644.89"/>
</g>
<!-- obs_by -->
<g id="node2" class="node">
<title>obs_by</title>
<polygon fill="none" stroke="black" points="426.77,-758.33 360.52,-758.33 360.52,-722.33 426.77,-722.33 426.77,-758.33"/>
<text xml:space="preserve" text-anchor="middle" x="393.65" y="-735.28" font-family="Times,serif" font-size="14.00">obsoletes</text>
</g>
<!-- obs_by&#45;&gt;RFC9396 -->
<g id="edge1" class="edge">
<title>obs_by&#45;&gt;RFC9396</title>
<path fill="none" stroke="black" d="M426.82,-732.47C443.4,-728.43 464.82,-723.2 487.27,-717.72"/>
<polygon fill="black" stroke="black" points="487.99,-721.14 496.88,-715.37 486.33,-714.34 487.99,-721.14"/>
</g>
<!-- updated_by -->
<g id="node5" class="node">
<title>updated_by</title>
<polygon fill="none" stroke="black" points="422.27,-704.33 365.02,-704.33 365.02,-668.33 422.27,-668.33 422.27,-704.33"/>
<text xml:space="preserve" text-anchor="middle" x="393.65" y="-681.28" font-family="Times,serif" font-size="14.00">updates</text>
</g>
<!-- updated_by&#45;&gt;RFC9396 -->
<g id="edge4" class="edge">
<title>updated_by&#45;&gt;RFC9396</title>
<path fill="none" stroke="black" d="M422.67,-686.33C428.03,-686.33 433.99,-686.33 440.41,-686.33"/>
<polygon fill="black" stroke="black" points="440.09,-689.83 450.09,-686.33 440.09,-682.83 440.09,-689.83"/>
</g>
<!-- RFC6749 -->
<g id="node7" class="node">
<title>RFC6749</title>
<g id="a_node7"><a xlink:href="RFC6749.html" xlink:title="The OAuth 2.0 authorization framework enables a third&#45;party application to obtain limited access to an HTTP service, either on behalf of a resource owner by orchestrating an approval interaction between the resource owner and the HTTP service, or by allowing the third&#45;party application to obtain access on its own behalf. &#160;This specification replaces and obsoletes the OAuth 1.0 protocol described in RFC 5849. [STANDARDS&#45;TRACK]" target="_top">
<ellipse fill="none" stroke="black" cx="1076.61" cy="-1249.33" rx="172" ry="40.66"/>
<text xml:space="preserve" text-anchor="middle" x="1076.61" y="-1260.78" font-family="Times,serif" font-size="14.00">RFC6749</text>
<text xml:space="preserve" text-anchor="middle" x="1076.61" y="-1244.28" font-family="Times,serif" font-size="14.00">The OAuth 2.0 Authorization Framework</text>
<text xml:space="preserve" text-anchor="middle" x="1076.61" y="-1227.78" font-family="Times,serif" font-size="14.00">2012</text>
</a>
</g>
</g>
<!-- cites&#45;&gt;RFC6749 -->
<g id="edge6" class="edge">
<title>cites&#45;&gt;RFC6749</title>
<path fill="none" stroke="black" d="M867.21,-650.63C869.59,-653.28 871.69,-656.19 873.24,-659.33 899.86,-713.17 860.89,-1152.29 898.24,-1199.33 905.11,-1207.97 913.35,-1215.2 922.46,-1221.22"/>
<polygon fill="black" stroke="black" points="920.58,-1224.18 930.96,-1226.31 924.17,-1218.17 920.58,-1224.18"/>
</g>
<!-- RFC8259 -->
<g id="node8" class="node">
<title>RFC8259</title>
<g id="a_node8"><a xlink:href="RFC8259.html" xlink:title="JavaScript Object Notation (JSON) is a lightweight, text&#45;based, language&#45;independent data interchange format. It was derived from the ECMAScript Programming Language Standard. JSON defines a small set of formatting rules for the portable representation of structured data. This document removes inconsistencies with other specifications of JSON, repairs specification errors, and offers experience&#45;based interoperability guidance." target="_top">
<ellipse fill="none" stroke="black" cx="1076.61" cy="-1138.33" rx="164.58" ry="52.33"/>
<text xml:space="preserve" text-anchor="middle" x="1076.61" y="-1158.03" font-family="Times,serif" font-size="14.00">RFC8259</text>
<text xml:space="preserve" text-anchor="middle" x="1076.61" y="-1141.53" font-family="Times,serif" font-size="14.00">The JavaScript Object Notation (JSON)</text>
<text xml:space="preserve" text-anchor="middle" x="1076.61" y="-1125.03" font-family="Times,serif" font-size="14.00">Data Interchange Format</text>
<text xml:space="preserve" text-anchor="middle" x="1076.61" y="-1108.53" font-family="Times,serif" font-size="14.00">2017</text>
</a>
</g>
</g>
<!-- cites&#45;&gt;RFC8259 -->
<g id="edge7" class="edge">
<title>cites&#45;&gt;RFC8259</title>
<path fill="none" stroke="black" d="M867.17,-650.65C869.56,-653.3 871.67,-656.2 873.24,-659.33 914.94,-742.27 842.27,-1002.27 898.24,-1076.33 906.62,-1087.41 917.13,-1096.53 928.82,-1104.02"/>
<polygon fill="black" stroke="black" points="926.73,-1106.85 937.12,-1108.92 930.29,-1100.82 926.73,-1106.85"/>
</g>
<!-- RFC2119 -->
<g id="node9" class="node">
<title>RFC2119</title>
<g id="a_node9"><a xlink:href="RFC2119.html" xlink:title="In many standards track documents several words are used to signify the requirements in the specification. &#160;These words are often capitalized. &#160;This document defines these words as they should be interpreted in IETF documents. &#160;This document specifies an Internet Best Current Practices for the Internet Community, and requests discussion and suggestions for improvements." target="_top">
<ellipse fill="none" stroke="black" cx="1076.61" cy="-1015.33" rx="160.34" ry="52.33"/>
<text xml:space="preserve" text-anchor="middle" x="1076.61" y="-1035.03" font-family="Times,serif" font-size="14.00">RFC2119</text>
<text xml:space="preserve" text-anchor="middle" x="1076.61" y="-1018.53" font-family="Times,serif" font-size="14.00">Key words for use in RFCs to Indicate</text>
<text xml:space="preserve" text-anchor="middle" x="1076.61" y="-1002.03" font-family="Times,serif" font-size="14.00">Requirement Levels</text>
<text xml:space="preserve" text-anchor="middle" x="1076.61" y="-985.53" font-family="Times,serif" font-size="14.00">1997</text>
</a>
</g>
</g>
<!-- cites&#45;&gt;RFC2119 -->
<g id="edge8" class="edge">
<title>cites&#45;&gt;RFC2119</title>
<path fill="none" stroke="black" d="M867.09,-650.69C869.5,-653.33 871.63,-656.22 873.24,-659.33 903.42,-717.54 858.06,-901.51 898.24,-953.33 907.16,-964.83 918.36,-974.2 930.78,-981.85"/>
<polygon fill="black" stroke="black" points="928.75,-984.72 939.17,-986.61 932.2,-978.63 928.75,-984.72"/>
</g>
<!-- RFC8174 -->
<g id="node10" class="node">
<title>RFC8174</title>
<g id="a_node10"><a xlink:href="RFC8174.html" xlink:title="RFC 2119 specifies common key words that may be used in protocol specifications. &#160;This document aims to reduce the ambiguity by clarifying that only UPPERCASE usage of the key words have the defined special meanings." target="_top">
<ellipse fill="none" stroke="black" cx="1076.61" cy="-892.33" rx="172" ry="52.33"/>
<text xml:space="preserve" text-anchor="middle" x="1076.61" y="-912.03" font-family="Times,serif" font-size="14.00">RFC8174</text>
<text xml:space="preserve" text-anchor="middle" x="1076.61" y="-895.53" font-family="Times,serif" font-size="14.00">Ambiguity of Uppercase vs Lowercase in</text>
<text xml:space="preserve" text-anchor="middle" x="1076.61" y="-879.03" font-family="Times,serif" font-size="14.00">RFC 2119 Key Words</text>
<text xml:space="preserve" text-anchor="middle" x="1076.61" y="-862.53" font-family="Times,serif" font-size="14.00">2017</text>
</a>
</g>
</g>
<!-- cites&#45;&gt;RFC8174 -->
<g id="edge9" class="edge">
<title>cites&#45;&gt;RFC8174</title>
<path fill="none" stroke="black" d="M866.91,-650.78C869.35,-653.41 871.54,-656.27 873.24,-659.33 910.82,-726.81 848.95,-771.84 898.24,-831.33 906.19,-840.92 915.74,-849.02 926.21,-855.84"/>
<polygon fill="black" stroke="black" points="924.4,-858.83 934.78,-860.97 928,-852.83 924.4,-858.83"/>
</g>
<!-- RFC8628 -->
<g id="node11" class="node">
<title>RFC8628</title>
<g id="a_node11"><a xlink:href="RFC8628.html" xlink:title="The OAuth 2.0 device authorization grant is designed for Internet&#45; connected devices that either lack a browser to perform a user&#45;agent&#45; based authorization or are input constrained to the extent that requiring the user to input text in order to authenticate during the authorization flow is impractical. &#160;It enables OAuth clients on such devices (like smart TVs, media consoles, digital picture frames, and printers) to obtain user authorization to access protected resources by using a user agent on a separate device." target="_top">
<ellipse fill="none" stroke="black" cx="1076.61" cy="-781.33" rx="161.4" ry="40.66"/>
<text xml:space="preserve" text-anchor="middle" x="1076.61" y="-792.78" font-family="Times,serif" font-size="14.00">RFC8628</text>
<text xml:space="preserve" text-anchor="middle" x="1076.61" y="-776.28" font-family="Times,serif" font-size="14.00">OAuth 2.0 Device Authorization Grant</text>
<text xml:space="preserve" text-anchor="middle" x="1076.61" y="-759.78" font-family="Times,serif" font-size="14.00">2019</text>
</a>
</g>
</g>
<!-- cites&#45;&gt;RFC8628 -->
<g id="edge10" class="edge">
<title>cites&#45;&gt;RFC8628</title>
<path fill="none" stroke="black" d="M866.04,-650.8C868.7,-653.46 871.18,-656.32 873.24,-659.33 892.63,-687.61 873.27,-708.82 898.24,-732.33 907.6,-741.13 918.39,-748.38 929.94,-754.34"/>
<polygon fill="black" stroke="black" points="928.37,-757.47 938.9,-758.61 931.37,-751.15 928.37,-757.47"/>
</g>
<!-- RFC9126 -->
<g id="node12" class="node">
<title>RFC9126</title>
<g id="a_node12"><a xlink:href="RFC9126.html" xlink:title="This document defines the pushed authorization request (PAR) endpoint, which allows clients to push the payload of an OAuth 2.0 authorization request to the authorization server via a direct request and provides them with a request URI that is used as reference to the data in a subsequent call to the authorization endpoint." target="_top">
<ellipse fill="none" stroke="black" cx="1076.61" cy="-682.33" rx="174.66" ry="40.66"/>
<text xml:space="preserve" text-anchor="middle" x="1076.61" y="-693.78" font-family="Times,serif" font-size="14.00">RFC9126</text>
<text xml:space="preserve" text-anchor="middle" x="1076.61" y="-677.28" font-family="Times,serif" font-size="14.00">OAuth 2.0 Pushed Authorization Requests</text>
<text xml:space="preserve" text-anchor="middle" x="1076.61" y="-660.78" font-family="Times,serif" font-size="14.00">2021</text>
</a>
</g>
</g>
<!-- cites&#45;&gt;RFC9126 -->
<g id="edge11" class="edge">
<title>cites&#45;&gt;RFC9126</title>
<path fill="none" stroke="black" d="M867.56,-637.96C885.01,-641.69 909.37,-646.88 935.3,-652.41"/>
<polygon fill="black" stroke="black" points="934.51,-655.82 945.02,-654.48 935.97,-648.97 934.51,-655.82"/>
</g>
<!-- RFC8707 -->
<g id="node13" class="node">
<title>RFC8707</title>
<g id="a_node13"><a xlink:href="RFC8707.html" xlink:title="This document specifies an extension to the OAuth 2.0 Authorization Framework defining request parameters that enable a client to explicitly signal to an authorization server about the identity of the protected resource(s) to which it is requesting access." target="_top">
<ellipse fill="none" stroke="black" cx="1076.61" cy="-583.33" rx="144.96" ry="40.66"/>
<text xml:space="preserve" text-anchor="middle" x="1076.61" y="-594.78" font-family="Times,serif" font-size="14.00">RFC8707</text>
<text xml:space="preserve" text-anchor="middle" x="1076.61" y="-578.28" font-family="Times,serif" font-size="14.00">Resource Indicators for OAuth 2.0</text>
<text xml:space="preserve" text-anchor="middle" x="1076.61" y="-561.78" font-family="Times,serif" font-size="14.00">2020</text>
</a>
</g>
</g>
<!-- cites&#45;&gt;RFC8707 -->
<g id="edge12" class="edge">
<title>cites&#45;&gt;RFC8707</title>
<path fill="none" stroke="black" d="M867.56,-626.8C887.92,-622.55 917.68,-616.33 948.37,-609.91"/>
<polygon fill="black" stroke="black" points="948.7,-613.42 957.77,-607.95 947.26,-606.57 948.7,-613.42"/>
</g>
<!-- RFC7519 -->
<g id="node14" class="node">
<title>RFC7519</title>
<g id="a_node14"><a xlink:href="RFC7519.html" xlink:title="JSON Web Token (JWT) is a compact, URL&#45;safe means of representing claims to be transferred between two parties. &#160;The claims in a JWT are encoded as a JSON object that is used as the payload of a JSON Web Signature (JWS) structure or as the plaintext of a JSON Web Encryption (JWE) structure, enabling the claims to be digitally signed or integrity protected with a Message Authentication Code (MAC) and/or encrypted." target="_top">
<ellipse fill="none" stroke="black" cx="1076.61" cy="-484.33" rx="108.89" ry="40.66"/>
<text xml:space="preserve" text-anchor="middle" x="1076.61" y="-495.78" font-family="Times,serif" font-size="14.00">RFC7519</text>
<text xml:space="preserve" text-anchor="middle" x="1076.61" y="-479.28" font-family="Times,serif" font-size="14.00">JSON Web Token (JWT)</text>
<text xml:space="preserve" text-anchor="middle" x="1076.61" y="-462.78" font-family="Times,serif" font-size="14.00">2015</text>
</a>
</g>
</g>
<!-- cites&#45;&gt;RFC7519 -->
<g id="edge13" class="edge">
<title>cites&#45;&gt;RFC7519</title>
<path fill="none" stroke="black" d="M846.81,-614.09C854.74,-591.72 871.25,-554.21 898.24,-533.33 917.11,-518.73 940.06,-508.48 963.11,-501.28"/>
<polygon fill="black" stroke="black" points="963.98,-504.67 972.6,-498.51 962.02,-497.95 963.98,-504.67"/>
</g>
<!-- RFC7662 -->
<g id="node15" class="node">
<title>RFC7662</title>
<g id="a_node15"><a xlink:href="RFC7662.html" xlink:title="This specification defines a method for a protected resource to query an OAuth 2.0 authorization server to determine the active state of an OAuth 2.0 token and to determine meta&#45;information about this token. &#160;OAuth 2.0 deployments can use this method to convey information about the authorization context of the token from the authorization server to the protected resource." target="_top">
<ellipse fill="none" stroke="black" cx="1076.61" cy="-385.33" rx="131.7" ry="40.66"/>
<text xml:space="preserve" text-anchor="middle" x="1076.61" y="-396.78" font-family="Times,serif" font-size="14.00">RFC7662</text>
<text xml:space="preserve" text-anchor="middle" x="1076.61" y="-380.28" font-family="Times,serif" font-size="14.00">OAuth 2.0 Token Introspection</text>
<text xml:space="preserve" text-anchor="middle" x="1076.61" y="-363.78" font-family="Times,serif" font-size="14.00">2015</text>
</a>
</g>
</g>
<!-- cites&#45;&gt;RFC7662 -->
<g id="edge14" class="edge">
<title>cites&#45;&gt;RFC7662</title>
<path fill="none" stroke="black" d="M840.83,-614.11C841.24,-575.34 847.87,-484.13 898.24,-434.33 911.13,-421.58 927.01,-412.08 943.93,-405.01"/>
<polygon fill="black" stroke="black" points="945.1,-408.32 953.17,-401.46 942.58,-401.78 945.1,-408.32"/>
</g>
<!-- RFC8414 -->
<g id="node16" class="node">
<title>RFC8414</title>
<g id="a_node16"><a xlink:href="RFC8414.html" xlink:title="This specification defines a metadata format that an OAuth 2.0 client can use to obtain the information needed to interact with an OAuth 2.0 authorization server, including its endpoint locations and authorization server capabilities." target="_top">
<ellipse fill="none" stroke="black" cx="1076.61" cy="-286.33" rx="173.59" ry="40.66"/>
<text xml:space="preserve" text-anchor="middle" x="1076.61" y="-297.78" font-family="Times,serif" font-size="14.00">RFC8414</text>
<text xml:space="preserve" text-anchor="middle" x="1076.61" y="-281.28" font-family="Times,serif" font-size="14.00">OAuth 2.0 Authorization Server Metadata</text>
<text xml:space="preserve" text-anchor="middle" x="1076.61" y="-264.78" font-family="Times,serif" font-size="14.00">2018</text>
</a>
</g>
</g>
<!-- cites&#45;&gt;RFC8414 -->
<g id="edge15" class="edge">
<title>cites&#45;&gt;RFC8414</title>
<path fill="none" stroke="black" d="M842.17,-613.89C845.88,-555.57 860.21,-376.5 898.24,-335.33 905.56,-327.4 914.03,-320.71 923.23,-315.08"/>
<polygon fill="black" stroke="black" points="924.72,-318.25 931.74,-310.31 921.31,-312.14 924.72,-318.25"/>
</g>
<!-- RFC9101 -->
<g id="node17" class="node">
<title>RFC9101</title>
<g id="a_node17"><a xlink:href="RFC9101.html" xlink:title="The authorization request in OAuth 2.0 described in RFC 6749 utilizes query parameter serialization, which means that authorization request parameters are encoded in the URI of the request and sent through user agents such as web browsers. While it is easy to implement, it means that a) the communication through the user agents is not integrity protected and thus, the parameters can be tainted, b) the source of the communication is not authenticated, and c) the communication through the user agents can be monitored. Because of these weaknesses, several attacks to the protocol have now been put forward. This document introduces the ability to send request parameters in a JSON Web Token (JWT) instead, which allows the request to be signed with JSON Web Signature (JWS) and encrypted with JSON Web Encryption (JWE) so that the integrity, source authentication, and confidentiality properties of the authorization request are attained. The request can be sent by value or by reference." target="_top">
<ellipse fill="none" stroke="black" cx="1076.61" cy="-175.33" rx="178.37" ry="52.33"/>
<text xml:space="preserve" text-anchor="middle" x="1076.61" y="-195.03" font-family="Times,serif" font-size="14.00">RFC9101</text>
<text xml:space="preserve" text-anchor="middle" x="1076.61" y="-178.53" font-family="Times,serif" font-size="14.00">The OAuth 2.0 Authorization Framework:</text>
<text xml:space="preserve" text-anchor="middle" x="1076.61" y="-162.03" font-family="Times,serif" font-size="14.00">JWT&#45;Secured Authorization Request (JAR)</text>
<text xml:space="preserve" text-anchor="middle" x="1076.61" y="-145.53" font-family="Times,serif" font-size="14.00">2021</text>
</a>
</g>
</g>
<!-- cites&#45;&gt;RFC9101 -->
<g id="edge16" class="edge">
<title>cites&#45;&gt;RFC9101</title>
<path fill="none" stroke="black" d="M841.3,-614.05C842.38,-544.2 849.63,-295.05 898.24,-236.33 905.71,-227.3 914.59,-219.6 924.33,-213.04"/>
<polygon fill="black" stroke="black" points="925.98,-216.14 932.63,-207.89 922.29,-210.19 925.98,-216.14"/>
</g>
<!-- RFC7591 -->
<g id="node18" class="node">
<title>RFC7591</title>
<g id="a_node18"><a xlink:href="RFC7591.html" xlink:title="This specification defines mechanisms for dynamically registering OAuth 2.0 clients with authorization servers. &#160;Registration requests send a set of desired client metadata values to the authorization server. &#160;The resulting registration responses return a client identifier to use at the authorization server and the client metadata values registered for the client. &#160;The client can then use this registration information to communicate with the authorization server using the OAuth 2.0 protocol. &#160;This specification also defines a set of common client metadata fields and values for clients to use during registration." target="_top">
<ellipse fill="none" stroke="black" cx="1076.61" cy="-52.33" rx="165.64" ry="52.33"/>
<text xml:space="preserve" text-anchor="middle" x="1076.61" y="-72.03" font-family="Times,serif" font-size="14.00">RFC7591</text>
<text xml:space="preserve" text-anchor="middle" x="1076.61" y="-55.53" font-family="Times,serif" font-size="14.00">OAuth 2.0 Dynamic Client Registration</text>
<text xml:space="preserve" text-anchor="middle" x="1076.61" y="-39.03" font-family="Times,serif" font-size="14.00">Protocol</text>
<text xml:space="preserve" text-anchor="middle" x="1076.61" y="-22.53" font-family="Times,serif" font-size="14.00">2015</text>
</a>
</g>
</g>
<!-- cites&#45;&gt;RFC7591 -->
<g id="edge17" class="edge">
<title>cites&#45;&gt;RFC7591</title>
<path fill="none" stroke="black" d="M841.99,-614.01C846.3,-526.58 866.45,-154.28 898.24,-114.33 906.73,-103.66 917.18,-94.82 928.71,-87.5"/>
<polygon fill="black" stroke="black" points="930.46,-90.53 937.33,-82.46 926.93,-84.49 930.46,-90.53"/>
</g>
<!-- rev_cites -->
<g id="node19" class="node">
<title>rev_cites</title>
<polygon fill="none" stroke="black" points="420.65,-650.33 366.65,-650.33 366.65,-614.33 420.65,-614.33 420.65,-650.33"/>
<text xml:space="preserve" text-anchor="middle" x="393.65" y="-627.28" font-family="Times,serif" font-size="14.00">cites</text>
</g>
<!-- rev_cites&#45;&gt;RFC9396 -->
<g id="edge18" class="edge">
<title>rev_cites&#45;&gt;RFC9396</title>
<path fill="none" stroke="black" d="M420.89,-638.73C438.17,-642.95 462.21,-648.82 487.51,-654.99"/>
<polygon fill="black" stroke="black" points="486.41,-658.33 496.95,-657.3 488.07,-651.53 486.41,-658.33"/>
</g>
<!-- RFC9635 -->
<g id="node20" class="node">
<title>RFC9635</title>
<g id="a_node20"><a xlink:href="RFC9635.html" xlink:title="The Grant Negotiation and Authorization Protocol (GNAP) defines a mechanism for delegating authorization to a piece of software and conveying the results and artifacts of that delegation to the software. &#160;This delegation can include access to a set of APIs as well as subject information passed directly to the software." target="_top">
<ellipse fill="none" stroke="black" cx="167.76" cy="-755.33" rx="152.38" ry="52.33"/>
<text xml:space="preserve" text-anchor="middle" x="167.76" y="-775.03" font-family="Times,serif" font-size="14.00">RFC9635</text>
<text xml:space="preserve" text-anchor="middle" x="167.76" y="-758.53" font-family="Times,serif" font-size="14.00">Grant Negotiation and Authorization</text>
<text xml:space="preserve" text-anchor="middle" x="167.76" y="-742.03" font-family="Times,serif" font-size="14.00">Protocol (GNAP)</text>
<text xml:space="preserve" text-anchor="middle" x="167.76" y="-725.53" font-family="Times,serif" font-size="14.00">2024</text>
</a>
</g>
</g>
<!-- RFC9635&#45;&gt;rev_cites -->
<g id="edge19" class="edge">
<title>RFC9635&#45;&gt;rev_cites</title>
<path fill="none" stroke="black" d="M285.45,-721.96C303.14,-714.13 320.48,-704.67 335.52,-693.33 350.5,-682.03 347.7,-673.01 360.52,-659.33 360.78,-659.05 361.05,-658.77 361.31,-658.49"/>
<polygon fill="black" stroke="black" points="363.69,-661.06 368.48,-651.61 358.84,-656.01 363.69,-661.06"/>
</g>
<!-- RFC9700 -->
<g id="node21" class="node">
<title>RFC9700</title>
<g id="a_node21"><a xlink:href="RFC9700.html" xlink:title="This document describes best current security practice for OAuth 2.0. &#160;It updates and extends the threat model and security advice given in RFCs 6749, 6750, and 6819 to incorporate practical experiences gathered since OAuth 2.0 was published and covers new threats relevant due to the broader application of OAuth 2.0. &#160;Further, it deprecates some modes of operation that are deemed less secure or even insecure." target="_top">
<ellipse fill="none" stroke="black" cx="167.76" cy="-632.33" rx="150.79" ry="52.33"/>
<text xml:space="preserve" text-anchor="middle" x="167.76" y="-652.03" font-family="Times,serif" font-size="14.00">RFC9700</text>
<text xml:space="preserve" text-anchor="middle" x="167.76" y="-635.53" font-family="Times,serif" font-size="14.00">Best Current Practice for OAuth 2.0</text>
<text xml:space="preserve" text-anchor="middle" x="167.76" y="-619.03" font-family="Times,serif" font-size="14.00">Security</text>
<text xml:space="preserve" text-anchor="middle" x="167.76" y="-602.53" font-family="Times,serif" font-size="14.00">2025</text>
</a>
</g>
</g>
<!-- RFC9700&#45;&gt;rev_cites -->
<g id="edge20" class="edge">
<title>RFC9700&#45;&gt;rev_cites</title>
<path fill="none" stroke="black" d="M319.03,-632.33C332.06,-632.33 344.31,-632.33 354.93,-632.33"/>
<polygon fill="black" stroke="black" points="354.68,-635.83 364.68,-632.33 354.68,-628.83 354.68,-635.83"/>
</g>
<!-- RFC9728 -->
<g id="node22" class="node">
<title>RFC9728</title>
<g id="a_node22"><a xlink:href="RFC9728.html" xlink:title="This specification defines a metadata format that an OAuth 2.0 client or authorization server can use to obtain the information needed to interact with an OAuth 2.0 protected resource." target="_top">
<ellipse fill="none" stroke="black" cx="167.76" cy="-521.33" rx="167.76" ry="40.66"/>
<text xml:space="preserve" text-anchor="middle" x="167.76" y="-532.78" font-family="Times,serif" font-size="14.00">RFC9728</text>
<text xml:space="preserve" text-anchor="middle" x="167.76" y="-516.28" font-family="Times,serif" font-size="14.00">OAuth 2.0 Protected Resource Metadata</text>
<text xml:space="preserve" text-anchor="middle" x="167.76" y="-499.78" font-family="Times,serif" font-size="14.00">2025</text>
</a>
</g>
</g>
<!-- RFC9728&#45;&gt;rev_cites -->
<g id="edge21" class="edge">
<title>RFC9728&#45;&gt;rev_cites</title>
<path fill="none" stroke="black" d="M290.04,-549.37C305.92,-555.4 321.52,-562.65 335.52,-571.33 349.67,-580.1 362.62,-593.26 372.59,-605.12"/>
<polygon fill="black" stroke="black" points="369.66,-607.06 378.66,-612.66 375.12,-602.67 369.66,-607.06"/>
</g>
</g>
</svg>
