<?xml version="1.0" encoding="UTF-8" standalone="no"?>
<!DOCTYPE svg PUBLIC "-//W3C//DTD SVG 1.1//EN"
 "http://www.w3.org/Graphics/SVG/1.1/DTD/svg11.dtd">
<!-- Generated by graphviz version 14.1.1 (20251213.1925)
 -->
<!-- Title: Flow Pages: 1 -->
<svg width="927pt" height="247pt"
 viewBox="0.00 0.00 927.00 247.00" xmlns="http://www.w3.org/2000/svg" xmlns:xlink="http://www.w3.org/1999/xlink">
<g id="graph0" class="graph" transform="scale(1 1) rotate(0) translate(4 243.33)">
<title>Flow</title>
<polygon fill="white" stroke="none" points="-4,4 -4,-243.33 922.85,-243.33 922.85,4 -4,4"/>
<!-- RFC9564 -->
<g id="node1" class="node">
<title>RFC9564</title>
<g id="a_node1"><a xlink:title="The recent advances in artificial intelligence (AI) such as large language models enable the design of the Faster than LIght speed Protocol (FLIP) for Internet. &#160;FLIP provides a way to avoid congestion, enhance security, and deliver faster packets on the Internet by using AI to predict future packets at the receiving peer before they arrive. &#160;This document describes the protocol, its various encapsulations, and some operational considerations.">
<ellipse fill="green" stroke="black" cx="260.6" cy="-167.33" rx="169.35" ry="40.66"/>
<text xml:space="preserve" text-anchor="middle" x="260.6" y="-178.78" font-family="Times,serif" font-size="14.00">RFC9564</text>
<text xml:space="preserve" text-anchor="middle" x="260.6" y="-162.28" font-family="Times,serif" font-size="14.00">Faster Than Light Speed Protocol (FLIP)</text>
<text xml:space="preserve" text-anchor="middle" x="260.6" y="-145.78" font-family="Times,serif" font-size="14.00">2024</text>
</a>
</g>
</g>
<!-- obs -->
<g id="node3" class="node">
<title>obs</title>
<polygon fill="lightblue" stroke="black" points="521.2,-239.33 454.95,-239.33 454.95,-203.33 521.2,-203.33 521.2,-239.33"/>
<text xml:space="preserve" text-anchor="middle" x="488.08" y="-216.28" font-family="Times,serif" font-size="14.00">obsoletes</text>
</g>
<!-- RFC9564&#45;&gt;obs -->
<g id="edge2" class="edge">
<title>RFC9564&#45;&gt;obs</title>
<path fill="none" stroke="black" d="M381.6,-196.07C403.79,-201.38 425.61,-206.6 443.59,-210.91"/>
<polygon fill="black" stroke="black" points="442.52,-214.25 453.06,-213.18 444.15,-207.45 442.52,-214.25"/>
</g>
<!-- updates -->
<g id="node4" class="node">
<title>updates</title>
<polygon fill="lightyellow" stroke="black" points="516.7,-185.33 459.45,-185.33 459.45,-149.33 516.7,-149.33 516.7,-185.33"/>
<text xml:space="preserve" text-anchor="middle" x="488.08" y="-162.28" font-family="Times,serif" font-size="14.00">updates</text>
</g>
<!-- RFC9564&#45;&gt;updates -->
<g id="edge3" class="edge">
<title>RFC9564&#45;&gt;updates</title>
<path fill="none" stroke="black" d="M430.18,-167.33C436.37,-167.33 442.26,-167.33 447.74,-167.33"/>
<polygon fill="black" stroke="black" points="447.52,-170.83 457.52,-167.33 447.52,-163.83 447.52,-170.83"/>
</g>
<!-- cites -->
<g id="node6" class="node">
<title>cites</title>
<polygon fill="lightblue" stroke="black" points="515.08,-131.33 461.08,-131.33 461.08,-95.33 515.08,-95.33 515.08,-131.33"/>
<text xml:space="preserve" text-anchor="middle" x="488.08" y="-108.28" font-family="Times,serif" font-size="14.00">cites</text>
</g>
<!-- RFC9564&#45;&gt;cites -->
<g id="edge5" class="edge">
<title>RFC9564&#45;&gt;cites</title>
<path fill="none" stroke="black" d="M381.6,-138.59C406.34,-132.66 430.6,-126.85 449.61,-122.3"/>
<polygon fill="black" stroke="black" points="450.35,-125.72 459.26,-119.99 448.72,-118.91 450.35,-125.72"/>
</g>
<!-- obs_by -->
<g id="node2" class="node">
<title>obs_by</title>
<polygon fill="lightblue" stroke="black" points="66.25,-239.33 0,-239.33 0,-203.33 66.25,-203.33 66.25,-239.33"/>
<text xml:space="preserve" text-anchor="middle" x="33.12" y="-216.28" font-family="Times,serif" font-size="14.00">obsoletes</text>
</g>
<!-- obs_by&#45;&gt;RFC9564 -->
<g id="edge1" class="edge">
<title>obs_by&#45;&gt;RFC9564</title>
<path fill="none" stroke="black" d="M66.43,-213.59C83.36,-209.54 105.33,-204.27 128.36,-198.76"/>
<polygon fill="black" stroke="black" points="128.98,-202.21 137.89,-196.47 127.35,-195.4 128.98,-202.21"/>
</g>
<!-- updated_by -->
<g id="node5" class="node">
<title>updated_by</title>
<polygon fill="lightyellow" stroke="black" points="61.75,-185.33 4.5,-185.33 4.5,-149.33 61.75,-149.33 61.75,-185.33"/>
<text xml:space="preserve" text-anchor="middle" x="33.12" y="-162.28" font-family="Times,serif" font-size="14.00">updates</text>
</g>
<!-- updated_by&#45;&gt;RFC9564 -->
<g id="edge4" class="edge">
<title>updated_by&#45;&gt;RFC9564</title>
<path fill="none" stroke="black" d="M62.23,-167.33C67.39,-167.33 73.11,-167.33 79.26,-167.33"/>
<polygon fill="black" stroke="black" points="79.25,-170.83 89.25,-167.33 79.25,-163.83 79.25,-170.83"/>
</g>
<!-- RFC6709 -->
<g id="node7" class="node">
<title>RFC6709</title>
<g id="a_node7"><a xlink:href="RFC6709.html" xlink:title="This document discusses architectural issues related to the extensibility of Internet protocols, with a focus on design considerations. &#160;It is intended to assist designers of both base protocols and extensions. &#160;Case studies are included. &#160;A companion document, RFC 4775 (BCP 125), discusses procedures relating to the extensibility of IETF protocols. &#160;This document is not an Internet Standards Track specification; it is published for informational purposes." target="_top">
<ellipse fill="none" stroke="black" cx="732.53" cy="-175.33" rx="147.08" ry="52.33"/>
<text xml:space="preserve" text-anchor="middle" x="732.53" y="-195.03" font-family="Times,serif" font-size="14.00">RFC6709</text>
<text xml:space="preserve" text-anchor="middle" x="732.53" y="-178.53" font-family="Times,serif" font-size="14.00">Design Considerations for Protocol</text>
<text xml:space="preserve" text-anchor="middle" x="732.53" y="-162.03" font-family="Times,serif" font-size="14.00">Extensions</text>
<text xml:space="preserve" text-anchor="middle" x="732.53" y="-145.53" font-family="Times,serif" font-size="14.00">2012</text>
</a>
</g>
</g>
<!-- cites&#45;&gt;RFC6709 -->
<g id="edge6" class="edge">
<title>cites&#45;&gt;RFC6709</title>
<path fill="none" stroke="black" d="M515.49,-120.08C536.82,-125.54 568.58,-133.66 601.22,-142"/>
<polygon fill="black" stroke="black" points="600.28,-145.38 610.84,-144.46 602.02,-138.59 600.28,-145.38"/>
</g>
<!-- RFC6234 -->
<g id="node8" class="node">
<title>RFC6234</title>
<g id="a_node8"><a xlink:href="RFC6234.html" xlink:title="Federal Information Processing Standard, FIPS" target="_top">
<ellipse fill="none" stroke="black" cx="732.53" cy="-52.33" rx="186.32" ry="52.33"/>
<text xml:space="preserve" text-anchor="middle" x="732.53" y="-72.03" font-family="Times,serif" font-size="14.00">RFC6234</text>
<text xml:space="preserve" text-anchor="middle" x="732.53" y="-55.53" font-family="Times,serif" font-size="14.00">US Secure Hash Algorithms (SHA and SHA&#45;</text>
<text xml:space="preserve" text-anchor="middle" x="732.53" y="-39.03" font-family="Times,serif" font-size="14.00">based HMAC and HKDF)</text>
<text xml:space="preserve" text-anchor="middle" x="732.53" y="-22.53" font-family="Times,serif" font-size="14.00">2011</text>
</a>
</g>
</g>
<!-- cites&#45;&gt;RFC6234 -->
<g id="edge7" class="edge">
<title>cites&#45;&gt;RFC6234</title>
<path fill="none" stroke="black" d="M515.49,-106.68C532.51,-102.4 556.16,-96.45 581.6,-90.05"/>
<polygon fill="black" stroke="black" points="582.29,-93.48 591.13,-87.65 580.58,-86.7 582.29,-93.48"/>
</g>
<!-- rev_cites -->
<g id="node9" class="node">
<title>rev_cites</title>
<polygon fill="lightblue" stroke="black" points="60.12,-131.33 6.12,-131.33 6.12,-95.33 60.12,-95.33 60.12,-131.33"/>
<text xml:space="preserve" text-anchor="middle" x="33.12" y="-108.28" font-family="Times,serif" font-size="14.00">cites</text>
</g>
<!-- rev_cites&#45;&gt;RFC9564 -->
<g id="edge8" class="edge">
<title>rev_cites&#45;&gt;RFC9564</title>
<path fill="none" stroke="black" d="M60.43,-119.63C77.97,-123.83 102.47,-129.69 128.31,-135.88"/>
<polygon fill="black" stroke="black" points="127.44,-139.27 137.98,-138.2 129.07,-132.47 127.44,-139.27"/>
</g>
</g>
</svg>
