<?xml version="1.0" encoding="UTF-8" standalone="no"?>
<!DOCTYPE svg PUBLIC "-//W3C//DTD SVG 1.1//EN"
 "http://www.w3.org/Graphics/SVG/1.1/DTD/svg11.dtd">
<!-- Generated by graphviz version 14.1.1 (20251213.1925)
 -->
<!-- Title: Flow Pages: 1 -->
<svg width="1176pt" height="825pt"
 viewBox="0.00 0.00 1176.00 825.00" xmlns="http://www.w3.org/2000/svg" xmlns:xlink="http://www.w3.org/1999/xlink">
<g id="graph0" class="graph" transform="scale(1 1) rotate(0) translate(4 820.65)">
<title>Flow</title>
<polygon fill="white" stroke="none" points="-4,4 -4,-820.65 1172,-820.65 1172,4 -4,4"/>
<!-- RFC9209 -->
<g id="node1" class="node">
<title>RFC9209</title>
<g id="a_node1"><a xlink:title="This document defines the Proxy&#45;Status HTTP response field to convey the details of an intermediary&#39;s response handling, including generated errors.">
<ellipse fill="green" stroke="black" cx="534.15" cy="-427.33" rx="173.59" ry="52.33"/>
<text xml:space="preserve" text-anchor="middle" x="534.15" y="-447.03" font-family="Times,serif" font-size="14.00">RFC9209</text>
<text xml:space="preserve" text-anchor="middle" x="534.15" y="-430.53" font-family="Times,serif" font-size="14.00">The Proxy&#45;Status HTTP Response Header</text>
<text xml:space="preserve" text-anchor="middle" x="534.15" y="-414.03" font-family="Times,serif" font-size="14.00">Field</text>
<text xml:space="preserve" text-anchor="middle" x="534.15" y="-397.53" font-family="Times,serif" font-size="14.00">2022</text>
</a>
</g>
</g>
<!-- obs -->
<g id="node3" class="node">
<title>obs</title>
<polygon fill="lightblue" stroke="black" points="798.99,-499.33 732.74,-499.33 732.74,-463.33 798.99,-463.33 798.99,-499.33"/>
<text xml:space="preserve" text-anchor="middle" x="765.87" y="-476.28" font-family="Times,serif" font-size="14.00">obsoletes</text>
</g>
<!-- RFC9209&#45;&gt;obs -->
<g id="edge2" class="edge">
<title>RFC9209&#45;&gt;obs</title>
<path fill="none" stroke="black" d="M672.1,-459.52C689.84,-463.69 706.85,-467.69 721.35,-471.1"/>
<polygon fill="black" stroke="black" points="720.39,-474.47 730.93,-473.35 722,-467.65 720.39,-474.47"/>
</g>
<!-- updates -->
<g id="node4" class="node">
<title>updates</title>
<polygon fill="lightyellow" stroke="black" points="794.49,-445.33 737.24,-445.33 737.24,-409.33 794.49,-409.33 794.49,-445.33"/>
<text xml:space="preserve" text-anchor="middle" x="765.87" y="-422.28" font-family="Times,serif" font-size="14.00">updates</text>
</g>
<!-- RFC9209&#45;&gt;updates -->
<g id="edge3" class="edge">
<title>RFC9209&#45;&gt;updates</title>
<path fill="none" stroke="black" d="M708.09,-427.33C714.28,-427.33 720.16,-427.33 725.64,-427.33"/>
<polygon fill="black" stroke="black" points="725.4,-430.83 735.4,-427.33 725.4,-423.83 725.4,-430.83"/>
</g>
<!-- cites -->
<g id="node6" class="node">
<title>cites</title>
<polygon fill="lightblue" stroke="black" points="792.87,-391.33 738.87,-391.33 738.87,-355.33 792.87,-355.33 792.87,-391.33"/>
<text xml:space="preserve" text-anchor="middle" x="765.87" y="-368.28" font-family="Times,serif" font-size="14.00">cites</text>
</g>
<!-- RFC9209&#45;&gt;cites -->
<g id="edge5" class="edge">
<title>RFC9209&#45;&gt;cites</title>
<path fill="none" stroke="black" d="M672.1,-395.13C692.51,-390.34 711.95,-385.76 727.72,-382.06"/>
<polygon fill="black" stroke="black" points="728.1,-385.56 737.04,-379.87 726.5,-378.75 728.1,-385.56"/>
</g>
<!-- obs_by -->
<g id="node2" class="node">
<title>obs_by</title>
<polygon fill="lightblue" stroke="black" points="335.56,-499.33 269.31,-499.33 269.31,-463.33 335.56,-463.33 335.56,-499.33"/>
<text xml:space="preserve" text-anchor="middle" x="302.43" y="-476.28" font-family="Times,serif" font-size="14.00">obsoletes</text>
</g>
<!-- obs_by&#45;&gt;RFC9209 -->
<g id="edge1" class="edge">
<title>obs_by&#45;&gt;RFC9209</title>
<path fill="none" stroke="black" d="M335.86,-473.7C349.66,-470.46 366.82,-466.43 385.21,-462.1"/>
<polygon fill="black" stroke="black" points="385.76,-465.57 394.7,-459.87 384.16,-458.75 385.76,-465.57"/>
</g>
<!-- updated_by -->
<g id="node5" class="node">
<title>updated_by</title>
<polygon fill="lightyellow" stroke="black" points="331.06,-445.33 273.81,-445.33 273.81,-409.33 331.06,-409.33 331.06,-445.33"/>
<text xml:space="preserve" text-anchor="middle" x="302.43" y="-422.28" font-family="Times,serif" font-size="14.00">updates</text>
</g>
<!-- updated_by&#45;&gt;RFC9209 -->
<g id="edge4" class="edge">
<title>updated_by&#45;&gt;RFC9209</title>
<path fill="none" stroke="black" d="M331.14,-427.33C336.49,-427.33 342.45,-427.33 348.88,-427.33"/>
<polygon fill="black" stroke="black" points="348.6,-430.83 358.6,-427.33 348.6,-423.83 348.6,-430.83"/>
</g>
<!-- RFC2119 -->
<g id="node7" class="node">
<title>RFC2119</title>
<g id="a_node7"><a xlink:href="RFC2119.html" xlink:title="In many standards track documents several words are used to signify the requirements in the specification. &#160;These words are often capitalized. &#160;This document defines these words as they should be interpreted in IETF documents. &#160;This document specifies an Internet Best Current Practices for the Internet Community, and requests discussion and suggestions for improvements." target="_top">
<ellipse fill="none" stroke="black" cx="996" cy="-764.33" rx="160.34" ry="52.33"/>
<text xml:space="preserve" text-anchor="middle" x="996" y="-784.03" font-family="Times,serif" font-size="14.00">RFC2119</text>
<text xml:space="preserve" text-anchor="middle" x="996" y="-767.53" font-family="Times,serif" font-size="14.00">Key words for use in RFCs to Indicate</text>
<text xml:space="preserve" text-anchor="middle" x="996" y="-751.03" font-family="Times,serif" font-size="14.00">Requirement Levels</text>
<text xml:space="preserve" text-anchor="middle" x="996" y="-734.53" font-family="Times,serif" font-size="14.00">1997</text>
</a>
</g>
</g>
<!-- cites&#45;&gt;RFC2119 -->
<g id="edge6" class="edge">
<title>cites&#45;&gt;RFC2119</title>
<path fill="none" stroke="black" d="M792.85,-391.68C795.26,-394.33 797.39,-397.22 798.99,-400.33 829.93,-460.14 783.09,-648.83 823.99,-702.33 832.09,-712.91 842.16,-721.69 853.33,-728.97"/>
<polygon fill="black" stroke="black" points="851.28,-731.82 861.66,-733.96 854.88,-725.82 851.28,-731.82"/>
</g>
<!-- RFC8174 -->
<g id="node8" class="node">
<title>RFC8174</title>
<g id="a_node8"><a xlink:href="RFC8174.html" xlink:title="RFC 2119 specifies common key words that may be used in protocol specifications. &#160;This document aims to reduce the ambiguity by clarifying that only UPPERCASE usage of the key words have the defined special meanings." target="_top">
<ellipse fill="none" stroke="black" cx="996" cy="-641.33" rx="172" ry="52.33"/>
<text xml:space="preserve" text-anchor="middle" x="996" y="-661.03" font-family="Times,serif" font-size="14.00">RFC8174</text>
<text xml:space="preserve" text-anchor="middle" x="996" y="-644.53" font-family="Times,serif" font-size="14.00">Ambiguity of Uppercase vs Lowercase in</text>
<text xml:space="preserve" text-anchor="middle" x="996" y="-628.03" font-family="Times,serif" font-size="14.00">RFC 2119 Key Words</text>
<text xml:space="preserve" text-anchor="middle" x="996" y="-611.53" font-family="Times,serif" font-size="14.00">2017</text>
</a>
</g>
</g>
<!-- cites&#45;&gt;RFC8174 -->
<g id="edge7" class="edge">
<title>cites&#45;&gt;RFC8174</title>
<path fill="none" stroke="black" d="M792.68,-391.77C795.12,-394.4 797.3,-397.27 798.99,-400.33 838.07,-471.01 773.02,-517.68 823.99,-580.33 831.31,-589.31 840.04,-596.97 849.65,-603.51"/>
<polygon fill="black" stroke="black" points="847.49,-606.29 857.82,-608.63 851.2,-600.35 847.49,-606.29"/>
</g>
<!-- RFC7301 -->
<g id="node9" class="node">
<title>RFC7301</title>
<g id="a_node9"><a xlink:href="RFC7301.html" xlink:title="This document describes a Transport Layer Security (TLS) extension for application&#45;layer protocol negotiation within the TLS handshake. &#160;For instances in which multiple application protocols are supported on the same TCP or UDP port, this extension allows the application layer to negotiate which protocol will be used within the TLS connection." target="_top">
<ellipse fill="none" stroke="black" cx="996" cy="-507.33" rx="164.58" ry="63.99"/>
<text xml:space="preserve" text-anchor="middle" x="996" y="-535.28" font-family="Times,serif" font-size="14.00">RFC7301</text>
<text xml:space="preserve" text-anchor="middle" x="996" y="-518.78" font-family="Times,serif" font-size="14.00">Transport Layer Security (TLS)</text>
<text xml:space="preserve" text-anchor="middle" x="996" y="-502.28" font-family="Times,serif" font-size="14.00">Application&#45;Layer Protocol Negotiation</text>
<text xml:space="preserve" text-anchor="middle" x="996" y="-485.78" font-family="Times,serif" font-size="14.00">Extension</text>
<text xml:space="preserve" text-anchor="middle" x="996" y="-469.28" font-family="Times,serif" font-size="14.00">2014</text>
</a>
</g>
</g>
<!-- cites&#45;&gt;RFC7301 -->
<g id="edge8" class="edge">
<title>cites&#45;&gt;RFC7301</title>
<path fill="none" stroke="black" d="M789.95,-391.56C793.1,-394.38 796.21,-397.35 798.99,-400.33 811.82,-414.01 809.29,-422.68 823.99,-434.33 835.8,-443.68 848.99,-452.05 862.66,-459.49"/>
<polygon fill="black" stroke="black" points="860.86,-462.5 871.34,-464.04 864.11,-456.3 860.86,-462.5"/>
</g>
<!-- RFC8126 -->
<g id="node10" class="node">
<title>RFC8126</title>
<g id="a_node10"><a xlink:href="RFC8126.html" xlink:title="Many protocols make use of points of extensibility that use constants to identify various protocol parameters. To ensure that the values in these fields do not have conflicting uses and to promote interoperability, their allocations are often coordinated by a central record keeper. For IETF protocols, that role is filled by the Internet Assigned Numbers Authority (IANA). To make assignments in a given registry prudently, guidance describing the conditions under which new values should be assigned, as well as when and how modifications to existing values can be made, is needed. This document defines a framework for the documentation of these guidelines by specification authors, in order to assure that the provided guidance for the IANA Considerations is clear and addresses the various issues that are likely in the operation of a registry. This is the third edition of this document; it obsoletes RFC 5226." target="_top">
<ellipse fill="none" stroke="black" cx="996" cy="-373.33" rx="136.47" ry="52.33"/>
<text xml:space="preserve" text-anchor="middle" x="996" y="-393.03" font-family="Times,serif" font-size="14.00">RFC8126</text>
<text xml:space="preserve" text-anchor="middle" x="996" y="-376.53" font-family="Times,serif" font-size="14.00">Guidelines for Writing an IANA</text>
<text xml:space="preserve" text-anchor="middle" x="996" y="-360.03" font-family="Times,serif" font-size="14.00">Considerations Section in RFCs</text>
<text xml:space="preserve" text-anchor="middle" x="996" y="-343.53" font-family="Times,serif" font-size="14.00">2017</text>
</a>
</g>
</g>
<!-- cites&#45;&gt;RFC8126 -->
<g id="edge9" class="edge">
<title>cites&#45;&gt;RFC8126</title>
<path fill="none" stroke="black" d="M793.04,-373.33C807.52,-373.33 826.8,-373.33 847.72,-373.33"/>
<polygon fill="black" stroke="black" points="847.62,-376.83 857.62,-373.33 847.62,-369.83 847.62,-376.83"/>
</g>
<!-- RFC8499 -->
<g id="node11" class="node">
<title>RFC8499</title>
<g id="a_node11"><a xlink:href="RFC8499.html" xlink:title="The Domain Name System (DNS) is defined in literally dozens of different RFCs. The terminology used by implementers and developers of DNS protocols, and by operators of DNS systems, has sometimes changed in the decades since the DNS was first defined. This document gives current definitions for many of the terms used in the DNS in a single document. This document obsoletes RFC 7719 and updates RFC 2308." target="_top">
<ellipse fill="none" stroke="black" cx="996" cy="-262.33" rx="82.91" ry="40.66"/>
<text xml:space="preserve" text-anchor="middle" x="996" y="-273.78" font-family="Times,serif" font-size="14.00">RFC8499</text>
<text xml:space="preserve" text-anchor="middle" x="996" y="-257.28" font-family="Times,serif" font-size="14.00">DNS Terminology</text>
<text xml:space="preserve" text-anchor="middle" x="996" y="-240.78" font-family="Times,serif" font-size="14.00">2019</text>
</a>
</g>
</g>
<!-- cites&#45;&gt;RFC8499 -->
<g id="edge10" class="edge">
<title>cites&#45;&gt;RFC8499</title>
<path fill="none" stroke="black" d="M779.67,-355.08C790.13,-341.45 806.07,-323.35 823.99,-312.33 848.88,-297.02 878.69,-286.2 906.39,-278.64"/>
<polygon fill="black" stroke="black" points="907.04,-282.09 915.83,-276.19 905.27,-275.32 907.04,-282.09"/>
</g>
<!-- RFC8914 -->
<g id="node12" class="node">
<title>RFC8914</title>
<g id="a_node12"><a xlink:href="RFC8914.html" xlink:title="This document defines an extensible method to return additional information about the cause of DNS errors. &#160;Though created primarily to extend SERVFAIL to provide additional information about the cause of DNS and DNSSEC failures, the Extended DNS Errors option defined in this document allows all response types to contain extended error information. &#160;Extended DNS Error information does not change the processing of RCODEs." target="_top">
<ellipse fill="none" stroke="black" cx="996" cy="-163.33" rx="95.64" ry="40.66"/>
<text xml:space="preserve" text-anchor="middle" x="996" y="-174.78" font-family="Times,serif" font-size="14.00">RFC8914</text>
<text xml:space="preserve" text-anchor="middle" x="996" y="-158.28" font-family="Times,serif" font-size="14.00">Extended DNS Errors</text>
<text xml:space="preserve" text-anchor="middle" x="996" y="-141.78" font-family="Times,serif" font-size="14.00">2020</text>
</a>
</g>
</g>
<!-- cites&#45;&gt;RFC8914 -->
<g id="edge11" class="edge">
<title>cites&#45;&gt;RFC8914</title>
<path fill="none" stroke="black" d="M768.06,-354.96C771.24,-321.65 782.72,-251.12 823.99,-212.33 842.71,-194.73 867.33,-183.4 892.02,-176.11"/>
<polygon fill="black" stroke="black" points="892.78,-179.53 901.51,-173.53 890.95,-172.78 892.78,-179.53"/>
</g>
<!-- RFC8586 -->
<g id="node13" class="node">
<title>RFC8586</title>
<g id="a_node13"><a xlink:href="RFC8586.html" xlink:title="This document defines the CDN&#45;Loop request header field for HTTP. &#160;CDN&#45;Loop addresses an operational need that occurs when an HTTP request is intentionally forwarded between Content Delivery Networks (CDNs), but is then accidentally or maliciously re&#45;routed back into the original CDN causing a non&#45;terminating loop. &#160;The new header field can be used to identify the error and terminate the loop." target="_top">
<ellipse fill="none" stroke="black" cx="996" cy="-52.33" rx="150.26" ry="52.33"/>
<text xml:space="preserve" text-anchor="middle" x="996" y="-72.03" font-family="Times,serif" font-size="14.00">RFC8586</text>
<text xml:space="preserve" text-anchor="middle" x="996" y="-55.53" font-family="Times,serif" font-size="14.00">Loop Detection in Content Delivery</text>
<text xml:space="preserve" text-anchor="middle" x="996" y="-39.03" font-family="Times,serif" font-size="14.00">Networks (CDNs)</text>
<text xml:space="preserve" text-anchor="middle" x="996" y="-22.53" font-family="Times,serif" font-size="14.00">2019</text>
</a>
</g>
</g>
<!-- cites&#45;&gt;RFC8586 -->
<g id="edge12" class="edge">
<title>cites&#45;&gt;RFC8586</title>
<path fill="none" stroke="black" d="M768.59,-355.06C773.94,-302.09 791.84,-149.82 823.99,-113.33 833.79,-102.21 845.76,-93.11 858.77,-85.68"/>
<polygon fill="black" stroke="black" points="860.36,-88.79 867.56,-81.02 857.08,-82.61 860.36,-88.79"/>
</g>
<!-- rev_cites -->
<g id="node14" class="node">
<title>rev_cites</title>
<polygon fill="lightblue" stroke="black" points="329.43,-391.33 275.43,-391.33 275.43,-355.33 329.43,-355.33 329.43,-391.33"/>
<text xml:space="preserve" text-anchor="middle" x="302.43" y="-368.28" font-family="Times,serif" font-size="14.00">cites</text>
</g>
<!-- rev_cites&#45;&gt;RFC9209 -->
<g id="edge13" class="edge">
<title>rev_cites&#45;&gt;RFC9209</title>
<path fill="none" stroke="black" d="M329.78,-379.52C344.43,-382.96 363.96,-387.56 385.13,-392.53"/>
<polygon fill="black" stroke="black" points="384.33,-395.94 394.87,-394.82 385.93,-389.12 384.33,-395.94"/>
</g>
<!-- RFC9230 -->
<g id="node15" class="node">
<title>RFC9230</title>
<g id="a_node15"><a xlink:href="RFC9230.html" xlink:title="This document describes a protocol that allows clients to hide their IP addresses from DNS resolvers via proxying encrypted DNS over HTTPS (DoH) messages. This improves privacy of DNS operations by not allowing any one server entity to be aware of both the client IP address and the content of DNS queries and answers. This experimental protocol has been developed outside the IETF and is published here to guide implementation, ensure interoperability among implementations, and enable wide&#45;scale experimentation." target="_top">
<ellipse fill="none" stroke="black" cx="122.15" cy="-373.33" rx="122.15" ry="40.66"/>
<text xml:space="preserve" text-anchor="middle" x="122.15" y="-384.78" font-family="Times,serif" font-size="14.00">RFC9230</text>
<text xml:space="preserve" text-anchor="middle" x="122.15" y="-368.28" font-family="Times,serif" font-size="14.00">Oblivious DNS over HTTPS</text>
<text xml:space="preserve" text-anchor="middle" x="122.15" y="-351.78" font-family="Times,serif" font-size="14.00">2022</text>
</a>
</g>
</g>
<!-- RFC9230&#45;&gt;rev_cites -->
<g id="edge14" class="edge">
<title>RFC9230&#45;&gt;rev_cites</title>
<path fill="none" stroke="black" d="M244.53,-373.33C251.19,-373.33 257.58,-373.33 263.51,-373.33"/>
<polygon fill="black" stroke="black" points="263.46,-376.83 273.46,-373.33 263.46,-369.83 263.46,-376.83"/>
</g>
</g>
</svg>
