<?xml version="1.0" encoding="UTF-8" standalone="no"?>
<!DOCTYPE svg PUBLIC "-//W3C//DTD SVG 1.1//EN"
 "http://www.w3.org/Graphics/SVG/1.1/DTD/svg11.dtd">
<!-- Generated by graphviz version 14.1.1 (20251213.1925)
 -->
<!-- Title: Flow Pages: 1 -->
<svg width="1720pt" height="1095pt"
 viewBox="0.00 0.00 1720.00 1095.00" xmlns="http://www.w3.org/2000/svg" xmlns:xlink="http://www.w3.org/1999/xlink">
<g id="graph0" class="graph" transform="scale(1 1) rotate(0) translate(4 1091)">
<title>Flow</title>
<polygon fill="white" stroke="none" points="-4,4 -4,-1091 1715.95,-1091 1715.95,4 -4,4"/>
<!-- RFC9287 -->
<g id="node1" class="node">
<title>RFC9287</title>
<g id="a_node1"><a xlink:title="This document describes a method for negotiating the ability to send an arbitrary value for the second&#45;most significant bit in QUIC packets.">
<ellipse fill="green" stroke="black" stroke-width="3" cx="857.57" cy="-360.78" rx="129.58" ry="50.2"/>
<text xml:space="preserve" text-anchor="middle" x="857.57" y="-375.18" font-family="Times,serif" font-size="18.00">RFC9287</text>
<text xml:space="preserve" text-anchor="middle" x="857.57" y="-354.18" font-family="Times,serif" font-size="18.00">Greasing the QUIC Bit</text>
<text xml:space="preserve" text-anchor="middle" x="857.57" y="-333.18" font-family="Times,serif" font-size="18.00">2022</text>
</a>
</g>
</g>
<!-- obs -->
<g id="node3" class="node">
<title>obs</title>
<polygon fill="lightblue" stroke="black" points="1233.47,-520.77 1167.22,-520.77 1167.22,-484.77 1233.47,-484.77 1233.47,-520.77"/>
<text xml:space="preserve" text-anchor="middle" x="1200.35" y="-497.72" font-family="Times,serif" font-size="14.00">obsoletes</text>
</g>
<!-- RFC9287&#45;&gt;obs -->
<g id="edge2" class="edge">
<title>RFC9287&#45;&gt;obs</title>
<path fill="none" stroke="black" d="M947.63,-398.09C1014.85,-425.93 1103.8,-462.78 1156.27,-484.51"/>
<polygon fill="black" stroke="black" points="1154.91,-487.73 1165.49,-488.33 1157.59,-481.27 1154.91,-487.73"/>
</g>
<!-- updates -->
<g id="node4" class="node">
<title>updates</title>
<polygon fill="lightyellow" stroke="black" points="1028.18,-721.56 970.93,-721.56 970.93,-685.56 1028.18,-685.56 1028.18,-721.56"/>
<text xml:space="preserve" text-anchor="middle" x="999.55" y="-698.51" font-family="Times,serif" font-size="14.00">updates</text>
</g>
<!-- RFC9287&#45;&gt;updates -->
<g id="edge3" class="edge">
<title>RFC9287&#45;&gt;updates</title>
<path fill="none" stroke="black" d="M878.67,-411.73C908.87,-484.64 963.43,-616.35 987.54,-674.56"/>
<polygon fill="black" stroke="black" points="984.3,-675.88 991.36,-683.78 990.76,-673.21 984.3,-675.88"/>
</g>
<!-- cites -->
<g id="node6" class="node">
<title>cites</title>
<polygon fill="lightblue" stroke="black" points="541.78,-520.77 487.78,-520.77 487.78,-484.77 541.78,-484.77 541.78,-520.77"/>
<text xml:space="preserve" text-anchor="middle" x="514.78" y="-497.72" font-family="Times,serif" font-size="14.00">cites</text>
</g>
<!-- RFC9287&#45;&gt;cites -->
<g id="edge5" class="edge">
<title>RFC9287&#45;&gt;cites</title>
<path fill="none" stroke="black" d="M767.5,-398.09C697.65,-427.02 604.33,-465.67 552.87,-486.99"/>
<polygon fill="black" stroke="black" points="551.55,-483.75 543.65,-490.81 554.22,-490.22 551.55,-483.75"/>
</g>
<!-- obs_by -->
<g id="node2" class="node">
<title>obs_by</title>
<polygon fill="lightblue" stroke="black" points="748.71,-36 682.46,-36 682.46,0 748.71,0 748.71,-36"/>
<text xml:space="preserve" text-anchor="middle" x="715.58" y="-12.95" font-family="Times,serif" font-size="14.00">obsoletes</text>
</g>
<!-- obs_by&#45;&gt;RFC9287 -->
<g id="edge1" class="edge">
<title>obs_by&#45;&gt;RFC9287</title>
<path fill="none" stroke="black" d="M723.22,-36.43C743.47,-85.34 799.3,-220.11 832.26,-299.7"/>
<polygon fill="black" stroke="black" points="828.92,-300.77 835.98,-308.67 835.39,-298.09 828.92,-300.77"/>
</g>
<!-- updated_by -->
<g id="node5" class="node">
<title>updated_by</title>
<polygon fill="lightyellow" stroke="black" points="1028.18,-36 970.93,-36 970.93,0 1028.18,0 1028.18,-36"/>
<text xml:space="preserve" text-anchor="middle" x="999.55" y="-12.95" font-family="Times,serif" font-size="14.00">updates</text>
</g>
<!-- updated_by&#45;&gt;RFC9287 -->
<g id="edge4" class="edge">
<title>updated_by&#45;&gt;RFC9287</title>
<path fill="none" stroke="black" d="M991.92,-36.43C971.66,-85.34 915.84,-220.11 882.87,-299.7"/>
<polygon fill="black" stroke="black" points="879.74,-298.09 879.15,-308.67 886.21,-300.77 879.74,-298.09"/>
</g>
<!-- RFC8546 -->
<g id="node7" class="node">
<title>RFC8546</title>
<g id="a_node7"><a xlink:href="RFC8546.html" xlink:title="This document defines the wire image, an abstraction of the information available to an on&#45;path non&#45;participant in a networking protocol. &#160;This abstraction is intended to shed light on the implications that increased encryption has for network functions that use the wire image." target="_top">
<ellipse fill="none" stroke="black" cx="573.6" cy="-1046.34" rx="162.99" ry="40.66"/>
<text xml:space="preserve" text-anchor="middle" x="573.6" y="-1057.79" font-family="Times,serif" font-size="14.00">RFC8546</text>
<text xml:space="preserve" text-anchor="middle" x="573.6" y="-1041.29" font-family="Times,serif" font-size="14.00">The Wire Image of a Network Protocol</text>
<text xml:space="preserve" text-anchor="middle" x="573.6" y="-1024.79" font-family="Times,serif" font-size="14.00">2019</text>
</a>
</g>
</g>
<!-- cites&#45;&gt;RFC8546 -->
<g id="edge6" class="edge">
<title>cites&#45;&gt;RFC8546</title>
<path fill="none" stroke="black" d="M516.78,-521.16C524.83,-595.65 555.21,-876.43 567.94,-994.03"/>
<polygon fill="black" stroke="black" points="564.43,-994.15 568.98,-1003.72 571.39,-993.4 564.43,-994.15"/>
</g>
<!-- RFC2119 -->
<g id="node8" class="node">
<title>RFC2119</title>
<g id="a_node8"><a xlink:href="RFC2119.html" xlink:title="In many standards track documents several words are used to signify the requirements in the specification. &#160;These words are often capitalized. &#160;This document defines these words as they should be interpreted in IETF documents. &#160;This document specifies an Internet Best Current Practices for the Internet Community, and requests discussion and suggestions for improvements." target="_top">
<ellipse fill="none" stroke="black" cx="172" cy="-644.75" rx="160.34" ry="52.33"/>
<text xml:space="preserve" text-anchor="middle" x="172" y="-664.45" font-family="Times,serif" font-size="14.00">RFC2119</text>
<text xml:space="preserve" text-anchor="middle" x="172" y="-647.95" font-family="Times,serif" font-size="14.00">Key words for use in RFCs to Indicate</text>
<text xml:space="preserve" text-anchor="middle" x="172" y="-631.45" font-family="Times,serif" font-size="14.00">Requirement Levels</text>
<text xml:space="preserve" text-anchor="middle" x="172" y="-614.95" font-family="Times,serif" font-size="14.00">1997</text>
</a>
</g>
</g>
<!-- cites&#45;&gt;RFC2119 -->
<g id="edge7" class="edge">
<title>cites&#45;&gt;RFC2119</title>
<path fill="none" stroke="black" d="M487.31,-514.14C443.25,-532.4 354.4,-569.2 282.21,-599.1"/>
<polygon fill="black" stroke="black" points="280.99,-595.82 273.09,-602.88 283.66,-602.29 280.99,-595.82"/>
</g>
<!-- RFC8174 -->
<g id="node9" class="node">
<title>RFC8174</title>
<g id="a_node9"><a xlink:href="RFC8174.html" xlink:title="RFC 2119 specifies common key words that may be used in protocol specifications. &#160;This document aims to reduce the ambiguity by clarifying that only UPPERCASE usage of the key words have the defined special meanings." target="_top">
<ellipse fill="none" stroke="black" cx="172" cy="-76.81" rx="172" ry="52.33"/>
<text xml:space="preserve" text-anchor="middle" x="172" y="-96.51" font-family="Times,serif" font-size="14.00">RFC8174</text>
<text xml:space="preserve" text-anchor="middle" x="172" y="-80.01" font-family="Times,serif" font-size="14.00">Ambiguity of Uppercase vs Lowercase in</text>
<text xml:space="preserve" text-anchor="middle" x="172" y="-63.51" font-family="Times,serif" font-size="14.00">RFC 2119 Key Words</text>
<text xml:space="preserve" text-anchor="middle" x="172" y="-47.01" font-family="Times,serif" font-size="14.00">2017</text>
</a>
</g>
</g>
<!-- cites&#45;&gt;RFC8174 -->
<g id="edge8" class="edge">
<title>cites&#45;&gt;RFC8174</title>
<path fill="none" stroke="black" d="M500.06,-484.46C452.15,-424.93 299.32,-235.02 220.32,-136.85"/>
<polygon fill="black" stroke="black" points="223.08,-134.7 214.09,-129.11 217.63,-139.09 223.08,-134.7"/>
</g>
<!-- rev_cites -->
<g id="node10" class="node">
<title>rev_cites</title>
<polygon fill="lightblue" stroke="black" points="1227.35,-236.8 1173.35,-236.8 1173.35,-200.8 1227.35,-200.8 1227.35,-236.8"/>
<text xml:space="preserve" text-anchor="middle" x="1200.35" y="-213.75" font-family="Times,serif" font-size="14.00">cites</text>
</g>
<!-- rev_cites&#45;&gt;RFC9287 -->
<g id="edge9" class="edge">
<title>rev_cites&#45;&gt;RFC9287</title>
<path fill="none" stroke="black" d="M1172.88,-230.18C1126.82,-249.25 1031.85,-288.59 958.11,-319.13"/>
<polygon fill="black" stroke="black" points="957.16,-315.74 949.26,-322.8 959.83,-322.21 957.16,-315.74"/>
</g>
<!-- RFC9443 -->
<g id="node11" class="node">
<title>RFC9443</title>
<g id="a_node11"><a xlink:href="RFC9443.html" xlink:title="RFC 7983 defines a scheme for a Real&#45;time Transport Protocol (RTP) receiver to demultiplex Datagram Transport Layer Security (DTLS), Session Traversal Utilities for NAT (STUN), Secure Real&#45;time Transport Protocol (SRTP) / Secure Real&#45;time Transport Control Protocol (SRTCP), ZRTP, and Traversal Using Relays around NAT (TURN) channel packets arriving on a single port. &#160;This document updates RFC 7983 and RFC 5764 to also allow QUIC packets to be multiplexed on a single receiving socket." target="_top">
<ellipse fill="none" stroke="black" cx="1543.13" cy="-76.81" rx="168.82" ry="40.66"/>
<text xml:space="preserve" text-anchor="middle" x="1543.13" y="-88.26" font-family="Times,serif" font-size="14.00">RFC9443</text>
<text xml:space="preserve" text-anchor="middle" x="1543.13" y="-71.76" font-family="Times,serif" font-size="14.00">Multiplexing Scheme Updates for QUIC</text>
<text xml:space="preserve" text-anchor="middle" x="1543.13" y="-55.26" font-family="Times,serif" font-size="14.00">2023</text>
</a>
</g>
</g>
<!-- RFC9443&#45;&gt;rev_cites -->
<g id="edge10" class="edge">
<title>RFC9443&#45;&gt;rev_cites</title>
<path fill="none" stroke="black" d="M1457.51,-112.27C1387.16,-141.41 1290.84,-181.31 1238.31,-203.07"/>
<polygon fill="black" stroke="black" points="1237.08,-199.79 1229.19,-206.85 1239.76,-206.26 1237.08,-199.79"/>
</g>
</g>
</svg>
