<?xml version="1.0" encoding="UTF-8" standalone="no"?>
<!DOCTYPE svg PUBLIC "-//W3C//DTD SVG 1.1//EN"
 "http://www.w3.org/Graphics/SVG/1.1/DTD/svg11.dtd">
<!-- Generated by graphviz version 14.1.1 (20251213.1925)
 -->
<!-- Title: Flow Pages: 1 -->
<svg width="1218pt" height="458pt"
 viewBox="0.00 0.00 1218.00 458.00" xmlns="http://www.w3.org/2000/svg" xmlns:xlink="http://www.w3.org/1999/xlink">
<g id="graph0" class="graph" transform="scale(1 1) rotate(0) translate(4 453.98)">
<title>Flow</title>
<polygon fill="white" stroke="none" points="-4,4 -4,-453.98 1214.43,-453.98 1214.43,4 -4,4"/>
<!-- RFC9457 -->
<g id="node1" class="node">
<title>RFC9457</title>
<g id="a_node1"><a xlink:title="This document defines a problem detail to carry machine&#45;readable details of errors in HTTP response content to avoid the need to define new error response formats for HTTP APIs. This document obsoletes RFC 7807.">
<ellipse fill="green" stroke="black" cx="614.76" cy="-353.33" rx="135.41" ry="40.66"/>
<text xml:space="preserve" text-anchor="middle" x="614.76" y="-364.78" font-family="Times,serif" font-size="14.00">RFC9457</text>
<text xml:space="preserve" text-anchor="middle" x="614.76" y="-348.28" font-family="Times,serif" font-size="14.00">Problem Details for HTTP APIs</text>
<text xml:space="preserve" text-anchor="middle" x="614.76" y="-331.78" font-family="Times,serif" font-size="14.00">2023</text>
</a>
</g>
</g>
<!-- obs -->
<g id="node3" class="node">
<title>obs</title>
<polygon fill="lightblue" stroke="black" points="841.42,-426.33 775.17,-426.33 775.17,-390.33 841.42,-390.33 841.42,-426.33"/>
<text xml:space="preserve" text-anchor="middle" x="808.3" y="-403.28" font-family="Times,serif" font-size="14.00">obsoletes</text>
</g>
<!-- RFC9457&#45;&gt;obs -->
<g id="edge2" class="edge">
<title>RFC9457&#45;&gt;obs</title>
<path fill="none" stroke="black" d="M713.77,-381.47C731.38,-386.53 748.88,-391.55 763.9,-395.86"/>
<polygon fill="black" stroke="black" points="762.83,-399.2 773.4,-398.59 764.76,-392.47 762.83,-399.2"/>
</g>
<!-- updates -->
<g id="node5" class="node">
<title>updates</title>
<polygon fill="lightyellow" stroke="black" points="836.92,-371.33 779.67,-371.33 779.67,-335.33 836.92,-335.33 836.92,-371.33"/>
<text xml:space="preserve" text-anchor="middle" x="808.3" y="-348.28" font-family="Times,serif" font-size="14.00">updates</text>
</g>
<!-- RFC9457&#45;&gt;updates -->
<g id="edge4" class="edge">
<title>RFC9457&#45;&gt;updates</title>
<path fill="none" stroke="black" d="M750.61,-353.33C756.71,-353.33 762.57,-353.33 768.03,-353.33"/>
<polygon fill="black" stroke="black" points="767.83,-356.83 777.83,-353.33 767.83,-349.83 767.83,-356.83"/>
</g>
<!-- cites -->
<g id="node7" class="node">
<title>cites</title>
<polygon fill="lightblue" stroke="black" points="835.3,-316.33 781.3,-316.33 781.3,-280.33 835.3,-280.33 835.3,-316.33"/>
<text xml:space="preserve" text-anchor="middle" x="808.3" y="-293.28" font-family="Times,serif" font-size="14.00">cites</text>
</g>
<!-- RFC9457&#45;&gt;cites -->
<g id="edge6" class="edge">
<title>RFC9457&#45;&gt;cites</title>
<path fill="none" stroke="black" d="M713.77,-325.18C733.96,-319.38 754.02,-313.62 770.35,-308.93"/>
<polygon fill="black" stroke="black" points="770.92,-312.41 779.57,-306.29 768.99,-305.68 770.92,-312.41"/>
</g>
<!-- obs_by -->
<g id="node2" class="node">
<title>obs_by</title>
<polygon fill="lightblue" stroke="black" points="454.35,-425.33 388.1,-425.33 388.1,-389.33 454.35,-389.33 454.35,-425.33"/>
<text xml:space="preserve" text-anchor="middle" x="421.22" y="-402.28" font-family="Times,serif" font-size="14.00">obsoletes</text>
</g>
<!-- obs_by&#45;&gt;RFC9457 -->
<g id="edge1" class="edge">
<title>obs_by&#45;&gt;RFC9457</title>
<path fill="none" stroke="black" d="M454.72,-398.17C468.75,-394.21 486.06,-389.33 504.04,-384.26"/>
<polygon fill="black" stroke="black" points="504.86,-387.67 513.53,-381.58 502.96,-380.93 504.86,-387.67"/>
</g>
<!-- RFC7807 -->
<g id="node4" class="node">
<title>RFC7807</title>
<g id="a_node4"><a xlink:href="RFC7807.html" xlink:title="This document defines a problem detail as a way to carry machine&#45; readable details of errors in a HTTP response to avoid the need to define new error response formats for HTTP APIs." target="_top">
<ellipse fill="none" stroke="black" cx="1038.42" cy="-409.33" rx="135.41" ry="40.66"/>
<text xml:space="preserve" text-anchor="middle" x="1038.42" y="-420.78" font-family="Times,serif" font-size="14.00">RFC7807</text>
<text xml:space="preserve" text-anchor="middle" x="1038.42" y="-404.28" font-family="Times,serif" font-size="14.00">Problem Details for HTTP APIs</text>
<text xml:space="preserve" text-anchor="middle" x="1038.42" y="-387.78" font-family="Times,serif" font-size="14.00">2016</text>
</a>
</g>
</g>
<!-- obs&#45;&gt;RFC7807 -->
<g id="edge3" class="edge">
<title>obs&#45;&gt;RFC7807</title>
<path fill="none" stroke="black" d="M841.5,-408.47C855.4,-408.53 872.72,-408.6 891.28,-408.69"/>
<polygon fill="black" stroke="black" points="891.12,-412.18 901.14,-408.73 891.15,-405.18 891.12,-412.18"/>
</g>
<!-- updated_by -->
<g id="node6" class="node">
<title>updated_by</title>
<polygon fill="lightyellow" stroke="black" points="449.85,-371.33 392.6,-371.33 392.6,-335.33 449.85,-335.33 449.85,-371.33"/>
<text xml:space="preserve" text-anchor="middle" x="421.22" y="-348.28" font-family="Times,serif" font-size="14.00">updates</text>
</g>
<!-- updated_by&#45;&gt;RFC9457 -->
<g id="edge5" class="edge">
<title>updated_by&#45;&gt;RFC9457</title>
<path fill="none" stroke="black" d="M450.08,-353.33C455.46,-353.33 461.43,-353.33 467.82,-353.33"/>
<polygon fill="black" stroke="black" points="467.42,-356.83 477.42,-353.33 467.42,-349.83 467.42,-356.83"/>
</g>
<!-- cites&#45;&gt;RFC7807 -->
<g id="edge7" class="edge">
<title>cites&#45;&gt;RFC7807</title>
<path fill="none" stroke="black" d="M831.63,-316.73C835.02,-319.82 838.39,-323.08 841.42,-326.33 853.98,-339.78 851.27,-348.88 866.42,-359.33 880.76,-369.21 897.07,-377.17 913.78,-383.56"/>
<polygon fill="black" stroke="black" points="912.21,-386.72 922.8,-386.83 914.59,-380.13 912.21,-386.72"/>
</g>
<!-- RFC2119 -->
<g id="node8" class="node">
<title>RFC2119</title>
<g id="a_node8"><a xlink:href="RFC2119.html" xlink:title="In many standards track documents several words are used to signify the requirements in the specification. &#160;These words are often capitalized. &#160;This document defines these words as they should be interpreted in IETF documents. &#160;This document specifies an Internet Best Current Practices for the Internet Community, and requests discussion and suggestions for improvements." target="_top">
<ellipse fill="none" stroke="black" cx="1038.42" cy="-298.33" rx="160.34" ry="52.33"/>
<text xml:space="preserve" text-anchor="middle" x="1038.42" y="-318.03" font-family="Times,serif" font-size="14.00">RFC2119</text>
<text xml:space="preserve" text-anchor="middle" x="1038.42" y="-301.53" font-family="Times,serif" font-size="14.00">Key words for use in RFCs to Indicate</text>
<text xml:space="preserve" text-anchor="middle" x="1038.42" y="-285.03" font-family="Times,serif" font-size="14.00">Requirement Levels</text>
<text xml:space="preserve" text-anchor="middle" x="1038.42" y="-268.53" font-family="Times,serif" font-size="14.00">1997</text>
</a>
</g>
</g>
<!-- cites&#45;&gt;RFC2119 -->
<g id="edge8" class="edge">
<title>cites&#45;&gt;RFC2119</title>
<path fill="none" stroke="black" d="M835.47,-298.33C844.25,-298.33 854.79,-298.33 866.39,-298.33"/>
<polygon fill="black" stroke="black" points="866.3,-301.83 876.3,-298.33 866.3,-294.83 866.3,-301.83"/>
</g>
<!-- RFC8174 -->
<g id="node9" class="node">
<title>RFC8174</title>
<g id="a_node9"><a xlink:href="RFC8174.html" xlink:title="RFC 2119 specifies common key words that may be used in protocol specifications. &#160;This document aims to reduce the ambiguity by clarifying that only UPPERCASE usage of the key words have the defined special meanings." target="_top">
<ellipse fill="none" stroke="black" cx="1038.42" cy="-175.33" rx="172" ry="52.33"/>
<text xml:space="preserve" text-anchor="middle" x="1038.42" y="-195.03" font-family="Times,serif" font-size="14.00">RFC8174</text>
<text xml:space="preserve" text-anchor="middle" x="1038.42" y="-178.53" font-family="Times,serif" font-size="14.00">Ambiguity of Uppercase vs Lowercase in</text>
<text xml:space="preserve" text-anchor="middle" x="1038.42" y="-162.03" font-family="Times,serif" font-size="14.00">RFC 2119 Key Words</text>
<text xml:space="preserve" text-anchor="middle" x="1038.42" y="-145.53" font-family="Times,serif" font-size="14.00">2017</text>
</a>
</g>
</g>
<!-- cites&#45;&gt;RFC8174 -->
<g id="edge9" class="edge">
<title>cites&#45;&gt;RFC8174</title>
<path fill="none" stroke="black" d="M822.74,-279.84C833.31,-266.44 849.1,-248.75 866.42,-237.33 878.19,-229.57 891.04,-222.63 904.26,-216.46"/>
<polygon fill="black" stroke="black" points="905.35,-219.81 913.04,-212.52 902.49,-213.42 905.35,-219.81"/>
</g>
<!-- RFC8126 -->
<g id="node10" class="node">
<title>RFC8126</title>
<g id="a_node10"><a xlink:href="RFC8126.html" xlink:title="Many protocols make use of points of extensibility that use constants to identify various protocol parameters. To ensure that the values in these fields do not have conflicting uses and to promote interoperability, their allocations are often coordinated by a central record keeper. For IETF protocols, that role is filled by the Internet Assigned Numbers Authority (IANA). To make assignments in a given registry prudently, guidance describing the conditions under which new values should be assigned, as well as when and how modifications to existing values can be made, is needed. This document defines a framework for the documentation of these guidelines by specification authors, in order to assure that the provided guidance for the IANA Considerations is clear and addresses the various issues that are likely in the operation of a registry. This is the third edition of this document; it obsoletes RFC 5226." target="_top">
<ellipse fill="none" stroke="black" cx="1038.42" cy="-52.33" rx="136.47" ry="52.33"/>
<text xml:space="preserve" text-anchor="middle" x="1038.42" y="-72.03" font-family="Times,serif" font-size="14.00">RFC8126</text>
<text xml:space="preserve" text-anchor="middle" x="1038.42" y="-55.53" font-family="Times,serif" font-size="14.00">Guidelines for Writing an IANA</text>
<text xml:space="preserve" text-anchor="middle" x="1038.42" y="-39.03" font-family="Times,serif" font-size="14.00">Considerations Section in RFCs</text>
<text xml:space="preserve" text-anchor="middle" x="1038.42" y="-22.53" font-family="Times,serif" font-size="14.00">2017</text>
</a>
</g>
</g>
<!-- cites&#45;&gt;RFC8126 -->
<g id="edge10" class="edge">
<title>cites&#45;&gt;RFC8126</title>
<path fill="none" stroke="black" d="M809.81,-280C811.82,-243.57 821.39,-161.51 866.42,-114.33 878.61,-101.56 893.63,-91.41 909.66,-83.34"/>
<polygon fill="black" stroke="black" points="910.83,-86.66 918.38,-79.23 907.85,-80.33 910.83,-86.66"/>
</g>
<!-- rev_cites -->
<g id="node11" class="node">
<title>rev_cites</title>
<polygon fill="lightblue" stroke="black" points="448.22,-317.33 394.22,-317.33 394.22,-281.33 448.22,-281.33 448.22,-317.33"/>
<text xml:space="preserve" text-anchor="middle" x="421.22" y="-294.28" font-family="Times,serif" font-size="14.00">cites</text>
</g>
<!-- rev_cites&#45;&gt;RFC9457 -->
<g id="edge11" class="edge">
<title>rev_cites&#45;&gt;RFC9457</title>
<path fill="none" stroke="black" d="M448.45,-306.72C463.46,-310.95 483.41,-316.58 504.25,-322.45"/>
<polygon fill="black" stroke="black" points="503.17,-325.78 513.74,-325.13 505.07,-319.05 503.17,-325.78"/>
</g>
<!-- RFC9421 -->
<g id="node12" class="node">
<title>RFC9421</title>
<g id="a_node12"><a xlink:href="RFC9421.html" xlink:title="This document describes a mechanism for creating, encoding, and verifying digital signatures or message authentication codes over components of an HTTP message. &#160;This mechanism supports use cases where the full HTTP message may not be known to the signer and where the message may be transformed (e.g., by intermediaries) before reaching the verifier. &#160;This document also describes a means for requesting that a signature be applied to a subsequent HTTP message in an ongoing HTTP exchange." target="_top">
<ellipse fill="none" stroke="black" cx="181.55" cy="-398.33" rx="114.2" ry="40.66"/>
<text xml:space="preserve" text-anchor="middle" x="181.55" y="-409.78" font-family="Times,serif" font-size="14.00">RFC9421</text>
<text xml:space="preserve" text-anchor="middle" x="181.55" y="-393.28" font-family="Times,serif" font-size="14.00">HTTP Message Signatures</text>
<text xml:space="preserve" text-anchor="middle" x="181.55" y="-376.78" font-family="Times,serif" font-size="14.00">2024</text>
</a>
</g>
</g>
<!-- RFC9421&#45;&gt;rev_cites -->
<g id="edge12" class="edge">
<title>RFC9421&#45;&gt;rev_cites</title>
<path fill="none" stroke="black" d="M283.78,-379.93C310.58,-372.67 338.79,-362.75 363.1,-349.33 376.32,-342.03 376.76,-336.3 388.1,-326.33 388.5,-325.98 388.9,-325.63 389.3,-325.27"/>
<polygon fill="black" stroke="black" points="391.55,-327.95 396.85,-318.78 386.98,-322.65 391.55,-327.95"/>
</g>
<!-- RFC9530 -->
<g id="node13" class="node">
<title>RFC9530</title>
<g id="a_node13"><a xlink:href="RFC9530.html" xlink:title="This document defines HTTP fields that support integrity digests. The Content&#45;Digest field can be used for the integrity of HTTP message content. The Repr&#45;Digest field can be used for the integrity of HTTP representations. Want&#45;Content&#45;Digest and Want&#45;Repr&#45;Digest can be used to indicate a sender&#39;s interest and preferences for receiving the respective Integrity fields. This document obsoletes RFC 3230 and the Digest and Want&#45;Digest HTTP fields." target="_top">
<ellipse fill="none" stroke="black" cx="181.55" cy="-299.33" rx="62.23" ry="40.66"/>
<text xml:space="preserve" text-anchor="middle" x="181.55" y="-310.78" font-family="Times,serif" font-size="14.00">RFC9530</text>
<text xml:space="preserve" text-anchor="middle" x="181.55" y="-294.28" font-family="Times,serif" font-size="14.00">Digest Fields</text>
<text xml:space="preserve" text-anchor="middle" x="181.55" y="-277.78" font-family="Times,serif" font-size="14.00">2024</text>
</a>
</g>
</g>
<!-- RFC9530&#45;&gt;rev_cites -->
<g id="edge13" class="edge">
<title>RFC9530&#45;&gt;rev_cites</title>
<path fill="none" stroke="black" d="M244.07,-299.33C287.88,-299.33 345.36,-299.33 382.54,-299.33"/>
<polygon fill="black" stroke="black" points="382.34,-302.83 392.34,-299.33 382.34,-295.83 382.34,-302.83"/>
</g>
<!-- RFC9725 -->
<g id="node14" class="node">
<title>RFC9725</title>
<g id="a_node14"><a xlink:href="RFC9725.html" xlink:title="This document describes a simple HTTP&#45;based protocol that will allow WebRTC&#45;based ingestion of content into streaming services and/or Content Delivery Networks (CDNs). This document updates RFCs 8840 and 8842." target="_top">
<ellipse fill="none" stroke="black" cx="181.55" cy="-200.33" rx="181.55" ry="40.66"/>
<text xml:space="preserve" text-anchor="middle" x="181.55" y="-211.78" font-family="Times,serif" font-size="14.00">RFC9725</text>
<text xml:space="preserve" text-anchor="middle" x="181.55" y="-195.28" font-family="Times,serif" font-size="14.00">WebRTC&#45;HTTP Ingestion Protocol (WHIP)</text>
<text xml:space="preserve" text-anchor="middle" x="181.55" y="-178.78" font-family="Times,serif" font-size="14.00">2025</text>
</a>
</g>
</g>
<!-- RFC9725&#45;&gt;rev_cites -->
<g id="edge14" class="edge">
<title>RFC9725&#45;&gt;rev_cites</title>
<path fill="none" stroke="black" d="M313.99,-228.39C330.98,-234.2 347.78,-241.12 363.1,-249.33 374.84,-255.62 386.21,-264.73 395.68,-273.46"/>
<polygon fill="black" stroke="black" points="393.07,-275.81 402.7,-280.23 397.93,-270.77 393.07,-275.81"/>
</g>
</g>
</svg>
