<?xml version="1.0" encoding="UTF-8" standalone="no"?>
<!DOCTYPE svg PUBLIC "-//W3C//DTD SVG 1.1//EN"
 "http://www.w3.org/Graphics/SVG/1.1/DTD/svg11.dtd">
<!-- Generated by graphviz version 14.1.1 (20251213.1925)
 -->
<!-- Title: Flow Pages: 1 -->
<svg width="1431pt" height="1657pt"
 viewBox="0.00 0.00 1431.00 1657.00" xmlns="http://www.w3.org/2000/svg" xmlns:xlink="http://www.w3.org/1999/xlink">
<g id="graph0" class="graph" transform="scale(1 1) rotate(0) translate(4 1653.11)">
<title>Flow</title>
<polygon fill="white" stroke="none" points="-4,4 -4,-1653.11 1427.09,-1653.11 1427.09,4 -4,4"/>
<!-- RFC9585 -->
<g id="node1" class="node">
<title>RFC9585</title>
<g id="a_node1"><a xlink:title="This document defines a new IMAP untagged response code, INPROGRESS, that provides progress notifications regarding the status of long&#45;running commands.">
<ellipse fill="green" stroke="black" stroke-width="3" cx="983.97" cy="-743.03" rx="246.25" ry="65.05"/>
<text xml:space="preserve" text-anchor="middle" x="983.97" y="-767.93" font-family="Times,serif" font-size="18.00">RFC9585</text>
<text xml:space="preserve" text-anchor="middle" x="983.97" y="-746.93" font-family="Times,serif" font-size="18.00">IMAP Response Code for Command Progress</text>
<text xml:space="preserve" text-anchor="middle" x="983.97" y="-725.93" font-family="Times,serif" font-size="18.00">Notifications</text>
<text xml:space="preserve" text-anchor="middle" x="983.97" y="-704.93" font-family="Times,serif" font-size="18.00">2024</text>
</a>
</g>
</g>
<!-- obs -->
<g id="node3" class="node">
<title>obs</title>
<polygon fill="lightblue" stroke="black" points="1423.09,-892.94 1356.84,-892.94 1356.84,-856.94 1423.09,-856.94 1423.09,-892.94"/>
<text xml:space="preserve" text-anchor="middle" x="1389.96" y="-869.89" font-family="Times,serif" font-size="14.00">obsoletes</text>
</g>
<!-- RFC9585&#45;&gt;obs -->
<g id="edge2" class="edge">
<title>RFC9585&#45;&gt;obs</title>
<path fill="none" stroke="black" d="M1141.81,-794.31C1215.18,-818.15 1296.84,-844.68 1345.76,-860.58"/>
<polygon fill="black" stroke="black" points="1344.55,-863.87 1355.14,-863.63 1346.71,-857.21 1344.55,-863.87"/>
</g>
<!-- updates -->
<g id="node4" class="node">
<title>updates</title>
<polygon fill="lightyellow" stroke="black" points="1263.51,-1106.38 1206.26,-1106.38 1206.26,-1070.38 1263.51,-1070.38 1263.51,-1106.38"/>
<text xml:space="preserve" text-anchor="middle" x="1234.89" y="-1083.33" font-family="Times,serif" font-size="14.00">updates</text>
</g>
<!-- RFC9585&#45;&gt;updates -->
<g id="edge3" class="edge">
<title>RFC9585&#45;&gt;updates</title>
<path fill="none" stroke="black" d="M1031.17,-807.99C1086.48,-884.11 1175.57,-1006.74 1215.01,-1061.02"/>
<polygon fill="black" stroke="black" points="1211.96,-1062.78 1220.67,-1068.81 1217.62,-1058.67 1211.96,-1062.78"/>
</g>
<!-- cites -->
<g id="node6" class="node">
<title>cites</title>
<polygon fill="lightblue" stroke="black" points="604.99,-892.94 550.99,-892.94 550.99,-856.94 604.99,-856.94 604.99,-892.94"/>
<text xml:space="preserve" text-anchor="middle" x="577.99" y="-869.89" font-family="Times,serif" font-size="14.00">cites</text>
</g>
<!-- RFC9585&#45;&gt;cites -->
<g id="edge5" class="edge">
<title>RFC9585&#45;&gt;cites</title>
<path fill="none" stroke="black" d="M826.14,-794.31C749.63,-819.17 664.1,-846.96 616.08,-862.57"/>
<polygon fill="black" stroke="black" points="615.15,-859.19 606.72,-865.61 617.31,-865.85 615.15,-859.19"/>
</g>
<!-- obs_by -->
<g id="node2" class="node">
<title>obs_by</title>
<polygon fill="lightblue" stroke="black" points="1017.1,-334.15 950.85,-334.15 950.85,-298.15 1017.1,-298.15 1017.1,-334.15"/>
<text xml:space="preserve" text-anchor="middle" x="983.97" y="-311.1" font-family="Times,serif" font-size="14.00">obsoletes</text>
</g>
<!-- obs_by&#45;&gt;RFC9585 -->
<g id="edge1" class="edge">
<title>obs_by&#45;&gt;RFC9585</title>
<path fill="none" stroke="black" d="M983.97,-334.49C983.97,-390.73 983.97,-563.11 983.97,-665.1"/>
<polygon fill="black" stroke="black" points="980.47,-665.05 983.97,-675.05 987.47,-665.05 980.47,-665.05"/>
</g>
<!-- updated_by -->
<g id="node5" class="node">
<title>updated_by</title>
<polygon fill="lightyellow" stroke="black" points="1263.51,-415.68 1206.26,-415.68 1206.26,-379.68 1263.51,-379.68 1263.51,-415.68"/>
<text xml:space="preserve" text-anchor="middle" x="1234.89" y="-392.63" font-family="Times,serif" font-size="14.00">updates</text>
</g>
<!-- updated_by&#45;&gt;RFC9585 -->
<g id="edge4" class="edge">
<title>updated_by&#45;&gt;RFC9585</title>
<path fill="none" stroke="black" d="M1221.75,-415.76C1188.06,-462.13 1097.08,-587.35 1037.93,-668.76"/>
<polygon fill="black" stroke="black" points="1035.18,-666.6 1032.13,-676.75 1040.84,-670.72 1035.18,-666.6"/>
</g>
<!-- RFC9051 -->
<g id="node7" class="node">
<title>RFC9051</title>
<g id="a_node7"><a xlink:href="RFC9051.html" xlink:title="The Internet Message Access Protocol Version 4rev2 (IMAP4rev2) allows a client to access and manipulate electronic mail messages on a server. IMAP4rev2 permits manipulation of mailboxes (remote message folders) in a way that is functionally equivalent to local folders. IMAP4rev2 also provides the capability for an offline client to resynchronize with the server. IMAP4rev2 includes operations for creating, deleting, and renaming mailboxes; checking for new messages; removing messages permanently; setting and clearing flags; parsing per RFCs 5322, 2045, and 2231; searching; and selective fetching of message attributes, texts, and portions thereof. Messages in IMAP4rev2 are accessed by the use of numbers. These numbers are either message sequence numbers or unique identifiers. IMAP4rev2 does not specify a means of posting mail; this function is handled by a mail submission protocol such as the one specified in RFC 6409." target="_top">
<ellipse fill="none" stroke="black" cx="983.97" cy="-1596.79" rx="175.19" ry="52.33"/>
<text xml:space="preserve" text-anchor="middle" x="983.97" y="-1616.49" font-family="Times,serif" font-size="14.00">RFC9051</text>
<text xml:space="preserve" text-anchor="middle" x="983.97" y="-1599.99" font-family="Times,serif" font-size="14.00">Internet Message Access Protocol (IMAP)</text>
<text xml:space="preserve" text-anchor="middle" x="983.97" y="-1583.49" font-family="Times,serif" font-size="14.00">&#45; Version 4rev2</text>
<text xml:space="preserve" text-anchor="middle" x="983.97" y="-1566.99" font-family="Times,serif" font-size="14.00">2021</text>
</a>
</g>
</g>
<!-- cites&#45;&gt;RFC9051 -->
<g id="edge6" class="edge">
<title>cites&#45;&gt;RFC9051</title>
<path fill="none" stroke="black" d="M588.23,-893.15C638.73,-982.95 862.38,-1380.59 949.28,-1535.1"/>
<polygon fill="black" stroke="black" points="946.11,-1536.6 954.06,-1543.6 952.21,-1533.16 946.11,-1536.6"/>
</g>
<!-- RFC5530 -->
<g id="node8" class="node">
<title>RFC5530</title>
<g id="a_node8"><a xlink:href="RFC5530.html" xlink:title="IMAP responses consist of a response type (OK, NO, BAD), an optional machine&#45;readable response code, and a human&#45;readable text. This document collects and documents a variety of machine&#45;readable response codes, for better interoperation and error reporting. [STANDARDS&#45;TRACK]" target="_top">
<ellipse fill="none" stroke="black" cx="482.15" cy="-1433.73" rx="100.94" ry="40.66"/>
<text xml:space="preserve" text-anchor="middle" x="482.15" y="-1445.18" font-family="Times,serif" font-size="14.00">RFC5530</text>
<text xml:space="preserve" text-anchor="middle" x="482.15" y="-1428.68" font-family="Times,serif" font-size="14.00">IMAP Response Codes</text>
<text xml:space="preserve" text-anchor="middle" x="482.15" y="-1412.18" font-family="Times,serif" font-size="14.00">2009</text>
</a>
</g>
</g>
<!-- cites&#45;&gt;RFC5530 -->
<g id="edge7" class="edge">
<title>cites&#45;&gt;RFC5530</title>
<path fill="none" stroke="black" d="M574.85,-893.22C561.82,-969.2 511.64,-1261.77 491.05,-1381.85"/>
<polygon fill="black" stroke="black" points="487.65,-1380.97 489.41,-1391.42 494.55,-1382.16 487.65,-1380.97"/>
</g>
<!-- RFC2119 -->
<g id="node9" class="node">
<title>RFC2119</title>
<g id="a_node9"><a xlink:href="RFC2119.html" xlink:title="In many standards track documents several words are used to signify the requirements in the specification. &#160;These words are often capitalized. &#160;This document defines these words as they should be interpreted in IETF documents. &#160;This document specifies an Internet Best Current Practices for the Internet Community, and requests discussion and suggestions for improvements." target="_top">
<ellipse fill="none" stroke="black" cx="172" cy="-1006.86" rx="160.34" ry="52.33"/>
<text xml:space="preserve" text-anchor="middle" x="172" y="-1026.56" font-family="Times,serif" font-size="14.00">RFC2119</text>
<text xml:space="preserve" text-anchor="middle" x="172" y="-1010.06" font-family="Times,serif" font-size="14.00">Key words for use in RFCs to Indicate</text>
<text xml:space="preserve" text-anchor="middle" x="172" y="-993.56" font-family="Times,serif" font-size="14.00">Requirement Levels</text>
<text xml:space="preserve" text-anchor="middle" x="172" y="-977.06" font-family="Times,serif" font-size="14.00">1997</text>
</a>
</g>
</g>
<!-- cites&#45;&gt;RFC2119 -->
<g id="edge8" class="edge">
<title>cites&#45;&gt;RFC2119</title>
<path fill="none" stroke="black" d="M550.72,-883.8C499.55,-900.43 386.25,-937.24 296.83,-966.3"/>
<polygon fill="black" stroke="black" points="295.91,-962.91 287.49,-969.33 298.08,-969.57 295.91,-962.91"/>
</g>
<!-- RFC8174 -->
<g id="node10" class="node">
<title>RFC8174</title>
<g id="a_node10"><a xlink:href="RFC8174.html" xlink:title="RFC 2119 specifies common key words that may be used in protocol specifications. &#160;This document aims to reduce the ambiguity by clarifying that only UPPERCASE usage of the key words have the defined special meanings." target="_top">
<ellipse fill="none" stroke="black" cx="172" cy="-479.2" rx="172" ry="52.33"/>
<text xml:space="preserve" text-anchor="middle" x="172" y="-498.9" font-family="Times,serif" font-size="14.00">RFC8174</text>
<text xml:space="preserve" text-anchor="middle" x="172" y="-482.4" font-family="Times,serif" font-size="14.00">Ambiguity of Uppercase vs Lowercase in</text>
<text xml:space="preserve" text-anchor="middle" x="172" y="-465.9" font-family="Times,serif" font-size="14.00">RFC 2119 Key Words</text>
<text xml:space="preserve" text-anchor="middle" x="172" y="-449.4" font-family="Times,serif" font-size="14.00">2017</text>
</a>
</g>
</g>
<!-- cites&#45;&gt;RFC8174 -->
<g id="edge9" class="edge">
<title>cites&#45;&gt;RFC8174</title>
<path fill="none" stroke="black" d="M559.22,-856.65C501.55,-800.43 325.15,-628.49 231.64,-537.34"/>
<polygon fill="black" stroke="black" points="234.1,-534.84 224.49,-530.37 229.21,-539.86 234.1,-534.84"/>
</g>
<!-- RFC5234 -->
<g id="node11" class="node">
<title>RFC5234</title>
<g id="a_node11"><a xlink:href="RFC5234.html" xlink:title="Internet technical specifications often need to define a formal syntax. &#160;Over the years, a modified version of Backus&#45;Naur Form (BNF), called Augmented BNF (ABNF), has been popular among many Internet specifications. &#160;The current specification documents ABNF. &#160;It balances compactness and simplicity with reasonable representational power. &#160;The differences between standard BNF and ABNF involve naming rules, repetition, alternatives, order&#45;independence, and value ranges. &#160;This specification also supplies additional rule definitions and encoding for a core lexical analyzer of the type common to several Internet specifications. [STANDARDS&#45;TRACK]" target="_top">
<ellipse fill="none" stroke="black" cx="482.15" cy="-52.33" rx="179.96" ry="52.33"/>
<text xml:space="preserve" text-anchor="middle" x="482.15" y="-72.03" font-family="Times,serif" font-size="14.00">RFC5234</text>
<text xml:space="preserve" text-anchor="middle" x="482.15" y="-55.53" font-family="Times,serif" font-size="14.00">Augmented BNF for Syntax Specifications:</text>
<text xml:space="preserve" text-anchor="middle" x="482.15" y="-39.03" font-family="Times,serif" font-size="14.00">ABNF</text>
<text xml:space="preserve" text-anchor="middle" x="482.15" y="-22.53" font-family="Times,serif" font-size="14.00">2008</text>
</a>
</g>
</g>
<!-- cites&#45;&gt;RFC5234 -->
<g id="edge10" class="edge">
<title>cites&#45;&gt;RFC5234</title>
<path fill="none" stroke="black" d="M575.85,-856.61C564.37,-758.01 509.71,-288.89 489.6,-116.26"/>
<polygon fill="black" stroke="black" points="493.11,-116.12 488.47,-106.59 486.15,-116.93 493.11,-116.12"/>
</g>
<!-- rev_cites -->
<g id="node12" class="node">
<title>rev_cites</title>
<polygon fill="lightblue" stroke="black" points="1416.96,-629.12 1362.96,-629.12 1362.96,-593.12 1416.96,-593.12 1416.96,-629.12"/>
<text xml:space="preserve" text-anchor="middle" x="1389.96" y="-606.07" font-family="Times,serif" font-size="14.00">cites</text>
</g>
<!-- rev_cites&#45;&gt;RFC9585 -->
<g id="edge11" class="edge">
<title>rev_cites&#45;&gt;RFC9585</title>
<path fill="none" stroke="black" d="M1362.69,-619.98C1319.56,-633.99 1232.27,-662.35 1152.36,-688.32"/>
<polygon fill="black" stroke="black" points="1151.51,-684.91 1143.08,-691.33 1153.67,-691.57 1151.51,-684.91"/>
</g>
</g>
</svg>
