<?xml version="1.0" encoding="UTF-8" standalone="no"?>
<!DOCTYPE svg PUBLIC "-//W3C//DTD SVG 1.1//EN"
 "http://www.w3.org/Graphics/SVG/1.1/DTD/svg11.dtd">
<!-- Generated by graphviz version 14.1.1 (20251213.1925)
 -->
<!-- Title: Flow Pages: 1 -->
<svg width="1447pt" height="1685pt"
 viewBox="0.00 0.00 1447.00 1685.00" xmlns="http://www.w3.org/2000/svg" xmlns:xlink="http://www.w3.org/1999/xlink">
<g id="graph0" class="graph" transform="scale(1 1) rotate(0) translate(4 1680.61)">
<title>Flow</title>
<polygon fill="white" stroke="none" points="-4,4 -4,-1680.61 1442.83,-1680.61 1442.83,4 -4,4"/>
<!-- RFC9080 -->
<g id="node1" class="node">
<title>RFC9080</title>
<g id="a_node1"><a xlink:title="This document defines the exact subset of the Babel routing protocol and its extensions that is required by an implementation of the Homenet protocol suite, as well as the interactions between the Home Networking Control Protocol (HNCP) and Babel.">
<ellipse fill="green" stroke="black" stroke-width="3" cx="1005.73" cy="-810.71" rx="207.54" ry="65.05"/>
<text xml:space="preserve" text-anchor="middle" x="1005.73" y="-835.61" font-family="Times,serif" font-size="18.00">RFC9080</text>
<text xml:space="preserve" text-anchor="middle" x="1005.73" y="-814.61" font-family="Times,serif" font-size="18.00">Homenet Profile of the Babel Routing</text>
<text xml:space="preserve" text-anchor="middle" x="1005.73" y="-793.61" font-family="Times,serif" font-size="18.00">Protocol</text>
<text xml:space="preserve" text-anchor="middle" x="1005.73" y="-772.61" font-family="Times,serif" font-size="18.00">2021</text>
</a>
</g>
</g>
<!-- obs -->
<g id="node3" class="node">
<title>obs</title>
<polygon fill="lightblue" stroke="black" points="1438.83,-946.15 1372.58,-946.15 1372.58,-910.15 1438.83,-910.15 1438.83,-946.15"/>
<text xml:space="preserve" text-anchor="middle" x="1405.71" y="-923.1" font-family="Times,serif" font-size="14.00">obsoletes</text>
</g>
<!-- RFC9080&#45;&gt;obs -->
<g id="edge2" class="edge">
<title>RFC9080&#45;&gt;obs</title>
<path fill="none" stroke="black" d="M1159.23,-855.78C1231.78,-877.08 1312.98,-900.93 1361.68,-915.23"/>
<polygon fill="black" stroke="black" points="1360.42,-918.5 1371,-917.96 1362.39,-911.79 1360.42,-918.5"/>
</g>
<!-- updates -->
<g id="node4" class="node">
<title>updates</title>
<polygon fill="lightyellow" stroke="black" points="1307.34,-1143.75 1250.09,-1143.75 1250.09,-1107.75 1307.34,-1107.75 1307.34,-1143.75"/>
<text xml:space="preserve" text-anchor="middle" x="1278.72" y="-1120.7" font-family="Times,serif" font-size="14.00">updates</text>
</g>
<!-- RFC9080&#45;&gt;updates -->
<g id="edge3" class="edge">
<title>RFC9080&#45;&gt;updates</title>
<path fill="none" stroke="black" d="M1061.3,-874.84C1120.88,-943.61 1212.67,-1049.53 1255.37,-1098.81"/>
<polygon fill="black" stroke="black" points="1252.57,-1100.92 1261.76,-1106.19 1257.86,-1096.34 1252.57,-1100.92"/>
</g>
<!-- cites -->
<g id="node6" class="node">
<title>cites</title>
<polygon fill="lightblue" stroke="black" points="632.75,-946.15 578.75,-946.15 578.75,-910.15 632.75,-910.15 632.75,-946.15"/>
<text xml:space="preserve" text-anchor="middle" x="605.75" y="-923.1" font-family="Times,serif" font-size="14.00">cites</text>
</g>
<!-- RFC9080&#45;&gt;cites -->
<g id="edge5" class="edge">
<title>RFC9080&#45;&gt;cites</title>
<path fill="none" stroke="black" d="M852.23,-855.78C776.56,-878 691.5,-902.98 643.69,-917.01"/>
<polygon fill="black" stroke="black" points="643,-913.57 634.39,-919.74 644.97,-920.28 643,-913.57"/>
</g>
<!-- obs_by -->
<g id="node2" class="node">
<title>obs_by</title>
<polygon fill="lightblue" stroke="black" points="1098.18,-416.09 1031.93,-416.09 1031.93,-380.09 1098.18,-380.09 1098.18,-416.09"/>
<text xml:space="preserve" text-anchor="middle" x="1065.05" y="-393.04" font-family="Times,serif" font-size="14.00">obsoletes</text>
</g>
<!-- obs_by&#45;&gt;RFC9080 -->
<g id="edge1" class="edge">
<title>obs_by&#45;&gt;RFC9080</title>
<path fill="none" stroke="black" d="M1062.43,-416.35C1054.6,-470.81 1031.08,-634.4 1016.91,-732.95"/>
<polygon fill="black" stroke="black" points="1013.45,-732.44 1015.49,-742.84 1020.37,-733.44 1013.45,-732.44"/>
</g>
<!-- updated_by -->
<g id="node5" class="node">
<title>updated_by</title>
<polygon fill="lightyellow" stroke="black" points="1307.34,-513.67 1250.09,-513.67 1250.09,-477.67 1307.34,-477.67 1307.34,-513.67"/>
<text xml:space="preserve" text-anchor="middle" x="1278.72" y="-490.62" font-family="Times,serif" font-size="14.00">updates</text>
</g>
<!-- updated_by&#45;&gt;RFC9080 -->
<g id="edge4" class="edge">
<title>updated_by&#45;&gt;RFC9080</title>
<path fill="none" stroke="black" d="M1262.86,-513.96C1225.82,-556.71 1131.98,-665.01 1068.51,-738.26"/>
<polygon fill="black" stroke="black" points="1066.2,-735.57 1062.3,-745.42 1071.49,-740.16 1066.2,-735.57"/>
</g>
<!-- RFC7788 -->
<g id="node7" class="node">
<title>RFC7788</title>
<g id="a_node7"><a xlink:href="RFC7788.html" xlink:title="This document describes the Home Networking Control Protocol (HNCP), an extensible configuration protocol, and a set of requirements for home network devices. &#160;HNCP is described as a profile of and extension to the Distributed Node Consensus Protocol (DNCP). &#160;HNCP enables discovery of network borders, automated configuration of addresses, name resolution, service discovery, and the use of any routing protocol that supports routing based on both the source and destination address." target="_top">
<ellipse fill="none" stroke="black" cx="1124.38" cy="-1635.95" rx="150.26" ry="40.66"/>
<text xml:space="preserve" text-anchor="middle" x="1124.38" y="-1647.4" font-family="Times,serif" font-size="14.00">RFC7788</text>
<text xml:space="preserve" text-anchor="middle" x="1124.38" y="-1630.9" font-family="Times,serif" font-size="14.00">Home Networking Control Protocol</text>
<text xml:space="preserve" text-anchor="middle" x="1124.38" y="-1614.4" font-family="Times,serif" font-size="14.00">2016</text>
</a>
</g>
</g>
<!-- cites&#45;&gt;RFC7788 -->
<g id="edge6" class="edge">
<title>cites&#45;&gt;RFC7788</title>
<path fill="none" stroke="black" d="M619.09,-946.36C685.8,-1037.4 984.12,-1444.52 1088.32,-1586.73"/>
<polygon fill="black" stroke="black" points="1085.27,-1588.49 1094,-1594.49 1090.91,-1584.35 1085.27,-1588.49"/>
</g>
<!-- RFC8966 -->
<g id="node8" class="node">
<title>RFC8966</title>
<g id="a_node8"><a xlink:href="RFC8966.html" xlink:title="Babel is a loop&#45;avoiding, distance&#45;vector routing protocol that is robust and efficient both in ordinary wired networks and in wireless mesh networks. &#160;This document describes the Babel routing protocol and obsoletes RFC 6126 and RFC 7557." target="_top">
<ellipse fill="none" stroke="black" cx="659.39" cy="-1569.09" rx="119.5" ry="40.66"/>
<text xml:space="preserve" text-anchor="middle" x="659.39" y="-1580.54" font-family="Times,serif" font-size="14.00">RFC8966</text>
<text xml:space="preserve" text-anchor="middle" x="659.39" y="-1564.04" font-family="Times,serif" font-size="14.00">The Babel Routing Protocol</text>
<text xml:space="preserve" text-anchor="middle" x="659.39" y="-1547.54" font-family="Times,serif" font-size="14.00">2021</text>
</a>
</g>
</g>
<!-- cites&#45;&gt;RFC8966 -->
<g id="edge7" class="edge">
<title>cites&#45;&gt;RFC8966</title>
<path fill="none" stroke="black" d="M607.3,-946.64C614.38,-1031.21 643.79,-1382.71 655.01,-1516.8"/>
<polygon fill="black" stroke="black" points="651.5,-1516.78 655.82,-1526.45 658.47,-1516.2 651.5,-1516.78"/>
</g>
<!-- RFC2119 -->
<g id="node9" class="node">
<title>RFC2119</title>
<g id="a_node9"><a xlink:href="RFC2119.html" xlink:title="In many standards track documents several words are used to signify the requirements in the specification. &#160;These words are often capitalized. &#160;This document defines these words as they should be interpreted in IETF documents. &#160;This document specifies an Internet Best Current Practices for the Internet Community, and requests discussion and suggestions for improvements." target="_top">
<ellipse fill="none" stroke="black" cx="304.35" cy="-1261.45" rx="160.34" ry="52.33"/>
<text xml:space="preserve" text-anchor="middle" x="304.35" y="-1281.15" font-family="Times,serif" font-size="14.00">RFC2119</text>
<text xml:space="preserve" text-anchor="middle" x="304.35" y="-1264.65" font-family="Times,serif" font-size="14.00">Key words for use in RFCs to Indicate</text>
<text xml:space="preserve" text-anchor="middle" x="304.35" y="-1248.15" font-family="Times,serif" font-size="14.00">Requirement Levels</text>
<text xml:space="preserve" text-anchor="middle" x="304.35" y="-1231.65" font-family="Times,serif" font-size="14.00">1997</text>
</a>
</g>
</g>
<!-- cites&#45;&gt;RFC2119 -->
<g id="edge8" class="edge">
<title>cites&#45;&gt;RFC2119</title>
<path fill="none" stroke="black" d="M589.12,-946.55C545.6,-994.67 426.94,-1125.9 357.29,-1202.92"/>
<polygon fill="black" stroke="black" points="355,-1200.23 350.89,-1209.99 360.19,-1204.92 355,-1200.23"/>
</g>
<!-- RFC8174 -->
<g id="node10" class="node">
<title>RFC8174</title>
<g id="a_node10"><a xlink:href="RFC8174.html" xlink:title="RFC 2119 specifies common key words that may be used in protocol specifications. &#160;This document aims to reduce the ambiguity by clarifying that only UPPERCASE usage of the key words have the defined special meanings." target="_top">
<ellipse fill="none" stroke="black" cx="172" cy="-810.71" rx="172" ry="52.33"/>
<text xml:space="preserve" text-anchor="middle" x="172" y="-830.41" font-family="Times,serif" font-size="14.00">RFC8174</text>
<text xml:space="preserve" text-anchor="middle" x="172" y="-813.91" font-family="Times,serif" font-size="14.00">Ambiguity of Uppercase vs Lowercase in</text>
<text xml:space="preserve" text-anchor="middle" x="172" y="-797.41" font-family="Times,serif" font-size="14.00">RFC 2119 Key Words</text>
<text xml:space="preserve" text-anchor="middle" x="172" y="-780.91" font-family="Times,serif" font-size="14.00">2017</text>
</a>
</g>
</g>
<!-- cites&#45;&gt;RFC8174 -->
<g id="edge9" class="edge">
<title>cites&#45;&gt;RFC8174</title>
<path fill="none" stroke="black" d="M578.29,-920.72C525.66,-906.47 407.35,-874.43 311.9,-848.59"/>
<polygon fill="black" stroke="black" points="313,-845.26 302.43,-846.02 311.17,-852.02 313,-845.26"/>
</g>
<!-- RFC8967 -->
<g id="node11" class="node">
<title>RFC8967</title>
<g id="a_node11"><a xlink:href="RFC8967.html" xlink:title="This document describes a cryptographic authentication mechanism for the Babel routing protocol that has provisions for replay avoidance. &#160;This document obsoletes RFC 7298." target="_top">
<ellipse fill="none" stroke="black" cx="304.35" cy="-359.96" rx="178.9" ry="52.33"/>
<text xml:space="preserve" text-anchor="middle" x="304.35" y="-379.66" font-family="Times,serif" font-size="14.00">RFC8967</text>
<text xml:space="preserve" text-anchor="middle" x="304.35" y="-363.16" font-family="Times,serif" font-size="14.00">MAC Authentication for the Babel Routing</text>
<text xml:space="preserve" text-anchor="middle" x="304.35" y="-346.66" font-family="Times,serif" font-size="14.00">Protocol</text>
<text xml:space="preserve" text-anchor="middle" x="304.35" y="-330.16" font-family="Times,serif" font-size="14.00">2021</text>
</a>
</g>
</g>
<!-- cites&#45;&gt;RFC8967 -->
<g id="edge10" class="edge">
<title>cites&#45;&gt;RFC8967</title>
<path fill="none" stroke="black" d="M596.07,-909.89C556.33,-834.99 404.77,-549.27 337.2,-421.89"/>
<polygon fill="black" stroke="black" points="340.39,-420.43 332.61,-413.24 334.21,-423.71 340.39,-420.43"/>
</g>
<!-- RFC9079 -->
<g id="node12" class="node">
<title>RFC9079</title>
<g id="a_node12"><a xlink:href="RFC9079.html" xlink:title="Source&#45;specific routing, also known as Source Address Dependent Routing (SADR), is an extension to traditional next&#45;hop routing where packets are forwarded according to both their destination address and their source address. &#160;This document describes an extension for source&#45;specific routing to the Babel routing protocol." target="_top">
<ellipse fill="none" stroke="black" cx="659.39" cy="-52.33" rx="155.03" ry="52.33"/>
<text xml:space="preserve" text-anchor="middle" x="659.39" y="-72.03" font-family="Times,serif" font-size="14.00">RFC9079</text>
<text xml:space="preserve" text-anchor="middle" x="659.39" y="-55.53" font-family="Times,serif" font-size="14.00">Source&#45;Specific Routing in the Babel</text>
<text xml:space="preserve" text-anchor="middle" x="659.39" y="-39.03" font-family="Times,serif" font-size="14.00">Routing Protocol</text>
<text xml:space="preserve" text-anchor="middle" x="659.39" y="-22.53" font-family="Times,serif" font-size="14.00">2021</text>
</a>
</g>
</g>
<!-- cites&#45;&gt;RFC9079 -->
<g id="edge11" class="edge">
<title>cites&#45;&gt;RFC9079</title>
<path fill="none" stroke="black" d="M606.87,-909.86C613.18,-806.86 644.38,-297.45 655.47,-116.36"/>
<polygon fill="black" stroke="black" points="658.96,-116.62 656.07,-106.42 651.97,-116.19 658.96,-116.62"/>
</g>
<!-- rev_cites -->
<g id="node13" class="node">
<title>rev_cites</title>
<polygon fill="lightblue" stroke="black" points="1432.71,-711.26 1378.71,-711.26 1378.71,-675.26 1432.71,-675.26 1432.71,-711.26"/>
<text xml:space="preserve" text-anchor="middle" x="1405.71" y="-688.21" font-family="Times,serif" font-size="14.00">cites</text>
</g>
<!-- rev_cites&#45;&gt;RFC9080 -->
<g id="edge12" class="edge">
<title>rev_cites&#45;&gt;RFC9080</title>
<path fill="none" stroke="black" d="M1378.21,-701.34C1335.14,-713.98 1248.5,-739.42 1169.62,-762.59"/>
<polygon fill="black" stroke="black" points="1169.1,-759.09 1160.5,-765.27 1171.08,-765.81 1169.1,-759.09"/>
</g>
</g>
</svg>
