<?xml version="1.0" encoding="UTF-8" standalone="no"?>
<!DOCTYPE svg PUBLIC "-//W3C//DTD SVG 1.1//EN"
 "http://www.w3.org/Graphics/SVG/1.1/DTD/svg11.dtd">
<!-- Generated by graphviz version 14.1.1 (20251213.1925)
 -->
<!-- Title: Flow Pages: 1 -->
<svg width="909pt" height="247pt"
 viewBox="0.00 0.00 909.00 247.00" xmlns="http://www.w3.org/2000/svg" xmlns:xlink="http://www.w3.org/1999/xlink">
<g id="graph0" class="graph" transform="scale(1 1) rotate(0) translate(4 243.33)">
<title>Flow</title>
<polygon fill="white" stroke="none" points="-4,4 -4,-243.33 904.82,-243.33 904.82,4 -4,4"/>
<!-- RFC9075 -->
<g id="node1" class="node">
<title>RFC9075</title>
<g id="a_node1"><a xlink:title="The Coronavirus disease (COVID&#45;19) pandemic caused changes in Internet user behavior, particularly during the introduction of initial quarantine and work&#45;from&#45;home arrangements. These behavior changes drove changes in Internet traffic. The Internet Architecture Board (IAB) held a workshop to discuss network impacts of the pandemic on November 9&#45;13, 2020. The workshop was held to convene interested researchers, network operators, network management experts, and Internet technologists to share their experiences. The meeting was held online given the ongoing travel and contact restrictions at that time. Note that this document is a report on the proceedings of the workshop. The views and positions documented in this report are those of the workshop participants and do not necessarily reflect IAB views and positions.">
<ellipse fill="green" stroke="black" cx="635.44" cy="-167.33" rx="174.13" ry="52.33"/>
<text xml:space="preserve" text-anchor="middle" x="635.44" y="-187.03" font-family="Times,serif" font-size="14.00">RFC9075</text>
<text xml:space="preserve" text-anchor="middle" x="635.44" y="-170.53" font-family="Times,serif" font-size="14.00">Report from the IAB COVID&#45;19 Network</text>
<text xml:space="preserve" text-anchor="middle" x="635.44" y="-154.03" font-family="Times,serif" font-size="14.00">Impacts Workshop 2020</text>
<text xml:space="preserve" text-anchor="middle" x="635.44" y="-137.53" font-family="Times,serif" font-size="14.00">2021</text>
</a>
</g>
</g>
<!-- obs -->
<g id="node3" class="node">
<title>obs</title>
<polygon fill="lightblue" stroke="black" points="900.82,-239.33 834.57,-239.33 834.57,-203.33 900.82,-203.33 900.82,-239.33"/>
<text xml:space="preserve" text-anchor="middle" x="867.69" y="-216.28" font-family="Times,serif" font-size="14.00">obsoletes</text>
</g>
<!-- RFC9075&#45;&gt;obs -->
<g id="edge2" class="edge">
<title>RFC9075&#45;&gt;obs</title>
<path fill="none" stroke="black" d="M773.71,-199.52C791.49,-203.69 808.54,-207.69 823.07,-211.1"/>
<polygon fill="black" stroke="black" points="822.14,-214.47 832.68,-213.35 823.74,-207.66 822.14,-214.47"/>
</g>
<!-- updates -->
<g id="node4" class="node">
<title>updates</title>
<polygon fill="lightyellow" stroke="black" points="896.32,-185.33 839.07,-185.33 839.07,-149.33 896.32,-149.33 896.32,-185.33"/>
<text xml:space="preserve" text-anchor="middle" x="867.69" y="-162.28" font-family="Times,serif" font-size="14.00">updates</text>
</g>
<!-- RFC9075&#45;&gt;updates -->
<g id="edge3" class="edge">
<title>RFC9075&#45;&gt;updates</title>
<path fill="none" stroke="black" d="M809.78,-167.33C815.98,-167.33 821.88,-167.33 827.37,-167.33"/>
<polygon fill="black" stroke="black" points="827.16,-170.83 837.16,-167.33 827.16,-163.83 827.16,-170.83"/>
</g>
<!-- cites -->
<g id="node6" class="node">
<title>cites</title>
<polygon fill="lightblue" stroke="black" points="894.69,-131.33 840.69,-131.33 840.69,-95.33 894.69,-95.33 894.69,-131.33"/>
<text xml:space="preserve" text-anchor="middle" x="867.69" y="-108.28" font-family="Times,serif" font-size="14.00">cites</text>
</g>
<!-- RFC9075&#45;&gt;cites -->
<g id="edge5" class="edge">
<title>RFC9075&#45;&gt;cites</title>
<path fill="none" stroke="black" d="M773.71,-135.13C794.16,-130.34 813.65,-125.76 829.46,-122.06"/>
<polygon fill="black" stroke="black" points="829.86,-125.56 838.8,-119.87 828.26,-118.74 829.86,-125.56"/>
</g>
<!-- obs_by -->
<g id="node2" class="node">
<title>obs_by</title>
<polygon fill="lightblue" stroke="black" points="436.32,-239.33 370.07,-239.33 370.07,-203.33 436.32,-203.33 436.32,-239.33"/>
<text xml:space="preserve" text-anchor="middle" x="403.19" y="-216.28" font-family="Times,serif" font-size="14.00">obsoletes</text>
</g>
<!-- obs_by&#45;&gt;RFC9075 -->
<g id="edge1" class="edge">
<title>obs_by&#45;&gt;RFC9075</title>
<path fill="none" stroke="black" d="M436.69,-213.7C450.53,-210.46 467.73,-206.43 486.16,-202.1"/>
<polygon fill="black" stroke="black" points="486.74,-205.56 495.67,-199.87 485.14,-198.75 486.74,-205.56"/>
</g>
<!-- updated_by -->
<g id="node5" class="node">
<title>updated_by</title>
<polygon fill="lightyellow" stroke="black" points="431.82,-185.33 374.57,-185.33 374.57,-149.33 431.82,-149.33 431.82,-185.33"/>
<text xml:space="preserve" text-anchor="middle" x="403.19" y="-162.28" font-family="Times,serif" font-size="14.00">updates</text>
</g>
<!-- updated_by&#45;&gt;RFC9075 -->
<g id="edge4" class="edge">
<title>updated_by&#45;&gt;RFC9075</title>
<path fill="none" stroke="black" d="M431.97,-167.33C437.33,-167.33 443.31,-167.33 449.75,-167.33"/>
<polygon fill="black" stroke="black" points="449.49,-170.83 459.49,-167.33 449.49,-163.83 449.49,-170.83"/>
</g>
<!-- rev_cites -->
<g id="node7" class="node">
<title>rev_cites</title>
<polygon fill="lightblue" stroke="black" points="430.19,-131.33 376.19,-131.33 376.19,-95.33 430.19,-95.33 430.19,-131.33"/>
<text xml:space="preserve" text-anchor="middle" x="403.19" y="-108.28" font-family="Times,serif" font-size="14.00">cites</text>
</g>
<!-- rev_cites&#45;&gt;RFC9075 -->
<g id="edge6" class="edge">
<title>rev_cites&#45;&gt;RFC9075</title>
<path fill="none" stroke="black" d="M430.61,-119.52C445.36,-122.98 465.04,-127.6 486.38,-132.6"/>
<polygon fill="black" stroke="black" points="485.31,-135.94 495.84,-134.82 486.91,-129.13 485.31,-135.94"/>
</g>
<!-- RFC9317 -->
<g id="node8" class="node">
<title>RFC9317</title>
<g id="a_node8"><a xlink:href="RFC9317.html" xlink:title="This document provides an overview of operational networking and transport protocol issues that pertain to the quality of experience (QoE) when streaming video and other high&#45;bitrate media over the Internet. This document explains the characteristics of streaming media delivery that have surprised network designers or transport experts who lack specific media expertise, since streaming media highlights key differences between common assumptions in existing networking practices and observations of media delivery issues encountered when streaming media over those existing networks." target="_top">
<ellipse fill="none" stroke="black" cx="172.53" cy="-175.33" rx="172.53" ry="52.33"/>
<text xml:space="preserve" text-anchor="middle" x="172.53" y="-195.03" font-family="Times,serif" font-size="14.00">RFC9317</text>
<text xml:space="preserve" text-anchor="middle" x="172.53" y="-178.53" font-family="Times,serif" font-size="14.00">Operational Considerations for Streaming</text>
<text xml:space="preserve" text-anchor="middle" x="172.53" y="-162.03" font-family="Times,serif" font-size="14.00">Media</text>
<text xml:space="preserve" text-anchor="middle" x="172.53" y="-145.53" font-family="Times,serif" font-size="14.00">2022</text>
</a>
</g>
</g>
<!-- RFC9317&#45;&gt;rev_cites -->
<g id="edge7" class="edge">
<title>RFC9317&#45;&gt;rev_cites</title>
<path fill="none" stroke="black" d="M302.23,-140.43C325.22,-134.2 347.43,-128.18 365.05,-123.4"/>
<polygon fill="black" stroke="black" points="365.73,-126.84 374.46,-120.85 363.89,-120.08 365.73,-126.84"/>
</g>
<!-- RFC9419 -->
<g id="node9" class="node">
<title>RFC9419</title>
<g id="a_node9"><a xlink:href="RFC9419.html" xlink:title="This document discusses principles for designing mechanisms that use or provide path signals and calls for standards action in specific valuable cases. &#160;RFC 8558 describes path signals as messages to or from on&#45;path elements and points out that visible information will be used whether or not it is intended as a signal. &#160;The principles in this document are intended as guidance for the design of explicit path signals, which are encouraged to be authenticated and include a minimal set of parties to minimize information sharing. &#160;These principles can be achieved through mechanisms like encryption of information and establishing trust relationships between entities on a path." target="_top">
<ellipse fill="none" stroke="black" cx="172.53" cy="-52.33" rx="169.88" ry="52.33"/>
<text xml:space="preserve" text-anchor="middle" x="172.53" y="-72.03" font-family="Times,serif" font-size="14.00">RFC9419</text>
<text xml:space="preserve" text-anchor="middle" x="172.53" y="-55.53" font-family="Times,serif" font-size="14.00">Considerations on Application &#45; Network</text>
<text xml:space="preserve" text-anchor="middle" x="172.53" y="-39.03" font-family="Times,serif" font-size="14.00">Collaboration Using Path Signals</text>
<text xml:space="preserve" text-anchor="middle" x="172.53" y="-22.53" font-family="Times,serif" font-size="14.00">2023</text>
</a>
</g>
</g>
<!-- RFC9419&#45;&gt;rev_cites -->
<g id="edge8" class="edge">
<title>RFC9419&#45;&gt;rev_cites</title>
<path fill="none" stroke="black" d="M301.9,-86.57C324.95,-92.72 347.22,-98.66 364.9,-103.38"/>
<polygon fill="black" stroke="black" points="363.79,-106.7 374.36,-105.9 365.6,-99.94 363.79,-106.7"/>
</g>
</g>
</svg>
