<?xml version="1.0" encoding="UTF-8" standalone="no"?>
<!DOCTYPE svg PUBLIC "-//W3C//DTD SVG 1.1//EN"
 "http://www.w3.org/Graphics/SVG/1.1/DTD/svg11.dtd">
<!-- Generated by graphviz version 14.1.1 (20251213.1925)
 -->
<!-- Title: Flow Pages: 1 -->
<svg width="1373pt" height="1265pt"
 viewBox="0.00 0.00 1373.00 1265.00" xmlns="http://www.w3.org/2000/svg" xmlns:xlink="http://www.w3.org/1999/xlink">
<g id="graph0" class="graph" transform="scale(1 1) rotate(0) translate(4 1261.03)">
<title>Flow</title>
<polygon fill="white" stroke="none" points="-4,4 -4,-1261.03 1369.29,-1261.03 1369.29,4 -4,4"/>
<!-- RFC9120 -->
<g id="node1" class="node">
<title>RFC9120</title>
<g id="a_node1"><a xlink:title="This document describes revisions to operational practices to separate the function of the arpa top&#45;level domain in the DNS from its historical operation alongside the DNS root zone.">
<ellipse fill="green" stroke="black" stroke-width="3" cx="970.2" cy="-409.68" rx="225.57" ry="65.05"/>
<text xml:space="preserve" text-anchor="middle" x="970.2" y="-434.58" font-family="Times,serif" font-size="18.00">RFC9120</text>
<text xml:space="preserve" text-anchor="middle" x="970.2" y="-413.58" font-family="Times,serif" font-size="18.00">Nameservers for the Address and Routing</text>
<text xml:space="preserve" text-anchor="middle" x="970.2" y="-392.58" font-family="Times,serif" font-size="18.00">Parameter Area (arpa) Domain</text>
<text xml:space="preserve" text-anchor="middle" x="970.2" y="-371.58" font-family="Times,serif" font-size="18.00">2021</text>
</a>
</g>
</g>
<!-- obs -->
<g id="node3" class="node">
<title>obs</title>
<polygon fill="lightblue" stroke="black" points="1365.29,-601.99 1299.04,-601.99 1299.04,-565.99 1365.29,-565.99 1365.29,-601.99"/>
<text xml:space="preserve" text-anchor="middle" x="1332.17" y="-578.94" font-family="Times,serif" font-size="14.00">obsoletes</text>
</g>
<!-- RFC9120&#45;&gt;obs -->
<g id="edge2" class="edge">
<title>RFC9120&#45;&gt;obs</title>
<path fill="none" stroke="black" d="M1088.22,-466.51C1156.84,-499.56 1239.25,-539.25 1288.58,-563"/>
<polygon fill="black" stroke="black" points="1286.99,-566.12 1297.52,-567.31 1290.03,-559.81 1286.99,-566.12"/>
</g>
<!-- updates -->
<g id="node4" class="node">
<title>updates</title>
<polygon fill="lightyellow" stroke="black" points="1088.23,-819.36 1030.98,-819.36 1030.98,-783.36 1088.23,-783.36 1088.23,-819.36"/>
<text xml:space="preserve" text-anchor="middle" x="1059.6" y="-796.31" font-family="Times,serif" font-size="14.00">updates</text>
</g>
<!-- RFC9120&#45;&gt;updates -->
<g id="edge3" class="edge">
<title>RFC9120&#45;&gt;updates</title>
<path fill="none" stroke="black" d="M985.27,-475.68C1005,-562.11 1038.74,-709.96 1052.97,-772.29"/>
<polygon fill="black" stroke="black" points="1049.49,-772.79 1055.13,-781.76 1056.32,-771.23 1049.49,-772.79"/>
</g>
<!-- cites -->
<g id="node7" class="node">
<title>cites</title>
<polygon fill="lightblue" stroke="black" points="635.24,-601.99 581.24,-601.99 581.24,-565.99 635.24,-565.99 635.24,-601.99"/>
<text xml:space="preserve" text-anchor="middle" x="608.24" y="-578.94" font-family="Times,serif" font-size="14.00">cites</text>
</g>
<!-- RFC9120&#45;&gt;cites -->
<g id="edge6" class="edge">
<title>RFC9120&#45;&gt;cites</title>
<path fill="none" stroke="black" d="M852.18,-466.51C780.64,-500.97 694.11,-542.64 645.7,-565.95"/>
<polygon fill="black" stroke="black" points="644.25,-562.76 636.76,-570.26 647.29,-569.07 644.25,-562.76"/>
</g>
<!-- obs_by -->
<g id="node2" class="node">
<title>obs_by</title>
<polygon fill="lightblue" stroke="black" points="752.84,-113.58 686.59,-113.58 686.59,-77.58 752.84,-77.58 752.84,-113.58"/>
<text xml:space="preserve" text-anchor="middle" x="719.72" y="-90.53" font-family="Times,serif" font-size="14.00">obsoletes</text>
</g>
<!-- obs_by&#45;&gt;RFC9120 -->
<g id="edge1" class="edge">
<title>obs_by&#45;&gt;RFC9120</title>
<path fill="none" stroke="black" d="M734.27,-113.82C768.08,-156.22 853.51,-263.34 911.73,-336.35"/>
<polygon fill="black" stroke="black" points="908.77,-338.26 917.74,-343.9 914.25,-333.9 908.77,-338.26"/>
</g>
<!-- RFC3172 -->
<g id="node5" class="node">
<title>RFC3172</title>
<g id="a_node5"><a xlink:href="RFC3172.html" xlink:title="This memo describes the management and operational requirements for the address and routing parameter area (arpa) domain. &#160;This document specifies an Internet Best Current Practices for the Internet Community, and requests discussion and suggestions for improvements." target="_top">
<ellipse fill="none" stroke="black" cx="1149" cy="-1193.04" rx="176.25" ry="63.99"/>
<text xml:space="preserve" text-anchor="middle" x="1149" y="-1220.99" font-family="Times,serif" font-size="14.00">RFC3172</text>
<text xml:space="preserve" text-anchor="middle" x="1149" y="-1204.49" font-family="Times,serif" font-size="14.00">Management Guidelines &amp; Operational</text>
<text xml:space="preserve" text-anchor="middle" x="1149" y="-1187.99" font-family="Times,serif" font-size="14.00">Requirements for the Address and Routing</text>
<text xml:space="preserve" text-anchor="middle" x="1149" y="-1171.49" font-family="Times,serif" font-size="14.00">Parameter Area Domain (arpa)</text>
<text xml:space="preserve" text-anchor="middle" x="1149" y="-1154.99" font-family="Times,serif" font-size="14.00">2001</text>
</a>
</g>
</g>
<!-- updates&#45;&gt;RFC3172 -->
<g id="edge4" class="edge">
<title>updates&#45;&gt;RFC3172</title>
<path fill="none" stroke="black" d="M1063.79,-819.72C1075.77,-872.19 1110.63,-1024.93 1131.87,-1117.98"/>
<polygon fill="black" stroke="black" points="1128.42,-1118.58 1134.05,-1127.55 1135.24,-1117.02 1128.42,-1118.58"/>
</g>
<!-- updated_by -->
<g id="node6" class="node">
<title>updated_by</title>
<polygon fill="lightyellow" stroke="black" points="1088.23,-36 1030.98,-36 1030.98,0 1088.23,0 1088.23,-36"/>
<text xml:space="preserve" text-anchor="middle" x="1059.6" y="-12.95" font-family="Times,serif" font-size="14.00">updates</text>
</g>
<!-- updated_by&#45;&gt;RFC9120 -->
<g id="edge5" class="edge">
<title>updated_by&#45;&gt;RFC9120</title>
<path fill="none" stroke="black" d="M1055.41,-36.37C1043.53,-88.4 1009.15,-239.04 987.87,-332.29"/>
<polygon fill="black" stroke="black" points="984.49,-331.37 985.68,-341.9 991.31,-332.93 984.49,-331.37"/>
</g>
<!-- cites&#45;&gt;RFC3172 -->
<g id="edge7" class="edge">
<title>cites&#45;&gt;RFC3172</title>
<path fill="none" stroke="black" d="M624.42,-602.22C693.23,-679.72 963.59,-984.22 1086.99,-1123.2"/>
<polygon fill="black" stroke="black" points="1084.28,-1125.42 1093.54,-1130.57 1089.52,-1120.77 1084.28,-1125.42"/>
</g>
<!-- RFC7720 -->
<g id="node8" class="node">
<title>RFC7720</title>
<g id="a_node8"><a xlink:href="RFC7720.html" xlink:title="The DNS root name service is a critical part of the Internet architecture. &#160;The protocol and deployment requirements for the DNS root name service are defined in this document. &#160;Operational requirements are out of scope." target="_top">
<ellipse fill="none" stroke="black" cx="469.23" cy="-1037.88" rx="160.34" ry="52.33"/>
<text xml:space="preserve" text-anchor="middle" x="469.23" y="-1057.58" font-family="Times,serif" font-size="14.00">RFC7720</text>
<text xml:space="preserve" text-anchor="middle" x="469.23" y="-1041.08" font-family="Times,serif" font-size="14.00">DNS Root Name Service Protocol and</text>
<text xml:space="preserve" text-anchor="middle" x="469.23" y="-1024.58" font-family="Times,serif" font-size="14.00">Deployment Requirements</text>
<text xml:space="preserve" text-anchor="middle" x="469.23" y="-1008.08" font-family="Times,serif" font-size="14.00">2015</text>
</a>
</g>
</g>
<!-- cites&#45;&gt;RFC7720 -->
<g id="edge8" class="edge">
<title>cites&#45;&gt;RFC7720</title>
<path fill="none" stroke="black" d="M602.62,-602.35C583.56,-664.58 520.79,-869.51 488.62,-974.57"/>
<polygon fill="black" stroke="black" points="485.35,-973.3 485.77,-983.89 492.04,-975.35 485.35,-973.3"/>
</g>
<!-- RFC5855 -->
<g id="node9" class="node">
<title>RFC5855</title>
<g id="a_node9"><a xlink:href="RFC5855.html" xlink:title="This document specifies a stable naming scheme for the nameservers that serve the zones IN&#45;ADDR.ARPA and IP6.ARPA in the DNS. &#160;These zones contain data that facilitate reverse mapping (address to name). &#160;This memo documents an Internet Best Current Practice." target="_top">
<ellipse fill="none" stroke="black" cx="166.7" cy="-409.68" rx="166.7" ry="52.33"/>
<text xml:space="preserve" text-anchor="middle" x="166.7" y="-429.38" font-family="Times,serif" font-size="14.00">RFC5855</text>
<text xml:space="preserve" text-anchor="middle" x="166.7" y="-412.88" font-family="Times,serif" font-size="14.00">Nameservers for IPv4 and IPv6 Reverse</text>
<text xml:space="preserve" text-anchor="middle" x="166.7" y="-396.38" font-family="Times,serif" font-size="14.00">Zones</text>
<text xml:space="preserve" text-anchor="middle" x="166.7" y="-379.88" font-family="Times,serif" font-size="14.00">2010</text>
</a>
</g>
</g>
<!-- cites&#45;&gt;RFC5855 -->
<g id="edge9" class="edge">
<title>cites&#45;&gt;RFC5855</title>
<path fill="none" stroke="black" d="M580.95,-573.22C522.57,-550.17 382.64,-494.93 281.55,-455.02"/>
<polygon fill="black" stroke="black" points="282.96,-451.81 272.37,-451.4 280.39,-458.32 282.96,-451.81"/>
</g>
<!-- rev_cites -->
<g id="node10" class="node">
<title>rev_cites</title>
<polygon fill="lightblue" stroke="black" points="1359.17,-253.37 1305.17,-253.37 1305.17,-217.37 1359.17,-217.37 1359.17,-253.37"/>
<text xml:space="preserve" text-anchor="middle" x="1332.17" y="-230.32" font-family="Times,serif" font-size="14.00">cites</text>
</g>
<!-- rev_cites&#45;&gt;RFC9120 -->
<g id="edge10" class="edge">
<title>rev_cites&#45;&gt;RFC9120</title>
<path fill="none" stroke="black" d="M1304.96,-248.47C1261.38,-269.46 1173.18,-311.93 1098.26,-348.01"/>
<polygon fill="black" stroke="black" points="1097.11,-344.68 1089.62,-352.17 1100.14,-350.99 1097.11,-344.68"/>
</g>
</g>
</svg>
