<?xml version="1.0" encoding="UTF-8" standalone="no"?>
<!DOCTYPE svg PUBLIC "-//W3C//DTD SVG 1.1//EN"
 "http://www.w3.org/Graphics/SVG/1.1/DTD/svg11.dtd">
<!-- Generated by graphviz version 14.1.1 (20251213.1925)
 -->
<!-- Title: Flow Pages: 1 -->
<svg width="916pt" height="581pt"
 viewBox="0.00 0.00 916.00 581.00" xmlns="http://www.w3.org/2000/svg" xmlns:xlink="http://www.w3.org/1999/xlink">
<g id="graph0" class="graph" transform="scale(1 1) rotate(0) translate(4 576.98)">
<title>Flow</title>
<polygon fill="white" stroke="none" points="-4,4 -4,-576.98 912.24,-576.98 912.24,4 -4,4"/>
<!-- RFC9611 -->
<g id="node1" class="node">
<title>RFC9611</title>
<g id="a_node1"><a xlink:title="In order to increase the bandwidth of IPsec traffic between peers, this document defines one Notify Message Status Types and one Notify Message Error Types payload for the Internet Key Exchange Protocol Version 2 (IKEv2) to support the negotiation of multiple Child Security Associations (SAs) with the same Traffic Selectors used on different resources, such as CPUs. The SA_RESOURCE_INFO notification is used to convey information that the negotiated Child SA and subsequent new Child SAs with the same Traffic Selectors are a logical group of Child SAs where most or all of the Child SAs are bound to a specific resource, such as a specific CPU. The TS_MAX_QUEUE notify conveys that the peer is unwilling to create more additional Child SAs for this particular negotiated Traffic Selector combination. Using multiple Child SAs with the same Traffic Selectors has the benefit that each resource holding the Child SA has its own Sequence Number Counter, ensuring that CPUs don&#39;t have to synchronize their cryptographic state or disable their packet replay protection.">
<ellipse fill="none" stroke="black" cx="264.84" cy="-328.66" rx="173.59" ry="63.99"/>
<text xml:space="preserve" text-anchor="middle" x="264.84" y="-356.61" font-family="Times,serif" font-size="14.00">RFC9611</text>
<text xml:space="preserve" text-anchor="middle" x="264.84" y="-340.11" font-family="Times,serif" font-size="14.00">Internet Key Exchange Protocol Version 2</text>
<text xml:space="preserve" text-anchor="middle" x="264.84" y="-323.61" font-family="Times,serif" font-size="14.00">(IKEv2) Support for Per&#45;Resource Child</text>
<text xml:space="preserve" text-anchor="middle" x="264.84" y="-307.11" font-family="Times,serif" font-size="14.00">Security Associations (SAs)</text>
<text xml:space="preserve" text-anchor="middle" x="264.84" y="-290.61" font-family="Times,serif" font-size="14.00">2024</text>
</a>
</g>
</g>
<!-- obs -->
<g id="node3" class="node">
<title>obs</title>
<polygon fill="none" stroke="black" points="529.69,-400.66 463.44,-400.66 463.44,-364.66 529.69,-364.66 529.69,-400.66"/>
<text xml:space="preserve" text-anchor="middle" x="496.56" y="-377.61" font-family="Times,serif" font-size="14.00">obsoletes</text>
</g>
<!-- RFC9611&#45;&gt;obs -->
<g id="edge2" class="edge">
<title>RFC9611&#45;&gt;obs</title>
<path fill="none" stroke="black" d="M411.98,-363.01C426.46,-366.42 440.23,-369.65 452.26,-372.48"/>
<polygon fill="black" stroke="black" points="451.21,-375.83 461.75,-374.71 452.81,-369.01 451.21,-375.83"/>
</g>
<!-- updates -->
<g id="node4" class="node">
<title>updates</title>
<polygon fill="none" stroke="black" points="525.19,-346.66 467.94,-346.66 467.94,-310.66 525.19,-310.66 525.19,-346.66"/>
<text xml:space="preserve" text-anchor="middle" x="496.56" y="-323.61" font-family="Times,serif" font-size="14.00">updates</text>
</g>
<!-- RFC9611&#45;&gt;updates -->
<g id="edge3" class="edge">
<title>RFC9611&#45;&gt;updates</title>
<path fill="none" stroke="black" d="M438.78,-328.66C444.97,-328.66 450.86,-328.66 456.33,-328.66"/>
<polygon fill="black" stroke="black" points="456.1,-332.16 466.1,-328.66 456.1,-325.16 456.1,-332.16"/>
</g>
<!-- cites -->
<g id="node6" class="node">
<title>cites</title>
<polygon fill="none" stroke="black" points="523.56,-292.66 469.56,-292.66 469.56,-256.66 523.56,-256.66 523.56,-292.66"/>
<text xml:space="preserve" text-anchor="middle" x="496.56" y="-269.61" font-family="Times,serif" font-size="14.00">cites</text>
</g>
<!-- RFC9611&#45;&gt;cites -->
<g id="edge5" class="edge">
<title>RFC9611&#45;&gt;cites</title>
<path fill="none" stroke="black" d="M411.98,-294.31C428.95,-290.32 444.94,-286.56 458.3,-283.42"/>
<polygon fill="black" stroke="black" points="458.91,-286.87 467.84,-281.17 457.31,-280.06 458.91,-286.87"/>
</g>
<!-- obs_by -->
<g id="node2" class="node">
<title>obs_by</title>
<polygon fill="none" stroke="black" points="66.25,-400.66 0,-400.66 0,-364.66 66.25,-364.66 66.25,-400.66"/>
<text xml:space="preserve" text-anchor="middle" x="33.12" y="-377.61" font-family="Times,serif" font-size="14.00">obsoletes</text>
</g>
<!-- obs_by&#45;&gt;RFC9611 -->
<g id="edge1" class="edge">
<title>obs_by&#45;&gt;RFC9611</title>
<path fill="none" stroke="black" d="M66.55,-375.04C78,-372.35 91.75,-369.11 106.6,-365.62"/>
<polygon fill="black" stroke="black" points="107.19,-369.08 116.12,-363.38 105.58,-362.27 107.19,-369.08"/>
</g>
<!-- updated_by -->
<g id="node5" class="node">
<title>updated_by</title>
<polygon fill="none" stroke="black" points="61.75,-346.66 4.5,-346.66 4.5,-310.66 61.75,-310.66 61.75,-346.66"/>
<text xml:space="preserve" text-anchor="middle" x="33.12" y="-323.61" font-family="Times,serif" font-size="14.00">updates</text>
</g>
<!-- updated_by&#45;&gt;RFC9611 -->
<g id="edge4" class="edge">
<title>updated_by&#45;&gt;RFC9611</title>
<path fill="none" stroke="black" d="M61.83,-328.66C67.19,-328.66 73.15,-328.66 79.58,-328.66"/>
<polygon fill="black" stroke="black" points="79.29,-332.16 89.29,-328.66 79.29,-325.16 79.29,-332.16"/>
</g>
<!-- RFC4301 -->
<g id="node7" class="node">
<title>RFC4301</title>
<g id="a_node7"><a xlink:href="RFC4301.html" xlink:title="This document describes an updated version of the Security Architecture for IP, which is designed to provide security services for traffic at the IP layer. &#160;This document obsoletes RFC 2401 (November 1998). [STANDARDS&#45;TRACK]" target="_top">
<ellipse fill="none" stroke="black" cx="731.47" cy="-520.66" rx="153.44" ry="52.33"/>
<text xml:space="preserve" text-anchor="middle" x="731.47" y="-540.36" font-family="Times,serif" font-size="14.00">RFC4301</text>
<text xml:space="preserve" text-anchor="middle" x="731.47" y="-523.86" font-family="Times,serif" font-size="14.00">Security Architecture for the Internet</text>
<text xml:space="preserve" text-anchor="middle" x="731.47" y="-507.36" font-family="Times,serif" font-size="14.00">Protocol</text>
<text xml:space="preserve" text-anchor="middle" x="731.47" y="-490.86" font-family="Times,serif" font-size="14.00">2005</text>
</a>
</g>
</g>
<!-- cites&#45;&gt;RFC4301 -->
<g id="edge6" class="edge">
<title>cites&#45;&gt;RFC4301</title>
<path fill="none" stroke="black" d="M523.31,-293.14C525.76,-295.76 527.97,-298.61 529.69,-301.66 564.48,-363.15 509.45,-404.38 554.69,-458.66 564.61,-470.56 576.97,-480.18 590.5,-487.95"/>
<polygon fill="black" stroke="black" points="588.74,-490.98 599.21,-492.58 592.03,-484.8 588.74,-490.98"/>
</g>
<!-- RFC7296 -->
<g id="node8" class="node">
<title>RFC7296</title>
<g id="a_node8"><a xlink:href="RFC7296.html" xlink:title="This document describes version 2 of the Internet Key Exchange (IKE) protocol. &#160;IKE is a component of IPsec used for performing mutual authentication and establishing and maintaining Security Associations (SAs). &#160;This document obsoletes RFC 5996, and includes all of the errata for it. &#160;It advances IKEv2 to be an Internet Standard." target="_top">
<ellipse fill="none" stroke="black" cx="731.47" cy="-397.66" rx="173.59" ry="52.33"/>
<text xml:space="preserve" text-anchor="middle" x="731.47" y="-417.36" font-family="Times,serif" font-size="14.00">RFC7296</text>
<text xml:space="preserve" text-anchor="middle" x="731.47" y="-400.86" font-family="Times,serif" font-size="14.00">Internet Key Exchange Protocol Version 2</text>
<text xml:space="preserve" text-anchor="middle" x="731.47" y="-384.36" font-family="Times,serif" font-size="14.00">(IKEv2)</text>
<text xml:space="preserve" text-anchor="middle" x="731.47" y="-367.86" font-family="Times,serif" font-size="14.00">2014</text>
</a>
</g>
</g>
<!-- cites&#45;&gt;RFC7296 -->
<g id="edge7" class="edge">
<title>cites&#45;&gt;RFC7296</title>
<path fill="none" stroke="black" d="M520.64,-292.9C523.79,-295.72 526.9,-298.68 529.69,-301.66 542.51,-315.34 539.62,-324.49 554.69,-335.66 566.08,-344.1 578.73,-351.48 591.86,-357.89"/>
<polygon fill="black" stroke="black" points="590.07,-360.92 600.61,-361.98 593.03,-354.58 590.07,-360.92"/>
</g>
<!-- RFC2119 -->
<g id="node9" class="node">
<title>RFC2119</title>
<g id="a_node9"><a xlink:href="RFC2119.html" xlink:title="In many standards track documents several words are used to signify the requirements in the specification. &#160;These words are often capitalized. &#160;This document defines these words as they should be interpreted in IETF documents. &#160;This document specifies an Internet Best Current Practices for the Internet Community, and requests discussion and suggestions for improvements." target="_top">
<ellipse fill="none" stroke="black" cx="731.47" cy="-274.66" rx="160.34" ry="52.33"/>
<text xml:space="preserve" text-anchor="middle" x="731.47" y="-294.36" font-family="Times,serif" font-size="14.00">RFC2119</text>
<text xml:space="preserve" text-anchor="middle" x="731.47" y="-277.86" font-family="Times,serif" font-size="14.00">Key words for use in RFCs to Indicate</text>
<text xml:space="preserve" text-anchor="middle" x="731.47" y="-261.36" font-family="Times,serif" font-size="14.00">Requirement Levels</text>
<text xml:space="preserve" text-anchor="middle" x="731.47" y="-244.86" font-family="Times,serif" font-size="14.00">1997</text>
</a>
</g>
</g>
<!-- cites&#45;&gt;RFC2119 -->
<g id="edge8" class="edge">
<title>cites&#45;&gt;RFC2119</title>
<path fill="none" stroke="black" d="M523.83,-274.66C533.83,-274.66 546.11,-274.66 559.66,-274.66"/>
<polygon fill="black" stroke="black" points="559.26,-278.16 569.26,-274.66 559.26,-271.16 559.26,-278.16"/>
</g>
<!-- RFC8174 -->
<g id="node10" class="node">
<title>RFC8174</title>
<g id="a_node10"><a xlink:href="RFC8174.html" xlink:title="RFC 2119 specifies common key words that may be used in protocol specifications. &#160;This document aims to reduce the ambiguity by clarifying that only UPPERCASE usage of the key words have the defined special meanings." target="_top">
<ellipse fill="none" stroke="black" cx="731.47" cy="-151.66" rx="172" ry="52.33"/>
<text xml:space="preserve" text-anchor="middle" x="731.47" y="-171.36" font-family="Times,serif" font-size="14.00">RFC8174</text>
<text xml:space="preserve" text-anchor="middle" x="731.47" y="-154.86" font-family="Times,serif" font-size="14.00">Ambiguity of Uppercase vs Lowercase in</text>
<text xml:space="preserve" text-anchor="middle" x="731.47" y="-138.36" font-family="Times,serif" font-size="14.00">RFC 2119 Key Words</text>
<text xml:space="preserve" text-anchor="middle" x="731.47" y="-121.86" font-family="Times,serif" font-size="14.00">2017</text>
</a>
</g>
</g>
<!-- cites&#45;&gt;RFC8174 -->
<g id="edge9" class="edge">
<title>cites&#45;&gt;RFC8174</title>
<path fill="none" stroke="black" d="M510.76,-256.41C521.31,-242.96 537.2,-225.08 554.69,-213.66 567.12,-205.54 580.73,-198.34 594.71,-191.99"/>
<polygon fill="black" stroke="black" points="595.8,-195.34 603.56,-188.13 592.99,-188.93 595.8,-195.34"/>
</g>
<!-- RFC2367 -->
<g id="node11" class="node">
<title>RFC2367</title>
<g id="a_node11"><a xlink:href="RFC2367.html" xlink:title="A generic key management API that can be used not only for IP Security but also for other network security services is presented in this document. &#160;This memo provides information for the Internet community. &#160;It does not specify an Internet standard of any kind." target="_top">
<ellipse fill="none" stroke="black" cx="731.47" cy="-40.66" rx="176.78" ry="40.66"/>
<text xml:space="preserve" text-anchor="middle" x="731.47" y="-52.11" font-family="Times,serif" font-size="14.00">RFC2367</text>
<text xml:space="preserve" text-anchor="middle" x="731.47" y="-35.61" font-family="Times,serif" font-size="14.00">PF_KEY Key Management API, Version 2</text>
<text xml:space="preserve" text-anchor="middle" x="731.47" y="-19.11" font-family="Times,serif" font-size="14.00">1998</text>
</a>
</g>
</g>
<!-- cites&#45;&gt;RFC2367 -->
<g id="edge10" class="edge">
<title>cites&#45;&gt;RFC2367</title>
<path fill="none" stroke="black" d="M497.79,-256.34C499.26,-219.56 507.9,-136.34 554.69,-90.66 562.61,-82.93 571.63,-76.38 581.31,-70.83"/>
<polygon fill="black" stroke="black" points="582.65,-74.08 589.85,-66.31 579.37,-67.89 582.65,-74.08"/>
</g>
<!-- rev_cites -->
<g id="node12" class="node">
<title>rev_cites</title>
<polygon fill="none" stroke="black" points="60.12,-292.66 6.12,-292.66 6.12,-256.66 60.12,-256.66 60.12,-292.66"/>
<text xml:space="preserve" text-anchor="middle" x="33.12" y="-269.61" font-family="Times,serif" font-size="14.00">cites</text>
</g>
<!-- rev_cites&#45;&gt;RFC9611 -->
<g id="edge11" class="edge">
<title>rev_cites&#45;&gt;RFC9611</title>
<path fill="none" stroke="black" d="M60.48,-280.85C72.97,-283.79 89.01,-287.56 106.58,-291.69"/>
<polygon fill="black" stroke="black" points="105.7,-295.08 116.24,-293.96 107.3,-288.26 105.7,-295.08"/>
</g>
</g>
</svg>
