<?xml version="1.0" encoding="UTF-8" standalone="no"?>
<!DOCTYPE svg PUBLIC "-//W3C//DTD SVG 1.1//EN"
 "http://www.w3.org/Graphics/SVG/1.1/DTD/svg11.dtd">
<!-- Generated by graphviz version 14.1.1 (20251213.1925)
 -->
<!-- Title: Flow Pages: 1 -->
<svg width="1270pt" height="1457pt"
 viewBox="0.00 0.00 1270.00 1457.00" xmlns="http://www.w3.org/2000/svg" xmlns:xlink="http://www.w3.org/1999/xlink">
<g id="graph0" class="graph" transform="scale(1 1) rotate(0) translate(4 1453.32)">
<title>Flow</title>
<polygon fill="white" stroke="none" points="-4,4 -4,-1453.32 1266.4,-1453.32 1266.4,4 -4,4"/>
<!-- RFC9266 -->
<g id="node1" class="node">
<title>RFC9266</title>
<g id="a_node1"><a xlink:title="This document defines a channel binding type, tls&#45;exporter, that is compatible with TLS 1.3 in accordance with RFC 5056, On the Use of Channel Bindings to Secure Channels. &#160;Furthermore, it updates the default channel binding to the new binding for versions of TLS greater than 1.2. &#160;This document updates RFCs 5801, 5802, 5929, and 7677.">
<ellipse fill="green" stroke="black" cx="609.46" cy="-1139.33" rx="127.99" ry="40.66"/>
<text xml:space="preserve" text-anchor="middle" x="609.46" y="-1150.78" font-family="Times,serif" font-size="14.00">RFC9266</text>
<text xml:space="preserve" text-anchor="middle" x="609.46" y="-1134.28" font-family="Times,serif" font-size="14.00">Channel Bindings for TLS 1.3</text>
<text xml:space="preserve" text-anchor="middle" x="609.46" y="-1117.78" font-family="Times,serif" font-size="14.00">2022</text>
</a>
</g>
</g>
<!-- obs -->
<g id="node3" class="node">
<title>obs</title>
<polygon fill="lightblue" stroke="black" points="828.69,-1211.33 762.44,-1211.33 762.44,-1175.33 828.69,-1175.33 828.69,-1211.33"/>
<text xml:space="preserve" text-anchor="middle" x="795.57" y="-1188.28" font-family="Times,serif" font-size="14.00">obsoletes</text>
</g>
<!-- RFC9266&#45;&gt;obs -->
<g id="edge2" class="edge">
<title>RFC9266&#45;&gt;obs</title>
<path fill="none" stroke="black" d="M704.67,-1166.96C721.01,-1171.75 737.25,-1176.51 751.35,-1180.65"/>
<polygon fill="black" stroke="black" points="750.12,-1183.94 760.7,-1183.39 752.09,-1177.22 750.12,-1183.94"/>
</g>
<!-- updates -->
<g id="node4" class="node">
<title>updates</title>
<polygon fill="lightyellow" stroke="black" points="824.19,-1157.33 766.94,-1157.33 766.94,-1121.33 824.19,-1121.33 824.19,-1157.33"/>
<text xml:space="preserve" text-anchor="middle" x="795.57" y="-1134.28" font-family="Times,serif" font-size="14.00">updates</text>
</g>
<!-- RFC9266&#45;&gt;updates -->
<g id="edge3" class="edge">
<title>RFC9266&#45;&gt;updates</title>
<path fill="none" stroke="black" d="M737.83,-1139.33C743.9,-1139.33 749.74,-1139.33 755.2,-1139.33"/>
<polygon fill="black" stroke="black" points="754.99,-1142.83 764.99,-1139.33 754.99,-1135.83 754.99,-1142.83"/>
</g>
<!-- cites -->
<g id="node10" class="node">
<title>cites</title>
<polygon fill="lightblue" stroke="black" points="822.57,-769.33 768.57,-769.33 768.57,-733.33 822.57,-733.33 822.57,-769.33"/>
<text xml:space="preserve" text-anchor="middle" x="795.57" y="-746.28" font-family="Times,serif" font-size="14.00">cites</text>
</g>
<!-- RFC9266&#45;&gt;cites -->
<g id="edge9" class="edge">
<title>RFC9266&#45;&gt;cites</title>
<path fill="none" stroke="black" d="M629.64,-1098.9C666.98,-1020.21 748.6,-848.2 780.96,-780"/>
<polygon fill="black" stroke="black" points="784.12,-781.52 785.24,-770.98 777.79,-778.52 784.12,-781.52"/>
</g>
<!-- obs_by -->
<g id="node2" class="node">
<title>obs_by</title>
<polygon fill="lightblue" stroke="black" points="456.47,-1211.33 390.22,-1211.33 390.22,-1175.33 456.47,-1175.33 456.47,-1211.33"/>
<text xml:space="preserve" text-anchor="middle" x="423.35" y="-1188.28" font-family="Times,serif" font-size="14.00">obsoletes</text>
</g>
<!-- obs_by&#45;&gt;RFC9266 -->
<g id="edge1" class="edge">
<title>obs_by&#45;&gt;RFC9266</title>
<path fill="none" stroke="black" d="M456.84,-1183.8C470.26,-1179.86 486.64,-1175.05 503.61,-1170.08"/>
<polygon fill="black" stroke="black" points="504.18,-1173.56 512.79,-1167.39 502.21,-1166.84 504.18,-1173.56"/>
</g>
<!-- RFC5801 -->
<g id="node5" class="node">
<title>RFC5801</title>
<g id="a_node5"><a xlink:href="RFC5801.html" xlink:title="This document describes how to use a Generic Security Service Application Program Interface (GSS&#45;API) mechanism in the Simple Authentication and Security Layer (SASL) framework. &#160;This is done by defining a new SASL mechanism family, called GS2. &#160;This mechanism family offers a number of improvements over the previous SASL/ GSSAPI mechanism: it is more general, uses fewer messages for the authentication phase in some cases, and supports negotiable use of channel binding. &#160;Only GSS&#45;API mechanisms that support channel binding and mutual authentication are supported. [STANDARDS&#45;TRACK]" target="_top">
<ellipse fill="none" stroke="black" cx="1058.05" cy="-970.33" rx="187.91" ry="87.33"/>
<text xml:space="preserve" text-anchor="middle" x="1058.05" y="-1014.78" font-family="Times,serif" font-size="14.00">RFC5801</text>
<text xml:space="preserve" text-anchor="middle" x="1058.05" y="-998.28" font-family="Times,serif" font-size="14.00">Using Generic Security Service</text>
<text xml:space="preserve" text-anchor="middle" x="1058.05" y="-981.78" font-family="Times,serif" font-size="14.00">Application Program Interface (GSS&#45;API)</text>
<text xml:space="preserve" text-anchor="middle" x="1058.05" y="-965.28" font-family="Times,serif" font-size="14.00">Mechanisms in Simple Authentication and</text>
<text xml:space="preserve" text-anchor="middle" x="1058.05" y="-948.78" font-family="Times,serif" font-size="14.00">Security Layer (SASL): The GS2 Mechanism</text>
<text xml:space="preserve" text-anchor="middle" x="1058.05" y="-932.28" font-family="Times,serif" font-size="14.00">Family</text>
<text xml:space="preserve" text-anchor="middle" x="1058.05" y="-915.78" font-family="Times,serif" font-size="14.00">2010</text>
</a>
</g>
</g>
<!-- updates&#45;&gt;RFC5801 -->
<g id="edge4" class="edge">
<title>updates&#45;&gt;RFC5801</title>
<path fill="none" stroke="black" d="M807.53,-1120.85C817.81,-1104.77 834.45,-1081.69 853.69,-1066.33 869.2,-1053.94 886.57,-1042.69 904.45,-1032.61"/>
<polygon fill="black" stroke="black" points="906.02,-1035.74 913.1,-1027.86 902.65,-1029.6 906.02,-1035.74"/>
</g>
<!-- RFC5802 -->
<g id="node6" class="node">
<title>RFC5802</title>
<g id="a_node6"><a xlink:href="RFC5802.html" xlink:title="The secure authentication mechanism most widely deployed and used by Internet application protocols is the transmission of clear&#45;text passwords over a channel protected by Transport Layer Security (TLS). There are some significant security concerns with that mechanism, which could be addressed by the use of a challenge response authentication mechanism protected by TLS. Unfortunately, the challenge response mechanisms presently on the standards track all fail to meet requirements necessary for widespread deployment, and have had success only in limited use. This specification describes a family of Simple Authentication and Security Layer (SASL; RFC 4422) authentication mechanisms called the Salted Challenge Response Authentication Mechanism (SCRAM), which addresses the security concerns and meets the deployability requirements. When used in combination with TLS or an equivalent security layer, a mechanism from this family could improve the status quo for application protocol authentication and provide a suitable choice for a mandatory&#45;to&#45;implement mechanism for future application protocol standards. [STANDARDS&#45;TRACK]" target="_top">
<ellipse fill="none" stroke="black" cx="1058.05" cy="-1385.33" rx="180.49" ry="63.99"/>
<text xml:space="preserve" text-anchor="middle" x="1058.05" y="-1413.28" font-family="Times,serif" font-size="14.00">RFC5802</text>
<text xml:space="preserve" text-anchor="middle" x="1058.05" y="-1396.78" font-family="Times,serif" font-size="14.00">Salted Challenge Response Authentication</text>
<text xml:space="preserve" text-anchor="middle" x="1058.05" y="-1380.28" font-family="Times,serif" font-size="14.00">Mechanism (SCRAM) SASL and GSS&#45;API</text>
<text xml:space="preserve" text-anchor="middle" x="1058.05" y="-1363.78" font-family="Times,serif" font-size="14.00">Mechanisms</text>
<text xml:space="preserve" text-anchor="middle" x="1058.05" y="-1347.28" font-family="Times,serif" font-size="14.00">2010</text>
</a>
</g>
</g>
<!-- updates&#45;&gt;RFC5802 -->
<g id="edge5" class="edge">
<title>updates&#45;&gt;RFC5802</title>
<path fill="none" stroke="black" d="M821.98,-1157.5C824.55,-1160.21 826.88,-1163.17 828.69,-1166.33 861.45,-1223.43 811.39,-1261.88 853.69,-1312.33 865.07,-1325.89 879.17,-1336.94 894.59,-1345.93"/>
<polygon fill="black" stroke="black" points="892.57,-1348.82 903.03,-1350.54 895.93,-1342.67 892.57,-1348.82"/>
</g>
<!-- RFC5929 -->
<g id="node7" class="node">
<title>RFC5929</title>
<g id="a_node7"><a xlink:href="RFC5929.html" xlink:title="This document defines three channel binding types for Transport Layer Security (TLS), tls&#45;unique, tls&#45;server&#45;end&#45;point, and tls&#45;unique&#45;for&#45;telnet, in accordance with RFC 5056 (On Channel Binding). Note that based on implementation experience, this document changes the original definition of &#39;tls&#45;unique&#39; channel binding type in the channel binding type IANA registry. [STANDARDS&#45;TRACK]" target="_top">
<ellipse fill="none" stroke="black" cx="1058.05" cy="-1262.33" rx="113.14" ry="40.66"/>
<text xml:space="preserve" text-anchor="middle" x="1058.05" y="-1273.78" font-family="Times,serif" font-size="14.00">RFC5929</text>
<text xml:space="preserve" text-anchor="middle" x="1058.05" y="-1257.28" font-family="Times,serif" font-size="14.00">Channel Bindings for TLS</text>
<text xml:space="preserve" text-anchor="middle" x="1058.05" y="-1240.78" font-family="Times,serif" font-size="14.00">2010</text>
</a>
</g>
</g>
<!-- updates&#45;&gt;RFC5929 -->
<g id="edge6" class="edge">
<title>updates&#45;&gt;RFC5929</title>
<path fill="none" stroke="black" d="M820.36,-1157.54C823.34,-1160.32 826.2,-1163.28 828.69,-1166.33 843.41,-1184.35 835.27,-1198.11 853.69,-1212.33 877.56,-1230.74 907.3,-1242.47 936.6,-1249.91"/>
<polygon fill="black" stroke="black" points="935.78,-1253.31 946.32,-1252.21 937.39,-1246.5 935.78,-1253.31"/>
</g>
<!-- RFC7677 -->
<g id="node8" class="node">
<title>RFC7677</title>
<g id="a_node8"><a xlink:href="RFC7677.html" xlink:title="This document registers the Simple Authentication and Security Layer (SASL) mechanisms SCRAM&#45;SHA&#45;256 and SCRAM&#45;SHA&#45;256&#45;PLUS, provides guidance for secure implementation of the original SCRAM&#45;SHA&#45;1&#45;PLUS mechanism, and updates the SCRAM registration procedures of RFC 5802." target="_top">
<ellipse fill="none" stroke="black" cx="1058.05" cy="-1139.33" rx="204.35" ry="63.99"/>
<text xml:space="preserve" text-anchor="middle" x="1058.05" y="-1167.28" font-family="Times,serif" font-size="14.00">RFC7677</text>
<text xml:space="preserve" text-anchor="middle" x="1058.05" y="-1150.78" font-family="Times,serif" font-size="14.00">SCRAM&#45;SHA&#45;256 and SCRAM&#45;SHA&#45;256&#45;PLUS</text>
<text xml:space="preserve" text-anchor="middle" x="1058.05" y="-1134.28" font-family="Times,serif" font-size="14.00">Simple Authentication and Security Layer</text>
<text xml:space="preserve" text-anchor="middle" x="1058.05" y="-1117.78" font-family="Times,serif" font-size="14.00">(SASL) Mechanisms</text>
<text xml:space="preserve" text-anchor="middle" x="1058.05" y="-1101.28" font-family="Times,serif" font-size="14.00">2015</text>
</a>
</g>
</g>
<!-- updates&#45;&gt;RFC7677 -->
<g id="edge7" class="edge">
<title>updates&#45;&gt;RFC7677</title>
<path fill="none" stroke="black" d="M824.44,-1139.33C829.74,-1139.33 835.65,-1139.33 842.04,-1139.33"/>
<polygon fill="black" stroke="black" points="841.71,-1142.83 851.71,-1139.33 841.71,-1135.83 841.71,-1142.83"/>
</g>
<!-- updated_by -->
<g id="node9" class="node">
<title>updated_by</title>
<polygon fill="lightyellow" stroke="black" points="451.97,-1157.33 394.72,-1157.33 394.72,-1121.33 451.97,-1121.33 451.97,-1157.33"/>
<text xml:space="preserve" text-anchor="middle" x="423.35" y="-1134.28" font-family="Times,serif" font-size="14.00">updates</text>
</g>
<!-- updated_by&#45;&gt;RFC9266 -->
<g id="edge8" class="edge">
<title>updated_by&#45;&gt;RFC9266</title>
<path fill="none" stroke="black" d="M452.31,-1139.33C457.72,-1139.33 463.72,-1139.33 470.13,-1139.33"/>
<polygon fill="black" stroke="black" points="469.74,-1142.83 479.74,-1139.33 469.74,-1135.83 469.74,-1142.83"/>
</g>
<!-- cites&#45;&gt;RFC5801 -->
<g id="edge18" class="edge">
<title>cites&#45;&gt;RFC5801</title>
<path fill="none" stroke="black" d="M800.96,-769.74C808.02,-795.81 824.2,-843.62 853.69,-873.33 867.53,-887.26 883.76,-899.46 900.91,-910.07"/>
<polygon fill="black" stroke="black" points="898.84,-912.91 909.23,-915.03 902.43,-906.9 898.84,-912.91"/>
</g>
<!-- cites&#45;&gt;RFC5802 -->
<g id="edge16" class="edge">
<title>cites&#45;&gt;RFC5802</title>
<path fill="none" stroke="black" d="M798.16,-769.6C806.5,-864.93 845.1,-1301.34 853.69,-1312.33 864.6,-1326.27 878.4,-1337.56 893.66,-1346.69"/>
<polygon fill="black" stroke="black" points="891.57,-1349.53 902.01,-1351.36 894.99,-1343.42 891.57,-1349.53"/>
</g>
<!-- cites&#45;&gt;RFC5929 -->
<g id="edge10" class="edge">
<title>cites&#45;&gt;RFC5929</title>
<path fill="none" stroke="black" d="M798.27,-769.78C806.06,-853.63 838.66,-1195.41 853.69,-1212.33 874.29,-1235.5 903.73,-1248.78 933.83,-1256.19"/>
<polygon fill="black" stroke="black" points="932.94,-1259.58 943.46,-1258.34 934.46,-1252.75 932.94,-1259.58"/>
</g>
<!-- cites&#45;&gt;RFC7677 -->
<g id="edge17" class="edge">
<title>cites&#45;&gt;RFC7677</title>
<path fill="none" stroke="black" d="M797.52,-769.47C801.03,-829.54 815.08,-1020.74 853.69,-1066.33 862.88,-1077.17 873.79,-1086.4 885.73,-1094.26"/>
<polygon fill="black" stroke="black" points="883.87,-1097.22 894.22,-1099.48 887.53,-1091.26 883.87,-1097.22"/>
</g>
<!-- RFC7627 -->
<g id="node11" class="node">
<title>RFC7627</title>
<g id="a_node11"><a xlink:href="RFC7627.html" xlink:title="The Transport Layer Security (TLS) master secret is not cryptographically bound to important session parameters such as the server certificate. &#160;Consequently, it is possible for an active attacker to set up two sessions, one with a client and another with a server, such that the master secrets on the two sessions are the same. &#160;Thereafter, any mechanism that relies on the master secret for authentication, including session resumption, becomes vulnerable to a man&#45;in&#45;the&#45;middle attack, where the attacker can simply forward messages back and forth between the client and server. &#160;This specification defines a TLS extension that contextually binds the master secret to a log of the full handshake that computes it, thus preventing such attacks." target="_top">
<ellipse fill="none" stroke="black" cx="1058.05" cy="-186.33" rx="165.64" ry="63.99"/>
<text xml:space="preserve" text-anchor="middle" x="1058.05" y="-214.28" font-family="Times,serif" font-size="14.00">RFC7627</text>
<text xml:space="preserve" text-anchor="middle" x="1058.05" y="-197.78" font-family="Times,serif" font-size="14.00">Transport Layer Security (TLS) Session</text>
<text xml:space="preserve" text-anchor="middle" x="1058.05" y="-181.28" font-family="Times,serif" font-size="14.00">Hash and Extended Master Secret</text>
<text xml:space="preserve" text-anchor="middle" x="1058.05" y="-164.78" font-family="Times,serif" font-size="14.00">Extension</text>
<text xml:space="preserve" text-anchor="middle" x="1058.05" y="-148.28" font-family="Times,serif" font-size="14.00">2015</text>
</a>
</g>
</g>
<!-- cites&#45;&gt;RFC7627 -->
<g id="edge11" class="edge">
<title>cites&#45;&gt;RFC7627</title>
<path fill="none" stroke="black" d="M796.2,-732.92C794.98,-652.73 794.02,-334.51 853.69,-259.33 866.33,-243.4 882.74,-230.94 900.75,-221.2"/>
<polygon fill="black" stroke="black" points="902.21,-224.39 909.56,-216.75 899.05,-218.14 902.21,-224.39"/>
</g>
<!-- RFC8446 -->
<g id="node12" class="node">
<title>RFC8446</title>
<g id="a_node12"><a xlink:href="RFC8446.html" xlink:title="This document specifies version 1.3 of the Transport Layer Security (TLS) protocol. TLS allows client/server applications to communicate over the Internet in a way that is designed to prevent eavesdropping, tampering, and message forgery. This document updates RFCs 5705 and 6066, and obsoletes RFCs 5077, 5246, and 6961. This document also specifies new requirements for TLS 1.2 implementations." target="_top">
<ellipse fill="none" stroke="black" cx="1058.05" cy="-52.33" rx="150.79" ry="52.33"/>
<text xml:space="preserve" text-anchor="middle" x="1058.05" y="-72.03" font-family="Times,serif" font-size="14.00">RFC8446</text>
<text xml:space="preserve" text-anchor="middle" x="1058.05" y="-55.53" font-family="Times,serif" font-size="14.00">The Transport Layer Security (TLS)</text>
<text xml:space="preserve" text-anchor="middle" x="1058.05" y="-39.03" font-family="Times,serif" font-size="14.00">Protocol Version 1.3</text>
<text xml:space="preserve" text-anchor="middle" x="1058.05" y="-22.53" font-family="Times,serif" font-size="14.00">2018</text>
</a>
</g>
</g>
<!-- cites&#45;&gt;RFC8446 -->
<g id="edge12" class="edge">
<title>cites&#45;&gt;RFC8446</title>
<path fill="none" stroke="black" d="M797.01,-732.85C799.52,-633.22 813.49,-162.6 853.69,-113.33 867.48,-96.42 885.77,-84.08 905.73,-75.08"/>
<polygon fill="black" stroke="black" points="907.02,-78.33 914.91,-71.26 904.33,-71.87 907.02,-78.33"/>
</g>
<!-- RFC5705 -->
<g id="node13" class="node">
<title>RFC5705</title>
<g id="a_node13"><a xlink:href="RFC5705.html" xlink:title="A number of protocols wish to leverage Transport Layer Security (TLS) to perform key establishment but then use some of the keying material for their own purposes. &#160;This document describes a general mechanism for allowing that. [STANDARDS&#45;TRACK]" target="_top">
<ellipse fill="none" stroke="black" cx="1058.05" cy="-812.33" rx="167.76" ry="52.33"/>
<text xml:space="preserve" text-anchor="middle" x="1058.05" y="-832.03" font-family="Times,serif" font-size="14.00">RFC5705</text>
<text xml:space="preserve" text-anchor="middle" x="1058.05" y="-815.53" font-family="Times,serif" font-size="14.00">Keying Material Exporters for Transport</text>
<text xml:space="preserve" text-anchor="middle" x="1058.05" y="-799.03" font-family="Times,serif" font-size="14.00">Layer Security (TLS)</text>
<text xml:space="preserve" text-anchor="middle" x="1058.05" y="-782.53" font-family="Times,serif" font-size="14.00">2010</text>
</a>
</g>
</g>
<!-- cites&#45;&gt;RFC5705 -->
<g id="edge13" class="edge">
<title>cites&#45;&gt;RFC5705</title>
<path fill="none" stroke="black" d="M822.98,-757.51C844.8,-762.62 877.66,-770.32 911.92,-778.34"/>
<polygon fill="black" stroke="black" points="911.07,-781.73 921.6,-780.61 912.67,-774.92 911.07,-781.73"/>
</g>
<!-- RFC2119 -->
<g id="node14" class="node">
<title>RFC2119</title>
<g id="a_node14"><a xlink:href="RFC2119.html" xlink:title="In many standards track documents several words are used to signify the requirements in the specification. &#160;These words are often capitalized. &#160;This document defines these words as they should be interpreted in IETF documents. &#160;This document specifies an Internet Best Current Practices for the Internet Community, and requests discussion and suggestions for improvements." target="_top">
<ellipse fill="none" stroke="black" cx="1058.05" cy="-689.33" rx="160.34" ry="52.33"/>
<text xml:space="preserve" text-anchor="middle" x="1058.05" y="-709.03" font-family="Times,serif" font-size="14.00">RFC2119</text>
<text xml:space="preserve" text-anchor="middle" x="1058.05" y="-692.53" font-family="Times,serif" font-size="14.00">Key words for use in RFCs to Indicate</text>
<text xml:space="preserve" text-anchor="middle" x="1058.05" y="-676.03" font-family="Times,serif" font-size="14.00">Requirement Levels</text>
<text xml:space="preserve" text-anchor="middle" x="1058.05" y="-659.53" font-family="Times,serif" font-size="14.00">1997</text>
</a>
</g>
</g>
<!-- cites&#45;&gt;RFC2119 -->
<g id="edge14" class="edge">
<title>cites&#45;&gt;RFC2119</title>
<path fill="none" stroke="black" d="M822.98,-745.04C845.78,-739.61 880.62,-731.32 916.51,-722.78"/>
<polygon fill="black" stroke="black" points="917.28,-726.19 926.2,-720.47 915.66,-719.38 917.28,-726.19"/>
</g>
<!-- RFC8174 -->
<g id="node15" class="node">
<title>RFC8174</title>
<g id="a_node15"><a xlink:href="RFC8174.html" xlink:title="RFC 2119 specifies common key words that may be used in protocol specifications. &#160;This document aims to reduce the ambiguity by clarifying that only UPPERCASE usage of the key words have the defined special meanings." target="_top">
<ellipse fill="none" stroke="black" cx="1058.05" cy="-566.33" rx="172" ry="52.33"/>
<text xml:space="preserve" text-anchor="middle" x="1058.05" y="-586.03" font-family="Times,serif" font-size="14.00">RFC8174</text>
<text xml:space="preserve" text-anchor="middle" x="1058.05" y="-569.53" font-family="Times,serif" font-size="14.00">Ambiguity of Uppercase vs Lowercase in</text>
<text xml:space="preserve" text-anchor="middle" x="1058.05" y="-553.03" font-family="Times,serif" font-size="14.00">RFC 2119 Key Words</text>
<text xml:space="preserve" text-anchor="middle" x="1058.05" y="-536.53" font-family="Times,serif" font-size="14.00">2017</text>
</a>
</g>
</g>
<!-- cites&#45;&gt;RFC8174 -->
<g id="edge15" class="edge">
<title>cites&#45;&gt;RFC8174</title>
<path fill="none" stroke="black" d="M800.13,-733.04C806.3,-706.2 821.54,-656.3 853.69,-628.33 867.72,-616.12 884.1,-606.32 901.36,-598.45"/>
<polygon fill="black" stroke="black" points="902.42,-601.81 910.22,-594.64 899.65,-595.38 902.42,-601.81"/>
</g>
<!-- RFC5246 -->
<g id="node16" class="node">
<title>RFC5246</title>
<g id="a_node16"><a xlink:href="RFC5246.html" xlink:title="This document specifies Version 1.2 of the Transport Layer Security (TLS) protocol. &#160;The TLS protocol provides communications security over the Internet. &#160;The protocol allows client/server applications to communicate in a way that is designed to prevent eavesdropping, tampering, or message forgery. [STANDARDS&#45;TRACK]" target="_top">
<ellipse fill="none" stroke="black" cx="1058.05" cy="-443.33" rx="150.79" ry="52.33"/>
<text xml:space="preserve" text-anchor="middle" x="1058.05" y="-463.03" font-family="Times,serif" font-size="14.00">RFC5246</text>
<text xml:space="preserve" text-anchor="middle" x="1058.05" y="-446.53" font-family="Times,serif" font-size="14.00">The Transport Layer Security (TLS)</text>
<text xml:space="preserve" text-anchor="middle" x="1058.05" y="-430.03" font-family="Times,serif" font-size="14.00">Protocol Version 1.2</text>
<text xml:space="preserve" text-anchor="middle" x="1058.05" y="-413.53" font-family="Times,serif" font-size="14.00">2008</text>
</a>
</g>
</g>
<!-- cites&#45;&gt;RFC5246 -->
<g id="edge19" class="edge">
<title>cites&#45;&gt;RFC5246</title>
<path fill="none" stroke="black" d="M798.47,-732.88C804.13,-681.58 822.41,-538.8 853.69,-505.33 868.78,-489.18 887.94,-477.19 908.44,-468.3"/>
<polygon fill="black" stroke="black" points="909.57,-471.62 917.52,-464.63 906.94,-465.13 909.57,-471.62"/>
</g>
<!-- RFC5056 -->
<g id="node17" class="node">
<title>RFC5056</title>
<g id="a_node17"><a xlink:href="RFC5056.html" xlink:title="The concept of channel binding allows applications to establish that the two end&#45;points of a secure channel at one network layer are the same as at a higher layer by binding authentication at the higher layer to the channel at the lower layer. This allows applications to delegate session protection to lower layers, which has various performance benefits. This document discusses and formalizes the concept of channel binding to secure channels. [STANDARDS&#45;TRACK]" target="_top">
<ellipse fill="none" stroke="black" cx="1058.05" cy="-320.33" rx="175.72" ry="52.33"/>
<text xml:space="preserve" text-anchor="middle" x="1058.05" y="-340.03" font-family="Times,serif" font-size="14.00">RFC5056</text>
<text xml:space="preserve" text-anchor="middle" x="1058.05" y="-323.53" font-family="Times,serif" font-size="14.00">On the Use of Channel Bindings to Secure</text>
<text xml:space="preserve" text-anchor="middle" x="1058.05" y="-307.03" font-family="Times,serif" font-size="14.00">Channels</text>
<text xml:space="preserve" text-anchor="middle" x="1058.05" y="-290.53" font-family="Times,serif" font-size="14.00">2007</text>
</a>
</g>
</g>
<!-- cites&#45;&gt;RFC5056 -->
<g id="edge20" class="edge">
<title>cites&#45;&gt;RFC5056</title>
<path fill="none" stroke="black" d="M796.91,-732.88C798.53,-665.76 807.41,-435.72 853.69,-382.33 864.9,-369.4 878.71,-359.12 893.82,-350.96"/>
<polygon fill="black" stroke="black" points="895.2,-354.18 902.57,-346.57 892.06,-347.92 895.2,-354.18"/>
</g>
<!-- rev_cites -->
<g id="node18" class="node">
<title>rev_cites</title>
<polygon fill="lightblue" stroke="black" points="450.35,-1103.33 396.35,-1103.33 396.35,-1067.33 450.35,-1067.33 450.35,-1103.33"/>
<text xml:space="preserve" text-anchor="middle" x="423.35" y="-1080.28" font-family="Times,serif" font-size="14.00">cites</text>
</g>
<!-- rev_cites&#45;&gt;RFC9266 -->
<g id="edge21" class="edge">
<title>rev_cites&#45;&gt;RFC9266</title>
<path fill="none" stroke="black" d="M450.72,-1093.06C465.07,-1097.27 483.86,-1102.78 503.44,-1108.52"/>
<polygon fill="black" stroke="black" points="502.35,-1111.85 512.93,-1111.31 504.32,-1105.13 502.35,-1111.85"/>
</g>
<!-- RFC9289 -->
<g id="node19" class="node">
<title>RFC9289</title>
<g id="a_node19"><a xlink:href="RFC9289.html" xlink:title="This document describes a mechanism that, through the use of opportunistic Transport Layer Security (TLS), enables encryption of Remote Procedure Call (RPC) transactions while they are in transit. &#160;The proposed mechanism interoperates with Open Network Computing (ONC) RPC implementations that do not support it. &#160;This document updates RFC 5531." target="_top">
<ellipse fill="none" stroke="black" cx="182.61" cy="-1085.33" rx="182.61" ry="52.33"/>
<text xml:space="preserve" text-anchor="middle" x="182.61" y="-1105.03" font-family="Times,serif" font-size="14.00">RFC9289</text>
<text xml:space="preserve" text-anchor="middle" x="182.61" y="-1088.53" font-family="Times,serif" font-size="14.00">Towards Remote Procedure Call Encryption</text>
<text xml:space="preserve" text-anchor="middle" x="182.61" y="-1072.03" font-family="Times,serif" font-size="14.00">by Default</text>
<text xml:space="preserve" text-anchor="middle" x="182.61" y="-1055.53" font-family="Times,serif" font-size="14.00">2022</text>
</a>
</g>
</g>
<!-- RFC9289&#45;&gt;rev_cites -->
<g id="edge22" class="edge">
<title>RFC9289&#45;&gt;rev_cites</title>
<path fill="none" stroke="black" d="M365.47,-1085.33C372.24,-1085.33 378.65,-1085.33 384.54,-1085.33"/>
<polygon fill="black" stroke="black" points="384.37,-1088.83 394.37,-1085.33 384.37,-1081.83 384.37,-1088.83"/>
</g>
</g>
</svg>
