<?xml version="1.0" encoding="UTF-8" standalone="no"?>
<!DOCTYPE svg PUBLIC "-//W3C//DTD SVG 1.1//EN"
 "http://www.w3.org/Graphics/SVG/1.1/DTD/svg11.dtd">
<!-- Generated by graphviz version 14.1.1 (20251213.1925)
 -->
<!-- Title: Flow Pages: 1 -->
<svg width="1361pt" height="1385pt"
 viewBox="0.00 0.00 1361.00 1385.00" xmlns="http://www.w3.org/2000/svg" xmlns:xlink="http://www.w3.org/1999/xlink">
<g id="graph0" class="graph" transform="scale(1 1) rotate(0) translate(4 1380.56)">
<title>Flow</title>
<polygon fill="white" stroke="none" points="-4,4 -4,-1380.56 1357.16,-1380.56 1357.16,4 -4,4"/>
<!-- RFC9614 -->
<g id="node1" class="node">
<title>RFC9614</title>
<g id="a_node1"><a xlink:title="This document describes the principle of privacy partitioning, which selectively spreads data and communication across multiple parties as a means to improve privacy by separating user identity from user data. &#160;This document describes emerging patterns in protocols to partition what data and metadata is revealed through protocol interactions, provides common terminology, and discusses how to analyze such models.">
<ellipse fill="green" stroke="black" stroke-width="3" cx="949.5" cy="-547.58" rx="186.85" ry="65.05"/>
<text xml:space="preserve" text-anchor="middle" x="949.5" y="-572.48" font-family="Times,serif" font-size="18.00">RFC9614</text>
<text xml:space="preserve" text-anchor="middle" x="949.5" y="-551.48" font-family="Times,serif" font-size="18.00">Partitioning as an Architecture for</text>
<text xml:space="preserve" text-anchor="middle" x="949.5" y="-530.48" font-family="Times,serif" font-size="18.00">Privacy</text>
<text xml:space="preserve" text-anchor="middle" x="949.5" y="-509.48" font-family="Times,serif" font-size="18.00">2024</text>
</a>
</g>
</g>
<!-- obs -->
<g id="node3" class="node">
<title>obs</title>
<polygon fill="lightblue" stroke="black" points="1353.16,-700.45 1286.91,-700.45 1286.91,-664.45 1353.16,-664.45 1353.16,-700.45"/>
<text xml:space="preserve" text-anchor="middle" x="1320.04" y="-677.4" font-family="Times,serif" font-size="14.00">obsoletes</text>
</g>
<!-- RFC9614&#45;&gt;obs -->
<g id="edge2" class="edge">
<title>RFC9614&#45;&gt;obs</title>
<path fill="none" stroke="black" d="M1080.66,-595.32C1149.03,-620.21 1228.18,-649.01 1276.15,-666.47"/>
<polygon fill="black" stroke="black" points="1274.76,-669.69 1285.35,-669.82 1277.15,-663.11 1274.76,-669.69"/>
</g>
<!-- updates -->
<g id="node4" class="node">
<title>updates</title>
<polygon fill="lightyellow" stroke="black" points="1175.28,-907.07 1118.03,-907.07 1118.03,-871.07 1175.28,-871.07 1175.28,-907.07"/>
<text xml:space="preserve" text-anchor="middle" x="1146.66" y="-884.02" font-family="Times,serif" font-size="14.00">updates</text>
</g>
<!-- RFC9614&#45;&gt;updates -->
<g id="edge3" class="edge">
<title>RFC9614&#45;&gt;updates</title>
<path fill="none" stroke="black" d="M987.05,-612.62C1030.2,-687.36 1099.08,-806.67 1130.31,-860.76"/>
<polygon fill="black" stroke="black" points="1127.25,-862.46 1135.28,-869.37 1133.31,-858.96 1127.25,-862.46"/>
</g>
<!-- cites -->
<g id="node6" class="node">
<title>cites</title>
<polygon fill="lightblue" stroke="black" points="605.96,-700.45 551.96,-700.45 551.96,-664.45 605.96,-664.45 605.96,-700.45"/>
<text xml:space="preserve" text-anchor="middle" x="578.96" y="-677.4" font-family="Times,serif" font-size="14.00">cites</text>
</g>
<!-- RFC9614&#45;&gt;cites -->
<g id="edge5" class="edge">
<title>RFC9614&#45;&gt;cites</title>
<path fill="none" stroke="black" d="M818.34,-595.32C747.03,-621.28 663.99,-651.5 616.84,-668.66"/>
<polygon fill="black" stroke="black" points="615.84,-665.3 607.64,-672.01 618.23,-671.88 615.84,-665.3"/>
</g>
<!-- obs_by -->
<g id="node2" class="node">
<title>obs_by</title>
<polygon fill="lightblue" stroke="black" points="914.15,-177.26 847.9,-177.26 847.9,-141.26 914.15,-141.26 914.15,-177.26"/>
<text xml:space="preserve" text-anchor="middle" x="881.03" y="-154.21" font-family="Times,serif" font-size="14.00">obsoletes</text>
</g>
<!-- obs_by&#45;&gt;RFC9614 -->
<g id="edge1" class="edge">
<title>obs_by&#45;&gt;RFC9614</title>
<path fill="none" stroke="black" d="M884.29,-177.72C893.39,-229.38 919.53,-377.59 935.81,-469.96"/>
<polygon fill="black" stroke="black" points="932.35,-470.48 937.54,-479.72 939.25,-469.26 932.35,-470.48"/>
</g>
<!-- updated_by -->
<g id="node5" class="node">
<title>updated_by</title>
<polygon fill="lightyellow" stroke="black" points="1175.28,-224.09 1118.03,-224.09 1118.03,-188.09 1175.28,-188.09 1175.28,-224.09"/>
<text xml:space="preserve" text-anchor="middle" x="1146.66" y="-201.04" font-family="Times,serif" font-size="14.00">updates</text>
</g>
<!-- updated_by&#45;&gt;RFC9614 -->
<g id="edge4" class="edge">
<title>updated_by&#45;&gt;RFC9614</title>
<path fill="none" stroke="black" d="M1136.06,-224.45C1109.5,-270.45 1038.94,-392.66 992.61,-472.91"/>
<polygon fill="black" stroke="black" points="989.81,-470.76 987.85,-481.17 995.88,-474.26 989.81,-470.76"/>
</g>
<!-- RFC6973 -->
<g id="node7" class="node">
<title>RFC6973</title>
<g id="a_node7"><a xlink:href="RFC6973.html" xlink:title="This document offers guidance for developing privacy considerations for inclusion in protocol specifications. &#160;It aims to make designers, implementers, and users of Internet protocols aware of privacy&#45;related design choices. &#160;It suggests that whether any individual RFC warrants a specific privacy considerations section will depend on the document&#39;s content." target="_top">
<ellipse fill="none" stroke="black" cx="812.56" cy="-1324.24" rx="146.55" ry="52.33"/>
<text xml:space="preserve" text-anchor="middle" x="812.56" y="-1343.94" font-family="Times,serif" font-size="14.00">RFC6973</text>
<text xml:space="preserve" text-anchor="middle" x="812.56" y="-1327.44" font-family="Times,serif" font-size="14.00">Privacy Considerations for Internet</text>
<text xml:space="preserve" text-anchor="middle" x="812.56" y="-1310.94" font-family="Times,serif" font-size="14.00">Protocols</text>
<text xml:space="preserve" text-anchor="middle" x="812.56" y="-1294.44" font-family="Times,serif" font-size="14.00">2013</text>
</a>
</g>
</g>
<!-- cites&#45;&gt;RFC6973 -->
<g id="edge6" class="edge">
<title>cites&#45;&gt;RFC6973</title>
<path fill="none" stroke="black" d="M585.58,-700.62C615.43,-782.63 738.34,-1120.34 789.77,-1261.63"/>
<polygon fill="black" stroke="black" points="786.41,-1262.65 793.12,-1270.85 792.99,-1260.25 786.41,-1262.65"/>
</g>
<!-- RFC9576 -->
<g id="node8" class="node">
<title>RFC9576</title>
<g id="a_node8"><a xlink:href="RFC9576.html" xlink:title="This document specifies the Privacy Pass architecture and requirements for its constituent protocols used for authorization based on privacy&#45;preserving authentication mechanisms. &#160;It describes the conceptual model of Privacy Pass and its protocols, its security and privacy goals, practical deployment models, and recommendations for each deployment model, to help ensure that the desired security and privacy goals are fulfilled." target="_top">
<ellipse fill="none" stroke="black" cx="345.37" cy="-1054.51" rx="127.46" ry="40.66"/>
<text xml:space="preserve" text-anchor="middle" x="345.37" y="-1065.96" font-family="Times,serif" font-size="14.00">RFC9576</text>
<text xml:space="preserve" text-anchor="middle" x="345.37" y="-1049.46" font-family="Times,serif" font-size="14.00">The Privacy Pass Architecture</text>
<text xml:space="preserve" text-anchor="middle" x="345.37" y="-1032.96" font-family="Times,serif" font-size="14.00">2024</text>
</a>
</g>
</g>
<!-- cites&#45;&gt;RFC9576 -->
<g id="edge7" class="edge">
<title>cites&#45;&gt;RFC9576</title>
<path fill="none" stroke="black" d="M567.38,-700.9C532.76,-756.05 429.2,-920.99 376.67,-1004.66"/>
<polygon fill="black" stroke="black" points="373.84,-1002.59 371.48,-1012.92 379.76,-1006.31 373.84,-1002.59"/>
</g>
<!-- RFC8981 -->
<g id="node9" class="node">
<title>RFC8981</title>
<g id="a_node9"><a xlink:href="RFC8981.html" xlink:title="This document describes an extension to IPv6 Stateless Address Autoconfiguration that causes hosts to generate temporary addresses with randomized interface identifiers for each prefix advertised with autoconfiguration enabled. &#160;Changing addresses over time limits the window of time during which eavesdroppers and other information collectors may trivially perform address&#45;based network&#45;activity correlation when the same address is employed for multiple transactions by the same host. &#160;Additionally, it reduces the window of exposure of a host as being accessible via an address that becomes revealed as a result of active communication. &#160;This document obsoletes RFC 4941." target="_top">
<ellipse fill="none" stroke="black" cx="160.87" cy="-547.58" rx="160.87" ry="63.99"/>
<text xml:space="preserve" text-anchor="middle" x="160.87" y="-575.53" font-family="Times,serif" font-size="14.00">RFC8981</text>
<text xml:space="preserve" text-anchor="middle" x="160.87" y="-559.03" font-family="Times,serif" font-size="14.00">Temporary Address Extensions for</text>
<text xml:space="preserve" text-anchor="middle" x="160.87" y="-542.53" font-family="Times,serif" font-size="14.00">Stateless Address Autoconfiguration in</text>
<text xml:space="preserve" text-anchor="middle" x="160.87" y="-526.03" font-family="Times,serif" font-size="14.00">IPv6</text>
<text xml:space="preserve" text-anchor="middle" x="160.87" y="-509.53" font-family="Times,serif" font-size="14.00">2021</text>
</a>
</g>
</g>
<!-- cites&#45;&gt;RFC8981 -->
<g id="edge8" class="edge">
<title>cites&#45;&gt;RFC8981</title>
<path fill="none" stroke="black" d="M551.53,-673.6C500.59,-657.17 388.28,-620.94 297.09,-591.52"/>
<polygon fill="black" stroke="black" points="298.39,-588.27 287.8,-588.53 296.25,-594.93 298.39,-588.27"/>
</g>
<!-- RFC8030 -->
<g id="node10" class="node">
<title>RFC8030</title>
<g id="a_node10"><a xlink:href="RFC8030.html" xlink:title="This document describes a simple protocol for the delivery of real&#45; time events to user agents. &#160;This scheme uses HTTP/2 server push." target="_top">
<ellipse fill="none" stroke="black" cx="345.37" cy="-40.66" rx="175.19" ry="40.66"/>
<text xml:space="preserve" text-anchor="middle" x="345.37" y="-52.11" font-family="Times,serif" font-size="14.00">RFC8030</text>
<text xml:space="preserve" text-anchor="middle" x="345.37" y="-35.61" font-family="Times,serif" font-size="14.00">Generic Event Delivery Using HTTP Push</text>
<text xml:space="preserve" text-anchor="middle" x="345.37" y="-19.11" font-family="Times,serif" font-size="14.00">2016</text>
</a>
</g>
</g>
<!-- cites&#45;&gt;RFC8030 -->
<g id="edge9" class="edge">
<title>cites&#45;&gt;RFC8030</title>
<path fill="none" stroke="black" d="M572.35,-664.27C541.69,-580.05 412.87,-226.11 364.15,-92.24"/>
<polygon fill="black" stroke="black" points="367.46,-91.11 360.75,-82.91 360.88,-93.5 367.46,-91.11"/>
</g>
<!-- rev_cites -->
<g id="node11" class="node">
<title>rev_cites</title>
<polygon fill="lightblue" stroke="black" points="1347.04,-430.72 1293.04,-430.72 1293.04,-394.72 1347.04,-394.72 1347.04,-430.72"/>
<text xml:space="preserve" text-anchor="middle" x="1320.04" y="-407.67" font-family="Times,serif" font-size="14.00">cites</text>
</g>
<!-- rev_cites&#45;&gt;RFC9614 -->
<g id="edge10" class="edge">
<title>rev_cites&#45;&gt;RFC9614</title>
<path fill="none" stroke="black" d="M1292.79,-422.64C1250.33,-438.09 1165.49,-468.97 1090.78,-496.16"/>
<polygon fill="black" stroke="black" points="1089.93,-492.75 1081.73,-499.46 1092.32,-499.33 1089.93,-492.75"/>
</g>
</g>
</svg>
