<?xml version="1.0" encoding="UTF-8" standalone="no"?>
<!DOCTYPE svg PUBLIC "-//W3C//DTD SVG 1.1//EN"
 "http://www.w3.org/Graphics/SVG/1.1/DTD/svg11.dtd">
<!-- Generated by graphviz version 14.1.1 (20251213.1925)
 -->
<!-- Title: Flow Pages: 1 -->
<svg width="1259pt" height="803pt"
 viewBox="0.00 0.00 1259.00 803.00" xmlns="http://www.w3.org/2000/svg" xmlns:xlink="http://www.w3.org/1999/xlink">
<g id="graph0" class="graph" transform="scale(1 1) rotate(0) translate(4 798.98)">
<title>Flow</title>
<polygon fill="white" stroke="none" points="-4,4 -4,-798.98 1254.73,-798.98 1254.73,4 -4,4"/>
<!-- RFC9459 -->
<g id="node1" class="node">
<title>RFC9459</title>
<g id="a_node1"><a xlink:title="The Concise Binary Object Representation (CBOR) data format is designed for small code size and small message size. &#160;CBOR Object Signing and Encryption (COSE) is specified in RFC 9052 to provide basic security services using the CBOR data format. &#160;This document specifies the conventions for using AES&#45;CTR and AES&#45;CBC as content encryption algorithms with COSE.">
<ellipse fill="none" stroke="black" cx="631.2" cy="-427.66" rx="159.28" ry="52.33"/>
<text xml:space="preserve" text-anchor="middle" x="631.2" y="-447.36" font-family="Times,serif" font-size="14.00">RFC9459</text>
<text xml:space="preserve" text-anchor="middle" x="631.2" y="-430.86" font-family="Times,serif" font-size="14.00">CBOR Object Signing and Encryption</text>
<text xml:space="preserve" text-anchor="middle" x="631.2" y="-414.36" font-family="Times,serif" font-size="14.00">(COSE): AES&#45;CTR and AES&#45;CBC</text>
<text xml:space="preserve" text-anchor="middle" x="631.2" y="-397.86" font-family="Times,serif" font-size="14.00">2023</text>
</a>
</g>
</g>
<!-- obs -->
<g id="node3" class="node">
<title>obs</title>
<polygon fill="none" stroke="black" points="881.73,-499.66 815.48,-499.66 815.48,-463.66 881.73,-463.66 881.73,-499.66"/>
<text xml:space="preserve" text-anchor="middle" x="848.6" y="-476.61" font-family="Times,serif" font-size="14.00">obsoletes</text>
</g>
<!-- RFC9459&#45;&gt;obs -->
<g id="edge2" class="edge">
<title>RFC9459&#45;&gt;obs</title>
<path fill="none" stroke="black" d="M758.75,-459.38C775.06,-463.47 790.77,-467.41 804.34,-470.81"/>
<polygon fill="black" stroke="black" points="803.17,-474.13 813.72,-473.16 804.87,-467.34 803.17,-474.13"/>
</g>
<!-- updates -->
<g id="node4" class="node">
<title>updates</title>
<polygon fill="none" stroke="black" points="877.23,-445.66 819.98,-445.66 819.98,-409.66 877.23,-409.66 877.23,-445.66"/>
<text xml:space="preserve" text-anchor="middle" x="848.6" y="-422.61" font-family="Times,serif" font-size="14.00">updates</text>
</g>
<!-- RFC9459&#45;&gt;updates -->
<g id="edge3" class="edge">
<title>RFC9459&#45;&gt;updates</title>
<path fill="none" stroke="black" d="M790.73,-427.66C796.88,-427.66 802.74,-427.66 808.21,-427.66"/>
<polygon fill="black" stroke="black" points="807.97,-431.16 817.97,-427.66 807.97,-424.16 807.97,-431.16"/>
</g>
<!-- cites -->
<g id="node6" class="node">
<title>cites</title>
<polygon fill="none" stroke="black" points="875.6,-391.66 821.6,-391.66 821.6,-355.66 875.6,-355.66 875.6,-391.66"/>
<text xml:space="preserve" text-anchor="middle" x="848.6" y="-368.61" font-family="Times,serif" font-size="14.00">cites</text>
</g>
<!-- RFC9459&#45;&gt;cites -->
<g id="edge5" class="edge">
<title>RFC9459&#45;&gt;cites</title>
<path fill="none" stroke="black" d="M758.75,-395.93C777.39,-391.26 795.25,-386.78 810.01,-383.08"/>
<polygon fill="black" stroke="black" points="810.82,-386.49 819.67,-380.66 809.12,-379.7 810.82,-386.49"/>
</g>
<!-- obs_by -->
<g id="node2" class="node">
<title>obs_by</title>
<polygon fill="none" stroke="black" points="446.92,-499.66 380.67,-499.66 380.67,-463.66 446.92,-463.66 446.92,-499.66"/>
<text xml:space="preserve" text-anchor="middle" x="413.8" y="-476.61" font-family="Times,serif" font-size="14.00">obsoletes</text>
</g>
<!-- obs_by&#45;&gt;RFC9459 -->
<g id="edge1" class="edge">
<title>obs_by&#45;&gt;RFC9459</title>
<path fill="none" stroke="black" d="M447.05,-473.57C460.07,-470.31 476.05,-466.3 493.1,-462.03"/>
<polygon fill="black" stroke="black" points="493.52,-465.53 502.36,-459.71 491.81,-458.74 493.52,-465.53"/>
</g>
<!-- updated_by -->
<g id="node5" class="node">
<title>updated_by</title>
<polygon fill="none" stroke="black" points="442.42,-445.66 385.17,-445.66 385.17,-409.66 442.42,-409.66 442.42,-445.66"/>
<text xml:space="preserve" text-anchor="middle" x="413.8" y="-422.61" font-family="Times,serif" font-size="14.00">updates</text>
</g>
<!-- updated_by&#45;&gt;RFC9459 -->
<g id="edge4" class="edge">
<title>updated_by&#45;&gt;RFC9459</title>
<path fill="none" stroke="black" d="M442.52,-427.66C447.91,-427.66 453.9,-427.66 460.35,-427.66"/>
<polygon fill="black" stroke="black" points="460.09,-431.16 470.09,-427.66 460.09,-424.16 460.09,-431.16"/>
</g>
<!-- RFC9052 -->
<g id="node7" class="node">
<title>RFC9052</title>
<g id="a_node7"><a xlink:href="RFC9052.html" xlink:title="Concise Binary Object Representation (CBOR) is a data format designed for small code size and small message size. There is a need to be able to define basic security services for this data format. This document defines the CBOR Object Signing and Encryption (COSE) protocol. This specification describes how to create and process signatures, message authentication codes, and encryption using CBOR for serialization. This specification additionally describes how to represent cryptographic keys using CBOR. This document, along with RFC 9053, obsoletes RFC 8152." target="_top">
<ellipse fill="none" stroke="black" cx="1078.73" cy="-742.66" rx="159.28" ry="52.33"/>
<text xml:space="preserve" text-anchor="middle" x="1078.73" y="-762.36" font-family="Times,serif" font-size="14.00">RFC9052</text>
<text xml:space="preserve" text-anchor="middle" x="1078.73" y="-745.86" font-family="Times,serif" font-size="14.00">CBOR Object Signing and Encryption</text>
<text xml:space="preserve" text-anchor="middle" x="1078.73" y="-729.36" font-family="Times,serif" font-size="14.00">(COSE): Structures and Process</text>
<text xml:space="preserve" text-anchor="middle" x="1078.73" y="-712.86" font-family="Times,serif" font-size="14.00">2022</text>
</a>
</g>
</g>
<!-- cites&#45;&gt;RFC9052 -->
<g id="edge6" class="edge">
<title>cites&#45;&gt;RFC9052</title>
<path fill="none" stroke="black" d="M875.56,-392.03C877.97,-394.67 880.11,-397.56 881.73,-400.66 910.6,-456.06 868.62,-631.16 906.73,-680.66 914.93,-691.31 925.13,-700.14 936.44,-707.45"/>
<polygon fill="black" stroke="black" points="934.5,-710.37 944.89,-712.47 938.08,-704.35 934.5,-710.37"/>
</g>
<!-- RFC5116 -->
<g id="node8" class="node">
<title>RFC5116</title>
<g id="a_node8"><a xlink:href="RFC5116.html" xlink:title="This document defines algorithms for Authenticated Encryption with Associated Data (AEAD), and defines a uniform interface and a registry for such algorithms. &#160;The interface and registry can be used as an application&#45;independent set of cryptoalgorithm suites. &#160;This approach provides advantages in efficiency and security, and promotes the reuse of crypto implementations. [STANDARDS&#45;TRACK]" target="_top">
<ellipse fill="none" stroke="black" cx="1078.73" cy="-619.66" rx="135.94" ry="52.33"/>
<text xml:space="preserve" text-anchor="middle" x="1078.73" y="-639.36" font-family="Times,serif" font-size="14.00">RFC5116</text>
<text xml:space="preserve" text-anchor="middle" x="1078.73" y="-622.86" font-family="Times,serif" font-size="14.00">An Interface and Algorithms for</text>
<text xml:space="preserve" text-anchor="middle" x="1078.73" y="-606.36" font-family="Times,serif" font-size="14.00">Authenticated Encryption</text>
<text xml:space="preserve" text-anchor="middle" x="1078.73" y="-589.86" font-family="Times,serif" font-size="14.00">2008</text>
</a>
</g>
</g>
<!-- cites&#45;&gt;RFC5116 -->
<g id="edge7" class="edge">
<title>cites&#45;&gt;RFC5116</title>
<path fill="none" stroke="black" d="M875.35,-392.14C877.8,-394.76 880,-397.61 881.73,-400.66 916.52,-462.15 861.73,-503.18 906.73,-557.66 917.97,-571.27 932.45,-581.89 948.23,-590.18"/>
<polygon fill="black" stroke="black" points="946.32,-593.14 956.84,-594.38 949.39,-586.85 946.32,-593.14"/>
</g>
<!-- RFC2119 -->
<g id="node9" class="node">
<title>RFC2119</title>
<g id="a_node9"><a xlink:href="RFC2119.html" xlink:title="In many standards track documents several words are used to signify the requirements in the specification. &#160;These words are often capitalized. &#160;This document defines these words as they should be interpreted in IETF documents. &#160;This document specifies an Internet Best Current Practices for the Internet Community, and requests discussion and suggestions for improvements." target="_top">
<ellipse fill="none" stroke="black" cx="1078.73" cy="-496.66" rx="160.34" ry="52.33"/>
<text xml:space="preserve" text-anchor="middle" x="1078.73" y="-516.36" font-family="Times,serif" font-size="14.00">RFC2119</text>
<text xml:space="preserve" text-anchor="middle" x="1078.73" y="-499.86" font-family="Times,serif" font-size="14.00">Key words for use in RFCs to Indicate</text>
<text xml:space="preserve" text-anchor="middle" x="1078.73" y="-483.36" font-family="Times,serif" font-size="14.00">Requirement Levels</text>
<text xml:space="preserve" text-anchor="middle" x="1078.73" y="-466.86" font-family="Times,serif" font-size="14.00">1997</text>
</a>
</g>
</g>
<!-- cites&#45;&gt;RFC2119 -->
<g id="edge8" class="edge">
<title>cites&#45;&gt;RFC2119</title>
<path fill="none" stroke="black" d="M872.68,-391.9C875.83,-394.72 878.94,-397.68 881.73,-400.66 894.55,-414.34 891.71,-423.42 906.73,-434.66 918.63,-443.56 931.94,-451.29 945.73,-457.97"/>
<polygon fill="black" stroke="black" points="943.93,-460.99 954.47,-462.02 946.87,-454.64 943.93,-460.99"/>
</g>
<!-- RFC8174 -->
<g id="node10" class="node">
<title>RFC8174</title>
<g id="a_node10"><a xlink:href="RFC8174.html" xlink:title="RFC 2119 specifies common key words that may be used in protocol specifications. &#160;This document aims to reduce the ambiguity by clarifying that only UPPERCASE usage of the key words have the defined special meanings." target="_top">
<ellipse fill="none" stroke="black" cx="1078.73" cy="-373.66" rx="172" ry="52.33"/>
<text xml:space="preserve" text-anchor="middle" x="1078.73" y="-393.36" font-family="Times,serif" font-size="14.00">RFC8174</text>
<text xml:space="preserve" text-anchor="middle" x="1078.73" y="-376.86" font-family="Times,serif" font-size="14.00">Ambiguity of Uppercase vs Lowercase in</text>
<text xml:space="preserve" text-anchor="middle" x="1078.73" y="-360.36" font-family="Times,serif" font-size="14.00">RFC 2119 Key Words</text>
<text xml:space="preserve" text-anchor="middle" x="1078.73" y="-343.86" font-family="Times,serif" font-size="14.00">2017</text>
</a>
</g>
</g>
<!-- cites&#45;&gt;RFC8174 -->
<g id="edge9" class="edge">
<title>cites&#45;&gt;RFC8174</title>
<path fill="none" stroke="black" d="M875.77,-373.66C881.6,-373.66 888.21,-373.66 895.38,-373.66"/>
<polygon fill="black" stroke="black" points="895.17,-377.16 905.17,-373.66 895.17,-370.16 895.17,-377.16"/>
</g>
<!-- RFC5652 -->
<g id="node11" class="node">
<title>RFC5652</title>
<g id="a_node11"><a xlink:href="RFC5652.html" xlink:title="This document describes the Cryptographic Message Syntax (CMS). &#160;This syntax is used to digitally sign, digest, authenticate, or encrypt arbitrary message content. [STANDARDS&#45;TRACK]" target="_top">
<ellipse fill="none" stroke="black" cx="1078.73" cy="-262.66" rx="161.93" ry="40.66"/>
<text xml:space="preserve" text-anchor="middle" x="1078.73" y="-274.11" font-family="Times,serif" font-size="14.00">RFC5652</text>
<text xml:space="preserve" text-anchor="middle" x="1078.73" y="-257.61" font-family="Times,serif" font-size="14.00">Cryptographic Message Syntax (CMS)</text>
<text xml:space="preserve" text-anchor="middle" x="1078.73" y="-241.11" font-family="Times,serif" font-size="14.00">2009</text>
</a>
</g>
</g>
<!-- cites&#45;&gt;RFC5652 -->
<g id="edge10" class="edge">
<title>cites&#45;&gt;RFC5652</title>
<path fill="none" stroke="black" d="M862.4,-355.41C872.86,-341.78 888.81,-323.68 906.73,-312.66 918.8,-305.23 932.03,-298.87 945.61,-293.41"/>
<polygon fill="black" stroke="black" points="946.55,-296.8 954.64,-289.96 944.05,-290.26 946.55,-296.8"/>
</g>
<!-- RFC4107 -->
<g id="node12" class="node">
<title>RFC4107</title>
<g id="a_node12"><a xlink:href="RFC4107.html" xlink:title="The question often arises of whether a given security system requires some form of automated key management, or whether manual keying is sufficient. &#160;This memo provides guidelines for making such decisions. &#160;When symmetric cryptographic mechanisms are used in a protocol, the presumption is that automated key management is generally but not always needed. &#160;If manual keying is proposed, the burden of proving that automated key management is not required falls to the proposer. &#160;This document specifies an Internet Best Current Practices for the Internet Community, and requests discussion and suggestions for improvements." target="_top">
<ellipse fill="none" stroke="black" cx="1078.73" cy="-151.66" rx="142.84" ry="52.33"/>
<text xml:space="preserve" text-anchor="middle" x="1078.73" y="-171.36" font-family="Times,serif" font-size="14.00">RFC4107</text>
<text xml:space="preserve" text-anchor="middle" x="1078.73" y="-154.86" font-family="Times,serif" font-size="14.00">Guidelines for Cryptographic Key</text>
<text xml:space="preserve" text-anchor="middle" x="1078.73" y="-138.36" font-family="Times,serif" font-size="14.00">Management</text>
<text xml:space="preserve" text-anchor="middle" x="1078.73" y="-121.86" font-family="Times,serif" font-size="14.00">2005</text>
</a>
</g>
</g>
<!-- cites&#45;&gt;RFC4107 -->
<g id="edge11" class="edge">
<title>cites&#45;&gt;RFC4107</title>
<path fill="none" stroke="black" d="M851.07,-355.29C854.67,-322.27 866.81,-252.64 906.73,-212.66 918.22,-201.15 932.02,-191.8 946.74,-184.21"/>
<polygon fill="black" stroke="black" points="948.21,-187.39 955.7,-179.89 945.17,-181.08 948.21,-187.39"/>
</g>
<!-- RFC3610 -->
<g id="node13" class="node">
<title>RFC3610</title>
<g id="a_node13"><a xlink:href="RFC3610.html" xlink:title="Counter with CBC&#45;MAC (CCM) is a generic authenticated encryption block cipher mode. &#160;CCM is defined for use with 128&#45;bit block ciphers, such as the Advanced Encryption Standard (AES)." target="_top">
<ellipse fill="none" stroke="black" cx="1078.73" cy="-40.66" rx="139.65" ry="40.66"/>
<text xml:space="preserve" text-anchor="middle" x="1078.73" y="-52.11" font-family="Times,serif" font-size="14.00">RFC3610</text>
<text xml:space="preserve" text-anchor="middle" x="1078.73" y="-35.61" font-family="Times,serif" font-size="14.00">Counter with CBC&#45;MAC (CCM)</text>
<text xml:space="preserve" text-anchor="middle" x="1078.73" y="-19.11" font-family="Times,serif" font-size="14.00">2003</text>
</a>
</g>
</g>
<!-- cites&#45;&gt;RFC3610 -->
<g id="edge12" class="edge">
<title>cites&#45;&gt;RFC3610</title>
<path fill="none" stroke="black" d="M850.87,-355.32C855.13,-298.99 870.71,-129.89 906.73,-90.66 917.08,-79.38 929.82,-70.6 943.64,-63.76"/>
<polygon fill="black" stroke="black" points="944.83,-67.07 952.49,-59.75 941.94,-60.69 944.83,-67.07"/>
</g>
<!-- rev_cites -->
<g id="node14" class="node">
<title>rev_cites</title>
<polygon fill="none" stroke="black" points="440.8,-391.66 386.8,-391.66 386.8,-355.66 440.8,-355.66 440.8,-391.66"/>
<text xml:space="preserve" text-anchor="middle" x="413.8" y="-368.61" font-family="Times,serif" font-size="14.00">cites</text>
</g>
<!-- rev_cites&#45;&gt;RFC9459 -->
<g id="edge13" class="edge">
<title>rev_cites&#45;&gt;RFC9459</title>
<path fill="none" stroke="black" d="M441.21,-380.28C455.05,-383.75 473.17,-388.29 492.71,-393.19"/>
<polygon fill="black" stroke="black" points="491.67,-396.54 502.23,-395.58 493.38,-389.75 491.67,-396.54"/>
</g>
<!-- RFC9864 -->
<g id="node15" class="node">
<title>RFC9864</title>
<g id="a_node15"><a xlink:href="RFC9864.html" xlink:title="This specification refers to cryptographic algorithm identifiers that fully specify the cryptographic operations to be performed, including any curve, key derivation function (KDF), and hash functions, as being fully specified. It refers to cryptographic algorithm identifiers that require additional information beyond the algorithm identifier to determine the cryptographic operations to be performed as being polymorphic. This specification creates fully&#45;specified algorithm identifiers for registered JSON Object Signing and Encryption (JOSE) and CBOR Object Signing and Encryption (COSE) polymorphic algorithm identifiers, enabling applications to use only fully&#45;specified algorithm identifiers. It deprecates those polymorphic algorithm identifiers. This specification updates RFCs 7518, 8037, and 9053. It deprecates polymorphic algorithms defined by RFCs 8037 and 9053 and provides fully&#45;specified replacements for them. It adds to the instructions to designated experts in RFCs 7518 and 9053." target="_top">
<ellipse fill="none" stroke="black" cx="177.84" cy="-373.66" rx="177.84" ry="75.66"/>
<text xml:space="preserve" text-anchor="middle" x="177.84" y="-409.86" font-family="Times,serif" font-size="14.00">RFC9864</text>
<text xml:space="preserve" text-anchor="middle" x="177.84" y="-393.36" font-family="Times,serif" font-size="14.00">Fully&#45;Specified Algorithms for JSON</text>
<text xml:space="preserve" text-anchor="middle" x="177.84" y="-376.86" font-family="Times,serif" font-size="14.00">Object Signing and Encryption (JOSE) and</text>
<text xml:space="preserve" text-anchor="middle" x="177.84" y="-360.36" font-family="Times,serif" font-size="14.00">CBOR Object Signing and Encryption</text>
<text xml:space="preserve" text-anchor="middle" x="177.84" y="-343.86" font-family="Times,serif" font-size="14.00">(COSE)</text>
<text xml:space="preserve" text-anchor="middle" x="177.84" y="-327.36" font-family="Times,serif" font-size="14.00">2025</text>
</a>
</g>
</g>
<!-- RFC9864&#45;&gt;rev_cites -->
<g id="edge14" class="edge">
<title>RFC9864&#45;&gt;rev_cites</title>
<path fill="none" stroke="black" d="M356.16,-373.66C362.9,-373.66 369.27,-373.66 375.13,-373.66"/>
<polygon fill="black" stroke="black" points="374.91,-377.16 384.91,-373.66 374.91,-370.16 374.91,-377.16"/>
</g>
</g>
</svg>
