<?xml version="1.0" encoding="UTF-8" standalone="no"?>
<!DOCTYPE svg PUBLIC "-//W3C//DTD SVG 1.1//EN"
 "http://www.w3.org/Graphics/SVG/1.1/DTD/svg11.dtd">
<!-- Generated by graphviz version 14.1.1 (20251213.1925)
 -->
<!-- Title: Flow Pages: 1 -->
<svg width="904pt" height="263pt"
 viewBox="0.00 0.00 904.00 263.00" xmlns="http://www.w3.org/2000/svg" xmlns:xlink="http://www.w3.org/1999/xlink">
<g id="graph0" class="graph" transform="scale(1 1) rotate(0) translate(4 258.75)">
<title>Flow</title>
<polygon fill="white" stroke="none" points="-4,4 -4,-258.75 900.03,-258.75 900.03,4 -4,4"/>
<!-- RFC9695 -->
<g id="node1" class="node">
<title>RFC9695</title>
<g id="a_node1"><a xlink:title="This memo registers and documents the &#39;haptics&#39; top&#45;level media type, under which subtypes for representation formats for haptics may be registered. &#160;This document also serves as a registration for a set of subtypes, which are representative of some existing subtypes already in use.">
<ellipse fill="none" stroke="black" cx="242.04" cy="-106.42" rx="150.79" ry="40.66"/>
<text xml:space="preserve" text-anchor="middle" x="242.04" y="-117.87" font-family="Times,serif" font-size="14.00">RFC9695</text>
<text xml:space="preserve" text-anchor="middle" x="242.04" y="-101.37" font-family="Times,serif" font-size="14.00">The &#39;haptics&#39; Top&#45;Level Media Type</text>
<text xml:space="preserve" text-anchor="middle" x="242.04" y="-84.87" font-family="Times,serif" font-size="14.00">2025</text>
</a>
</g>
</g>
<!-- obs -->
<g id="node3" class="node">
<title>obs</title>
<polygon fill="none" stroke="black" points="484.08,-205.42 417.83,-205.42 417.83,-169.42 484.08,-169.42 484.08,-205.42"/>
<text xml:space="preserve" text-anchor="middle" x="450.96" y="-182.37" font-family="Times,serif" font-size="14.00">obsoletes</text>
</g>
<!-- RFC9695&#45;&gt;obs -->
<g id="edge2" class="edge">
<title>RFC9695&#45;&gt;obs</title>
<path fill="none" stroke="black" d="M328.99,-140.07C355.81,-150.57 384.24,-161.7 406.79,-170.53"/>
<polygon fill="black" stroke="black" points="405.36,-173.72 415.95,-174.11 407.91,-167.21 405.36,-173.72"/>
</g>
<!-- updates -->
<g id="node4" class="node">
<title>updates</title>
<polygon fill="none" stroke="black" points="479.58,-151.42 422.33,-151.42 422.33,-115.42 479.58,-115.42 479.58,-151.42"/>
<text xml:space="preserve" text-anchor="middle" x="450.96" y="-128.37" font-family="Times,serif" font-size="14.00">updates</text>
</g>
<!-- RFC9695&#45;&gt;updates -->
<g id="edge3" class="edge">
<title>RFC9695&#45;&gt;updates</title>
<path fill="none" stroke="black" d="M378.46,-124.09C390.09,-125.61 401.12,-127.05 410.88,-128.32"/>
<polygon fill="black" stroke="black" points="410.24,-131.77 420.61,-129.59 411.15,-124.83 410.24,-131.77"/>
</g>
<!-- cites -->
<g id="node6" class="node">
<title>cites</title>
<polygon fill="none" stroke="black" points="477.96,-97.42 423.96,-97.42 423.96,-61.42 477.96,-61.42 477.96,-97.42"/>
<text xml:space="preserve" text-anchor="middle" x="450.96" y="-74.37" font-family="Times,serif" font-size="14.00">cites</text>
</g>
<!-- RFC9695&#45;&gt;cites -->
<g id="edge5" class="edge">
<title>RFC9695&#45;&gt;cites</title>
<path fill="none" stroke="black" d="M378.46,-88.75C390.65,-87.16 402.19,-85.66 412.3,-84.34"/>
<polygon fill="black" stroke="black" points="412.49,-87.84 421.96,-83.08 411.59,-80.9 412.49,-87.84"/>
</g>
<!-- obs_by -->
<g id="node2" class="node">
<title>obs_by</title>
<polygon fill="none" stroke="black" points="66.25,-151.42 0,-151.42 0,-115.42 66.25,-115.42 66.25,-151.42"/>
<text xml:space="preserve" text-anchor="middle" x="33.12" y="-128.37" font-family="Times,serif" font-size="14.00">obsoletes</text>
</g>
<!-- obs_by&#45;&gt;RFC9695 -->
<g id="edge1" class="edge">
<title>obs_by&#45;&gt;RFC9695</title>
<path fill="none" stroke="black" d="M66.46,-129.2C74.72,-128.13 84.16,-126.89 94.27,-125.57"/>
<polygon fill="black" stroke="black" points="94.51,-129.07 103.98,-124.31 93.61,-122.13 94.51,-129.07"/>
</g>
<!-- updated_by -->
<g id="node5" class="node">
<title>updated_by</title>
<polygon fill="none" stroke="black" points="61.75,-97.42 4.5,-97.42 4.5,-61.42 61.75,-61.42 61.75,-97.42"/>
<text xml:space="preserve" text-anchor="middle" x="33.12" y="-74.37" font-family="Times,serif" font-size="14.00">updates</text>
</g>
<!-- updated_by&#45;&gt;RFC9695 -->
<g id="edge4" class="edge">
<title>updated_by&#45;&gt;RFC9695</title>
<path fill="none" stroke="black" d="M62.03,-83.06C71.32,-84.28 82.4,-85.72 94.42,-87.29"/>
<polygon fill="black" stroke="black" points="93.84,-90.74 104.21,-88.57 94.75,-83.8 93.84,-90.74"/>
</g>
<!-- RFC6838 -->
<g id="node7" class="node">
<title>RFC6838</title>
<g id="a_node7"><a xlink:href="RFC6838.html" xlink:title="This document defines procedures for the specification and registration of media types for use in HTTP, MIME, and other Internet protocols. &#160;This memo documents an Internet Best Current Practice." target="_top">
<ellipse fill="none" stroke="black" cx="663.05" cy="-202.42" rx="131.17" ry="52.33"/>
<text xml:space="preserve" text-anchor="middle" x="663.05" y="-222.12" font-family="Times,serif" font-size="14.00">RFC6838</text>
<text xml:space="preserve" text-anchor="middle" x="663.05" y="-205.62" font-family="Times,serif" font-size="14.00">Media Type Specifications and</text>
<text xml:space="preserve" text-anchor="middle" x="663.05" y="-189.12" font-family="Times,serif" font-size="14.00">Registration Procedures</text>
<text xml:space="preserve" text-anchor="middle" x="663.05" y="-172.62" font-family="Times,serif" font-size="14.00">2013</text>
</a>
</g>
</g>
<!-- cites&#45;&gt;RFC6838 -->
<g id="edge6" class="edge">
<title>cites&#45;&gt;RFC6838</title>
<path fill="none" stroke="black" d="M475.03,-97.66C478.18,-100.48 481.29,-103.45 484.08,-106.42 496.91,-120.11 494.27,-128.91 509.08,-140.42 521.19,-149.84 534.91,-158.02 549.06,-165.08"/>
<polygon fill="black" stroke="black" points="547.52,-168.23 558.05,-169.38 550.53,-161.91 547.52,-168.23"/>
</g>
<!-- RFC9694 -->
<g id="node8" class="node">
<title>RFC9694</title>
<g id="a_node8"><a xlink:href="RFC9694.html" xlink:title="This document defines best practices for defining new top&#45;level media types. &#160;It also introduces a registry for top&#45;level media types, and contains a short history of top&#45;level media types. &#160;It updates RFC 6838." target="_top">
<ellipse fill="none" stroke="black" cx="663.05" cy="-79.42" rx="153.97" ry="52.33"/>
<text xml:space="preserve" text-anchor="middle" x="663.05" y="-99.12" font-family="Times,serif" font-size="14.00">RFC9694</text>
<text xml:space="preserve" text-anchor="middle" x="663.05" y="-82.62" font-family="Times,serif" font-size="14.00">Guidelines for the Definition of New</text>
<text xml:space="preserve" text-anchor="middle" x="663.05" y="-66.12" font-family="Times,serif" font-size="14.00">Top&#45;Level Media Types</text>
<text xml:space="preserve" text-anchor="middle" x="663.05" y="-49.62" font-family="Times,serif" font-size="14.00">2025</text>
</a>
</g>
</g>
<!-- cites&#45;&gt;RFC9694 -->
<g id="edge7" class="edge">
<title>cites&#45;&gt;RFC9694</title>
<path fill="none" stroke="black" d="M478.14,-79.42C483.92,-79.42 490.44,-79.42 497.5,-79.42"/>
<polygon fill="black" stroke="black" points="497.49,-82.92 507.49,-79.42 497.49,-75.92 497.49,-82.92"/>
</g>
<!-- rev_cites -->
<g id="node9" class="node">
<title>rev_cites</title>
<polygon fill="none" stroke="black" points="896.03,-57.42 842.03,-57.42 842.03,-21.42 896.03,-21.42 896.03,-57.42"/>
<text xml:space="preserve" text-anchor="middle" x="869.03" y="-34.37" font-family="Times,serif" font-size="14.00">cites</text>
</g>
<!-- RFC9694&#45;&gt;rev_cites -->
<g id="edge9" class="edge">
<title>RFC9694&#45;&gt;rev_cites</title>
<path fill="none" stroke="black" d="M797.26,-53.3C809.32,-50.94 820.74,-48.7 830.74,-46.73"/>
<polygon fill="black" stroke="black" points="831.16,-50.22 840.3,-44.86 829.81,-43.35 831.16,-50.22"/>
</g>
<!-- rev_cites&#45;&gt;RFC9695 -->
<g id="edge8" class="edge">
<title>rev_cites&#45;&gt;RFC9695</title>
<path fill="none" stroke="black" d="M841.64,-26.27C833.9,-23.05 825.29,-20.06 817.03,-18.42 682.76,8.14 644.2,3.35 509.08,-18.42 449.56,-28.01 385.31,-48.94 334.87,-67.98"/>
<polygon fill="black" stroke="black" points="333.83,-64.63 325.74,-71.47 336.33,-71.17 333.83,-64.63"/>
</g>
</g>
</svg>
