<?xml version="1.0" encoding="UTF-8" standalone="no"?>
<!DOCTYPE svg PUBLIC "-//W3C//DTD SVG 1.1//EN"
 "http://www.w3.org/Graphics/SVG/1.1/DTD/svg11.dtd">
<!-- Generated by graphviz version 14.1.1 (20251213.1925)
 -->
<!-- Title: Flow Pages: 1 -->
<svg width="887pt" height="175pt"
 viewBox="0.00 0.00 887.00 175.00" xmlns="http://www.w3.org/2000/svg" xmlns:xlink="http://www.w3.org/1999/xlink">
<g id="graph0" class="graph" transform="scale(1 1) rotate(0) translate(4 170.66)">
<title>Flow</title>
<polygon fill="white" stroke="none" points="-4,4 -4,-170.66 882.54,-170.66 882.54,4 -4,4"/>
<!-- RFC9858 -->
<g id="node1" class="node">
<title>RFC9858</title>
<g id="a_node1"><a xlink:title="This document extends HSS/LMS (RFC 8554) by defining parameter sets that use alternative hash functions. These include hash functions that result in signatures with significantly smaller sizes than the signatures that use the RFC 8554 parameter sets and should have sufficient security. This document is a product of the Internet Research Task Force (IRTF). The IRTF publishes the results of Internet&#45;related research and development activities. These results might not be suitable for deployment. This RFC represents the consensus of the Crypto Forum Research Group of the Internet Research Task Force (IRTF). Documents approved for publication by the IRSG are not candidates for any level of Internet Standard; see Section 2 of RFC 7841.">
<ellipse fill="green" stroke="black" cx="260.6" cy="-94.66" rx="169.35" ry="52.33"/>
<text xml:space="preserve" text-anchor="middle" x="260.6" y="-114.36" font-family="Times,serif" font-size="14.00">RFC9858</text>
<text xml:space="preserve" text-anchor="middle" x="260.6" y="-97.86" font-family="Times,serif" font-size="14.00">Additional Parameter Sets for HSS/LMS</text>
<text xml:space="preserve" text-anchor="middle" x="260.6" y="-81.36" font-family="Times,serif" font-size="14.00">Hash&#45;Based Signatures</text>
<text xml:space="preserve" text-anchor="middle" x="260.6" y="-64.86" font-family="Times,serif" font-size="14.00">2025</text>
</a>
</g>
</g>
<!-- obs -->
<g id="node3" class="node">
<title>obs</title>
<polygon fill="lightblue" stroke="black" points="521.2,-166.66 454.95,-166.66 454.95,-130.66 521.2,-130.66 521.2,-166.66"/>
<text xml:space="preserve" text-anchor="middle" x="488.08" y="-143.61" font-family="Times,serif" font-size="14.00">obsoletes</text>
</g>
<!-- RFC9858&#45;&gt;obs -->
<g id="edge2" class="edge">
<title>RFC9858&#45;&gt;obs</title>
<path fill="none" stroke="black" d="M395.37,-126.69C412.73,-130.85 429.4,-134.84 443.65,-138.26"/>
<polygon fill="black" stroke="black" points="442.52,-141.59 453.06,-140.51 444.15,-134.78 442.52,-141.59"/>
</g>
<!-- updates -->
<g id="node4" class="node">
<title>updates</title>
<polygon fill="lightyellow" stroke="black" points="516.7,-112.66 459.45,-112.66 459.45,-76.66 516.7,-76.66 516.7,-112.66"/>
<text xml:space="preserve" text-anchor="middle" x="488.08" y="-89.61" font-family="Times,serif" font-size="14.00">updates</text>
</g>
<!-- RFC9858&#45;&gt;updates -->
<g id="edge3" class="edge">
<title>RFC9858&#45;&gt;updates</title>
<path fill="none" stroke="black" d="M430.18,-94.66C436.37,-94.66 442.26,-94.66 447.74,-94.66"/>
<polygon fill="black" stroke="black" points="447.52,-98.16 457.52,-94.66 447.52,-91.16 447.52,-98.16"/>
</g>
<!-- cites -->
<g id="node6" class="node">
<title>cites</title>
<polygon fill="lightblue" stroke="black" points="515.08,-58.66 461.08,-58.66 461.08,-22.66 515.08,-22.66 515.08,-58.66"/>
<text xml:space="preserve" text-anchor="middle" x="488.08" y="-35.61" font-family="Times,serif" font-size="14.00">cites</text>
</g>
<!-- RFC9858&#45;&gt;cites -->
<g id="edge5" class="edge">
<title>RFC9858&#45;&gt;cites</title>
<path fill="none" stroke="black" d="M395.37,-62.62C415.17,-57.88 434.07,-53.35 449.51,-49.66"/>
<polygon fill="black" stroke="black" points="450.22,-53.08 459.13,-47.35 448.59,-46.28 450.22,-53.08"/>
</g>
<!-- obs_by -->
<g id="node2" class="node">
<title>obs_by</title>
<polygon fill="lightblue" stroke="black" points="66.25,-166.66 0,-166.66 0,-130.66 66.25,-130.66 66.25,-166.66"/>
<text xml:space="preserve" text-anchor="middle" x="33.12" y="-143.61" font-family="Times,serif" font-size="14.00">obsoletes</text>
</g>
<!-- obs_by&#45;&gt;RFC9858 -->
<g id="edge1" class="edge">
<title>obs_by&#45;&gt;RFC9858</title>
<path fill="none" stroke="black" d="M66.43,-140.92C80.01,-137.67 96.83,-133.64 114.84,-129.33"/>
<polygon fill="black" stroke="black" points="115.5,-132.77 124.41,-127.04 113.87,-125.96 115.5,-132.77"/>
</g>
<!-- updated_by -->
<g id="node5" class="node">
<title>updated_by</title>
<polygon fill="lightyellow" stroke="black" points="61.75,-112.66 4.5,-112.66 4.5,-76.66 61.75,-76.66 61.75,-112.66"/>
<text xml:space="preserve" text-anchor="middle" x="33.12" y="-89.61" font-family="Times,serif" font-size="14.00">updates</text>
</g>
<!-- updated_by&#45;&gt;RFC9858 -->
<g id="edge4" class="edge">
<title>updated_by&#45;&gt;RFC9858</title>
<path fill="none" stroke="black" d="M62.23,-94.66C67.39,-94.66 73.11,-94.66 79.26,-94.66"/>
<polygon fill="black" stroke="black" points="79.25,-98.16 89.25,-94.66 79.25,-91.16 79.25,-98.16"/>
</g>
<!-- RFC8554 -->
<g id="node7" class="node">
<title>RFC8554</title>
<g id="a_node7"><a xlink:href="RFC8554.html" xlink:title="This note describes a digital&#45;signature system based on cryptographic hash functions, following the seminal work in this area of Lamport, Diffie, Winternitz, and Merkle, as adapted by Leighton and Micali in 1995. It specifies a one&#45;time signature scheme and a general signature scheme. These systems provide asymmetric authentication without using large integer mathematics and can achieve a high security level. They are suitable for compact implementations, are relatively simple to implement, and are naturally resistant to side&#45;channel attacks. Unlike many other signature systems, hash&#45;based signatures would still be secure even if it proves feasible for an attacker to build a quantum computer. This document is a product of the Crypto Forum Research Group (CFRG) in the IRTF. This has been reviewed by many researchers, both in the research group and outside of it. The Acknowledgements section lists many of them." target="_top">
<ellipse fill="none" stroke="black" cx="712.37" cy="-40.66" rx="166.17" ry="40.66"/>
<text xml:space="preserve" text-anchor="middle" x="712.37" y="-52.11" font-family="Times,serif" font-size="14.00">RFC8554</text>
<text xml:space="preserve" text-anchor="middle" x="712.37" y="-35.61" font-family="Times,serif" font-size="14.00">Leighton&#45;Micali Hash&#45;Based Signatures</text>
<text xml:space="preserve" text-anchor="middle" x="712.37" y="-19.11" font-family="Times,serif" font-size="14.00">2019</text>
</a>
</g>
</g>
<!-- cites&#45;&gt;RFC8554 -->
<g id="edge6" class="edge">
<title>cites&#45;&gt;RFC8554</title>
<path fill="none" stroke="black" d="M515.45,-40.66C521.19,-40.66 527.67,-40.66 534.69,-40.66"/>
<polygon fill="black" stroke="black" points="534.62,-44.16 544.62,-40.66 534.62,-37.16 534.62,-44.16"/>
</g>
<!-- rev_cites -->
<g id="node8" class="node">
<title>rev_cites</title>
<polygon fill="lightblue" stroke="black" points="60.12,-58.66 6.12,-58.66 6.12,-22.66 60.12,-22.66 60.12,-58.66"/>
<text xml:space="preserve" text-anchor="middle" x="33.12" y="-35.61" font-family="Times,serif" font-size="14.00">cites</text>
</g>
<!-- rev_cites&#45;&gt;RFC9858 -->
<g id="edge7" class="edge">
<title>rev_cites&#45;&gt;RFC9858</title>
<path fill="none" stroke="black" d="M60.43,-46.96C74.87,-50.42 94.05,-55.01 114.8,-59.98"/>
<polygon fill="black" stroke="black" points="113.77,-63.33 124.31,-62.26 115.4,-56.52 113.77,-63.33"/>
</g>
</g>
</svg>
