<?xml version="1.0" encoding="UTF-8" standalone="no"?>
<!DOCTYPE svg PUBLIC "-//W3C//DTD SVG 1.1//EN"
 "http://www.w3.org/Graphics/SVG/1.1/DTD/svg11.dtd">
<!-- Generated by graphviz version 14.1.1 (20251213.1925)
 -->
<!-- Title: Flow Pages: 1 -->
<svg width="1009pt" height="1046pt"
 viewBox="0.00 0.00 1009.00 1046.00" xmlns="http://www.w3.org/2000/svg" xmlns:xlink="http://www.w3.org/1999/xlink">
<g id="graph0" class="graph" transform="scale(1 1) rotate(0) translate(4 1042.22)">
<title>Flow</title>
<polygon fill="white" stroke="none" points="-4,4 -4,-1042.22 1004.93,-1042.22 1004.93,4 -4,4"/>
<!-- RFC9283 -->
<g id="node1" class="node">
<title>RFC9283</title>
<g id="a_node1"><a xlink:title="This document updates the IAB Charter (RFC 2850) to be consistent with version 3 of the RFC Editor Model (RFC 9280).">
<ellipse fill="green" stroke="black" stroke-width="3" cx="688.39" cy="-340.63" rx="232.46" ry="50.2"/>
<text xml:space="preserve" text-anchor="middle" x="688.39" y="-355.03" font-family="Times,serif" font-size="18.00">RFC9283</text>
<text xml:space="preserve" text-anchor="middle" x="688.39" y="-334.03" font-family="Times,serif" font-size="18.00">IAB Charter Update for RFC Editor Model</text>
<text xml:space="preserve" text-anchor="middle" x="688.39" y="-313.03" font-family="Times,serif" font-size="18.00">2022</text>
</a>
</g>
</g>
<!-- obs -->
<g id="node3" class="node">
<title>obs</title>
<polygon fill="lightblue" stroke="black" points="1000.93,-519.95 934.68,-519.95 934.68,-483.95 1000.93,-483.95 1000.93,-519.95"/>
<text xml:space="preserve" text-anchor="middle" x="967.8" y="-496.9" font-family="Times,serif" font-size="14.00">obsoletes</text>
</g>
<!-- RFC9283&#45;&gt;obs -->
<g id="edge2" class="edge">
<title>RFC9283&#45;&gt;obs</title>
<path fill="none" stroke="black" d="M771.85,-388.81C822.69,-418.17 885.48,-454.42 926.06,-477.85"/>
<polygon fill="black" stroke="black" points="924.15,-480.79 934.56,-482.76 927.65,-474.73 924.15,-480.79"/>
</g>
<!-- updates -->
<g id="node4" class="node">
<title>updates</title>
<polygon fill="lightyellow" stroke="black" points="717.02,-681.27 659.77,-681.27 659.77,-645.27 717.02,-645.27 717.02,-681.27"/>
<text xml:space="preserve" text-anchor="middle" x="688.39" y="-658.22" font-family="Times,serif" font-size="14.00">updates</text>
</g>
<!-- RFC9283&#45;&gt;updates -->
<g id="edge3" class="edge">
<title>RFC9283&#45;&gt;updates</title>
<path fill="none" stroke="black" d="M688.39,-392.11C688.39,-460.42 688.39,-578.77 688.39,-633.69"/>
<polygon fill="black" stroke="black" points="684.89,-633.5 688.39,-643.5 691.89,-633.5 684.89,-633.5"/>
</g>
<!-- cites -->
<g id="node7" class="node">
<title>cites</title>
<polygon fill="lightblue" stroke="black" points="435.99,-519.95 381.99,-519.95 381.99,-483.95 435.99,-483.95 435.99,-519.95"/>
<text xml:space="preserve" text-anchor="middle" x="408.99" y="-496.9" font-family="Times,serif" font-size="14.00">cites</text>
</g>
<!-- RFC9283&#45;&gt;cites -->
<g id="edge6" class="edge">
<title>RFC9283&#45;&gt;cites</title>
<path fill="none" stroke="black" d="M604.94,-388.81C552.13,-419.3 486.45,-457.23 446.13,-480.5"/>
<polygon fill="black" stroke="black" points="444.43,-477.45 437.52,-485.48 447.93,-483.51 444.43,-477.45"/>
</g>
<!-- obs_by -->
<g id="node2" class="node">
<title>obs_by</title>
<polygon fill="lightblue" stroke="black" points="442.11,-197.32 375.86,-197.32 375.86,-161.32 442.11,-161.32 442.11,-197.32"/>
<text xml:space="preserve" text-anchor="middle" x="408.99" y="-174.27" font-family="Times,serif" font-size="14.00">obsoletes</text>
</g>
<!-- obs_by&#45;&gt;RFC9283 -->
<g id="edge1" class="edge">
<title>obs_by&#45;&gt;RFC9283</title>
<path fill="none" stroke="black" d="M440.76,-197.66C478.06,-219.2 541.6,-255.88 594.98,-286.7"/>
<polygon fill="black" stroke="black" points="593.1,-289.66 603.51,-291.62 596.6,-283.59 593.1,-289.66"/>
</g>
<!-- RFC2850 -->
<g id="node5" class="node">
<title>RFC2850</title>
<g id="a_node5"><a xlink:href="RFC2850.html" xlink:title="This memo documents the composition, selection, roles, and organization of the Internet Architecture Board. &#160;It replaces RFC 1601. &#160;This document specifies an Internet Best Current Practices for the Internet Community, and requests discussion and suggestions for improvements." target="_top">
<ellipse fill="none" stroke="black" cx="688.39" cy="-985.9" rx="147.08" ry="52.33"/>
<text xml:space="preserve" text-anchor="middle" x="688.39" y="-1005.6" font-family="Times,serif" font-size="14.00">RFC2850</text>
<text xml:space="preserve" text-anchor="middle" x="688.39" y="-989.1" font-family="Times,serif" font-size="14.00">Charter of the Internet Architecture</text>
<text xml:space="preserve" text-anchor="middle" x="688.39" y="-972.6" font-family="Times,serif" font-size="14.00">Board (IAB)</text>
<text xml:space="preserve" text-anchor="middle" x="688.39" y="-956.1" font-family="Times,serif" font-size="14.00">2000</text>
</a>
</g>
</g>
<!-- updates&#45;&gt;RFC2850 -->
<g id="edge4" class="edge">
<title>updates&#45;&gt;RFC2850</title>
<path fill="none" stroke="black" d="M688.39,-681.54C688.39,-726.99 688.39,-846.9 688.39,-921.93"/>
<polygon fill="black" stroke="black" points="684.89,-921.6 688.39,-931.6 691.89,-921.6 684.89,-921.6"/>
</g>
<!-- updated_by -->
<g id="node6" class="node">
<title>updated_by</title>
<polygon fill="lightyellow" stroke="black" points="717.02,-36 659.77,-36 659.77,0 717.02,0 717.02,-36"/>
<text xml:space="preserve" text-anchor="middle" x="688.39" y="-12.95" font-family="Times,serif" font-size="14.00">updates</text>
</g>
<!-- updated_by&#45;&gt;RFC9283 -->
<g id="edge5" class="edge">
<title>updated_by&#45;&gt;RFC9283</title>
<path fill="none" stroke="black" d="M688.39,-36.27C688.39,-81.98 688.39,-202.98 688.39,-277.92"/>
<polygon fill="black" stroke="black" points="684.89,-277.57 688.39,-287.57 691.89,-277.57 684.89,-277.57"/>
</g>
<!-- cites&#45;&gt;RFC2850 -->
<g id="edge8" class="edge">
<title>cites&#45;&gt;RFC2850</title>
<path fill="none" stroke="black" d="M419.6,-520.33C457.77,-586.45 589.21,-814.1 653.04,-924.67"/>
<polygon fill="black" stroke="black" points="649.85,-926.13 657.88,-933.04 655.91,-922.63 649.85,-926.13"/>
</g>
<!-- RFC9280 -->
<g id="node8" class="node">
<title>RFC9280</title>
<g id="a_node8"><a xlink:href="RFC9280.html" xlink:title="This document specifies version 3 of the RFC Editor Model. The model defines two high&#45;level tasks related to the RFC Series. First, policy definition is the joint responsibility of the RFC Series Working Group (RSWG), which produces policy proposals, and the RFC Series Approval Board (RSAB), which approves such proposals. Second, policy implementation is primarily the responsibility of the RFC Production Center (RPC) as contractually overseen by the IETF Administration Limited Liability Company (IETF LLC). In addition, various responsibilities of the RFC Editor function are now performed alone or in combination by the RSWG, RSAB, RPC, RFC Series Consulting Editor (RSCE), and IETF LLC. Finally, this document establishes the Editorial Stream for publication of future policy definition documents produced through the processes defined herein. This document obsoletes RFC 8728. This document updates RFCs 7841, 8729, and 8730." target="_top">
<ellipse fill="none" stroke="black" cx="129.58" cy="-663.27" rx="129.58" ry="40.66"/>
<text xml:space="preserve" text-anchor="middle" x="129.58" y="-674.72" font-family="Times,serif" font-size="14.00">RFC9280</text>
<text xml:space="preserve" text-anchor="middle" x="129.58" y="-658.22" font-family="Times,serif" font-size="14.00">RFC Editor Model (Version 3)</text>
<text xml:space="preserve" text-anchor="middle" x="129.58" y="-641.72" font-family="Times,serif" font-size="14.00">2022</text>
</a>
</g>
</g>
<!-- cites&#45;&gt;RFC9280 -->
<g id="edge7" class="edge">
<title>cites&#45;&gt;RFC9280</title>
<path fill="none" stroke="black" d="M381.69,-517.71C340.32,-541.59 260.36,-587.76 201.54,-621.72"/>
<polygon fill="black" stroke="black" points="200.15,-618.48 193.24,-626.51 203.65,-624.54 200.15,-618.48"/>
</g>
<!-- rev_cites -->
<g id="node9" class="node">
<title>rev_cites</title>
<polygon fill="lightblue" stroke="black" points="994.8,-197.32 940.8,-197.32 940.8,-161.32 994.8,-161.32 994.8,-197.32"/>
<text xml:space="preserve" text-anchor="middle" x="967.8" y="-174.27" font-family="Times,serif" font-size="14.00">cites</text>
</g>
<!-- RFC9280&#45;&gt;rev_cites -->
<g id="edge10" class="edge">
<title>RFC9280&#45;&gt;rev_cites</title>
<path fill="none" stroke="black" d="M191.9,-627.29C356.63,-532.17 799.96,-276.22 930.9,-200.62"/>
<polygon fill="black" stroke="black" points="932.27,-203.87 939.18,-195.84 928.77,-197.81 932.27,-203.87"/>
</g>
<!-- rev_cites&#45;&gt;RFC9283 -->
<g id="edge9" class="edge">
<title>rev_cites&#45;&gt;RFC9283</title>
<path fill="none" stroke="black" d="M940.5,-195.08C903.97,-216.17 837.34,-254.64 781.75,-286.73"/>
<polygon fill="black" stroke="black" points="780.09,-283.65 773.18,-291.68 783.59,-289.71 780.09,-283.65"/>
</g>
</g>
</svg>
