<?xml version="1.0" encoding="UTF-8" standalone="no"?>
<!DOCTYPE svg PUBLIC "-//W3C//DTD SVG 1.1//EN"
 "http://www.w3.org/Graphics/SVG/1.1/DTD/svg11.dtd">
<!-- Generated by graphviz version 14.1.1 (20251213.1925)
 -->
<!-- Title: Flow Pages: 1 -->
<svg width="908pt" height="873pt"
 viewBox="0.00 0.00 908.00 873.00" xmlns="http://www.w3.org/2000/svg" xmlns:xlink="http://www.w3.org/1999/xlink">
<g id="graph0" class="graph" transform="scale(1 1) rotate(0) translate(4 868.99)">
<title>Flow</title>
<polygon fill="white" stroke="none" points="-4,4 -4,-868.99 903.76,-868.99 903.76,4 -4,4"/>
<!-- RFC9610 -->
<g id="node1" class="node">
<title>RFC9610</title>
<g id="a_node1"><a xlink:title="This document specifies a data model for synchronising contact data with a server using the JSON Meta Application Protocol (JMAP).">
<ellipse fill="green" stroke="black" cx="264.31" cy="-497.66" rx="173.06" ry="52.33"/>
<text xml:space="preserve" text-anchor="middle" x="264.31" y="-517.36" font-family="Times,serif" font-size="14.00">RFC9610</text>
<text xml:space="preserve" text-anchor="middle" x="264.31" y="-500.86" font-family="Times,serif" font-size="14.00">JSON Meta Application Protocol (JMAP)</text>
<text xml:space="preserve" text-anchor="middle" x="264.31" y="-484.36" font-family="Times,serif" font-size="14.00">for Contacts</text>
<text xml:space="preserve" text-anchor="middle" x="264.31" y="-467.86" font-family="Times,serif" font-size="14.00">2024</text>
</a>
</g>
</g>
<!-- obs -->
<g id="node3" class="node">
<title>obs</title>
<polygon fill="lightblue" stroke="black" points="528.63,-569.66 462.38,-569.66 462.38,-533.66 528.63,-533.66 528.63,-569.66"/>
<text xml:space="preserve" text-anchor="middle" x="495.5" y="-546.61" font-family="Times,serif" font-size="14.00">obsoletes</text>
</g>
<!-- RFC9610&#45;&gt;obs -->
<g id="edge2" class="edge">
<title>RFC9610&#45;&gt;obs</title>
<path fill="none" stroke="black" d="M401.61,-529.77C419.36,-533.96 436.39,-537.97 450.91,-541.39"/>
<polygon fill="black" stroke="black" points="449.97,-544.76 460.51,-543.65 451.58,-537.95 449.97,-544.76"/>
</g>
<!-- updates -->
<g id="node4" class="node">
<title>updates</title>
<polygon fill="lightyellow" stroke="black" points="524.13,-515.66 466.88,-515.66 466.88,-479.66 524.13,-479.66 524.13,-515.66"/>
<text xml:space="preserve" text-anchor="middle" x="495.5" y="-492.61" font-family="Times,serif" font-size="14.00">updates</text>
</g>
<!-- RFC9610&#45;&gt;updates -->
<g id="edge3" class="edge">
<title>RFC9610&#45;&gt;updates</title>
<path fill="none" stroke="black" d="M437.85,-497.66C444.03,-497.66 449.9,-497.66 455.36,-497.66"/>
<polygon fill="black" stroke="black" points="455.1,-501.16 465.1,-497.66 455.1,-494.16 455.1,-501.16"/>
</g>
<!-- cites -->
<g id="node6" class="node">
<title>cites</title>
<polygon fill="lightblue" stroke="black" points="522.5,-461.66 468.5,-461.66 468.5,-425.66 522.5,-425.66 522.5,-461.66"/>
<text xml:space="preserve" text-anchor="middle" x="495.5" y="-438.61" font-family="Times,serif" font-size="14.00">cites</text>
</g>
<!-- RFC9610&#45;&gt;cites -->
<g id="edge5" class="edge">
<title>RFC9610&#45;&gt;cites</title>
<path fill="none" stroke="black" d="M401.61,-465.55C422.04,-460.73 441.5,-456.15 457.29,-452.43"/>
<polygon fill="black" stroke="black" points="457.69,-455.93 466.62,-450.23 456.09,-449.12 457.69,-455.93"/>
</g>
<!-- obs_by -->
<g id="node2" class="node">
<title>obs_by</title>
<polygon fill="lightblue" stroke="black" points="66.25,-569.66 0,-569.66 0,-533.66 66.25,-533.66 66.25,-569.66"/>
<text xml:space="preserve" text-anchor="middle" x="33.12" y="-546.61" font-family="Times,serif" font-size="14.00">obsoletes</text>
</g>
<!-- obs_by&#45;&gt;RFC9610 -->
<g id="edge1" class="edge">
<title>obs_by&#45;&gt;RFC9610</title>
<path fill="none" stroke="black" d="M66.48,-544.04C80.3,-540.78 97.49,-536.73 115.92,-532.39"/>
<polygon fill="black" stroke="black" points="116.5,-535.85 125.43,-530.15 114.89,-529.03 116.5,-535.85"/>
</g>
<!-- updated_by -->
<g id="node5" class="node">
<title>updated_by</title>
<polygon fill="lightyellow" stroke="black" points="61.75,-515.66 4.5,-515.66 4.5,-479.66 61.75,-479.66 61.75,-515.66"/>
<text xml:space="preserve" text-anchor="middle" x="33.12" y="-492.61" font-family="Times,serif" font-size="14.00">updates</text>
</g>
<!-- updated_by&#45;&gt;RFC9610 -->
<g id="edge4" class="edge">
<title>updated_by&#45;&gt;RFC9610</title>
<path fill="none" stroke="black" d="M62.23,-497.66C67.59,-497.66 73.55,-497.66 79.97,-497.66"/>
<polygon fill="black" stroke="black" points="79.67,-501.16 89.67,-497.66 79.67,-494.16 79.67,-501.16"/>
</g>
<!-- RFC8620 -->
<g id="node7" class="node">
<title>RFC8620</title>
<g id="a_node7"><a xlink:href="RFC8620.html" xlink:title="This document specifies a protocol for clients to efficiently query, fetch, and modify JSON&#45;based data objects, with support for push notification of changes and fast resynchronisation and for out&#45;of&#45; band binary data upload/download." target="_top">
<ellipse fill="none" stroke="black" cx="726.69" cy="-812.66" rx="156.62" ry="52.33"/>
<text xml:space="preserve" text-anchor="middle" x="726.69" y="-832.36" font-family="Times,serif" font-size="14.00">RFC8620</text>
<text xml:space="preserve" text-anchor="middle" x="726.69" y="-815.86" font-family="Times,serif" font-size="14.00">The JSON Meta Application Protocol</text>
<text xml:space="preserve" text-anchor="middle" x="726.69" y="-799.36" font-family="Times,serif" font-size="14.00">(JMAP)</text>
<text xml:space="preserve" text-anchor="middle" x="726.69" y="-782.86" font-family="Times,serif" font-size="14.00">2019</text>
</a>
</g>
</g>
<!-- cites&#45;&gt;RFC8620 -->
<g id="edge6" class="edge">
<title>cites&#45;&gt;RFC8620</title>
<path fill="none" stroke="black" d="M522.46,-462.03C524.87,-464.67 527.01,-467.56 528.63,-470.66 557.5,-526.06 515.48,-701.2 553.63,-750.66 562.27,-761.87 573.13,-771.05 585.16,-778.58"/>
<polygon fill="black" stroke="black" points="583.31,-781.56 593.72,-783.51 586.8,-775.49 583.31,-781.56"/>
</g>
<!-- RFC2119 -->
<g id="node8" class="node">
<title>RFC2119</title>
<g id="a_node8"><a xlink:href="RFC2119.html" xlink:title="In many standards track documents several words are used to signify the requirements in the specification. &#160;These words are often capitalized. &#160;This document defines these words as they should be interpreted in IETF documents. &#160;This document specifies an Internet Best Current Practices for the Internet Community, and requests discussion and suggestions for improvements." target="_top">
<ellipse fill="none" stroke="black" cx="726.69" cy="-689.66" rx="160.34" ry="52.33"/>
<text xml:space="preserve" text-anchor="middle" x="726.69" y="-709.36" font-family="Times,serif" font-size="14.00">RFC2119</text>
<text xml:space="preserve" text-anchor="middle" x="726.69" y="-692.86" font-family="Times,serif" font-size="14.00">Key words for use in RFCs to Indicate</text>
<text xml:space="preserve" text-anchor="middle" x="726.69" y="-676.36" font-family="Times,serif" font-size="14.00">Requirement Levels</text>
<text xml:space="preserve" text-anchor="middle" x="726.69" y="-659.86" font-family="Times,serif" font-size="14.00">1997</text>
</a>
</g>
</g>
<!-- cites&#45;&gt;RFC2119 -->
<g id="edge7" class="edge">
<title>cites&#45;&gt;RFC2119</title>
<path fill="none" stroke="black" d="M522.25,-462.14C524.7,-464.77 526.91,-467.62 528.63,-470.66 563.42,-532.16 508.58,-573.23 553.63,-627.66 562.42,-638.28 573.17,-647.07 584.97,-654.37"/>
<polygon fill="black" stroke="black" points="582.9,-657.22 593.32,-659.14 586.38,-651.14 582.9,-657.22"/>
</g>
<!-- RFC8174 -->
<g id="node9" class="node">
<title>RFC8174</title>
<g id="a_node9"><a xlink:href="RFC8174.html" xlink:title="RFC 2119 specifies common key words that may be used in protocol specifications. &#160;This document aims to reduce the ambiguity by clarifying that only UPPERCASE usage of the key words have the defined special meanings." target="_top">
<ellipse fill="none" stroke="black" cx="726.69" cy="-566.66" rx="172" ry="52.33"/>
<text xml:space="preserve" text-anchor="middle" x="726.69" y="-586.36" font-family="Times,serif" font-size="14.00">RFC8174</text>
<text xml:space="preserve" text-anchor="middle" x="726.69" y="-569.86" font-family="Times,serif" font-size="14.00">Ambiguity of Uppercase vs Lowercase in</text>
<text xml:space="preserve" text-anchor="middle" x="726.69" y="-553.36" font-family="Times,serif" font-size="14.00">RFC 2119 Key Words</text>
<text xml:space="preserve" text-anchor="middle" x="726.69" y="-536.86" font-family="Times,serif" font-size="14.00">2017</text>
</a>
</g>
</g>
<!-- cites&#45;&gt;RFC8174 -->
<g id="edge8" class="edge">
<title>cites&#45;&gt;RFC8174</title>
<path fill="none" stroke="black" d="M519.58,-461.9C522.73,-464.72 525.84,-467.68 528.63,-470.66 541.45,-484.35 538.6,-493.44 553.63,-504.66 564.57,-512.83 576.69,-520 589.29,-526.29"/>
<polygon fill="black" stroke="black" points="587.58,-529.35 598.11,-530.49 590.58,-523.03 587.58,-529.35"/>
</g>
<!-- RFC9553 -->
<g id="node10" class="node">
<title>RFC9553</title>
<g id="a_node10"><a xlink:href="RFC9553.html" xlink:title="This specification defines a data model and JavaScript Object Notation (JSON) representation of contact card information that can be used for data storage and exchange in address book or directory applications. &#160;It aims to be an alternative to the vCard data format and to be unambiguous, extendable, and simple to process. &#160;In contrast to the JSON&#45;based jCard format, it is not a direct mapping from the vCard data model and expands semantics where appropriate. &#160;Two additional specifications define new vCard elements and how to convert between JSContact and vCard." target="_top">
<ellipse fill="none" stroke="black" cx="726.69" cy="-443.66" rx="156.62" ry="52.33"/>
<text xml:space="preserve" text-anchor="middle" x="726.69" y="-463.36" font-family="Times,serif" font-size="14.00">RFC9553</text>
<text xml:space="preserve" text-anchor="middle" x="726.69" y="-446.86" font-family="Times,serif" font-size="14.00">JSContact: A JSON Representation of</text>
<text xml:space="preserve" text-anchor="middle" x="726.69" y="-430.36" font-family="Times,serif" font-size="14.00">Contact Data</text>
<text xml:space="preserve" text-anchor="middle" x="726.69" y="-413.86" font-family="Times,serif" font-size="14.00">2024</text>
</a>
</g>
</g>
<!-- cites&#45;&gt;RFC9553 -->
<g id="edge9" class="edge">
<title>cites&#45;&gt;RFC9553</title>
<path fill="none" stroke="black" d="M522.79,-443.66C532.81,-443.66 545.12,-443.66 558.67,-443.66"/>
<polygon fill="black" stroke="black" points="558.28,-447.16 568.28,-443.66 558.28,-440.16 558.28,-447.16"/>
</g>
<!-- RFC9670 -->
<g id="node11" class="node">
<title>RFC9670</title>
<g id="a_node11"><a xlink:href="RFC9670.html" xlink:title="This document specifies a data model for sharing data between users using the JSON Meta Application Protocol (JMAP). &#160;Future documents can reference this document when defining data types to support a consistent model of sharing." target="_top">
<ellipse fill="none" stroke="black" cx="726.69" cy="-320.66" rx="173.06" ry="52.33"/>
<text xml:space="preserve" text-anchor="middle" x="726.69" y="-340.36" font-family="Times,serif" font-size="14.00">RFC9670</text>
<text xml:space="preserve" text-anchor="middle" x="726.69" y="-323.86" font-family="Times,serif" font-size="14.00">JSON Meta Application Protocol (JMAP)</text>
<text xml:space="preserve" text-anchor="middle" x="726.69" y="-307.36" font-family="Times,serif" font-size="14.00">Sharing</text>
<text xml:space="preserve" text-anchor="middle" x="726.69" y="-290.86" font-family="Times,serif" font-size="14.00">2024</text>
</a>
</g>
</g>
<!-- cites&#45;&gt;RFC9670 -->
<g id="edge10" class="edge">
<title>cites&#45;&gt;RFC9670</title>
<path fill="none" stroke="black" d="M509.94,-425.16C520.5,-411.76 536.3,-394.07 553.63,-382.66 565.47,-374.87 578.4,-367.91 591.7,-361.73"/>
<polygon fill="black" stroke="black" points="592.84,-365.06 600.54,-357.78 589.99,-358.67 592.84,-365.06"/>
</g>
<!-- RFC2397 -->
<g id="node12" class="node">
<title>RFC2397</title>
<g id="a_node12"><a xlink:href="RFC2397.html" xlink:title="A new URL scheme, data, is defined. &#160;It allows inclusion of small data items as immediate data, as if it had been included externally. [STANDARDS&#45;TRACK]" target="_top">
<ellipse fill="none" stroke="black" cx="726.69" cy="-209.66" rx="97.76" ry="40.66"/>
<text xml:space="preserve" text-anchor="middle" x="726.69" y="-221.11" font-family="Times,serif" font-size="14.00">RFC2397</text>
<text xml:space="preserve" text-anchor="middle" x="726.69" y="-204.61" font-family="Times,serif" font-size="14.00">The data URL scheme</text>
<text xml:space="preserve" text-anchor="middle" x="726.69" y="-188.11" font-family="Times,serif" font-size="14.00">1998</text>
</a>
</g>
</g>
<!-- cites&#45;&gt;RFC2397 -->
<g id="edge11" class="edge">
<title>cites&#45;&gt;RFC2397</title>
<path fill="none" stroke="black" d="M496.75,-425.36C498.26,-388.62 506.97,-305.48 553.63,-259.66 571.9,-241.72 596.21,-230.15 620.79,-222.7"/>
<polygon fill="black" stroke="black" points="621.55,-226.12 630.24,-220.07 619.67,-219.38 621.55,-226.12"/>
</g>
<!-- RFC8264 -->
<g id="node13" class="node">
<title>RFC8264</title>
<g id="a_node13"><a xlink:href="RFC8264.html" xlink:title="Application protocols using Unicode code points in protocol strings need to properly handle such strings in order to enforce internationalization rules for strings placed in various protocol slots (such as addresses and identifiers) and to perform valid comparison operations (e.g., for purposes of authentication or authorization). &#160;This document defines a framework enabling application protocols to perform the preparation, enforcement, and comparison of internationalized strings (PRECIS) in a way that depends on the properties of Unicode code points and thus is more agile with respect to versions of Unicode. &#160;As a result, this framework provides a more sustainable approach to the handling of internationalized strings than the previous framework, known as Stringprep (RFC 3454). &#160;This document obsoletes RFC 7564." target="_top">
<ellipse fill="none" stroke="black" cx="726.69" cy="-75.66" rx="162.99" ry="75.66"/>
<text xml:space="preserve" text-anchor="middle" x="726.69" y="-111.86" font-family="Times,serif" font-size="14.00">RFC8264</text>
<text xml:space="preserve" text-anchor="middle" x="726.69" y="-95.36" font-family="Times,serif" font-size="14.00">PRECIS Framework: Preparation,</text>
<text xml:space="preserve" text-anchor="middle" x="726.69" y="-78.86" font-family="Times,serif" font-size="14.00">Enforcement, and Comparison of</text>
<text xml:space="preserve" text-anchor="middle" x="726.69" y="-62.36" font-family="Times,serif" font-size="14.00">Internationalized Strings in Application</text>
<text xml:space="preserve" text-anchor="middle" x="726.69" y="-45.86" font-family="Times,serif" font-size="14.00">Protocols</text>
<text xml:space="preserve" text-anchor="middle" x="726.69" y="-29.36" font-family="Times,serif" font-size="14.00">2017</text>
</a>
</g>
</g>
<!-- cites&#45;&gt;RFC8264 -->
<g id="edge12" class="edge">
<title>cites&#45;&gt;RFC8264</title>
<path fill="none" stroke="black" d="M498.06,-425.51C503.17,-369.72 520.97,-201.95 553.63,-159.66 563.03,-147.49 574.65,-136.97 587.39,-127.91"/>
<polygon fill="black" stroke="black" points="589.23,-130.89 595.59,-122.41 585.33,-125.07 589.23,-130.89"/>
</g>
<!-- rev_cites -->
<g id="node14" class="node">
<title>rev_cites</title>
<polygon fill="lightblue" stroke="black" points="60.12,-461.66 6.12,-461.66 6.12,-425.66 60.12,-425.66 60.12,-461.66"/>
<text xml:space="preserve" text-anchor="middle" x="33.12" y="-438.61" font-family="Times,serif" font-size="14.00">cites</text>
</g>
<!-- rev_cites&#45;&gt;RFC9610 -->
<g id="edge13" class="edge">
<title>rev_cites&#45;&gt;RFC9610</title>
<path fill="none" stroke="black" d="M60.42,-449.85C75.03,-453.3 94.52,-457.89 115.64,-462.87"/>
<polygon fill="black" stroke="black" points="114.81,-466.27 125.35,-465.15 116.41,-459.45 114.81,-466.27"/>
</g>
</g>
</svg>
