<?xml version="1.0" encoding="UTF-8" standalone="no"?>
<!DOCTYPE svg PUBLIC "-//W3C//DTD SVG 1.1//EN"
 "http://www.w3.org/Graphics/SVG/1.1/DTD/svg11.dtd">
<!-- Generated by graphviz version 14.1.1 (20251213.1925)
 -->
<!-- Title: Flow Pages: 1 -->
<svg width="842pt" height="359pt"
 viewBox="0.00 0.00 842.00 359.00" xmlns="http://www.w3.org/2000/svg" xmlns:xlink="http://www.w3.org/1999/xlink">
<g id="graph0" class="graph" transform="scale(1 1) rotate(0) translate(4 354.65)">
<title>Flow</title>
<polygon fill="white" stroke="none" points="-4,4 -4,-354.65 838,-354.65 838,4 -4,4"/>
<!-- RFC9228 -->
<g id="node1" class="node">
<title>RFC9228</title>
<g id="a_node1"><a xlink:title="The address to which email is delivered might be different than any of the addresses shown in any of the content header fields that were created by the email&#39;s author. For example, the address used by the email transport service is provided separately, such as through SMTP&#39;s RCPT TO command, and might not match any address in the To: or cc: fields. In addition, before final delivery, handling can entail a sequence of submission/delivery events, using a sequence of different destination addresses that (eventually) lead to the recipient. As well, a receiving system&#39;s delivery process can produce local address transformations. It can be helpful for a message to have a common way to record each delivery in such a sequence, noting each address used in the sequence to that recipient, such as for (1) analyzing the path a message has taken, (2) loop detection, or (3) formulating the author&#39;s address in a reply message. This document defines a header field for this information. Email handling information discloses details about the email infrastructure, as well as about a particular recipient; this can raise privacy concerns. A header field such as this is not automatically assured of widespread use. Therefore, this document is being published as an Experimental RFC, looking for constituency and for operational utility. This document was produced through the Independent Submission Stream and was not subject to the IETF&#39;s approval process.">
<ellipse fill="green" stroke="black" cx="232.49" cy="-229.33" rx="141.24" ry="40.66"/>
<text xml:space="preserve" text-anchor="middle" x="232.49" y="-240.78" font-family="Times,serif" font-size="14.00">RFC9228</text>
<text xml:space="preserve" text-anchor="middle" x="232.49" y="-224.28" font-family="Times,serif" font-size="14.00">Delivered&#45;To Email Header Field</text>
<text xml:space="preserve" text-anchor="middle" x="232.49" y="-207.78" font-family="Times,serif" font-size="14.00">2022</text>
</a>
</g>
</g>
<!-- obs -->
<g id="node3" class="node">
<title>obs</title>
<polygon fill="lightblue" stroke="black" points="464.99,-301.33 398.74,-301.33 398.74,-265.33 464.99,-265.33 464.99,-301.33"/>
<text xml:space="preserve" text-anchor="middle" x="431.86" y="-278.28" font-family="Times,serif" font-size="14.00">obsoletes</text>
</g>
<!-- RFC9228&#45;&gt;obs -->
<g id="edge2" class="edge">
<title>RFC9228&#45;&gt;obs</title>
<path fill="none" stroke="black" d="M335.94,-257.35C354.22,-262.36 372.32,-267.31 387.74,-271.53"/>
<polygon fill="black" stroke="black" points="386.43,-274.8 397,-274.06 388.28,-268.05 386.43,-274.8"/>
</g>
<!-- updates -->
<g id="node4" class="node">
<title>updates</title>
<polygon fill="lightyellow" stroke="black" points="460.49,-247.33 403.24,-247.33 403.24,-211.33 460.49,-211.33 460.49,-247.33"/>
<text xml:space="preserve" text-anchor="middle" x="431.86" y="-224.28" font-family="Times,serif" font-size="14.00">updates</text>
</g>
<!-- RFC9228&#45;&gt;updates -->
<g id="edge3" class="edge">
<title>RFC9228&#45;&gt;updates</title>
<path fill="none" stroke="black" d="M374.04,-229.33C380.19,-229.33 386.07,-229.33 391.56,-229.33"/>
<polygon fill="black" stroke="black" points="391.39,-232.83 401.39,-229.33 391.39,-225.83 391.39,-232.83"/>
</g>
<!-- cites -->
<g id="node6" class="node">
<title>cites</title>
<polygon fill="lightblue" stroke="black" points="458.86,-193.33 404.86,-193.33 404.86,-157.33 458.86,-157.33 458.86,-193.33"/>
<text xml:space="preserve" text-anchor="middle" x="431.86" y="-170.28" font-family="Times,serif" font-size="14.00">cites</text>
</g>
<!-- RFC9228&#45;&gt;cites -->
<g id="edge5" class="edge">
<title>RFC9228&#45;&gt;cites</title>
<path fill="none" stroke="black" d="M335.94,-201.3C356.68,-195.62 377.2,-190.01 393.83,-185.46"/>
<polygon fill="black" stroke="black" points="394.49,-188.91 403.21,-182.89 392.65,-182.15 394.49,-188.91"/>
</g>
<!-- obs_by -->
<g id="node2" class="node">
<title>obs_by</title>
<polygon fill="lightblue" stroke="black" points="66.25,-301.33 0,-301.33 0,-265.33 66.25,-265.33 66.25,-301.33"/>
<text xml:space="preserve" text-anchor="middle" x="33.12" y="-278.28" font-family="Times,serif" font-size="14.00">obsoletes</text>
</g>
<!-- obs_by&#45;&gt;RFC9228 -->
<g id="edge1" class="edge">
<title>obs_by&#45;&gt;RFC9228</title>
<path fill="none" stroke="black" d="M66.72,-274.41C81.18,-270.45 99.14,-265.54 117.84,-260.42"/>
<polygon fill="black" stroke="black" points="118.73,-263.81 127.46,-257.79 116.89,-257.05 118.73,-263.81"/>
</g>
<!-- updated_by -->
<g id="node5" class="node">
<title>updated_by</title>
<polygon fill="lightyellow" stroke="black" points="61.75,-247.33 4.5,-247.33 4.5,-211.33 61.75,-211.33 61.75,-247.33"/>
<text xml:space="preserve" text-anchor="middle" x="33.12" y="-224.28" font-family="Times,serif" font-size="14.00">updates</text>
</g>
<!-- updated_by&#45;&gt;RFC9228 -->
<g id="edge4" class="edge">
<title>updated_by&#45;&gt;RFC9228</title>
<path fill="none" stroke="black" d="M61.98,-229.33C67.36,-229.33 73.33,-229.33 79.73,-229.33"/>
<polygon fill="black" stroke="black" points="79.34,-232.83 89.34,-229.33 79.34,-225.83 79.34,-232.83"/>
</g>
<!-- RFC8174 -->
<g id="node7" class="node">
<title>RFC8174</title>
<g id="a_node7"><a xlink:href="RFC8174.html" xlink:title="RFC 2119 specifies common key words that may be used in protocol specifications. &#160;This document aims to reduce the ambiguity by clarifying that only UPPERCASE usage of the key words have the defined special meanings." target="_top">
<ellipse fill="none" stroke="black" cx="661.99" cy="-298.33" rx="172" ry="52.33"/>
<text xml:space="preserve" text-anchor="middle" x="661.99" y="-318.03" font-family="Times,serif" font-size="14.00">RFC8174</text>
<text xml:space="preserve" text-anchor="middle" x="661.99" y="-301.53" font-family="Times,serif" font-size="14.00">Ambiguity of Uppercase vs Lowercase in</text>
<text xml:space="preserve" text-anchor="middle" x="661.99" y="-285.03" font-family="Times,serif" font-size="14.00">RFC 2119 Key Words</text>
<text xml:space="preserve" text-anchor="middle" x="661.99" y="-268.53" font-family="Times,serif" font-size="14.00">2017</text>
</a>
</g>
</g>
<!-- cites&#45;&gt;RFC8174 -->
<g id="edge6" class="edge">
<title>cites&#45;&gt;RFC8174</title>
<path fill="none" stroke="black" d="M455.94,-193.56C459.09,-196.38 462.2,-199.35 464.99,-202.33 477.81,-216.01 474.97,-225.09 489.99,-236.33 500.86,-244.46 512.91,-251.61 525.43,-257.88"/>
<polygon fill="black" stroke="black" points="523.66,-260.91 534.19,-262.07 526.68,-254.6 523.66,-260.91"/>
</g>
<!-- RFC2119 -->
<g id="node8" class="node">
<title>RFC2119</title>
<g id="a_node8"><a xlink:href="RFC2119.html" xlink:title="In many standards track documents several words are used to signify the requirements in the specification. &#160;These words are often capitalized. &#160;This document defines these words as they should be interpreted in IETF documents. &#160;This document specifies an Internet Best Current Practices for the Internet Community, and requests discussion and suggestions for improvements." target="_top">
<ellipse fill="none" stroke="black" cx="661.99" cy="-175.33" rx="160.34" ry="52.33"/>
<text xml:space="preserve" text-anchor="middle" x="661.99" y="-195.03" font-family="Times,serif" font-size="14.00">RFC2119</text>
<text xml:space="preserve" text-anchor="middle" x="661.99" y="-178.53" font-family="Times,serif" font-size="14.00">Key words for use in RFCs to Indicate</text>
<text xml:space="preserve" text-anchor="middle" x="661.99" y="-162.03" font-family="Times,serif" font-size="14.00">Requirement Levels</text>
<text xml:space="preserve" text-anchor="middle" x="661.99" y="-145.53" font-family="Times,serif" font-size="14.00">1997</text>
</a>
</g>
</g>
<!-- cites&#45;&gt;RFC2119 -->
<g id="edge7" class="edge">
<title>cites&#45;&gt;RFC2119</title>
<path fill="none" stroke="black" d="M459.03,-175.33C467.81,-175.33 478.36,-175.33 489.96,-175.33"/>
<polygon fill="black" stroke="black" points="489.87,-178.83 499.87,-175.33 489.87,-171.83 489.87,-178.83"/>
</g>
<!-- RFC3864 -->
<g id="node9" class="node">
<title>RFC3864</title>
<g id="a_node9"><a xlink:href="RFC3864.html" xlink:title="This specification defines registration procedures for the message header fields used by Internet mail, HTTP, Netnews and other applications. &#160;This document specifies an Internet Best Current Practices for the Internet Community, and requests discussion and suggestions for improvements." target="_top">
<ellipse fill="none" stroke="black" cx="661.99" cy="-52.33" rx="153.44" ry="52.33"/>
<text xml:space="preserve" text-anchor="middle" x="661.99" y="-72.03" font-family="Times,serif" font-size="14.00">RFC3864</text>
<text xml:space="preserve" text-anchor="middle" x="661.99" y="-55.53" font-family="Times,serif" font-size="14.00">Registration Procedures for Message</text>
<text xml:space="preserve" text-anchor="middle" x="661.99" y="-39.03" font-family="Times,serif" font-size="14.00">Header Fields</text>
<text xml:space="preserve" text-anchor="middle" x="661.99" y="-22.53" font-family="Times,serif" font-size="14.00">2004</text>
</a>
</g>
</g>
<!-- cites&#45;&gt;RFC3864 -->
<g id="edge8" class="edge">
<title>cites&#45;&gt;RFC3864</title>
<path fill="none" stroke="black" d="M446.3,-156.84C456.87,-143.44 472.67,-125.75 489.99,-114.33 503.61,-105.34 518.71,-97.46 534.12,-90.6"/>
<polygon fill="black" stroke="black" points="535.08,-93.99 542.89,-86.83 532.32,-87.56 535.08,-93.99"/>
</g>
<!-- rev_cites -->
<g id="node10" class="node">
<title>rev_cites</title>
<polygon fill="lightblue" stroke="black" points="60.12,-193.33 6.12,-193.33 6.12,-157.33 60.12,-157.33 60.12,-193.33"/>
<text xml:space="preserve" text-anchor="middle" x="33.12" y="-170.28" font-family="Times,serif" font-size="14.00">cites</text>
</g>
<!-- rev_cites&#45;&gt;RFC9228 -->
<g id="edge9" class="edge">
<title>rev_cites&#45;&gt;RFC9228</title>
<path fill="none" stroke="black" d="M60.33,-182.5C75.76,-186.72 96.46,-192.38 118.12,-198.31"/>
<polygon fill="black" stroke="black" points="117.14,-201.67 127.71,-200.93 118.98,-194.91 117.14,-201.67"/>
</g>
</g>
</svg>
