<?xml version="1.0" encoding="UTF-8" standalone="no"?>
<!DOCTYPE svg PUBLIC "-//W3C//DTD SVG 1.1//EN"
 "http://www.w3.org/Graphics/SVG/1.1/DTD/svg11.dtd">
<!-- Generated by graphviz version 14.1.1 (20251213.1925)
 -->
<!-- Title: Flow Pages: 1 -->
<svg width="901pt" height="873pt"
 viewBox="0.00 0.00 901.00 873.00" xmlns="http://www.w3.org/2000/svg" xmlns:xlink="http://www.w3.org/1999/xlink">
<g id="graph0" class="graph" transform="scale(1 1) rotate(0) translate(4 869.32)">
<title>Flow</title>
<polygon fill="white" stroke="none" points="-4,4 -4,-869.32 897.39,-869.32 897.39,4 -4,4"/>
<!-- RFC9327 -->
<g id="node1" class="node">
<title>RFC9327</title>
<g id="a_node1"><a xlink:title="This document describes the structure of the control messages that were historically used with the Network Time Protocol (NTP) before the advent of more modern control and management approaches. These control messages have been used to monitor and control the NTP application running on any IP network attached computer. The information in this document was originally described in Appendix B of RFC 1305. The goal of this document is to provide an updated description of the control messages described in RFC 1305 in order to conform with the updated NTP specification documented in RFC 5905. The publication of this document is not meant to encourage the development and deployment of these control messages. This document is only providing a current reference for these control messages given the current status of RFC 1305.">
<ellipse fill="green" stroke="black" cx="257.95" cy="-475.33" rx="166.7" ry="52.33"/>
<text xml:space="preserve" text-anchor="middle" x="257.95" y="-495.03" font-family="Times,serif" font-size="14.00">RFC9327</text>
<text xml:space="preserve" text-anchor="middle" x="257.95" y="-478.53" font-family="Times,serif" font-size="14.00">Control Messages Protocol for Use with</text>
<text xml:space="preserve" text-anchor="middle" x="257.95" y="-462.03" font-family="Times,serif" font-size="14.00">Network Time Protocol Version 4</text>
<text xml:space="preserve" text-anchor="middle" x="257.95" y="-445.53" font-family="Times,serif" font-size="14.00">2022</text>
</a>
</g>
</g>
<!-- obs -->
<g id="node3" class="node">
<title>obs</title>
<polygon fill="lightblue" stroke="black" points="515.9,-547.33 449.65,-547.33 449.65,-511.33 515.9,-511.33 515.9,-547.33"/>
<text xml:space="preserve" text-anchor="middle" x="482.78" y="-524.28" font-family="Times,serif" font-size="14.00">obsoletes</text>
</g>
<!-- RFC9327&#45;&gt;obs -->
<g id="edge2" class="edge">
<title>RFC9327&#45;&gt;obs</title>
<path fill="none" stroke="black" d="M390.82,-507.28C408.03,-511.45 424.55,-515.46 438.69,-518.88"/>
<polygon fill="black" stroke="black" points="437.47,-522.19 448.01,-521.14 439.12,-515.39 437.47,-522.19"/>
</g>
<!-- updates -->
<g id="node4" class="node">
<title>updates</title>
<polygon fill="lightyellow" stroke="black" points="511.4,-493.33 454.15,-493.33 454.15,-457.33 511.4,-457.33 511.4,-493.33"/>
<text xml:space="preserve" text-anchor="middle" x="482.78" y="-470.28" font-family="Times,serif" font-size="14.00">updates</text>
</g>
<!-- RFC9327&#45;&gt;updates -->
<g id="edge3" class="edge">
<title>RFC9327&#45;&gt;updates</title>
<path fill="none" stroke="black" d="M424.97,-475.33C431.14,-475.33 437.01,-475.33 442.48,-475.33"/>
<polygon fill="black" stroke="black" points="442.25,-478.83 452.25,-475.33 442.25,-471.83 442.25,-478.83"/>
</g>
<!-- cites -->
<g id="node6" class="node">
<title>cites</title>
<polygon fill="lightblue" stroke="black" points="509.78,-439.33 455.78,-439.33 455.78,-403.33 509.78,-403.33 509.78,-439.33"/>
<text xml:space="preserve" text-anchor="middle" x="482.78" y="-416.28" font-family="Times,serif" font-size="14.00">cites</text>
</g>
<!-- RFC9327&#45;&gt;cites -->
<g id="edge5" class="edge">
<title>RFC9327&#45;&gt;cites</title>
<path fill="none" stroke="black" d="M390.82,-443.37C410.44,-438.61 429.18,-434.07 444.5,-430.36"/>
<polygon fill="black" stroke="black" points="445.14,-433.81 454.04,-428.05 443.49,-427 445.14,-433.81"/>
</g>
<!-- obs_by -->
<g id="node2" class="node">
<title>obs_by</title>
<polygon fill="lightblue" stroke="black" points="66.25,-547.33 0,-547.33 0,-511.33 66.25,-511.33 66.25,-547.33"/>
<text xml:space="preserve" text-anchor="middle" x="33.12" y="-524.28" font-family="Times,serif" font-size="14.00">obsoletes</text>
</g>
<!-- obs_by&#45;&gt;RFC9327 -->
<g id="edge1" class="edge">
<title>obs_by&#45;&gt;RFC9327</title>
<path fill="none" stroke="black" d="M66.53,-521.47C79.92,-518.23 96.45,-514.22 114.14,-509.94"/>
<polygon fill="black" stroke="black" points="114.91,-513.35 123.81,-507.59 113.26,-506.55 114.91,-513.35"/>
</g>
<!-- updated_by -->
<g id="node5" class="node">
<title>updated_by</title>
<polygon fill="lightyellow" stroke="black" points="61.75,-493.33 4.5,-493.33 4.5,-457.33 61.75,-457.33 61.75,-493.33"/>
<text xml:space="preserve" text-anchor="middle" x="33.12" y="-470.28" font-family="Times,serif" font-size="14.00">updates</text>
</g>
<!-- updated_by&#45;&gt;RFC9327 -->
<g id="edge4" class="edge">
<title>updated_by&#45;&gt;RFC9327</title>
<path fill="none" stroke="black" d="M61.9,-475.33C67.28,-475.33 73.27,-475.33 79.73,-475.33"/>
<polygon fill="black" stroke="black" points="79.48,-478.83 89.48,-475.33 79.48,-471.83 79.48,-478.83"/>
</g>
<!-- RFC1305 -->
<g id="node7" class="node">
<title>RFC1305</title>
<g id="a_node7"><a xlink:href="RFC1305.html" xlink:title="This document describes the Network Time Protocol (NTP), specifies its formal structure and summarizes information useful for its implementation." target="_top">
<ellipse fill="none" stroke="black" cx="717.15" cy="-801.33" rx="148.14" ry="63.99"/>
<text xml:space="preserve" text-anchor="middle" x="717.15" y="-829.28" font-family="Times,serif" font-size="14.00">RFC1305</text>
<text xml:space="preserve" text-anchor="middle" x="717.15" y="-812.78" font-family="Times,serif" font-size="14.00">Network Time Protocol (Version 3)</text>
<text xml:space="preserve" text-anchor="middle" x="717.15" y="-796.28" font-family="Times,serif" font-size="14.00">Specification, Implementation and</text>
<text xml:space="preserve" text-anchor="middle" x="717.15" y="-779.78" font-family="Times,serif" font-size="14.00">Analysis</text>
<text xml:space="preserve" text-anchor="middle" x="717.15" y="-763.28" font-family="Times,serif" font-size="14.00">1992</text>
</a>
</g>
</g>
<!-- cites&#45;&gt;RFC1305 -->
<g id="edge6" class="edge">
<title>cites&#45;&gt;RFC1305</title>
<path fill="none" stroke="black" d="M509.74,-439.69C512.15,-442.34 514.28,-445.22 515.9,-448.33 544.77,-503.72 503.97,-677.94 540.9,-728.33 551.13,-742.28 564.54,-753.58 579.38,-762.73"/>
<polygon fill="black" stroke="black" points="577.6,-765.74 588.02,-767.69 581.08,-759.67 577.6,-765.74"/>
</g>
<!-- RFC5905 -->
<g id="node8" class="node">
<title>RFC5905</title>
<g id="a_node8"><a xlink:href="RFC5905.html" xlink:title="The Network Time Protocol (NTP) is widely used to synchronize computer clocks in the Internet. &#160;This document describes NTP version 4 (NTPv4), which is backwards compatible with NTP version 3 (NTPv3), described in RFC 1305, as well as previous versions of the protocol. &#160;NTPv4 includes a modified protocol header to accommodate the Internet Protocol version 6 address family. &#160;NTPv4 includes fundamental improvements in the mitigation and discipline algorithms that extend the potential accuracy to the tens of microseconds with modern workstations and fast LANs. &#160;It includes a dynamic server discovery scheme, so that in many cases, specific server configuration is not required. &#160;It corrects certain errors in the NTPv3 design and implementation and includes an optional extension mechanism." target="_top">
<ellipse fill="none" stroke="black" cx="717.15" cy="-667.33" rx="159.28" ry="52.33"/>
<text xml:space="preserve" text-anchor="middle" x="717.15" y="-687.03" font-family="Times,serif" font-size="14.00">RFC5905</text>
<text xml:space="preserve" text-anchor="middle" x="717.15" y="-670.53" font-family="Times,serif" font-size="14.00">Network Time Protocol Version 4:</text>
<text xml:space="preserve" text-anchor="middle" x="717.15" y="-654.03" font-family="Times,serif" font-size="14.00">Protocol and Algorithms Specification</text>
<text xml:space="preserve" text-anchor="middle" x="717.15" y="-637.53" font-family="Times,serif" font-size="14.00">2010</text>
</a>
</g>
</g>
<!-- cites&#45;&gt;RFC5905 -->
<g id="edge7" class="edge">
<title>cites&#45;&gt;RFC5905</title>
<path fill="none" stroke="black" d="M509.53,-439.81C511.97,-442.43 514.18,-445.28 515.9,-448.33 550.69,-509.82 495.69,-551.03 540.9,-605.33 550.12,-616.39 561.44,-625.49 573.87,-632.96"/>
<polygon fill="black" stroke="black" points="571.8,-635.81 582.24,-637.62 575.21,-629.7 571.8,-635.81"/>
</g>
<!-- RFC2119 -->
<g id="node9" class="node">
<title>RFC2119</title>
<g id="a_node9"><a xlink:href="RFC2119.html" xlink:title="In many standards track documents several words are used to signify the requirements in the specification. &#160;These words are often capitalized. &#160;This document defines these words as they should be interpreted in IETF documents. &#160;This document specifies an Internet Best Current Practices for the Internet Community, and requests discussion and suggestions for improvements." target="_top">
<ellipse fill="none" stroke="black" cx="717.15" cy="-544.33" rx="160.34" ry="52.33"/>
<text xml:space="preserve" text-anchor="middle" x="717.15" y="-564.03" font-family="Times,serif" font-size="14.00">RFC2119</text>
<text xml:space="preserve" text-anchor="middle" x="717.15" y="-547.53" font-family="Times,serif" font-size="14.00">Key words for use in RFCs to Indicate</text>
<text xml:space="preserve" text-anchor="middle" x="717.15" y="-531.03" font-family="Times,serif" font-size="14.00">Requirement Levels</text>
<text xml:space="preserve" text-anchor="middle" x="717.15" y="-514.53" font-family="Times,serif" font-size="14.00">1997</text>
</a>
</g>
</g>
<!-- cites&#45;&gt;RFC2119 -->
<g id="edge8" class="edge">
<title>cites&#45;&gt;RFC2119</title>
<path fill="none" stroke="black" d="M506.85,-439.56C510,-442.38 513.11,-445.35 515.9,-448.33 528.73,-462.01 525.84,-471.15 540.9,-482.33 553.54,-491.7 567.71,-499.75 582.39,-506.65"/>
<polygon fill="black" stroke="black" points="580.68,-509.72 591.23,-510.62 583.54,-503.33 580.68,-509.72"/>
</g>
<!-- RFC8174 -->
<g id="node10" class="node">
<title>RFC8174</title>
<g id="a_node10"><a xlink:href="RFC8174.html" xlink:title="RFC 2119 specifies common key words that may be used in protocol specifications. &#160;This document aims to reduce the ambiguity by clarifying that only UPPERCASE usage of the key words have the defined special meanings." target="_top">
<ellipse fill="none" stroke="black" cx="717.15" cy="-421.33" rx="172" ry="52.33"/>
<text xml:space="preserve" text-anchor="middle" x="717.15" y="-441.03" font-family="Times,serif" font-size="14.00">RFC8174</text>
<text xml:space="preserve" text-anchor="middle" x="717.15" y="-424.53" font-family="Times,serif" font-size="14.00">Ambiguity of Uppercase vs Lowercase in</text>
<text xml:space="preserve" text-anchor="middle" x="717.15" y="-408.03" font-family="Times,serif" font-size="14.00">RFC 2119 Key Words</text>
<text xml:space="preserve" text-anchor="middle" x="717.15" y="-391.53" font-family="Times,serif" font-size="14.00">2017</text>
</a>
</g>
</g>
<!-- cites&#45;&gt;RFC8174 -->
<g id="edge9" class="edge">
<title>cites&#45;&gt;RFC8174</title>
<path fill="none" stroke="black" d="M509.98,-421.33C516.82,-421.33 524.74,-421.33 533.4,-421.33"/>
<polygon fill="black" stroke="black" points="533.23,-424.83 543.23,-421.33 533.23,-417.83 533.23,-424.83"/>
</g>
<!-- RFC8200 -->
<g id="node11" class="node">
<title>RFC8200</title>
<g id="a_node11"><a xlink:href="RFC8200.html" xlink:title="This document specifies version 6 of the Internet Protocol (IPv6). &#160;It obsoletes RFC 2460." target="_top">
<ellipse fill="none" stroke="black" cx="717.15" cy="-298.33" rx="144.43" ry="52.33"/>
<text xml:space="preserve" text-anchor="middle" x="717.15" y="-318.03" font-family="Times,serif" font-size="14.00">RFC8200</text>
<text xml:space="preserve" text-anchor="middle" x="717.15" y="-301.53" font-family="Times,serif" font-size="14.00">Internet Protocol, Version 6 (IPv6)</text>
<text xml:space="preserve" text-anchor="middle" x="717.15" y="-285.03" font-family="Times,serif" font-size="14.00">Specification</text>
<text xml:space="preserve" text-anchor="middle" x="717.15" y="-268.53" font-family="Times,serif" font-size="14.00">2017</text>
</a>
</g>
</g>
<!-- cites&#45;&gt;RFC8200 -->
<g id="edge10" class="edge">
<title>cites&#45;&gt;RFC8200</title>
<path fill="none" stroke="black" d="M496.97,-403.08C507.53,-389.63 523.41,-371.76 540.9,-360.33 556.37,-350.21 573.68,-341.52 591.25,-334.12"/>
<polygon fill="black" stroke="black" points="592.25,-337.49 600.2,-330.48 589.62,-331 592.25,-337.49"/>
</g>
<!-- RFC5952 -->
<g id="node12" class="node">
<title>RFC5952</title>
<g id="a_node12"><a xlink:href="RFC5952.html" xlink:title="As IPv6 deployment increases, there will be a dramatic increase in the need to use IPv6 addresses in text. &#160;While the IPv6 address architecture in Section 2.2 of RFC 4291 describes a flexible model for text representation of an IPv6 address, this flexibility has been causing problems for operators, system engineers, and users. &#160;This document defines a canonical textual representation format. &#160;It does not define a format for internal storage, such as within an application or database. &#160;It is expected that the canonical format will be followed by humans and systems when representing IPv6 addresses as text, but all implementations must accept and be able to handle any legitimate RFC 4291 format. [STANDARDS&#45;TRACK]" target="_top">
<ellipse fill="none" stroke="black" cx="717.15" cy="-175.33" rx="176.25" ry="52.33"/>
<text xml:space="preserve" text-anchor="middle" x="717.15" y="-195.03" font-family="Times,serif" font-size="14.00">RFC5952</text>
<text xml:space="preserve" text-anchor="middle" x="717.15" y="-178.53" font-family="Times,serif" font-size="14.00">A Recommendation for IPv6 Address Text</text>
<text xml:space="preserve" text-anchor="middle" x="717.15" y="-162.03" font-family="Times,serif" font-size="14.00">Representation</text>
<text xml:space="preserve" text-anchor="middle" x="717.15" y="-145.53" font-family="Times,serif" font-size="14.00">2010</text>
</a>
</g>
</g>
<!-- cites&#45;&gt;RFC5952 -->
<g id="edge11" class="edge">
<title>cites&#45;&gt;RFC5952</title>
<path fill="none" stroke="black" d="M484.26,-402.97C486.21,-366.49 495.69,-284.34 540.9,-237.33 549.55,-228.33 559.59,-220.64 570.39,-214.06"/>
<polygon fill="black" stroke="black" points="571.79,-217.29 578.76,-209.31 568.33,-211.21 571.79,-217.29"/>
</g>
<!-- RFC3704 -->
<g id="node13" class="node">
<title>RFC3704</title>
<g id="a_node13"><a xlink:href="RFC3704.html" xlink:title="BCP 38, RFC 2827, is designed to limit the impact of distributed denial of service attacks, by denying traffic with spoofed addresses access to the network, and to help ensure that traffic is traceable to its correct source network. &#160;As a side effect of protecting the Internet against such attacks, the network implementing the solution also protects itself from this and other attacks, such as spoofed management access to networking equipment. &#160;There are cases when this may create problems, e.g., with multihoming. &#160;This document describes the current ingress filtering operational mechanisms, examines generic issues related to ingress filtering, and delves into the effects on multihoming in particular. &#160;This memo updates RFC 2827. &#160;This document specifies an Internet Best Current Practices for the Internet Community, and requests discussion and suggestions for improvements." target="_top">
<ellipse fill="none" stroke="black" cx="717.15" cy="-52.33" rx="139.12" ry="52.33"/>
<text xml:space="preserve" text-anchor="middle" x="717.15" y="-72.03" font-family="Times,serif" font-size="14.00">RFC3704</text>
<text xml:space="preserve" text-anchor="middle" x="717.15" y="-55.53" font-family="Times,serif" font-size="14.00">Ingress Filtering for Multihomed</text>
<text xml:space="preserve" text-anchor="middle" x="717.15" y="-39.03" font-family="Times,serif" font-size="14.00">Networks</text>
<text xml:space="preserve" text-anchor="middle" x="717.15" y="-22.53" font-family="Times,serif" font-size="14.00">2004</text>
</a>
</g>
</g>
<!-- cites&#45;&gt;RFC3704 -->
<g id="edge12" class="edge">
<title>cites&#45;&gt;RFC3704</title>
<path fill="none" stroke="black" d="M484.81,-403.22C488.55,-344.19 503.12,-158.52 540.9,-114.33 552.54,-100.72 567.36,-90.09 583.44,-81.8"/>
<polygon fill="black" stroke="black" points="584.73,-85.07 592.24,-77.59 581.71,-78.75 584.73,-85.07"/>
</g>
<!-- rev_cites -->
<g id="node14" class="node">
<title>rev_cites</title>
<polygon fill="lightblue" stroke="black" points="60.12,-439.33 6.12,-439.33 6.12,-403.33 60.12,-403.33 60.12,-439.33"/>
<text xml:space="preserve" text-anchor="middle" x="33.12" y="-416.28" font-family="Times,serif" font-size="14.00">cites</text>
</g>
<!-- rev_cites&#45;&gt;RFC9327 -->
<g id="edge13" class="edge">
<title>rev_cites&#45;&gt;RFC9327</title>
<path fill="none" stroke="black" d="M60.56,-427.73C74.83,-431.19 93.67,-435.76 114.05,-440.69"/>
<polygon fill="black" stroke="black" points="113.15,-444.08 123.69,-443.03 114.8,-437.28 113.15,-444.08"/>
</g>
</g>
</svg>
