<?xml version="1.0" encoding="UTF-8" standalone="no"?>
<!DOCTYPE svg PUBLIC "-//W3C//DTD SVG 1.1//EN"
 "http://www.w3.org/Graphics/SVG/1.1/DTD/svg11.dtd">
<!-- Generated by graphviz version 14.1.1 (20251213.1925)
 -->
<!-- Title: Flow Pages: 1 -->
<svg width="990pt" height="1001pt"
 viewBox="0.00 0.00 990.00 1001.00" xmlns="http://www.w3.org/2000/svg" xmlns:xlink="http://www.w3.org/1999/xlink">
<g id="graph0" class="graph" transform="scale(1 1) rotate(0) translate(4 996.57)">
<title>Flow</title>
<polygon fill="white" stroke="none" points="-4,4 -4,-996.57 985.94,-996.57 985.94,4 -4,4"/>
<!-- RFC9529 -->
<g id="node1" class="node">
<title>RFC9529</title>
<g id="a_node1"><a xlink:title="This document contains example traces of Ephemeral Diffie&#45;Hellman Over COSE (EDHOC).">
<ellipse fill="green" stroke="black" cx="266.97" cy="-511.24" rx="175.72" ry="52.33"/>
<text xml:space="preserve" text-anchor="middle" x="266.97" y="-530.94" font-family="Times,serif" font-size="14.00">RFC9529</text>
<text xml:space="preserve" text-anchor="middle" x="266.97" y="-514.44" font-family="Times,serif" font-size="14.00">Traces of Ephemeral Diffie&#45;Hellman Over</text>
<text xml:space="preserve" text-anchor="middle" x="266.97" y="-497.94" font-family="Times,serif" font-size="14.00">COSE (EDHOC)</text>
<text xml:space="preserve" text-anchor="middle" x="266.97" y="-481.44" font-family="Times,serif" font-size="14.00">2024</text>
</a>
</g>
</g>
<!-- obs -->
<g id="node3" class="node">
<title>obs</title>
<polygon fill="lightblue" stroke="black" points="533.93,-610.24 467.68,-610.24 467.68,-574.24 533.93,-574.24 533.93,-610.24"/>
<text xml:space="preserve" text-anchor="middle" x="500.81" y="-587.19" font-family="Times,serif" font-size="14.00">obsoletes</text>
</g>
<!-- RFC9529&#45;&gt;obs -->
<g id="edge2" class="edge">
<title>RFC9529&#45;&gt;obs</title>
<path fill="none" stroke="black" d="M382.19,-551.15C408.86,-560.46 435.65,-569.82 456.91,-577.25"/>
<polygon fill="black" stroke="black" points="455.47,-580.46 466.06,-580.45 457.78,-573.85 455.47,-580.46"/>
</g>
<!-- updates -->
<g id="node4" class="node">
<title>updates</title>
<polygon fill="lightyellow" stroke="black" points="529.43,-556.24 472.18,-556.24 472.18,-520.24 529.43,-520.24 529.43,-556.24"/>
<text xml:space="preserve" text-anchor="middle" x="500.81" y="-533.19" font-family="Times,serif" font-size="14.00">updates</text>
</g>
<!-- RFC9529&#45;&gt;updates -->
<g id="edge3" class="edge">
<title>RFC9529&#45;&gt;updates</title>
<path fill="none" stroke="black" d="M431.19,-530.25C441.74,-531.48 451.66,-532.63 460.5,-533.66"/>
<polygon fill="black" stroke="black" points="460.01,-537.13 470.34,-534.81 460.82,-530.17 460.01,-537.13"/>
</g>
<!-- cites -->
<g id="node6" class="node">
<title>cites</title>
<polygon fill="lightblue" stroke="black" points="527.81,-502.24 473.81,-502.24 473.81,-466.24 527.81,-466.24 527.81,-502.24"/>
<text xml:space="preserve" text-anchor="middle" x="500.81" y="-479.19" font-family="Times,serif" font-size="14.00">cites</text>
</g>
<!-- RFC9529&#45;&gt;cites -->
<g id="edge5" class="edge">
<title>RFC9529&#45;&gt;cites</title>
<path fill="none" stroke="black" d="M431.19,-492.23C442.38,-490.93 452.86,-489.71 462.1,-488.63"/>
<polygon fill="black" stroke="black" points="462.46,-492.11 471.99,-487.48 461.65,-485.16 462.46,-492.11"/>
</g>
<!-- obs_by -->
<g id="node2" class="node">
<title>obs_by</title>
<polygon fill="lightblue" stroke="black" points="66.25,-556.24 0,-556.24 0,-520.24 66.25,-520.24 66.25,-556.24"/>
<text xml:space="preserve" text-anchor="middle" x="33.12" y="-533.19" font-family="Times,serif" font-size="14.00">obsoletes</text>
</g>
<!-- obs_by&#45;&gt;RFC9529 -->
<g id="edge1" class="edge">
<title>obs_by&#45;&gt;RFC9529</title>
<path fill="none" stroke="black" d="M66.36,-534.49C73.79,-533.62 82.2,-532.64 91.27,-531.58"/>
<polygon fill="black" stroke="black" points="91.6,-535.07 101.12,-530.44 90.79,-528.12 91.6,-535.07"/>
</g>
<!-- updated_by -->
<g id="node5" class="node">
<title>updated_by</title>
<polygon fill="lightyellow" stroke="black" points="61.75,-502.24 4.5,-502.24 4.5,-466.24 61.75,-466.24 61.75,-502.24"/>
<text xml:space="preserve" text-anchor="middle" x="33.12" y="-479.19" font-family="Times,serif" font-size="14.00">updates</text>
</g>
<!-- updated_by&#45;&gt;RFC9529 -->
<g id="edge4" class="edge">
<title>updated_by&#45;&gt;RFC9529</title>
<path fill="none" stroke="black" d="M62.09,-487.5C70.58,-488.49 80.6,-489.65 91.56,-490.93"/>
<polygon fill="black" stroke="black" points="90.98,-494.38 101.32,-492.06 91.79,-487.43 90.98,-494.38"/>
</g>
<!-- RFC9528 -->
<g id="node7" class="node">
<title>RFC9528</title>
<g id="a_node7"><a xlink:href="RFC9528.html" xlink:title="This document specifies Ephemeral Diffie&#45;Hellman Over COSE (EDHOC), a very compact and lightweight authenticated Diffie&#45;Hellman key exchange with ephemeral keys. &#160;EDHOC provides mutual authentication, forward secrecy, and identity protection. &#160;EDHOC is intended for usage in constrained scenarios, and a main use case is to establish an Object Security for Constrained RESTful Environments (OSCORE) security context. &#160;By reusing CBOR Object Signing and Encryption (COSE) for cryptography, Concise Binary Object Representation (CBOR) for encoding, and Constrained Application Protocol (CoAP) for transport, the additional code size can be kept very low." target="_top">
<ellipse fill="none" stroke="black" cx="730.94" cy="-940.24" rx="164.05" ry="52.33"/>
<text xml:space="preserve" text-anchor="middle" x="730.94" y="-959.94" font-family="Times,serif" font-size="14.00">RFC9528</text>
<text xml:space="preserve" text-anchor="middle" x="730.94" y="-943.44" font-family="Times,serif" font-size="14.00">Ephemeral Diffie&#45;Hellman Over COSE</text>
<text xml:space="preserve" text-anchor="middle" x="730.94" y="-926.94" font-family="Times,serif" font-size="14.00">(EDHOC)</text>
<text xml:space="preserve" text-anchor="middle" x="730.94" y="-910.44" font-family="Times,serif" font-size="14.00">2024</text>
</a>
</g>
</g>
<!-- cites&#45;&gt;RFC9528 -->
<g id="edge6" class="edge">
<title>cites&#45;&gt;RFC9528</title>
<path fill="none" stroke="black" d="M527.83,-502.57C530.23,-505.22 532.35,-508.12 533.93,-511.24 570.95,-584.12 509.76,-812.94 558.93,-878.24 566.65,-888.48 576.22,-897.04 586.86,-904.18"/>
<polygon fill="black" stroke="black" points="584.83,-907.04 595.18,-909.3 588.5,-901.08 584.83,-907.04"/>
</g>
<!-- RFC8949 -->
<g id="node8" class="node">
<title>RFC8949</title>
<g id="a_node8"><a xlink:href="RFC8949.html" xlink:title="The Concise Binary Object Representation (CBOR) is a data format whose design goals include the possibility of extremely small code size, fairly small message size, and extensibility without the need for version negotiation. These design goals make it different from earlier binary serializations such as ASN.1 and MessagePack. This document obsoletes RFC 7049, providing editorial improvements, new details, and errata fixes while keeping full compatibility with the interchange format of RFC 7049. It does not create a new version of the format." target="_top">
<ellipse fill="none" stroke="black" cx="730.94" cy="-817.24" rx="158.75" ry="52.33"/>
<text xml:space="preserve" text-anchor="middle" x="730.94" y="-836.94" font-family="Times,serif" font-size="14.00">RFC8949</text>
<text xml:space="preserve" text-anchor="middle" x="730.94" y="-820.44" font-family="Times,serif" font-size="14.00">Concise Binary Object Representation</text>
<text xml:space="preserve" text-anchor="middle" x="730.94" y="-803.94" font-family="Times,serif" font-size="14.00">(CBOR)</text>
<text xml:space="preserve" text-anchor="middle" x="730.94" y="-787.44" font-family="Times,serif" font-size="14.00">2020</text>
</a>
</g>
</g>
<!-- cites&#45;&gt;RFC8949 -->
<g id="edge7" class="edge">
<title>cites&#45;&gt;RFC8949</title>
<path fill="none" stroke="black" d="M527.73,-502.63C530.14,-505.27 532.3,-508.15 533.93,-511.24 559.53,-559.61 525.17,-713.17 558.93,-756.24 567.14,-766.7 577.28,-775.38 588.5,-782.56"/>
<polygon fill="black" stroke="black" points="586.47,-785.43 596.86,-787.49 590.02,-779.4 586.47,-785.43"/>
</g>
<!-- RFC8392 -->
<g id="node9" class="node">
<title>RFC8392</title>
<g id="a_node9"><a xlink:href="RFC8392.html" xlink:title="CBOR Web Token (CWT) is a compact means of representing claims to be transferred between two parties. &#160;The claims in a CWT are encoded in the Concise Binary Object Representation (CBOR), and CBOR Object Signing and Encryption (COSE) is used for added application&#45;layer security protection. &#160;A claim is a piece of information asserted about a subject and is represented as a name/value pair consisting of a claim name and a claim value. &#160;CWT is derived from JSON Web Token (JWT) but uses CBOR rather than JSON." target="_top">
<ellipse fill="none" stroke="black" cx="730.94" cy="-706.24" rx="114.73" ry="40.66"/>
<text xml:space="preserve" text-anchor="middle" x="730.94" y="-717.69" font-family="Times,serif" font-size="14.00">RFC8392</text>
<text xml:space="preserve" text-anchor="middle" x="730.94" y="-701.19" font-family="Times,serif" font-size="14.00">CBOR Web Token (CWT)</text>
<text xml:space="preserve" text-anchor="middle" x="730.94" y="-684.69" font-family="Times,serif" font-size="14.00">2018</text>
</a>
</g>
</g>
<!-- cites&#45;&gt;RFC8392 -->
<g id="edge8" class="edge">
<title>cites&#45;&gt;RFC8392</title>
<path fill="none" stroke="black" d="M527.21,-502.42C529.79,-505.13 532.12,-508.08 533.93,-511.24 566.5,-567.95 515.39,-607.44 558.93,-656.24 572.81,-671.79 591.23,-682.62 610.84,-690.14"/>
<polygon fill="black" stroke="black" points="609.49,-693.37 620.08,-693.37 611.8,-686.76 609.49,-693.37"/>
</g>
<!-- RFC8032 -->
<g id="node10" class="node">
<title>RFC8032</title>
<g id="a_node10"><a xlink:href="RFC8032.html" xlink:title="This document describes elliptic curve signature scheme Edwards&#45;curve Digital Signature Algorithm (EdDSA). &#160;The algorithm is instantiated with recommended parameters for the edwards25519 and edwards448 curves. &#160;An example implementation and test vectors are provided." target="_top">
<ellipse fill="none" stroke="black" cx="730.94" cy="-595.24" rx="139.65" ry="52.33"/>
<text xml:space="preserve" text-anchor="middle" x="730.94" y="-614.94" font-family="Times,serif" font-size="14.00">RFC8032</text>
<text xml:space="preserve" text-anchor="middle" x="730.94" y="-598.44" font-family="Times,serif" font-size="14.00">Edwards&#45;Curve Digital Signature</text>
<text xml:space="preserve" text-anchor="middle" x="730.94" y="-581.94" font-family="Times,serif" font-size="14.00">Algorithm (EdDSA)</text>
<text xml:space="preserve" text-anchor="middle" x="730.94" y="-565.44" font-family="Times,serif" font-size="14.00">2017</text>
</a>
</g>
</g>
<!-- cites&#45;&gt;RFC8032 -->
<g id="edge9" class="edge">
<title>cites&#45;&gt;RFC8032</title>
<path fill="none" stroke="black" d="M524.04,-502.7C527.37,-505.54 530.76,-508.45 533.93,-511.24 545.27,-521.21 546.01,-526.44 558.93,-534.24 574.61,-543.7 591.98,-552.02 609.46,-559.21"/>
<polygon fill="black" stroke="black" points="607.77,-562.3 618.35,-562.75 610.36,-555.8 607.77,-562.3"/>
</g>
<!-- RFC7748 -->
<g id="node11" class="node">
<title>RFC7748</title>
<g id="a_node11"><a xlink:href="RFC7748.html" xlink:title="This memo specifies two elliptic curves over prime fields that offer a high level of practical security in cryptographic applications, including Transport Layer Security (TLS). &#160;These curves are intended to operate at the ~128&#45;bit and ~224&#45;bit security level, respectively, and are generated deterministically based on a list of required properties." target="_top">
<ellipse fill="none" stroke="black" cx="730.94" cy="-484.24" rx="117.38" ry="40.66"/>
<text xml:space="preserve" text-anchor="middle" x="730.94" y="-495.69" font-family="Times,serif" font-size="14.00">RFC7748</text>
<text xml:space="preserve" text-anchor="middle" x="730.94" y="-479.19" font-family="Times,serif" font-size="14.00">Elliptic Curves for Security</text>
<text xml:space="preserve" text-anchor="middle" x="730.94" y="-462.69" font-family="Times,serif" font-size="14.00">2016</text>
</a>
</g>
</g>
<!-- cites&#45;&gt;RFC7748 -->
<g id="edge10" class="edge">
<title>cites&#45;&gt;RFC7748</title>
<path fill="none" stroke="black" d="M527.98,-484.24C546.83,-484.24 573.82,-484.24 601.95,-484.24"/>
<polygon fill="black" stroke="black" points="601.69,-487.74 611.69,-484.24 601.69,-480.74 601.69,-487.74"/>
</g>
<!-- RFC2119 -->
<g id="node12" class="node">
<title>RFC2119</title>
<g id="a_node12"><a xlink:href="RFC2119.html" xlink:title="In many standards track documents several words are used to signify the requirements in the specification. &#160;These words are often capitalized. &#160;This document defines these words as they should be interpreted in IETF documents. &#160;This document specifies an Internet Best Current Practices for the Internet Community, and requests discussion and suggestions for improvements." target="_top">
<ellipse fill="none" stroke="black" cx="730.94" cy="-373.24" rx="160.34" ry="52.33"/>
<text xml:space="preserve" text-anchor="middle" x="730.94" y="-392.94" font-family="Times,serif" font-size="14.00">RFC2119</text>
<text xml:space="preserve" text-anchor="middle" x="730.94" y="-376.44" font-family="Times,serif" font-size="14.00">Key words for use in RFCs to Indicate</text>
<text xml:space="preserve" text-anchor="middle" x="730.94" y="-359.94" font-family="Times,serif" font-size="14.00">Requirement Levels</text>
<text xml:space="preserve" text-anchor="middle" x="730.94" y="-343.44" font-family="Times,serif" font-size="14.00">1997</text>
</a>
</g>
</g>
<!-- cites&#45;&gt;RFC2119 -->
<g id="edge11" class="edge">
<title>cites&#45;&gt;RFC2119</title>
<path fill="none" stroke="black" d="M518.96,-466.13C529.66,-455.67 544.16,-442.91 558.93,-434.24 572.29,-426.4 586.83,-419.31 601.6,-412.99"/>
<polygon fill="black" stroke="black" points="602.55,-416.39 610.45,-409.32 599.87,-409.92 602.55,-416.39"/>
</g>
<!-- RFC8174 -->
<g id="node13" class="node">
<title>RFC8174</title>
<g id="a_node13"><a xlink:href="RFC8174.html" xlink:title="RFC 2119 specifies common key words that may be used in protocol specifications. &#160;This document aims to reduce the ambiguity by clarifying that only UPPERCASE usage of the key words have the defined special meanings." target="_top">
<ellipse fill="none" stroke="black" cx="730.94" cy="-250.24" rx="172" ry="52.33"/>
<text xml:space="preserve" text-anchor="middle" x="730.94" y="-269.94" font-family="Times,serif" font-size="14.00">RFC8174</text>
<text xml:space="preserve" text-anchor="middle" x="730.94" y="-253.44" font-family="Times,serif" font-size="14.00">Ambiguity of Uppercase vs Lowercase in</text>
<text xml:space="preserve" text-anchor="middle" x="730.94" y="-236.94" font-family="Times,serif" font-size="14.00">RFC 2119 Key Words</text>
<text xml:space="preserve" text-anchor="middle" x="730.94" y="-220.44" font-family="Times,serif" font-size="14.00">2017</text>
</a>
</g>
</g>
<!-- cites&#45;&gt;RFC8174 -->
<g id="edge12" class="edge">
<title>cites&#45;&gt;RFC8174</title>
<path fill="none" stroke="black" d="M502.81,-465.75C505.67,-431.03 516.69,-355.65 558.93,-312.24 567.53,-303.4 577.49,-295.82 588.18,-289.31"/>
<polygon fill="black" stroke="black" points="589.91,-292.36 596.88,-284.38 586.46,-286.27 589.91,-292.36"/>
</g>
<!-- RFC9053 -->
<g id="node14" class="node">
<title>RFC9053</title>
<g id="a_node14"><a xlink:href="RFC9053.html" xlink:title="Concise Binary Object Representation (CBOR) is a data format designed for small code size and small message size. There is a need to be able to define basic security services for this data format. This document defines a set of algorithms that can be used with the CBOR Object Signing and Encryption (COSE) protocol (RFC 9052). This document, along with RFC 9052, obsoletes RFC 8152." target="_top">
<ellipse fill="none" stroke="black" cx="730.94" cy="-127.24" rx="159.28" ry="52.33"/>
<text xml:space="preserve" text-anchor="middle" x="730.94" y="-146.94" font-family="Times,serif" font-size="14.00">RFC9053</text>
<text xml:space="preserve" text-anchor="middle" x="730.94" y="-130.44" font-family="Times,serif" font-size="14.00">CBOR Object Signing and Encryption</text>
<text xml:space="preserve" text-anchor="middle" x="730.94" y="-113.94" font-family="Times,serif" font-size="14.00">(COSE): Initial Algorithms</text>
<text xml:space="preserve" text-anchor="middle" x="730.94" y="-97.44" font-family="Times,serif" font-size="14.00">2022</text>
</a>
</g>
</g>
<!-- cites&#45;&gt;RFC9053 -->
<g id="edge13" class="edge">
<title>cites&#45;&gt;RFC9053</title>
<path fill="none" stroke="black" d="M503.02,-466.05C507.19,-408.48 522.75,-231.58 558.93,-189.24 567.75,-178.92 578.42,-170.32 590.08,-163.16"/>
<polygon fill="black" stroke="black" points="591.81,-166.2 598.77,-158.21 588.35,-160.11 591.81,-166.2"/>
</g>
<!-- rev_cites -->
<g id="node15" class="node">
<title>rev_cites</title>
<polygon fill="lightblue" stroke="black" points="981.94,-511.24 927.94,-511.24 927.94,-475.24 981.94,-475.24 981.94,-511.24"/>
<text xml:space="preserve" text-anchor="middle" x="954.94" y="-488.19" font-family="Times,serif" font-size="14.00">cites</text>
</g>
<!-- RFC9528&#45;&gt;rev_cites -->
<g id="edge15" class="edge">
<title>RFC9528&#45;&gt;rev_cites</title>
<path fill="none" stroke="black" d="M864.62,-909.48C879.23,-901.39 892.55,-891.16 902.94,-878.24 946.95,-823.52 953.11,-602.94 953.87,-522.65"/>
<polygon fill="black" stroke="black" points="957.37,-522.97 953.94,-512.95 950.37,-522.92 957.37,-522.97"/>
</g>
<!-- rev_cites&#45;&gt;RFC9529 -->
<g id="edge14" class="edge">
<title>rev_cites&#45;&gt;RFC9529</title>
<path fill="none" stroke="black" d="M953.16,-474.9C949.63,-396.69 934.03,-93.84 902.94,-66.24 788.6,35.26 693.41,6.5 558.93,-66.24 407.94,-147.92 322.77,-345.77 287.48,-447.9"/>
<polygon fill="black" stroke="black" points="284.21,-446.64 284.3,-457.24 290.83,-448.9 284.21,-446.64"/>
</g>
</g>
</svg>
