<?xml version="1.0" encoding="UTF-8" standalone="no"?>
<!DOCTYPE svg PUBLIC "-//W3C//DTD SVG 1.1//EN"
 "http://www.w3.org/Graphics/SVG/1.1/DTD/svg11.dtd">
<!-- Generated by graphviz version 14.1.1 (20251213.1925)
 -->
<!-- Title: Flow Pages: 1 -->
<svg width="1321pt" height="1186pt"
 viewBox="0.00 0.00 1321.00 1186.00" xmlns="http://www.w3.org/2000/svg" xmlns:xlink="http://www.w3.org/1999/xlink">
<g id="graph0" class="graph" transform="scale(1 1) rotate(0) translate(4 1182.08)">
<title>Flow</title>
<polygon fill="white" stroke="none" points="-4,4 -4,-1182.08 1316.88,-1182.08 1316.88,4 -4,4"/>
<!-- RFC9211 -->
<g id="node1" class="node">
<title>RFC9211</title>
<g id="a_node1"><a xlink:title="To aid debugging, HTTP caches often append header fields to a response, explaining how they handled the request in an ad hoc manner. &#160;This specification defines a standard mechanism to do so that is aligned with HTTP&#39;s caching model.">
<ellipse fill="green" stroke="black" stroke-width="3" cx="910.51" cy="-387.25" rx="229.81" ry="65.05"/>
<text xml:space="preserve" text-anchor="middle" x="910.51" y="-412.15" font-family="Times,serif" font-size="18.00">RFC9211</text>
<text xml:space="preserve" text-anchor="middle" x="910.51" y="-391.15" font-family="Times,serif" font-size="18.00">The Cache&#45;Status HTTP Response Header</text>
<text xml:space="preserve" text-anchor="middle" x="910.51" y="-370.15" font-family="Times,serif" font-size="18.00">Field</text>
<text xml:space="preserve" text-anchor="middle" x="910.51" y="-349.15" font-family="Times,serif" font-size="18.00">2022</text>
</a>
</g>
</g>
<!-- obs -->
<g id="node3" class="node">
<title>obs</title>
<polygon fill="lightblue" stroke="black" points="1312.88,-558.2 1246.63,-558.2 1246.63,-522.2 1312.88,-522.2 1312.88,-558.2"/>
<text xml:space="preserve" text-anchor="middle" x="1279.76" y="-535.15" font-family="Times,serif" font-size="14.00">obsoletes</text>
</g>
<!-- RFC9211&#45;&gt;obs -->
<g id="edge2" class="edge">
<title>RFC9211&#45;&gt;obs</title>
<path fill="none" stroke="black" d="M1042.25,-441.82C1110.08,-469.92 1188.31,-502.32 1235.88,-522.03"/>
<polygon fill="black" stroke="black" points="1234.45,-525.22 1245.02,-525.81 1237.12,-518.75 1234.45,-525.22"/>
</g>
<!-- updates -->
<g id="node4" class="node">
<title>updates</title>
<polygon fill="lightyellow" stroke="black" points="1092.08,-774.5 1034.83,-774.5 1034.83,-738.5 1092.08,-738.5 1092.08,-774.5"/>
<text xml:space="preserve" text-anchor="middle" x="1063.46" y="-751.45" font-family="Times,serif" font-size="14.00">updates</text>
</g>
<!-- RFC9211&#45;&gt;updates -->
<g id="edge3" class="edge">
<title>RFC9211&#45;&gt;updates</title>
<path fill="none" stroke="black" d="M937.85,-453.27C971.59,-534.73 1027.46,-669.61 1051.67,-728.05"/>
<polygon fill="black" stroke="black" points="1048.3,-729.06 1055.36,-736.96 1054.77,-726.38 1048.3,-729.06"/>
</g>
<!-- cites -->
<g id="node6" class="node">
<title>cites</title>
<polygon fill="lightblue" stroke="black" points="568.26,-558.2 514.26,-558.2 514.26,-522.2 568.26,-522.2 568.26,-558.2"/>
<text xml:space="preserve" text-anchor="middle" x="541.26" y="-535.15" font-family="Times,serif" font-size="14.00">cites</text>
</g>
<!-- RFC9211&#45;&gt;cites -->
<g id="edge5" class="edge">
<title>RFC9211&#45;&gt;cites</title>
<path fill="none" stroke="black" d="M778.76,-441.82C708.01,-471.13 625.94,-505.12 579.15,-524.5"/>
<polygon fill="black" stroke="black" points="577.9,-521.23 570,-528.29 580.58,-527.7 577.9,-521.23"/>
</g>
<!-- obs_by -->
<g id="node2" class="node">
<title>obs_by</title>
<polygon fill="lightblue" stroke="black" points="790.68,-36 724.43,-36 724.43,0 790.68,0 790.68,-36"/>
<text xml:space="preserve" text-anchor="middle" x="757.56" y="-12.95" font-family="Times,serif" font-size="14.00">obsoletes</text>
</g>
<!-- obs_by&#45;&gt;RFC9211 -->
<g id="edge1" class="edge">
<title>obs_by&#45;&gt;RFC9211</title>
<path fill="none" stroke="black" d="M765.14,-36.31C785.56,-85.6 842.59,-223.28 878.85,-310.82"/>
<polygon fill="black" stroke="black" points="875.52,-311.93 882.58,-319.83 881.99,-309.26 875.52,-311.93"/>
</g>
<!-- updated_by -->
<g id="node5" class="node">
<title>updated_by</title>
<polygon fill="lightyellow" stroke="black" points="1092.08,-36 1034.83,-36 1034.83,0 1092.08,0 1092.08,-36"/>
<text xml:space="preserve" text-anchor="middle" x="1063.46" y="-12.95" font-family="Times,serif" font-size="14.00">updates</text>
</g>
<!-- updated_by&#45;&gt;RFC9211 -->
<g id="edge4" class="edge">
<title>updated_by&#45;&gt;RFC9211</title>
<path fill="none" stroke="black" d="M1055.87,-36.31C1035.45,-85.6 978.43,-223.28 942.17,-310.82"/>
<polygon fill="black" stroke="black" points="939.03,-309.26 938.43,-319.83 945.49,-311.93 939.03,-309.26"/>
</g>
<!-- RFC2119 -->
<g id="node7" class="node">
<title>RFC2119</title>
<g id="a_node7"><a xlink:href="RFC2119.html" xlink:title="In many standards track documents several words are used to signify the requirements in the specification. &#160;These words are often capitalized. &#160;This document defines these words as they should be interpreted in IETF documents. &#160;This document specifies an Internet Best Current Practices for the Internet Community, and requests discussion and suggestions for improvements." target="_top">
<ellipse fill="none" stroke="black" cx="604.61" cy="-1125.75" rx="160.34" ry="52.33"/>
<text xml:space="preserve" text-anchor="middle" x="604.61" y="-1145.45" font-family="Times,serif" font-size="14.00">RFC2119</text>
<text xml:space="preserve" text-anchor="middle" x="604.61" y="-1128.95" font-family="Times,serif" font-size="14.00">Key words for use in RFCs to Indicate</text>
<text xml:space="preserve" text-anchor="middle" x="604.61" y="-1112.45" font-family="Times,serif" font-size="14.00">Requirement Levels</text>
<text xml:space="preserve" text-anchor="middle" x="604.61" y="-1095.95" font-family="Times,serif" font-size="14.00">1997</text>
</a>
</g>
</g>
<!-- cites&#45;&gt;RFC2119 -->
<g id="edge6" class="edge">
<title>cites&#45;&gt;RFC2119</title>
<path fill="none" stroke="black" d="M543.26,-558.69C551.55,-635.38 583.49,-930.55 597.71,-1061.99"/>
<polygon fill="black" stroke="black" points="594.19,-1061.98 598.74,-1071.55 601.15,-1061.23 594.19,-1061.98"/>
</g>
<!-- RFC8174 -->
<g id="node8" class="node">
<title>RFC8174</title>
<g id="a_node8"><a xlink:href="RFC8174.html" xlink:title="RFC 2119 specifies common key words that may be used in protocol specifications. &#160;This document aims to reduce the ambiguity by clarifying that only UPPERCASE usage of the key words have the defined special meanings." target="_top">
<ellipse fill="none" stroke="black" cx="172" cy="-693.15" rx="172" ry="52.33"/>
<text xml:space="preserve" text-anchor="middle" x="172" y="-712.85" font-family="Times,serif" font-size="14.00">RFC8174</text>
<text xml:space="preserve" text-anchor="middle" x="172" y="-696.35" font-family="Times,serif" font-size="14.00">Ambiguity of Uppercase vs Lowercase in</text>
<text xml:space="preserve" text-anchor="middle" x="172" y="-679.85" font-family="Times,serif" font-size="14.00">RFC 2119 Key Words</text>
<text xml:space="preserve" text-anchor="middle" x="172" y="-663.35" font-family="Times,serif" font-size="14.00">2017</text>
</a>
</g>
</g>
<!-- cites&#45;&gt;RFC8174 -->
<g id="edge7" class="edge">
<title>cites&#45;&gt;RFC8174</title>
<path fill="none" stroke="black" d="M513.8,-551.57C465.98,-571.38 364.84,-613.27 284.93,-646.37"/>
<polygon fill="black" stroke="black" points="283.6,-643.14 275.7,-650.2 286.28,-649.6 283.6,-643.14"/>
</g>
<!-- RFC8126 -->
<g id="node9" class="node">
<title>RFC8126</title>
<g id="a_node9"><a xlink:href="RFC8126.html" xlink:title="Many protocols make use of points of extensibility that use constants to identify various protocol parameters. To ensure that the values in these fields do not have conflicting uses and to promote interoperability, their allocations are often coordinated by a central record keeper. For IETF protocols, that role is filled by the Internet Assigned Numbers Authority (IANA). To make assignments in a given registry prudently, guidance describing the conditions under which new values should be assigned, as well as when and how modifications to existing values can be made, is needed. This document defines a framework for the documentation of these guidelines by specification authors, in order to assure that the provided guidance for the IANA Considerations is clear and addresses the various issues that are likely in the operation of a registry. This is the third edition of this document; it obsoletes RFC 5226." target="_top">
<ellipse fill="none" stroke="black" cx="172" cy="-81.35" rx="136.47" ry="52.33"/>
<text xml:space="preserve" text-anchor="middle" x="172" y="-101.05" font-family="Times,serif" font-size="14.00">RFC8126</text>
<text xml:space="preserve" text-anchor="middle" x="172" y="-84.55" font-family="Times,serif" font-size="14.00">Guidelines for Writing an IANA</text>
<text xml:space="preserve" text-anchor="middle" x="172" y="-68.05" font-family="Times,serif" font-size="14.00">Considerations Section in RFCs</text>
<text xml:space="preserve" text-anchor="middle" x="172" y="-51.55" font-family="Times,serif" font-size="14.00">2017</text>
</a>
</g>
</g>
<!-- cites&#45;&gt;RFC8126 -->
<g id="edge8" class="edge">
<title>cites&#45;&gt;RFC8126</title>
<path fill="none" stroke="black" d="M526.55,-521.93C475.4,-458.36 303.73,-245.04 219.47,-140.33"/>
<polygon fill="black" stroke="black" points="222.27,-138.24 213.27,-132.64 216.82,-142.62 222.27,-138.24"/>
</g>
<!-- rev_cites -->
<g id="node10" class="node">
<title>rev_cites</title>
<polygon fill="lightblue" stroke="black" points="1306.76,-252.3 1252.76,-252.3 1252.76,-216.3 1306.76,-216.3 1306.76,-252.3"/>
<text xml:space="preserve" text-anchor="middle" x="1279.76" y="-229.25" font-family="Times,serif" font-size="14.00">cites</text>
</g>
<!-- rev_cites&#45;&gt;RFC9211 -->
<g id="edge9" class="edge">
<title>rev_cites&#45;&gt;RFC9211</title>
<path fill="none" stroke="black" d="M1252.31,-245.67C1210.16,-263.13 1126.64,-297.73 1052.7,-328.35"/>
<polygon fill="black" stroke="black" points="1051.64,-325 1043.74,-332.06 1054.32,-331.47 1051.64,-325"/>
</g>
</g>
</svg>
