<?xml version="1.0" encoding="UTF-8" standalone="no"?>
<!DOCTYPE svg PUBLIC "-//W3C//DTD SVG 1.1//EN"
 "http://www.w3.org/Graphics/SVG/1.1/DTD/svg11.dtd">
<!-- Generated by graphviz version 14.1.1 (20251213.1925)
 -->
<!-- Title: Flow Pages: 1 -->
<svg width="792pt" height="878pt"
 viewBox="0.00 0.00 792.00 878.00" xmlns="http://www.w3.org/2000/svg" xmlns:xlink="http://www.w3.org/1999/xlink">
<g id="graph0" class="graph" transform="scale(1 1) rotate(0) translate(4 874.32)">
<title>Flow</title>
<polygon fill="white" stroke="none" points="-4,4 -4,-874.32 788.15,-874.32 788.15,4 -4,4"/>
<!-- RFC9245 -->
<g id="node1" class="node">
<title>RFC9245</title>
<g id="a_node1"><a xlink:title="The Internet Engineering Task Force (IETF) discussion mailing list furthers the development and specification of Internet technology through the general discussion of technical, procedural, operational, and other topics for which no dedicated mailing lists exist. As this is the most general IETF mailing list, considerable latitude in terms of topics is allowed, but there are posts and topics that are unsuitable for this mailing list. This document defines the charter for the IETF discussion list and explains its scope. This document obsoletes RFC 3005 and updates RFC 3683.">
<ellipse fill="green" stroke="black" cx="216.05" cy="-718.66" rx="124.8" ry="40.66"/>
<text xml:space="preserve" text-anchor="middle" x="216.05" y="-730.11" font-family="Times,serif" font-size="14.00">RFC9245</text>
<text xml:space="preserve" text-anchor="middle" x="216.05" y="-713.61" font-family="Times,serif" font-size="14.00">IETF Discussion List Charter</text>
<text xml:space="preserve" text-anchor="middle" x="216.05" y="-697.11" font-family="Times,serif" font-size="14.00">2022</text>
</a>
</g>
</g>
<!-- obs -->
<g id="node3" class="node">
<title>obs</title>
<polygon fill="lightblue" stroke="black" points="432.11,-818.66 365.86,-818.66 365.86,-782.66 432.11,-782.66 432.11,-818.66"/>
<text xml:space="preserve" text-anchor="middle" x="398.98" y="-795.61" font-family="Times,serif" font-size="14.00">obsoletes</text>
</g>
<!-- RFC9245&#45;&gt;obs -->
<g id="edge2" class="edge">
<title>RFC9245&#45;&gt;obs</title>
<path fill="none" stroke="black" d="M290.12,-751.77C312.3,-761.83 335.93,-772.53 355.4,-781.36"/>
<polygon fill="black" stroke="black" points="353.82,-784.49 364.37,-785.43 356.71,-778.11 353.82,-784.49"/>
</g>
<!-- updates -->
<g id="node5" class="node">
<title>updates</title>
<polygon fill="lightyellow" stroke="black" points="427.61,-736.66 370.36,-736.66 370.36,-700.66 427.61,-700.66 427.61,-736.66"/>
<text xml:space="preserve" text-anchor="middle" x="398.98" y="-713.61" font-family="Times,serif" font-size="14.00">updates</text>
</g>
<!-- RFC9245&#45;&gt;updates -->
<g id="edge4" class="edge">
<title>RFC9245&#45;&gt;updates</title>
<path fill="none" stroke="black" d="M341.23,-718.66C347.29,-718.66 353.12,-718.66 358.57,-718.66"/>
<polygon fill="black" stroke="black" points="358.37,-722.16 368.37,-718.66 358.37,-715.16 358.37,-722.16"/>
</g>
<!-- cites -->
<g id="node8" class="node">
<title>cites</title>
<polygon fill="lightblue" stroke="black" points="425.98,-526.66 371.98,-526.66 371.98,-490.66 425.98,-490.66 425.98,-526.66"/>
<text xml:space="preserve" text-anchor="middle" x="398.98" y="-503.61" font-family="Times,serif" font-size="14.00">cites</text>
</g>
<!-- RFC9245&#45;&gt;cites -->
<g id="edge7" class="edge">
<title>RFC9245&#45;&gt;cites</title>
<path fill="none" stroke="black" d="M251.09,-679.16C287.23,-637.21 343.38,-572.03 374.76,-535.62"/>
<polygon fill="black" stroke="black" points="377.31,-538.02 381.19,-528.16 372.01,-533.45 377.31,-538.02"/>
</g>
<!-- obs_by -->
<g id="node2" class="node">
<title>obs_by</title>
<polygon fill="lightblue" stroke="black" points="66.25,-790.66 0,-790.66 0,-754.66 66.25,-754.66 66.25,-790.66"/>
<text xml:space="preserve" text-anchor="middle" x="33.12" y="-767.61" font-family="Times,serif" font-size="14.00">obsoletes</text>
</g>
<!-- obs_by&#45;&gt;RFC9245 -->
<g id="edge1" class="edge">
<title>obs_by&#45;&gt;RFC9245</title>
<path fill="none" stroke="black" d="M66.47,-763C79.65,-759.07 95.67,-754.29 112.26,-749.34"/>
<polygon fill="black" stroke="black" points="113.19,-752.71 121.77,-746.5 111.19,-746.01 113.19,-752.71"/>
</g>
<!-- RFC3005 -->
<g id="node4" class="node">
<title>RFC3005</title>
<g id="a_node4"><a xlink:href="RFC3005.html" xlink:title="The Internet Engineering Task Force (IETF) discussion mailing list furthers the development and specification of Internet technology through discussion of technical issues, and hosts discussions of IETF direction, policy, meetings, and procedures. &#160;As this is the most general IETF mailing list, considerable latitude is allowed. &#160;Advertising, whether to solicit business or promote employment opportunities, falls well outside the range of acceptable topics, as do discussions of a personal nature. &#160;This document specifies an Internet Best Current Practices for the Internet Community, and requests discussion and suggestions for improvements." target="_top">
<ellipse fill="none" stroke="black" cx="620.63" cy="-829.66" rx="124.8" ry="40.66"/>
<text xml:space="preserve" text-anchor="middle" x="620.63" y="-841.11" font-family="Times,serif" font-size="14.00">RFC3005</text>
<text xml:space="preserve" text-anchor="middle" x="620.63" y="-824.61" font-family="Times,serif" font-size="14.00">IETF Discussion List Charter</text>
<text xml:space="preserve" text-anchor="middle" x="620.63" y="-808.11" font-family="Times,serif" font-size="14.00">2000</text>
</a>
</g>
</g>
<!-- obs&#45;&gt;RFC3005 -->
<g id="edge3" class="edge">
<title>obs&#45;&gt;RFC3005</title>
<path fill="none" stroke="black" d="M432.39,-804.94C449.11,-807.14 470.69,-809.99 493.23,-812.97"/>
<polygon fill="black" stroke="black" points="492.48,-816.4 502.85,-814.24 493.4,-809.46 492.48,-816.4"/>
</g>
<!-- RFC3683 -->
<g id="node6" class="node">
<title>RFC3683</title>
<g id="a_node6"><a xlink:href="RFC3683.html" xlink:title="All self&#45;governing bodies have ways of managing the scope of participant interaction. &#160;The IETF uses a consensus&#45;driven process for developing computer&#45;communications standards in an open fashion. &#160;An important part of this consensus&#45;driven process is the pervasive use of mailing lists for discussion. &#160;Notably, in a small number of cases, a participant has engaged in a denial&#45;of&#45;service attack to disrupt the consensus&#45;driven process. &#160;Regrettably, as these bad faith attacks become more common, the IETF needs to establish a practice that reduces or eliminates these attacks. &#160;This memo recommends such a practice for use by the IETF. &#160;This document specifies an Internet Best Current Practices for the Internet Community, and requests discussion and suggestions for improvements." target="_top">
<ellipse fill="none" stroke="black" cx="620.63" cy="-718.66" rx="163.52" ry="52.33"/>
<text xml:space="preserve" text-anchor="middle" x="620.63" y="-738.36" font-family="Times,serif" font-size="14.00">RFC3683</text>
<text xml:space="preserve" text-anchor="middle" x="620.63" y="-721.86" font-family="Times,serif" font-size="14.00">A Practice for Revoking Posting Rights</text>
<text xml:space="preserve" text-anchor="middle" x="620.63" y="-705.36" font-family="Times,serif" font-size="14.00">to IETF Mailing Lists</text>
<text xml:space="preserve" text-anchor="middle" x="620.63" y="-688.86" font-family="Times,serif" font-size="14.00">2004</text>
</a>
</g>
</g>
<!-- updates&#45;&gt;RFC3683 -->
<g id="edge5" class="edge">
<title>updates&#45;&gt;RFC3683</title>
<path fill="none" stroke="black" d="M427.8,-718.66C433.2,-718.66 439.21,-718.66 445.68,-718.66"/>
<polygon fill="black" stroke="black" points="445.46,-722.16 455.46,-718.66 445.46,-715.16 445.46,-722.16"/>
</g>
<!-- updated_by -->
<g id="node7" class="node">
<title>updated_by</title>
<polygon fill="lightyellow" stroke="black" points="61.75,-736.66 4.5,-736.66 4.5,-700.66 61.75,-700.66 61.75,-736.66"/>
<text xml:space="preserve" text-anchor="middle" x="33.12" y="-713.61" font-family="Times,serif" font-size="14.00">updates</text>
</g>
<!-- updated_by&#45;&gt;RFC9245 -->
<g id="edge6" class="edge">
<title>updated_by&#45;&gt;RFC9245</title>
<path fill="none" stroke="black" d="M62,-718.66C67.4,-718.66 73.38,-718.66 79.76,-718.66"/>
<polygon fill="black" stroke="black" points="79.32,-722.16 89.32,-718.66 79.32,-715.16 79.32,-722.16"/>
</g>
<!-- cites&#45;&gt;RFC3005 -->
<g id="edge10" class="edge">
<title>cites&#45;&gt;RFC3005</title>
<path fill="none" stroke="black" d="M403.32,-526.96C414.18,-586.31 448.42,-770.14 457.11,-779.66 468.11,-791.7 481.93,-800.88 496.84,-807.86"/>
<polygon fill="black" stroke="black" points="495.36,-811.03 505.93,-811.75 498.11,-804.6 495.36,-811.03"/>
</g>
<!-- cites&#45;&gt;RFC3683 -->
<g id="edge11" class="edge">
<title>cites&#45;&gt;RFC3683</title>
<path fill="none" stroke="black" d="M402.15,-527.09C406.74,-558.14 420.25,-621.06 457.11,-657.66 465.37,-665.87 474.85,-672.98 484.98,-679.16"/>
<polygon fill="black" stroke="black" points="483.13,-682.14 493.55,-684.04 486.6,-676.05 483.13,-682.14"/>
</g>
<!-- RFC7154 -->
<g id="node9" class="node">
<title>RFC7154</title>
<g id="a_node9"><a xlink:href="RFC7154.html" xlink:title="This document provides a set of guidelines for personal interaction in the Internet Engineering Task Force. The guidelines recognize the diversity of IETF participants, emphasize the value of mutual respect, and stress the broad applicability of our work. This document is an updated version of the guidelines for conduct originally published in RFC 3184." target="_top">
<ellipse fill="none" stroke="black" cx="620.63" cy="-607.66" rx="124.27" ry="40.66"/>
<text xml:space="preserve" text-anchor="middle" x="620.63" y="-619.11" font-family="Times,serif" font-size="14.00">RFC7154</text>
<text xml:space="preserve" text-anchor="middle" x="620.63" y="-602.61" font-family="Times,serif" font-size="14.00">IETF Guidelines for Conduct</text>
<text xml:space="preserve" text-anchor="middle" x="620.63" y="-586.11" font-family="Times,serif" font-size="14.00">2014</text>
</a>
</g>
</g>
<!-- cites&#45;&gt;RFC7154 -->
<g id="edge8" class="edge">
<title>cites&#45;&gt;RFC7154</title>
<path fill="none" stroke="black" d="M416.98,-527.04C427.62,-537.59 442.12,-550.36 457.11,-558.66 472.69,-567.29 489.98,-574.58 507.29,-580.68"/>
<polygon fill="black" stroke="black" points="506.04,-583.95 516.63,-583.84 508.28,-577.32 506.04,-583.95"/>
</g>
<!-- RFC7776 -->
<g id="node10" class="node">
<title>RFC7776</title>
<g id="a_node10"><a xlink:href="RFC7776.html" xlink:title="IETF Participants must not engage in harassment while at IETF meetings, virtual meetings, or social events or while participating in mailing lists. This document lays out procedures for managing and enforcing this policy. This document updates RFC 2418 by defining new working group guidelines and procedures. This document updates RFC 7437 by allowing the Ombudsteam to form a recall petition without further signatories." target="_top">
<ellipse fill="none" stroke="black" cx="620.63" cy="-508.66" rx="144.43" ry="40.66"/>
<text xml:space="preserve" text-anchor="middle" x="620.63" y="-520.11" font-family="Times,serif" font-size="14.00">RFC7776</text>
<text xml:space="preserve" text-anchor="middle" x="620.63" y="-503.61" font-family="Times,serif" font-size="14.00">IETF Anti&#45;Harassment Procedures</text>
<text xml:space="preserve" text-anchor="middle" x="620.63" y="-487.11" font-family="Times,serif" font-size="14.00">2016</text>
</a>
</g>
</g>
<!-- cites&#45;&gt;RFC7776 -->
<g id="edge9" class="edge">
<title>cites&#45;&gt;RFC7776</title>
<path fill="none" stroke="black" d="M426.48,-508.66C437.12,-508.66 450.28,-508.66 464.71,-508.66"/>
<polygon fill="black" stroke="black" points="464.45,-512.16 474.45,-508.66 464.45,-505.16 464.45,-512.16"/>
</g>
<!-- RFC2026 -->
<g id="node11" class="node">
<title>RFC2026</title>
<g id="a_node11"><a xlink:href="RFC2026.html" xlink:title="This memo documents the process used by the Internet community for the standardization of protocols and procedures. &#160;It defines the stages in the standardization process, the requirements for moving a document between stages and the types of documents used during this process. &#160;This document specifies an Internet Best Current Practices for the Internet Community, and requests discussion and suggestions for improvements." target="_top">
<ellipse fill="none" stroke="black" cx="620.63" cy="-397.66" rx="139.65" ry="52.33"/>
<text xml:space="preserve" text-anchor="middle" x="620.63" y="-417.36" font-family="Times,serif" font-size="14.00">RFC2026</text>
<text xml:space="preserve" text-anchor="middle" x="620.63" y="-400.86" font-family="Times,serif" font-size="14.00">The Internet Standards Process &#45;&#45;</text>
<text xml:space="preserve" text-anchor="middle" x="620.63" y="-384.36" font-family="Times,serif" font-size="14.00">Revision 3</text>
<text xml:space="preserve" text-anchor="middle" x="620.63" y="-367.86" font-family="Times,serif" font-size="14.00">1996</text>
</a>
</g>
</g>
<!-- cites&#45;&gt;RFC2026 -->
<g id="edge12" class="edge">
<title>cites&#45;&gt;RFC2026</title>
<path fill="none" stroke="black" d="M417.19,-490.64C427.9,-480.21 442.4,-467.45 457.11,-458.66 471.32,-450.16 486.93,-442.49 502.66,-435.7"/>
<polygon fill="black" stroke="black" points="503.75,-439.04 511.62,-431.95 501.04,-432.59 503.75,-439.04"/>
</g>
<!-- RFC3552 -->
<g id="node12" class="node">
<title>RFC3552</title>
<g id="a_node12"><a xlink:href="RFC3552.html" xlink:title="All RFCs are required to have a Security Considerations section. &#160;Historically, such sections have been relatively weak. &#160;This document provides guidelines to RFC authors on how to write a good Security Considerations section. &#160;This document specifies an Internet Best Current Practices for the Internet Community, and requests discussion and suggestions for improvements." target="_top">
<ellipse fill="none" stroke="black" cx="620.63" cy="-274.66" rx="150.79" ry="52.33"/>
<text xml:space="preserve" text-anchor="middle" x="620.63" y="-294.36" font-family="Times,serif" font-size="14.00">RFC3552</text>
<text xml:space="preserve" text-anchor="middle" x="620.63" y="-277.86" font-family="Times,serif" font-size="14.00">Guidelines for Writing RFC Text on</text>
<text xml:space="preserve" text-anchor="middle" x="620.63" y="-261.36" font-family="Times,serif" font-size="14.00">Security Considerations</text>
<text xml:space="preserve" text-anchor="middle" x="620.63" y="-244.86" font-family="Times,serif" font-size="14.00">2003</text>
</a>
</g>
</g>
<!-- cites&#45;&gt;RFC3552 -->
<g id="edge13" class="edge">
<title>cites&#45;&gt;RFC3552</title>
<path fill="none" stroke="black" d="M401.05,-490.24C404.03,-455.62 415.23,-380.42 457.11,-336.66 466.58,-326.76 477.8,-318.42 489.85,-311.4"/>
<polygon fill="black" stroke="black" points="491.24,-314.63 498.35,-306.78 487.89,-308.49 491.24,-314.63"/>
</g>
<!-- RFC3160 -->
<g id="node13" class="node">
<title>RFC3160</title>
<g id="a_node13"><a xlink:href="RFC3160.html" xlink:title="This document describes the inner workings of IETF meetings and Working Groups, discusses organizations related to the IETF, and introduces the standards process. &#160;This memo provides information for the Internet community." target="_top">
<ellipse fill="none" stroke="black" cx="620.63" cy="-151.66" rx="161.93" ry="52.33"/>
<text xml:space="preserve" text-anchor="middle" x="620.63" y="-171.36" font-family="Times,serif" font-size="14.00">RFC3160</text>
<text xml:space="preserve" text-anchor="middle" x="620.63" y="-154.86" font-family="Times,serif" font-size="14.00">The Tao of IETF &#45; A Novice&#39;s Guide to</text>
<text xml:space="preserve" text-anchor="middle" x="620.63" y="-138.36" font-family="Times,serif" font-size="14.00">the Internet Engineering Task Force</text>
<text xml:space="preserve" text-anchor="middle" x="620.63" y="-121.86" font-family="Times,serif" font-size="14.00">2001</text>
</a>
</g>
</g>
<!-- cites&#45;&gt;RFC3160 -->
<g id="edge14" class="edge">
<title>cites&#45;&gt;RFC3160</title>
<path fill="none" stroke="black" d="M401.22,-490.49C405.48,-433 421.28,-256.29 457.11,-213.66 464.69,-204.64 473.74,-196.92 483.63,-190.33"/>
<polygon fill="black" stroke="black" points="485.38,-193.36 492.06,-185.14 481.71,-187.4 485.38,-193.36"/>
</g>
<!-- RFC3184 -->
<g id="node14" class="node">
<title>RFC3184</title>
<g id="a_node14"><a xlink:href="RFC3184.html" xlink:title="This document provides a set of guidelines for personal interaction in the Internet Engineering Task Force. &#160;This document specifies an Internet Best Current Practices for the Internet Community, and requests discussion and suggestions for improvements." target="_top">
<ellipse fill="none" stroke="black" cx="620.63" cy="-40.66" rx="124.27" ry="40.66"/>
<text xml:space="preserve" text-anchor="middle" x="620.63" y="-52.11" font-family="Times,serif" font-size="14.00">RFC3184</text>
<text xml:space="preserve" text-anchor="middle" x="620.63" y="-35.61" font-family="Times,serif" font-size="14.00">IETF Guidelines for Conduct</text>
<text xml:space="preserve" text-anchor="middle" x="620.63" y="-19.11" font-family="Times,serif" font-size="14.00">2001</text>
</a>
</g>
</g>
<!-- cites&#45;&gt;RFC3184 -->
<g id="edge15" class="edge">
<title>cites&#45;&gt;RFC3184</title>
<path fill="none" stroke="black" d="M399.96,-490.32C400.23,-417.84 404.84,-152.21 457.11,-90.66 467.67,-78.23 481.24,-68.83 496.03,-61.74"/>
<polygon fill="black" stroke="black" points="497.29,-65.01 505.05,-57.8 494.49,-58.6 497.29,-65.01"/>
</g>
<!-- rev_cites -->
<g id="node15" class="node">
<title>rev_cites</title>
<polygon fill="lightblue" stroke="black" points="60.12,-682.66 6.12,-682.66 6.12,-646.66 60.12,-646.66 60.12,-682.66"/>
<text xml:space="preserve" text-anchor="middle" x="33.12" y="-659.61" font-family="Times,serif" font-size="14.00">cites</text>
</g>
<!-- rev_cites&#45;&gt;RFC9245 -->
<g id="edge16" class="edge">
<title>rev_cites&#45;&gt;RFC9245</title>
<path fill="none" stroke="black" d="M60.43,-672.51C74.51,-676.71 92.85,-682.19 111.96,-687.89"/>
<polygon fill="black" stroke="black" points="110.92,-691.23 121.51,-690.74 112.93,-684.52 110.92,-691.23"/>
</g>
</g>
</svg>
