<?xml version="1.0" encoding="UTF-8" standalone="no"?>
<!DOCTYPE svg PUBLIC "-//W3C//DTD SVG 1.1//EN"
 "http://www.w3.org/Graphics/SVG/1.1/DTD/svg11.dtd">
<!-- Generated by graphviz version 14.1.1 (20251213.1925)
 -->
<!-- Title: Flow Pages: 1 -->
<svg width="924pt" height="827pt"
 viewBox="0.00 0.00 924.00 827.00" xmlns="http://www.w3.org/2000/svg" xmlns:xlink="http://www.w3.org/1999/xlink">
<g id="graph0" class="graph" transform="scale(1 1) rotate(0) translate(4 822.65)">
<title>Flow</title>
<polygon fill="white" stroke="none" points="-4,4 -4,-822.65 919.67,-822.65 919.67,4 -4,4"/>
<!-- RFC9081 -->
<g id="node1" class="node">
<title>RFC9081</title>
<g id="a_node1"><a xlink:title="This document specifies the procedures for interoperation between Multicast Virtual Private Network (MVPN) Source&#45;Active (SA) routes and customer Multicast Source Discovery Protocol (MSDP) SA routes, which is useful for MVPN provider networks offering services to customers with an existing MSDP infrastructure. &#160;Without the procedures described in this document, VPN&#45;specific MSDP sessions are required among the Provider Edge (PE) routers that are customer MSDP peers. &#160;This document updates RFC 6514.">
<ellipse fill="none" stroke="black" cx="271.21" cy="-642.33" rx="179.96" ry="75.66"/>
<text xml:space="preserve" text-anchor="middle" x="271.21" y="-678.53" font-family="Times,serif" font-size="14.00">RFC9081</text>
<text xml:space="preserve" text-anchor="middle" x="271.21" y="-662.03" font-family="Times,serif" font-size="14.00">Interoperation between Multicast Virtual</text>
<text xml:space="preserve" text-anchor="middle" x="271.21" y="-645.53" font-family="Times,serif" font-size="14.00">Private Network (MVPN) and Multicast</text>
<text xml:space="preserve" text-anchor="middle" x="271.21" y="-629.03" font-family="Times,serif" font-size="14.00">Source Directory Protocol (MSDP) Source&#45;</text>
<text xml:space="preserve" text-anchor="middle" x="271.21" y="-612.53" font-family="Times,serif" font-size="14.00">Active Routes</text>
<text xml:space="preserve" text-anchor="middle" x="271.21" y="-596.03" font-family="Times,serif" font-size="14.00">2021</text>
</a>
</g>
</g>
<!-- obs -->
<g id="node3" class="node">
<title>obs</title>
<polygon fill="none" stroke="black" points="542.42,-714.33 476.17,-714.33 476.17,-678.33 542.42,-678.33 542.42,-714.33"/>
<text xml:space="preserve" text-anchor="middle" x="509.29" y="-691.28" font-family="Times,serif" font-size="14.00">obsoletes</text>
</g>
<!-- RFC9081&#45;&gt;obs -->
<g id="edge2" class="edge">
<title>RFC9081&#45;&gt;obs</title>
<path fill="none" stroke="black" d="M430.01,-678.42C442.38,-681.25 454.09,-683.93 464.5,-686.31"/>
<polygon fill="black" stroke="black" points="463.67,-689.71 474.2,-688.53 465.23,-682.89 463.67,-689.71"/>
</g>
<!-- updates -->
<g id="node4" class="node">
<title>updates</title>
<polygon fill="none" stroke="black" points="537.92,-660.33 480.67,-660.33 480.67,-624.33 537.92,-624.33 537.92,-660.33"/>
<text xml:space="preserve" text-anchor="middle" x="509.29" y="-637.28" font-family="Times,serif" font-size="14.00">updates</text>
</g>
<!-- RFC9081&#45;&gt;updates -->
<g id="edge3" class="edge">
<title>RFC9081&#45;&gt;updates</title>
<path fill="none" stroke="black" d="M451.44,-642.33C457.66,-642.33 463.57,-642.33 469.05,-642.33"/>
<polygon fill="black" stroke="black" points="468.84,-645.83 478.84,-642.33 468.84,-638.83 468.84,-645.83"/>
</g>
<!-- cites -->
<g id="node7" class="node">
<title>cites</title>
<polygon fill="none" stroke="black" points="536.29,-482.33 482.29,-482.33 482.29,-446.33 536.29,-446.33 536.29,-482.33"/>
<text xml:space="preserve" text-anchor="middle" x="509.29" y="-459.28" font-family="Times,serif" font-size="14.00">cites</text>
</g>
<!-- RFC9081&#45;&gt;cites -->
<g id="edge6" class="edge">
<title>RFC9081&#45;&gt;cites</title>
<path fill="none" stroke="black" d="M359.78,-576.3C399.8,-546.12 444.84,-512.16 474.72,-489.64"/>
<polygon fill="black" stroke="black" points="476.78,-492.47 482.65,-483.66 472.56,-486.88 476.78,-492.47"/>
</g>
<!-- obs_by -->
<g id="node2" class="node">
<title>obs_by</title>
<polygon fill="none" stroke="black" points="66.25,-714.33 0,-714.33 0,-678.33 66.25,-678.33 66.25,-714.33"/>
<text xml:space="preserve" text-anchor="middle" x="33.12" y="-691.28" font-family="Times,serif" font-size="14.00">obsoletes</text>
</g>
<!-- obs_by&#45;&gt;RFC9081 -->
<g id="edge1" class="edge">
<title>obs_by&#45;&gt;RFC9081</title>
<path fill="none" stroke="black" d="M66.46,-688.93C76.57,-686.62 88.5,-683.89 101.44,-680.93"/>
<polygon fill="black" stroke="black" points="102.08,-684.37 111.05,-678.73 100.52,-677.55 102.08,-684.37"/>
</g>
<!-- RFC6514 -->
<g id="node5" class="node">
<title>RFC6514</title>
<g id="a_node5"><a xlink:href="RFC6514.html" xlink:title="This document describes the BGP encodings and procedures for exchanging the information elements required by Multicast in MPLS/BGP IP VPNs, as specified in RFC 6513. [STANDARDS&#45;TRACK]" target="_top">
<ellipse fill="none" stroke="black" cx="741.54" cy="-766.33" rx="147.61" ry="52.33"/>
<text xml:space="preserve" text-anchor="middle" x="741.54" y="-786.03" font-family="Times,serif" font-size="14.00">RFC6514</text>
<text xml:space="preserve" text-anchor="middle" x="741.54" y="-769.53" font-family="Times,serif" font-size="14.00">BGP Encodings and Procedures for</text>
<text xml:space="preserve" text-anchor="middle" x="741.54" y="-753.03" font-family="Times,serif" font-size="14.00">Multicast in MPLS/BGP IP VPNs</text>
<text xml:space="preserve" text-anchor="middle" x="741.54" y="-736.53" font-family="Times,serif" font-size="14.00">2012</text>
</a>
</g>
</g>
<!-- updates&#45;&gt;RFC6514 -->
<g id="edge4" class="edge">
<title>updates&#45;&gt;RFC6514</title>
<path fill="none" stroke="black" d="M533.41,-660.53C536.55,-663.35 539.65,-666.33 542.42,-669.33 555.39,-683.36 552.17,-692.8 567.42,-704.33 580.89,-714.51 596.19,-723.13 611.99,-730.41"/>
<polygon fill="black" stroke="black" points="610.48,-733.57 621.04,-734.38 613.29,-727.16 610.48,-733.57"/>
</g>
<!-- updated_by -->
<g id="node6" class="node">
<title>updated_by</title>
<polygon fill="none" stroke="black" points="61.75,-660.33 4.5,-660.33 4.5,-624.33 61.75,-624.33 61.75,-660.33"/>
<text xml:space="preserve" text-anchor="middle" x="33.12" y="-637.28" font-family="Times,serif" font-size="14.00">updates</text>
</g>
<!-- updated_by&#45;&gt;RFC9081 -->
<g id="edge5" class="edge">
<title>updated_by&#45;&gt;RFC9081</title>
<path fill="none" stroke="black" d="M62.13,-642.33C67.45,-642.33 73.38,-642.33 79.76,-642.33"/>
<polygon fill="black" stroke="black" points="79.39,-645.83 89.39,-642.33 79.39,-638.83 79.39,-645.83"/>
</g>
<!-- cites&#45;&gt;RFC6514 -->
<g id="edge7" class="edge">
<title>cites&#45;&gt;RFC6514</title>
<path fill="none" stroke="black" d="M514.19,-482.8C525.8,-537.58 559.86,-695.89 567.42,-704.33 578.15,-716.31 591.36,-725.97 605.65,-733.77"/>
<polygon fill="black" stroke="black" points="603.86,-736.79 614.36,-738.19 607.03,-730.55 603.86,-736.79"/>
</g>
<!-- RFC2764 -->
<g id="node8" class="node">
<title>RFC2764</title>
<g id="a_node8"><a xlink:href="RFC2764.html" xlink:title="This document describes a framework for Virtual Private Networks (VPNs) running across IP backbones. &#160;This memo provides information for the Internet community." target="_top">
<ellipse fill="none" stroke="black" cx="741.54" cy="-643.33" rx="174.13" ry="52.33"/>
<text xml:space="preserve" text-anchor="middle" x="741.54" y="-663.03" font-family="Times,serif" font-size="14.00">RFC2764</text>
<text xml:space="preserve" text-anchor="middle" x="741.54" y="-646.53" font-family="Times,serif" font-size="14.00">A Framework for IP Based Virtual Private</text>
<text xml:space="preserve" text-anchor="middle" x="741.54" y="-630.03" font-family="Times,serif" font-size="14.00">Networks</text>
<text xml:space="preserve" text-anchor="middle" x="741.54" y="-613.53" font-family="Times,serif" font-size="14.00">2000</text>
</a>
</g>
</g>
<!-- cites&#45;&gt;RFC2764 -->
<g id="edge8" class="edge">
<title>cites&#45;&gt;RFC2764</title>
<path fill="none" stroke="black" d="M514.62,-482.82C521.53,-508.41 537.44,-554.49 567.42,-581.33 577.08,-589.98 588.04,-597.44 599.63,-603.89"/>
<polygon fill="black" stroke="black" points="597.68,-606.82 608.17,-608.36 600.93,-600.61 597.68,-606.82"/>
</g>
<!-- RFC7716 -->
<g id="node9" class="node">
<title>RFC7716</title>
<g id="a_node9"><a xlink:href="RFC7716.html" xlink:title="RFCs 6513, 6514, and others describe protocols and procedures that a Service Provider (SP) may deploy in order to offer Multicast Virtual Private Network (Multicast VPN or MVPN) service to its customers. &#160;Some of these procedures use BGP to distribute VPN&#45;specific multicast routing information across a backbone network. &#160;With a small number of relatively minor modifications, the same BGP procedures can also be used to distribute multicast routing information that is not specific to any VPN. &#160;Multicast that is outside the context of a VPN is known as Global Table Multicast, or sometimes simply as Internet multicast. &#160;In this document, we describe the modifications that are needed to use the BGP&#45;MVPN procedures for Global Table Multicast." target="_top">
<ellipse fill="none" stroke="black" cx="741.54" cy="-520.33" rx="173.06" ry="52.33"/>
<text xml:space="preserve" text-anchor="middle" x="741.54" y="-540.03" font-family="Times,serif" font-size="14.00">RFC7716</text>
<text xml:space="preserve" text-anchor="middle" x="741.54" y="-523.53" font-family="Times,serif" font-size="14.00">Global Table Multicast with BGP</text>
<text xml:space="preserve" text-anchor="middle" x="741.54" y="-507.03" font-family="Times,serif" font-size="14.00">Multicast VPN (BGP&#45;MVPN) Procedures</text>
<text xml:space="preserve" text-anchor="middle" x="741.54" y="-490.53" font-family="Times,serif" font-size="14.00">2015</text>
</a>
</g>
</g>
<!-- cites&#45;&gt;RFC7716 -->
<g id="edge9" class="edge">
<title>cites&#45;&gt;RFC7716</title>
<path fill="none" stroke="black" d="M536.7,-470.75C551.98,-474.47 572.55,-479.47 594.76,-484.87"/>
<polygon fill="black" stroke="black" points="593.76,-488.23 604.3,-487.19 595.41,-481.43 593.76,-488.23"/>
</g>
<!-- RFC6513 -->
<g id="node10" class="node">
<title>RFC6513</title>
<g id="a_node10"><a xlink:href="RFC6513.html" xlink:title="In order for IP multicast traffic within a BGP/MPLS IP VPN (Virtual Private Network) to travel from one VPN site to another, special protocols and procedures must be implemented by the VPN Service Provider. &#160;These protocols and procedures are specified in this document. [STANDARDS&#45;TRACK]" target="_top">
<ellipse fill="none" stroke="black" cx="741.54" cy="-409.33" rx="142.84" ry="40.66"/>
<text xml:space="preserve" text-anchor="middle" x="741.54" y="-420.78" font-family="Times,serif" font-size="14.00">RFC6513</text>
<text xml:space="preserve" text-anchor="middle" x="741.54" y="-404.28" font-family="Times,serif" font-size="14.00">Multicast in MPLS/BGP IP VPNs</text>
<text xml:space="preserve" text-anchor="middle" x="741.54" y="-387.78" font-family="Times,serif" font-size="14.00">2012</text>
</a>
</g>
</g>
<!-- cites&#45;&gt;RFC6513 -->
<g id="edge10" class="edge">
<title>cites&#45;&gt;RFC6513</title>
<path fill="none" stroke="black" d="M536.7,-458.02C557.63,-453.02 588.47,-445.65 619.86,-438.15"/>
<polygon fill="black" stroke="black" points="620.58,-441.58 629.5,-435.85 618.96,-434.77 620.58,-441.58"/>
</g>
<!-- RFC3618 -->
<g id="node11" class="node">
<title>RFC3618</title>
<g id="a_node11"><a xlink:href="RFC3618.html" xlink:title="The Multicast Source Discovery Protocol (MSDP) describes a mechanism to connect multiple IP Version 4 Protocol Independent Multicast Sparse&#45;Mode (PIM&#45;SM) domains together. &#160;Each PIM&#45;SM domain uses its own independent Rendezvous Point (RP) and does not have to depend on RPs in other domains. &#160;This document reflects existing MSDP implementations." target="_top">
<ellipse fill="none" stroke="black" cx="741.54" cy="-298.33" rx="153.97" ry="52.33"/>
<text xml:space="preserve" text-anchor="middle" x="741.54" y="-318.03" font-family="Times,serif" font-size="14.00">RFC3618</text>
<text xml:space="preserve" text-anchor="middle" x="741.54" y="-301.53" font-family="Times,serif" font-size="14.00">Multicast Source Discovery Protocol</text>
<text xml:space="preserve" text-anchor="middle" x="741.54" y="-285.03" font-family="Times,serif" font-size="14.00">(MSDP)</text>
<text xml:space="preserve" text-anchor="middle" x="741.54" y="-268.53" font-family="Times,serif" font-size="14.00">2003</text>
</a>
</g>
</g>
<!-- cites&#45;&gt;RFC3618 -->
<g id="edge11" class="edge">
<title>cites&#45;&gt;RFC3618</title>
<path fill="none" stroke="black" d="M515.66,-446.12C523.42,-422.84 539.93,-382.74 567.42,-359.33 579.03,-349.43 592.36,-341.1 606.35,-334.1"/>
<polygon fill="black" stroke="black" points="607.73,-337.32 615.27,-329.88 604.73,-331 607.73,-337.32"/>
</g>
<!-- RFC2119 -->
<g id="node12" class="node">
<title>RFC2119</title>
<g id="a_node12"><a xlink:href="RFC2119.html" xlink:title="In many standards track documents several words are used to signify the requirements in the specification. &#160;These words are often capitalized. &#160;This document defines these words as they should be interpreted in IETF documents. &#160;This document specifies an Internet Best Current Practices for the Internet Community, and requests discussion and suggestions for improvements." target="_top">
<ellipse fill="none" stroke="black" cx="741.54" cy="-175.33" rx="160.34" ry="52.33"/>
<text xml:space="preserve" text-anchor="middle" x="741.54" y="-195.03" font-family="Times,serif" font-size="14.00">RFC2119</text>
<text xml:space="preserve" text-anchor="middle" x="741.54" y="-178.53" font-family="Times,serif" font-size="14.00">Key words for use in RFCs to Indicate</text>
<text xml:space="preserve" text-anchor="middle" x="741.54" y="-162.03" font-family="Times,serif" font-size="14.00">Requirement Levels</text>
<text xml:space="preserve" text-anchor="middle" x="741.54" y="-145.53" font-family="Times,serif" font-size="14.00">1997</text>
</a>
</g>
</g>
<!-- cites&#45;&gt;RFC2119 -->
<g id="edge12" class="edge">
<title>cites&#45;&gt;RFC2119</title>
<path fill="none" stroke="black" d="M509.48,-446.09C508.6,-403.79 512.4,-297.98 567.42,-237.33 576.81,-226.97 588.06,-218.34 600.25,-211.16"/>
<polygon fill="black" stroke="black" points="601.79,-214.3 608.88,-206.42 598.43,-208.16 601.79,-214.3"/>
</g>
<!-- RFC8174 -->
<g id="node13" class="node">
<title>RFC8174</title>
<g id="a_node13"><a xlink:href="RFC8174.html" xlink:title="RFC 2119 specifies common key words that may be used in protocol specifications. &#160;This document aims to reduce the ambiguity by clarifying that only UPPERCASE usage of the key words have the defined special meanings." target="_top">
<ellipse fill="none" stroke="black" cx="741.54" cy="-52.33" rx="172" ry="52.33"/>
<text xml:space="preserve" text-anchor="middle" x="741.54" y="-72.03" font-family="Times,serif" font-size="14.00">RFC8174</text>
<text xml:space="preserve" text-anchor="middle" x="741.54" y="-55.53" font-family="Times,serif" font-size="14.00">Ambiguity of Uppercase vs Lowercase in</text>
<text xml:space="preserve" text-anchor="middle" x="741.54" y="-39.03" font-family="Times,serif" font-size="14.00">RFC 2119 Key Words</text>
<text xml:space="preserve" text-anchor="middle" x="741.54" y="-22.53" font-family="Times,serif" font-size="14.00">2017</text>
</a>
</g>
</g>
<!-- cites&#45;&gt;RFC8174 -->
<g id="edge13" class="edge">
<title>cites&#45;&gt;RFC8174</title>
<path fill="none" stroke="black" d="M510.89,-446.01C513.35,-381.45 524.67,-165.66 567.42,-114.33 575.24,-104.93 584.59,-96.96 594.84,-90.2"/>
<polygon fill="black" stroke="black" points="596.48,-93.3 603.2,-85.11 592.84,-87.32 596.48,-93.3"/>
</g>
<!-- rev_cites -->
<g id="node14" class="node">
<title>rev_cites</title>
<polygon fill="none" stroke="black" points="60.12,-606.33 6.12,-606.33 6.12,-570.33 60.12,-570.33 60.12,-606.33"/>
<text xml:space="preserve" text-anchor="middle" x="33.12" y="-583.28" font-family="Times,serif" font-size="14.00">cites</text>
</g>
<!-- rev_cites&#45;&gt;RFC9081 -->
<g id="edge14" class="edge">
<title>rev_cites&#45;&gt;RFC9081</title>
<path fill="none" stroke="black" d="M60.29,-594.31C71.56,-596.89 85.75,-600.13 101.41,-603.72"/>
<polygon fill="black" stroke="black" points="100.46,-607.09 110.99,-605.91 102.02,-600.27 100.46,-607.09"/>
</g>
</g>
</svg>
