<?xml version="1.0" encoding="UTF-8" standalone="no"?>
<!DOCTYPE svg PUBLIC "-//W3C//DTD SVG 1.1//EN"
 "http://www.w3.org/Graphics/SVG/1.1/DTD/svg11.dtd">
<!-- Generated by graphviz version 14.1.1 (20251213.1925)
 -->
<!-- Title: Flow Pages: 1 -->
<svg width="814pt" height="1567pt"
 viewBox="0.00 0.00 814.00 1567.00" xmlns="http://www.w3.org/2000/svg" xmlns:xlink="http://www.w3.org/1999/xlink">
<g id="graph0" class="graph" transform="scale(1 1) rotate(0) translate(4 1563.32)">
<title>Flow</title>
<polygon fill="white" stroke="none" points="-4,4 -4,-1563.32 810.42,-1563.32 810.42,4 -4,4"/>
<!-- RFC9606 -->
<g id="node1" class="node">
<title>RFC9606</title>
<g id="a_node1"><a xlink:title="This document specifies a method for DNS resolvers to publish information about themselves. &#160;DNS clients can use the resolver information to identify the capabilities of DNS resolvers. &#160;How DNS clients use such information is beyond the scope of this document.">
<ellipse fill="green" stroke="black" cx="207.04" cy="-809.33" rx="115.79" ry="40.66"/>
<text xml:space="preserve" text-anchor="middle" x="207.04" y="-820.78" font-family="Times,serif" font-size="14.00">RFC9606</text>
<text xml:space="preserve" text-anchor="middle" x="207.04" y="-804.28" font-family="Times,serif" font-size="14.00">DNS Resolver Information</text>
<text xml:space="preserve" text-anchor="middle" x="207.04" y="-787.78" font-family="Times,serif" font-size="14.00">2024</text>
</a>
</g>
</g>
<!-- obs -->
<g id="node3" class="node">
<title>obs</title>
<polygon fill="lightblue" stroke="black" points="414.08,-881.33 347.83,-881.33 347.83,-845.33 414.08,-845.33 414.08,-881.33"/>
<text xml:space="preserve" text-anchor="middle" x="380.95" y="-858.28" font-family="Times,serif" font-size="14.00">obsoletes</text>
</g>
<!-- RFC9606&#45;&gt;obs -->
<g id="edge2" class="edge">
<title>RFC9606&#45;&gt;obs</title>
<path fill="none" stroke="black" d="M294.25,-836.41C309.02,-841.05 323.78,-845.68 336.79,-849.77"/>
<polygon fill="black" stroke="black" points="335.7,-853.09 346.28,-852.75 337.79,-846.41 335.7,-853.09"/>
</g>
<!-- updates -->
<g id="node4" class="node">
<title>updates</title>
<polygon fill="lightyellow" stroke="black" points="409.58,-827.33 352.33,-827.33 352.33,-791.33 409.58,-791.33 409.58,-827.33"/>
<text xml:space="preserve" text-anchor="middle" x="380.95" y="-804.28" font-family="Times,serif" font-size="14.00">updates</text>
</g>
<!-- RFC9606&#45;&gt;updates -->
<g id="edge3" class="edge">
<title>RFC9606&#45;&gt;updates</title>
<path fill="none" stroke="black" d="M323.19,-809.33C329.27,-809.33 335.13,-809.33 340.62,-809.33"/>
<polygon fill="black" stroke="black" points="340.5,-812.83 350.5,-809.33 340.5,-805.83 340.5,-812.83"/>
</g>
<!-- cites -->
<g id="node6" class="node">
<title>cites</title>
<polygon fill="lightblue" stroke="black" points="407.95,-773.33 353.95,-773.33 353.95,-737.33 407.95,-737.33 407.95,-773.33"/>
<text xml:space="preserve" text-anchor="middle" x="380.95" y="-750.28" font-family="Times,serif" font-size="14.00">cites</text>
</g>
<!-- RFC9606&#45;&gt;cites -->
<g id="edge5" class="edge">
<title>RFC9606&#45;&gt;cites</title>
<path fill="none" stroke="black" d="M294.25,-782.25C311.3,-776.89 328.34,-771.54 342.69,-767.03"/>
<polygon fill="black" stroke="black" points="343.63,-770.41 352.12,-764.07 341.53,-763.73 343.63,-770.41"/>
</g>
<!-- obs_by -->
<g id="node2" class="node">
<title>obs_by</title>
<polygon fill="lightblue" stroke="black" points="66.25,-881.33 0,-881.33 0,-845.33 66.25,-845.33 66.25,-881.33"/>
<text xml:space="preserve" text-anchor="middle" x="33.12" y="-858.28" font-family="Times,serif" font-size="14.00">obsoletes</text>
</g>
<!-- obs_by&#45;&gt;RFC9606 -->
<g id="edge1" class="edge">
<title>obs_by&#45;&gt;RFC9606</title>
<path fill="none" stroke="black" d="M66.46,-853.17C78.87,-849.27 93.76,-844.59 109.12,-839.77"/>
<polygon fill="black" stroke="black" points="109.87,-843.2 118.36,-836.87 107.78,-836.52 109.87,-843.2"/>
</g>
<!-- updated_by -->
<g id="node5" class="node">
<title>updated_by</title>
<polygon fill="lightyellow" stroke="black" points="61.75,-827.33 4.5,-827.33 4.5,-791.33 61.75,-791.33 61.75,-827.33"/>
<text xml:space="preserve" text-anchor="middle" x="33.12" y="-804.28" font-family="Times,serif" font-size="14.00">updates</text>
</g>
<!-- updated_by&#45;&gt;RFC9606 -->
<g id="edge4" class="edge">
<title>updated_by&#45;&gt;RFC9606</title>
<path fill="none" stroke="black" d="M62.13,-809.33C67.55,-809.33 73.55,-809.33 79.94,-809.33"/>
<polygon fill="black" stroke="black" points="79.49,-812.83 89.49,-809.33 79.49,-805.83 79.49,-812.83"/>
</g>
<!-- RFC9463 -->
<g id="node7" class="node">
<title>RFC9463</title>
<g id="a_node7"><a xlink:href="RFC9463.html" xlink:title="This document specifies new DHCP and IPv6 Router Advertisement options to discover encrypted DNS resolvers (e.g., DNS over HTTPS, DNS over TLS, and DNS over QUIC). &#160;Particularly, it allows a host to learn an Authentication Domain Name together with a list of IP addresses and a set of service parameters to reach such encrypted DNS resolvers." target="_top">
<ellipse fill="none" stroke="black" cx="622.75" cy="-1495.33" rx="173.06" ry="63.99"/>
<text xml:space="preserve" text-anchor="middle" x="622.75" y="-1523.28" font-family="Times,serif" font-size="14.00">RFC9463</text>
<text xml:space="preserve" text-anchor="middle" x="622.75" y="-1506.78" font-family="Times,serif" font-size="14.00">DHCP and Router Advertisement Options</text>
<text xml:space="preserve" text-anchor="middle" x="622.75" y="-1490.28" font-family="Times,serif" font-size="14.00">for the Discovery of Network&#45;designated</text>
<text xml:space="preserve" text-anchor="middle" x="622.75" y="-1473.78" font-family="Times,serif" font-size="14.00">Resolvers (DNR)</text>
<text xml:space="preserve" text-anchor="middle" x="622.75" y="-1457.28" font-family="Times,serif" font-size="14.00">2023</text>
</a>
</g>
</g>
<!-- cites&#45;&gt;RFC9463 -->
<g id="edge6" class="edge">
<title>cites&#45;&gt;RFC9463</title>
<path fill="none" stroke="black" d="M408.07,-773.61C410.45,-776.27 412.54,-779.19 414.08,-782.33 445.38,-846.24 398.03,-1364.19 439.08,-1422.33 447.55,-1434.33 458.34,-1444.36 470.43,-1452.75"/>
<polygon fill="black" stroke="black" points="468.33,-1455.56 478.63,-1458.02 472.11,-1449.67 468.33,-1455.56"/>
</g>
<!-- RFC9462 -->
<g id="node8" class="node">
<title>RFC9462</title>
<g id="a_node8"><a xlink:href="RFC9462.html" xlink:title="This document defines Discovery of Designated Resolvers (DDR), a set of mechanisms for DNS clients to use DNS records to discover a resolver&#39;s encrypted DNS configuration. &#160;An Encrypted DNS Resolver discovered in this manner is referred to as a Designated Resolver. &#160;These mechanisms can be used to move from unencrypted DNS to encrypted DNS when only the IP address of a resolver is known. &#160;These mechanisms are designed to be limited to cases where Unencrypted DNS Resolvers and their Designated Resolvers are operated by the same entity or cooperating entities. &#160;It can also be used to discover support for encrypted DNS protocols when the name of an Encrypted DNS Resolver is known." target="_top">
<ellipse fill="none" stroke="black" cx="622.75" cy="-1372.33" rx="147.08" ry="40.66"/>
<text xml:space="preserve" text-anchor="middle" x="622.75" y="-1383.78" font-family="Times,serif" font-size="14.00">RFC9462</text>
<text xml:space="preserve" text-anchor="middle" x="622.75" y="-1367.28" font-family="Times,serif" font-size="14.00">Discovery of Designated Resolvers</text>
<text xml:space="preserve" text-anchor="middle" x="622.75" y="-1350.78" font-family="Times,serif" font-size="14.00">2023</text>
</a>
</g>
</g>
<!-- cites&#45;&gt;RFC9462 -->
<g id="edge7" class="edge">
<title>cites&#45;&gt;RFC9462</title>
<path fill="none" stroke="black" d="M408.04,-773.63C410.43,-776.28 412.53,-779.19 414.08,-782.33 440.69,-836.17 401.55,-1275.43 439.08,-1322.33 449.18,-1334.94 462.13,-1344.56 476.48,-1351.86"/>
<polygon fill="black" stroke="black" points="474.69,-1354.89 485.24,-1355.92 477.63,-1348.54 474.69,-1354.89"/>
</g>
<!-- RFC9156 -->
<g id="node9" class="node">
<title>RFC9156</title>
<g id="a_node9"><a xlink:href="RFC9156.html" xlink:title="This document describes a technique called QNAME minimisation to improve DNS privacy, where the DNS resolver no longer always sends the full original QNAME and original QTYPE to the upstream name server. &#160;This document obsoletes RFC 7816." target="_top">
<ellipse fill="none" stroke="black" cx="622.75" cy="-1261.33" rx="183.67" ry="52.33"/>
<text xml:space="preserve" text-anchor="middle" x="622.75" y="-1281.03" font-family="Times,serif" font-size="14.00">RFC9156</text>
<text xml:space="preserve" text-anchor="middle" x="622.75" y="-1264.53" font-family="Times,serif" font-size="14.00">DNS Query Name Minimisation to Improve</text>
<text xml:space="preserve" text-anchor="middle" x="622.75" y="-1248.03" font-family="Times,serif" font-size="14.00">Privacy</text>
<text xml:space="preserve" text-anchor="middle" x="622.75" y="-1231.53" font-family="Times,serif" font-size="14.00">2021</text>
</a>
</g>
</g>
<!-- cites&#45;&gt;RFC9156 -->
<g id="edge8" class="edge">
<title>cites&#45;&gt;RFC9156</title>
<path fill="none" stroke="black" d="M408,-773.65C410.4,-776.3 412.51,-779.2 414.08,-782.33 455.87,-865.47 382.46,-1126.48 439.08,-1200.33 446.25,-1209.68 454.9,-1217.61 464.5,-1224.33"/>
<polygon fill="black" stroke="black" points="462.4,-1227.14 472.7,-1229.6 466.18,-1221.25 462.4,-1227.14"/>
</g>
<!-- RFC8914 -->
<g id="node10" class="node">
<title>RFC8914</title>
<g id="a_node10"><a xlink:href="RFC8914.html" xlink:title="This document defines an extensible method to return additional information about the cause of DNS errors. &#160;Though created primarily to extend SERVFAIL to provide additional information about the cause of DNS and DNSSEC failures, the Extended DNS Errors option defined in this document allows all response types to contain extended error information. &#160;Extended DNS Error information does not change the processing of RCODEs." target="_top">
<ellipse fill="none" stroke="black" cx="622.75" cy="-1150.33" rx="95.64" ry="40.66"/>
<text xml:space="preserve" text-anchor="middle" x="622.75" y="-1161.78" font-family="Times,serif" font-size="14.00">RFC8914</text>
<text xml:space="preserve" text-anchor="middle" x="622.75" y="-1145.28" font-family="Times,serif" font-size="14.00">Extended DNS Errors</text>
<text xml:space="preserve" text-anchor="middle" x="622.75" y="-1128.78" font-family="Times,serif" font-size="14.00">2020</text>
</a>
</g>
</g>
<!-- cites&#45;&gt;RFC8914 -->
<g id="edge9" class="edge">
<title>cites&#45;&gt;RFC8914</title>
<path fill="none" stroke="black" d="M407.94,-773.68C410.35,-776.32 412.48,-779.22 414.08,-782.33 446.51,-845.36 393.9,-1045.7 439.08,-1100.33 458.31,-1123.58 487.23,-1136.59 516.42,-1143.7"/>
<polygon fill="black" stroke="black" points="515.6,-1147.11 526.12,-1145.83 517.1,-1140.27 515.6,-1147.11"/>
</g>
<!-- RFC2119 -->
<g id="node11" class="node">
<title>RFC2119</title>
<g id="a_node11"><a xlink:href="RFC2119.html" xlink:title="In many standards track documents several words are used to signify the requirements in the specification. &#160;These words are often capitalized. &#160;This document defines these words as they should be interpreted in IETF documents. &#160;This document specifies an Internet Best Current Practices for the Internet Community, and requests discussion and suggestions for improvements." target="_top">
<ellipse fill="none" stroke="black" cx="622.75" cy="-1039.33" rx="160.34" ry="52.33"/>
<text xml:space="preserve" text-anchor="middle" x="622.75" y="-1059.03" font-family="Times,serif" font-size="14.00">RFC2119</text>
<text xml:space="preserve" text-anchor="middle" x="622.75" y="-1042.53" font-family="Times,serif" font-size="14.00">Key words for use in RFCs to Indicate</text>
<text xml:space="preserve" text-anchor="middle" x="622.75" y="-1026.03" font-family="Times,serif" font-size="14.00">Requirement Levels</text>
<text xml:space="preserve" text-anchor="middle" x="622.75" y="-1009.53" font-family="Times,serif" font-size="14.00">1997</text>
</a>
</g>
</g>
<!-- cites&#45;&gt;RFC2119 -->
<g id="edge10" class="edge">
<title>cites&#45;&gt;RFC2119</title>
<path fill="none" stroke="black" d="M407.79,-773.76C410.23,-776.39 412.4,-779.26 414.08,-782.33 455.94,-859.02 383.76,-909.69 439.08,-977.33 448.97,-989.43 461.33,-999.17 474.93,-1007.03"/>
<polygon fill="black" stroke="black" points="473.22,-1010.08 483.69,-1011.7 476.52,-1003.91 473.22,-1010.08"/>
</g>
<!-- RFC8174 -->
<g id="node12" class="node">
<title>RFC8174</title>
<g id="a_node12"><a xlink:href="RFC8174.html" xlink:title="RFC 2119 specifies common key words that may be used in protocol specifications. &#160;This document aims to reduce the ambiguity by clarifying that only UPPERCASE usage of the key words have the defined special meanings." target="_top">
<ellipse fill="none" stroke="black" cx="622.75" cy="-916.33" rx="172" ry="52.33"/>
<text xml:space="preserve" text-anchor="middle" x="622.75" y="-936.03" font-family="Times,serif" font-size="14.00">RFC8174</text>
<text xml:space="preserve" text-anchor="middle" x="622.75" y="-919.53" font-family="Times,serif" font-size="14.00">Ambiguity of Uppercase vs Lowercase in</text>
<text xml:space="preserve" text-anchor="middle" x="622.75" y="-903.03" font-family="Times,serif" font-size="14.00">RFC 2119 Key Words</text>
<text xml:space="preserve" text-anchor="middle" x="622.75" y="-886.53" font-family="Times,serif" font-size="14.00">2017</text>
</a>
</g>
</g>
<!-- cites&#45;&gt;RFC8174 -->
<g id="edge11" class="edge">
<title>cites&#45;&gt;RFC8174</title>
<path fill="none" stroke="black" d="M406.88,-773.8C409.54,-776.46 412.02,-779.32 414.08,-782.33 433.47,-810.61 414.74,-831.17 439.08,-855.33 449,-865.18 460.56,-873.43 472.95,-880.36"/>
<polygon fill="black" stroke="black" points="471.23,-883.41 481.71,-884.93 474.47,-877.2 471.23,-883.41"/>
</g>
<!-- RFC9499 -->
<g id="node13" class="node">
<title>RFC9499</title>
<g id="a_node13"><a xlink:href="RFC9499.html" xlink:title="The Domain Name System (DNS) is defined in literally dozens of different RFCs. The terminology used by implementers and developers of DNS protocols, and by operators of DNS systems, has changed in the decades since the DNS was first defined. This document gives current definitions for many of the terms used in the DNS in a single document. This document updates RFC 2308 by clarifying the definitions of forwarder and QNAME. It obsoletes RFC 8499 by adding multiple terms and clarifications. Comprehensive lists of changed and new definitions can be found in Appendices A and B." target="_top">
<ellipse fill="none" stroke="black" cx="622.75" cy="-805.33" rx="82.91" ry="40.66"/>
<text xml:space="preserve" text-anchor="middle" x="622.75" y="-816.78" font-family="Times,serif" font-size="14.00">RFC9499</text>
<text xml:space="preserve" text-anchor="middle" x="622.75" y="-800.28" font-family="Times,serif" font-size="14.00">DNS Terminology</text>
<text xml:space="preserve" text-anchor="middle" x="622.75" y="-783.78" font-family="Times,serif" font-size="14.00">2024</text>
</a>
</g>
</g>
<!-- cites&#45;&gt;RFC9499 -->
<g id="edge12" class="edge">
<title>cites&#45;&gt;RFC9499</title>
<path fill="none" stroke="black" d="M408.07,-760.77C438.34,-767.08 489.81,-777.82 534.65,-787.17"/>
<polygon fill="black" stroke="black" points="533.91,-790.59 544.41,-789.2 535.34,-783.73 533.91,-790.59"/>
</g>
<!-- RFC8484 -->
<g id="node14" class="node">
<title>RFC8484</title>
<g id="a_node14"><a xlink:href="RFC8484.html" xlink:title="This document defines a protocol for sending DNS queries and getting DNS responses over HTTPS. &#160;Each DNS query&#45;response pair is mapped into an HTTP exchange." target="_top">
<ellipse fill="none" stroke="black" cx="622.75" cy="-706.33" rx="141.77" ry="40.66"/>
<text xml:space="preserve" text-anchor="middle" x="622.75" y="-717.78" font-family="Times,serif" font-size="14.00">RFC8484</text>
<text xml:space="preserve" text-anchor="middle" x="622.75" y="-701.28" font-family="Times,serif" font-size="14.00">DNS Queries over HTTPS (DoH)</text>
<text xml:space="preserve" text-anchor="middle" x="622.75" y="-684.78" font-family="Times,serif" font-size="14.00">2018</text>
</a>
</g>
</g>
<!-- cites&#45;&gt;RFC8484 -->
<g id="edge13" class="edge">
<title>cites&#45;&gt;RFC8484</title>
<path fill="none" stroke="black" d="M408.07,-749.99C429.66,-745.58 462.05,-738.96 495.12,-732.2"/>
<polygon fill="black" stroke="black" points="495.76,-735.64 504.86,-730.21 494.36,-728.78 495.76,-735.64"/>
</g>
<!-- RFC7858 -->
<g id="node15" class="node">
<title>RFC7858</title>
<g id="a_node15"><a xlink:href="RFC7858.html" xlink:title="This document describes the use of Transport Layer Security (TLS) to provide privacy for DNS. Encryption provided by TLS eliminates opportunities for eavesdropping and on&#45;path tampering with DNS queries in the network, such as discussed in RFC 7626. In addition, this document specifies two usage profiles for DNS over TLS and provides advice on performance considerations to minimize overhead from using TCP and TLS with DNS. This document focuses on securing stub&#45;to&#45;recursive traffic, as per the charter of the DPRIVE Working Group. It does not prevent future applications of the protocol to recursive&#45;to&#45;authoritative traffic." target="_top">
<ellipse fill="none" stroke="black" cx="622.75" cy="-595.33" rx="156.09" ry="52.33"/>
<text xml:space="preserve" text-anchor="middle" x="622.75" y="-615.03" font-family="Times,serif" font-size="14.00">RFC7858</text>
<text xml:space="preserve" text-anchor="middle" x="622.75" y="-598.53" font-family="Times,serif" font-size="14.00">Specification for DNS over Transport</text>
<text xml:space="preserve" text-anchor="middle" x="622.75" y="-582.03" font-family="Times,serif" font-size="14.00">Layer Security (TLS)</text>
<text xml:space="preserve" text-anchor="middle" x="622.75" y="-565.53" font-family="Times,serif" font-size="14.00">2016</text>
</a>
</g>
</g>
<!-- cites&#45;&gt;RFC7858 -->
<g id="edge14" class="edge">
<title>cites&#45;&gt;RFC7858</title>
<path fill="none" stroke="black" d="M387.97,-736.93C396.14,-714.75 412.8,-677.79 439.08,-656.33 452.14,-645.66 467.15,-636.82 482.83,-629.52"/>
<polygon fill="black" stroke="black" points="484.1,-632.78 491.83,-625.54 481.27,-626.38 484.1,-632.78"/>
</g>
<!-- RFC9250 -->
<g id="node16" class="node">
<title>RFC9250</title>
<g id="a_node16"><a xlink:href="RFC9250.html" xlink:title="This document describes the use of QUIC to provide transport confidentiality for DNS. &#160;The encryption provided by QUIC has similar properties to those provided by TLS, while QUIC transport eliminates the head&#45;of&#45;line blocking issues inherent with TCP and provides more efficient packet&#45;loss recovery than UDP. &#160;DNS over QUIC (DoQ) has privacy properties similar to DNS over TLS (DoT) specified in RFC 7858, and latency characteristics similar to classic DNS over UDP. &#160;This specification describes the use of DoQ as a general&#45;purpose transport for DNS and includes the use of DoQ for stub to recursive, recursive to authoritative, and zone transfer scenarios." target="_top">
<ellipse fill="none" stroke="black" cx="622.75" cy="-484.33" rx="167.76" ry="40.66"/>
<text xml:space="preserve" text-anchor="middle" x="622.75" y="-495.78" font-family="Times,serif" font-size="14.00">RFC9250</text>
<text xml:space="preserve" text-anchor="middle" x="622.75" y="-479.28" font-family="Times,serif" font-size="14.00">DNS over Dedicated QUIC Connections</text>
<text xml:space="preserve" text-anchor="middle" x="622.75" y="-462.78" font-family="Times,serif" font-size="14.00">2022</text>
</a>
</g>
</g>
<!-- cites&#45;&gt;RFC9250 -->
<g id="edge15" class="edge">
<title>cites&#45;&gt;RFC9250</title>
<path fill="none" stroke="black" d="M384.31,-737C390.8,-689.39 410.35,-563.46 439.08,-534.33 448.18,-525.09 458.82,-517.51 470.3,-511.3"/>
<polygon fill="black" stroke="black" points="471.83,-514.45 479.23,-506.86 468.72,-508.18 471.83,-514.45"/>
</g>
<!-- RFC7070 -->
<g id="node17" class="node">
<title>RFC7070</title>
<g id="a_node17"><a xlink:href="RFC7070.html" xlink:title="This document describes a general architecture for a reputation&#45;based service, allowing one to request reputation&#45;related data over the Internet, where reputation refers to predictions or expectations about an entity or an identifier such as a domain name. &#160;The document roughly follows the recommendations of RFC 4101 for describing a protocol model." target="_top">
<ellipse fill="none" stroke="black" cx="622.75" cy="-385.33" rx="172" ry="40.66"/>
<text xml:space="preserve" text-anchor="middle" x="622.75" y="-396.78" font-family="Times,serif" font-size="14.00">RFC7070</text>
<text xml:space="preserve" text-anchor="middle" x="622.75" y="-380.28" font-family="Times,serif" font-size="14.00">An Architecture for Reputation Reporting</text>
<text xml:space="preserve" text-anchor="middle" x="622.75" y="-363.78" font-family="Times,serif" font-size="14.00">2013</text>
</a>
</g>
</g>
<!-- cites&#45;&gt;RFC7070 -->
<g id="edge16" class="edge">
<title>cites&#45;&gt;RFC7070</title>
<path fill="none" stroke="black" d="M382.69,-737.14C385.55,-676.01 397.84,-479.27 439.08,-434.33 447.07,-425.62 456.42,-418.39 466.6,-412.4"/>
<polygon fill="black" stroke="black" points="468.11,-415.56 475.26,-407.74 464.8,-409.39 468.11,-415.56"/>
</g>
<!-- RFC1035 -->
<g id="node18" class="node">
<title>RFC1035</title>
<g id="a_node18"><a xlink:href="RFC1035.html" xlink:title="This RFC is the revised specification of the protocol and format used in the implementation of the Domain Name System. &#160;It obsoletes RFC&#45;883. &#160;This memo documents the details of the domain name client &#45; server communication." target="_top">
<ellipse fill="none" stroke="black" cx="622.75" cy="-274.33" rx="156.09" ry="52.33"/>
<text xml:space="preserve" text-anchor="middle" x="622.75" y="-294.03" font-family="Times,serif" font-size="14.00">RFC1035</text>
<text xml:space="preserve" text-anchor="middle" x="622.75" y="-277.53" font-family="Times,serif" font-size="14.00">Domain names &#45; implementation and</text>
<text xml:space="preserve" text-anchor="middle" x="622.75" y="-261.03" font-family="Times,serif" font-size="14.00">specification</text>
<text xml:space="preserve" text-anchor="middle" x="622.75" y="-244.53" font-family="Times,serif" font-size="14.00">1987</text>
</a>
</g>
</g>
<!-- cites&#45;&gt;RFC1035 -->
<g id="edge17" class="edge">
<title>cites&#45;&gt;RFC1035</title>
<path fill="none" stroke="black" d="M381.96,-736.94C382.34,-664.25 387.32,-397.8 439.08,-335.33 449.39,-322.88 462.32,-312.96 476.51,-305.05"/>
<polygon fill="black" stroke="black" points="477.89,-308.28 485.18,-300.59 474.69,-302.06 477.89,-308.28"/>
</g>
<!-- RFC6763 -->
<g id="node19" class="node">
<title>RFC6763</title>
<g id="a_node19"><a xlink:href="RFC6763.html" xlink:title="This document specifies how DNS resource records are named and structured to facilitate service discovery. &#160;Given a type of service that a client is looking for, and a domain in which the client is looking for that service, this mechanism allows clients to discover a list of named instances of that desired service, using standard DNS queries. &#160;This mechanism is referred to as DNS&#45;based Service Discovery, or DNS&#45;SD." target="_top">
<ellipse fill="none" stroke="black" cx="622.75" cy="-163.33" rx="130.11" ry="40.66"/>
<text xml:space="preserve" text-anchor="middle" x="622.75" y="-174.78" font-family="Times,serif" font-size="14.00">RFC6763</text>
<text xml:space="preserve" text-anchor="middle" x="622.75" y="-158.28" font-family="Times,serif" font-size="14.00">DNS&#45;Based Service Discovery</text>
<text xml:space="preserve" text-anchor="middle" x="622.75" y="-141.78" font-family="Times,serif" font-size="14.00">2013</text>
</a>
</g>
</g>
<!-- cites&#45;&gt;RFC6763 -->
<g id="edge18" class="edge">
<title>cites&#45;&gt;RFC6763</title>
<path fill="none" stroke="black" d="M382.67,-737.02C386.36,-647.02 404.39,-254.16 439.08,-213.33 452.04,-198.07 469.17,-187.24 487.75,-179.6"/>
<polygon fill="black" stroke="black" points="488.97,-182.88 497.11,-176.1 486.51,-176.33 488.97,-182.88"/>
</g>
<!-- RFC8126 -->
<g id="node20" class="node">
<title>RFC8126</title>
<g id="a_node20"><a xlink:href="RFC8126.html" xlink:title="Many protocols make use of points of extensibility that use constants to identify various protocol parameters. To ensure that the values in these fields do not have conflicting uses and to promote interoperability, their allocations are often coordinated by a central record keeper. For IETF protocols, that role is filled by the Internet Assigned Numbers Authority (IANA). To make assignments in a given registry prudently, guidance describing the conditions under which new values should be assigned, as well as when and how modifications to existing values can be made, is needed. This document defines a framework for the documentation of these guidelines by specification authors, in order to assure that the provided guidance for the IANA Considerations is clear and addresses the various issues that are likely in the operation of a registry. This is the third edition of this document; it obsoletes RFC 5226." target="_top">
<ellipse fill="none" stroke="black" cx="622.75" cy="-52.33" rx="136.47" ry="52.33"/>
<text xml:space="preserve" text-anchor="middle" x="622.75" y="-72.03" font-family="Times,serif" font-size="14.00">RFC8126</text>
<text xml:space="preserve" text-anchor="middle" x="622.75" y="-55.53" font-family="Times,serif" font-size="14.00">Guidelines for Writing an IANA</text>
<text xml:space="preserve" text-anchor="middle" x="622.75" y="-39.03" font-family="Times,serif" font-size="14.00">Considerations Section in RFCs</text>
<text xml:space="preserve" text-anchor="middle" x="622.75" y="-22.53" font-family="Times,serif" font-size="14.00">2017</text>
</a>
</g>
</g>
<!-- cites&#45;&gt;RFC8126 -->
<g id="edge19" class="edge">
<title>cites&#45;&gt;RFC8126</title>
<path fill="none" stroke="black" d="M382.4,-737.09C384.99,-637.65 399.36,-163.59 439.08,-113.33 451.44,-97.68 467.95,-86.02 486.01,-77.32"/>
<polygon fill="black" stroke="black" points="487.39,-80.54 495.11,-73.28 484.55,-74.14 487.39,-80.54"/>
</g>
<!-- rev_cites -->
<g id="node21" class="node">
<title>rev_cites</title>
<polygon fill="lightblue" stroke="black" points="60.12,-773.33 6.12,-773.33 6.12,-737.33 60.12,-737.33 60.12,-773.33"/>
<text xml:space="preserve" text-anchor="middle" x="33.12" y="-750.28" font-family="Times,serif" font-size="14.00">cites</text>
</g>
<!-- rev_cites&#45;&gt;RFC9606 -->
<g id="edge20" class="edge">
<title>rev_cites&#45;&gt;RFC9606</title>
<path fill="none" stroke="black" d="M60.61,-763.65C74.01,-767.85 91.19,-773.25 109.02,-778.85"/>
<polygon fill="black" stroke="black" points="107.84,-782.15 118.43,-781.81 109.94,-775.47 107.84,-782.15"/>
</g>
</g>
</svg>
